<svg xmlns="http://www.w3.org/2000/svg" xmlns:xlink="http://www.w3.org/1999/xlink" width="500" zoomAndPan="magnify" viewBox="0 0 375 374.999991" height="500" preserveAspectRatio="xMidYMid meet" version="1.0"><defs><clipPath id="e0e9d1a00a"><path d="M 32 32.046875 L 339 32.046875 L 339 337 L 32 337 Z M 32 32.046875 " clip-rule="nonzero"/></clipPath></defs><g clip-path="url(#e0e9d1a00a)"><path fill="#849bff" d="M 164.785156 33.023438 C 125 38.332031 90.070312 58.910156 66.074219 88.714844 L 109.210938 88.714844 C 123.121094 63.578125 142.09375 43.054688 164.789062 35.152344 C 166.066406 34.691406 172.730469 32.015625 164.785156 33.023438 Z M 205.585938 35.121094 C 228.003906 42.890625 246.796875 62.976562 260.667969 87.667969 C 261.292969 88.742188 261.359375 88.714844 262.695312 88.714844 L 302.460938 88.714844 C 303.667969 88.71875 303.785156 88.066406 303.484375 87.601562 C 279.496094 58.371094 244.90625 38.226562 205.574219 33.011719 C 199.679688 32.4375 201.300781 33.757812 205.585938 35.121094 Z M 189.082031 35.808594 C 188.085938 35.808594 187.269531 36.636719 187.269531 37.675781 L 187.269531 86.679688 C 187.320312 88.089844 187.871094 88.667969 189.316406 88.714844 L 254.582031 88.714844 C 256.300781 88.699219 255.550781 87.222656 255.402344 86.726562 C 242.691406 64.695312 225.214844 45.71875 200.777344 37.867188 C 197.078125 36.675781 193.210938 36.085938 189.308594 35.828125 C 189.222656 35.8125 189.171875 35.808594 189.082031 35.808594 Z M 181.152344 35.890625 C 150.84375 38.492188 128.652344 62.800781 113.925781 88.714844 L 181.230469 88.714844 C 182.667969 88.660156 183.125 87.988281 183.191406 86.613281 L 183.191406 37.671875 C 183.191406 36.660156 182.402344 35.890625 181.40625 35.890625 Z M 61.390625 94.820312 C 50.011719 110.507812 41.582031 128.441406 36.808594 147.832031 C 36.203125 149.792969 36.941406 149.886719 38.421875 149.886719 L 85.332031 149.886719 C 87.496094 149.875 87.09375 149.308594 87.390625 147.878906 C 91.183594 129.960938 97.507812 111.5625 106.015625 94.792969 C 107.6875 92.535156 106.375 92.769531 105.726562 92.792969 L 64.027344 92.792969 C 62.605469 92.765625 62.121094 93.828125 61.390625 94.820312 Z M 110.53125 94.878906 C 109.023438 97.78125 107.605469 100.679688 106.28125 103.5625 C 99.640625 117.664062 94.613281 132.570312 91.46875 147.8125 C 90.867188 150.082031 91.382812 149.847656 92.480469 149.886719 L 181.164062 149.886719 C 182.769531 149.855469 183.246094 149.554688 183.191406 147.832031 L 183.191406 94.832031 C 183.15625 93.511719 182.515625 92.796875 181.167969 92.792969 L 113.859375 92.792969 C 111.738281 92.785156 111.371094 93.285156 110.53125 94.878906 Z M 187.269531 94.855469 L 187.269531 147.871094 C 187.292969 149.667969 187.910156 149.878906 189.300781 149.886719 L 278.382812 149.886719 C 279.214844 149.851562 279.574219 149.582031 279.179688 147.84375 C 277.640625 140.570312 275.601562 133.375 273.039062 126.308594 C 269.472656 115.886719 265.148438 105.128906 259.878906 94.816406 C 259.039062 93.082031 258.84375 92.792969 257.554688 92.792969 L 189.339844 92.792969 C 188.015625 92.785156 187.335938 93.484375 187.269531 94.855469 Z M 264.46875 94.835938 C 272.988281 111.636719 279.316406 130.074219 283.101562 148.019531 C 283.484375 149.945312 283.894531 149.847656 284.804688 149.886719 L 332.882812 149.886719 C 334.367188 149.898438 334.042969 149.453125 333.660156 147.847656 C 328.886719 128.453125 320.457031 110.511719 309.074219 94.820312 C 307.890625 93.191406 307.488281 92.8125 306.507812 92.792969 L 264.777344 92.792969 C 263.144531 92.792969 264.140625 94.40625 264.46875 94.835938 Z M 34.972656 155.972656 C 33.226562 165.226562 32.308594 174.789062 32.308594 184.550781 C 32.308594 194.3125 33.21875 203.84375 34.96875 213.101562 C 35.34375 214.84375 35.867188 215.101562 36.382812 215.136719 L 85.339844 215.136719 C 86.128906 215.097656 86.039062 214.128906 85.84375 213.015625 C 84.160156 203.128906 83.285156 193.519531 83.285156 184.550781 C 83.285156 175.546875 84.167969 165.898438 85.863281 155.972656 C 86.496094 153.914062 85.980469 153.925781 85.375 153.964844 L 36.382812 153.964844 C 35.226562 153.949219 35.0625 155.273438 34.972656 155.972656 Z M 90.023438 155.972656 C 86.964844 174.871094 86.730469 194.179688 89.753906 213.050781 C 89.890625 215.09375 90.253906 215.132812 91.429688 215.136719 L 181.207031 215.136719 C 182.707031 215.085938 183.25 214.3125 183.195312 213.09375 L 183.195312 156.003906 C 183.140625 154.230469 182.632812 153.992188 181.167969 153.960938 L 91.464844 153.960938 C 90.339844 154.007812 90.238281 154.65625 90.019531 155.96875 Z M 187.277344 156.042969 L 187.277344 213.058594 C 187.347656 214.382812 187.855469 215.265625 189.378906 215.136719 L 279.082031 215.136719 C 280.464844 215.074219 280.199219 214.28125 280.394531 213.101562 C 283.472656 194.191406 283.679688 174.902344 280.648438 156.007812 C 280.347656 154.277344 280.109375 153.96875 279.082031 153.964844 L 189.308594 153.964844 C 187.597656 153.949219 187.285156 154.515625 187.277344 156.042969 Z M 284.617188 156 C 286.308594 165.917969 287.1875 175.554688 287.1875 184.550781 C 287.1875 193.542969 286.308594 203.15625 284.621094 213.058594 C 283.964844 215.085938 284.390625 215.113281 285.136719 215.132812 L 334.09375 215.132812 C 335.246094 215.113281 335.265625 214.339844 335.5 213.132812 C 337.253906 203.867188 338.164062 194.332031 338.164062 184.550781 C 338.164062 174.789062 337.246094 165.21875 335.5 155.964844 C 334.863281 153.4375 334.753906 153.953125 334.09375 153.964844 L 285.171875 153.964844 C 284.121094 153.960938 284.414062 154.832031 284.617188 156 Z M 36.8125 221.234375 C 41.601562 240.675781 50.078125 258.707031 61.507812 274.425781 C 62.53125 275.660156 62.996094 275.878906 64.957031 276.304688 L 104.539062 276.304688 C 106.359375 276.375 106.679688 276.1875 106.019531 274.292969 C 97.515625 257.53125 91.195312 239.136719 87.402344 221.226562 C 87.117188 219.496094 86.605469 219.25 85.414062 219.214844 L 38.464844 219.214844 C 36.929688 219.242188 36.375 219.429688 36.808594 221.234375 Z M 91.347656 221.21875 C 92.882812 228.488281 94.882812 235.667969 97.433594 242.726562 C 101.019531 253.160156 105.351562 263.890625 110.621094 274.203125 C 111.4375 275.625 111.644531 275.714844 113.382812 276.304688 L 181.1875 276.304688 C 182.746094 276.433594 183.25 275.976562 183.203125 274.117188 L 183.203125 221.230469 C 183.148438 220.246094 182.953125 219.335938 181.175781 219.214844 L 92.417969 219.214844 C 91.027344 219.261719 91.074219 219.890625 91.347656 221.21875 Z M 187.28125 221.230469 L 187.28125 274.253906 C 187.140625 275.789062 187.925781 276.402344 189.414062 276.304688 L 256.542969 276.304688 C 258.582031 276.21875 259.21875 275.457031 259.765625 274.335938 C 268.582031 257.636719 275.132812 239.671875 278.953125 221.210938 C 279.539062 218.992188 278.984375 219.257812 277.917969 219.214844 L 189.308594 219.214844 C 187.941406 219.238281 187.1875 219.84375 187.277344 221.230469 Z M 283.082031 221.226562 C 279.324219 238.964844 273.085938 257.179688 264.703125 273.808594 C 263.429688 275.800781 263.765625 276.3125 266.265625 276.304688 L 305.578125 276.304688 C 307.847656 276.347656 308.664062 274.992188 309.28125 274 C 320.546875 258.394531 328.910156 240.527344 333.660156 221.273438 C 334.351562 218.828125 333.65625 219.207031 332.855469 219.210938 L 284.703125 219.210938 C 283.136719 219.25 283.363281 219.875 283.082031 221.222656 Z M 67.921875 282.554688 C 91.875 311.191406 126.085938 330.933594 164.917969 336.089844 C 172.839844 336.898438 174.199219 336.277344 164.871094 333.980469 C 142.773438 326.316406 124.199219 306.6875 110.386719 282.476562 C 109.699219 281.324219 108.980469 280.519531 107.519531 280.382812 L 69.164062 280.382812 C 67.375 280.496094 67.144531 280.699219 67.917969 282.554688 Z M 115.078125 282.410156 C 127.746094 304.351562 145.195312 323.265625 169.683594 331.234375 C 173.496094 332.390625 177.320312 333.042969 181.109375 333.300781 C 182.960938 333.183594 182.859375 332.910156 183.191406 331.382812 L 183.191406 282.484375 C 183.238281 281.140625 182.558594 280.433594 181.152344 280.359375 L 115.953125 280.382812 C 114.082031 280.648438 113.984375 280.644531 115.078125 282.410156 Z M 187.269531 282.414062 L 187.269531 331.382812 C 187.207031 333.09375 187.644531 333.382812 189.402344 333.257812 C 213.582031 331.164062 235.785156 313.054688 248.824219 292.683594 C 250.957031 289.503906 252.96875 286.265625 254.910156 282.964844 C 255.617188 281.820312 256.011719 280.507812 252.996094 280.382812 L 189.339844 280.382812 C 188.066406 280.3125 187.273438 280.855469 187.269531 282.414062 Z M 260.128906 282.378906 C 246.304688 306.648438 227.699219 326.324219 205.554688 333.992188 C 200.566406 335.320312 195.097656 337.410156 205.59375 336.085938 C 243.851562 330.992188 277.613281 311.742188 301.5 283.789062 C 303.394531 281.207031 303.457031 280.453125 301.484375 280.386719 L 263.808594 280.386719 C 261.214844 280.53125 260.738281 281.171875 260.128906 282.382812 Z M 260.128906 282.378906 " fill-opacity="1" fill-rule="nonzero"/></g><path fill="#233dff" d="M 326.378906 115.933594 C 328.347656 120.257812 330.085938 124.628906 331.859375 128.929688 L 331.921875 128.929688 C 340.070312 129.789062 347.851562 131.75 353.96875 137.085938 C 356.363281 144.578125 347.589844 152.039062 342.246094 156.839844 C 283.425781 198.996094 212.160156 220.757812 141.398438 233.878906 C 102.445312 239.242188 61.613281 248.726562 23.261719 235.851562 C 16.628906 235.738281 13 229.246094 17.144531 223.875 C 21.425781 219.410156 25.902344 215.292969 30.589844 211.382812 C 29.265625 206.707031 28.734375 201.714844 28.550781 196.664062 C 9.929688 210.292969 0.339844 223.363281 3.1875 233.878906 C 10.550781 261.050781 98.007812 260.984375 198.550781 233.75 C 299.097656 206.511719 374.644531 162.410156 367.285156 135.238281 C 364.425781 124.691406 349.457031 118.273438 326.375 115.933594 Z M 326.378906 115.933594 " fill-opacity="1" fill-rule="nonzero"/></svg>