<svg width="900" height="450" viewBox="0 0 900 450" fill="none" xmlns="http://www.w3.org/2000/svg">
<g clip-path="url(#clip0_762_46)">
<path d="M900 0H0V450H900V0Z" fill="#1E1E1E"/>
<mask id="mask0_762_46" style="mask-type:luminance" maskUnits="userSpaceOnUse" x="0" y="0" width="900" height="450">
<path d="M900 0H0V450H900V0Z" fill="white"/>
</mask>
<g mask="url(#mask0_762_46)">
<path d="M900 0H0V450H900V0Z" fill="white"/>
<path d="M900 0H0V450H900V0Z" fill="#1E1E1E"/>
<mask id="mask1_762_46" style="mask-type:luminance" maskUnits="userSpaceOnUse" x="0" y="0" width="900" height="450">
<path d="M900 0H0V450H900V0Z" fill="white"/>
</mask>
<g mask="url(#mask1_762_46)">
<mask id="mask2_762_46" style="mask-type:luminance" maskUnits="userSpaceOnUse" x="0" y="0" width="900" height="450">
<path d="M0 0H900V450H0V0Z" fill="white"/>
</mask>
<g mask="url(#mask2_762_46)">
<path d="M0 0H900V450H0V0Z" fill="white"/>
<path d="M0 0H900V450H0V0Z" fill="white"/>
<path d="M0 0H900V450H0V0Z" fill="#1E1E1E"/>
<path d="M0 0H900V450H0V0Z" fill="white"/>
</g>
<mask id="mask3_762_46" style="mask-type:luminance" maskUnits="userSpaceOnUse" x="0" y="0" width="900" height="225">
<path d="M0 0H900V225H0V0Z" fill="white"/>
</mask>
<g mask="url(#mask3_762_46)">
<path d="M0 0H900V224.334H0V0Z" fill="black"/>
</g>
<path d="M303.219 176.609L449.521 148.568V204.651L303.219 176.609Z" fill="#FCD116"/>
<path d="M314.354 120.536L460.24 150.698L438.807 202.521L314.354 120.536Z" fill="#FCD116"/>
<path d="M346.068 73L469.323 156.781L429.719 196.438L346.068 73Z" fill="#FCD116"/>
<path d="M393.547 41.25L475.396 165.859L423.625 187.339L393.547 41.25Z" fill="#FCD116"/>
<path d="M449.552 30.099L477.469 176.589L421.521 176.609L449.552 30.099Z" fill="#FCD116"/>
<path d="M505.526 41.2292L475.365 187.339L423.651 165.896L505.526 41.2292Z" fill="#FCD116"/>
<path d="M552.974 73L469.323 196.438L429.719 156.781L552.974 73Z" fill="#FCD116"/>
<path d="M584.693 120.536L460.24 202.521L438.807 150.698L584.693 120.536Z" fill="#FCD116"/>
<path d="M595.828 176.609L449.521 204.651V148.568L595.828 176.609Z" fill="#FCD116"/>
<mask id="mask4_762_46" style="mask-type:luminance" maskUnits="userSpaceOnUse" x="0" y="175" width="900" height="100">
<path d="M0 175H900V275H0V175Z" fill="white"/>
</mask>
<g mask="url(#mask4_762_46)">
<path d="M0 176.161H900V273.839H0V176.161Z" fill="#0072C6"/>
</g>
<mask id="mask5_762_46" style="mask-type:luminance" maskUnits="userSpaceOnUse" x="0" y="0" width="900" height="450">
<path d="M0 0H900V450H0V0Z" fill="white"/>
</mask>
<g mask="url(#mask5_762_46)">
<path d="M0 0V450H900V0L450 450L0 0Z" fill="#CE1126"/>
</g>
</g>
</g>
</g>
<defs>
<clipPath id="clip0_762_46">
<rect width="900" height="450" fill="white"/>
</clipPath>
</defs>
</svg>
