<svg width="900" height="450" viewBox="0 0 900 450" fill="none" xmlns="http://www.w3.org/2000/svg">
<g clip-path="url(#clip0_763_622)">
<path d="M900 0H0V450H900V0Z" fill="#1E1E1E"/>
<mask id="mask0_763_622" style="mask-type:luminance" maskUnits="userSpaceOnUse" x="0" y="0" width="900" height="450">
<path d="M900 0H0V450H900V0Z" fill="white"/>
</mask>
<g mask="url(#mask0_763_622)">
<path d="M900 0H0V450H900V0Z" fill="white"/>
<path d="M900 0H0V450H900V0Z" fill="#1E1E1E"/>
<mask id="mask1_763_622" style="mask-type:luminance" maskUnits="userSpaceOnUse" x="0" y="0" width="900" height="450">
<path d="M900 0H0V450H900V0Z" fill="white"/>
</mask>
<g mask="url(#mask1_763_622)">
<mask id="mask2_763_622" style="mask-type:luminance" maskUnits="userSpaceOnUse" x="0" y="0" width="900" height="450">
<path d="M0 0H900V450H0V0Z" fill="white"/>
</mask>
<g mask="url(#mask2_763_622)">
<path d="M0 0H900V450H0V0Z" fill="white"/>
<path d="M0 0H900V450H0V0Z" fill="white"/>
<path d="M900 450H0V0H900V450Z" fill="#23255C"/>
</g>
<mask id="mask3_763_622" style="mask-type:luminance" maskUnits="userSpaceOnUse" x="0" y="0" width="450" height="225">
<path d="M0 0H450V225H0V0Z" fill="white"/>
</mask>
<g mask="url(#mask3_763_622)">
<path d="M449.333 0V224.334H0V0H449.333Z" fill="#23255C"/>
</g>
<path d="M187.589 149.229V155.865L50.0156 224.667H32.5L183.411 149.229H187.589Z" fill="white"/>
<path d="M416.824 -3.37219e-06L265.944 75.4375H261.73V68.8021L399.303 -3.37219e-06H416.824Z" fill="white"/>
<path d="M449.33 199.635V208.411L330.96 149.229H348.439L449.33 199.635Z" fill="white"/>
<mask id="mask4_763_622" style="mask-type:luminance" maskUnits="userSpaceOnUse" x="0" y="16" width="120" height="60">
<path d="M0 16H119.333V76H0V16Z" fill="white"/>
</mask>
<g mask="url(#mask4_763_622)">
<path d="M118.333 75.4375H100.854L0 25.0312V16.2552L118.333 75.4375Z" fill="white"/>
</g>
<path d="M449.33 208.411V224.667L298.45 149.229H330.96L449.33 208.411Z" fill="#AA1A31"/>
<path d="M449.325 -3.37219e-06L298.445 75.4375H265.94L416.82 -3.37219e-06H449.325Z" fill="#AA1A31"/>
<path d="M449.33 -3.37219e-06V25.0312L348.476 75.4375H298.45L449.33 -3.37219e-06Z" fill="white"/>
<mask id="mask5_763_622" style="mask-type:luminance" maskUnits="userSpaceOnUse" x="0" y="148" width="185" height="78">
<path d="M0 148H184.667V225.333H0V148Z" fill="white"/>
</mask>
<g mask="url(#mask5_763_622)">
<path d="M183.417 149.229L32.5052 224.667H0L150.875 149.229H183.417Z" fill="#AA1A31"/>
</g>
<mask id="mask6_763_622" style="mask-type:luminance" maskUnits="userSpaceOnUse" x="0" y="148" width="152" height="78">
<path d="M0 148H151.333V225.333H0V148Z" fill="white"/>
</mask>
<g mask="url(#mask6_763_622)">
<path d="M150.875 149.229L0 224.667V199.635L100.854 149.229H150.875Z" fill="white"/>
</g>
<mask id="mask7_763_622" style="mask-type:luminance" maskUnits="userSpaceOnUse" x="0" y="0" width="189" height="76">
<path d="M0 0H188.667V76H0V0Z" fill="white"/>
</mask>
<g mask="url(#mask7_763_622)">
<path d="M187.594 68.8021V75.4375H150.875L0 0H50.0208L187.594 68.8021Z" fill="white"/>
</g>
<path d="M449.329 224.667H399.303L261.73 155.896V149.229H298.449L449.329 224.667Z" fill="white"/>
<mask id="mask8_763_622" style="mask-type:luminance" maskUnits="userSpaceOnUse" x="0" y="0" width="152" height="76">
<path d="M0 0H151.333V76H0V0Z" fill="white"/>
</mask>
<g mask="url(#mask8_763_622)">
<path d="M150.875 75.4375H118.333L0 16.2552V0L150.875 75.4375Z" fill="#AA1A31"/>
</g>
<mask id="mask9_763_622" style="mask-type:luminance" maskUnits="userSpaceOnUse" x="0" y="0" width="450" height="226">
<path d="M0 0H450V225.333H0V0Z" fill="white"/>
</mask>
<g mask="url(#mask9_763_622)">
<path d="M449.333 149.229C440.839 149.229 269.599 149.229 261.734 149.229C261.734 157.021 261.734 214.734 261.734 224.667H187.594C187.594 214.38 187.594 159.443 187.594 149.229C185.141 149.229 3.33333 149.229 0 149.229V75.4375H187.594C187.594 67.6458 187.594 9.96875 187.594 0H261.734C261.734 10.2865 261.734 65.2917 261.734 75.4375C270.057 75.4375 439.292 75.4375 449.333 75.4375V149.229Z" fill="white"/>
<path d="M449.333 90.1458V134.484H246.922V224.667H202.411V134.484H0V90.1458H202.411V0H246.922V90.1458H449.333Z" fill="#AA1A31"/>
</g>
<path d="M736.453 271.599C735.505 273.286 734.484 274.865 733.469 276.375C710.37 309.724 682.74 326.401 674.562 330.859C666.38 326.401 638.719 309.724 615.62 276.375C614.604 274.865 613.62 273.286 612.635 271.599C597.333 244.885 589.292 192.51 589.854 122.406C597.052 125.078 608.812 128.448 624.995 129.745C626.958 129.922 628.927 129.99 630.891 129.99C651.219 129.99 667.859 121.88 674.562 118.089C681.229 121.88 697.87 129.99 718.198 129.99C720.161 129.99 722.13 129.922 724.094 129.745C740.276 128.448 752.073 125.078 759.234 122.406C759.76 192.51 751.755 244.885 736.453 271.599ZM764.745 113.807C764.745 113.807 750.771 121.99 723.635 124.161C696.5 126.307 674.562 111.49 674.562 111.49C674.562 111.49 652.589 126.307 625.453 124.161C598.318 121.99 584.344 113.807 584.344 113.807C583.151 182.719 589.714 248.818 611.021 279.568C639.599 320.854 674.562 337.177 674.562 337.177C674.562 337.177 709.49 320.854 738.068 279.568C759.375 248.818 765.937 182.719 764.745 113.807Z" fill="#C0D730"/>
<path d="M736.453 271.599H612.635C597.333 244.885 589.292 192.51 589.854 122.406C597.052 125.078 608.813 128.448 624.995 129.745C626.958 129.922 628.927 129.99 630.891 129.99C651.219 129.99 667.859 121.88 674.563 118.089C681.229 121.88 697.87 129.99 718.198 129.99C720.161 129.99 722.13 129.922 724.094 129.745C740.276 128.448 752.073 125.078 759.234 122.406C759.76 192.51 751.755 244.885 736.453 271.599Z" fill="white"/>
<path d="M736.453 271.599C735.505 273.286 734.484 274.865 733.469 276.375C710.37 309.724 682.74 326.401 674.563 330.859C666.38 326.401 638.719 309.724 615.62 276.375C614.604 274.865 613.62 273.286 612.635 271.599H736.453Z" fill="#B7C8EA"/>
<path d="M642.302 186.297C641.214 186.297 640.302 185.422 640.302 184.333C640.302 183.208 641.214 182.333 642.302 182.333C643.422 182.333 644.302 183.208 644.302 184.333C644.302 185.422 643.422 186.297 642.302 186.297ZM720.62 149.932C714.443 147.755 704.297 153.229 700.12 153.229C687.516 153.229 676.88 141.047 659.536 145.083C652.974 140.594 654.234 130.271 654.234 130.271C646.406 134.906 646.724 148.141 647.042 152.354C640.406 159.406 636.792 171.38 636.719 176.505C636.615 183.771 642.161 192.547 642.161 192.547C641.844 198.021 641.807 205.01 641.844 209.891C641.844 212.312 644.932 213.328 646.406 211.365C653.885 201.531 655.958 191.354 657.781 182.786C661.365 184.615 667.578 186.333 673.792 181.104C673.792 181.104 663.609 179.38 659.714 174.786C661.365 169.484 663.75 165.375 668.875 163.094C697.448 150.49 707.422 170.396 713.214 177.453C713.807 178.224 715.036 177.766 715 176.786C714.828 170.677 709.771 164.219 706.786 161.693C703.49 158.849 711.74 156.88 720.76 151.755L720.62 149.932Z" fill="#E39A20"/>
<path d="M677.333 237.302C677.896 238.25 677.583 239.479 676.599 240.042C675.651 240.604 674.422 240.255 673.859 239.307C673.333 238.359 673.651 237.13 674.599 236.568C675.547 236.042 676.771 236.359 677.333 237.302ZM606.672 187.667C607.865 194.125 617.693 200.167 619.766 203.781C626.083 214.698 620.854 230.005 633.031 243.026C632.438 250.958 622.818 254.995 622.818 254.995C630.75 259.453 642.057 252.573 645.568 250.187C654.974 252.432 667.156 249.557 671.646 247.062C677.969 243.516 682.813 234.323 682.813 234.323C687.693 231.865 693.766 228.391 697.974 225.932C700.083 224.703 699.417 221.542 696.995 221.229C684.74 219.682 674.911 222.984 666.557 225.687C666.349 221.646 664.734 215.401 657.078 212.661C657.078 212.661 660.698 222.318 658.661 228C653.255 229.229 648.479 229.198 643.953 225.896C618.745 207.464 631 188.859 634.229 180.328C634.578 179.453 633.563 178.609 632.755 179.104C627.557 182.333 624.469 189.948 623.766 193.776C622.995 198.057 617.13 191.88 608.182 186.651C607.443 186.229 606.495 186.823 606.672 187.667Z" fill="#E39A20"/>
<path d="M703.979 181.49C704.542 180.542 705.771 180.187 706.719 180.75C707.667 181.312 707.979 182.505 707.453 183.49C706.891 184.437 705.667 184.755 704.719 184.193C703.771 183.667 703.417 182.437 703.979 181.49ZM696.328 267.495C701.312 263.245 701.661 251.698 703.734 248.083C710.052 237.167 725.885 234.042 731.078 217.016C738.24 213.542 746.562 219.859 746.562 219.859C746.453 210.729 734.833 204.375 731.047 202.552C728.271 193.286 719.672 184.193 715.281 181.526C709.068 177.802 698.646 178.26 698.646 178.26C694.078 175.203 688.042 171.693 683.792 169.307C681.687 168.078 679.266 170.255 680.214 172.5C685.021 183.875 692.781 190.755 699.312 196.62C695.906 198.797 691.307 203.323 692.745 211.365C692.745 211.365 699.312 203.396 705.245 202.339C709.036 206.38 711.385 210.521 710.792 216.104C707.453 247.135 685.198 245.833 676.214 247.307C675.266 247.448 675.016 248.75 675.859 249.203C681.266 252.083 689.375 250.927 693.062 249.625C697.167 248.187 694.745 256.333 694.677 266.687C694.677 267.562 695.693 268.057 696.328 267.495Z" fill="#E39A20"/>
</g>
</g>
</g>
<defs>
<clipPath id="clip0_763_622">
<rect width="900" height="450" fill="white"/>
</clipPath>
</defs>
</svg>
