<svg width="900" height="450" viewBox="0 0 900 450" fill="none" xmlns="http://www.w3.org/2000/svg">
<rect width="900" height="450" fill="#1E1E1E"/>
<g clip-path="url(#clip0_0_1)">
<rect width="900" height="450" fill="white"/>
<mask id="mask0_0_1" style="mask-type:luminance" maskUnits="userSpaceOnUse" x="0" y="0" width="900" height="450">
<path d="M0 0H900V450H0V0Z" fill="white"/>
</mask>
<g mask="url(#mask0_0_1)">
<path d="M0 0H900V450H0V0Z" fill="white"/>
<path d="M0 0H900V450H0V0Z" fill="#EE1C25"/>
</g>
<path d="M405.809 98.4546C402.861 98.4546 400.45 97.3244 400.45 95.9441C400.45 94.5691 402.861 93.4389 405.809 93.4389C408.788 93.4389 411.174 94.5691 411.174 95.9441C411.174 97.3244 408.788 98.4546 405.809 98.4546ZM494.533 93.4389C497.486 93.4389 499.898 94.5691 499.898 95.9441C499.898 97.3244 497.486 98.4546 494.533 98.4546C491.559 98.4546 489.174 97.3244 489.174 95.9441C489.174 94.5691 491.559 93.4389 494.533 93.4389ZM572.559 279.85L571.971 279.897C570.252 276.382 564.153 274.663 562.012 278.892L561.715 279.606C560.34 279.554 558.325 279.777 555.372 279.876C554.116 279.923 545.538 280.241 541.554 280.783C544.528 278.179 552.398 273.705 554.07 272.449C557.267 274.59 563.169 273.335 563.169 268.689L563.143 268.1C564.741 267.658 566.658 266.626 567.518 266.501C568.872 266.33 570.497 266.746 571.7 267.929C571.085 264.017 566.783 261.34 561.424 264.856L561.226 264.975C558.054 262.788 552.054 264.017 552.054 268.689L552.075 269.106C551.366 269.356 550.653 269.746 549.986 270.142C548.439 271.048 539.757 276.111 536.757 279.038C528.398 275.304 520.502 274.564 509.611 271.1L513.741 267.043C515.856 264.975 514.971 261.387 512.116 260.6C486.101 253.376 482.606 239.09 480.887 233.267C479.09 227.121 483.934 223.309 485.46 227.611C486.986 231.913 494.434 248.751 501.861 247.402C509.314 246.048 503.611 241.699 497.929 235.6C492.127 229.408 495.273 223.533 498.861 222.496C501.075 221.861 504.346 229.236 506.559 235.038C510.788 246.194 522.372 255.611 526.502 252.611C530.882 249.418 530.512 245.09 520.997 240.934C516.57 239.017 514.158 236.486 512.169 227.121C510.913 221.267 512.856 220.262 514.502 220.309C521.189 220.481 537.226 253.892 556.846 256.277C564.002 257.158 568.085 253.35 570.372 250.179C572.731 246.908 570.398 242.335 566.366 242.335H555.715C547.502 242.85 527.387 222.324 526.158 214.632C524.929 206.939 528.075 209.47 534.814 217.434C546.398 231.1 571.382 237.371 572.731 223.804C573.153 219.673 572.366 217.043 559.997 220.309C547.898 223.481 528.741 202.783 527.387 198.012C526.132 193.59 529.132 190.048 537.643 197.694C547.554 206.616 557.096 208.533 561.715 208.783C566.314 209.001 572.731 206.668 572.143 200.371C571.653 195.111 567.887 194.694 564.741 195.111C554.658 196.465 545.585 192.288 537.346 186.387C523.7 176.652 530.804 175.027 532.33 176.111C545.116 185.356 554.268 185.6 560.34 185.6C566.637 185.6 571.898 184.126 572.684 177.559C573.002 174.757 571.997 173.163 570.768 172.225C566.07 168.783 560.632 176.481 553.085 175.47C547.846 174.757 532.356 169.007 528.96 163.845C526.012 159.392 530.189 156.96 532.872 158.804C539.096 163.132 557.486 168.934 568.455 160.059C573.939 155.632 573.84 138.845 565.726 147.887C559.898 154.382 547.627 157.033 536.486 151.085C522.788 143.762 528.986 141.376 531.715 141.866C537.273 142.876 544.627 143.168 548.215 143.241C577.653 143.882 575.731 111.288 563.241 124.512C553.481 134.835 537.346 132.673 533.955 132.892C525.518 130.929 530.044 124.585 534.299 123.97C571.283 118.637 572.684 97.9389 572.684 97.9389C572.684 86.2098 566.044 87.3921 564.054 90.8816C553.825 108.679 536.018 113.72 530.684 114.876C528.471 115.34 527.413 113.277 526.184 112.345C523.919 110.152 521.684 112.736 512.757 115.663C498.174 121.955 494.34 124.512 493.872 133.731C493.184 147.324 488.606 150.272 483.84 150.272C465.127 150.272 473.335 111.606 501.445 110.647C518.215 110.059 519.419 103.715 519.419 103.715C508.132 107.673 505.111 105.585 505.111 102.876C535.158 104.277 533.903 92.5796 531.174 91.4494C528.346 90.2671 526.033 94.5431 525.075 95.6994C521.783 99.7046 512.262 100.887 505.773 100.496C506.09 99.9025 506.486 99.34 506.877 98.8973C514.455 90.7827 520.205 97.1525 520.205 97.1525C522.518 87.366 506.83 89.6264 506.83 89.6264C498.127 80.9494 489.861 86.5796 481.648 89.6264C473.434 92.6994 465.663 91.5691 465.663 91.5691L475.257 99.241C465.471 100.569 462.075 108.163 462.075 108.163L468.663 108.679L468.689 109.366C458.705 111.064 455.241 117.085 455.241 117.085L462.273 116.569L450.174 130.335L438.075 116.569L445.106 117.085C445.106 117.085 441.643 111.064 431.658 109.366L431.679 108.679L438.273 108.163C438.273 108.163 434.877 100.569 425.09 99.241L434.679 91.5691C434.679 91.5691 426.908 92.6994 418.695 89.6264C410.486 86.5796 402.221 80.9494 393.517 89.6264C393.517 89.6264 377.83 87.366 380.137 97.1525C380.137 97.1525 385.892 90.7827 393.465 98.8973C393.861 99.34 394.252 99.9025 394.575 100.496C388.08 100.887 378.564 99.7046 375.267 95.6994C374.309 94.5431 372.002 90.2671 369.174 91.4494C366.445 92.5796 365.189 104.277 395.236 102.876C395.236 105.585 392.215 107.673 380.924 103.715C380.924 103.715 382.132 110.059 398.903 110.647C427.007 111.606 435.221 150.272 416.507 150.272C411.736 150.272 407.163 147.324 406.476 133.731C406.007 124.512 402.174 121.955 387.59 115.663C378.663 112.736 376.424 110.152 374.163 112.345C372.934 113.277 371.877 115.34 369.663 114.876C364.325 113.72 346.523 108.679 336.294 90.8816C334.304 87.3921 327.663 86.2098 327.663 97.9389C327.663 97.9389 329.064 118.637 366.049 123.97C370.304 124.585 374.83 130.929 366.392 132.892C363.002 132.673 346.866 134.835 337.106 124.512C324.611 111.288 322.695 143.882 352.132 143.241C355.721 143.168 363.075 142.876 368.632 141.866C371.361 141.376 377.559 143.762 363.861 151.085C352.721 157.033 340.45 154.382 334.622 147.887C326.507 138.845 326.408 155.632 331.892 160.059C342.861 168.934 361.252 163.132 367.476 158.804C370.153 156.96 374.335 159.392 371.387 163.845C367.991 169.007 352.497 174.757 347.262 175.47C339.71 176.481 334.278 168.783 329.58 172.225C328.351 173.163 327.34 174.757 327.663 177.559C328.45 184.126 333.71 185.6 340.007 185.6C346.08 185.6 355.231 185.356 368.017 176.111C369.538 175.027 376.648 176.652 363.002 186.387C354.762 192.288 345.689 196.465 335.606 195.111C332.46 194.694 328.695 195.111 328.205 200.371C327.611 206.668 334.033 209.001 338.632 208.783C343.252 208.533 352.794 206.616 362.705 197.694C371.21 190.048 374.21 193.59 372.96 198.012C371.606 202.783 352.45 223.481 340.351 220.309C327.981 217.043 327.195 219.673 327.611 223.804C328.965 237.371 353.95 231.1 365.533 217.434C372.267 209.47 375.419 206.939 374.189 214.632C372.96 222.324 352.846 242.85 344.632 242.335H333.981C329.95 242.335 327.611 246.908 329.976 250.179C332.262 253.35 336.34 257.158 343.497 256.277C363.122 253.892 379.153 220.481 385.846 220.309C387.491 220.262 389.434 221.267 388.179 227.121C386.189 236.486 383.778 239.017 379.351 240.934C369.835 245.09 369.465 249.418 373.846 252.611C377.976 255.611 389.559 246.194 393.788 235.038C396.002 229.236 399.273 221.861 401.486 222.496C405.075 223.533 408.221 229.408 402.419 235.6C396.736 241.699 391.033 246.048 398.481 247.402C405.908 248.751 413.361 231.913 414.887 227.611C416.408 223.309 421.257 227.121 419.46 233.267C417.736 239.09 414.247 253.376 388.231 260.6C385.377 261.387 384.491 264.975 386.606 267.043L390.736 271.1C379.846 274.564 371.95 275.304 363.59 279.038C360.59 276.111 351.908 271.048 350.361 270.142C349.695 269.746 348.981 269.356 348.267 269.106L348.294 268.689C348.294 264.017 342.294 262.788 339.096 264.975L338.924 264.856C333.564 261.34 329.236 264.017 328.648 267.929C329.851 266.746 331.476 266.33 332.825 266.501C333.689 266.626 335.606 267.658 337.205 268.1L337.179 268.689C337.179 273.335 343.08 274.59 346.278 272.449C347.95 273.705 355.82 278.179 358.794 280.783C354.809 280.241 346.226 279.923 344.976 279.876C342.023 279.777 340.007 279.554 338.632 279.606L338.335 278.892C336.195 274.663 330.096 276.382 328.377 279.897L327.783 279.85C322.45 279.236 320.21 282.871 321.247 286.043C322.424 282.679 326.038 283.142 328.033 282.85L328.424 283.908C330.32 287.668 335.283 286.757 337.596 284.08C339.075 284.272 341.95 284.324 347.705 284.668C350.111 284.814 352.007 284.939 353.481 285.012L352.575 285.699C348.392 288.923 346.669 289.611 345.538 290.054C343.596 288.137 340.205 287.715 337.278 290.689C335.46 292.512 334.965 294.527 335.309 296.22C330.419 298.902 330.491 303.548 333.247 306.033C332.95 304.361 333.465 302.788 334.351 301.751C334.82 301.189 336.247 300.376 337.424 299.491C339.419 300.918 342.419 300.991 345.049 298.335C346.377 296.986 346.991 295.559 347.09 294.205C351.096 292.34 359.705 287.47 360.564 286.929C365.236 284.027 365.679 289.215 376.648 290.689C376.252 295.335 382.919 297.991 386.335 295.46C387.637 296.298 389.236 297.007 389.778 297.548C390.762 298.507 391.424 300.033 391.252 301.731C393.809 298.975 393.445 294.304 388.205 292.09C388.747 287.225 381.564 284.449 378.221 287.397C371.434 284.449 368.21 285.085 368.236 282.996C377.017 279.382 386.653 278.423 395.851 276.064L401.408 281.496C404.606 284.621 409.991 283.486 411.59 279.309C418.965 260.038 438.814 237.887 438.814 258.512C438.814 274.319 420.273 292.83 406.919 291.283C403.622 290.913 398.804 290.986 398.804 294.673C398.804 300.402 409.351 303.621 415.106 300.647C419.559 298.361 421.648 296.001 423.247 294.72C425.09 293.246 427.892 294.798 427.476 297.106C426.689 301.434 420.002 306.918 411.736 309.866C408.564 310.996 403.523 310.751 403.721 313.356C404.215 319.059 416.658 319.033 419.018 318.054C422.929 316.481 432.715 299.59 433.106 308.882C433.33 313.554 430.502 324.663 417.419 325.085C409.575 325.35 415.205 333.783 421.721 334.569C433.304 335.97 435.221 317.611 439.82 317.804C442.403 317.902 442.648 322.429 442.403 325.132C441.028 340.027 425.851 336.491 436.403 348.163L450.174 364.955L463.945 348.163C474.491 336.491 459.32 340.027 457.945 325.132C457.7 322.429 457.945 317.902 460.528 317.804C465.127 317.611 467.044 335.97 478.627 334.569C485.143 333.783 490.773 325.35 482.929 325.085C469.846 324.663 467.017 313.554 467.241 308.882C467.632 299.59 477.419 316.481 481.33 318.054C483.689 319.033 496.132 319.059 496.627 313.356C496.82 310.751 491.783 310.996 488.606 309.866C480.346 306.918 473.658 301.434 472.872 297.106C472.455 294.798 475.257 293.246 477.101 294.72C478.7 296.001 480.788 298.361 485.241 300.647C490.991 303.621 501.544 300.402 501.544 294.673C501.544 290.986 496.726 290.913 493.429 291.283C480.075 292.83 461.533 274.319 461.533 258.512C461.533 237.887 481.377 260.038 488.757 279.309C490.356 283.486 495.741 284.621 498.934 281.496L504.497 276.064C513.689 278.423 523.33 279.382 532.111 282.996C532.132 285.085 528.913 284.449 522.127 287.397C518.783 284.449 511.601 287.225 512.143 292.09C506.903 294.304 506.533 298.975 509.09 301.731C508.919 300.033 509.585 298.507 510.57 297.548C511.111 297.007 512.705 296.298 514.012 295.46C517.403 297.991 524.09 295.335 523.7 290.689C534.669 289.215 535.111 284.027 539.783 286.929C540.643 287.47 549.247 292.34 553.257 294.205C553.356 295.559 553.971 296.986 555.299 298.335C557.929 300.991 560.929 300.918 562.924 299.491C564.101 300.376 565.528 301.189 565.997 301.751C566.882 302.788 567.398 304.361 567.101 306.033C569.856 303.548 569.929 298.902 565.038 296.22C565.382 294.527 564.887 292.512 563.07 290.689C560.142 287.715 556.752 288.137 554.809 290.054C553.674 289.611 551.955 288.923 547.773 285.699L546.861 285.012C548.34 284.939 550.231 284.814 552.643 284.668C558.398 284.324 561.273 284.272 562.752 284.08C565.059 286.757 570.028 287.668 571.924 283.908L572.314 282.85C574.309 283.142 577.924 282.679 579.101 286.043C580.137 282.871 577.898 279.236 572.559 279.85Z" fill="#100F0D"/>
</g>
<defs>
<clipPath id="clip0_0_1">
<rect width="900" height="450" fill="white"/>
</clipPath>
</defs>
</svg>
