<svg width="900" height="450" viewBox="0 0 900 450" fill="none" xmlns="http://www.w3.org/2000/svg">
<rect width="900" height="450" fill="#1E1E1E"/>
<g clip-path="url(#clip0_0_1)">
<rect width="900" height="450" fill="white"/>
<mask id="mask0_0_1" style="mask-type:luminance" maskUnits="userSpaceOnUse" x="0" y="0" width="900" height="450">
<path d="M0 -3.37219e-06H900V450H0V-3.37219e-06Z" fill="white"/>
</mask>
<g mask="url(#mask0_0_1)">
<path d="M0 -3.37219e-06H900V450H0V-3.37219e-06Z" fill="white"/>
<path d="M0 -3.37219e-06H900V450H0V-3.37219e-06Z" fill="white"/>
<path d="M0 -3.37219e-06H900V450H0V-3.37219e-06Z" fill="#1E1E1E"/>
<path d="M0 -3.37219e-06H900V450H0V-3.37219e-06Z" fill="black"/>
</g>
<mask id="mask1_0_1" style="mask-type:luminance" maskUnits="userSpaceOnUse" x="0" y="0" width="900" height="225">
<path d="M0 -3.37219e-06H900V225H0V-3.37219e-06Z" fill="white"/>
</mask>
<g mask="url(#mask1_0_1)">
<path d="M0 -3.37219e-06H900V224.334H0V-3.37219e-06Z" fill="#CC092F"/>
</g>
<path fill-rule="evenodd" clip-rule="evenodd" d="M395.922 154.547H423.042L431.26 128.943L439.708 154.547H466.818L445.036 170.802L453.479 196.844L431.26 181.036L409.26 196.844L417.703 170.802L395.922 154.547Z" fill="#FFCB00"/>
<path fill-rule="evenodd" clip-rule="evenodd" d="M495.635 295.464L474.089 278.63C495.859 260.906 510.005 233.755 510.005 203.464C510.005 157.24 477.01 118.417 433.464 109.219L436.828 93.5104C442.891 94.8542 450 97.4062 455.839 99.4219L461.448 90C467.505 92.9167 474.245 95.8333 479.849 99.4219L475.589 109.521C481.203 113.115 487.979 118.677 491.745 123.057L500.172 116.474C504.667 121.406 510.052 126.568 513.87 131.958L506.234 139.813C511.167 147.042 513.068 150.37 516.703 158.703L527.411 156.193C529.432 162.474 532.505 170.167 533.63 176.672L523.49 180.656C524.703 185.714 526.271 194.542 526.167 201.969C526.161 202.417 526.125 202.922 526.125 203.37L536.714 204.88C536.266 211.391 536.047 218.797 534.693 225.307H523.698C522.13 232.031 520.104 240.26 517.635 246.542L526.833 251.932C523.917 257.766 521.005 264.724 517.188 270.333L507.083 266.073C503.266 271.677 499.005 277.063 494.292 282L500.797 290.526C499.005 292.094 497.432 293.667 495.635 295.464ZM448.281 293.443L464.552 303.25C463.036 304.635 458.49 306.99 457.281 307.464L459.943 317.677C453.661 319.698 446.927 322.615 439.974 323.958L435.932 313.865C429.422 315.208 422.917 316.104 416.177 316.104L414.828 326.651C408.547 326.203 400.917 326.651 393.953 325.083V314.536C387.667 313.411 381.609 311.844 375.776 309.823L370.609 319.031C365.224 316.781 358.042 314.089 352.203 310.5L356.021 300.401C351.307 297.932 347.042 294.792 343 291.646L353.104 278.854C369.714 292.099 390.589 299.948 413.484 299.948C425.609 299.948 437.5 297.932 448.281 293.448" fill="#FFCB00"/>
<path fill-rule="evenodd" clip-rule="evenodd" d="M515.677 319.229L408.26 237.417L407.281 238.813L514.422 320.771L508.062 328.734L403.62 261.688C375.339 243.943 376.464 230.016 382.302 214.964L387.24 202.833C389.932 218.557 406.089 230.469 422.922 243.719L517.771 316.641L515.677 319.229ZM542.646 343.615C542.427 343.615 542.208 343.568 542.005 343.484C541.802 343.401 541.62 343.276 541.464 343.12C541.312 342.969 541.187 342.781 541.104 342.578C541.021 342.375 540.979 342.156 540.979 341.938C540.979 341.719 541.021 341.505 541.104 341.302C541.187 341.099 541.312 340.911 541.469 340.76C541.62 340.604 541.807 340.479 542.01 340.396C542.208 340.313 542.427 340.271 542.646 340.271C543.573 340.271 544.318 341.016 544.318 341.938C544.318 342.161 544.276 342.375 544.193 342.578C544.109 342.781 543.984 342.969 543.828 343.125C543.677 343.281 543.49 343.401 543.286 343.484C543.083 343.573 542.865 343.615 542.646 343.615ZM536.229 338.896C535.781 338.896 535.359 338.719 535.047 338.406C534.734 338.094 534.557 337.667 534.552 337.224C534.552 336.896 534.651 336.568 534.833 336.297C535.021 336.021 535.281 335.807 535.583 335.677C535.891 335.552 536.229 335.521 536.552 335.583C536.875 335.646 537.172 335.807 537.406 336.042C537.641 336.276 537.797 336.573 537.865 336.896C537.927 337.219 537.896 337.557 537.771 337.865C537.646 338.167 537.427 338.427 537.156 338.615C536.88 338.797 536.557 338.896 536.229 338.896ZM529.656 333.656C528.734 333.656 527.984 332.906 527.984 331.984C528 331.552 528.182 331.141 528.495 330.839C528.807 330.536 529.224 330.365 529.656 330.365C530.089 330.365 530.51 330.536 530.818 330.839C531.13 331.141 531.312 331.552 531.328 331.984C531.328 332.906 530.578 333.656 529.656 333.656ZM551.745 342.932L519.557 317.974L510.208 330.036L538.167 349.661C540.411 351.229 540.63 358.427 548.932 359.547C552.307 359.995 554.542 357.521 554.542 357.521C558.161 353.115 557.177 347.047 551.745 342.932Z" fill="#FFCB00"/>
</g>
<defs>
<clipPath id="clip0_0_1">
<rect width="900" height="450" fill="white"/>
</clipPath>
</defs>
</svg>
