<svg width="900" height="450" viewBox="0 0 900 450" fill="none" xmlns="http://www.w3.org/2000/svg">
<rect width="900" height="450" fill="#1E1E1E"/>
<g clip-path="url(#clip0_0_1)">
<rect width="900" height="450" fill="white"/>
<mask id="mask0_0_1" style="mask-type:luminance" maskUnits="userSpaceOnUse" x="0" y="0" width="900" height="450">
<path d="M0 -3.37219e-06H900V450H0V-3.37219e-06Z" fill="white"/>
</mask>
<g mask="url(#mask0_0_1)">
<path d="M0 -3.37219e-06H900V450H0V-3.37219e-06Z" fill="white"/>
<path d="M0 -3.37219e-06H900V450H0V-3.37219e-06Z" fill="#3A7DCE"/>
</g>
<path d="M310.156 212.244C306.859 205.645 306.859 205.645 306.859 199.051C305.208 199.051 304.896 199.358 303.943 199.103C302.99 198.843 302.63 205.181 299.531 203.947C299.021 203.327 301.75 198.744 298.786 196.838C297.833 196.218 299.021 192.457 298.604 190.806C298.604 190.806 294.844 192.765 292.005 185.858C290.615 184.056 288.703 187.509 288.703 187.509C288.703 187.509 289.531 189.619 288.036 190.134C285.922 188.588 284.375 189.4 281.693 187.275C279.01 185.15 282.26 182.718 277.151 180.91C280.453 172.671 280.453 174.317 288.703 171.02C283.755 167.723 283.755 167.723 280.453 162.775C275.505 161.124 273.854 159.478 268.901 156.181C262.302 147.936 259 131.447 259 119.905C263.177 116.041 268.901 133.093 277.151 138.041L288.703 142.989C295.307 146.285 296.953 149.582 301.906 152.879L316.76 157.827C323.359 162.775 326.661 169.369 331.609 171.02C336.974 171.02 338.005 167.931 339.724 167.739C349.427 167.244 354.38 165.994 356.313 163.082C358.271 160.765 362.964 164.421 376.167 159.478L374.516 152.879C374.516 152.879 378.021 149.994 382.766 151.233C382.635 148.218 382.328 140.181 387 136.551C384.161 133.577 386.068 131.447 386.068 131.447C386.068 131.447 388.698 128.921 389.005 127.582C387.615 120.317 390.214 120.202 390.797 118.067C391.38 115.926 388.552 116.66 389.349 113.713C390.146 110.765 394.922 110.067 395.563 107.64C396.208 105.213 394.203 103.994 394.318 103.416C395.349 101.098 394.474 95.6344 394.318 93.5198C403.188 91.15 406.073 83.9365 409.167 86.9261C410.818 77.0302 412.469 73.7334 422.37 73.7334C423.766 70.6917 418.76 68.1188 420.719 67.1396C424.021 66.7282 426.547 66.9313 430.417 71.9313C431.635 73.5146 431.859 69.6136 433.099 69.1969C434.333 68.7855 437.297 68.7802 437.734 66.8271C438.203 64.8167 438.87 62.1917 440.521 58.8948C441.917 56.2125 443 59.9261 444.234 65.1813C451.198 65.4365 466.927 66.9834 473.526 68.7855C478.479 70.0771 481.776 67.499 486.521 66.9834C490.026 70.4886 493.328 67.8584 495.188 75.3323C497.807 79.3636 502.094 75.6917 503.026 76.874C508.542 92.0771 527.521 81.8219 528.964 82.0823C531.385 82.0823 534.344 88.8792 536.255 88.7073C539.354 88.1865 538.474 86.0771 541.182 86.9261C540.464 92.6448 546.495 99.2386 546.495 103.515C546.495 103.515 547.964 104.239 549.328 102.968C550.688 101.702 551.938 98.4417 553.146 98.5198C556.036 98.9313 557.203 99.3011 560.531 99.8844C569.479 102.936 574.036 103.624 577.516 105.192C579.13 108.15 580.698 109.66 583.974 109.108C586.682 110.926 584.708 113.306 586.307 113.463C589.609 111.811 590.693 110.009 593.99 111.66C597.292 113.306 600.589 116.603 602.24 119.905C602.24 121.551 600.589 128.15 602.24 138.041C603.068 141.338 603.464 143.952 607.01 149.608C606.068 155.421 611.474 165.197 611.474 167.671C611.474 170.968 608.844 172.666 607.193 175.968C613.792 180.91 607.193 189.155 603.891 194.103C628.646 199.051 617.094 208.942 636.896 203.994C631.943 215.541 633.698 214.614 638.646 226.155C628.745 232.749 638.443 234.759 631.844 243.004C631.427 243.52 635.76 250.166 641.844 250.166C640.198 263.358 635.245 258.41 636.896 278.197C623.901 277.942 629.161 292.983 620.391 291.39C620.906 300.817 625.396 301.645 623.693 311.176C617.094 312.822 617.094 312.822 613.792 317.77L608.844 316.124C607.193 324.364 603.891 326.015 608.844 334.259C608.844 334.259 602.448 334.468 600.589 334.259C600.438 337.093 603.427 337.869 603.891 340.853C603.635 342.041 594.505 347.244 587.391 347.452C585.531 351.52 592.339 355.848 591.927 357.91C584.193 359.405 580.786 368.884 580.786 368.884C580.786 368.884 584.76 370.483 584.089 372.186C581.974 370.64 580.786 370.535 577.49 370.535C575.839 370.947 571.818 370.436 567.958 376.936C563.729 378.332 561.729 377.827 558.516 382.072C557.099 378.03 555.052 382.108 552.552 383.676C550.052 385.249 546.688 389.15 546.24 388.983C546.339 387.848 547.786 383.728 547.786 383.728L539.531 385.374C539.531 385.374 539.167 385.41 538.516 385.478C537.87 385.541 538.042 380.666 536.479 380.843C534.917 381.02 530.443 386.973 528.917 387.16C527.396 387.348 526.911 385.265 525.599 385.447C524.286 385.629 521.729 391.728 520.802 391.89C519.87 392.051 516.188 388.181 513.026 388.723C496.786 394.442 494.203 377.442 491.677 387.025C488.276 385.218 488.865 386.265 485.406 387.171C483.198 387.739 483 384.259 481.036 384.311C477.109 384.421 477.318 388.129 475.177 387.025C473.422 379.296 462.849 380.686 461.818 377.39C460.979 373.947 466.401 373.963 468.151 371.634C469.495 368.27 466.755 366.994 472.193 363.754C479.276 358.963 475.203 357.155 476.448 353.556C478.672 348.358 478.682 347.088 476.828 342.504C476.828 342.504 471.307 327.66 470.224 327.66C466.927 326.739 466.927 333.124 462.078 334.879C452.177 338.176 434.693 326.53 431.651 326.53C428.87 326.582 415.969 329.582 416.458 323.155C414.531 329.4 407.438 324.624 407.005 324.624C400.401 324.624 402.927 329.723 398.495 329.52C396.479 328.848 376.161 327.66 376.161 327.66V330.963L362.964 324.364L351.411 321.067C341.51 317.77 346.458 309.525 329.958 314.473V304.577H321.708C325.005 284.791 321.708 294.686 320.057 276.546L313.458 278.197C306.854 269.28 322.635 270.983 308.505 265.004C308.505 265.004 308.766 255.16 305.203 258.41C304.484 258.822 306.854 263.358 306.854 263.358C293.656 261.707 290.354 258.41 290.354 245.218C290.354 245.218 301.234 246.765 300.255 245.218C298.708 242.744 296.698 226.671 297.057 225.588C296.901 223.421 307.167 217.963 305.177 212.754C306.443 212.291 310.156 212.239 310.156 212.239" fill="white"/>
</g>
<defs>
<clipPath id="clip0_0_1">
<rect width="900" height="450" fill="white"/>
</clipPath>
</defs>
</svg>
