<svg width="900" height="450" viewBox="0 0 900 450" fill="none" xmlns="http://www.w3.org/2000/svg">
<g clip-path="url(#clip0_763_1208)">
<path d="M900 0H0V450H900V0Z" fill="#1E1E1E"/>
<mask id="mask0_763_1208" style="mask-type:luminance" maskUnits="userSpaceOnUse" x="0" y="0" width="900" height="450">
<path d="M900 0H0V450H900V0Z" fill="white"/>
</mask>
<g mask="url(#mask0_763_1208)">
<path d="M900 0H0V450H900V0Z" fill="white"/>
<path d="M900 0H0V450H900V0Z" fill="#1E1E1E"/>
<mask id="mask1_763_1208" style="mask-type:luminance" maskUnits="userSpaceOnUse" x="0" y="0" width="900" height="450">
<path d="M900 0H0V450H900V0Z" fill="white"/>
</mask>
<g mask="url(#mask1_763_1208)">
<mask id="mask2_763_1208" style="mask-type:luminance" maskUnits="userSpaceOnUse" x="0" y="0" width="900" height="450">
<path d="M0 0H900V450H0V0Z" fill="white"/>
</mask>
<g mask="url(#mask2_763_1208)">
<path d="M0 0H900V450H0V0Z" fill="white"/>
<path d="M0 0H900V450H0V0Z" fill="white"/>
<path d="M0 0H900V450H0V0Z" fill="#1E1E1E"/>
<path d="M0 0H900V450H0V0Z" fill="#74ACDF"/>
</g>
<mask id="mask3_763_1208" style="mask-type:luminance" maskUnits="userSpaceOnUse" x="0" y="149" width="900" height="151">
<path d="M0 149.333H900V299.333H0V149.333Z" fill="white"/>
</mask>
<g mask="url(#mask3_763_1208)">
<path d="M0 149.779H900V298.898H0V149.779Z" fill="white"/>
</g>
<path d="M447.187 225.651L475.599 287.552C475.599 287.552 476.088 288.734 476.875 288.406C477.667 288.083 477.177 286.901 477.177 286.901L453.495 223.036M452.818 247.12C452.469 256.536 458.26 261.713 457.505 270.12C456.75 278.526 461.365 283.281 462.437 286.547C463.505 289.818 461.276 291.776 462.24 292.24C463.198 292.703 465.302 290.12 464.62 285.474C463.932 280.828 460.406 279.448 461.234 269.177C462.062 258.911 457.031 256.521 458.255 247.151" fill="#F6B40E"/>
<path d="M447.187 225.651L475.599 287.552C475.599 287.552 476.088 288.734 476.875 288.406C477.667 288.083 477.177 286.901 477.177 286.901L453.495 223.036M452.818 247.12C452.469 256.536 458.26 261.713 457.505 270.12C456.75 278.526 461.365 283.281 462.437 286.547C463.505 289.818 461.276 291.776 462.24 292.24C463.198 292.703 465.302 290.12 464.62 285.474C463.932 280.828 460.406 279.448 461.234 269.177C462.062 258.911 457.031 256.521 458.255 247.151" stroke="#85340A" stroke-width="1.11035"/>
<path d="M446.927 224.344L449.49 292.406C449.49 292.406 449.49 293.687 450.338 293.687C451.193 293.687 451.193 292.406 451.193 292.406L453.755 224.344M443.911 246.333C439.99 254.901 443.354 261.901 439.437 269.375C435.526 276.854 437.969 283.01 437.708 286.443C437.448 289.875 434.641 290.828 435.349 291.625C436.062 292.422 438.995 290.838 440.135 286.281C441.281 281.729 438.552 279.104 443.245 269.932C447.943 260.766 444.214 256.63 448.927 248.448" fill="#F6B40E"/>
<path d="M446.927 224.344L449.49 292.406C449.49 292.406 449.49 293.687 450.338 293.687C451.193 293.687 451.193 292.406 451.193 292.406L453.755 224.344M443.911 246.333C439.99 254.901 443.354 261.901 439.437 269.375C435.526 276.854 437.969 283.01 437.708 286.443C437.448 289.875 434.641 290.828 435.349 291.625C436.062 292.422 438.995 290.838 440.135 286.281C441.281 281.729 438.552 279.104 443.245 269.932C447.943 260.766 444.214 256.63 448.927 248.448" stroke="#85340A" stroke-width="1.11035"/>
<path d="M447.187 223.036L423.505 286.896C423.505 286.896 423.016 288.078 423.802 288.406C424.594 288.734 425.083 287.552 425.083 287.552L453.495 225.651M435.984 242.198C429.083 248.609 429.516 256.365 423.036 261.776C416.557 267.187 416.464 273.812 414.906 276.88C413.354 279.953 410.396 279.755 410.745 280.766C411.094 281.771 414.411 281.437 417.208 277.661C420.01 273.891 418.495 270.422 426.339 263.745C434.187 257.073 432.323 251.828 439.807 246.068" fill="#F6B40E"/>
<path d="M447.187 223.036L423.505 286.896C423.505 286.896 423.016 288.078 423.802 288.406C424.594 288.734 425.083 287.552 425.083 287.552L453.495 225.651M435.984 242.198C429.083 248.609 429.516 256.365 423.036 261.776C416.557 267.187 416.464 273.812 414.906 276.88C413.354 279.953 410.396 279.755 410.745 280.766C411.094 281.771 414.411 281.437 417.208 277.661C420.01 273.891 418.495 270.422 426.339 263.745C434.187 257.073 432.323 251.828 439.807 246.068" stroke="#85340A" stroke-width="1.11035"/>
<path d="M447.927 221.927L401.609 271.865C401.609 271.865 400.703 272.771 401.307 273.375C401.911 273.979 402.818 273.073 402.818 273.073L452.755 226.755M430.245 235.344C421.411 238.63 418.849 245.958 410.792 248.479C402.734 250.995 400.109 257.083 397.5 259.323C394.891 261.562 392.229 260.25 392.167 261.318C392.104 262.385 395.297 263.338 399.328 260.927C403.359 258.516 403.281 254.724 413.089 251.562C422.891 248.401 423.177 242.838 432.297 240.385" fill="#F6B40E"/>
<path d="M447.927 221.927L401.609 271.865C401.609 271.865 400.703 272.771 401.307 273.375C401.911 273.979 402.818 273.073 402.818 273.073L452.755 226.755M430.245 235.344C421.411 238.63 418.849 245.958 410.792 248.479C402.734 250.995 400.109 257.083 397.5 259.323C394.891 261.562 392.229 260.25 392.167 261.318C392.104 262.385 395.297 263.338 399.328 260.927C403.359 258.516 403.281 254.724 413.089 251.562C422.891 248.401 423.177 242.838 432.297 240.385" stroke="#85340A" stroke-width="1.11035"/>
<path d="M454.646 248.719C455.099 257.755 460.224 261.761 459.219 270C461.427 263.484 456.099 258.432 456.401 248.813M448.766 225.089L468.224 267.604L451.917 223.781" fill="#85340A"/>
<path d="M444.99 248.511C441.948 257.037 445.151 262.693 441.073 269.922C445.604 264.745 442.615 258.042 446.578 249.266M448.599 224.427L450.308 271.151L452.016 224.427" fill="#85340A"/>
<path d="M436.151 244.62C430.078 251.333 430.87 257.787 424.334 262.901C430.505 259.859 430.308 252.521 437.328 245.927M448.698 223.755L432.396 267.573L451.854 225.057" fill="#85340A"/>
<path d="M429.469 237.646C421.292 241.526 419.552 247.792 411.558 250.016C418.422 249.563 421.047 242.708 430.058 239.307M449.052 223.172L417.219 257.417L451.464 225.583" fill="#85340A"/>
<path d="M449.031 221.187L387.135 249.599C387.135 249.599 385.948 250.088 386.276 250.875C386.604 251.667 387.786 251.177 387.786 251.177L451.646 227.495M427.562 226.818C418.151 226.469 412.969 232.26 404.562 231.505C396.156 230.75 391.406 235.365 388.135 236.437C384.865 237.51 382.911 235.276 382.448 236.24C381.979 237.198 384.562 239.302 389.208 238.62C393.859 237.932 395.24 234.406 405.505 235.234C415.776 236.062 418.167 231.031 427.531 232.255" fill="#F6B40E"/>
<path d="M449.031 221.187L387.135 249.599C387.135 249.599 385.948 250.088 386.276 250.875C386.604 251.667 387.786 251.177 387.786 251.177L451.646 227.495M427.562 226.818C418.151 226.469 412.969 232.26 404.562 231.505C396.156 230.75 391.406 235.365 388.135 236.437C384.865 237.51 382.911 235.276 382.448 236.24C381.979 237.198 384.562 239.302 389.208 238.62C393.859 237.932 395.24 234.406 405.505 235.234C415.776 236.062 418.167 231.031 427.531 232.255" stroke="#85340A" stroke-width="1.11035"/>
<path d="M450.338 220.927L382.281 223.49C382.281 223.49 381 223.49 381 224.338C381 225.193 382.281 225.193 382.281 225.193L450.338 227.755M428.349 217.911C419.786 213.99 412.786 217.354 405.307 213.443C397.828 209.526 391.672 211.974 388.24 211.713C384.812 211.448 383.859 208.641 383.062 209.349C382.266 210.062 383.844 212.995 388.401 214.135C392.958 215.281 395.583 212.552 404.75 217.245C413.922 221.943 418.057 218.213 426.24 222.927" fill="#F6B40E"/>
<path d="M450.338 220.927L382.281 223.49C382.281 223.49 381 223.49 381 224.338C381 225.193 382.281 225.193 382.281 225.193L450.338 227.755M428.349 217.911C419.786 213.99 412.786 217.354 405.307 213.443C397.828 209.526 391.672 211.974 388.24 211.713C384.812 211.448 383.859 208.641 383.062 209.349C382.266 210.062 383.844 212.995 388.401 214.135C392.958 215.281 395.583 212.552 404.75 217.245C413.922 221.943 418.057 218.213 426.24 222.927" stroke="#85340A" stroke-width="1.11035"/>
<path d="M451.646 221.187L387.786 197.505C387.786 197.505 386.604 197.016 386.276 197.802C385.953 198.594 387.135 199.083 387.135 199.083L449.036 227.495M432.484 209.984C426.073 203.083 418.318 203.516 412.911 197.036C407.5 190.557 400.875 190.464 397.802 188.906C394.734 187.354 394.927 184.396 393.922 184.745C392.911 185.094 393.25 188.411 397.021 191.208C400.792 194.01 404.266 192.495 410.938 200.339C417.615 208.187 422.859 206.323 428.615 213.812" fill="#F6B40E"/>
<path d="M451.646 221.187L387.786 197.505C387.786 197.505 386.604 197.016 386.276 197.802C385.953 198.594 387.135 199.083 387.135 199.083L449.036 227.495M432.484 209.984C426.073 203.083 418.318 203.516 412.911 197.036C407.5 190.557 400.875 190.464 397.802 188.906C394.734 187.354 394.927 184.396 393.922 184.745C392.911 185.094 393.25 188.411 397.021 191.208C400.792 194.01 404.266 192.495 410.938 200.339C417.615 208.187 422.859 206.323 428.615 213.812" stroke="#85340A" stroke-width="1.11035"/>
<path d="M452.755 221.927L402.818 175.609C402.818 175.609 401.917 174.703 401.313 175.307C400.708 175.911 401.615 176.818 401.615 176.818L447.927 226.755M439.339 204.245C436.057 195.417 428.724 192.849 426.208 184.792C423.687 176.734 417.604 174.109 415.365 171.5C413.12 168.891 414.432 166.229 413.37 166.167C412.302 166.104 411.349 169.297 413.76 173.328C416.172 177.359 419.958 177.286 423.12 187.089C426.286 196.891 431.849 197.177 434.302 206.297" fill="#F6B40E"/>
<path d="M452.755 221.927L402.818 175.609C402.818 175.609 401.917 174.703 401.313 175.307C400.708 175.911 401.615 176.818 401.615 176.818L447.927 226.755M439.339 204.245C436.057 195.417 428.724 192.849 426.208 184.792C423.687 176.734 417.604 174.109 415.365 171.5C413.12 168.891 414.432 166.229 413.37 166.167C412.302 166.104 411.349 169.297 413.76 173.328C416.172 177.359 419.958 177.286 423.12 187.089C426.286 196.891 431.849 197.177 434.302 206.297" stroke="#85340A" stroke-width="1.11035"/>
<path d="M425.969 228.646C416.927 229.099 412.922 234.224 404.688 233.219C411.203 235.427 416.25 230.099 425.875 230.401M449.594 222.766L407.084 242.224L450.906 225.917" fill="#85340A"/>
<path d="M426.177 218.99C417.651 215.948 411.99 219.156 404.766 215.073C409.938 219.604 416.646 216.615 425.417 220.578M450.255 222.599L403.531 224.307L450.261 226.016" fill="#85340A"/>
<path d="M430.063 210.151C423.354 204.078 416.896 204.87 411.781 198.333C414.828 204.505 422.167 204.307 428.755 211.328M450.933 222.698L407.11 206.396L449.625 225.854" fill="#85340A"/>
<path d="M437.037 203.469C433.162 195.292 426.891 193.557 424.672 185.557C425.12 192.422 431.979 195.052 435.38 204.057M451.516 223.052L417.266 191.219L449.104 225.464" fill="#85340A"/>
<path d="M453.495 223.036L425.083 161.135C425.083 161.135 424.594 159.953 423.807 160.276C423.021 160.604 423.51 161.786 423.51 161.786L447.187 225.646M447.87 201.562C448.214 192.151 442.422 186.974 443.182 178.568C443.937 170.156 439.318 165.406 438.25 162.135C437.177 158.865 439.406 156.911 438.448 156.448C437.484 155.979 435.38 158.562 436.068 163.214C436.75 167.859 440.281 169.24 439.453 179.505C438.62 189.776 443.651 192.167 442.427 201.531" fill="#F6B40E"/>
<path d="M453.495 223.036L425.083 161.135C425.083 161.135 424.594 159.953 423.807 160.276C423.021 160.604 423.51 161.786 423.51 161.786L447.187 225.646M447.87 201.562C448.214 192.151 442.422 186.974 443.182 178.568C443.937 170.156 439.318 165.406 438.25 162.135C437.177 158.865 439.406 156.911 438.448 156.448C437.484 155.979 435.38 158.562 436.068 163.214C436.75 167.859 440.281 169.24 439.453 179.505C438.62 189.776 443.651 192.167 442.427 201.531" stroke="#85340A" stroke-width="1.11035"/>
<path d="M453.76 224.344L451.198 156.281C451.198 156.281 451.198 155 450.344 155C449.49 155 449.49 156.281 449.49 156.281L446.932 224.344M456.771 202.349C460.698 193.786 457.328 186.786 461.245 179.307C465.161 171.833 462.713 165.672 462.974 162.245C463.234 158.812 466.042 157.859 465.333 157.062C464.625 156.266 461.693 157.844 460.547 162.401C459.401 166.958 462.135 169.583 457.437 178.75C452.745 187.922 456.474 192.057 451.76 200.24" fill="#F6B40E"/>
<path d="M453.76 224.344L451.198 156.281C451.198 156.281 451.198 155 450.344 155C449.49 155 449.49 156.281 449.49 156.281L446.932 224.344M456.771 202.349C460.698 193.786 457.328 186.786 461.245 179.307C465.161 171.833 462.713 165.672 462.974 162.245C463.234 158.812 466.042 157.859 465.333 157.062C464.625 156.266 461.693 157.844 460.547 162.401C459.401 166.958 462.135 169.583 457.437 178.75C452.745 187.922 456.474 192.057 451.76 200.24" stroke="#85340A" stroke-width="1.11035"/>
<path d="M453.5 225.651L477.177 161.786C477.177 161.786 477.667 160.604 476.88 160.276C476.094 159.953 475.604 161.135 475.604 161.135L447.187 223.036M464.698 206.484C471.599 200.073 471.167 192.318 477.646 186.911C484.125 181.5 484.224 174.875 485.776 171.802C487.333 168.734 490.292 168.927 489.943 167.922C489.588 166.911 486.276 167.25 483.474 171.021C480.672 174.792 482.193 178.266 474.344 184.937C466.5 191.615 468.365 196.859 460.875 202.615" fill="#F6B40E"/>
<path d="M453.5 225.651L477.177 161.786C477.177 161.786 477.667 160.604 476.88 160.276C476.094 159.953 475.604 161.135 475.604 161.135L447.187 223.036M464.698 206.484C471.599 200.073 471.167 192.318 477.646 186.911C484.125 181.5 484.224 174.875 485.776 171.802C487.333 168.734 490.292 168.927 489.943 167.922C489.588 166.911 486.276 167.25 483.474 171.021C480.672 174.792 482.193 178.266 474.344 184.937C466.5 191.615 468.365 196.859 460.875 202.615" stroke="#85340A" stroke-width="1.11035"/>
<path d="M452.76 226.755L499.073 176.818C499.073 176.818 499.979 175.917 499.375 175.312C498.771 174.708 497.87 175.615 497.87 175.615L447.927 221.927M470.437 213.339C479.271 210.057 481.838 202.724 489.896 200.208C497.953 197.687 500.573 191.604 503.187 189.365C505.797 187.125 508.458 188.432 508.516 187.37C508.578 186.302 505.391 185.349 501.359 187.76C497.323 190.172 497.401 193.958 487.599 197.125C477.792 200.286 477.51 205.849 468.385 208.302" fill="#F6B40E"/>
<path d="M452.76 226.755L499.073 176.818C499.073 176.818 499.979 175.917 499.375 175.312C498.771 174.708 497.87 175.615 497.87 175.615L447.927 221.927M470.437 213.339C479.271 210.057 481.838 202.724 489.896 200.208C497.953 197.687 500.573 191.604 503.187 189.365C505.797 187.125 508.458 188.432 508.516 187.37C508.578 186.302 505.391 185.349 501.359 187.76C497.323 190.172 497.401 193.958 487.599 197.125C477.792 200.286 477.51 205.849 468.385 208.302" stroke="#85340A" stroke-width="1.11035"/>
<path d="M446.037 199.969C445.584 190.927 440.459 186.927 441.464 178.688C439.255 185.203 444.584 190.25 444.282 199.875M451.922 223.599L432.464 181.083L448.766 224.906" fill="#85340A"/>
<path d="M455.693 200.177C458.735 191.651 455.531 185.99 459.615 178.766C455.078 183.938 458.068 190.646 454.11 199.417M452.084 224.255L450.38 177.531L448.672 224.261" fill="#85340A"/>
<path d="M464.531 204.063C470.61 197.354 469.813 190.896 476.349 185.781C470.183 188.828 470.375 196.167 463.36 202.755M451.985 224.932L468.287 181.109L448.828 223.625" fill="#85340A"/>
<path d="M471.214 211.042C479.391 207.162 481.13 200.891 489.125 198.672C482.261 199.125 479.636 205.979 470.63 209.38M451.636 225.516L483.469 191.271L449.219 223.104" fill="#85340A"/>
<path d="M451.651 227.5L513.552 199.083C513.552 199.083 514.734 198.599 514.406 197.807C514.083 197.021 512.896 197.51 512.896 197.51L449.036 221.187M473.12 221.87C482.536 222.213 487.713 216.422 496.12 217.182C504.526 217.937 509.281 213.318 512.547 212.25C515.818 211.177 517.771 213.406 518.24 212.448C518.703 211.484 516.12 209.38 511.474 210.068C506.823 210.75 505.443 214.281 495.177 213.453C484.911 212.625 482.516 217.651 473.151 216.427" fill="#F6B40E"/>
<path d="M451.651 227.5L513.552 199.083C513.552 199.083 514.734 198.599 514.406 197.807C514.083 197.021 512.896 197.51 512.896 197.51L449.036 221.187M473.12 221.87C482.536 222.213 487.713 216.422 496.12 217.182C504.526 217.937 509.281 213.318 512.547 212.25C515.818 211.177 517.771 213.406 518.24 212.448C518.703 211.484 516.12 209.38 511.474 210.068C506.823 210.75 505.443 214.281 495.177 213.453C484.911 212.625 482.516 217.651 473.151 216.427" stroke="#85340A" stroke-width="1.11035"/>
<path d="M450.344 227.76L518.406 225.198C518.406 225.198 519.687 225.198 519.687 224.344C519.687 223.49 518.406 223.49 518.406 223.49L450.344 220.932M472.333 230.776C480.901 234.698 487.896 231.328 495.375 235.245C502.854 239.161 509.01 236.713 512.443 236.974C515.875 237.234 516.823 240.042 517.625 239.333C518.422 238.625 516.838 235.693 512.281 234.547C507.729 233.401 505.104 236.135 495.932 231.437C486.766 226.745 482.63 230.474 474.443 225.76" fill="#F6B40E"/>
<path d="M450.344 227.76L518.406 225.198C518.406 225.198 519.687 225.198 519.687 224.344C519.687 223.49 518.406 223.49 518.406 223.49L450.344 220.932M472.333 230.776C480.901 234.698 487.896 231.328 495.375 235.245C502.854 239.161 509.01 236.713 512.443 236.974C515.875 237.234 516.823 240.042 517.625 239.333C518.422 238.625 516.838 235.693 512.281 234.547C507.729 233.401 505.104 236.135 495.932 231.437C486.766 226.745 482.63 230.474 474.443 225.76" stroke="#85340A" stroke-width="1.11035"/>
<path d="M449.036 227.5L512.896 251.177C512.896 251.177 514.078 251.667 514.406 250.88C514.734 250.094 513.552 249.604 513.552 249.604L451.651 221.187M468.198 238.698C474.609 245.604 482.365 245.167 487.776 251.646C493.187 258.125 499.812 258.224 502.88 259.776C505.948 261.333 505.755 264.292 506.766 263.943C507.771 263.588 507.437 260.276 503.661 257.474C499.891 254.672 496.422 256.193 489.745 248.344C483.073 240.5 477.823 242.365 472.068 234.875" fill="#F6B40E"/>
<path d="M449.036 227.5L512.896 251.177C512.896 251.177 514.078 251.667 514.406 250.88C514.734 250.094 513.552 249.604 513.552 249.604L451.651 221.187M468.198 238.698C474.609 245.604 482.365 245.167 487.776 251.646C493.187 258.125 499.812 258.224 502.88 259.776C505.948 261.333 505.755 264.292 506.766 263.943C507.771 263.588 507.437 260.276 503.661 257.474C499.891 254.672 496.422 256.193 489.745 248.344C483.073 240.5 477.823 242.365 472.068 234.875" stroke="#85340A" stroke-width="1.11035"/>
<path d="M447.927 226.76L497.865 273.073C497.865 273.073 498.771 273.979 499.375 273.38C499.979 272.776 499.073 271.87 499.073 271.87L452.755 221.932M461.344 244.443C464.63 253.271 471.958 255.838 474.474 263.896C476.995 271.953 483.078 274.578 485.323 277.187C487.562 279.797 486.25 282.458 487.318 282.516C488.38 282.578 489.338 279.391 486.927 275.359C484.516 271.328 480.724 271.401 477.562 261.599C474.396 251.797 468.838 251.51 466.385 242.385" fill="#F6B40E"/>
<path d="M447.927 226.76L497.865 273.073C497.865 273.073 498.771 273.979 499.375 273.38C499.979 272.776 499.073 271.87 499.073 271.87L452.755 221.932M461.344 244.443C464.63 253.271 471.958 255.838 474.474 263.896C476.995 271.953 483.078 274.578 485.323 277.187C487.562 279.797 486.25 282.458 487.318 282.516C488.38 282.578 489.338 279.391 486.927 275.359C484.516 271.328 480.724 271.401 477.562 261.599C474.396 251.797 468.838 251.51 466.385 242.385" stroke="#85340A" stroke-width="1.11035"/>
<path d="M474.714 220.037C483.755 219.589 487.761 214.458 496 215.469C489.485 213.255 484.433 218.583 474.808 218.281M451.089 225.922L493.604 206.464L449.781 222.766" fill="#85340A"/>
<path d="M474.511 229.693C483.032 232.734 488.693 229.531 495.922 233.615C490.745 229.078 484.042 232.068 475.266 228.109M450.427 226.083L497.151 224.38L450.427 222.672" fill="#85340A"/>
<path d="M470.62 238.537C477.334 244.609 483.787 243.813 488.901 250.349C485.86 244.182 478.516 244.38 471.927 237.359M449.755 225.984L493.573 242.287L451.058 222.828" fill="#85340A"/>
<path d="M463.646 245.214C467.521 253.396 473.792 255.13 476.016 263.125C475.563 256.261 468.709 253.636 465.308 244.63M449.172 225.636L483.417 257.469L451.584 223.219" fill="#85340A"/>
<path d="M450.344 252.078C465.661 252.078 478.078 239.661 478.078 224.344C478.078 209.026 465.661 196.604 450.344 196.604C435.026 196.604 422.604 209.026 422.604 224.344C422.604 239.661 435.026 252.078 450.344 252.078Z" fill="#F6B40E" stroke="#85340A" stroke-width="1.49778"/>
<path d="M459.797 218.412C457.907 218.412 456.089 219.234 455.026 220.938C457.157 222.859 461.87 223.068 465.073 220.719C464.396 220 463.578 219.422 462.672 219.026C461.766 218.63 460.787 218.422 459.797 218.412ZM459.766 218.849C461.61 218.813 463.334 219.662 463.573 220.5C461.443 222.849 458.032 222.646 455.896 220.938C456.834 219.448 458.334 218.875 459.766 218.849Z" fill="#843511"/>
<path d="M460.156 217.094C457.386 217.094 456.745 217.734 455.464 218.802C454.183 219.865 453.542 219.651 453.328 219.865C453.12 220.083 453.328 220.719 453.755 220.505C454.183 220.292 455.037 219.865 456.318 218.802C457.599 217.734 458.875 217.734 460.156 217.734C463.995 217.734 466.13 220.932 466.558 220.719C466.985 220.505 464.422 217.094 460.156 217.094Z" fill="#85340A"/>
<path d="M467.839 218.37C462.927 214.104 456.745 213.464 453.328 216.667C452.49 217.787 451.959 218.979 451.735 220.229C451.308 222.662 452.068 225.287 453.969 227.974C453.755 227.974 453.328 228.188 453.115 228.401C451.422 225.162 450.823 221.833 451.375 218.667C451.526 217.839 451.75 217.026 452.047 216.234C456.74 212.396 463.141 211.969 467.834 218.37H467.839Z" fill="#85340A"/>
<path d="M459.729 222.417C460.792 222.417 461.651 221.557 461.651 220.5C461.651 219.438 460.792 218.578 459.729 218.578C458.672 218.578 457.808 219.438 457.808 220.5C457.808 221.557 458.672 222.417 459.729 222.417Z" fill="#85340A"/>
<path d="M465.282 221.787C461.651 224.563 458.026 224.349 455.891 223.068C453.761 221.787 453.761 221.359 454.183 221.359C454.61 221.359 455.037 221.787 456.745 222.641C458.453 223.495 461.011 223.495 465.276 221.787H465.282Z" fill="#85340A"/>
<path d="M446.099 228.177C445.188 228.344 444.537 229.151 444.537 230.078C444.537 231.141 445.417 231.984 446.474 231.984C446.782 231.984 447.084 231.912 447.354 231.771C447.625 231.63 447.86 231.422 448.032 231.172C448.771 231.729 449.797 231.787 450.344 231.797C450.427 231.797 450.537 231.797 450.594 231.797C451.141 231.787 452.162 231.729 452.901 231.172C453.261 231.688 453.834 231.984 454.459 231.984C455.521 231.984 456.396 231.141 456.396 230.078C456.396 229.151 455.745 228.344 454.834 228.177C455.349 228.354 455.677 228.854 455.677 229.396C455.677 229.563 455.646 229.729 455.584 229.886C455.516 230.037 455.422 230.182 455.302 230.297C455.183 230.417 455.042 230.511 454.891 230.578C454.735 230.641 454.568 230.672 454.401 230.672C453.719 230.672 453.157 230.136 453.12 229.458C452.912 229.87 452.089 231.109 450.469 231.172C448.849 231.109 448.021 229.87 447.813 229.458C447.776 230.136 447.214 230.672 446.537 230.672C446.37 230.672 446.203 230.641 446.047 230.578C445.891 230.511 445.75 230.417 445.63 230.297C445.511 230.182 445.417 230.037 445.354 229.886C445.292 229.729 445.255 229.563 445.255 229.396C445.255 228.854 445.584 228.359 446.099 228.177ZM448.188 233.859C446.052 233.859 445.209 235.792 443.287 237.073C444.354 236.646 445.193 235.802 446.688 234.953C448.183 234.099 449.453 235.136 450.308 235.136H450.339C451.188 235.136 452.464 234.099 453.959 234.953C455.453 235.807 456.323 236.646 457.391 237.073C455.469 235.792 454.594 233.859 452.459 233.859C452.037 233.859 451.193 234.089 450.339 234.516H450.308C449.453 234.089 448.61 233.859 448.188 233.859Z" fill="#85340A"/>
<path d="M447.464 236.386C446.625 236.422 445.511 236.594 443.906 237.073C447.75 236.219 448.599 237.511 450.308 237.511H450.334C452.042 237.511 452.891 236.219 456.735 237.073C452.464 235.792 451.615 236.636 450.339 236.636H450.308C449.505 236.636 448.87 236.323 447.464 236.386Z" fill="#85340A"/>
<path d="M444.099 237.042C443.854 237.047 443.584 237.047 443.292 237.073C447.771 237.5 445.615 240.068 450.313 240.068H450.339C455.037 240.068 452.912 237.5 457.396 237.073C452.698 236.651 454.183 239.417 450.344 239.417H450.313C446.709 239.417 447.818 237 444.099 237.042ZM454.188 243.974C454.188 242.953 453.782 241.979 453.063 241.261C452.339 240.537 451.365 240.136 450.344 240.136C449.328 240.136 448.349 240.537 447.63 241.261C446.912 241.979 446.505 242.953 446.505 243.974C446.709 243.109 447.203 242.339 447.901 241.787C448.594 241.24 449.459 240.938 450.344 240.938C451.235 240.938 452.099 241.24 452.792 241.787C453.49 242.339 453.979 243.109 454.188 243.974Z" fill="#85340A"/>
<path d="M433.099 218.37C438.005 214.104 444.193 213.464 447.604 216.667C448.443 217.787 448.979 218.979 449.198 220.229C449.625 222.662 448.865 225.287 446.964 227.974C447.177 227.974 447.604 228.188 447.818 228.401C449.516 225.162 450.115 221.833 449.558 218.667C449.407 217.839 449.183 217.026 448.886 216.234C444.193 212.396 437.792 211.969 433.099 218.37Z" fill="#85340A"/>
<path d="M440.776 217.094C443.547 217.094 444.188 217.734 445.469 218.802C446.75 219.865 447.391 219.651 447.604 219.865C447.818 220.083 447.604 220.719 447.177 220.505C446.75 220.292 445.896 219.865 444.62 218.802C443.339 217.734 442.058 217.734 440.776 217.734C436.938 217.734 434.802 220.932 434.375 220.719C433.953 220.505 436.511 217.094 440.776 217.094Z" fill="#85340A"/>
<path d="M440.646 218.412C438.75 218.412 436.938 219.234 435.87 220.938C438.005 222.859 442.719 223.068 445.917 220.719C445.24 220 444.427 219.422 443.521 219.026C442.615 218.63 441.636 218.422 440.646 218.412ZM440.615 218.849C442.459 218.813 444.183 219.662 444.422 220.5C442.287 222.849 438.88 222.646 436.745 220.938C437.677 219.448 439.183 218.875 440.615 218.849Z" fill="#843511"/>
<path d="M440.896 222.417C441.959 222.417 442.818 221.557 442.818 220.5C442.818 219.438 441.959 218.578 440.896 218.578C439.834 218.578 438.974 219.438 438.974 220.5C438.974 221.557 439.834 222.417 440.896 222.417Z" fill="#85340A"/>
<path d="M435.656 221.787C439.281 224.563 442.906 224.349 445.042 223.068C447.177 221.787 447.177 221.359 446.75 221.359C446.323 221.359 445.896 221.787 444.188 222.641C442.479 223.495 439.922 223.495 435.656 221.787Z" fill="#85340A"/>
</g>
</g>
</g>
<defs>
<clipPath id="clip0_763_1208">
<rect width="900" height="450" fill="white"/>
</clipPath>
</defs>
</svg>
