<svg width="900" height="450" viewBox="0 0 900 450" fill="none" xmlns="http://www.w3.org/2000/svg">
<g clip-path="url(#clip0_763_1395)">
<path d="M900 0H0V450H900V0Z" fill="#1E1E1E"/>
<mask id="mask0_763_1395" style="mask-type:luminance" maskUnits="userSpaceOnUse" x="0" y="0" width="900" height="450">
<path d="M900 0H0V450H900V0Z" fill="white"/>
</mask>
<g mask="url(#mask0_763_1395)">
<path d="M900 0H0V450H900V0Z" fill="white"/>
<path d="M900 0H0V450H900V0Z" fill="#1E1E1E"/>
<mask id="mask1_763_1395" style="mask-type:luminance" maskUnits="userSpaceOnUse" x="0" y="0" width="900" height="450">
<path d="M900 0H0V450H900V0Z" fill="white"/>
</mask>
<g mask="url(#mask1_763_1395)">
<path d="M900 0H0V450H900V0Z" fill="white"/>
<path d="M900 0H0V450H900V0Z" fill="#1E1E1E"/>
<mask id="mask2_763_1395" style="mask-type:luminance" maskUnits="userSpaceOnUse" x="0" y="0" width="900" height="450">
<path d="M900 0H0V450H900V0Z" fill="white"/>
</mask>
<g mask="url(#mask2_763_1395)">
<mask id="mask3_763_1395" style="mask-type:luminance" maskUnits="userSpaceOnUse" x="0" y="0" width="900" height="450">
<path d="M0 0H900V450H0V0Z" fill="white"/>
</mask>
<g mask="url(#mask3_763_1395)">
<path d="M0 0H900V450H0V0Z" fill="white"/>
<path d="M0 0H900V450H0V0Z" fill="white"/>
<path d="M0 0H900V450H0V0Z" fill="#000066"/>
<path d="M0 225L900 0V450L0 225Z" fill="#BD1021"/>
</g>
<mask id="mask4_763_1395" style="mask-type:luminance" maskUnits="userSpaceOnUse" x="96" y="24" width="804" height="402">
<path d="M96 24H899.333V425.333H96V24Z" fill="white"/>
</mask>
<g mask="url(#mask4_763_1395)">
<path d="M96.9479 224.667L899.333 24.0729V425.26" fill="white"/>
</g>
<path d="M689.469 249.766C695.458 250.224 695.255 256.161 695.255 256.161L716.464 256.635C719.177 249.24 721.995 250.094 727.146 253.75C732.042 257.219 737.385 258.766 737.385 258.766C739.432 248.156 754.484 250.302 754.484 250.302C760.901 234.974 761.443 235.177 757.62 233.234C753.802 231.297 752.24 228.01 752.24 228.01C748.615 223.63 746.703 217.297 746.292 213.411C745.88 209.526 741.375 215.359 740.557 214.13C739.74 212.906 733.052 213.62 733.052 213.62C734.688 215.359 729.094 214.333 729.094 214.333C729.635 214.745 729.094 216.38 729.094 216.38C728.547 215.661 724.313 214.948 724.313 214.948C723.901 215.87 722.948 216.891 722.948 216.891C720.63 215.87 715.984 216.073 715.984 216.073C709.161 215.969 705.068 218.115 703.156 219.24C701.245 220.365 694.417 223.839 688.818 229.25C683.224 234.667 680.083 234.052 680.083 234.052C678.443 240.083 665.068 247.438 665.068 247.438C662.885 249.38 656.193 250.302 652.781 247.438C649.37 244.578 652.781 239.469 652.781 239.469C654.047 237.083 655.297 237.182 655.438 228.891C655.531 223.286 661.313 218.844 667.25 212.328C674.51 204.365 684.656 191.255 684.656 191.255C684.708 195.281 686.911 195.932 686.911 195.932C688.906 191.833 691.771 188.536 691.771 188.536C691.927 188.88 692.339 189.115 692.339 189.115C694.589 186.047 695.969 184.823 695.969 184.823C695.203 184.516 688.906 184.823 683.021 189.953C677.13 195.089 673.089 193.365 673.089 193.365C668.995 192.063 668.635 188.922 668.635 188.922C665.646 176.052 677.391 166.849 677.391 166.849C661.62 163.099 672.984 143.094 692.542 134.589C712.094 126.083 711.891 122.25 711.891 122.25C713.016 123.557 713.938 125.854 713.938 125.854C714.146 125.698 715.578 123.557 726.839 118.573C738.099 113.594 743.526 109.302 743.526 109.302C744.964 112.062 744.651 114.052 744.651 114.052C775.469 103.25 805.828 78.4583 805.828 78.4583C806.698 80.526 806.24 83.6667 806.24 83.6667C811.255 79.0312 829.375 68.2292 829.375 68.2292C829.682 75.125 824 77.7656 824 77.7656C824.615 78.7656 824.974 80.5625 824.974 80.5625C827.943 78.9531 841.766 69.3021 841.766 69.3021C846.833 73.6667 842.224 80.8333 842.224 80.8333C844.016 80.5625 845.349 78.9948 845.349 78.9948C846.63 86.4271 838.385 92.9792 838.385 92.9792C839.818 93.0156 842.224 91.599 842.224 91.599C840.688 99.724 825.281 108.724 825.281 108.724C827.531 110.719 825.385 113.365 823.542 114.552C821.698 115.74 818.422 118.344 819.443 119.417C820.469 120.49 827.276 115.698 827.276 115.698C828.453 119.109 819.703 125.818 819.703 125.818C825.792 126.62 842.74 118.917 842.74 118.917C841.354 125.469 834.958 130.568 827.073 133.516C819.188 136.469 819.599 136.927 819.599 136.927C820.979 138.036 831.885 134.859 831.885 134.859C828.609 142.177 817.245 147.198 817.245 147.198C820.365 149.839 824.615 146.776 828.865 143.865C833.115 140.953 838.896 138.458 845.297 136.318C851.698 134.172 856.198 135.781 856.198 135.781C861.526 134.094 866.031 136.469 866.031 136.469C876.266 137.313 877.292 141.026 877.292 141.026C878.417 141.297 879.286 141.755 881.896 143.672C884.51 145.589 884.354 151.526 884.255 154.438C884.151 157.349 883.333 157.349 882.818 158.156C882.307 158.964 882.255 159.88 882.255 160.99C882.255 162.104 879.698 169 863.88 169.073C848.057 169.151 839.901 169.073 839.901 169.073C838.599 169.073 837.036 169.844 837.036 169.844C830.38 173.135 833.896 167.594 825.979 174.109C818.063 180.62 814.036 179.495 814.036 179.495C812.74 181.057 804.443 188.771 799.703 191.833C794.958 194.901 795.813 194.62 799.938 196.406C804.068 198.198 810.313 196.406 810.313 196.406C806.323 199.063 809.089 200.292 809.089 200.292C814.344 197.099 817.516 198.271 817.516 198.271C819.188 202.844 813.182 210.073 813.182 210.073C815.5 210.38 819.87 210.073 819.87 210.073C818.813 213.167 814.443 216.563 811.234 217.609C808.026 218.656 808.609 219.063 809.563 221.005C810.521 222.948 809.698 224.917 809.698 224.917C804.104 221.031 803.896 224.505 803.896 224.505C803.25 229.104 803.354 235.693 803.354 235.693C799.396 233.703 799.188 236.359 799.188 236.359C798.167 240.547 793.318 245.401 793.318 245.401C793.115 242.797 790.724 242.13 790.724 242.13C788.198 246.984 783.557 249.896 783.557 249.896C782.943 254.083 784.104 259.958 784.104 259.958C781.099 259.349 780.01 259.401 779.531 260.115C779.052 260.828 780.214 261.188 780.214 261.188L819.323 262.156C819.87 262.208 822.193 262.464 822.26 266.703C822.328 270.943 818.849 271.151 818.849 271.151L776.052 270.125C776.052 270.125 776.255 271.302 774 272.479C771.75 273.651 772.5 271.151 771.885 276.411C771.271 281.672 762.74 276 762.74 276C761.375 278.047 758.031 280.703 758.031 280.703C756.12 274.927 754.141 273.141 751.068 278.146C747.995 283.156 756.594 282.286 756.594 282.286C756.594 282.286 806.833 274.88 809.563 274.625C812.292 274.37 815.297 274.521 816.526 278.354C817.755 282.182 810.448 282.797 810.448 282.797L758.917 288.417C757.823 291.484 753.526 291.229 753.526 291.229C753.865 294.141 750.792 295.979 749.224 297.052C747.656 298.125 742.74 297.615 742.74 297.615C736.734 301.698 733.797 298.479 733.797 298.479C729.906 300.167 727.448 299.453 724.245 298.073C721.036 296.693 721.307 292.813 721.307 292.813L688.786 296.182C687.818 296.531 686.953 297.052 686.193 297.74C687.349 299.224 683.859 302.667 683.859 302.667C684.833 303.333 686.703 305.214 686.958 309.276C687.229 313.573 681.714 314.292 684.474 317.281C687.24 320.271 692.281 317.802 697.911 315.099C703.542 312.396 709.073 312.74 711.479 312.76C713.885 312.781 720.589 314.464 724.76 315.943C728.938 317.417 730.37 316.536 730.651 314.391C730.932 312.245 732.802 311.63 732.802 311.63C732.286 313.74 733.417 314.677 733.417 314.677C735.026 314.792 737.844 313.219 737.844 313.219C737.589 314.771 735.542 315.75 735.542 315.75C731.443 318.49 737.073 317.474 737.073 317.474C748.286 315.177 752.281 315.406 755.198 315.714C758.115 316.021 771.885 321.88 771.885 321.88C772.396 320.5 772.036 317.094 772.036 317.094C775.573 318.052 777.005 320.078 777.005 320.078C778.333 318.625 777.464 316.172 777.464 316.172C788.828 322.531 775.109 325.406 771.474 326.63C767.844 327.859 767.896 329.354 767.896 329.354C770.911 328.396 773.01 328.047 775.521 327.859C778.031 327.667 777.161 327.818 783.151 326.63C789.141 325.443 792.208 327.974 792.208 327.974C787.193 328.24 785.708 329.734 785.708 329.734C788.885 331.917 785.865 333.76 785.865 333.76C781.307 328.01 777.417 333.99 777.417 333.99C778.979 333.76 783.557 334.719 784.865 335.542C785.875 336.177 788.245 337.344 791.188 338.703C795.344 340.62 794.568 339.391 797.792 340.615C801.016 341.844 799.786 344.948 799.786 344.948C798.406 342.417 795.438 341.536 795.438 341.536C795.177 344.948 791.75 345.521 791.75 345.521C795.948 340.844 786.885 338.818 782.635 338.891C778.391 338.969 775.214 341.688 775.214 341.688C783.766 349.698 789.703 347.094 789.703 347.094C788.625 350.005 781.563 348.854 781.563 348.854C784.839 351.344 784.479 353.109 784.479 353.109C782.74 351.422 779.875 352.266 773.729 348.281C767.589 344.297 762.109 345.599 762.109 345.599C768.099 351.995 759.911 355.792 759.911 355.792C756.891 357.516 761.188 359.849 761.188 359.849C757.401 360.542 756.891 356.75 756.891 356.75C754.891 356.365 752.026 358.781 752.026 358.781C752.229 354.87 757.349 356.823 757.505 352.766C757.656 348.703 752.74 345.563 738.255 347.552C723.766 349.547 719.516 344.911 719.516 344.911C718.292 344.948 718.031 346.172 718.031 346.172C720.438 348.474 721.516 349.432 721.104 351.042C720.698 352.651 721.875 353.188 721.875 353.188C719.208 353.031 719.005 349.854 719.005 349.854C718.953 351.156 718.391 351.271 717.521 352.651C716.651 354.031 717.469 355.792 717.469 355.792C716.344 354.797 714.297 353.609 716.24 350.771C717.74 348.589 713.12 345.792 713.12 345.792C711.328 343.953 706.568 345.677 706.568 345.677C696.688 347.63 690.901 341.385 690.901 341.385C689.776 341.385 687.625 340.771 687.625 340.771C677.182 345.448 668.021 335.333 668.021 335.333C660.135 336.828 656.552 333.031 654.146 329.318C651.74 325.599 651.281 325.292 648.104 323.375C644.932 321.464 641.964 316.042 644.88 313.188C647.422 310.693 646.672 310.12 646.672 310.12C642.578 303.234 653.974 301.016 654.182 299.37C654.479 296.964 656.859 295.448 659.417 295.292C661.979 295.141 661.979 295.37 663.667 293.646C665.359 291.922 668.583 294.068 668.583 294.068C669.25 293.568 674.88 289.198 679.896 291.458C684.911 293.724 689.057 292.115 689.057 292.115C692.594 291.344 721.927 287.359 721.927 287.359C723.818 284.526 725.151 281.115 733.24 279.276C741.328 277.438 747.469 272.417 747.469 272.417C746.036 270.885 743.63 270.964 742.401 270.807C741.172 270.656 738.615 268.469 738.615 268.469C737.13 269.125 736.37 268.802 725.766 275.25C716.297 281.01 716.021 269.583 716.021 269.583L695.359 269.62C695 273.99 691.672 275.714 691.672 275.714L684.146 276.094C679.948 273.875 679.896 266.479 679.896 266.479C657.167 266.823 644.526 274.948 644.526 274.948C618.776 261.766 598.604 258.776 598.604 258.776C629.885 255.365 646.417 246.672 646.417 246.672C663.672 257.016 679.896 257.281 679.896 257.281C680.51 251.036 684.708 249.505 684.708 249.505L689.469 249.766Z" fill="black"/>
<path d="M652.281 301.667C645.745 305.5 646.927 307.589 647.495 308.766C648.078 309.969 648.146 311.12 646.37 312.906C644.594 314.693 644.766 315.318 644.766 315.318C645.036 321.667 649.536 323.016 651.417 324.578C652.984 325.88 655.651 329.969 655.651 329.969C658.995 334.771 662.547 334.823 665.172 334.823C667.802 334.823 667.568 334.599 666.229 333.417C664.974 332.307 662.339 330.146 662.339 330.146C665.854 331.375 669.203 335.052 669.203 335.052C675.844 342.318 681.964 341.359 684.661 341.005C687.354 340.646 686.88 339.089 686.88 339.089C686.734 338.828 684.115 338.63 684.115 338.63C674.151 337.682 671.146 331.146 671.146 331.146C677.151 337.047 686.573 338.245 689.474 338.135C692.375 338.026 692.203 338.859 691.589 339.01C690.974 339.167 690.083 339.01 688.755 338.911C687.422 338.807 687.422 339.141 687.729 339.703C688.036 340.26 689.292 340.323 690.88 340.26C692.469 340.203 691.188 340.38 695.307 343.578C699.427 346.776 709.693 344.187 709.693 344.187C703.063 342.542 702.141 339.552 702.141 339.552C693.13 340.609 689.469 335.203 689.469 335.203C687.859 333.594 683.047 331.109 683.047 331.109C677.953 328.922 677.161 324.312 677.161 324.312C678.594 326.354 681.385 328.693 684.917 329.667C688.448 330.646 689.443 331.161 689.443 331.161C687.755 331.411 686.755 330.854 686.755 330.854C683.224 329.823 685.219 331.26 685.219 331.26C689.109 334.365 690.188 334.135 690.188 334.135C700.401 335.187 695.333 331.104 695.333 331.104C702.599 332.833 703.807 330.109 703.807 330.109C705.313 333.307 710.818 332.161 710.818 332.161C703.5 335.682 709.052 334.677 709.052 334.677C716.448 333.292 717.901 335.172 717.901 335.172C719.901 337.036 721.927 336.776 721.927 336.776C721.927 336.776 723.255 336.818 726.073 337.38C728.891 337.943 733.188 340.339 737.281 339.833C741.38 339.328 742.047 340.609 742.047 340.609C741.276 340.349 739.484 340.073 736.313 341.49C733.135 342.906 727.661 343.37 719.672 341.49C711.688 339.615 711.073 339.844 711.073 339.844C712.969 341.26 714.656 343.255 715.016 344.63C715.375 346.01 716.755 346.089 716.755 346.089C717.318 344.328 719.724 343.557 719.724 343.557C721.302 345.016 725.51 346.932 725.51 346.932C725.969 345.974 725.51 345.302 725.51 345.302C728.583 348.234 732.167 347.354 732.167 347.354C733.135 346.667 732.833 345.016 732.833 345.016C734.057 344.974 734.266 345.745 735.135 346.318C736.005 346.896 738.771 346.51 738.771 346.51C737.745 346.089 737.026 344.516 737.026 344.516C741.073 341.719 749.828 342.948 749.828 342.948C756.146 344.057 755.354 348.198 755.354 348.198C756.635 348.807 758.323 350.724 758.323 350.724C758.859 349.271 758.375 347.792 758.375 347.792C761.266 349.172 761.88 352.542 761.88 352.542C765.234 348.714 758.682 344.401 758.682 344.401C761.854 344 765.365 344.286 767.49 344.594C769.609 344.901 772.656 346.01 775.141 348.078C777.625 350.151 782.078 351.109 782.078 351.109C781.943 350.25 779.568 348.807 779.031 348.5C778.495 348.198 778.266 347.448 778.266 347.448C780.438 347.833 781.948 347.641 781.948 347.641C774.297 342.964 772.375 340.745 772.375 340.745C775.245 341.109 776.828 339.328 776.828 339.328C770.792 339.458 770.583 337.891 770.583 337.891C771.328 338.099 774.068 338.771 777.677 338.062C781.286 337.354 786.302 338.078 786.302 338.078C783.688 333.885 773.578 334.594 770.354 334.766C767.13 334.937 765.875 334.516 765.875 334.516C766.391 334.266 766.927 333.729 769.458 333.714C771.995 333.693 774.474 333.906 777.344 331.932C780.208 329.958 784.141 330.609 784.141 330.609C783.188 328.719 778.646 328.052 774.656 330.609C770.661 333.161 767.042 332.344 767.042 332.344C773.359 331.453 775.198 329.229 775.198 329.229C773.286 328.771 772.229 329.38 768.443 330.125C764.656 330.865 763.63 329.562 763.63 329.562C767.797 327.083 770.698 326.089 770.698 326.089C767.146 325.349 763.87 323.833 763.87 323.833C760.182 327.297 757.318 329.255 750.255 325.552C743.188 321.849 739.505 322.281 739.505 322.281C745.714 318.604 752.099 320.187 756.74 322.969C761.38 325.755 762.708 323.479 762.708 323.479C761.245 322.562 761.448 321.771 761.448 321.771C772.708 327.516 777.589 323.943 780.083 322.255C782.573 320.568 778.958 318.323 778.958 318.323C778.719 321.974 774.109 323.635 770.495 322.411C766.875 321.182 763.531 319.625 758.328 317.453C753.12 315.281 746.604 316.406 740.526 317.682C734.453 318.958 733.667 318.349 733.12 317.865C732.578 317.375 732.271 315.896 729.161 317.172C726.057 318.448 718.823 315.052 714.318 313.979C709.813 312.906 702.438 313.495 696.057 316.995C689.682 320.495 686.536 319.625 684.625 318.755C682.714 317.885 681.521 315.49 683.568 313.344C685.615 311.198 685.786 310.609 685.615 307.516C685.448 304.427 682.406 302.589 682.406 302.589C685.208 299.703 685.891 299.062 684.932 297.812C683.979 296.557 685.479 296.583 687.083 295.87C688.688 295.156 687.969 295.052 687.594 294.109C687.219 293.161 686.302 293.318 686.302 293.318C682.578 293.469 680.531 292.448 680.531 292.448C674.37 289.615 668.656 295.13 668.656 295.13C665.156 292.448 664.354 294.182 663.74 294.849C663.125 295.51 661.896 295.974 660.26 296.125C658.771 296.266 656.516 296.849 655.734 298.24C655.734 298.24 655.047 299.359 655.906 300.583C655.906 300.583 656.865 302.026 655.125 303.766C653.38 305.51 652.771 305.932 653.307 307.578C653.844 309.229 653.688 310.49 653.026 311.562C653.026 311.562 652.229 310.646 652.438 309.516C652.641 308.385 652.641 307.734 652.385 307.12C652.385 307.12 650.672 308.807 650.365 310.01C650.365 310.01 649.646 308.156 652.13 305.667C654.609 303.172 655.74 301.932 655.047 300.969C654.536 300.26 652.719 301.411 652.281 301.667Z" fill="#FFC221"/>
<path d="M659.333 329.13C659.333 329.13 656.229 326.755 656.604 323.458C656.979 320.161 656.917 319.755 656.573 319.063C656.573 319.063 656.01 319.391 656.026 320.672C656.042 321.875 655.87 323.125 655.75 323.354C655.75 323.354 654.146 320.625 653.5 320.109C653.5 320.109 654.047 317.25 653.156 316.026C652.271 314.797 651.411 314.719 650.396 315.104C648.984 315.635 647.922 316.943 652.656 320.828C652.656 320.828 654.422 322.229 655.651 325.349C656.88 328.464 658.927 328.948 659.333 329.13ZM674.729 320.01C674.729 320.01 674.49 318.146 676.161 314.849C677.833 311.552 676.833 309.104 676.453 308.286C676.078 307.469 675.854 307.776 677.542 306.359C679.615 304.615 676.74 302.417 680.156 299.359C680.156 299.359 682.406 297.427 682.917 296.635C682.917 296.635 679.302 298.578 676.948 299.547C674.594 300.521 665.583 304.938 667.563 307.901C669.542 310.865 669.339 311.016 669.031 312.245C669.031 312.245 663.672 309.406 665.547 304.813C665.547 304.813 666.401 302.958 668.651 300.875C670.703 298.99 669.474 301.286 673.635 298.911C673.635 298.911 676.948 296.943 678.688 294.286C678.688 294.286 676.5 295.667 675.719 295.896C675.719 295.896 670.906 296.766 668.958 298.807C667.016 300.849 662.885 304.401 664.286 308.359C664.286 308.359 659.474 307.771 658.38 302.766C658.38 302.766 649.474 313.75 668.172 318.859C668.177 318.859 671.589 319.766 674.729 320.01Z" fill="black"/>
<path d="M756.99 283.286C763.974 282.229 804.453 276.115 808.13 275.74C812.161 275.333 813.703 274.797 815.026 278.042C816.526 281.719 809.495 281.771 809.495 281.771L761.24 287.24C758.875 287.516 758.344 286.609 758.344 286.609C757.927 285.839 757.12 284.813 756.563 284.141C756.563 284.141 755.927 283.448 756.99 283.286Z" fill="#FFC221"/>
<path d="M658.141 305.24C658.141 305.24 652.922 316.24 673.448 318.958C673.448 318.958 673.5 317.734 674.318 316.01C675.135 314.281 676.927 310.797 675.24 308.536C673.547 306.276 676.62 307.464 677.083 304.51C677.542 301.563 676.776 301.984 678.208 300.068C678.208 300.068 671.755 302.406 669.297 305.24C666.844 308.078 672.625 310.224 669.198 313.323C669.198 313.323 666.328 312.292 664.641 309.188C664.641 309.188 660.651 309.266 658.141 305.24Z" fill="#5A3719"/>
<path d="M678.208 318.75C678.208 318.75 683.276 323.135 689.318 322.943C695.359 322.755 697.917 321.146 699.453 318.75C699.453 318.75 700.625 320.604 700.63 321.833C700.63 321.833 705.849 317.505 714.859 321.26C723.87 325.01 721.104 323.979 723.104 324.25C723.104 324.25 719.271 323.568 710.51 327.578C701.5 331.708 678.005 330.302 678.208 318.75Z" fill="black"/>
<path d="M669.812 299.344C669.812 299.344 672.089 299.688 674.37 297.12C674.37 297.12 671.297 297.698 669.812 299.344ZM652.599 319.766C652.599 319.766 648.365 316.432 651.073 315.781C651.073 315.781 653.005 315.474 652.599 319.766Z" fill="#5A3719"/>
<path d="M744.807 340.609C744.807 340.609 747.057 336.583 753.563 336.583C760.063 336.583 760.828 339.573 769.021 340.146C769.021 340.146 759.188 342.922 752.333 340.38C748.75 339.052 745.526 340.156 744.807 340.609Z" fill="black"/>
<path d="M680.458 321.682C680.458 321.682 690.187 327.583 698.839 321.182C698.839 321.182 699.557 321.87 700.167 323.443C700.167 323.443 706.719 317.12 718.443 323.943C718.443 323.943 717.005 323.781 711.484 326.161C704.286 329.266 686.297 331.297 680.458 321.682Z" fill="#5A3719"/>
<path d="M717.984 327.656C717.984 327.656 727.297 328.74 735.182 328.271C740.026 327.984 745.271 327.099 742.656 328.74C740.047 330.38 741.328 330.531 752.484 329.5C763.646 328.464 752.385 331.604 760.063 332.599C760.063 332.599 741.453 342.104 717.984 327.656Z" fill="black"/>
<path d="M742.453 321.719C742.453 321.719 747.932 319.724 753 322.104C758.068 324.479 757.297 324.667 760.677 325.016C760.677 325.016 758.323 328.385 752.745 325.667C747.161 322.943 745.682 322.422 742.453 321.719ZM748.547 338.542C748.547 338.542 753.917 335.859 759.859 338.646C760.604 338.995 762.224 339.667 763.75 339.995C763.75 339.995 759.198 341.406 754.531 339.958C752.594 339.354 751.052 338.885 748.547 338.542ZM721.974 328.922C721.974 328.922 733.953 330.031 740.458 328.74C740.458 328.74 732.932 332.37 751.823 330.682C751.823 330.682 756.021 330.224 755.505 330.875C754.995 331.526 754.687 332.026 756.734 332.635C756.734 332.641 742.708 338.922 721.974 328.922Z" fill="#5A3719"/>
<path d="M662.13 318.75C662.13 318.75 662.234 319.667 664.896 320.854C667.557 322.042 668.99 324.172 669.552 325.318C670.115 326.469 671.474 328.187 673.677 328.74C673.677 328.74 664.286 330.698 660.073 325.813C660.073 325.813 656.885 322.292 662.031 318.75" fill="black"/>
<path d="M736.057 340.417C736.057 340.417 732.318 340.188 727.25 338.422C722.182 336.661 720.849 338.156 717.984 336.01C715.12 333.865 709.333 335.203 708.26 335.359C707.182 335.51 704.115 335.359 707.953 332.87C707.953 332.87 704.88 332.792 703.703 331.26C703.703 331.26 702.318 332.599 697.151 332.099C697.151 332.099 699.453 335.719 690.187 334.677C690.187 334.677 692.953 337.885 696.281 338.536C699.609 339.188 700.995 338.974 703.141 338.349C703.141 338.349 702.526 341.146 706.823 342.219C711.125 343.292 711.995 344.13 714.198 345.016C714.198 345.016 714.505 343.214 708.771 339.036C708.771 339.036 711.844 338.88 716.245 339.953C720.646 341.026 730.63 343.594 736.057 340.417ZM738.375 344.708C738.375 344.708 739.297 346.854 742.13 346.37C744.964 345.88 749.62 345.052 754.125 347.349C754.125 347.349 754.891 343.521 745.849 343.25C745.849 343.25 740.182 343.557 738.375 344.708ZM661.792 320.109C661.792 320.109 658.312 322.969 661.469 325.943C664.354 328.661 668.807 328.422 670.937 328.349C670.937 328.349 669.656 327.62 668.531 325.932C667.406 324.245 667.37 323.109 665 322.026C662.542 320.901 662.255 320.609 661.792 320.109ZM658.141 305.245C658.141 305.245 652.922 316.24 673.448 318.958C673.448 318.958 673.5 317.734 674.318 316.01C675.135 314.286 676.927 310.797 675.24 308.536C673.547 306.276 676.62 307.464 677.083 304.516C677.542 301.563 676.776 301.984 678.208 300.068C678.208 300.068 671.755 302.406 669.297 305.24C666.844 308.078 672.625 310.224 669.198 313.328C669.198 313.328 666.328 312.292 664.641 309.188C664.641 309.188 660.651 309.266 658.141 305.245Z" fill="#5A3719"/>
<path d="M712.099 330.609C712.099 330.609 716.396 329.922 727.354 334.021C738.307 338.12 742.865 337.089 744.5 336.974C744.5 336.974 738.323 340.198 728.75 335.984C720.286 332.26 719.724 333.677 712.099 330.609Z" fill="black"/>
<path d="M780.677 328.156C780.677 328.156 783.177 328.073 784.635 328.755C784.635 328.755 785.589 327.938 787.875 327.698C787.875 327.698 786.375 326.188 780.677 328.156ZM773.188 322.089C773.188 322.089 775.693 321.974 776.443 320.776C776.443 320.776 775.182 319.167 773.255 318.401C773.255 318.396 773.646 320.109 773.188 322.089ZM689.01 294.094C689.01 294.094 688.547 292.87 691.156 292.484C693.771 292.099 727.896 287.234 727.896 287.234C727.896 287.234 729.708 287.234 729.964 288.422C730.24 289.708 729.755 290.672 721.516 291.635C713.276 292.599 691.516 295.318 691.516 295.318C691.516 295.318 689.214 295.703 689.01 294.094Z" fill="#FFC221"/>
<path d="M722.302 292.625C722.302 292.625 722.302 297.453 727.214 298.167C731.984 298.865 733.625 297.87 734.896 295.359C735.229 294.698 736.693 289.661 734.573 289.276C733.74 289.125 732.266 289.208 731.208 289.661C729.562 290.365 728.036 291.187 728.583 292.01C729.74 293.776 729.969 294.182 729.536 294.312C728.359 294.661 727.49 293.625 727.25 292.906C726.953 292.01 727.901 291.432 724.693 291.911C723.38 292.104 722.302 292.062 722.302 292.625Z" fill="#FFC221"/>
<path d="M742.745 288.911C745.255 289.203 745.062 294.516 742.062 296.917C738.828 299.5 735.74 298.578 735.74 298.578C734.109 297.885 734.312 298.115 735.573 296.203C736.771 294.391 737.333 291.948 736.667 290.25C736.453 289.708 737.042 289.266 737.875 289.089C737.88 289.089 740.151 288.615 742.745 288.911Z" fill="#FFC221"/>
<path d="M744.927 289.38C744.927 289.38 746.719 291.635 744.484 295.792C744.484 295.792 743.495 297.016 745.714 296.839C747.927 296.661 752.88 294.286 752.365 291.245C752.365 291.245 752.193 290.505 750.901 290.583C749.604 290.656 750.661 289.865 751.208 289.714C751.75 289.563 753.443 288.932 749.057 286.109C749.057 286.109 748.333 285.458 747.484 285.729C746.818 285.943 744.484 286.896 744.484 288.255C744.484 288.813 744.927 289.38 744.927 289.38Z" fill="#FFC221"/>
<path d="M749.724 285.562C749.724 285.562 753.219 288.068 753.203 288.812C753.187 289.557 752.88 290.568 753.802 290.479C754.724 290.391 758.51 289.583 757.469 287.083C756.427 284.578 755.385 283.698 753.63 283.083C751.875 282.474 751.427 283.302 749.927 284.437C749.927 284.437 748.833 285.104 749.724 285.562ZM730.797 289.099C730.797 289.099 731.38 287.234 728.24 286.547C728.24 286.547 729.568 285.448 732.229 286.036C734.875 286.62 734.594 288.359 734.573 288.589C734.573 288.589 732.505 288.51 730.797 289.099ZM737.625 288.667C737.625 288.667 741.26 288.031 742.88 288.229C742.88 288.229 741.089 284.224 736.24 285.589C736.24 285.589 737.984 287.557 737.625 288.667ZM743.854 287.667C743.854 287.667 743.854 286.443 746.943 285.219C746.943 285.219 745.443 283.807 743.359 283.937C740.969 284.094 740.49 284.964 740.49 284.964C740.49 284.964 743.083 285.865 743.854 287.667ZM745.062 283.479C745.062 283.479 746.974 283.964 748.167 284.99C748.167 284.99 749.979 283.01 751.516 282.589C751.516 282.589 748.51 280.979 745.062 283.479Z" fill="#FFC221"/>
<path d="M644.573 273.823C644.573 273.823 653.005 266.682 657.729 267.542C662.453 268.401 660.083 267.807 665.255 267.005C670.427 266.203 675.75 265.667 677.901 265.932C677.901 265.932 671.656 261.448 660.495 261.526C660.495 261.526 652.615 264.245 647.187 267.849C647.187 267.849 636.74 262.026 625.943 265.51C625.943 265.51 637.661 269.766 644.573 273.823Z" fill="#5A3719"/>
<path d="M734.234 286.203L735.646 285.964C735.646 285.964 738.021 288.906 736.292 288.938C734.943 288.969 735.49 288.526 735.234 287.667C734.979 286.813 734.521 286.432 734.234 286.203ZM723.641 286.432C723.641 286.432 722.797 287.479 724.38 287.234C726.318 286.938 725.943 287.302 728.068 285.859C728.068 285.859 729.375 284.474 731.802 285.339C731.802 285.339 733.854 286.01 735.516 285.203C737.177 284.401 737.563 284.458 738.458 284.536C739.354 284.609 739.297 284.802 740.49 283.932C741.682 283.057 743.755 283.729 745.063 282.635C746.37 281.547 748.005 282.464 745.063 280.359C745.063 280.359 744.448 279.745 744.5 279.229C744.5 279.229 745.625 279.552 746.521 280.359C747.417 281.161 748.901 280.911 749.156 280.781C749.156 280.781 749.313 278.156 751.922 275.74C754.531 273.328 754.557 273.135 753.026 273.115C751.49 273.099 748.901 272.5 748.031 273.115C747.161 273.729 739.51 278.745 735.057 279.589C730.604 280.432 726.505 281.698 723.641 286.432ZM604.797 258.974C604.797 258.974 618.469 262.495 621.536 263.979C621.536 263.979 622.271 261.693 616.063 259.906C616.063 259.906 631.146 259.443 647.115 266.698C647.115 266.698 654.818 260.099 679.594 262.141C679.594 262.141 679.641 259.953 679.813 258.271C679.813 258.271 662.406 257.76 646.432 248.052C646.432 248.052 632.135 255.089 604.797 258.974ZM680.766 265.573C679.813 251.604 685.167 250.349 685.167 250.349C685.167 250.349 687.693 250.365 690.422 250.786C690.422 250.786 686.193 255.818 687.318 265.802C687.318 265.802 687.76 267.417 684.177 267.417C680.651 267.417 680.766 265.573 680.766 265.573Z" fill="#FFC221"/>
<path d="M684.417 274.823C684.417 274.823 681.823 272.167 681.552 269.099C681.552 269.099 681.484 268.307 684.109 268.385C686.74 268.464 687.083 268.13 687.729 269.661C688.354 271.151 690.016 274.286 690.422 274.641L684.417 274.823Z" fill="#5A3719"/>
<path d="M690.031 267.849C689.792 266.083 689.698 264.312 689.745 262.536C689.912 254.745 691.208 255.437 691.719 256.406L694.385 256.458C694.385 256.458 692.438 247.672 690.151 252.802C687.906 257.849 688.068 261.13 688.344 265.115C688.5 267.411 688.802 268.839 689.057 269.698L690.031 267.849Z" fill="#FFC221"/>
<path d="M720.135 267.865C720.135 267.865 725.276 268.651 717.396 270.531C717.396 270.531 717.776 280.057 727.094 273.385C727.094 273.385 732.599 269.865 736.411 268.437C736.411 268.437 738.333 267.771 738.099 266.333C738.099 266.333 738.255 264.641 736.26 264.974C736.26 264.974 734.688 265.01 733.672 264.641C733.672 264.641 732.573 263.344 731.828 263.844C731.089 264.339 729.349 264.052 730.703 265.703C732.063 267.349 732.469 266.927 733.135 266.448C733.802 265.969 736.745 264.802 734.031 267.234C731.318 269.667 729.193 265.891 728.323 265.203L720.135 267.865ZM694.385 268.948L692.099 268.896C692.099 268.896 690.87 270.734 690.031 267.849L689.062 269.698C689.062 269.698 691.891 279.927 694.385 268.948Z" fill="#5A3719"/>
<path d="M691.141 257.146C691.141 257.146 689.979 263.839 691.448 267.974L716.193 268.438C716.193 268.438 715.885 263.635 716.26 257.146H712.745C712.745 257.146 712.266 262.536 712.713 265.854L712.13 265.87C712.13 265.87 711.687 261.208 712.167 257.146H709.266C709.266 257.146 708.786 262.125 709.161 265.906H708.615C708.615 265.906 708.203 261.542 708.682 257.146H705.818C705.818 257.146 705.292 261.656 705.854 265.844L705.167 265.828C705.167 265.828 704.588 261.26 705.203 257.146H702.031C702.031 257.146 701.245 261.359 701.995 265.88H701.344C701.344 265.88 700.63 261.563 701.417 257.146H698.24C698.24 257.146 697.49 261.922 698.135 265.88H697.521C697.521 265.88 697.01 261.26 697.693 257.146H694.724C694.724 257.146 693.937 261.182 694.588 265.88H693.937C693.937 265.88 693.458 262.38 694.078 257.146H691.141ZM717.281 269.354C717.281 269.354 716.599 257.245 718.922 254.13C721.245 251.016 721.719 251.63 725.677 254.13C729.635 256.635 734.755 259.344 735.578 259.651C736.396 259.953 737.557 260.26 737.557 262.458C737.557 264.656 737.963 265.318 734.552 262.563C734.042 262.146 732.443 260.688 731.292 260.318C728.234 259.344 732.026 261.005 733.12 262.563C734.042 263.88 734.755 263.734 732.37 264.349C729.979 264.964 721.719 267.719 717.281 269.354Z" fill="#FFC221"/>
<path d="M725.943 260.688C725.943 260.688 724.151 258.422 726.432 257.906C728.708 257.385 728.891 261.484 729.271 263.958C729.656 266.427 726.406 261.458 725.943 260.688ZM722.62 271.24C722.62 271.24 719.958 272.214 721.698 273.078C723.438 273.938 728.354 269.859 726.661 270.125C724.974 270.396 722.62 271.24 722.62 271.24ZM726.229 267.5C726.229 267.5 728.583 267.271 728.12 268.286C727.661 269.302 726.818 268.656 726.458 268.432C726.099 268.214 724.438 267.635 726.229 267.5Z" fill="black"/>
<path d="M738.766 264.333C738.766 264.333 739.401 268.948 743.359 270.115C743.359 270.115 745.646 270.682 745.167 268.667C745.167 268.667 744.776 266.979 744.453 266.276C744.125 265.573 742.536 265.125 742.37 265.052C742.198 264.974 741.995 264.49 743.083 264.849C744.177 265.203 744.349 265.245 744.26 264.474C744.177 263.708 743.536 264.016 742.531 263.526C742.146 263.339 742.573 263.083 742.984 263.172C743.391 263.266 744.365 263.557 744.38 261.974C744.38 261.974 744.599 261.094 743.391 261.026C742.078 260.958 742.182 260.37 742.589 260.281C743 260.193 744.375 261.146 744.755 259.578C745.151 257.969 742.865 258.896 743.172 258.068C743.479 257.234 745.099 258.542 745.234 257.557C745.365 256.599 746.672 256.182 744.443 255.87C743.385 255.724 744.365 255.255 745.552 255.422C746.823 255.599 747.589 254.031 748.323 253.521C749.057 253.01 753.203 250.531 747.677 251.349C742.146 252.167 740.526 254.849 740.167 255.385C739.807 255.922 738.271 259.089 738.766 264.333Z" fill="#FFC221"/>
<path d="M751.646 267.906C752.359 267.771 753.031 267.964 753.271 268.458C754.182 270.328 752.094 269.661 750.932 271.042C749.776 272.422 749.74 272.141 748.104 271.656C746.464 271.172 745.849 268.693 745.849 268.693C745.667 267.927 746.375 267.865 747.224 267.958C747.224 267.964 749.937 268.24 751.646 267.906ZM745.661 266.917C745.661 266.917 745.776 267.474 746.714 267.552C747.651 267.625 750.38 267.865 752 267.339C752 267.339 752.599 267.224 752.328 266.167C752.328 266.167 752.307 265.484 750.849 265.76C749.391 266.036 747.276 265.76 746.573 265.604C745.87 265.453 745.297 265.62 745.661 266.917ZM745.437 263.568C745.437 263.568 745.385 265.026 746.854 265.219C748.323 265.406 750.151 265.401 750.911 265.25C751.49 265.135 752.536 264.922 752.625 264.068C752.708 263.214 752.948 262.573 751.141 263.021C749.328 263.469 747.146 263.172 746.922 263.125C746.703 263.073 745.474 262.703 745.437 263.568ZM746.104 260.63C746.104 260.63 745.745 261.297 745.797 261.938C745.849 262.573 746.906 262.792 748.818 262.818C750.729 262.844 752.437 262.563 752.557 261.922C752.672 261.281 753.135 260.542 751.635 260.771C750.13 261.005 748.24 261.068 747.49 260.76C746.734 260.453 746.229 260.349 746.104 260.63Z" fill="#FFC221"/>
<path d="M816.271 268.042C816.271 268.042 816.245 269.37 817.297 270.682L764.245 269.161C764.245 269.161 765.021 268.682 765.219 266.615L816.271 268.042Z" fill="#5A3719"/>
<path d="M746.531 258.438C746.531 258.438 746.068 259.776 747.026 260.047C747.979 260.313 749.62 260.604 751.786 260.26C751.786 260.26 752.88 260.339 753.255 259.177C753.63 258.016 753.594 258.667 750.505 258.052C750.505 258.052 749.536 257.771 752.349 257.76C752.349 257.76 753.922 257.813 754.161 257.542C754.401 257.276 756.479 255.625 753.786 255.729C751.089 255.828 752.417 255.255 753.786 255.255C755.151 255.255 755.578 255.536 756.021 255.099C756.464 254.667 756.052 254.964 755.318 254.219C754.583 253.479 755.099 253.698 755.625 254.104C756.156 254.516 756.479 254.641 757.078 254.12C757.672 253.594 756.615 252.828 757.078 252.917C757.536 253.005 757.76 253.88 759.5 253.036C761.24 252.193 763.594 252.635 764.234 253.115C764.875 253.594 766.693 254.208 767.792 253.078C768.896 251.948 766.484 251.026 767.51 250.87C768.536 250.719 769.25 251.083 769.661 250.26C770.073 249.438 768.073 248.651 769.995 248.135C771.911 247.615 770.302 242.234 769.635 241.734C769.635 241.734 767.484 243 765.13 246.813C762.776 250.625 761.396 252.844 758.193 251.677C753.578 249.99 751.219 252.417 750.505 252.854C749.396 253.531 752.818 253.859 750.823 253.901C748.828 253.938 748.828 254.109 748.62 254.417C748.417 254.724 748.594 254.99 748.953 255.01C749.313 255.031 750.078 255.797 748.854 255.755C747.625 255.719 746.755 255.526 747.115 256.833C747.115 256.833 747.135 257.12 747.854 257.193C748.568 257.271 748.828 258.021 747.495 258.021C746.641 258.021 746.557 258.349 746.531 258.438ZM751.438 271.734C751.438 271.734 750.49 272.406 751.797 272.484C753.099 272.557 753.792 272.807 754.203 272.109C754.609 271.411 756.375 271.698 755.198 270.719C754.021 269.745 753.229 270.302 751.438 271.734Z" fill="#FFC221"/>
<path d="M756.911 255.781C756.911 255.781 761.328 251.62 765.021 254.438C768.714 257.255 769.073 257.677 769.125 257.734C769.172 257.792 769.557 258.099 768.557 258.979C767.562 259.859 768.531 259.839 769.635 259.302C770.734 258.766 770.812 259.266 771.349 259.859C771.885 260.453 772.604 260.797 770.901 260.818C769.198 260.839 765.536 260.818 765.536 260.818C765.536 260.818 763.057 261.026 764.312 260.016C765.562 259 765.385 257.792 764.745 257.714C764.104 257.641 764.693 258.328 764.312 258.807C763.927 259.286 763.057 259.724 762.187 259.708C761.318 259.688 760.547 260.339 761.927 260.839C763.312 261.333 761.776 261.661 761.057 261.641C760.344 261.625 756.885 261.911 760.396 262.333C763.901 262.755 760.078 262.651 762.646 264.12C765.49 265.745 763.443 269.193 762.365 269.495C762.365 269.495 761.187 270.135 762.672 269.964C764.156 269.786 764.974 269.573 763.927 270.38C762.88 271.182 760.781 273.865 757.859 271.813C757.859 271.813 756.531 271.182 758.911 271.068C761.292 270.953 756.964 270.443 756.25 269.964C755.531 269.479 752.792 266.682 754.51 267.026C756.224 267.37 755.609 266.375 754.583 266.01C753.562 265.646 753.354 264.078 754.51 264.422C755.661 264.766 757.016 265.406 757.937 265.365C758.859 265.323 758.604 264.938 756.635 264.323C754.661 263.714 753.844 263.615 754.302 261.948C754.766 260.281 756.917 262.599 756.401 261.354C755.891 260.109 754.021 260.724 755.021 259.073C756.021 257.427 756.25 258.135 756.708 258.349C757.172 258.557 757.906 258.401 756.609 257.427C755.786 256.813 756.682 255.984 756.911 255.781Z" fill="#FFC221"/>
<path d="M760.089 256.927C760.089 256.927 760.062 256.375 760.854 256.469C761.651 256.563 761.443 256.182 761.672 256.068C761.906 255.953 763.891 256.656 762.031 257.328C761.349 257.578 760.266 257.401 760.089 256.927Z" fill="black"/>
<path d="M764.312 261.641C764.312 261.641 762.818 262.401 764.172 263.969C765.323 265.302 765.318 265.724 765.219 266.615C765.125 267.5 816.271 268.036 816.271 268.036C816.271 268.036 816.182 264.755 818.37 262.906C818.37 262.906 790.422 262.255 764.312 261.641Z" fill="#FFC221"/>
<path d="M817.141 267.141C817.141 267.141 817.349 264.37 818.88 263.448C819.729 262.943 820.844 263.24 821.328 265.474C822.021 268.651 819.328 271.354 818.078 270.146C816.885 269 817.141 267.141 817.141 267.141Z" fill="#5A3719"/>
<path d="M758.531 279.089C758.531 279.089 761.937 276.198 762.448 274.896C762.448 274.896 771.661 281.422 771.099 275.427C771.099 275.427 771.125 273.823 771.38 272.292C771.38 272.292 774.714 272.615 775.219 269.958L766.62 269.703C766.62 269.703 765.724 269.51 764.391 270.948C763.062 272.385 760.323 273.958 757.76 272.589C757.76 272.589 756.693 271.656 755.599 272.443C754.51 273.229 754.458 273.458 755.354 274.302C756.255 275.146 758.172 277.729 758.531 279.089ZM778.318 261.062L773.276 260.87C773.276 260.87 771.432 258.286 767.849 255.411C767.849 255.411 766.797 254.953 768.823 253.344C770.844 251.734 771.432 250.01 771.51 249.224C771.583 248.437 771.38 247.214 772.146 248.151C772.917 249.089 778.135 253.802 778.88 252.406C779.625 251.005 779.75 250.354 779.88 249.932C780.005 249.51 780.187 248.208 780.927 249.568C781.672 250.932 782.182 250.583 782.208 254.109C782.208 254.109 782.333 257.594 782.875 258.859C782.87 258.859 776.271 256.745 778.318 261.062ZM756.432 250.333C756.432 250.333 760.271 252.479 762.167 249.568C764.057 246.656 765.339 246.198 763.906 243.401C762.474 240.604 763.948 239.302 765.026 238.151C766.109 237 767.031 237.193 767.182 232.75C767.339 228.302 770.406 226.807 771.792 225.432C773.172 224.052 776.651 221.943 771.38 221.062C766.109 220.182 755.667 217.458 752.953 213.401C750.24 209.339 749.01 211.75 748.958 211.906C748.906 212.057 748.036 215.047 750.75 220.448C753.464 225.854 755.766 229.328 758.38 231.078C760.99 232.823 763.344 233.781 762.01 237.385C760.682 240.984 758.375 247.422 756.432 250.333Z" fill="#7B3C20"/>
<path d="M770.609 238.849C770.609 238.849 771.276 248.083 778.031 251.375C778.031 251.375 779.568 247.776 778.953 244.214C778.953 244.214 781.156 244.406 781.771 245.401C781.771 245.401 781.87 242.719 778.698 241.74C775.521 240.766 777.057 234.75 778.182 234.057C779.313 233.37 778.953 232.167 778.182 231.083C777.417 230 777.214 228.349 779.875 229.042C782.537 229.729 782.125 228.313 780.542 227.01C778.953 225.708 779.005 224.099 781.255 224.099C783.51 224.099 787.245 221.911 784.995 221.224C782.74 220.536 782.026 219.807 785.094 218.927C788.167 218.042 789.651 216.932 787.349 216.667C785.047 216.396 783.51 215.594 785.76 215.208C788.01 214.828 785.349 212.526 782.74 212.411C780.13 212.297 774.5 213.37 778.953 209.807C783.406 206.245 772.552 208.849 777.005 206.51C781.458 204.172 775.521 205.208 774.703 205.172C773.885 205.13 773.896 205.172 774.198 203.984C774.5 202.797 773.578 202.26 772.297 202.984C771.016 203.714 771.016 203.714 771.068 202.068C771.12 200.417 769.531 201.646 768.563 202.068C767.589 202.49 765.13 204.328 764.156 203.333C763.188 202.333 762.62 201.302 759.599 203.141C756.583 204.979 757.297 203.333 757.349 202.526C757.401 201.724 758.526 198.542 754.38 201.953C750.234 205.359 753.615 198.271 750.339 200.688C747.057 203.099 746.703 203.521 746.188 202.448C745.677 201.375 745.057 200.495 741.453 202.797C737.844 205.094 740.505 201.417 741.021 200.609C741.531 199.807 743.068 194.594 739.891 198.656C739.891 198.656 738.354 201.495 734.927 196.432C734.927 196.432 731.292 201.458 730.37 199.234C729.448 197.01 728.526 196.781 727.349 198.234C726.172 199.693 727.042 198.161 726.531 196.932C726.021 195.708 725.714 193.448 719.672 197.854C713.63 202.26 721.771 199.042 717.162 201.031C712.557 203.026 701.448 209.307 711.635 207.854C721.823 206.396 706.667 211.839 710.203 212.833C713.734 213.828 712.609 216.896 725.865 213.255C739.125 209.615 736.974 212.682 743.729 209.766C750.49 206.854 742.198 210.766 751.255 210.573C760.318 210.38 752.792 210.609 754.531 212.49C756.276 214.365 763.953 218.813 771.12 219.536C778.287 220.266 780.026 217.583 777.979 220.688C775.932 223.792 775.214 224.979 773.984 226.052C772.755 227.125 769.38 229.578 769.328 233.87C769.276 238.161 763.698 238.849 765.745 243.599C767.375 242.026 769 240.443 770.609 238.849Z" fill="#5A3719"/>
<path d="M782.401 249.172C782.401 249.172 780.76 248.026 780.797 245.979C780.797 245.979 781.953 246.182 782.401 246.927C782.401 246.927 786.531 242.25 781.599 240.568C776.667 238.88 779.12 234.411 780.797 234.385C782.469 234.359 782.76 233.901 781.349 232.036C779.943 230.172 780.042 230.094 782.844 229.609C785.641 229.125 785.26 228.536 784.016 227.844C782.776 227.156 781.823 226.031 781.823 226.031C781.823 226.031 789.734 222.583 787.177 221C784.615 219.417 787.177 219.828 789.464 218.193C791.75 216.557 792.057 216.25 792.396 215.609C792.396 215.609 790.135 215.839 788.469 215.51C788.469 215.51 790.443 214.536 788.469 212.927C786.495 211.318 785.672 209.865 782.536 210.604C779.396 211.344 780.417 210.297 781.646 208.995C782.875 207.693 782.297 206.948 780.078 206.62C780.078 206.62 780.349 205.292 782.021 203.63C782.021 203.63 777.755 203.938 776.323 203.193C776.323 203.193 778.031 202.021 778.167 200.615C778.167 200.615 775.813 201.38 772.844 201.099C772.844 201.099 774.583 199.594 774.583 198.266C774.583 198.266 769.432 199.417 767.042 201.229C767.042 201.229 766.531 201.125 766.12 200.563C765.708 200 765.401 199.438 759.703 201.255C759.703 201.255 760.354 198.724 761.719 197.703C763.083 196.682 762.88 194.635 754.005 200.182C754.005 200.182 752.813 199.464 751.823 196.807C751.823 196.807 749.911 199.516 748.443 200.438C748.443 200.438 747.214 200.953 747.365 199.224C747.521 197.5 746.495 198.729 745.573 199.224C744.651 199.719 744.036 200.948 744.5 197.458C744.964 193.974 743.271 193.245 743.271 193.245C743.271 193.245 740.505 197.151 738.922 197.573C738.922 197.573 736 194.74 734.979 192.865C733.953 190.984 733.953 190.297 732.932 193.552C731.906 196.807 730.625 197.078 730.625 197.078C730.625 197.078 728.885 195.583 728.682 194.776C728.682 194.776 728.375 195.661 727.813 196.042C727.813 196.042 726.276 194.24 726.328 191.635C726.328 191.635 716.807 196.885 715.63 200.068C715.63 200.068 706.62 199.526 702.88 200.219C702.88 200.219 703.802 197.307 706.156 195.849C706.156 195.849 703.802 195.583 703.703 193.172C703.703 193.172 705.594 193.438 706.771 193.13C707.948 192.823 705.135 189.417 708.104 189.339C711.073 189.26 712.969 190.755 711.635 186.807C710.307 182.865 710.922 182.865 710.922 182.865C710.922 182.865 716.089 185.927 716.911 185.161C717.729 184.396 716.245 182.75 720.849 183.516C725.458 184.281 724.177 181.635 725.969 181.521C727.76 181.406 728.734 182.672 727.609 174.318C726.479 165.969 733.188 178.458 728.63 165.854C728.63 165.854 727.479 162.042 724.74 160.411C724.74 160.411 724.125 163.172 721.031 160.734C717.932 158.302 711.839 157.443 714.401 155.526C716.958 153.609 718.161 151.042 717.422 149.432C717.422 149.432 714.401 152.589 709.151 150.333C705.005 148.552 704.135 151.828 699.885 150.87C699.885 150.87 699.964 149.781 703.547 146.964C707.13 144.146 701.474 147.901 699.25 148.401C697.021 148.896 696.38 148.495 701.089 144.854C705.802 141.214 715.115 134.781 713.839 129.49C713.839 129.49 716.036 132.286 721.823 130.255C727.609 128.229 731.906 127.5 733.651 124.51C735.391 121.521 739.948 118.495 741.125 117.844C742.302 117.193 743.885 116.734 742.094 119.568C740.302 122.401 737.385 127.271 729.401 130.562C721.417 133.859 718.344 136.271 716.911 137.995C715.474 139.724 708.208 143.589 712.917 142.937C717.625 142.286 725.818 143.052 721.979 141.943C718.141 140.833 713.786 142.63 717.318 139.411C720.849 136.198 721.464 135.125 726.583 132.979C731.703 130.833 737.385 125.927 736.823 131.135C736.26 136.349 726.74 141.906 724.385 143.589C722.031 145.276 722.901 145.005 722.948 145.698C723 146.385 722.594 147.802 721.62 148.453C720.646 149.109 720.953 149.833 721.208 151.292C721.464 152.745 720.953 153.323 721.672 153.552C722.385 153.781 723.104 153.896 723.307 154.932C723.516 155.964 724.052 156.099 725.432 155.984C726.818 155.87 727.688 156 727.786 156.807C727.891 157.615 729.193 158.703 729.349 156.25C729.5 153.802 730.396 153.323 727.891 154.453C725.38 155.583 724.844 155.177 724.896 154.01C724.948 152.844 724.667 153.109 723.615 153.016C722.568 152.917 722.208 151.443 724.078 150.469C725.943 149.49 725.922 150.484 728.25 148.552C730.578 146.615 730.578 146.078 730.938 145.177C731.297 144.276 727.609 147.802 725.844 148.609C724.078 149.411 724.536 148.052 724.844 146.042C725.151 144.031 729.557 141.406 731.578 141.365C733.599 141.328 738.156 142.516 736.182 145.276C734.214 148.031 728.635 151.307 731.042 151.557C733.448 151.807 733.828 150.87 735.214 152.094C736.594 153.318 735.313 155.812 734.677 157.135C734.036 158.453 732.703 160.12 732.115 160.427C732.115 160.427 729.583 155.906 729.656 159.49C729.734 163.073 729.12 164.354 729.656 164.49C730.198 164.625 733.01 166.5 733.906 166.542C734.802 166.578 729.042 169.24 731.453 169.411C733.854 169.589 737.672 168.359 739 165.87C739 165.87 734.115 164.682 732.141 162.844C732.141 162.844 737.849 161.5 736.26 156.005C736.26 156.005 741.943 157.557 739.49 160.12C737.031 162.687 735.547 162.307 737.672 163.031C739.797 163.76 740.844 164.375 740.844 164.375C740.844 164.375 742.297 165.104 741.458 166.292C740.615 167.479 740.589 169.281 741.307 169.24C742.021 169.203 744.427 168.094 742.406 166.865C740.385 165.641 744.708 165.849 742.865 164.818C741.026 163.781 740.536 163.531 740.052 163.031C739.568 162.536 763.193 148.682 751.26 153.875C751.26 153.875 753.745 148.495 757.224 148.474C760.708 148.453 760.964 151.214 758.99 153.302C757.021 155.391 755.74 158.646 751.109 159.411C751.109 159.411 757.729 162.656 749.906 167.958C749.906 167.958 748.208 168.76 748.823 169.349C749.438 169.937 754.078 167.307 754.724 165.823C755.375 164.344 756.365 163.193 758.141 162.323C759.911 161.458 768.651 155.505 771.276 151.01C773.906 146.51 774.625 146.359 779.745 142.25C784.859 138.135 783.974 138.953 784.625 137.958C785.271 136.958 785.542 135.323 787.901 133.995C790.255 132.667 799.401 127.583 802.266 125.516C805.135 123.448 811.005 119.641 813.531 116.422C816.057 113.203 822.854 109.094 824.552 109.859C826.25 110.625 824.38 113.026 820.391 116.062C816.396 119.104 806.5 127.099 804.896 128.323C803.292 129.552 794.896 135.682 791.755 136.089C788.615 136.5 788.958 137.599 787.078 139.641C785.203 141.687 780.87 145.974 779.401 147.151C777.932 148.328 774.453 150.729 774.25 152.411C774.042 154.099 774.865 154.302 772.063 156.932C769.266 159.568 761.073 165.516 758.104 166.464C758.104 166.464 763.359 168.198 760.224 171.75C757.083 175.302 757.286 174.792 757.047 175.021C757.047 175.021 765.026 173.844 759.37 180.052C759.37 180.052 758.276 181.839 760.802 179.974C763.5 177.979 762.339 175.25 762.031 174.865C762.031 174.865 766.26 172.234 771.141 172.156C776.021 172.083 775.854 171.75 771.484 170.495C771.484 170.495 774.589 166.719 777.219 168.583C779.844 170.448 778.99 171.521 776.229 173C773.464 174.484 769.37 175.094 766.328 176.781C766.328 176.781 772.099 177.906 775.203 175.557C778.307 173.203 778.448 174.38 778.854 174.786C779.266 175.198 779.604 175.964 778.24 177.932C776.875 179.896 776.74 180 776.807 180.432C776.875 180.87 776.703 182.224 773.906 182.682C771.109 183.141 769.844 184.318 770.802 185.646C771.755 186.974 771.792 190.266 769.401 189.964C767.01 189.656 767.661 187.766 766.74 187.026C765.818 186.281 764.521 185.135 760.359 187.307C756.193 189.474 755.854 186.896 756.057 185.542C756.057 185.542 753.359 187.891 751.109 185.724C748.854 183.552 750.901 182.708 752.198 181.609C753.495 180.51 758.786 178.214 755.615 178.62C752.438 179.026 747.698 179.234 746.604 176.781C745.51 174.328 748.958 174.609 749.505 174.839C750.052 175.073 752.302 176.885 752.37 174.51C752.438 172.13 755.953 171.875 754.76 171.391C753.563 170.906 751.891 172.411 751.417 173C751.417 173 748.958 169.578 745 170.703C741.042 171.828 746.26 171.365 747.318 171.547C748.375 171.724 747.766 173.693 744.214 176.885C740.661 180.078 742.266 179.104 744.896 179.104C747.526 179.104 753.974 179.13 750.219 182.198C746.464 185.26 744.964 186.797 743.021 186.26C741.073 185.724 743.26 184.443 744.109 183.906C744.964 183.37 745.474 182.427 743.635 183.115C741.792 183.807 741.141 183.932 739.672 181.328C738.208 178.724 738.823 179.49 739.438 177.776C740.052 176.068 741.484 174.255 739.776 174.891C738.068 175.531 738.24 175.578 738.375 173.615C738.516 171.646 736.432 171.214 736.432 171.214C736.432 171.214 737.25 173.182 736.5 174.432C735.75 175.682 735.714 176.115 736.943 176.448C738.172 176.781 739.333 177.828 737.661 178.979C735.99 180.125 736.193 179.974 737.25 180.661C738.307 181.354 739.844 182.146 738.208 183.755C736.568 185.365 737.932 184.88 738.75 184.88C739.573 184.88 741.427 185.568 741.453 187.151C741.484 188.734 741.344 189.12 744.005 187.635C746.672 186.156 751.995 186.333 751.927 188.401C751.854 190.474 751.24 190.984 754.073 189.219C756.911 187.458 758.172 190.88 760.115 189.219C762.063 187.563 763.292 185.953 765.542 188.786C767.797 191.62 767.094 192.479 764.349 194.484C761.604 196.484 765.677 194.943 767.76 193.87C769.844 192.797 775.677 192.083 779.021 193.562C782.37 195.047 783.323 194.714 785.781 193.693C788.24 192.667 789.5 192.437 793.219 194.917C796.938 197.396 799.839 197.854 801.786 197.802C801.786 197.802 797.656 199.411 793.016 199.719C788.375 200.026 786.052 200.896 785.13 201.609C785.13 201.609 787.922 203.297 788.474 205.365C788.474 205.365 791.516 204.953 793.016 205.568C793.016 205.568 792.234 207.766 794.109 208.938C795.984 210.115 797.281 210.547 795.885 212.156C794.484 213.766 798.031 213.078 796.021 215.349C794.005 217.625 793.458 218.776 793.391 220.615C793.323 222.453 793.839 222.734 792.026 222.911C790.219 223.089 792.333 225.109 791.516 227.51C790.698 229.911 785.646 229.656 785.849 236.089C785.849 236.089 787.25 232.948 790.25 230.193C793.255 227.432 793.359 227.177 793.292 225.516C793.224 223.854 793.083 224.24 794.688 222.984C796.292 221.734 793.974 220.563 795.578 218.771C797.182 216.984 795.781 217.344 797.656 215.526C799.536 213.714 796.021 213.484 797.932 211.62C799.844 209.755 793.323 207.635 795.203 206.432C797.078 205.234 800.318 203.573 789.401 203.75C789.401 203.75 792.026 199.411 801.24 200.354C801.24 200.354 798.818 202.068 798.615 203.75C798.615 203.75 799.672 204.286 800.323 204.443C800.323 204.443 799.964 205.677 798.203 207.177C798.203 207.177 803.089 209.906 803.87 211.516C803.87 211.516 800.901 212.437 800.151 213.74C800.151 213.74 801.448 215.219 801.891 217.135C801.891 217.135 798.583 216.729 798.135 219.203C797.693 221.682 796.703 219.995 796.703 221.453C796.703 222.906 796.807 223.495 795.646 223.724C794.484 223.958 795.443 225.182 795.646 226C795.854 226.818 796.229 228.682 796.057 229.271C796.057 229.271 794.385 229.297 793.599 229.526C793.599 229.526 794.115 233.073 792.13 233.583C790.151 234.094 793.188 234.813 791.073 235.193C788.958 235.578 789.229 235.703 786.635 240.354C786.635 240.354 788.854 239.104 791.141 237.594C793.427 236.089 790.974 236.547 794.76 232.818C798.547 229.089 797.865 228.807 797.557 226.917C797.25 225.031 797.182 223.495 798.547 221.708C799.911 219.922 800.359 217.875 805.203 218.135C805.203 218.135 803.771 214.906 801.995 214.068C801.995 214.068 804.313 212.464 806.771 212.234C806.771 212.234 804.62 209.651 800.219 207.151C800.219 207.151 803.839 204.031 804.693 202.552C804.693 202.552 803.021 202.807 801.688 202.5C801.688 202.5 802.313 201.01 805.578 198.875C805.578 198.875 807.318 200.562 807.25 202.323C807.25 202.323 812.849 199.104 816.021 199.464C816.021 199.464 817.625 203.5 809.844 211.057C809.844 211.057 814.656 211.521 816.703 211.24C816.703 211.24 815.542 214.969 809.708 217.161C803.87 219.359 810.969 221.927 805 221.479C799.026 221.031 800.87 223.089 801.036 226.13C801.208 229.167 801.417 232.286 801.276 233.13C801.276 233.13 796.5 231.568 796.604 236.193C796.703 240.818 794.146 241.786 793.635 242.224C793.635 242.224 792.245 240.984 790.151 240.255C790.146 240.26 787.182 245.885 782.401 249.172Z" fill="#5A3719"/>
<path d="M775.568 191.219C775.568 191.219 777.208 190.953 779.974 192.677C782.734 194.396 785.448 190.833 782.38 189.917C779.307 188.995 782.427 187.922 785.193 190.146C787.958 192.37 789.031 191.255 790.057 190.49C791.083 189.724 792.307 189.302 790.417 188C788.521 186.698 791.698 187.312 793.13 188.229C794.563 189.151 794 190.109 793.797 190.375C793.589 190.646 793.438 193.635 796.25 190.839C799.068 188.042 800.448 185.245 800.396 183.865C800.396 183.865 801.932 184.823 802.141 186.583C802.344 188.344 804.495 185.625 805.208 184.667C805.927 183.708 807.156 181.292 807 179.474C807 179.474 808.896 182.401 811.714 179.474C814.526 176.547 813.297 178.385 816.677 177.5C820.057 176.62 824.307 174.13 826.609 171.333C828.911 168.536 829.068 170.417 832.036 169.724C835.005 169.036 840.995 164.896 841.557 162.635C842.12 160.375 842.016 158.995 841.146 159.76C840.276 160.526 840.635 159.917 839.354 159.109C838.078 158.307 836.182 160.146 836.182 160.146C836.182 160.146 838.078 161.599 836.641 162.214C835.208 162.828 833.828 164.859 831.115 164.089C828.401 163.323 825.583 166.583 825.583 166.583C825.583 166.583 827.938 168.536 824.766 169.76C821.594 170.984 822.104 171.406 820.161 170.068C820.161 170.068 816.781 174.359 814.833 175.24C814.833 175.24 813.917 175.161 813.302 174.359C813.302 174.359 811.099 176.849 809.974 177.349C809.974 177.349 808.589 176.005 807.307 175.583C807.307 175.583 804.646 178.88 802.396 179.917C802.396 179.917 801.729 178.687 800.297 177.849C800.297 177.849 799.589 182.156 794.87 184.703C794.87 184.703 795.177 183.557 792.823 181.984C792.823 181.984 786.984 187.042 784.682 187.542C782.38 188.036 784.526 186.469 784.839 185.818C785.146 185.167 786.578 183.021 783.76 182.135C780.948 181.255 781.406 182.75 780.792 183.021C780.177 183.286 780.125 182.521 778.234 182.792C776.339 183.057 776.646 183.901 775.828 184.208C775.01 184.516 771.729 183.672 771.885 185.854C772.036 188.036 773.573 189.531 770.708 190.797C767.839 192.062 771.781 191.792 775.568 191.219Z" fill="#7B3C20"/>
<path d="M787.396 185.052C787.396 185.052 788.062 182.297 785.656 180.953C785.656 180.953 801.115 178.578 789.443 172.677C789.443 172.677 803.318 169.802 800.042 165.359C796.766 160.917 793.578 161.911 793.099 161.99C792.62 162.062 796.047 159.422 796.969 159.766C797.891 160.109 809.052 164.401 806.182 160.724C803.318 157.047 803.573 157.276 803.115 156.203C803.115 156.203 806.797 156.203 812.38 161.646C812.38 161.646 813.557 160.417 813.401 158.193C813.401 158.193 817.396 159.307 818.625 160.495C818.625 160.495 819.286 159.115 819.031 158.349C819.031 158.349 822.464 160.187 823.641 162.141C823.641 162.141 825.229 160.76 825.484 159.193C825.484 159.193 828.911 160.609 829.781 161.682C829.781 161.682 830.911 160.188 830.5 158.042C830.5 158.042 836.182 159.729 836.948 156.203C836.948 156.203 842.667 157.443 838.953 159.667C834.177 162.526 838.469 158.964 833.573 162.37C829.771 165.016 827.651 168.12 825.823 167.479C824.479 167.01 822.87 170.917 821.026 169C819.182 167.083 819.182 167.964 817.906 169.958C816.625 171.948 814.63 173.979 814.63 173.979C814.63 173.979 813.63 173.406 812.875 172.641C812.875 172.641 811.76 174.479 810.328 175.859C810.328 175.859 809.203 174.365 807.411 173.443C807.411 173.443 804.594 176.703 802.854 177.813C802.854 177.813 801.214 176.203 799.474 175.667C799.474 175.667 799.219 180.073 795.792 182.333C795.792 182.333 795.073 180.88 792.87 179.995C792.875 179.995 791.13 182.781 787.396 185.052Z" fill="#5A3719"/>
<path d="M779.266 178.307C779.266 178.307 777.385 179.75 778.599 181.292C779.807 182.839 779.875 181.026 781.411 180.87C782.948 180.719 801.891 177.464 784.74 172.328C784.74 172.328 785.458 171.677 788.427 171.406C791.396 171.141 802.146 168.229 797.13 164.396C792.115 160.568 787.938 165.698 792.161 161.104C795.542 157.422 792.828 155.625 792.828 155.625C792.828 155.625 782.844 162.292 780.646 163.516C778.443 164.74 775.271 167.078 779.005 168.302C782.745 169.531 785.302 164.245 785.661 165.432C786.021 166.62 778.135 170.984 779.266 173.016C780.391 175.047 780.135 176.734 782.078 176.349C784.026 175.969 789.297 177.349 784.995 177.193C780.698 177.042 779.266 178.307 779.266 178.307Z" fill="#5A3719"/>
<path d="M786.12 168.766C786.12 168.766 784.38 169.99 786.682 169.38C788.984 168.766 793.594 167.771 792.724 166.583C791.854 165.396 788.781 166.818 786.12 168.766Z" fill="black"/>
<path d="M816.531 149C816.531 149 825.339 148.771 828.969 151.224C832.604 153.672 834.344 155.281 835.422 155.63C835.422 155.63 835.266 158.964 829.635 156.583C829.635 156.583 829.943 158.198 829.328 159.766C829.328 159.766 827.229 158.385 824.823 157.776C824.823 157.776 824.412 159.036 823.646 159.766C823.646 159.766 821.135 157.24 818.323 156.469C818.323 156.469 817.76 157.734 817.245 158.198C817.245 158.198 814.229 156.469 811.922 156.51C811.922 156.51 812.385 158.349 811.922 159.078C811.922 159.078 805.526 154.057 799.844 154.708C799.844 154.708 802.604 158.734 804.396 160.724C804.396 160.724 792.88 159.807 794.776 153.599C796.667 147.391 794.62 148.953 802.146 148.995C809.672 149.036 816.531 149 816.531 149Z" fill="#7B3C20"/>
<path d="M762.521 166.146C762.521 166.146 761.187 167.229 762.521 168.151C763.854 169.068 768.406 165.776 769.021 165.318C769.635 164.854 771.276 164.932 769.021 166.62C766.771 168.302 764.464 170.141 763.031 171.984C763.031 171.984 770.661 169.911 775.625 165.625C780.589 161.333 775.396 164.109 783.865 160.026C792.339 155.948 796.766 149.375 792.214 150.068C787.656 150.755 783.557 155.969 780.026 157.958C776.495 159.953 774.5 160.219 775.062 159.073C775.625 157.922 778.234 158.38 783.099 154.474C787.964 150.563 786.885 150.833 786.937 149.453C786.99 148.073 785.094 144.667 792.417 140.833C799.734 137 822.516 123.667 824.458 119.109C824.458 119.109 817.807 119.839 809.052 126.313C800.297 132.786 795.609 135.813 793.193 136.62C790.776 137.422 791.083 136.885 789.495 138.766C787.911 140.641 779.26 148.995 777.672 150.219C776.083 151.448 775.625 152.25 775.49 154.75C775.427 155.891 765.542 163.339 762.521 166.146Z" fill="#5A3719"/>
<path d="M792.62 148.781C792.62 148.781 790.927 149.568 789.292 148.781C787.651 148 788.161 144.474 792.104 142.365C796.047 140.26 803.214 137.115 806.849 136.656C806.849 136.656 806.339 141.219 795.021 145.047C795.021 145.047 795.74 147.422 792.62 148.781Z" fill="#5A3719"/>
<path d="M796.615 145.818C796.615 145.818 796.948 146.937 796.615 147.964C796.615 147.964 817.656 149.995 828.51 137.198C828.51 137.198 813.615 138.578 807.677 142.141C807.677 142.141 811.411 137.464 822.573 133.594C833.729 129.724 838.287 124.937 839.26 122.292C839.26 122.292 825.146 127.234 818.427 127.234C818.427 127.234 817.094 127.198 815.813 127.927C814.536 128.651 805.526 135.203 803.12 136.318C803.12 136.318 808.188 135.896 809.979 134.245C809.979 134.245 806.458 143.719 796.615 145.818Z" fill="#AA5323"/>
<path d="M756.328 157.844C756.328 157.844 753.615 159.76 754.74 160.714C755.87 161.672 757.807 161.865 761.932 158.417C766.057 154.969 776.036 146.385 769.729 146.042C769.729 146.042 761.651 145.542 761.932 150.484C762.214 155.479 756.734 157.526 756.328 157.844ZM737.693 154.927C737.693 154.927 743.021 158.031 741.021 160.599C741.021 160.599 757.354 146.729 752.745 143.74C748.141 140.75 744.505 146.385 745.63 146.958C746.755 147.536 749.161 146.464 748.292 147.536C747.422 148.609 738.719 154.469 737.693 154.927ZM733.448 150.448C733.448 150.448 737.031 151.521 737.182 153.052C737.339 154.583 747.984 145.542 745.167 141.75C743.875 140.01 737.948 139.297 737.693 142.708C737.438 146.12 743.016 142.365 741.073 144.813C738.521 148.031 734.214 149.911 733.448 150.448ZM771.766 142.891C771.766 142.891 769.484 144.547 771.531 145.542C773.583 146.542 774.911 144.969 775.938 144.047C776.958 143.13 782.026 139.411 783.203 137.036C784.38 134.661 786.125 133.932 787.969 132.708C789.807 131.479 802.813 125.005 810.797 117.839C818.781 110.677 815.458 112.516 823.75 107.917C832.042 103.318 837.469 99.1042 839.208 94.125C839.208 94.125 835.37 95.3854 831.99 97.5729C828.615 99.7552 820.984 104.547 819.448 105.198C817.911 105.844 815.766 105.964 814.635 107.151C813.51 108.339 813.615 109.755 809.62 113.052C805.625 116.344 784.995 130.906 782.49 132.974C779.979 135.047 771.766 142.891 771.766 142.891Z" fill="#5A3719"/>
<path d="M755.172 147.714C755.172 147.714 757.422 146.474 761.656 146.76C765.885 147.052 782.609 130.854 787.453 127.589C792.302 124.318 807.453 113.385 809.5 111.391C811.552 109.401 811.891 107.255 813.667 106.078C815.438 104.906 817.078 105.057 821.172 102.708C825.271 100.359 844.927 88.6094 843.766 81.7604C843.766 81.7604 814.484 99.3333 807.729 105.057C800.969 110.781 782.198 123.755 778.854 125.849C775.51 127.943 772.849 131.573 767.25 136.12C761.656 140.667 756.125 144.495 755.172 147.714Z" fill="#AA5323"/>
<path d="M749.021 141.484C749.021 141.484 754.443 140.932 755.167 143.583C755.167 143.583 766.771 135.609 769.432 132.344C772.094 129.073 768.547 130.964 775.167 126.62C781.786 122.276 803.766 106.901 806.906 104.141C810.047 101.385 815.984 97.7552 820.76 94.5365C825.536 91.3177 844.24 82.1771 842.125 74.6667C842.125 74.6667 828.406 83.8594 825.333 85.8542C822.26 87.8437 820.964 86.724 817.823 89.1719C814.687 91.625 807.792 96.5312 806.562 98.0625C805.333 99.5937 794.823 107.667 789.703 111.089C784.583 114.51 773.12 121.156 767.589 125.958C762.057 130.76 751.344 139.646 749.021 141.484Z" fill="#AA5323"/>
<path d="M732.135 139.911C732.135 139.911 734.88 139.953 735.698 141.026C735.698 141.026 740.766 136.578 746.156 140.974C746.156 140.974 765.953 127.589 767.932 124.219C769.911 120.844 773.12 120.797 780.833 115.177C788.547 109.557 793.391 107.208 798.51 103.219C803.63 99.2344 807.932 94.7396 811.615 92.3385C815.302 89.9375 824.583 83.8594 823.016 78.599C823.016 78.599 815.505 82.8906 810.594 88.2552C805.677 93.6146 806.089 89.0208 801.104 93.5156C796.12 98.0104 788.411 104.141 781.995 107.307C775.578 110.474 779.469 110.12 774.828 113.083C770.182 116.042 770.526 115.583 768.818 115.995C767.115 116.401 764.521 117.63 762.813 119.62C761.104 121.615 756.531 124.318 751.552 127.13C746.568 129.938 734.318 137.234 732.135 139.911Z" fill="#AA5323"/>
<path d="M738.104 129.641C738.104 129.641 737.031 127.422 738.922 125.849C740.818 124.276 744.245 120.141 744.813 117.536C745.375 114.927 744.964 115.349 750.443 113.089C755.917 110.828 768.359 105.005 775.37 100.677C782.385 96.3438 793.031 89.375 795.234 87.6875C797.438 86 802.776 82.2448 804.943 80.4844C804.943 80.4844 805.984 83.4323 803.63 85.4635C801.276 87.4948 792.214 93.8542 790.729 94.8542C789.245 95.849 780.901 101.443 778.344 102.859C775.781 104.281 769.432 107.495 767.182 109.375C764.927 111.25 765.219 111.828 755.167 116.729C745.12 121.635 744.656 122.135 744.964 122.516C745.271 122.901 749.776 120.948 751.927 119.682C754.078 118.417 762.318 114.661 764.776 112.708C767.234 110.755 771.38 107.688 773.172 106.693C774.964 105.693 789.807 96.8073 794.057 93.6667C798.307 90.5208 799.484 89.4896 800.406 90.026C801.328 90.5625 802.813 90.599 800.917 92.401C799.021 94.2031 792.984 99.4896 790.677 101.021C788.375 102.552 781.156 106.844 779.161 107.88C777.161 108.917 776.396 110.828 775.271 111.635C774.146 112.438 770.865 114.776 766.875 115.698C762.88 116.615 762.167 119.604 759.552 121.292C756.943 122.974 738.365 132.974 737.802 133.474C737.802 133.474 738.922 132.323 738.104 129.641Z" fill="#AA5323"/>
<path d="M802.396 87.9219C802.396 87.9219 801.37 88.8281 801.932 89.3385C802.677 90.0104 805.26 91.8281 808.484 88.6302C811.714 85.4323 820.375 78.4583 823.182 76.8073C825.995 75.1615 827.323 73.5885 827.224 71.3281C827.224 71.3281 813.911 78.4167 802.396 87.9219ZM820.724 86.6927C820.724 86.6927 822.771 83.2865 827.786 80.0677C832.802 76.849 840.333 72.1615 841.349 71.026C841.349 71.026 843.146 73.0521 839.203 75.5469C835.26 78.0365 827.583 83.1302 826.661 83.8594C825.74 84.5885 824.203 85.6979 820.724 86.6927Z" fill="#AA5323"/>
<path d="M718.703 123.818C718.703 123.818 713.12 126.807 715.12 128.682C717.115 130.563 720.083 129.99 721.312 129.453C722.542 128.917 724.896 128.339 725.255 128.224C725.615 128.109 730.474 126.729 731.703 124.469C732.932 122.208 736.208 119.604 738.823 117.729C741.432 115.849 742.354 113.974 741.995 112.63C741.995 112.63 720.021 123.01 718.703 123.818ZM685.531 149.604C685.531 149.604 689.385 147.313 694.797 148.76C694.797 148.76 694.542 147.443 693.719 146.76C693.719 146.76 700.271 145.047 701.708 142.135C703.141 139.224 703.448 139.833 704.729 138.99C706.005 138.151 714.865 131.021 713.839 129.49C712.818 127.958 712.609 125.964 711.844 125.161C711.844 125.161 710 127.688 701.401 131.865C692.797 136.042 683.224 139.182 676.266 148.568C669.302 157.958 670.021 163.396 678.516 165.771C678.516 165.771 684.505 162.021 699.094 163.323C713.687 164.625 718.651 170.104 719.573 171.099C720.495 172.094 723.464 175.698 720.594 181.786C720.594 181.786 723.516 183.052 723.771 180.255C724.026 177.458 724.182 178.109 724.844 178.531C725.51 178.953 726.328 179.031 726.021 176.885C725.714 174.74 724.693 169.948 723.359 168.302C722.031 166.656 723.516 167.38 724.385 167.729C725.255 168.073 728.328 170.563 726.484 165.964C724.641 161.365 724.182 163.625 724.13 163.859C724.078 164.089 723.719 165.234 719.724 162.25C715.734 159.26 712.099 157.802 709.385 157.036C706.672 156.271 708.568 156.271 710.151 155.698C711.74 155.12 713.891 154.776 714.604 153.016C714.604 153.016 713.021 153.396 710.104 152.365C707.182 151.328 701.349 151.214 696.635 154.74C696.635 154.74 698.12 149.297 693.823 149.604C689.521 149.911 686.5 149.797 681.948 153.396C681.948 153.396 681.687 147.917 685.99 145.083C690.292 142.25 689.724 143.974 692.13 143.245C694.542 142.516 694.745 140.104 693.719 139.333C693.719 139.333 699.349 140.292 708.823 132.438C708.823 132.438 703.734 139.104 697.547 140.448C697.547 140.448 696.568 143.995 690.953 144.776C685.344 145.557 685.479 148.802 685.531 149.604Z" fill="#7B3C20"/>
<path d="M669.365 182.078C669.365 182.078 672.125 165.568 687.589 164.375C701.135 163.328 705.438 165.01 708.135 165.88C710.833 166.75 717.417 168.693 714.859 170.813C712.297 172.932 710.828 172.547 710.828 172.547C710.828 172.547 713.802 169.25 711.104 168.693C708.406 168.13 708.167 169.766 707.792 171.146C707.417 172.521 707.245 174.182 705.917 175.255C705.917 175.255 704.552 173.672 702.604 175.052C700.661 176.432 702.333 176.484 703.115 176.25C703.901 176.021 704.927 175.615 704.719 176.813C704.516 178.016 703.422 180.083 700.219 181.771C697.01 183.453 697.177 183.354 693.354 183.964C689.536 184.578 685.984 186.083 681.104 190.276C676.224 194.464 670.885 193.068 669.807 188.385C668.885 184.37 669.365 182.078 669.365 182.078Z" fill="#5A3719"/>
<path d="M687.063 181.562C687.063 181.562 688.547 178.307 685.885 176.812C685.885 176.812 677.745 178.208 675.339 175.74C675.339 175.74 684.198 175.276 689.672 173.135C695.151 170.984 693.516 169.495 691.62 169.146C689.724 168.802 686.245 169.646 685.885 171.37C685.885 171.37 684.813 169.531 686.193 168.307C687.578 167.078 689.724 166.849 691.672 167.422C693.615 168 695.354 168.844 701.755 165.505C701.755 165.505 705.443 166.349 705.542 168.839C705.646 171.333 705.286 172.365 704.979 172.75C704.672 173.13 704.214 173.859 703.443 173.781C702.677 173.708 701.703 173.516 700.729 175.24C699.76 176.964 699.177 178.458 697.547 179.609C697.547 179.609 699.453 174.245 694.74 172.979C694.74 172.979 690.849 175.276 687.88 175.391C687.88 175.396 691.672 178.917 687.063 181.562Z" fill="black"/>
<path d="M695.562 171.714C695.562 171.714 693.771 169.745 696.125 169.531C698.479 169.323 701.604 171.047 700.99 172.5C700.375 173.958 697.609 173.901 695.562 171.714Z" fill="#5A3719"/>
<path d="M828.609 145.547C828.609 145.547 824.307 146.776 828.302 149.417C832.297 152.063 834.24 154.359 837.156 155.125C840.078 155.896 843.099 156.964 843.047 159.88C842.995 162.792 842.432 163.938 840.844 165.932C839.255 167.922 841.714 168.807 843.813 167.656C845.911 166.505 847.703 165.896 849.089 165.089C850.469 164.281 852.771 164.401 850.672 165.474C848.573 166.547 846.375 167.198 849.089 167.271C851.797 167.349 868.13 167.656 871.557 166.547C874.99 165.432 879.443 165.089 879.854 160.646C879.854 160.646 880.005 158.672 881.286 157.849C882.568 157.026 883.438 155.125 881.568 156.411C879.698 157.693 878.266 158.344 877.906 157.964C877.547 157.578 877.448 157.313 878.802 156.677C880.161 156.047 880.927 156.641 882.182 154.781C883.438 152.927 883.313 153.229 882.646 152.521C881.974 151.813 880.568 151.297 881.26 150.396C881.953 149.495 882.641 146.813 879.646 148.385C876.656 149.958 870.755 154.005 868.026 154.646C865.297 155.281 863.214 156.115 859.531 156.859C855.844 157.604 853.557 158.401 849.63 160.568C845.708 162.74 845.979 159.37 846.661 158.911C846.661 158.911 848.167 161.542 852.156 158.115C856.151 154.693 854.849 157.901 864.615 154.693C874.375 151.484 871.984 150.964 875.807 148.974C879.63 146.979 883.25 146.901 880.589 144.245C877.927 141.589 877.615 141.359 874.172 144.245C870.724 147.135 861.203 151.781 855.505 151.911C855.505 151.911 877.516 142.406 875.26 141.031C873.01 139.651 870.589 138.422 869.052 138.094C867.516 137.76 867.104 137.375 863.557 138.958C860.005 140.542 859.427 140.927 858.401 141.026C857.38 141.13 854.411 141.719 850.214 143.891C846.016 146.057 843.766 146.927 840.964 148.641C840.964 148.641 842.911 144.708 851.578 142.099C860.245 139.495 864.682 137.094 863.729 136.661C862.771 136.224 860.62 135.87 858.984 136.125C857.344 136.38 857.823 135.995 852.531 138.094C847.245 140.188 849.495 139.724 845.229 140.646C840.964 141.562 839.224 142.51 837.109 143.406C837.109 143.406 837.969 142.255 840.844 141.203C842.323 140.661 839.229 140.104 843.328 139.937C843.661 139.922 844.073 140.021 844.479 139.906C849.776 138.385 855.568 136.302 854.682 136.151C853.797 135.995 848.641 135.458 843.422 137.859C838.198 140.26 840.589 139.443 838.745 139.828C836.901 140.214 833.01 142.661 831.714 143.708C830.417 144.755 828.609 145.547 828.609 145.547Z" fill="white"/>
<path d="M699.687 169.339C699.687 169.339 701.734 169.948 702.245 171.385C702.755 172.823 704.036 170.755 703.984 170.104C703.937 169.453 702.682 166.578 700.453 167.917C698.229 169.26 699.344 169.214 699.687 169.339Z" fill="#5A3719"/>
<path d="M693.974 197.729C693.974 197.729 698.344 195.677 702.01 195.932C702.01 195.932 700.578 190.755 703.135 191.641C705.698 192.521 704.979 192.177 705.49 192.135C705.49 192.135 705.646 188.729 704.979 187.385C704.979 187.385 707.589 188 710.25 188.036C710.25 188.036 707.745 183.135 710.505 179.76C710.505 179.76 712.026 182.979 715.438 183.786C715.438 183.786 715.453 182.406 715.438 180.948C715.438 180.948 717.469 180.719 719.057 181.563C720.646 182.406 721.974 172.672 717.266 170.526C717.266 170.526 716.141 172.365 711.734 173.286C707.333 174.208 707.37 175.089 705.557 178.406C703.75 181.719 702.161 181.755 698.479 184.13C694.792 186.505 692.552 191.333 692.339 191.755C692.344 191.755 694.281 194.13 693.974 197.729Z" fill="#7B3C20"/>
<path d="M840.839 141.198C842.443 140.917 839.224 140.099 843.323 139.937C843.656 139.922 844.068 140.021 844.474 139.901C849.771 138.385 855.568 136.302 854.677 136.146C853.792 135.995 848.635 135.458 843.417 137.859C838.193 140.26 840.583 139.443 838.74 139.828C836.896 140.208 833.005 142.661 831.708 143.708C830.412 144.755 828.604 145.547 828.604 145.547C828.604 145.547 824.302 146.771 828.297 149.417C832.292 152.062 834.234 154.359 837.151 155.125C840.073 155.891 843.094 156.964 843.042 159.88C842.99 162.792 842.427 163.937 840.839 165.932C839.255 167.922 841.708 168.807 843.807 167.656C845.906 166.505 847.698 165.896 849.083 165.089C850.464 164.281 852.766 164.401 850.667 165.469C848.568 166.542 846.37 167.198 849.083 167.271C851.797 167.349 868.125 167.656 871.557 166.542C874.984 165.432 879.438 165.089 879.849 160.646C879.849 160.646 880 158.672 881.281 157.849C882.563 157.021 883.432 155.125 881.563 156.411C879.693 157.693 878.26 158.344 877.901 157.964C877.542 157.578 877.443 157.312 878.797 156.677C880.156 156.047 880.922 156.641 882.177 154.781C883.432 152.922 883.307 153.229 882.641 152.521C882.297 152.156 881.76 151.844 881.412 151.505C881.412 151.505 880.427 150.646 879.287 151.375C878.141 152.099 873.125 154.219 871.109 154.464C869.099 154.708 867.016 155.562 863.396 157.323C859.781 159.083 853.776 162.677 852.818 159.344C852.818 159.344 850.198 160.276 849.625 160.568C845.594 162.625 845.948 159.703 846.656 158.906C846.656 158.906 844.542 161.281 844.625 159.125C844.714 156.964 846.078 157.333 848.432 156.646C850.787 155.958 854.505 154.422 852.969 153.146C851.438 151.87 849.813 154.417 848.109 155.193C846.401 155.969 842.99 156.656 842.458 154.182C841.932 151.703 841.948 149.979 837.323 149.714C832.698 149.443 832.87 146.557 834.13 145.318C835.396 144.078 836.505 141.958 840.839 141.198Z" fill="#999999"/>
<path d="M855.536 163.604C855.536 163.604 862.734 160.286 869.359 158.724C875.979 157.167 870.792 158.932 869.667 159.286C868.536 159.646 858.234 163.042 855.807 164.167C853.385 165.292 853.885 164.328 855.536 163.604ZM857.208 165.063C857.208 165.063 865.297 162.38 866.797 163.505C868.302 164.625 867.073 164.063 865.297 164.323C863.521 164.578 858.641 165.396 857.344 165.37C856.047 165.344 857.208 165.063 857.208 165.063ZM870.177 162.25C870.177 162.25 871.714 161.969 871.885 162.531C872.052 163.094 871.203 163.172 870.349 163.068C869.495 162.969 868.745 162.479 870.177 162.25Z" fill="black"/>
<path d="M656.547 232.724C656.547 232.724 656.245 225.625 659.828 222.021C663.411 218.422 680.818 200.307 683.479 195.245C683.479 195.245 685.729 196.812 685.833 199.682C685.833 199.682 688.75 194.656 691.057 192.766C691.057 192.766 693.104 194.854 692.745 199.031C692.745 199.031 696.943 196.813 703.443 196.771C703.443 196.771 701.036 199.609 700.938 201.255C700.938 201.255 709.948 200.26 714.656 201.026C714.656 201.026 702.266 207.958 705.75 208.573C709.229 209.187 712.865 208.536 712.865 208.536C712.865 208.536 708.922 212.557 702.625 213.359C702.625 213.359 710.609 213.245 712.198 215.047C712.198 215.047 704.417 216.234 698.172 220.984C698.172 220.984 697.589 220.719 697.547 218.953C697.547 218.953 697.354 220.526 695.563 222.021C693.771 223.516 689.469 226.698 687.88 228.302C686.292 229.911 683.323 233.094 680.151 232.943C680.151 232.943 680.865 230.49 678.51 229.724C676.156 228.953 673.443 229.49 671.552 231.521C671.552 231.521 663.156 231.641 660.495 232.021C660.495 232.021 662.385 228.995 664.125 229.073C665.87 229.146 672.88 230.104 673.495 225.318C674.109 220.526 668.99 221.792 670.938 218.958C672.88 216.12 672.422 216.234 672.474 215.969C672.474 215.969 670.885 216.849 669.964 219.375C669.042 221.906 668.375 223.859 665.047 226.391C661.719 228.917 660.344 230.448 659.422 232.214C659.422 232.214 657.906 232.422 656.547 232.724Z" fill="white"/>
<path d="M664.62 228.432C664.62 228.432 664.891 227.464 667.349 227.052C669.807 226.646 669.911 225.469 669.604 224.958C669.297 224.448 667.828 224.448 670.219 221.74C670.219 221.74 671.068 221.969 671.651 222.635C672.229 223.297 674.927 229.073 664.62 228.432Z" fill="white"/>
<path d="M658.724 223.417C658.849 228.151 665.052 226.391 665.052 226.391C662.844 228.073 661.49 229.307 660.562 230.469C660.974 228.172 657.068 227.594 657.068 227.594C657.391 226.188 657.901 224.703 658.724 223.417ZM681.521 198.13C682.422 196.958 683.099 195.969 683.479 195.245C683.479 195.245 685.734 196.813 685.833 199.688C685.833 199.688 688.755 194.661 691.057 192.766C691.057 192.766 693.104 194.859 692.745 199.031C692.745 199.031 696.943 196.813 703.443 196.771C703.443 196.771 701.036 199.609 700.937 201.255C700.937 201.255 709.948 200.26 714.656 201.026C714.656 201.026 702.266 207.958 705.75 208.573C709.229 209.187 712.865 208.536 712.865 208.536C712.865 208.536 708.922 212.557 702.625 213.365C702.625 213.365 710.609 213.25 712.198 215.047C712.198 215.047 709.922 215.396 706.849 216.464C706.849 216.464 704.552 214.307 697.896 214.615C697.896 214.615 703.073 211.719 707.182 210.781C707.182 210.781 705.37 208.406 702.536 210.578C702.536 210.578 696.906 206.698 701.547 203.401C701.547 203.401 698.271 202.714 696.125 204.245C696.125 204.245 696.224 201.589 698.615 200.385C698.615 200.385 692.302 199.365 690.729 204.016C690.729 204.016 689.536 202.099 690.083 199.927C690.083 199.927 686.26 202.125 684.521 204.615C684.521 204.615 683.943 199.896 681.521 198.13ZM669.286 228.161C668.151 228.438 666.635 228.557 664.625 228.432C664.625 228.432 664.797 227.823 666.099 227.365C666.099 227.365 666.469 228.141 669.286 228.161Z" fill="#999999"/>
<path d="M680.766 210.26C680.766 210.26 683.635 212.521 684.656 213.901C684.656 213.901 687.266 212.063 688.24 210.568C688.24 210.568 690.286 211.906 691.005 213.901C691.005 213.901 692.438 212.901 692.745 211.526C692.745 211.526 696.359 212.292 697.547 213.479C697.547 213.479 698.099 209.99 697.547 207.807C697.547 207.807 700.068 208 701.599 208.651C701.599 208.651 700.172 206.354 707.464 203.401C707.464 203.401 701.953 204.583 699.859 207.005C699.859 207.005 697.505 207.12 696.479 206.391C696.479 206.391 696.635 209.917 696.531 211.599C696.531 211.599 695.109 211.026 692.344 210.375C692.344 210.375 691.672 211.526 691.208 211.792C691.208 211.792 689.469 210.411 688.703 208.651C688.703 208.651 686.036 211.068 685.016 212.099C685.016 212.099 682.505 210.339 680.766 210.26Z" fill="black"/>
<path d="M664.276 246.125C664.276 246.125 665.406 246.661 668.068 244.516C670.729 242.37 678.255 237.583 678.969 233.75C679.688 229.917 676.563 229.687 674.104 230.802C671.651 231.911 672.672 234.057 672.776 234.745C672.88 235.437 672.927 238.12 668.938 241.833C664.943 245.552 664.276 246.125 664.276 246.125Z" fill="#FFC221"/>
<path d="M663.411 247.349C663.411 247.349 657.37 244.823 662.797 242.099C668.224 239.38 670.63 238.651 671.245 236.391C671.859 234.13 671.5 234.516 669.505 235.474C667.505 236.432 659.828 239.88 658.651 236.661C658.651 236.661 661.828 237.885 665.766 235.969C669.708 234.057 672.932 233.479 670.427 232.677C667.917 231.87 658.859 232.865 657.37 233.286C655.885 233.708 656.245 233.635 655.99 235.125C655.734 236.62 654.047 239.76 653.432 240.682C652.818 241.604 651.333 245.432 654.099 247.12C656.859 248.807 661.24 248.688 663.411 247.349Z" fill="#FFC221"/>
<path d="M661.057 234.167C661.057 234.167 659.677 234.359 659.932 234.896C660.188 235.432 660.547 235.359 661.057 235.396C661.568 235.432 662.339 235.125 662.438 234.781C662.542 234.438 661.573 234.052 661.057 234.167Z" fill="black"/>
<path d="M663.052 246.01C663.052 246.01 660.187 244.63 663.411 242.865C666.641 241.104 670.12 239.417 670.578 238.693C670.578 238.688 669.042 240.875 663.052 246.01Z" fill="white"/>
</g>
</g>
</g>
</g>
<defs>
<clipPath id="clip0_763_1395">
<rect width="900" height="450" fill="white"/>
</clipPath>
</defs>
</svg>
