<svg width="900" height="450" viewBox="0 0 900 450" fill="none" xmlns="http://www.w3.org/2000/svg">
<g clip-path="url(#clip0_763_1594)">
<path d="M900 0H0V450H900V0Z" fill="#1E1E1E"/>
<mask id="mask0_763_1594" style="mask-type:luminance" maskUnits="userSpaceOnUse" x="0" y="0" width="900" height="450">
<path d="M900 0H0V450H900V0Z" fill="white"/>
</mask>
<g mask="url(#mask0_763_1594)">
<path d="M900 0H0V450H900V0Z" fill="white"/>
<mask id="mask1_763_1594" style="mask-type:luminance" maskUnits="userSpaceOnUse" x="0" y="0" width="900" height="450">
<path d="M0 0H900V450H0V0Z" fill="white"/>
</mask>
<g mask="url(#mask1_763_1594)">
<path d="M0 0H900V450H0V0Z" fill="white"/>
<path d="M0 0H900V450H0V0Z" fill="white"/>
<path d="M0 0H900V450H0V0Z" fill="#012169"/>
</g>
<path d="M225.333 269.599L238.328 310.01L278.026 294.979L254.536 330.333L291.042 352L248.755 355.677L254.578 397.724L225.333 366.958L196.089 397.724L201.911 355.677L159.625 352L196.13 330.333L172.635 294.979L212.333 310.01L225.333 269.599Z" fill="white"/>
<path d="M674.667 342.349L680.854 361.594L699.76 354.432L688.573 371.271L705.958 381.589L685.818 383.339L688.594 403.365L674.667 388.708L660.74 403.365L663.516 383.339L643.375 381.589L660.76 371.271L649.573 354.432L668.479 361.594L674.667 342.349Z" fill="white"/>
<path d="M562.333 164.49L568.521 183.734L587.427 176.573L576.24 193.411L593.625 203.724L573.484 205.479L576.26 225.5L562.333 210.849L548.406 225.5L551.182 205.479L531.042 203.724L548.427 193.411L537.24 176.573L556.146 183.734L562.333 164.49Z" fill="white"/>
<path d="M674.667 42.7917L680.854 62.0365L699.76 54.8802L688.573 71.7135L705.958 82.0312L685.818 83.7812L688.594 103.807L674.667 89.151L660.74 103.807L663.516 83.7812L643.375 82.0312L660.76 71.7135L649.573 54.8802L668.479 62.0365L674.667 42.7917Z" fill="white"/>
<path d="M774.521 134.531L780.708 153.776L799.615 146.615L788.427 163.453L805.807 173.771L785.672 175.521L788.443 195.547L774.521 180.891L760.594 195.547L763.365 175.521L743.229 173.771L760.615 163.453L749.427 146.615L768.328 153.776L774.521 134.531Z" fill="white"/>
<path d="M719.599 224.667L724.49 236.656L737.406 237.604L727.516 245.958L730.604 258.536L719.599 251.708L708.594 258.536L711.688 245.958L701.797 237.604L714.708 236.656L719.599 224.667Z" fill="white"/>
<mask id="mask2_763_1594" style="mask-type:luminance" maskUnits="userSpaceOnUse" x="0" y="0" width="450" height="226">
<path d="M0 0H450V225.333H0V0Z" fill="white"/>
</mask>
<g mask="url(#mask2_763_1594)">
<path d="M449.333 149.229C440.839 149.229 269.599 149.229 261.734 149.229C261.734 157.021 261.734 214.734 261.734 224.667H187.594C187.594 214.38 187.594 159.443 187.594 149.229C185.141 149.229 3.33333 149.229 0 149.229V75.4375H187.594C187.594 67.6458 187.594 9.96875 187.594 0H261.734C261.734 10.2865 261.734 65.2917 261.734 75.4375C270.057 75.4375 439.292 75.4375 449.333 75.4375V149.229Z" fill="white"/>
<path d="M449.333 90.1458V134.484H246.922V224.667H202.411V134.484H0V90.1458H202.411V0H246.922V90.1458H449.333Z" fill="#E4002B"/>
</g>
<path d="M187.589 149.229V155.865L50.0156 224.667H32.5L183.411 149.229H187.589Z" fill="white"/>
<path d="M416.824 -3.37219e-06L265.944 75.4375H261.73V68.8021L399.303 -3.37219e-06H416.824Z" fill="white"/>
<path d="M449.33 199.635V208.411L330.96 149.229H348.439L449.33 199.635Z" fill="white"/>
<mask id="mask3_763_1594" style="mask-type:luminance" maskUnits="userSpaceOnUse" x="0" y="16" width="120" height="60">
<path d="M0 16H119.333V76H0V16Z" fill="white"/>
</mask>
<g mask="url(#mask3_763_1594)">
<path d="M118.333 75.4375H100.854L0 25.0312V16.2552L118.333 75.4375Z" fill="white"/>
</g>
<path d="M449.33 208.411V224.667L298.45 149.229H330.96L449.33 208.411Z" fill="#E4002B"/>
<path d="M449.325 -3.37219e-06L298.445 75.4375H265.94L416.82 -3.37219e-06H449.325Z" fill="#E4002B"/>
<path d="M449.33 -3.37219e-06V25.0312L348.476 75.4375H298.45L449.33 -3.37219e-06Z" fill="white"/>
<mask id="mask4_763_1594" style="mask-type:luminance" maskUnits="userSpaceOnUse" x="0" y="148" width="185" height="78">
<path d="M0 148H184.667V225.333H0V148Z" fill="white"/>
</mask>
<g mask="url(#mask4_763_1594)">
<path d="M183.417 149.229L32.5052 224.667H0L150.875 149.229H183.417Z" fill="#E4002B"/>
</g>
<mask id="mask5_763_1594" style="mask-type:luminance" maskUnits="userSpaceOnUse" x="0" y="148" width="152" height="78">
<path d="M0 148H151.333V225.333H0V148Z" fill="white"/>
</mask>
<g mask="url(#mask5_763_1594)">
<path d="M150.875 149.229L0 224.667V199.635L100.854 149.229H150.875Z" fill="white"/>
</g>
<mask id="mask6_763_1594" style="mask-type:luminance" maskUnits="userSpaceOnUse" x="0" y="0" width="189" height="76">
<path d="M0 0H188.667V76H0V0Z" fill="white"/>
</mask>
<g mask="url(#mask6_763_1594)">
<path d="M187.594 68.8021V75.4375H150.875L0 0H50.0208L187.594 68.8021Z" fill="white"/>
</g>
<path d="M449.329 224.667H399.303L261.73 155.896V149.229H298.449L449.329 224.667Z" fill="white"/>
<mask id="mask7_763_1594" style="mask-type:luminance" maskUnits="userSpaceOnUse" x="0" y="0" width="152" height="76">
<path d="M0 0H151.333V76H0V0Z" fill="white"/>
</mask>
<g mask="url(#mask7_763_1594)">
<path d="M150.875 75.4375H118.333L0 16.2552V0L150.875 75.4375Z" fill="#E4002B"/>
</g>
</g>
</g>
<defs>
<clipPath id="clip0_763_1594">
<rect width="900" height="450" fill="white"/>
</clipPath>
</defs>
</svg>
