<svg width="900" height="450" viewBox="0 0 900 450" fill="none" xmlns="http://www.w3.org/2000/svg">
<rect width="900" height="450" fill="#1E1E1E"/>
<g clip-path="url(#clip0_0_1)">
<rect width="900" height="450" fill="white"/>
<mask id="mask0_0_1" style="mask-type:luminance" maskUnits="userSpaceOnUse" x="0" y="0" width="900" height="450">
<path d="M0 -3.37219e-06H900V450H0V-3.37219e-06Z" fill="white"/>
</mask>
<g mask="url(#mask0_0_1)">
<path d="M0 -3.37219e-06H900V450H0V-3.37219e-06Z" fill="white"/>
<path d="M0 -3.37219e-06H900V450H0V-3.37219e-06Z" fill="white"/>
<path d="M0 -3.37219e-06H900V450H0V-3.37219e-06Z" fill="#1E1E1E"/>
<path d="M0 -3.37219e-06H900V450H0V-3.37219e-06Z" fill="#418FDE"/>
</g>
<mask id="mask1_0_1" style="mask-type:luminance" maskUnits="userSpaceOnUse" x="0" y="298" width="900" height="77">
<path d="M0 298.667H900V374.667H0V298.667Z" fill="white"/>
</mask>
<g mask="url(#mask1_0_1)">
<path d="M0 299.557H900V324.521H0V349.484H900V374.443H0V299.557Z" fill="#FFD100"/>
</g>
<path d="M133.344 82.5052L117.745 31.9531L102.141 82.5052L51.5885 98.1042L102.141 113.708L117.745 164.255L133.344 113.708L183.896 98.1042L133.344 82.5052Z" fill="#EF3340"/>
<mask id="mask2_0_1" style="mask-type:luminance" maskUnits="userSpaceOnUse" x="0" y="0" width="270" height="250">
<path d="M0.666653 -3.37219e-06H269.333V249.333H0.666653V-3.37219e-06Z" fill="white"/>
</mask>
<g mask="url(#mask2_0_1)">
<path d="M133.344 82.5052L117.745 31.9531L102.141 82.5052L51.5885 98.1041L102.141 113.708L117.745 164.255L133.344 113.708L183.896 98.1041L133.344 82.5052Z" stroke="white" stroke-width="5.99112" stroke-miterlimit="10"/>
</g>
</g>
<defs>
<clipPath id="clip0_0_1">
<rect width="900" height="450" fill="white"/>
</clipPath>
</defs>
</svg>
