<svg width="900" height="450" viewBox="0 0 900 450" fill="none" xmlns="http://www.w3.org/2000/svg">
<rect width="900" height="450" fill="#1E1E1E"/>
<g clip-path="url(#clip0_0_1)">
<rect width="900" height="450" fill="white"/>
<mask id="mask0_0_1" style="mask-type:luminance" maskUnits="userSpaceOnUse" x="0" y="0" width="900" height="450">
<path d="M0 -3.37219e-06H900V450H0V-3.37219e-06Z" fill="white"/>
</mask>
<g mask="url(#mask0_0_1)">
<path d="M0 -3.37219e-06H900V450H0V-3.37219e-06Z" fill="white"/>
<path d="M0 -3.37219e-06H900V450H0V-3.37219e-06Z" fill="white"/>
<path d="M0 -3.37219e-06H900V450H0V-3.37219e-06Z" fill="#3F9C35"/>
</g>
<mask id="mask1_0_1" style="mask-type:luminance" maskUnits="userSpaceOnUse" x="0" y="0" width="900" height="300">
<path d="M0 -3.37219e-06H900V300H0V-3.37219e-06Z" fill="white"/>
</mask>
<g mask="url(#mask1_0_1)">
<path d="M0 -3.37219e-06H900V299.557H0V-3.37219e-06Z" fill="#ED2939"/>
</g>
<mask id="mask2_0_1" style="mask-type:luminance" maskUnits="userSpaceOnUse" x="0" y="0" width="900" height="150">
<path d="M0 -3.37219e-06H900V150H0V-3.37219e-06Z" fill="white"/>
</mask>
<g mask="url(#mask2_0_1)">
<path d="M0 -3.37219e-06H900V149.113H0V-3.37219e-06Z" fill="#00B9E4"/>
</g>
<path d="M494.802 225.401C494.802 227.609 494.693 229.813 494.479 232.01C494.26 234.203 493.938 236.385 493.505 238.552C493.078 240.714 492.542 242.854 491.901 244.969C491.26 247.078 490.516 249.156 489.672 251.193C488.828 253.234 487.885 255.229 486.844 257.172C485.802 259.12 484.672 261.01 483.443 262.849C482.219 264.682 480.906 266.453 479.505 268.161C478.104 269.865 476.62 271.5 475.063 273.063C473.5 274.62 471.865 276.104 470.161 277.5C468.453 278.901 466.682 280.219 464.849 281.443C463.01 282.667 461.12 283.802 459.177 284.844C457.229 285.885 455.234 286.828 453.193 287.672C451.156 288.516 449.078 289.26 446.969 289.901C444.854 290.542 442.719 291.078 440.552 291.505C438.385 291.938 436.203 292.26 434.01 292.479C431.813 292.693 429.609 292.802 427.401 292.802C425.193 292.802 422.995 292.693 420.797 292.479C418.599 292.26 416.417 291.938 414.255 291.505C412.089 291.078 409.948 290.542 407.839 289.901C405.724 289.26 403.651 288.516 401.609 287.672C399.568 286.828 397.578 285.885 395.63 284.844C393.682 283.802 391.792 282.667 389.958 281.443C388.12 280.219 386.349 278.901 384.646 277.5C382.938 276.104 381.302 274.62 379.745 273.063C378.182 271.5 376.703 269.865 375.302 268.161C373.901 266.453 372.589 264.682 371.359 262.849C370.135 261.01 369 259.12 367.958 257.172C366.922 255.229 365.979 253.234 365.13 251.193C364.286 249.156 363.547 247.078 362.906 244.969C362.266 242.854 361.729 240.714 361.297 238.552C360.865 236.385 360.542 234.203 360.328 232.01C360.109 229.813 360 227.609 360 225.401C360 223.193 360.109 220.99 360.328 218.797C360.542 216.599 360.865 214.417 361.297 212.25C361.729 210.089 362.266 207.948 362.906 205.839C363.547 203.724 364.286 201.646 365.13 199.609C365.979 197.568 366.922 195.578 367.958 193.63C369 191.682 370.135 189.792 371.359 187.958C372.589 186.12 373.901 184.349 375.302 182.646C376.703 180.938 378.182 179.302 379.745 177.745C381.302 176.182 382.938 174.703 384.646 173.302C386.349 171.901 388.12 170.589 389.958 169.359C391.792 168.135 393.682 167 395.63 165.958C397.578 164.922 399.568 163.979 401.609 163.13C403.651 162.286 405.724 161.547 407.839 160.901C409.948 160.26 412.089 159.729 414.255 159.297C416.417 158.865 418.599 158.542 420.797 158.328C422.995 158.109 425.193 158 427.401 158C429.609 158 431.813 158.109 434.01 158.328C436.203 158.542 438.385 158.865 440.552 159.297C442.719 159.729 444.854 160.26 446.969 160.901C449.078 161.547 451.156 162.286 453.193 163.13C455.234 163.979 457.229 164.922 459.177 165.958C461.12 167 463.01 168.135 464.849 169.359C466.682 170.589 468.453 171.901 470.161 173.302C471.865 174.703 473.5 176.182 475.063 177.745C476.62 179.302 478.104 180.938 479.505 182.646C480.906 184.349 482.219 186.12 483.443 187.958C484.672 189.792 485.802 191.682 486.844 193.63C487.885 195.578 488.828 197.568 489.672 199.609C490.516 201.646 491.26 203.724 491.901 205.839C492.542 207.948 493.078 210.089 493.505 212.25C493.938 214.417 494.26 216.599 494.479 218.797C494.693 220.99 494.802 223.193 494.802 225.401Z" fill="white"/>
<path d="M498.547 225.401C498.547 227.24 498.458 229.078 498.276 230.906C498.094 232.74 497.828 234.557 497.469 236.359C497.109 238.161 496.661 239.948 496.13 241.708C495.594 243.469 494.974 245.198 494.271 246.896C493.568 248.594 492.781 250.255 491.917 251.88C491.047 253.5 490.104 255.078 489.083 256.604C488.057 258.135 486.964 259.609 485.797 261.031C484.63 262.453 483.396 263.818 482.094 265.12C480.797 266.417 479.432 267.651 478.01 268.818C476.589 269.984 475.115 271.078 473.583 272.104C472.057 273.125 470.479 274.068 468.859 274.938C467.234 275.802 465.573 276.589 463.875 277.292C462.177 277.995 460.443 278.615 458.682 279.151C456.922 279.682 455.141 280.13 453.339 280.49C451.531 280.849 449.719 281.12 447.885 281.297C446.057 281.479 444.219 281.568 442.38 281.568C440.542 281.568 438.703 281.479 436.875 281.297C435.042 281.12 433.229 280.849 431.422 280.49C429.62 280.13 427.839 279.682 426.078 279.151C424.318 278.615 422.583 277.995 420.885 277.292C419.188 276.589 417.526 275.802 415.901 274.938C414.281 274.068 412.703 273.125 411.177 272.104C409.646 271.078 408.172 269.984 406.75 268.818C405.328 267.651 403.964 266.417 402.667 265.12C401.365 263.818 400.13 262.453 398.964 261.031C397.797 259.609 396.703 258.135 395.677 256.604C394.656 255.078 393.714 253.5 392.844 251.88C391.979 250.255 391.193 248.594 390.49 246.896C389.786 245.198 389.167 243.469 388.63 241.708C388.099 239.948 387.651 238.161 387.292 236.359C386.932 234.557 386.667 232.74 386.484 230.906C386.302 229.078 386.214 227.24 386.214 225.401C386.214 223.563 386.302 221.729 386.484 219.896C386.667 218.068 386.932 216.25 387.292 214.443C387.651 212.641 388.099 210.859 388.63 209.099C389.167 207.339 389.786 205.609 390.49 203.906C391.193 202.208 391.979 200.547 392.844 198.927C393.714 197.302 394.656 195.724 395.677 194.198C396.703 192.667 397.797 191.193 398.964 189.771C400.13 188.349 401.365 186.984 402.667 185.688C403.964 184.385 405.328 183.151 406.75 181.984C408.172 180.818 409.646 179.724 411.177 178.698C412.703 177.677 414.281 176.734 415.901 175.865C417.526 175 419.188 174.214 420.885 173.51C422.583 172.807 424.318 172.188 426.078 171.651C427.839 171.12 429.62 170.672 431.422 170.313C433.229 169.953 435.042 169.688 436.875 169.505C438.703 169.323 440.542 169.234 442.38 169.234C444.219 169.234 446.057 169.323 447.885 169.505C449.719 169.688 451.531 169.953 453.339 170.313C455.141 170.672 456.922 171.12 458.682 171.651C460.443 172.188 462.177 172.807 463.875 173.51C465.573 174.214 467.234 175 468.859 175.865C470.479 176.734 472.057 177.677 473.583 178.703C475.115 179.724 476.589 180.818 478.01 181.984C479.432 183.151 480.797 184.385 482.094 185.688C483.396 186.984 484.63 188.349 485.797 189.771C486.964 191.193 488.057 192.667 489.083 194.198C490.104 195.724 491.047 197.302 491.917 198.927C492.781 200.547 493.568 202.208 494.271 203.906C494.974 205.609 495.594 207.339 496.13 209.099C496.661 210.859 497.109 212.641 497.469 214.443C497.828 216.25 498.094 218.068 498.276 219.896C498.458 221.729 498.547 223.563 498.547 225.401Z" fill="#ED2939"/>
<path d="M502.292 187.958L509.458 208.104L528.771 198.927L519.589 218.234L539.734 225.401L519.589 232.568L528.771 251.88L509.458 242.698L502.292 262.844L495.125 242.698L475.813 251.88L484.995 232.568L464.849 225.401L484.995 218.234L475.813 198.927L495.125 208.104L502.292 187.958Z" fill="white"/>
</g>
<defs>
<clipPath id="clip0_0_1">
<rect width="900" height="450" fill="white"/>
</clipPath>
</defs>
</svg>
