<svg width="900" height="450" viewBox="0 0 900 450" fill="none" xmlns="http://www.w3.org/2000/svg">
<g clip-path="url(#clip0_763_1942)">
<path d="M900 0H0V450H900V0Z" fill="#1E1E1E"/>
<path d="M900 0H0V450H900V0Z" fill="white"/>
<mask id="mask0_763_1942" style="mask-type:luminance" maskUnits="userSpaceOnUse" x="0" y="0" width="900" height="450">
<path d="M900 0H0V450H900V0Z" fill="white"/>
</mask>
<g mask="url(#mask0_763_1942)">
<mask id="mask1_763_1942" style="mask-type:luminance" maskUnits="userSpaceOnUse" x="0" y="0" width="900" height="450">
<path d="M0 0H900V450H0V0Z" fill="white"/>
</mask>
<g mask="url(#mask1_763_1942)">
<path d="M0 0H900V450H0V0Z" fill="white"/>
<path d="M0 0H900V450H0V0Z" fill="white"/>
<path d="M0 0H900V450H0V0Z" fill="#1E1E1E"/>
<path d="M0 0H1077.84V450H0V0Z" fill="#006A4E"/>
</g>
<path d="M450.078 374.552C532.958 374.552 600.151 307.495 600.151 224.776C600.151 142.057 532.958 75 450.078 75C367.193 75 300 142.057 300 224.776C300 307.495 367.193 374.552 450.078 374.552Z" fill="#F42A41"/>
</g>
</g>
<defs>
<clipPath id="clip0_763_1942">
<rect width="900" height="450" fill="white"/>
</clipPath>
</defs>
</svg>
