<svg width="900" height="450" viewBox="0 0 900 450" fill="none" xmlns="http://www.w3.org/2000/svg">
<g clip-path="url(#clip0_763_2102)">
<path d="M900 0H0V450H900V0Z" fill="#1E1E1E"/>
<mask id="mask0_763_2102" style="mask-type:luminance" maskUnits="userSpaceOnUse" x="0" y="0" width="900" height="450">
<path d="M900 0H0V450H900V0Z" fill="white"/>
</mask>
<g mask="url(#mask0_763_2102)">
<path d="M900 0H0V450H900V0Z" fill="white"/>
<mask id="mask1_763_2102" style="mask-type:luminance" maskUnits="userSpaceOnUse" x="0" y="0" width="900" height="450">
<path d="M0 0H900V450H0V0Z" fill="white"/>
</mask>
<g mask="url(#mask1_763_2102)">
<path d="M0 0H900V450H0V0Z" fill="white"/>
<path d="M0 0H900V450H0V0Z" fill="white"/>
<path d="M0 0H900V450H0V0Z" fill="#1E1E1E"/>
<path d="M0 0H900V450H0V0Z" fill="white"/>
</g>
<mask id="mask2_763_2102" style="mask-type:luminance" maskUnits="userSpaceOnUse" x="0" y="150" width="900" height="300">
<path d="M0 150H900V450H0V150Z" fill="white"/>
</mask>
<g mask="url(#mask2_763_2102)">
<path d="M0 150.443H900V450H0V150.443Z" fill="#00966E"/>
</g>
<mask id="mask3_763_2102" style="mask-type:luminance" maskUnits="userSpaceOnUse" x="0" y="300" width="900" height="150">
<path d="M0 300H900V450H0V300Z" fill="white"/>
</mask>
<g mask="url(#mask3_763_2102)">
<path d="M0 300.887H900V450H0V300.887Z" fill="#D62612"/>
</g>
</g>
</g>
<defs>
<clipPath id="clip0_763_2102">
<rect width="900" height="450" fill="white"/>
</clipPath>
</defs>
</svg>
