<svg width="900" height="450" viewBox="0 0 900 450" fill="none" xmlns="http://www.w3.org/2000/svg">
<g clip-path="url(#clip0_763_2236)">
<path d="M900 0H0V450H900V0Z" fill="#1E1E1E"/>
<mask id="mask0_763_2236" style="mask-type:luminance" maskUnits="userSpaceOnUse" x="0" y="0" width="900" height="450">
<path d="M900 0H0V450H900V0Z" fill="white"/>
</mask>
<g mask="url(#mask0_763_2236)">
<mask id="mask1_763_2236" style="mask-type:luminance" maskUnits="userSpaceOnUse" x="0" y="0" width="900" height="450">
<path d="M0 0H900V450H0V0Z" fill="white"/>
</mask>
<g mask="url(#mask1_763_2236)">
<path d="M0 0H900V450H0V0Z" fill="white"/>
<path d="M0 0H900V450H0V0Z" fill="white"/>
<path d="M0 0H900V450H0V0Z" fill="#1E1E1E"/>
<path d="M0 0H900L0 450H900L0 0Z" fill="#CE1126"/>
<path d="M0 0V450L900 0V450L0 0Z" fill="#1EB53A"/>
<path d="M0 0L900 450M900 0L0 450" stroke="white" stroke-width="39.9408"/>
</g>
<path d="M449.813 352.625C520.401 352.625 577.625 295.401 577.625 224.813C577.625 154.224 520.401 97 449.813 97C379.224 97 322 154.224 322 224.813C322 295.401 379.224 352.625 449.813 352.625Z" fill="white"/>
<path d="M449.812 128.578L434.776 154.625L460.818 169.661" fill="#1EB53A"/>
<path d="M449.812 128.578L464.849 154.625L438.807 169.661" fill="#1EB53A"/>
<path d="M475.859 173.688L460.818 147.646L434.776 162.682" fill="#1EB53A"/>
<path d="M475.859 173.688H445.781V143.615" fill="#1EB53A"/>
<path d="M423.766 173.688H453.844V143.615" fill="#1EB53A"/>
<path d="M423.766 173.688L438.807 147.646L464.849 162.682" fill="#1EB53A"/>
<path d="M449.812 188.724L464.849 162.682L438.807 147.646" fill="#1EB53A"/>
<path d="M449.812 188.724L434.776 162.682L460.818 147.646" fill="#1EB53A"/>
<path d="M423.766 143.615L438.807 169.661L464.849 154.625" fill="#1EB53A"/>
<path d="M423.766 143.615H453.844V173.688" fill="#1EB53A"/>
<path d="M475.859 143.615H445.781V173.688" fill="#1EB53A"/>
<path d="M475.859 143.615L460.818 169.661L434.776 154.625" fill="#1EB53A"/>
<path d="M449.813 133.995L437.484 155.349L458.839 167.677" fill="#CE1126"/>
<path d="M449.813 133.995L462.141 155.349L440.786 167.677" fill="#CE1126"/>
<path d="M471.167 170.979L458.839 149.625L437.484 161.958" fill="#CE1126"/>
<path d="M471.167 170.979H446.51V146.323" fill="#CE1126"/>
<path d="M428.458 170.979H453.115V146.323" fill="#CE1126"/>
<path d="M428.458 170.979L440.786 149.625L462.141 161.958" fill="#CE1126"/>
<path d="M449.813 183.313L462.141 161.958L440.786 149.625" fill="#CE1126"/>
<path d="M449.813 183.313L437.484 161.958L458.839 149.625" fill="#CE1126"/>
<path d="M428.458 146.323L440.786 167.677L462.141 155.349" fill="#CE1126"/>
<path d="M428.458 146.323H453.115V170.979" fill="#CE1126"/>
<path d="M471.167 146.323H446.51V170.979" fill="#CE1126"/>
<path d="M471.167 146.323L458.839 167.677L437.484 155.349" fill="#CE1126"/>
<path d="M533.151 272.927L518.12 246.885L492.073 261.922" fill="#1EB53A"/>
<path d="M533.151 272.927H503.078V242.859" fill="#1EB53A"/>
<path d="M481.068 272.927H511.141V242.859" fill="#1EB53A"/>
<path d="M481.068 272.927L496.104 246.885L522.146 261.922" fill="#1EB53A"/>
<path d="M507.109 227.823L492.073 253.865L518.12 268.901" fill="#1EB53A"/>
<path d="M507.109 227.823L522.146 253.865L496.104 268.901" fill="#1EB53A"/>
<path d="M481.068 242.859L496.104 268.901L522.146 253.865" fill="#1EB53A"/>
<path d="M481.068 242.859H511.141V272.927" fill="#1EB53A"/>
<path d="M533.151 242.859H503.078V272.927" fill="#1EB53A"/>
<path d="M533.151 242.859L518.12 268.901L492.073 253.865" fill="#1EB53A"/>
<path d="M507.109 287.969L522.146 261.922L496.104 246.885" fill="#1EB53A"/>
<path d="M507.109 287.969L492.073 261.922L518.12 246.885" fill="#1EB53A"/>
<path d="M528.464 270.224L516.135 248.87L494.781 261.198" fill="#CE1126"/>
<path d="M528.464 270.224H503.807V245.562" fill="#CE1126"/>
<path d="M485.755 270.224H510.411V245.562" fill="#CE1126"/>
<path d="M485.755 270.224L498.083 248.87L519.438 261.198" fill="#CE1126"/>
<path d="M507.109 233.234L494.781 254.589L516.135 266.922" fill="#CE1126"/>
<path d="M507.109 233.234L519.438 254.589L498.083 266.922" fill="#CE1126"/>
<path d="M485.755 245.562L498.083 266.922L519.438 254.589" fill="#CE1126"/>
<path d="M485.755 245.562H510.411V270.224" fill="#CE1126"/>
<path d="M528.464 245.562H503.807V270.224" fill="#CE1126"/>
<path d="M528.464 245.562L516.135 266.922L494.781 254.589" fill="#CE1126"/>
<path d="M507.109 282.552L519.438 261.198L498.083 248.87" fill="#CE1126"/>
<path d="M507.109 282.552L494.781 261.198L516.135 248.87" fill="#CE1126"/>
<path d="M366.474 272.927H396.547V242.859" fill="#1EB53A"/>
<path d="M366.474 272.927L381.505 246.885L407.552 261.922" fill="#1EB53A"/>
<path d="M392.516 227.823L377.479 253.865L403.521 268.901" fill="#1EB53A"/>
<path d="M392.516 227.823L407.552 253.865L381.505 268.901" fill="#1EB53A"/>
<path d="M418.557 272.927L403.521 246.885L377.479 261.922" fill="#1EB53A"/>
<path d="M418.557 272.927H388.484V242.859" fill="#1EB53A"/>
<path d="M418.557 242.859H388.484V272.927" fill="#1EB53A"/>
<path d="M418.557 242.859L403.521 268.901L377.479 253.865" fill="#1EB53A"/>
<path d="M392.516 287.969L407.552 261.922L381.505 246.885" fill="#1EB53A"/>
<path d="M392.516 287.969L377.479 261.922L403.521 246.885" fill="#1EB53A"/>
<path d="M366.469 242.859L381.505 268.901L407.552 253.865" fill="#1EB53A"/>
<path d="M366.469 242.859H396.547V272.927" fill="#1EB53A"/>
<path d="M371.161 270.224H395.818V245.562" fill="#CE1126"/>
<path d="M371.161 270.224L383.49 248.87L404.844 261.198" fill="#CE1126"/>
<path d="M392.516 233.234L380.188 254.589L401.542 266.922" fill="#CE1126"/>
<path d="M392.516 233.234L404.844 254.589L383.49 266.922" fill="#CE1126"/>
<path d="M413.87 270.224L401.542 248.87L380.188 261.198" fill="#CE1126"/>
<path d="M413.87 270.224H389.214V245.562" fill="#CE1126"/>
<path d="M413.87 245.562H389.214V270.224" fill="#CE1126"/>
<path d="M413.87 245.562L401.542 266.922L380.188 254.589" fill="#CE1126"/>
<path d="M392.516 282.552L404.844 261.198L383.49 248.87" fill="#CE1126"/>
<path d="M392.516 282.552L380.188 261.198L401.542 248.87" fill="#CE1126"/>
<path d="M371.161 245.562L383.49 266.922L404.844 254.589" fill="#CE1126"/>
<path d="M371.161 245.562H395.818V270.224" fill="#CE1126"/>
</g>
</g>
<defs>
<clipPath id="clip0_763_2236">
<rect width="900" height="450" fill="white"/>
</clipPath>
</defs>
</svg>
