<svg width="900" height="450" viewBox="0 0 900 450" fill="none" xmlns="http://www.w3.org/2000/svg">
<g clip-path="url(#clip0_763_2534)">
<path d="M900 0H0V450H900V0Z" fill="#1E1E1E"/>
<mask id="mask0_763_2534" style="mask-type:luminance" maskUnits="userSpaceOnUse" x="0" y="0" width="900" height="450">
<path d="M900 0H0V450H900V0Z" fill="white"/>
</mask>
<g mask="url(#mask0_763_2534)">
<mask id="mask1_763_2534" style="mask-type:luminance" maskUnits="userSpaceOnUse" x="0" y="0" width="900" height="450">
<path d="M0 0H900V450H0V0Z" fill="white"/>
</mask>
<g mask="url(#mask1_763_2534)">
<path d="M0 0H900V450H0V0Z" fill="white"/>
<path d="M0 0H900V450H0V0Z" fill="white"/>
<path d="M0 0H900V450H0V0Z" fill="#C8102E"/>
</g>
<mask id="mask2_763_2534" style="mask-type:luminance" maskUnits="userSpaceOnUse" x="0" y="0" width="450" height="226">
<path d="M0 0H450V225.333H0V0Z" fill="white"/>
</mask>
<g mask="url(#mask2_763_2534)">
<path d="M0 0H449.333V224.667H0V0Z" fill="#012169"/>
<path d="M0 0V25.1198L399.099 224.667H449.333V199.547L50.2344 0H0ZM449.333 0V25.1198L50.2344 224.667H0V199.547L399.099 0H449.333Z" fill="white"/>
<path d="M187.219 0V224.667H262.109V0H187.219ZM0 74.8906V149.776H449.333V74.8906H0Z" fill="white"/>
<path d="M0 89.8646V134.802H449.333V89.8646H0ZM202.198 0V224.667H247.135V0H202.198ZM0 224.667L149.776 149.776H183.266L33.4896 224.667H0ZM0 0L149.776 74.8906H116.286L0 16.7448V0ZM266.068 74.8906L415.844 0H449.333L299.557 74.8906H266.068ZM449.333 224.667L299.557 149.776H333.047L449.333 207.922V224.667Z" fill="#C8102E"/>
</g>
<path d="M778.339 95.8542V286.135C778.339 336.964 676.734 353.479 676.734 353.479C676.734 353.479 575.13 336.964 575.13 286.135V95.8542H778.339Z" fill="white"/>
<path d="M778.339 286.135C778.339 336.964 676.734 353.479 676.734 353.479C676.734 353.479 575.13 336.964 575.13 286.135C575.13 286.135 575.13 282.042 577.198 279.714C577.198 279.714 576.078 288.172 582.573 294.562C582.573 294.562 577.474 285.542 582.458 276.677C582.458 276.677 580.609 288.083 587.719 294.635C587.719 294.635 583.802 285.318 588.224 274.927C588.224 274.927 586.042 291.922 593.766 295.312C593.766 295.312 595.896 285.542 592.818 279.276C592.818 279.276 598.135 281.422 597.854 295.594C597.854 295.594 599.536 293.505 599.984 283.286C599.984 283.286 600.208 294.974 604.24 297.682C604.24 297.682 605.469 296.495 603.792 291.187C602.109 285.88 604.516 284.021 604.911 284.13C604.911 284.13 604.026 290.005 608.948 294.406C608.948 294.406 606.812 285.203 609.781 283.964C609.781 283.964 609.167 291.755 615.323 293.505C615.323 293.505 615.771 291.245 614.427 288.703C614.427 288.703 613.255 285.693 614.146 283.385C614.146 283.385 616.109 290.453 618.797 291.641C618.797 291.641 617.172 287.5 618.682 283.385C618.682 283.385 619.021 289.271 624.281 291.698C624.281 291.698 620.812 287.146 622.182 282.135L656.026 283.792L673.552 284.63L726.125 280.911L735.198 273.12C735.198 273.12 738.781 278.089 733.125 285.937C733.125 285.937 738.724 284.922 740.516 276.172C740.516 276.172 742.812 281.026 739.677 286.391C739.677 286.391 745.891 280.182 746.786 273.12C746.786 273.12 749.193 279.953 743.312 287.292C743.312 287.292 748.578 285.542 750.818 277.75C750.818 277.75 752.609 282.443 747.516 289.078C747.516 289.078 757.031 284.021 756.75 273.573C756.75 273.573 760.724 279.333 756.193 287.234C756.193 287.234 761.062 282.891 761.51 276.396C761.51 276.396 764.198 279.333 761.286 287.406C761.286 287.406 767.224 281.818 768.12 275.776C768.12 275.776 769.406 281.365 764.312 288.422C764.312 288.422 767.781 287.573 771.083 280.687C771.083 280.687 771.979 283.396 768.958 288.365C768.958 288.365 772.208 287.802 774.391 281.589C774.391 281.589 774.781 285.318 773.828 288.651C773.828 288.651 776.349 287.01 776.906 279.953C776.906 279.953 778.318 282.271 778.339 285.146C778.365 288.026 778.339 286.135 778.339 286.135Z" fill="#2F8F22"/>
<path d="M726.015 176.141C726.015 176.141 722.484 176.739 717.953 175.354C713.416 173.974 711.583 174.536 710.177 175.354C710.177 175.354 712.015 171.713 707.536 168.833C707.536 168.833 708.994 172.516 706.979 174.234C706.979 174.234 706.083 175.073 705.015 173.807C705.015 173.807 703.447 172.198 701.796 170.953C701.796 170.953 705.604 169.625 704.906 165.76C704.203 161.891 702.135 161.385 701.015 160.906C701.015 160.906 701.406 162.656 701.015 163.838C701.015 163.838 696.869 161.526 702.5 158.25C708.125 154.974 707.088 153.057 706.083 151.391C705.072 149.724 702.916 147.891 701.854 147.239C701.854 147.239 702.973 148.989 702.776 150.484C702.583 151.984 700.036 152.943 700.536 150.318C701.041 147.693 700.51 148.146 700.453 145.349C700.453 145.349 705.463 147.042 707.427 142.156C707.427 142.156 709.354 137.104 703.031 134.594C703.031 134.594 704.567 136.651 703.812 138.208C703.812 138.208 702.468 140.745 700.875 138.687C699.276 136.625 698.27 136.229 698.437 133.802C698.437 133.802 704.177 134.594 702.609 128.354C702.609 128.354 701.687 132.505 694.239 126.911C694.239 126.911 699.083 121.943 697.208 117.937C697.208 117.937 696.619 116.099 691.354 117.172C691.354 117.172 695.916 114.297 693.984 111.838C693.984 111.838 693.005 110.203 688.75 112.344C688.75 112.344 690.406 109.495 686.234 106.417C686.234 106.417 683.432 107.885 681.947 109.24C681.947 109.24 679.093 105.625 677.276 104.187C677.276 104.187 673.968 105.458 673.13 109.24C673.13 109.24 671.593 107.406 668.093 106.557C668.093 106.557 666.411 109.667 668.599 112.375C668.599 112.375 666.974 112.318 664.005 111.021C664.005 111.021 660.619 109.411 661.119 112.318C661.625 115.224 661.875 115.875 662.552 117.229C662.552 117.229 654.947 115.463 655.27 119.573C655.494 122.422 656.557 124.88 658.911 126.943C658.911 126.943 654.656 132.5 651.015 128.323C651.015 128.323 649.755 129.677 652.474 133.234C652.474 133.234 655.187 136.229 652.947 138.12C652.947 138.12 649.953 140.521 648.494 135.859C648.494 135.859 643.656 140.687 649.364 144.385C649.364 144.385 653.031 146.479 656.781 143.255C656.781 143.255 655.635 152.516 652.052 150.739C652.052 150.739 649.895 149.156 653.76 147.266C653.76 147.266 648.187 146.562 647.291 151.953C647.291 151.953 646.604 156.245 651.463 157.797C651.463 157.797 655.213 159.151 651.322 162.062C651.322 162.062 648.578 164.151 650.369 167.255C650.369 167.255 652.526 170.672 647.067 171.01C647.067 171.01 644.099 170.979 643.036 170.588C643.036 170.588 641.838 172.812 642.677 175.354C642.677 175.354 639.958 173.328 633.77 175.573C627.583 177.812 628.057 176.234 627.557 176.911C627.052 177.588 625.849 179.875 625.849 179.875C625.849 179.875 629.093 183.828 629.151 183.739C629.208 183.656 628.536 188.26 628.536 188.26L630.13 189.021L642.869 183.344L655.802 176.604L666.203 177.245L672.796 178.812L681.458 179.443L687.661 176.135H696.645L706.531 181.062L717.812 187.792L723.692 188.823L728.218 188.578V179.443L726.015 176.141Z" fill="#C8102E" stroke="black" stroke-width="0.746793" stroke-linejoin="round"/>
<path d="M623.421 186.823C623.421 186.823 628.349 189.333 630.406 186.286C630.406 186.286 633.093 181.161 627.192 179.38C627.192 179.38 630.406 175.526 626.958 171.969C626.958 171.969 625.156 170.068 622.005 171.463C622.005 171.463 620.703 168.755 617.635 168.838C617.635 168.838 614.953 168.797 614.026 171.76C614.026 171.76 610.333 170.234 608.276 172.437C608.276 172.437 604.869 176.25 609.614 179.255L613.031 179.568L616.39 178.01L620.14 179.083C620.145 179.083 619.177 182.88 623.421 186.823Z" fill="#C8102E" stroke="black" stroke-width="0.746793" stroke-linejoin="round"/>
<path d="M733.401 177.807C739.338 177.25 741.432 182.26 741.432 182.26C744.546 189.557 737.937 193.453 737.937 193.453C738.442 195.094 738.5 197.239 738.5 197.239C747.791 198.37 746.166 208.812 746.166 208.812L743.088 206.271C737.713 204.182 732.171 208.755 728.197 216.437C724.223 224.114 726.125 227.729 726.796 236.818C727.468 245.906 742.249 251.328 742.249 251.328C742.249 251.328 735.249 269.338 730.718 280.916C726.182 292.489 716.718 287.687 713.973 285.25C711.234 282.812 710.546 284.166 709.161 285.25C707.776 286.333 715.375 292.265 701.546 297.854C687.718 303.443 685.307 307.734 683.015 309.146C680.718 310.557 671.145 309.599 670.192 308.411C669.239 307.224 669.802 307.224 666.218 305.021C662.635 302.823 656.588 300.901 649.979 297.682C643.375 294.463 643.541 290.344 643.599 289.495C643.656 288.651 645.895 281.76 638.156 287.239C630.416 292.713 623.833 284.63 623.833 284.63C622.322 282.64 615.885 265.385 615.885 265.385C614.145 258.953 610.734 251.443 610.734 251.443C610.901 251.385 610.395 252.234 616.109 248.958C621.817 245.682 624.375 240.234 626.354 234.844C628.328 229.448 626.406 220.219 625.682 218.354C624.953 216.489 620.697 207.948 615.427 206.161C610.161 204.37 606.625 208.812 606.625 208.812C606.625 208.812 605 198.37 614.296 197.239C614.296 197.239 614.349 195.094 614.854 193.453C614.854 193.453 608.25 189.557 611.359 182.26C611.359 182.26 613.453 177.25 619.39 177.807L617.953 180.526C617.953 180.526 616.458 195.432 638.281 185.437C660.099 175.443 659.442 173.578 671.869 179.849L680.942 179.677C680.942 179.677 694.041 173.62 698.244 176.224C702.442 178.833 717.557 187.302 717.557 187.302C717.557 187.302 732.171 192.781 735.026 182.672L733.401 177.807Z" fill="#64B4D1" stroke="black" stroke-width="0.55987"/>
<path d="M667.755 242.437C667.755 242.437 667 237.859 666.203 234.896C666.203 234.896 664.583 230.25 667.343 226.984L670.77 223.042C670.77 223.042 672.901 220.177 675.536 219.786C675.536 219.786 678.171 219.708 678.421 219.172C678.671 218.635 681.557 213.89 688.416 219.172C688.416 219.172 690.599 215.672 693.958 215.078C693.958 215.078 697.588 213.979 699.343 216.687C699.343 216.687 703.421 213.599 706.921 218.573C706.921 218.573 711.765 215.849 715.291 221.265C715.291 221.265 720.078 218.932 723.015 223.906C725.958 228.885 725.369 230.916 725.369 230.916L727.552 238.823L735.281 248.364L717.307 255.14H709.244L693.119 259.458L664.484 261.661L656.505 252.26L667.755 242.437Z" fill="white" stroke="#012169" stroke-width="0.746793" stroke-miterlimit="10"/>
<path d="M643.552 290.031C643.552 290.031 639.265 290.286 637.083 291.385C634.901 292.489 633.218 293.677 630.703 295.281C630.703 295.281 629.526 296.849 624.567 295.896C624.567 295.896 616.005 293.844 616.005 300.536C616.005 300.536 605.76 301.38 609.958 310.359C609.958 310.359 612.812 317.39 618.692 312.39C618.692 312.39 614.911 317.812 622.218 319.927C622.218 319.927 627.427 321.198 628.937 315.864C628.937 315.864 629.776 313.745 627.76 311.12C627.76 311.12 630.281 310.614 632.041 307.901C632.041 307.901 626.666 314.698 632.546 317.14C632.546 317.14 639.937 318.995 640.359 311.291C640.359 311.291 639.755 307.734 642.619 306.463C642.619 306.463 648.505 305.109 651.192 298.541C651.192 298.541 642.729 294.036 643.552 290.031ZM626.255 222.479C626.255 222.479 619.645 219.437 616.51 222.479C616.51 222.479 612.14 219.776 607.552 222.479C607.552 222.479 603.187 225.333 600.161 228.479C600.161 228.479 598.036 230.302 598.817 236.042C598.817 236.042 599.937 240.094 599.265 242.125C599.265 242.125 597.812 241.838 594.901 245.286C594.901 245.286 591.203 249.568 587.958 245.786C587.958 245.786 588.963 251.047 595.067 250.198C595.067 250.198 592.099 252.515 594.677 258.5C594.677 258.5 596.578 262.734 593.557 268.041C593.557 268.041 598.875 265.896 598.651 259.63C598.651 259.63 598.203 255.396 599.77 252.401C599.77 252.401 598.203 255.12 601.838 260.927C601.838 260.927 604.64 265.104 602.343 269.453C602.343 269.453 607.609 267.531 607.104 261.151C606.599 254.771 603.411 257.427 605.479 251.552C605.479 251.552 605.984 254.562 607.552 256.078C609.119 257.594 611.135 260.135 610.296 264.37C610.296 264.37 613.432 260.474 612.703 256.463C611.974 252.458 611.192 251.245 611.192 251.245L621.099 245.625L626.026 236.703L626.255 222.479Z" fill="#C8102E" stroke="black" stroke-width="0.746793" stroke-linejoin="round"/>
<path d="M611.192 247.656C611.192 247.656 607.104 247.375 606.432 244.213M599.265 242.125C599.265 242.125 600.692 242.068 601.979 243.364C601.979 243.364 602.963 244.833 604.359 244.667" stroke="black" stroke-width="0.746793" stroke-miterlimit="10"/>
<path d="M617.24 235.63C617.24 235.63 615.109 235.63 613.938 234.615C613.938 234.615 612.703 233.771 611.974 235.125C611.974 235.125 610.854 237.042 612.927 237.891C612.927 237.891 615.5 239.188 611.417 241.786C611.417 241.786 616.286 240.036 614.328 237.667C614.328 237.667 612.198 236.141 612.984 235.573C612.984 235.573 613.208 235.125 614.047 235.688C614.885 236.255 616.568 236.026 617.24 235.63Z" fill="black"/>
<path d="M684.02 246.416L667.651 189.88L667.046 190.042L681.515 247.265L684.02 246.416Z" fill="#784421" stroke="black" stroke-width="0.55987"/>
<path d="M627.005 309.849C627.005 309.849 623.141 307.677 619.953 310.219C619.953 310.219 620.276 308.807 622.719 308.188C622.719 308.188 624.036 304.458 627.734 304.797C627.734 304.797 626.224 306.604 624.208 308.13C624.208 308.13 626.333 308.349 627.005 309.849Z" fill="black"/>
<path d="M613.401 318.828C613.401 318.828 607.27 314.974 610.588 308.495C610.588 308.495 611.552 306.63 613.401 307.015C613.401 307.015 617.224 308.198 614.239 313.495C614.239 313.495 612.729 316.922 613.401 318.828ZM625.828 324.927C625.828 324.927 617.093 320.948 619.781 314.172C619.781 314.172 620.614 311.885 622.552 312.052C622.552 312.052 625.916 312.224 625.244 316.708C625.244 316.708 624.234 321.114 625.828 324.927Z" fill="#64B4D1" stroke="#012169" stroke-width="0.55987" stroke-miterlimit="2.613"/>
<path d="M623.984 299.641C623.984 299.641 621.359 301.578 620.292 302.875C620.292 302.875 619.224 301.552 617.823 300.745C617.823 300.745 619.438 300.531 620.292 301.26C620.292 301.26 621.63 299.958 623.984 299.641Z" fill="black"/>
<path d="M631.75 323.234C631.75 323.234 638.593 321.495 637.333 314.422C637.333 314.422 636.661 311.333 633.765 311.755C633.765 311.755 630.276 312.646 632.546 317.14C632.546 317.14 633.89 320.354 631.75 323.234Z" fill="#64B4D1" stroke="#012169" stroke-width="0.55987" stroke-miterlimit="2.613"/>
<path d="M662.677 173.625C662.677 173.625 667.083 174.974 669.479 175.953C669.479 175.953 675.859 178.828 683.963 175.953C683.963 175.953 689.447 173.781 690.177 173.625L685.979 180.016L685.77 183.318L688.395 187.172C688.395 187.172 686.823 187.807 682.114 184.927C682.114 184.927 676.911 180.906 670.692 184.927C670.692 184.927 667.291 187.234 664.437 187.172L668.468 182.672L666.916 178.62L662.677 173.625Z" fill="#F5CE00" stroke="black" stroke-width="0.746793" stroke-miterlimit="2.613"/>
<path d="M634.396 314.781C634.396 314.781 634.646 314.443 634.354 314.297C634.354 314.297 634.057 314.172 633.849 314.583C633.849 314.583 633.135 315.714 633.74 317.266C633.74 317.266 634.313 318.339 634.036 319.464C634.036 319.464 633.995 319.781 634.25 319.823C634.25 319.823 634.49 319.74 634.536 319.505C634.536 319.505 634.88 318.411 634.292 317.339C634.292 317.339 633.578 315.672 634.396 314.786V314.781Z" fill="white"/>
<path d="M729.203 186.823C729.203 186.823 724.276 189.333 722.218 186.286C722.218 186.286 719.531 181.161 725.432 179.38C725.432 179.38 722.218 175.526 725.661 171.969C725.661 171.969 727.468 170.068 730.619 171.463C730.619 171.463 731.921 168.755 734.984 168.838C734.984 168.838 737.671 168.797 738.598 171.76C738.598 171.76 742.291 170.234 744.348 172.437C744.348 172.437 747.749 176.25 743.005 179.255L739.593 179.568L736.234 178.01L732.479 179.083C732.479 179.083 733.447 182.88 729.203 186.823Z" fill="#C8102E" stroke="black" stroke-width="0.746793" stroke-linejoin="round"/>
<path d="M690.182 182.838C690.182 182.838 690.057 183.859 689.046 183.969C689.046 183.969 687.994 184.307 687.385 183C687.385 183 687.312 182.703 687.296 182.557C687.223 181.948 687.015 180.187 688.921 178.745C688.921 178.745 692.026 176.208 697.963 179.281C697.963 179.281 702.666 181.542 705.911 183.463C705.911 183.463 714.312 187.979 715.317 188.318C715.317 188.318 719.015 190.182 724.666 190.406C724.666 190.406 732.395 190.969 735.671 185.552C735.671 185.552 738.161 181.427 735.671 178.802C735.671 178.802 734.661 177.62 733.005 177.838C732.312 177.927 731.541 178.25 730.802 179.114C730.802 179.114 729.598 180.864 730.994 182.161C730.994 182.161 732.817 183.281 733.458 180.922C733.458 180.922 733.484 180.755 733.541 180.963C733.578 181.099 733.989 182.896 733.026 184.422C733.026 184.422 728.364 191.474 715.541 184.167L698.635 174.682C698.635 174.682 690.151 170.333 685.083 177.14C685.083 177.14 681 182.786 686.26 186.484C686.26 186.484 690.177 188.828 692.64 185.099C692.64 185.099 694.687 181.427 691.468 179.823C691.468 179.823 688.64 178.495 687.52 181.318C686.401 184.14 689.703 184.875 690.01 182.87C690.01 182.87 690.093 182.39 690.182 182.838Z" fill="#F5CE00" stroke="black" stroke-width="0.746793" stroke-miterlimit="2.613"/>
<path d="M623.156 211.948V201.359C623.156 200.526 623.161 199.833 624.422 198.818C625.682 197.802 627.026 196.193 628.953 200.765C628.953 200.765 632.734 196.786 633.994 196.193C633.994 196.193 636.177 194.333 637.687 197.042C637.687 197.042 639.703 193.989 641.302 193.229C641.302 193.229 645.078 190.771 645.25 198.14L648.187 195.432C648.187 195.432 650.453 193.568 652.974 196.109C652.974 196.109 657.255 200.26 657.843 201.443C657.843 201.443 658.791 202.729 658.864 204.755C658.864 204.755 658.854 207.031 660.026 208.302C660.026 208.302 661.369 209.489 662.672 209.745C662.672 209.745 665.739 209.828 666.828 212.708C666.828 212.708 667.333 212.208 668.843 226.01V251.156L651.88 271.401L624.672 263.609L613.838 259.12L611.401 251.156L621.901 244.38L627.609 228.969L625.76 218.125L623.156 211.948Z" fill="#E4CB5E" stroke="black" stroke-width="0.55987" stroke-miterlimit="2.613"/>
<path d="M698.13 225.297L699.416 223.38L702.5 221.005C702.5 221.005 707.203 233.349 707.427 236.042V239.875C707.427 239.875 714.479 241.672 715.713 252.515L709.89 263.239L700.765 258.161L698.13 256.239V225.297Z" fill="#784421" stroke="black" stroke-width="0.55987"/>
<path d="M611.698 310.042C611.698 310.042 612.036 309.599 611.802 309.406C611.802 309.406 611.656 309.193 611.26 309.703C611.26 309.703 609.406 311.776 610.88 314.964C610.88 314.964 611.047 315.417 611.344 315.271C611.344 315.271 611.594 315.146 611.365 314.766C611.365 314.766 610.042 312.135 611.698 310.042Z" fill="white"/>
<path d="M639.213 307.958C639.213 307.958 639.489 307 638.817 305.984C638.817 305.984 638.369 305.25 638.536 304.291" stroke="black" stroke-width="0.746793" stroke-miterlimit="10"/>
<path d="M645.25 198.141C645.25 198.141 645.276 200.786 646.031 202.734C646.786 204.687 649.338 208.052 649.505 209.875" stroke="black" stroke-width="0.55987" stroke-miterlimit="10"/>
<path d="M709.244 290.031C709.244 290.031 713.526 290.286 715.713 291.385C717.895 292.489 719.572 293.677 722.093 295.281C722.093 295.281 723.27 296.849 728.224 295.896C728.224 295.896 736.791 293.844 736.791 300.536C736.791 300.536 747.036 301.38 742.838 310.359C742.838 310.359 739.984 317.39 734.104 312.39C734.104 312.39 737.88 317.812 730.578 319.927C730.578 319.927 725.369 321.198 723.859 315.864C723.859 315.864 723.015 313.745 725.031 311.12C725.031 311.12 722.515 310.614 720.75 307.901C720.75 307.901 726.125 314.698 720.244 317.14C720.244 317.14 712.859 318.995 712.437 311.291C712.437 311.291 713.041 307.734 710.177 306.463C710.177 306.463 704.286 305.109 701.604 298.541C701.604 298.541 710.067 294.036 709.244 290.031Z" fill="#C8102E" stroke="black" stroke-width="0.746793" stroke-linejoin="round"/>
<path d="M641.869 209.87L648.859 266.292M643.484 209.75L651.322 262.338M644.953 209.505L653.984 261.661" stroke="black" stroke-width="0.55987" stroke-miterlimit="10"/>
<path d="M661.739 256.323L645.364 199.786L644.765 199.948L659.234 257.172L661.739 256.323Z" fill="#784421" stroke="black" stroke-width="0.55987"/>
<path d="M649.963 207.432L666.494 249.208M648.859 208.109L664.817 251.75" stroke="black" stroke-width="0.55987" stroke-miterlimit="10"/>
<path d="M622.667 320.917C622.667 320.917 620.75 319.078 621.016 315.781C621.016 315.781 621.125 315.073 620.776 314.974C620.776 314.974 620.401 314.818 620.344 315.641C620.344 315.641 619.813 319.083 622.135 321.057C622.135 321.057 622.292 321.255 622.552 321.198C622.552 321.198 622.823 321.141 622.667 320.917Z" fill="white"/>
<path d="M650.708 206.864L667.755 244.974M646.046 209.234L656.505 260.557" stroke="black" stroke-width="0.55987" stroke-miterlimit="10"/>
<path d="M731.578 247.265C724.109 243.026 722.473 233.625 722.473 233.625C720.666 224.266 724.317 216.859 724.317 216.859C729.151 206.651 737.421 204.755 737.421 204.755C737.421 204.755 729.317 210.38 727.052 217.958C727.052 217.958 725.286 224.354 726.291 230.661C727.302 236.974 726.921 235.364 728.479 240.234L731.578 247.265Z" fill="#F5CE00" stroke="black" stroke-width="0.746793" stroke-miterlimit="2.613"/>
<path d="M699.416 223.38L668.041 233.286L666.328 247.265C658.88 258.052 643.75 259.963 643.75 259.963L655.52 272.5L678.14 277.245L690.01 268.099L700.76 258.161C699.64 252.854 700.255 244.974 700.255 244.974C700.255 243.651 700.76 240.542 700.76 240.542C700.76 240.542 698.911 227.781 699.416 223.38Z" fill="#784421" stroke="black" stroke-width="0.341494"/>
<path d="M666.76 243.755C666.76 243.755 687.427 237.302 699.75 232.12M656.838 255.531C656.838 255.531 682.619 250.875 700.76 240.542L707.427 236.042" stroke="black" stroke-width="0.55987" stroke-miterlimit="10"/>
<path d="M707.427 239.875L700.255 244.974C700.255 244.974 671.421 258.271 649.468 258.63M700.25 254.427C700.25 254.427 678.088 265.838 665.375 266.01" stroke="black" stroke-width="0.55987" stroke-miterlimit="10"/>
<path d="M726.682 222.479C726.682 222.479 733.291 219.437 736.427 222.479C736.427 222.479 740.796 219.776 745.385 222.479C745.385 222.479 749.755 225.333 752.776 228.479C752.776 228.479 754.901 230.302 754.119 236.042C754.119 236.042 752.999 240.094 753.671 242.125C753.671 242.125 755.13 241.838 758.041 245.286C758.041 245.286 761.734 249.568 764.979 245.786C764.979 245.786 763.973 251.047 757.869 250.198C757.869 250.198 760.838 252.515 758.265 258.5C758.265 258.5 756.359 262.734 759.38 268.041C759.38 268.041 754.062 265.896 754.286 259.63C754.286 259.63 754.734 255.396 753.166 252.401C753.166 252.401 754.734 255.12 751.098 260.927C751.098 260.927 748.296 265.104 750.593 269.453C750.593 269.453 745.328 267.531 745.833 261.151C746.338 254.771 749.531 257.427 747.458 251.552C747.458 251.552 746.953 254.562 745.385 256.078C743.817 257.594 741.802 260.135 742.64 264.37C742.64 264.37 739.505 260.474 740.234 256.463C740.963 252.458 741.744 251.245 741.744 251.245L731.838 245.625L726.911 236.703L726.682 222.479Z" fill="#C8102E" stroke="black" stroke-width="0.746793" stroke-linejoin="round"/>
<path d="M614.427 258.187C614.427 258.187 615.349 253.812 619.552 255.531C619.552 255.531 620.979 248.364 628.619 248.109C636.265 247.854 636.682 255.562 636.682 256.073C636.682 256.073 638.927 252.76 642.677 253.146C642.677 253.146 649.14 252.765 646.734 263.14L647.953 264.443C647.953 264.443 652.89 252.854 663.052 255.901C663.052 255.901 672.963 258.922 666.494 268.521C666.494 268.521 671.385 274.87 675.536 274.281C679.682 273.687 683.38 272.417 687.494 265.13C691.609 257.849 701.182 256.75 703.619 257.172C706.052 257.594 707.979 259.177 708.375 260.896C708.375 260.896 713.442 243.979 731.666 246.635L738.974 250.312L741.744 251.583L737.614 263.239L727.552 285.989L719.911 288.338L711.932 283.765L709.161 285.25L708.932 292.068L698.411 299.64L691.104 302.651L683.041 308.156L681.166 313.078C681.166 313.078 676.713 311.203 671.687 313.078L670.026 309.005L665.322 304.515L647.052 295.896L643.75 285.25L640.416 283.765L636.682 288.041L631.224 288.677L623.078 283.172L614.427 258.187Z" fill="white" stroke="#012169" stroke-width="0.746793" stroke-miterlimit="10"/>
<path d="M693.989 175.359C693.989 175.359 687.015 175.047 687.265 182.276" stroke="black" stroke-width="0.746793" stroke-miterlimit="2.613"/>
<path d="M739.854 252.13C727.718 248.406 724.406 235.364 724.406 235.364C721.927 225.583 725.916 217.026 725.916 217.026C731.458 204.01 740.838 204.015 740.838 204.015C745.541 203.885 746.104 207.906 746.104 207.906C746.546 210.76 744.546 211.792 744.546 211.792C741.328 213.542 739.296 211.167 739.296 211.167C737.953 209.417 738.989 207.864 738.989 207.864C739.817 206.708 741.395 207.219 741.395 207.219C742.651 207.604 742.515 209.172 742.515 209.172C742.526 209.213 742.552 209.213 742.552 209.213C742.609 209.198 742.588 209.177 742.588 209.177C742.588 209.177 742.864 207.26 740.989 207.062C740.989 207.062 737.338 206.271 733.052 211.609C733.052 211.609 727.416 218.807 727.427 228.12C727.427 228.12 726.713 245.609 744.937 250.14C744.937 250.14 742.963 252.979 739.479 263.224C739.479 263.224 735.531 276.396 731.765 283.515C731.765 283.515 726.755 293.672 715.588 289.521C715.588 289.521 708.937 286.604 708.953 281.776C708.953 281.776 708.489 277.37 712.479 277.031C712.479 277.031 716.385 276.734 716.343 280.078C716.343 280.078 716.448 283.703 712.182 282.875C712.182 282.875 710.692 282.557 710.968 281.094C710.968 281.094 711.203 279.781 713.005 280.354C713.005 280.354 713.057 280.364 713.067 280.333C713.067 280.333 713.088 280.302 713.026 280.286C713.026 280.286 712.328 279.974 711.593 280.229C711.593 280.229 710.932 280.448 710.88 281.474C710.88 281.474 710.838 282.302 711.724 282.765C711.724 282.765 712.791 283.151 713.635 283.062C713.635 283.062 714.765 285.344 717.317 286.12C720.875 287.193 723.807 286.156 725.599 284.724C727.552 283.172 728.812 280.448 729.192 279.781C729.567 279.114 732.843 271.781 735.307 263.89C735.307 263.89 737.463 257.083 739.182 253.526L739.854 252.13Z" fill="#F5CE00" stroke="black" stroke-width="0.746793" stroke-miterlimit="2.613"/>
<path d="M705.609 285.291C705.609 285.291 707.88 284.984 707.88 287.005C707.88 287.005 707.739 289.958 704.14 289.312C704.14 289.312 700.593 288.536 701.854 284.568C701.854 284.568 702.692 281.776 706.052 282.177C706.052 282.177 709.307 282.323 710.734 286.771C710.734 286.771 711.828 290.521 709.958 293.739C707.869 297.328 702.593 299.687 700.046 300.729C700.046 300.729 689.843 304.739 686.802 307.031C686.802 307.031 682.13 310.5 684.197 313.724C684.197 313.724 684.994 314.953 686.192 314.953C686.192 314.953 687.557 315.015 687.786 313.62C687.786 313.62 687.796 313.594 687.77 313.557C687.77 313.557 687.755 313.557 687.744 313.588C687.744 313.588 687.645 314.443 686.906 314.76C686.906 314.76 685.911 315.265 684.869 314.38C684.869 314.38 683.765 313.323 684.687 311.677C684.687 311.677 685.895 309.651 688.718 310.854C688.718 310.854 691.203 312.078 690.182 314.719C690.182 314.719 689.27 317.151 686.276 317.14C686.276 317.14 684.02 317.068 682.578 315.557C680.328 313.198 680.203 308.599 682.187 306.224C682.187 306.224 684.062 303.693 687.828 302.156C690.01 301.265 694.13 299.474 698.411 297.797C701.421 296.614 704.177 295.203 705.968 293.083C705.968 293.083 707.567 291.302 708.026 288.255C708.026 288.255 708.468 285.969 707.078 285.463C707.078 285.463 706.369 285.151 705.593 285.255C705.593 285.255 705.572 285.255 705.567 285.265C705.567 285.271 705.531 285.302 705.609 285.291Z" fill="#F5CE00" stroke="black" stroke-width="0.746793" stroke-miterlimit="2.613"/>
<path d="M705.802 285.276C705.802 285.276 708.307 284.823 709.874 287.802C709.874 287.802 710.796 289.724 710.947 290.833M711.765 280.182C711.765 280.182 709.255 280.62 710.546 284.166C711.765 287.515 714.026 288.609 714.697 289.078" stroke="black" stroke-width="0.746793" stroke-miterlimit="2.613"/>
<path d="M662.671 182.838C662.671 182.838 662.796 183.854 663.807 183.969C663.807 183.969 664.854 184.307 665.468 183C665.468 183 665.541 182.703 665.557 182.557C665.625 181.948 665.833 180.187 663.932 178.745C663.932 178.745 660.822 176.203 654.89 179.281C654.89 179.281 650.187 181.542 646.937 183.458C646.937 183.458 638.541 187.979 637.531 188.318C637.531 188.318 633.838 190.177 628.182 190.406C628.182 190.406 620.458 190.969 617.182 185.552C617.182 185.552 614.692 181.427 617.182 178.802C617.182 178.802 618.187 177.62 619.849 177.833C620.541 177.927 621.312 178.245 622.052 179.114C622.052 179.114 623.255 180.864 621.859 182.161C621.859 182.161 620.036 183.276 619.395 180.922C619.395 180.922 619.364 180.75 619.307 180.963C619.27 181.099 618.859 182.896 619.828 184.422C619.828 184.422 624.489 191.474 637.307 184.167L654.218 174.682C654.218 174.682 662.698 170.333 667.765 177.135C667.765 177.135 671.854 182.781 666.593 186.484C666.593 186.484 662.671 188.823 660.208 185.099C660.208 185.099 658.166 181.427 661.385 179.818C661.385 179.818 664.213 178.495 665.333 181.318C666.453 184.141 663.145 184.875 662.838 182.87C662.838 182.87 662.755 182.39 662.671 182.838ZM621.276 247.265C628.744 243.026 630.38 233.625 630.38 233.625C632.187 224.265 628.531 216.859 628.531 216.859C623.703 206.651 615.427 204.755 615.427 204.755C615.427 204.755 623.536 210.38 625.802 217.958C625.802 217.958 627.567 224.354 626.557 230.661C625.552 236.974 625.927 235.364 624.375 240.234L621.276 247.265Z" fill="#F5CE00" stroke="black" stroke-width="0.746793" stroke-miterlimit="2.613"/>
<path d="M658.864 175.359C658.864 175.359 665.838 175.047 665.583 182.276" stroke="black" stroke-width="0.746793" stroke-miterlimit="2.613"/>
<path d="M612.994 252.13C625.13 248.406 628.447 235.364 628.447 235.364C630.927 225.583 626.937 217.026 626.937 217.026C621.395 204.01 612.015 204.015 612.015 204.015C607.312 203.885 606.75 207.906 606.75 207.906C606.302 210.76 608.307 211.792 608.307 211.792C611.526 213.542 613.557 211.167 613.557 211.167C614.895 209.417 613.864 207.864 613.864 207.864C613.036 206.708 611.453 207.219 611.453 207.219C610.203 207.604 610.333 209.172 610.333 209.172C610.328 209.213 610.302 209.213 610.302 209.213C610.244 209.198 610.265 209.177 610.265 209.177C610.265 209.177 609.984 207.26 611.859 207.062C611.859 207.062 615.515 206.271 619.796 211.609C619.796 211.609 625.437 218.807 625.427 228.12C625.427 228.12 626.14 245.609 607.911 250.14C607.911 250.14 609.885 252.979 613.375 263.224C613.375 263.224 617.317 276.396 621.088 283.515C621.088 283.515 626.099 293.672 637.265 289.521C637.265 289.521 643.916 286.604 643.901 281.776C643.901 281.776 644.364 277.37 640.375 277.031C640.375 277.031 636.468 276.734 636.51 280.078C636.51 280.078 636.406 283.703 640.666 282.875C640.666 282.875 642.156 282.557 641.885 281.094C641.885 281.094 641.645 279.781 639.849 280.354C639.849 280.354 639.791 280.364 639.786 280.333C639.786 280.333 639.765 280.302 639.828 280.286C639.828 280.286 640.526 279.974 641.26 280.229C641.26 280.229 641.916 280.448 641.968 281.474C641.968 281.474 642.01 282.302 641.13 282.765C641.13 282.765 640.057 283.151 639.218 283.062C639.218 283.062 638.088 285.344 635.531 286.12C631.974 287.193 629.046 286.156 627.25 284.724C625.302 283.172 624.036 280.448 623.661 279.781C623.286 279.114 620.01 271.781 617.546 263.89C617.546 263.89 615.39 257.083 613.666 253.526L612.994 252.13Z" fill="#F5CE00" stroke="black" stroke-width="0.746793" stroke-miterlimit="2.613"/>
<path d="M647.239 285.291C647.239 285.291 644.973 284.984 644.973 287.005C644.973 287.005 645.109 289.958 648.708 289.312C648.708 289.312 652.26 288.536 651 284.568C651 284.568 650.161 281.776 646.802 282.177C646.802 282.177 643.546 282.323 642.119 286.771C642.119 286.771 641.026 290.521 642.895 293.739C644.979 297.328 650.255 299.687 652.802 300.729C652.802 300.729 663.01 304.739 666.052 307.031C666.052 307.031 670.718 310.5 668.656 313.724C668.656 313.724 667.859 314.953 666.661 314.953C666.661 314.953 665.296 315.015 665.062 313.62C665.062 313.62 665.057 313.594 665.078 313.557C665.078 313.557 665.099 313.557 665.109 313.588C665.109 313.588 665.203 314.443 665.947 314.76C665.947 314.76 666.942 315.265 667.984 314.38C667.984 314.38 669.088 313.323 668.166 311.677C668.166 311.677 666.953 309.651 664.135 310.854C664.135 310.854 661.651 312.078 662.671 314.719C662.671 314.719 663.578 317.151 666.578 317.14C666.578 317.14 668.833 317.068 670.276 315.557C672.526 313.198 672.645 308.599 670.661 306.224C670.661 306.224 668.786 303.693 665.02 302.156C662.843 301.265 658.723 299.474 654.442 297.797C651.432 296.614 648.671 295.203 646.88 293.083C646.88 293.083 645.286 291.302 644.822 288.255C644.822 288.255 644.385 285.969 645.776 285.463C645.776 285.463 646.484 285.151 647.26 285.255C647.26 285.255 647.281 285.255 647.286 285.265C647.286 285.265 647.317 285.302 647.239 285.291Z" fill="#F5CE00" stroke="black" stroke-width="0.746793" stroke-miterlimit="2.613"/>
<path d="M647.052 285.276C647.052 285.276 644.546 284.823 642.979 287.802C642.979 287.802 642.052 289.724 641.906 290.833M641.088 280.182C641.088 280.182 643.599 280.62 642.307 284.166C641.088 287.51 638.828 288.609 638.156 289.078M670.359 181.87C670.359 181.87 676.427 178.068 682.619 182.276" stroke="black" stroke-width="0.746793" stroke-miterlimit="2.613"/>
<path d="M635.843 218.974C635.843 218.974 636.682 215.588 632.817 209.661C632.817 209.661 630.302 204.239 628.958 200.766M637.692 197.042C637.692 197.042 639.88 202.37 640.63 204.755C640.63 204.755 643.343 211.437 643.916 212.792" stroke="black" stroke-width="0.55987" stroke-miterlimit="2.613"/>
<path d="M638.781 222.703C638.781 222.703 641.062 225.156 640.802 229.307M631.224 220.078C631.224 220.078 633.744 221.292 633.578 227.979C633.578 227.979 633.322 232.864 637.104 235.323M630.88 237.042C630.88 237.042 638.765 236.182 639.203 241.036C639.203 241.036 639.369 245.698 642.057 246.203C642.057 246.203 646.083 246.583 646.88 250.312M633.364 242.437C633.364 242.437 634.75 244.51 636.093 245.401M643.484 237.312C643.484 237.312 645.489 240.344 645.864 242.125M652.161 200.766C652.161 200.766 654.01 203.281 655.802 204.463M659.552 215.646C659.552 215.646 663.473 217.562 662.802 227.443C662.802 227.443 662.296 233.239 663.921 236.401" stroke="black" stroke-width="0.55987" stroke-miterlimit="10"/>
<path d="M641.093 208.937L641.343 209.87C641.343 209.87 648.369 210.167 652.161 205.38L651.755 204.463C651.755 204.463 645.625 204.156 641.093 208.937Z" fill="#784421" stroke="black" stroke-width="0.55987"/>
<path d="M666.406 246.635C666.406 246.635 690.708 239.39 700.072 235.167" stroke="black" stroke-width="0.55987" stroke-miterlimit="10"/>
<path d="M663.515 201.021L675.536 196.448L675.817 197.25L663.796 201.818L663.515 201.021Z" fill="#784421" stroke="black" stroke-width="0.341494"/>
<path d="M664.817 201.432L672.796 240.541M666.203 200.906L675.338 239.838M667.755 200.312L677.75 238.963M671.677 198.828L685.296 227.838M673.479 198.14L688.005 226.984M674.812 197.635L690.526 226.187M672.255 240.854L678.421 238.823M667.588 236.984C667.588 236.984 685.661 231.703 699.343 226.187M667.343 238.963C667.343 238.963 690.255 232.901 699.343 228.479M674.333 257.594L675.536 261.265L678.812 260.213L677.692 256.578M683.588 254.958L684.786 258.63L688.067 257.578L686.947 253.943M668.041 233.286L667.755 228.323L697.796 219.203M697.796 219.203L699.416 223.38M697.796 219.203L701.099 217.338L702.5 221.005M680.494 224.453L682.13 228.838M690.994 221.265L692.911 225.432M693.484 220.51L695.276 224.453M695.864 219.786L697.744 223.906M699.416 218.286L701.099 222.083" stroke="black" stroke-width="0.55987" stroke-miterlimit="10"/>
<path d="M624.927 275.463C624.927 275.463 619.047 269.51 624.927 263.682C624.927 263.682 618.541 260.557 619.552 255.531M635.421 280.182C635.421 280.182 629.333 281.01 631.14 269.156C631.14 269.156 628.619 273.854 627.75 276.271C627.104 278.078 627.531 281 630.109 282.578C631.14 283.208 636.599 284.63 638.359 281.01M628.619 262.042C628.619 262.042 626.14 264.328 627.906 268.521M631.182 262.594C631.182 262.594 631.474 266.656 633.489 268.943M632.921 260.984C632.921 260.984 632.906 265.771 636.349 268.734M634.635 259.333C634.635 259.333 634.666 264.708 638.656 268.01M654.442 267.208C654.442 267.208 656.458 262.802 660.703 263.015C660.703 263.015 658.645 263.948 658.687 266.005C658.687 266.005 658.432 269.411 662.088 269.75C662.088 269.75 665.026 270.13 666.494 268.521" stroke="#012169" stroke-width="0.746793" stroke-miterlimit="10"/>
<path d="M664.479 287.323C664.479 287.323 654.026 282.411 655.119 275.338C655.119 275.338 655.536 271.021 659.76 268.984M657.552 273.474C657.552 273.474 656.63 276.526 658.687 278.64M659.906 271.401C659.906 271.401 658.645 274.745 660.744 277.245M662.421 269.776C662.421 269.776 660.911 272.542 662.718 275.042M652.89 288.041C652.89 288.041 658.604 292.995 663.052 293.036M651.088 289.609C651.088 289.609 656.421 293.927 659.76 294.562M649.072 290.833C649.072 290.833 655.666 296.635 659.76 297.062M675.901 302.396C675.901 302.396 669.416 305.89 674.442 309.583M671.786 298.541C671.786 298.541 679.135 294.693 682.328 293.25M674.432 300.536C674.432 300.536 685.057 294.057 688.208 292.656M679.89 300.958C679.89 300.958 688.963 294.901 693.833 292.276M685.895 300.745C685.895 300.745 692.151 295.833 698.203 292.276M700.343 286.135C700.343 286.135 697.276 281.646 687.197 286.135C687.197 286.135 690.895 282.781 698.203 280.182M708.375 260.896C708.375 260.896 709.197 264.542 708.317 266.739" stroke="#012169" stroke-width="0.746793" stroke-miterlimit="10"/>
<path d="M692.026 278.557C692.026 278.557 694.125 275.463 699.458 273.943C699.458 273.943 700.895 277.541 705.046 276.734C705.046 276.734 711.302 275.505 709.411 268.646C709.411 268.646 708.109 263.526 700.963 263.015M722.218 254.427C722.218 254.427 729.484 255.734 729.359 261.661C729.359 261.661 729.947 270.552 720.583 272.291M728.328 258.078C728.328 258.078 730.322 253.739 734.776 251.963M729.364 249.422C729.364 249.422 731.348 252.604 732.708 253.068M728.328 251.963C728.328 251.963 730.197 254.25 730.828 254.63M727.718 254.166C727.718 254.166 728.708 255.62 729.578 256.078M690.348 219.786C690.348 219.786 691.76 217.495 695.276 218.469M709.624 236.984C709.624 236.984 711.848 227.698 719.614 231.13M716.468 230.37C716.468 230.37 717.265 226.088 715.333 223.906M711.177 230.068C711.177 230.068 712.166 231.838 711.317 233.286" stroke="#012169" stroke-width="0.746793" stroke-miterlimit="10"/>
<path d="M726.963 324.927C726.963 324.927 735.697 320.943 733.01 314.166C733.01 314.166 732.182 311.88 730.244 312.052C730.244 312.052 726.875 312.219 727.552 316.708C727.552 316.708 728.562 321.114 726.963 324.927Z" fill="#64B4D1" stroke="#012169" stroke-width="0.55987" stroke-miterlimit="2.613"/>
<path d="M730.13 320.917C730.13 320.917 732.047 319.078 731.781 315.781C731.781 315.781 731.667 315.073 732.021 314.974C732.021 314.974 732.396 314.818 732.453 315.635C732.453 315.635 732.984 319.083 730.661 321.057C730.661 321.057 730.5 321.255 730.245 321.198C730.245 321.198 729.969 321.141 730.13 320.917Z" fill="white"/>
<path d="M739.395 318.828C739.395 318.828 745.526 314.974 742.208 308.495C742.208 308.495 741.244 306.63 739.395 307.015C739.395 307.015 735.572 308.198 738.552 313.495C738.552 313.495 740.067 316.922 739.395 318.828Z" fill="#64B4D1" stroke="#012169" stroke-width="0.55987" stroke-miterlimit="2.613"/>
<path d="M740.927 310.042C740.927 310.042 740.589 309.594 740.823 309.406C740.823 309.406 740.969 309.193 741.37 309.703C741.37 309.703 743.224 311.776 741.745 314.964C741.745 314.964 741.578 315.417 741.281 315.271C741.281 315.271 741.031 315.146 741.26 314.76C741.26 314.76 742.583 312.135 740.927 310.042Z" fill="white"/>
<path d="M721.041 323.234C721.041 323.234 714.197 321.495 715.458 314.422C715.458 314.422 716.13 311.333 719.026 311.755C719.026 311.755 722.52 312.646 720.244 317.14C720.244 317.14 718.901 320.354 721.041 323.234Z" fill="#64B4D1" stroke="#012169" stroke-width="0.55987" stroke-miterlimit="2.613"/>
<path d="M718.396 314.781C718.396 314.781 718.146 314.443 718.443 314.297C718.443 314.297 718.734 314.172 718.943 314.583C718.943 314.583 719.656 315.714 719.052 317.266C719.052 317.266 718.484 318.339 718.76 319.464C718.76 319.464 718.797 319.781 718.547 319.823C718.547 319.823 718.302 319.74 718.255 319.505C718.255 319.505 717.917 318.411 718.505 317.339C718.505 317.339 719.219 315.672 718.396 314.786V314.781Z" fill="white"/>
<path d="M725.958 309.849C725.958 309.849 729.818 307.677 733.01 310.219C733.01 310.219 732.688 308.807 730.245 308.188C730.245 308.188 728.922 304.458 725.229 304.797C725.229 304.797 726.74 306.604 728.755 308.13C728.755 308.13 726.63 308.349 725.958 309.849ZM728.813 299.641C728.813 299.641 731.438 301.578 732.505 302.875C732.505 302.875 733.573 301.552 734.969 300.745C734.969 300.745 733.359 300.531 732.505 301.26C732.505 301.26 731.161 299.958 728.813 299.641Z" fill="black"/>
<path d="M713.583 307.958C713.583 307.958 713.302 307 713.973 305.984C713.973 305.984 714.421 305.25 714.255 304.291M741.744 247.656C741.744 247.656 745.833 247.375 746.505 244.213M753.671 242.125C753.671 242.125 752.244 242.068 750.958 243.364C750.958 243.364 749.973 244.833 748.578 244.667" stroke="black" stroke-width="0.746793" stroke-miterlimit="10"/>
<path d="M735.698 235.63C735.698 235.63 737.828 235.63 739.005 234.615C739.005 234.615 740.234 233.771 740.964 235.125C740.964 235.125 742.083 237.042 740.01 237.891C740.01 237.891 737.438 239.188 741.521 241.786C741.521 241.786 736.651 240.036 738.609 237.667C738.609 237.667 740.74 236.141 739.953 235.573C739.953 235.573 739.729 235.125 738.891 235.688C738.052 236.255 736.37 236.026 735.698 235.63Z" fill="black"/>
<path d="M738.593 184.213C738.593 184.213 739.552 182.906 739.161 178.984C738.77 175.062 742.177 174.609 743.484 175.739C743.484 175.739 744.838 176.911 743.593 179.401C742.875 180.833 741.729 182.693 738.593 184.213Z" fill="#64B4D1" stroke="#012169" stroke-width="0.55987" stroke-miterlimit="2.613"/>
<path d="M739.875 181.286C739.875 181.286 741.151 179.911 740.542 176.932C740.542 176.932 740.536 176.635 740.708 176.62C740.708 176.62 741.016 176.542 741.068 176.833C741.068 176.833 741.755 180.01 740.313 181.74C740.313 181.74 740.047 181.995 739.875 181.74C739.875 181.734 739.677 181.552 739.875 181.286Z" fill="white"/>
<path d="M737.505 182.786C737.505 182.786 737.406 181.208 734.671 178.521C731.937 175.833 734.182 173.354 735.859 173.375C735.859 173.375 737.593 173.401 738.218 176.047C738.578 177.573 738.885 179.682 737.505 182.786Z" fill="#64B4D1" stroke="#012169" stroke-width="0.55987" stroke-miterlimit="2.613"/>
<path d="M737.078 179.349C737.078 179.349 737.13 177.411 734.651 175.391C734.651 175.391 734.453 175.156 734.568 175.031C734.568 175.031 734.75 174.766 734.99 174.969C734.99 174.969 737.656 177.104 737.719 179.432C737.719 179.432 737.687 179.807 737.385 179.714C737.385 179.714 737.115 179.693 737.078 179.349Z" fill="white"/>
<path d="M733.791 181.599C733.791 181.599 733.078 180.312 729.703 179.114C726.322 177.917 727.239 174.963 728.656 174.333C728.656 174.333 730.135 173.687 731.713 175.661C732.625 176.807 733.718 178.458 733.791 181.599Z" fill="#64B4D1" stroke="#012169" stroke-width="0.55987" stroke-miterlimit="2.613"/>
<path d="M732.313 179.229C732.313 179.229 731.547 177.453 728.453 176.677C728.453 176.677 728.172 176.547 728.224 176.385C728.224 176.385 728.281 176.068 728.583 176.151C728.583 176.151 731.891 176.948 732.927 179.031C732.927 179.031 733.057 179.385 732.74 179.432C732.74 179.432 732.484 179.531 732.313 179.229Z" fill="white"/>
<path d="M735.906 182.891C735.906 182.891 734.333 183.333 730.718 181.588C727.104 179.844 725.52 182.88 726.151 184.505C726.151 184.505 726.812 186.182 729.614 185.891C731.229 185.719 733.395 185.297 735.906 182.891Z" fill="#64B4D1" stroke="#012169" stroke-width="0.55987" stroke-miterlimit="2.613"/>
<path d="M727.5 184.042C727.5 184.042 729.141 185.052 732.115 183.901C732.115 183.901 732.417 183.844 732.469 184.005C732.469 184.005 732.604 184.302 732.307 184.406C732.307 184.406 729.141 185.667 727.109 184.557C727.109 184.557 726.802 184.344 727.031 184.125C727.036 184.125 727.188 183.896 727.5 184.042Z" fill="white"/>
<path d="M730.619 171.463C730.619 171.463 732.421 172.338 732.005 174.458" stroke="black" stroke-width="0.746793" stroke-miterlimit="2.613"/>
<path d="M738.598 171.76C738.598 171.76 739.302 173.995 738.52 175.198" stroke="black" stroke-width="0.746793" stroke-miterlimit="10"/>
<path d="M614.031 184.213C614.031 184.213 613.072 182.906 613.463 178.984C613.859 175.062 610.447 174.609 609.14 175.739C609.14 175.739 607.786 176.911 609.031 179.401C609.75 180.833 610.895 182.693 614.031 184.213Z" fill="#64B4D1" stroke="#012169" stroke-width="0.55987" stroke-miterlimit="2.613"/>
<path d="M612.75 181.286C612.75 181.286 611.474 179.911 612.083 176.932C612.083 176.932 612.089 176.635 611.917 176.62C611.917 176.62 611.609 176.542 611.557 176.833C611.557 176.833 610.87 180.01 612.313 181.74C612.313 181.74 612.573 181.995 612.75 181.74C612.75 181.734 612.948 181.552 612.75 181.286Z" fill="white"/>
<path d="M615.119 182.786C615.119 182.786 615.218 181.208 617.953 178.521C620.687 175.833 618.442 173.354 616.765 173.375C616.765 173.375 615.031 173.401 614.406 176.047C614.046 177.573 613.739 179.682 615.119 182.786Z" fill="#64B4D1" stroke="#012169" stroke-width="0.55987" stroke-miterlimit="2.613"/>
<path d="M615.547 179.349C615.547 179.349 615.495 177.411 617.974 175.391C617.974 175.391 618.172 175.156 618.057 175.031C618.057 175.031 617.875 174.766 617.635 174.969C617.635 174.969 614.969 177.104 614.906 179.432C614.906 179.432 614.937 179.807 615.24 179.714C615.24 179.714 615.51 179.693 615.547 179.349Z" fill="white"/>
<path d="M618.833 181.599C618.833 181.599 619.546 180.312 622.921 179.114C626.296 177.917 625.385 174.963 623.963 174.333C623.963 174.333 622.489 173.687 620.911 175.661C620 176.807 618.906 178.458 618.833 181.599Z" fill="#64B4D1" stroke="#012169" stroke-width="0.55987" stroke-miterlimit="2.613"/>
<path d="M620.313 179.229C620.313 179.229 621.078 177.453 624.172 176.677C624.172 176.677 624.453 176.547 624.401 176.385C624.401 176.385 624.344 176.068 624.042 176.151C624.042 176.151 620.729 176.948 619.698 179.031C619.698 179.031 619.568 179.385 619.88 179.432C619.88 179.432 620.135 179.531 620.313 179.229Z" fill="white"/>
<path d="M616.718 182.891C616.718 182.891 618.291 183.333 621.906 181.588C625.52 179.844 627.104 182.88 626.474 184.505C626.474 184.505 625.807 186.182 623.01 185.891C621.395 185.719 619.229 185.297 616.718 182.891Z" fill="#64B4D1" stroke="#012169" stroke-width="0.55987" stroke-miterlimit="2.613"/>
<path d="M625.125 184.042C625.125 184.042 623.484 185.052 620.51 183.901C620.51 183.901 620.208 183.844 620.156 184.005C620.156 184.005 620.021 184.302 620.318 184.406C620.318 184.406 623.479 185.667 625.516 184.557C625.516 184.557 625.823 184.344 625.589 184.125C625.589 184.125 625.437 183.896 625.125 184.042Z" fill="white"/>
<path d="M622.005 171.463C622.005 171.463 620.203 172.338 620.619 174.458" stroke="black" stroke-width="0.746793" stroke-miterlimit="2.613"/>
<path d="M614.026 171.76C614.026 171.76 613.322 173.995 614.099 175.198" stroke="black" stroke-width="0.746793" stroke-miterlimit="10"/>
<path d="M692.406 151.224C692.406 151.224 693.552 154.49 693.057 157.448C692.615 160.094 693.219 160.776 694.172 161.302C695 161.755 696.917 160.964 697.151 158.885C697.151 158.885 699.417 163.313 695.01 166.297C695.01 166.297 691.839 168.245 689.151 165.641C688.203 164.724 687.786 162.188 688.25 159.839C688.25 159.839 688.943 156.651 687.786 153.38C687.786 153.38 689.594 155.307 689.13 159.151C689.13 159.151 688.203 166.042 693.307 165.703C693.307 165.703 696.833 165.661 696.938 161.385C696.938 161.385 695.615 162.911 693.979 162.401C692.818 162.042 691.755 160.917 691.943 159.151C692.141 157.292 692.656 154.057 692.406 151.224ZM686.625 162.542C686.625 162.542 686.344 167.99 681.365 169.318C681.365 169.318 682.063 168.328 680.943 165.62C680.943 165.62 679.849 164.036 679.938 161.583C679.938 161.583 678.349 162.823 680.161 166.099C681.25 168.073 680.297 170.448 679.964 170.531C679.625 170.615 688.193 169.401 686.625 162.542ZM680.156 157.12C680.156 157.12 678.953 155.766 678.87 152.63C678.786 149.5 678.198 148.734 677.776 148.37C677.776 148.37 678.396 151.078 678.224 152.745C678.057 154.411 678.339 155.37 678.563 156.161C678.563 156.161 675.844 156.583 674.141 152.63C672.505 148.854 670.865 149.161 670.052 149.188C670.052 149.188 671 149.292 672.906 152.745C674.813 156.193 675.344 156.896 680.156 157.12ZM667.448 148.932C667.448 148.932 669.016 152.688 669.073 154.667C669.073 154.667 665.432 153.453 664.453 150.292C664.453 150.292 660.563 151.615 661.99 156.104C661.99 156.104 658.63 154.922 657.12 152.182C657.12 152.182 658.995 153.594 660.729 154.214C660.729 154.214 660.536 150.599 665.068 149.245C665.068 149.245 665.745 152.479 668.01 153.255C668.01 153.255 667.839 151.224 667.448 148.932ZM673.438 142.5C673.438 142.5 674.698 144.333 677.276 144.417C678.505 144.458 679.833 144.182 681.109 142.5C681.109 142.5 680.943 145.688 677.276 145.719C677.276 145.719 673.438 145.859 673.438 142.5ZM657.573 164.307C657.573 164.307 659.484 166.042 659.885 166.615C659.885 166.615 661.229 167.927 662.38 166.229C662.38 166.229 663.854 163.516 665.656 163.589C665.656 163.589 664.375 164.474 662.938 167.042C662.938 167.042 662.547 167.99 661.479 168.094C660.979 168.146 660.344 168.307 659.385 167.307C659.385 167.307 658.563 166.297 657.573 164.307ZM677.276 129.708C673.438 129.708 676.672 132.672 676.672 132.672C676.755 137.375 672.984 138.818 670.417 137.458C667.849 136.094 669.854 132.672 669.854 132.672C669.854 132.672 666.958 134.578 668.807 137.333C670.656 140.083 675.5 138.854 677.276 136.313C679.052 138.854 683.896 140.083 685.745 137.333C687.589 134.578 684.693 132.672 684.693 132.672C684.693 132.672 686.703 136.094 684.135 137.458C681.568 138.818 677.792 137.375 677.875 132.672C677.875 132.672 681.109 129.708 677.276 129.708ZM679.599 124.63C679.599 124.63 680.943 126.917 680.646 130.385C680.646 130.385 681.865 126.917 679.599 124.63ZM667.839 130.005C667.839 130.005 667.547 127.505 665.109 127.297C665.109 127.297 667.167 128.776 667.839 130.005ZM686.74 130.005C686.74 130.005 687.031 127.505 689.469 127.297C689.469 127.297 687.406 128.776 686.74 130.005ZM663.979 133.818C663.979 133.818 665.906 134.411 667.083 132.969C667.083 132.969 664.859 133.563 663.979 133.818ZM657.719 118.49C657.719 118.49 659.969 118.234 662.214 121.578C662.214 121.578 659.99 122.766 659.443 123.484C659.443 123.484 659.443 122.385 660.536 121.411C660.531 121.411 660.115 119.714 657.719 118.49ZM695.344 118.49C695.344 118.49 693.099 118.234 690.854 121.578C690.854 121.578 693.078 122.766 693.625 123.484C693.625 123.484 693.625 122.385 692.531 121.411C692.531 121.411 692.953 119.714 695.344 118.49ZM678.005 120.984C678.005 120.984 680.021 121.536 682.536 120.141C682.536 120.141 685.646 118.49 687.62 120.141C687.62 120.141 685.896 119.375 682.578 120.984C682.578 120.984 679.26 122.802 678.005 120.984Z" fill="black"/>
<path d="M680.104 123.021C680.104 123.021 681.823 120 687.073 120.599C687.073 120.599 685.646 124.797 680.104 123.021Z" fill="white"/>
<path d="M684.76 122.083C684.76 122.448 684.661 122.755 684.458 123.01C684.255 123.271 684.01 123.396 683.724 123.396C683.437 123.396 683.193 123.271 682.99 123.01C682.786 122.755 682.688 122.448 682.688 122.083C682.688 121.719 682.786 121.411 682.99 121.151C683.193 120.896 683.437 120.766 683.724 120.766C684.01 120.766 684.255 120.896 684.458 121.151C684.661 121.411 684.76 121.719 684.76 122.083Z" fill="#784421"/>
<path d="M684.339 122.083C684.339 122.307 684.281 122.495 684.161 122.651C684.036 122.812 683.896 122.891 683.724 122.891C683.552 122.891 683.406 122.812 683.286 122.651C683.167 122.495 683.104 122.307 683.104 122.083C683.104 121.859 683.167 121.672 683.286 121.51C683.406 121.354 683.552 121.276 683.724 121.276C683.896 121.276 684.036 121.354 684.161 121.51C684.281 121.672 684.339 121.859 684.339 122.083Z" fill="black"/>
<path d="M668.849 116.583C668.849 116.583 672.167 116.797 674.182 118.062C674.182 118.062 676.323 119.333 678.76 117.516C678.76 117.516 681.406 115.99 683.104 113.87C683.104 113.87 679.052 116.667 677.542 117.089C677.542 117.089 676.156 116.031 675.609 114.505C675.609 114.505 675.818 113.365 678 111.245C678 111.245 675.062 112.135 674.474 114.635C674.474 114.635 675.021 116.161 676.156 117.344C676.156 117.344 675.609 117.599 674.182 116.708C674.182 116.708 671.073 115.651 668.849 116.583ZM677.276 136.505C674.406 138.984 677.276 138.729 677.276 138.729C677.276 138.729 680.146 138.984 677.276 136.505ZM675.615 120.984C675.615 120.984 673.599 121.536 671.078 120.141C671.078 120.141 667.969 118.49 666 120.141C666 120.141 667.719 119.375 671.036 120.984C671.036 120.984 674.354 122.802 675.615 120.984Z" fill="black"/>
<path d="M673.516 123.021C673.516 123.021 671.792 120 666.542 120.599C666.542 120.599 667.974 124.797 673.516 123.021Z" fill="white"/>
<path d="M670.932 122.083C670.932 122.448 670.833 122.755 670.63 123.01C670.427 123.271 670.182 123.396 669.896 123.396C669.609 123.396 669.365 123.271 669.161 123.01C668.958 122.755 668.854 122.448 668.854 122.083C668.854 121.719 668.958 121.411 669.161 121.151C669.365 120.896 669.609 120.766 669.896 120.766C670.182 120.766 670.427 120.896 670.63 121.151C670.833 121.411 670.932 121.719 670.932 122.083Z" fill="#784421"/>
<path d="M670.51 122.083C670.51 122.307 670.453 122.495 670.328 122.651C670.208 122.812 670.063 122.891 669.896 122.891C669.724 122.891 669.578 122.812 669.458 122.651C669.339 122.495 669.276 122.307 669.276 122.083C669.276 121.859 669.339 121.672 669.458 121.51C669.578 121.354 669.724 121.276 669.896 121.276C670.063 121.276 670.208 121.354 670.328 121.51C670.453 121.672 670.51 121.859 670.51 122.083Z" fill="black"/>
<path d="M778.661 95.8541V286.135C778.661 336.963 677.057 353.479 677.057 353.479C677.057 353.479 575.453 336.963 575.453 286.135V95.8541H778.661Z" stroke="black" stroke-width="1.79734"/>
</g>
</g>
<defs>
<clipPath id="clip0_763_2534">
<rect width="900" height="450" fill="white"/>
</clipPath>
</defs>
</svg>
