<svg width="900" height="450" viewBox="0 0 900 450" fill="none" xmlns="http://www.w3.org/2000/svg">
<g clip-path="url(#clip0_763_2723)">
<path d="M900 0H0V450H900V0Z" fill="#1E1E1E"/>
<mask id="mask0_763_2723" style="mask-type:luminance" maskUnits="userSpaceOnUse" x="0" y="0" width="900" height="450">
<path d="M900 0H0V450H900V0Z" fill="white"/>
</mask>
<g mask="url(#mask0_763_2723)">
<mask id="mask1_763_2723" style="mask-type:luminance" maskUnits="userSpaceOnUse" x="0" y="0" width="900" height="450">
<path d="M0 0H900V450H0V0Z" fill="white"/>
</mask>
<g mask="url(#mask1_763_2723)">
<path d="M0 0H900V450H0V0Z" fill="white"/>
<path d="M0 0H900V450H0V0Z" fill="white"/>
<path d="M0 0H900V450H0V0Z" fill="#F7E017"/>
</g>
<mask id="mask2_763_2723" style="mask-type:luminance" maskUnits="userSpaceOnUse" x="0" y="30" width="900" height="296">
<path d="M0 30.6667H900V325.333H0V30.6667Z" fill="white"/>
</mask>
<g mask="url(#mask2_763_2723)">
<path d="M0 31.2031V230.906L900 324.521V218.427L0 31.2031Z" fill="white"/>
</g>
<mask id="mask3_763_2723" style="mask-type:luminance" maskUnits="userSpaceOnUse" x="0" y="136" width="900" height="283">
<path d="M0 136H900V418.667H0V136Z" fill="white"/>
</mask>
<g mask="url(#mask3_763_2723)">
<path d="M0 137.297V230.906L900 418.13V324.521L0 137.297Z" fill="black"/>
</g>
<path d="M434.859 355.547C422.776 353.943 411.698 350.099 404.005 344.833C402.516 343.807 401.109 342.974 400.891 342.974C400.667 342.974 400.484 344.109 400.484 345.516C400.484 349.49 398.891 351.49 394.87 352.536C391.026 353.531 385.156 351.516 380.401 347.573C375.479 343.484 369.792 340.365 364.984 339.115C361.021 338.078 355.76 338.25 351.958 339.521C350.193 340.115 348.182 340.953 347.484 341.38C346.792 341.813 346.01 342.161 345.76 342.161C345.089 342.161 345.182 337.885 345.885 336.521C346.818 334.729 349.104 332.964 351.776 331.99C353.125 331.495 354.229 330.865 354.229 330.583C354.229 330.302 353.776 329.276 353.219 328.307C351.406 325.135 352.151 322.068 355.307 319.651C358.542 317.182 364.016 316.755 368.849 318.599C370.068 319.057 371.203 319.438 371.375 319.438C372.01 319.438 371.62 318.547 369.87 315.995C367.849 313.036 367.448 311.578 367.698 308.057C368.021 303.599 371.651 299.953 376.104 299.63C379.734 299.37 381.995 300.594 387.354 305.698C403.365 320.964 420.771 329.375 441.068 331.651C446.193 332.229 456.505 331.922 462.552 331.01C480.818 328.255 499.219 319.073 513.594 305.536C517.573 301.786 519.49 300.792 522.755 300.781C525.594 300.766 527.583 301.682 529.62 303.932C531.474 305.99 532.104 307.943 531.901 311.073C531.771 313.073 531.448 314.057 530.255 316C528.495 318.865 528.797 319.125 532.276 317.781C536.984 315.943 542.781 316.792 545.906 319.766C548.661 322.38 548.922 324.995 546.781 328.536C546 329.839 545.365 331.052 545.365 331.245C545.365 331.604 545.958 331.771 548.818 332.234C552.552 332.833 554.693 335.609 554.693 339.854C554.693 341.125 554.536 342.161 554.344 342.161C554.156 342.161 552.74 341.646 551.198 341.005C546.844 339.208 544.365 338.75 539.276 338.781C535.401 338.802 534.063 338.984 531.359 339.865C527.224 341.219 522.797 343.828 519.193 347.042C515.214 350.589 512.714 351.703 508.844 351.672C505.25 351.635 502.792 350.594 501.495 348.542C500.802 347.443 500.698 346.776 500.87 344.292C500.979 342.672 500.953 341.349 500.823 341.349C500.688 341.349 499.292 342.234 497.708 343.328C493.568 346.177 490.927 347.583 486.182 349.464C471.719 355.188 450.844 357.661 434.859 355.547Z" fill="#CF1126"/>
<path d="M441.474 327.745C417.396 325.432 394.359 312.896 380.354 293.01C365.146 272.271 360.354 244.885 364.995 219.844C367.464 208.443 372.437 197.036 380.937 188.922C374.167 203.276 371.875 219.729 375.49 235.281C381.099 266.333 407.339 292.615 438.729 297.161C451.151 300.76 464 296.964 475.859 293.109C502.031 283.885 521.969 259.047 524.401 231.276C526.484 216.25 524.177 200.625 517.406 187.021C521.266 189.062 526.135 197.062 529.005 202.437C538.995 221.786 539.453 244.974 533.573 265.62C525.594 291.891 505.51 314.911 478.958 323.276C466.906 327.214 454.094 328.411 441.479 327.75L441.474 327.745Z" fill="#CF1126"/>
<path d="M320.203 293.255C318.625 293.005 316.885 294.557 317.484 296.182C318.62 297.828 320.578 298.63 322.349 299.417C326.589 301.115 331.198 301.776 335.75 301.667C334.177 301.661 336.286 301.682 336.875 301.667C340.474 301.677 344.057 301.026 347.448 299.807C349.328 299.146 351.729 298.542 352.5 296.458C353.255 295.104 351.891 293.75 350.516 294.021C348.599 294.438 346.807 295.307 344.906 295.802C340.802 296.958 336.484 297.406 332.234 297.057C329.125 296.677 326.115 295.682 323.24 294.474C322.245 294.031 321.307 293.391 320.203 293.255Z" fill="#CF1126"/>
<path d="M321.958 286.776C320.365 286.536 318.99 288.375 319.656 289.839C320.88 291.615 322.943 292.562 324.87 293.396C328.219 294.734 331.859 295.297 335.464 295.187C334.094 295.187 335.932 295.203 336.438 295.187C339.5 295.193 342.547 294.589 345.38 293.422C347.109 292.75 349.229 292.094 349.948 290.193C350.51 289.146 350.083 287.62 348.766 287.542C347.563 287.479 346.521 288.245 345.406 288.589C341.359 290.266 336.906 290.974 332.542 290.599C329.823 290.245 327.229 289.245 324.76 288.083C323.833 287.635 323 286.937 321.958 286.776Z" fill="#CF1126"/>
<path d="M324.109 280.568C322.745 280.401 321.802 281.943 322.036 283.177C322.24 284.255 323.208 284.984 324.01 285.646C327.339 288.078 331.552 289.115 335.635 288.979C334.052 288.974 337.766 289.005 336.63 288.974C339.219 288.964 341.771 288.333 344.099 287.214C345.651 286.536 347.474 285.755 348 283.979C348.25 283.156 348.406 281.969 347.474 281.505C346.5 280.958 345.531 281.797 344.641 282.135C341.651 283.656 338.323 284.505 334.964 284.49C332.062 284.589 329.328 283.365 326.807 282.052C325.896 281.583 325.141 280.776 324.109 280.568Z" fill="#CF1126"/>
<path d="M301.177 188.906C299.146 190.943 300.698 194.693 300.589 197.359C301.641 205.573 302.948 213.885 306.016 221.62C309.766 229.172 317.74 233.208 322.573 239.88C324.302 243.099 323.687 246.969 324.052 250.49C324.339 260.078 324.245 269.672 324.078 279.266C328.411 281.438 333.115 283.625 338.094 282.792C341.047 282.083 346.526 281.646 347.141 278.703C346.901 262.167 346.745 245.625 346.526 229.089C344.849 224.021 339.693 221.401 335.839 218.156C332.656 215.021 329.693 211.646 326.984 208.109C325.349 205.354 318.953 204.359 321.266 209.156C322.62 213.307 326.083 216.401 326.948 220.766C327.141 223.156 329.995 227.557 327.557 228.948C326.005 226.318 323.76 224.073 320.891 222.734C318.125 220.672 313.552 219.818 312.552 216.172C311.823 211.005 309.177 206.323 305.76 202.453C306.641 197.812 305.76 192.005 301.75 189.042L301.177 188.906Z" fill="#CF1126"/>
<path d="M307.359 189.839C305.51 190.135 305.573 192.495 306.432 193.729C307.339 196.406 307.589 199.313 307.094 202.099C310.385 205.948 312.927 210.552 313.698 215.604C313.714 217.505 315.714 218.13 317.01 219.073C320.047 221.005 323.469 222.411 326.177 224.833C326.745 225.443 327.172 226.099 326.771 224.854C326.349 223.266 326.13 221.51 324.885 220.307C323.182 218.474 321.047 216.839 318.562 216.276C318.354 213.708 317.13 211.349 316.005 209.078C314.75 206.911 313.443 204.583 311.297 203.177C311.385 199.37 311.323 195.375 309.682 191.865C309.203 190.964 308.495 189.891 307.359 189.839Z" fill="#CF1126"/>
<path d="M312.536 191.354C311.245 191.734 311.495 193.323 311.901 194.297C312.516 196.99 312.615 199.771 312.562 202.526C314.932 204.396 316.411 207.115 317.755 209.755C318.604 211.521 319.401 213.344 319.729 215.286C321.646 215.922 323.328 217.125 324.828 218.458C324.234 216.656 322.906 215.266 322.016 213.625C321.047 211.917 320.12 210.135 319.714 208.198C317.865 206.229 316.849 203.438 317.255 200.74C317.333 197.76 316.375 194.682 314.38 192.432C313.875 191.938 313.276 191.391 312.536 191.354Z" fill="#CF1126"/>
<path d="M318.422 192.198C317.719 192.323 317.292 192.984 316.917 193.531C316.771 194.073 317.443 194.661 317.547 195.25C318.365 197.307 318.677 199.562 318.432 201.76C318.375 203.323 318.937 204.844 319.729 206.167C319.964 205.193 320.865 204.49 321.844 204.396C322.203 204.333 322.724 204.51 322.516 203.969C322.271 200.984 321.812 197.979 320.771 195.156C320.365 194.151 319.906 193.089 319.031 192.401C318.854 192.276 318.646 192.167 318.422 192.198Z" fill="#CF1126"/>
<path d="M579.797 293.255C581.375 293.005 583.115 294.557 582.516 296.182C581.38 297.828 579.422 298.63 577.651 299.417C573.411 301.115 568.802 301.776 564.25 301.667C565.823 301.661 563.714 301.682 563.125 301.667C559.526 301.677 555.943 301.026 552.552 299.807C550.672 299.146 548.271 298.542 547.5 296.458C546.745 295.104 548.109 293.75 549.484 294.021C551.401 294.438 553.193 295.307 555.094 295.802C559.198 296.958 563.516 297.406 567.766 297.057C570.875 296.677 573.885 295.682 576.76 294.474C577.755 294.031 578.693 293.391 579.797 293.255Z" fill="#CF1126"/>
<path d="M578.042 286.776C579.635 286.536 581.01 288.375 580.344 289.839C579.12 291.615 577.057 292.562 575.13 293.396C571.781 294.734 568.141 295.297 564.536 295.187C565.906 295.187 564.068 295.203 563.563 295.187C560.5 295.193 557.453 294.589 554.62 293.422C552.891 292.75 550.771 292.094 550.052 290.193C549.49 289.146 549.917 287.62 551.234 287.542C552.438 287.479 553.479 288.245 554.594 288.589C558.641 290.266 563.094 290.974 567.458 290.599C570.177 290.245 572.771 289.245 575.24 288.083C576.167 287.635 577 286.937 578.042 286.776Z" fill="#CF1126"/>
<path d="M575.891 280.568C577.255 280.401 578.198 281.943 577.964 283.177C577.76 284.255 576.792 284.984 575.99 285.646C572.661 288.078 568.448 289.115 564.365 288.979C565.948 288.974 562.234 289.005 563.37 288.974C560.781 288.964 558.229 288.333 555.901 287.214C554.349 286.536 552.526 285.755 552 283.979C551.75 283.156 551.594 281.969 552.526 281.505C553.5 280.958 554.469 281.797 555.359 282.135C558.349 283.656 561.677 284.505 565.036 284.49C567.938 284.589 570.672 283.365 573.193 282.052C574.104 281.583 574.859 280.776 575.885 280.568H575.891Z" fill="#CF1126"/>
<path d="M598.823 188.906C600.854 190.943 599.302 194.693 599.411 197.359C598.359 205.573 597.052 213.885 593.984 221.62C590.234 229.172 582.26 233.208 577.427 239.88C575.698 243.099 576.313 246.969 575.948 250.49C575.661 260.078 575.75 269.672 575.922 279.266C571.589 281.438 566.885 283.625 561.906 282.792C558.953 282.083 553.474 281.646 552.859 278.703C553.099 262.167 553.255 245.625 553.474 229.089C555.151 224.021 560.307 221.401 564.161 218.156C567.344 215.021 570.307 211.646 573.016 208.109C574.651 205.354 581.047 204.359 578.734 209.156C577.38 213.307 573.917 216.401 573.052 220.766C572.859 223.156 570.005 227.557 572.443 228.948C573.995 226.318 576.24 224.073 579.109 222.734C581.875 220.672 586.448 219.818 587.448 216.172C588.177 211.005 590.823 206.323 594.24 202.453C593.359 197.812 594.24 192.005 598.25 189.042L598.823 188.906Z" fill="#CF1126"/>
<path d="M592.641 189.839C594.49 190.135 594.427 192.495 593.568 193.729C592.661 196.406 592.411 199.313 592.906 202.099C589.615 205.948 587.073 210.552 586.302 215.604C586.286 217.505 584.286 218.13 582.99 219.073C579.953 221.005 576.531 222.411 573.823 224.833C573.255 225.443 572.828 226.099 573.229 224.854C573.651 223.266 573.87 221.51 575.115 220.307C576.818 218.474 578.953 216.839 581.438 216.276C581.646 213.708 582.87 211.349 583.995 209.078C585.25 206.911 586.557 204.583 588.703 203.177C588.615 199.37 588.677 195.375 590.318 191.865C590.797 190.964 591.505 189.891 592.641 189.839Z" fill="#CF1126"/>
<path d="M587.464 191.354C588.755 191.734 588.505 193.323 588.099 194.297C587.484 196.99 587.385 199.771 587.438 202.526C585.068 204.396 583.589 207.115 582.245 209.755C581.396 211.521 580.599 213.344 580.271 215.286C578.354 215.922 576.672 217.125 575.172 218.458C575.766 216.656 577.094 215.266 577.984 213.625C578.953 211.917 579.88 210.135 580.286 208.198C582.135 206.229 583.151 203.438 582.745 200.74C582.667 197.76 583.625 194.682 585.62 192.432C586.125 191.938 586.724 191.391 587.464 191.354Z" fill="#CF1126"/>
<path d="M581.578 192.198C582.281 192.323 582.708 192.984 583.083 193.531C583.229 194.073 582.557 194.661 582.453 195.25C581.635 197.307 581.323 199.562 581.568 201.76C581.625 203.323 581.062 204.844 580.271 206.167C580.036 205.193 579.135 204.49 578.156 204.396C577.797 204.333 577.276 204.51 577.484 203.969C577.729 200.984 578.187 197.979 579.229 195.156C579.635 194.151 580.094 193.089 580.969 192.401C581.146 192.276 581.354 192.167 581.578 192.198Z" fill="#CF1126"/>
<path d="M447.297 297.047C438.875 296.245 431.281 290.109 428.682 282.068C428.823 280.688 430.547 282.844 431.359 282.99C432.891 283.839 434.542 284.536 436.302 284.646C438.526 285.599 439.896 287.786 442.016 288.927C443 289.693 446.479 291.203 445.833 288.766C445.016 287.49 444.458 285.88 445.161 284.422C446.339 281.828 448.156 279.573 449.984 277.411C451.328 276.964 452.224 279.615 453.187 280.505C454.516 282.552 456.12 285.052 455.339 287.594C454.578 288.531 454.078 291.365 456.115 290.411C458.625 289.307 460.677 287.453 462.76 285.724C464.583 284.448 466.911 284.359 468.823 283.245C469.708 283.021 471.547 281.25 471.932 282.234C470.885 285.031 469.135 287.542 467.266 289.854C464.229 293.318 460.13 295.922 455.542 296.656C452.828 297.151 450.042 297.255 447.297 297.047Z" fill="#CF1126"/>
<path d="M457.198 287.214C457.38 285.521 456.995 283.797 456.13 282.26C454.807 279.563 452.937 277.161 451.109 274.797C449.391 273.786 448.437 277.078 447.292 278.021C445.51 280.693 443.271 283.427 443.161 286.781C442.161 288.344 440.292 285.51 439.484 284.578C437.943 282.396 436.776 279.818 436.969 277.094C436.786 272.703 437.63 268.333 439.229 264.25C440.437 260.766 442.396 257.38 442.198 253.578C442.333 250.714 441.755 247.547 439.432 245.62C437.224 243.891 440.865 243.521 442.021 244.417C443.995 244.552 445.068 247.818 446.875 247.01C447.594 245.302 447.734 243.266 449.219 241.938C450.677 239.943 452.198 242.781 452.698 244.115C453.724 245.281 452.635 248.172 454.307 248.25C456.307 246.849 457.734 244.49 460.292 243.979C461.328 243.385 463.104 243.901 461.734 245.094C459.844 246.87 458.224 249.089 457.88 251.729C457.302 255.036 458.13 258.396 459.573 261.38C462.349 267.24 464.495 273.859 463.089 280.38C462.437 283.281 460.469 285.776 458.078 287.458C457.776 287.641 457.297 287.63 457.198 287.214Z" fill="#CF1126"/>
<path d="M454.198 243.156C453.292 241.521 452.187 239.906 450.661 238.792C449.172 238.792 448.255 240.667 447.245 241.646C446.542 242.964 445.677 245.167 443.937 243.443C441.161 241.828 440.672 238.281 440.687 235.359C440.516 230.62 442.422 226.198 444.12 221.885C445.198 219.182 444.932 216.146 444.271 213.375C443.443 210.198 440.896 207.995 438.932 205.516C439.062 204.557 441.573 205.083 442.516 205.266C444.615 205.797 445.865 207.651 447.427 208.964C448.542 208.625 448.089 206.38 448.604 205.323C448.641 203.833 450.625 201.875 451.437 204.005C452.661 205.354 451.401 208.036 452.979 208.88C454.484 208.323 455.224 206.677 456.641 205.932C458.031 204.984 459.995 204.88 461.495 205.625C462.021 207.005 459.849 208.156 459.219 209.354C456.687 212.479 455.802 216.786 456.88 220.656C457.74 223.693 459.26 226.526 459.786 229.667C460.422 233.193 460.401 236.901 459.484 240.375C458.937 242.484 457.115 243.896 455.224 244.771C454.76 244.339 454.516 243.703 454.198 243.161V243.156Z" fill="#CF1126"/>
<path d="M444.766 204.005C442.667 202.469 441.974 201 441.974 198.099C441.974 196.615 442.25 195.813 443.229 194.464C444.672 192.464 444.406 191.833 442.37 192.422C439.083 193.365 437.521 192.5 437.406 189.708C437.354 188.339 437.646 187.76 439.484 185.552C440.958 183.776 441.495 182.849 441.203 182.552C440.911 182.266 439.172 183.776 435.594 187.417C432.745 190.318 429.536 193.281 428.469 194.005C422.328 198.151 416.464 198.792 413.786 195.604C412.411 193.974 412.484 193.057 414.073 192.073C414.802 191.62 416.031 190.589 416.813 189.771C418.651 187.854 424.141 183.896 426.859 182.521C429.068 181.406 429.594 180.651 428.156 180.651C426.297 180.651 420.333 184.531 415.807 188.688C414.479 189.917 412.563 191.286 411.557 191.729C409.297 192.729 404.859 193.094 402.891 192.448C401.495 191.984 398.958 189.589 398.958 188.734C398.958 188.51 399.536 188.01 400.245 187.63C400.948 187.255 402.214 186.339 403.052 185.604C406.672 182.432 413.531 179.161 418.969 178.016C420.698 177.656 420.063 176.781 418.135 176.87C414.396 177.031 406.974 180.505 402.547 184.167C397.354 188.448 389.521 188.042 387 183.359C386.563 182.552 386.307 181.797 386.432 181.682C386.552 181.563 388.094 181.099 389.859 180.651C391.766 180.172 395.547 178.604 399.161 176.802C404.849 173.969 406.531 173.359 410.448 172.729C412.208 172.453 412.302 171.589 410.589 171.391C408.385 171.13 405.01 172.234 399.047 175.167C391.38 178.938 389.234 179.583 385.198 179.349C381.516 179.12 379.438 178.182 376.448 175.354C374.495 173.5 371.724 168.792 372.266 168.25C372.396 168.12 373.297 168.25 374.26 168.531C375.333 168.849 378.411 169.063 382.12 169.068C387.307 169.083 388.682 168.943 391.448 168.146C396.073 166.807 402.219 163.682 406.427 160.542C414.474 154.526 421.031 152.115 429.391 152.073C437.115 152.042 442.026 153.828 446.375 158.24C447.849 159.734 449.099 160.698 449.307 160.495C449.5 160.302 449.714 157.693 449.776 154.698C449.776 154.698 452.047 154.479 452.526 155.115C452.526 159.974 452.583 160.354 453.286 160.354C453.75 160.354 454.245 159.88 454.552 159.146C455.214 157.552 457.656 155.375 460.271 154.052C465.922 151.188 475.693 151.099 483.542 153.839C486.854 155 490.521 157.073 494.016 159.771C497.521 162.464 504.693 166.073 508.932 167.276C513.219 168.495 520.776 168.802 524.651 167.922C526.25 167.557 527.745 167.26 527.984 167.26C529.411 167.26 526.979 172.021 524.12 174.807C518.896 179.917 512.104 179.891 502.542 174.734C496.583 171.526 489.453 169.776 489.453 171.521C489.453 171.885 489.828 172.125 490.385 172.125C492.458 172.125 496.458 173.516 502.036 176.161C508.068 179.036 511.458 180.245 513.469 180.245C514.927 180.245 514.974 181.151 513.615 183.146C512.172 185.276 509.724 186.328 506.266 186.323C502.964 186.313 501.13 185.589 498.177 183.135C493.245 179.026 480.943 174.448 481.417 176.896C481.51 177.38 482.104 177.682 483.37 177.875C487.651 178.531 492.672 180.927 497.818 184.776C499.401 185.969 501.047 187.141 501.469 187.391C502.172 187.802 502.188 187.927 501.63 188.969C500.708 190.693 498.38 192.026 495.859 192.292C492.594 192.625 489.755 191.651 486.813 189.193C480.609 184 474.766 180.245 472.891 180.245C471.365 180.245 472.047 181.089 474.745 182.516C478.292 184.396 481.932 186.938 484.62 189.401C485.885 190.573 487.313 191.734 487.786 191.99C488.911 192.589 488.87 193.469 487.63 195.089C486.37 196.734 484.286 197.458 481.583 197.172C476.193 196.604 471.984 194 465.375 187.141C462.792 184.464 460.49 182.276 460.255 182.276C459.375 182.276 459.891 183.464 461.594 185.375C463.703 187.734 464.109 189.063 463.313 190.979C462.604 192.677 461.432 193.068 459.026 192.422C456.557 191.755 456.172 192.359 457.786 194.37C460.198 197.37 459.844 201.047 456.891 203.573C455.974 204.354 455.01 204.995 454.75 204.995C454.495 204.995 453.844 204.328 453.302 203.51C451.406 200.63 449.74 200.646 447.891 203.563C447.25 204.578 446.703 205.401 446.688 205.396C446.661 205.391 445.792 204.766 444.766 204.005Z" fill="#CF1126"/>
<path d="M454.161 145.427L450.964 147.964L448.089 145.797V163.109L454.161 163.182V145.427Z" fill="#CF1126"/>
<path d="M434.328 127.469C433.693 135.651 431.615 141.359 428.724 147.656L435.651 141.234L440.469 146.958L445.688 141.135L451.01 146.052L456.13 140.938L461.448 147.156L466.063 142.042L473.891 147.656C471.052 141.359 467.208 136.026 467.688 127.161C460.104 132.797 442.089 133.813 434.328 127.469Z" fill="#CF1126"/>
<path d="M448.099 123.292C445.313 123.344 442.38 123.38 439.74 123.896C437.911 124.26 436.25 124.854 434.865 125.833C435.089 131.156 460.453 133.375 467.255 125.932C465.828 124.891 464.078 124.271 462.156 123.896C459.615 123.406 456.807 123.354 454.146 123.312C454.146 124.771 454.156 126.24 454.156 127.703L448.099 127.687V123.292Z" fill="#CF1126"/>
<path d="M453.057 96.0885L449.12 96.1198V126.937L453.141 126.953L453.057 96.0885Z" fill="#CF1126"/>
<path d="M453.052 96.8802L451.547 111.635L466.724 119.047L459.042 108.776L469.531 105.375L453.052 96.8802Z" fill="#CF1126"/>
<path d="M451.359 93.0365C449.057 93.0365 447.354 93.8958 447.354 94.9219C447.354 95.9479 449.057 96.8125 451.359 96.8125C453.661 96.8125 455.354 95.9479 455.354 94.9219C455.354 93.8958 453.661 93.0365 451.359 93.0365Z" fill="#CF1126"/>
<path d="M444.417 351.865C446.906 351.042 448.323 349.531 449.339 346.625C449.844 345.177 450.188 343.672 450.099 343.281C449.885 342.349 448.813 342.401 447.63 343.385C446.818 344.068 446.719 344.406 446.948 345.792C447.542 349.286 446.297 350.156 439.682 350.87C439.031 350.938 437.13 350.823 435.458 350.62C432.313 350.224 431.193 350.536 432.333 351.484C432.677 351.771 433.547 352.161 434.271 352.339C436.042 352.797 442.526 352.49 444.417 351.865Z" fill="#F7E017"/>
<path d="M458.125 351.286C458.5 350.943 459.786 350.349 460.984 349.964C462.583 349.453 463.406 348.901 464.078 347.896C466.021 345.005 465.656 342.516 462.807 339.161C461.26 337.339 460.573 337.385 459.339 339.411C458.271 341.156 458.292 341.271 459.828 341.667C460.635 341.875 461.406 342.469 461.833 343.198C463.505 346.094 463.01 347.885 460.536 347.901C458.286 347.922 457.672 348.24 457.063 349.693C456.745 350.448 456.49 351.255 456.49 351.484C456.49 352.099 457.339 351.99 458.125 351.286Z" fill="#F7E017"/>
<path d="M453.625 348.016C454.052 346.87 454.198 344.802 454.151 340.589C454.12 337.38 453.995 334.661 453.87 334.536C453.495 334.161 451.646 335.354 451.406 336.12C451.281 336.521 451.484 337.443 451.859 338.167C452.432 339.286 452.51 340.328 452.333 344.703C452.109 350.229 452.469 351.161 453.625 348.016Z" fill="#F7E017"/>
<path d="M443.068 345.38C443.292 344.354 443.578 342.245 443.708 340.703C443.839 339.161 444.156 337.214 444.406 336.37C445.047 334.214 444.401 333.641 442.698 334.854L441.432 335.76L441.693 338.859C441.938 341.656 441.495 346.87 440.849 348.891C440.677 349.427 440.927 349.286 441.63 348.464C442.198 347.802 442.849 346.411 443.068 345.38Z" fill="#F7E017"/>
<path d="M433.698 346.885C435.979 344.979 435.714 341.724 436.219 339.073C436.167 337.307 437.344 335.198 436.589 333.656C434.458 334.042 433.146 336.063 434.234 338.068C434.323 340.401 434.245 342.943 433.042 345.005C432.063 346.354 428.958 346.016 429.104 344.104C429.88 341.229 426.438 342.63 425.094 343.385C424.052 344.109 421.859 344.161 422.62 342.349C422.12 339.938 419.016 341.448 417.328 341.432C415.734 341.406 417.198 338.208 414.911 338.771C410.661 338.432 405.974 338.807 402.297 336.24C400.146 335.208 400.464 332.62 401.583 330.943C402.922 328.656 403.307 325.797 405.427 324.021C407.531 322.005 403.448 322.854 402.526 323.536C400.479 324.656 402.38 327.542 400.703 329.146C399.724 330.807 398.438 333.099 396.167 332.781C392.896 332.167 391.01 329.12 388.667 327.083C386.661 326.682 387.786 330.344 388.828 331.109C390.88 332.646 393.276 333.766 395.75 334.432C398.208 334.036 398.292 337.26 400.396 337.766C404.255 339.563 408.557 340.104 412.771 340.323C414.427 340.464 413.495 343.406 415.672 342.828C416.885 343.141 419.63 342.375 419.771 343.786C417.927 345.974 421.536 345.927 422.875 345.531C424.589 345.271 426.771 344.62 427.224 346.964C428.651 348.469 431.276 348.25 433.016 347.385C433.26 347.245 433.49 347.078 433.698 346.885Z" fill="#F7E017"/>
<path d="M396.406 327.995C397.099 327.115 398.135 325.339 398.708 324.036C399.276 322.734 400.13 321.255 400.599 320.75C401.698 319.563 401.083 318.833 399.312 319.229C398.375 319.432 397.995 319.776 397.839 320.589C397.307 323.234 396.349 325.943 395.495 327.203C393.948 329.484 393.906 329.578 394.547 329.578C394.875 329.578 395.714 328.87 396.406 327.995Z" fill="#F7E017"/>
<path d="M373.026 313.344C371.281 313.344 371.203 314.448 372.906 315.042C373.729 315.328 374.432 316.021 374.995 317.151C376.651 320.448 377.625 321.036 382.031 321.417L384.859 321.672L384.995 323.391C385.063 324.339 385.292 325.125 385.51 325.125C385.724 325.125 386.818 324.651 387.922 324.089C389.995 323.042 391.964 320.594 391.964 319.078C391.964 318.083 390.307 317.01 388.802 317.01C388.135 317.01 386.865 317.547 385.859 318.276C382.714 320.557 379.349 320.094 377.505 317.13C375.995 314.682 374.417 313.344 373.026 313.344ZM388.292 319.427C389.13 319.427 389.333 320.047 388.88 321.224C388.568 322.036 387.547 322.063 387.245 321.26C386.88 320.318 387.385 319.427 388.292 319.427Z" fill="#F7E017"/>
<path d="M506.693 315.589C505.547 315.63 505.214 315.88 504.49 316.953C503.302 318.714 503.182 322.526 504.276 323.875C504.958 324.714 505.057 324.729 506.5 324.13C508.505 323.292 508.844 323.323 508.839 324.401C508.823 327.161 504.87 332.474 500.724 335.302C499.609 336.063 498.609 336.911 498.505 337.193C498.203 337.979 499.74 337.807 501.625 336.844C504.193 335.536 507.573 332.089 508.958 329.375C510.057 327.208 510.208 326.474 510.344 322.682C510.458 319.198 510.365 318.172 509.776 317.01C509.115 315.708 508.901 315.589 507.24 315.589C507.042 315.589 506.859 315.583 506.693 315.589ZM506.828 318.021C507.688 318.021 507.839 318.214 507.938 319.453C508.026 320.474 507.844 321.099 507.276 321.609C506.505 322.313 506.443 322.302 505.755 321.26C504.792 319.786 505.385 318.021 506.828 318.021Z" fill="#F7E017"/>
<path d="M487.88 344.656C491.531 342.859 493.688 340.839 495.073 337.911C495.724 336.521 496.26 335.208 496.26 334.984C496.26 334.479 494.464 333.641 493.385 333.641C492.313 333.641 492.094 332.901 492.557 330.849C493.005 328.844 492.464 326.333 491.583 326.333C491.266 326.333 490.703 326.802 490.328 327.37C489.755 328.25 489.724 328.625 490.146 329.906C490.771 331.802 490.276 333.219 488.578 334.427C487.776 335.005 487.333 335.667 487.333 336.307C487.333 336.849 487.401 337.292 487.484 337.292C487.568 337.292 488.453 336.833 489.453 336.276L491.276 335.26L492.349 336.104C492.938 336.563 493.422 337.318 493.422 337.781C493.422 340 487.089 343.734 482.74 344.083C480.422 344.271 480.031 344.188 479.224 343.391C478.568 342.734 478.385 342.188 478.547 341.411C478.672 340.818 478.896 339.74 479.047 339.016C479.443 337.083 478.615 337.344 477.177 339.604C476 341.469 475.651 343.458 476.313 344.51C476.854 345.365 480.464 346.182 483.016 346.026C484.62 345.932 486.203 345.484 487.88 344.656Z" fill="#F7E017"/>
<path d="M512.245 331.068C514.542 328.776 515.516 325.984 515.526 321.672L515.536 318.432L517.432 317.536C519.896 316.365 522.229 314.026 522.229 312.729C522.229 311.396 521.635 311.464 520.562 312.917C519.786 313.974 518.74 314.609 514.927 316.365C513.969 316.807 513.906 317.042 513.687 321.073C513.432 325.724 512.802 327.464 510.203 330.641C508.615 332.578 508.557 332.833 509.661 332.833C510.115 332.833 511.276 332.042 512.245 331.068Z" fill="#F7E017"/>
<path d="M487.234 328.469C487.453 327.802 486.182 327.328 485.635 327.87C485.406 328.099 485.344 328.5 485.495 328.755C485.859 329.339 487.005 329.146 487.234 328.469Z" fill="#F7E017"/>
<path d="M521.724 319.542C521.948 318.87 520.677 318.396 520.135 318.938C519.896 319.177 519.833 319.578 519.99 319.833C520.354 320.411 521.5 320.219 521.724 319.542Z" fill="#F7E017"/>
<path d="M480.214 295.365C479.318 295.786 478.854 296.75 478.234 297.484C477.792 297.792 478.146 298.073 478.406 298.359C479.979 300.052 480.646 302.344 481.391 304.479C482.125 307 483.052 309.708 482.286 312.339C481.984 313.344 481.193 314.385 480.01 314.052C478.12 313.932 476.255 313.432 474.359 313.448C472.672 313.536 471.365 315.073 469.641 314.906C468.536 314.979 468.583 312.651 467.562 313.271C467.052 314.49 467.302 315.844 467.245 317.13C467.432 317.313 467.969 317.151 468.292 317.203H471.687C471.927 318.38 471.901 319.724 472.74 320.656C473.922 321.078 475.25 320.714 476.37 320.255C477.573 319.698 477.729 318.25 478.073 317.125C478.432 315.917 480.016 316.234 480.953 315.76C483.24 315.089 484.74 312.714 484.604 310.375C484.453 306.802 483.094 303.443 482.057 300.063C481.542 298.573 481.177 297.021 480.578 295.568C480.505 295.443 480.359 295.339 480.214 295.365ZM474.552 315.781C475.823 315.698 476.375 317.26 476.104 318.297C475.63 319.703 473.901 318.802 473.547 317.786C472.906 316.88 473.302 315.661 474.552 315.781Z" fill="#F7E017"/>
<path d="M427.495 304.063C426.927 304.052 426.292 304.26 425.661 304.703C422.349 307.026 421.5 309.771 423.75 310.844C425.406 311.641 424.99 312.568 422.385 313.875C418.661 315.734 415.37 315.5 409.125 312.917C407.589 312.281 407.188 312.526 407.542 313.927C407.885 315.307 409.146 316.063 412.281 316.776C415.651 317.547 419.724 317.297 422.349 316.167C423.625 315.62 425.141 314.464 426.422 313.073L428.453 310.844L430.807 311.141C433.719 311.495 433.776 311.526 433.776 312.917C433.776 314.021 433.839 314.047 436.505 314.297C438.01 314.443 439.99 314.573 440.911 314.573C442.094 314.578 442.76 314.781 443.156 315.333C443.677 316.063 443.99 316.099 448.385 315.708C452.49 315.333 453.297 315.365 455.151 315.995C456.464 316.443 457.911 316.625 459.01 316.505C462.156 316.151 466.495 313.578 467.125 311.688C467.198 311.458 468.344 311.052 469.656 310.792C472.833 310.151 472.974 309.458 470.01 309.094C468.724 308.932 466.792 308.464 465.719 308.036C464.641 307.615 463.167 307.255 462.443 307.255C460.849 307.255 459.344 308.255 459.344 309.286C459.344 309.958 459.578 310.026 461.469 309.833C463.25 309.656 463.766 309.755 464.703 310.495C465.323 310.984 465.734 311.557 465.604 311.766C465.182 312.443 461.469 314.135 459.828 314.396C458.729 314.573 457.844 314.453 456.984 314.01C455.542 313.26 453.422 313.151 453.021 313.792C452.854 314.073 452.396 313.891 451.771 313.302L450.797 312.385L448.594 313.302C446.354 314.234 445.531 314.198 445.531 313.13C445.531 312.641 444.875 312.589 441.573 312.797C437.938 313.036 437.557 312.974 436.875 312.214C436.245 311.516 436.234 311.271 436.682 310.552C437.094 309.891 437.094 309.604 436.703 309.208C436.307 308.818 435.797 308.823 434.359 309.208C430.74 310.177 429.719 309.635 429.719 306.807C429.719 305.109 428.745 304.083 427.495 304.063ZM426.599 306.656C426.792 306.656 426.953 306.776 427.203 307.026C427.521 307.344 427.688 307.901 427.552 308.255C427.229 309.099 425.693 309.068 425.37 308.219C425.214 307.807 425.411 307.344 425.875 307.005C426.198 306.771 426.406 306.651 426.599 306.656Z" fill="#F7E017"/>
<path d="M420.104 309.292C422.307 307.896 422.26 308 422.578 304.12C422.797 301.38 422.76 301.172 422.016 301.172C420.938 301.172 420.375 302.359 420.375 304.62C420.375 306.068 420.151 306.714 419.375 307.484C417.542 309.318 412.984 308.479 412.411 306.203C412.219 305.422 412.469 304.719 413.422 303.365C415.411 300.536 414.964 299.844 412.526 301.99C410.844 303.458 410.547 303.5 410.865 302.234C411.156 301.068 410.547 300.604 409.177 300.948C408.479 301.125 408.099 301.557 407.932 302.406C407.771 303.24 407.391 303.698 406.729 303.865C405.62 304.141 403.74 303.094 403.74 302.203C403.74 301.542 406.557 298.094 410.177 294.339C411.547 292.917 412.661 291.594 412.661 291.396C412.661 291.193 411.932 291.031 411.036 291.031C409.734 291.031 409.417 291.177 409.417 291.781C409.417 292.193 407.594 294.583 405.359 297.099C400.703 302.339 400.318 303.432 402.62 304.828C404.474 305.964 406.849 305.88 408.719 304.609L410.229 303.583V305.448C410.229 307.833 410.703 308.688 412.573 309.677C414.927 310.922 417.771 310.771 420.109 309.292H420.104Z" fill="#F7E017"/>
<path d="M517.813 276.896C516.083 277.927 517.438 280.094 517.698 281.531C516.995 283.495 514.469 284.026 512.63 284.391C510.026 284.818 508.182 287 507.193 289.313C506.651 290.818 505.359 293.151 503.948 290.859C502.719 289.615 500.464 288.63 499.01 290.083C497.906 291.13 497.63 292.677 497.219 294.078C496.568 293 496.276 291.396 494.896 291.057C492.693 291.365 493.49 294.141 494.526 295.286C495.464 296.62 496.37 298.38 495.448 299.964C494.635 301.87 491.823 303.151 490.172 301.526C488.625 300.708 489.661 297.802 488.141 297.641C487.385 298.182 487.328 301.229 486.125 299.578C485.255 298.167 485.714 296.24 484.656 294.969C483.401 295.125 482.391 297.286 482.807 298.448C484.479 300.703 485.172 303.536 485.823 306.224C486.229 307.302 485.766 309.49 486.771 309.917C487.469 308.182 486.823 306.214 487.37 304.464C489.005 304.26 490.823 305.005 492.536 304.609C494.99 304.292 496.88 302.219 497.74 300.016C498 298.359 497.693 296.677 497.646 295.016C499.583 295.313 501.594 295.307 503.458 295.938C504.385 297.354 503.167 299.339 502.911 300.885C501.938 304.036 499.469 306.328 497.068 308.432C496.063 309.031 495.927 310.604 497.411 309.755C500.641 308.375 503.047 305.453 504.427 302.286C505.438 299.854 504.625 297.141 505.286 294.651C506.26 292.781 508.609 293.172 510.344 293.177C512.141 293.109 513.672 291.016 513.073 289.271C512.5 287.245 514.646 286.271 516.109 285.547C518.052 284.568 519.542 282.573 519.391 280.328C519.313 279.182 519.37 277 517.813 276.896ZM510.927 288.599C513.01 289.151 510.552 293.125 509.448 290.604C509.104 289.646 509.911 288.563 510.927 288.599ZM501.271 291.443C503.979 291.286 503.01 295.24 500.719 293.443C499.536 292.849 499.927 291.37 501.271 291.443Z" fill="#F7E017"/>
<path d="M403.255 306.719C403.333 306.328 403.13 306.047 402.776 306.047C402.021 306.047 401.568 306.708 401.922 307.281C402.292 307.875 403.099 307.536 403.255 306.719Z" fill="#F7E017"/>
<path d="M434.984 303.177C434.984 302.594 434.766 302.375 434.281 302.469C433.219 302.672 433.099 304.021 434.141 304.021C434.724 304.021 434.984 303.755 434.984 303.177Z" fill="#F7E017"/>
<path d="M395.724 284.13C394.458 283.87 393.661 284.943 393.229 285.964C392.281 287.552 391.125 289.182 389.427 290.026C388.203 290.365 386.87 289.901 385.818 289.271C384.557 288.646 384.844 287.13 384.307 286.089C383.396 285.37 381.786 286.391 381.823 287.505C381.719 288.995 383.115 289.854 384.271 290.427C385.25 291.031 386.677 291.365 387.068 292.583C387.042 293.62 387.458 294.802 388.719 294.401C390.13 294.38 390.495 296.099 389.927 297.13C389.344 298.292 388.953 299.651 389.234 300.948C389.906 301.51 390.594 299.99 391.083 299.557C391.411 299.115 391.745 298.672 392.078 298.229C394.573 298.365 397.068 298.682 399.568 298.594C401.344 298.563 402.859 297.464 403.99 296.177C405.594 294.505 406.906 292.536 408.734 291.094C410.031 290.776 409.333 288.328 407.974 289.036C406.75 289.495 406.37 290.875 405.521 291.76C404.073 293.505 402.599 295.281 400.781 296.651C399.453 297.203 397.927 296.964 396.568 296.651C395.995 296.156 397.693 295.75 397.932 295.198C398.714 294.417 399.641 293.677 400.094 292.651C399.661 291.708 398.333 291.63 397.401 291.609C395.099 291.885 393.344 293.818 391.021 294C389.26 294.063 390.177 292.151 390.969 291.5C392.526 289.656 394.208 287.917 395.828 286.13C396.292 285.573 397.958 285.047 396.891 284.271C396.521 284.135 396.115 284.135 395.724 284.13ZM396.854 293.469C398.016 294.125 396.115 295.193 395.312 295.047C394.266 295.359 394.245 294.292 395.177 294.078C395.703 293.802 396.255 293.521 396.854 293.469ZM393.286 295.906C393.948 295.896 395.328 296.531 394.031 296.938C393.125 297.635 392.104 296.224 393.286 295.906Z" fill="#F7E017"/>
<path d="M421.385 297.521C421.385 296.641 419.807 296.766 419.63 297.661C419.521 298.234 419.703 298.37 420.438 298.266C420.964 298.188 421.385 297.859 421.385 297.521Z" fill="#F7E017"/>
<path d="M491.312 291.333C491.474 290.49 490.302 289.927 489.687 290.547C489.068 291.161 489.635 292.333 490.469 292.172C490.859 292.099 491.24 291.719 491.312 291.333Z" fill="#F7E017"/>
<path d="M382.49 282.76C383.583 281.818 383.599 281.755 383.125 279.687C382.448 276.781 382.495 276.474 383.599 276.198C384.995 275.844 388.547 277.745 389.333 279.266C389.943 280.448 389.927 280.526 388.891 281.49C387.776 282.521 387.781 283.724 388.896 283.724C389.823 283.724 392.375 281.307 392.375 280.443C392.375 279.234 389.542 276.391 387.297 275.349C385.911 274.698 384.526 274.401 382.922 274.396C380.052 274.396 379.667 275.01 380.443 278.349C381.354 282.266 380.115 282.792 376.964 279.844C374.625 277.651 373.703 275.375 373.714 271.786C373.719 267.932 375.193 266.031 378.51 265.583C380.714 265.286 380.661 264.771 378.396 264.432C375.089 263.932 372.292 266.141 371.229 270.089C370.052 274.464 372.75 279.792 377.531 282.536C380.036 283.974 381.031 284.016 382.49 282.76Z" fill="#F7E017"/>
<path d="M512.818 277.964C513.089 277.693 513.307 277.089 513.307 276.62C513.307 276.151 513.76 275.151 514.318 274.396C514.88 273.641 515.333 272.865 515.333 272.677C515.333 271.911 514.068 271.932 513.068 272.729C512.047 273.526 511.276 273.547 511.276 272.766C511.276 272.573 511.766 272.172 512.365 271.88C513.849 271.156 513.974 270.437 512.719 269.865C511.109 269.13 509.495 270.469 509.323 272.672C509.219 274.146 509.339 274.401 510.474 275.068C511.51 275.677 511.703 276.005 511.526 276.875C511.229 278.396 511.859 278.922 512.818 277.964Z" fill="#F7E017"/>
<path d="M525.068 276.578C525.969 275.771 526.698 274.854 526.698 274.552C526.698 274.245 527.474 273.432 528.422 272.75C531.109 270.818 531.703 268.865 530.5 265.865C530.031 264.682 528.557 263.052 525.359 260.172C522.896 257.948 520.635 256.135 520.339 256.135C519.464 256.135 519.62 259.349 520.51 259.63C522.104 260.141 523.073 260.797 525.589 263.062C528.51 265.698 529.854 268.167 529.12 269.536C528.417 270.87 527.479 270.453 524.901 267.693C523.547 266.234 522.203 265.052 521.932 265.052C521.63 265.057 521.417 265.583 521.417 266.318C521.417 267.24 521.911 268.12 523.25 269.609C525.427 272.026 525.635 273.484 524.005 274.766C523.417 275.229 522.813 275.609 522.661 275.609C522.516 275.609 522.036 274.885 521.599 274.005C520.688 272.161 515.115 266.276 514.281 266.276C513.901 266.276 513.714 266.75 513.714 267.682C513.714 268.812 513.938 269.214 514.833 269.677C515.938 270.25 518.672 273 521.417 276.323C522.203 277.271 522.979 278.036 523.146 278.047C523.313 278.047 524.177 277.38 525.068 276.578Z" fill="#F7E017"/>
<path d="M530.536 260.932C530.177 259.766 522.698 252.068 521.932 252.068C521.531 252.068 521.406 252.547 521.5 253.766C521.604 255.255 521.771 255.51 522.792 255.776C523.427 255.948 525.401 257.495 527.167 259.208C528.927 260.927 530.474 262.229 530.599 262.099C530.724 261.974 530.698 261.448 530.536 260.932Z" fill="#F7E017"/>
<path d="M485.885 347.542C485.885 347.823 485.776 348.063 485.557 348.26C485.344 348.458 485.078 348.563 484.771 348.563C484.469 348.563 484.203 348.458 483.99 348.26C483.771 348.063 483.661 347.823 483.661 347.542C483.661 347.26 483.771 347.021 483.99 346.823C484.203 346.62 484.469 346.521 484.771 346.521C485.078 346.521 485.344 346.62 485.557 346.823C485.776 347.021 485.885 347.26 485.885 347.542Z" fill="#F7E017"/>
<path d="M489.807 346.229C489.807 346.51 489.703 346.75 489.484 346.953C489.266 347.151 489.005 347.25 488.698 347.25C488.391 347.25 488.13 347.151 487.911 346.953C487.698 346.75 487.589 346.51 487.589 346.229C487.589 345.948 487.698 345.708 487.911 345.51C488.13 345.313 488.391 345.214 488.698 345.214C489.005 345.214 489.266 345.313 489.484 345.51C489.703 345.708 489.807 345.948 489.807 346.229Z" fill="#F7E017"/>
</g>
</g>
<defs>
<clipPath id="clip0_763_2723">
<rect width="900" height="450" fill="white"/>
</clipPath>
</defs>
</svg>
