<svg width="900" height="450" viewBox="0 0 900 450" fill="none" xmlns="http://www.w3.org/2000/svg">
<rect width="900" height="450" fill="#1E1E1E"/>
<g clip-path="url(#clip0_0_1)">
<rect width="900" height="450" fill="white"/>
<mask id="mask0_0_1" style="mask-type:luminance" maskUnits="userSpaceOnUse" x="0" y="0" width="900" height="450">
<path d="M0 -3.37219e-06H900V450H0V-3.37219e-06Z" fill="white"/>
</mask>
<g mask="url(#mask0_0_1)">
<path d="M0 -3.37219e-06H900V450H0V-3.37219e-06Z" fill="white"/>
<path d="M0 -3.37219e-06H900V450H0V-3.37219e-06Z" fill="#009B3A"/>
</g>
<path d="M184 225.099L450.453 395.203L716.901 225.099L450.453 55L184 225.099Z" fill="#FEDF00"/>
<path d="M562.813 225.099C562.813 226.938 562.766 228.776 562.677 230.609C562.583 232.448 562.448 234.281 562.271 236.109C562.089 237.938 561.865 239.766 561.594 241.583C561.323 243.401 561.01 245.214 560.651 247.016C560.292 248.818 559.891 250.609 559.443 252.396C558.995 254.177 558.505 255.948 557.974 257.708C557.438 259.469 556.859 261.214 556.24 262.943C555.625 264.672 554.958 266.391 554.255 268.089C553.552 269.786 552.807 271.464 552.021 273.125C551.234 274.792 550.411 276.432 549.542 278.052C548.677 279.672 547.771 281.271 546.823 282.849C545.88 284.427 544.896 285.979 543.875 287.505C542.854 289.036 541.792 290.536 540.698 292.016C539.604 293.49 538.474 294.943 537.307 296.359C536.141 297.781 534.938 299.172 533.703 300.536C532.469 301.901 531.203 303.229 529.901 304.531C528.599 305.828 527.271 307.099 525.906 308.333C524.547 309.568 523.151 310.766 521.729 311.932C520.307 313.099 518.859 314.229 517.385 315.323C515.906 316.422 514.401 317.479 512.875 318.5C511.344 319.521 509.792 320.505 508.214 321.448C506.641 322.396 505.036 323.302 503.417 324.167C501.797 325.031 500.151 325.859 498.49 326.646C496.828 327.432 495.146 328.177 493.448 328.88C491.75 329.583 490.036 330.245 488.302 330.865C486.573 331.484 484.828 332.063 483.068 332.594C481.307 333.125 479.536 333.62 477.75 334.063C475.969 334.51 474.177 334.911 472.37 335.271C470.568 335.63 468.755 335.943 466.938 336.214C465.12 336.484 463.297 336.708 461.464 336.891C459.635 337.068 457.802 337.203 455.964 337.297C454.13 337.385 452.292 337.432 450.453 337.432C448.615 337.432 446.776 337.385 444.938 337.297C443.104 337.203 441.271 337.068 439.438 336.891C437.609 336.708 435.786 336.484 433.964 336.214C432.146 335.943 430.333 335.63 428.531 335.271C426.729 334.911 424.932 334.51 423.151 334.063C421.365 333.62 419.594 333.125 417.833 332.594C416.078 332.063 414.328 331.484 412.599 330.865C410.87 330.245 409.151 329.583 407.453 328.88C405.755 328.177 404.073 327.432 402.411 326.646C400.75 325.859 399.109 325.031 397.484 324.167C395.865 323.302 394.266 322.396 392.688 321.448C391.109 320.505 389.557 319.521 388.026 318.5C386.5 317.479 384.995 316.422 383.521 315.323C382.042 314.229 380.594 313.099 379.172 311.932C377.75 310.766 376.359 309.568 374.995 308.333C373.635 307.099 372.302 305.828 371 304.531C369.703 303.229 368.432 301.901 367.198 300.536C365.964 299.172 364.766 297.781 363.599 296.359C362.432 294.943 361.302 293.49 360.203 292.016C359.109 290.536 358.052 289.036 357.031 287.505C356.005 285.979 355.026 284.427 354.078 282.849C353.135 281.271 352.229 279.672 351.359 278.052C350.495 276.432 349.667 274.792 348.88 273.125C348.094 271.464 347.349 269.786 346.646 268.089C345.943 266.391 345.281 264.672 344.661 262.943C344.042 261.214 343.464 259.469 342.932 257.708C342.396 255.948 341.906 254.177 341.458 252.396C341.016 250.609 340.609 248.818 340.25 247.016C339.891 245.214 339.578 243.401 339.307 241.583C339.042 239.766 338.813 237.938 338.635 236.109C338.453 234.281 338.318 232.448 338.229 230.609C338.141 228.776 338.094 226.938 338.094 225.099C338.094 223.26 338.141 221.422 338.229 219.589C338.318 217.75 338.453 215.917 338.635 214.089C338.813 212.26 339.042 210.438 339.307 208.615C339.578 206.797 339.891 204.99 340.25 203.182C340.609 201.38 341.016 199.589 341.458 197.807C341.906 196.021 342.396 194.25 342.932 192.49C343.464 190.734 344.042 188.99 344.661 187.255C345.281 185.526 345.943 183.813 346.646 182.115C347.349 180.411 348.094 178.734 348.88 177.073C349.667 175.411 350.495 173.766 351.359 172.146C352.229 170.526 353.135 168.927 354.078 167.349C355.026 165.771 356.005 164.219 357.031 162.693C358.052 161.161 359.109 159.661 360.203 158.182C361.302 156.708 362.432 155.26 363.599 153.839C364.766 152.417 365.964 151.026 367.198 149.661C368.432 148.302 369.703 146.969 371 145.667C372.302 144.37 373.635 143.104 374.995 141.87C376.359 140.635 377.75 139.432 379.172 138.266C380.594 137.099 382.042 135.969 383.521 134.875C384.995 133.781 386.5 132.719 388.026 131.698C389.557 130.677 391.109 129.693 392.688 128.75C394.266 127.802 395.865 126.901 397.484 126.031C399.109 125.167 400.75 124.339 402.411 123.552C404.073 122.766 405.755 122.021 407.453 121.318C409.151 120.615 410.87 119.953 412.599 119.333C414.328 118.714 416.078 118.141 417.833 117.604C419.594 117.073 421.365 116.583 423.151 116.135C424.932 115.687 426.729 115.286 428.531 114.927C430.333 114.568 432.146 114.255 433.964 113.984C435.786 113.714 437.609 113.49 439.438 113.307C441.271 113.13 443.104 112.995 444.938 112.901C446.776 112.813 448.615 112.766 450.453 112.766C452.292 112.766 454.13 112.813 455.964 112.901C457.802 112.995 459.635 113.13 461.464 113.307C463.297 113.49 465.12 113.714 466.938 113.984C468.755 114.255 470.568 114.568 472.37 114.927C474.177 115.286 475.969 115.687 477.75 116.135C479.536 116.583 481.307 117.073 483.068 117.604C484.828 118.141 486.573 118.714 488.302 119.333C490.036 119.953 491.75 120.615 493.448 121.318C495.146 122.021 496.828 122.766 498.49 123.552C500.151 124.339 501.797 125.167 503.417 126.031C505.036 126.901 506.641 127.802 508.214 128.75C509.792 129.693 511.344 130.677 512.875 131.698C514.401 132.719 515.906 133.781 517.385 134.875C518.859 135.969 520.307 137.099 521.729 138.266C523.151 139.432 524.547 140.635 525.906 141.87C527.271 143.104 528.599 144.37 529.901 145.667C531.203 146.969 532.469 148.302 533.703 149.661C534.938 151.026 536.141 152.417 537.307 153.839C538.474 155.26 539.604 156.708 540.698 158.182C541.792 159.661 542.854 161.161 543.875 162.693C544.896 164.219 545.88 165.771 546.823 167.349C547.771 168.927 548.677 170.526 549.542 172.146C550.411 173.766 551.234 175.411 552.021 177.073C552.807 178.734 553.552 180.411 554.255 182.115C554.958 183.813 555.625 185.526 556.24 187.255C556.859 188.99 557.438 190.734 557.974 192.49C558.505 194.25 558.995 196.021 559.443 197.807C559.891 199.589 560.292 201.38 560.651 203.182C561.01 204.99 561.323 206.797 561.594 208.615C561.865 210.438 562.089 212.26 562.271 214.089C562.448 215.917 562.583 217.75 562.677 219.589C562.766 221.422 562.813 223.26 562.813 225.099Z" fill="#002776"/>
<mask id="mask1_0_1" style="mask-type:luminance" maskUnits="userSpaceOnUse" x="337" y="176" width="227" height="162">
<path d="M337.714 176.432H563.047V337.766H337.714V176.432Z" fill="white"/>
</mask>
<g mask="url(#mask1_0_1)">
<mask id="mask2_0_1" style="mask-type:luminance" maskUnits="userSpaceOnUse" x="338" y="112" width="225" height="226">
<path d="M338.094 225.099C338.094 221.422 338.271 217.75 338.635 214.089C338.995 210.427 339.536 206.792 340.25 203.182C340.969 199.578 341.865 196.01 342.932 192.49C344 188.969 345.24 185.51 346.646 182.115C348.052 178.714 349.625 175.391 351.359 172.146C353.094 168.901 354.984 165.75 357.031 162.693C359.073 159.63 361.26 156.682 363.599 153.839C365.932 150.995 368.401 148.271 371 145.667C373.604 143.068 376.328 140.599 379.172 138.266C382.016 135.932 384.969 133.745 388.026 131.698C391.089 129.656 394.24 127.766 397.484 126.031C400.729 124.297 404.052 122.729 407.453 121.318C410.854 119.911 414.313 118.672 417.833 117.604C421.359 116.536 424.922 115.646 428.531 114.927C432.141 114.208 435.776 113.672 439.438 113.307C443.099 112.948 446.771 112.766 450.453 112.766C454.13 112.766 457.802 112.948 461.464 113.307C465.125 113.672 468.76 114.208 472.37 114.927C475.979 115.646 479.547 116.536 483.068 117.604C486.589 118.672 490.047 119.911 493.448 121.318C496.849 122.729 500.172 124.297 503.417 126.031C506.661 127.766 509.813 129.656 512.875 131.698C515.932 133.745 518.885 135.932 521.729 138.266C524.578 140.599 527.297 143.068 529.901 145.667C532.505 148.271 534.969 150.995 537.307 153.839C539.641 156.682 541.828 159.63 543.875 162.693C545.917 165.75 547.807 168.901 549.542 172.146C551.276 175.391 552.849 178.714 554.255 182.115C555.667 185.51 556.906 188.969 557.974 192.49C559.042 196.01 559.932 199.578 560.651 203.182C561.37 206.792 561.906 210.427 562.271 214.089C562.63 217.75 562.813 221.422 562.813 225.099C562.813 228.776 562.63 232.448 562.271 236.109C561.906 239.771 561.37 243.406 560.651 247.016C559.932 250.625 559.042 254.188 557.974 257.708C556.906 261.229 555.667 264.688 554.255 268.089C552.849 271.484 551.276 274.807 549.542 278.052C547.807 281.297 545.917 284.448 543.875 287.505C541.828 290.568 539.641 293.516 537.307 296.359C534.969 299.203 532.505 301.927 529.901 304.531C527.297 307.13 524.578 309.599 521.729 311.932C518.885 314.266 515.932 316.453 512.875 318.5C509.813 320.542 506.661 322.432 503.417 324.167C500.172 325.901 496.849 327.474 493.448 328.88C490.047 330.286 486.589 331.526 483.068 332.594C479.547 333.661 475.979 334.552 472.37 335.271C468.76 335.99 465.125 336.531 461.464 336.891C457.802 337.25 454.13 337.432 450.453 337.432C446.771 337.432 443.099 337.25 439.438 336.891C435.776 336.531 432.141 335.99 428.531 335.271C424.922 334.552 421.359 333.661 417.833 332.594C414.313 331.526 410.854 330.286 407.453 328.88C404.052 327.474 400.729 325.901 397.484 324.167C394.24 322.432 391.089 320.542 388.026 318.5C384.969 316.453 382.016 314.266 379.172 311.932C376.328 309.599 373.604 307.13 371 304.531C368.401 301.927 365.932 299.203 363.599 296.359C361.26 293.516 359.073 290.568 357.031 287.505C354.984 284.448 353.094 281.297 351.359 278.052C349.625 274.807 348.052 271.484 346.646 268.089C345.24 264.688 344 261.229 342.932 257.708C341.865 254.188 340.969 250.625 340.25 247.016C339.536 243.406 338.995 239.771 338.635 236.109C338.271 232.448 338.094 228.776 338.094 225.099Z" fill="white"/>
</mask>
<g mask="url(#mask2_0_1)">
<path d="M113.375 449.76C113.375 445.297 113.484 440.833 113.703 436.375C113.922 431.917 114.25 427.464 114.688 423.021C115.125 418.578 115.672 414.151 116.328 409.734C116.984 405.318 117.75 400.917 118.62 396.542C119.49 392.161 120.469 387.807 121.552 383.474C122.641 379.146 123.828 374.844 125.125 370.573C126.422 366.297 127.823 362.063 129.328 357.859C130.833 353.651 132.438 349.49 134.146 345.365C135.854 341.24 137.667 337.161 139.573 333.125C141.484 329.089 143.49 325.099 145.594 321.161C147.703 317.224 149.901 313.344 152.198 309.51C154.495 305.682 156.88 301.911 159.365 298.198C161.844 294.49 164.417 290.839 167.073 287.25C169.734 283.667 172.479 280.146 175.313 276.698C178.146 273.245 181.063 269.865 184.063 266.557C187.063 263.25 190.141 260.016 193.297 256.859C196.453 253.703 199.688 250.625 203 247.625C206.307 244.63 209.688 241.714 213.141 238.88C216.594 236.047 220.109 233.302 223.698 230.646C227.286 227.984 230.932 225.411 234.646 222.932C238.359 220.453 242.13 218.063 245.964 215.771C249.792 213.474 253.677 211.276 257.615 209.172C261.552 207.068 265.542 205.057 269.578 203.151C273.615 201.24 277.698 199.432 281.823 197.724C285.948 196.016 290.115 194.406 294.318 192.906C298.526 191.401 302.76 190 307.036 188.703C311.307 187.406 315.615 186.219 319.943 185.135C324.276 184.047 328.63 183.073 333.01 182.198C337.391 181.328 341.792 180.568 346.208 179.911C350.625 179.255 355.057 178.708 359.5 178.271C363.943 177.833 368.396 177.505 372.859 177.286C377.318 177.068 381.781 176.958 386.245 176.958C390.714 176.958 395.177 177.068 399.635 177.286C404.094 177.505 408.547 177.833 412.995 178.271C417.438 178.708 421.87 179.255 426.286 179.911C430.703 180.568 435.099 181.328 439.479 182.198C443.859 183.073 448.219 184.047 452.547 185.135C456.88 186.219 461.182 187.406 465.458 188.703C469.729 190 473.969 191.401 478.172 192.906C482.38 194.406 486.542 196.016 490.672 197.724C494.797 199.432 498.875 201.24 502.911 203.151C506.953 205.057 510.938 207.068 514.875 209.172C518.818 211.276 522.698 213.474 526.531 215.771C530.359 218.063 534.13 220.453 537.844 222.932C541.557 225.411 545.208 227.984 548.797 230.646C552.38 233.302 555.901 236.047 559.354 238.88C562.807 241.714 566.188 244.63 569.495 247.625C572.802 250.625 576.036 253.703 579.198 256.859C582.354 260.016 585.432 263.25 588.432 266.557C591.427 269.865 594.344 273.245 597.177 276.698C600.01 280.146 602.76 283.667 605.417 287.25C608.078 290.839 610.651 294.49 613.13 298.198C615.609 301.911 618 305.682 620.297 309.51C622.594 313.344 624.792 317.224 626.896 321.161C629 325.099 631.01 329.089 632.917 333.125C634.828 337.161 636.635 341.24 638.344 345.365C640.057 349.49 641.661 353.651 643.167 357.859C644.672 362.063 646.073 366.297 647.37 370.573C648.661 374.844 649.854 379.146 650.938 383.474C652.026 387.807 653.005 392.161 653.875 396.542C654.745 400.917 655.51 405.318 656.161 409.734C656.818 414.151 657.365 418.578 657.802 423.021C658.24 427.464 658.568 431.917 658.786 436.375C659.005 440.833 659.12 445.297 659.12 449.76H643.068C643.068 445.557 642.964 441.359 642.755 437.161C642.552 432.969 642.24 428.776 641.828 424.594C641.417 420.411 640.901 416.245 640.286 412.089C639.672 407.932 638.953 403.792 638.13 399.672C637.313 395.552 636.391 391.453 635.37 387.375C634.349 383.297 633.229 379.25 632.005 375.229C630.786 371.208 629.469 367.219 628.052 363.266C626.635 359.307 625.125 355.385 623.516 351.505C621.906 347.625 620.203 343.781 618.406 339.984C616.609 336.188 614.724 332.432 612.74 328.729C610.76 325.021 608.688 321.365 606.526 317.76C604.37 314.156 602.12 310.609 599.786 307.115C597.448 303.62 595.031 300.188 592.526 296.813C590.021 293.438 587.438 290.125 584.771 286.875C582.104 283.63 579.359 280.448 576.536 277.333C573.714 274.219 570.818 271.177 567.844 268.208C564.875 265.234 561.828 262.339 558.714 259.516C555.604 256.698 552.422 253.953 549.172 251.286C545.922 248.62 542.609 246.036 539.234 243.531C535.859 241.031 532.422 238.609 528.927 236.276C525.432 233.943 521.885 231.693 518.276 229.536C514.672 227.375 511.016 225.302 507.313 223.323C503.604 221.344 499.849 219.453 496.052 217.656C492.25 215.859 488.411 214.156 484.526 212.547C480.646 210.943 476.724 209.427 472.766 208.016C468.807 206.599 464.818 205.281 460.797 204.063C456.776 202.839 452.724 201.719 448.651 200.698C444.573 199.677 440.474 198.76 436.349 197.938C432.229 197.12 428.089 196.401 423.932 195.781C419.771 195.167 415.604 194.651 411.422 194.24C407.234 193.828 403.047 193.521 398.849 193.313C394.651 193.109 390.448 193.005 386.245 193.005C382.042 193.005 377.844 193.109 373.646 193.313C369.448 193.521 365.255 193.828 361.073 194.24C356.891 194.651 352.719 195.167 348.563 195.781C344.406 196.401 340.266 197.12 336.146 197.938C332.021 198.76 327.922 199.677 323.844 200.698C319.766 201.719 315.719 202.839 311.698 204.063C307.672 205.281 303.682 206.599 299.729 208.016C295.771 209.427 291.849 210.943 287.964 212.547C284.083 214.156 280.24 215.859 276.443 217.656C272.641 219.453 268.891 221.344 265.182 223.323C261.474 225.302 257.818 227.375 254.214 229.536C250.609 231.693 247.063 233.943 243.568 236.276C240.073 238.609 236.635 241.031 233.26 243.531C229.885 246.036 226.573 248.62 223.323 251.286C220.073 253.953 216.891 256.698 213.776 259.516C210.661 262.339 207.62 265.234 204.646 268.208C201.677 271.177 198.776 274.219 195.958 277.333C193.135 280.448 190.391 283.63 187.724 286.875C185.057 290.125 182.469 293.438 179.969 296.813C177.464 300.188 175.042 303.62 172.708 307.115C170.375 310.609 168.125 314.156 165.964 317.76C163.802 321.365 161.734 325.021 159.75 328.729C157.771 332.432 155.88 336.188 154.083 339.984C152.286 343.781 150.583 347.625 148.974 351.505C147.37 355.385 145.854 359.307 144.438 363.26C143.026 367.219 141.708 371.208 140.484 375.229C139.266 379.25 138.146 383.297 137.125 387.375C136.104 391.453 135.182 395.552 134.359 399.672C133.542 403.792 132.823 407.932 132.208 412.089C131.589 416.245 131.078 420.411 130.661 424.594C130.25 428.776 129.943 432.969 129.734 437.161C129.531 441.359 129.427 445.557 129.427 449.76H113.375Z" fill="white"/>
</g>
</g>
<path fill-rule="evenodd" clip-rule="evenodd" d="M354.62 192.266C355.255 192.188 355.849 191.979 356.401 191.635C356.953 191.292 357.422 190.849 357.813 190.292C358.198 189.74 358.474 189.125 358.635 188.443C358.797 187.766 358.839 187.073 358.75 186.37C358.661 185.661 358.458 185 358.135 184.38C357.813 183.76 357.396 183.229 356.891 182.786C356.38 182.344 355.818 182.021 355.198 181.823C354.578 181.63 353.953 181.568 353.318 181.646C352.682 181.724 352.094 181.932 351.536 182.276C350.984 182.615 350.516 183.063 350.13 183.615C349.745 184.167 349.469 184.786 349.307 185.464C349.141 186.146 349.104 186.839 349.193 187.542C349.276 188.245 349.479 188.906 349.802 189.526C350.125 190.151 350.542 190.682 351.052 191.125C351.563 191.568 352.125 191.885 352.745 192.083C353.365 192.281 353.99 192.344 354.62 192.266ZM354.38 190.292C354.75 190.245 355.099 190.12 355.422 189.906C355.745 189.693 356.021 189.417 356.245 189.073C356.469 188.724 356.63 188.339 356.719 187.911C356.813 187.49 356.833 187.052 356.776 186.609C356.724 186.167 356.599 185.75 356.406 185.359C356.214 184.969 355.969 184.63 355.667 184.349C355.365 184.073 355.031 183.865 354.667 183.74C354.302 183.615 353.932 183.573 353.563 183.62C353.188 183.661 352.839 183.792 352.516 184.005C352.193 184.214 351.922 184.495 351.698 184.839C351.469 185.182 351.313 185.568 351.219 185.995C351.13 186.422 351.109 186.859 351.161 187.297C351.219 187.74 351.339 188.156 351.531 188.552C351.724 188.943 351.974 189.276 352.276 189.557C352.578 189.839 352.911 190.042 353.276 190.172C353.641 190.297 354.005 190.339 354.38 190.292Z" fill="#009B3A"/>
<path fill-rule="evenodd" clip-rule="evenodd" d="M363.344 191.297L365.323 191.161L365.047 187.198L369.318 186.896C369.76 186.865 370.182 186.75 370.583 186.552C370.984 186.354 371.328 186.083 371.62 185.75C371.911 185.411 372.13 185.031 372.271 184.609C372.411 184.188 372.469 183.755 372.438 183.307C372.406 182.865 372.292 182.443 372.094 182.042C371.891 181.646 371.625 181.297 371.286 181.005C370.953 180.714 370.573 180.495 370.151 180.354C369.724 180.214 369.292 180.156 368.849 180.187L362.75 180.615L363.344 191.297ZM364.906 185.214L369.026 184.927C369.208 184.911 369.38 184.865 369.542 184.786C369.708 184.703 369.849 184.594 369.969 184.458C370.089 184.318 370.177 184.161 370.234 183.99C370.292 183.818 370.313 183.641 370.302 183.458C370.292 183.276 370.245 183.104 370.161 182.937C370.078 182.776 369.969 182.635 369.833 182.516C369.693 182.396 369.542 182.307 369.365 182.25C369.193 182.193 369.016 182.167 368.833 182.182L364.719 182.469L364.906 185.214Z" fill="#009B3A"/>
<path d="M372.417 190.661C372.307 189.141 372.073 185.786 369.786 185.943L366.891 186.146C370.245 185.911 370.479 189.266 370.583 190.792" fill="#009B3A"/>
<path fill-rule="evenodd" clip-rule="evenodd" d="M376.901 190.453L381.948 190.365C382.557 190.354 383.141 190.229 383.698 189.984C384.255 189.745 384.745 189.406 385.167 188.969C385.589 188.531 385.911 188.026 386.135 187.464C386.359 186.896 386.464 186.307 386.453 185.703L386.427 184.172C386.417 183.568 386.286 182.984 386.047 182.427C385.802 181.87 385.464 181.38 385.026 180.953C384.589 180.531 384.089 180.208 383.521 179.99C382.953 179.766 382.37 179.656 381.76 179.667L376.719 179.755L376.901 190.453ZM378.854 188.432L381.76 188.38C382.146 188.375 382.516 188.297 382.865 188.141C383.219 187.99 383.531 187.771 383.797 187.495C384.068 187.219 384.271 186.901 384.411 186.542C384.552 186.182 384.62 185.813 384.615 185.427L384.599 184.51C384.589 184.125 384.51 183.755 384.354 183.406C384.203 183.052 383.99 182.74 383.708 182.474C383.432 182.203 383.115 182 382.755 181.859C382.401 181.719 382.026 181.651 381.641 181.656L378.74 181.708L378.854 188.432Z" fill="#009B3A"/>
<path d="M390.49 190.318L400.115 190.656L400.182 188.672L392.391 188.401L392.49 185.651L398.599 185.865L398.667 184.031L392.552 183.818L392.63 181.677L399.964 181.932L400.031 179.948L390.865 179.63L390.49 190.318Z" fill="#009B3A"/>
<path d="M404.068 190.896L405.896 191.057L406.531 183.75L408.026 191.245L409.703 191.391L412.474 184.271L411.833 191.578L413.661 191.74L414.594 181.078L411.927 180.849L409.156 187.969L407.661 180.474L405 180.24L404.068 190.896Z" fill="#009B3A"/>
<path d="M426.24 193.396L434.146 194.755L434.458 192.948L428.354 191.901L428.771 189.49L433.74 190.344L434.052 188.536L429.078 187.682L429.365 186.026L435.281 187.042L435.589 185.234L427.87 183.906L426.24 193.396Z" fill="#009B3A"/>
<path fill-rule="evenodd" clip-rule="evenodd" d="M446.557 197.391L448.479 197.885L449.474 194.036L453.62 195.109C454.052 195.224 454.49 195.245 454.932 195.182C455.37 195.125 455.786 194.979 456.167 194.75C456.552 194.526 456.88 194.234 457.146 193.88C457.417 193.521 457.604 193.13 457.719 192.698C457.828 192.266 457.854 191.828 457.792 191.385C457.729 190.948 457.589 190.531 457.359 190.151C457.135 189.766 456.844 189.438 456.484 189.172C456.13 188.901 455.734 188.714 455.302 188.599L449.385 187.068L446.557 197.391ZM449.974 192.115L453.969 193.146C454.146 193.193 454.323 193.203 454.505 193.177C454.688 193.151 454.854 193.094 455.01 193C455.172 192.911 455.302 192.792 455.411 192.646C455.521 192.5 455.599 192.339 455.646 192.161C455.693 191.984 455.703 191.807 455.677 191.625C455.651 191.443 455.594 191.276 455.5 191.12C455.406 190.964 455.286 190.828 455.141 190.719C454.995 190.609 454.833 190.531 454.656 190.484L450.661 189.453L449.974 192.115Z" fill="#009B3A"/>
<path fill-rule="evenodd" clip-rule="evenodd" d="M459.688 200.891L461.583 201.49L462.776 197.698L466.859 198.984C467.281 199.12 467.719 199.167 468.161 199.125C468.609 199.089 469.026 198.964 469.422 198.76C469.818 198.552 470.161 198.281 470.448 197.938C470.734 197.599 470.943 197.214 471.078 196.786C471.214 196.365 471.26 195.927 471.219 195.484C471.182 195.042 471.057 194.62 470.854 194.224C470.646 193.828 470.375 193.49 470.031 193.203C469.688 192.917 469.307 192.703 468.88 192.573L463.047 190.734L459.688 200.891ZM463.375 195.802L467.313 197.042C467.484 197.099 467.661 197.12 467.844 197.104C468.026 197.089 468.198 197.036 468.359 196.953C468.521 196.87 468.661 196.755 468.776 196.615C468.896 196.474 468.979 196.318 469.036 196.146C469.089 195.974 469.109 195.792 469.094 195.609C469.078 195.432 469.026 195.26 468.943 195.099C468.859 194.932 468.75 194.797 468.609 194.677C468.469 194.562 468.313 194.474 468.135 194.422L464.203 193.177L463.375 195.802Z" fill="#009B3A"/>
<path d="M468.359 203.625C468.818 202.167 469.833 198.958 467.646 198.271L464.875 197.396C468.083 198.406 467.073 201.615 466.609 203.073" fill="#009B3A"/>
<path fill-rule="evenodd" clip-rule="evenodd" d="M477.125 206.76C477.724 206.984 478.344 207.073 478.995 207.021C479.641 206.974 480.266 206.797 480.859 206.484C481.458 206.172 481.99 205.75 482.448 205.224C482.906 204.698 483.26 204.099 483.505 203.438C483.755 202.771 483.88 202.089 483.88 201.391C483.88 200.688 483.76 200.026 483.51 199.396C483.266 198.771 482.911 198.224 482.453 197.766C481.995 197.302 481.469 196.964 480.87 196.74C480.271 196.516 479.651 196.427 479 196.474C478.354 196.521 477.729 196.703 477.135 197.016C476.536 197.328 476.005 197.745 475.547 198.276C475.089 198.802 474.734 199.401 474.484 200.063C474.24 200.729 474.115 201.411 474.115 202.109C474.115 202.807 474.234 203.474 474.484 204.099C474.729 204.729 475.083 205.271 475.542 205.734C476 206.193 476.526 206.536 477.125 206.76ZM477.818 204.901C478.172 205.031 478.536 205.078 478.922 205.036C479.307 205 479.677 204.88 480.036 204.677C480.396 204.474 480.714 204.203 480.995 203.87C481.271 203.531 481.49 203.156 481.646 202.74C481.802 202.323 481.885 201.896 481.896 201.458C481.906 201.021 481.844 200.609 481.703 200.224C481.568 199.833 481.365 199.5 481.099 199.219C480.833 198.938 480.526 198.729 480.177 198.599C479.823 198.469 479.458 198.422 479.073 198.458C478.688 198.5 478.318 198.62 477.958 198.823C477.599 199.026 477.281 199.292 477 199.63C476.724 199.964 476.505 200.344 476.349 200.76C476.193 201.177 476.109 201.604 476.099 202.042C476.089 202.474 476.151 202.885 476.292 203.276C476.427 203.661 476.63 204 476.896 204.281C477.161 204.563 477.469 204.766 477.818 204.901Z" fill="#009B3A"/>
<mask id="mask3_0_1" style="mask-type:luminance" maskUnits="userSpaceOnUse" x="485" y="200" width="13" height="13">
<path d="M485.714 200.432H497.714V212.432H485.714V200.432Z" fill="white"/>
</mask>
<g mask="url(#mask3_0_1)">
<mask id="mask4_0_1" style="mask-type:luminance" maskUnits="userSpaceOnUse" x="485" y="200" width="14" height="14">
<path d="M489.5 200.089L498.474 203.984L494.208 213.797L485.234 209.896L489.5 200.089Z" fill="white"/>
</mask>
<g mask="url(#mask4_0_1)">
<mask id="mask5_0_1" style="mask-type:luminance" maskUnits="userSpaceOnUse" x="485" y="200" width="14" height="14">
<path d="M485.302 209.927L489.573 200.115L498.401 203.958L494.135 213.766L485.302 209.927ZM492.583 205.26L491.854 206.943L496.271 208.859L497 207.182L492.583 205.26Z" fill="white"/>
</mask>
<g mask="url(#mask5_0_1)">
<path fill-rule="evenodd" clip-rule="evenodd" d="M489.719 211.849C490.307 212.104 490.922 212.224 491.573 212.208C492.224 212.193 492.854 212.047 493.469 211.766C494.083 211.49 494.63 211.099 495.115 210.594C495.604 210.089 495.984 209.51 496.271 208.859C496.552 208.214 496.714 207.536 496.75 206.839C496.786 206.141 496.698 205.469 496.484 204.833C496.271 204.193 495.948 203.63 495.516 203.146C495.083 202.661 494.573 202.292 493.984 202.036C493.401 201.781 492.781 201.661 492.135 201.677C491.484 201.688 490.854 201.839 490.24 202.115C489.625 202.396 489.073 202.786 488.589 203.292C488.104 203.797 487.719 204.37 487.438 205.021C487.156 205.672 486.995 206.349 486.958 207.047C486.922 207.745 487.01 208.411 487.224 209.052C487.438 209.693 487.76 210.255 488.193 210.74C488.625 211.224 489.135 211.594 489.719 211.849ZM490.51 210.026C490.854 210.177 491.219 210.24 491.609 210.224C491.995 210.203 492.37 210.104 492.74 209.922C493.109 209.734 493.443 209.484 493.734 209.161C494.031 208.844 494.271 208.479 494.448 208.068C494.625 207.661 494.729 207.24 494.76 206.802C494.797 206.37 494.755 205.953 494.635 205.557C494.516 205.167 494.333 204.818 494.083 204.526C493.833 204.229 493.536 204.01 493.193 203.859C492.849 203.708 492.484 203.646 492.099 203.661C491.714 203.682 491.339 203.781 490.969 203.964C490.599 204.146 490.266 204.401 489.969 204.719C489.677 205.042 489.438 205.406 489.26 205.813C489.083 206.224 488.979 206.646 488.943 207.078C488.911 207.516 488.953 207.932 489.073 208.323C489.188 208.719 489.37 209.063 489.62 209.359C489.87 209.656 490.167 209.875 490.51 210.026Z" fill="#009B3A"/>
</g>
</g>
</g>
<path d="M492.552 207.245L496.271 208.859L495.661 210.266L491.943 208.646L492.552 207.245Z" fill="#009B3A"/>
<path d="M494.87 208.25L496.271 208.859L494.135 213.766L492.734 213.156L494.87 208.25Z" fill="#009B3A"/>
<path fill-rule="evenodd" clip-rule="evenodd" d="M497.724 215.438L499.5 216.328L501.276 212.771L505.104 214.677C505.505 214.88 505.927 214.995 506.37 215.026C506.818 215.057 507.25 215 507.672 214.859C508.099 214.719 508.474 214.5 508.813 214.208C509.151 213.917 509.417 213.568 509.615 213.172C509.818 212.771 509.932 212.349 509.964 211.906C509.995 211.458 509.938 211.026 509.797 210.604C509.656 210.182 509.438 209.802 509.146 209.464C508.854 209.13 508.505 208.859 508.109 208.661L502.635 205.932L497.724 215.438ZM502.161 210.99L505.854 212.833C506.021 212.917 506.193 212.964 506.375 212.974C506.557 212.984 506.734 212.964 506.906 212.906C507.078 212.849 507.234 212.76 507.37 212.641C507.51 212.521 507.62 212.38 507.703 212.214C507.781 212.052 507.828 211.88 507.844 211.698C507.854 211.516 507.833 211.339 507.776 211.167C507.719 210.995 507.63 210.839 507.51 210.698C507.391 210.563 507.245 210.453 507.083 210.37L503.391 208.531L502.161 210.99Z" fill="#009B3A"/>
<path d="M505.865 219.495C506.547 218.13 508.047 215.12 505.995 214.099L503.396 212.802C506.406 214.302 504.906 217.313 504.224 218.677" fill="#009B3A"/>
<path d="M509.839 221.594L518.219 226.333L519.198 224.604L512.411 220.766L513.766 218.375L519.089 221.385L519.995 219.786L514.672 216.776L515.724 214.917L522.109 218.526L523.089 216.797L515.104 212.281L509.839 221.594Z" fill="#009B3A"/>
<path d="M525.448 226.828C524.875 227.734 525.458 228.74 526.745 229.557C528.036 230.38 528.911 230.349 529.286 229.771C530.453 227.932 523.688 225.255 525.776 222.052C527.573 219.302 530.651 221.443 531.807 222.182C532.969 222.922 534.833 224.833 533.385 227.036L531.417 225.786C532.031 224.818 531.359 223.891 530.328 223.229C529.328 222.594 528.516 222.302 527.917 223.24C526.922 224.734 533.552 227.552 531.521 230.745C530.021 233.094 527.411 232.068 525.672 230.958C524.193 230.016 521.974 227.786 523.417 225.536L525.448 226.828Z" fill="#009B3A"/>
<path d="M536.927 234.422C536.307 235.292 536.839 236.323 538.083 237.214C539.328 238.099 540.203 238.115 540.604 237.557C541.87 235.786 535.255 232.755 537.505 229.667C539.443 227.016 542.401 229.313 543.521 230.109C544.646 230.911 546.406 232.917 544.844 235.042L542.943 233.688C543.609 232.755 542.984 231.792 541.984 231.078C541.021 230.391 540.229 230.063 539.583 230.964C538.51 232.401 544.984 235.563 542.786 238.646C541.167 240.917 538.615 239.755 536.938 238.552C535.505 237.536 533.411 235.193 534.969 233.021L536.927 234.422Z" fill="#009B3A"/>
<path fill-rule="evenodd" clip-rule="evenodd" d="M547.787 246.729C548.287 247.125 548.849 247.401 549.479 247.557C550.115 247.714 550.76 247.734 551.427 247.62C552.094 247.51 552.724 247.276 553.323 246.911C553.922 246.552 554.443 246.094 554.885 245.542C555.328 244.984 555.656 244.375 555.875 243.708C556.089 243.042 556.177 242.375 556.135 241.703C556.094 241.026 555.927 240.401 555.635 239.823C555.344 239.24 554.948 238.755 554.448 238.354C553.948 237.958 553.38 237.682 552.75 237.526C552.12 237.375 551.474 237.349 550.807 237.464C550.141 237.573 549.51 237.813 548.912 238.172C548.313 238.531 547.792 238.99 547.349 239.547C546.906 240.099 546.578 240.708 546.359 241.375C546.146 242.042 546.057 242.708 546.099 243.385C546.135 244.057 546.302 244.682 546.599 245.266C546.891 245.844 547.287 246.333 547.787 246.729ZM549.021 245.172C549.318 245.406 549.651 245.563 550.031 245.646C550.406 245.729 550.797 245.729 551.203 245.646C551.604 245.568 551.99 245.406 552.359 245.177C552.729 244.943 553.052 244.651 553.328 244.302C553.609 243.953 553.818 243.573 553.964 243.161C554.104 242.75 554.172 242.339 554.162 241.927C554.151 241.516 554.063 241.135 553.896 240.786C553.734 240.438 553.505 240.146 553.208 239.911C552.917 239.677 552.583 239.521 552.203 239.438C551.828 239.354 551.438 239.354 551.031 239.438C550.63 239.521 550.24 239.677 549.875 239.911C549.505 240.141 549.182 240.432 548.901 240.781C548.625 241.13 548.417 241.51 548.271 241.922C548.125 242.333 548.063 242.745 548.073 243.156C548.083 243.568 548.172 243.953 548.333 244.302C548.5 244.651 548.729 244.943 549.021 245.172Z" fill="#009B3A"/>
<path d="M358.729 200.109L357.245 204.688L359.531 205.432" fill="white"/>
<path d="M358.729 200.109L360.219 204.688L357.927 205.432" fill="white"/>
<path d="M363.313 203.438H358.495V205.844" fill="white"/>
<path d="M363.313 203.438L359.417 206.266L358 204.323" fill="white"/>
<path d="M354.151 203.438L358.047 206.266L359.464 204.323" fill="white"/>
<path d="M354.151 203.438H358.964V205.844" fill="white"/>
<path d="M361.563 208.823L360.073 204.24L357.781 204.984" fill="white"/>
<path d="M361.563 208.823L357.667 205.99L359.078 204.042" fill="white"/>
<path d="M355.901 208.823L359.797 205.99L358.38 204.042" fill="white"/>
<path d="M355.901 208.823L357.385 204.24L359.677 204.984" fill="white"/>
<path d="M368.667 247.339L367.177 251.917L369.469 252.656" fill="white"/>
<path d="M368.667 247.339L370.156 251.917L367.865 252.656" fill="white"/>
<path d="M373.245 250.661H368.432V253.068" fill="white"/>
<path d="M373.245 250.661L369.349 253.495L367.938 251.547" fill="white"/>
<path d="M364.089 250.661L367.984 253.495L369.396 251.547" fill="white"/>
<path d="M364.089 250.661H368.901V253.068" fill="white"/>
<path d="M371.495 256.047L370.01 251.469L367.719 252.208" fill="white"/>
<path d="M371.495 256.047L367.599 253.214L369.016 251.271" fill="white"/>
<path d="M365.839 256.047L369.734 253.214L368.318 251.271" fill="white"/>
<path d="M365.839 256.047L367.323 251.469L369.615 252.208" fill="white"/>
<path d="M354.906 258.224L353.667 262.042L355.578 262.661" fill="white"/>
<path d="M354.906 258.224L356.151 262.042L354.24 262.661" fill="white"/>
<path d="M358.724 261H354.714V263.005" fill="white"/>
<path d="M358.724 261L355.479 263.354L354.297 261.734" fill="white"/>
<path d="M351.094 261L354.339 263.354L355.516 261.734" fill="white"/>
<path d="M351.094 261H355.104V263.005" fill="white"/>
<path d="M357.266 265.484L356.026 261.667L354.12 262.286" fill="white"/>
<path d="M357.266 265.484L354.021 263.125L355.198 261.5" fill="white"/>
<path d="M352.552 265.484L355.797 263.125L354.615 261.5" fill="white"/>
<path d="M352.552 265.484L353.792 261.667L355.698 262.286" fill="white"/>
<path d="M379.672 242.979L378.964 245.161L380.057 245.516" fill="white"/>
<path d="M379.672 242.979L380.38 245.161L379.292 245.516" fill="white"/>
<path d="M381.854 244.563H379.562V245.714" fill="white"/>
<path d="M381.854 244.563L380 245.911L379.323 244.984" fill="white"/>
<path d="M377.495 244.563L379.349 245.911L380.021 244.984" fill="white"/>
<path d="M377.495 244.563H379.786V245.714" fill="white"/>
<path d="M381.021 247.13L380.313 244.948L379.224 245.302" fill="white"/>
<path d="M381.021 247.13L379.167 245.781L379.839 244.854" fill="white"/>
<path d="M378.323 247.13L380.182 245.781L379.505 244.854" fill="white"/>
<path d="M378.323 247.13L379.036 244.948L380.125 245.302" fill="white"/>
<path d="M392.057 259.297L390.818 263.109L392.724 263.729" fill="white"/>
<path d="M392.057 259.297L393.297 263.109L391.385 263.729" fill="white"/>
<path d="M395.87 262.068H391.859V264.073" fill="white"/>
<path d="M395.87 262.068L392.625 264.427L391.448 262.802" fill="white"/>
<path d="M388.24 262.068L391.484 264.427L392.667 262.802" fill="white"/>
<path d="M388.24 262.068H392.25V264.073" fill="white"/>
<path d="M394.417 266.552L393.172 262.74L391.266 263.359" fill="white"/>
<path d="M394.417 266.552L391.167 264.193L392.349 262.573" fill="white"/>
<path d="M389.698 266.552L392.943 264.193L391.766 262.573" fill="white"/>
<path d="M389.698 266.552L390.938 262.74L392.844 263.359" fill="white"/>
<path d="M388.693 271.255L387.698 274.307L389.229 274.802" fill="white"/>
<path d="M388.693 271.255L389.682 274.307L388.156 274.802" fill="white"/>
<path d="M391.745 273.474H388.536V275.078" fill="white"/>
<path d="M391.745 273.474L389.151 275.359L388.203 274.062" fill="white"/>
<path d="M385.641 273.474L388.234 275.359L389.182 274.062" fill="white"/>
<path d="M385.641 273.474H388.849V275.078" fill="white"/>
<path d="M390.578 277.062L389.589 274.01L388.062 274.505" fill="white"/>
<path d="M390.578 277.063L387.984 275.172L388.927 273.875" fill="white"/>
<path d="M386.807 277.063L389.401 275.172L388.458 273.875" fill="white"/>
<path d="M386.807 277.062L387.797 274.01L389.323 274.505" fill="white"/>
<path d="M485.307 185.438L483.818 190.016L486.109 190.76" fill="white"/>
<path d="M485.307 185.438L486.792 190.016L484.505 190.76" fill="white"/>
<path d="M489.885 188.766H485.068V191.172" fill="white"/>
<path d="M489.885 188.766L485.99 191.594L484.573 189.651" fill="white"/>
<path d="M480.724 188.766L484.62 191.594L486.036 189.651" fill="white"/>
<path d="M480.724 188.766H485.542V191.172" fill="white"/>
<path d="M488.135 194.151L486.646 189.568L484.359 190.313" fill="white"/>
<path d="M488.135 194.151L484.24 191.318L485.656 189.37" fill="white"/>
<path d="M482.474 194.151L486.37 191.318L484.953 189.37" fill="white"/>
<path d="M482.474 194.151L483.964 189.568L486.255 190.313" fill="white"/>
<path d="M529.177 259.714L527.693 264.297L529.979 265.036" fill="white"/>
<path d="M529.177 259.714L530.667 264.297L528.375 265.036" fill="white"/>
<path d="M533.76 263.042H528.943V265.448" fill="white"/>
<path d="M533.76 263.042L529.865 265.87L528.448 263.927" fill="white"/>
<path d="M524.599 263.042L528.495 265.87L529.911 263.927" fill="white"/>
<path d="M524.599 263.042H529.417V265.448" fill="white"/>
<path d="M532.01 268.427L530.521 263.844L528.229 264.589" fill="white"/>
<path d="M532.01 268.427L528.115 265.594L529.531 263.646" fill="white"/>
<path d="M526.349 268.427L530.245 265.594L528.828 263.646" fill="white"/>
<path d="M526.349 268.427L527.839 263.844L530.125 264.589" fill="white"/>
<path d="M544.771 262.391L543.781 265.443L545.307 265.938" fill="white"/>
<path d="M544.771 262.391L545.766 265.443L544.24 265.938" fill="white"/>
<path d="M547.823 264.609H544.615V266.214" fill="white"/>
<path d="M547.823 264.609L545.229 266.495L544.286 265.198" fill="white"/>
<path d="M541.719 264.609L544.318 266.495L545.26 265.198" fill="white"/>
<path d="M541.719 264.609H544.927V266.214" fill="white"/>
<path d="M546.656 268.198L545.667 265.146L544.141 265.641" fill="white"/>
<path d="M546.656 268.198L544.062 266.307L545.005 265.01" fill="white"/>
<path d="M542.885 268.198L545.479 266.307L544.536 265.01" fill="white"/>
<path d="M542.885 268.198L543.875 265.146L545.401 265.641" fill="white"/>
<path d="M533.766 270.453L532.526 274.266L534.432 274.885" fill="white"/>
<path d="M533.766 270.453L535.005 274.266L533.099 274.885" fill="white"/>
<path d="M537.583 273.224H533.568V275.229" fill="white"/>
<path d="M537.583 273.224L534.333 275.583L533.156 273.958" fill="white"/>
<path d="M529.948 273.224L533.193 275.583L534.375 273.958" fill="white"/>
<path d="M529.948 273.224H533.964V275.229" fill="white"/>
<path d="M536.125 277.708L534.885 273.896L532.974 274.516" fill="white"/>
<path d="M536.125 277.708L532.875 275.354L534.057 273.729" fill="white"/>
<path d="M531.406 277.708L534.651 275.354L533.474 273.729" fill="white"/>
<path d="M531.406 277.708L532.646 273.896L534.552 274.516" fill="white"/>
<path d="M506.708 293.99L505.469 297.802L507.375 298.422" fill="white"/>
<path d="M506.708 293.99L507.948 297.802L506.036 298.422" fill="white"/>
<path d="M510.526 296.76H506.51V298.766" fill="white"/>
<path d="M510.526 296.76L507.276 299.12L506.099 297.495" fill="white"/>
<path d="M502.891 296.76L506.135 299.12L507.318 297.495" fill="white"/>
<path d="M502.891 296.76H506.901V298.766" fill="white"/>
<path d="M509.068 301.245L507.828 297.432L505.917 298.052" fill="white"/>
<path d="M509.068 301.245L505.818 298.885L507 297.266" fill="white"/>
<path d="M504.349 301.245L507.594 298.885L506.417 297.266" fill="white"/>
<path d="M504.349 301.245L505.589 297.432L507.495 298.052" fill="white"/>
<path d="M506.552 306.099L505.562 309.151L507.089 309.651" fill="white"/>
<path d="M506.552 306.099L507.547 309.151L506.021 309.651" fill="white"/>
<path d="M509.609 308.318H506.396V309.922" fill="white"/>
<path d="M509.609 308.318L507.01 310.203L506.068 308.906" fill="white"/>
<path d="M503.5 308.318L506.099 310.203L507.042 308.906" fill="white"/>
<path d="M503.5 308.318H506.714V309.922" fill="white"/>
<path d="M508.443 311.906L507.448 308.854L505.922 309.349" fill="white"/>
<path d="M508.443 311.906L505.844 310.021L506.786 308.724" fill="white"/>
<path d="M504.667 311.906L507.266 310.021L506.323 308.724" fill="white"/>
<path d="M504.667 311.906L505.661 308.854L507.188 309.349" fill="white"/>
<path d="M517.865 285.927L516.875 288.979L518.401 289.474" fill="white"/>
<path d="M517.865 285.927L518.859 288.979L517.333 289.474" fill="white"/>
<path d="M520.922 288.146H517.708V289.75" fill="white"/>
<path d="M520.922 288.146L518.323 290.031L517.38 288.734" fill="white"/>
<path d="M514.812 288.146L517.411 290.031L518.354 288.734" fill="white"/>
<path d="M514.812 288.146H518.026V289.75" fill="white"/>
<path d="M519.755 291.734L518.76 288.682L517.234 289.177" fill="white"/>
<path d="M519.755 291.734L517.156 289.844L518.099 288.547" fill="white"/>
<path d="M515.979 291.734L518.578 289.844L517.635 288.547" fill="white"/>
<path d="M515.979 291.734L516.974 288.682L518.5 289.177" fill="white"/>
<path d="M526.885 279.469L525.646 283.286L527.552 283.906" fill="white"/>
<path d="M526.885 279.469L528.125 283.286L526.219 283.906" fill="white"/>
<path d="M530.703 282.24H526.688V284.245" fill="white"/>
<path d="M530.703 282.24L527.458 284.599L526.276 282.979" fill="white"/>
<path d="M523.068 282.24L526.318 284.599L527.495 282.979" fill="white"/>
<path d="M523.068 282.24H527.083V284.245" fill="white"/>
<path d="M529.245 286.729L528.005 282.911L526.094 283.531" fill="white"/>
<path d="M529.245 286.729L526 284.37L527.177 282.745" fill="white"/>
<path d="M524.526 286.729L527.776 284.37L526.594 282.745" fill="white"/>
<path d="M524.526 286.729L525.766 282.911L527.677 283.531" fill="white"/>
<path d="M506.25 283.786L505.255 286.839L506.781 287.333" fill="white"/>
<path d="M506.25 283.786L507.24 286.839L505.714 287.333" fill="white"/>
<path d="M509.302 286.005H506.094V287.609" fill="white"/>
<path d="M509.302 286.005L506.703 287.891L505.76 286.594" fill="white"/>
<path d="M503.198 286.005L505.792 287.891L506.734 286.594" fill="white"/>
<path d="M503.198 286.005H506.406V287.609" fill="white"/>
<path d="M508.135 289.594L507.146 286.542L505.615 287.036" fill="white"/>
<path d="M508.135 289.594L505.536 287.708L506.484 286.406" fill="white"/>
<path d="M504.359 289.594L506.958 287.708L506.016 286.406" fill="white"/>
<path d="M504.359 289.594L505.354 286.542L506.88 287.036" fill="white"/>
<path d="M407.646 225.672L406.406 229.49L408.318 230.109" fill="white"/>
<path d="M407.646 225.672L408.891 229.49L406.979 230.109" fill="white"/>
<path d="M411.464 228.443H407.453V230.453" fill="white"/>
<path d="M411.464 228.443L408.219 230.802L407.036 229.182" fill="white"/>
<path d="M403.833 228.443L407.078 230.802L408.255 229.182" fill="white"/>
<path d="M403.833 228.443H407.844V230.453" fill="white"/>
<path d="M410.005 232.932L408.766 229.115L406.859 229.734" fill="white"/>
<path d="M410.005 232.932L406.76 230.573L407.938 228.948" fill="white"/>
<path d="M405.292 232.932L408.536 230.573L407.354 228.948" fill="white"/>
<path d="M405.292 232.932L406.531 229.115L408.438 229.734" fill="white"/>
<path d="M481.026 216.234L480.031 219.286L481.557 219.781" fill="white"/>
<path d="M481.026 216.234L482.016 219.286L480.49 219.781" fill="white"/>
<path d="M484.078 218.453H480.87V220.057" fill="white"/>
<path d="M484.078 218.453L481.479 220.339L480.536 219.042" fill="white"/>
<path d="M477.974 218.453L480.568 220.339L481.51 219.042" fill="white"/>
<path d="M477.974 218.453H481.182V220.057" fill="white"/>
<path d="M482.911 222.042L481.922 218.99L480.396 219.484" fill="white"/>
<path d="M482.911 222.042L480.312 220.156L481.26 218.854" fill="white"/>
<path d="M479.141 222.042L481.734 220.156L480.792 218.854" fill="white"/>
<path d="M479.141 222.042L480.13 218.99L481.656 219.484" fill="white"/>
<path d="M450.453 270.719L448.964 275.297L451.255 276.042" fill="white"/>
<path d="M450.453 270.719L451.938 275.297L449.651 276.042" fill="white"/>
<path d="M455.031 274.047H450.214V276.453" fill="white"/>
<path d="M455.031 274.047L451.135 276.875L449.719 274.927" fill="white"/>
<path d="M445.87 274.047L449.766 276.875L451.182 274.927" fill="white"/>
<path d="M445.87 274.047H450.688V276.453" fill="white"/>
<path d="M453.281 279.427L451.792 274.849L449.505 275.594" fill="white"/>
<path d="M453.281 279.427L449.385 276.599L450.802 274.651" fill="white"/>
<path d="M447.62 279.427L451.516 276.599L450.104 274.651" fill="white"/>
<path d="M447.62 279.427L449.109 274.849L451.401 275.594" fill="white"/>
<path d="M463.448 249.208L462.203 253.026L464.115 253.646" fill="white"/>
<path d="M463.448 249.208L464.688 253.026L462.776 253.646" fill="white"/>
<path d="M467.26 251.979H463.25V253.984" fill="white"/>
<path d="M467.26 251.979L464.016 254.339L462.839 252.714" fill="white"/>
<path d="M459.63 251.979L462.875 254.339L464.057 252.714" fill="white"/>
<path d="M459.63 251.979H463.641V253.984" fill="white"/>
<path d="M465.802 256.464L464.563 252.651L462.656 253.271" fill="white"/>
<path d="M465.802 256.464L462.557 254.109L463.734 252.484" fill="white"/>
<path d="M461.089 256.464L464.333 254.109L463.156 252.484" fill="white"/>
<path d="M461.089 256.464L462.328 252.651L464.234 253.271" fill="white"/>
<path d="M450.453 239.12L449.214 242.938L451.12 243.557" fill="white"/>
<path d="M450.453 239.12L451.693 242.938L449.781 243.557" fill="white"/>
<path d="M454.266 241.896H450.255V243.901" fill="white"/>
<path d="M454.266 241.896L451.021 244.25L449.844 242.63" fill="white"/>
<path d="M446.635 241.896L449.88 244.25L451.063 242.63" fill="white"/>
<path d="M446.635 241.896H450.646V243.901" fill="white"/>
<path d="M452.813 246.38L451.568 242.563L449.661 243.182" fill="white"/>
<path d="M452.813 246.38L449.562 244.021L450.745 242.396" fill="white"/>
<path d="M448.094 246.38L451.339 244.021L450.161 242.396" fill="white"/>
<path d="M448.094 246.38L449.333 242.563L451.24 243.182" fill="white"/>
<path d="M439.141 250.01L438.146 253.063L439.672 253.557" fill="white"/>
<path d="M439.141 250.01L440.13 253.063L438.604 253.557" fill="white"/>
<path d="M442.193 252.229H438.984V253.833" fill="white"/>
<path d="M442.193 252.229L439.594 254.115L438.651 252.818" fill="white"/>
<path d="M436.089 252.229L438.682 254.115L439.625 252.818" fill="white"/>
<path d="M436.089 252.229H439.297V253.833" fill="white"/>
<path d="M441.026 255.818L440.036 252.766L438.505 253.26" fill="white"/>
<path d="M441.026 255.818L438.427 253.932L439.375 252.63" fill="white"/>
<path d="M437.25 255.818L439.849 253.932L438.906 252.63" fill="white"/>
<path d="M437.25 255.818L438.245 252.766L439.771 253.26" fill="white"/>
<path d="M444.797 258.724L444.089 260.901L445.177 261.255" fill="white"/>
<path d="M444.797 258.724L445.505 260.901L444.411 261.255" fill="white"/>
<path d="M446.974 260.307H444.682V261.453" fill="white"/>
<path d="M446.974 260.307L445.12 261.656L444.448 260.729" fill="white"/>
<path d="M442.615 260.307L444.469 261.656L445.146 260.729" fill="white"/>
<path d="M442.615 260.307H444.906V261.453" fill="white"/>
<path d="M446.141 262.87L445.432 260.688L444.344 261.042" fill="white"/>
<path d="M446.141 262.87L444.286 261.521L444.964 260.594" fill="white"/>
<path d="M443.448 262.87L445.302 261.521L444.63 260.594" fill="white"/>
<path d="M443.448 262.87L444.156 260.688L445.245 261.042" fill="white"/>
<path d="M484.083 296.74L482.844 300.557L484.75 301.177" fill="white"/>
<path d="M484.083 296.74L485.323 300.557L483.417 301.177" fill="white"/>
<path d="M487.901 299.51H483.885V301.516" fill="white"/>
<path d="M487.901 299.51L484.651 301.87L483.474 300.245" fill="white"/>
<path d="M480.266 299.51L483.51 301.87L484.693 300.245" fill="white"/>
<path d="M480.266 299.51H484.281V301.516" fill="white"/>
<path d="M486.443 303.995L485.203 300.182L483.292 300.802" fill="white"/>
<path d="M486.443 303.995L483.193 301.641L484.375 300.016" fill="white"/>
<path d="M481.724 303.995L484.969 301.641L483.792 300.016" fill="white"/>
<path d="M481.724 303.995L482.964 300.182L484.87 300.802" fill="white"/>
<path d="M493.714 287.609L492.724 290.661L494.25 291.156" fill="white"/>
<path d="M493.714 287.609L494.703 290.661L493.177 291.156" fill="white"/>
<path d="M496.766 289.823H493.557V291.432" fill="white"/>
<path d="M496.766 289.823L494.172 291.714L493.224 290.411" fill="white"/>
<path d="M490.661 289.823L493.255 291.714L494.203 290.411" fill="white"/>
<path d="M490.661 289.823H493.87V291.432" fill="white"/>
<path d="M495.599 293.411L494.609 290.359L493.083 290.859" fill="white"/>
<path d="M495.599 293.411L493.005 291.526L493.948 290.229" fill="white"/>
<path d="M491.828 293.411L494.422 291.526L493.479 290.229" fill="white"/>
<path d="M491.828 293.411L492.818 290.359L494.344 290.859" fill="white"/>
<path d="M475.219 284.854L474.224 287.911L475.75 288.406" fill="white"/>
<path d="M475.219 284.854L476.208 287.911L474.682 288.406" fill="white"/>
<path d="M478.271 287.073H475.057V288.677" fill="white"/>
<path d="M478.271 287.073L475.672 288.958L474.729 287.661" fill="white"/>
<path d="M472.161 287.073L474.76 288.958L475.703 287.661" fill="white"/>
<path d="M472.161 287.073H475.375V288.677" fill="white"/>
<path d="M477.104 290.661L476.109 287.609L474.583 288.104" fill="white"/>
<path d="M477.104 290.661L474.505 288.776L475.448 287.479" fill="white"/>
<path d="M473.328 290.661L475.927 288.776L474.984 287.479" fill="white"/>
<path d="M473.328 290.661L474.323 287.609L475.849 288.104" fill="white"/>
<path d="M405.354 279.891L403.87 284.469L406.156 285.214" fill="white"/>
<path d="M405.354 279.891L406.844 284.469L404.552 285.214" fill="white"/>
<path d="M409.938 283.214H405.12V285.625" fill="white"/>
<path d="M409.932 283.214L406.042 286.047L404.625 284.099" fill="white"/>
<path d="M400.776 283.214L404.672 286.047L406.089 284.099" fill="white"/>
<path d="M400.776 283.214H405.589V285.625" fill="white"/>
<path d="M408.188 288.599L406.698 284.021L404.406 284.766" fill="white"/>
<path d="M408.188 288.599L404.292 285.771L405.703 283.823" fill="white"/>
<path d="M402.526 288.599L406.422 285.771L405.005 283.823" fill="white"/>
<path d="M402.526 288.599L404.01 284.021L406.302 284.766" fill="white"/>
<path d="M450.453 311.375L449.953 312.901L450.719 313.146" fill="white"/>
<path d="M450.453 311.375L450.948 312.901L450.182 313.146" fill="white"/>
<path d="M451.979 312.479H450.375V313.286" fill="white"/>
<path d="M451.979 312.479L450.677 313.427L450.208 312.776" fill="white"/>
<path d="M448.927 312.479L450.224 313.427L450.693 312.776" fill="white"/>
<path d="M448.927 312.479H450.531V313.286" fill="white"/>
<path d="M451.396 314.276L450.901 312.75L450.135 313" fill="white"/>
<path d="M451.396 314.276L450.099 313.333L450.568 312.682" fill="white"/>
<path d="M449.51 314.276L450.807 313.333L450.333 312.682" fill="white"/>
<path d="M449.51 314.276L450.005 312.75L450.766 313" fill="white"/>
</g>
<defs>
<clipPath id="clip0_0_1">
<rect width="900" height="450" fill="white"/>
</clipPath>
</defs>
</svg>
