<svg width="900" height="450" viewBox="0 0 900 450" fill="none" xmlns="http://www.w3.org/2000/svg">
<g clip-path="url(#clip0_763_5128)">
<path d="M900 0H0V450H900V0Z" fill="#1E1E1E"/>
<mask id="mask0_763_5128" style="mask-type:luminance" maskUnits="userSpaceOnUse" x="0" y="0" width="900" height="450">
<path d="M900 0H0V450H900V0Z" fill="white"/>
</mask>
<g mask="url(#mask0_763_5128)">
<path d="M900 0H0V450H900V0Z" fill="white"/>
<mask id="mask1_763_5128" style="mask-type:luminance" maskUnits="userSpaceOnUse" x="0" y="0" width="900" height="450">
<path d="M0 0H900V450H0V0Z" fill="white"/>
</mask>
<g mask="url(#mask1_763_5128)">
<path d="M0 0H900V450H0V0Z" fill="white"/>
<path d="M0 0H900V450H0V0Z" fill="white"/>
<path d="M0 0H900V450H0V0Z" fill="#00778B"/>
</g>
<mask id="mask2_763_5128" style="mask-type:luminance" maskUnits="userSpaceOnUse" x="0" y="149" width="900" height="151">
<path d="M0 149.333H900V299.333H0V149.333Z" fill="white"/>
</mask>
<g mask="url(#mask2_763_5128)">
<path d="M0 149.774H900V298.893H0V149.774Z" fill="#FFC72C"/>
</g>
<mask id="mask3_763_5128" style="mask-type:luminance" maskUnits="userSpaceOnUse" x="0" y="0" width="390" height="450">
<path d="M0 0H390V450H0V0Z" fill="white"/>
</mask>
<g mask="url(#mask3_763_5128)">
<path d="M0 0V450L389.135 225L0 0Z" fill="black"/>
</g>
</g>
</g>
<defs>
<clipPath id="clip0_763_5128">
<rect width="900" height="450" fill="white"/>
</clipPath>
</defs>
</svg>
