<svg width="900" height="450" viewBox="0 0 900 450" fill="none" xmlns="http://www.w3.org/2000/svg">
<rect width="900" height="450" fill="#1E1E1E"/>
<g clip-path="url(#clip0_0_1)">
<rect width="900" height="450" fill="white"/>
<mask id="mask0_0_1" style="mask-type:luminance" maskUnits="userSpaceOnUse" x="0" y="0" width="900" height="450">
<path d="M0 -3.37219e-06H900V450H0V-3.37219e-06Z" fill="white"/>
</mask>
<g mask="url(#mask0_0_1)">
<path d="M0 -3.37219e-06H900V450H0V-3.37219e-06Z" fill="white"/>
<path d="M0 -3.37219e-06H900V450H0V-3.37219e-06Z" fill="white"/>
<path d="M0 -3.37219e-06H900V450H0V-3.37219e-06Z" fill="#1E1E1E"/>
<path d="M900 -3.37219e-06H0V450H900V-3.37219e-06Z" fill="#FFD520"/>
<path d="M0 450H900V-3.37219e-06L0 450Z" fill="#FF4E12"/>
</g>
<path d="M474.213 136.187C470.541 134.885 468.172 136.776 468.291 141.516C468.406 146.255 470.896 148.979 474.567 147.203L474.213 136.187Z" fill="white" stroke="black" stroke-width="0.520229"/>
<path d="M477.432 127.312C474.375 124.901 471.526 125.932 470.114 130.458C468.703 134.984 470.187 138.364 474.234 137.859L477.432 127.312Z" fill="white" stroke="black" stroke-width="0.520229"/>
<path d="M482.526 118.724C479.89 115.854 476.911 116.417 474.791 120.656C472.677 124.896 473.599 128.469 477.677 128.625L482.526 118.724Z" fill="white" stroke="black" stroke-width="0.520229"/>
<path d="M479.182 160.469C474.682 162.125 474.208 168.281 477.052 172.073C479.896 175.864 485.109 176.573 487.948 172.073L479.187 160.463L479.182 160.469Z" fill="white" stroke="black" stroke-width="0.520229"/>
<path d="M473.974 147.437C469.708 146.016 465.87 151.739 465.208 156.911C464.38 163.427 455.14 165.557 460.239 175.391C461.302 169.109 465.448 165.677 468.765 165.437C472.083 165.203 477.057 164.495 479.187 160.463L473.974 147.437Z" fill="white" stroke="black" stroke-width="0.520229"/>
<path d="M487.474 172.781C482.5 173.969 481.791 180.599 485.343 185.338C488.385 189.396 497.896 188.417 497.661 184.39L487.474 172.781Z" fill="white" stroke="black" stroke-width="0.520229"/>
<path d="M501.573 212.698C501.812 208.437 494.942 206.776 491.625 207.604C488.307 208.437 481.974 207.489 480.489 203.932C479.307 206.776 481.026 209.854 485.823 211.396C489.453 212.562 489.375 215.187 488.307 216.37C491.036 216.844 499.088 216.844 501.573 212.698Z" fill="white" stroke="black" stroke-width="0.520229"/>
<path d="M497.666 185.458C492.812 183.328 489.932 186.578 488.073 189.724C485.349 194.344 476.937 188.422 474.099 194.578C477.948 192.922 481.864 196.458 483.687 197.661C488.901 201.094 498.968 200.031 500.39 191.974L497.666 185.458Z" fill="white" stroke="black" stroke-width="0.520229"/>
<path d="M500.505 191.141C495.651 194.812 493.755 199.193 493.875 202.156C493.994 205.114 498.14 211.63 502.64 211.984C505.244 206.656 506.552 195.406 500.505 191.141Z" fill="white" stroke="black" stroke-width="0.520229"/>
<path d="M480.375 214C480.375 212.224 482.984 211.515 484.755 212.104C486.536 212.698 489.26 214.474 488.312 216.37L480.375 214Z" fill="white" stroke="black" stroke-width="0.520229"/>
<path d="M453.604 204.292C453.13 202.156 456.562 198.484 461.182 200.5C465.802 202.51 466.396 206.422 464.5 207.958L453.604 204.292Z" fill="white" stroke="black" stroke-width="0.520229"/>
<path d="M464.854 208.198C464.494 207.01 467.823 204.646 473.5 206.062C479.182 207.484 480.578 211.146 480.369 214L464.854 208.198Z" fill="white" stroke="black" stroke-width="0.520229"/>
<path d="M453.015 204.292C455.974 202.036 454.854 197.776 452.182 196.469C447.328 194.104 449.104 187.943 446.026 186.76C442.948 185.573 439.984 183.443 439.864 181.312C438.323 184.271 439.271 186.995 441.406 188.891C443.536 190.786 439.75 198.484 442.468 200.5L453.015 204.292Z" fill="white" stroke="black" stroke-width="0.520229"/>
<path d="M389.526 202.635C387.036 198.724 381.114 199.437 378.63 202.161C376.14 204.885 376.495 208.911 378.864 210.687L389.526 202.635Z" fill="white" stroke="black" stroke-width="0.520229"/>
<path d="M403.739 196.828C402.791 191.614 396.515 191.026 393.078 192.328C389.646 193.63 387.276 198.844 389.526 202.63L403.739 196.828Z" fill="white" stroke="black" stroke-width="0.520229"/>
<path d="M413.213 196.114C415.468 191.734 411.083 185.219 406.109 184.271C401.958 183.479 397.047 183.5 395.448 179.417C394.442 182.969 397.109 185.219 400.187 187.229C403.265 189.245 399.594 194.458 404.567 197.417L413.213 196.114Z" fill="white" stroke="black" stroke-width="0.520229"/>
<path d="M412.744 196.271C411.708 193.13 413.812 188.953 418.067 189.245C422.323 189.536 424.744 192.63 422.869 196.5L412.744 196.271Z" fill="white" stroke="black" stroke-width="0.520229"/>
<path d="M422.213 196.505C421.63 193.25 424.297 189.411 428.468 190.297C432.64 191.182 434.609 194.588 432.208 198.151L422.213 196.505Z" fill="white" stroke="black" stroke-width="0.520229"/>
<path d="M431.625 198C431.203 194.719 434.057 191.016 438.182 192.109C442.307 193.203 444.099 196.703 441.526 200.14L431.625 198Z" fill="white" stroke="black" stroke-width="0.520229"/>
<path d="M360.151 252.26C352.213 252.26 350.276 254.151 349.135 262.328C347.713 272.515 361.573 273.698 360.151 252.26Z" fill="white" stroke="black" stroke-width="0.520229"/>
<path d="M363.708 241.599C351.505 236.979 344.875 256.286 332.791 252.849C337.114 259.719 347.594 252.864 351.505 253.562C358.14 254.745 372.469 252.26 363.708 241.599Z" fill="white" stroke="black" stroke-width="0.520229"/>
<path d="M355.765 268.015C349.724 265.291 343.213 274.526 344.396 278.557C345.901 283.672 359.677 279.505 355.765 268.015Z" fill="white" stroke="black" stroke-width="0.520229"/>
<path d="M327.578 307.812C330.896 308.755 334.922 310.656 334.213 317.047C333.5 323.443 321.422 336.474 310.526 337.182C299.63 337.896 295.719 351.041 286.359 347.37C295.125 345.713 295.125 335.76 301.995 332.682C297.021 330.906 294.416 342.161 288.021 342.161C281.625 342.161 278.547 352.344 270.729 351.635C262.911 350.927 262.088 364.031 246.448 364.192C234.484 364.307 219.677 378.281 214.349 372.245C225.958 370.588 230.64 364.151 237.562 357.083C248.698 345.713 261.255 350.807 265.515 340.739C260.422 344.172 254.5 345.828 248.698 345.713C241.411 345.562 233.417 357.323 225.245 352.109C229.984 351.515 233.062 349.505 238.036 344.291C243.13 338.953 250.609 342.401 256.515 336.948C265.755 328.422 273.687 335.526 282.573 324.864C280.083 323.682 274.755 324.51 269.781 327.114C264.807 329.724 258.411 325.338 252.724 328.422C253.437 321.432 266.703 325.432 274.995 320.604C284.349 315.156 292.109 316.75 299.51 317.406C289.203 317.349 285.177 307.573 270.963 310.416C264.765 311.656 259.833 301.89 253.672 306.859C253.849 303.193 260.307 300.229 266.937 303.786C273.573 307.338 276.245 300.677 289.443 308.995C294.89 312.427 304.25 306.859 310.172 310.536C309.401 308.286 306.026 306.859 302.057 307.161C304.547 302.068 320.594 302.719 327.583 307.812H327.578Z" fill="white" stroke="black" stroke-width="0.520229"/>
<path d="M338.125 300.109C332.911 296.083 325.687 300.937 320.713 299.042C320.713 302.359 322.37 307.333 327.818 309.229C329.474 308.047 336.937 301.531 338.125 300.109Z" fill="white" stroke="black" stroke-width="0.520229"/>
<path d="M346.297 288.62C338.125 284.479 336.703 294.781 330.307 292.651C330.547 295.609 332.911 299.281 338.125 300.114L346.297 288.625V288.62Z" fill="white" stroke="black" stroke-width="0.520229"/>
<path d="M351.151 279.265C339.073 274.526 337.531 286.135 330.427 283.88C332.083 287.911 342.271 290.041 347.484 288.62L351.151 279.265Z" fill="white" stroke="black" stroke-width="0.520229"/>
<path d="M367.729 228.453C364.531 223.953 357.781 227.625 356.713 232.953C355.651 238.281 358.255 245.745 362.755 244.088L367.729 228.453Z" fill="white" stroke="black" stroke-width="0.520229"/>
<path d="M375.906 214.234C370.338 212.932 363.942 213.526 364.651 218.974C362.521 219.922 361.927 226.911 367.734 228.448L375.906 214.234Z" fill="white" stroke="black" stroke-width="0.520229"/>
<path d="M379.578 210.562C374.13 204.172 368.052 204.318 364.651 207.01C358.375 211.984 352.276 209.146 352.099 214.12C355.89 211.213 359.203 214.708 362.286 213.646C365.364 212.578 367.614 218.5 376.14 216.01L379.578 210.562Z" fill="white" stroke="black" stroke-width="0.520229"/>
<path d="M366.427 306.156C367.255 307.693 372.349 308.406 374.838 305.802C378.135 302.344 374.484 292.771 369.271 292.062C364.057 291.349 363.588 302.838 366.427 306.156Z" fill="white" stroke="black" stroke-width="0.520229"/>
<path d="M360.505 306.39C367.969 309.114 371.166 302.953 367.135 299.047C366.073 300.349 362.161 305.088 360.505 306.39Z" fill="white" stroke="black" stroke-width="0.520229"/>
<path d="M332.552 316.573C331.13 320.838 323.786 321.552 315.495 334.817C307.208 348.083 299.271 342.515 297.255 351.635C307.208 343.578 315.021 348.932 320.942 340.974C329.948 328.89 337.359 330.625 340.844 322.495C345.817 310.89 367.614 311.125 368.797 292.885C361.453 291.463 338.239 311.125 332.552 316.573Z" fill="white" stroke="black" stroke-width="0.520229"/>
<path d="M519.463 137.49C528.937 140.568 529.172 152.885 540.067 156.911C550.968 160.937 552.031 170.651 560.916 168.281C552.625 166.031 553.213 156.437 544.573 154.068C534.432 151.292 530.593 135.828 522.536 133.463" fill="white"/>
<path d="M519.463 137.49C528.937 140.568 529.172 152.885 540.067 156.911C550.968 160.937 552.031 170.651 560.916 168.281C552.625 166.031 553.213 156.437 544.573 154.068C534.432 151.292 530.593 135.828 522.536 133.463" stroke="black" stroke-width="0.520229"/>
<path d="M562.927 201.802C564.588 205.594 564.354 212.344 558.427 214.12C561.625 216.135 566.364 214.239 568.968 209.854C565.062 218.5 567.666 226.318 573.823 227.859C570.864 221.818 577.5 218.979 575.369 215.068C579.276 216.724 582.708 222.057 582.588 225.37C587.687 219.687 578.802 212.104 580.458 206.776L562.927 201.802Z" fill="white" stroke="black" stroke-width="0.520229"/>
<path d="M501.573 262.682C495.771 257.588 493.291 264.01 490.437 261.791C487.776 259.719 484.224 259.422 482.859 261.495C487.838 261.672 485.406 265.521 495.057 266.469C485.406 267.12 487.182 277.901 480.729 277.364C487.599 283.88 491.151 271.562 496.718 273.578C495.057 274.052 499.323 277.958 496.364 283.172C501.161 283.052 503.114 276.416 503.708 272.984L501.573 262.682Z" fill="white" stroke="black" stroke-width="0.520229"/>
<path d="M373.771 317.995C371.64 316.219 365.479 315.39 363.109 316.812C360.745 318.229 361.573 318.588 364.411 318.828C367.255 319.062 370.927 323.661 364.771 323.916C361.927 324.036 362.875 330.906 356.953 331.38C359.38 334.338 366.312 332.385 368.797 329.13C368.323 331.791 371.875 334.224 370.453 337.416C374.838 337.896 372.291 328.536 379.218 329.01C376.375 329.364 377.562 335.76 382.536 334.104C379.573 335.526 381.114 338.958 384.432 338.13C382.297 338.844 381.588 341.562 384.552 343.104C387.39 339.198 384.192 325.219 373.771 317.995Z" fill="white" stroke="black" stroke-width="0.520229"/>
<path d="M631.744 187.307C640.812 187.307 648.161 179.958 648.161 170.891C648.161 161.828 640.812 154.474 631.744 154.474C622.677 154.474 615.328 161.828 615.328 170.891C615.328 179.958 622.677 187.307 631.744 187.307Z" fill="white" stroke="black" stroke-width="0.520229"/>
<path d="M545.994 207.135C550.968 202.396 558.552 200.031 563.76 203.583C568.968 207.135 586.265 211.401 594.791 205.479C603.317 199.557 607.349 196.474 611.135 197.187C613.979 201.453 617.416 203.463 621.677 203.818C622.979 205.239 627.604 206.427 630.208 206.068C634 207.015 638.614 205.833 642.286 201.807C647.974 202.635 653.302 198.37 655.317 191.974C661.354 191.266 661.713 184.516 657.921 180.01C654.369 179.302 657.093 167.338 644.182 169.708C649.63 173.026 645.484 179.656 649.989 182.739C646.906 182.739 642.937 184.042 641.994 188.661C643.177 185.463 641.812 183.328 640.984 182.62C641.104 179.896 635.062 173.203 629.375 175.63C633.463 176.521 631.156 183.094 634.114 185.578C631.984 185.698 629.734 186.765 628.427 188.661C626.89 185.932 621.442 183.094 618.125 182.854C618.125 181.906 617.948 180.016 617.531 179.068C616.052 176.224 614.807 172.849 615.401 168.526C612.557 171.604 610.187 175.87 608.77 178.948C604.27 175.87 593.135 180.37 587.921 181.552C582.713 182.739 565.182 179.896 561.151 175.63C557.13 171.364 549.312 168.76 541.968 166.63C531.869 163.698 531.781 152.651 520.645 145.073C520.411 158.812 541.255 202.401 545.994 207.135Z" fill="white" stroke="black" stroke-width="0.520229"/>
<path d="M429.916 311.838C438.682 311.838 445.791 304.729 445.791 295.963C445.791 287.198 438.682 280.094 429.916 280.094C421.151 280.094 414.047 287.198 414.047 295.963C414.047 304.729 421.151 311.838 429.916 311.838Z" fill="white" stroke="black" stroke-width="0.520229"/>
<path d="M392.01 299.635C395.208 303.781 400.656 303.547 402.906 303.193C404.802 308.161 410.843 308.047 413.448 310.771C416.057 313.495 424.937 313.26 427.541 311.719C425.177 311.479 422.094 310.062 419.135 307.573C415.562 304.573 417.239 298.573 414.396 296.437C416.526 294.073 416.885 290.161 416.411 288.62C418.661 287.318 420.317 285.187 420.557 284.12C424.463 283.885 427.896 281.87 429.323 280.328C431.333 282.224 436.427 279.739 439.151 282.937C439.745 275.12 432.281 270.974 427.307 273.578C425.291 272.515 419.963 273.224 419.015 274.646C417.359 273.937 412.739 276.302 410.604 277.844C412.974 276.541 413.328 272.63 412.38 271.208C414.396 270.38 416.646 267.656 416.885 265.646C419.729 266.12 423.989 264.224 425.885 264.698C422.807 260.666 417.713 259.25 412.5 259.604C407.114 259.901 404.802 263.693 404.094 267.776C400.896 269.672 399.828 276.068 401.01 278.318C399.177 278.26 397.458 280.036 396.75 281.041C394.26 279.974 390.708 279.208 388.161 279.208" fill="white"/>
<path d="M392.01 299.635C395.208 303.781 400.656 303.547 402.906 303.193C404.802 308.161 410.843 308.047 413.448 310.771C416.057 313.495 424.937 313.26 427.541 311.719C425.177 311.479 422.094 310.062 419.135 307.573C415.562 304.573 417.239 298.573 414.396 296.437C416.526 294.073 416.885 290.161 416.411 288.62C418.661 287.318 420.317 285.187 420.557 284.12C424.463 283.885 427.896 281.87 429.323 280.328C431.333 282.224 436.427 279.739 439.151 282.937C439.745 275.12 432.281 270.974 427.307 273.578C425.291 272.515 419.963 273.224 419.015 274.646C417.359 273.937 412.739 276.302 410.604 277.844C412.974 276.541 413.328 272.63 412.38 271.208C414.396 270.38 416.646 267.656 416.885 265.646C419.729 266.12 423.989 264.224 425.885 264.698C422.807 260.666 417.713 259.25 412.5 259.604C407.114 259.901 404.802 263.693 404.094 267.776C400.896 269.672 399.828 276.068 401.01 278.318C399.177 278.26 397.458 280.036 396.75 281.041C394.26 279.974 390.708 279.208 388.161 279.208" stroke="black" stroke-width="0.520229"/>
<path d="M389.286 272.75C388.224 269.672 389.635 266.901 390.354 264.463C392.192 258.245 391.067 256.646 385.5 257.474C385.026 260.432 387.864 270.146 389.286 272.75Z" fill="white" stroke="black" stroke-width="0.520229"/>
<path d="M385.203 257.823C386.625 259.245 391.661 259.896 392.192 255.396C392.807 250.229 390.713 248.229 386.213 250.245C385.859 251.427 385.442 256.281 385.203 257.823Z" fill="white" stroke="black" stroke-width="0.520229"/>
<path d="M386.271 250.068C388.166 250.838 392.255 252.38 394.505 247.995C396.39 244.318 393.911 241.479 390.005 241.719C389.057 242.781 387.161 246.573 386.271 250.068Z" fill="white" stroke="black" stroke-width="0.520229"/>
<path d="M389.765 241.364C390.239 242.786 395.099 247.521 398.651 244.088C402.203 240.651 402.203 235.562 396.875 233.667C395.453 233.901 391.187 238.875 389.765 241.364Z" fill="white" stroke="black" stroke-width="0.520229"/>
<path d="M396.864 233.667C397.932 236.63 401.25 241.724 407.406 239.354C413.567 236.984 410.963 229.286 408.12 227.745C406.458 227.864 399.708 230.943 396.864 233.667Z" fill="white" stroke="black" stroke-width="0.520229"/>
<path d="M408.125 227.745C407.651 230.349 408.125 237.458 416.531 237.338C424.942 237.219 422.573 227.39 420.442 225.969C417.005 225.969 411.203 226.088 408.125 227.745Z" fill="white" stroke="black" stroke-width="0.520229"/>
<path d="M420.791 226.318C419.849 228.333 417.713 241.583 434.177 237.927C436.307 237.453 441.875 225.25 420.791 226.318Z" fill="white" stroke="black" stroke-width="0.520229"/>
<path d="M429.791 227.5C428.135 229.161 432.396 242.547 443.531 240.292C454.666 238.042 445.312 225.37 429.791 227.5Z" fill="white" stroke="black" stroke-width="0.520229"/>
<path d="M439.271 229.515C437.494 233.193 440.161 244.088 453.896 244.088C466.349 244.088 453.244 229.755 439.271 229.515Z" fill="white" stroke="black" stroke-width="0.520229"/>
<path d="M450.047 232.719C449.156 234.755 448.062 246.307 464.26 247.286C475.989 248 473.146 231.417 450.047 232.719Z" fill="white" stroke="black" stroke-width="0.520229"/>
<path d="M467.463 237.573C465.453 241.13 463.317 250.01 481.083 250.724C492.468 251.177 485.468 237.812 467.463 237.573Z" fill="white" stroke="black" stroke-width="0.520229"/>
<path d="M482.265 240.297C479.661 243.849 481.583 250.823 488.187 252.14C496.479 253.802 497.661 245.984 491.979 242.193C486.291 238.401 482.265 240.297 482.265 240.297Z" fill="white" stroke="black" stroke-width="0.520229"/>
<path d="M490.323 241.953C488.432 245.271 489.604 253.323 502.166 253.323C504.77 253.323 514.724 243.135 490.323 241.953Z" fill="white" stroke="black" stroke-width="0.520229"/>
<path d="M393.083 396.411C403.26 396.411 411.51 388.161 411.51 377.989C411.51 367.812 403.26 359.557 393.083 359.557C382.906 359.557 374.661 367.812 374.661 377.989C374.661 388.161 382.906 396.411 393.083 396.411Z" fill="white" stroke="black" stroke-width="0.520229"/>
<path d="M528.224 128.49C526.802 129.911 523.843 134.177 523.25 135.833C517.088 154.312 533.531 168.109 543.145 187.948C550.729 203.583 549.781 228.219 537.937 243.854C533.88 249.203 535.093 250.724 529.88 256.172C527.885 258.26 525.619 260.906 526.328 268.489C529.645 267.307 534.385 270.385 535.328 272.989C537.698 271.807 541.015 272.281 542.198 273.698C546.224 271.807 549.541 272.755 553.093 276.542C556.177 276.068 559.494 276.541 562.573 279.859C564.229 276.541 567.546 275.359 569.911 276.068C569.677 271.807 573.942 268.729 577.729 270.385C576.546 264.698 581.76 260.437 586.734 262.094C590.994 258.776 599.526 258.542 603.791 263.515C596.208 261.38 596.447 269.437 590.052 268.724C591.708 273.463 587.442 276.187 583.182 277.729C585.906 276.422 588.864 274.885 589.812 276.542C592.182 274.469 596.921 275.239 598.104 276.307C601.239 275.302 604.265 276.068 605.682 279.859C609.947 282.463 612.791 289.099 609.713 294.073C608.765 288.864 605.213 289.099 603.791 286.969C600.474 288.151 597.156 288.151 596.208 286.021C594.312 287.916 587.916 289.573 585.078 286.729C584.01 290.995 580.338 294.547 576.072 294.547C577.26 297.864 573.942 303.552 571.338 306.39C575.364 308.521 574.177 313.26 573.229 316.104C579.39 317.052 574.177 322.5 584.838 326.052C579.63 327.708 569.442 326.052 568.02 319.656C562.807 319.422 559.255 314.208 559.494 308.755C555.463 304.969 554.875 299.521 560.442 295.729C555.703 297.151 553.093 289.573 546.224 292.651C542.807 294.182 533.791 291.588 533.911 288.385C532.484 290.755 523.843 289.807 522.656 285.781C519.812 287.323 513.177 284.719 513.297 280.807C509.625 282.463 504.651 279.505 504.89 275.713C501.458 275.239 501.099 272.161 501.333 269.557C498.255 268.135 499.088 265.172 500.27 261.62C498.14 259.25 499.088 255.932 500.744 252.854C498.375 250.484 498.849 247.64 499.557 244.328C488.187 243.38 473.942 240.635 441.286 230.588C392.01 215.427 378.75 250.958 389.646 273.229C402.213 298.922 388.224 304.5 392.489 323.687C396.989 324.635 399.354 328.422 399.119 332.453C401.781 332.568 403.677 335.052 402.729 339.791C404.979 339.38 407.885 340.031 409.781 341.922C411.437 338.844 416.885 338.135 419.729 341.687C425.885 341.213 428.968 346.187 428.729 352.349C432.047 358.271 430.859 365.495 427.307 370.114C427.666 367.625 427.307 364.073 427.192 361.942C426.968 358.021 421.505 357.203 422.099 354.005C419.255 354.239 416.531 352.703 415.583 350.573C413.922 351.989 411.557 352.469 409.541 351.755C412.739 353.177 415.229 358.864 414.281 362.651C415.937 365.495 415.583 370.708 413.567 372.958C412.619 377.573 409.067 379.234 404.448 377.219C407.057 375.562 408.005 372.604 407.885 370.114C406.224 368.693 405.396 365.969 405.276 364.307C400.661 365.021 394.265 361.114 393.083 359.568C382.906 359.568 374.656 367.817 374.656 377.995C374.182 374.203 369.39 370.469 369.984 367.271C367.14 358.505 371.166 350.333 382.776 348.677C381.354 345.359 386.328 341.922 384.432 338.135C382.01 333.291 377.562 327 370.932 319.656C374.958 312.786 373.776 303.552 371.406 297.864C368.005 289.698 364.771 291.703 352.692 304.969C333 326.588 306.734 320.604 283.521 334.818C277.349 338.594 271.203 340.031 277.833 333.396C284.469 326.765 301.995 320.13 313.37 314.448C334.661 303.797 352.692 286.021 359.797 251.437C376.495 170.161 437.963 196.953 476.812 212.109C513.286 226.349 506.661 194.109 488.182 174.682C465.974 151.338 470.416 132.995 480.843 118.307C499.552 115.698 535.448 122.213 528.218 128.49H528.224Z" fill="white" stroke="black" stroke-width="0.520229"/>
<path d="M594.197 328.14C605.395 328.14 614.474 319.067 614.474 307.87C614.474 296.672 605.395 287.599 594.197 287.599C583.005 287.599 573.927 296.672 573.927 307.87C573.927 319.067 583.005 328.14 594.197 328.14Z" fill="white" stroke="black" stroke-width="0.520229"/>
<path d="M516.854 129.432C512.354 149.333 516.145 158.333 522.781 167.099C536.484 185.213 547.416 226.552 531.781 253.557" stroke="black" stroke-width="0.520229"/>
<path d="M540.541 230.234C542.437 229.521 545.989 227.271 546.817 223.364" stroke="black" stroke-width="0.520229" stroke-linecap="round"/>
<path d="M541.958 221.588C542.552 218.151 547.88 216.672 548 213" stroke="black" stroke-width="0.520229" stroke-linecap="round"/>
<path d="M542.078 208.198C541.724 204.64 547.411 201.443 546.578 197.891" stroke="black" stroke-width="0.520229" stroke-linecap="round"/>
<path d="M539 195.406C538.526 193.396 543.739 189.604 542.317 186.406" stroke="black" stroke-width="0.520229" stroke-linecap="round"/>
<path d="M535.093 182.974C534.026 180.724 537.583 178.114 536.041 175.75" stroke="black" stroke-width="0.520229" stroke-linecap="round"/>
<path d="M529.406 173.021C529.052 171.479 531.245 168.104 530.062 166.088" stroke="black" stroke-width="0.520229" stroke-linecap="round"/>
<path d="M523.718 161.297C524.192 160.708 526.088 159.286 525.317 157.505" stroke="black" stroke-width="0.520229" stroke-linecap="round"/>
<path d="M519.812 152.713C520.583 152.297 522.89 151.583 522.599 149.87" stroke="black" stroke-width="0.520229" stroke-linecap="round"/>
<path d="M401.25 376.031C396.515 374.375 390.594 376.745 389.406 380.771" stroke="black" stroke-width="0.520229" stroke-linecap="round" stroke-linejoin="round"/>
<path d="M392.958 384.442C393.552 380.416 399.713 378.64 401.604 380.531C397.698 378.401 395.802 385.979 399.239 386.218" stroke="black" stroke-width="0.520229" stroke-linecap="round" stroke-linejoin="round"/>
<path d="M431.104 290.755C428.26 292.177 427.432 297.39 431.104 301.302" stroke="black" stroke-width="0.520229" stroke-linecap="round" stroke-linejoin="round"/>
<path d="M435.364 291.943C433.354 293.599 433.468 298.573 436.427 299.76C433.942 297.979 436.427 294.901 438.208 294.786C439.984 294.666 441.166 296.797 439.036 298.927" stroke="black" stroke-width="0.520229" stroke-linecap="round" stroke-linejoin="round"/>
<path d="M601.776 303.661C595.145 301.885 589.817 309.583 595.854 316.453C595.739 309.823 600.474 305.443 606.281 306.625" stroke="black" stroke-width="0.520229" stroke-linecap="round" stroke-linejoin="round"/>
<path d="M603.609 311.208C601.979 311.208 601.062 312.484 601.062 313.729C601.062 315.031 602.187 316.276 604.026 316.276C605.213 316.276 606.156 314.916 606.156 313.849" stroke="black" stroke-width="0.520229" stroke-linecap="round" stroke-linejoin="round"/>
<path d="M627 165.792C628.067 169.823 633.635 171.479 638.015 170.531" stroke="black" stroke-width="0.520229" stroke-linecap="round" stroke-linejoin="round"/>
<path d="M638.015 167.927C634.583 168.047 631.739 164.849 631.974 162.125C631.974 164.135 636.593 165.083 638.015 163.781" stroke="black" stroke-width="0.520229" stroke-linecap="round" stroke-linejoin="round"/>
<path d="M402.906 303.193C401.958 300.823 405.75 298.453 405.87 296.203C405.989 293.953 410.135 292.177 414.396 296.437" stroke="black" stroke-width="0.520229" stroke-linecap="round"/>
<path d="M412.385 271.213C411.557 271.568 410.843 272.041 410.135 272.281" stroke="black" stroke-width="0.520229" stroke-linecap="round"/>
<path d="M420.557 284.12C419.552 284.182 417.479 284.062 416.354 283.291" stroke="black" stroke-width="0.520229" stroke-linecap="round"/>
<path d="M416.416 288.62C415.588 289.036 413.75 289.75 412.682 289.984" stroke="black" stroke-width="0.520229" stroke-linecap="round"/>
<path d="M375.786 360.161C375.666 362.297 377.802 365.375 378.984 366.317" stroke="black" stroke-width="0.520229" stroke-linecap="round"/>
<path d="M385.026 355.067C383.843 356.844 383.135 359.927 383.843 362.057" stroke="black" stroke-width="0.520229" stroke-linecap="round"/>
<path d="M402.672 362.177C400.541 360.755 401.963 357.083 401.724 354.713C401.489 352.344 404.213 348.557 409.541 351.755" stroke="black" stroke-width="0.520229" stroke-linecap="round"/>
<path d="M382.776 348.677C384.911 348.323 387.161 348.437 388.583 349.031" stroke="black" stroke-width="0.520229" stroke-linecap="round"/>
<path d="M409.781 341.922C408.833 343.224 408.593 344.646 408.479 345.594" stroke="black" stroke-width="0.520229" stroke-linecap="round"/>
<path d="M419.729 341.687C418.067 341.687 416.646 342.87 415.937 344.057" stroke="black" stroke-width="0.520229" stroke-linecap="round"/>
<path d="M396.75 281.047C398.646 281.698 403.557 284.719 403.739 287.854" stroke="black" stroke-width="0.520229" stroke-linecap="round"/>
<path d="M416.885 265.646C411.083 265.526 408.833 259.604 413.213 259.604" stroke="black" stroke-width="0.520229" stroke-linecap="round"/>
<path d="M427.312 273.578C425.062 274.526 426.13 278.432 429.328 280.328" stroke="black" stroke-width="0.520229" stroke-linecap="round"/>
<path d="M413.453 310.771C412.328 309.349 413.807 305.203 417.479 306.448" stroke="black" stroke-width="0.520229" stroke-linecap="round"/>
<path d="M422.093 354.005C422.333 350.39 426.89 348.26 428.729 352.344" stroke="black" stroke-width="0.520229" stroke-linecap="round"/>
<path d="M405.276 364.302C404.979 360.338 406.995 359.036 408.771 358.797C410.547 358.562 413.093 360.041 414.281 362.646" stroke="black" stroke-width="0.520229" stroke-linecap="round"/>
<path d="M369.979 367.271C370.218 364.901 372.234 362.411 374.364 362.771" stroke="black" stroke-width="0.520229" stroke-linecap="round"/>
<path d="M586.729 262.088C585.187 263.219 584.182 268.25 590.046 268.724" stroke="black" stroke-width="0.520229" stroke-linecap="round"/>
<path d="M577.734 270.385C577.734 270.974 578.5 271.802 578.979 272.161" stroke="black" stroke-width="0.520229" stroke-linecap="round"/>
<path d="M605.687 279.859C604.145 278.677 600.177 283.474 603.791 286.963" stroke="black" stroke-width="0.520229" stroke-linecap="round"/>
<path d="M568.02 319.656C567.13 316.281 570.27 315.39 573.234 316.104" stroke="black" stroke-width="0.520229" stroke-linecap="round"/>
<path d="M560.442 295.729C562.218 294.547 563.994 293.245 566.244 292.651" stroke="black" stroke-width="0.520229" stroke-linecap="round"/>
<path d="M559.494 308.755C559.494 305.911 560.911 303.547 562.213 302.833" stroke="black" stroke-width="0.520229" stroke-linecap="round"/>
<path d="M569.911 276.068C569.677 279.505 571.099 282.823 572.166 284.599" stroke="black" stroke-width="0.520229" stroke-linecap="round"/>
<path d="M598.104 276.307C596.385 276.838 594.849 277.489 594.198 278.911" stroke="black" stroke-width="0.520229" stroke-linecap="round"/>
<path d="M596.208 286.021C597.041 285.307 597.984 284.479 598.401 283.885" stroke="black" stroke-width="0.520229" stroke-linecap="round"/>
<path d="M640.979 182.614C640.979 185.927 636.833 187.708 634.114 185.573" stroke="black" stroke-width="0.520229" stroke-linecap="round"/>
<path d="M649.984 182.729C651.817 184.151 658.156 182.792 656.677 179.12" stroke="black" stroke-width="0.520229" stroke-linecap="round"/>
<path d="M642.281 201.802C640.979 201.568 638.729 200.146 637.781 198.958" stroke="black" stroke-width="0.520229" stroke-linecap="round"/>
<path d="M655.312 191.974C653.182 192.448 651.76 191.974 650.692 191.5" stroke="black" stroke-width="0.520229" stroke-linecap="round"/>
<path d="M621.671 203.818C622.859 203.818 625.698 203.344 627.656 202.338" stroke="black" stroke-width="0.520229" stroke-linecap="round"/>
<path d="M618.119 182.854C616.583 182.677 615.453 182.974 614.567 183.568" stroke="black" stroke-width="0.520229" stroke-linecap="round"/>
<path d="M641.989 188.651C641.572 190.135 640.505 192.443 639.203 193.453" stroke="black" stroke-width="0.520229" stroke-linecap="round"/>
<path d="M614.093 193.87C617.057 192.568 620.729 202.635 627.833 199.083" stroke="black" stroke-width="0.520229" stroke-linecap="round" stroke-linejoin="round"/>
<path d="M628.427 188.651C627.479 189.958 626.89 191.969 626.77 193.745" stroke="black" stroke-width="0.520229" stroke-linecap="round" stroke-linejoin="round"/>
<path d="M486.771 173.26C487.718 173.146 489.375 172.786 489.734 171.604" stroke="black" stroke-width="0.520229"/>
<path d="M364.89 283.531C368.442 285.547 370.932 288.979 369.39 294.073" stroke="black" stroke-width="0.520229"/>
<path d="M527.744 162.364C528.812 163.073 532.838 163.073 535.088 162.245" stroke="black" stroke-width="0.520229"/>
<path d="M537.937 164.734C537.817 166.391 538.291 172.667 535.093 173.974" stroke="black" stroke-width="0.520229"/>
<path d="M536.281 173.146C539.239 174.088 545.166 173.734 547.057 168.286" stroke="black" stroke-width="0.520229"/>
<path d="M542.911 172.901C544.448 175.271 544.922 179.891 540.302 182.375" stroke="black" stroke-width="0.520229"/>
<path d="M544.093 176.812C547.526 178 555.463 178.12 554.635 171.364" stroke="black" stroke-width="0.520229"/>
<path d="M551.916 176.812C554.286 180.13 564.708 184.042 563.046 177.172" stroke="black" stroke-width="0.520229"/>
<path d="M542.323 186.401C546.343 187.349 552.031 184.625 549.661 177.521" stroke="black" stroke-width="0.520229"/>
<path d="M561.031 181.078C561.625 183.802 574.885 186.64 573.114 180.484" stroke="black" stroke-width="0.520229"/>
<path d="M570.625 184.042C573.114 189.724 586.26 189.25 582.114 181.672" stroke="black" stroke-width="0.520229"/>
<path d="M579.984 187.588C582.588 190.786 594.198 188.89 589.583 181.193" stroke="black" stroke-width="0.520229"/>
<path d="M589.453 187.469C596.677 192.917 605.088 185.099 595.968 179.417" stroke="black" stroke-width="0.520229"/>
<path d="M600.114 185.698C606.515 190.792 614.333 181.552 608.765 178.943" stroke="black" stroke-width="0.520229"/>
<path d="M549.536 183.562C551.552 184.156 555.817 183.917 556.765 180.245" stroke="black" stroke-width="0.520229"/>
<path d="M555.166 182.729C554.932 188.12 563.994 190.193 566.302 183.974" stroke="black" stroke-width="0.520229"/>
<path d="M563.281 187.349C564.942 190.906 572.875 192.328 574.177 187.234" stroke="black" stroke-width="0.520229"/>
<path d="M572.875 189.604C574.182 193.156 581.052 192.802 582.942 189.13" stroke="black" stroke-width="0.520229"/>
<path d="M580.453 191.5C582.588 196.12 591.349 196.12 593.364 189.37" stroke="black" stroke-width="0.520229"/>
<path d="M591.833 192.323C595.265 194.458 602.609 193.63 602.015 186.995" stroke="black" stroke-width="0.520229"/>
<path d="M600.593 191.734C605.687 195.88 612.911 191.854 609.359 184.864" stroke="black" stroke-width="0.520229"/>
<path d="M609.005 197.182C611.729 196.708 613.145 191.26 610.307 189.838" stroke="black" stroke-width="0.520229"/>
<path d="M545.875 198.13C551.557 195.052 552.625 189.838 548.718 184.745" stroke="black" stroke-width="0.520229"/>
<path d="M550.729 192.922C554.281 195.052 561.036 192.802 562.218 187.588" stroke="black" stroke-width="0.520229"/>
<path d="M555.588 193.51C557.599 196.114 557.953 199.312 555.349 202.276" stroke="black" stroke-width="0.520229"/>
<path d="M557.239 196.828C563.515 192.922 571.333 200.146 565.531 204.526" stroke="black" stroke-width="0.520229"/>
<path d="M564.468 196.474C565.89 196.12 568.375 193.515 568.614 190.552" stroke="black" stroke-width="0.520229"/>
<path d="M567.307 199.198C569.911 196.474 587.682 202.042 576.427 207.724" stroke="black" stroke-width="0.520229"/>
<path d="M575.599 191.734C579.031 193.042 580.812 197.896 575.599 199.552" stroke="black" stroke-width="0.520229"/>
<path d="M580.104 203.583C583.89 199.672 595.739 202.161 591.474 207.135" stroke="black" stroke-width="0.520229"/>
<path d="M588.63 202.036C590.76 194.812 603.432 199.312 599.291 202.276" stroke="black" stroke-width="0.520229"/>
<path d="M586.026 194.812C586.38 196.234 586.5 199.786 584.13 201.682" stroke="black" stroke-width="0.520229"/>
<path d="M596.687 193.391C597.161 194.578 597.041 196.828 595.974 198.25" stroke="black" stroke-width="0.520229"/>
<path d="M604.734 193.51C605.448 194.812 606.63 197.302 604.026 199.312" stroke="black" stroke-width="0.520229"/>
<path d="M503.354 139.026C503.468 145.776 505.843 150.276 514.963 146.016" stroke="black" stroke-width="0.520229"/>
<path d="M506.192 147.083C501.692 153.125 506.786 159.641 515.672 153.125" stroke="black" stroke-width="0.520229"/>
<path d="M492.333 150.042C498.489 156.672 509.505 151.818 502.401 141.75" stroke="black" stroke-width="0.520229"/>
<path d="M509.864 155.729C508.682 162.245 514.01 163.547 518.39 160.583" stroke="black" stroke-width="0.520229"/>
<path d="M486.89 151.109C488.01 157.656 494.708 162.833 501.218 158.807" stroke="black" stroke-width="0.520229"/>
<path d="M494.942 160.114C494.942 169.469 507.854 170.536 510.817 160.823" stroke="black" stroke-width="0.520229"/>
<path d="M506.192 166.745C510.338 175.271 519.338 171.833 522.302 166.625" stroke="black" stroke-width="0.520229"/>
<path d="M497.073 153.125C498.729 157.271 502.047 161.891 509.744 158.453" stroke="black" stroke-width="0.520229"/>
<path d="M473.385 151.109C474.453 154.542 480.614 158.687 487.718 153.948" stroke="black" stroke-width="0.520229"/>
<path d="M477.765 155.495C473.974 161.057 481.552 166.271 490.677 157.979" stroke="black" stroke-width="0.520229"/>
<path d="M482.265 162.364C483.807 170.182 486.885 176.458 498.021 166.391" stroke="black" stroke-width="0.520229"/>
<path d="M492.448 170.417C496.479 175.391 502.635 178.469 508.442 170.057" stroke="black" stroke-width="0.520229"/>
<path d="M512.708 171.833C512.349 177.755 513.531 180.719 518.156 180.479C521.797 180.292 525.26 177.401 527.276 174.323" stroke="black" stroke-width="0.520229"/>
<path d="M517.328 180.484C517.208 187.239 522.536 192.568 532.484 185.698" stroke="black" stroke-width="0.520229"/>
<path d="M521.468 188.417C519.573 193.51 525.26 201.802 536.39 197.536" stroke="black" stroke-width="0.520229"/>
<path d="M497.901 174.917C497.192 181.432 503.234 185.812 512.948 177.406" stroke="black" stroke-width="0.520229"/>
<path d="M502.64 182.141C502.994 187.474 509.036 193.87 517.922 184.63" stroke="black" stroke-width="0.520229"/>
<path d="M506.901 188.896C506.187 198.015 514.599 200.625 521.708 193.635" stroke="black" stroke-width="0.520229"/>
<path d="M494.229 182.141C496.125 182.26 497.666 180.604 498.609 179.417" stroke="black" stroke-width="0.520229"/>
<path d="M498.255 188.771C499.911 189.125 502.76 187.588 503.708 185.693" stroke="black" stroke-width="0.520229"/>
<path d="M502.406 199.552C504.302 201.562 510.692 200.141 511.52 197.417" stroke="black" stroke-width="0.520229"/>
<path d="M509.51 199.432C513.067 207.724 522.541 207.37 526.448 198.01" stroke="black" stroke-width="0.520229"/>
<path d="M524.672 201.328C526.442 206.187 530.948 209.266 538.291 207.609" stroke="black" stroke-width="0.520229"/>
<path d="M528.224 206.307C524.078 213.057 529.526 220.989 538.765 213.172" stroke="black" stroke-width="0.520229"/>
<path d="M530.474 216.37C530.005 220.635 533.911 225.489 539.239 226.083" stroke="black" stroke-width="0.520229"/>
<path d="M512.942 203.937C511.52 213.531 518.39 218.151 527.036 213.057" stroke="black" stroke-width="0.520229"/>
<path d="M502.875 208.557C505.125 210.333 509.156 210.568 512.942 209.151" stroke="black" stroke-width="0.520229"/>
<path d="M517.562 214.713C515.427 222.771 523.724 228.573 530.828 219.573" stroke="black" stroke-width="0.520229"/>
<path d="M506.078 209.859C506.198 214.005 510.224 218.505 517.213 217.203" stroke="black" stroke-width="0.520229"/>
<path d="M536.75 225.495C532.01 228.693 531.062 234.375 537.698 238.047" stroke="black" stroke-width="0.520229"/>
<path d="M525.14 223.833C525.38 228.687 527.63 231.411 532.958 231.885" stroke="black" stroke-width="0.520229"/>
<path d="M518.156 221.344C511.052 227.859 518.041 235.437 526.448 229.042" stroke="black" stroke-width="0.520229"/>
<path d="M523.13 231.057C520.76 238.521 529.645 243.021 534.385 235.437" stroke="black" stroke-width="0.520229"/>
<path d="M508.448 215.187C505.838 222.531 509.156 227.385 515.198 226.911" stroke="black" stroke-width="0.520229"/>
<path d="M499.088 213.765C499.442 218.146 503.234 219.687 507.494 218.739" stroke="black" stroke-width="0.520229"/>
<path d="M501.807 218.385C498.609 224.547 503.468 227.859 509.864 225.495" stroke="black" stroke-width="0.520229"/>
<path d="M529.291 239.229C528.224 243.14 528.817 245.979 534.619 247.286" stroke="black" stroke-width="0.520229"/>
<path d="M529.645 244.802C522.656 248 522.062 254.75 527.51 259.13" stroke="black" stroke-width="0.520229"/>
<path d="M524.015 237.281C520.343 240.599 521.052 246.338 525.083 248.594" stroke="black" stroke-width="0.520229"/>
<path d="M492.927 215.661C488.901 219.63 492.75 230.588 501.63 224.609" stroke="black" stroke-width="0.520229"/>
<path d="M516.026 229.515C510.573 234.021 513.062 242.193 522.062 239.943" stroke="black" stroke-width="0.520229"/>
<path d="M507.02 226.083C504.177 234.135 506.901 236.979 513.297 237.099" stroke="black" stroke-width="0.520229"/>
<path d="M487.005 215.302C482.151 218.974 483.453 224.187 485.588 226.557C487.718 228.927 491.739 227.859 493.047 224.781" stroke="black" stroke-width="0.520229"/>
<path d="M476.817 212.109C471.369 219.099 476.817 227.39 484.515 224.901" stroke="black" stroke-width="0.520229"/>
<path d="M505.958 232.838C500.39 234.849 496.146 239.906 499.562 244.328C501.578 246.932 510.338 247.286 512.828 237.219" stroke="black" stroke-width="0.520229"/>
<path d="M495.885 226.318C492.687 230.937 493.755 235.323 499.677 237.568" stroke="black" stroke-width="0.520229"/>
<path d="M495.531 234.969C492.099 236.864 489.849 239.114 490.677 243.26" stroke="black" stroke-width="0.520229"/>
<path d="M487.838 227.745C486.536 233.312 488.073 236.745 491.505 238.406" stroke="black" stroke-width="0.520229"/>
<path d="M487.718 234.375C482.385 234.021 479.666 236.271 481.442 241.479" stroke="black" stroke-width="0.520229"/>
<path d="M481.916 235.677C476.703 233.781 475.869 229.281 478.119 224.542" stroke="black" stroke-width="0.520229"/>
<path d="M477.411 231.536C471.724 231.771 469.239 234.614 469.239 238.521" stroke="black" stroke-width="0.520229"/>
<path d="M469.708 209.38C465.562 211.156 464.26 216.724 465.802 219.802C467.343 222.88 472.198 223.12 475.156 221.104" stroke="black" stroke-width="0.520229"/>
<path d="M458.104 205C454.317 209.265 458.698 217.557 465.448 215.542" stroke="black" stroke-width="0.520229"/>
<path d="M448.39 201.682C444.838 206.656 448.75 214.953 457.87 212.583" stroke="black" stroke-width="0.520229"/>
<path d="M458.338 235.677C457.39 229.755 463.552 225.849 471.135 233.547" stroke="black" stroke-width="0.520229"/>
<path d="M467.463 221.588C465.213 223.599 464.151 226.797 464.5 229.406" stroke="black" stroke-width="0.520229"/>
<path d="M438.682 198.844C434.771 205.479 439.51 211.515 447.922 209.151" stroke="black" stroke-width="0.520229"/>
<path d="M460.593 215.302C455.026 220.87 456.916 226.437 461.062 229.635" stroke="black" stroke-width="0.520229"/>
<path d="M457.036 221.823C448.63 221.943 448.156 231.651 455.026 234.734" stroke="black" stroke-width="0.520229"/>
<path d="M450.646 212.109C447.208 214.479 446.146 220.995 452.067 223.599" stroke="black" stroke-width="0.520229"/>
<path d="M450.406 226.677C446.854 225.021 442.588 227.031 442.948 231.177" stroke="black" stroke-width="0.520229"/>
<path d="M445.073 226.797C441.875 219.213 432.521 220.521 433.354 228.333" stroke="black" stroke-width="0.520229"/>
<path d="M447.677 217.437C445.666 217.792 441.64 218.979 440.099 222.057" stroke="black" stroke-width="0.520229"/>
<path d="M440.698 208.911C436.906 213.172 439.864 218.265 442.948 219.333" stroke="black" stroke-width="0.520229"/>
<path d="M429.448 196.948C428.734 202.036 430.75 204.526 437.146 204.052" stroke="black" stroke-width="0.520229"/>
<path d="M431.692 203.463C429.203 209.625 432.521 212.349 438.911 211.995" stroke="black" stroke-width="0.520229"/>
<path d="M433.109 211.042C429.323 215.542 431.927 220.401 435.599 222.411" stroke="black" stroke-width="0.520229"/>
<path d="M431.338 216.729C424.588 215.901 423.521 223.719 425.771 227.39" stroke="black" stroke-width="0.520229"/>
<path d="M425.885 196.359C421.739 198.135 419.37 203.344 421.625 206.542C423.875 209.739 428.375 208.677 430.859 207.015" stroke="black" stroke-width="0.520229"/>
<path d="M423.047 207.958C419.609 213.172 422.692 217.078 426.364 218.62" stroke="black" stroke-width="0.520229"/>
<path d="M409.781 195.76C407.057 198.604 408.713 204.406 415.343 204.526C420.687 204.62 423.401 199.552 421.745 196" stroke="black" stroke-width="0.520229"/>
<path d="M414.401 204.526C412.271 209.26 413.573 214.354 421.625 213.526" stroke="black" stroke-width="0.520229"/>
<path d="M425.062 220.989C420.088 218.739 413.453 220.989 416.297 226.911" stroke="black" stroke-width="0.520229"/>
<path d="M415.583 212.583C413.573 215.422 414.281 219.453 416.531 221.937" stroke="black" stroke-width="0.520229"/>
<path d="M415.229 220.161C411.916 220.75 408.718 222.526 410.729 227.739" stroke="black" stroke-width="0.520229"/>
<path d="M410.25 223.479C405.989 222.177 400.536 225.255 403.854 229.635" stroke="black" stroke-width="0.520229"/>
<path d="M403.151 225.495C399.479 224.901 395.093 228.812 398.651 232.719" stroke="black" stroke-width="0.520229"/>
<path d="M397.229 229.515C393.911 230.349 390.005 234.14 393.437 237.099" stroke="black" stroke-width="0.520229"/>
<path d="M413.927 210.927C409.192 213.057 408.718 218.385 410.968 222.297" stroke="black" stroke-width="0.520229"/>
<path d="M408.948 201.094C401.843 203.818 401.958 213.297 409.776 216.255" stroke="black" stroke-width="0.520229"/>
<path d="M406.463 214.12C402.198 216.604 401.37 221.344 404.208 224.422" stroke="black" stroke-width="0.520229"/>
<path d="M399 197.542C396.156 198.489 396.396 207.255 403.974 207.015" stroke="black" stroke-width="0.520229"/>
<path d="M391.187 200.5C385.5 204.292 392.369 213.885 401.609 207.015" stroke="black" stroke-width="0.520229"/>
<path d="M396.515 209.38C395.682 213.286 396.75 217.552 403.026 218.026" stroke="black" stroke-width="0.520229"/>
<path d="M396.864 214.599C392.364 216.255 391.536 225.495 399.708 226.203" stroke="black" stroke-width="0.520229"/>
<path d="M382.541 206.187C376.739 211.515 387.281 216.135 391.187 208.437" stroke="black" stroke-width="0.520229"/>
<path d="M374.484 215.068C371.64 218.5 381.593 227.505 385.974 212.463" stroke="black" stroke-width="0.520229"/>
<path d="M387.036 212.229C387.276 215.781 389.406 217.911 393.786 218.151" stroke="black" stroke-width="0.520229"/>
<path d="M393.672 221.588C386.687 222.651 384.437 231.417 392.25 233.312" stroke="black" stroke-width="0.520229"/>
<path d="M380.76 220.401C380.526 223.719 383.958 226.443 387.87 225.849" stroke="black" stroke-width="0.520229"/>
<path d="M391.422 233.073C385.026 234.495 384.198 242.786 389.885 242.312" stroke="black" stroke-width="0.520229"/>
<path d="M386.922 250.01C381.588 248.411 381.468 242.073 386.208 239.703" stroke="black" stroke-width="0.520229"/>
<path d="M382.541 244.437C378.041 247.161 379.817 253.677 382.187 254.625C384.557 255.573 386.448 254.39 386.687 252.375" stroke="black" stroke-width="0.520229"/>
<path d="M386.328 261.495C386.802 264.573 375.375 263.39 381.239 253.797" stroke="black" stroke-width="0.520229"/>
<path d="M381.172 262.031C377.323 268.073 383.599 272.989 387.567 267.838" stroke="black" stroke-width="0.520229"/>
<path d="M381.708 269.318C380.172 274.172 386.031 277.667 389.823 273.875" stroke="black" stroke-width="0.520229"/>
<path d="M368.916 223.833C366.781 228.213 377.442 229.87 378.151 220.87" stroke="black" stroke-width="0.520229"/>
<path d="M365.958 230.349C363.828 238.875 379.932 237.099 375.786 226.088" stroke="black" stroke-width="0.520229"/>
<path d="M376.14 231.771C378.39 233.073 385.14 233.193 386.802 225.969" stroke="black" stroke-width="0.520229"/>
<path d="M381.948 232.005C382.416 234.255 384.432 236.979 386.328 237.807" stroke="black" stroke-width="0.520229"/>
<path d="M374.25 234.255C373.541 238.875 378.156 242.667 383.489 242.312" stroke="black" stroke-width="0.520229"/>
<path d="M375.073 238.76C372.468 242.312 371.64 249.182 379.812 249.656" stroke="black" stroke-width="0.520229"/>
<path d="M362.64 239.943C361.338 243.614 369.036 247.406 373.536 241.364" stroke="black" stroke-width="0.520229"/>
<path d="M360.271 249.297C359.62 252.078 366.547 255.812 370.458 243.969" stroke="black" stroke-width="0.520229"/>
<path d="M367.375 250.01C369.036 252.969 374.604 255.338 378.036 249.536" stroke="black" stroke-width="0.520229"/>
<path d="M372.469 253.094C371.047 257.239 374.958 261.146 379.692 259.963" stroke="black" stroke-width="0.520229"/>
<path d="M363.588 252.146C362.64 258.068 369.51 261.5 373.776 258.422" stroke="black" stroke-width="0.520229"/>
<path d="M359.083 254.75C357.073 262.328 366.786 265.172 370.458 259.484" stroke="black" stroke-width="0.520229"/>
<path d="M367.974 261.739C368.328 266 374.963 269.672 380.172 266.12" stroke="black" stroke-width="0.520229"/>
<path d="M356.125 265.291C355.656 267.187 363.588 269.083 364.771 262.448" stroke="black" stroke-width="0.520229"/>
<path d="M360.75 266.948C362.646 271.802 369.036 272.989 372.708 267.068" stroke="black" stroke-width="0.520229"/>
<path d="M370.578 269.432C371.406 273.932 377.208 276.422 382.302 273.344" stroke="black" stroke-width="0.520229"/>
<path d="M384.432 275.12C383.13 281.161 389.406 286.021 393.312 282.703" stroke="black" stroke-width="0.520229"/>
<path d="M374.364 274.052C372.474 280.687 380.765 284.479 385.38 280.807" stroke="black" stroke-width="0.520229"/>
<path d="M364.422 270.734C363.948 276.896 368.802 280.568 374.37 277.844" stroke="black" stroke-width="0.520229"/>
<path d="M353.875 271.333C352.219 275.359 360.984 278.677 365.13 275.239" stroke="black" stroke-width="0.520229"/>
<path d="M348.422 282.349C350.672 284.953 358.489 282.349 359.203 276.542" stroke="black" stroke-width="0.520229"/>
<path d="M357.078 280.802C359.922 284.12 366.672 285.896 369.396 278.786" stroke="black" stroke-width="0.520229"/>
<path d="M367.026 282.463C366.906 287.557 376.026 291.229 378.989 281.875" stroke="black" stroke-width="0.520229"/>
<path d="M389.698 283.708C388.87 286.193 390.828 290.161 394.911 290.635" stroke="black" stroke-width="0.520229"/>
<path d="M382.182 282.172C381.588 285.01 385.734 288.979 390.114 287.38" stroke="black" stroke-width="0.520229"/>
<path d="M390.953 288.562C389.765 291.64 390.776 296.083 394.916 296.026" stroke="black" stroke-width="0.520229"/>
<path d="M391.364 294.312C388.286 296.916 389.588 301.536 394.031 301.713" stroke="black" stroke-width="0.520229"/>
<path d="M389.765 298.687C385.385 301.646 386.922 308.161 392.729 307.812" stroke="black" stroke-width="0.520229"/>
<path d="M376.5 286.135C376.5 292.531 384.437 293.479 385.974 287.557" stroke="black" stroke-width="0.520229"/>
<path d="M382.896 291.344C381.708 295.135 384.791 298.807 389.646 297.739" stroke="black" stroke-width="0.520229"/>
<path d="M383.844 337.068C384.911 338.609 389.291 336 388.109 333.396C386.922 330.791 382.281 332.208 382.776 334.932" stroke="black" stroke-width="0.520229"/>
<path d="M387.036 332.328C387.63 327.114 381.468 326.286 379.932 330.786" stroke="black" stroke-width="0.520229"/>
<path d="M382.182 328.182C383.719 325.578 378.51 322.026 376.375 325.817" stroke="black" stroke-width="0.520229"/>
<path d="M378.276 324.271C379.692 320.479 373.771 318.823 373.302 322.255" stroke="black" stroke-width="0.520229"/>
<path d="M372 317.281C372.708 315.385 379.343 316.568 376.5 320.479" stroke="black" stroke-width="0.520229"/>
<path d="M381.594 325.219C384.198 322.849 379.817 317.995 377.094 319.771" stroke="black" stroke-width="0.520229"/>
<path d="M399.12 332.448C397.047 332.682 394.911 334.041 396.453 338.427C397.521 341.469 402.078 341.625 402.729 339.786" stroke="black" stroke-width="0.520229"/>
<path d="M396.104 334.635C394.088 333.333 389.708 335.526 391.718 339.791C393.234 343 397.047 341.687 397.64 340.026" stroke="black" stroke-width="0.520229"/>
<path d="M384.786 340.739C385.791 342.51 390.828 341.745 391.713 339.791" stroke="black" stroke-width="0.520229"/>
<path d="M388.224 334.875C389.286 334.161 391.239 335.047 391.656 335.937" stroke="black" stroke-width="0.520229"/>
<path d="M387.87 305.677C384.432 307.927 386.567 314.797 391.896 313.021" stroke="black" stroke-width="0.520229"/>
<path d="M386.802 311.25C384.078 313.38 386.562 320.01 391.656 317.526" stroke="black" stroke-width="0.520229"/>
<path d="M387.635 317.526C385.739 319.416 387.573 324.687 392.489 323.682" stroke="black" stroke-width="0.520229"/>
<path d="M386.922 320.13C385.854 319.651 383.067 320.01 381.885 321.781" stroke="black" stroke-width="0.520229"/>
<path d="M383.843 296.14C381.239 298.63 382.479 303.724 387.338 304.135" stroke="black" stroke-width="0.520229"/>
<path d="M382.896 301.349C379.161 303.187 379.161 310.588 386.625 310.885" stroke="black" stroke-width="0.520229"/>
<path d="M382.599 309.703C380.526 311.359 381.536 317.755 386.864 316.927" stroke="black" stroke-width="0.520229"/>
<path d="M384.312 316.693C383.547 317.463 383.427 319.416 384.078 320.245" stroke="black" stroke-width="0.520229"/>
<path d="M381.948 314.265C380.052 314.323 377.562 315.687 376.911 317.64" stroke="black" stroke-width="0.520229"/>
<path d="M373.479 310.771C374.187 308.875 380.052 308.995 380.463 314.562" stroke="black" stroke-width="0.520229"/>
<path d="M381.057 307.927C380.224 308.109 378.63 308.875 378.213 310.479" stroke="black" stroke-width="0.520229"/>
<path d="M378.51 290.578C375.963 292.89 374.719 300.172 382.479 301.594" stroke="black" stroke-width="0.520229"/>
<path d="M373.359 305.62C373.359 303.661 378.63 302.005 380.463 304.906" stroke="black" stroke-width="0.520229"/>
<path d="M369.979 295.015C370.75 296.5 374.422 298.51 376.672 296.854" stroke="black" stroke-width="0.520229"/>
<path d="M350.911 283.411C350.791 286.849 353.635 289.927 357.541 289.453C361.453 288.979 362.281 285.547 361.099 283.297" stroke="black" stroke-width="0.520229"/>
<path d="M358.135 289.573C355.531 292.771 358.729 297.271 361.687 295.969" stroke="black" stroke-width="0.520229"/>
<path d="M361.104 287.323C362.64 286.729 367.734 286.015 369.276 288.385" stroke="black" stroke-width="0.520229"/>
<path d="M344.635 288.271C343.448 290.047 350.791 291.823 353.281 288.385" stroke="black" stroke-width="0.520229"/>
<path d="M350.791 290.161C350.557 292.531 351.739 296.557 357.781 294.896" stroke="black" stroke-width="0.520229"/>
<path d="M358.734 298.573C359.682 296.557 355.177 293.239 351.745 296.911C348.307 300.583 352.219 304.729 354.349 303.307" stroke="black" stroke-width="0.520229"/>
<path d="M342.979 290.64C341.203 293.719 348.073 299.344 351.979 294.135" stroke="black" stroke-width="0.520229"/>
<path d="M338.416 295.963C335.932 298.51 339.01 303.193 342.739 301.771C346.469 300.349 346.114 296.437 345.229 295.432" stroke="black" stroke-width="0.520229"/>
<path d="M333.62 300.703C331.604 302.536 333.562 306.859 336.344 306.859C339.125 306.859 340.844 304.672 340.312 301.89" stroke="black" stroke-width="0.520229"/>
<path d="M344.927 300.349C344.573 303.073 348.599 304.969 351.208 302.427" stroke="black" stroke-width="0.520229"/>
<path d="M351.328 297.443C351.687 296.854 351.39 295.844 350.797 295.37" stroke="black" stroke-width="0.520229"/>
<path d="M329.302 304.375C326.995 306.213 331.969 311.302 335.104 306.625" stroke="black" stroke-width="0.520229"/>
<path d="M347.12 303.37C345.64 304.786 348.01 308.515 350.38 307.39" stroke="black" stroke-width="0.520229"/>
<path d="M339.015 305.974C339.37 308.515 344.344 310.411 347.484 306.505" stroke="black" stroke-width="0.520229"/>
<path d="M341.734 308.515C340.969 310.12 342.505 312.666 344.401 312.312" stroke="black" stroke-width="0.520229"/>
<path d="M388.875 323.151C387.041 326.765 392.901 330.969 397.166 326.588" stroke="black" stroke-width="0.520229"/>
<path d="M393.135 328.536C392.25 330.489 393.312 333.219 394.911 334.224" stroke="black" stroke-width="0.520229"/>
<path d="M387.573 332.62C387.989 330.844 390.536 329.187 392.844 330.015" stroke="black" stroke-width="0.520229"/>
<path d="M384.489 327.943C384.849 326.344 386.979 324.745 388.578 325.161" stroke="black" stroke-width="0.520229"/>
<path d="M523.958 254.036C515.547 254.151 519.099 267.656 526.328 264.932" stroke="black" stroke-width="0.520229"/>
<path d="M521.234 263.989C519.573 266.713 522.77 271.036 526.328 268.489" stroke="black" stroke-width="0.520229"/>
<path d="M525.385 269.021C522.895 273.166 531.781 279.505 535.333 272.989" stroke="black" stroke-width="0.520229"/>
<path d="M532.489 275.474C532.609 279.385 543.979 281.87 542.323 274.052" stroke="black" stroke-width="0.520229"/>
<path d="M541.255 278.312C543.979 282.932 554.161 283.406 553.099 276.536" stroke="black" stroke-width="0.520229"/>
<path d="M550.849 281.281C552.984 284.359 562.932 286.255 562.573 279.859" stroke="black" stroke-width="0.520229"/>
<path d="M510.453 242.312C511.875 245.984 516.729 247.286 522.062 245.156" stroke="black" stroke-width="0.520229"/>
<path d="M507.38 244.917C510.698 247.052 505.838 256.76 500.75 252.854" stroke="black" stroke-width="0.520229"/>
<path d="M507.38 250.958C511.052 252.734 515.552 251.432 516.854 246.219" stroke="black" stroke-width="0.520229"/>
<path d="M514.604 250.245C514.958 252.969 518.869 255.099 523.963 254.036" stroke="black" stroke-width="0.520229"/>
<path d="M505.479 253.094C510.218 257.12 503.349 265.411 500.271 261.62" stroke="black" stroke-width="0.520229"/>
<path d="M507.26 256.166C509.51 257.828 515.317 256.88 515.906 252.495" stroke="black" stroke-width="0.520229"/>
<path d="M513.302 256.166C513.776 259.01 516.026 260.078 519.224 260.198" stroke="black" stroke-width="0.520229"/>
<path d="M505.958 260.073C508.328 263.39 514.25 264.338 516.854 259.958" stroke="black" stroke-width="0.520229"/>
<path d="M514.244 262.443C514.01 265.64 517.562 268.25 521.234 267.536" stroke="black" stroke-width="0.520229"/>
<path d="M501.338 269.552C504.416 271.094 507.734 265.286 505.13 261.26" stroke="black" stroke-width="0.520229"/>
<path d="M504.89 275.708C508.567 275.948 509.036 270.38 505.604 267.302" stroke="black" stroke-width="0.520229"/>
<path d="M513.302 280.802C516.385 280.088 515.432 273.338 507.968 272.745" stroke="black" stroke-width="0.520229"/>
<path d="M522.656 285.781C525.614 284.953 523.244 277.489 515.078 277.963" stroke="black" stroke-width="0.520229"/>
<path d="M533.911 288.385C535.922 285.307 529.291 280.099 523.843 282.823" stroke="black" stroke-width="0.520229"/>
<path d="M539.474 292.646C543.145 293.713 545.63 284 534.026 285.541" stroke="black" stroke-width="0.520229"/>
<path d="M546.229 292.646C549.427 291.818 551.677 286.015 542.323 287.911" stroke="black" stroke-width="0.520229"/>
<path d="M553.333 293.125C556.177 294.547 557.479 286.255 548.833 288.505" stroke="black" stroke-width="0.520229"/>
<path d="M505.599 267.302C509.151 269.312 514.718 266.943 514.244 262.443" stroke="black" stroke-width="0.520229"/>
<path d="M512.823 266.359C514.01 268.489 513.536 272.635 511.286 273.703" stroke="black" stroke-width="0.520229"/>
<path d="M513.177 271.333C515.546 272.281 518.744 271.453 520.64 267.661" stroke="black" stroke-width="0.520229"/>
<path d="M517.328 271.333C518.036 272.989 518.276 276.307 516.734 277.963" stroke="black" stroke-width="0.520229"/>
<path d="M517.922 274.172C520.526 275.594 523.609 273.698 524.911 270.974" stroke="black" stroke-width="0.520229"/>
<path d="M523.25 273.338C525.145 274.526 526.802 280.094 523.604 282.344" stroke="black" stroke-width="0.520229"/>
<path d="M525.385 279.739C527.635 279.859 530.953 279.859 533.083 277.015" stroke="black" stroke-width="0.520229"/>
<path d="M531.541 278.557C533.557 279.151 535.922 282.469 535.093 285.427" stroke="black" stroke-width="0.520229"/>
<path d="M535.213 284.354C537.468 284.12 541.375 282.578 542.437 279.854" stroke="black" stroke-width="0.520229"/>
<path d="M541.369 281.63C543.27 282.698 544.573 284.948 544.333 287.557" stroke="black" stroke-width="0.520229"/>
<path d="M544.328 285.656C546.578 285.536 548.593 284.354 549.187 281.87" stroke="black" stroke-width="0.520229"/>
<path d="M548.599 283.531C550.255 284.125 552.27 286.021 552.39 288.271" stroke="black" stroke-width="0.520229"/>
<path d="M552.151 286.844C553.807 286.604 554.994 285.536 556.057 283.88" stroke="black" stroke-width="0.520229"/>
<path d="M560.562 283.651C562.692 285.781 559.854 292.89 555.468 291.583" stroke="black" stroke-width="0.520229"/>
<path d="M515.078 140.094C510.692 142.698 498.255 141.87 504.411 131.568" stroke="black" stroke-width="0.520229"/>
<path d="M516.26 133.104C507.614 136.536 496.953 129.906 508.088 122.682" stroke="black" stroke-width="0.520229"/>
<path d="M505.13 120.318C497.901 120.318 493.047 131.922 502.76 135.948" stroke="black" stroke-width="0.520229"/>
<path d="M477.057 125.172C475.161 128.844 481.916 132.87 486.536 129.198C490.109 126.354 489.849 118.656 487.718 115.698" stroke="black" stroke-width="0.520229"/>
<path d="M473.385 133.932C471.015 141.75 488.432 142.224 485.703 129.786" stroke="black" stroke-width="0.520229"/>
<path d="M472.437 145.547C473.031 151.469 489.14 149.573 483.927 137.609" stroke="black" stroke-width="0.520229"/>
<path d="M485.823 134.286C487.125 136.062 490.677 139.146 496.718 138.552" stroke="black" stroke-width="0.520229"/>
<path d="M488.661 125.88C489.192 128.01 492.807 129.667 497.427 128.068" stroke="black" stroke-width="0.520229"/>
<path d="M327.052 306.088C322.963 308.995 329.239 313.552 331.552 308.515" stroke="black" stroke-width="0.520229"/>
<path d="M323.849 308.344C319.765 311.239 326.041 315.802 328.349 310.765" stroke="black" stroke-width="0.520229"/>
<path d="M320.474 310.536C316.385 313.437 322.661 317.995 324.974 312.963" stroke="black" stroke-width="0.520229"/>
<path d="M316.916 312.552C313.01 314.62 317.568 319.713 321.536 315.213" stroke="black" stroke-width="0.520229"/>
<path d="M313.068 314.505C309.161 316.578 313.724 321.672 317.687 317.172" stroke="black" stroke-width="0.520229"/>
<path d="M332.916 308.401C332.854 311.422 338.599 312.666 340.672 308.161" stroke="black" stroke-width="0.520229"/>
<path d="M336.526 311.187C334.75 313.437 338.01 316.224 339.786 315.213" stroke="black" stroke-width="0.520229"/>
<path d="M328.88 310.771C328.703 313.318 333.677 314.797 336.104 312.015" stroke="black" stroke-width="0.520229"/>
<path d="M331.609 313.443C330.01 315.51 333.151 318.297 335.166 317.463" stroke="black" stroke-width="0.520229"/>
<path d="M325.573 313.078C325.75 315.094 328.588 317.401 331.672 316.099" stroke="black" stroke-width="0.520229"/>
<path d="M327.401 315.802C326.219 316.87 326.812 319.359 328.469 320.13" stroke="black" stroke-width="0.520229"/>
<path d="M321.245 315.625C320.771 317.463 323.911 320.719 327.109 318.588" stroke="black" stroke-width="0.520229"/>
<path d="M321.89 317.76C320 319.239 320.234 321.489 322.661 321.786" stroke="black" stroke-width="0.520229"/>
<path d="M317.338 317.526C317.099 318.765 318.698 320.781 320.713 320.541" stroke="black" stroke-width="0.520229"/>
<path d="M307.208 317.406C305.312 318.411 310.166 323.562 313.187 318.765" stroke="black" stroke-width="0.520229"/>
<path d="M302.526 319.531C300.156 320.661 306.021 326.344 308.625 320.541" stroke="black" stroke-width="0.520229"/>
<path d="M317.87 319.297C316.031 319.708 314.849 322.375 316.385 323.443" stroke="black" stroke-width="0.520229"/>
<path d="M311.885 320.245C311.651 321.312 313.901 323.088 315.734 322.437" stroke="black" stroke-width="0.520229"/>
<path d="M310.349 320.724C308.573 321.849 309.521 324.984 311.594 324.515" stroke="black" stroke-width="0.520229"/>
<path d="M304.015 322.791C302.354 324.031 303.479 326.521 305.791 325.932" stroke="black" stroke-width="0.520229"/>
<path d="M307.031 322.614C307.088 323.265 308.567 324.276 309.812 323.859" stroke="black" stroke-width="0.520229"/>
<path d="M298.265 321.547C296.192 322.437 296.312 327.651 303.302 324.807" stroke="black" stroke-width="0.520229"/>
<path d="M293.588 323.625C290.687 325.047 291.63 328.953 297.969 325.224" stroke="black" stroke-width="0.520229"/>
<path d="M298.5 325.521C297.734 326.114 296.906 328.719 299.807 327.708" stroke="black" stroke-width="0.520229"/>
<path d="M293.177 326.76C291.989 327.823 292.76 330.015 295.364 329.187" stroke="black" stroke-width="0.520229"/>
<path d="M287.073 327.12C284.943 328.364 289.62 330.021 292.76 326.703" stroke="black" stroke-width="0.520229"/>
<path d="M288.495 328.656C287.547 329.604 287.547 332.385 290.036 331.38" stroke="black" stroke-width="0.520229"/>
<path d="M282.453 329.781C281.031 330.849 283.463 332.271 287.901 330.312" stroke="black" stroke-width="0.520229"/>
<path d="M284.229 331.318C282.568 332.682 282.745 334.396 285.177 333.864" stroke="black" stroke-width="0.520229"/>
<path d="M279.312 332.094C277.479 333.75 280.14 334.875 283.338 333.51" stroke="black" stroke-width="0.520229"/>
<path d="M279.37 333.932C276.234 335.349 277.594 337.958 279.552 336.953" stroke="black" stroke-width="0.520229"/>
<path d="M384.198 342.989C383.468 344.557 385.854 345.828 388.104 345.474C390.265 345.135 392.333 343.354 390.713 340.859" stroke="black" stroke-width="0.520229"/>
<path d="M390.828 343.937C392.958 345.594 396.75 343.703 396.75 341.213" stroke="black" stroke-width="0.520229"/>
<path d="M521.468 92.9531C511.994 88.2135 492.333 79.4479 486.765 86.5572C491.859 84.427 506.781 86.677 519.099 98.0468L521.468 92.9531Z" fill="white" stroke="black" stroke-width="0.520229"/>
<path d="M527.213 92.4531C516.26 79.6874 509.807 82.5468 501.927 78.151C494.526 74.0208 482.739 73.177 480.453 79.7447C491.265 74.4791 501.192 82.5781 507.291 83.5572C515.666 84.901 520.395 91.3749 522.843 94.3541L527.213 92.4531Z" fill="white" stroke="black" stroke-width="0.520229"/>
<path d="M568.494 90.8176C562.807 77.7916 550.646 81.1927 545.276 75.6562C537.463 67.6041 517.682 60.1406 509.51 65.7083C527.51 64.7604 535.177 78.1197 544.802 82.7656C551.672 86.0833 559.015 93.1874 568.494 90.8176Z" fill="white" stroke="black" stroke-width="0.520229"/>
<path d="M547.177 89.401C537.463 77.3177 522.536 66.6562 515.672 70.6822C524.672 71.1562 527.515 77.4375 533.911 81.4635C540.307 85.4895 537.463 91.2916 547.177 89.401Z" fill="white" stroke="black" stroke-width="0.520229"/>
<path d="M500.979 110.719C490.791 106.932 470.895 105.036 461.656 116.641C477.052 119.25 500.265 117.828 500.979 110.719Z" fill="white" stroke="black" stroke-width="0.520229"/>
<path d="M499.088 115.224C488.901 110.484 480.942 117.104 471.369 116.172C453.13 114.396 440.104 115.463 438.442 124.224C448.869 114.87 466.396 122.568 473.505 120.672C480.609 118.776 506.906 120.437 515.192 123.99C510.932 118.776 504.302 117.354 499.088 115.224Z" fill="white" stroke="black" stroke-width="0.520229"/>
<path d="M531.062 88.0989C528.698 80.2812 528.812 71.9895 540.541 72.5781C537.578 68.9062 526.682 67.0156 524.906 80.7551C511.994 71.276 497.901 69.6197 495.297 77.7916C501.927 72.1093 512.229 76.2552 524.547 90.2291C525.614 89.6354 528.458 88.4531 531.062 88.0989Z" fill="white" stroke="black" stroke-width="0.520229"/>
<path d="M513.302 98.8749C505.958 94.1406 496.01 86.4374 513.422 83.3593C505.958 79.3333 495.062 81.1093 496.25 94.8489C476.349 86.7916 462.057 89.5104 459.052 97.4531C455.739 106.219 468.057 111.073 470.187 105.51C467.937 106.458 460.239 103.849 464.265 98.8749C468.291 93.901 488.932 97.6354 508.567 107.88C514.015 110.719 532.724 110.245 513.302 98.8749Z" fill="white" stroke="black" stroke-width="0.520229"/>
<path d="M508.083 111.906C502.422 100.338 484.041 110.838 480.338 99.6353C475.276 116.052 506.474 106.969 508.083 111.906Z" fill="white" stroke="black" stroke-width="0.520229"/>
<path d="M624.989 124.458C628.843 126.375 632.177 123.365 626.281 121C630.14 122.917 633.5 119.979 627.609 117.615C631.463 119.531 634.828 116.588 628.932 114.229C627.359 115.812 625.109 121.615 624.989 124.458Z" fill="white" stroke="black" stroke-width="0.520229"/>
<path d="M627 102.193C635.531 93.1926 626.291 90.1145 636.713 80.8749C645.239 73.3177 638.338 68.276 646.427 62.3958C649.031 60.5 654.718 56.7135 655.192 52.9218C658.625 61.4479 644.531 62.6354 645.479 76.3749C646.083 85.1197 640.166 84.3593 637.901 99.1145C637.421 102.193 635.291 109.062 627 102.193Z" fill="white" stroke="black" stroke-width="0.520229"/>
<path d="M630.796 106.219C635.531 96.0312 640.974 96.2291 643.588 92.2447C648.562 84.6614 659.104 93.5468 667.989 86.7916C666.447 96.3853 654.484 92.9531 649.276 99.1145C644.062 105.271 639.796 108.115 630.796 106.219Z" fill="white" stroke="black" stroke-width="0.520229"/>
<path d="M631.979 109.536C640.276 102.901 646.385 107.328 652.119 103.849C666.567 95.0885 672.375 105.625 685.281 101.484C681.843 109.771 662.776 102.667 654.489 108.828C646.192 114.984 617.057 120.906 631.979 109.536Z" fill="white" stroke="black" stroke-width="0.520229"/>
<path d="M607.817 156.797C607.698 153.005 604.145 148.151 599.171 147.557C594.198 146.963 592.062 141.755 588.276 141.516C584.484 141.281 582 133.698 576.786 133.818C571.573 133.937 569.442 140.687 581.64 146.849C593.843 153.005 607.343 160.109 607.817 156.797Z" fill="white" stroke="black" stroke-width="0.520229"/>
<path d="M592.416 159.995C587.208 160.234 586.494 167.812 581.526 168.052C588.39 171.724 593.364 166.391 596.922 161.656L592.416 159.995Z" fill="white" stroke="black" stroke-width="0.520229"/>
<path d="M596.687 160.937C592.187 164.729 590.885 172.661 597.401 174.911C593.489 169.526 604.27 167.094 600.953 162.12L596.687 160.937Z" fill="white" stroke="black" stroke-width="0.520229"/>
<path d="M601.182 161.182C597.63 168.052 606.75 168.88 604.38 174.088C609.593 172.906 610.422 163.073 605.682 160.469L601.182 161.182Z" fill="white" stroke="black" stroke-width="0.520229"/>
<path d="M566.359 146.484C574.885 146.016 582.687 150.625 587.916 158.094C591.234 162.833 602.364 164.729 606.156 160.937C609.948 157.146 607.817 149.094 598.338 151.698C595.968 147.672 589.099 149.094 585.786 145.776C582.468 142.458 569.677 132.984 566.359 146.484Z" fill="white" stroke="black" stroke-width="0.520229"/>
<path d="M598.344 151.703C596.094 152.177 595.38 156.083 596.802 158.099L598.344 151.703Z" fill="white"/>
<path d="M598.343 151.703C596.093 152.177 595.38 156.083 596.802 158.099" stroke="black" stroke-width="0.520229" stroke-linecap="round"/>
<path d="M603.198 154.073C603.911 155.255 603.432 156.917 603.078 157.745L603.198 154.073Z" fill="white"/>
<path d="M603.198 154.073C603.911 155.255 603.432 156.917 603.078 157.745" stroke="black" stroke-width="0.520229" stroke-linecap="round"/>
<path d="M579.87 146.849C584.25 147.083 585.078 150.281 589.818 151.469L579.87 146.849Z" fill="white"/>
<path d="M579.869 146.849C584.25 147.083 585.078 150.281 589.817 151.469" stroke="black" stroke-width="0.520229" stroke-linecap="round"/>
<path d="M576.968 136.068C592.104 139.859 604.114 143.177 611.557 147.437C619.005 151.703 630.536 152.885 640.625 150.047C650.713 147.203 670.166 144.599 669.208 157.151C674.5 150.875 667.77 144.125 654.317 142.937C654.557 136.781 647.968 131.213 643.229 134.885C647.609 134.292 651.395 142.463 642.75 145.781C644.427 139.62 638.302 134.052 631.937 136.781C636.02 137.963 640.151 144.812 631.015 147.437C625.25 149.099 616.843 146.963 610.599 143.177C604.354 139.385 569.281 125.646 576.968 136.068Z" fill="white" stroke="black" stroke-width="0.520229"/>
<path d="M615.161 129.911C610.427 132.042 613.505 137.016 606.161 139.859C598.817 142.703 593.724 149.213 595.38 154.781C600.359 143.885 609.125 144.359 612.203 140.099C615.281 135.833 619.781 129.557 615.161 129.911Z" fill="white" stroke="black" stroke-width="0.520229"/>
<path d="M616.463 130.614C616.229 139.26 609.421 136.114 612.083 148.266C612.911 152.057 614.448 158.213 611.843 164.375C619.484 158.807 614.567 147.114 618.005 142.698C619.661 140.568 621.791 137.25 622.625 134.406C620.843 139.38 620.963 148.62 625.823 150.989C621.911 141.75 636.364 134.172 626.411 123.51C624.994 126.115 620.489 130.734 616.463 130.614Z" fill="white" stroke="black" stroke-width="0.520229"/>
<path d="M592.302 121.969C593.489 123.75 594.671 128.25 593.604 130.734C595.974 129.318 599.411 125.646 600.474 123.156C605.333 123.865 607.224 129.906 602.609 132.51C605.453 132.51 610.307 132.51 613.031 129.312C609.713 125.641 599.411 119.958 592.302 121.969Z" fill="white" stroke="black" stroke-width="0.520229"/>
<path d="M518.63 104.984C517.864 104.281 516.567 103.62 514.25 103.141C507.078 101.672 510.781 95.2083 516.885 95.2656C529.911 81.052 537.224 92.0104 553.099 87.5104C558.651 85.9322 562.463 86.401 565.489 87.7083C572.599 82.9687 580.932 84.2968 586.974 89.8593C587.645 88.7916 588.546 87.9791 589.812 87.6249C595.38 86.0833 599.88 90.8281 601.416 96.9843C605.755 96.1822 610.708 98.3281 613.968 101.292C618.484 98.9739 621.588 98.8697 622.734 101.25C626.765 99.3593 631.979 98.1666 634.588 104.562C637.192 110.958 628.427 109.068 627.005 122.568C626.13 130.896 616.823 134.177 609.474 129.203C597.729 121.245 586.26 119.963 580.572 132.042C574.89 144.125 570.437 151.146 556.651 147.203C551.677 145.781 545.281 147.677 541.255 153.125C537.224 158.573 531.067 153.479 523.724 154.073C532.963 152.651 529.422 150.328 537.463 149.812C544.807 149.333 542.911 142.469 547.651 141.521C529.171 146.255 529.885 139.385 514.724 144.125C521.354 135.599 531.781 140.333 536.989 135.359C523.25 135.125 517.104 126.146 510.932 129.911C501.218 135.833 505.479 152.693 480.135 151.234C467.817 150.521 460 152.177 452.661 159.521C465.453 132.989 482.854 147.568 491.271 139.151C496.25 134.177 500.036 130.385 502.64 125.646C503.557 123.979 504.802 123.026 506.349 122.656C485.271 116.026 498.021 105.693 518.63 104.984Z" fill="white" stroke="black" stroke-width="0.520229"/>
<path d="M622.724 101.25C623.046 101.917 623.213 102.781 623.213 103.849C623.213 109.062 615.395 109.297 614.921 117C614.677 121.026 614.213 123.276 611.484 122.802C608.765 122.328 606.395 118.062 609 113.088" fill="white"/>
<path d="M622.724 101.25C623.046 101.917 623.213 102.781 623.213 103.849C623.213 109.062 615.395 109.297 614.921 117C614.677 121.026 614.213 123.276 611.484 122.802C608.765 122.328 606.395 118.062 609 113.088" stroke="black" stroke-width="0.520229" stroke-linecap="round"/>
<path d="M522.536 97.2188C520.573 95.8438 518.615 95.2813 516.854 95.2656L522.536 97.2188Z" fill="white"/>
<path d="M522.536 97.2187C520.573 95.8437 518.614 95.2812 516.854 95.2656" stroke="black" stroke-width="0.520229"/>
<path d="M565.448 87.6718C571.718 90.3854 574.776 96.901 583.89 97.2187C592.661 97.526 598.104 110.25 612.791 101.958C613.187 101.734 613.578 101.526 613.953 101.328" fill="white"/>
<path d="M565.448 87.6718C571.718 90.3854 574.776 96.901 583.89 97.2187C592.661 97.526 598.104 110.25 612.791 101.958C613.187 101.734 613.578 101.526 613.953 101.328" stroke="black" stroke-width="0.520229"/>
<path d="M586.974 89.8646C585.667 91.9427 585.37 94.849 585.729 97.401L586.974 89.8646Z" fill="white"/>
<path d="M586.974 89.8645C585.666 91.9426 585.369 94.8489 585.729 97.401" stroke="black" stroke-width="0.520229"/>
<path d="M558.307 116.646C547.177 116.646 544.333 122.328 544.333 127.776C544.333 133.229 549.546 140.333 558.786 140.333C568.02 140.333 573 134.646 573 128.49C573 122.328 567.312 116.646 558.307 116.646Z" fill="white" stroke="black" stroke-width="0.520229"/>
<path d="M560.317 140.094C560.083 137.016 554.515 137.489 554.75 135.12C554.984 132.75 557.833 131.802 557.833 128.484C557.833 125.172 562.802 124.932 564.463 127.536C566.119 130.146 571.099 135.234 572.161 132.63" fill="white"/>
<path d="M560.317 140.094C560.083 137.016 554.515 137.489 554.75 135.12C554.984 132.75 557.833 131.802 557.833 128.484C557.833 125.172 562.802 124.932 564.463 127.536C566.119 130.146 571.099 135.234 572.161 132.63" stroke="black" stroke-width="0.520229"/>
<path d="M564.469 127.542C561.859 130.146 560.677 135.474 564.109 139.62L564.469 127.542Z" fill="white"/>
<path d="M564.468 127.542C561.859 130.146 560.677 135.474 564.109 139.62" stroke="black" stroke-width="0.520229"/>
<path d="M568.021 131.568C567.193 133.344 566.958 136.068 567.906 137.724L568.021 131.568Z" fill="white"/>
<path d="M568.02 131.568C567.192 133.344 566.958 136.068 567.906 137.724" stroke="black" stroke-width="0.520229"/>
<path d="M612.255 122.859C620.963 123.573 622.442 113.979 615.927 113.385" stroke="black" stroke-width="0.520229"/>
<path d="M601.541 96.9843C598.52 93.1354 591.593 91.8333 591.474 100.005" stroke="black" stroke-width="0.520229"/>
<path d="M590.645 109.302C587.687 101.958 580.104 100.891 576.073 104.562C572.724 107.62 572.64 115.578 579.869 117.24C582.354 114.276 587.208 110.365 590.645 109.302Z" fill="white" stroke="black" stroke-width="0.520229"/>
<path d="M587.385 104.682C583.125 100.891 576.844 108.057 582.531 114.63L587.385 104.682Z" fill="white"/>
<path d="M587.385 104.682C583.125 100.891 576.843 108.057 582.531 114.63" stroke="black" stroke-width="0.520229"/>
<path d="M506.271 122.625C509.119 121.948 513.297 123.344 519.692 126.354C523.724 128.25 535.802 132.276 543.38 128.25C535.562 131.094 529.645 119.245 523.724 120.667C517.797 122.088 506.963 124.281 502.401 119.958C513.531 120.667 519.52 111.849 532.244 119.484C535.802 121.614 540.302 123.036 544.328 122.802C533.906 110.245 520.166 118.302 518.744 108.115C525.026 114.865 540.364 106.573 548.177 119.25" fill="white"/>
<path d="M506.271 122.625C509.119 121.948 513.297 123.344 519.692 126.354C523.724 128.25 535.802 132.276 543.38 128.25C535.562 131.094 529.645 119.245 523.724 120.667C517.797 122.088 506.963 124.281 502.401 119.958C513.531 120.667 519.52 111.849 532.244 119.484C535.802 121.614 540.302 123.036 544.328 122.802C533.906 110.245 520.166 118.302 518.744 108.115C525.026 114.865 540.364 106.573 548.177 119.25" stroke="black" stroke-width="0.520229"/>
<path d="M521 110.01C519.531 108.182 520.193 106.365 518.62 104.927L521 110.01Z" fill="white"/>
<path d="M521 110.01C519.531 108.182 520.192 106.365 518.619 104.927" stroke="black" stroke-width="0.520229"/>
<path d="M601.542 96.9844C598.938 94.2031 593.255 96.3906 594.849 102.021C596.094 99.4115 598.76 97.224 601.542 96.9844Z" fill="black"/>
<path d="M585.437 112.156C587.229 110.854 589.083 109.786 590.641 109.302C589.792 107.193 588.562 105.599 587.141 104.495C585.786 103.557 581.891 108.792 585.437 112.156Z" fill="black"/>
<path d="M578.437 102.547C574.177 99.7031 570.265 99.9426 568.963 102.312C565.885 102.193 563.338 104.443 563.218 108.943" stroke="black" stroke-width="0.520229" stroke-linecap="round"/>
<path d="M569.797 110.838C564.703 107.344 557.713 108.646 558.187 116.463" stroke="black" stroke-width="0.520229" stroke-linecap="round"/>
<path d="M555.109 120.906C557.593 118.891 561.145 117.469 563.875 121.021" stroke="black" stroke-width="0.520229" stroke-linecap="round"/>
<path d="M593.135 113.208C592.187 114.51 591.474 116.526 593.015 119.604C591.119 117.115 586.38 117.115 581.286 123.75" stroke="black" stroke-width="0.520229" stroke-linecap="round"/>
<path d="M604.385 112.854C598.224 113.568 598.343 117.594 603.317 119.37" stroke="black" stroke-width="0.520229" stroke-linecap="round"/>
<path d="M560.562 97.8072C555.349 96.7447 551.557 99.8228 558.786 102.427" stroke="black" stroke-width="0.520229" stroke-linecap="round"/>
<path d="M570.51 94.2552C563.161 92.4791 560.203 94.3749 563.52 96.0312" stroke="black" stroke-width="0.520229" stroke-linecap="round"/>
<path d="M549.302 123.75C549.067 126.359 550.489 129.792 554.75 125.885" stroke="black" stroke-width="0.520229" stroke-linecap="round"/>
<path d="M550.729 131.568C550.729 132.276 550.609 133.104 550.135 133.698" stroke="black" stroke-width="0.520229" stroke-linecap="round"/>
<path d="M533.666 96.8593C529.166 95.5572 528.338 91.4114 533.552 91.7656" stroke="black" stroke-width="0.520229" stroke-linecap="round"/>
<path d="M532.13 106.453C527.156 104.797 527.156 99.9374 531.302 100.411" stroke="black" stroke-width="0.520229" stroke-linecap="round"/>
<path d="M541.369 103.969C535.567 102.547 535.333 98.5208 539.713 99.1093" stroke="black" stroke-width="0.520229" stroke-linecap="round"/>
<path d="M542.078 91.651C539 91.4114 534.26 94.8489 542.198 96.8593" stroke="black" stroke-width="0.520229" stroke-linecap="round"/>
<path d="M550.729 98.5208C543.505 97.4583 543.625 100.417 547.885 102.312" stroke="black" stroke-width="0.520229" stroke-linecap="round"/>
<path d="M556.177 91.651C550.609 90.5833 548.713 93.901 552.505 95.3229" stroke="black" stroke-width="0.520229" stroke-linecap="round"/>
<path d="M538.651 112.141C537.286 111.016 536.161 105.625 542.677 107.224" stroke="black" stroke-width="0.520229" stroke-linecap="round"/>
<path d="M552.151 110.484C547.771 109.302 543.625 113.568 547.651 116.052" stroke="black" stroke-width="0.520229" stroke-linecap="round"/>
<path d="M557.948 105.396C553.333 104.562 549.422 105.87 551.911 107.526" stroke="black" stroke-width="0.520229" stroke-linecap="round"/>
<path d="M601.292 96.9844C598.688 97.4687 596.359 98.9948 594.844 102.016L601.292 96.9844Z" fill="white"/>
<path d="M601.291 96.9843C598.687 97.4687 596.359 98.9947 594.843 102.016" stroke="black" stroke-width="0.520229"/>
</g>
<defs>
<clipPath id="clip0_0_1">
<rect width="900" height="450" fill="white"/>
</clipPath>
</defs>
</svg>
