<svg width="900" height="450" viewBox="0 0 900 450" fill="none" xmlns="http://www.w3.org/2000/svg">
<g clip-path="url(#clip0_763_6172)">
<path d="M900 0H0V450H900V0Z" fill="#1E1E1E"/>
<mask id="mask0_763_6172" style="mask-type:luminance" maskUnits="userSpaceOnUse" x="0" y="0" width="900" height="450">
<path d="M900 0H0V450H900V0Z" fill="white"/>
</mask>
<g mask="url(#mask0_763_6172)">
<mask id="mask1_763_6172" style="mask-type:luminance" maskUnits="userSpaceOnUse" x="0" y="0" width="900" height="450">
<path d="M0 0H900V450H0V0Z" fill="white"/>
</mask>
<g mask="url(#mask1_763_6172)">
<path d="M0 0H900V450H0V0Z" fill="#6DA9D2"/>
</g>
<mask id="mask2_763_6172" style="mask-type:luminance" maskUnits="userSpaceOnUse" x="0" y="168" width="900" height="114">
<path d="M0 168H900V281.333H0V168Z" fill="white"/>
</mask>
<g mask="url(#mask2_763_6172)">
<path d="M0 168.5H900V280.833H0V168.5Z" fill="white"/>
</g>
<mask id="mask3_763_6172" style="mask-type:luminance" maskUnits="userSpaceOnUse" x="0" y="186" width="900" height="76">
<path d="M0 186H900V262H0V186Z" fill="white"/>
</mask>
<g mask="url(#mask3_763_6172)">
<path d="M0 186.557H900V261.443H0V186.557Z" fill="black"/>
</g>
</g>
</g>
<defs>
<clipPath id="clip0_763_6172">
<rect width="900" height="450" fill="white"/>
</clipPath>
</defs>
</svg>
