<svg width="900" height="450" viewBox="0 0 900 450" fill="none" xmlns="http://www.w3.org/2000/svg">
<g clip-path="url(#clip0_763_6217)">
<path d="M900 0H0V450H900V0Z" fill="#1E1E1E"/>
<mask id="mask0_763_6217" style="mask-type:luminance" maskUnits="userSpaceOnUse" x="0" y="0" width="900" height="450">
<path d="M900 0H0V450H900V0Z" fill="white"/>
</mask>
<g mask="url(#mask0_763_6217)">
<mask id="mask1_763_6217" style="mask-type:luminance" maskUnits="userSpaceOnUse" x="0" y="0" width="900" height="450">
<path d="M0 0H900V450H0V0Z" fill="white"/>
</mask>
<g mask="url(#mask1_763_6217)">
<path d="M0 0H900V450H0V0Z" fill="white"/>
<path d="M0 0H900V450H0V0Z" fill="white"/>
<path d="M0 0H900V450H0V0Z" fill="#D22730"/>
</g>
<path d="M6 0H106V450H6V0Z" fill="white"/>
<path d="M58 0V16.1709H53.6131V0H58ZM2 28.2744H9.86931V21.8268H13.8559V13.9871H19.4383V7.14105H24.0174V0H37.8693V7.14105H42.3549V13.9871H47.9373V21.8268H51.9187V28.2744H58V38.2926H51.9187V44.7402H47.9373V52.5799H42.3549V59.426H37.8693V66.7636H34.6831V72.9163H27.2088V66.7636H24.0174V59.426H19.4383V52.5799H13.8559V44.7402H9.86931V38.2926H2M2 3.37389H9.86931V12.3002H2M32.8899 14.9807H28.8045V21.0299H24.9167V28.6729H21.1275V38.096H24.9167V45.7338H28.8045V51.6846H32.8899V45.7338H36.7726V38.096H40.6605V28.6729H36.7726V21.0299H32.8899V14.9807ZM33.2849 28.7712V37.6975H28.4043V28.7712H33.2849ZM2 52.1814H9.86931V61.8063H2M58 53.0766V66.6653H53.6131V53.0766H58ZM47.2356 68.1556V74.9034H52.0226V81.8478H58V90.9708H52.0226V98.0187H47.2356V104.761H41.6584V98.0187H36.8766V90.9708H32.8899V81.8478H36.8766V74.9034H41.6584V68.1556H47.2356ZM2 81.8478H9.86931V74.9034H14.6512V68.1556H20.1348V74.9034H24.9167V81.8478H28.9033V90.9708H24.9167V98.0187H20.1348V104.761H14.6512V98.0187H9.86931V90.9708H2M46.5391 82.0445H42.4537V90.6758H46.5391V82.0445ZM19.537 82.0445H15.4516V90.6758H19.537V82.0445ZM21.1275 225V220.338H17.7438V213.295H13.2582V209.031H9.86931V202.185H2V186.309H9.86931V190.873H13.2582V197.522H17.7438V205.455H24.1214V198.314H28.8045V193.057H32.1934V186.806H36.6738V180.161H39.964V173.414H43.1502V166.469H47.4383V157.145H41.7572V148.71H35.5771V143.649H25.2181V150.992H31.1955V157.641H27.2088V165.776H22.5257V172.917H16.6471V165.776H11.7613V157.641H8.7726V150.992H2V138.391H9.86931V130.257H12.858V124.006H15.6492V116.865H19.6358V109.822H23.5237V105.16H28.2068V98.117H33.8827V105.16H38.571V109.822H42.5524V116.865H46.4403V124.006H49.6317V130.159H52.8179V135.514H58V174.904H52.1214V181.548H50.427V188.493H46.0401V195.24H43.3529V200.198H40.5617V205.455H35.7798V210.614H28.9033V225M58 104.663V118.257H53.6131V104.663H58ZM2 107.24H9.86931V116.865H2M2 165.082H9.86931V174.702H2V165.082ZM57.8025 189.486V198.216H53.6131V189.486H57.8025ZM52.0226 225V219.546H49.429V215.277H45.6451V202.48H49.429V207.639H53.4156V215.178H57.8025V224.902M36.4763 224.902V218.552H40.6605V224.902" fill="#D22730"/>
<path d="M53 0V16.1709H57.4648V0H53ZM110 28.2744H101.986V21.8268H97.9282V13.9871H92.252V7.14105H87.5862V0H73.4883V7.14105H68.923V13.9871H63.2468V21.8268H59.1893V28.2744H53V38.2926H59.1893V44.7402H63.2468V52.5799H68.923V59.426H73.4883V66.7636H76.7363V72.9163H84.3381V66.7636H87.5862V59.426H92.252V52.5799H97.9282V44.7402H101.986V38.2926H110M110 3.37389H101.986V12.3002H110M78.5614 14.9807H82.7193V21.0299H86.671V28.6729H90.5274V38.096H86.671V45.7338H82.7193V51.6846H78.5614V45.7338H74.6045V38.096H70.6475V28.6729H74.6045V21.0299H78.5614V14.9807ZM78.1541 28.7712V37.6975H83.1214V28.7712H78.1541ZM110 52.1814H101.986V61.8063H110M53 53.0766V66.6653H57.4648V53.0766H53ZM63.9556 68.1556V74.9034H59.0888V81.8478H53V90.9708H59.0888V98.0187H63.9556V104.761H69.6371V98.0187H74.5039V90.9708H78.5614V81.8478H74.5039V74.9034H69.6371V68.1556H63.9556ZM110 81.8478H101.986V74.9034H97.1188V68.1556H91.5431V74.9034H86.671V81.8478H82.6188V90.9708H86.671V98.0187H91.5431V104.761H97.1188V98.0187H101.986V90.9708H110M64.6645 82.0445H68.8225V90.6758H64.6645V82.0445ZM92.1515 82.0445H96.3094V90.6758H92.1515V82.0445ZM90.5274 225V220.338H93.9765V213.295H98.5365V209.031H101.986V202.185H110V186.309H101.986V190.873H98.5365V197.522H93.9765V205.455H87.4857V198.314H82.7193V193.057H79.2703V186.806H74.705V180.161H71.3564V173.414H68.1136V166.469H63.7546V157.145H69.5313V148.71H75.8212V143.649H86.3695V150.992H80.2859V157.641H84.3381V165.776H89.1097V172.917H95.0927V165.776H100.06V157.641H103.102V150.992H110V138.391H101.986V130.257H98.9439V124.006H96.1031V116.865H92.0457V109.822H88.094V105.16H83.3277V98.117H77.5457V105.16H72.7794V109.822H68.7219V116.865H64.765V124.006H61.5222V130.159H58.2742V135.514H53V174.904H58.9883V181.548H60.7076V188.493H65.1723V195.24H67.9126V200.198H70.748V205.455H75.6201V210.614H82.6188V225M53 104.663V118.257H57.4648V104.663H53ZM110 107.24H101.986V116.865H110M110 165.082H101.986V174.702H110V165.082ZM53.2063 189.486V198.216H57.4648V189.486H53.2063ZM59.0888 225V219.546H61.7232V215.277H65.5797V202.48H61.7232V207.639H57.6658V215.178H53.2063V224.902M74.906 224.902V218.552H70.6475V224.902" fill="#D22730"/>
<path d="M58 448V431.829H53.6131V448H58ZM2 419.726H9.86931V426.173H13.8559V434.013H19.4383V440.859H24.0174V448H37.8693V440.859H42.3549V434.013H47.9373V426.173H51.9187V419.726H58V409.707H51.9187V403.26H47.9373V395.42H42.3549V388.574H37.8693V381.236H34.6831V375.084H27.2088V381.236H24.0174V388.574H19.4383V395.42H13.8559V403.26H9.86931V409.707H2M2 444.626H9.86931V435.7H2M32.8899 433.019H28.8045V426.97H24.9167V419.332H21.1275V409.904H24.9167V402.266H28.8045V396.315H32.8899V402.266H36.7726V409.904H40.6605V419.332H36.7726V426.97H32.8899V433.019ZM33.2849 419.229V410.303H28.4043V419.229H33.2849ZM2 395.819H9.86931V386.194H2M58 394.923V381.335H53.6131V394.923H58ZM47.2356 379.844V373.102H52.0226V366.157H58V357.029H52.0226V349.987H47.2356V343.239H41.6584V349.987H36.8766V357.029H32.8899V366.157H36.8766V373.102H41.6584V379.844H47.2356ZM2 366.157H9.86931V373.102H14.6512V379.844H20.1348V373.102H24.9167V366.157H28.9033V357.029H24.9167V349.987H20.1348V343.239H14.6512V349.987H9.86931V357.029H2M46.5391 365.956H42.4537V357.324H46.5391V365.956ZM19.537 365.956H15.4516V357.324H19.537V365.956ZM21.1275 223V227.662H17.7438V234.705H13.2582V238.974H9.86931V245.815H2V261.691H9.86931V257.127H13.2582V250.483H17.7438V242.545H24.1214V249.686H28.8045V254.943H32.1934V261.194H36.6738V267.844H39.964V274.586H43.1502V281.531H47.4383V290.856H41.7572V299.29H35.5771V304.351H25.2181V297.008H31.1955V290.364H27.2088V282.224H22.5257V275.083H16.6471V282.224H11.7613V290.364H8.7726V297.008H2V309.609H9.86931V317.743H12.858V323.994H15.6492V331.135H19.6358V338.178H23.5237V342.84H28.2068V349.883H33.8827V342.84H38.571V338.178H42.5524V331.135H46.4403V323.994H49.6317V317.841H52.8179V312.486H58V273.101H52.1214V266.452H50.427V259.507H46.0401V252.76H43.3529V247.802H40.5617V242.545H35.7798V237.386H28.9033V223M58 343.337V329.748H53.6131V343.337H58ZM2 340.76H9.86931V331.135H2M2 282.923H9.86931V273.298H2V282.923ZM57.8025 258.514V249.784H53.6131V258.514H57.8025ZM52.0226 223V228.454H49.429V232.723H45.6451V245.52H49.429V240.361H53.4156V232.822H57.8025V223.098M36.4763 223.098V229.448H40.6605V223.098" fill="#D22730"/>
<path d="M53.3854 449.333V433.057H57.7812V449.333H53.3854ZM109.505 420.875H101.615V427.365H97.6198V435.255H92.0312V442.146H87.4375V449.333H73.5573V442.146H69.0625V435.255H63.4739V427.365H59.4792V420.875H53.3854V410.792H59.4792V404.302H63.4739V396.411H69.0625V389.521H73.5573V382.135H76.7552V375.943H84.2396V382.135H87.4375V389.521H92.0312V396.411H97.6198V404.302H101.615V410.792H109.505M109.505 445.938H101.615V436.953H109.505M78.5521 434.255H82.6458V428.167H86.5364V420.479H90.3333V410.99H86.5364V403.302H82.6458V397.313H78.5521V403.302H74.6562V410.99H70.7604V420.479H74.6562V428.167H78.5521V434.255ZM78.151 420.375V411.391H83.0417V420.375H78.151ZM109.505 396.813H101.615V387.125H109.505M53.3854 395.911V382.234H57.7812V395.911H53.3854ZM64.1719 380.734V373.948H59.3802V366.958H53.3854V357.771H59.3802V350.682H64.1719V343.891H69.7656V350.682H74.5573V357.771H78.5521V366.958H74.5573V373.948H69.7656V380.734H64.1719ZM109.505 366.958H101.615V373.948H96.8229V380.734H91.3333V373.948H86.5364V366.958H82.5469V357.771H86.5364V350.682H91.3333V343.891H96.8229V350.682H101.615V357.771H109.505M64.8698 366.755H68.9635V358.068H64.8698V366.755ZM91.9323 366.755H96.026V358.068H91.9323V366.755ZM90.3333 222.87V227.563H93.7292V234.651H98.2187V238.948H101.615V245.833H109.505V261.813H101.615V257.219H98.2187V250.531H93.7292V242.542H87.3385V249.729H82.6458V255.021H79.25V261.313H74.7552V268.005H71.4583V274.792H68.2656V281.781H63.9739V291.167H69.6614V299.656H75.8542V304.75H86.2396V297.359H80.25V290.672H84.2396V282.479H88.9375V275.292H94.8281V282.479H99.7187V290.672H102.714V297.359H109.505V310.042H101.615V318.229H98.6198V324.521H95.8229V331.708H91.8281V338.797H87.9375V343.49H83.2448V350.578H77.5521V343.49H72.8594V338.797H68.8646V331.708H64.9687V324.521H61.776V318.328H58.5781V312.938H53.3854V273.297H59.2812V266.604H60.9739V259.615H65.3698V252.823H68.0677V247.833H70.8594V242.542H75.6562V237.349H82.5469V222.87M53.3854 343.99V330.313H57.7812V343.99H53.3854ZM109.505 341.396H101.615V331.708H109.505M109.505 283.182H101.615V273.495H109.505V283.182ZM53.5885 258.615V249.828H57.7812V258.615H53.5885ZM59.3802 222.87V228.359H61.9739V232.656H65.7708V245.536H61.9739V240.344H57.9792V232.755H53.5885V222.969M74.9531 222.969V229.359H70.7604V222.969" fill="#D22730"/>
<mask id="mask2_763_6217" style="mask-type:luminance" maskUnits="userSpaceOnUse" x="105" y="300" width="795" height="150">
<path d="M105 300H900V450H105V300Z" fill="white"/>
</mask>
<g mask="url(#mask2_763_6217)">
<path d="M105.177 300.887H900V450H105.177V300.887Z" fill="#009739"/>
</g>
</g>
</g>
<defs>
<clipPath id="clip0_763_6217">
<rect width="900" height="450" fill="white"/>
</clipPath>
</defs>
</svg>
