<svg width="900" height="450" viewBox="0 0 900 450" fill="none" xmlns="http://www.w3.org/2000/svg">
<rect width="900" height="450" fill="#1E1E1E"/>
<g clip-path="url(#clip0_0_1)">
<rect width="900" height="450" fill="#D52B1E"/>
<path d="M225 0H675V450H225V0ZM458.438 415.312L454.219 334.406C454.157 333.076 454.395 331.748 454.915 330.522C455.434 329.295 456.223 328.201 457.221 327.32C458.219 326.438 459.403 325.792 460.684 325.428C461.966 325.065 463.312 324.993 464.625 325.219L545.156 339.375L534.281 309.375C533.84 308.181 533.784 306.879 534.12 305.652C534.456 304.425 535.168 303.333 536.156 302.531L624.375 231.094L604.5 221.812C603.158 221.178 602.093 220.076 601.506 218.712C600.919 217.348 600.85 215.817 601.312 214.406L618.75 160.781L567.938 171.562C566.561 171.85 565.127 171.652 563.88 171.002C562.633 170.353 561.648 169.292 561.094 168L551.25 144.844L511.594 187.406C510.687 188.363 509.495 188.999 508.195 189.221C506.896 189.442 505.56 189.237 504.388 188.634C503.215 188.032 502.27 187.067 501.693 185.882C501.116 184.697 500.939 183.357 501.188 182.062L520.312 83.4375L489.656 101.156C488.936 101.578 488.138 101.848 487.31 101.948C486.481 102.049 485.641 101.978 484.842 101.741C484.042 101.504 483.299 101.105 482.66 100.569C482.021 100.033 481.498 99.3711 481.125 98.625L450 37.5L418.875 98.625C418.502 99.3711 417.979 100.033 417.34 100.569C416.701 101.105 415.958 101.504 415.158 101.741C414.359 101.978 413.519 102.049 412.69 101.948C411.862 101.848 411.064 101.578 410.344 101.156L379.688 83.4375L398.812 182.062C399.061 183.357 398.884 184.697 398.307 185.882C397.73 187.067 396.785 188.032 395.612 188.634C394.44 189.237 393.104 189.442 391.805 189.221C390.505 188.999 389.313 188.363 388.406 187.406L348.75 144.844L338.906 168C338.352 169.292 337.367 170.353 336.12 171.002C334.873 171.652 333.439 171.85 332.062 171.562L281.25 160.781L298.688 214.406C299.15 215.817 299.081 217.348 298.494 218.712C297.907 220.076 296.842 221.178 295.5 221.812L275.625 231.094L363.844 302.531C364.832 303.333 365.544 304.425 365.88 305.652C366.216 306.879 366.16 308.181 365.719 309.375L354.844 339.375L435.375 325.219C436.688 324.993 438.034 325.065 439.316 325.428C440.597 325.792 441.781 326.438 442.779 327.32C443.777 328.201 444.566 329.295 445.085 330.522C445.605 331.748 445.843 333.076 445.781 334.406L441.562 415.312H458.438Z" fill="white"/>
</g>
<defs>
<clipPath id="clip0_0_1">
<rect width="900" height="450" fill="white"/>
</clipPath>
</defs>
</svg>
