<svg width="900" height="450" viewBox="0 0 900 450" fill="none" xmlns="http://www.w3.org/2000/svg">
<g clip-path="url(#clip0_763_6530)">
<path d="M900 0H0V450H900V0Z" fill="#1E1E1E"/>
<mask id="mask0_763_6530" style="mask-type:luminance" maskUnits="userSpaceOnUse" x="0" y="0" width="900" height="450">
<path d="M900 0H0V450H900V0Z" fill="white"/>
</mask>
<g mask="url(#mask0_763_6530)">
<path d="M900 0H0V450H900V0Z" fill="#008000"/>
<path d="M450 318.75C501.777 318.75 543.75 276.777 543.75 225C543.75 173.223 501.777 131.25 450 131.25C398.223 131.25 356.25 173.223 356.25 225C356.25 276.777 398.223 318.75 450 318.75Z" fill="#FFE000"/>
<path d="M479.232 302.143C521.837 302.143 556.375 267.605 556.375 225C556.375 182.395 521.837 147.857 479.232 147.857C436.627 147.857 402.089 182.395 402.089 225C402.089 267.605 436.627 302.143 479.232 302.143Z" fill="#008000"/>
<path d="M154.464 229.464C208.707 229.464 252.679 185.492 252.679 131.25C252.679 77.0077 208.707 33.0357 154.464 33.0357C100.222 33.0357 56.25 77.0077 56.25 131.25C56.25 185.492 100.222 229.464 154.464 229.464Z" fill="#FFE000"/>
<path d="M147.688 205.304H172.212C172.212 205.304 173.319 203.056 171.965 201.932C170.611 200.808 165.337 200.56 166.762 196.584C169.691 188.409 170.1 190.93 171.939 171.515C173.778 152.101 174.664 121.65 174.664 121.65H171.122C171.122 121.65 171.803 131.119 169.759 143.449C167.716 155.78 167.103 156.869 164.854 166.338C162.606 175.806 162.266 176.624 160.222 182.142C158.179 187.66 157.974 187.932 154.773 193.041C151.571 198.15 152.729 196.243 150.958 199.308C150.072 200.841 148.982 200.432 148.386 201.548C147.79 202.663 147.688 205.303 147.688 205.303V205.304Z" fill="#802000" stroke="#7B3100" stroke-width="23.333"/>
<path d="M166.402 59.6964C166.606 63.5054 166.223 68.548 164.644 72.6518C163.043 77.2246 161.303 81.783 161.389 86.5187C158.844 87.3843 156.221 81.0118 153.772 84.7609C155.613 89.9409 159.864 94.0421 162.777 98.7091C163.268 100.156 167.459 103.934 165.034 104.813C158.914 102.718 157.43 94.9634 153.634 90.2545C149.225 82.3297 141.006 76.7286 131.848 76.342C128.409 76.4321 117.225 75.4895 120.135 81.3794C124.421 84.2929 129.701 86.1928 133.932 89.463C137.085 89.758 142.799 95.0209 142.466 97.0095C136.921 94.7637 134.326 92.0721 128.352 89.7096C120.258 86.5834 109.061 88.4638 104.58 96.4972C103.744 98.5895 102.511 104.687 105.138 105.268C108.208 100.475 112.6 95.1167 119.107 96.5542C124.218 96.9532 113.404 106.076 117.54 104.24C118.851 103.659 121.878 101.672 123.978 101.464C126.078 101.257 127.251 102.829 128.844 103.046C132.03 103.481 132.908 104.817 132.612 105.594C132.264 106.511 131.252 105.728 128.012 106.755C126.393 107.269 125.547 108.692 123.658 109.343C121.768 109.995 117.839 110.041 116.37 109.463C111.232 107.232 102.808 107.62 101.207 114.059C101.205 116.89 98.6855 113.746 97.521 114.969C96.6479 118.059 96.422 121.231 91.8395 120.95C89.0578 123.869 86.2092 126.89 82.677 128.966C84.7498 133.724 92.9627 124.188 92.5788 128.209C88.9886 133.105 94.426 134.135 96.8063 130.367C100.832 126.113 105.818 120.935 111.825 125.222C114.686 127.916 116.349 123.798 118.419 124.019C119.724 127.365 121.366 124.183 122.846 123.237C125.271 122.935 124.589 126.265 127.469 124.214C133.209 120.415 140.272 123.607 145.88 119.911C151.849 117.191 146.718 122.101 145.07 124.02C142.448 129.107 144.722 135.785 139.033 138.943C136.748 145.006 141.733 152.997 136.649 157.482C135.909 160.294 143.187 159.972 145.23 161.128C148.81 161.269 145.076 152.935 148.628 151.818C153.391 154.766 153.168 146.546 152.184 144.01C152.646 138.246 152.971 131.945 155.835 126.724C158.88 120.326 161.698 129.33 158.29 131.863C156.354 137.747 153.535 145.11 157.938 150.581C159.207 150.865 160.249 153.941 161.891 154.886C163.534 155.831 165.778 154.646 166.188 151.848C168.295 143.422 167.233 134.362 170.243 126.167C172.366 123.629 175.296 125.758 176.614 128.092C180.831 132.988 183.795 139.108 188.9 143.142C193.549 145.317 197.66 148.607 199.802 153.393C199.773 157.085 210.289 157.651 207.146 153.547C204.131 149.552 206.121 145.556 209.175 142.899C210.81 143.302 210.327 140.373 209.044 141.532C206.991 141.047 206.86 137.289 209.714 139.076C214.52 140.627 209.339 135.597 207.602 135.443C203.537 132.923 198.868 130.025 196.869 125.646C202.16 125.7 207.652 128.554 213.059 126.784C217.392 124.557 221.788 126.969 223.302 130.789C226.652 130.255 225.223 126.895 223.302 125.776C225.752 124.765 227.446 122.669 224.475 120.82C222.906 118.772 226.58 115.279 222.065 115.425C222.212 111.976 220.854 108.82 217.095 107.629C213.329 104.44 202.278 112.327 202.599 105.138C201.485 101.226 207.088 104.616 208.653 102.664C210.271 98.54 200.945 98.9425 204.022 95.7448C206.032 94.4507 215.464 92.5918 208.067 91.2073C204.375 92.222 201.207 91.4706 198.302 89.6437C195.654 94.0725 188.093 87.2385 189.44 95.1125C188.406 98.0795 181.647 105.788 179.819 99.8824C181.374 95.2534 189.381 93.7398 186.898 87.4985C186.517 83.6024 183.287 88.176 181.765 87.8855C180.995 85.4604 184.096 82.6018 186.257 82.0262C190.547 85.3251 190.676 77.8642 194.755 78.4712C197.734 77.8095 193.794 76.5321 192.963 75.9715C193.779 73.7915 198.351 72.6776 193.868 70.7846C189.913 67.8496 186.981 73.706 183.718 74.0183C180.587 70.483 186.561 68.7837 188.21 66.922C188.299 65.5342 184.727 66.5033 185.801 65.2944C186.735 63.6256 193.06 63.5014 190.098 60.9975C185.637 59.466 179.88 59.8479 175.6 61.832C172.903 62.705 172.11 68.8024 169.786 68.5496C168.693 65.8355 170.141 60.4806 166.4 59.6954L166.402 59.6964ZM187.496 119.267C190.895 118.691 187.568 124.429 185.933 124.345C186.077 122.283 181.017 122.482 184.157 120.685C185.175 120.028 186.309 119.526 187.496 119.267Z" fill="#008000"/>
<path d="M675 342.857L681.198 362.129L700.13 354.959L688.928 371.821L706.337 382.152L686.169 383.907L688.946 403.96L675 389.286L661.054 403.96L663.831 383.907L643.663 382.152L661.072 371.821L649.87 354.959L668.802 362.129L675 342.857Z" fill="#FFE000"/>
<path d="M562.5 164.732L568.698 184.004L587.63 176.834L576.428 193.696L593.837 204.027L573.669 205.782L576.446 225.835L562.5 211.161L548.554 225.835L551.331 205.782L531.163 204.027L548.572 193.696L537.37 176.834L556.302 184.004L562.5 164.732Z" fill="#FFE000"/>
<path d="M675 42.8571L681.198 62.129L700.13 54.9593L688.928 71.8211L706.337 82.1525L686.169 83.907L688.946 103.96L675 89.2857L661.054 103.96L663.831 83.907L643.663 82.1525L661.072 71.8211L649.87 54.9593L668.802 62.129L675 42.8571Z" fill="#FFE000"/>
<path d="M775 134.732L781.198 154.004L800.13 146.834L788.928 163.696L806.337 174.027L786.169 175.782L788.946 195.835L775 181.161L761.054 195.835L763.831 175.782L743.663 174.027L761.073 163.696L749.87 146.834L768.802 154.004L775 134.732Z" fill="#FFE000"/>
<path d="M720 225L724.898 237.008L737.832 237.956L727.926 246.325L731.021 258.919L720 252.083L708.979 258.919L712.075 246.325L702.168 237.956L715.102 237.008L720 225Z" fill="#FFE000"/>
</g>
</g>
<defs>
<clipPath id="clip0_763_6530">
<rect width="900" height="450" fill="white"/>
</clipPath>
</defs>
</svg>
