<svg width="900" height="450" viewBox="0 0 900 450" fill="none" xmlns="http://www.w3.org/2000/svg">
<g clip-path="url(#clip0_763_6701)">
<path d="M900 0H0V450H900V0Z" fill="#1E1E1E"/>
<mask id="mask0_763_6701" style="mask-type:luminance" maskUnits="userSpaceOnUse" x="0" y="0" width="900" height="450">
<path d="M900 0H0V450H900V0Z" fill="white"/>
</mask>
<g mask="url(#mask0_763_6701)">
<mask id="mask1_763_6701" style="mask-type:luminance" maskUnits="userSpaceOnUse" x="0" y="0" width="900" height="450">
<path d="M0 0H900V450H0V0Z" fill="white"/>
</mask>
<g mask="url(#mask1_763_6701)">
<path d="M0 0H900V450H0V0Z" fill="white"/>
<path d="M0 0H900V450H0V0Z" fill="white"/>
<path d="M0 0H900V450H0V0Z" fill="#1E1E1E"/>
<path d="M900 0H0V450H900V0Z" fill="#009543"/>
<path d="M0 450L599.998 0H900V450H0Z" fill="#FBDE4A"/>
</g>
<mask id="mask2_763_6701" style="mask-type:luminance" maskUnits="userSpaceOnUse" x="300" y="0" width="600" height="450">
<path d="M300 -3.37219e-06H900V450H300V-3.37219e-06Z" fill="white"/>
</mask>
<g mask="url(#mask2_763_6701)">
<path d="M900 -3.37219e-06V450H300.224L900 -3.37219e-06Z" fill="#DC241F"/>
</g>
</g>
</g>
<defs>
<clipPath id="clip0_763_6701">
<rect width="900" height="450" fill="white"/>
</clipPath>
</defs>
</svg>
