<svg width="900" height="450" viewBox="0 0 900 450" fill="none" xmlns="http://www.w3.org/2000/svg">
<g clip-path="url(#clip0_763_6976)">
<path d="M900 0H0V450H900V0Z" fill="#1E1E1E"/>
<mask id="mask0_763_6976" style="mask-type:luminance" maskUnits="userSpaceOnUse" x="0" y="0" width="900" height="450">
<path d="M900 0H0V450H900V0Z" fill="white"/>
</mask>
<g mask="url(#mask0_763_6976)">
<path d="M900 0H0V450H900V0Z" fill="white"/>
<mask id="mask1_763_6976" style="mask-type:luminance" maskUnits="userSpaceOnUse" x="0" y="0" width="900" height="450">
<path d="M0 0H900V450H0V0Z" fill="white"/>
</mask>
<g mask="url(#mask1_763_6976)">
<path d="M0 0H900V450H0V0Z" fill="white"/>
<path d="M0 0H900V450H0V0Z" fill="white"/>
<path d="M0 0H900V450H0V0Z" fill="#1E1E1E"/>
</g>
<mask id="mask2_763_6976" style="mask-type:luminance" maskUnits="userSpaceOnUse" x="0" y="220" width="900" height="230">
<path d="M0 220H900V450H0V220Z" fill="white"/>
</mask>
<g mask="url(#mask2_763_6976)">
<path d="M0 220.68H900V450H0V220.68Z" fill="#D52B1E"/>
</g>
<mask id="mask3_763_6976" style="mask-type:luminance" maskUnits="userSpaceOnUse" x="0" y="0" width="900" height="225">
<path d="M0 0H900V225H0V0Z" fill="white"/>
</mask>
<g mask="url(#mask3_763_6976)">
<path d="M0 224.334H900V0H0V224.334Z" fill="white"/>
</g>
<mask id="mask4_763_6976" style="mask-type:luminance" maskUnits="userSpaceOnUse" x="0" y="0" width="225" height="225">
<path d="M0 0H225V225H0V0Z" fill="white"/>
</mask>
<g mask="url(#mask4_763_6976)">
<path d="M0 0H225V224.334H0V0Z" fill="#0039A6"/>
</g>
<path d="M113.417 61L96.0573 114.417L122.766 123.094L113.417 61Z" fill="white"/>
<path d="M113.417 61L130.771 114.417L104.062 123.094L113.417 61Z" fill="white"/>
<path d="M166.833 99.8125H110.667V127.896L166.833 99.8125Z" fill="white"/>
<path d="M166.833 99.8125L121.396 132.823L104.885 110.104L166.833 99.8125Z" fill="white"/>
<path d="M60 99.8125L105.438 132.823L121.943 110.104L60 99.8125Z" fill="white"/>
<path d="M60 99.8125H116.167V127.896L60 99.8125Z" fill="white"/>
<path d="M146.432 162.604L129.073 109.188L102.365 117.87L146.432 162.604Z" fill="white"/>
<path d="M146.432 162.604L100.99 129.594L117.495 106.875L146.432 162.604Z" fill="white"/>
<path d="M80.401 162.604L125.844 129.594L109.333 106.875L80.401 162.604Z" fill="white"/>
<path d="M80.401 162.604L97.7604 109.188L124.469 117.865L80.401 162.604Z" fill="white"/>
</g>
</g>
<defs>
<clipPath id="clip0_763_6976">
<rect width="900" height="450" fill="white"/>
</clipPath>
</defs>
</svg>
