<svg width="900" height="450" viewBox="0 0 900 450" fill="none" xmlns="http://www.w3.org/2000/svg">
<rect width="900" height="450" fill="#1E1E1E"/>
<g clip-path="url(#clip0_0_1)">
<rect width="900" height="450" fill="white"/>
<mask id="mask0_0_1" style="mask-type:luminance" maskUnits="userSpaceOnUse" x="0" y="0" width="900" height="450">
<path d="M0 -3.37219e-06H900V450H0V-3.37219e-06Z" fill="white"/>
</mask>
<g mask="url(#mask0_0_1)">
<path d="M0 -3.37219e-06H900V450H0V-3.37219e-06Z" fill="#EE1C25"/>
</g>
<path d="M113 44.9323L152.63 166.859L48.8333 91.5052H177.167L73.3698 166.859L113 44.9323Z" fill="#FFFF00"/>
<path d="M234.12 24.2552L230.375 66.8281L208.365 30.1719L247.729 46.9115L206.062 56.4896L234.12 24.2552Z" fill="#FFFF00"/>
<path d="M286.391 74.2292L266.417 112.01L260.359 69.6875L290.141 100.391L248.021 93.0469L286.391 74.2292Z" fill="#FFFF00"/>
<path d="M291.375 149.578L257.724 175.922L269.453 134.807L284.125 174.99L248.667 151.104L291.375 149.578Z" fill="#FFFF00"/>
<path d="M233.26 181.182L231.281 223.875L207.771 188.161L247.797 203.255L206.562 214.552L233.26 181.182Z" fill="#FFFF00"/>
</g>
<defs>
<clipPath id="clip0_0_1">
<rect width="900" height="450" fill="white"/>
</clipPath>
</defs>
</svg>
