<svg width="900" height="450" viewBox="0 0 900 450" fill="none" xmlns="http://www.w3.org/2000/svg">
<rect width="900" height="450" fill="#1E1E1E"/>
<g clip-path="url(#clip0_0_1)">
<rect width="900" height="450" fill="white"/>
<mask id="mask0_0_1" style="mask-type:luminance" maskUnits="userSpaceOnUse" x="0" y="0" width="900" height="450">
<path d="M0 -3.37219e-06H900V450H0V-3.37219e-06Z" fill="white"/>
</mask>
<g mask="url(#mask0_0_1)">
<path d="M0 -3.37219e-06H900V450H0V-3.37219e-06Z" fill="white"/>
<path d="M0 -3.37219e-06H900V450H0V-3.37219e-06Z" fill="white"/>
<path d="M0 -3.37219e-06H900V450H0V-3.37219e-06Z" fill="#1E1E1E"/>
<path d="M900 -3.37219e-06H0V450H900V-3.37219e-06Z" fill="#003893"/>
</g>
<mask id="mask1_0_1" style="mask-type:luminance" maskUnits="userSpaceOnUse" x="0" y="224" width="900" height="114">
<path d="M0 224H900V337.333H0V224Z" fill="white"/>
</mask>
<g mask="url(#mask1_0_1)">
<path d="M900 224.667H0V337H900V224.667Z" fill="white"/>
</g>
<mask id="mask2_0_1" style="mask-type:luminance" maskUnits="userSpaceOnUse" x="0" y="261" width="900" height="39">
<path d="M0 261.333H900V300H0V261.333Z" fill="white"/>
</mask>
<g mask="url(#mask2_0_1)">
<path d="M900 262.109H0V299.557H900V262.109Z" fill="#CF2027"/>
</g>
<path d="M285.62 144.786L278.714 166.151L289.339 169.625" fill="#F7D116"/>
<path d="M285.62 144.786L292.526 166.151L281.896 169.625" fill="#F7D116"/>
<path d="M306.875 160.307L284.536 160.339L284.526 171.542" fill="#F7D116"/>
<path d="M306.875 160.297L288.781 173.516L282.224 164.443" fill="#F7D116"/>
<path d="M298.755 185.422L291.859 164.062L281.219 167.542" fill="#F7D116"/>
<path d="M298.745 185.427L280.672 172.229L287.25 163.135" fill="#F7D116"/>
<path d="M272.49 185.427L290.562 172.229L283.984 163.135" fill="#F7D116"/>
<path d="M272.484 185.422L279.38 164.062L290.016 167.542" fill="#F7D116"/>
<path d="M264.365 160.297L282.458 173.516L289.01 164.443" fill="#F7D116"/>
<path d="M264.365 160.307L286.698 160.339L286.714 171.542" fill="#F7D116"/>
<path d="M285.62 369.453L278.714 390.818L289.339 394.292" fill="#F7D116"/>
<path d="M285.62 369.453L292.526 390.818L281.896 394.292" fill="#F7D116"/>
<path d="M306.875 384.979L284.536 385.005L284.526 396.208" fill="#F7D116"/>
<path d="M306.875 384.964L288.781 398.182L282.224 389.109" fill="#F7D116"/>
<path d="M298.755 410.089L291.859 388.729L281.219 392.208" fill="#F7D116"/>
<path d="M298.745 410.094L280.672 396.896L287.25 387.802" fill="#F7D116"/>
<path d="M272.49 410.094L290.562 396.896L283.984 387.802" fill="#F7D116"/>
<path d="M272.484 410.089L279.38 388.729L290.016 392.208" fill="#F7D116"/>
<path d="M264.365 384.964L282.458 398.182L289.01 389.109" fill="#F7D116"/>
<path d="M264.365 384.979L286.698 385.005L286.714 396.208" fill="#F7D116"/>
<path d="M413.151 237.932L390.823 237.974L390.802 249.161" fill="#F7D116"/>
<path d="M413.151 237.906L395.052 251.135L388.5 242.073" fill="#F7D116"/>
<path d="M405.031 263.026L398.156 241.682L387.5 245.172" fill="#F7D116"/>
<path d="M405.01 263.047L386.953 249.865L393.542 240.755" fill="#F7D116"/>
<path d="M378.745 263.047L396.839 249.828L390.286 240.755" fill="#F7D116"/>
<path d="M378.76 263.063L385.682 241.682L396.292 245.141" fill="#F7D116"/>
<path d="M370.641 237.938L388.714 251.135L395.286 242.042" fill="#F7D116"/>
<path d="M370.646 237.948L392.99 237.932L392.979 249.146" fill="#F7D116"/>
<path d="M391.922 222.406L384.99 243.792L395.594 247.245" fill="#F7D116"/>
<path d="M391.922 222.406L398.802 243.755L388.151 247.245" fill="#F7D116"/>
<path d="M200.599 307.354L178.271 307.401L178.25 318.589" fill="#F7D116"/>
<path d="M200.599 307.333L182.495 320.563L175.948 311.495" fill="#F7D116"/>
<path d="M192.479 332.453L185.604 311.109L174.943 314.599" fill="#F7D116"/>
<path d="M192.458 332.474L174.396 319.292L180.984 310.182" fill="#F7D116"/>
<path d="M166.193 332.474L184.286 319.255L177.729 310.182" fill="#F7D116"/>
<path d="M166.203 332.49L173.13 311.109L183.74 314.568" fill="#F7D116"/>
<path d="M158.089 307.365L176.161 320.563L182.734 311.464" fill="#F7D116"/>
<path d="M158.094 307.37L180.437 307.354L180.427 318.573" fill="#F7D116"/>
<path d="M179.365 291.833L172.437 313.219L183.036 316.672" fill="#F7D116"/>
<path d="M179.365 291.833L186.25 313.182L175.594 316.672" fill="#F7D116"/>
<path d="M364.438 388.635L357.542 367.276L346.906 370.755" fill="#F7D116"/>
<path d="M364.432 388.641L346.354 375.443L352.932 366.349" fill="#F7D116"/>
<path d="M338.156 388.641L356.245 375.427L349.682 366.349" fill="#F7D116"/>
<path d="M338.167 388.651L345.083 367.276L355.698 370.74" fill="#F7D116"/>
<path d="M330.047 363.531L348.12 376.729L354.693 367.635" fill="#F7D116"/>
<path d="M330.052 363.536L352.396 363.521L352.391 374.745" fill="#F7D116"/>
<path d="M351.313 348L344.396 369.375L355.01 372.839" fill="#F7D116"/>
<path d="M351.313 348L358.208 369.359L347.568 372.839" fill="#F7D116"/>
<path d="M372.557 363.521L350.214 363.536L350.208 374.755" fill="#F7D116"/>
<path d="M372.557 363.516L354.469 376.729L347.906 367.646" fill="#F7D116"/>
<path d="M233.073 206.875L226.177 185.516L215.536 188.995" fill="#F7D116"/>
<path d="M233.062 206.88L214.99 193.688L221.568 184.589" fill="#F7D116"/>
<path d="M206.792 206.88L224.88 193.667L218.318 184.589" fill="#F7D116"/>
<path d="M206.797 206.891L213.714 185.516L224.333 188.979" fill="#F7D116"/>
<path d="M198.682 181.771L216.755 194.969L223.328 185.875" fill="#F7D116"/>
<path d="M198.688 181.776L221.031 181.766L221.021 192.984" fill="#F7D116"/>
<path d="M219.948 166.24L213.031 187.615L223.646 191.078" fill="#F7D116"/>
<path d="M219.948 166.24L226.844 187.599L216.203 191.078" fill="#F7D116"/>
<path d="M241.193 181.766L218.849 181.781L218.844 192.995" fill="#F7D116"/>
<path d="M241.193 181.755L223.104 194.969L216.542 185.891" fill="#F7D116"/>
<path d="M206.807 388.641L224.88 375.443L218.302 366.349" fill="#F7D116"/>
<path d="M206.797 388.635L213.693 367.276L224.333 370.755" fill="#F7D116"/>
<path d="M198.682 363.516L216.771 376.729L223.328 367.646" fill="#F7D116"/>
<path d="M198.682 363.521L221.021 363.536L221.031 374.755" fill="#F7D116"/>
<path d="M219.922 348L213.031 369.359L223.667 372.839" fill="#F7D116"/>
<path d="M219.922 348L226.844 369.375L216.224 372.839" fill="#F7D116"/>
<path d="M241.188 363.536L218.844 363.521L218.849 374.745" fill="#F7D116"/>
<path d="M241.193 363.531L223.115 376.729L216.542 367.635" fill="#F7D116"/>
<path d="M233.073 388.651L226.156 367.276L215.536 370.74" fill="#F7D116"/>
<path d="M233.078 388.641L214.99 375.427L221.552 366.349" fill="#F7D116"/>
<path d="M338.172 206.88L356.245 193.688L349.672 184.589" fill="#F7D116"/>
<path d="M338.167 206.875L345.057 185.516L355.698 188.995" fill="#F7D116"/>
<path d="M330.047 181.755L348.135 194.969L354.693 185.891" fill="#F7D116"/>
<path d="M330.047 181.766L352.385 181.781L352.396 192.995" fill="#F7D116"/>
<path d="M351.292 166.24L344.396 187.599L355.036 191.078" fill="#F7D116"/>
<path d="M351.292 166.24L358.208 187.615L347.594 191.078" fill="#F7D116"/>
<path d="M372.552 181.776L350.208 181.766L350.214 192.984" fill="#F7D116"/>
<path d="M372.557 181.771L354.479 194.969L347.906 185.875" fill="#F7D116"/>
<path d="M364.438 206.891L357.521 185.516L346.906 188.979" fill="#F7D116"/>
<path d="M364.448 206.88L346.354 193.667L352.917 184.589" fill="#F7D116"/>
<path d="M158.089 237.906L176.187 251.135L182.734 242.073" fill="#F7D116"/>
<path d="M158.089 237.932L180.411 237.974L180.437 249.161" fill="#F7D116"/>
<path d="M179.318 222.406L172.437 243.755L183.089 247.245" fill="#F7D116"/>
<path d="M179.318 222.406L186.25 243.792L175.646 247.245" fill="#F7D116"/>
<path d="M200.589 237.948L178.25 237.932L178.255 249.146" fill="#F7D116"/>
<path d="M200.599 237.938L182.521 251.135L175.948 242.042" fill="#F7D116"/>
<path d="M192.479 263.063L185.552 241.682L174.943 245.141" fill="#F7D116"/>
<path d="M192.49 263.047L174.396 249.828L180.953 240.755" fill="#F7D116"/>
<path d="M166.224 263.047L184.286 249.865L177.698 240.755" fill="#F7D116"/>
<path d="M166.203 263.026L173.083 241.682L183.74 245.172" fill="#F7D116"/>
<path d="M370.641 307.333L388.74 320.563L395.286 311.495" fill="#F7D116"/>
<path d="M370.641 307.354L392.969 307.401L392.99 318.589" fill="#F7D116"/>
<path d="M391.87 291.833L384.99 313.182L395.641 316.672" fill="#F7D116"/>
<path d="M391.87 291.833L398.802 313.219L388.198 316.672" fill="#F7D116"/>
<path d="M413.146 307.37L390.802 307.354L390.807 318.573" fill="#F7D116"/>
<path d="M413.151 307.365L395.078 320.563L388.5 311.464" fill="#F7D116"/>
<path d="M405.031 332.49L398.109 311.109L387.5 314.568" fill="#F7D116"/>
<path d="M405.047 332.474L386.953 319.255L393.505 310.182" fill="#F7D116"/>
<path d="M378.781 332.474L396.839 319.292L390.25 310.182" fill="#F7D116"/>
<path d="M378.76 332.453L385.635 311.109L396.292 314.599" fill="#F7D116"/>
</g>
<defs>
<clipPath id="clip0_0_1">
<rect width="900" height="450" fill="white"/>
</clipPath>
</defs>
</svg>
