<svg width="900" height="450" viewBox="0 0 900 450" fill="none" xmlns="http://www.w3.org/2000/svg">
<g clip-path="url(#clip0_763_8155)">
<path d="M900 0H0V450H900V0Z" fill="#1E1E1E"/>
<mask id="mask0_763_8155" style="mask-type:luminance" maskUnits="userSpaceOnUse" x="0" y="0" width="900" height="450">
<path d="M900 0H0V450H900V0Z" fill="white"/>
</mask>
<g mask="url(#mask0_763_8155)">
<path d="M900 0H0V450H900V0Z" fill="white"/>
<path d="M900 0H0V450H900V0Z" fill="#002B7F"/>
<path d="M900 280H0V337H900V280Z" fill="#F9E814"/>
<path d="M179.734 189.932L150.547 168.724L121.359 189.932L132.583 155.625L103.396 134.396H139.411L150.635 100.068L161.859 134.396H197.786L168.599 155.625L179.734 189.932Z" fill="white"/>
<path d="M97.6042 105.01L75.7135 89.1042L53.8437 105.01L62.1927 79.2604L40.3021 63.3542H67.2448L75.5989 37.6094L84.0833 63.3542H111.031L89.1354 79.2604L97.6042 105.01Z" fill="white"/>
</g>
</g>
<defs>
<clipPath id="clip0_763_8155">
<rect width="900" height="450" fill="white"/>
</clipPath>
</defs>
</svg>
