<svg width="900" height="450" viewBox="0 0 900 450" fill="none" xmlns="http://www.w3.org/2000/svg">
<rect width="900" height="450" fill="#1E1E1E"/>
<g clip-path="url(#clip0_0_1)">
<mask id="mask0_0_1" style="mask-type:luminance" maskUnits="userSpaceOnUse" x="0" y="0" width="900" height="450">
<path d="M0 -3.37219e-06H900V450H0V-3.37219e-06Z" fill="white"/>
</mask>
<g mask="url(#mask0_0_1)">
<path d="M0 -3.37219e-06H900V450H0V-3.37219e-06Z" fill="white"/>
<path d="M0 -3.37219e-06H900V450H0V-3.37219e-06Z" fill="white"/>
<path d="M0 -3.37219e-06H900V450H0V-3.37219e-06Z" fill="#0021AD"/>
<path d="M0 -3.37219e-06H900V450L0 -3.37219e-06Z" fill="#1C8A42"/>
</g>
<path d="M531.167 224.667C531.167 227.323 531.036 229.979 530.776 232.625C530.516 235.271 530.125 237.896 529.609 240.5C529.089 243.109 528.443 245.688 527.672 248.229C526.901 250.771 526.005 253.271 524.99 255.729C523.974 258.182 522.839 260.583 521.583 262.927C520.328 265.276 518.964 267.552 517.49 269.76C516.01 271.974 514.432 274.104 512.745 276.161C511.057 278.214 509.276 280.182 507.396 282.063C505.516 283.943 503.547 285.724 501.495 287.411C499.438 289.099 497.307 290.677 495.094 292.156C492.885 293.63 490.604 295 488.26 296.25C485.917 297.505 483.516 298.641 481.063 299.656C478.604 300.672 476.104 301.568 473.563 302.339C471.016 303.109 468.443 303.755 465.833 304.276C463.229 304.792 460.599 305.182 457.958 305.443C455.313 305.703 452.656 305.833 450 305.833C447.344 305.833 444.688 305.703 442.042 305.443C439.401 305.182 436.771 304.792 434.167 304.276C431.557 303.755 428.984 303.109 426.438 302.339C423.896 301.568 421.396 300.672 418.938 299.656C416.484 298.641 414.083 297.505 411.74 296.25C409.396 295 407.115 293.63 404.906 292.156C402.693 290.677 400.563 289.099 398.505 287.411C396.453 285.724 394.484 283.943 392.604 282.063C390.724 280.182 388.943 278.214 387.255 276.161C385.568 274.104 383.99 271.974 382.51 269.76C381.036 267.552 379.672 265.276 378.417 262.927C377.161 260.583 376.026 258.182 375.01 255.729C373.995 253.271 373.099 250.771 372.328 248.229C371.557 245.688 370.911 243.109 370.391 240.5C369.875 237.896 369.484 235.271 369.224 232.625C368.964 229.979 368.833 227.323 368.833 224.667C368.833 222.01 368.964 219.359 369.224 216.714C369.484 214.068 369.875 211.438 370.391 208.833C370.911 206.224 371.557 203.651 372.328 201.104C373.099 198.563 373.995 196.063 375.01 193.604C376.026 191.151 377.161 188.75 378.417 186.406C379.672 184.063 381.036 181.781 382.51 179.573C383.99 177.365 385.568 175.229 387.255 173.177C388.943 171.12 390.724 169.151 392.604 167.271C394.484 165.391 396.453 163.609 398.505 161.922C400.563 160.24 402.693 158.656 404.906 157.177C407.115 155.703 409.396 154.339 411.74 153.083C414.083 151.828 416.484 150.693 418.938 149.677C421.396 148.661 423.896 147.766 426.438 146.995C428.984 146.224 431.557 145.578 434.167 145.057C436.771 144.542 439.401 144.151 442.042 143.891C444.688 143.63 447.344 143.5 450 143.5C452.656 143.5 455.313 143.63 457.958 143.891C460.599 144.151 463.229 144.542 465.833 145.057C468.443 145.578 471.016 146.224 473.563 146.995C476.104 147.766 478.604 148.661 481.063 149.677C483.516 150.693 485.917 151.828 488.26 153.083C490.604 154.339 492.885 155.703 495.094 157.177C497.307 158.656 499.438 160.24 501.495 161.922C503.547 163.609 505.516 165.391 507.396 167.271C509.276 169.151 511.057 171.12 512.745 173.177C514.432 175.229 516.01 177.365 517.49 179.573C518.964 181.781 520.328 184.063 521.583 186.406C522.839 188.75 523.974 191.151 524.99 193.604C526.005 196.063 526.901 198.563 527.672 201.104C528.443 203.651 529.089 206.224 529.609 208.833C530.125 211.438 530.516 214.068 530.776 216.714C531.036 219.359 531.167 222.01 531.167 224.667Z" fill="#FFC639"/>
<path d="M400.427 188.208C405.984 195.828 414.396 208.599 421.161 205.266C426.443 205.281 429.172 205.651 429.885 209.167C442.339 211.286 463.276 206.036 476.302 189.068C476.302 189.068 477.396 189.214 477.016 182.766C477.089 179.958 480.854 180.516 480.948 181.432C481.474 182.828 481.38 183.87 482.089 183.906C483.693 183.37 485.885 179.776 487.724 177.495C488.219 176.484 487.948 175.427 488.068 174.161C489.036 171.776 491.453 172.292 491.964 173.542C492.422 174.349 492.432 174.964 492.885 175.771C495.339 177.411 499.771 175.88 500.115 175.88C500.547 173.88 501.833 174.068 501.833 174.068C503.474 173.708 502.828 173.849 503.906 174.411C502.958 185.203 506.026 185.682 505.776 191.214C505.885 197.391 503.906 199.151 503.906 201.505C504.531 204.385 513.646 204.484 510.438 206.922C507.62 208.427 510.448 211.24 506.208 212.339C493.87 218.599 491.51 223.969 491.51 223.969C491.51 223.969 488.411 229.818 488.068 229.818C486 233.724 483.385 231.594 481.927 233.5C481.198 235.891 480.385 241.187 481.833 243.943C482.557 247.729 481.745 249.792 480.839 253.578C480.021 261.479 476.891 262.672 476.526 265.448C475.078 268.406 476.833 282.323 475.458 282.323C466.271 282.5 459.234 280.562 455.604 279.839C459.146 264.578 457.766 251.172 457.766 249.792C456.859 238.88 441.417 241.531 439.052 240.083C437.099 239.667 435.865 238.073 435.177 237.385C432.995 237.151 432.177 236.651 429.995 236.422C428.906 236.969 429.563 237.531 427.13 238.281C420.974 239.026 418.255 232.911 418.255 232.911C418.552 230.854 404.406 233.328 396.714 231.542C393.563 233.297 392.188 238.5 389.604 239.115C389.531 240.724 385.359 237.792 384.516 236.208C384.344 231.594 388.536 229.557 388.536 229.557C391.87 227.214 393.844 226.833 395.448 225.208C396.255 221.198 395.844 218.224 397.557 215.208C399.005 212.911 401.146 213.99 402.594 212.953C404.151 211.922 404.813 205.167 403.375 203.318C403.375 203.318 397.141 197.693 396.797 197.349C394.766 191.531 399.172 187.781 400.427 188.208Z" fill="#1C8A42"/>
<path d="M789.635 87.6719C785.958 73.1146 753.042 41.776 728.302 21.8281C722.396 17.8073 718.547 20.2031 719.318 25.9375C722.396 31.0729 724.708 36.724 727.786 41.8594C728.646 45.2813 730.266 47.6823 731.13 51.1042C731.13 51.1042 731.38 57.0104 731.896 57.5208C739.599 66 740.63 73.1875 740.63 73.1875C745.078 81.75 749.016 87.9948 756.807 95.0156C765.542 100.495 759.12 117.526 759.37 126.604C759.37 132.339 755.271 131.656 751.672 130.969C723.339 104.943 695.26 104.865 670.521 97.3281C660.849 96.3021 660.677 100.922 663.844 103.484C681.141 121.984 697.396 134.563 718.802 145.089C722.396 147.318 725.995 149.547 729.589 151.776C733.693 155.198 737.802 158.62 741.906 162.047C751.411 168.203 752.188 173.859 752.188 174.365C752.443 185.922 746.276 194.906 744.479 198.505C741.24 210.76 734.724 212.891 734.724 212.891C681.818 248.589 654.083 257.823 568.307 246.781C567.026 246.104 558.807 247.474 568.307 250.896C590.141 258.167 643.76 269.839 695.641 245.271C708.099 236.536 716.432 239.401 725.453 234.177C740.271 225.036 761.432 213.656 765.281 212.38C776.839 206.214 809.193 199.281 816.646 193.115C825.198 192.427 834.078 191.302 834.672 183.948C837.479 182.125 841.594 183.458 844.646 177.464C851.432 176.286 850.286 173.859 850.286 173.859C848.578 169.068 842.234 167.094 837.708 163.583C831.021 161.359 826.401 160.667 821.521 163.068C819.979 163.76 818.443 164.438 816.901 165.125C816.901 165.125 809.708 164.094 809.708 163.583C793.729 162.708 795.286 109.755 789.635 87.6667V87.6719Z" fill="#FFC639"/>
<path d="M827.109 174.349C826.995 174.661 826.797 174.927 826.5 175.151C826.208 175.375 825.844 175.542 825.411 175.651C824.979 175.76 824.51 175.797 824.005 175.771C823.5 175.745 823 175.651 822.5 175.495C822 175.339 821.536 175.13 821.12 174.865C820.698 174.604 820.354 174.307 820.078 173.974C819.802 173.646 819.62 173.307 819.531 172.964C819.443 172.62 819.453 172.292 819.563 171.979C819.672 171.672 819.875 171.406 820.172 171.177C820.464 170.953 820.828 170.786 821.26 170.682C821.693 170.573 822.161 170.531 822.667 170.557C823.172 170.589 823.672 170.677 824.172 170.833C824.672 170.995 825.13 171.203 825.552 171.469C825.974 171.729 826.318 172.026 826.594 172.354C826.87 172.688 827.052 173.021 827.141 173.37C827.229 173.714 827.219 174.042 827.109 174.349Z" fill="#1C8A42"/>
<path d="M169.76 171.594L158.302 160.865L146.703 171.443L147.948 155.802L132.448 153.328L145.453 144.542L137.719 130.885L152.698 135.578L158.557 121.016L164.229 135.651L179.266 131.151L171.354 144.708L184.25 153.661L168.719 155.932L169.76 171.594Z" fill="white"/>
<path d="M210.406 301.531L198.047 293.292L186.016 301.979L190.25 287.984L178.042 279.526L193.021 279.125L197.505 265.198L202.531 278.948L217.51 278.807L205.635 287.708L210.406 301.531Z" fill="white"/>
<path d="M172.026 413.391L160.568 402.661L148.969 413.24L150.214 397.599L134.714 395.125L147.719 386.339L139.984 372.682L154.964 377.375L160.823 362.812L166.495 377.448L181.531 372.948L173.625 386.505L186.516 395.453L170.984 397.729L172.026 413.391Z" fill="white"/>
<path d="M69.0469 282.328L57.5885 271.604L45.9948 282.177L47.2344 266.536L31.7344 264.063L44.7448 255.281L37.0104 241.625L51.9896 246.313L57.8437 231.75L63.5156 246.391L78.5573 241.891L70.6458 255.448L83.5417 264.396L68.0104 266.672L69.0521 282.328H69.0469Z" fill="white"/>
<path d="M267.198 248.005L255.74 237.276L244.146 247.854L245.385 232.214L229.885 229.74L242.896 220.953L235.161 207.297L250.141 211.99L255.995 197.427L261.667 212.062L276.703 207.562L268.797 221.12L281.693 230.068L266.161 232.344L267.198 248.005Z" fill="white"/>
</g>
<defs>
<clipPath id="clip0_0_1">
<rect width="900" height="450" fill="white"/>
</clipPath>
</defs>
</svg>
