<svg width="900" height="450" viewBox="0 0 900 450" fill="none" xmlns="http://www.w3.org/2000/svg">
<rect width="900" height="450" fill="#1E1E1E"/>
<g clip-path="url(#clip0_0_1)">
<mask id="mask0_0_1" style="mask-type:luminance" maskUnits="userSpaceOnUse" x="0" y="0" width="900" height="450">
<path d="M0 -3.37219e-06H900V450H0V-3.37219e-06Z" fill="white"/>
</mask>
<g mask="url(#mask0_0_1)">
<path d="M0 -3.37219e-06H900V450H0V-3.37219e-06Z" fill="white"/>
<path d="M0 -3.37219e-06H900V450H0V-3.37219e-06Z" fill="white"/>
</g>
<path d="M318.047 186.615C317.292 187.594 317.615 189.187 319.12 192.641C321.885 198.969 323.63 200.052 323.141 202.427C322.719 204.469 321.187 204.797 321.401 206.578C321.646 208.708 323.922 209.094 323.948 211C323.969 212.922 321.677 213.75 322.068 215.286C322.25 216 322.786 216.005 323.948 217.031C326.208 219.036 325.677 220.359 327.427 221.589C329.318 222.917 330.677 221.896 331.448 223.063C332.339 224.406 330.594 225.859 331.312 228.557C331.604 229.646 331.891 229.427 332.786 231.37C334.036 234.078 333.63 234.833 334.531 236.063C335.599 237.521 336.635 237.104 339.083 238.474C342.542 240.406 342.026 242.104 344.979 243.698C347.437 245.026 348.302 244.125 351.948 245.172C355.307 246.141 356.604 247.49 359.182 248.927C359.182 248.927 364.885 252.099 372.312 252.276C381.807 252.505 384.109 246.672 390 248.792C393.104 249.911 396.87 253.115 397.5 256.969C397.974 259.844 396.557 262.26 398.036 263.667C398.776 264.375 399.63 264.234 401.786 264.339C407.771 264.62 409.771 266.099 410.495 265.141C411.557 263.745 407.026 260.891 406.88 256.432C406.708 251.349 412.286 245.615 418.271 243.833C425.354 241.719 428.297 246.552 437.427 244.104C439.365 243.583 439.792 243.214 445.198 241.557C449.052 240.375 450.656 240 453.104 238.745C456.271 237.109 455.594 236.693 457.792 235.792C462.427 233.896 466.5 235.313 467.573 233.182C467.938 232.458 467.615 232 468.177 231.37C469.161 230.276 470.719 231.052 471.859 229.964C472.651 229.208 472.219 228.536 472.865 227.818C474.167 226.385 476.646 228.281 478.828 227.484C480.979 226.703 481.219 223.891 483.984 214.552C485.74 208.641 486.161 208.016 486.661 207.453C489.755 204.01 495.74 203.12 500.464 204.37C506.089 205.854 507.271 209.672 511.047 209.057C514 208.578 513.786 206.161 517.75 204.234C522.443 201.948 527.599 202.979 530.542 203.563C535.109 204.474 539.13 206.458 539.318 206.042C539.448 205.766 537.563 205.099 537.042 203.297C536.703 202.109 537.224 201.385 537.24 200.411C537.292 198.047 534.292 196.349 532.286 194.917C525.859 190.328 528.156 187.354 521.635 182.594C518.307 180.161 515.667 179.448 515.406 177.099C515.219 175.432 516.438 174.896 516.542 172.339C516.651 169.714 515.422 169.047 515.271 166.578C515.115 164.083 516.208 162.198 517.479 160.01C518.958 157.469 520.927 154.068 524.448 153.042C528.141 151.964 530.401 154.411 532.891 152.635C533.688 152.073 533.406 151.854 535.297 148.953C536.063 147.792 537.182 146.328 539.385 143.458C541.542 140.651 542.62 139.25 542.87 139.036C545.203 137.031 546.307 137.604 549.839 135.255C552.089 133.75 551.698 133.479 553.651 132.234C557.229 129.964 558.531 130.87 561.193 129.219C565.005 126.859 563.734 124.146 567.526 121.682C570.797 119.552 572.354 121.182 575.057 119.172C578.828 116.359 576.651 112.542 579.979 109.521C584.146 105.745 590.38 109.135 593.047 105.099C593.099 105.021 593.682 103.604 594.854 100.776C596.281 97.3281 596.547 96.625 596.26 96.3542C595.734 95.8542 593.589 99.5469 590.432 99.4687C589.521 99.4479 589.078 99.1302 588.224 99.4167C586.813 99.8906 586.875 101.135 585.708 102.031C583.745 103.552 581.734 101.411 578.875 102.74C577.005 103.604 577.406 104.74 575.365 105.651C572.932 106.734 571.901 105.354 570.234 106.406C568.13 107.74 568.974 110.479 566.667 111.583C565.703 112.042 565.229 111.724 564.156 112.432C563.036 113.177 563.026 113.875 561.995 114.547C561.016 115.182 560.297 115.021 559.083 115.25C556.958 115.651 556.464 116.661 554.563 117.615C550.682 119.547 548.875 117.271 546.37 119.115C544.344 120.615 545.297 122.271 543.005 124.245C541.094 125.891 539.911 125.187 536.875 126.604C533.755 128.068 533.536 129.495 530.24 131.932C528.094 133.526 526.13 134.333 522.203 135.953C515.536 138.703 512.208 140.078 508.635 140.078C502.979 140.073 500.583 137.562 497.182 139.474C495.104 140.641 495.734 141.729 493.266 143.089C490.219 144.766 488.042 143.781 485.125 145.906C483.943 146.766 484.094 147.078 483.016 148.016C480.021 150.615 476.375 150.375 471.26 150.729C464.198 151.219 465.682 152.052 459.703 152.339C457.484 152.443 451.911 152.672 445.13 151.333C438.37 149.995 434.984 149.323 433.88 148.917C433.339 148.724 431.891 148.167 429.958 148.219C428.281 148.26 428.047 148.708 426.844 148.719C423.969 148.75 423.438 146.208 420.948 146.005C418.167 145.781 417.651 148.859 414.688 148.719C412.62 148.62 412.24 147.099 408.885 146.375C407.214 146.01 406.922 146.307 405.391 146.104C400.172 145.417 397.443 141.172 396.495 141.885C395.984 142.271 396.583 143.651 397.401 146.458C398.214 149.271 398.943 151.786 399.109 153.896C399.609 160.396 394.714 163.016 396.547 167.365C397.089 168.651 398.021 169.625 397.651 170.932C397.359 171.964 396.573 172.083 394.583 173.646C391.901 175.76 391.885 176.693 389.812 177.714C388.292 178.469 386.953 178.635 386.646 178.672C384.25 178.938 382.505 178.047 379.464 176.557C372.547 173.177 371.042 172.604 369.432 172.135C366.745 171.354 364.911 171.187 363.068 171.667C362.354 171.859 361.542 172.24 359.917 173.01C356.245 174.75 355.932 175.406 354.495 175.422C352.557 175.443 351.391 174.281 350.875 174.818C350.437 175.276 351.234 176.177 351.276 177.495C351.344 179.49 349.635 180.469 347.391 183.125C344.391 186.677 345.38 187.37 342.839 189.76C342.016 190.536 340.141 192.255 337.141 193.109C336.714 193.234 334.677 193.786 331.984 193.51C330.812 193.391 327.604 193.063 324.88 190.833C322.036 188.505 321.698 185.724 319.792 185.74C319.104 185.745 318.432 186.115 318.047 186.615Z" fill="#EC8123"/>
<path d="M370.068 294.964C369.146 295.016 362.656 295.313 357.911 290.234C354.328 286.406 353.682 280.375 353.62 279.078C353.62 279.078 366.083 282.495 368.161 286.25C370.234 290 370.068 294.964 370.068 294.964Z" fill="#006850"/>
<path d="M378.542 305.052C377.844 305.651 372.833 309.792 365.99 308.604C360.823 307.703 356.682 303.276 355.854 302.276C355.854 302.276 367.859 297.5 371.776 299.245C375.687 300.99 378.542 305.052 378.542 305.052Z" fill="#006850"/>
<path d="M381.125 301.276C381.635 300.505 385.146 295.036 383.135 288.385C381.62 283.365 376.729 279.786 375.641 279.078C375.641 279.078 372.344 291.578 374.547 295.255C376.755 298.932 381.125 301.276 381.125 301.276Z" fill="#006850"/>
<path d="M393.75 314.339C393.13 315.12 388.687 320.578 381.172 320.755C375.5 320.891 370.167 317.063 369.073 316.177C369.073 316.177 380.812 308.573 385.339 309.599C389.87 310.63 393.75 314.339 393.75 314.339Z" fill="#006850"/>
<path d="M395.188 311.823C395.74 310.99 399.531 305.068 397.359 297.87C395.714 292.432 390.417 288.557 389.234 287.802C389.234 287.802 385.677 301.328 388.063 305.307C390.453 309.292 395.188 311.823 395.188 311.823Z" fill="#006850"/>
<path d="M409.729 317.922C410.25 317.135 413.854 311.521 411.703 304.641C410.073 299.448 404.938 295.719 403.797 294.984C403.797 294.984 400.49 307.849 402.818 311.661C405.151 315.469 409.729 317.922 409.729 317.922Z" fill="#006850"/>
<path d="M425.635 322.146C426.078 321.307 429.104 315.365 426.276 308.734C424.146 303.734 418.667 300.526 417.458 299.906C417.458 299.906 415.443 313.036 418.141 316.599C420.833 320.161 425.635 322.146 425.635 322.146Z" fill="#006850"/>
<path d="M442.964 327.724C443.448 326.813 446.745 320.339 443.672 313.115C441.349 307.667 435.385 304.177 434.068 303.505C434.068 303.505 431.87 317.802 434.807 321.682C437.74 325.563 442.964 327.724 442.964 327.724Z" fill="#006850"/>
<path d="M409.161 322.156C408.599 323.063 404.573 329.354 397.156 330.833C391.557 331.943 386.026 328.984 384.891 328.281C384.891 328.281 395.984 318.547 400.526 318.807C405.073 319.063 409.161 322.156 409.161 322.156Z" fill="#006850"/>
<path d="M425.641 325.615C425.354 326.724 423.219 334.516 416.193 338.49C410.885 341.484 404.406 340.271 403.042 339.917C403.042 339.917 411.25 326.26 415.911 325.026C420.573 323.792 425.641 325.615 425.641 325.615Z" fill="#006850"/>
<path d="M441.589 331.505C441.297 332.62 439.167 340.417 432.135 344.38C426.828 347.38 420.349 346.167 418.984 345.818C418.984 345.818 427.193 332.156 431.854 330.922C436.516 329.682 441.589 331.505 441.589 331.505Z" fill="#006850"/>
<path d="M468.354 352.802C467.531 353.229 466.521 352.922 466.068 352.12C463.13 346.88 459.292 342.391 454.646 338.74C451.672 336.406 448.38 334.448 444.87 332.927L446.594 328.953C450.443 330.625 454.047 332.771 457.318 335.333C462.422 339.344 466.635 344.281 469.854 350.021C470.333 350.87 470.01 351.948 469.146 352.396L468.354 352.802Z" fill="#006850"/>
<path d="M543.547 294.964C544.469 295.016 550.958 295.313 555.703 290.234C559.286 286.406 559.927 280.375 559.995 279.078C559.995 279.078 547.531 282.495 545.453 286.25C543.38 290 543.547 294.964 543.547 294.964Z" fill="#006850"/>
<path d="M535.073 305.052C535.771 305.651 540.776 309.792 547.625 308.604C552.786 307.703 556.932 303.276 557.76 302.276C557.76 302.276 545.755 297.5 541.839 299.245C537.922 300.99 535.073 305.052 535.073 305.052Z" fill="#006850"/>
<path d="M532.49 301.276C531.979 300.505 528.469 295.036 530.479 288.385C531.99 283.365 536.88 279.786 537.974 279.078C537.974 279.078 541.271 291.578 539.062 295.255C536.859 298.932 532.49 301.276 532.49 301.276Z" fill="#006850"/>
<path d="M519.865 314.339C520.484 315.12 524.922 320.578 532.443 320.755C538.115 320.891 543.448 317.063 544.542 316.177C544.542 316.177 532.802 308.573 528.276 309.599C523.745 310.63 519.865 314.339 519.865 314.339Z" fill="#006850"/>
<path d="M518.427 311.823C517.875 310.99 514.078 305.068 516.255 297.87C517.896 292.432 523.198 288.557 524.38 287.802C524.38 287.802 527.938 301.328 525.552 305.307C523.161 309.292 518.427 311.823 518.427 311.823Z" fill="#006850"/>
<path d="M503.885 317.922C503.365 317.135 499.76 311.521 501.911 304.641C503.542 299.448 508.672 295.719 509.812 294.984C509.812 294.984 513.125 307.849 510.797 311.661C508.464 315.469 503.885 317.922 503.885 317.922Z" fill="#006850"/>
<path d="M487.979 322.146C487.536 321.307 484.505 315.365 487.333 308.734C489.469 303.734 494.943 300.526 496.156 299.906C496.156 299.906 498.172 313.036 495.474 316.599C492.776 320.161 487.979 322.146 487.979 322.146Z" fill="#006850"/>
<path d="M470.646 327.724C470.167 326.813 466.865 320.339 469.943 313.115C472.266 307.667 478.229 304.177 479.542 303.505C479.542 303.505 481.745 317.802 478.807 321.682C475.87 325.563 470.646 327.724 470.646 327.724Z" fill="#006850"/>
<path d="M504.453 322.156C505.01 323.063 509.042 329.354 516.458 330.833C522.057 331.943 527.583 328.984 528.724 328.281C528.724 328.281 517.63 318.547 513.083 318.807C508.542 319.063 504.453 322.156 504.453 322.156Z" fill="#006850"/>
<path d="M487.969 325.615C488.26 326.724 490.391 334.516 497.422 338.49C502.729 341.484 509.208 340.271 510.573 339.917C510.573 339.917 502.365 326.26 497.703 325.026C493.042 323.792 487.969 325.615 487.969 325.615Z" fill="#006850"/>
<path d="M472.026 331.505C472.312 332.62 474.448 340.417 481.479 344.38C486.781 347.38 493.266 346.167 494.63 345.818C494.63 345.818 486.417 332.156 481.76 330.922C477.099 329.682 472.026 331.505 472.026 331.505Z" fill="#006850"/>
<path d="M455.672 341.599C452.484 344.646 449.76 348.172 447.547 352.12C447.089 352.922 446.083 353.234 445.26 352.802L444.469 352.396C443.604 351.948 443.276 350.875 443.755 350.026C446.078 345.88 448.911 342.161 452.234 338.906C452.833 339.245 453.469 339.672 454.125 340.193C454.714 340.661 455.229 341.135 455.672 341.599Z" fill="#006850"/>
<path d="M468.74 332.927C466.208 334.026 463.792 335.349 461.521 336.885C461.042 336.448 460.552 336.005 460.052 335.563C459.427 335.005 458.802 334.464 458.182 333.932C460.937 331.974 463.901 330.307 467.016 328.953L468.74 332.927Z" fill="#006850"/>
</g>
<defs>
<clipPath id="clip0_0_1">
<rect width="900" height="450" fill="white"/>
</clipPath>
</defs>
</svg>
