<svg width="900" height="450" viewBox="0 0 900 450" fill="none" xmlns="http://www.w3.org/2000/svg">
<g clip-path="url(#clip0_763_8311)">
<path d="M900 0H0V450H900V0Z" fill="#1E1E1E"/>
<mask id="mask0_763_8311" style="mask-type:luminance" maskUnits="userSpaceOnUse" x="0" y="0" width="900" height="450">
<path d="M900 0H0V450H900V0Z" fill="white"/>
</mask>
<g mask="url(#mask0_763_8311)">
<mask id="mask1_763_8311" style="mask-type:luminance" maskUnits="userSpaceOnUse" x="0" y="0" width="900" height="450">
<path d="M0 0H900V450H0V0Z" fill="white"/>
</mask>
<g mask="url(#mask1_763_8311)">
<path d="M0 0H900V450H0V0Z" fill="white"/>
<path d="M0 0H900V450H0V0Z" fill="white"/>
<path d="M0 0H900V450H0V0Z" fill="#1E1E1E"/>
<path d="M900 0H0V450H900V0Z" fill="#D7141A"/>
</g>
<path d="M900 0H0V225H900V0Z" fill="white"/>
<mask id="mask2_763_8311" style="mask-type:luminance" maskUnits="userSpaceOnUse" x="0" y="0" width="330" height="450">
<path d="M0 0H330V450H0V0Z" fill="white"/>
</mask>
<g mask="url(#mask2_763_8311)">
<path d="M329.512 225L0 0V450L329.512 225Z" fill="#11457E"/>
</g>
</g>
</g>
<defs>
<clipPath id="clip0_763_8311">
<rect width="900" height="450" fill="white"/>
</clipPath>
</defs>
</svg>
