<svg width="900" height="450" viewBox="0 0 900 450" fill="none" xmlns="http://www.w3.org/2000/svg">
<rect width="900" height="450" fill="#1E1E1E"/>
<g clip-path="url(#clip0_0_1)">
<rect width="900" height="450" fill="white"/>
<mask id="mask0_0_1" style="mask-type:luminance" maskUnits="userSpaceOnUse" x="0" y="0" width="900" height="450">
<path d="M0 -3.37219e-06H900V450H0V-3.37219e-06Z" fill="white"/>
</mask>
<g mask="url(#mask0_0_1)">
<path d="M0 -3.37219e-06H900V450H0V-3.37219e-06Z" fill="white"/>
<path d="M0 -3.37219e-06H900V450H0V-3.37219e-06Z" fill="white"/>
<path d="M0 -3.37219e-06H900V450H0V-3.37219e-06Z" fill="#1E1E1E"/>
<path d="M0 -3.37219e-06H900V450H0V-3.37219e-06Z" fill="black"/>
</g>
<mask id="mask1_0_1" style="mask-type:luminance" maskUnits="userSpaceOnUse" x="0" y="150" width="900" height="300">
<path d="M0 150H900V450H0V150Z" fill="white"/>
</mask>
<g mask="url(#mask1_0_1)">
<path d="M0 150.443H900V450H0V150.443Z" fill="#DD0000"/>
</g>
<mask id="mask2_0_1" style="mask-type:luminance" maskUnits="userSpaceOnUse" x="0" y="300" width="900" height="150">
<path d="M0 300H900V450H0V300Z" fill="white"/>
</mask>
<g mask="url(#mask2_0_1)">
<path d="M0 300.887H900V450H0V300.887Z" fill="#FFCE00"/>
</g>
</g>
<defs>
<clipPath id="clip0_0_1">
<rect width="900" height="450" fill="white"/>
</clipPath>
</defs>
</svg>
