<svg width="900" height="450" viewBox="0 0 900 450" fill="none" xmlns="http://www.w3.org/2000/svg">
<g clip-path="url(#clip0_763_8405)">
<path d="M900 0H0V450H900V0Z" fill="#1E1E1E"/>
<mask id="mask0_763_8405" style="mask-type:luminance" maskUnits="userSpaceOnUse" x="0" y="0" width="900" height="450">
<path d="M900 0H0V450H900V0Z" fill="white"/>
</mask>
<g mask="url(#mask0_763_8405)">
<path d="M900 0H0V450H900V0Z" fill="white"/>
<mask id="mask1_763_8405" style="mask-type:luminance" maskUnits="userSpaceOnUse" x="0" y="0" width="900" height="450">
<path d="M0 0H900V450H0V0Z" fill="white"/>
</mask>
<g mask="url(#mask1_763_8405)">
<path d="M0 0H900V450H0V0Z" fill="white"/>
<path d="M0 0H900V450H0V0Z" fill="white"/>
<path d="M0 0H900V450H0V0Z" fill="#1E1E1E"/>
<path d="M0 0H900V450H0V0Z" fill="#6AB2E7"/>
</g>
<path d="M900 225H0V450H900V225Z" fill="#12AD2B"/>
<mask id="mask2_763_8405" style="mask-type:luminance" maskUnits="userSpaceOnUse" x="0" y="0" width="390" height="450">
<path d="M0 0H390V450H0V0Z" fill="white"/>
</mask>
<g mask="url(#mask2_763_8405)">
<path d="M0 0V450L194.937 337.5L389.88 225L194.937 112.5L0 0Z" fill="white"/>
</g>
<path d="M149.354 168.5L163.26 211.411H208.401L171.922 237.922L185.833 280.833L149.401 254.323L112.969 280.833L126.875 237.922L90.401 211.411H135.448L149.354 168.5Z" fill="#D7141A"/>
</g>
</g>
<defs>
<clipPath id="clip0_763_8405">
<rect width="900" height="450" fill="white"/>
</clipPath>
</defs>
</svg>
