<svg width="900" height="450" viewBox="0 0 900 450" fill="none" xmlns="http://www.w3.org/2000/svg">
<g clip-path="url(#clip0_763_8447)">
<path d="M900 0H0V450H900V0Z" fill="#1E1E1E"/>
<mask id="mask0_763_8447" style="mask-type:luminance" maskUnits="userSpaceOnUse" x="0" y="0" width="900" height="450">
<path d="M900 0H0V450H900V0Z" fill="white"/>
</mask>
<g mask="url(#mask0_763_8447)">
<path d="M900 0H0V450H900V0Z" fill="white"/>
<mask id="mask1_763_8447" style="mask-type:luminance" maskUnits="userSpaceOnUse" x="0" y="0" width="900" height="450">
<path d="M0 0H900V450H0V0Z" fill="white"/>
</mask>
<g mask="url(#mask1_763_8447)">
<path d="M0 0H900V450H0V0Z" fill="#CF1F34"/>
<path d="M0 0H900V450H0V0Z" fill="#CF1F34"/>
</g>
<path d="M230 0H311V450H230V0Z" fill="white"/>
<mask id="mask2_763_8447" style="mask-type:luminance" maskUnits="userSpaceOnUse" x="0" y="184" width="900" height="83">
<path d="M0 184H900V266.667H0V184Z" fill="white"/>
</mask>
<g mask="url(#mask2_763_8447)">
<path d="M0.123229 184.755H899.871V266.484H0.123229V184.755Z" fill="white"/>
</g>
</g>
</g>
<defs>
<clipPath id="clip0_763_8447">
<rect width="900" height="450" fill="white"/>
</clipPath>
</defs>
</svg>
