<svg width="900" height="450" viewBox="0 0 900 450" fill="none" xmlns="http://www.w3.org/2000/svg">
<rect width="900" height="450" fill="#1E1E1E"/>
<g clip-path="url(#clip0_0_1)">
<mask id="mask0_0_1" style="mask-type:luminance" maskUnits="userSpaceOnUse" x="0" y="0" width="900" height="450">
<path d="M0 -3.37219e-06H900V450H0V-3.37219e-06Z" fill="white"/>
</mask>
<g mask="url(#mask0_0_1)">
<path d="M0 -3.37219e-06H900V450H0V-3.37219e-06Z" fill="white"/>
<path d="M0 -3.37219e-06H900V450H0V-3.37219e-06Z" fill="white"/>
<path d="M0 -3.37219e-06H900V450H0V-3.37219e-06Z" fill="#006B3F"/>
</g>
<mask id="mask1_0_1" style="mask-type:luminance" maskUnits="userSpaceOnUse" x="0" y="168" width="900" height="76">
<path d="M0 168H900V244H0V168Z" fill="white"/>
</mask>
<g mask="url(#mask1_0_1)">
<path d="M0 168.5H900V243.391H0V168.5Z" fill="#FCD116"/>
</g>
<mask id="mask2_0_1" style="mask-type:luminance" maskUnits="userSpaceOnUse" x="0" y="205" width="900" height="77">
<path d="M0 205.333H900V281.333H0V205.333Z" fill="white"/>
</mask>
<g mask="url(#mask2_0_1)">
<path d="M0 205.943H900V280.833H0V205.943Z" fill="white"/>
</g>
<mask id="mask3_0_1" style="mask-type:luminance" maskUnits="userSpaceOnUse" x="0" y="205" width="900" height="39">
<path d="M0 205.333H900V244H0V205.333Z" fill="white"/>
</mask>
<g mask="url(#mask3_0_1)">
<path d="M0 205.943H900V243.391H0V205.943Z" fill="black"/>
</g>
<path d="M394 0H469V450H394V0Z" fill="#FCD116"/>
<path d="M431 0H506V450H431V0Z" fill="white"/>
<path d="M431 0H469V450H431V0Z" fill="black"/>
<path d="M562.333 224.667C562.333 226.505 562.286 228.344 562.198 230.177C562.109 232.016 561.974 233.849 561.792 235.677C561.615 237.505 561.385 239.333 561.12 241.151C560.849 242.969 560.531 244.781 560.177 246.583C559.818 248.385 559.411 250.177 558.969 251.964C558.521 253.745 558.031 255.516 557.495 257.276C556.964 259.036 556.385 260.781 555.766 262.51C555.146 264.24 554.484 265.958 553.781 267.656C553.078 269.354 552.333 271.036 551.547 272.698C550.76 274.359 549.937 276 549.068 277.62C548.203 279.24 547.297 280.844 546.354 282.417C545.406 283.995 544.422 285.547 543.401 287.078C542.38 288.604 541.323 290.109 540.229 291.583C539.13 293.063 538 294.51 536.833 295.932C535.667 297.354 534.469 298.745 533.234 300.104C532 301.469 530.729 302.797 529.432 304.099C528.13 305.401 526.802 306.667 525.437 307.901C524.078 309.135 522.682 310.333 521.266 311.5C519.844 312.667 518.396 313.797 516.917 314.896C515.443 315.99 513.937 317.047 512.411 318.068C510.88 319.089 509.328 320.073 507.75 321.021C506.172 321.964 504.573 322.87 502.953 323.734C501.333 324.604 499.693 325.427 498.031 326.214C496.365 327 494.687 327.745 492.99 328.448C491.292 329.151 489.573 329.813 487.844 330.432C486.115 331.052 484.37 331.63 482.609 332.161C480.849 332.698 479.078 333.188 477.297 333.635C475.51 334.083 473.719 334.484 471.917 334.844C470.115 335.203 468.302 335.516 466.484 335.786C464.667 336.052 462.839 336.281 461.01 336.458C459.182 336.641 457.349 336.776 455.51 336.865C453.677 336.953 451.839 337 450 337C448.161 337 446.323 336.953 444.49 336.865C442.651 336.776 440.818 336.641 438.99 336.458C437.161 336.281 435.333 336.052 433.516 335.786C431.698 335.516 429.885 335.203 428.083 334.844C426.281 334.484 424.49 334.083 422.703 333.635C420.922 333.188 419.151 332.698 417.391 332.161C415.63 331.63 413.885 331.052 412.156 330.432C410.427 329.813 408.708 329.151 407.01 328.448C405.312 327.745 403.635 327 401.969 326.214C400.307 325.427 398.667 324.604 397.047 323.734C395.427 322.87 393.828 321.964 392.25 321.021C390.672 320.073 389.12 319.089 387.589 318.068C386.062 317.047 384.557 315.99 383.083 314.896C381.604 313.797 380.156 312.667 378.734 311.5C377.318 310.333 375.922 309.135 374.562 307.901C373.198 306.667 371.87 305.401 370.568 304.099C369.266 302.797 368 301.469 366.766 300.104C365.531 298.745 364.333 297.354 363.167 295.932C362 294.51 360.87 293.063 359.771 291.583C358.677 290.109 357.62 288.604 356.599 287.078C355.578 285.547 354.594 283.995 353.646 282.417C352.703 280.844 351.797 279.24 350.932 277.62C350.062 276 349.24 274.359 348.453 272.698C347.667 271.036 346.922 269.354 346.219 267.656C345.516 265.958 344.854 264.24 344.234 262.51C343.615 260.781 343.036 259.036 342.505 257.276C341.969 255.516 341.479 253.745 341.031 251.964C340.589 250.177 340.182 248.385 339.823 246.583C339.469 244.781 339.151 242.969 338.88 241.151C338.615 239.333 338.385 237.505 338.208 235.677C338.026 233.849 337.891 232.016 337.802 230.177C337.714 228.344 337.667 226.505 337.667 224.667C337.667 222.828 337.714 220.99 337.802 219.156C337.891 217.318 338.026 215.484 338.208 213.656C338.385 211.828 338.615 210.005 338.88 208.182C339.151 206.365 339.469 204.557 339.823 202.75C340.182 200.948 340.589 199.156 341.031 197.37C341.479 195.589 341.969 193.818 342.505 192.057C343.036 190.297 343.615 188.552 344.234 186.823C344.854 185.094 345.516 183.375 346.219 181.677C346.922 179.979 347.667 178.302 348.453 176.641C349.24 174.974 350.062 173.333 350.932 171.714C351.797 170.094 352.703 168.495 353.646 166.917C354.594 165.339 355.578 163.786 356.599 162.26C357.62 160.729 358.677 159.229 359.771 157.75C360.87 156.276 362 154.823 363.167 153.401C364.333 151.984 365.531 150.589 366.766 149.229C368 147.865 369.266 146.536 370.568 145.234C371.87 143.938 373.198 142.667 374.562 141.432C375.922 140.198 377.318 139 378.734 137.833C380.156 136.667 381.604 135.536 383.083 134.438C384.557 133.344 386.062 132.286 387.589 131.266C389.12 130.245 390.672 129.26 392.25 128.318C393.828 127.37 395.427 126.464 397.047 125.599C398.667 124.729 400.307 123.906 401.969 123.12C403.635 122.333 405.312 121.589 407.01 120.885C408.708 120.182 410.427 119.521 412.156 118.901C413.885 118.281 415.63 117.703 417.391 117.172C419.151 116.635 420.922 116.146 422.703 115.698C424.49 115.255 426.281 114.849 428.083 114.49C429.885 114.135 431.698 113.818 433.516 113.547C435.333 113.281 437.161 113.052 438.99 112.875C440.818 112.693 442.651 112.557 444.49 112.469C446.323 112.38 448.161 112.333 450 112.333C451.839 112.333 453.677 112.38 455.51 112.469C457.349 112.557 459.182 112.693 461.01 112.875C462.839 113.052 464.667 113.281 466.484 113.547C468.302 113.818 470.115 114.135 471.917 114.49C473.719 114.849 475.51 115.255 477.297 115.698C479.078 116.146 480.849 116.635 482.609 117.172C484.37 117.703 486.115 118.281 487.844 118.901C489.573 119.521 491.292 120.182 492.99 120.885C494.687 121.589 496.365 122.333 498.031 123.12C499.693 123.906 501.333 124.729 502.953 125.599C504.573 126.464 506.172 127.37 507.75 128.318C509.328 129.26 510.88 130.245 512.411 131.266C513.937 132.286 515.443 133.344 516.917 134.438C518.396 135.536 519.844 136.667 521.266 137.833C522.682 139 524.078 140.198 525.437 141.432C526.802 142.667 528.13 143.938 529.432 145.234C530.729 146.536 532 147.865 533.234 149.229C534.469 150.589 535.667 151.984 536.833 153.401C538 154.823 539.13 156.276 540.229 157.75C541.323 159.229 542.38 160.729 543.401 162.26C544.422 163.786 545.406 165.339 546.354 166.917C547.297 168.495 548.203 170.094 549.068 171.714C549.937 173.333 550.76 174.974 551.547 176.641C552.333 178.302 553.078 179.979 553.781 181.677C554.484 183.375 555.146 185.094 555.766 186.823C556.385 188.552 556.964 190.297 557.495 192.057C558.031 193.818 558.521 195.589 558.969 197.37C559.411 199.156 559.818 200.948 560.177 202.75C560.531 204.557 560.849 206.365 561.12 208.182C561.385 210.005 561.615 211.828 561.792 213.656C561.974 215.484 562.109 217.318 562.198 219.156C562.286 220.99 562.333 222.828 562.333 224.667Z" fill="#D41C30"/>
<path d="M446.396 135.99L450 125.719L453.271 135.828L464.245 135.99L455.563 142.62L459.495 153.891L450 146.932L440.667 153.562L444.271 142.62L435.755 136.156L446.396 135.99Z" fill="#006B3F" stroke="black" stroke-width="0.748891"/>
<path d="M453.604 313.344L450 323.62L446.729 313.51L435.755 313.344L444.437 306.714L440.505 295.443L450 302.401L459.333 295.776L455.729 306.714L464.245 313.177L453.604 313.344Z" fill="#006B3F" stroke="black" stroke-width="0.748891"/>
<path d="M499.208 150.807L508.161 144.615L504.865 154.719L513.646 161.297L502.729 161.557L499.286 172.99L495.693 161.776L484.245 161.656L493.594 154.922L490.5 144.687L499.208 150.807Z" fill="#006B3F" stroke="black" stroke-width="0.748891"/>
<path d="M400.792 298.526L391.839 304.719L395.135 294.62L386.354 288.036L397.271 287.776L400.714 276.344L404.307 287.557L415.755 287.677L406.406 294.411L409.5 304.646L400.792 298.526Z" fill="#006B3F" stroke="black" stroke-width="0.748891"/>
<path d="M533.224 193.839L544.109 194.089L535.505 200.328L538.74 210.812L529.75 204.604L520.25 211.828L523.932 200.646L514.745 193.818L526.26 193.865L529.776 183.771L533.224 193.839Z" fill="#006B3F" stroke="black" stroke-width="0.748891"/>
<path d="M366.776 255.495L355.891 255.245L364.495 249.01L361.26 238.521L370.25 244.729L379.75 237.505L376.068 248.688L385.255 255.516L373.74 255.469L370.224 265.568L366.776 255.495Z" fill="#006B3F" stroke="black" stroke-width="0.748891"/>
<path d="M535.448 248.646L544.109 255.245L533.479 255.234L529.932 265.615L526.313 255.313L514.38 255.568L523.932 248.688L520.51 237.766L529.802 244.573L538.583 238.474L535.448 248.646Z" fill="#006B3F" stroke="black" stroke-width="0.748891"/>
<path d="M364.552 200.693L355.891 194.089L366.521 194.099L370.068 183.719L373.687 194.021L385.62 193.766L376.068 200.646L379.49 211.568L370.198 204.76L361.417 210.865L364.552 200.693Z" fill="#006B3F" stroke="black" stroke-width="0.748891"/>
<path d="M505.036 294.292L508.161 304.719L499.573 298.464L490.599 304.781L493.724 294.318L483.922 287.51L495.693 287.557L499.344 276.708L502.859 287.677L513.547 287.901L505.036 294.292Z" fill="#006B3F" stroke="black" stroke-width="0.748891"/>
<path d="M394.964 155.042L391.839 144.615L400.427 150.87L409.401 144.552L406.276 155.016L416.078 161.823L404.307 161.776L400.656 172.625L397.141 161.656L386.453 161.432L394.964 155.042Z" fill="#006B3F" stroke="black" stroke-width="0.748891"/>
<path d="M472.078 253.688C472.156 254.766 472.224 255.849 472.276 256.927C472.333 258.005 472.375 259.078 472.412 260.141C472.443 261.208 472.464 262.26 472.474 263.302C472.484 264.344 472.484 265.365 472.474 266.375C472.458 267.38 472.438 268.37 472.401 269.333C472.365 270.297 472.318 271.234 472.26 272.146C472.203 273.057 472.135 273.938 472.057 274.792C471.979 275.641 471.891 276.458 471.792 277.24C471.688 278.016 471.578 278.76 471.458 279.464C471.339 280.167 471.208 280.828 471.073 281.448C470.932 282.068 470.781 282.641 470.625 283.172C470.469 283.703 470.307 284.188 470.135 284.62C469.958 285.057 469.781 285.443 469.594 285.776C469.406 286.109 469.214 286.396 469.016 286.63C468.818 286.865 468.609 287.042 468.401 287.172C468.188 287.302 467.974 287.375 467.755 287.401C467.537 287.422 467.318 287.391 467.089 287.307C466.865 287.224 466.635 287.089 466.406 286.901C466.177 286.714 465.948 286.474 465.719 286.182C465.484 285.891 465.255 285.547 465.021 285.151C464.792 284.76 464.557 284.318 464.328 283.828C464.099 283.339 463.875 282.802 463.646 282.224C463.422 281.641 463.203 281.016 462.984 280.349C462.766 279.677 462.552 278.969 462.344 278.224C462.135 277.474 461.927 276.688 461.729 275.865C461.531 275.047 461.339 274.193 461.156 273.307C460.969 272.417 460.792 271.505 460.62 270.563C460.448 269.62 460.287 268.651 460.13 267.661C459.974 266.672 459.828 265.661 459.693 264.635C459.552 263.604 459.427 262.563 459.307 261.505C459.188 260.453 459.078 259.385 458.984 258.313C458.885 257.24 458.797 256.161 458.719 255.078C458.641 254 458.573 252.917 458.521 251.839C458.464 250.76 458.422 249.688 458.385 248.625C458.354 247.557 458.333 246.505 458.323 245.464C458.313 244.422 458.313 243.401 458.323 242.391C458.339 241.385 458.359 240.396 458.396 239.432C458.432 238.469 458.479 237.531 458.537 236.62C458.594 235.708 458.662 234.828 458.74 233.974C458.818 233.125 458.906 232.307 459.005 231.531C459.109 230.75 459.219 230.005 459.339 229.302C459.458 228.599 459.589 227.938 459.724 227.318C459.865 226.698 460.016 226.125 460.172 225.594C460.328 225.063 460.49 224.583 460.662 224.146C460.833 223.714 461.016 223.328 461.203 222.99C461.391 222.656 461.583 222.37 461.781 222.135C461.979 221.901 462.188 221.724 462.396 221.594C462.609 221.464 462.823 221.391 463.042 221.365C463.26 221.344 463.479 221.375 463.708 221.458C463.932 221.542 464.162 221.677 464.391 221.865C464.62 222.052 464.849 222.292 465.078 222.583C465.313 222.88 465.542 223.219 465.776 223.615C466.005 224.005 466.24 224.448 466.469 224.938C466.698 225.427 466.922 225.964 467.151 226.542C467.375 227.125 467.594 227.75 467.813 228.417C468.031 229.089 468.245 229.797 468.453 230.547C468.662 231.292 468.87 232.078 469.068 232.901C469.266 233.719 469.458 234.573 469.641 235.464C469.828 236.349 470.005 237.26 470.177 238.203C470.349 239.146 470.51 240.115 470.667 241.104C470.823 242.094 470.969 243.104 471.104 244.13C471.245 245.161 471.37 246.203 471.49 247.26C471.609 248.313 471.719 249.38 471.813 250.453C471.912 251.526 472 252.604 472.078 253.688Z" fill="#006B3F" stroke="black" stroke-width="0.487454"/>
<path d="M479.062 253.578C479.14 254.656 479.203 255.739 479.26 256.817C479.312 257.896 479.354 258.968 479.385 260.031C479.416 261.099 479.437 262.151 479.442 263.192C479.453 264.234 479.448 265.26 479.432 266.265C479.411 267.276 479.385 268.26 479.343 269.229C479.302 270.192 479.25 271.13 479.187 272.041C479.125 272.953 479.046 273.838 478.963 274.687C478.875 275.541 478.776 276.354 478.666 277.135C478.562 277.916 478.442 278.661 478.312 279.364C478.182 280.073 478.041 280.734 477.895 281.354C477.744 281.974 477.583 282.552 477.416 283.083C477.25 283.614 477.073 284.093 476.89 284.531C476.708 284.968 476.515 285.354 476.317 285.692C476.119 286.026 475.911 286.312 475.703 286.547C475.489 286.781 475.27 286.963 475.047 287.093C474.828 287.224 474.599 287.302 474.369 287.328C474.135 287.349 473.901 287.323 473.661 287.239C473.427 287.156 473.187 287.02 472.942 286.833C472.703 286.645 472.458 286.411 472.213 286.119C471.968 285.828 471.729 285.484 471.484 285.093C471.239 284.703 471 284.26 470.755 283.776C470.515 283.286 470.276 282.75 470.041 282.172C469.807 281.588 469.573 280.963 469.349 280.297C469.119 279.63 468.895 278.922 468.677 278.177C468.458 277.427 468.244 276.645 468.036 275.823C467.833 275.005 467.63 274.151 467.437 273.265C467.244 272.38 467.062 271.463 466.88 270.521C466.703 269.578 466.536 268.614 466.375 267.625C466.213 266.635 466.062 265.625 465.922 264.599C465.781 263.567 465.651 262.526 465.531 261.474C465.406 260.416 465.297 259.354 465.198 258.276C465.099 257.203 465.01 256.125 464.932 255.047C464.854 253.963 464.786 252.885 464.729 251.807C464.677 250.729 464.635 249.656 464.604 248.588C464.573 247.526 464.552 246.474 464.547 245.432C464.536 244.39 464.541 243.364 464.562 242.354C464.578 241.349 464.604 240.359 464.645 239.396C464.687 238.432 464.739 237.489 464.802 236.578C464.864 235.666 464.942 234.786 465.031 233.932C465.114 233.083 465.213 232.265 465.323 231.484C465.432 230.703 465.552 229.958 465.677 229.255C465.807 228.552 465.948 227.89 466.099 227.265C466.244 226.646 466.406 226.073 466.573 225.541C466.739 225.01 466.916 224.526 467.099 224.088C467.281 223.656 467.474 223.265 467.672 222.932C467.875 222.594 468.078 222.307 468.291 222.073C468.5 221.838 468.718 221.656 468.942 221.526C469.166 221.396 469.39 221.318 469.625 221.297C469.854 221.271 470.088 221.302 470.328 221.38C470.562 221.463 470.802 221.599 471.047 221.786C471.286 221.974 471.531 222.213 471.776 222.505C472.02 222.797 472.265 223.135 472.505 223.526C472.75 223.922 472.994 224.359 473.234 224.849C473.474 225.338 473.713 225.87 473.948 226.453C474.182 227.031 474.416 227.656 474.645 228.323C474.869 228.989 475.093 229.698 475.312 230.448C475.531 231.192 475.744 231.979 475.953 232.797C476.156 233.62 476.359 234.474 476.552 235.359C476.744 236.245 476.932 237.156 477.109 238.099C477.286 239.041 477.453 240.01 477.614 241C477.776 241.989 477.927 242.995 478.067 244.026C478.208 245.052 478.338 246.093 478.463 247.151C478.583 248.203 478.692 249.271 478.791 250.343C478.895 251.416 478.984 252.495 479.062 253.578Z" fill="#006B3F" stroke="black" stroke-width="0.50131"/>
<path d="M474.521 255.474C474.605 256.672 474.677 257.864 474.745 259.057C474.808 260.245 474.865 261.432 474.912 262.604C474.954 263.781 474.99 264.948 475.016 266.094C475.042 267.245 475.058 268.375 475.063 269.489C475.073 270.599 475.068 271.687 475.052 272.75C475.042 273.812 475.016 274.849 474.985 275.854C474.948 276.859 474.907 277.828 474.855 278.765C474.797 279.703 474.735 280.599 474.667 281.458C474.594 282.317 474.511 283.135 474.422 283.906C474.334 284.682 474.235 285.406 474.125 286.088C474.016 286.765 473.901 287.396 473.776 287.979C473.651 288.557 473.521 289.088 473.386 289.562C473.245 290.036 473.099 290.458 472.943 290.823C472.792 291.192 472.631 291.5 472.469 291.75C472.302 292.005 472.131 292.198 471.954 292.338C471.782 292.474 471.599 292.552 471.412 292.573C471.23 292.588 471.042 292.552 470.849 292.453C470.657 292.354 470.459 292.198 470.261 291.984C470.063 291.771 469.865 291.5 469.662 291.172C469.464 290.844 469.261 290.458 469.058 290.021C468.855 289.583 468.651 289.088 468.448 288.541C468.245 287.995 468.047 287.401 467.844 286.75C467.646 286.104 467.448 285.406 467.25 284.666C467.052 283.922 466.86 283.135 466.672 282.302C466.485 281.474 466.297 280.599 466.115 279.687C465.933 278.776 465.756 277.828 465.584 276.844C465.412 275.864 465.245 274.849 465.084 273.802C464.922 272.76 464.771 271.687 464.62 270.594C464.474 269.495 464.334 268.375 464.198 267.239C464.068 266.099 463.938 264.948 463.823 263.781C463.703 262.609 463.594 261.432 463.495 260.245C463.391 259.057 463.302 257.864 463.219 256.672C463.136 255.474 463.058 254.281 462.995 253.088C462.933 251.896 462.875 250.713 462.828 249.536C462.782 248.359 462.75 247.198 462.724 246.047C462.698 244.901 462.683 243.771 462.672 242.656C462.667 241.547 462.672 240.458 462.688 239.396C462.698 238.328 462.724 237.297 462.756 236.292C462.792 235.286 462.834 234.318 462.886 233.38C462.938 232.443 463 231.547 463.073 230.687C463.146 229.828 463.224 229.01 463.318 228.239C463.407 227.463 463.506 226.739 463.615 226.057C463.719 225.375 463.839 224.745 463.959 224.167C464.084 223.583 464.219 223.057 464.355 222.583C464.495 222.104 464.641 221.682 464.792 221.318C464.948 220.953 465.105 220.646 465.271 220.391C465.438 220.141 465.61 219.943 465.782 219.807C465.959 219.672 466.141 219.594 466.323 219.573C466.511 219.552 466.698 219.594 466.891 219.693C467.084 219.786 467.276 219.943 467.474 220.156C467.672 220.375 467.875 220.646 468.073 220.974C468.276 221.302 468.48 221.682 468.683 222.125C468.886 222.562 469.089 223.057 469.292 223.604C469.49 224.146 469.693 224.745 469.896 225.391C470.094 226.042 470.292 226.734 470.49 227.479C470.683 228.224 470.875 229.01 471.068 229.844C471.256 230.672 471.443 231.547 471.625 232.458C471.808 233.37 471.985 234.312 472.157 235.297C472.329 236.281 472.495 237.297 472.657 238.338C472.813 239.385 472.969 240.458 473.115 241.552C473.266 242.651 473.407 243.765 473.542 244.906C473.672 246.042 473.797 247.198 473.917 248.364C474.037 249.536 474.146 250.713 474.245 251.901C474.344 253.088 474.438 254.281 474.521 255.474Z" fill="#006B3F" stroke="black" stroke-width="0.471444"/>
<path d="M416.891 271.521C422.625 271.281 420.135 268.214 423.031 266.583C425.922 264.953 430.042 266.031 431.281 268.068C432.516 270.109 431.526 272.109 433.115 272.135C434.708 272.167 477.995 270.349 479.552 272.057C481.115 273.766 481.37 277.135 479.755 278.443C478.135 279.771 423.411 280.38 421.526 278.995C419.641 277.63 416.885 271.859 416.891 271.521Z" fill="#9C4A00" stroke="black" stroke-width="0.492021"/>
<path d="M447.469 275.74C447.365 280.063 453.766 278.839 453.854 282.448C453.661 286.281 443.125 282.682 443.021 275.677C443.464 268.682 453.771 265.224 453.901 269.219C453.995 272.542 447.573 271.411 447.469 275.74Z" fill="#FCD116" stroke="black" stroke-width="0.474048"/>
<path d="M451.245 275.786C451.141 280.115 457.536 278.885 457.625 282.5C457.432 286.328 446.901 282.734 446.797 275.729C447.234 268.729 457.547 265.271 457.677 269.271C457.771 272.589 451.349 271.464 451.245 275.786Z" fill="#FCD116" stroke="black" stroke-width="0.474048"/>
<path d="M455.297 275.635C455.193 279.958 461.589 278.734 461.677 282.349C461.484 286.177 450.948 282.583 450.849 275.578C451.286 268.578 461.599 265.12 461.724 269.12C461.818 272.437 455.401 271.307 455.297 275.635Z" fill="#FCD116" stroke="black" stroke-width="0.474048"/>
<path d="M459.068 275.682C458.969 280.01 465.365 278.786 465.453 282.396C465.26 286.229 454.724 282.63 454.62 275.625C455.062 268.63 465.375 265.172 465.5 269.167C465.594 272.49 459.172 271.359 459.068 275.682Z" fill="#FCD116" stroke="black" stroke-width="0.474048"/>
<path d="M480.729 275.188C480.719 275.682 480.615 276.151 480.422 276.604C480.229 277.052 479.953 277.453 479.604 277.792C479.255 278.135 478.854 278.396 478.401 278.578C477.953 278.76 477.485 278.849 477 278.839C476.516 278.833 476.052 278.734 475.61 278.536C475.167 278.344 474.776 278.068 474.443 277.714C474.104 277.365 473.849 276.958 473.672 276.5C473.5 276.047 473.417 275.573 473.427 275.078C473.438 274.589 473.537 274.115 473.735 273.667C473.927 273.214 474.203 272.818 474.552 272.474C474.901 272.13 475.302 271.87 475.75 271.688C476.203 271.505 476.672 271.422 477.156 271.427C477.641 271.432 478.104 271.536 478.547 271.729C478.99 271.927 479.38 272.198 479.714 272.552C480.052 272.906 480.307 273.307 480.479 273.766C480.656 274.224 480.74 274.698 480.729 275.188Z" fill="#9C4A00" stroke="black" stroke-width="0.423388"/>
<path d="M458.37 262.234C458.469 263.182 458.484 264.109 458.417 265.005C458.344 265.906 458.193 266.713 457.963 267.432C457.729 268.145 457.437 268.713 457.078 269.135C456.724 269.562 456.328 269.802 455.901 269.869C455.474 269.932 455.042 269.812 454.604 269.51C454.172 269.208 453.766 268.744 453.391 268.119C453.016 267.494 452.698 266.76 452.443 265.906C452.182 265.057 452.005 264.161 451.901 263.213C451.802 262.265 451.786 261.338 451.859 260.442C451.927 259.541 452.078 258.734 452.307 258.015C452.542 257.302 452.833 256.734 453.193 256.307C453.552 255.885 453.943 255.645 454.37 255.578C454.802 255.515 455.234 255.635 455.667 255.937C456.104 256.239 456.505 256.703 456.88 257.328C457.255 257.953 457.573 258.687 457.833 259.536C458.088 260.39 458.266 261.286 458.37 262.234Z" fill="#006B3F" stroke="black" stroke-width="0.540553"/>
<path d="M452.859 261.802C452.963 262.749 452.974 263.671 452.906 264.572C452.833 265.473 452.682 266.281 452.453 266.994C452.224 267.713 451.927 268.281 451.568 268.703C451.213 269.124 450.818 269.369 450.391 269.432C449.963 269.499 449.531 269.38 449.094 269.078C448.661 268.776 448.255 268.312 447.88 267.687C447.505 267.062 447.187 266.322 446.932 265.473C446.672 264.624 446.495 263.723 446.396 262.776C446.292 261.828 446.276 260.906 446.349 260.005C446.417 259.104 446.568 258.296 446.802 257.583C447.031 256.864 447.328 256.296 447.682 255.874C448.042 255.453 448.432 255.208 448.865 255.145C449.292 255.078 449.724 255.197 450.156 255.5C450.594 255.802 451 256.265 451.375 256.89C451.745 257.515 452.062 258.255 452.323 259.104C452.578 259.953 452.76 260.854 452.859 261.802Z" fill="#006B3F" stroke="black" stroke-width="0.540553"/>
<path d="M448.917 254.749C449.016 255.697 449.031 256.619 448.958 257.52C448.891 258.421 448.74 259.229 448.51 259.947C448.276 260.661 447.984 261.229 447.625 261.65C447.266 262.072 446.875 262.317 446.448 262.385C446.016 262.447 445.583 262.328 445.151 262.025C444.713 261.723 444.312 261.26 443.937 260.635C443.562 260.01 443.245 259.276 442.984 258.421C442.729 257.572 442.552 256.671 442.448 255.723C442.349 254.781 442.333 253.854 442.401 252.953C442.474 252.057 442.625 251.244 442.854 250.531C443.088 249.817 443.38 249.244 443.74 248.822C444.094 248.401 444.49 248.156 444.917 248.093C445.344 248.031 445.776 248.145 446.213 248.453C446.646 248.755 447.052 249.218 447.427 249.843C447.802 250.463 448.12 251.203 448.375 252.052C448.635 252.906 448.812 253.802 448.917 254.749Z" fill="#006B3F" stroke="black" stroke-width="0.540553"/>
<path d="M454.375 254.438C454.484 255.485 454.515 256.5 454.458 257.495C454.406 258.485 454.271 259.37 454.057 260.156C453.844 260.943 453.567 261.563 453.229 262.026C452.89 262.485 452.515 262.745 452.104 262.813C451.692 262.875 451.276 262.74 450.849 262.401C450.427 262.063 450.031 261.547 449.661 260.849C449.291 260.156 448.974 259.344 448.713 258.401C448.453 257.459 448.271 256.469 448.156 255.422C448.047 254.375 448.021 253.36 448.073 252.37C448.13 251.375 448.265 250.49 448.474 249.703C448.687 248.917 448.963 248.297 449.302 247.839C449.64 247.375 450.015 247.115 450.427 247.047C450.844 246.985 451.26 247.12 451.682 247.458C452.104 247.802 452.5 248.318 452.87 249.011C453.245 249.703 453.557 250.521 453.817 251.459C454.078 252.401 454.265 253.396 454.375 254.438Z" fill="#006B3F" stroke="black" stroke-width="0.557009"/>
<path d="M462.084 254.521C462.188 255.5 462.209 256.453 462.146 257.385C462.084 258.318 461.948 259.151 461.729 259.885C461.511 260.625 461.229 261.213 460.891 261.646C460.547 262.078 460.172 262.328 459.761 262.391C459.349 262.453 458.933 262.328 458.511 262.016C458.089 261.698 457.698 261.213 457.328 260.568C456.964 259.917 456.656 259.156 456.401 258.276C456.146 257.391 455.969 256.463 455.865 255.484C455.755 254.5 455.735 253.547 455.797 252.62C455.86 251.687 456 250.854 456.214 250.114C456.433 249.375 456.714 248.792 457.052 248.359C457.396 247.922 457.771 247.677 458.183 247.609C458.599 247.547 459.016 247.672 459.433 247.989C459.854 248.307 460.25 248.786 460.615 249.437C460.979 250.083 461.292 250.849 461.542 251.729C461.797 252.609 461.979 253.542 462.084 254.521Z" fill="#006B3F" stroke="black" stroke-width="0.539317"/>
<path d="M457.849 251.969C457.953 252.948 457.974 253.906 457.912 254.833C457.849 255.766 457.714 256.599 457.495 257.333C457.276 258.073 456.995 258.661 456.656 259.094C456.313 259.526 455.938 259.776 455.526 259.838C455.115 259.906 454.698 259.776 454.276 259.463C453.854 259.146 453.464 258.661 453.094 258.016C452.729 257.37 452.422 256.604 452.167 255.724C451.912 254.844 451.735 253.911 451.63 252.932C451.526 251.953 451.5 250.995 451.563 250.068C451.625 249.135 451.766 248.302 451.985 247.562C452.198 246.828 452.479 246.24 452.818 245.807C453.162 245.37 453.537 245.125 453.948 245.057C454.365 244.995 454.781 245.12 455.198 245.437C455.62 245.755 456.016 246.234 456.38 246.885C456.745 247.531 457.058 248.297 457.308 249.177C457.563 250.057 457.745 250.989 457.849 251.969Z" fill="#006B3F" stroke="black" stroke-width="0.539317"/>
<path d="M452.505 248.286C452.61 249.271 452.63 250.224 452.568 251.151C452.511 252.083 452.37 252.917 452.151 253.656C451.932 254.391 451.656 254.979 451.313 255.411C450.974 255.849 450.594 256.094 450.182 256.161C449.771 256.224 449.354 256.099 448.932 255.781C448.511 255.463 448.12 254.984 447.755 254.333C447.391 253.687 447.078 252.922 446.823 252.042C446.568 251.161 446.391 250.229 446.287 249.25C446.182 248.271 446.162 247.312 446.224 246.385C446.281 245.453 446.422 244.62 446.641 243.885C446.86 243.146 447.136 242.557 447.479 242.125C447.818 241.693 448.198 241.443 448.61 241.38C449.021 241.312 449.438 241.443 449.86 241.755C450.281 242.073 450.672 242.557 451.037 243.203C451.401 243.849 451.714 244.615 451.969 245.495C452.224 246.38 452.401 247.307 452.505 248.286Z" fill="#006B3F" stroke="black" stroke-width="0.539317"/>
<path d="M447.558 246.057C447.662 247.036 447.688 247.995 447.625 248.922C447.563 249.854 447.422 250.687 447.203 251.427C446.99 252.161 446.709 252.75 446.365 253.182C446.026 253.614 445.651 253.864 445.24 253.927C444.823 253.995 444.406 253.864 443.99 253.552C443.568 253.234 443.172 252.755 442.808 252.104C442.443 251.458 442.13 250.693 441.88 249.812C441.625 248.932 441.443 248 441.339 247.021C441.235 246.042 441.214 245.083 441.276 244.156C441.339 243.224 441.474 242.391 441.693 241.651C441.912 240.917 442.193 240.328 442.531 239.896C442.875 239.463 443.25 239.213 443.662 239.146C444.073 239.083 444.49 239.208 444.912 239.526C445.334 239.844 445.724 240.323 446.094 240.974C446.459 241.62 446.766 242.385 447.021 243.266C447.276 244.146 447.453 245.078 447.558 246.057Z" fill="#006B3F" stroke="black" stroke-width="0.539317"/>
<path d="M438.964 185.214C438.964 185.214 427.99 194.74 429.224 220.516C430.604 246.443 453.479 258.63 453.479 258.63C453.479 258.63 459.312 251.271 458.635 230.438C457 199.984 446.198 186.526 446.198 186.526L438.964 185.214Z" fill="#9461C9" stroke="black" stroke-width="0.430612"/>
<path d="M466.953 263.65C466.886 264.598 466.735 265.51 466.506 266.385C466.276 267.26 465.985 268.025 465.625 268.687C465.271 269.354 464.881 269.859 464.453 270.213C464.026 270.562 463.599 270.734 463.162 270.718C462.729 270.708 462.328 270.515 461.953 270.14C461.578 269.76 461.261 269.234 461.005 268.552C460.745 267.874 460.568 267.088 460.464 266.208C460.365 265.322 460.349 264.406 460.417 263.458C460.485 262.505 460.636 261.593 460.865 260.723C461.094 259.848 461.386 259.083 461.745 258.416C462.099 257.755 462.49 257.249 462.917 256.895C463.344 256.546 463.771 256.374 464.209 256.385C464.641 256.401 465.042 256.593 465.417 256.968C465.792 257.343 466.11 257.874 466.365 258.557C466.62 259.234 466.802 260.015 466.907 260.901C467.006 261.781 467.021 262.697 466.953 263.65Z" fill="#006B3F" stroke="black" stroke-width="0.540554"/>
<path d="M461.61 262.239C461.542 263.192 461.391 264.104 461.162 264.973C460.933 265.848 460.641 266.619 460.282 267.281C459.927 267.942 459.537 268.453 459.11 268.802C458.683 269.156 458.25 269.322 457.818 269.312C457.386 269.296 456.985 269.104 456.61 268.729C456.235 268.354 455.917 267.822 455.662 267.145C455.401 266.463 455.224 265.682 455.12 264.796C455.021 263.916 455.005 262.999 455.073 262.046C455.141 261.098 455.292 260.187 455.521 259.312C455.75 258.442 456.042 257.671 456.396 257.01C456.755 256.348 457.146 255.838 457.573 255.489C458 255.135 458.427 254.963 458.865 254.979C459.297 254.989 459.698 255.187 460.073 255.562C460.448 255.937 460.761 256.463 461.021 257.145C461.276 257.828 461.459 258.609 461.558 259.489C461.662 260.374 461.677 261.291 461.61 262.239Z" fill="#006B3F" stroke="black" stroke-width="0.540554"/>
<path d="M458.985 254.598C458.917 255.552 458.766 256.463 458.537 257.333C458.308 258.208 458.011 258.973 457.657 259.64C457.302 260.302 456.912 260.807 456.485 261.161C456.058 261.51 455.625 261.682 455.193 261.671C454.761 261.656 454.354 261.463 453.985 261.088C453.61 260.713 453.292 260.182 453.037 259.499C452.776 258.822 452.599 258.041 452.495 257.156C452.396 256.276 452.375 255.359 452.448 254.406C452.516 253.458 452.667 252.546 452.896 251.671C453.125 250.796 453.417 250.031 453.771 249.369C454.13 248.703 454.521 248.197 454.948 247.843C455.375 247.494 455.802 247.322 456.235 247.338C456.672 247.348 457.073 247.541 457.448 247.916C457.823 248.296 458.136 248.822 458.396 249.505C458.651 250.182 458.834 250.968 458.933 251.848C459.037 252.734 459.052 253.651 458.985 254.598Z" fill="#006B3F" stroke="black" stroke-width="0.540554"/>
<path d="M464.416 255.26C464.338 256.312 464.182 257.317 463.953 258.281C463.724 259.245 463.432 260.099 463.083 260.833C462.734 261.567 462.349 262.13 461.937 262.521C461.521 262.916 461.104 263.104 460.687 263.099C460.271 263.088 459.885 262.88 459.526 262.469C459.172 262.057 458.875 261.479 458.635 260.734C458.39 259.984 458.229 259.125 458.14 258.151C458.052 257.182 458.047 256.172 458.12 255.12C458.198 254.073 458.354 253.067 458.583 252.104C458.812 251.135 459.104 250.286 459.453 249.552C459.802 248.817 460.187 248.255 460.599 247.859C461.015 247.469 461.432 247.276 461.849 247.286C462.265 247.297 462.651 247.505 463.01 247.916C463.364 248.323 463.661 248.906 463.906 249.651C464.146 250.401 464.307 251.26 464.396 252.234C464.484 253.203 464.489 254.213 464.416 255.26Z" fill="#006B3F" stroke="black" stroke-width="0.557008"/>
<path d="M471.979 256.718C471.912 257.703 471.761 258.645 471.537 259.552C471.308 260.453 471.021 261.25 470.677 261.937C470.334 262.625 469.953 263.151 469.537 263.515C469.125 263.885 468.714 264.062 468.292 264.052C467.875 264.041 467.49 263.843 467.13 263.458C466.776 263.067 466.474 262.526 466.229 261.822C465.985 261.119 465.818 260.312 465.724 259.401C465.63 258.489 465.62 257.541 465.693 256.557C465.761 255.573 465.912 254.63 466.136 253.729C466.365 252.823 466.651 252.026 466.995 251.338C467.339 250.651 467.719 250.125 468.136 249.76C468.547 249.39 468.964 249.213 469.38 249.224C469.797 249.239 470.183 249.437 470.542 249.823C470.896 250.208 471.198 250.75 471.443 251.453C471.688 252.156 471.854 252.963 471.948 253.875C472.042 254.791 472.052 255.739 471.979 256.718Z" fill="#006B3F" stroke="black" stroke-width="0.539314"/>
<path d="M468.271 253.453C468.198 254.437 468.047 255.38 467.823 256.286C467.599 257.187 467.313 257.984 466.964 258.671C466.62 259.359 466.24 259.885 465.828 260.255C465.417 260.619 465 260.796 464.584 260.786C464.167 260.776 463.776 260.578 463.422 260.192C463.063 259.807 462.761 259.26 462.516 258.557C462.271 257.854 462.104 257.046 462.011 256.135C461.917 255.224 461.906 254.276 461.979 253.291C462.052 252.312 462.198 251.364 462.427 250.463C462.651 249.557 462.938 248.76 463.281 248.072C463.63 247.385 464.011 246.859 464.422 246.494C464.834 246.13 465.25 245.953 465.667 245.963C466.084 245.974 466.469 246.171 466.828 246.557C467.188 246.942 467.49 247.489 467.735 248.192C467.974 248.89 468.146 249.697 468.24 250.614C468.334 251.526 468.344 252.474 468.271 253.453Z" fill="#006B3F" stroke="black" stroke-width="0.539314"/>
<path d="M463.672 248.88C463.599 249.864 463.448 250.807 463.224 251.713C462.995 252.614 462.709 253.411 462.365 254.099C462.021 254.786 461.641 255.312 461.229 255.677C460.813 256.046 460.401 256.224 459.985 256.213C459.563 256.203 459.177 256.005 458.818 255.619C458.464 255.229 458.162 254.687 457.917 253.984C457.672 253.281 457.505 252.474 457.412 251.562C457.318 250.651 457.308 249.703 457.38 248.718C457.448 247.734 457.599 246.791 457.823 245.89C458.052 244.984 458.339 244.187 458.683 243.5C459.031 242.812 459.406 242.286 459.823 241.921C460.235 241.552 460.651 241.375 461.068 241.385C461.485 241.395 461.87 241.599 462.229 241.984C462.589 242.369 462.886 242.911 463.13 243.614C463.375 244.317 463.547 245.125 463.636 246.036C463.729 246.953 463.74 247.895 463.672 248.88Z" fill="#006B3F" stroke="black" stroke-width="0.539314"/>
<path d="M459.198 245.807C459.13 246.786 458.979 247.734 458.755 248.635C458.526 249.541 458.24 250.333 457.896 251.02C457.552 251.708 457.172 252.239 456.755 252.604C456.344 252.968 455.933 253.145 455.511 253.135C455.094 253.125 454.709 252.927 454.349 252.541C453.995 252.156 453.693 251.609 453.448 250.906C453.203 250.208 453.037 249.395 452.943 248.484C452.849 247.572 452.839 246.625 452.912 245.645C452.979 244.661 453.13 243.718 453.354 242.812C453.584 241.906 453.87 241.114 454.214 240.427C454.558 239.739 454.938 239.213 455.354 238.843C455.766 238.479 456.177 238.302 456.599 238.312C457.016 238.323 457.401 238.52 457.761 238.906C458.115 239.291 458.417 239.838 458.662 240.541C458.907 241.244 459.073 242.052 459.167 242.963C459.261 243.875 459.271 244.823 459.198 245.807Z" fill="#006B3F" stroke="black" stroke-width="0.539314"/>
<path d="M470.875 226.172C471.245 227.031 471.594 227.891 471.932 228.75C472.271 229.615 472.594 230.474 472.896 231.333C473.203 232.198 473.489 233.052 473.755 233.901C474.026 234.755 474.276 235.594 474.505 236.427C474.739 237.26 474.948 238.078 475.14 238.885C475.328 239.693 475.5 240.479 475.646 241.255C475.791 242.026 475.922 242.776 476.026 243.505C476.13 244.239 476.208 244.943 476.271 245.625C476.328 246.312 476.364 246.963 476.38 247.594C476.396 248.219 476.385 248.818 476.354 249.38C476.323 249.948 476.271 250.484 476.193 250.984C476.114 251.479 476.015 251.948 475.896 252.375C475.776 252.802 475.635 253.193 475.469 253.547C475.307 253.901 475.12 254.213 474.916 254.484C474.708 254.76 474.484 254.995 474.239 255.187C473.989 255.38 473.729 255.531 473.443 255.641C473.161 255.75 472.859 255.818 472.547 255.838C472.229 255.864 471.896 255.849 471.547 255.786C471.198 255.729 470.833 255.625 470.453 255.484C470.078 255.338 469.687 255.156 469.286 254.927C468.885 254.703 468.474 254.432 468.052 254.125C467.63 253.818 467.198 253.474 466.76 253.088C466.318 252.703 465.875 252.281 465.422 251.823C464.974 251.364 464.515 250.875 464.057 250.344C463.599 249.818 463.135 249.255 462.672 248.667C462.208 248.073 461.745 247.453 461.286 246.802C460.823 246.151 460.364 245.474 459.906 244.771C459.448 244.068 458.995 243.338 458.547 242.588C458.104 241.844 457.661 241.073 457.229 240.286C456.797 239.5 456.37 238.698 455.958 237.88C455.541 237.062 455.135 236.229 454.745 235.391C454.349 234.547 453.969 233.703 453.604 232.844C453.234 231.99 452.885 231.13 452.547 230.266C452.208 229.406 451.89 228.542 451.583 227.682C451.281 226.823 450.989 225.969 450.724 225.115C450.453 224.266 450.203 223.422 449.974 222.594C449.745 221.76 449.531 220.937 449.344 220.135C449.151 219.328 448.984 218.536 448.833 217.766C448.687 216.995 448.562 216.24 448.458 215.51C448.354 214.781 448.271 214.073 448.208 213.391C448.151 212.708 448.114 212.052 448.099 211.427C448.083 210.797 448.094 210.203 448.125 209.635C448.156 209.068 448.208 208.536 448.286 208.036C448.364 207.536 448.463 207.073 448.583 206.646C448.703 206.213 448.849 205.823 449.01 205.474C449.177 205.12 449.359 204.807 449.568 204.531C449.771 204.255 449.995 204.026 450.245 203.833C450.489 203.641 450.75 203.49 451.036 203.38C451.318 203.271 451.62 203.203 451.937 203.177C452.255 203.151 452.588 203.172 452.937 203.229C453.286 203.292 453.646 203.391 454.026 203.536C454.401 203.677 454.791 203.865 455.193 204.094C455.594 204.318 456.005 204.583 456.427 204.891C456.849 205.198 457.281 205.547 457.719 205.927C458.161 206.312 458.604 206.734 459.057 207.193C459.51 207.651 459.963 208.146 460.422 208.672C460.885 209.203 461.344 209.76 461.807 210.354C462.271 210.948 462.734 211.568 463.198 212.219C463.656 212.87 464.12 213.547 464.573 214.25C465.031 214.953 465.484 215.677 465.932 216.427C466.38 217.177 466.817 217.943 467.25 218.734C467.682 219.521 468.109 220.323 468.526 221.141C468.937 221.958 469.344 222.786 469.734 223.63C470.13 224.469 470.51 225.318 470.875 226.172Z" fill="#D41C30" stroke="black" stroke-width="0.207496"/>
<path d="M459.156 202.865C459.151 203.339 459.037 203.792 458.828 204.224C458.615 204.656 458.313 205.036 457.932 205.365C457.547 205.693 457.104 205.943 456.604 206.115C456.109 206.286 455.594 206.37 455.057 206.359C454.521 206.349 454.005 206.25 453.516 206.057C453.026 205.87 452.594 205.604 452.219 205.266C451.844 204.922 451.563 204.531 451.365 204.094C451.167 203.651 451.073 203.193 451.078 202.719C451.089 202.25 451.198 201.797 451.412 201.365C451.625 200.927 451.922 200.547 452.307 200.219C452.693 199.891 453.135 199.646 453.63 199.469C454.13 199.297 454.646 199.219 455.182 199.229C455.719 199.234 456.234 199.339 456.724 199.526C457.214 199.714 457.646 199.979 458.021 200.323C458.391 200.661 458.677 201.052 458.875 201.495C459.073 201.938 459.167 202.391 459.156 202.865Z" fill="#006B3F" stroke="black" stroke-width="0.47017"/>
<path d="M461.771 197.818C461.766 198.292 461.662 198.745 461.474 199.177C461.281 199.609 461.011 199.99 460.667 200.318C460.323 200.646 459.927 200.896 459.479 201.073C459.031 201.245 458.568 201.328 458.089 201.318C457.609 201.307 457.151 201.214 456.708 201.021C456.271 200.833 455.886 200.568 455.552 200.229C455.219 199.885 454.964 199.5 454.787 199.057C454.609 198.62 454.526 198.161 454.537 197.688C454.542 197.214 454.646 196.76 454.833 196.328C455.026 195.896 455.297 195.516 455.641 195.188C455.984 194.859 456.38 194.604 456.828 194.432C457.276 194.26 457.74 194.177 458.219 194.188C458.698 194.193 459.156 194.292 459.599 194.484C460.037 194.672 460.422 194.938 460.755 195.276C461.089 195.615 461.344 196.005 461.521 196.448C461.698 196.885 461.781 197.344 461.771 197.818Z" fill="#006B3F" stroke="black" stroke-width="0.469931"/>
<path d="M456.891 197.729C456.88 198.203 456.781 198.656 456.594 199.089C456.401 199.521 456.13 199.906 455.787 200.234C455.443 200.563 455.047 200.813 454.599 200.984C454.151 201.156 453.688 201.24 453.208 201.229C452.729 201.224 452.271 201.125 451.828 200.938C451.391 200.745 451.005 200.484 450.672 200.141C450.339 199.802 450.083 199.411 449.906 198.969C449.729 198.531 449.646 198.073 449.656 197.599C449.662 197.13 449.766 196.677 449.953 196.24C450.146 195.807 450.417 195.427 450.761 195.099C451.104 194.771 451.5 194.521 451.948 194.349C452.396 194.172 452.859 194.094 453.339 194.099C453.818 194.109 454.276 194.208 454.719 194.396C455.156 194.583 455.542 194.849 455.875 195.188C456.208 195.531 456.464 195.922 456.641 196.359C456.818 196.802 456.901 197.255 456.891 197.729Z" fill="#006B3F" stroke="black" stroke-width="0.469931"/>
<path d="M458.136 194.042C458.13 194.484 458.026 194.906 457.823 195.318C457.625 195.724 457.344 196.078 456.985 196.385C456.625 196.693 456.208 196.927 455.745 197.089C455.276 197.25 454.792 197.328 454.292 197.318C453.787 197.313 453.307 197.219 452.844 197.037C452.386 196.859 451.979 196.609 451.63 196.292C451.281 195.969 451.016 195.604 450.828 195.193C450.646 194.776 450.557 194.349 450.563 193.906C450.573 193.458 450.677 193.037 450.875 192.63C451.073 192.224 451.354 191.865 451.714 191.557C452.073 191.25 452.49 191.016 452.958 190.854C453.422 190.693 453.906 190.615 454.412 190.625C454.912 190.635 455.391 190.729 455.854 190.906C456.313 191.083 456.719 191.333 457.068 191.651C457.417 191.974 457.688 192.339 457.87 192.755C458.057 193.167 458.146 193.594 458.136 194.042Z" fill="#006B3F" stroke="black" stroke-width="0.470009"/>
<path d="M457.708 189.813C457.698 190.255 457.594 190.677 457.396 191.089C457.198 191.495 456.917 191.849 456.557 192.156C456.193 192.464 455.781 192.698 455.313 192.859C454.849 193.021 454.365 193.099 453.86 193.089C453.36 193.083 452.875 192.99 452.417 192.807C451.953 192.63 451.552 192.38 451.198 192.063C450.849 191.74 450.583 191.375 450.401 190.964C450.214 190.547 450.125 190.12 450.136 189.677C450.141 189.229 450.245 188.807 450.443 188.401C450.646 187.995 450.922 187.635 451.287 187.328C451.646 187.021 452.057 186.787 452.526 186.625C452.995 186.464 453.479 186.385 453.979 186.396C454.479 186.406 454.964 186.5 455.422 186.677C455.886 186.854 456.292 187.104 456.641 187.422C456.99 187.745 457.255 188.109 457.443 188.526C457.625 188.938 457.714 189.365 457.708 189.813Z" fill="#006B3F" stroke="black" stroke-width="0.470009"/>
<path d="M452.229 194.88C452.219 195.354 452.12 195.807 451.927 196.24C451.74 196.677 451.469 197.057 451.125 197.385C450.781 197.714 450.385 197.964 449.938 198.135C449.49 198.307 449.026 198.391 448.547 198.38C448.068 198.375 447.609 198.276 447.167 198.089C446.729 197.896 446.339 197.635 446.005 197.292C445.672 196.953 445.422 196.563 445.245 196.12C445.068 195.682 444.984 195.224 444.995 194.75C445 194.281 445.099 193.828 445.292 193.391C445.484 192.958 445.75 192.578 446.099 192.25C446.443 191.922 446.839 191.672 447.287 191.5C447.729 191.323 448.193 191.245 448.672 191.25C449.156 191.26 449.615 191.359 450.052 191.547C450.495 191.734 450.88 192 451.214 192.339C451.547 192.682 451.802 193.073 451.979 193.51C452.151 193.953 452.24 194.406 452.229 194.88Z" fill="#006B3F" stroke="black" stroke-width="0.469931"/>
<path d="M453.318 190.313C453.313 190.776 453.208 191.224 453.021 191.646C452.828 192.073 452.563 192.443 452.214 192.766C451.87 193.089 451.474 193.334 451.026 193.5C450.583 193.672 450.12 193.75 449.641 193.745C449.156 193.735 448.698 193.641 448.261 193.453C447.818 193.266 447.432 193.011 447.099 192.677C446.766 192.344 446.511 191.959 446.333 191.526C446.156 191.099 446.073 190.651 446.083 190.188C446.089 189.724 446.193 189.281 446.38 188.854C446.573 188.427 446.844 188.057 447.188 187.735C447.531 187.412 447.927 187.167 448.375 187C448.818 186.828 449.281 186.75 449.761 186.755C450.245 186.766 450.703 186.865 451.141 187.047C451.583 187.235 451.969 187.495 452.302 187.828C452.636 188.162 452.891 188.542 453.068 188.974C453.245 189.406 453.328 189.854 453.318 190.313Z" fill="#006B3F" stroke="black" stroke-width="0.469925"/>
<path d="M447.766 190.432C447.755 190.906 447.646 191.359 447.432 191.792C447.219 192.224 446.922 192.604 446.537 192.932C446.151 193.26 445.708 193.51 445.214 193.682C444.714 193.854 444.198 193.938 443.661 193.927C443.125 193.917 442.615 193.818 442.12 193.63C441.63 193.438 441.198 193.172 440.823 192.833C440.453 192.49 440.167 192.099 439.969 191.661C439.771 191.219 439.677 190.76 439.688 190.292C439.693 189.818 439.807 189.365 440.016 188.932C440.229 188.495 440.531 188.115 440.917 187.792C441.297 187.464 441.74 187.214 442.24 187.042C442.734 186.87 443.255 186.786 443.787 186.797C444.323 186.807 444.839 186.906 445.328 187.094C445.823 187.286 446.255 187.552 446.625 187.891C447 188.234 447.281 188.625 447.479 189.062C447.677 189.505 447.771 189.958 447.766 190.432Z" fill="#006B3F" stroke="black" stroke-width="0.47017"/>
<path d="M454.938 184.521C454.932 184.964 454.828 185.391 454.63 185.797C454.427 186.203 454.146 186.557 453.787 186.87C453.427 187.177 453.016 187.411 452.547 187.573C452.078 187.734 451.594 187.807 451.094 187.802C450.589 187.792 450.109 187.698 449.651 187.521C449.188 187.344 448.781 187.094 448.432 186.771C448.083 186.453 447.818 186.083 447.63 185.672C447.448 185.26 447.359 184.828 447.365 184.385C447.375 183.943 447.479 183.516 447.677 183.109C447.875 182.703 448.156 182.344 448.516 182.036C448.88 181.729 449.292 181.495 449.761 181.333C450.224 181.172 450.708 181.094 451.214 181.104C451.714 181.115 452.198 181.208 452.656 181.385C453.12 181.563 453.521 181.813 453.87 182.135C454.224 182.453 454.49 182.823 454.672 183.234C454.859 183.646 454.948 184.078 454.938 184.521Z" fill="#006B3F" stroke="black" stroke-width="0.470009"/>
<path d="M449.708 185.156C449.698 185.62 449.599 186.063 449.406 186.49C449.219 186.912 448.948 187.287 448.604 187.604C448.26 187.927 447.865 188.172 447.417 188.344C446.969 188.511 446.505 188.594 446.026 188.584C445.547 188.573 445.089 188.479 444.646 188.292C444.208 188.11 443.823 187.849 443.49 187.516C443.156 187.182 442.901 186.797 442.724 186.37C442.547 185.938 442.464 185.49 442.474 185.026C442.479 184.563 442.578 184.12 442.771 183.693C442.964 183.271 443.229 182.896 443.573 182.573C443.922 182.255 444.318 182.011 444.76 181.839C445.208 181.672 445.672 181.589 446.151 181.599C446.63 181.604 447.094 181.703 447.531 181.891C447.974 182.073 448.359 182.334 448.693 182.667C449.026 183 449.281 183.38 449.458 183.813C449.63 184.245 449.714 184.693 449.708 185.156Z" fill="#006B3F" stroke="black" stroke-width="0.469925"/>
<path d="M442.037 190.625C442.026 191.094 441.927 191.547 441.734 191.984C441.547 192.417 441.276 192.797 440.932 193.125C440.583 193.453 440.188 193.703 439.745 193.88C439.297 194.052 438.833 194.135 438.354 194.125C437.875 194.115 437.417 194.016 436.974 193.828C436.537 193.641 436.146 193.375 435.813 193.036C435.479 192.693 435.224 192.302 435.052 191.865C434.875 191.422 434.792 190.969 434.802 190.495C434.807 190.021 434.906 189.568 435.099 189.135C435.292 188.703 435.557 188.318 435.906 187.99C436.25 187.661 436.646 187.411 437.094 187.24C437.537 187.068 438 186.984 438.479 186.995C438.958 187 439.422 187.099 439.859 187.286C440.302 187.479 440.688 187.745 441.021 188.083C441.354 188.422 441.609 188.813 441.787 189.255C441.958 189.693 442.042 190.151 442.037 190.625Z" fill="#006B3F" stroke="black" stroke-width="0.469931"/>
<path d="M443.292 187.964C443.287 188.427 443.182 188.87 442.995 189.297C442.802 189.719 442.531 190.094 442.188 190.412C441.844 190.735 441.448 190.979 441 191.151C440.557 191.318 440.094 191.401 439.615 191.391C439.13 191.38 438.672 191.287 438.234 191.099C437.792 190.917 437.406 190.656 437.073 190.323C436.74 189.99 436.484 189.604 436.307 189.177C436.13 188.745 436.047 188.297 436.057 187.834C436.063 187.37 436.167 186.927 436.354 186.5C436.547 186.078 436.813 185.703 437.162 185.386C437.505 185.063 437.901 184.818 438.349 184.646C438.792 184.479 439.255 184.396 439.734 184.406C440.219 184.412 440.677 184.511 441.115 184.698C441.557 184.88 441.943 185.141 442.276 185.474C442.609 185.807 442.865 186.188 443.042 186.62C443.219 187.052 443.302 187.5 443.292 187.964Z" fill="#006B3F" stroke="black" stroke-width="0.469925"/>
<path d="M444.828 185.026C444.818 185.49 444.719 185.932 444.526 186.354C444.339 186.781 444.068 187.156 443.724 187.474C443.38 187.797 442.984 188.042 442.537 188.214C442.089 188.38 441.625 188.464 441.146 188.453C440.667 188.443 440.208 188.349 439.766 188.162C439.328 187.979 438.943 187.719 438.609 187.386C438.276 187.052 438.021 186.667 437.844 186.235C437.667 185.807 437.583 185.36 437.594 184.896C437.599 184.432 437.698 183.99 437.891 183.563C438.083 183.141 438.349 182.766 438.698 182.443C439.042 182.125 439.438 181.875 439.88 181.709C440.328 181.537 440.792 181.459 441.271 181.469C441.75 181.474 442.214 181.573 442.651 181.755C443.094 181.943 443.479 182.203 443.813 182.537C444.146 182.87 444.401 183.25 444.578 183.682C444.75 184.115 444.833 184.563 444.828 185.026Z" fill="#006B3F" stroke="black" stroke-width="0.469925"/>
<path d="M476.016 221.167C476.453 222.182 476.875 223.208 477.271 224.234C477.672 225.26 478.052 226.286 478.411 227.307C478.771 228.333 479.109 229.354 479.422 230.364C479.734 231.375 480.026 232.375 480.292 233.37C480.557 234.359 480.797 235.333 481.01 236.292C481.229 237.25 481.417 238.187 481.578 239.109C481.74 240.026 481.875 240.922 481.984 241.786C482.094 242.656 482.172 243.5 482.229 244.307C482.281 245.12 482.307 245.896 482.302 246.646C482.302 247.391 482.271 248.099 482.214 248.771C482.151 249.443 482.068 250.078 481.953 250.672C481.839 251.26 481.698 251.812 481.531 252.323C481.365 252.828 481.172 253.292 480.953 253.713C480.729 254.13 480.484 254.5 480.214 254.828C479.943 255.151 479.651 255.427 479.333 255.651C479.016 255.88 478.672 256.057 478.312 256.187C477.948 256.312 477.568 256.391 477.161 256.422C476.755 256.448 476.333 256.427 475.896 256.349C475.453 256.276 474.995 256.156 474.521 255.984C474.047 255.807 473.557 255.588 473.057 255.312C472.552 255.042 472.036 254.724 471.51 254.354C470.984 253.989 470.448 253.573 469.906 253.114C469.359 252.656 468.807 252.151 468.25 251.604C467.693 251.057 467.13 250.469 466.562 249.838C465.995 249.208 465.427 248.542 464.859 247.833C464.292 247.13 463.724 246.385 463.156 245.609C462.594 244.833 462.031 244.026 461.474 243.187C460.917 242.349 460.365 241.484 459.823 240.594C459.281 239.703 458.745 238.786 458.224 237.849C457.698 236.911 457.187 235.953 456.682 234.979C456.182 234.005 455.698 233.016 455.229 232.016C454.755 231.016 454.302 230.005 453.865 228.984C453.427 227.969 453.005 226.943 452.604 225.917C452.203 224.891 451.828 223.865 451.469 222.838C451.109 221.818 450.771 220.797 450.458 219.786C450.146 218.776 449.854 217.771 449.589 216.781C449.323 215.792 449.083 214.818 448.87 213.859C448.651 212.901 448.464 211.958 448.302 211.042C448.141 210.125 448 209.229 447.896 208.359C447.786 207.49 447.703 206.651 447.651 205.838C447.599 205.031 447.573 204.25 447.578 203.505C447.578 202.76 447.609 202.052 447.667 201.38C447.724 200.708 447.812 200.073 447.927 199.479C448.036 198.885 448.177 198.338 448.349 197.828C448.516 197.318 448.708 196.854 448.927 196.437C449.146 196.021 449.391 195.651 449.661 195.323C449.932 195 450.229 194.724 450.547 194.495C450.865 194.271 451.203 194.094 451.568 193.964C451.932 193.833 452.312 193.755 452.719 193.729C453.12 193.703 453.542 193.724 453.984 193.797C454.427 193.87 454.885 193.995 455.359 194.167C455.833 194.344 456.323 194.562 456.823 194.833C457.328 195.109 457.844 195.427 458.37 195.792C458.896 196.161 459.432 196.573 459.974 197.036C460.521 197.495 461.073 197.995 461.63 198.547C462.187 199.094 462.75 199.682 463.318 200.312C463.88 200.943 464.448 201.609 465.021 202.318C465.589 203.021 466.156 203.76 466.719 204.536C467.286 205.312 467.849 206.12 468.406 206.958C468.964 207.797 469.51 208.661 470.057 209.557C470.599 210.448 471.135 211.365 471.656 212.302C472.182 213.24 472.693 214.198 473.193 215.172C473.693 216.146 474.182 217.13 474.651 218.135C475.125 219.135 475.578 220.146 476.016 221.167Z" fill="#006B3F" stroke="black" stroke-width="0.431024"/>
<path d="M476.646 229.536C477.026 230.396 477.344 231.245 477.594 232.088C477.844 232.932 478.011 233.703 478.089 234.401C478.167 235.099 478.157 235.677 478.052 236.125C477.948 236.573 477.756 236.859 477.485 236.989C477.214 237.12 476.881 237.078 476.479 236.87C476.084 236.661 475.651 236.297 475.188 235.781C474.724 235.266 474.261 234.635 473.802 233.896C473.344 233.151 472.922 232.349 472.542 231.489C472.157 230.63 471.839 229.781 471.589 228.937C471.339 228.094 471.172 227.323 471.094 226.625C471.016 225.927 471.026 225.354 471.136 224.906C471.24 224.458 471.427 224.167 471.698 224.036C471.969 223.906 472.308 223.948 472.703 224.156C473.104 224.364 473.532 224.729 473.995 225.245C474.464 225.76 474.922 226.391 475.381 227.135C475.839 227.875 476.261 228.677 476.646 229.536Z" fill="#006B3F" stroke="black" stroke-width="0.430576"/>
<path d="M473.563 230.505C483.156 242.188 481.943 249.604 480.943 255.88C477.932 248.646 476.281 244.089 466.688 232.406C457.094 220.724 461.88 212.526 462.542 208.208C463.984 211.943 463.969 218.823 473.563 230.505Z" fill="#006B3F" stroke="black" stroke-width="0.430612"/>
<path d="M474.427 239.943C484.021 251.625 482.807 259.042 481.807 265.318C478.792 258.078 477.146 253.526 467.552 241.844C457.958 230.161 462.745 221.964 463.406 217.641C464.849 221.38 464.828 228.26 474.427 239.943Z" fill="#006B3F" stroke="black" stroke-width="0.430612"/>
<path d="M474.714 247.542C484.542 259.016 483.479 266.458 482.604 272.755C479.443 265.583 477.708 261.063 467.88 249.589C458.052 238.109 462.677 229.813 463.25 225.479C464.766 229.188 464.885 236.068 474.714 247.542Z" fill="#006B3F" stroke="black" stroke-width="0.430612"/>
<path d="M471.969 218.458C472.302 219.219 472.61 219.974 472.886 220.729C473.162 221.489 473.401 222.229 473.61 222.953C473.818 223.682 473.985 224.375 474.115 225.047C474.245 225.713 474.334 226.338 474.386 226.922C474.433 227.505 474.438 228.036 474.401 228.516C474.365 228.989 474.287 229.406 474.167 229.76C474.052 230.114 473.891 230.396 473.698 230.609C473.5 230.823 473.266 230.963 473 231.036C472.735 231.104 472.438 231.094 472.11 231.016C471.781 230.932 471.433 230.781 471.058 230.552C470.683 230.323 470.287 230.031 469.88 229.667C469.474 229.302 469.058 228.875 468.63 228.385C468.203 227.901 467.776 227.359 467.349 226.766C466.922 226.177 466.505 225.542 466.094 224.87C465.683 224.193 465.287 223.489 464.906 222.76C464.526 222.031 464.167 221.286 463.834 220.531C463.495 219.771 463.193 219.016 462.917 218.26C462.636 217.505 462.396 216.76 462.188 216.036C461.985 215.312 461.813 214.614 461.683 213.948C461.552 213.276 461.464 212.651 461.417 212.068C461.37 211.484 461.365 210.953 461.401 210.479C461.433 210 461.511 209.583 461.63 209.229C461.75 208.88 461.907 208.594 462.104 208.38C462.302 208.167 462.532 208.026 462.802 207.958C463.068 207.891 463.365 207.896 463.693 207.979C464.021 208.057 464.37 208.213 464.745 208.437C465.12 208.667 465.511 208.963 465.922 209.328C466.328 209.693 466.745 210.114 467.172 210.604C467.594 211.094 468.021 211.63 468.448 212.224C468.875 212.818 469.297 213.448 469.709 214.125C470.12 214.797 470.516 215.5 470.896 216.229C471.276 216.958 471.636 217.703 471.969 218.458Z" fill="#006B3F" stroke="black" stroke-width="0.433624"/>
<path d="M467.75 225.359C468.01 225.984 468.245 226.609 468.453 227.234C468.662 227.859 468.844 228.463 468.99 229.062C469.141 229.656 469.255 230.224 469.339 230.77C469.422 231.317 469.469 231.823 469.484 232.296C469.5 232.77 469.479 233.198 469.422 233.578C469.365 233.963 469.276 234.291 469.156 234.573C469.031 234.849 468.88 235.067 468.693 235.234C468.51 235.395 468.297 235.5 468.057 235.541C467.818 235.583 467.552 235.562 467.266 235.479C466.979 235.395 466.677 235.255 466.354 235.052C466.031 234.849 465.698 234.593 465.354 234.281C465.01 233.963 464.662 233.599 464.307 233.187C463.953 232.77 463.599 232.317 463.25 231.817C462.901 231.317 462.557 230.786 462.229 230.224C461.896 229.661 461.578 229.073 461.276 228.468C460.974 227.859 460.693 227.244 460.432 226.614C460.172 225.989 459.938 225.364 459.729 224.739C459.521 224.119 459.344 223.51 459.193 222.911C459.042 222.317 458.927 221.75 458.844 221.203C458.76 220.661 458.714 220.151 458.698 219.677C458.688 219.203 458.708 218.776 458.76 218.395C458.818 218.01 458.906 217.682 459.026 217.401C459.151 217.125 459.302 216.906 459.49 216.739C459.672 216.578 459.885 216.479 460.125 216.437C460.365 216.395 460.63 216.416 460.917 216.494C461.203 216.578 461.505 216.718 461.828 216.922C462.151 217.125 462.484 217.38 462.828 217.698C463.172 218.01 463.521 218.375 463.875 218.786C464.229 219.203 464.583 219.656 464.932 220.156C465.281 220.656 465.625 221.187 465.958 221.75C466.286 222.312 466.604 222.901 466.906 223.505C467.208 224.114 467.49 224.729 467.75 225.359Z" fill="#006B3F" stroke="black" stroke-width="0.436003"/>
<path d="M463.219 229.838C463.464 230.474 463.687 231.104 463.88 231.729C464.078 232.359 464.24 232.968 464.38 233.567C464.516 234.166 464.62 234.739 464.687 235.286C464.76 235.833 464.797 236.343 464.802 236.812C464.807 237.286 464.776 237.713 464.714 238.093C464.651 238.479 464.557 238.807 464.427 239.083C464.302 239.359 464.141 239.572 463.953 239.734C463.766 239.89 463.552 239.989 463.307 240.026C463.068 240.062 462.807 240.036 462.521 239.947C462.234 239.859 461.937 239.713 461.62 239.505C461.302 239.296 460.974 239.031 460.635 238.708C460.297 238.39 459.953 238.015 459.609 237.593C459.266 237.171 458.922 236.708 458.583 236.203C458.245 235.697 457.911 235.161 457.594 234.588C457.271 234.02 456.964 233.427 456.677 232.812C456.385 232.197 456.12 231.578 455.87 230.942C455.625 230.312 455.401 229.682 455.208 229.057C455.01 228.427 454.844 227.812 454.708 227.218C454.573 226.619 454.469 226.046 454.396 225.5C454.328 224.953 454.286 224.442 454.286 223.974C454.281 223.5 454.307 223.073 454.37 222.687C454.437 222.307 454.531 221.979 454.661 221.703C454.786 221.427 454.948 221.213 455.135 221.052C455.323 220.895 455.536 220.796 455.776 220.76C456.021 220.724 456.281 220.75 456.568 220.838C456.854 220.927 457.151 221.073 457.469 221.281C457.786 221.489 458.115 221.755 458.453 222.078C458.792 222.395 459.13 222.77 459.479 223.192C459.823 223.614 460.167 224.078 460.505 224.583C460.844 225.088 461.177 225.625 461.495 226.197C461.818 226.765 462.12 227.359 462.411 227.974C462.703 228.583 462.969 229.208 463.219 229.838Z" fill="#006B3F" stroke="black" stroke-width="0.436021"/>
<path d="M466.265 213.891C466.489 214.36 466.692 214.829 466.875 215.292C467.057 215.756 467.213 216.214 467.343 216.657C467.479 217.105 467.583 217.532 467.661 217.938C467.739 218.349 467.786 218.73 467.807 219.089C467.828 219.443 467.823 219.766 467.781 220.052C467.744 220.344 467.682 220.594 467.588 220.808C467.494 221.016 467.375 221.188 467.224 221.313C467.078 221.438 466.906 221.521 466.713 221.558C466.52 221.589 466.307 221.579 466.073 221.526C465.838 221.469 465.588 221.365 465.323 221.219C465.057 221.073 464.781 220.886 464.494 220.657C464.208 220.427 463.922 220.157 463.625 219.855C463.328 219.547 463.031 219.209 462.739 218.839C462.448 218.474 462.156 218.079 461.875 217.662C461.599 217.24 461.328 216.808 461.067 216.355C460.812 215.901 460.573 215.443 460.349 214.974C460.125 214.511 459.922 214.042 459.739 213.579C459.557 213.11 459.401 212.657 459.27 212.209C459.135 211.766 459.031 211.339 458.953 210.927C458.875 210.521 458.828 210.136 458.807 209.782C458.786 209.427 458.791 209.105 458.828 208.813C458.869 208.526 458.932 208.276 459.026 208.063C459.119 207.849 459.239 207.683 459.39 207.558C459.536 207.427 459.708 207.349 459.901 207.313C460.093 207.276 460.307 207.287 460.541 207.344C460.776 207.401 461.026 207.5 461.291 207.646C461.557 207.792 461.833 207.98 462.119 208.214C462.406 208.443 462.692 208.709 462.989 209.016C463.286 209.323 463.578 209.657 463.875 210.026C464.166 210.396 464.458 210.792 464.734 211.209C465.015 211.625 465.286 212.063 465.547 212.516C465.802 212.964 466.041 213.422 466.265 213.891Z" fill="#006B3F" stroke="black" stroke-width="0.438328"/>
<path d="M462.438 217.01C462.636 217.49 462.807 217.964 462.958 218.438C463.11 218.917 463.24 219.38 463.344 219.828C463.448 220.281 463.526 220.714 463.578 221.125C463.63 221.536 463.656 221.922 463.656 222.276C463.651 222.635 463.625 222.958 463.568 223.245C463.516 223.531 463.432 223.776 463.328 223.984C463.219 224.188 463.089 224.349 462.932 224.469C462.781 224.589 462.604 224.656 462.406 224.682C462.214 224.708 462 224.688 461.771 224.615C461.537 224.547 461.297 224.432 461.042 224.271C460.787 224.115 460.521 223.911 460.25 223.661C459.979 223.417 459.703 223.135 459.427 222.813C459.151 222.495 458.88 222.141 458.61 221.755C458.339 221.37 458.078 220.964 457.823 220.531C457.568 220.099 457.328 219.651 457.099 219.182C456.87 218.719 456.656 218.245 456.464 217.766C456.271 217.292 456.094 216.813 455.943 216.339C455.792 215.865 455.662 215.401 455.557 214.948C455.453 214.495 455.375 214.063 455.323 213.651C455.271 213.24 455.245 212.854 455.245 212.5C455.25 212.146 455.276 211.823 455.333 211.536C455.386 211.25 455.469 211 455.573 210.797C455.682 210.589 455.813 210.427 455.969 210.307C456.12 210.193 456.297 210.12 456.495 210.094C456.688 210.073 456.901 210.094 457.136 210.161C457.365 210.229 457.604 210.344 457.865 210.505C458.12 210.667 458.38 210.87 458.651 211.115C458.922 211.359 459.198 211.641 459.474 211.964C459.75 212.286 460.021 212.635 460.292 213.021C460.563 213.406 460.823 213.813 461.078 214.25C461.333 214.682 461.578 215.13 461.802 215.594C462.031 216.057 462.245 216.531 462.438 217.01Z" fill="#006B3F" stroke="black" stroke-width="0.43797"/>
<path d="M456.453 212.859C459.292 219.792 460.438 226.021 459.016 226.771C457.594 227.521 454.141 222.505 451.302 215.573" fill="#006B3F"/>
<path d="M456.453 212.859C459.292 219.792 460.438 226.021 459.016 226.771C457.594 227.521 454.141 222.505 451.302 215.573" stroke="black" stroke-width="0.430612"/>
<path d="M461.974 208.87C462.167 209.349 462.339 209.823 462.49 210.297C462.646 210.771 462.771 211.234 462.875 211.688C462.979 212.141 463.057 212.573 463.109 212.984C463.162 213.396 463.188 213.781 463.188 214.135C463.188 214.495 463.156 214.813 463.104 215.099C463.047 215.385 462.969 215.635 462.859 215.839C462.75 216.047 462.62 216.208 462.469 216.328C462.313 216.443 462.136 216.516 461.943 216.542C461.745 216.568 461.531 216.542 461.302 216.474C461.073 216.406 460.828 216.292 460.573 216.13C460.318 215.969 460.052 215.766 459.781 215.521C459.511 215.276 459.24 214.995 458.964 214.672C458.688 214.349 458.412 214 458.141 213.615C457.87 213.229 457.609 212.823 457.354 212.391C457.099 211.953 456.859 211.505 456.63 211.042C456.401 210.578 456.188 210.104 455.995 209.625C455.802 209.146 455.63 208.672 455.474 208.198C455.323 207.724 455.198 207.26 455.094 206.807C454.984 206.354 454.906 205.922 454.854 205.51C454.802 205.099 454.776 204.714 454.781 204.359C454.781 204 454.807 203.682 454.865 203.396C454.922 203.104 455 202.859 455.109 202.656C455.214 202.448 455.344 202.286 455.5 202.167C455.656 202.052 455.828 201.979 456.026 201.953C456.224 201.927 456.438 201.953 456.667 202.021C456.896 202.089 457.141 202.203 457.396 202.365C457.651 202.526 457.912 202.729 458.182 202.974C458.453 203.219 458.729 203.5 459.005 203.823C459.281 204.141 459.552 204.495 459.823 204.88C460.094 205.266 460.359 205.672 460.615 206.104C460.865 206.536 461.109 206.99 461.339 207.453C461.568 207.917 461.776 208.391 461.974 208.87Z" fill="#006B3F" stroke="black" stroke-width="0.43797"/>
<path d="M457.229 211.214C457.417 211.693 457.578 212.177 457.719 212.651C457.859 213.13 457.979 213.594 458.073 214.047C458.167 214.505 458.234 214.938 458.281 215.349C458.323 215.761 458.338 216.146 458.328 216.505C458.318 216.86 458.286 217.182 458.224 217.464C458.161 217.75 458.073 217.995 457.963 218.198C457.849 218.406 457.719 218.563 457.562 218.677C457.401 218.792 457.224 218.86 457.031 218.88C456.833 218.901 456.62 218.875 456.391 218.802C456.161 218.729 455.922 218.61 455.672 218.443C455.417 218.281 455.161 218.073 454.896 217.823C454.63 217.573 454.359 217.281 454.094 216.953C453.823 216.63 453.557 216.271 453.297 215.88C453.036 215.495 452.781 215.078 452.536 214.641C452.292 214.203 452.062 213.75 451.844 213.281C451.625 212.813 451.422 212.334 451.239 211.854C451.057 211.37 450.896 210.891 450.75 210.412C450.609 209.938 450.495 209.469 450.401 209.016C450.302 208.563 450.234 208.13 450.193 207.714C450.151 207.302 450.13 206.917 450.141 206.563C450.151 206.209 450.187 205.886 450.25 205.599C450.307 205.313 450.396 205.068 450.51 204.865C450.62 204.662 450.755 204.5 450.911 204.386C451.068 204.271 451.245 204.203 451.443 204.182C451.641 204.162 451.849 204.188 452.078 204.261C452.307 204.334 452.547 204.453 452.802 204.62C453.052 204.787 453.312 204.995 453.578 205.245C453.844 205.495 454.109 205.781 454.38 206.11C454.646 206.438 454.911 206.792 455.177 207.182C455.437 207.573 455.687 207.985 455.932 208.422C456.177 208.86 456.411 209.318 456.63 209.787C456.849 210.255 457.047 210.729 457.229 211.214Z" fill="#006B3F" stroke="black" stroke-width="0.437831"/>
<path d="M451.516 203.443C454.271 208.13 455.755 212.5 454.828 213.208C453.901 213.911 450.911 210.688 448.156 206" fill="#006B3F"/>
<path d="M451.516 203.443C454.271 208.13 455.755 212.5 454.828 213.208C453.901 213.911 450.911 210.688 448.156 206" stroke="black" stroke-width="0.430612"/>
<path d="M453.427 200.339C456.177 205.021 457.661 209.396 456.734 210.104C455.807 210.807 452.818 207.578 450.062 202.896M461.99 200.995C465.828 207.396 467.896 213.37 466.599 214.333C465.307 215.302 461.141 210.891 457.302 204.495" fill="#006B3F"/>
<path d="M453.427 200.339C456.177 205.021 457.661 209.396 456.734 210.104C455.807 210.807 452.818 207.578 450.062 202.896M461.99 200.995C465.828 207.396 467.896 213.37 466.599 214.333C465.307 215.302 461.141 210.891 457.302 204.495" stroke="black" stroke-width="0.430612"/>
<path d="M456.328 197.646C459.094 202.818 460.589 207.641 459.661 208.417C458.734 209.193 455.74 205.625 452.974 200.458" fill="#006B3F"/>
<path d="M456.328 197.646C459.094 202.818 460.589 207.641 459.661 208.417C458.734 209.193 455.74 205.625 452.974 200.458" stroke="black" stroke-width="0.430612"/>
<path d="M456.083 190.156C454.24 192.01 456.047 195.49 457.734 196.745C459.63 198.464 470.276 209.687 477.781 200.245C471.766 200.135 460.536 186.01 456.083 190.156Z" fill="#9461C9" stroke="black" stroke-width="0.442594"/>
<path d="M454.771 184.615C452.922 186.474 454.734 189.948 456.422 191.203C458.318 192.922 468.958 204.151 476.469 194.703C470.453 194.594 459.224 180.469 454.771 184.615Z" fill="#9461C9" stroke="black" stroke-width="0.442594"/>
<path d="M453.089 179.302C451.24 181.161 453.047 184.635 454.74 185.896C456.635 187.609 467.276 198.839 474.786 189.391C468.771 189.281 457.542 175.161 453.089 179.302Z" fill="#9461C9" stroke="black" stroke-width="0.442594"/>
<path d="M449.432 173.229C447.583 175.089 449.396 178.562 451.083 179.818C452.979 181.536 463.62 192.766 471.13 183.318C465.115 183.208 453.885 169.089 449.432 173.229Z" fill="#9461C9" stroke="black" stroke-width="0.442594"/>
<path d="M436.318 167.417C440.12 164.583 447.109 163.76 452.552 166.531C457.089 168.75 464.646 177.818 470.328 179.964C466.328 180.672 463.896 180.073 461.339 178.844C456.292 182.5 454.495 183.047 449.349 183.766C442.198 184.797 436.26 182.932 434.172 179.203C432.047 175.682 432.964 170.036 436.318 167.417Z" fill="#9461C9" stroke="black" stroke-width="0.470303"/>
<path d="M447.667 173.12C447.662 173.37 447.573 173.615 447.401 173.844C447.235 174.073 446.99 174.276 446.682 174.448C446.37 174.62 446.016 174.75 445.61 174.839C445.208 174.927 444.787 174.969 444.354 174.964C443.922 174.953 443.505 174.896 443.104 174.797C442.703 174.693 442.349 174.547 442.047 174.365C441.745 174.182 441.511 173.969 441.349 173.734C441.188 173.5 441.11 173.255 441.11 173.005C441.115 172.75 441.203 172.51 441.375 172.281C441.547 172.052 441.787 171.849 442.094 171.677C442.406 171.505 442.761 171.375 443.167 171.281C443.568 171.193 443.99 171.151 444.422 171.161C444.854 171.167 445.276 171.224 445.672 171.328C446.073 171.432 446.427 171.573 446.729 171.76C447.031 171.943 447.266 172.151 447.427 172.385C447.589 172.625 447.667 172.87 447.667 173.12Z" fill="#D41C30" stroke="black" stroke-width="0.428395"/>
<path d="M438.677 179.162C438.802 179.505 438.818 179.88 438.719 180.281C438.62 180.682 438.417 181.078 438.104 181.474C437.797 181.865 437.401 182.229 436.927 182.552C436.453 182.88 435.927 183.151 435.365 183.365C434.797 183.573 434.224 183.708 433.651 183.771C433.078 183.833 432.542 183.818 432.052 183.724C431.557 183.63 431.146 183.464 430.807 183.224C430.474 182.985 430.24 182.693 430.115 182.344C429.984 182 429.969 181.625 430.068 181.224C430.167 180.823 430.37 180.427 430.682 180.031C430.995 179.641 431.385 179.276 431.859 178.953C432.339 178.625 432.859 178.354 433.427 178.141C433.995 177.932 434.563 177.797 435.135 177.735C435.714 177.667 436.245 177.688 436.734 177.781C437.229 177.875 437.641 178.042 437.979 178.281C438.313 178.521 438.547 178.813 438.677 179.162Z" fill="#FCD116" stroke="black" stroke-width="0.463646"/>
<path d="M445.396 172.953C445.391 173.234 445.271 173.474 445.036 173.667C444.807 173.865 444.526 173.958 444.198 173.953C443.875 173.948 443.599 173.839 443.375 173.641C443.146 173.438 443.036 173.193 443.042 172.911C443.047 172.63 443.167 172.391 443.396 172.198C443.63 172 443.911 171.906 444.234 171.911C444.563 171.922 444.839 172.026 445.063 172.229C445.292 172.432 445.401 172.672 445.396 172.953Z" fill="black"/>
<path d="M437.172 175.604C437.474 177.062 436.391 179.036 434.042 179.734C431.651 180.724 429.833 182.969 428.786 186.646C425.151 178.266 427.464 174.724 431.328 173.865C434.646 172.802 436.651 172.937 437.172 175.604Z" fill="#FCD116" stroke="black" stroke-width="0.548188"/>
</g>
<defs>
<clipPath id="clip0_0_1">
<rect width="900" height="450" fill="white"/>
</clipPath>
</defs>
</svg>
