<svg width="900" height="450" viewBox="0 0 900 450" fill="none" xmlns="http://www.w3.org/2000/svg">
<g clip-path="url(#clip0_763_9700)">
<path d="M900 0H0V450H900V0Z" fill="#1E1E1E"/>
<mask id="mask0_763_9700" style="mask-type:luminance" maskUnits="userSpaceOnUse" x="0" y="0" width="900" height="450">
<path d="M900 0H0V450H900V0Z" fill="white"/>
</mask>
<g mask="url(#mask0_763_9700)">
<mask id="mask1_763_9700" style="mask-type:luminance" maskUnits="userSpaceOnUse" x="0" y="0" width="900" height="450">
<path d="M0 0H900V450H0V0Z" fill="white"/>
</mask>
<g mask="url(#mask1_763_9700)">
<path d="M0 0H900V450H0V0Z" fill="white"/>
<path d="M0 0H900V450H0V0Z" fill="white"/>
</g>
<path d="M0 0H450V450H0V0Z" fill="#006233"/>
<path d="M469.948 316.333C419.901 316.333 379.333 275.74 379.333 225.667C379.333 175.594 419.901 135 469.948 135C503.104 135 532.104 152.823 547.901 179.417C530.104 138.891 489.63 110.589 442.557 110.589C379.042 110.589 327.552 162.109 327.552 225.667C327.552 289.224 379.042 340.745 442.557 340.745C489.63 340.745 530.099 312.443 547.901 271.917C532.104 298.51 503.104 316.333 469.948 316.333Z" fill="#D21034"/>
<path d="M509.385 277.505L486.625 246.135L450.245 259.458L472.557 226.75L449.792 195.385L486.344 206.536L508.656 173.828L508.938 213.432L545.49 224.583L509.109 237.906L509.385 277.505Z" fill="#D21034"/>
</g>
</g>
<defs>
<clipPath id="clip0_763_9700">
<rect width="900" height="450" fill="white"/>
</clipPath>
</defs>
</svg>
