<svg width="900" height="450" viewBox="0 0 900 450" fill="none" xmlns="http://www.w3.org/2000/svg">
<rect width="900" height="450" fill="#1E1E1E"/>
<g clip-path="url(#clip0_0_1)">
<rect width="900" height="450" fill="white"/>
<rect width="900" height="450" fill="black"/>
<rect width="900" height="300" fill="white"/>
<rect width="900" height="150" fill="#CE1126"/>
<path d="M449.628 294C463.905 294 477.564 292.867 485.575 290.612C488.964 289.995 488.964 288.25 488.964 285.994C492.357 284.866 490.607 280.861 492.969 280.861C490.607 281.478 490.097 276.861 487.219 277.478C487.219 273.472 483.214 272.961 479.825 274.089C473.043 276.35 461.027 276.861 449.628 276.861C438.223 276.35 426.308 276.35 419.43 274.089C416.037 272.961 412.036 273.472 412.036 277.478C409.159 276.861 408.643 281.478 406.281 280.861C408.643 280.861 406.898 284.866 410.286 285.994C410.286 288.25 410.286 289.995 413.781 290.612C421.686 292.867 435.351 294 449.628 294Z" fill="white" stroke="#FAC800" stroke-width="1.75235" stroke-linecap="round" stroke-linejoin="round"/>
<path d="M417.155 279.733C416.027 279.733 416.027 280.35 417.155 280.35C417.665 280.35 417.665 279.733 417.155 279.733Z" fill="#FDD220" stroke="#FAC800" stroke-width="0.936198" stroke-linecap="round" stroke-linejoin="round"/>
<path d="M417.155 277.478C416.538 277.478 416.538 278.605 417.155 278.605C418.287 278.605 418.287 277.478 417.155 277.478Z" fill="#FDD220" stroke="#FAC800" stroke-width="0.936198" stroke-linecap="round" stroke-linejoin="round"/>
<path d="M417.155 285.994C416.538 285.994 416.538 287.122 417.155 287.122C417.665 287.122 417.665 285.994 417.155 285.994Z" fill="#FDD220" stroke="#FAC800" stroke-width="0.936198" stroke-linecap="round" stroke-linejoin="round"/>
<path d="M419.41 286.606C418.287 286.606 418.287 287.739 419.41 287.739C420.032 287.739 420.032 286.606 419.41 286.606Z" fill="#FDD220" stroke="#FAC800" stroke-width="0.936198" stroke-linecap="round" stroke-linejoin="round"/>
<path d="M421.676 287.122C421.16 287.122 421.16 288.255 421.676 288.255C422.804 288.255 422.804 287.122 421.676 287.122Z" fill="#FDD220" stroke="#FAC800" stroke-width="0.936198" stroke-linecap="round" stroke-linejoin="round"/>
<path d="M457.007 281.478C456.491 281.478 456.491 282.606 457.007 282.606C457.624 282.606 457.624 281.478 457.007 281.478Z" fill="#FDD220" stroke="#FAC800" stroke-width="0.936198" stroke-linecap="round" stroke-linejoin="round"/>
<path d="M457.624 283.739C456.491 283.739 456.491 284.254 457.624 284.254C458.134 284.254 458.134 283.739 457.624 283.739Z" fill="#FDD220" stroke="#FAC800" stroke-width="0.936198" stroke-linecap="round" stroke-linejoin="round"/>
<path d="M459.262 289.383C458.751 289.383 458.751 290.612 459.262 290.612C459.879 290.612 459.879 289.383 459.262 289.383Z" fill="#FDD220" stroke="#FAC800" stroke-width="0.936198" stroke-linecap="round" stroke-linejoin="round"/>
<path d="M461.624 289.383C460.39 289.383 460.39 290.612 461.624 290.612C462.14 290.612 462.14 289.383 461.624 289.383Z" fill="#FDD220" stroke="#FAC800" stroke-width="0.936198" stroke-linecap="round" stroke-linejoin="round"/>
<path d="M484.943 284.861C483.811 284.861 483.811 285.478 484.943 285.478C485.56 285.478 485.56 284.861 484.943 284.861Z" fill="#FDD220" stroke="#FAC800" stroke-width="0.936198" stroke-linecap="round" stroke-linejoin="round"/>
<path d="M419.43 277.478C418.813 279.733 418.302 281.994 417.68 283.122C417.68 284.249 418.302 284.866 418.813 284.866C420.558 285.483 420.558 285.483 421.175 283.122M421.175 283.122C421.175 281.994 421.686 281.994 421.175 283.122ZM421.175 283.122C420.558 284.866 420.047 285.483 422.303 285.994C423.946 286.611 424.563 285.994 425.079 283.739C425.079 282.606 423.946 283.122 424.563 283.739" stroke="#FAC800" stroke-width="0.936291" stroke-linecap="round" stroke-linejoin="round"/>
<path d="M418.297 281.994C415.425 282.606 416.552 284.249 418.813 284.866" stroke="#FAC800" stroke-width="0.936291" stroke-linecap="round" stroke-linejoin="round"/>
<path d="M425.696 288.255C426.824 287.739 427.441 286.611 427.441 285.483C426.824 283.739 426.308 284.254 426.824 285.483C426.824 286.611 427.441 287.122 429.085 287.122C430.212 287.122 431.345 286.611 432.574 285.994C433.707 285.483 433.707 283.739 432.574 283.122C430.829 282.611 429.702 284.866 431.345 285.994C431.957 286.611 432.574 287.122 433.707 287.739C433.707 288.255 433.707 289.383 434.835 289.383C435.351 290 436.478 288.255 436.478 286.611V281.483" stroke="#FAC800" stroke-width="0.936291" stroke-linecap="round" stroke-linejoin="round"/>
<path d="M438.845 281.478C438.845 283.122 438.228 285.994 438.228 287.739" stroke="#FAC800" stroke-width="0.936291" stroke-linecap="round" stroke-linejoin="round"/>
<path d="M439.973 291.122C442.234 289.383 442.234 288.25 442.234 287.122C441.617 285.478 440.484 285.994 441.101 287.122C441.617 287.739 442.234 288.25 443.362 288.25M443.362 288.25C443.979 288.25 444.489 287.739 444.489 285.478C444.489 284.861 443.979 284.861 443.979 285.478C443.979 285.994 445.622 285.994 446.234 285.994C447.367 286.606 450.245 286.606 450.755 285.994C451.372 285.994 451.372 287.739 451.372 287.739C451.372 288.25 450.755 288.867 450.755 289.383C450.245 290.612 449.628 289.995 449.011 289.383C449.011 288.25 447.878 288.25 447.367 288.25H443.362Z" stroke="#FAC800" stroke-width="0.936291" stroke-linecap="round" stroke-linejoin="round"/>
<path d="M451.372 288.255C451.888 288.255 453.016 287.739 453.633 288.255M453.633 288.255C454.149 288.255 455.378 287.739 455.378 287.122C455.378 285.483 452.505 285.483 453.633 288.255Z" stroke="#FAC800" stroke-width="0.936291" stroke-linecap="round" stroke-linejoin="round"/>
<path d="M459.282 281.478C459.899 283.739 459.899 286.606 459.282 287.739C458.766 288.25 457.638 288.25 457.638 287.739C458.154 287.122 459.282 286.606 459.899 287.122C459.899 287.739 460.41 288.25 461.644 287.739C462.772 287.739 463.288 287.739 463.288 284.861C463.288 284.249 461.644 284.249 463.288 285.478" stroke="#FAC800" stroke-width="0.936291" stroke-linecap="round" stroke-linejoin="round"/>
<path d="M465.032 289.995C466.16 288.867 467.293 286.606 466.676 285.478C465.543 284.249 465.032 284.249 465.032 285.478C465.032 285.994 465.543 286.606 466.676 287.122" stroke="#FAC800" stroke-width="0.936291" stroke-linecap="round" stroke-linejoin="round"/>
<path d="M469.038 288.867C470.676 288.255 470.676 287.122 470.676 285.994C470.676 284.866 470.166 284.249 469.549 284.866C468.421 285.483 468.421 286.611 469.549 286.611C471.809 286.611 475.815 285.994 478.692 284.249" stroke="#FAC800" stroke-width="0.936291" stroke-linecap="round" stroke-linejoin="round"/>
<path d="M473.043 285.994C473.043 284.866 473.554 283.739 474.687 283.739C475.304 283.122 476.947 283.739 476.947 284.866C477.559 285.994 476.432 287.122 475.304 286.611C474.687 285.483 474.171 282.611 473.554 280.35" stroke="#FAC800" stroke-width="0.936291" stroke-linecap="round" stroke-linejoin="round"/>
<path d="M482.081 283.122C480.953 281.994 478.075 283.122 478.692 284.249C479.304 285.994 482.698 284.861 482.081 283.122Z" stroke="#FAC800" stroke-width="0.936291" stroke-linecap="round" stroke-linejoin="round"/>
<path d="M482.081 283.739C482.081 283.739 483.209 283.122 483.826 282.611" stroke="#FAC800" stroke-width="0.936291" stroke-linecap="round" stroke-linejoin="round"/>
<path d="M479.309 277.478C480.437 276.345 482.698 276.345 482.698 278.605C482.698 282.606 484.341 284.249 486.703 282.606C486.703 281.994 486.703 281.478 486.091 282.606" stroke="#FAC800" stroke-width="0.936291" stroke-linecap="round" stroke-linejoin="round"/>
<path d="M429.702 284.254H430.829" stroke="#FAC800" stroke-width="0.936291" stroke-linecap="round" stroke-linejoin="round"/>
<path d="M433.707 284.861H434.218" stroke="#FAC800" stroke-width="0.936291" stroke-linecap="round" stroke-linejoin="round"/>
<path d="M450.184 228.603L499.21 274.089L495.721 191.477C495.21 178.96 484.321 181.833 476.412 186.349C468.401 191.477 459.262 191.477 449.608 188.089C439.953 191.477 430.809 191.477 422.799 186.349C414.889 181.833 404.005 178.96 403.49 191.477L400 274.089L450.179 228.603H450.184Z" fill="white" stroke="#FAC800" stroke-width="0.936198" stroke-linecap="round" stroke-linejoin="round"/>
<path d="M457.633 190.966C460.41 192.61 463.283 192.61 465.032 192.61C459.282 188.605 457.633 177.832 458.149 173.311C459.282 164.177 457.022 159.049 451.372 157.922C450.24 157.922 449.623 157.305 447.367 157.305C445.617 156.794 444.317 158.432 443.7 159.56C441.951 158.432 440.484 159.049 438.84 157.922C437.09 157.305 434.218 157.921 434.218 161.922L435.336 161.452C435.846 161.532 436.792 162.089 437.94 162.721C439.427 163.889 441.612 164.693 442.229 168.694C443.357 177.215 442.229 185.216 434.218 192.61C435.963 192.61 438.84 192.61 441.612 190.966C440.484 192.61 439.968 193.222 438.84 194.35C442.229 193.733 445.106 192.61 446.75 189.833C447.367 190.966 449.011 192.605 449.623 193.733C450.24 192.605 451.883 190.966 452.5 189.833C454.144 192.605 457.021 193.733 460.41 194.35C459.282 193.222 458.766 192.61 457.633 190.966Z" fill="white" stroke="#FAC800" stroke-width="0.876174" stroke-linecap="square"/>
<path d="M454.761 180.088C454.761 184.705 456.248 188.089 457.992 191.477" stroke="#FAC800" stroke-width="0.936291" stroke-linecap="round" stroke-linejoin="round"/>
<path d="M452.5 189.839C451.372 188.094 450.755 184.705 450.755 180.088" stroke="#FAC800" stroke-width="0.936291" stroke-linecap="round" stroke-linejoin="round"/>
<path d="M444.489 180.088C444.489 184.705 443.003 188.089 441.258 191.477" stroke="#FAC800" stroke-width="0.936291" stroke-linecap="round" stroke-linejoin="round"/>
<path d="M446.75 189.839C447.878 188.094 448.495 184.705 448.495 180.088" stroke="#FAC800" stroke-width="0.936291" stroke-linecap="round" stroke-linejoin="round"/>
<path d="M434.577 161.386C435.781 161.467 436.312 161.881 437.925 162.721C439.058 163.338 441.597 164.693 442.214 168.183C441.597 166.438 442.73 164.693 443.964 165.31C442.214 161.305 436.833 160.258 434.577 161.386Z" fill="#FAC800" stroke="#FAC800" stroke-width="0.438268" stroke-linecap="round" stroke-linejoin="round"/>
<path d="M451.888 237.656L458.771 268.961L456.511 271.217L454.149 269.472L450.245 241.56L451.888 269.472L449.628 272.344L447.367 269.472L449.011 241.56L445.106 269.472L442.745 271.217L440.484 268.961L447.367 237.656H451.888Z" fill="#FAC800" stroke="#FAC800" stroke-width="0.791383" stroke-linecap="square"/>
<path d="M409.154 188.605L405.765 268.961L400.015 274.089L403.505 191.477C405.148 190.349 408.026 188.605 409.154 188.605Z" fill="#FAC800"/>
<path d="M416.037 194.355L413.159 261.572L407.409 267.454L410.904 189.839C412.031 190.966 415.425 193.738 416.037 194.355Z" fill="#FAC800"/>
<path d="M422.303 199.483L420.047 255.544L415.425 260.06L418.303 196.095C419.43 197.227 421.686 198.866 422.303 199.483Z" fill="#FAC800"/>
<path d="M429.08 202.356L426.819 250.138L422.303 253.799L424.564 200.611C425.691 201.122 427.952 202.356 429.08 202.356Z" fill="#FAC800"/>
<path d="M435.346 202.356L433.702 242.172L429.085 246.688L430.83 202.866C431.957 202.866 434.835 202.866 435.346 202.356Z" fill="#FAC800"/>
<path d="M490.097 188.605L493.485 268.961L499.236 274.089L495.746 191.477C494.102 190.349 491.225 188.605 490.097 188.605Z" fill="#FAC800"/>
<path d="M483.214 194.355L486.092 261.572L491.842 266.599L488.352 189.839C487.219 190.966 483.831 193.738 483.214 194.355Z" fill="#FAC800"/>
<path d="M476.928 199.483L479.289 255.544L483.811 259.205L480.933 196.095C479.805 197.222 477.545 198.866 476.928 199.483Z" fill="#FAC800"/>
<path d="M470.166 202.356L472.427 249.288L476.943 252.949L474.687 200.616C473.554 201.127 471.294 202.356 470.166 202.356Z" fill="#FAC800"/>
<path d="M463.905 202.356L465.548 242.172L470.166 246.688L468.421 202.866C467.293 202.866 464.416 202.866 463.905 202.356Z" fill="#FAC800"/>
<path d="M434.218 223.91L420.558 272.349L439.356 275.222L447.367 238.789L434.218 223.91Z" fill="white" stroke="#FAC800" stroke-width="0.876174" stroke-linecap="round" stroke-linejoin="round"/>
<path d="M465.032 223.91L478.692 272.349L459.894 275.222L451.883 238.789L465.032 223.91Z" fill="white" stroke="#FAC800" stroke-width="0.876174" stroke-linecap="round" stroke-linejoin="round"/>
<path d="M429.702 240.432L431.345 244.433L436.478 238.789" stroke="#FAC800" stroke-width="0.936291" stroke-linecap="round" stroke-linejoin="round"/>
<path d="M435.963 231.911L437.707 247.821L443.356 240.432" stroke="#FAC800" stroke-width="0.936291" stroke-linecap="round" stroke-linejoin="round"/>
<path d="M441.101 243.305L444.489 251.822" stroke="#FAC800" stroke-width="0.936291" stroke-linecap="round" stroke-linejoin="round"/>
<path d="M443.979 254.077L439.356 258.695L436.478 249.561L433.702 254.694L431.345 249.05L426.308 253.566" stroke="#FAC800" stroke-width="0.936291" stroke-linecap="round" stroke-linejoin="round"/>
<path d="M425.074 255.822L428.569 264.344L432.574 259.21L434.835 266.088L439.356 260.343L441.101 268.961" stroke="#FAC800" stroke-width="0.936291" stroke-linecap="round" stroke-linejoin="round"/>
<path d="M424.563 271.217L427.952 266.599L430.829 274.089L434.218 268.339L436.478 275.217L439.968 272.344" stroke="#FAC800" stroke-width="0.936291" stroke-linecap="round" stroke-linejoin="round"/>
<path d="M469.549 240.432L467.91 244.433L462.772 238.789" stroke="#FAC800" stroke-width="0.936291" stroke-linecap="round" stroke-linejoin="round"/>
<path d="M463.282 231.911L461.639 247.821L455.889 240.432" stroke="#FAC800" stroke-width="0.936291" stroke-linecap="round" stroke-linejoin="round"/>
<path d="M458.149 243.305L454.761 251.822" stroke="#FAC800" stroke-width="0.936291" stroke-linecap="round" stroke-linejoin="round"/>
<path d="M455.378 254.077L459.899 258.695L462.155 249.561L465.548 254.694L467.91 249.05L473.043 253.566" stroke="#FAC800" stroke-width="0.936291" stroke-linecap="round" stroke-linejoin="round"/>
<path d="M474.176 255.822L470.681 264.344L466.676 259.21L464.415 266.088L459.899 260.343L458.149 268.961" stroke="#FAC800" stroke-width="0.936291" stroke-linecap="round" stroke-linejoin="round"/>
<path d="M474.687 271.217L471.298 266.599L468.426 274.089L465.037 268.339L462.772 275.217L459.282 272.344" stroke="#FAC800" stroke-width="0.936291" stroke-linecap="round" stroke-linejoin="round"/>
<path d="M449.628 196.1C455.378 200.616 462.772 202.871 471.298 202.356C470.681 222.266 465.032 235.916 449.628 246.183C434.218 235.916 428.569 222.266 427.952 202.356C436.478 202.871 443.979 200.616 449.628 196.1Z" fill="white" stroke="#FAC800" stroke-width="0.657243" stroke-linecap="round" stroke-linejoin="round"/>
<path d="M449.628 243.917C461.644 235.911 468.421 222.266 469.038 203.999C461.644 203.999 454.144 202.356 449.628 198.355C444.489 202.356 437.712 203.999 429.702 203.999C430.829 222.266 437.712 235.911 449.628 243.917Z" fill="#FAC800" stroke="#FAC800" stroke-width="0.876174" stroke-linecap="round" stroke-linejoin="round"/>
<path d="M430.212 272.344C434.835 272.961 439.973 273.472 443.979 272.961C446.234 272.961 447.878 276.861 443.362 277.478C439.356 277.988 433.09 277.478 429.702 276.861C426.824 276.345 420.558 275.217 416.552 274.084C412.547 272.344 415.425 268.956 417.68 269.472C421.175 270.6 425.696 271.727 430.212 272.344Z" fill="white" stroke="#FAC800" stroke-width="0.936291" stroke-linecap="round" stroke-linejoin="round"/>
<path d="M469.038 272.344C464.415 272.961 459.282 273.472 455.378 272.961C453.011 272.961 451.367 276.861 455.889 277.478C459.894 277.988 466.16 277.478 469.549 276.861C472.426 276.345 478.692 275.217 482.698 274.084C486.703 272.344 483.826 268.956 481.565 269.472C478.075 270.6 473.554 271.727 469.038 272.344Z" fill="white" stroke="#FAC800" stroke-width="0.936291" stroke-linecap="round" stroke-linejoin="round"/>
<path d="M416.022 270.089C412.532 269.472 410.889 273.472 412.016 275.733C412.532 274.6 414.894 274.6 415.41 273.472C416.022 271.727 414.894 271.727 416.022 270.089Z" fill="white" stroke="#FAC800" stroke-width="0.936198" stroke-linecap="round" stroke-linejoin="round"/>
<path d="M429.702 280.583C429.702 278.327 431.957 278.605 431.957 276.345C431.957 275.217 431.345 273.472 430.212 273.472C429.085 273.472 427.952 274.6 427.952 275.728C427.441 277.988 429.702 278.327 429.702 280.583Z" fill="white" stroke="#FAC800" stroke-width="0.936291" stroke-linecap="round" stroke-linejoin="round"/>
<path d="M445.956 274.089C449.344 274.089 449.006 278.605 447.362 280.866C447.362 279.222 444.489 278.605 444.489 277.478C444.489 275.733 447.084 275.733 445.956 274.089Z" fill="white" stroke="#FAC800" stroke-width="0.936291" stroke-linecap="round" stroke-linejoin="round"/>
<path d="M483.194 270.089C486.688 269.472 488.332 273.472 487.199 275.733C486.683 274.6 484.327 274.6 483.811 273.472C483.194 271.727 484.327 271.727 483.194 270.089Z" fill="white" stroke="#FAC800" stroke-width="0.936198" stroke-linecap="round" stroke-linejoin="round"/>
<path d="M469.549 280.583C469.549 278.327 467.293 278.605 467.293 276.345C467.293 275.217 467.91 273.472 469.038 273.472C470.171 273.472 471.298 274.6 471.298 275.728C471.814 277.988 469.549 278.327 469.549 280.583Z" fill="white" stroke="#FAC800" stroke-width="0.936291" stroke-linecap="round" stroke-linejoin="round"/>
<path d="M453.289 274.089C449.901 274.089 450.24 278.605 451.883 280.866C451.883 279.222 454.756 278.605 454.756 277.478C454.756 275.733 452.161 275.733 453.289 274.089Z" fill="white" stroke="#FAC800" stroke-width="0.936291" stroke-linecap="round" stroke-linejoin="round"/>
<path d="M417.155 271.217C418.287 271.217 420.032 271.727 420.543 272.344L417.155 271.217Z" fill="white" stroke="#FAC800" stroke-width="0.657178" stroke-linecap="round" stroke-linejoin="round"/>
<path d="M422.804 272.961C423.421 272.961 425.681 273.472 426.809 274.089L422.804 272.961Z" fill="white" stroke="#FAC800" stroke-width="0.657178" stroke-linecap="round" stroke-linejoin="round"/>
<path d="M443.342 275.222C442.214 275.222 439.953 275.222 439.336 275.733L443.342 275.222Z" fill="white" stroke="#FAC800" stroke-width="0.657178" stroke-linecap="round" stroke-linejoin="round"/>
<path d="M437.076 275.222C436.464 274.605 434.203 274.605 433.07 275.222H437.076Z" fill="white" stroke="#FAC800" stroke-width="0.657178" stroke-linecap="round" stroke-linejoin="round"/>
<path d="M482.066 271.217C480.938 271.217 479.289 271.727 478.677 272.344L482.066 271.217Z" fill="white" stroke="#FAC800" stroke-width="0.657178" stroke-linecap="round" stroke-linejoin="round"/>
<path d="M476.417 272.961C475.8 272.961 473.539 273.472 472.406 274.089L476.417 272.961Z" fill="white" stroke="#FAC800" stroke-width="0.657178" stroke-linecap="round" stroke-linejoin="round"/>
<path d="M455.874 275.222C457.007 275.222 459.262 275.222 459.879 275.733L455.874 275.222Z" fill="white" stroke="#FAC800" stroke-width="0.657178" stroke-linecap="round" stroke-linejoin="round"/>
<path d="M462.14 275.222C462.757 274.605 465.017 274.605 466.145 275.222H462.14Z" fill="white" stroke="#FAC800" stroke-width="0.657178" stroke-linecap="round" stroke-linejoin="round"/>
<path d="M457.624 163.055C456.491 160.177 454.458 157.911 451.681 157.396C450.255 156.966 448.778 157.087 447.135 157.087C445.39 156.576 443.964 158.432 443.347 159.56C445.091 160.794 445.481 162.048 446.381 162.438C448.121 163.055 448.996 162.438 450.741 160.794C452.485 159.049 456.491 159.565 457.624 163.055Z" fill="#FAC800" stroke="#FAC800" stroke-width="0.438268" stroke-linecap="round" stroke-linejoin="round"/>
<path d="M446.73 158.645C445.602 158.645 445.602 160.384 446.73 160.384C447.863 160.39 447.863 158.645 446.73 158.645Z" fill="white" stroke="white" stroke-width="0.936198" stroke-linecap="round" stroke-linejoin="round"/>
<path d="M456.592 202.153V237.969C454.539 240.225 452.177 242.172 449.608 243.917C447.039 242.172 444.677 240.225 442.623 237.969V202.047C445.193 201.127 447.554 199.893 449.608 198.355C451.56 199.994 453.922 201.228 456.592 202.153Z" fill="white"/>
</g>
<defs>
<clipPath id="clip0_0_1">
<rect width="900" height="450" fill="white"/>
</clipPath>
</defs>
</svg>
