<svg width="900" height="450" viewBox="0 0 900 450" fill="none" xmlns="http://www.w3.org/2000/svg">
<rect width="900" height="450" fill="#1E1E1E"/>
<g clip-path="url(#clip0_0_1)">
<mask id="mask0_0_1" style="mask-type:luminance" maskUnits="userSpaceOnUse" x="0" y="0" width="900" height="450">
<path d="M0 -3.37219e-06H900V450H0V-3.37219e-06Z" fill="white"/>
</mask>
<g mask="url(#mask0_0_1)">
<path d="M0 -3.37219e-06H900V450H0V-3.37219e-06Z" fill="white"/>
<path d="M0 -3.37219e-06H900V450H0V-3.37219e-06Z" fill="white"/>
</g>
<mask id="mask1_0_1" style="mask-type:luminance" maskUnits="userSpaceOnUse" x="0" y="0" width="900" height="225">
<path d="M0 -3.37219e-06H900V225H0V-3.37219e-06Z" fill="white"/>
</mask>
<g mask="url(#mask1_0_1)">
<path d="M0 -3.37219e-06H900V224.334H0V-3.37219e-06Z" fill="black"/>
</g>
<mask id="mask2_0_1" style="mask-type:luminance" maskUnits="userSpaceOnUse" x="0" y="225" width="900" height="225">
<path d="M0 225H900V450H0V225Z" fill="white"/>
</mask>
<g mask="url(#mask2_0_1)">
<path d="M0 225.666H900V450H0V225.666Z" fill="#007A3D"/>
</g>
<mask id="mask3_0_1" style="mask-type:luminance" maskUnits="userSpaceOnUse" x="0" y="150" width="900" height="150">
<path d="M0 150H900V300H0V150Z" fill="white"/>
</mask>
<g mask="url(#mask3_0_1)">
<path d="M0 150.441H900V299.559H0V150.441Z" fill="white"/>
</g>
<mask id="mask4_0_1" style="mask-type:luminance" maskUnits="userSpaceOnUse" x="0" y="0" width="300" height="450">
<path d="M0 -3.37219e-06H300V450H0V-3.37219e-06Z" fill="white"/>
</mask>
<g mask="url(#mask4_0_1)">
<path d="M0 -3.37219e-06L298.893 225L0 450V-3.37219e-06Z" fill="#C4111B"/>
</g>
<path d="M509.911 224.667C509.911 226.63 509.812 228.589 509.625 230.542C509.432 232.495 509.141 234.432 508.76 236.354C508.375 238.281 507.901 240.182 507.333 242.057C506.76 243.937 506.104 245.781 505.349 247.594C504.599 249.406 503.76 251.177 502.839 252.911C501.911 254.641 500.906 256.323 499.812 257.953C498.724 259.583 497.557 261.156 496.312 262.672C495.068 264.193 493.75 265.646 492.365 267.031C490.974 268.417 489.526 269.734 488.005 270.979C486.49 272.224 484.917 273.391 483.286 274.479C481.651 275.573 479.974 276.578 478.24 277.505C476.51 278.427 474.74 279.266 472.927 280.016C471.115 280.771 469.271 281.427 467.391 282C465.516 282.568 463.615 283.047 461.687 283.427C459.766 283.812 457.823 284.099 455.87 284.292C453.922 284.484 451.964 284.578 450 284.578C448.036 284.578 446.078 284.484 444.13 284.292C442.177 284.099 440.234 283.812 438.312 283.427C436.385 283.047 434.484 282.568 432.609 282C430.729 281.427 428.885 280.771 427.073 280.016C425.26 279.266 423.49 278.427 421.76 277.505C420.026 276.578 418.349 275.573 416.714 274.479C415.083 273.391 413.51 272.224 411.995 270.979C410.474 269.734 409.026 268.417 407.635 267.031C406.25 265.646 404.932 264.193 403.687 262.672C402.443 261.156 401.276 259.583 400.187 257.953C399.094 256.323 398.089 254.641 397.161 252.911C396.24 251.177 395.401 249.406 394.651 247.594C393.896 245.781 393.24 243.937 392.667 242.057C392.099 240.182 391.625 238.281 391.24 236.354C390.859 234.432 390.568 232.495 390.375 230.542C390.187 228.589 390.089 226.63 390.089 224.667C390.089 222.703 390.187 220.75 390.375 218.797C390.568 216.844 390.859 214.901 391.24 212.979C391.625 211.052 392.099 209.151 392.667 207.276C393.24 205.396 393.896 203.552 394.651 201.74C395.401 199.927 396.24 198.156 397.161 196.427C398.089 194.693 399.094 193.016 400.187 191.38C401.276 189.75 402.443 188.177 403.687 186.661C404.932 185.141 406.25 183.693 407.635 182.302C409.026 180.917 410.474 179.599 411.995 178.354C413.51 177.109 415.083 175.943 416.714 174.854C418.349 173.76 420.026 172.755 421.76 171.828C423.49 170.906 425.26 170.068 427.073 169.318C428.885 168.568 430.729 167.906 432.609 167.333C434.484 166.766 436.385 166.292 438.312 165.906C440.234 165.526 442.177 165.234 444.13 165.047C446.078 164.854 448.036 164.755 450 164.755C451.964 164.755 453.922 164.854 455.87 165.047C457.823 165.234 459.766 165.526 461.687 165.906C463.615 166.292 465.516 166.766 467.391 167.333C469.271 167.906 471.115 168.568 472.927 169.318C474.74 170.068 476.51 170.906 478.24 171.828C479.974 172.755 481.651 173.76 483.286 174.854C484.917 175.943 486.49 177.109 488.005 178.354C489.526 179.599 490.974 180.917 492.365 182.302C493.75 183.693 495.068 185.141 496.312 186.661C497.557 188.177 498.724 189.75 499.812 191.38C500.906 193.016 501.911 194.693 502.839 196.427C503.76 198.156 504.599 199.927 505.349 201.74C506.104 203.552 506.76 205.396 507.333 207.276C507.901 209.151 508.375 211.052 508.76 212.979C509.141 214.901 509.432 216.844 509.625 218.797C509.812 220.75 509.911 222.703 509.911 224.667Z" fill="#C4111B"/>
<path d="M532.38 224.667C532.38 226.63 532.281 228.589 532.089 230.542C531.896 232.495 531.609 234.432 531.229 236.354C530.844 238.281 530.37 240.182 529.797 242.057C529.229 243.937 528.568 245.781 527.818 247.594C527.068 249.406 526.229 251.177 525.302 252.911C524.38 254.641 523.37 256.323 522.281 257.953C521.193 259.583 520.026 261.156 518.781 262.672C517.536 264.193 516.219 265.646 514.828 267.031C513.443 268.417 511.99 269.734 510.474 270.979C508.958 272.224 507.385 273.391 505.75 274.479C504.12 275.573 502.437 276.578 500.708 277.505C498.979 278.427 497.208 279.266 495.396 280.016C493.583 280.771 491.734 281.427 489.859 282C487.979 282.568 486.078 283.047 484.156 283.427C482.229 283.812 480.292 284.099 478.339 284.292C476.385 284.484 474.427 284.578 472.469 284.578C470.505 284.578 468.547 284.484 466.594 284.292C464.641 284.099 462.703 283.812 460.776 283.427C458.854 283.047 456.953 282.568 455.073 282C453.198 281.427 451.354 280.771 449.542 280.016C447.729 279.266 445.953 278.427 444.224 277.505C442.495 276.578 440.812 275.573 439.182 274.479C437.552 273.391 435.974 272.224 434.458 270.979C432.943 269.734 431.49 268.417 430.104 267.031C428.714 265.646 427.401 264.193 426.156 262.672C424.911 261.156 423.745 259.583 422.651 257.953C421.562 256.323 420.552 254.641 419.63 252.911C418.703 251.177 417.865 249.406 417.115 247.594C416.365 245.781 415.703 243.937 415.135 242.057C414.568 240.182 414.089 238.281 413.708 236.354C413.323 234.432 413.036 232.495 412.844 230.542C412.651 228.589 412.557 226.63 412.557 224.667C412.557 222.703 412.651 220.75 412.844 218.797C413.036 216.844 413.323 214.901 413.708 212.979C414.089 211.052 414.568 209.151 415.135 207.276C415.703 205.396 416.365 203.552 417.115 201.74C417.865 199.927 418.703 198.156 419.63 196.427C420.552 194.693 421.562 193.016 422.651 191.38C423.745 189.75 424.911 188.177 426.156 186.661C427.401 185.141 428.714 183.693 430.104 182.302C431.49 180.917 432.943 179.599 434.458 178.354C435.974 177.109 437.552 175.943 439.182 174.854C440.812 173.76 442.495 172.755 444.224 171.828C445.953 170.906 447.729 170.068 449.542 169.318C451.354 168.568 453.198 167.906 455.073 167.333C456.953 166.766 458.854 166.292 460.776 165.906C462.703 165.526 464.641 165.234 466.594 165.047C468.547 164.854 470.505 164.755 472.469 164.755C474.427 164.755 476.385 164.854 478.339 165.047C480.292 165.234 482.229 165.526 484.156 165.906C486.078 166.292 487.979 166.766 489.859 167.333C491.734 167.906 493.583 168.568 495.396 169.318C497.208 170.068 498.979 170.906 500.708 171.828C502.437 172.755 504.12 173.76 505.75 174.854C507.385 175.943 508.958 177.109 510.474 178.354C511.99 179.599 513.443 180.917 514.828 182.302C516.219 183.693 517.536 185.141 518.781 186.661C520.026 188.177 521.193 189.75 522.281 191.38C523.37 193.016 524.38 194.693 525.302 196.427C526.229 198.156 527.068 199.927 527.818 201.74C528.568 203.552 529.229 205.396 529.797 207.276C530.37 209.151 530.844 211.052 531.229 212.979C531.609 214.901 531.896 216.844 532.089 218.797C532.281 220.75 532.38 222.703 532.38 224.667Z" fill="white"/>
<path d="M433.917 260.943L459.464 242.682L484.813 261.219L475.339 231.281L500.802 212.901L469.401 212.661L459.792 182.766L449.854 212.557L418.453 212.458L443.719 231.109L433.917 260.943Z" fill="#C4111B"/>
</g>
<defs>
<clipPath id="clip0_0_1">
<rect width="900" height="450" fill="white"/>
</clipPath>
</defs>
</svg>
