<svg width="900" height="450" viewBox="0 0 900 450" fill="none" xmlns="http://www.w3.org/2000/svg">
<g clip-path="url(#clip0_763_12948)">
<path d="M900 0H0V450H900V0Z" fill="#1E1E1E"/>
<mask id="mask0_763_12948" style="mask-type:luminance" maskUnits="userSpaceOnUse" x="0" y="0" width="900" height="450">
<path d="M900 0H0V450H900V0Z" fill="white"/>
</mask>
<g mask="url(#mask0_763_12948)">
<mask id="mask1_763_12948" style="mask-type:luminance" maskUnits="userSpaceOnUse" x="0" y="0" width="900" height="450">
<path d="M0 0H900V450H0V0Z" fill="white"/>
</mask>
<g mask="url(#mask1_763_12948)">
<path d="M0 0H900V450H0V0Z" fill="white"/>
<path d="M0 0H900V450H0V0Z" fill="white"/>
<path d="M0 0H900V450H0V0Z" fill="#EA0437"/>
</g>
<mask id="mask2_763_12948" style="mask-type:luminance" maskUnits="userSpaceOnUse" x="0" y="225" width="900" height="225">
<path d="M0 225H900V450H0V225Z" fill="white"/>
</mask>
<g mask="url(#mask2_763_12948)">
<path d="M0 450H900V225.666" fill="#4189DD"/>
</g>
<mask id="mask3_763_12948" style="mask-type:luminance" maskUnits="userSpaceOnUse" x="0" y="0" width="900" height="225">
<path d="M0 0H900V225H0V0Z" fill="white"/>
</mask>
<g mask="url(#mask3_763_12948)">
<path d="M0 0H900V224.334" fill="#12AD2B"/>
</g>
<path d="M207.583 331.755C197.87 334.438 192.297 341.974 192.443 349.083L240.26 348.891C240.693 341.25 234.406 334.182 224.833 331.401C271.651 330.432 312.323 312.896 319.714 301.646C312.401 298.469 303.948 303.578 297.917 302.401C312.229 295.786 355.115 268.031 348.141 238.276C342.724 254.802 326.302 268.479 319.312 272.151C335.333 247.823 357.203 222.5 338.229 202.891C339.187 214.255 331.005 226.766 327.391 227.703C336.682 202 345.552 169.734 325.417 148.458C328.062 156.151 326.995 177.839 323.354 178.813C322.234 161.339 319.25 124.578 300.844 125.099C306.687 130.302 309.25 144.505 309.38 158.854C305.182 149.026 300.417 141.625 290.219 134.37C281.974 118.552 267.297 105.443 252.62 96.0521C254.266 107.568 255.63 116.651 271.708 128.594C263.323 128.073 254.948 112.182 245.99 111.745C238.859 111.401 233.271 118.198 221.625 114.286C222.917 118.13 228.349 119.833 229.495 122.677C227 124.396 221.078 122.406 216.156 119.844C222.927 129.068 233.422 134.49 242.328 132.656C252.922 130.62 264.276 131.698 275.109 137.865C272.344 139.281 261.573 139.276 254.661 138.411C260.943 144.771 265.156 148.984 276.078 148.911C285.833 148.849 290.948 143.708 293.453 146.896C299.573 154.146 303.687 161.391 308.807 169.927C297.5 171.172 300.911 157.141 288.318 149.958C281.245 164.604 296.458 181.958 306.812 189.177C306.948 200.182 308.557 209.391 313.229 217.771C316.375 223.677 320.443 229.724 318.906 243.057C312.708 238.542 306.651 223.318 308.88 211.229C301.12 213.344 298.089 226.99 301.745 233.854C304.479 239.083 306.302 249.089 303.151 253.563C300.078 257.729 299.76 257.26 299.797 266.208C299.906 271.557 296.917 277.885 292.047 282.297C293.068 278.526 294.224 272.042 293.099 267.984C289.25 274.516 279.594 281.271 276.552 288.292C273.568 295.328 272.807 307.516 258.359 310.323C239.771 314.016 233.354 317.234 221.391 322.13C220.062 313.047 224.036 294.099 231.635 295.177C239.052 296.5 261.542 287.427 253.495 268.484C251.906 274.453 246.609 280.281 240.875 280.542C247.068 272.505 258.12 264.188 252.734 250.729C249.745 256.453 245.042 263.318 237.906 267.182C245.552 252.526 238.792 248.141 229.714 260.208C226.281 264.87 224.208 274.198 222.031 286.052C218.464 276.411 218.698 263.724 214.474 253.422C210.057 242.276 220.333 239.333 225.167 240.229C237.01 243.391 256.797 243.391 255.328 223.823C250.214 230.443 241.245 232.484 231.562 230.104C242.437 222.161 251.026 207.219 238.906 199.422C238.5 207.693 232.099 216.969 223.552 221.24C221.552 214.26 221.552 206.849 223.271 198.729C218.495 203.755 215.01 214.203 212.24 226.089C212.031 214.344 214.25 205.88 215.901 199.563C218.396 190.333 224.604 196.339 234.109 197.021C243.26 197.536 255.859 192.479 253.453 180.073C250.328 184.979 243.911 186.891 237.359 186.37C245.25 181.594 258.995 173.099 251.458 160.036C248.292 164.984 247.266 169.214 238.099 170.734C240.5 165.214 240.896 157.401 248.01 154.307C235.318 151.781 228.052 160.109 224.359 173.156C222.865 164.115 221.078 160.781 220.724 154.167C227.583 146.547 228.302 131.641 213.453 128.307C212.568 135.995 212.833 137.828 214.521 144.089C207.547 139.948 197.724 137.661 191.182 143.521C195.615 148.302 202.474 152.516 213.047 147.297C210.547 155.469 204.052 154.068 195.125 150.953C200.583 161.203 207.469 163.026 215.068 161.844C219.047 172.333 219.224 180.302 207.594 195.578C208.13 186.089 207.458 179.016 199.917 171.339C193.453 165.01 188.198 171.609 198.297 185.682C192.172 181.172 185.234 172.01 183.146 162.854C181.125 174.167 182.948 187.5 189.208 194.974C186.245 198.141 182.88 194.641 177.896 186.896C179.781 211.677 190.354 216.458 204.562 210.932C204.969 224.536 204.969 237.13 205.776 253.563C197.49 241.646 186.99 232.755 181.125 230.531C179.307 237.198 186.177 245.885 190.016 250.734C184.156 249.521 171.432 239.823 171.432 239.823C170.151 250.87 184.427 261.104 193.656 265.682C182.812 265.214 178.031 261.104 171.026 254.37C171.161 285.01 204.224 279.688 210.422 274.974C211.229 290.063 212.38 307.5 213.187 322.583C203.844 320.953 204.578 318.141 196.578 317.401C174.38 316.536 156.776 290.755 150.943 271.792C149.271 274.911 150.599 278.177 149.068 282.01C145.464 272.703 140.859 260.682 134.682 255.083C136.255 260.51 136.422 266.026 135.875 276.172C133.755 269.599 131.786 267.583 131.641 259.87C131.776 253.948 137.354 249.578 137.047 241.245C136.818 235.161 131.271 221.984 130.458 211.776C127.771 222.281 126.083 233.354 121.969 239.854C124.016 228.635 123.359 220.896 126.818 213.349C130.812 205.401 134.208 198.307 131.547 190.286C129 193.385 129.875 196.198 123.469 203.724C122.078 195.542 131.755 182.443 141.146 177.177C147.771 173.688 156.125 161.203 150.682 152.646C144.453 157.12 141.656 163.161 132.854 173.495C139.13 148.953 155.443 142.536 174.969 142.448C179.292 142.432 188 140.87 190.443 135.151C184.943 137.276 178.432 137.547 172.641 136.391C176.859 130.203 185.734 131.005 194.005 130.969C200.49 130.938 210.62 130.057 214.714 120.818C206.797 124.245 194.458 124.958 186.687 122.531C199.047 116.13 218.401 115.438 228.333 107.036C217.016 98.5885 188.698 109.005 170.812 121.271C175.812 116.698 183.708 108.589 188.068 102.042C178.286 97.3542 153.547 124.76 145.026 141.047C136.932 145.615 133.693 152.781 130.547 157.781C134.865 143.208 135.318 132.635 138.917 120.63C111.172 130.182 122.703 181.453 116.667 193.719C117.38 180.177 116.802 162.781 111.229 153.807C102.682 160.328 101.99 198.703 110.016 230.656C107.12 222.104 101.651 214.125 99.8958 203.719C87.2448 226.786 107.307 254.005 124.089 275.505C111.458 268.927 98.9687 254.776 90.7656 242.911C93.0312 284.203 136.146 292.781 142.844 302.927C133.755 298.698 116.385 290.333 109.016 299.099C121.016 301.87 130.583 305.073 138.297 310.13C149.49 324.099 170.677 330.208 207.583 331.755Z" fill="#FFC726"/>
</g>
</g>
<defs>
<clipPath id="clip0_763_12948">
<rect width="900" height="450" fill="white"/>
</clipPath>
</defs>
</svg>
