<svg width="900" height="450" viewBox="0 0 900 450" fill="none" xmlns="http://www.w3.org/2000/svg">
<g clip-path="url(#clip0_763_13719)">
<path d="M900 0H0V450H900V0Z" fill="#1E1E1E"/>
<mask id="mask0_763_13719" style="mask-type:luminance" maskUnits="userSpaceOnUse" x="0" y="0" width="900" height="450">
<path d="M900 0H0V450H900V0Z" fill="white"/>
</mask>
<g mask="url(#mask0_763_13719)">
<path d="M900 0H0V450H900V0Z" fill="white"/>
<mask id="mask1_763_13719" style="mask-type:luminance" maskUnits="userSpaceOnUse" x="0" y="0" width="900" height="450">
<path d="M0 0H900V450H0V0Z" fill="white"/>
</mask>
<g mask="url(#mask1_763_13719)">
<path d="M0 0H900V450H0V0Z" fill="white"/>
<path d="M0 0H900V450H0V0Z" fill="white"/>
<path d="M0 0H900V450H0V0Z" fill="#DA121A"/>
</g>
<mask id="mask2_763_13719" style="mask-type:luminance" maskUnits="userSpaceOnUse" x="0" y="0" width="900" height="300">
<path d="M0 0H900V300H0V0Z" fill="white"/>
</mask>
<g mask="url(#mask2_763_13719)">
<path d="M0 0H900V299.557H0V0Z" fill="#FCDD09"/>
</g>
<mask id="mask3_763_13719" style="mask-type:luminance" maskUnits="userSpaceOnUse" x="0" y="0" width="900" height="150">
<path d="M0 0H900V150H0V0Z" fill="white"/>
</mask>
<g mask="url(#mask3_763_13719)">
<path d="M0 0H900V149.113H0V0Z" fill="#078930"/>
</g>
<path d="M599.552 224.776C599.552 227.229 599.495 229.677 599.375 232.125C599.255 234.573 599.073 237.016 598.833 239.458C598.594 241.896 598.292 244.328 597.932 246.755C597.573 249.177 597.156 251.594 596.677 253.995C596.198 256.401 595.661 258.792 595.068 261.172C594.469 263.547 593.818 265.911 593.104 268.255C592.391 270.599 591.625 272.927 590.797 275.234C589.974 277.542 589.089 279.828 588.151 282.094C587.214 284.359 586.224 286.599 585.172 288.813C584.125 291.031 583.026 293.219 581.87 295.38C580.714 297.542 579.505 299.677 578.245 301.776C576.984 303.88 575.672 305.953 574.313 307.99C572.948 310.026 571.542 312.031 570.078 314C568.62 315.969 567.109 317.901 565.557 319.797C564 321.688 562.401 323.547 560.755 325.359C559.109 327.177 557.417 328.953 555.688 330.688C553.953 332.417 552.177 334.109 550.359 335.755C548.547 337.401 546.688 339 544.792 340.557C542.901 342.109 540.969 343.62 539 345.078C537.031 346.542 535.026 347.953 532.99 349.313C530.948 350.672 528.88 351.984 526.776 353.245C524.677 354.505 522.542 355.714 520.38 356.87C518.219 358.026 516.031 359.125 513.813 360.172C511.599 361.224 509.359 362.214 507.094 363.151C504.828 364.094 502.542 364.974 500.234 365.797C497.927 366.625 495.599 367.396 493.255 368.104C490.906 368.818 488.547 369.469 486.167 370.068C483.792 370.661 481.401 371.198 478.995 371.677C476.594 372.156 474.177 372.573 471.755 372.932C469.328 373.292 466.896 373.594 464.458 373.833C462.016 374.073 459.573 374.255 457.125 374.375C454.677 374.495 452.229 374.552 449.776 374.552C447.323 374.552 444.875 374.495 442.427 374.375C439.979 374.255 437.536 374.073 435.094 373.833C432.656 373.594 430.224 373.292 427.797 372.932C425.375 372.573 422.958 372.156 420.557 371.677C418.151 371.198 415.76 370.661 413.385 370.068C411.005 369.469 408.646 368.818 406.297 368.104C403.953 367.396 401.625 366.625 399.318 365.797C397.01 364.974 394.724 364.094 392.458 363.151C390.193 362.214 387.953 361.224 385.74 360.172C383.521 359.125 381.333 358.026 379.172 356.87C377.01 355.714 374.875 354.505 372.776 353.245C370.672 351.984 368.604 350.672 366.563 349.313C364.526 347.953 362.521 346.542 360.552 345.078C358.583 343.62 356.651 342.109 354.755 340.557C352.865 339 351.005 337.401 349.193 335.755C347.375 334.109 345.599 332.417 343.865 330.688C342.135 328.953 340.443 327.177 338.797 325.359C337.151 323.547 335.552 321.688 333.995 319.797C332.443 317.901 330.932 315.969 329.474 314C328.01 312.031 326.604 310.026 325.24 307.99C323.88 305.953 322.568 303.88 321.307 301.776C320.047 299.677 318.839 297.542 317.682 295.38C316.526 293.219 315.427 291.031 314.38 288.813C313.328 286.599 312.339 284.359 311.401 282.094C310.464 279.828 309.578 277.542 308.755 275.234C307.927 272.927 307.161 270.599 306.448 268.255C305.734 265.911 305.083 263.547 304.484 261.172C303.891 258.792 303.354 256.401 302.875 253.995C302.396 251.594 301.979 249.177 301.62 246.755C301.26 244.328 300.958 241.896 300.719 239.458C300.479 237.016 300.297 234.573 300.177 232.125C300.057 229.677 300 227.229 300 224.776C300 222.323 300.057 219.875 300.177 217.427C300.297 214.979 300.479 212.536 300.719 210.094C300.958 207.656 301.26 205.224 301.62 202.802C301.979 200.375 302.396 197.958 302.875 195.557C303.354 193.151 303.891 190.76 304.484 188.385C305.083 186.005 305.734 183.646 306.448 181.297C307.161 178.953 307.927 176.625 308.755 174.318C309.578 172.01 310.464 169.724 311.401 167.458C312.339 165.193 313.328 162.953 314.38 160.74C315.427 158.521 316.526 156.333 317.682 154.172C318.839 152.01 320.047 149.88 321.307 147.776C322.568 145.672 323.88 143.604 325.24 141.563C326.604 139.526 328.01 137.521 329.474 135.552C330.932 133.583 332.443 131.651 333.995 129.76C335.552 127.865 337.151 126.01 338.797 124.193C340.443 122.375 342.135 120.599 343.865 118.87C345.599 117.135 347.375 115.443 349.193 113.797C351.005 112.151 352.865 110.552 354.76 108.995C356.651 107.443 358.583 105.932 360.552 104.474C362.521 103.016 364.526 101.604 366.563 100.24C368.604 98.8802 370.672 97.5677 372.776 96.3073C374.875 95.0469 377.01 93.8385 379.172 92.6823C381.333 91.526 383.521 90.4271 385.74 89.3802C387.953 88.3281 390.193 87.3385 392.458 86.401C394.724 85.4635 397.01 84.5781 399.318 83.7552C401.625 82.9271 403.953 82.1615 406.297 81.4479C408.646 80.7344 411.005 80.0833 413.385 79.4896C415.76 78.8906 418.151 78.3542 420.557 77.875C422.958 77.3958 425.375 76.9792 427.797 76.6198C430.224 76.2604 432.656 75.9583 435.094 75.7188C437.536 75.4792 439.979 75.2969 442.427 75.1771C444.875 75.0573 447.323 75 449.776 75C452.229 75 454.677 75.0573 457.125 75.1771C459.573 75.2969 462.016 75.4792 464.458 75.7188C466.896 75.9583 469.328 76.2604 471.755 76.6198C474.177 76.9792 476.594 77.3958 478.995 77.875C481.401 78.3542 483.792 78.8906 486.167 79.4896C488.547 80.0833 490.906 80.7344 493.255 81.4479C495.599 82.1615 497.927 82.9271 500.234 83.7552C502.542 84.5781 504.828 85.4635 507.094 86.401C509.359 87.3385 511.599 88.3281 513.813 89.3802C516.031 90.4271 518.219 91.526 520.38 92.6823C522.542 93.8385 524.677 95.0469 526.776 96.3073C528.88 97.5677 530.948 98.8802 532.99 100.24C535.026 101.604 537.031 103.016 539 104.474C540.969 105.932 542.901 107.443 544.792 108.995C546.688 110.552 548.547 112.151 550.359 113.797C552.177 115.443 553.953 117.135 555.688 118.87C557.417 120.599 559.109 122.375 560.755 124.193C562.401 126.01 564 127.865 565.557 129.76C567.109 131.651 568.62 133.583 570.078 135.552C571.542 137.521 572.948 139.526 574.313 141.563C575.672 143.604 576.984 145.672 578.245 147.776C579.505 149.88 580.714 152.01 581.87 154.172C583.026 156.333 584.125 158.521 585.172 160.74C586.224 162.953 587.214 165.193 588.151 167.458C589.089 169.724 589.974 172.01 590.797 174.318C591.625 176.625 592.391 178.953 593.104 181.297C593.818 183.646 594.469 186.005 595.068 188.385C595.661 190.76 596.198 193.151 596.677 195.557C597.156 197.958 597.573 200.375 597.932 202.802C598.292 205.224 598.594 207.656 598.833 210.094C599.073 212.536 599.255 214.979 599.375 217.427C599.495 219.875 599.552 222.323 599.552 224.776Z" fill="#0F47AF"/>
<path d="M449.776 104.953L444.526 121.109L466.177 187.75H437.307L434.068 197.734H526.63L540.375 187.75H476.677L449.776 104.953Z" fill="#FCDD09"/>
<path d="M482.057 180.344L520.203 127.839" stroke="#FCDD09" stroke-width="4.9926"/>
<path d="M563.734 187.75H546.745L490.063 228.932L481.141 201.479H470.641L499.245 289.516L512.99 299.5L493.302 238.917L563.734 187.75Z" fill="#FCDD09"/>
<path d="M502.005 241.75L563.734 261.802" stroke="#FCDD09" stroke-width="4.9926"/>
<path d="M520.208 321.714L514.958 305.557L458.271 264.375L481.625 247.406L478.38 237.422L403.495 291.828L398.245 307.984L449.776 270.547L520.208 321.714Z" fill="#FCDD09"/>
<path d="M449.776 279.698V344.599" stroke="#FCDD09" stroke-width="4.9926"/>
<path d="M379.344 321.714L393.089 311.729L414.74 245.089L438.099 262.063L446.589 255.891L371.703 201.479H354.714L406.25 238.922L379.344 321.714Z" fill="#FCDD09"/>
<path d="M397.547 241.745L335.818 261.802" stroke="#FCDD09" stroke-width="4.9926"/>
<path d="M335.818 187.75L349.562 197.734H419.63L410.708 225.193L419.203 231.359L447.807 143.323L442.557 127.167L422.875 187.75H335.818Z" fill="#FCDD09"/>
<path d="M417.495 180.344L379.344 127.839" stroke="#FCDD09" stroke-width="4.9926"/>
</g>
</g>
<defs>
<clipPath id="clip0_763_13719">
<rect width="900" height="450" fill="white"/>
</clipPath>
</defs>
</svg>
