<svg width="900" height="450" viewBox="0 0 900 450" fill="none" xmlns="http://www.w3.org/2000/svg">
<g clip-path="url(#clip0_763_13784)">
<path d="M900 0H0V450H900V0Z" fill="#1E1E1E"/>
<mask id="mask0_763_13784" style="mask-type:luminance" maskUnits="userSpaceOnUse" x="0" y="0" width="900" height="450">
<path d="M900 0H0V450H900V0Z" fill="white"/>
</mask>
<g mask="url(#mask0_763_13784)">
<path d="M900 0H0V450H900V0Z" fill="white"/>
<mask id="mask1_763_13784" style="mask-type:luminance" maskUnits="userSpaceOnUse" x="0" y="0" width="900" height="450">
<path d="M0 0H900V450H0V0Z" fill="white"/>
</mask>
<g mask="url(#mask1_763_13784)">
<path d="M0 0H900V450H0V0Z" fill="white"/>
<path d="M0 0H900V450H0V0Z" fill="#003399"/>
</g>
<path d="M318.047 125.812L324.906 142.771L343.193 143.297L329.182 155.063L334.333 172.615L318.818 162.932L303.719 173.255L308.135 155.5L293.651 144.328L311.896 143.042L318.047 125.812Z" fill="#FFCC00"/>
<path d="M522.719 330.51L529.578 347.469L547.865 347.995L533.859 359.76L539.01 377.313L523.49 367.625L508.391 377.953L512.807 360.198L498.323 349.026L516.568 347.74L522.719 330.51Z" fill="#FFCC00"/>
<path d="M372.958 70.8958L379.818 87.8542L398.104 88.3802L384.094 100.146L389.25 117.698L373.729 108.01L358.63 118.333L363.047 100.583L348.562 89.4115L366.807 88.125L372.958 70.8958Z" fill="#FFCC00"/>
<path d="M372.958 330.51L379.818 347.469L398.104 347.995L384.094 359.76L389.25 377.313L373.729 367.625L358.63 377.953L363.047 360.198L348.562 349.026L366.807 347.74L372.958 330.51Z" fill="#FFCC00"/>
<path d="M522.719 70.8958L529.578 87.8542L547.865 88.3802L533.859 100.146L539.01 117.698L523.49 108.01L508.391 118.333L512.807 100.583L498.323 89.4115L516.568 88.125L522.719 70.8958Z" fill="#FFCC00"/>
<path d="M318.047 275.594L324.906 292.552L343.193 293.073L329.182 304.839L334.333 322.396L318.818 312.708L303.719 323.031L308.135 305.281L293.651 294.104L311.896 292.823L318.047 275.594Z" fill="#FFCC00"/>
<path d="M577.63 125.812L584.49 142.771L602.776 143.297L588.771 155.063L593.922 172.615L578.401 162.932L563.302 173.255L567.719 155.5L553.234 144.328L571.479 143.042L577.63 125.812Z" fill="#FFCC00"/>
<path d="M597.599 200.703L604.458 217.661L622.745 218.188L608.74 229.953L613.891 247.505L598.37 237.818L583.271 248.146L587.688 230.391L573.203 219.219L591.448 217.932L597.599 200.703Z" fill="#FFCC00"/>
<path d="M298.078 200.703L304.937 217.661L323.224 218.188L309.214 229.953L314.37 247.505L298.849 237.818L283.75 248.146L288.167 230.391L273.682 219.219L291.927 217.932L298.078 200.703Z" fill="#FFCC00"/>
<path d="M447.839 350.479L454.698 367.438L472.984 367.964L458.979 379.729L464.13 397.281L448.609 387.599L433.51 397.922L437.927 380.167L423.443 368.995L441.688 367.708L447.839 350.479Z" fill="#FFCC00"/>
<path d="M447.839 50.9271L454.698 67.8802L472.984 68.4062L458.979 80.1719L464.13 97.7292L448.609 88.0417L433.51 98.3646L437.927 80.6146L423.443 69.4375L441.688 68.151L447.839 50.9271Z" fill="#FFCC00"/>
<path d="M577.63 275.594L584.49 292.552L602.776 293.073L588.771 304.839L593.922 322.396L578.401 312.708L563.302 323.031L567.719 305.281L553.234 294.104L571.479 292.823L577.63 275.594Z" fill="#FFCC00"/>
</g>
</g>
<defs>
<clipPath id="clip0_763_13784">
<rect width="900" height="450" fill="white"/>
</clipPath>
</defs>
</svg>
