<svg width="900" height="450" viewBox="0 0 900 450" fill="none" xmlns="http://www.w3.org/2000/svg">
<rect width="900" height="450" fill="#1E1E1E"/>
<g clip-path="url(#clip0_0_1)">
<rect width="900" height="450" fill="white"/>
<rect width="900" height="450" fill="#012169"/>
<mask id="mask0_0_1" style="mask-type:luminance" maskUnits="userSpaceOnUse" x="0" y="0" width="488" height="263">
<path d="M0 -3.37219e-06H488V263H0V-3.37219e-06Z" fill="white"/>
</mask>
<g mask="url(#mask0_0_1)">
<path d="M-4.76837e-07 -3.37219e-06L450.463 225.43M-4.76837e-07 225.43L450.463 -3.37219e-06" stroke="white" stroke-width="44.9334"/>
</g>
<mask id="mask1_0_1" style="mask-type:luminance" maskUnits="userSpaceOnUse" x="0" y="0" width="525" height="300">
<path d="M0 -3.37219e-06H524.999V300H0V-3.37219e-06Z" fill="white"/>
</mask>
<g mask="url(#mask1_0_1)">
<mask id="mask2_0_1" style="mask-type:luminance" maskUnits="userSpaceOnUse" x="0" y="0" width="525" height="300">
<path d="M0 -3.37219e-06V112.499H524.999V224.999H449.997L0 -3.37219e-06ZM0 224.999V300H224.999V-3.37219e-06H449.997L0 224.999Z" fill="white"/>
</mask>
<g mask="url(#mask2_0_1)">
<path d="M-4.76837e-07 -3.37219e-06L449.998 224.999M-4.76837e-07 224.999L449.998 -3.37219e-06" stroke="#C8102E" stroke-width="29.9556"/>
</g>
</g>
<mask id="mask3_0_1" style="mask-type:luminance" maskUnits="userSpaceOnUse" x="0" y="0" width="562" height="338">
<path d="M0 -3.37219e-06H562V337.333H0V-3.37219e-06Z" fill="white"/>
</mask>
<g mask="url(#mask3_0_1)">
<path d="M224.667 -3.37219e-06V299.557M-4.76837e-07 112.333H524.224" stroke="white" stroke-width="74.8891"/>
</g>
<mask id="mask4_0_1" style="mask-type:luminance" maskUnits="userSpaceOnUse" x="0" y="0" width="548" height="323">
<path d="M0 -3.37219e-06H547.333V322.667H0V-3.37219e-06Z" fill="white"/>
</mask>
<g mask="url(#mask4_0_1)">
<path d="M224.667 -3.37219e-06V299.557M-4.76837e-07 112.333H524.224" stroke="#C8102E" stroke-width="44.9334"/>
</g>
<mask id="mask5_0_1" style="mask-type:luminance" maskUnits="userSpaceOnUse" x="0" y="0" width="900" height="450">
<path d="M0 -3.37219e-06H900V450H0V-3.37219e-06Z" fill="white"/>
</mask>
<g mask="url(#mask5_0_1)">
<path d="M0 225H450V-3.37219e-06H900V450H0V225Z" fill="#69B3E7"/>
</g>
<path d="M583.901 107.797V261.385C583.901 311.62 674.667 341.448 674.667 341.448C674.667 341.448 765.432 311.62 765.432 261.385V107.797H583.901Z" fill="white"/>
<path d="M662.083 161.76V230.917H583.901V256.078H662.083V336.661L674.667 341.448L687.25 336.661V256.078H765.432V230.917H687.25V161.76H662.083Z" fill="#C8102E"/>
<path d="M583.901 107.797H765.432V167.109H583.901V107.797Z" fill="#C8102E"/>
<path d="M608.656 143.948C608.656 144.484 608.589 145.021 608.458 145.547C608.328 146.078 608.136 146.589 607.88 147.089C607.62 147.583 607.307 148.057 606.938 148.505C606.563 148.953 606.141 149.37 605.667 149.75C605.193 150.13 604.677 150.474 604.12 150.771C603.563 151.073 602.974 151.323 602.354 151.531C601.74 151.734 601.099 151.891 600.443 151.995C599.787 152.104 599.12 152.156 598.453 152.156C597.781 152.156 597.12 152.104 596.464 151.995C595.807 151.891 595.167 151.734 594.547 151.531C593.927 151.323 593.344 151.073 592.787 150.771C592.229 150.474 591.714 150.13 591.24 149.75C590.766 149.37 590.344 148.953 589.969 148.505C589.599 148.057 589.281 147.583 589.026 147.089C588.771 146.589 588.578 146.078 588.448 145.547C588.318 145.021 588.25 144.484 588.25 143.948C588.25 143.406 588.318 142.875 588.448 142.344C588.578 141.818 588.771 141.302 589.026 140.802C589.281 140.307 589.599 139.833 589.969 139.385C590.344 138.938 590.766 138.521 591.24 138.141C591.714 137.76 592.229 137.422 592.787 137.12C593.344 136.823 593.927 136.568 594.547 136.359C595.167 136.156 595.807 136 596.464 135.896C597.12 135.787 597.781 135.734 598.453 135.734C599.12 135.734 599.787 135.787 600.443 135.896C601.099 136 601.74 136.156 602.354 136.359C602.974 136.568 603.563 136.823 604.12 137.12C604.677 137.422 605.193 137.76 605.667 138.141C606.141 138.521 606.563 138.938 606.938 139.385C607.307 139.833 607.62 140.307 607.88 140.802C608.136 141.302 608.328 141.818 608.458 142.344C608.589 142.875 608.656 143.406 608.656 143.948Z" fill="white" stroke="black" stroke-width="0.601359" stroke-miterlimit="3"/>
<path d="M607.526 139.688C607.526 139.99 607.469 140.286 607.349 140.583C607.235 140.875 607.063 141.161 606.833 141.443C606.604 141.719 606.328 141.984 605.995 142.234C605.667 142.484 605.287 142.719 604.87 142.927C604.448 143.141 603.99 143.333 603.495 143.5C602.995 143.667 602.474 143.807 601.922 143.922C601.375 144.036 600.807 144.125 600.224 144.182C599.641 144.245 599.047 144.271 598.453 144.271C597.86 144.271 597.266 144.245 596.682 144.182C596.099 144.125 595.531 144.036 594.979 143.922C594.432 143.807 593.906 143.667 593.412 143.5C592.917 143.333 592.458 143.141 592.037 142.927C591.615 142.719 591.24 142.484 590.912 142.234C590.578 141.984 590.297 141.719 590.073 141.443C589.844 141.161 589.672 140.875 589.557 140.583C589.438 140.286 589.38 139.99 589.38 139.688C589.38 139.385 589.438 139.089 589.557 138.792C589.672 138.495 589.844 138.208 590.073 137.932C590.297 137.656 590.578 137.391 590.912 137.141C591.24 136.891 591.615 136.656 592.037 136.443C592.458 136.229 592.917 136.042 593.412 135.875C593.906 135.708 594.432 135.568 594.979 135.448C595.531 135.333 596.099 135.25 596.682 135.188C597.266 135.13 597.86 135.099 598.453 135.099C599.047 135.099 599.641 135.13 600.224 135.188C600.807 135.25 601.375 135.333 601.922 135.448C602.474 135.568 602.995 135.708 603.495 135.875C603.99 136.042 604.448 136.229 604.87 136.443C605.287 136.656 605.667 136.891 605.995 137.141C606.328 137.391 606.604 137.656 606.833 137.932C607.063 138.208 607.235 138.495 607.349 138.792C607.469 139.089 607.526 139.385 607.526 139.688Z" fill="white" stroke="black" stroke-width="0.602857" stroke-miterlimit="3"/>
<path d="M607.526 148.854C607.526 149.156 607.469 149.453 607.349 149.75C607.235 150.047 607.063 150.333 606.833 150.609C606.604 150.891 606.328 151.151 605.995 151.406C605.667 151.656 605.287 151.885 604.87 152.099C604.448 152.313 603.99 152.5 603.495 152.667C602.995 152.839 602.474 152.979 601.922 153.094C601.375 153.208 600.807 153.297 600.224 153.354C599.641 153.411 599.047 153.443 598.453 153.443C597.86 153.443 597.266 153.411 596.682 153.354C596.099 153.297 595.531 153.208 594.979 153.094C594.432 152.979 593.906 152.839 593.412 152.667C592.917 152.5 592.458 152.313 592.037 152.099C591.615 151.885 591.24 151.656 590.912 151.406C590.578 151.151 590.297 150.891 590.073 150.609C589.844 150.333 589.672 150.047 589.557 149.75C589.438 149.453 589.38 149.156 589.38 148.854C589.38 148.557 589.438 148.255 589.557 147.964C589.672 147.667 589.844 147.38 590.073 147.099C590.297 146.823 590.578 146.557 590.912 146.307C591.24 146.057 591.615 145.828 592.037 145.615C592.458 145.401 592.917 145.208 593.412 145.042C593.906 144.875 594.432 144.734 594.979 144.62C595.531 144.505 596.099 144.417 596.682 144.359C597.266 144.302 597.86 144.271 598.453 144.271C599.047 144.271 599.641 144.302 600.224 144.359C600.807 144.417 601.375 144.505 601.922 144.62C602.474 144.734 602.995 144.875 603.495 145.042C603.99 145.208 604.448 145.401 604.87 145.615C605.287 145.828 605.667 146.057 605.995 146.307C606.328 146.557 606.604 146.823 606.833 147.099C607.063 147.38 607.235 147.667 607.349 147.964C607.469 148.255 607.526 148.557 607.526 148.854Z" fill="white" stroke="black" stroke-width="0.602857" stroke-miterlimit="3"/>
<path d="M607.526 143.948C607.526 144.25 607.469 144.547 607.349 144.839C607.235 145.135 607.063 145.422 606.833 145.703C606.604 145.979 606.328 146.245 605.995 146.495C605.667 146.745 605.287 146.974 604.87 147.188C604.448 147.401 603.99 147.594 603.495 147.76C602.995 147.927 602.474 148.068 601.922 148.182C601.375 148.297 600.807 148.385 600.224 148.443C599.641 148.5 599.047 148.531 598.453 148.531C597.86 148.531 597.266 148.5 596.682 148.443C596.099 148.385 595.531 148.297 594.979 148.182C594.432 148.068 593.906 147.927 593.412 147.76C592.917 147.594 592.458 147.401 592.037 147.188C591.615 146.974 591.24 146.745 590.912 146.495C590.578 146.245 590.297 145.979 590.073 145.703C589.844 145.422 589.672 145.135 589.557 144.839C589.438 144.547 589.38 144.25 589.38 143.948C589.38 143.646 589.438 143.349 589.557 143.052C589.672 142.755 589.844 142.469 590.073 142.193C590.297 141.911 590.578 141.651 590.912 141.401C591.24 141.151 591.615 140.917 592.037 140.703C592.458 140.49 592.917 140.302 593.412 140.135C593.906 139.969 594.432 139.823 594.979 139.708C595.531 139.594 596.099 139.51 596.682 139.448C597.266 139.391 597.86 139.359 598.453 139.359C599.047 139.359 599.641 139.391 600.224 139.448C600.807 139.51 601.375 139.594 601.922 139.708C602.474 139.823 602.995 139.969 603.495 140.135C603.99 140.302 604.448 140.49 604.87 140.703C605.287 140.917 605.667 141.151 605.995 141.401C606.328 141.651 606.604 141.911 606.833 142.193C607.063 142.469 607.235 142.755 607.349 143.052C607.469 143.349 607.526 143.646 607.526 143.948Z" fill="white" stroke="black" stroke-width="0.602857" stroke-miterlimit="3"/>
<path d="M760.938 155.344L759.453 151.24C759.453 151.24 755.386 149.583 755.073 147.422C754.349 141.656 752.292 139.5 749.208 138.677C746.12 137.849 744.068 139.193 744.068 139.193C743.141 140.531 738.505 140.531 735.932 140.63C733.365 140.734 733.318 139.51 733.318 139.51C731.323 139.526 730.479 138.057 730.479 138.057C729.172 135.448 728.198 134.469 727.552 134.141C730.891 134.188 733.406 132.651 737.172 128.698C741.287 124.375 744.224 126.042 744.224 126.042C742.229 130.083 744.886 129.724 744.886 129.724C750.339 126.948 745.604 119.948 743.964 120.26C742.318 120.568 741.844 119.458 741.844 119.458C741.896 120.714 740.021 121.214 740.021 121.214C741.427 113.219 736.656 111.099 736.656 111.099C735.932 111.823 735.521 113.26 735.521 113.26C734.188 118.099 729.761 117.375 724.818 115.01C719.886 112.646 706.714 117.479 702.599 119.125C698.479 120.771 690.969 123.344 684.177 119.536C677.391 115.729 675.74 116.448 673.068 117.172C670.391 117.891 665.662 119.026 663.912 118.094C662.162 117.172 660.167 117.115 660.167 117.115C660.646 116.849 659.901 115.729 659.901 115.729C657.844 112.953 660.167 111.25 660.167 111.25C660.167 111.25 656.339 112.328 657.86 118.865L658.563 119.849C658.563 119.849 659.073 121.906 660.208 122.521L660.167 122.974C660.167 122.974 661.136 122.521 661.443 123.859C661.755 125.193 663.193 123.964 663.807 122.833C663.807 122.833 662.781 128.797 670.193 130.24C670.193 130.24 669.36 129.313 669.672 128.693C669.979 128.078 668.745 127.557 668.849 126.635C668.953 125.714 667 125.302 668.542 124.578C670.083 123.854 670.807 122.417 674.099 124.37C677.391 126.328 679.964 125.917 679.964 125.917C679.964 125.917 677.958 121.797 679.063 121.797C680.172 121.802 685.146 127.964 687.594 127.656C690.047 127.354 694.781 124.578 697.146 125.604C697.146 125.604 697.349 124.37 706.406 122.828C715.458 121.281 726.63 116.771 730.818 120.724C730.818 120.724 731.307 123.854 733.052 124.682C733.052 124.682 732.74 131.161 721.531 127.557L717.464 126.49C717.464 126.49 716.839 124.521 695.521 130.005C695.521 130.005 694.266 130.443 693.443 131.063C692.615 131.677 691.485 130.75 687.266 132.292C683.052 133.839 667.307 138.984 657.636 137.13L657.625 137.156C655.495 136.521 653.5 136.849 653.417 136.51C653.313 136.099 654.552 136.62 654.552 136.62C653.833 135.792 653.521 135.724 653.521 135.724C645.391 134.833 646.828 131.161 646.828 131.161L647.245 132.297C648.583 130.547 646.724 126.432 646.724 126.432L646.646 126.443C646.63 126.318 646.604 126.193 646.573 126.068L647.245 125.604C651.156 122.313 655.682 121.693 655.682 121.693C653.005 118.406 647.344 120.151 647.344 120.151C647.448 116.141 645.802 111.51 645.802 111.51C640.245 112.13 637.057 116.755 637.057 116.755C636.854 112.641 631.604 110.276 631.604 110.276C633.557 112.641 632.328 118.302 632.328 118.302L632.531 118.406C632.208 118.396 632.016 118.406 632.016 118.406L631.901 119.62L631.708 119.536C631.708 119.536 629.755 120.255 627.49 125.401C627.49 125.401 627.261 126.615 626.386 127.714C626.38 127.568 626.396 127.443 626.375 127.292C626.375 127.292 623.849 130.604 618.005 127.292C618.005 127.292 610.068 122.583 607.281 122.76C604.49 122.932 602.656 124.24 602.833 125.026C602.833 125.026 596.464 124.5 594.287 128.161C594.287 128.161 589.49 129.906 593.589 133.833C593.589 133.833 594.141 135.536 595.333 136.453C595.333 136.453 595.162 132.87 596.031 133.922C596.031 133.922 596.255 134.276 596.688 134.521C596.802 135.026 597.182 136.422 598.037 137.13L598.651 136.938C598.745 136.042 598.938 134.911 599.136 134.438C599.229 134.453 599.302 134.464 599.339 134.464C599.313 134.49 599.287 134.505 599.261 134.531L600.391 136.276L601.698 135.578C602.313 135.49 603.094 136.099 603.094 136.099L604.578 134.88C604.568 134.865 604.557 134.865 604.552 134.849C606.011 135.094 606.412 132.26 606.412 132.26C607.724 132.609 608.948 132.219 609.995 131.589C610.63 133.938 615.828 136.453 615.828 136.453L616.052 136.432C615.61 136.714 615.349 136.927 615.349 136.927C617.714 138.573 622.141 138.161 622.141 138.161C620.292 138.885 620.547 142.307 620.547 142.307C619.469 142.755 619.365 143.823 619.365 143.823C622.964 145.26 625.422 144.068 625.422 144.068C625.62 145.24 625.333 145.365 625.333 145.365C623.891 148.448 623.276 151.432 623.276 151.432C623.307 151.448 623.344 151.453 623.375 151.469C623.328 151.547 623.276 151.625 623.24 151.708C623.24 151.708 616.964 153.891 614.172 156.943C614.172 156.943 613.906 156.068 613.125 156.068C612.339 156.068 609.896 154.063 608.766 153.714C607.63 153.365 605.974 154.063 605.537 153.542C605.141 153.068 605.318 149.495 604.563 148.917L604.578 148.922L603.792 146.74C603.271 147.875 601.094 147.609 601.094 147.609C601.005 147.661 600.672 147.906 600.193 148.26C599.761 148.286 599.261 148.135 599.261 148.135C599.037 148.182 598.813 148.807 598.651 149.422C598.563 149.484 598.474 149.552 598.386 149.62V149.005C597.953 149.354 597.083 148.833 596.729 148.833C596.563 148.833 596.349 149.333 596.177 149.844C595.292 150.01 594.115 150.052 594.115 150.052C593.766 150.229 594.026 152.932 594.026 152.932C591.5 154.328 592.719 156.417 592.719 156.417C594.115 163.219 605.714 160.167 606.583 161.042C607.453 161.917 609.464 162.089 610.511 162.089C611.552 162.089 612.859 164.615 614.344 164.88C615.828 165.141 614.344 162.875 621.219 161.229C628.094 159.589 630.386 156.771 630.386 156.771C632.542 156.354 633.141 153.734 633.302 152.677C633.323 153.167 633.38 153.703 633.458 154.318C633.766 156.688 632.13 157.547 632.13 157.547L638.089 155.76C640.453 155.141 640.146 153.083 640.146 153.083C642.406 159.568 646.526 159.979 646.526 159.979C647.349 157.505 647.245 156.786 647.245 156.786L649.099 156.688C649.172 155.292 647.943 154.271 647.229 153.797L650.125 155.552L651.255 155.349C651.255 156.375 652.797 157.302 652.797 157.302L653.005 155.969C654.344 157.714 656.813 157.099 656.813 157.099C656.761 156.771 656.688 156.453 656.594 156.135C661.87 159.391 670.292 155.245 670.292 155.245C672.552 155.76 672.865 154.422 672.865 154.422C675.432 154.729 676.031 152.969 676.031 152.969C682.083 152.448 686.344 148.146 686.344 148.146C689.323 147.938 689.422 145.807 689.422 145.807C689.422 145.807 692.412 146.396 695.292 142.792C701.979 133.224 711.979 138.208 711.979 138.208L706.198 138.573C691.073 138.474 697.344 148.755 697.344 148.755L698.276 148.656C699.719 148.964 704.651 152.875 702.833 155.786C702.802 155.839 702.766 155.885 702.729 155.932C699.651 160.156 693.938 156.13 692.313 152.568C690.662 148.969 687.37 149.792 687.37 149.792C687.37 149.792 678.833 151.234 682.328 158.021L682.458 158.026C682.521 159.682 683.563 161.573 686.604 163.448C688.318 165.87 693.943 166.12 698.073 165.224C699.995 164.807 710.141 160.443 710.141 160.443C710.88 158.234 713.401 158.745 715.667 155.552C717.927 152.365 712.474 151.234 711.24 149.484C710.005 147.734 711.552 148.042 711.552 148.042C716.49 150.719 716.901 142.177 716.901 142.177C717.417 147.115 721.735 148.453 721.735 148.453C724.412 145.781 722.459 140.328 722.459 140.328C728.839 151.745 732.703 149.927 732.703 149.927C729.266 147.802 730.995 144.958 730.995 144.958C734.078 157.099 746.74 146.5 746.74 146.5C746.125 148.245 746.745 149.276 747.875 150.406C749.005 151.542 750.344 152.057 749.729 154.115C749.11 156.172 743.245 155.76 743.245 155.76C743.245 155.76 737.485 155.453 738 160.286C738.302 161.417 742.11 161.828 743.552 161.521C743.552 161.521 742.958 161.651 745.089 161.938C745.802 162.026 746.662 162.042 747.542 162.016C749.995 161.938 752.61 161.521 752.61 161.521C755.896 160.802 755.386 159.667 755.386 159.667C760.422 158.74 760.943 155.344 760.943 155.344H760.938Z" fill="#FEDD00" stroke="black" stroke-width="0.898669" stroke-miterlimit="3"/>
<path d="M593.75 134.271C593.755 134.266 594.021 133.635 594.531 133.562C594.922 133.505 595.396 133.792 595.901 134.401L596.177 134.198C596.161 134.177 594.818 132.214 595.354 130.828C595.594 130.214 596.188 129.792 597.12 129.578L597.042 129.24C595.995 129.484 595.318 129.974 595.031 130.708C594.927 130.979 594.88 131.266 594.88 131.557C594.88 132.234 595.12 132.922 595.365 133.448C595.057 133.255 594.76 133.177 594.479 133.219C593.958 133.297 593.708 133.672 593.573 133.911L593.75 134.271ZM752.552 161.219C749.115 161.766 744.068 162.068 743.667 161.031C743.599 160.844 743.583 160.099 746.401 158.271L746.073 157.766C743.724 159.292 742.776 160.401 743.104 161.245C743.828 163.115 751.193 162.047 752.661 161.812L752.552 161.219ZM686.797 163.203C686.016 162.005 686.37 160.365 687.844 158.323L687.359 157.969C685.719 160.229 685.359 162.104 686.297 163.536L686.797 163.203Z" fill="black"/>
<path d="M682.156 158.031C682.229 160.104 683.698 162.031 686.5 163.745L686.813 163.234C684.188 161.625 682.828 159.87 682.755 158.01C682.656 155.156 685.672 152.953 685.698 152.932L685.349 152.443C685.214 152.536 682.042 154.849 682.156 158.031ZM740.786 158.802C739.844 160.193 740.161 161.88 740.172 161.953L740.76 161.833C740.755 161.818 740.484 160.318 741.292 159.135C741.771 158.427 742.552 157.964 743.609 157.766L743.5 157.172C742.276 157.406 741.365 157.953 740.786 158.802ZM606.458 132.469L606.271 132.427L606.245 132.615C606.24 132.635 605.979 134.464 605.151 134.958C604.917 135.094 604.667 135.109 604.38 135.005L602.974 134.151C602.693 133.906 602.453 133.724 602.047 133.839C601.969 133.734 601.646 133.297 601.646 132.594C601.646 132.516 601.651 132.432 601.661 132.349C601.76 131.526 602.339 130.729 603.375 129.99L603.177 129.708C602.052 130.516 601.427 131.391 601.318 132.313C601.24 132.995 601.417 133.609 601.839 134.146L601.922 134.245L602.036 134.193C602.349 134.052 602.443 134.135 602.745 134.406L604.266 135.328C604.651 135.469 605.005 135.443 605.328 135.25C606.188 134.74 606.484 133.245 606.557 132.828C610.208 133.615 613.146 129.177 613.276 128.984L612.984 128.797C612.958 128.844 609.958 133.391 606.458 132.469Z" fill="black"/>
<path d="M597.703 131.792C597.521 132.531 597.646 133.255 598.068 133.948C598.474 134.604 598.87 134.953 599.281 135.01C599.786 135.078 600.193 134.703 600.547 134.375C600.807 134.135 601.052 133.911 601.255 133.922L601.568 134.141L601.839 133.927L601.281 133.583C600.927 133.557 600.63 133.828 600.313 134.125C600 134.411 599.677 134.719 599.328 134.672C599.031 134.63 598.708 134.323 598.365 133.766C597.99 133.156 597.88 132.516 598.036 131.875C598.432 130.245 600.38 129.047 600.401 129.036L600.224 128.74C600.135 128.792 598.13 130.021 597.703 131.792ZM592.677 155.052C592.854 154.422 593.339 153.885 594.115 153.453C593.964 153.469 594.88 154.214 595.667 154.13L596.177 153.854C596.385 154.031 597.745 155.271 597.745 156.844C597.745 157.172 597.687 157.51 597.536 157.854L597.854 157.99C598.854 155.63 596.349 153.536 596.323 153.516L596.234 153.443L596.078 153.542L595.63 153.786C594.984 153.854 594.151 153.172 594.141 153.167C593.089 153.625 592.547 154.24 592.344 154.964L592.677 155.052ZM604.307 149.031C603.557 149.094 601.464 149.495 600.776 150.578C600.531 150.974 600.495 151.411 600.672 151.88L600.948 152.609C601.599 154.365 602.276 156.177 603.016 156.589L603.182 156.286C602.557 155.937 601.875 154.104 601.271 152.49L600.995 151.76C600.859 151.391 600.88 151.062 601.068 150.766C601.63 149.875 603.516 149.443 604.339 149.375C604.818 149.333 604.974 151.104 605.068 152.167L605.411 152.135C605.276 150.573 605.13 148.964 604.307 149.031Z" fill="black"/>
<path d="M598.562 150.75C598.125 151.146 598.214 151.74 598.219 151.766C598.224 151.927 598.417 156.307 600.5 157.214L600.635 156.901C598.755 156.078 598.562 151.771 598.562 151.729C598.557 151.703 598.5 151.271 598.797 151.005C599.115 150.724 599.74 150.703 600.609 150.943L600.703 150.615C599.698 150.339 598.979 150.38 598.562 150.75Z" fill="black"/>
<path d="M596.917 151.109C595.995 151.75 596.036 153.583 596.036 153.656L596.38 153.651C596.38 153.63 596.344 151.927 597.115 151.396C597.401 151.198 597.776 151.188 598.24 151.375L598.365 151.057C597.792 150.823 597.302 150.839 596.917 151.109ZM646.458 126.927C646.474 126.958 647.438 129.135 647.438 130.901C647.438 131.214 647.292 131.438 647.219 131.714C647.182 131.609 646.844 130.688 646.844 130.688L646.552 131.427C646.542 131.469 646.161 132.464 646.839 133.589C647.74 135.068 649.974 136.016 653.495 136.401H653.49C653.49 136.406 653.536 136.443 653.542 136.448C653.396 136.469 653.286 136.51 653.25 136.542L653.109 136.661L653.13 136.958C653.219 137.328 653.635 137.344 654.464 137.375C654.604 137.385 654.833 137.417 654.995 137.427C655.198 137.484 655.411 137.542 655.411 137.542L655.339 137.458C656.141 137.516 657.042 137.714 658.021 138.078C657.807 138.135 657.276 138.266 657.276 138.266L658.146 138.609C658.214 138.635 664.625 141.208 667.276 143.328C666.521 143.984 663.307 146.385 657.74 145.01L656.807 144.781L657.438 145.505C657.479 145.547 661.104 149.708 661.854 152.234C660.594 152.245 655.729 152.203 654.026 150.755L653.589 151.156C653.609 151.193 655.922 154.583 656.438 157.229C655.771 157.313 654.188 157.38 653.25 156.156L652.818 155.594L652.583 157.115C652.13 156.776 651.563 156.266 651.563 155.719V155.359L650.188 155.609L647.37 153.901C647.224 153.802 647.073 153.708 646.917 153.625C646.911 153.625 646.891 153.609 646.891 153.609L646.87 153.599L646.578 154.125C646.578 154.125 646.911 154.328 647.01 154.385C647.615 154.781 648.646 155.635 648.75 156.776C648.302 156.802 646.917 156.875 646.917 156.875L646.953 157.193V157.245C646.953 157.432 646.891 158.224 646.318 160C645.448 159.792 642.297 158.693 640.432 153.354L639.849 153.5C639.854 153.516 639.859 153.583 639.859 153.698C639.859 154.182 639.688 155.406 638.016 155.839C638.005 155.844 634.906 156.771 633.182 157.292C633.505 156.828 633.802 156.198 633.802 155.276C633.802 155.083 633.786 154.875 633.76 154.651C633.656 153.875 633.594 153.229 633.594 152.693C633.594 151.568 633.87 150.896 634.646 150.422L634.375 149.885C634.302 149.911 627.172 152.745 623.635 151.568C623.797 150.88 624.401 148.453 625.604 145.865L625.448 146.016C625.682 145.917 625.917 145.552 625.724 144.391L625.656 143.995L625.297 144.172C625.271 144.182 623.01 145.193 619.74 143.995C619.807 143.724 619.979 143.245 620.667 142.958L620.865 142.88L620.849 142.661C620.849 142.656 620.839 142.5 620.839 142.266C620.839 141.38 620.979 139.313 622.25 138.818L622.115 138.234C622.073 138.24 618.25 138.547 615.927 137.255C616.536 136.839 617.818 136.063 619.302 135.849L619.542 135.818L619.557 135.578C619.563 135.568 619.568 135.495 619.568 135.385C619.568 135.083 619.448 134.469 619.182 133.854C620.068 134.099 621.125 134.323 621.5 134.042L621.625 133.948L621.516 131.625L620.917 131.656L621.005 133.573C620.63 133.594 619.667 133.401 618.734 133.104L617.807 132.813L618.406 133.578C618.891 134.198 618.948 134.969 618.958 135.323C616.87 135.714 615.229 137.01 615.161 137.068L614.854 137.323L615.177 137.547C616.974 138.802 619.786 138.906 621.229 138.875C620.38 139.833 620.234 141.438 620.234 142.24C620.234 142.406 620.24 142.448 620.245 142.531C619.224 143.083 619.068 144.115 619.063 144.167L619.042 144.391L619.25 144.474C622.339 145.708 624.448 145.115 625.167 144.849C625.172 144.943 625.193 145.073 625.193 145.141C625.193 145.427 625.141 145.51 625.141 145.51C623.62 148.693 622.984 151.719 622.979 151.745L622.927 151.995L623.161 152.089C626.031 153.234 631.182 151.672 633.458 150.865C633.161 151.38 632.99 151.964 632.99 152.682C632.99 153.292 633.063 153.969 633.161 154.729C633.188 154.922 633.198 155.099 633.198 155.271C633.198 156.979 632.047 157.625 631.99 157.651L632.219 158.208L638.177 156.417C639.552 156.063 640.073 155.245 640.292 154.557C642.641 160.13 646.333 160.63 646.495 160.651L646.734 160.672L646.813 160.443C647.385 158.734 647.516 157.865 647.542 157.443C648.156 157.411 648.771 157.38 649.385 157.344L649.401 157.073C649.406 157.026 649.406 156.979 649.406 156.938C649.406 156.443 649.25 156.01 649.036 155.615C649.411 155.839 650.068 156.24 650.068 156.24L651.057 156.063C651.313 157.057 652.495 157.839 652.651 157.932L653.031 158.161C653.031 158.161 653.172 157.255 653.234 156.859C654.703 158.177 656.792 157.786 656.891 157.76L657.156 157.693L657.115 157.427C656.818 155.411 655.464 153.016 654.672 151.734C657.286 152.927 662.047 152.839 662.281 152.828L662.635 152.818L662.568 152.469C662.146 150.354 659.5 147.026 658.396 145.698C664.536 146.854 667.833 143.667 667.979 143.521L668.193 143.292L667.953 143.089C665.891 141.286 661.13 139.198 659.219 138.401L659.891 138.229L659.229 137.859C657.63 136.964 655.932 136.849 654.786 136.802L654.781 136.792C654.057 135.958 653.688 135.828 653.594 135.807C649.438 135.349 647.917 134.182 647.365 133.286C647.318 133.214 647.344 133.161 647.307 133.089C647.396 132.969 647.49 132.854 647.49 132.854C647.891 132.328 648.031 131.63 648.031 130.891C648.031 128.984 647.063 126.807 647.01 126.677L646.458 126.927Z" fill="black"/>
<path d="M627.339 125.708C627.323 125.771 626.88 128.047 624.943 129.109C623.484 129.911 621.557 129.849 619.224 128.911L618.958 128.807L618.99 129.089C618.995 129.146 619.146 130.484 620.406 131.464C621.458 132.281 622.958 132.568 624.844 132.365C624.214 133.109 622.187 135.698 622.187 138.203C622.187 138.339 622.198 138.469 622.208 138.599C622.469 138.786 625.641 139.646 627.109 137.766C627.161 138.573 627.396 141.151 628.401 142.161C628.953 142.708 629.083 143.51 629.083 144.151C629.083 144.729 628.974 145.177 628.974 145.188L628.859 145.646L629.245 145.365C629.365 145.276 632.281 143.141 633.214 140.344C633.208 140.349 633.682 139.641 634.578 139.349C634.562 139.474 634.547 139.599 634.547 139.771C634.547 140.854 635.021 142.818 638.167 144.021L638.427 144.12L638.401 143.844C638.385 143.661 638.38 143.484 638.38 143.302C638.38 142.51 638.49 141.057 639.245 140.307C639.74 139.813 639.885 139.255 639.885 138.771C639.885 138.391 639.802 138.083 639.719 137.859C640.354 138.021 641.854 138.505 642.469 139.651C643.354 141.313 646.464 139.99 646.599 139.932L646.49 139.604C646.479 139.609 645.182 139.901 644.365 139.339C644.005 139.089 643.792 138.714 643.719 138.208L643.573 136.479C643.542 135.693 643.432 135.193 643.036 134.776C643.448 134.74 644.276 134.755 644.625 135.526C645.172 136.734 647.057 136.854 647.135 136.859L647.781 136.896L647.24 136.542C647.224 136.531 645.594 135.453 645.875 134.047L646.109 133.016C646.557 131.156 647.297 128.047 646.693 126.141L646.365 126.245C646.516 126.719 646.578 127.286 646.578 127.891C646.578 129.583 646.099 131.594 645.776 132.932L645.536 133.979C645.51 134.115 645.5 134.245 645.5 134.38C645.5 135.292 646.089 135.99 646.552 136.406C645.995 136.286 645.229 136.026 644.943 135.38C644.49 134.391 643.271 134.344 642.693 134.464L642.286 134.542L642.63 134.771C643.177 135.135 643.193 135.563 643.229 136.49L643.375 138.255C643.464 138.859 643.734 139.318 644.172 139.62C644.557 139.885 645.01 139.922 645.417 139.953C644.495 140.193 643.229 140.344 642.776 139.484C641.917 137.891 639.562 137.464 639.464 137.443L639.104 137.38L639.281 137.698C639.302 137.734 639.552 138.188 639.552 138.76C639.552 139.172 639.427 139.641 639 140.063C638.167 140.906 638.036 142.432 638.036 143.281C638.036 143.443 638.047 143.469 638.047 143.568C635.354 142.438 634.88 140.76 634.88 139.813C634.88 139.411 634.958 139.141 634.969 139.104L635.047 138.839L634.776 138.885C633.464 139.104 632.922 140.167 632.901 140.214C632.151 142.453 630.12 144.224 629.385 144.818C629.417 144.594 629.432 144.37 629.437 144.146C629.437 143.448 629.286 142.552 628.651 141.917C627.578 140.849 627.432 137.443 627.432 137.411L627.411 136.797L627.109 137.328C625.927 139.448 622.469 138.432 622.432 138.422C622.286 135.74 625.328 132.313 625.359 132.276L625.677 131.922L625.208 131.99C623.224 132.281 621.682 132.016 620.625 131.198C620 130.714 619.589 130.089 619.396 129.328C621.698 130.188 623.63 130.234 625.115 129.411C627.193 128.26 627.651 125.911 627.667 125.813C629.849 120.865 631.755 120.083 631.776 120.078L631.656 119.755C631.573 119.786 629.604 120.557 627.339 125.708Z" fill="black"/>
<path d="M632.318 118.375L632.172 118.38L630.401 120.807L630.927 120.859C640.536 121.797 645.615 127.594 645.667 127.651L645.885 127.911L647.63 126.016L647.5 125.823C642.63 118.151 632.422 118.375 632.318 118.375ZM632.484 118.979C633.667 118.984 642.422 119.25 646.854 125.969C646.635 126.203 646.151 126.729 645.896 127.016C644.854 125.938 639.932 121.333 631.49 120.344C631.818 119.891 632.151 119.432 632.484 118.979Z" fill="black"/>
<path d="M630.932 123.448C630.109 124.568 629.349 126.224 629.349 127C629.349 127.146 629.375 127.266 629.443 127.339C629.448 127.344 629.474 127.349 629.484 127.359C628.484 128.255 627.891 129.755 627.891 131.443C627.891 132.375 628.052 133.344 628.401 134.271L628.589 134.792C629.531 137.354 630.344 139.573 634.422 138.266C638.349 137.01 638.505 136.76 639.495 135.13L639.75 134.708C640.292 133.833 640.88 133.656 641.505 133.469C642.255 133.245 643.031 133.016 643.708 131.672L644.37 130.682C645.083 129.698 645.974 128.479 646.083 126.922L645.74 126.896C645.641 128.359 644.781 129.531 644.094 130.474L643.401 131.516C642.786 132.724 642.12 132.927 641.406 133.141C640.745 133.333 640.068 133.536 639.458 134.526L639.198 134.948C638.245 136.521 638.125 136.724 634.318 137.943C630.552 139.146 629.865 137.266 628.911 134.672L628.719 134.146C627.646 131.286 628.484 128.406 629.88 127.37L630.359 127.016L629.698 127.089C629.687 127.063 629.682 127.036 629.682 126.99C629.682 126.526 630.193 125.036 631.208 123.651C632.073 122.469 634.12 121.297 634.141 121.286L633.969 120.984C633.885 121.036 631.839 122.208 630.932 123.448Z" fill="black"/>
<path d="M629.104 133.792C629.776 134.255 630.729 134.224 631.87 133.792C631.875 134.198 631.969 135.063 632.677 135.688C633.51 136.432 634.896 136.573 636.797 136.12L636.714 135.786C634.938 136.208 633.651 136.089 632.906 135.432C632.104 134.729 632.214 133.599 632.219 133.589L632.25 133.297L631.974 133.411C630.823 133.906 629.922 133.938 629.297 133.505C628.177 132.724 628.26 130.693 628.266 130.672L627.922 130.651C627.922 130.745 627.823 132.901 629.104 133.792Z" fill="black"/>
<path d="M631.286 131.047C630.792 131.167 630.667 131.578 630.667 131.896C630.667 131.969 630.672 132.042 630.682 132.104C630.771 132.99 631.729 133.578 632.604 133.828C633.448 134.078 634.495 134.094 634.906 133.563C635.073 133.354 635.193 132.974 634.833 132.359C633.521 130.13 631.401 131 631.286 131.047ZM632.698 133.5C631.932 133.281 631.094 132.786 631.026 132.052C631.01 131.979 630.927 131.49 631.359 131.385L631.396 131.375C631.474 131.339 633.354 130.521 634.536 132.531C634.745 132.891 634.781 133.167 634.635 133.354C634.38 133.682 633.542 133.745 632.698 133.5ZM631.25 131.063C631.25 131.057 631.286 131.047 631.286 131.047L631.25 131.063ZM632.469 135.536C632.245 137.417 632.38 137.464 632.516 137.505L632.635 137.542L632.771 137.38L633.859 135.943L632.495 135.297L632.469 135.536ZM632.781 135.818L633.333 136.078C633.188 136.266 632.911 136.635 632.703 136.906C632.708 136.625 632.74 136.224 632.781 135.818ZM629.63 134.021L629.557 135.802L631.052 133.995L629.635 133.839L629.63 134.021ZM629.964 134.219L630.38 134.266C630.234 134.438 630.135 134.557 629.943 134.797C629.953 134.516 629.958 134.365 629.964 134.219Z" fill="black"/>
<path d="M628.635 133.453C628.646 133.474 629.745 135.625 629.937 136.406C630.062 136.906 630.698 137.474 631.458 137.755C632.214 138.036 632.922 137.99 633.448 137.625L634.443 136.797C634.771 136.479 634.88 136.391 635.151 136.437L635.208 136.099C634.755 136.021 634.536 136.234 634.203 136.552L633.255 137.344C632.667 137.75 631.948 137.578 631.578 137.432C630.87 137.172 630.354 136.661 630.271 136.323C630.068 135.505 628.984 133.385 628.937 133.297L628.63 133.453H628.635ZM630.062 127.01C628.849 127.573 628.339 129.042 628.318 129.104L628.641 129.219C628.646 129.203 629.13 127.818 630.208 127.323C630.734 127.083 631.323 127.094 631.964 127.344L632.094 127.026C631.365 126.729 630.682 126.729 630.062 127.01ZM638.219 130.875C638.312 130.948 640.604 132.682 639.292 134.802L639.583 134.984C641.068 132.599 638.448 130.62 638.427 130.599L638.219 130.875ZM631.328 131.214C631.328 131.214 630.974 132.51 632.797 132.964C632.797 132.964 631.083 132.948 630.974 132.51C630.859 132.068 630.984 131.083 631.328 131.214ZM636.901 132.766C636.901 132.875 636.807 132.969 636.698 132.969C636.562 132.969 636.495 132.896 636.495 132.766C636.495 132.651 636.589 132.562 636.698 132.562C636.807 132.562 636.901 132.651 636.901 132.766ZM637.104 133.573C637.104 133.682 637.01 133.776 636.901 133.776C636.786 133.776 636.698 133.682 636.698 133.573C636.698 133.464 636.786 133.37 636.901 133.37C637.01 133.37 637.104 133.464 637.104 133.573Z" fill="black"/>
<path d="M635.932 133.172C635.932 133.307 635.865 133.375 635.734 133.375C635.599 133.375 635.531 133.307 635.531 133.172C635.531 133.036 635.599 132.969 635.734 132.969C635.865 132.969 635.932 133.036 635.932 133.172Z" fill="black"/>
<path d="M636.286 134.391C636.281 134.516 636.214 134.578 636.083 134.578C635.958 134.578 635.891 134.516 635.885 134.391C635.885 134.276 635.974 134.182 636.083 134.182C636.193 134.182 636.286 134.276 636.286 134.391ZM630.969 128.906C630.969 129.042 630.901 129.109 630.766 129.109C630.63 129.109 630.562 129.042 630.562 128.906C630.562 128.797 630.656 128.703 630.766 128.703C630.88 128.703 630.969 128.797 630.969 128.906Z" fill="black"/>
<path d="M631.172 129.724C631.172 129.859 631.104 129.927 630.969 129.927C630.833 129.927 630.766 129.859 630.766 129.724C630.766 129.589 630.833 129.521 630.969 129.521C631.104 129.521 631.172 129.589 631.172 129.724Z" fill="black"/>
<path d="M630.005 129.318C630.005 129.453 629.937 129.521 629.802 129.521C629.667 129.521 629.599 129.453 629.599 129.318C629.599 129.182 629.667 129.115 629.802 129.115C629.937 129.115 630.005 129.182 630.005 129.318Z" fill="black"/>
<path d="M630.354 130.531C630.354 130.667 630.286 130.734 630.151 130.734C630.016 130.734 629.943 130.667 629.943 130.531C629.943 130.396 630.016 130.328 630.151 130.328C630.286 130.328 630.354 130.396 630.354 130.531ZM633.906 123.38C633.906 123.38 636.542 125 634.005 128.042C634.005 128.042 635.25 127.12 635.38 125.526C635.51 123.937 634.474 122.667 633.906 123.38ZM644.016 127.755C643.167 128.187 641.943 127.38 641.333 126.62C640.724 125.854 639.464 125.661 638.677 127.052C637.891 128.448 636.76 128.974 636.76 128.974C636.76 128.974 637.865 128.318 639.005 127.099C640.135 125.88 640.792 126.859 641.901 127.448C643.016 128.036 643.187 128.167 643.969 127.859L644.016 127.755Z" fill="black"/>
<path d="M643.797 127.953C643.453 128.214 642.818 128.432 642.141 127.891C641.469 127.344 640.901 126.604 640.052 127.036C639.198 127.474 637.583 128.698 637.583 128.698C637.583 128.698 640.203 126.885 640.703 127.276C641.203 127.672 642.385 128.63 643.099 128.349C643.823 128.063 643.797 127.953 643.797 127.953Z" fill="black"/>
<path d="M641.792 129.062C640.964 128.432 640.135 129.802 639.438 129.635C638.74 129.453 638.172 128.302 638.172 128.302C638.172 128.302 638.828 129.521 639.74 129.24C640.656 128.958 641.292 128.391 641.854 128.823C642.422 129.26 641.792 129.062 641.792 129.062Z" fill="black"/>
<path d="M640.495 129.234C638.859 129.406 638.698 127.88 638.698 127.865C638.698 127.865 639.214 129.198 640.661 128.953L640.495 129.234Z" fill="black"/>
<path d="M640.443 128.193C640.552 128.609 640.526 128.797 640.089 128.797C639.646 128.797 639.349 128.651 639.349 128.224C639.349 127.797 640.38 127.927 640.443 128.193ZM634.573 125.927C634.573 126.208 634.339 126.437 634.047 126.437C633.755 126.437 633.703 126.245 633.703 125.964C633.703 125.682 633.76 125.417 634.047 125.417C634.339 125.417 634.573 125.646 634.573 125.927Z" fill="black"/>
<path d="M632.766 124.099C632.766 124.099 635.568 124.13 634.182 127.635C634.182 127.635 635.25 125.891 634.578 124.635C633.906 123.38 632.854 123.698 632.854 123.698C632.854 123.698 632.594 123.932 632.766 124.099Z" fill="black"/>
<path d="M632.682 125.5C632.677 126.203 633.146 126.927 634.073 127.651L634.286 127.385C633.448 126.729 633.021 126.094 633.031 125.505C633.036 124.917 633.49 124.568 633.495 124.563L633.286 124.286C633.26 124.307 632.693 124.74 632.682 125.5Z" fill="black"/>
<path d="M633.307 126.089C633.427 126.495 633.74 126.797 634.24 127L634.365 126.682C633.969 126.521 633.724 126.292 633.635 125.995C633.458 125.401 633.937 124.703 633.943 124.698L633.667 124.5C633.641 124.536 633.083 125.339 633.307 126.089ZM637.146 128.036C637.146 128.036 637.667 129.172 636.906 130.391C636.146 131.615 636.167 131.547 636.167 131.547C636.167 131.547 637.083 129.87 636.734 129.172C636.385 128.474 637.146 128.036 637.146 128.036ZM648.042 139.865C650.922 140.406 657.411 145.495 657.479 145.547L657.854 145.073C657.578 144.859 651.177 139.839 648.156 139.271L648.042 139.865ZM650.599 147.047C650.792 149.599 653.568 151.182 653.687 151.25L653.984 150.724C653.953 150.714 651.37 149.229 651.198 147L650.599 147.047ZM643.698 147.578C643.698 150.443 646.385 153.906 646.5 154.052L646.974 153.682C646.948 153.646 644.302 150.234 644.302 147.578H643.698ZM634.599 147.896C635.073 148.844 635.026 149.323 634.901 149.557C634.76 149.823 634.469 149.859 634.458 149.865L634.531 150.464C634.75 150.438 635.193 150.286 635.427 149.854C635.714 149.328 635.615 148.578 635.141 147.635L634.599 147.896Z" fill="black"/>
<path d="M593.682 133.776C593.682 133.776 593.854 135.693 595.339 136.828C595.339 136.828 595.167 134.734 595.599 133.865C595.599 133.865 594.818 132.99 593.682 133.776ZM596.641 134.995C596.641 134.995 596.99 136.734 598.037 137.521L598.651 137.349C598.651 137.349 598.912 135.167 599.261 134.906C599.61 134.646 597.776 135.693 596.641 134.995Z" fill="white" stroke="black" stroke-width="0.269601" stroke-miterlimit="3"/>
<path d="M599.261 134.906L600.396 136.651L601.703 135.953L601.443 133.859C601.443 133.859 600.656 133.682 599.261 134.906Z" fill="white" stroke="black" stroke-width="0.269601" stroke-miterlimit="3"/>
<path d="M604.578 135.255L603.094 136.479C603.094 136.479 602.313 135.865 601.698 135.953L601.964 134.036C601.964 134.036 603.011 133.25 604.578 135.255ZM594.026 153.307C594.026 153.307 593.766 150.604 594.115 150.427C594.115 150.427 595.162 150.776 595.594 150.339C595.594 150.339 596.208 152.521 596.031 153.391C595.859 154.266 594.813 153.917 594.026 153.307ZM600.745 150.51C600.745 150.51 600.656 148.245 601.094 147.979C601.094 147.979 603.271 148.245 603.797 147.115L604.578 149.292C604.578 149.292 602.141 149.026 600.745 150.51Z" fill="white" stroke="black" stroke-width="0.269601" stroke-miterlimit="3"/>
<path d="M598.391 150.948C598.391 150.948 598.828 148.594 599.266 148.505C599.266 148.505 600.396 148.854 600.745 148.417L600.662 151.297C600.662 151.297 600.745 150.073 598.391 150.948ZM595.86 151.297C595.86 151.297 596.386 149.203 596.735 149.203C597.084 149.203 597.959 149.729 598.391 149.38V150.948C598.391 150.948 596.469 150.516 596.214 153.13L595.86 151.297Z" fill="white"/>
<path d="M598.391 150.948C598.391 150.948 598.828 148.594 599.266 148.505C599.266 148.505 600.396 148.854 600.745 148.417L600.662 151.297C600.662 151.297 600.745 150.073 598.391 150.948ZM598.391 150.948V149.38C597.959 149.729 597.084 149.203 596.735 149.203C596.386 149.203 595.86 151.297 595.86 151.297L596.214 153.13C596.469 150.516 598.391 150.948 598.391 150.948Z" stroke="black" stroke-width="0.262112" stroke-miterlimit="3"/>
<path d="M629.854 194.714C629.854 194.714 635.781 200.214 634.229 205.016C634.229 205.016 638.042 196.828 633.948 194.427C629.854 192.031 629.714 193.87 629.854 194.714Z" fill="#00AD50" stroke="black" stroke-width="0.584135" stroke-miterlimit="4.8"/>
<path d="M622.37 200.068C622.37 200.068 620.823 202.188 622.511 203.74C622.511 203.74 620.677 206.417 622.094 208.677C622.094 208.677 620.964 211.078 621.245 213.62C621.245 213.62 620.255 217.568 622.37 219.406C622.37 219.406 624.63 220.537 625.62 219.547C625.62 219.547 627.599 216.583 626.323 213.474C626.323 213.474 627.734 210.938 626.182 207.693C626.182 207.693 626.609 205.854 625.339 203.74C625.339 203.74 626.182 202.328 625.479 201.198C625.479 201.198 622.656 198.234 622.37 200.068Z" fill="#862633" stroke="black" stroke-width="0.584135" stroke-miterlimit="4.8"/>
<path d="M624.063 193.156C624.063 193.156 617.011 179.604 612.068 179.036C607.125 178.474 606.844 173.677 606.844 173.677C606.844 173.677 607.412 175.932 611.365 175.932C615.318 175.932 622.938 181.438 623.781 185.672C624.63 189.906 625.479 189.344 625.479 189.344L624.063 193.156Z" fill="#00AD50" stroke="black" stroke-width="0.584135" stroke-miterlimit="4.8"/>
<path d="M624.063 192.167C624.063 192.167 626.604 175.089 637.761 174.802C648.906 174.521 645.24 175.651 647.917 173.813C647.917 173.813 640.443 177.771 635.781 178.333C631.125 178.896 627.313 187.927 627.453 189.625C627.594 191.318 624.917 194.563 623.646 193.438C622.375 192.307 624.068 192.167 624.068 192.167H624.063Z" fill="#00AD50" stroke="black" stroke-width="0.584135" stroke-miterlimit="4.8"/>
<path d="M626.604 198.521C626.604 198.521 629.141 191.75 633.521 194.01C633.521 194.01 630.13 187.516 624.063 193.162C624.063 193.162 626.745 196.828 626.604 198.521ZM618.136 191.74C618.136 191.74 621.802 206.844 616.156 211.5C616.156 211.5 616.297 203.74 612.912 199.083C609.526 194.422 616.297 189.344 618.136 191.74Z" fill="#00AD50" stroke="black" stroke-width="0.584135" stroke-miterlimit="4.8"/>
<path d="M618.563 194.427C618.563 194.427 625.198 200.781 625.62 202.896C626.047 205.016 627.594 196.547 624.49 194.146C621.386 191.745 618 191.323 618 191.323L618.563 194.427Z" fill="#00AD50" stroke="black" stroke-width="0.584135" stroke-miterlimit="4.8"/>
<path d="M606.323 211.073C606.323 211.073 606.927 213.74 608.563 214.255C608.563 214.255 608.646 216.24 610.11 216.839C610.11 216.839 609.333 218.474 610.625 219.505C610.625 219.505 610.365 222.776 611.573 223.469C611.573 223.469 614.5 223.297 615.531 222.432C615.531 222.432 616.136 220.287 614.5 218.13C614.5 218.13 614.755 216.063 613.12 214.948C613.12 214.948 613.636 212.193 611.573 211.162C611.573 211.162 611.229 208.922 609.938 207.802C609.938 207.802 607.443 211.328 606.323 211.073Z" fill="#862633" stroke="black" stroke-width="0.584135" stroke-miterlimit="4.8"/>
<path d="M609.589 207.802C609.589 207.802 600.896 204.62 596.078 209.182C596.078 209.182 603.474 210.214 604.427 211.677C605.37 213.135 609.932 209.266 609.589 207.802Z" fill="#00AD50" stroke="black" stroke-width="0.584135" stroke-miterlimit="4.8"/>
<path d="M606.922 213.224C606.922 213.224 606.235 212.625 605.375 212.021C604.516 211.417 597.198 209.438 596.162 216.495C596.162 216.495 593.495 209.526 597.37 208.578C601.245 207.63 604.344 209.87 606.922 213.224ZM601.203 198.802C601.203 198.802 603.88 204.589 604.87 204.875C605.86 205.151 606.563 204.167 606.563 204.167C606.563 204.167 603.037 198.943 601.203 198.802ZM599.224 189.911C599.224 189.911 596.964 182.432 594.287 184.406C591.604 186.385 592.307 191.745 592.307 191.745C592.307 191.745 586.943 186.245 590.047 181.865C593.156 177.49 599.224 182.286 599.224 189.911Z" fill="#00AD50" stroke="black" stroke-width="0.584135" stroke-miterlimit="4.8"/>
<path d="M605.297 205.292C605.297 205.292 605.297 206.703 606.287 207.125C607.276 207.552 609.11 208.255 609.11 207.412C609.11 206.563 607.698 203.318 607.13 203.74C606.568 204.167 605.584 204.162 605.297 205.292Z" fill="#862633" stroke="black" stroke-width="0.584135" stroke-miterlimit="4.8"/>
<path d="M603.604 196.547C603.604 196.547 603.323 190.057 607.552 187.651C607.552 187.651 608.406 187.797 608.828 186.526C608.828 186.526 605.438 194.714 606.427 198.807L606.287 199.37" fill="#00AD50"/>
<path d="M603.604 196.547C603.604 196.547 603.323 190.057 607.552 187.651C607.552 187.651 608.406 187.797 608.828 186.526C608.828 186.526 605.438 194.714 606.427 198.807L606.287 199.37" stroke="black" stroke-width="0.584135" stroke-miterlimit="4.8"/>
<path d="M604.453 188.641C604.453 188.641 612.073 172.828 621.391 178.333C621.391 178.333 611.651 180.307 608.125 187.224L604.594 192.443L604.453 188.635V188.641Z" fill="#00AD50" stroke="black" stroke-width="0.584135" stroke-miterlimit="4.8"/>
<path d="M600.354 194.427C600.354 194.427 598.094 183.844 596.688 182.432C595.271 181.021 592.875 179.469 590.047 181.865C590.047 181.865 594.99 177.49 600.214 181.162C605.432 184.828 604.302 190.62 604.302 190.62L603.74 197.958L600.214 194.714" fill="#00AD50"/>
<path d="M600.354 194.427C600.354 194.427 598.094 183.844 596.688 182.432C595.271 181.021 592.875 179.469 590.047 181.865C590.047 181.865 594.99 177.49 600.214 181.162C605.432 184.828 604.302 190.62 604.302 190.62L603.74 197.958L600.214 194.714" stroke="black" stroke-width="0.584135" stroke-miterlimit="4.8"/>
<path d="M608.542 206.984C608.542 206.984 599.224 189.349 593.156 201.906C593.156 201.906 592.026 205.151 593.292 206.422C593.292 206.422 589.906 203.88 591.458 197.672C593.011 191.464 603.313 194.286 606.281 199.365C609.245 204.448 610.094 206.99 609.667 207.271C609.245 207.552 608.542 206.984 608.542 206.984ZM634.797 212.073C634.797 212.073 641.573 198.099 645.521 204.448C645.521 204.448 646.651 207.552 644.959 208.823C644.959 208.823 642.276 205.578 639.88 209.531C637.479 213.479 638.469 213.203 638.469 213.203C638.469 213.203 635.927 213.906 634.797 212.068V212.073Z" fill="#00AD50" stroke="black" stroke-width="0.584135" stroke-miterlimit="4.8"/>
<path d="M644.953 208.823C644.953 208.823 648.62 210.792 647.354 214.745C647.354 214.745 652.292 205.292 645.516 204.443C645.521 204.443 646.792 207.411 644.953 208.823ZM645.38 199.229C645.38 199.229 654.271 201.766 654.552 205.583C654.552 205.583 656.11 198.24 651.026 195.979C651.026 195.979 644.953 196.969 645.38 199.229Z" fill="#00AD50" stroke="black" stroke-width="0.584135" stroke-miterlimit="4.8"/>
<path d="M649.333 187.505C653.146 180.026 657.943 189.906 657.943 189.906C657.943 189.906 659.636 182.146 654.839 180.729C650.037 179.323 646.932 197.245 646.932 197.245L641.287 198.516C641.287 198.516 642.839 182.849 651.307 181.438L652.297 181.578" fill="#00AD50"/>
<path d="M649.333 187.505C653.146 180.026 657.943 189.906 657.943 189.906C657.943 189.906 659.636 182.146 654.839 180.729C650.037 179.323 646.932 197.245 646.932 197.245L641.287 198.516C641.287 198.516 642.839 182.849 651.307 181.438L652.297 181.578" stroke="black" stroke-width="0.584135" stroke-miterlimit="4.8"/>
<path d="M642.557 192.021C642.557 192.021 637.193 181.016 633.521 179.885C629.849 178.755 635.5 177.063 637.761 179.177C640.011 181.297 644.25 183.979 643.828 189.625L642.557 192.021ZM637.052 207.13C637.052 207.13 638.604 199.651 642.839 197.391C647.068 195.13 651.021 195.979 651.021 195.979C651.021 195.979 645.938 197.104 645.099 199.651C644.25 202.188 642.839 202.328 642.839 202.328L637.052 207.13Z" fill="#00AD50" stroke="black" stroke-width="0.584135" stroke-miterlimit="4.8"/>
<path d="M634.797 212.073C634.797 212.073 632.396 216.589 632.959 217.292C632.959 217.292 630.422 220.964 631.406 222.797C631.406 222.797 633.948 224.771 635.078 223.922C635.078 223.922 638.042 219.833 637.193 217.573C637.193 217.573 639.172 214.896 638.469 213.203C638.469 213.203 635.505 213.344 634.797 212.073Z" fill="#862633" stroke="black" stroke-width="0.584135" stroke-miterlimit="4.8"/>
<path d="M622.38 204.005C622.536 204.089 623.964 204.776 624.922 204.458L625.609 203.87L625.068 203.604C624.719 204.302 623.167 203.729 622.646 203.469L622.38 204.005ZM622.146 208.385L622.031 208.979C622.151 209 625.016 209.557 626.38 208.344L625.979 207.896C624.839 208.906 622.177 208.396 622.146 208.385ZM621.422 213.375L621.068 213.859C621.104 213.885 624.432 216.255 626.563 213.667L626.094 213.286C624.323 215.432 621.542 213.458 621.422 213.375ZM608.495 214.094L608.62 214.417C608.74 214.365 611.557 213.234 611.74 211.172L611.396 211.141C611.234 212.99 608.521 214.083 608.495 214.094ZM610.089 216.667L610.115 217.01C610.224 217.005 612.828 216.807 613.281 214.99L612.948 214.901C612.552 216.479 610.115 216.667 610.089 216.667ZM610.63 219.333L610.609 219.682C610.734 219.688 613.651 219.839 614.641 218.224L614.349 218.042C613.464 219.484 610.656 219.339 610.63 219.333ZM632.745 217.505C632.797 217.563 634.052 218.807 635.521 218.75C636.24 218.724 636.88 218.391 637.417 217.776L636.964 217.38C636.536 217.87 636.047 218.13 635.505 218.151C634.302 218.193 633.177 217.094 633.167 217.083L632.745 217.505Z" fill="black"/>
<path d="M720.396 227.828C720.219 227.896 720.068 227.995 719.938 228.13L720.396 227.828ZM730.776 225.229C730.672 224.969 730.61 225.078 730.474 224.964C730.287 224.807 730.177 224.307 730.011 224.125C729.912 224.01 729.797 224.12 729.688 224.094C729.448 223.557 729.162 222.995 728.906 222.479C728.953 222.406 728.974 222.328 728.974 222.24C728.974 222.219 728.854 221.807 728.849 221.792C728.776 221.677 728.662 221.745 728.589 221.568C728.511 221.391 728.573 221.042 728.542 220.833C728.521 220.656 728.453 220.563 728.464 220.318C728.474 220.104 728.589 219.854 728.578 219.667C728.573 219.552 728.432 219.287 728.391 219.188C728.224 218.787 728.084 218.406 728.063 217.906C728.042 217.458 728.136 217.182 728.167 216.792C728.209 216.323 727.964 216.094 727.964 215.662C727.964 215.333 728.104 214.958 728.146 214.662C728.198 214.193 728.203 213.724 728.167 213.25C728.141 212.854 728.026 212.615 728.089 212.167C728.104 212.057 728.156 211.969 728.167 211.813C728.167 211.703 728.167 211.599 728.167 211.495V210.849C728.167 210.641 728.188 210.406 728.167 210.203C728.151 210.037 728.052 209.859 728.052 209.729C728.052 209.5 728.198 209.391 728.167 209.078C728.146 208.854 728.115 208.802 728.063 208.609C727.964 208.24 728.031 207.865 727.969 207.469C727.943 207.281 727.88 207.219 727.865 207.005C727.839 206.75 727.917 206.662 727.943 206.479C727.969 206.302 727.995 206.063 727.969 205.875C727.943 205.646 727.834 205.484 727.865 205.234L727.781 208.063C727.709 205.594 727.61 203.307 727.61 203.307L723.854 201.542C723.854 201.542 723.537 208.443 723.615 209.401C723.693 210.365 724.016 216.948 723.854 217.75C723.693 218.552 723.297 222.563 723.297 222.563C723.297 222.563 721.458 223.849 720.74 225.292C720.016 226.734 720.177 227.219 719.938 227.219L721.724 226.938L720.391 227.828C720.693 227.703 720.969 227.745 721.219 227.953C721.25 227.979 721.448 228.151 721.474 228.151C721.547 228.151 721.641 227.969 721.729 227.938C722.005 227.844 722.24 228.365 722.5 228.323C722.641 228.302 722.834 228.156 722.948 228.005C723.047 227.88 723.083 227.651 723.182 227.568C723.271 227.49 723.495 227.578 723.594 227.578C723.854 227.578 724.12 227.589 724.386 227.578C724.735 227.573 725.016 227.078 725.339 226.797C725.641 226.547 725.86 226.458 726.182 226.479C726.531 226.505 726.849 226.828 727.209 226.854C727.479 226.865 727.667 226.896 727.886 226.615C728.037 226.417 728.141 226.125 728.287 225.917L729.172 225.781C729.349 225.854 729.526 225.932 729.677 225.927C729.906 225.917 730.141 225.891 730.365 225.927C730.448 225.938 730.62 226.135 730.688 226.089C730.74 226.052 730.818 225.781 730.865 225.698C730.849 225.589 730.813 225.318 730.776 225.229Z" fill="#862633" stroke="black" stroke-width="0.314534" stroke-miterlimit="4.8"/>
<path d="M723.172 227.698C723.401 227.698 723.609 227.646 723.797 227.813C723.828 227.875 723.859 227.932 723.886 227.99C723.943 228.031 724.005 228.042 724.073 228.016C724.203 228.099 724.229 228.151 724.37 228.182C724.5 228.208 724.641 228.177 724.771 228.177C724.938 228.182 725.016 228.24 725.172 228.302C725.438 228.412 725.615 228.307 725.844 228.141C726.115 227.943 726.214 228.094 726.469 228.344C726.667 228.526 726.625 228.51 726.797 228.385C726.823 228.323 726.854 228.266 726.886 228.219C726.969 228.182 727.057 228.156 727.146 228.141C727.292 228.073 727.432 228.083 727.568 228.031C727.714 227.974 727.818 227.818 727.969 227.844C728.099 227.87 728.245 227.979 728.37 228.016C728.49 228.057 728.542 228.083 728.641 228.156C728.823 227.787 729.219 227.677 729.469 227.495C729.734 227.313 729.979 227.537 730.266 227.537C730.422 227.537 730.484 227.448 730.594 227.412C730.714 227.37 730.854 227.432 730.974 227.385C731.099 227.339 731.12 227.219 731.261 227.203C731.516 227.172 731.797 227.589 732.052 227.667C732.198 227.714 732.859 227.859 732.761 227.375C732.667 226.912 732.25 227.229 732.162 226.906C732.115 226.719 732.214 226.458 732.156 226.25C732.104 226.063 731.896 225.839 731.771 225.797C731.615 225.75 731.526 225.912 731.391 225.787C731.281 225.682 731.24 225.302 731.146 225.151C731.016 225.245 730.938 225.333 730.766 225.297C730.573 225.25 730.594 225.188 730.448 225.005C730.136 224.615 729.958 225.24 729.667 225.141C729.448 225.068 729.245 224.516 729.073 224.292C728.984 224.172 728.724 223.787 728.594 223.87C728.37 224.016 728.573 224.438 728.453 224.625C728.37 224.755 728.073 224.625 727.969 224.646C727.797 224.682 727.766 224.724 727.646 224.927C727.396 225.339 727.255 225.662 726.87 225.615C726.688 225.594 726.552 225.412 726.37 225.479C726.182 225.552 726.073 225.755 725.87 225.776C725.714 225.787 725.542 225.797 725.396 225.74C725.25 225.672 725.083 225.401 724.953 225.323C724.896 225.276 724.839 225.266 724.771 225.292C724.755 225.281 724.557 225.167 724.552 225.167C724.318 225.099 724.339 225.104 724.245 225.412C724.188 225.604 724.172 225.797 724.099 225.979C724.031 226.13 723.886 226.313 723.797 226.417C723.636 226.589 723.557 226.542 723.349 226.604C723.177 226.662 722.953 226.927 722.865 226.589C722.729 226.078 723.24 225.313 722.672 225.448C722.521 225.479 722.432 225.51 722.344 225.729C722.24 225.979 722.323 226.141 722.276 226.422C722.219 226.771 721.552 227.354 721.682 227.672C721.771 227.891 722.068 227.552 722.151 227.604C722.287 227.698 722.245 227.922 722.344 228.068C722.542 228.375 723.141 227.594 723.172 228.016M720.761 224.969C720.761 224.922 720.75 224.88 720.75 224.833C720.589 224.807 720.412 224.635 720.266 224.635C720.125 224.625 719.859 224.964 719.766 225.125C719.474 225.604 719.552 226.26 719.063 226.25C718.943 226.25 718.662 226.167 718.557 226.24C718.375 226.37 718.49 226.755 718.49 227.021C718.49 227.266 718.604 227.021 718.469 227.339C718.432 227.427 718.313 227.458 718.281 227.573C718.182 227.995 718.531 227.859 718.682 227.854C719.078 227.854 719.469 227.854 719.865 227.854C720.099 227.859 720.245 227.776 720.464 227.693C720.609 227.641 720.922 227.646 721.042 227.516C721.089 227.464 721.229 227.135 721.25 227.057C721.281 226.896 721.219 226.698 721.261 226.563C721.323 226.328 721.531 226.417 721.573 226.099C721.672 225.313 720.839 225.901 720.969 225.13" fill="#862633"/>
<path d="M723.172 227.698C723.401 227.698 723.609 227.646 723.797 227.813C723.828 227.875 723.859 227.932 723.886 227.99C723.943 228.031 724.005 228.042 724.073 228.016C724.203 228.099 724.229 228.151 724.37 228.182C724.5 228.208 724.641 228.177 724.771 228.177C724.938 228.182 725.016 228.24 725.172 228.302C725.438 228.412 725.615 228.307 725.844 228.141C726.115 227.943 726.214 228.094 726.469 228.344C726.667 228.526 726.625 228.51 726.797 228.385C726.823 228.323 726.854 228.266 726.886 228.219C726.969 228.182 727.057 228.156 727.146 228.141C727.292 228.073 727.432 228.083 727.568 228.031C727.714 227.974 727.818 227.818 727.969 227.844C728.099 227.87 728.245 227.979 728.37 228.016C728.49 228.057 728.542 228.083 728.641 228.156C728.823 227.787 729.219 227.677 729.469 227.495C729.734 227.313 729.979 227.537 730.266 227.537C730.422 227.537 730.484 227.448 730.594 227.412C730.714 227.37 730.854 227.432 730.974 227.385C731.099 227.339 731.12 227.219 731.261 227.203C731.516 227.172 731.797 227.589 732.052 227.667C732.198 227.714 732.859 227.859 732.761 227.375C732.667 226.912 732.25 227.229 732.162 226.906C732.115 226.719 732.214 226.458 732.156 226.25C732.104 226.063 731.896 225.839 731.771 225.797C731.615 225.75 731.526 225.912 731.391 225.787C731.281 225.682 731.24 225.302 731.146 225.151C731.016 225.245 730.938 225.333 730.766 225.297C730.573 225.25 730.594 225.188 730.448 225.005C730.136 224.615 729.958 225.24 729.667 225.141C729.448 225.068 729.245 224.516 729.073 224.292C728.984 224.172 728.724 223.787 728.594 223.87C728.37 224.016 728.573 224.438 728.453 224.625C728.37 224.755 728.073 224.625 727.969 224.646C727.797 224.682 727.766 224.724 727.646 224.927C727.396 225.339 727.255 225.662 726.87 225.615C726.688 225.594 726.552 225.412 726.37 225.479C726.182 225.552 726.073 225.755 725.87 225.776C725.714 225.787 725.542 225.797 725.396 225.74C725.25 225.672 725.083 225.401 724.953 225.323C724.896 225.276 724.839 225.266 724.771 225.292C724.755 225.281 724.557 225.167 724.552 225.167C724.318 225.099 724.339 225.104 724.245 225.412C724.188 225.604 724.172 225.797 724.099 225.979C724.031 226.13 723.886 226.313 723.797 226.417C723.636 226.589 723.557 226.542 723.349 226.604C723.177 226.662 722.953 226.927 722.865 226.589C722.729 226.078 723.24 225.313 722.672 225.448C722.521 225.479 722.432 225.51 722.344 225.729C722.24 225.979 722.323 226.141 722.276 226.422C722.219 226.771 721.552 227.354 721.682 227.672C721.771 227.891 722.068 227.552 722.151 227.604C722.287 227.698 722.245 227.922 722.344 228.068C722.542 228.375 723.141 227.594 723.172 228.016M720.761 224.969C720.761 224.922 720.75 224.88 720.75 224.833C720.589 224.807 720.412 224.635 720.266 224.635C720.125 224.625 719.859 224.964 719.766 225.125C719.474 225.604 719.552 226.26 719.063 226.25C718.943 226.25 718.662 226.167 718.557 226.24C718.375 226.37 718.49 226.755 718.49 227.021C718.49 227.266 718.604 227.021 718.469 227.339C718.432 227.427 718.313 227.458 718.281 227.573C718.182 227.995 718.531 227.859 718.682 227.854C719.078 227.854 719.469 227.854 719.865 227.854C720.099 227.859 720.245 227.776 720.464 227.693C720.609 227.641 720.922 227.646 721.042 227.516C721.089 227.464 721.229 227.135 721.25 227.057C721.281 226.896 721.219 226.698 721.261 226.563C721.323 226.328 721.531 226.417 721.573 226.099C721.672 225.313 720.839 225.901 720.969 225.13" stroke="black" stroke-width="0.314534" stroke-miterlimit="4.8"/>
<path d="M730.245 203.162C730.245 204.177 729.547 204.995 728.688 204.995C727.833 204.995 727.136 204.177 727.136 203.162C727.136 202.146 727.833 201.323 728.688 201.323C729.547 201.323 730.245 202.146 730.245 203.162ZM725.167 200.896C725.167 201.912 724.469 202.729 723.61 202.729C722.755 202.729 722.057 201.912 722.057 200.896C722.057 199.885 722.755 199.063 723.61 199.063C724.469 199.063 725.167 199.885 725.167 200.896Z" fill="black" stroke="black" stroke-width="0.584135" stroke-miterlimit="4.8"/>
<path d="M727.844 201.599C727.844 202.615 727.151 203.432 726.292 203.432C725.438 203.432 724.74 202.615 724.74 201.599C724.74 200.583 725.438 199.766 726.292 199.766C727.151 199.766 727.844 200.589 727.844 201.599Z" fill="black" stroke="black" stroke-width="0.584135" stroke-miterlimit="4.8"/>
<path d="M725.245 203.281C725.245 204.297 724.547 205.115 723.693 205.115C722.834 205.115 722.141 204.292 722.141 203.281C722.141 202.266 722.834 201.448 723.693 201.448C724.552 201.448 725.245 202.266 725.245 203.281Z" fill="black" stroke="black" stroke-width="0.584135" stroke-miterlimit="4.8"/>
<path d="M727.656 204.677C727.656 205.693 726.958 206.516 726.104 206.516C725.25 206.516 724.552 205.693 724.552 204.677C724.552 203.667 725.25 202.844 726.104 202.844C726.958 202.849 727.656 203.667 727.656 204.677Z" fill="black" stroke="black" stroke-width="0.584135" stroke-miterlimit="4.8"/>
<path d="M728.406 184.662C728.406 184.662 744.073 162.787 760.87 185.51C760.87 185.51 761.011 187.771 759.459 190.167L759.037 188.333L758.047 188.615L757.766 187.49L755.927 187.349L756.495 184.948L754.516 186.5L754.802 184.802L752.542 187.068L752.828 182.266L750.422 186.359L750.709 183.537L749.86 184.807L749.349 183.162L748.594 184.807L747.459 183.958V185.089L745.485 183.396L744.781 185.651L743.792 183.255L743.511 184.948L742.521 182.969L742.38 185.089L739.13 183.677L739.839 185.651L738.287 184.526L738.568 185.651L736.453 185.229L736.594 186.5L734.334 186.078L734.761 187.203L731.656 186.781L732.781 188.052L732.469 188.568C732.469 188.568 749.438 182.974 750.568 204.146L747.459 205.698L748.307 204.005L747.459 203.438L744.922 201.464L745.625 198.781L744.781 199.068L744.641 197.516L744.214 197.797L743.224 196.245L742.943 196.807L742.24 194.969L741.531 196.245L741.11 193.135L739.979 195.115L739.839 193.984L739.412 194.693L738 192.995L737.584 194.125L737.016 193.281L736.594 194.266L735.042 192.854V193.984L734.052 193.135L733.625 193.703L731.229 192.432L731.084 193.557L729.818 192.432L729.391 193.557C729.391 193.557 744.781 202.313 739.979 216.568L739.13 218.401L738.849 213.604L737.438 216.146L738.422 210.641L737.438 211.625L737.297 209.51L736.031 211.625L735.599 209.229L735.037 209.932L734.188 206.266L733.485 207.818L732.354 203.724L731.511 205.417L730.943 201.891L730.38 204.005L728.682 200.901L728.406 202.167L727.417 199.63L726.849 200.479C726.849 200.479 724.026 200.333 723.182 199.63C722.334 198.927 719.933 203.865 719.933 203.865L720.219 200.901L719.229 202.875V200.901L717.396 206.828L716.969 202.594L715.985 206.266L715.558 205.135L715.276 206.688L714.714 206.12L714.219 207.787L713.297 207.115V209.37L712.453 208.24L711.745 211.63L711.323 210.219V211.771L710.62 210.927L709.912 214.313L708.922 212.901L708.787 215.297L709.203 217.135L708.078 216.573L708.5 219.531C708.5 219.531 704.125 211.349 709.349 203.443C714.568 195.542 721.625 193.422 721.625 193.422L720.917 192.719L720.776 192.01L716.547 194.13L716.688 192.854L715.558 193.844L715.276 192.432L714.568 193.703L714.432 193.141L713.443 194.693L712.875 192.432L712.172 195.12L711.505 193.24L710.052 197.234V194.271L708.922 197.375L708.5 193.99L707.656 197.938V194.412L706.38 197.938L705.537 194.552L704.969 197.797L704.125 195.255L703.276 199.068L702.011 195.677L701.302 200.76L700.459 198.781L700.313 202.453L699.328 200.198L700.313 204.995L699.042 203.162L699.469 206.12L697.636 202.875L697.776 206.688L696.787 205.417L696.36 206.828C696.36 206.828 695.943 192.151 705.959 189.323C715.985 186.505 722.474 190.172 722.474 190.172L718.667 187.068L719.089 186.078H717.677L718.24 184.948L715.281 185.094L716.125 183.964L713.865 184.245V183.542L712.453 184.667L713.021 183.401L711.042 184.667L710.922 182.792L709.912 184.385L709.354 182.693L704.834 187.208L706.104 182.552L705.255 183.542L705.115 182.552L703.844 184.531L703.563 183.115L703 184.807L702.573 182.833L701.589 184.807L700.599 182.979L700.177 185.375L699.469 184.104L698.625 185.938L697.495 184.807L697.354 185.938L695.094 184.948L695.662 186.646L693.964 185.234L693.542 187.49L692.552 186.365L691.849 189.188L691.146 186.505L690.438 188.62C690.438 188.62 699.266 165.943 721.594 180.74C721.594 180.74 724.026 183.115 724.594 184.807C725.156 186.505 724.735 185.094 724.735 185.094L724.313 169.427L725.156 176.203L725.719 173.802L725.584 177.333L727.839 172.391C727.839 172.391 725.156 180.578 726.146 183.542C726.146 183.542 727.136 174.083 730.526 172.953L727.417 179.729L728.406 179.589L727.698 181H728.547L727.521 183.24L726.99 184.391L727.552 185.516L728.406 184.662Z" fill="#00AD50" stroke="black" stroke-width="0.584135" stroke-miterlimit="4.8"/>
<path d="M726.083 193.865L726.531 194.266C726.589 194.203 727.984 192.719 730.328 194.698L730.719 194.234C727.917 191.865 726.099 193.844 726.083 193.865ZM725.406 186.182L725.313 186.724L726.401 186.26C726.151 186.698 725.901 187.135 725.651 187.568L727.276 187.031C726.604 187.906 725.932 188.786 725.266 189.661L725.745 190.031L728.943 185.839L726.953 186.5C727.161 186.141 727.807 185 727.807 185L726.089 185.74L726.443 183.589L725.849 183.49L725.406 186.182Z" fill="black"/>
<path d="M722.417 186.354C722.417 186.354 722.812 187.229 723.109 187.88C722.979 187.828 722.005 187.438 722.005 187.438L725.26 193.198C725.26 193.198 725.656 192.698 725.677 192.667C725.349 193.505 725.021 194.354 725.021 194.354L725.583 194.573L726.99 190.964L726.469 190.667L725.339 192.115C725.036 191.573 723.911 189.578 723.375 188.635C723.443 188.661 724.276 189 724.276 189C724.276 189 723.661 187.641 723.375 187.01L724.599 187.776V185.625H723.995V186.693L722 185.448L722.417 186.354ZM720.365 193.589L720.604 194.141C721.484 193.76 722.214 193.698 722.766 193.964C723.411 194.271 723.604 194.938 723.609 194.943L724.187 194.786C724.182 194.75 723.927 193.854 723.031 193.422C722.318 193.078 721.422 193.135 720.365 193.589ZM722.891 199.693L722.396 196.536L722.995 196.443L723.49 199.599L722.891 199.693ZM727.229 199.172L726.422 196.76L726.995 196.568L727.802 198.979L727.229 199.172ZM728.818 200.953L728.214 198.547L728.802 198.401L729.406 200.807L728.818 200.953Z" fill="black"/>
<path d="M608.323 273.375C608.323 273.375 605.677 272.172 604.469 273.052C603.266 273.938 603.432 275.219 602.386 275.135C602.386 275.135 606.396 276.021 607.281 274.974C608.162 273.938 608.323 273.615 608.323 273.615M608.807 274.484C608.807 274.484 607.068 276.813 607.672 278.177C608.271 279.542 609.557 279.656 609.255 280.656C609.255 280.656 610.979 276.932 610.151 275.844C609.323 274.766 609.047 274.537 609.047 274.537M605.875 268.037C605.875 268.037 603.094 268.896 602.787 270.354C602.464 271.813 603.443 272.667 602.61 273.297C602.61 273.297 606.193 271.292 606.156 269.922C606.125 268.557 606.037 268.214 606.037 268.214M607.505 268.995C607.505 268.995 608.823 266.396 607.995 265.162C607.167 263.917 605.875 264.021 606 262.984C606 262.984 604.943 266.953 605.948 267.88C606.953 268.802 607.266 268.979 607.266 268.979M604.781 268.052C604.781 268.052 604.844 265.146 603.557 264.391C602.276 263.63 601.156 264.281 600.818 263.292C600.818 263.292 601.589 267.328 602.896 267.729C604.203 268.125 604.563 268.146 604.563 268.146M609.526 272.891C609.526 272.891 612.573 271.844 612.818 275.135C613.057 278.422 612.656 277.302 612.656 277.302C612.656 277.302 611.052 273.771 609.287 273.208L609.526 272.891Z" fill="#00AD50"/>
<path d="M608.323 273.375C608.323 273.375 605.677 272.172 604.469 273.052C603.266 273.938 603.432 275.219 602.386 275.135C602.386 275.135 606.396 276.021 607.281 274.974C608.162 273.938 608.323 273.615 608.323 273.615M608.807 274.484C608.807 274.484 607.068 276.813 607.672 278.177C608.271 279.542 609.557 279.656 609.255 280.656C609.255 280.656 610.979 276.932 610.151 275.844C609.323 274.766 609.047 274.537 609.047 274.537M605.875 268.037C605.875 268.037 603.094 268.896 602.787 270.354C602.464 271.813 603.443 272.667 602.61 273.297C602.61 273.297 606.193 271.292 606.156 269.922C606.125 268.557 606.037 268.214 606.037 268.214M607.505 268.995C607.505 268.995 608.823 266.396 607.995 265.162C607.167 263.917 605.875 264.021 606 262.984C606 262.984 604.943 266.953 605.948 267.88C606.953 268.802 607.266 268.979 607.266 268.979M604.781 268.052C604.781 268.052 604.844 265.146 603.557 264.391C602.276 263.63 601.156 264.281 600.818 263.292C600.818 263.292 601.589 267.328 602.896 267.729C604.203 268.125 604.563 268.146 604.563 268.146M609.526 272.891C609.526 272.891 612.573 271.844 612.818 275.135C613.057 278.422 612.656 277.302 612.656 277.302C612.656 277.302 611.052 273.771 609.287 273.208L609.526 272.891Z" stroke="black" stroke-width="0.584135" stroke-miterlimit="4.8"/>
<path d="M608.755 274.536C608.755 274.604 609.078 277.094 609.078 277.094L609.505 277.036L609.182 274.552C609.193 274.552 610.224 269.083 610.224 269.083L609.797 269.005L608.755 274.536Z" fill="black"/>
<path d="M605.984 273.729L605.844 274.135C607.302 274.646 609.333 273.042 609.417 272.979L609.151 272.641C609.13 272.656 607.219 274.167 605.984 273.729ZM609.802 270.516L602.99 267.068L603.26 266.531L610.078 269.979L609.802 270.516Z" fill="black"/>
<path d="M604.865 269.745L604.438 269.318L605.802 267.953L606.224 268.38L604.865 269.745ZM607.25 269.078L605.807 265.948L606.349 265.698L607.797 268.828L607.25 269.078ZM609.266 272.911L609.307 273.51C611.161 273.385 611.615 274.589 611.615 274.599L612.208 274.479C612.135 274.135 611.396 272.766 609.266 272.911Z" fill="black"/>
<path d="M640.542 274.297C642.813 273.021 643.271 268.563 643.271 268.563C642.724 270.203 638.542 271.839 638.542 271.839C641.63 269.922 645.36 261.292 645.36 261.292C644.36 264.385 636.271 266.927 631.084 269.839C625.901 272.745 628.63 281.115 628.63 281.115C627.177 280.115 624.354 275.662 623.813 271.745C623.266 267.839 621.719 266.292 618.172 265.839C614.625 265.38 612.537 269.38 612.537 269.38L607.261 272.115L612.625 272.292C612.625 272.292 616.448 273.568 616.448 276.568C616.448 279.568 613.083 291.573 618.625 298.302C622.485 302.979 636.724 305.667 636.724 305.667" fill="white"/>
<path d="M640.542 274.297C642.813 273.021 643.271 268.563 643.271 268.563C642.724 270.203 638.542 271.839 638.542 271.839C641.63 269.922 645.36 261.292 645.36 261.292C644.36 264.385 636.271 266.927 631.084 269.839C625.901 272.745 628.63 281.115 628.63 281.115C627.177 280.115 624.354 275.662 623.813 271.745C623.266 267.839 621.719 266.292 618.172 265.839C614.625 265.38 612.537 269.38 612.537 269.38L607.261 272.115L612.625 272.292C612.625 272.292 616.448 273.568 616.448 276.568C616.448 279.568 613.083 291.573 618.625 298.302C622.485 302.979 636.724 305.667 636.724 305.667" stroke="black" stroke-width="0.748891" stroke-miterlimit="4.8"/>
<path d="M630.083 283.568C630.083 283.568 631.177 278.203 634.724 278.385C638.271 278.568 639.271 274.385 641.359 273.745C643.453 273.109 654.271 270.203 655.453 265.016C655.453 265.016 654.453 273.568 644.547 277.839C644.547 277.839 652.542 275.203 653.453 273.474C653.453 273.474 649.906 281.115 641.271 282.297C641.271 282.297 649.365 281.656 650.547 279.479C650.547 279.479 646.906 284.297 640.906 284.932C640.906 284.932 646.453 287.208 647.912 285.297C647.912 285.297 644.906 288.844 641.177 289.115L642.182 289.385C642.182 289.385 638.636 293.573 634.724 290.75C630.813 287.932 630.724 291.479 630.724 291.479" fill="white"/>
<path d="M630.083 283.568C630.083 283.568 631.177 278.203 634.724 278.385C638.271 278.568 639.271 274.385 641.359 273.745C643.453 273.109 654.271 270.203 655.453 265.016C655.453 265.016 654.453 273.568 644.547 277.839C644.547 277.839 652.542 275.203 653.453 273.474C653.453 273.474 649.906 281.115 641.271 282.297C641.271 282.297 649.365 281.656 650.547 279.479C650.547 279.479 646.906 284.297 640.906 284.932C640.906 284.932 646.453 287.208 647.912 285.297C647.912 285.297 644.906 288.844 641.177 289.115L642.182 289.385C642.182 289.385 638.636 293.573 634.724 290.75C630.813 287.932 630.724 291.479 630.724 291.479" stroke="black" stroke-width="0.748891" stroke-miterlimit="4.8"/>
<path d="M638.156 291.656C638.156 291.656 642.724 299.297 643.182 303.386C643.182 303.386 651.912 313.026 655.182 313.568C655.182 313.568 653.641 314.203 650.818 311.844C650.818 311.844 653.182 314.297 653.641 314.385C654.089 314.479 651.729 314.208 651.365 313.568C651.365 313.568 652.365 315.026 653 315.208C653.641 315.391 652.365 315.026 652.365 315.026C652.365 315.026 651.182 314.844 650.636 314.391C650.089 313.938 650.453 315.568 650.453 315.568C650.453 315.568 649.089 315.203 648.636 314.75C648.182 314.297 648.818 315.755 648.818 315.755L647.636 315.479L646.818 316.021C646.818 316.021 646.729 316.568 646.177 316.115C645.636 315.667 644.636 316.115 644.636 316.115C644.636 316.115 643.906 316.755 643.542 316.297C643.182 315.844 641.802 318.047 641.802 318.047L636.078 304.224" fill="white"/>
<path d="M638.156 291.656C638.156 291.656 642.724 299.297 643.182 303.386C643.182 303.386 651.912 313.026 655.182 313.568C655.182 313.568 653.641 314.203 650.818 311.844C650.818 311.844 653.182 314.297 653.641 314.385C654.089 314.479 651.729 314.208 651.365 313.568C651.365 313.568 652.365 315.026 653 315.208C653.641 315.391 652.365 315.026 652.365 315.026C652.365 315.026 651.182 314.844 650.636 314.391C650.089 313.938 650.453 315.568 650.453 315.568C650.453 315.568 649.089 315.203 648.636 314.75C648.182 314.297 648.818 315.755 648.818 315.755L647.636 315.479L646.818 316.021C646.818 316.021 646.729 316.568 646.177 316.115C645.636 315.667 644.636 316.115 644.636 316.115C644.636 316.115 643.906 316.755 643.542 316.297C643.182 315.844 641.802 318.047 641.802 318.047L636.078 304.224" stroke="black" stroke-width="0.748891" stroke-miterlimit="4.8"/>
<path d="M643.594 316.729L636.354 302.953L637.115 302.552L644.354 316.328L643.594 316.729ZM649.917 315.797L637.536 301.938L638.177 301.365L650.557 315.224L649.917 315.797ZM652.74 314.578L638.609 301.411L639.198 300.781L653.323 313.948L652.74 314.578ZM617.333 270.229C617.333 270.229 616.411 268.578 615.609 269.198C614.807 269.818 614.344 269.932 614.208 269.885C614.208 269.885 615.01 269.932 615.469 269.495C615.927 269.057 616.708 269.333 617.333 270.229ZM612.344 269.474C612.344 269.474 612.849 270.521 612.859 270.536C612.807 270.542 612.286 272.229 612.286 272.229L612.698 272.354L613.26 270.521C613.25 270.359 612.734 269.286 612.734 269.286L612.344 269.474Z" fill="black"/>
<path d="M617.12 269.974C617.12 269.974 616.432 270.781 615.495 270.547L614.557 270.318C614.557 270.318 615.354 270.365 615.885 270.391C616.411 270.411 617.099 270.135 617.12 269.974Z" fill="black"/>
<path d="M616.896 270.141C616.896 270.141 616.052 269.245 615.474 269.495C615.474 269.495 616.484 269.177 617.057 270.042L616.896 270.141Z" fill="black"/>
<path d="M616.755 269.974C616.755 269.974 615.792 270.641 614.734 269.906L614.672 269.859L614.807 269.812C614.807 269.812 616.141 270.365 616.755 269.974Z" fill="black"/>
<path d="M616.219 269.812C616.219 270.005 616.125 270.099 615.932 270.099C615.745 270.099 615.646 270.005 615.646 269.812C615.646 269.62 615.745 269.526 615.932 269.526C616.125 269.526 616.219 269.62 616.219 269.812Z" fill="black"/>
<path d="M616.708 295.214C616.708 295.214 615.964 296.589 616.354 297.411C616.75 298.24 618.521 298.667 618.755 299.771C618.995 300.875 619.583 300.87 620.406 300.719C621.234 300.557 621.391 300.521 621.391 300.521C621.391 300.521 617.927 298.667 617.026 295.682L616.708 295.214Z" fill="black"/>
<path d="M728.656 267.24C728.656 267.24 734.958 258.927 740.547 261.115C746.141 263.297 749.771 264.349 749.771 264.349C749.771 264.349 749.88 269.948 746.906 269.948C743.938 269.948 741.094 264.354 738.391 266.016C735.688 267.677 733.464 269.948 733.287 270.734C733.115 271.516 726.125 271.693 728.656 267.24Z" fill="#862633" stroke="black" stroke-width="0.359468" stroke-miterlimit="4.8"/>
<path d="M704.729 307.323C704.729 307.323 702.985 309.151 703.771 309.594C704.557 310.026 706.125 309.5 706.125 308.891C706.125 308.276 705.083 307.146 704.729 307.323Z" fill="#862633" stroke="black" stroke-width="0.584135" stroke-miterlimit="4.8"/>
<path d="M703.334 309.068C703.334 309.068 700.104 307.229 697.573 311.594C695.037 315.964 692.943 323.037 691.458 323.995C689.974 324.958 705.87 317.011 706.042 313.693C706.042 313.693 707.089 309.412 705.432 309.5C703.771 309.589 703.682 309.766 703.334 309.068Z" fill="#862633" stroke="black" stroke-width="0.584135" stroke-miterlimit="4.8"/>
<path d="M703.771 309.594C703.771 309.594 700.453 310.375 699.755 315.089C699.057 319.807 694.427 322.25 694.167 322.422M749.781 264.349C749.781 264.349 744.735 266.104 745.604 269.599Z" fill="#862633"/>
<path d="M703.771 309.594C703.771 309.594 700.453 310.375 699.755 315.089C699.057 319.807 694.427 322.25 694.167 322.422M749.781 264.349C749.781 264.349 744.735 266.104 745.604 269.599" stroke="black" stroke-width="0.359468" stroke-miterlimit="4.8"/>
<path d="M711.021 274.573C711.021 274.573 711.193 262.609 720.969 263.13C722.818 263.302 721.938 265.49 721.938 265.49C721.938 265.49 724.052 264.01 725.016 266.359C725.016 266.359 728.099 264.964 728.448 268.021C728.448 268.021 731.797 267.589 731.354 270.292C731.354 270.292 733.646 269.771 733.557 271.693C733.557 271.693 736.198 270.641 735.932 273.349C735.932 273.349 738.839 271.427 738.401 274.922C738.401 274.922 741.396 272.828 742.448 276.318C743.505 279.813 739.459 287.234 735.495 289.156" fill="#FEDD00"/>
<path d="M711.021 274.573C711.021 274.573 711.193 262.609 720.969 263.13C722.818 263.302 721.938 265.49 721.938 265.49C721.938 265.49 724.052 264.01 725.016 266.359C725.016 266.359 728.099 264.964 728.448 268.021C728.448 268.021 731.797 267.589 731.354 270.292C731.354 270.292 733.646 269.771 733.557 271.693C733.557 271.693 736.198 270.641 735.932 273.349C735.932 273.349 738.839 271.427 738.401 274.922C738.401 274.922 741.396 272.828 742.448 276.318C743.505 279.813 739.459 287.234 735.495 289.156" stroke="black" stroke-width="0.359468" stroke-miterlimit="4.8"/>
<path d="M738.182 275.302C738.193 275.396 739.5 284.661 734.245 288.052L734.427 288.344C739.875 284.828 738.536 275.344 738.521 275.25L738.182 275.302ZM731.854 285.448L732.094 285.693C735.422 282.453 736.141 273.729 736.167 273.359L735.823 273.333C735.818 273.422 735.094 282.302 731.854 285.448ZM728.745 283.375L729.089 283.401C729.516 278.01 733.729 271.849 733.771 271.786L733.49 271.594C733.443 271.656 729.182 277.891 728.745 283.375ZM726.302 281.802L726.646 281.833C727.245 275.333 731.536 270.453 731.583 270.406L731.328 270.177C731.281 270.224 726.917 275.188 726.302 281.802ZM722.896 279.63L723.24 279.641C723.578 271.964 728.615 268.198 728.667 268.161L728.464 267.88C728.411 267.922 723.245 271.776 722.896 279.63ZM719.75 277.719L720.094 277.708C719.844 270.724 725.214 266.542 725.271 266.495L725.062 266.224C725.005 266.271 719.495 270.552 719.75 277.719ZM714.083 275.167L714.422 275.208C715.359 267.646 722.089 265.677 722.156 265.656L722.062 265.328C721.995 265.344 715.042 267.37 714.083 275.167Z" fill="black"/>
<path d="M705.25 289.073C705.25 289.073 703.594 277.979 710.229 274.49C710.229 274.49 711.458 274.224 712.151 275.797C712.151 275.797 715.646 274.318 715.734 277.281C715.734 277.281 717.479 275.885 717.917 277.802C717.917 277.802 721.672 277.021 720.974 279.813C720.974 279.813 724.115 278.943 723.854 281.646C723.854 281.646 727 280.51 726.474 282.87C726.474 282.87 729.792 282.083 729.005 284.792C729.005 284.792 733.109 284.354 731.891 287.234C731.891 287.234 734.943 286.453 734.245 288.807C734.245 288.807 738.261 289.51 736.427 292.042C734.594 294.568 729.964 298.412 725.427 300.073" fill="#00AD50"/>
<path d="M705.25 289.073C705.25 289.073 703.594 277.979 710.229 274.49C710.229 274.49 711.458 274.224 712.151 275.797C712.151 275.797 715.646 274.318 715.734 277.281C715.734 277.281 717.479 275.885 717.917 277.802C717.917 277.802 721.672 277.021 720.974 279.813C720.974 279.813 724.115 278.943 723.854 281.646C723.854 281.646 727 280.51 726.474 282.87C726.474 282.87 729.792 282.083 729.005 284.792C729.005 284.792 733.109 284.354 731.891 287.234C731.891 287.234 734.943 286.453 734.245 288.807C734.245 288.807 738.261 289.51 736.427 292.042C734.594 294.568 729.964 298.412 725.427 300.073" stroke="black" stroke-width="0.359468" stroke-miterlimit="4.8"/>
<path d="M701.672 300.245C701.672 300.245 698.964 290.995 704.12 288.63C704.12 288.63 705.073 288.365 705.25 289.333C705.25 289.333 706.391 287.844 707.261 289.156C707.261 289.156 709.88 287.932 710.495 289.854C710.495 289.854 712.24 288.365 713.115 290.547C713.115 290.547 714.771 289.854 714.771 291.599C714.771 291.599 717.042 290.635 717.042 292.734C717.042 292.734 719.224 291.859 718.787 294.219C718.787 294.219 722.11 294.74 721.146 296.313C721.146 296.313 724.12 297.094 722.979 298.323C722.979 298.323 726.209 297.974 724.464 300.156C724.464 300.156 726.906 299.37 725.516 302.078C724.115 304.787 719.75 307.755 716.693 308.104" fill="#00AD50"/>
<path d="M701.672 300.245C701.672 300.245 698.964 290.995 704.12 288.63C704.12 288.63 705.073 288.365 705.25 289.333C705.25 289.333 706.391 287.844 707.261 289.156C707.261 289.156 709.88 287.932 710.495 289.854C710.495 289.854 712.24 288.365 713.115 290.547C713.115 290.547 714.771 289.854 714.771 291.599C714.771 291.599 717.042 290.635 717.042 292.734C717.042 292.734 719.224 291.859 718.787 294.219C718.787 294.219 722.11 294.74 721.146 296.313C721.146 296.313 724.12 297.094 722.979 298.323C722.979 298.323 726.209 297.974 724.464 300.156C724.464 300.156 726.906 299.37 725.516 302.078C724.115 304.787 719.75 307.755 716.693 308.104" stroke="black" stroke-width="0.359468" stroke-miterlimit="4.8"/>
<path d="M704.901 307.578C704.901 307.578 699.136 301.99 701.849 300.328C701.849 300.328 703.068 300.677 703.505 301.901C703.505 301.901 704.901 299.891 705.688 301.99C705.688 301.99 707.787 301.292 707.787 302.688L709.443 303.912C709.443 303.912 711.365 303.734 711.016 304.958C711.016 304.958 713.115 304.698 713.026 305.833C713.026 305.833 714.86 305.917 714.688 307.141C714.688 307.141 717.828 307.662 716.432 309.24C716.432 309.24 710.927 310.37 707.089 308.802C707.089 308.802 705.073 308.099 704.901 307.578Z" fill="#00AD50" stroke="black" stroke-width="0.359468" stroke-miterlimit="4.8"/>
<path d="M724.661 298.344L724.786 298.661C728.203 297.349 734.13 289.255 734.385 288.911L734.104 288.703C734.042 288.792 727.984 297.063 724.661 298.344ZM722.724 296.87L722.891 297.167C725.859 295.51 731.776 287.672 732.026 287.339L731.755 287.135C731.693 287.219 725.63 295.245 722.724 296.865V296.87ZM721.036 296.177L721.26 296.443C724.396 293.839 728.969 285.234 729.161 284.87L728.859 284.708C728.812 284.797 724.125 293.62 721.042 296.177H721.036ZM719.495 294.193L719.839 294.24C720.432 289.896 726.542 283.047 726.599 282.979L726.349 282.75C726.094 283.036 720.104 289.74 719.495 294.193ZM707.266 288.906L707.609 288.875C707.099 282.734 712.24 275.969 712.292 275.901L712.021 275.693C711.964 275.76 706.745 282.63 707.266 288.906ZM710.5 289.448L710.844 289.385C709.995 284.464 715.807 277.458 715.87 277.391L715.604 277.167C715.359 277.458 709.625 284.359 710.5 289.448ZM715.474 291.26L715.818 291.25C715.651 285.625 721.042 279.99 721.099 279.932L720.849 279.693C720.797 279.75 715.297 285.49 715.474 291.26ZM703.609 301.443L703.932 301.323C701.974 296.13 705.375 289.479 705.411 289.411L705.099 289.255C705.068 289.323 701.599 296.104 703.609 301.443ZM705.875 301.781L706.203 301.672C704.495 296.385 707.391 289.292 707.417 289.224L707.099 289.089C707.073 289.156 704.13 296.37 705.875 301.781ZM715.234 307.068L715.354 307.391C720.922 305.391 724.568 300.307 724.604 300.26L724.323 300.057C724.286 300.109 720.708 305.104 715.234 307.068ZM714.089 305.854L714.229 306.172C718.672 304.167 722.818 298.573 722.854 298.516L722.578 298.313C722.536 298.37 718.448 303.885 714.089 305.854ZM713.01 305.438L713.214 305.714C716.687 303.198 721.151 296.74 721.198 296.677L720.917 296.484C720.87 296.547 716.443 302.953 713.01 305.432V305.438ZM707.437 302.193L707.781 302.141C707.01 296.589 710.604 290.005 710.646 289.938L710.344 289.771C710.302 289.839 706.656 296.526 707.437 302.193ZM709.859 303.698L710.089 303.953C713.677 300.714 714.896 291.99 714.948 291.625L714.604 291.573C714.594 291.661 713.354 300.547 709.859 303.698Z" fill="black"/>
<path d="M712.313 304.729L712.516 305.01C717.578 301.349 718.948 294.318 718.958 294.25L718.625 294.187C718.609 294.255 717.266 301.146 712.313 304.734V304.729ZM712.896 289.583C712.896 289.911 712.917 290.234 712.943 290.568C712.938 290.542 709.104 302.984 709.104 302.984L709.432 303.089L713.281 290.599C712.688 284.562 718 277.974 718.052 277.911L717.786 277.698C717.734 277.755 712.896 283.755 712.896 289.583Z" fill="black"/>
<path d="M716.911 292.62C716.859 292.797 715.693 301.323 711.094 304.469L711.292 304.75C716.021 301.516 717.167 293.109 717.214 292.755C719.255 290.328 723.958 281.812 724.005 281.724L723.703 281.557C723.656 281.646 718.974 290.135 716.911 292.62ZM703.333 301.937C703.37 302.115 704.135 306.354 705.016 307.849L705.312 307.672C704.464 306.234 703.682 301.922 703.677 301.88L703.333 301.937ZM705.516 301.99C705.552 304.099 705.562 307.557 705.443 307.865L705.766 307.995C705.943 307.547 705.875 302.911 705.859 301.99H705.516Z" fill="black"/>
<path d="M705.708 308.031L706.021 308.172C707.5 304.964 707.953 302.745 707.958 302.724L707.62 302.656C707.615 302.677 707.167 304.859 705.708 308.031Z" fill="black"/>
<path d="M706.036 308.13L706.214 308.427C708.953 306.839 709.589 304.068 709.609 303.953L709.276 303.875C709.266 303.906 708.646 306.62 706.036 308.13Z" fill="black"/>
<path d="M706.547 308.37L706.583 308.714C709.266 308.443 711.094 305.182 711.172 305.047L710.87 304.88C710.854 304.911 709.052 308.12 706.547 308.37Z" fill="black"/>
<path d="M706.818 308.542L706.839 308.885C711.146 308.62 713.089 306.047 713.167 305.938L712.885 305.734C712.87 305.755 710.958 308.292 706.818 308.542Z" fill="black"/>
<path d="M707.125 308.63L707.052 308.969C707.286 309.021 712.776 310.188 714.656 307.323L714.37 307.135C712.62 309.802 707.177 308.646 707.125 308.63Z" fill="black"/>
<path d="M583.901 107.797V261.385C583.901 311.62 674.667 341.448 674.667 341.448C674.667 341.448 765.432 311.62 765.432 261.385V107.797H583.901Z" stroke="black" stroke-width="3.14534" stroke-miterlimit="4.8"/>
</g>
<defs>
<clipPath id="clip0_0_1">
<rect width="900" height="450" fill="white"/>
</clipPath>
</defs>
</svg>
