<svg width="900" height="450" viewBox="0 0 900 450" fill="none" xmlns="http://www.w3.org/2000/svg">
<rect width="900" height="450" fill="#1E1E1E"/>
<g clip-path="url(#clip0_0_1)">
<rect width="900" height="450" fill="white"/>
<mask id="mask0_0_1" style="mask-type:luminance" maskUnits="userSpaceOnUse" x="0" y="0" width="900" height="450">
<path d="M0 -3.37219e-06H900V450H0V-3.37219e-06Z" fill="white"/>
</mask>
<g mask="url(#mask0_0_1)">
<path d="M0 -3.37219e-06H900V450H0V-3.37219e-06Z" fill="white"/>
<path d="M0 -3.37219e-06H900V450H0V-3.37219e-06Z" fill="#75B2DE"/>
</g>
<path d="M450 44.9323L436.115 87.6667L457.484 94.6094" fill="white"/>
<path d="M450 44.9323L463.885 87.6667L442.516 94.6094" fill="white"/>
<path d="M492.734 75.9792H447.802V98.4479" fill="white"/>
<path d="M492.734 75.9792L456.38 102.391L443.177 84.2187" fill="white"/>
<path d="M476.411 126.219L462.526 83.4844L441.161 90.4271" fill="white"/>
<path d="M476.411 126.219L440.057 99.8073L453.266 81.6302" fill="white"/>
<path d="M423.589 126.219L459.943 99.8073L446.734 81.6302" fill="white"/>
<path d="M423.589 126.219L437.474 83.4844L458.839 90.4271" fill="white"/>
<path d="M407.266 75.9792L443.62 102.391L456.823 84.2187" fill="white"/>
<path d="M407.266 75.9792H452.198V98.4479" fill="white"/>
<path d="M629.734 224.667L587 210.781L580.057 232.151" fill="white"/>
<path d="M629.734 224.667L587 238.552L580.057 217.188" fill="white"/>
<path d="M598.688 267.401V222.469H576.219" fill="white"/>
<path d="M598.688 267.401L572.276 231.047L590.448 217.844" fill="white"/>
<path d="M548.448 251.078L591.182 237.193L584.24 215.828" fill="white"/>
<path d="M548.448 251.078L574.859 214.724L593.036 227.932" fill="white"/>
<path d="M548.448 198.255L574.859 234.609L593.036 221.401" fill="white"/>
<path d="M548.448 198.255L591.182 212.141L584.24 233.51" fill="white"/>
<path d="M598.688 181.932L572.276 218.286L590.448 231.49" fill="white"/>
<path d="M598.688 181.932V226.865H576.219" fill="white"/>
<path d="M450 404.401L463.885 361.667L442.516 354.724" fill="white"/>
<path d="M450 404.401L436.115 361.667L457.484 354.724" fill="white"/>
<path d="M407.266 373.354H452.198V350.885" fill="white"/>
<path d="M407.266 373.354L443.62 346.943L456.823 365.12" fill="white"/>
<path d="M423.589 323.115L437.474 365.849L458.839 358.906" fill="white"/>
<path d="M423.589 323.115L459.943 349.526L446.734 367.703" fill="white"/>
<path d="M476.411 323.115L440.057 349.526L453.266 367.703" fill="white"/>
<path d="M476.411 323.115L462.526 365.849L441.161 358.906" fill="white"/>
<path d="M492.734 373.354L456.38 346.943L443.177 365.12" fill="white"/>
<path d="M492.734 373.354H447.802V350.885" fill="white"/>
<path d="M270.266 224.667L313 238.552L319.943 217.188" fill="white"/>
<path d="M270.266 224.667L313 210.781L319.943 232.151" fill="white"/>
<path d="M301.312 181.932V226.865H323.781" fill="white"/>
<path d="M301.312 181.932L327.724 218.286L309.552 231.49" fill="white"/>
<path d="M351.552 198.255L308.818 212.141L315.76 233.51" fill="white"/>
<path d="M351.552 198.255L325.141 234.609L306.964 221.401" fill="white"/>
<path d="M351.552 251.078L325.141 214.724L306.964 227.932" fill="white"/>
<path d="M351.552 251.078L308.818 237.193L315.76 215.828" fill="white"/>
<path d="M301.312 267.401L327.724 231.047L309.552 217.844" fill="white"/>
<path d="M301.312 267.401V222.469H323.781" fill="white"/>
</g>
<defs>
<clipPath id="clip0_0_1">
<rect width="900" height="450" fill="white"/>
</clipPath>
</defs>
</svg>
