<svg width="900" height="450" viewBox="0 0 900 450" fill="none" xmlns="http://www.w3.org/2000/svg">
<g clip-path="url(#clip0_763_14795)">
<path d="M900 0H0V450H900V0Z" fill="#1E1E1E"/>
<mask id="mask0_763_14795" style="mask-type:luminance" maskUnits="userSpaceOnUse" x="0" y="0" width="900" height="450">
<path d="M900 0H0V450H900V0Z" fill="white"/>
</mask>
<g mask="url(#mask0_763_14795)">
<mask id="mask1_763_14795" style="mask-type:luminance" maskUnits="userSpaceOnUse" x="0" y="0" width="900" height="450">
<path d="M0 0H900V450H0V0Z" fill="white"/>
</mask>
<g mask="url(#mask1_763_14795)">
<path d="M0 0.45901H899.939V449.656H0V0.45901Z" fill="white"/>
</g>
<mask id="mask2_763_14795" style="mask-type:luminance" maskUnits="userSpaceOnUse" x="0" y="168" width="900" height="114">
<path d="M0 168H900V281.333H0V168Z" fill="white"/>
</mask>
<g mask="url(#mask2_763_14795)">
<path d="M0 168.578H899.939V280.833H0V168.578Z" fill="#2267B1"/>
</g>
<path d="M169 0H279V450H169V0Z" fill="#2267B1"/>
<mask id="mask3_763_14795" style="mask-type:luminance" maskUnits="userSpaceOnUse" x="0" y="196" width="900" height="58">
<path d="M0 196H900V253.333H0V196Z" fill="white"/>
</mask>
<g mask="url(#mask3_763_14795)">
<path d="M0 196.224H899.939V253.266H0V196.224Z" fill="#EC283B"/>
</g>
<path d="M195 0H252V450H195V0Z" fill="#EC283B"/>
</g>
</g>
<defs>
<clipPath id="clip0_763_14795">
<rect width="900" height="450" fill="white"/>
</clipPath>
</defs>
</svg>
