<svg xmlns="http://www.w3.org/2000/svg" xmlns:xlink="http://www.w3.org/1999/xlink" width="900" zoomAndPan="magnify" viewBox="0 0 675 337.499995" height="450" preserveAspectRatio="xMidYMid meet" version="1.0"><defs><clipPath id="d0aacee372"><path d="M 0.5 0 L 674.5 0 L 674.5 337 L 0.5 337 Z M 0.5 0 " clip-rule="nonzero"/></clipPath><clipPath id="cd9eaf1701"><path d="M 112.832031 0 L 674.5 0 L 674.5 337 L 112.832031 337 Z M 112.832031 0 " clip-rule="nonzero"/></clipPath><clipPath id="55d1b8372f"><path d="M 112.832031 134 L 674.5 134 L 674.5 203 L 112.832031 203 Z M 112.832031 134 " clip-rule="nonzero"/></clipPath><clipPath id="5fac8cdf20"><path d="M 0.5 0 L 562.167969 0 L 562.167969 337 L 0.5 337 Z M 0.5 0 " clip-rule="nonzero"/></clipPath><clipPath id="f6b5fcab8e"><path d="M 0.5 134 L 562.167969 134 L 562.167969 203 L 0.5 203 Z M 0.5 134 " clip-rule="nonzero"/></clipPath><clipPath id="e777b65fe9"><path d="M 56.667969 0 L 618.332031 0 L 618.332031 337 L 56.667969 337 Z M 56.667969 0 " clip-rule="nonzero"/></clipPath><clipPath id="985d9e50c1"><path d="M 56.667969 134 L 618.332031 134 L 618.332031 203 L 56.667969 203 Z M 56.667969 134 " clip-rule="nonzero"/></clipPath></defs><g clip-path="url(#d0aacee372)"><path fill="#ffffff" d="M 0.5 0 L 674.5 0 L 674.5 337 L 0.5 337 Z M 0.5 0 " fill-opacity="1" fill-rule="nonzero"/><path fill="#ffffff" d="M 0.5 0 L 674.5 0 L 674.5 337 L 0.5 337 Z M 0.5 0 " fill-opacity="1" fill-rule="nonzero"/></g><g clip-path="url(#cd9eaf1701)"><path fill="#ffffff" d="M 112.832031 0 L 674.5 0 L 674.5 337 L 112.832031 337 Z M 112.832031 0 " fill-opacity="1" fill-rule="nonzero"/></g><path fill="#ce1124" d="M 359.964844 0 L 427.367188 0 L 427.367188 337 L 359.964844 337 Z M 359.964844 0 " fill-opacity="1" fill-rule="nonzero"/><g clip-path="url(#55d1b8372f)"><path fill="#ce1124" d="M 112.832031 134.800781 L 674.5 134.800781 L 674.5 202.199219 L 112.832031 202.199219 Z M 112.832031 134.800781 " fill-opacity="1" fill-rule="nonzero"/></g><g clip-path="url(#5fac8cdf20)"><path fill="#ffffff" d="M 0.5 0 L 562.167969 0 L 562.167969 337 L 0.5 337 Z M 0.5 0 " fill-opacity="1" fill-rule="nonzero"/></g><path fill="#ce1124" d="M 247.632812 0 L 315.035156 0 L 315.035156 337 L 247.632812 337 Z M 247.632812 0 " fill-opacity="1" fill-rule="nonzero"/><g clip-path="url(#f6b5fcab8e)"><path fill="#ce1124" d="M 0.5 134.800781 L 562.167969 134.800781 L 562.167969 202.199219 L 0.5 202.199219 Z M 0.5 134.800781 " fill-opacity="1" fill-rule="nonzero"/></g><g clip-path="url(#e777b65fe9)"><path fill="#ffffff" d="M 56.667969 0 L 618.332031 0 L 618.332031 337 L 56.667969 337 Z M 56.667969 0 " fill-opacity="1" fill-rule="nonzero"/></g><path fill="#ce1124" d="M 303.800781 0 L 371.199219 0 L 371.199219 337 L 303.800781 337 Z M 303.800781 0 " fill-opacity="1" fill-rule="nonzero"/><g clip-path="url(#985d9e50c1)"><path fill="#ce1124" d="M 56.667969 134.800781 L 618.332031 134.800781 L 618.332031 202.199219 L 56.667969 202.199219 Z M 56.667969 134.800781 " fill-opacity="1" fill-rule="nonzero"/></g></svg>