<svg width="900" height="450" viewBox="0 0 900 450" fill="none" xmlns="http://www.w3.org/2000/svg">
<g clip-path="url(#clip0_763_15036)">
<mask id="mask0_763_15036" style="mask-type:luminance" maskUnits="userSpaceOnUse" x="0" y="0" width="900" height="450">
<path d="M0.666653 -3.37219e-06H899.333V449.333H0.666653V-3.37219e-06Z" fill="white"/>
</mask>
<g mask="url(#mask0_763_15036)">
<path d="M0.666653 -3.37219e-06H899.333V449.333H0.666653V-3.37219e-06Z" fill="white"/>
<path d="M0.666653 -3.37219e-06H899.333V449.333H0.666653V-3.37219e-06Z" fill="white"/>
</g>
<mask id="mask1_763_15036" style="mask-type:luminance" maskUnits="userSpaceOnUse" x="150" y="0" width="750" height="450">
<path d="M150.443 -3.37219e-06H899.333V449.333H150.443V-3.37219e-06Z" fill="white"/>
</mask>
<g mask="url(#mask1_763_15036)">
<path d="M150.443 -3.37219e-06H899.333V449.333H150.443V-3.37219e-06Z" fill="white"/>
</g>
<path d="M479.953 -3.37219e-06H569.823V449.333H479.953V-3.37219e-06Z" fill="#CE1124"/>
<mask id="mask2_763_15036" style="mask-type:luminance" maskUnits="userSpaceOnUse" x="150" y="178" width="750" height="93">
<path d="M150.443 178.667H899.333V270.667H150.443V178.667Z" fill="white"/>
</mask>
<g mask="url(#mask2_763_15036)">
<path d="M150.443 179.734H899.333V269.599H150.443V179.734Z" fill="#CE1124"/>
</g>
<mask id="mask3_763_15036" style="mask-type:luminance" maskUnits="userSpaceOnUse" x="0" y="0" width="750" height="450">
<path d="M0.666653 -3.37219e-06H749.557V449.333H0.666653V-3.37219e-06Z" fill="white"/>
</mask>
<g mask="url(#mask3_763_15036)">
<path d="M0.666653 -3.37219e-06H749.557V449.333H0.666653V-3.37219e-06Z" fill="white"/>
</g>
<path d="M330.177 -3.37219e-06H420.047V449.333H330.177V-3.37219e-06Z" fill="#CE1124"/>
<mask id="mask4_763_15036" style="mask-type:luminance" maskUnits="userSpaceOnUse" x="0" y="178" width="750" height="93">
<path d="M0.666653 178.667H749.557V270.667H0.666653V178.667Z" fill="white"/>
</mask>
<g mask="url(#mask4_763_15036)">
<path d="M0.666653 179.734H749.557V269.599H0.666653V179.734Z" fill="#CE1124"/>
</g>
<mask id="mask5_763_15036" style="mask-type:luminance" maskUnits="userSpaceOnUse" x="75" y="0" width="750" height="450">
<path d="M75.5573 -3.37219e-06H824.443V449.333H75.5573V-3.37219e-06Z" fill="white"/>
</mask>
<g mask="url(#mask5_763_15036)">
<path d="M75.5573 -3.37219e-06H824.443V449.333H75.5573V-3.37219e-06Z" fill="white"/>
</g>
<path d="M405.068 -3.37219e-06H494.932V449.333H405.068V-3.37219e-06Z" fill="#CE1124"/>
<mask id="mask6_763_15036" style="mask-type:luminance" maskUnits="userSpaceOnUse" x="75" y="178" width="750" height="93">
<path d="M75.5573 178.667H824.443V270.667H75.5573V178.667Z" fill="white"/>
</mask>
<g mask="url(#mask6_763_15036)">
<path d="M75.5573 179.734H824.443V269.599H75.5573V179.734Z" fill="#CE1124"/>
</g>
</g>
<defs>
<clipPath id="clip0_763_15036">
<rect width="900" height="450" fill="white"/>
</clipPath>
</defs>
</svg>
