<svg width="900" height="450" viewBox="0 0 900 450" fill="none" xmlns="http://www.w3.org/2000/svg">
<rect width="900" height="450" fill="#1E1E1E"/>
<g clip-path="url(#clip0_0_1)">
<mask id="mask0_0_1" style="mask-type:luminance" maskUnits="userSpaceOnUse" x="0" y="0" width="900" height="450">
<path d="M0 -3.37219e-06H900V450H0V-3.37219e-06Z" fill="white"/>
</mask>
<g mask="url(#mask0_0_1)">
<path d="M0 -3.37219e-06H900V450H0V-3.37219e-06Z" fill="white"/>
<path d="M0 -3.37219e-06H900V450H0V-3.37219e-06Z" fill="white"/>
</g>
<mask id="mask1_0_1" style="mask-type:luminance" maskUnits="userSpaceOnUse" x="0" y="225" width="900" height="225">
<path d="M0 225H900V450H0V225Z" fill="white"/>
</mask>
<g mask="url(#mask1_0_1)">
<path d="M0 225.666H900V450H0V225.666Z" fill="#00AB39"/>
</g>
<mask id="mask2_0_1" style="mask-type:luminance" maskUnits="userSpaceOnUse" x="0" y="0" width="900" height="225">
<path d="M0 -3.37219e-06H900V225H0V-3.37219e-06Z" fill="white"/>
</mask>
<g mask="url(#mask2_0_1)">
<path d="M0 -3.37219e-06H900V224.334H0V-3.37219e-06Z" fill="white"/>
</g>
<path d="M565.745 26.6458C565.734 26.6614 565.729 26.6875 565.719 26.7031C565.75 26.6875 565.771 26.6614 565.802 26.6458H565.745ZM565.719 26.7031C518.583 52.7656 476.39 79.8854 434.917 114.448C415.01 131.838 420.63 145.698 419.859 161.312C420.5 171.792 417.594 181.547 411.146 187.422C396.396 190.406 381.63 193.406 366.88 196.385C365.463 192.307 364.062 188.229 362.651 184.151C364 177.891 369.177 174.812 380.073 178.734C380.932 170.687 374.458 167.406 366.88 164.609C364.276 162.583 361.042 161.026 361.463 154.062C360.193 138.307 385.479 155.193 385.713 155.193C385.948 155.193 384.87 139.286 373.25 136.104C366.917 133.859 364.234 127.177 366.651 122.229C371.724 112.12 381.266 123.026 388.562 123.417C388.286 116.812 386.406 112.109 380.724 106.781C377.661 104.896 370.146 103.479 369.953 100.323C369.792 96.0364 376.995 94.2031 386.896 95.3906C384.833 89.3802 378.177 85.4948 369.021 82.6718C367.219 79.5312 365.411 76.3958 363.609 73.2552C361.047 68.5104 359.896 68.3802 365.833 59.3802C371.172 55.9271 378.266 51.0469 383.599 47.5937C381.635 47.3594 379.667 47.125 377.708 46.8906C378.489 40.4583 378.578 38.2916 380.073 27.6042C374.349 35.4271 367.193 34.0312 360.76 37.25C360.76 37.25 342.417 40.5052 336.51 48.3021C336.276 48.3021 290.38 45.9583 290.38 45.9583C280.604 47.3229 272.25 50.0937 270.62 59.6093C248.25 61.8646 224.823 59.8698 207.766 81.2604C219.38 80.7135 229.547 77.9479 242.588 79.625C242.588 79.625 253.708 79.8385 256.01 91.6093C256.245 92.0833 259.792 92.0885 259.792 92.0885C261.203 93.1875 262.604 94.2916 264.021 95.3906C264.568 93.8958 265.104 92.3958 265.656 90.9062C266.911 91.7708 268.177 92.6354 269.432 93.5C269.823 91.8541 270.224 90.2135 270.62 88.5677C271.875 89.427 273.109 90.2968 274.364 91.1614C274.448 89.1979 274.542 87.2291 274.62 85.2656C276.271 86.4427 277.906 87.6145 279.557 88.7916V81.0364C279.557 81.0364 297.776 80.9948 303.323 92.5677C303.562 92.802 252.198 102.01 202.578 97.7552C207.365 95.401 212.146 93.0312 216.932 90.6823C198.838 87 181.833 83.6771 165.87 71.1406C171.891 93.8229 203.026 120.463 209.401 120.344C209.401 120.578 203.286 109.292 203.286 109.292C221.255 110.073 239.229 110.844 257.198 111.63C259.156 117.594 258.292 124.281 263.088 129.536C263.088 129.536 260.115 139.391 266.724 143.406C266.963 143.875 274.62 123.417 274.62 123.417C274.62 123.417 276.969 128.922 279.328 132.578C282.755 114.979 301.917 112.109 301.917 112.109C301.917 112.109 305.917 121.292 305.917 121.526C299.932 122.391 292.484 134.599 296.5 141.292C292.484 141.37 285.359 153.187 287.562 159.646C284.187 163.005 275.781 167.484 277.922 181.557C271.302 182.974 267.385 195.083 269.432 207.922C259.193 217.453 261.708 234.948 270.844 242.036C267.052 245.411 264.713 248.005 264.724 252.161C261.12 250.818 257.797 251.937 256.234 254.302C251.818 249.771 245.474 245.807 240.953 250.047C239.786 244.687 232.807 238.792 225.167 239.474C225.615 233.818 222.677 226.823 214.594 224.385C214.594 224.385 212.953 197.896 204.922 189.312C204.13 184.505 205.38 181.234 211.995 177.297C218.604 173.776 220.01 171.042 219.526 161.057C222.13 154.385 224.109 147.583 216 142.958C216.245 150.891 213.807 154.713 210.588 158.24C206.74 157.677 205.396 162.172 202.807 164.13C199.182 159.245 210.448 151.682 202.099 140.812C201.63 140.344 196.271 126.625 183.042 126.943C189.328 130.625 191.99 136.823 191.979 143.182C187.807 154.953 185.687 164.047 189.865 177.552C184.365 169.318 181.25 153.656 176.698 150.932C172.703 150.156 170.755 140.719 155.266 143.406C161.948 145.203 164.068 150.307 165.87 154.937C161.771 157.052 163.807 162.625 166.797 166.469C166.229 175.505 171.646 180.786 179.74 184.151C178.406 196.469 177.068 208.766 175.734 221.088C172.521 220.677 167.573 233.198 165.615 233.578C162.469 235.536 156.969 240.807 163.276 242.292C161.401 249.052 159.661 253.125 149.599 254.526C149.599 254.526 160.234 260.833 169.052 250.047C178.505 249.807 175.396 238.536 179.969 233.578C179.969 233.344 182.557 231.713 186.338 221.792C187.99 230.651 197.083 257.781 217.635 271.25C235.552 290.427 250.276 308.542 250.12 334.099C257.109 327.594 261.286 317.292 264.5 307.479C274.224 304.099 288.13 302.807 300.531 303.364C298.406 307.838 296.026 312.135 299.094 315.036C290.437 318.01 288.542 324.292 292.021 330.573C282.896 336.771 282.292 340.75 282.151 351.042C265.271 372.682 254.854 371.963 238.135 366.354C232.646 363.13 224.146 358.489 220.229 360.937C213.01 356.125 202.625 355.411 200.917 366.354C206.333 361.864 209.573 362.729 213.885 367.057C213.021 369.255 212.292 371.448 215.521 372.698C214.109 374.266 212.703 375.838 211.292 377.406C203.521 376.213 193.073 376.276 190.344 387.531C194.333 384.224 203.193 383.448 210.333 386.599C211.667 387.068 213.005 387.536 214.338 388.01C214.495 389.812 214.661 391.62 214.818 393.422C214.818 393.422 204.229 391.786 201.396 408.958C211.323 398.401 218.338 401.177 218.338 401.177C222.167 406.776 236.245 405.932 246.37 396.724C260.588 388.771 264.734 400.198 273.917 392.719C281.526 387.042 290.531 390.818 296.724 397.427C303.87 400.104 311.344 402.312 317.224 397.427C317.224 397.427 324.411 392.844 331.578 400.245C331.656 391.896 325.739 387.463 317.703 387.302L315.338 384.937C307.802 383.364 299.338 384 292.75 380.229C295.854 368.437 300.38 357.755 309.219 348.677C320.125 336.984 328.156 331.667 341.927 313.766C341.396 323.885 349.146 335.13 353.229 345.406C353.229 345.406 361.458 332.271 362.651 321.609C362.885 321.609 372.958 316.364 377.255 311.906C386.328 317.536 401.114 307.401 410.667 299.021C416.552 301.25 421.026 301.088 427.864 299.021C422.375 310.203 431.042 320.573 444.812 324.906C446.088 334.776 456.052 336.844 471.177 336.917C471.812 342.724 480.818 343.516 480.818 343.516C475.13 346.167 472.161 348.828 472.359 354.823C466.526 354.859 462.109 356.328 460.573 363.057C452.568 363.193 444.406 363.807 437.51 367.766C430.135 366.62 421.161 363.562 415.375 357.64C412.391 355.13 411.651 351.51 406.437 350.114C403.135 346.208 399.182 347.083 397.953 350.818C394.536 348.151 381.734 346.911 379.594 359.052C385.573 354.677 390.932 353.01 394.682 358.349C392.635 362.052 399.656 364.172 405.734 365.651C410.042 365.917 417.687 369.844 420.083 376.474C414.526 378.161 406.104 377.609 400.547 373.401C395.604 369.271 388.932 369.76 385.26 372.474C380.172 369.229 368.057 375.354 367.583 385.161C372.687 380.484 377.333 378.219 381.963 381.187C379.661 381.734 380.536 381.958 380.781 383.302C384.703 385.578 388.614 387.849 392.536 390.125C386.771 391.646 381.344 393.948 383.854 404.698C383.854 404.698 388.552 395.411 399.135 398.833C399.37 398.599 400.594 402.156 403.62 399.765C408.198 394.557 418.672 392.224 427.864 391.307C435.25 390.427 442.614 388.25 449.042 392.463C454.765 389.521 461.135 387.542 467.651 392.239C475.344 394.672 480.958 403.635 490.719 399.542C495.568 396.182 501.536 396.01 507.661 402.838C507.734 394.229 501.286 391.344 492.125 389.417C490.005 388.161 487.901 386.896 485.781 385.64C479.896 384.776 473.989 385.818 468.104 383.047C498.901 375.083 520.489 357.911 535.687 333.391C540.552 335.12 545.401 336.828 550.265 338.552C553.719 338.776 553.979 339.974 561.094 342.104C561.359 331.625 556.864 320.833 538.031 319.745L513.302 310.328C508.052 304.792 505.682 293.047 512.37 286.078C518.922 280.25 520.062 280.948 524.385 273.844C529.635 273.364 534.588 278.776 539.437 278.776C541.745 285.62 555.026 291.672 563.463 289.604C568.75 294.286 578.807 296.885 589.828 293.13C596.078 298.604 604.224 300.885 613.823 296.651C616.37 299.203 621.745 301.224 627.948 299.953C628.416 299.953 631.083 306.755 637.844 309.146C634.896 312.01 636.708 324.453 639.734 328.911C637.666 333.693 637.021 338.797 638.776 343.739C631.953 348.125 630.568 351.385 633.614 358.797C624.682 373.151 614 374.792 603.953 370.359C600.338 368.083 596.734 365.781 593.125 363.505C589.281 359.739 585.437 355.995 581.594 352.229C579.635 350.391 575.583 349.812 574.739 353.864C574.739 353.864 559.942 350.562 558.755 363.057C564.885 357.083 573.583 362.338 573.583 362.578C573.583 362.812 571.515 364.219 573.104 366.609C573.463 366.307 583.906 370.505 593.208 374.505C598.26 376.417 599.375 377.015 601.583 378.198C599.161 377.088 596.297 375.828 593.208 374.505C587.547 372.354 582.031 370.64 580.406 371.062C575.14 370.573 569.552 369.917 566.989 373.88C561.323 376.276 552.474 378.198 552.859 388.713C556.687 382.453 561.932 382.719 568.625 383.302C568.463 383.771 568.328 384.239 568.172 384.708C575.432 388.015 574.057 383.807 580.833 383.187C586.495 382.667 594.521 384.698 598.765 386.12C593.427 387.687 586.172 387.031 582.75 390.828C582.12 392.083 579.922 391.573 580.885 394.578C580.885 394.578 570.479 394.307 567.693 408.703C578.276 401.927 586.291 402.135 586.526 402.135C586.76 402.135 589.828 402.838 589.828 402.838C589.828 402.838 602.531 394.354 602.765 394.354C603.005 394.354 615.073 389.01 620.646 395.057C625.505 397.448 630.708 397.599 635.729 394.578C645.625 390.276 654.885 389.974 663.984 396.015L672.213 400.948C673.39 400.167 674.562 399.364 675.739 398.583C675.739 398.583 685.057 395.948 691.896 404.25C689.067 389.89 678.812 389.417 678.812 389.417C678.026 388.713 677.229 388.01 676.442 387.302C671.578 385.422 666.734 383.521 661.87 381.635C659.745 376.38 654.406 372.193 659.724 365.875C665.156 338.875 671.651 318.594 661.135 291.239C670.942 295.474 678.281 308.578 690.573 303.953C690.573 292.969 650.13 272.109 619.234 255.344C669.849 252.755 730.677 215.396 707.291 167.911C710.979 156.453 714.656 144.995 718.343 133.536C723.552 144.026 734.094 152.021 743.552 155.417C735.755 140.536 731.281 95.0312 735.771 63.6094C715.375 88.8073 692.854 111.161 668.916 133.875C680.692 136.63 690.979 134.693 702.359 133.286C699.14 139.875 696.015 146.484 692.797 153.078C661.692 134.865 625.177 148.531 624.901 172.844C625.963 201.193 661.015 205.224 681.239 195.344C677.229 221.193 617.823 211.672 617.823 211.672C596.719 204.396 576.666 205.641 554.495 205.807C559.104 191.63 584.687 179.052 604.177 184.599C576.89 154.005 608.036 116.021 645.599 104.328C604.656 90.8229 639.911 59.6093 670.552 37.25C670.552 37.25 582.432 74.3333 574.401 74.2135C549.338 72.3281 556.172 42.6614 565.719 26.7031ZM289.141 62.3125C291.193 62.3229 293.604 62.526 295.516 62.9896C299.489 63.9583 304.323 64.5156 304.255 65.6979C302.417 68.776 297.896 72.4896 293.453 72.2656C289.016 72.0468 286.448 69.3802 284.969 62.7083C285.422 62.4635 287.088 62.3021 289.141 62.3125ZM660.062 166.865C665.838 166.786 672.76 169.229 679.515 176.396C676.271 185.755 648.078 190.557 646.192 176.708C645.62 172.521 651.62 166.979 660.062 166.865Z" fill="#D21034"/>
<path d="M565.719 26.7031C565.729 26.6875 565.734 26.6614 565.745 26.6458H565.802C565.771 26.6614 565.75 26.6875 565.719 26.7031ZM565.719 26.7031C518.583 52.7656 476.39 79.8854 434.917 114.448C415.01 131.838 420.63 145.698 419.859 161.312C420.5 171.792 417.594 181.547 411.146 187.422C396.396 190.406 381.63 193.406 366.88 196.385C365.463 192.307 364.062 188.229 362.651 184.151C364 177.891 369.177 174.812 380.073 178.734C380.932 170.687 374.458 167.406 366.88 164.609C364.276 162.583 361.042 161.026 361.463 154.062C360.193 138.307 385.479 155.193 385.713 155.193C385.948 155.193 384.87 139.286 373.25 136.104C366.917 133.859 364.234 127.177 366.651 122.229C371.724 112.12 381.266 123.026 388.562 123.417C388.286 116.812 386.406 112.109 380.724 106.781C377.661 104.896 370.146 103.479 369.953 100.323C369.792 96.0364 376.995 94.2031 386.896 95.3906C384.833 89.3802 378.177 85.4948 369.021 82.6718C367.219 79.5312 365.411 76.3958 363.609 73.2552C361.047 68.5104 359.896 68.3802 365.833 59.3802C371.172 55.9271 378.266 51.0469 383.599 47.5937C381.635 47.3594 379.667 47.125 377.708 46.8906C378.489 40.4583 378.578 38.2916 380.073 27.6042C374.349 35.4271 367.193 34.0312 360.76 37.25C360.76 37.25 342.417 40.5052 336.51 48.3021C336.276 48.3021 290.38 45.9583 290.38 45.9583C280.604 47.3229 272.25 50.0937 270.62 59.6093C248.25 61.8646 224.823 59.8698 207.766 81.2604C219.38 80.7135 229.547 77.9479 242.588 79.625C242.588 79.625 253.708 79.8385 256.01 91.6093C256.245 92.0833 259.792 92.0885 259.792 92.0885C261.203 93.1875 262.604 94.2916 264.021 95.3906C264.568 93.8958 265.104 92.3958 265.656 90.9062C266.911 91.7708 268.177 92.6354 269.432 93.5C269.823 91.8541 270.224 90.2135 270.62 88.5677C271.875 89.427 273.109 90.2968 274.364 91.1614C274.448 89.1979 274.542 87.2291 274.62 85.2656C276.271 86.4427 277.906 87.6145 279.557 88.7916V81.0364C279.557 81.0364 297.776 80.9948 303.323 92.5677C303.562 92.802 252.198 102.01 202.578 97.7552C207.365 95.401 212.146 93.0312 216.932 90.6823C198.838 87 181.833 83.6771 165.87 71.1406C171.891 93.8229 203.026 120.463 209.401 120.344C209.401 120.578 203.286 109.292 203.286 109.292C221.255 110.073 239.229 110.844 257.198 111.63C259.156 117.594 258.292 124.281 263.088 129.536C263.088 129.536 260.115 139.391 266.724 143.406C266.963 143.875 274.62 123.417 274.62 123.417C274.62 123.417 276.969 128.922 279.328 132.578C282.755 114.979 301.917 112.109 301.917 112.109C301.917 112.109 305.917 121.292 305.917 121.526C299.932 122.391 292.484 134.599 296.5 141.292C292.484 141.37 285.359 153.187 287.562 159.646C284.187 163.005 275.781 167.484 277.922 181.557C271.302 182.974 267.385 195.083 269.432 207.922C259.193 217.453 261.708 234.948 270.844 242.036C267.052 245.411 264.713 248.005 264.724 252.161C261.12 250.818 257.797 251.937 256.234 254.302C251.818 249.771 245.474 245.807 240.953 250.047C239.786 244.687 232.807 238.792 225.167 239.474C225.615 233.818 222.677 226.823 214.594 224.385C214.594 224.385 212.953 197.896 204.922 189.312C204.13 184.505 205.38 181.234 211.995 177.297C218.604 173.776 220.01 171.042 219.526 161.057C222.13 154.385 224.109 147.583 216 142.958C216.245 150.891 213.807 154.713 210.588 158.24C206.74 157.677 205.396 162.172 202.807 164.13C199.182 159.245 210.448 151.682 202.099 140.812C201.63 140.344 196.271 126.625 183.042 126.943C189.328 130.625 191.99 136.823 191.979 143.182C187.807 154.953 185.687 164.047 189.865 177.552C184.365 169.318 181.25 153.656 176.698 150.932C172.703 150.156 170.755 140.719 155.266 143.406C161.948 145.203 164.068 150.307 165.87 154.937C161.771 157.052 163.807 162.625 166.797 166.469C166.229 175.505 171.646 180.786 179.74 184.151C178.406 196.469 177.068 208.766 175.734 221.088C172.521 220.677 167.573 233.198 165.615 233.578C162.469 235.536 156.969 240.807 163.276 242.292C161.401 249.052 159.661 253.125 149.599 254.526C149.599 254.526 160.234 260.833 169.052 250.047C178.505 249.807 175.396 238.536 179.969 233.578C179.969 233.344 182.557 231.713 186.338 221.792C187.99 230.651 197.083 257.781 217.635 271.25C235.552 290.427 250.276 308.542 250.12 334.099C257.109 327.594 261.286 317.292 264.5 307.479C274.224 304.099 288.13 302.807 300.531 303.364C298.406 307.838 296.026 312.135 299.094 315.036C290.437 318.01 288.542 324.292 292.021 330.573C282.896 336.771 282.292 340.75 282.151 351.042C265.271 372.682 254.854 371.963 238.135 366.354C232.646 363.13 224.146 358.489 220.229 360.937C213.01 356.125 202.625 355.411 200.917 366.354C206.333 361.864 209.573 362.729 213.885 367.057C213.021 369.255 212.292 371.448 215.521 372.698C214.109 374.266 212.703 375.838 211.292 377.406C203.521 376.213 193.073 376.276 190.344 387.531C194.333 384.224 203.193 383.448 210.333 386.599C211.667 387.068 213.005 387.536 214.338 388.01C214.495 389.812 214.661 391.62 214.818 393.422C214.818 393.422 204.229 391.786 201.396 408.958C211.323 398.401 218.338 401.177 218.338 401.177C222.167 406.776 236.245 405.932 246.37 396.724C260.588 388.771 264.734 400.198 273.917 392.719C281.526 387.042 290.531 390.818 296.724 397.427C303.87 400.104 311.344 402.312 317.224 397.427C317.224 397.427 324.411 392.844 331.578 400.245C331.656 391.896 325.739 387.463 317.703 387.302L315.338 384.937C307.802 383.364 299.338 384 292.75 380.229C295.854 368.437 300.38 357.755 309.219 348.677C320.125 336.984 328.156 331.667 341.927 313.766C341.396 323.885 349.146 335.13 353.229 345.406C353.229 345.406 361.458 332.271 362.651 321.609C362.885 321.609 372.958 316.364 377.255 311.906C386.328 317.536 401.114 307.401 410.667 299.021C416.552 301.25 421.026 301.088 427.864 299.021C422.375 310.203 431.042 320.573 444.812 324.906C446.088 334.776 456.052 336.844 471.177 336.917C471.812 342.724 480.818 343.516 480.818 343.516C475.13 346.167 472.161 348.828 472.359 354.823C466.526 354.859 462.109 356.328 460.573 363.057C452.568 363.193 444.406 363.807 437.51 367.766C430.135 366.62 421.161 363.562 415.375 357.64C412.391 355.13 411.651 351.51 406.437 350.114C403.135 346.208 399.182 347.083 397.953 350.818C394.536 348.151 381.734 346.911 379.594 359.052C385.573 354.677 390.932 353.01 394.682 358.349C392.635 362.052 399.656 364.172 405.734 365.651C410.042 365.917 417.687 369.844 420.083 376.474C414.526 378.161 406.104 377.609 400.547 373.401C395.604 369.271 388.932 369.76 385.26 372.474C380.172 369.229 368.057 375.354 367.583 385.161C372.687 380.484 377.333 378.219 381.963 381.187C379.661 381.734 380.536 381.958 380.781 383.302C384.703 385.578 388.614 387.849 392.536 390.125C386.771 391.646 381.344 393.948 383.854 404.698C383.854 404.698 388.552 395.411 399.135 398.833C399.37 398.599 400.594 402.156 403.62 399.765C408.198 394.557 418.672 392.224 427.864 391.307C435.25 390.427 442.614 388.25 449.042 392.463C454.765 389.521 461.135 387.542 467.651 392.239C475.344 394.672 480.958 403.635 490.719 399.542C495.568 396.182 501.536 396.01 507.661 402.838C507.734 394.229 501.286 391.344 492.125 389.417C490.005 388.161 487.901 386.896 485.781 385.64C479.896 384.776 473.989 385.818 468.104 383.047C498.901 375.083 520.489 357.911 535.687 333.391C540.552 335.12 545.401 336.828 550.265 338.552C553.719 338.776 553.979 339.974 561.094 342.104C561.359 331.625 556.864 320.833 538.031 319.745L513.302 310.328C508.052 304.792 505.682 293.047 512.37 286.078C518.922 280.25 520.062 280.948 524.385 273.844C529.635 273.364 534.588 278.776 539.437 278.776C541.745 285.62 555.026 291.672 563.463 289.604C568.75 294.286 578.807 296.885 589.828 293.13C596.078 298.604 604.224 300.885 613.823 296.651C616.37 299.203 621.745 301.224 627.948 299.953C628.416 299.953 631.083 306.755 637.844 309.146C634.896 312.01 636.708 324.453 639.734 328.911C637.666 333.693 637.021 338.797 638.776 343.739C631.953 348.125 630.568 351.385 633.614 358.797C624.682 373.151 614 374.792 603.953 370.359C600.338 368.083 596.734 365.781 593.125 363.505C589.281 359.739 585.437 355.995 581.594 352.229C579.635 350.391 575.583 349.812 574.739 353.864C574.739 353.864 559.942 350.562 558.755 363.057C564.885 357.083 573.583 362.338 573.583 362.578C573.583 362.812 571.515 364.219 573.104 366.609C573.463 366.307 583.906 370.505 593.208 374.505M565.719 26.7031C556.172 42.6614 549.338 72.3281 574.401 74.2135C582.432 74.3333 670.552 37.25 670.552 37.25C639.911 59.6093 604.656 90.8229 645.599 104.328C608.036 116.021 576.89 154.005 604.177 184.599C584.687 179.052 559.104 191.63 554.495 205.807C576.666 205.641 596.719 204.396 617.823 211.672C617.823 211.672 677.229 221.193 681.239 195.344C661.015 205.224 625.963 201.193 624.901 172.844C625.177 148.531 661.692 134.865 692.797 153.078C696.015 146.484 699.14 139.875 702.359 133.286C690.979 134.693 680.692 136.63 668.916 133.875C692.854 111.161 715.375 88.8073 735.771 63.6094C731.281 95.0312 735.755 140.536 743.552 155.417C734.094 152.021 723.552 144.026 718.343 133.536C714.656 144.995 710.979 156.453 707.291 167.911C730.677 215.396 669.849 252.755 619.234 255.344C650.13 272.109 690.573 292.969 690.573 303.953C678.281 308.578 670.942 295.474 661.135 291.239C671.651 318.594 665.156 338.875 659.724 365.875C654.406 372.193 659.745 376.38 661.87 381.635C666.734 383.521 671.578 385.422 676.442 387.302C677.229 388.01 678.026 388.713 678.812 389.417C678.812 389.417 689.067 389.89 691.896 404.25C685.057 395.948 675.739 398.583 675.739 398.583C674.562 399.364 673.39 400.167 672.213 400.948L663.984 396.015C654.885 389.974 645.625 390.276 635.729 394.578C630.708 397.599 625.505 397.448 620.646 395.057C615.073 389.01 603.005 394.354 602.765 394.354C602.531 394.354 589.828 402.838 589.828 402.838C589.828 402.838 586.76 402.135 586.526 402.135C586.291 402.135 578.276 401.927 567.693 408.703C570.479 394.307 580.885 394.578 580.885 394.578C579.922 391.573 582.12 392.083 582.75 390.828C586.172 387.031 593.427 387.687 598.765 386.12C594.521 384.698 586.495 382.667 580.833 383.187C574.057 383.807 575.432 388.015 568.172 384.708C568.328 384.239 568.463 383.771 568.625 383.302C561.932 382.719 556.687 382.453 552.859 388.713C552.474 378.198 561.323 376.276 566.989 373.88C569.552 369.917 575.14 370.573 580.406 371.062C582.031 370.64 587.547 372.354 593.208 374.505M593.208 374.505C598.26 376.417 599.375 377.015 601.583 378.198C599.161 377.088 596.297 375.828 593.208 374.505ZM289.141 62.3125C291.193 62.3229 293.604 62.526 295.516 62.9896C299.489 63.9583 304.323 64.5156 304.255 65.6979C302.417 68.776 297.896 72.4896 293.453 72.2656C289.016 72.0468 286.448 69.3802 284.969 62.7083C285.422 62.4635 287.088 62.3021 289.141 62.3125ZM660.062 166.865C665.838 166.786 672.76 169.229 679.515 176.396C676.271 185.755 648.078 190.557 646.192 176.708C645.62 172.521 651.62 166.979 660.062 166.865Z" stroke="black" stroke-width="1.6241"/>
<path d="M318.25 144.104L322.526 150.323M322.328 150.516C322.328 150.516 322.328 158.87 324.078 159.068M320.193 163.536C320.385 163.729 324.661 170.917 324.661 170.917M312.417 172.859C312.614 172.859 317.859 178.885 317.859 178.885M322.417 174.213C322.417 174.406 327.38 183.745 327.771 183.745M315.917 180.635C315.917 180.635 317.667 191.906 319.219 191.516M308.573 201.286L313.583 208.812M317.859 193.266C317.859 193.266 320.583 203.953 322.719 202.979M324.849 186.849C325.047 187.042 329.906 194.042 331.266 193.073M330.104 195.792L334.766 205.12M322.328 202.979C322.526 203.37 326.213 214.057 326.213 214.057M313.391 208.615C313.391 208.615 316.891 220.469 320 218.526M312.031 224.354C312.031 224.354 312.224 230.573 315.333 230.963M317.474 221.245C317.474 221.443 320.583 225.719 320.583 225.719M326.354 213.854L328.937 217.943M334.573 206.286L338.458 211.141M316.542 150.568C316.734 155.812 325.052 148.719 328.359 144.25M313.005 168.781C313.005 168.781 322.135 162.37 329.13 152.651M310.088 184.13C316.5 182.385 328.297 168.115 330.63 160.536M308.729 198.318C310.479 199.094 332.516 183.219 333.099 171.562M308.146 210.557C308.146 210.365 328.292 205.422 336.651 183.271M307.062 227.323C307.062 227.323 339.234 208.031 340.984 193.849M558.224 259.719C558.224 259.719 556.151 276.37 539.443 278.896M563.474 289.453C563.666 289.255 579.406 271.963 575.328 266.713M600.005 272.74C600.005 272.74 599.807 284.786 589.901 293.141M619.63 276.239C619.63 276.239 620.021 290.812 613.802 296.641M637.698 284.979C637.698 284.979 630.729 298.63 628.203 299.99M637.396 309.167C637.396 309.167 646.573 311.453 649.484 305.432M639.776 328.963C639.776 328.963 648.255 330.495 652.14 322.338M638.864 344.25C638.864 344.25 645.729 350.016 650.396 342.437M540.359 231.963C540.359 231.963 539.583 261.5 581.166 267.521C627.609 280.349 649.568 273.547 652.286 325.62C650.536 345.443 648.073 367.828 633.698 359.276M496.26 259.172C496.26 259.172 502.87 271.021 510.833 270.245C521.328 267.135 525.213 273.547 525.213 273.547M467.89 271.021C467.89 271.021 485.38 279.573 500.344 265.776M469.833 258.781C471.391 279.182 446.323 290.844 436.411 288.901M471.021 336.963C471.219 336.963 484.604 328.932 481.885 323.292M444.38 325.042C444.765 324.656 466.922 322.516 471 314.547M434.078 292.396C434.078 292.203 465.521 292.484 467.656 298.312M475.859 273.745C475.859 273.745 445.156 326.208 501.896 326.208M443.406 272.963C443.406 272.963 436.802 292.594 427.474 299.198M410.76 266.167C410.76 266.167 422.161 288.224 410.698 299.109M381.031 272.385C381.229 272.771 384.724 303.667 376.953 312.411M366.266 273.354C366.266 273.354 367.432 292.979 361.599 299.974C355.771 306.969 362.969 321.5 362.969 321.5M292.135 330.937C292.135 330.937 296.307 338.255 302.141 335.729M299.224 314.937C299.224 314.937 308.552 319.021 311.661 317.463M309.328 281.906C309.328 281.906 295.531 285.792 300.781 302.114C308.745 308.526 316.521 307.552 316.521 307.552M282.125 351.276C281.932 351.276 283.677 364.099 292.62 354.385C298.838 341.364 318.463 304.641 322.932 292.01M332.062 285.984C332.062 285.984 322.542 278.604 322.932 288.901C322.734 295.312 325.844 296.864 325.844 296.864C326.234 301.531 330.318 308.135 333.62 302.114C334.979 296.281 332.646 293.755 332.646 293.755M338.088 283.266C329.536 282.682 324.875 301.531 341.391 289.677M347.026 276.854C347.026 276.854 344.891 279.771 341.588 276.656C339.838 273.552 333.62 290.651 344.5 291.234C346.443 286.177 352.469 284.818 352.469 284.818M357.521 268.693C357.521 268.693 352.661 271.021 350.911 270.635C345.083 271.995 346.25 285.599 353.635 284.818C356.156 281.906 358.88 277.823 358.88 277.823M311.698 250.911C311.505 250.911 292.417 280.927 322.344 288.891M553.963 205.724C553.963 205.724 542.307 215.635 553.187 231.568C517.041 230.99 497.614 247.698 496.057 258.969C450.005 255.667 458.364 269.266 443.401 273.734C423.385 257.026 394.042 266.354 395.984 283.062C382.578 264.213 361.979 273.349 359.453 278.01C356.927 282.677 357.901 254.885 357.901 254.885C357.901 254.885 344.495 260.911 335.167 271.99C335.359 264.604 335.167 252.557 335.167 248.672C323.958 250.937 313.141 251.062 301.547 250.807M271.234 242.255C271.234 242.255 287.948 251.583 308.542 238.953M269.875 208.641C269.875 208.641 282.896 220.297 307.38 216.609M278.036 181.823C278.036 181.823 280.948 191.344 308.932 191.927M287.516 159.802C287.516 159.802 298.052 172.693 312.234 170.75M296.495 141.406C296.495 141.406 300.578 148.401 316.125 149.568M305.63 121.005C305.63 121.005 313.792 129.943 323.12 128.385M354.182 48.3594C354.182 48.3594 357.797 44.7448 363.823 46.5521M351.578 67.4323C351.578 67.4323 340.333 67.0312 341.135 62.6146C341.937 57.5937 352.979 53.9791 352.979 53.9791C352.979 53.9791 367.635 44.5417 369.844 41.3281M303.588 92.7291L317.844 120.036L324.672 109.797L328.286 116.823L334.109 106.583L344.146 113.005L340.333 100.557L348.766 99.9583C348.766 99.9583 346.557 93.9323 338.927 92.7291C340.932 91.125 347.958 86.5052 347.958 86.5052C347.958 86.5052 343.948 81.8854 337.724 81.6875C339.729 79.4791 342.542 74.0573 342.338 74.0573C342.141 74.0573 336.114 72.651 336.114 72.651C336.114 72.651 350.37 77.2708 361.411 70.8437M334.12 48.7708C334.318 48.9687 333.312 54.3906 330.302 57.6041M279.104 63.8281C279.104 63.8281 287.927 61.401 294.526 62.776C301.062 64.1198 309.823 66.4375 309.823 66.4375C309.823 66.4375 320.266 65.0312 323.677 62.6198M257.219 69.651C257.219 69.651 256.016 73.8646 255.615 76.6771C255.615 78.6823 249.187 81.2968 249.187 81.2968M261.24 61.0156C261.24 61.0156 266.859 68.0416 267.057 72.0573C267.26 76.0729 262.844 79.0833 262.844 79.0833M203.214 109L197.391 99.5677L202.609 97.7604M308.359 239.161C303.693 233.141 311.854 140.641 329.151 116.552C323.125 160.078 343.141 204.578 348.193 204.38M255.797 90.7031C255.797 90.7031 263.667 93.7187 279.99 80.7916M302.047 112.083L313.75 112.229M665.182 39.5833C665.182 39.5833 470.114 130.734 467.276 135.557C500.213 125.62 639.906 102.339 643.318 104.328C635.083 106.312 465.568 145.214 457.62 154.583C499.927 153.161 588.521 168.213 602.427 182.693C572.328 175.88 482.318 162.531 454.776 168.495C474.937 173.323 552.172 223.297 552.172 231.245C540.526 220.172 447.677 181.838 443.984 185.531C465.281 198.312 495.38 245.729 495.38 257.37C489.13 247.432 435.469 189.792 432.344 193.484C438.021 201.432 449.276 269.474 443.526 272.625C443.526 264.391 422.687 204.838 420.984 203.135C416.729 204.271 390.172 275.797 395.432 282.448C392.026 258.594 396 208.818 402.531 210.802C390.89 212.505 353.739 261.495 357.713 269.161C358.849 256.948 360.51 248.854 381.521 208.25C358.234 209.667 309.969 240.052 301.729 250.838C308.26 231.531 349.151 198.875 367.036 196.604M451.234 125.552C471.854 114.115 535.562 90.7656 578.057 73.6354M411.219 187.125C411.219 187.125 425.271 186.922 439.328 148.776C453.177 96.5781 563.005 38.3542 565.213 27.5104M225.354 239.609C225.354 239.609 222.088 246.557 218.073 248.568M241.104 250.141C241.104 250.141 236.75 258.604 235.745 262.62M256.182 254.281C256.182 254.281 259.838 265.833 256.823 271.255M214.203 224.286C203.161 230.51 220.484 269.849 272.885 273.661M264.453 252.38C264.453 252.38 263.052 259.406 272.885 273.463C270.078 289.12 284.792 301.427 290.615 303.437M260.234 111.245C260.234 111.042 261.844 107.026 261.844 107.026L263.63 111.667L266.516 111.594L268.417 106.937L269.974 111.609H272.838L274.604 106.422L277.271 111.333L279.536 111.448L281.323 105.469L285 109.75L286.338 109.234L287.484 103.25L291.12 107.437L292.161 106.823L293.844 100.927L296.865 105.312L298.385 104.818L299.797 99.8593L302.599 104.417M257.005 111.771L278.906 111.443C285.875 111.339 297.354 101.682 310.203 104.693M210.844 158.625C210.844 158.625 214.458 166.458 219.479 162.036M202.411 163.844C202.411 163.844 195.385 182.719 203.818 187.135M192.375 142.963C192.375 142.963 192.375 147.38 201.609 140.557M163.646 242.141C163.646 242.141 171.078 244.354 169.87 249.974M166.453 155.406C166.453 155.406 171.073 157.615 175.49 150.792M215.443 372.651C222.672 372.25 224.229 375.51 230.802 375.51C238.38 375.745 245.76 372.651 255.396 370.042M317.437 387.51C317.234 387.51 314.021 394.333 316.833 397.745M214.437 388.109C214.437 388.109 225.88 378.672 231.901 384.495C237.729 386.505 240.937 386.104 240.937 386.104M220.463 361.208C220.463 361.208 223.276 368.437 213.838 367.432M211.026 377.875C211.026 377.875 217.052 381.687 210.224 386.708M214.641 393.531C214.641 393.531 222.875 394.739 218.052 401.364M472.573 354.693C480.922 361.37 477.5 365.375 503.713 347.776M460.62 363.042C460.62 363.042 472.953 376.276 481.948 360.213M437.109 367.797L420.406 376.531M390.344 388.87C390.344 388.87 400.495 380.13 405.245 384.755C410 389.38 430.172 380.776 430.172 380.776M397.922 350.963C397.922 350.963 401.396 357.901 394.713 358.802M384.693 372.677C384.693 372.677 388.208 379.203 381.401 381M392.526 390.411C392.526 390.411 403.062 390.922 399.338 398.891M491.073 388.995C491.073 388.995 485.292 393.88 489.531 399.406M574.969 353.922C574.969 353.922 581.651 357.135 573.682 362.656M567.005 374.219C567.005 374.219 572.015 379.489 568.672 383.854M581.005 394.391C581.005 394.391 587.943 396.318 587.172 402.099M678.135 389.255C678.135 389.255 672.349 393.489 675.437 399.016M575.156 220.391C589.036 218.724 608.948 249.557 619.094 255.599M679.791 176.713C679.791 176.713 686.823 182.849 680.64 197.651M692.823 153.109C694.781 154.63 702.333 158.661 707.323 167.995M712.114 106.948C712.114 107.073 702.349 133.286 702.349 133.286M723.036 105.661C723.036 105.661 721.109 129.047 718.281 133.797M480.536 343.516C480.536 343.516 502.89 345.828 503.917 347.5C506.489 344.797 526.448 328.63 501.911 326.318C497.802 343.151 480.922 343.771 480.536 343.516ZM679.521 176.406C676.276 185.766 648.088 190.552 646.198 176.703C645.234 169.651 662.89 158.771 679.521 176.406Z" stroke="black" stroke-width="1.6241" stroke-linejoin="round"/>
<path d="M288.927 62.3906L299.771 64.3958C299.771 64.3958 292.135 74.6406 288.927 62.3906Z" fill="black" stroke="black" stroke-width="1.6241" stroke-linejoin="round"/>
</g>
<defs>
<clipPath id="clip0_0_1">
<rect width="900" height="450" fill="white"/>
</clipPath>
</defs>
</svg>
