<svg width="900" height="450" viewBox="0 0 900 450" fill="none" xmlns="http://www.w3.org/2000/svg">
<rect width="900" height="450" fill="#1E1E1E"/>
<g clip-path="url(#clip0_0_1)">
<mask id="mask0_0_1" style="mask-type:luminance" maskUnits="userSpaceOnUse" x="0" y="0" width="900" height="450">
<path d="M0 -3.37219e-06H900V450H0V-3.37219e-06Z" fill="white"/>
</mask>
<g mask="url(#mask0_0_1)">
<path d="M0 -3.37219e-06H900V450H0V-3.37219e-06Z" fill="white"/>
<path d="M0 -3.37219e-06H900V450H0V-3.37219e-06Z" fill="white"/>
<path d="M0 -3.37219e-06H900V450H0V-3.37219e-06Z" fill="#1E1E1E"/>
<path d="M0 -3.37219e-06H900V450H0V-3.37219e-06Z" fill="#CE1126"/>
</g>
<path d="M76.1562 62.9062H823.844V386.427H76.1562V62.9062Z" fill="#007A5E"/>
<path d="M76.1562 62.9062H823.844L76.1562 386.427H823.844L76.1562 62.9062Z" fill="#FCD116"/>
<path d="M448.542 281.333C478.318 281.333 502.458 257.193 502.458 227.411C502.458 197.635 478.318 173.495 448.542 173.495C418.76 173.495 394.62 197.635 394.62 227.411C394.62 257.193 418.76 281.333 448.542 281.333Z" fill="#CE1126"/>
<path d="M175.568 228.026C182.312 240.594 195.437 254.271 206.896 259.078C207.078 246.313 202.552 229.958 196.359 216.927L175.568 228.026Z" fill="#CE1126"/>
<path d="M164.13 184.922C173.906 205.307 138.766 253.938 197.312 265.339C190.089 255.479 185.437 239.214 187.198 226.156C199.479 230.828 212.406 244.505 217.625 254.958C232.948 199.313 178.323 202.698 164.13 184.922ZM298.76 391.422L281.594 444.255L326.536 411.599H270.984L315.927 444.255L298.76 391.422ZM448.542 391.422L431.37 444.255L476.318 411.599H420.766L465.708 444.255L448.542 391.422ZM598.318 391.422L581.151 444.255L626.094 411.599H570.542L615.484 444.255L598.318 391.422ZM598.318 4.99479L581.151 57.8281L626.094 25.1719H570.542L615.484 57.8281L598.318 4.99479ZM448.542 4.99479L431.37 57.8281L476.318 25.1719H420.766L465.708 57.8281L448.542 4.99479ZM298.76 4.99479L281.594 57.8281L326.536 25.1719H270.984L315.927 57.8281L298.76 4.99479ZM448.542 177.984L419.49 267.401L495.547 212.141H401.531L477.594 267.401L448.542 177.984Z" fill="#FCD116"/>
</g>
<defs>
<clipPath id="clip0_0_1">
<rect width="900" height="450" fill="white"/>
</clipPath>
</defs>
</svg>
