<svg width="900" height="450" viewBox="0 0 900 450" fill="none" xmlns="http://www.w3.org/2000/svg">
<g clip-path="url(#clip0_763_15283)">
<path d="M900 0H0V450H900V0Z" fill="#1E1E1E"/>
<mask id="mask0_763_15283" style="mask-type:luminance" maskUnits="userSpaceOnUse" x="0" y="0" width="900" height="450">
<path d="M900 0H0V450H900V0Z" fill="white"/>
</mask>
<g mask="url(#mask0_763_15283)">
<path d="M0 0H900V450H0V0Z" fill="white"/>
<path d="M404.5 0H494.5V450H404.5V0ZM0 180H900V270H0V180Z" fill="#FF0000"/>
<path d="M190.428 44C200.931 45.3795 211.569 45.3795 222.072 44C215.975 74.3872 215.975 105.683 222.072 136.07C211.569 134.691 200.931 134.691 190.428 136.07C196.525 105.683 196.525 74.3872 190.428 44Z" fill="#FF0000"/>
<path d="M252.285 74.213C250.906 84.7159 250.906 95.3541 252.285 105.857C221.898 99.7598 190.602 99.7598 160.215 105.857C161.594 95.3541 161.594 84.7159 160.215 74.213C190.602 80.3103 221.898 80.3103 252.285 74.213Z" fill="#FF0000"/>
<path d="M672.928 44C683.431 45.3795 694.069 45.3795 704.572 44C698.475 74.3872 698.475 105.683 704.572 136.07C694.069 134.691 683.431 134.691 672.928 136.07C679.025 105.683 679.025 74.3872 672.928 44Z" fill="#FF0000"/>
<path d="M734.785 74.213C733.406 84.7159 733.406 95.3541 734.785 105.857C704.398 99.7598 673.102 99.7598 642.715 105.857C644.094 95.3541 644.094 84.7159 642.715 74.213C673.102 80.3103 704.398 80.3103 734.785 74.213Z" fill="#FF0000"/>
<path d="M190.428 314C200.931 315.379 211.569 315.379 222.072 314C215.975 344.387 215.975 375.683 222.072 406.07C211.569 404.691 200.931 404.691 190.428 406.07C196.525 375.683 196.525 344.387 190.428 314Z" fill="#FF0000"/>
<path d="M252.285 344.213C250.906 354.716 250.906 365.354 252.285 375.857C221.898 369.76 190.602 369.76 160.215 375.857C161.594 365.354 161.594 354.716 160.215 344.213C190.602 350.31 221.898 350.31 252.285 344.213Z" fill="#FF0000"/>
<path d="M672.928 314C683.431 315.379 694.069 315.379 704.572 314C698.475 344.387 698.475 375.683 704.572 406.07C694.069 404.691 683.431 404.691 672.928 406.07C679.025 375.683 679.025 344.387 672.928 314Z" fill="#FF0000"/>
<path d="M734.785 344.213C733.406 354.716 733.406 365.354 734.785 375.857C704.398 369.76 673.102 369.76 642.715 375.857C644.094 365.354 644.094 354.716 642.715 344.213C673.102 350.31 704.398 350.31 734.785 344.213Z" fill="#FF0000"/>
</g>
</g>
<defs>
<clipPath id="clip0_763_15283">
<rect width="900" height="450" fill="white"/>
</clipPath>
</defs>
</svg>
