<svg width="900" height="450" viewBox="0 0 900 450" fill="none" xmlns="http://www.w3.org/2000/svg">
<g clip-path="url(#clip0_763_15357)">
<path d="M900 0H0V450H900V0Z" fill="#1E1E1E"/>
<mask id="mask0_763_15357" style="mask-type:luminance" maskUnits="userSpaceOnUse" x="0" y="0" width="900" height="450">
<path d="M900 0H0V450H900V0Z" fill="white"/>
</mask>
<g mask="url(#mask0_763_15357)">
<path d="M900 0H0V450H900V0Z" fill="white"/>
<path d="M506 0H394V450H506V0Z" fill="#E8112D"/>
<path d="M900 169H0V281H900V169Z" fill="#E8112D"/>
<path d="M469.099 205.786V74.7135L487.823 56H412.964L431.693 74.7135V205.786H300.703L282 187.047V261.953L300.703 243.214H431.693V374.286L412.964 393H487.823L469.099 374.286V243.214H600.083L618.786 261.953V187.047L600.083 205.786H469.099Z" fill="#F9DD16"/>
</g>
</g>
<defs>
<clipPath id="clip0_763_15357">
<rect width="900" height="450" fill="white"/>
</clipPath>
</defs>
</svg>
