<svg width="900" height="450" viewBox="0 0 900 450" fill="none" xmlns="http://www.w3.org/2000/svg">
<rect width="900" height="450" fill="#1E1E1E"/>
<g clip-path="url(#clip0_0_1)">
<mask id="mask0_0_1" style="mask-type:luminance" maskUnits="userSpaceOnUse" x="0" y="0" width="900" height="450">
<path d="M0 -3.37219e-06H900V450H0V-3.37219e-06Z" fill="white"/>
</mask>
<g mask="url(#mask0_0_1)">
<path d="M0 -3.37219e-06H900V450H0V-3.37219e-06Z" fill="white"/>
<path d="M0 -3.37219e-06H900V450H0V-3.37219e-06Z" fill="white"/>
</g>
<mask id="mask1_0_1" style="mask-type:luminance" maskUnits="userSpaceOnUse" x="-1" y="300" width="902" height="152">
<path d="M-1 300H901V452H-1V300Z" fill="white"/>
</mask>
<g mask="url(#mask1_0_1)">
<path d="M-0.185694 300.898H900.186V452H-0.185694V300.898Z" fill="#006B3F"/>
</g>
<mask id="mask2_0_1" style="mask-type:luminance" maskUnits="userSpaceOnUse" x="-1" y="150" width="902" height="152">
<path d="M-1 150H901V302H-1V150Z" fill="white"/>
</mask>
<g mask="url(#mask2_0_1)">
<path d="M-0.185694 150.447H900.186V301.553H-0.185694V150.447Z" fill="#FCD116"/>
</g>
<mask id="mask3_0_1" style="mask-type:luminance" maskUnits="userSpaceOnUse" x="-1" y="0" width="902" height="152">
<path d="M-1 -3.37219e-06H901V152H-1V-3.37219e-06Z" fill="white"/>
</mask>
<g mask="url(#mask3_0_1)">
<path d="M-0.185694 -3.37219e-06H900.186V151.101H-0.185694V-3.37219e-06Z" fill="#CE1126"/>
</g>
<path d="M371.177 207H431.313L449.891 149.786L468.464 207H528.599L479.958 242.354L498.531 299.568L449.891 264.214L401.245 299.568L419.823 242.354L371.177 207Z" fill="black"/>
</g>
<defs>
<clipPath id="clip0_0_1">
<rect width="900" height="450" fill="white"/>
</clipPath>
</defs>
</svg>
