<svg width="900" height="450" viewBox="0 0 900 450" fill="none" xmlns="http://www.w3.org/2000/svg">
<g clip-path="url(#clip0_763_15506)">
<path d="M900 0H0V450H900V0Z" fill="#1E1E1E"/>
<mask id="mask0_763_15506" style="mask-type:luminance" maskUnits="userSpaceOnUse" x="0" y="0" width="900" height="450">
<path d="M900 0H0V450H900V0Z" fill="white"/>
</mask>
<g mask="url(#mask0_763_15506)">
<mask id="mask1_763_15506" style="mask-type:luminance" maskUnits="userSpaceOnUse" x="0" y="0" width="900" height="450">
<path d="M0 0H900V450H0V0Z" fill="white"/>
</mask>
<g mask="url(#mask1_763_15506)">
<path d="M0 0H900V450H0V0Z" fill="white"/>
<path d="M0 0H900V450H0V0Z" fill="white"/>
<path d="M0 0H900V450H0V0Z" fill="#DA000C"/>
</g>
<mask id="mask2_763_15506" style="mask-type:luminance" maskUnits="userSpaceOnUse" x="0" y="0" width="900" height="300">
<path d="M0 0H900V300H0V0Z" fill="white"/>
</mask>
<g mask="url(#mask2_763_15506)">
<path d="M0 0H900V299.689H0V0Z" fill="white"/>
</g>
<path d="M345.688 204.135H458.021V281.354H345.688V204.135Z" fill="black"/>
<path d="M404.047 270.062H335.474L320.271 280.068V290.672H404.047" fill="#DA000C"/>
<path d="M404.047 270.062H335.474L320.271 280.068V290.672H404.047" stroke="black" stroke-width="1.75521" stroke-linecap="square"/>
<path d="M375.349 225.708C385.224 225.708 393.286 233.937 393.286 244.083V270.026H406.177V171.734H335.474V270.026H357.411V244.083C357.411 234.339 365.339 225.708 375.349 225.708Z" fill="#DA000C" stroke="black" stroke-width="1.75521" stroke-linecap="square"/>
<path d="M359.656 105.245H392.167V164.849H359.656V105.245Z" fill="black"/>
<path d="M392.078 155.609H363.63V145.516H342.766V155.609H328.615V145.516H320.167V163.839H392.078M328.615 163.771H389.995V171.734H328.615V163.771Z" fill="#DA000C"/>
<path d="M392.078 155.609H363.63V145.516H342.766V155.609H328.615V145.516H320.167V163.839H392.078M328.615 163.771H389.995V171.734H328.615V163.771Z" stroke="black" stroke-width="1.75521" stroke-linecap="square"/>
<path d="M352.969 83.5937V145.516H363.63V128.516C363.63 122.146 368.125 116.932 374.417 116.609C374.62 116.604 374.812 116.609 375.021 116.609C381.594 116.609 386.922 121.937 386.922 128.516V145.516H397.068V83.5937H352.969Z" fill="#DA000C" stroke="black" stroke-width="1.75521" stroke-linecap="square"/>
<path d="M349.13 75.1979V83.5937H400.469V75.1979H349.13Z" fill="#DA000C" stroke="black" stroke-width="1.75521" stroke-linecap="square"/>
<path d="M342.547 59.1302V75.1979H404.146V59.1302H394.656V67.3021H383.193V59.1302H365.693V67.3021H354.229V59.1302H342.547Z" fill="#DA000C" stroke="black" stroke-width="1.75521" stroke-linecap="square"/>
<path d="M320.271 280.068H404.365" stroke="black" stroke-width="1.75521" stroke-linecap="square"/>
<path d="M458.776 275.24H401.844L384.672 283.521V295.865H458.776" fill="#DA000C"/>
<path d="M458.776 275.24H401.844L384.672 283.521V295.865H458.776" stroke="black" stroke-width="1.75521" stroke-linecap="square"/>
<path d="M384.656 283.5H460.531" stroke="black" stroke-width="1.75521"/>
<path d="M554.312 204.135H441.979V281.354H554.312V204.135Z" fill="black"/>
<path d="M495.953 270.062H564.526L579.729 280.068V290.672H495.953" fill="#DA000C"/>
<path d="M495.953 270.062H564.526L579.729 280.068V290.672H495.953" stroke="black" stroke-width="1.75521" stroke-linecap="square"/>
<path d="M524.651 225.708C514.776 225.708 506.714 233.937 506.714 244.083V270.026H493.823V171.734H564.526V270.026H542.589V244.083C542.589 234.339 534.661 225.708 524.651 225.708Z" fill="#DA000C" stroke="black" stroke-width="1.75521" stroke-linecap="square"/>
<path d="M540.344 105.245H507.833V164.849H540.344V105.245Z" fill="black"/>
<path d="M507.922 155.609H536.37V145.516H557.234V155.609H571.385V145.516H579.833V163.839H507.922M571.385 163.771H510.005V171.734H571.385V163.771Z" fill="#DA000C"/>
<path d="M507.922 155.609H536.37V145.516H557.234V155.609H571.385V145.516H579.833V163.839H507.922M571.385 163.771H510.005V171.734H571.385V163.771Z" stroke="black" stroke-width="1.75521" stroke-linecap="square"/>
<path d="M547.031 83.5937V145.516H536.37V128.516C536.37 122.146 531.875 116.932 525.583 116.609C525.38 116.604 525.188 116.609 524.979 116.609C518.406 116.609 513.078 121.937 513.078 128.516V145.516H502.932V83.5937H547.031Z" fill="#DA000C" stroke="black" stroke-width="1.75521" stroke-linecap="square"/>
<path d="M550.87 75.1979V83.5937H499.531V75.1979H550.87Z" fill="#DA000C" stroke="black" stroke-width="1.75521" stroke-linecap="square"/>
<path d="M557.453 59.1302V75.1979H495.854V59.1302H505.344V67.3021H516.807V59.1302H534.307V67.3021H545.771V59.1302H557.453Z" fill="#DA000C" stroke="black" stroke-width="1.75521" stroke-linecap="square"/>
<path d="M579.729 280.068H495.635" stroke="black" stroke-width="1.75521" stroke-linecap="square"/>
<path d="M441.224 275.24H498.156L515.328 283.521V295.865H441.224" fill="#DA000C"/>
<path d="M441.224 275.24H498.156L515.328 283.521V295.865H441.224" stroke="black" stroke-width="1.75521" stroke-linecap="square"/>
<path d="M515.344 283.5H439.469" stroke="black" stroke-width="1.75521"/>
<path d="M480.359 263.339C475.703 264.885 471.49 267.495 467.25 269.922C461.807 273.141 456.531 276.641 451.62 280.63C449.891 281.766 448.234 283.016 446.901 284.62C445.099 286.156 443.276 288.224 443.62 290.786C443.713 291.911 445.156 289.458 446.104 289.339C447.755 288.391 449.76 288.083 451.62 288.51C453.849 286.161 456.724 284.589 459.208 282.536C464.484 278.599 470.156 275.219 475.927 272.073C477.943 271.036 479.969 269.99 482.114 269.26C481.531 267.286 480.943 265.312 480.359 263.339Z" fill="#F8D80E" stroke="black" stroke-width="1.348" stroke-linecap="round"/>
<path d="M457.724 276.255V283.12" stroke="black" stroke-width="1.75521" stroke-linecap="round"/>
<path d="M461.964 273.26V280.078" stroke="black" stroke-width="1.75521" stroke-linecap="round"/>
<path d="M466.208 270.62V277.391" stroke="black" stroke-width="1.75521" stroke-linecap="round"/>
<path d="M470.448 268.01V275" stroke="black" stroke-width="1.75521" stroke-linecap="round"/>
<path d="M419.969 263.557C419.276 265.495 418.578 267.432 417.885 269.37C427.604 273.057 436.859 277.932 445.615 283.516C448.583 285.536 451.698 287.495 454.031 290.266C454.547 291.693 453.13 292.88 451.724 292.453C450.443 292.016 449.172 291.516 447.818 292.443C445.875 293.328 444.12 296.203 447.073 297.167C451.135 299.896 457.745 298.708 459.698 293.927C460.719 291.469 460.786 288.323 458.807 286.302C455.187 282.156 450.385 279.271 445.781 276.349C437.552 271.396 428.979 266.917 419.969 263.557Z" fill="#F8D80E" stroke="black" stroke-width="1.348" stroke-linecap="round"/>
<path d="M446.578 277.385L446.031 283.245" stroke="black" stroke-width="1.75521" stroke-linecap="round"/>
<path d="M451.458 280.375L449.948 286.115" stroke="black" stroke-width="1.75521" stroke-linecap="round"/>
<path d="M456.677 284.365L453.5 288.818" stroke="black" stroke-width="1.75521" stroke-linecap="round"/>
<path d="M458.276 295.193L453.693 292.734" stroke="black" stroke-width="1.75521" stroke-linecap="round"/>
<path d="M459.703 290.365L454.443 290.854" stroke="black" stroke-width="1.75521" stroke-linecap="round"/>
<path d="M452.922 297.974L452.562 293.354" stroke="black" stroke-width="1.75521" stroke-linecap="round"/>
<path d="M450.995 292.693L446.656 295.891" stroke="black" stroke-width="1.75521" stroke-linecap="round"/>
<path d="M430.125 268.438V273.906" stroke="black" stroke-width="1.75521" stroke-linecap="round"/>
<path d="M441.161 274.24V280.443" stroke="black" stroke-width="1.75521" stroke-linecap="round"/>
<path d="M435.641 271.344V277.167" stroke="black" stroke-width="1.75521" stroke-linecap="round"/>
<path d="M414.51 399.422V413.516H423.344V406.443H435.354V413.516H444.844V399.422H414.51ZM414.51 418.839V432.99H444.844V418.839H435.354V425.911H423.344V418.839H414.51Z" fill="#F8D80E" stroke="black" stroke-width="1.75521"/>
<path d="M444.828 339.901H453.583V441.901H444.828V339.901Z" fill="#F8D80E" stroke="black" stroke-width="1.75521"/>
<path d="M444.828 348.724H453.583V436.589H444.828V348.724Z" fill="#F8D80E" stroke="black" stroke-width="1.75521"/>
<path d="M449.203 314.896L467.854 325.755L449.203 336.562L430.557 325.755L449.203 314.896ZM424.25 321.865H419.365V329.651H424.25L449.203 344.13L474.161 329.651H479.042V321.865H474.161L449.203 307.38L424.25 321.865Z" fill="#F8D80E" stroke="black" stroke-width="1.79734"/>
<path d="M448.849 288.349C444.604 288.943 441.432 293.141 441.661 297.359C441.677 303.922 441.63 310.484 441.687 317.042C441.911 321.271 445.604 325.057 449.891 325.094C453.375 325.427 456.875 323.391 458.339 320.214C457.333 319.615 456.328 319.01 455.323 318.406C454.542 320.484 452.297 321.771 450.109 321.531C447.24 321.615 444.917 318.823 445.172 316.031C445.193 309.516 445.141 302.995 445.198 296.479C445.359 293.818 447.896 291.641 450.547 291.911C451.651 291.599 453.161 293.104 453.839 291.802C454.865 290.349 453.115 289.208 452.141 288.401C451.063 288.255 449.937 288.391 448.849 288.349ZM458.995 295.203C458.302 296.516 456.859 297.292 455.703 297.979V311.167C456.875 311.844 458.047 312.521 459.214 313.193C459.203 307.573 459.24 301.948 459.193 296.323C459.141 295.979 459.182 295.448 458.995 295.203Z" fill="#F8D80E" stroke="black" stroke-width="1.79734"/>
<path d="M423.328 67.3125H474.802V160.786H423.328V67.3125Z" fill="black"/>
<path d="M419.724 67.3542V145.573H436.068V122.37C436.068 117.021 439.495 109.589 450 109.589C460.505 109.589 463.932 117.021 463.932 122.37V145.573H480.276V67.3542H419.724ZM447.479 76.1302H452.521V102.901H447.479V76.1302ZM432.995 81.3958H438.099V100.979H432.995V81.3958ZM461.901 81.3958H467.005V100.979H461.901V81.3958Z" fill="#DA000C" stroke="black" stroke-width="1.75521"/>
<path d="M414.182 56.1094V67.2448H485.818V56.1094H414.182Z" fill="#DA000C" stroke="black" stroke-width="1.75521"/>
<path d="M407.438 43.1667V56.1094H492.562V43.1667H481.87V50.2969H469.802V43.1667H456.031V50.2969H443.969V43.1667H430.198V50.2969H418.13V43.1667H407.438Z" fill="#DA000C" stroke="black" stroke-width="1.75521"/>
<path d="M391.641 171.734V179.802H508.359V171.734H391.641Z" fill="#DA000C" stroke="black" stroke-width="1.75521"/>
<path d="M386.87 145.516V171.734H513.13V145.516H501.177V155.609H485.271V145.516H463.932V155.609H436.068V145.516H414.729V155.609H398.823V145.516H386.87Z" fill="#DA000C" stroke="black" stroke-width="1.75521"/>
<path d="M402.062 179.802V275.182H424.604V239.479C424.604 222.656 435.833 214.74 450 214.74C463.62 214.74 475.396 222.656 475.396 239.479V275.182H497.937V179.802H402.062Z" fill="#DA000C" stroke="black" stroke-width="1.75521" stroke-linejoin="round"/>
</g>
</g>
<defs>
<clipPath id="clip0_763_15506">
<rect width="900" height="450" fill="white"/>
</clipPath>
</defs>
</svg>
