<svg width="900" height="450" viewBox="0 0 900 450" fill="none" xmlns="http://www.w3.org/2000/svg">
<g clip-path="url(#clip0_763_15666)">
<path d="M900 0H0V450H900V0Z" fill="#1E1E1E"/>
<mask id="mask0_763_15666" style="mask-type:luminance" maskUnits="userSpaceOnUse" x="0" y="0" width="900" height="450">
<path d="M900 0H0V450H900V0Z" fill="white"/>
</mask>
<g mask="url(#mask0_763_15666)">
<mask id="mask1_763_15666" style="mask-type:luminance" maskUnits="userSpaceOnUse" x="0" y="0" width="900" height="450">
<path d="M0 0H900V450H0V0Z" fill="white"/>
</mask>
<g mask="url(#mask1_763_15666)">
<path d="M0 0H900V450H0V0Z" fill="white"/>
<path d="M0 0H900V450H0V0Z" fill="white"/>
<path d="M0 0H900V450H0V0Z" fill="#1E1E1E"/>
<path d="M0 0H900V450H0" fill="#3A7728"/>
</g>
<mask id="mask2_763_15666" style="mask-type:luminance" maskUnits="userSpaceOnUse" x="0" y="0" width="900" height="275">
<path d="M0 0H900V275H0V0Z" fill="white"/>
</mask>
<g mask="url(#mask2_763_15666)">
<path d="M0 0H900V274.927H0" fill="#0C1C8C"/>
</g>
<mask id="mask3_763_15666" style="mask-type:luminance" maskUnits="userSpaceOnUse" x="0" y="0" width="900" height="150">
<path d="M0 0H900V150H0V0Z" fill="white"/>
</mask>
<g mask="url(#mask3_763_15666)">
<path d="M0 0H900V149.113H0" fill="#CE1126"/>
</g>
<mask id="mask4_763_15666" style="mask-type:luminance" maskUnits="userSpaceOnUse" x="0" y="150" width="900" height="145">
<path d="M0 150H900V295H0V150Z" fill="white"/>
</mask>
<g mask="url(#mask4_763_15666)">
<path d="M-4.77545e-07 161.359H900M900 283.641H-4.77545e-07" stroke="white" stroke-width="22.966"/>
</g>
</g>
</g>
<defs>
<clipPath id="clip0_763_15666">
<rect width="900" height="450" fill="white"/>
</clipPath>
</defs>
</svg>
