<svg width="900" height="450" viewBox="0 0 900 450" fill="none" xmlns="http://www.w3.org/2000/svg">
<g clip-path="url(#clip0_763_15723)">
<path d="M900 0H0V450H900V0Z" fill="#1E1E1E"/>
<mask id="mask0_763_15723" style="mask-type:luminance" maskUnits="userSpaceOnUse" x="0" y="0" width="900" height="450">
<path d="M900 0H0V450H900V0Z" fill="white"/>
</mask>
<g mask="url(#mask0_763_15723)">
<mask id="mask1_763_15723" style="mask-type:luminance" maskUnits="userSpaceOnUse" x="0" y="0" width="900" height="450">
<path d="M0 0H900V450H0V0Z" fill="white"/>
</mask>
<g mask="url(#mask1_763_15723)">
<path d="M0 0H900V450H0V0Z" fill="white"/>
<path d="M0 0H900V450H0V0Z" fill="white"/>
</g>
<mask id="mask2_763_15723" style="mask-type:luminance" maskUnits="userSpaceOnUse" x="0" y="0" width="302" height="450">
<path d="M0 0H302V450H0V0Z" fill="white"/>
</mask>
<g mask="url(#mask2_763_15723)">
<path d="M0.152048 -3.37219e-06H301.156V599.002H0.152048V-3.37219e-06Z" fill="#CE1126"/>
</g>
<mask id="mask3_763_15723" style="mask-type:luminance" maskUnits="userSpaceOnUse" x="300" y="0" width="302" height="450">
<path d="M300 -3.37219e-06H602V450H300V-3.37219e-06Z" fill="white"/>
</mask>
<g mask="url(#mask3_763_15723)">
<path d="M300.498 -3.37219e-06H601.502V599.002H300.498V-3.37219e-06Z" fill="#FCD116"/>
</g>
<mask id="mask4_763_15723" style="mask-type:luminance" maskUnits="userSpaceOnUse" x="600" y="0" width="302" height="450">
<path d="M600 -3.37219e-06H902V450H600V-3.37219e-06Z" fill="white"/>
</mask>
<g mask="url(#mask4_763_15723)">
<path d="M600.844 -3.37219e-06H901.848V599.002H600.844V-3.37219e-06Z" fill="#009460"/>
</g>
</g>
</g>
<defs>
<clipPath id="clip0_763_15723">
<rect width="900" height="450" fill="white"/>
</clipPath>
</defs>
</svg>
