<svg width="900" height="450" viewBox="0 0 900 450" fill="none" xmlns="http://www.w3.org/2000/svg">
<rect width="900" height="450" fill="#1E1E1E"/>
<g clip-path="url(#clip0_0_1)">
<mask id="mask0_0_1" style="mask-type:luminance" maskUnits="userSpaceOnUse" x="0" y="0" width="900" height="450">
<path d="M0 -3.37219e-06H900V450H0V-3.37219e-06Z" fill="white"/>
</mask>
<g mask="url(#mask0_0_1)">
<path d="M0 -3.37219e-06H900V450H0V-3.37219e-06Z" fill="white"/>
<path d="M0 -3.37219e-06H900V450H0V-3.37219e-06Z" fill="white"/>
</g>
<mask id="mask1_0_1" style="mask-type:luminance" maskUnits="userSpaceOnUse" x="0" y="0" width="302" height="450">
<path d="M0 -3.37219e-06H302V450H0V-3.37219e-06Z" fill="white"/>
</mask>
<g mask="url(#mask1_0_1)">
<path d="M0.152048 -3.37219e-06H301.156V599.002H0.152048V-3.37219e-06Z" fill="#CE1126"/>
</g>
<mask id="mask2_0_1" style="mask-type:luminance" maskUnits="userSpaceOnUse" x="300" y="0" width="302" height="450">
<path d="M300 -3.37219e-06H602V450H300V-3.37219e-06Z" fill="white"/>
</mask>
<g mask="url(#mask2_0_1)">
<path d="M300.498 -3.37219e-06H601.502V599.002H300.498V-3.37219e-06Z" fill="#FCD116"/>
</g>
<mask id="mask3_0_1" style="mask-type:luminance" maskUnits="userSpaceOnUse" x="600" y="0" width="302" height="450">
<path d="M600 -3.37219e-06H902V450H600V-3.37219e-06Z" fill="white"/>
</mask>
<g mask="url(#mask3_0_1)">
<path d="M600.844 -3.37219e-06H901.848V599.002H600.844V-3.37219e-06Z" fill="#009460"/>
</g>
</g>
<defs>
<clipPath id="clip0_0_1">
<rect width="900" height="450" fill="white"/>
</clipPath>
</defs>
</svg>
