<svg width="900" height="450" viewBox="0 0 900 450" fill="none" xmlns="http://www.w3.org/2000/svg">
<g clip-path="url(#clip0_763_15886)">
<path d="M900 0H0V450H900V0Z" fill="#1E1E1E"/>
<mask id="mask0_763_15886" style="mask-type:luminance" maskUnits="userSpaceOnUse" x="0" y="0" width="900" height="450">
<path d="M900 0H0V450H900V0Z" fill="white"/>
</mask>
<g mask="url(#mask0_763_15886)">
<mask id="mask1_763_15886" style="mask-type:luminance" maskUnits="userSpaceOnUse" x="0" y="0" width="900" height="450">
<path d="M0 0H900V450H0V0Z" fill="white"/>
</mask>
<g mask="url(#mask1_763_15886)">
<path d="M0 0H900V450H0V0Z" fill="white"/>
<path d="M0 0H900V450H0V0Z" fill="white"/>
</g>
<mask id="mask2_763_15886" style="mask-type:luminance" maskUnits="userSpaceOnUse" x="0" y="0" width="900" height="152">
<path d="M0 0H900V152H0V0Z" fill="white"/>
</mask>
<g mask="url(#mask2_763_15886)">
<path fill-rule="evenodd" clip-rule="evenodd" d="M0 0H900V150.849H0V0Z" fill="#3E9A00"/>
</g>
<mask id="mask3_763_15886" style="mask-type:luminance" maskUnits="userSpaceOnUse" x="0" y="150" width="900" height="152">
<path d="M0 150H900V302H0V150Z" fill="white"/>
</mask>
<g mask="url(#mask3_763_15886)">
<path fill-rule="evenodd" clip-rule="evenodd" d="M0 150.187H900V301.823H0V150.187Z" fill="white"/>
</g>
<mask id="mask4_763_15886" style="mask-type:luminance" maskUnits="userSpaceOnUse" x="0" y="300" width="900" height="152">
<path d="M0 300H900V452H0V300Z" fill="white"/>
</mask>
<g mask="url(#mask4_763_15886)">
<path fill-rule="evenodd" clip-rule="evenodd" d="M0 301.151H900V452H0V301.151Z" fill="#E32118"/>
</g>
<path fill-rule="evenodd" clip-rule="evenodd" d="M304.521 181.021V253.14C304.521 258.911 308.229 264.682 315.641 264.682H330.469C334.172 264.682 337.88 270.453 337.88 270.453C337.88 270.453 341.422 264.682 345.292 264.682H360.115C367.531 264.682 371.235 258.911 371.235 253.14V181.021H304.521Z" fill="#CCCCCC" stroke="black" stroke-width="0.699685"/>
<path fill-rule="evenodd" clip-rule="evenodd" d="M289.021 258.911C285.229 258.911 281.505 256.031 281.505 253.146V238.718C284.766 241.245 300.13 250.26 296.406 253.146C292.682 256.031 288.891 253.146 288.958 253.146C289.021 253.146 289.021 258.911 289.021 258.911Z" fill="#CCCCCC" stroke="black" stroke-width="0.24672"/>
<path fill-rule="evenodd" clip-rule="evenodd" d="M288.958 253.146C292.682 250.26 292.682 256.031 296.406 253.146L292.682 270.453C289.068 269.911 288.943 270.453 286.854 267.568C286.854 264.682 286.854 255.464 288.958 253.146Z" fill="#CCCCCC"/>
<path fill-rule="evenodd" clip-rule="evenodd" d="M386.328 258.911C390.12 258.911 393.844 256.031 393.844 253.146V238.718C390.583 241.245 375.219 250.26 378.943 253.146C382.667 256.031 386.458 253.146 386.396 253.146C386.328 253.146 386.328 258.911 386.328 258.911Z" fill="#CCCCCC" stroke="black" stroke-width="0.24672"/>
<path fill-rule="evenodd" clip-rule="evenodd" d="M385.813 253.146C382.089 250.26 382.089 256.031 378.365 253.146L382.089 270.453C385.703 269.911 385.828 270.453 387.917 267.568C387.917 264.682 387.917 255.464 385.813 253.146Z" fill="#CCCCCC"/>
<path fill-rule="evenodd" clip-rule="evenodd" d="M352.287 279.098C352.287 276.218 344.839 270.447 344.839 267.562C344.839 264.677 352.287 270.447 367.193 270.447C382.094 270.447 389.542 256.026 385.818 253.14C389.542 258.911 389.542 264.677 389.542 267.562C389.542 273.333 382.094 279.104 367.193 279.104H352.287V279.098Z" fill="#CCCCCC" stroke="black" stroke-width="0.24672"/>
<path fill-rule="evenodd" clip-rule="evenodd" d="M322.484 279.098C322.484 276.218 329.932 270.447 329.932 267.562C329.932 264.677 322.484 270.447 307.583 270.447C292.677 270.447 285.229 256.026 288.953 253.14C285.229 258.911 285.229 264.677 285.229 267.562C285.229 273.333 292.677 279.104 307.583 279.104H322.484V279.098Z" fill="#CCCCCC" stroke="black" stroke-width="0.24672"/>
<path fill-rule="evenodd" clip-rule="evenodd" d="M322.484 276.219C322.484 273.333 329.932 270.448 329.932 267.562V281.99H322.484V276.219Z" fill="#CCCCCC"/>
<path fill-rule="evenodd" clip-rule="evenodd" d="M352.286 276.219C352.286 273.333 344.839 270.448 344.839 267.562V281.99H352.286V276.219Z" fill="#CCCCCC"/>
<path fill-rule="evenodd" clip-rule="evenodd" d="M322.485 276.213C322.485 279.099 352.287 279.099 352.287 276.213V287.755C352.287 290.635 322.485 290.635 322.485 287.755V276.213Z" fill="#CCCCCC" stroke="black" stroke-width="0.24672"/>
<path d="M296.406 253.146C292.682 256.031 292.682 250.26 288.958 253.146C285.229 256.031 292.682 270.453 307.583 270.453C322.485 270.453 329.938 264.682 329.938 267.567C329.938 270.453 322.485 273.338 322.485 276.224C322.485 279.109 352.287 279.109 352.287 276.224C352.287 273.338 344.839 270.453 344.839 267.567C344.839 264.682 352.287 270.453 367.188 270.453C382.094 270.453 389.542 256.031 385.818 253.146C382.094 250.26 382.094 256.031 378.365 253.146" stroke="black" stroke-width="0.2313"/>
<path d="M379.458 267.849L380.125 267.583L383.958 273.974L383.292 274.245L379.458 267.849Z" fill="black"/>
<path d="M380.896 272.859L381.698 272.849C381.906 273.615 381.917 274.25 381.724 274.755C381.531 275.255 381.167 275.599 380.62 275.776C380.057 275.964 379.526 275.974 379.031 275.802C378.536 275.625 378.063 275.297 377.604 274.807C377.151 274.318 376.771 273.755 376.458 273.125C376.12 272.437 375.932 271.802 375.885 271.224C375.844 270.641 375.948 270.156 376.198 269.76C376.453 269.37 376.807 269.094 377.271 268.943C377.792 268.766 378.318 268.792 378.839 269.005C379.359 269.224 379.839 269.615 380.281 270.182L379.698 270.609C379.344 270.167 378.995 269.875 378.656 269.734C378.318 269.589 377.974 269.578 377.625 269.693C377.224 269.828 376.948 270.062 376.797 270.396C376.646 270.724 376.62 271.115 376.714 271.562C376.802 272.01 376.958 272.448 377.172 272.885C377.448 273.448 377.75 273.917 378.089 274.297C378.422 274.672 378.781 274.917 379.156 275.031C379.531 275.146 379.875 275.156 380.193 275.047C380.583 274.922 380.839 274.667 380.969 274.297C381.099 273.927 381.078 273.448 380.896 272.859Z" fill="black"/>
<path d="M373.719 270.437L374.432 270.26L376.927 277.089L376.214 277.266L373.719 270.437Z" fill="black"/>
<path d="M371.5 278.016L370.844 271.755L368.99 271.885L368.906 271.047L373.354 270.729L373.443 271.568L371.583 271.703L372.24 277.964L371.5 278.016Z" fill="black"/>
<path d="M364.349 276.12L365.052 276.042C365.083 276.396 365.161 276.688 365.281 276.922C365.406 277.146 365.594 277.333 365.849 277.474C366.109 277.615 366.396 277.682 366.719 277.682C367 277.682 367.25 277.63 367.469 277.521C367.688 277.417 367.849 277.271 367.953 277.083C368.063 276.896 368.115 276.693 368.115 276.474C368.115 276.25 368.063 276.052 367.964 275.891C367.859 275.719 367.693 275.578 367.453 275.469C367.302 275.391 366.969 275.276 366.453 275.12C365.932 274.964 365.573 274.813 365.365 274.672C365.094 274.495 364.891 274.276 364.76 274.01C364.63 273.745 364.563 273.453 364.563 273.125C364.563 272.766 364.646 272.427 364.807 272.115C364.969 271.802 365.203 271.563 365.516 271.401C365.823 271.24 366.167 271.161 366.547 271.161C366.964 271.161 367.333 271.245 367.651 271.417C367.969 271.583 368.219 271.833 368.391 272.167C368.563 272.495 368.651 272.87 368.667 273.286L367.953 273.354C367.911 272.906 367.781 272.568 367.557 272.333C367.339 272.104 367.01 271.99 366.578 271.99C366.125 271.99 365.797 272.094 365.589 272.307C365.385 272.516 365.281 272.766 365.281 273.063C365.281 273.318 365.354 273.526 365.5 273.693C365.646 273.859 366.021 274.026 366.625 274.203C367.229 274.375 367.646 274.526 367.875 274.656C368.203 274.844 368.443 275.089 368.599 275.385C368.755 275.677 368.833 276.01 368.833 276.396C368.833 276.776 368.75 277.13 368.578 277.469C368.406 277.802 368.156 278.063 367.833 278.25C367.516 278.438 367.151 278.531 366.75 278.531C366.24 278.531 365.813 278.438 365.469 278.25C365.125 278.057 364.854 277.776 364.656 277.401C364.458 277.021 364.359 276.594 364.349 276.12Z" fill="black"/>
<path d="M362.313 271.208L363.057 271.234L362.828 275.349C362.792 276.063 362.693 276.63 362.542 277.047C362.391 277.464 362.141 277.797 361.792 278.047C361.443 278.297 361 278.411 360.453 278.396C359.927 278.375 359.5 278.24 359.182 278C358.859 277.755 358.635 277.417 358.516 276.979C358.396 276.536 358.359 275.938 358.401 275.182L358.63 271.068L359.375 271.094L359.146 275.203C359.115 275.823 359.13 276.281 359.203 276.578C359.281 276.875 359.422 277.104 359.635 277.271C359.849 277.438 360.115 277.526 360.438 277.542C360.984 277.563 361.385 277.417 361.635 277.115C361.885 276.807 362.036 276.208 362.083 275.313L362.313 271.208Z" fill="black"/>
<path d="M353.115 275.979L353.786 275.859C353.807 276.406 353.885 276.781 354.031 276.979C354.172 277.182 354.37 277.281 354.625 277.281C354.813 277.281 354.974 277.229 355.109 277.12C355.245 277.01 355.339 276.865 355.391 276.677C355.443 276.49 355.469 276.193 355.469 275.781V270.875H356.214V275.729C356.214 276.328 356.156 276.786 356.042 277.115C355.927 277.443 355.745 277.693 355.5 277.865C355.25 278.036 354.964 278.125 354.63 278.125C354.135 278.125 353.755 277.943 353.49 277.583C353.229 277.224 353.104 276.688 353.115 275.979Z" fill="black"/>
<path d="M340.438 287.885V286.896L343.323 281.745C343.531 281.375 343.724 281.057 343.911 280.786H340.766V279.839H344.802V280.786L341.635 286.37L341.297 286.932H344.896V287.885H340.438Z" fill="black"/>
<path d="M301.172 270.089L301.901 270.198L300.125 278.109L299.391 278L301.172 270.089Z" fill="black"/>
<path d="M291.411 274.885L296.047 267.797L296.719 268.094L295.688 274.812L299.328 269.245L299.958 269.526L295.323 276.615L294.651 276.312L295.682 269.594L292.042 275.161L291.411 274.885Z" fill="black"/>
<path d="M295.396 266.979L295.927 267.411L291.927 270.698C291.234 271.271 290.635 271.687 290.135 271.953C289.635 272.214 289.141 272.354 288.646 272.37C288.156 272.385 287.714 272.24 287.333 271.922C286.958 271.615 286.766 271.271 286.75 270.896C286.734 270.516 286.885 270.109 287.208 269.682C287.531 269.25 288.057 268.729 288.792 268.125L292.786 264.839L293.318 265.271L289.323 268.557C288.724 269.052 288.312 269.443 288.089 269.729C287.87 270.016 287.766 270.286 287.766 270.542C287.771 270.797 287.885 271.021 288.109 271.203C288.5 271.521 288.927 271.625 289.396 271.51C289.87 271.391 290.536 270.979 291.406 270.26L295.396 266.979Z" fill="black"/>
<path d="M303.354 278.609L303.625 270.568L305.568 270.609C306.005 270.62 306.339 270.667 306.568 270.75C306.885 270.865 307.156 271.063 307.37 271.344C307.656 271.708 307.865 272.172 307.99 272.734C308.12 273.297 308.172 273.932 308.151 274.651C308.13 275.26 308.062 275.802 307.943 276.271C307.828 276.74 307.687 277.13 307.521 277.438C307.354 277.74 307.177 277.979 306.979 278.156C306.792 278.323 306.562 278.453 306.297 278.542C306.031 278.625 305.729 278.661 305.391 278.656L303.354 278.609ZM304.135 277.677L305.333 277.703C305.708 277.714 306 277.672 306.214 277.578C306.427 277.484 306.604 277.349 306.734 277.172C306.922 276.922 307.068 276.589 307.182 276.167C307.292 275.74 307.359 275.224 307.38 274.615C307.411 273.776 307.333 273.13 307.156 272.672C306.979 272.214 306.755 271.906 306.484 271.745C306.286 271.635 305.969 271.573 305.526 271.563L304.339 271.531L304.135 277.677Z" fill="black"/>
<path d="M308.562 278.661L310.724 270.62H311.531L313.833 278.661H312.984L312.328 276.229H309.974L309.354 278.661H308.562ZM310.188 275.359H312.099L311.51 273.13C311.328 272.453 311.198 271.901 311.109 271.464C311.036 271.979 310.937 272.49 310.807 273L310.188 275.359Z" fill="black"/>
<path d="M314.432 278.661V270.62H316.37C316.812 270.62 317.146 270.656 317.375 270.734C317.698 270.839 317.974 271.031 318.203 271.312C318.5 271.667 318.719 272.13 318.865 272.687C319.016 273.245 319.089 273.88 319.089 274.599C319.089 275.208 319.042 275.75 318.937 276.224C318.839 276.693 318.714 277.083 318.557 277.396C318.401 277.703 318.229 277.948 318.042 278.125C317.854 278.302 317.63 278.437 317.37 278.526C317.104 278.62 316.807 278.661 316.464 278.661H314.432ZM315.177 277.714H316.38C316.75 277.714 317.042 277.667 317.25 277.568C317.464 277.469 317.635 277.328 317.76 277.151C317.937 276.896 318.073 276.557 318.172 276.135C318.271 275.708 318.323 275.187 318.323 274.583C318.323 273.74 318.224 273.094 318.031 272.646C317.839 272.193 317.604 271.885 317.323 271.734C317.125 271.625 316.802 271.568 316.359 271.568H315.177V277.714Z" fill="black"/>
<path d="M330.385 287.885V279.839H332.51C332.885 279.839 333.172 279.865 333.37 279.917C333.646 279.979 333.88 280.109 334.068 280.292C334.25 280.479 334.401 280.734 334.516 281.068C334.63 281.401 334.687 281.766 334.687 282.167C334.687 282.849 334.536 283.427 334.229 283.906C333.927 284.375 333.375 284.615 332.578 284.615H331.13V287.885H330.385ZM331.13 283.661H332.589C333.073 283.661 333.411 283.536 333.615 283.281C333.818 283.021 333.917 282.661 333.917 282.198C333.917 281.859 333.859 281.573 333.74 281.339C333.62 281.094 333.464 280.937 333.271 280.859C333.146 280.812 332.911 280.786 332.573 280.786H331.13V283.661Z" fill="black"/>
<path d="M335.021 287.885L337.182 279.839H337.984L340.292 287.885H339.443L338.786 285.448H336.427L335.813 287.885H335.021ZM336.646 284.578H338.557L337.969 282.354C337.786 281.677 337.656 281.12 337.568 280.682C337.495 281.198 337.396 281.714 337.266 282.219L336.646 284.578Z" fill="black"/>
<path d="M384.984 273.615L381.219 266.74L381.812 266.38L388.885 271.26L388.255 271.635L386.146 270.141L384.401 271.198L385.568 273.26L384.984 273.615ZM383.984 270.464L385.396 269.609L383.479 268.234C382.891 267.818 382.422 267.469 382.068 267.188C382.359 267.599 382.625 268.021 382.87 268.453L383.984 270.464Z" fill="black"/>
<path fill-rule="evenodd" clip-rule="evenodd" d="M336.828 219.547C336.839 223.839 339.401 236.693 331.953 256.661C331.406 258.115 332.87 258.813 334.089 259.115C335.307 259.422 335.917 257.891 335.917 257.583C335.917 257.276 336.219 260.036 337.438 259.729C338.656 259.422 339.875 257.583 339.875 257.583C339.875 257.583 340.484 260.344 342.005 260.344C343.526 260.344 343.526 256.969 343.526 256.969C343.526 257.276 344.583 259.865 345.802 259.865C347.021 259.865 348.896 258.724 347.813 256.849C340.073 243.729 340.484 222 340.484 219.547C340.484 217.094 344.073 212.635 347.651 212.526L346.271 210.344C345.37 210.625 344.292 210.823 342.464 212.354C340.641 213.891 339.568 215.557 339.568 215.557V205.13H336.526L336.828 214.641C336.828 214.641 335.786 213.411 334.229 212.042C332.755 210.75 330.094 210.844 328.458 211.115L328.302 213.198C330.24 213.604 332.708 212.797 333.927 214.641C335.448 216.172 336.823 217.406 336.828 219.547Z" fill="#682900" stroke="black" stroke-width="0.652711"/>
<path fill-rule="evenodd" clip-rule="evenodd" d="M314.917 207.661V207.547C314.917 207.812 314.906 207.693 315.062 207.214C315.203 206.833 315.495 206.474 315.807 206.208C316.354 206.073 317.14 206.214 317.745 206.099C318.151 205.656 318.786 206.667 318.786 205.984C319.562 205.943 319.573 205.375 319.828 205.094C320.552 205.026 320.719 204.365 321.318 204.755C321.812 204.932 321.39 204.646 322.213 204.646C322.698 204.734 322.953 204.958 323.401 204.755C323.515 204.375 323.651 203.917 323.703 203.417C323.489 203.104 323.552 202.453 323.552 201.969C323.958 201.562 324.672 202.297 325.338 202.193C325.521 201.714 326.078 201.724 325.786 201.297C325.729 200.76 325.594 200.427 325.786 199.849C326.021 199.349 326.364 199.365 326.974 199.068C327.172 198.625 326.953 198.255 327.125 197.729C327.823 197.714 327.812 197.573 327.87 197.057C328.094 196.698 328.38 196.339 328.765 196.052C329.114 195.734 329.531 195.766 329.807 195.271C330.042 194.833 330.042 194.635 330.698 194.49C331.182 194.318 331.562 194.302 331.89 194.042C332.198 193.635 332.458 193.307 332.932 192.818C333.401 192.578 335.656 193.042 336.354 193.042C336.734 192.682 337.323 192.12 337.698 191.922C338.338 191.667 338.583 191.589 339.484 191.589C340.25 191.76 340.573 191.964 341.416 191.812C341.765 191.448 342.099 191.281 342.906 191.479C343.521 191.776 343.864 191.76 344.099 192.26C344.448 192.875 344.37 193.089 345.291 193.151C346.219 193.177 346.312 193.344 346.927 193.708C347.864 194.01 347.823 193.839 347.823 194.49C348.484 194.49 348.547 194.432 348.568 194.937C348.974 195.031 349.443 195.302 349.755 195.495C350.13 195.818 350.229 196.021 351.099 196.052C351.739 195.849 351.948 195.854 351.989 195.271C352.484 195.141 352.562 194.786 352.734 194.38C353.109 193.99 353.354 193.932 354.224 193.932C354.989 194.172 354.963 194.411 354.817 194.937C355.297 195.01 355.495 194.969 355.562 195.385C355.817 195.698 355.75 196.073 355.416 196.276C355.797 196.484 356.015 196.844 356.161 197.281C355.906 197.594 356.062 198.057 356.161 198.396C356.682 198.594 356.948 198.771 357.646 198.953C358.005 199.177 358.755 199.417 359.432 199.51C360.234 199.432 360.5 199.437 361.224 199.734C361.594 200.135 361.62 200.641 361.963 200.849C362.354 201.099 363.005 201.208 363.307 201.521C363.802 201.792 363.948 202.094 364.646 202.193C364.911 202.49 365.474 202.979 365.687 203.307C365.854 203.667 365.932 204.302 366.135 204.755V206.318C366.109 206.896 365.984 207.245 365.984 207.88C365.854 208.203 365.687 208.323 365.687 208.776C365.406 209.25 365.166 209.646 364.797 210.005C364.625 210.573 364.354 210.839 364.052 211.344C364.057 211.927 364.198 212.187 364.198 212.792C363.875 213.151 363.505 213.417 362.859 213.687C362.37 214.115 362.078 214.281 361.963 214.911C361.687 215.276 361.708 215.25 361.073 215.25C360.323 215.25 359.677 215.297 358.989 215.359C358.385 215.359 358.156 215.406 357.797 215.135C357.083 214.896 356.484 214.88 355.713 215.026C355.297 214.812 355.13 214.693 354.375 214.693C353.807 214.745 353.307 214.802 352.583 214.802C352.14 214.427 351.89 214.354 351.099 214.354C350.677 214.516 349.812 214.469 349.161 214.469C348.479 214.328 348.39 214.115 348.12 213.687C347.651 213.521 347.469 213.276 346.781 213.24C346.13 213.24 345.265 213.286 344.844 213.13C344.354 213.083 343.844 212.99 343.505 212.792C343.224 212.484 342.87 212.219 342.463 212.01C341.802 212.01 341.411 212.057 341.12 211.786C340.63 211.5 340.245 211.042 339.63 210.786C339.083 210.458 338.713 210.26 338.443 209.667C338.443 209.141 338.578 209.016 337.844 209C337.354 209.375 337.13 209.443 336.208 209.443C335.604 209.443 334.969 209.443 334.568 209.333C333.911 209.052 333.672 208.927 332.932 208.885C332.469 209.109 331.859 209.365 331.146 209.443C330.536 209.708 330.172 209.766 329.953 210.224C329.39 210.568 329.062 210.771 328.318 211.005C327.901 211.302 327.505 211.354 327.276 211.901C327.13 212.349 326.974 212.62 326.974 213.24C327.083 213.823 327.042 214.073 326.677 214.578C326.37 214.911 325.828 215.073 325.338 215.359C324.604 215.427 324.526 215.385 324 215.135C323.474 215.005 322.88 214.896 322.213 214.802C321.406 214.687 321.135 214.536 320.724 214.245L322.213 214.802C321.406 214.687 321.135 214.536 320.724 214.245C319.818 213.766 319.64 213.521 318.64 213.464C317.708 213.469 317.307 213.505 317.151 214.13C317.677 214.24 317.26 214.474 317 214.578C316.63 214.828 316.031 215.031 315.51 215.135C315.276 215.312 315.318 214.99 314.917 214.911C314.302 214.667 314.042 214.479 313.427 214.354C313.125 213.958 312.786 213.646 312.385 213.24C312.073 212.859 311.781 212.724 311.344 212.349C311.135 212.109 310.599 212.099 310.302 211.901C310.12 211.5 309.734 210.75 309.854 210.339C310.156 210.125 310.323 209.365 310.745 209.224C311.349 208.885 311.578 209.193 312.385 209.224C313.146 209.224 311.338 208.323 312.088 208.328C312.786 208.24 312.87 207.979 313.13 207.661H314.917Z" fill="#009200"/>
<path d="M322.213 214.802C322.88 214.896 323.474 215.005 324 215.135C324.526 215.385 324.604 215.427 325.338 215.359C325.828 215.073 326.37 214.911 326.677 214.578C327.042 214.073 327.083 213.823 326.974 213.24C326.974 212.62 327.13 212.349 327.276 211.901C327.505 211.354 327.901 211.302 328.318 211.005C329.062 210.771 329.39 210.568 329.953 210.224C330.172 209.766 330.536 209.708 331.146 209.443C331.859 209.365 332.469 209.109 332.932 208.885C333.672 208.927 333.911 209.052 334.568 209.333C334.969 209.443 335.604 209.443 336.208 209.443C337.13 209.443 337.354 209.375 337.844 209C338.578 209.016 338.443 209.141 338.443 209.667C338.713 210.26 339.083 210.458 339.63 210.786C340.245 211.042 340.63 211.5 341.12 211.786C341.411 212.057 341.802 212.01 342.463 212.01C342.87 212.219 343.224 212.484 343.505 212.792C343.844 212.99 344.354 213.083 344.844 213.13C345.265 213.286 346.13 213.24 346.781 213.24C347.469 213.276 347.651 213.521 348.12 213.687C348.39 214.115 348.479 214.328 349.161 214.469C349.812 214.469 350.677 214.516 351.099 214.354C351.89 214.354 352.14 214.427 352.583 214.802C353.307 214.802 353.807 214.745 354.375 214.693C355.13 214.693 355.297 214.812 355.713 215.026C356.484 214.88 357.083 214.896 357.797 215.135C358.156 215.406 358.385 215.359 358.989 215.359C359.677 215.297 360.323 215.25 361.073 215.25C361.708 215.25 361.687 215.276 361.963 214.911C362.078 214.281 362.37 214.115 362.859 213.687C363.505 213.417 363.875 213.151 364.198 212.792C364.198 212.187 364.057 211.927 364.052 211.344C364.354 210.839 364.625 210.573 364.797 210.005C365.166 209.646 365.406 209.25 365.687 208.776C365.687 208.323 365.854 208.203 365.984 207.88C365.984 207.245 366.109 206.896 366.135 206.318V204.755C365.932 204.302 365.854 203.667 365.687 203.307C365.474 202.979 364.911 202.49 364.646 202.193C363.948 202.094 363.802 201.792 363.307 201.521C363.005 201.208 362.354 201.099 361.963 200.849C361.62 200.641 361.594 200.135 361.224 199.734C360.5 199.437 360.234 199.432 359.432 199.51C358.755 199.417 358.005 199.177 357.646 198.953C356.948 198.771 356.682 198.594 356.161 198.396C356.062 198.057 355.906 197.594 356.161 197.281C356.015 196.844 355.797 196.484 355.416 196.276C355.75 196.073 355.817 195.698 355.562 195.385C355.495 194.969 355.297 195.01 354.817 194.937C354.963 194.411 354.989 194.172 354.224 193.932C353.354 193.932 353.109 193.99 352.734 194.38C352.562 194.786 352.484 195.141 351.989 195.271C351.948 195.854 351.739 195.849 351.099 196.052C350.229 196.021 350.13 195.818 349.755 195.495C349.443 195.302 348.974 195.031 348.568 194.937C348.547 194.432 348.484 194.49 347.823 194.49C347.823 193.839 347.864 194.01 346.927 193.708C346.312 193.344 346.219 193.177 345.291 193.151C344.37 193.089 344.448 192.875 344.099 192.26C343.864 191.76 343.521 191.776 342.906 191.479C342.099 191.281 341.765 191.448 341.416 191.812C340.573 191.964 340.25 191.76 339.484 191.589C338.583 191.589 338.338 191.667 337.698 191.922C337.323 192.12 336.734 192.682 336.354 193.042C335.656 193.042 333.401 192.578 332.932 192.818C332.458 193.307 332.198 193.635 331.89 194.042C331.562 194.302 331.182 194.318 330.698 194.49C330.042 194.635 330.042 194.833 329.807 195.271C329.531 195.766 329.114 195.734 328.765 196.052C328.38 196.339 328.094 196.698 327.87 197.057C327.812 197.573 327.823 197.714 327.125 197.729C326.953 198.255 327.172 198.625 326.974 199.068C326.364 199.365 326.021 199.349 325.786 199.849C325.594 200.427 325.729 200.76 325.786 201.297C326.078 201.724 325.521 201.714 325.338 202.193C324.672 202.297 323.958 201.562 323.552 201.969C323.552 202.453 323.489 203.104 323.703 203.417C323.651 203.917 323.515 204.375 323.401 204.755C322.953 204.958 322.698 204.734 322.213 204.646C321.39 204.646 321.812 204.932 321.318 204.755C320.719 204.365 320.552 205.026 319.828 205.094C319.573 205.375 319.562 205.943 318.786 205.984C318.786 206.667 318.151 205.656 317.745 206.099C317.14 206.214 316.354 206.073 315.807 206.208C315.495 206.474 315.203 206.833 315.062 207.214C314.906 207.693 314.917 207.812 314.917 207.547V207.661H313.13C312.87 207.979 312.786 208.24 312.088 208.328C311.338 208.323 313.146 209.224 312.385 209.224C311.578 209.193 311.349 208.885 310.745 209.224C310.323 209.365 310.156 210.125 309.854 210.339C309.734 210.75 310.12 211.5 310.302 211.901C310.599 212.099 311.135 212.109 311.344 212.349C311.781 212.724 312.073 212.859 312.385 213.24C312.786 213.646 313.125 213.958 313.427 214.354C314.042 214.479 314.302 214.667 314.917 214.911C315.318 214.99 315.276 215.312 315.51 215.135C316.031 215.031 316.63 214.828 317 214.578C317.26 214.474 317.677 214.24 317.151 214.13C317.307 213.505 317.708 213.469 318.64 213.464C319.64 213.521 319.818 213.766 320.724 214.245M322.213 214.802C321.406 214.687 321.135 214.536 320.724 214.245M322.213 214.802L320.724 214.245" stroke="black" stroke-width="0.691156"/>
<path d="M327.87 197.463C328.026 197.578 328.708 197.87 329.359 197.87C330.068 197.984 330.224 198.229 330.401 198.818C330.792 199.031 331.036 199.088 331.739 199.088C332.521 199.229 332.515 199.448 333.078 199.901" stroke="#006800" stroke-width="0.69111"/>
<path d="M323.552 205.052C323.875 205.094 325.01 205.187 325.786 205.187C326.38 204.875 326.661 204.661 327.125 204.375C327.828 204.375 328.078 204.432 328.463 204.646C328.844 204.76 329.729 204.802 330.104 204.917C330.104 205.099 330.052 205.052 330.25 205.052" stroke="#006800" stroke-width="0.69111"/>
<path d="M329.359 202.885C329.37 202.88 329.943 202.568 330.401 202.474C330.906 202.156 331.463 202 332.036 201.797C332.417 201.724 333.307 201.724 333.526 201.661" stroke="#006800" stroke-width="0.69111"/>
<path d="M336.651 200.849V200.984C336.651 200.604 336.635 200.807 336.953 201.526C337.109 202.193 337.302 202.755 337.547 203.292C337.984 203.911 338.271 204.193 338.885 204.51C339.411 204.885 339.812 205.281 340.375 205.458C340.771 205.776 341.286 206.042 341.864 206.271C342.63 206.271 343.219 206.385 343.948 206.406H344.396" stroke="#006800" stroke-width="0.69111"/>
<path d="M344.693 193.26V193.396C344.693 193.026 344.703 193.213 344.547 193.937C344.323 194.37 344.062 194.771 343.802 195.156C343.099 195.385 342.838 195.854 342.609 196.375C342.364 196.739 341.984 197.219 341.719 197.599C341.255 198.12 341.068 198.286 340.229 198.547" stroke="#006800" stroke-width="0.69111"/>
<path d="M350.651 196.104C350.651 196.146 350.375 196.5 350.203 196.917C349.906 197.312 349.833 198.036 349.755 198.547C349.755 199.135 349.76 199.776 349.906 200.172M349.906 200.172C350.354 200.682 350.469 200.948 351.245 201.255L349.906 200.172Z" stroke="#006800" stroke-width="0.69111"/>
<path d="M361.521 200.849V200.984C361.521 200.562 361.557 200.823 360.776 201.391C360.192 201.88 359.776 202.276 359.286 202.609C358.437 202.818 358.312 202.802 357.5 202.75H356.156" stroke="#006800" stroke-width="0.69111"/>
<path d="M363.604 211.151H363.453C363.87 211.151 363.651 211.135 362.859 211.427C362.198 211.573 361.448 211.583 360.922 211.427C360.396 211.151 359.859 210.927 359.437 210.474C359.213 210.323 359.182 210.26 358.989 210.203" stroke="#006800" stroke-width="0.69111"/>
<path d="M358.39 215.354V215.219C358.39 215.646 358.432 215.385 357.646 214.812C357.312 214.364 356.979 214.198 356.307 213.729C355.729 213.094 355.656 212.838 355.416 212.104C355.349 211.562 355.156 211.005 355.416 210.609" stroke="#006800" stroke-width="0.69111"/>
<path d="M347.375 213.052C347.698 213.052 348.906 213.026 349.458 212.917C349.89 212.646 350.37 212.469 350.948 212.239C351.265 211.526 351.531 211.292 351.541 210.474" stroke="#006800" stroke-width="0.69111"/>
<path d="M338.292 208.984C338.177 208.745 337.656 207.776 337.396 207.224C337.385 206.63 337.25 206.198 337.25 205.594" stroke="#006800" stroke-width="0.69111"/>
<path d="M318.193 213.323C318.338 213.344 318.974 213.385 319.38 213.323C320.031 213.021 320.635 212.963 321.318 212.917C321.661 212.729 322.229 212.75 322.51 212.51C323.13 212.13 323.213 211.75 323.552 211.151C323.578 210.88 323.672 210.75 323.698 210.474" stroke="#006800" stroke-width="0.69111"/>
<path d="M328.015 211.286C327.693 211.286 326.469 211.307 325.786 211.151C325.432 210.948 325.182 210.604 324.89 210.338C325.088 210.338 325.042 210.385 325.042 210.203" stroke="#006800" stroke-width="0.69111"/>
<path d="M329.802 207.359C329.87 207.338 330.604 207.088 331.146 207.088C331.463 206.896 331.995 206.724 332.484 206.547C332.75 206.417 332.932 206.255 333.229 206.135" stroke="#006800" stroke-width="0.69111"/>
<path d="M311.786 212.781H311.937C311.536 212.781 311.739 212.786 312.531 212.646C313.458 212.594 314.083 212.302 314.766 212.104C315.213 211.724 315.828 211.349 316.255 211.151C316.255 210.922 316.193 210.948 316.406 210.88" stroke="#006800" stroke-width="0.69111"/>
<path d="M349.609 205.323H349.755C349.338 205.323 349.562 205.307 350.354 205.594C350.984 205.812 351.552 205.885 352.14 206C352.677 206.12 352.88 206.271 353.63 206.271C354.38 206.573 354.541 206.661 355.12 207.088C355.557 207.276 355.87 207.359 356.604 207.359C356.995 207.161 357.708 206.932 358.094 206.818C358.312 206.667 358.328 206.724 358.39 206.542" stroke="#006800" stroke-width="0.69111"/>
<path d="M338.828 232.161V235.229C338.828 236.208 338.729 237.062 338.406 237.911C338.406 238.87 338.39 239.791 337.984 240.406C337.911 241.317 337.776 242.109 337.776 243.088C337.469 243.922 337.505 245.052 337.354 245.963C337.224 246.859 337.104 247.927 336.932 248.651C336.62 249.25 336.083 250.333 335.667 250.76C335.62 251.583 335.396 251.995 335.667 252.677C335.963 253.479 335.88 254.442 335.88 255.359C336.156 256.109 336.088 256.989 336.088 257.854" stroke="black" stroke-width="0.227526"/>
<path d="M339.88 235.995C339.943 236.38 340.26 237.765 340.302 238.677V242.896C340.302 243.922 340.396 244.828 340.51 245.771C340.495 246.901 340.271 247.323 339.666 248.265C339.552 249.172 339.364 250.041 339.25 250.948C338.953 251.75 339.036 252.713 339.036 253.63C339.286 254.661 339.698 254.843 339.88 255.739C339.88 256.286 339.937 256.567 340.088 256.89" stroke="black" stroke-width="0.227526"/>
<path d="M341.776 242.896C341.776 243.245 341.75 244.937 341.984 245.578C341.984 246.562 342.182 247.297 342.198 248.265C342.068 249.125 341.937 249.745 341.354 250.182C340.969 250.89 340.76 251.521 340.724 252.484C341.265 252.828 341.859 253.797 342.406 254.208C342.864 255.083 343.291 255.12 343.458 256.125C343.901 256.567 343.151 256.802 343.458 257.083C343.802 257.5 343.583 257.323 343.458 257.661" stroke="black" stroke-width="0.227526"/>
<path fill-rule="evenodd" clip-rule="evenodd" d="M346.245 173.26L343.984 169.953L339.714 169.818L341.719 166.38L339.714 162.943L343.984 162.807L346.245 159.5L348.51 162.807L352.776 162.943L350.771 166.38L352.776 169.818L348.51 169.953L346.245 173.26Z" fill="#FFD100" stroke="black" stroke-width="0.422485"/>
<path fill-rule="evenodd" clip-rule="evenodd" d="M328.797 173.26L326.536 169.953L322.266 169.818L324.271 166.38L322.266 162.943L326.536 162.807L328.797 159.5L331.063 162.807L335.333 162.943L333.328 166.38L335.333 169.818L331.063 169.953L328.797 173.26Z" fill="#FFD100" stroke="black" stroke-width="0.422485"/>
<path fill-rule="evenodd" clip-rule="evenodd" d="M313.745 176.214L311.031 173.203L306.776 173.573L308.281 169.922L305.802 166.75L310.016 166.115L311.792 162.568L314.505 165.578L318.755 165.208L317.255 168.854L319.734 172.031L315.521 172.667L313.745 176.214Z" fill="#FFD100" stroke="black" stroke-width="0.422554"/>
<path fill-rule="evenodd" clip-rule="evenodd" d="M362.713 175.781L365.427 172.771L369.682 173.141L368.182 169.495L370.656 166.323L366.443 165.682L364.667 162.141L361.953 165.146L357.703 164.776L359.203 168.427L356.724 171.599L360.943 172.234L362.713 175.781Z" fill="#FFD100" stroke="black" stroke-width="0.422554"/>
<path fill-rule="evenodd" clip-rule="evenodd" d="M376.755 182.333L380.094 179.896L384.172 181.057L383.526 177.203L386.667 174.562L382.682 173.146L381.745 169.349L378.412 171.781L374.333 170.625L374.979 174.474L371.839 177.115L375.818 178.531L376.755 182.333Z" fill="#FFD100" stroke="black" stroke-width="0.422856"/>
<path fill-rule="evenodd" clip-rule="evenodd" d="M299.229 181.469L295.896 179.036L291.818 180.193L292.464 176.344L289.323 173.703L293.302 172.286L294.24 168.484L297.573 170.922L301.656 169.766L301.005 173.615L304.151 176.255L300.167 177.672L299.229 181.469Z" fill="#FFD100" stroke="black" stroke-width="0.422856"/>
<mask id="mask5_763_15886" style="mask-type:luminance" maskUnits="userSpaceOnUse" x="0" y="0" width="225" height="450">
<path d="M0 0H225V450H0V0Z" fill="white"/>
</mask>
<g mask="url(#mask5_763_15886)">
<path fill-rule="evenodd" clip-rule="evenodd" d="M0 0V450L225 225L0 0Z" fill="#0073CE"/>
</g>
</g>
</g>
<defs>
<clipPath id="clip0_763_15886">
<rect width="900" height="450" fill="white"/>
</clipPath>
</defs>
</svg>
