<svg width="900" height="450" viewBox="0 0 900 450" fill="none" xmlns="http://www.w3.org/2000/svg">
<g clip-path="url(#clip0_763_16012)">
<path d="M900 0H0V450H900V0Z" fill="#1E1E1E"/>
<mask id="mask0_763_16012" style="mask-type:luminance" maskUnits="userSpaceOnUse" x="0" y="0" width="900" height="450">
<path d="M900 0H0V450H900V0Z" fill="white"/>
</mask>
<g mask="url(#mask0_763_16012)">
<mask id="mask1_763_16012" style="mask-type:luminance" maskUnits="userSpaceOnUse" x="0" y="0" width="900" height="451">
<path d="M0 0H900V451H0V0Z" fill="white"/>
</mask>
<g mask="url(#mask1_763_16012)">
<path d="M0 0.313656H900V450.686H0V0.313656Z" fill="#175FAC"/>
</g>
<path d="M100.344 0.380205H150.766V250.688H100.344V0.380205Z" fill="white"/>
<mask id="mask2_763_16012" style="mask-type:luminance" maskUnits="userSpaceOnUse" x="0" y="100" width="252" height="51">
<path d="M0 100H251.333V150.667H0V100Z" fill="white"/>
</mask>
<g mask="url(#mask2_763_16012)">
<path d="M0 100.318H250.938V149.818H0V100.318Z" fill="white"/>
</g>
<mask id="mask3_763_16012" style="mask-type:luminance" maskUnits="userSpaceOnUse" x="250" y="48" width="650" height="54">
<path d="M250 48H900V101.333H250V48Z" fill="white"/>
</mask>
<g mask="url(#mask3_763_16012)">
<path d="M251.114 48.9427H900V100.318H251.114V48.9427Z" fill="white"/>
</g>
<mask id="mask4_763_16012" style="mask-type:luminance" maskUnits="userSpaceOnUse" x="250" y="149" width="650" height="53">
<path d="M250 149.333H900V201.333H250V149.333Z" fill="white"/>
</mask>
<g mask="url(#mask4_763_16012)">
<path d="M251.114 149.818H900V201.193H251.114V149.818Z" fill="white"/>
</g>
<mask id="mask5_763_16012" style="mask-type:luminance" maskUnits="userSpaceOnUse" x="0" y="249" width="900" height="53">
<path d="M0 249.333H900V301.333H0V249.333Z" fill="white"/>
</mask>
<g mask="url(#mask5_763_16012)">
<path d="M0 249.443H900V300.818H0V249.443Z" fill="white"/>
</g>
<mask id="mask6_763_16012" style="mask-type:luminance" maskUnits="userSpaceOnUse" x="0" y="349" width="900" height="53">
<path d="M0 349.333H900V401.333H0V349.333Z" fill="white"/>
</mask>
<g mask="url(#mask6_763_16012)">
<path d="M0 349.698H900V401.068H0V349.698Z" fill="white"/>
</g>
</g>
</g>
<defs>
<clipPath id="clip0_763_16012">
<rect width="900" height="450" fill="white"/>
</clipPath>
</defs>
</svg>
