<svg width="900" height="450" viewBox="0 0 900 450" fill="none" xmlns="http://www.w3.org/2000/svg">
<g clip-path="url(#clip0_763_17521)">
<path d="M900 0H0V450H900V0Z" fill="#1E1E1E"/>
<mask id="mask0_763_17521" style="mask-type:luminance" maskUnits="userSpaceOnUse" x="0" y="0" width="900" height="450">
<path d="M900 0H0V450H900V0Z" fill="white"/>
</mask>
<g mask="url(#mask0_763_17521)">
<path d="M900 0H0V450H900V0Z" fill="#EEEEEE"/>
<mask id="mask1_763_17521" style="mask-type:luminance" maskUnits="userSpaceOnUse" x="0" y="0" width="900" height="450">
<path d="M0 0H900V450H0V0Z" fill="white"/>
</mask>
<g mask="url(#mask1_763_17521)">
<path d="M0 0H900V450H0V0Z" fill="white"/>
<path d="M0 0H900V450H0V0Z" fill="white"/>
<path d="M0 0H900V450H0V0Z" fill="#1E1E1E"/>
<path fill-rule="evenodd" clip-rule="evenodd" d="M0 0H900V450H0V0Z" fill="#C62139"/>
</g>
<path fill-rule="evenodd" clip-rule="evenodd" d="M22.3542 20.4219H877.651V428.906H22.3542V20.4219Z" fill="#00297B"/>
<path fill-rule="evenodd" clip-rule="evenodd" d="M450.359 106.005C450.359 106.005 382.281 163.729 382.281 223.698C382.281 283.667 450.359 342.927 450.359 342.927C450.359 342.927 518.005 287.984 518.005 223.698C518.005 159.417 450.359 106.005 450.359 106.005Z" fill="#92DBFC"/>
<path fill-rule="evenodd" clip-rule="evenodd" d="M389.589 260.208C407.271 305.604 450.021 342.922 450.021 342.922C450.021 342.922 493.531 307.479 510.698 260.203" fill="#008CE7"/>
<path fill-rule="evenodd" clip-rule="evenodd" d="M510.693 246.932C500.318 255.5 441.922 251.385 441.922 251.385L438.656 260.979L508.188 261.229C508.479 259.911 509.172 258.349 509.411 257.016L510.693 246.932Z" fill="#9C8431"/>
<path fill-rule="evenodd" clip-rule="evenodd" d="M406.292 284.948C409.245 285.052 412.182 285.724 414.823 287.255C419.542 289.938 422.276 289.917 427.365 290.005C432.687 290.094 436.865 294.333 442.62 294.51C453.219 294.833 457.677 300.531 449.432 300.526C445.542 300.521 437.193 297.693 433.161 298.286C427.031 298.964 423.484 299.469 418.948 303.375C414.625 297.755 410.302 291.573 406.292 284.948ZM427.26 313.557C429.885 311.609 431.698 310.089 434.25 310.005C439.203 309.839 440.896 306.521 446.625 306.526C453.135 307.818 461.958 305.677 467.12 304.438C476.286 302.151 471.937 295.203 466.391 292.682C461.906 290.604 453.495 292.578 448.281 290.516C444.333 288.849 447.589 286.188 449.714 285.62C451.854 285.193 454.151 285.964 456.818 286.432C461.578 286.885 467.557 286.401 471.74 285.698C480.38 284.266 480.026 281.521 484.198 281.458C487.24 281.307 489.557 280.328 491.635 278.719C494.073 276.958 496.609 273.339 499.562 273.484L501.297 273.568C483.073 311.74 450.344 336.797 450.344 336.797C450.344 336.797 439.766 328.031 427.26 313.557Z" fill="#FFDE52"/>
<path fill-rule="evenodd" clip-rule="evenodd" d="M469.229 285.104C470.354 289.854 471.547 291.469 476.12 292.693C480.63 293.911 487.526 289.12 483.255 284.469C479.187 280.141 474.901 279.031 471.26 275.141C465.604 269.016 457.849 256.365 454.167 244.396C450.135 231.318 450.839 194.49 451.021 175.839C451.021 175.62 451.51 175.49 451.562 175.401C451.828 174.99 452.078 175.536 451.667 172.802C451.562 172.099 451.052 171.375 451.057 170.667C451.057 169.401 447.057 172.047 446.005 174.302C445.766 174.818 446.771 176.286 446.771 176.578C446.906 194.474 445.146 229.813 449.495 245.807C452.187 255.714 457.099 263.359 461.547 270.438C464.214 274.969 468.068 279.865 469.229 285.104Z" fill="#8C4200"/>
<path d="M418.693 232.979C418.641 232.969 418.438 232.943 418.24 232.911C416.833 232.729 415.323 232.089 414.224 231.203C412.656 229.948 411.615 227.938 411.271 225.469C411.172 224.776 411.177 223 411.271 222.318C411.547 220.411 412.198 218.729 413.13 217.5C413.411 217.141 413.938 216.583 414.266 216.323C415.031 215.698 416.021 215.208 417.063 214.932C417.807 214.734 418.271 214.672 419.167 214.646C420.411 214.615 421.292 214.734 422.276 215.083C423.542 215.531 424.516 216.255 425.208 217.24C425.677 217.911 426.281 219.391 426.365 220.073C426.411 220.448 426.271 220.724 425.969 220.865C425.87 220.906 425.385 221.068 424.885 221.208C423.88 221.5 423.734 221.505 423.516 221.307C423.365 221.172 423.313 221.068 423.182 220.63C423.12 220.443 422.974 220.068 422.854 219.797C422.661 219.385 422.583 219.26 422.323 218.979C422.068 218.698 421.953 218.615 421.573 218.417C420.719 217.969 419.76 217.818 418.661 217.964C417.854 218.068 416.979 218.422 416.432 218.865C415.208 219.854 414.531 221.802 414.599 224.109C414.693 227.255 415.932 228.984 418.484 229.536C418.974 229.641 420.042 229.641 420.568 229.536C421.328 229.38 422.443 228.911 423.078 228.479L423.302 228.328V227.328L423.307 226.323L421.297 226.307L419.281 226.292L419.156 226.193C419.083 226.135 418.984 226.031 418.938 225.958C418.849 225.823 418.849 225.802 418.849 224.625C418.849 223.453 418.849 223.432 418.943 223.297C418.99 223.224 419.089 223.12 419.161 223.068L419.286 222.964L422.734 222.974L426.188 222.979L426.313 223.078C426.38 223.13 426.479 223.245 426.531 223.333L426.62 223.49L426.63 226.563C426.635 229.839 426.63 229.969 426.443 230.208C426.391 230.276 426.151 230.484 425.917 230.667C424.292 231.958 422.557 232.724 420.776 232.948C420.318 233 418.979 233.021 418.693 232.979ZM436.729 233.141C434.927 232.995 433.563 232.417 432.573 231.38C431.594 230.365 431.109 229.094 430.891 226.974C430.828 226.38 430.823 225.76 430.828 220.964C430.833 215.802 430.839 215.609 430.911 215.453C430.953 215.365 431.052 215.24 431.125 215.172L431.266 215.063L432.453 215.047C433.594 215.042 433.641 215.042 433.813 215.13C433.917 215.188 434.021 215.286 434.078 215.38L434.167 215.536L434.182 221.078C434.193 225.964 434.198 226.672 434.255 227.057C434.406 228.063 434.552 228.432 434.99 228.906C435.542 229.49 436.109 229.708 437.193 229.75C438.193 229.781 438.875 229.661 439.464 229.349C440.135 228.995 440.443 228.438 440.677 227.161C440.76 226.682 440.76 226.604 440.797 221.135C440.828 214.938 440.802 215.453 441.115 215.198L441.26 215.083H442.49C443.865 215.089 443.823 215.078 444.047 215.391L444.156 215.547L444.161 220.521C444.167 225.505 444.141 226.552 444.021 227.49C443.755 229.49 443.135 230.755 441.948 231.745C441.552 232.078 441.385 232.188 440.995 232.401C440.391 232.724 439.698 232.943 438.911 233.068C438.5 233.13 437.151 233.172 436.729 233.141ZM452.875 232.87C452.823 232.859 452.708 232.766 452.615 232.672C452.422 232.469 452.37 232.276 452.427 232.021C452.495 231.703 458.339 215.495 458.432 215.365C458.615 215.104 458.667 215.094 460.036 215.099C461.401 215.099 461.453 215.109 461.641 215.37C461.688 215.448 463.141 219.219 464.859 223.76C467.594 230.979 467.99 232.042 467.99 232.234C467.99 232.479 467.896 232.646 467.682 232.813C467.557 232.911 467.552 232.911 466.188 232.906H464.818L464.667 232.781C464.474 232.625 464.479 232.641 463.594 230.151C463.193 229.01 462.844 228.047 462.823 228.01C462.786 227.938 462.615 227.932 460.078 227.927C457.531 227.922 457.365 227.927 457.339 227.995C457.323 228.036 456.979 229.052 456.573 230.245C456.172 231.438 455.802 232.479 455.76 232.557C455.714 232.63 455.62 232.734 455.552 232.786C455.432 232.885 455.406 232.885 454.198 232.891C453.521 232.891 452.927 232.885 452.875 232.87ZM461.625 224.573C461.568 224.396 460.115 220.224 460.078 220.125C460.063 220.083 460.047 220.104 460.016 220.188C459.948 220.406 458.469 224.661 458.448 224.698C458.438 224.714 459.161 224.729 460.052 224.734H461.682L461.625 224.573ZM474.005 232.854C473.833 232.802 473.646 232.589 473.599 232.391C473.573 232.276 473.563 229.526 473.583 223.87L473.609 215.526L473.714 215.37C473.922 215.078 473.901 215.083 475.776 215.083C477.333 215.089 477.464 215.094 477.594 215.167C477.667 215.208 477.771 215.307 477.813 215.38C477.859 215.448 478.729 218.198 479.745 221.484C480.766 224.766 481.604 227.458 481.615 227.458C481.63 227.458 482.495 224.786 483.547 221.526C484.734 217.818 485.49 215.531 485.552 215.427C485.76 215.104 485.745 215.104 487.458 215.109C488.922 215.109 488.984 215.115 489.125 215.198C489.203 215.245 489.313 215.359 489.37 215.443L489.464 215.604L489.453 224C489.438 231.917 489.432 232.406 489.37 232.536C489.328 232.609 489.234 232.724 489.151 232.786L489.005 232.911L487.813 232.906C486.635 232.906 486.62 232.906 486.495 232.802C486.422 232.75 486.328 232.646 486.276 232.573L486.188 232.432L486.172 227.615L486.161 222.802L485.953 223.438C485.839 223.792 485.13 225.979 484.375 228.292C483.057 232.354 483.005 232.521 482.849 232.688C482.755 232.792 482.641 232.87 482.563 232.885C482.49 232.906 481.99 232.917 481.453 232.917C480.516 232.911 480.469 232.906 480.297 232.818C480.203 232.766 480.083 232.661 480.042 232.589C479.995 232.516 479.266 230.255 478.422 227.563C477.578 224.875 476.875 222.677 476.859 222.677C476.839 222.677 476.823 224.854 476.818 227.521C476.813 232.943 476.833 232.547 476.521 232.771L476.359 232.885H475.245C474.63 232.891 474.078 232.875 474.01 232.854H474.005Z" fill="white"/>
<path d="M418.589 232.234C416.563 231.984 414.745 231.021 413.646 229.615C412.719 228.432 412.12 226.875 411.922 225.125C411.859 224.547 411.865 223.182 411.927 222.625C412.161 220.719 412.865 218.938 413.87 217.714C415.583 215.625 419.141 214.781 422.031 215.781C423.854 216.411 424.938 217.609 425.557 219.661C425.641 219.948 425.703 220.188 425.698 220.203C425.677 220.219 424.12 220.672 424.005 220.693C423.938 220.708 423.906 220.641 423.802 220.318C423.516 219.411 423.078 218.656 422.594 218.234C421.531 217.328 420.036 216.995 418.286 217.281C417.167 217.464 416.052 218.083 415.417 218.88C414.453 220.073 413.979 221.531 413.922 223.464C413.865 225.375 414.188 226.833 414.927 228.042C416.135 230 418.943 230.875 421.443 230.073C422.24 229.813 423.115 229.37 423.724 228.901L424.01 228.682V225.583H421.755L419.495 225.578L419.5 224.63V223.682L422.729 223.693H425.953L425.943 229.734L425.589 230.016C424.135 231.167 422.677 231.859 421.12 232.156C420.547 232.266 419.172 232.307 418.589 232.234ZM436.469 232.38C435.005 232.208 433.865 231.703 433.057 230.859C432.323 230.089 431.901 229.141 431.682 227.755C431.526 226.76 431.516 226.245 431.521 220.943L431.526 215.75L432.516 215.755H433.505L433.51 221.292C433.521 227.182 433.516 227.089 433.724 227.974C433.99 229.109 434.776 229.948 435.896 230.297C436.792 230.578 438 230.583 439.021 230.307C440.229 229.984 440.88 229.286 441.208 227.958C441.464 226.943 441.458 227.042 441.484 221.172L441.51 215.771L442.5 215.776H443.49L443.479 220.781C443.474 223.667 443.453 226.073 443.427 226.458C443.255 228.995 442.646 230.37 441.214 231.411C440.651 231.823 439.885 232.135 439.042 232.307C438.672 232.375 436.891 232.427 436.469 232.38ZM453.182 231.922C453.229 231.792 454.547 228.115 456.115 223.755L458.964 215.828L460.031 215.818L461.104 215.807L464.172 223.917C465.859 228.38 467.255 232.068 467.271 232.109C467.297 232.188 467.229 232.193 466.177 232.193L465.057 232.188L464.865 231.646C464.755 231.349 464.365 230.234 463.984 229.177L463.302 227.26L460.083 227.245L456.865 227.224L456.026 229.698L455.193 232.172L454.141 232.167H453.094L453.182 231.922ZM462.646 225.396C462.635 225.354 462.193 224.089 461.672 222.589C461.146 221.083 460.557 219.339 460.365 218.708C460.167 218.078 460 217.552 459.995 217.536C459.984 217.526 459.906 217.802 459.828 218.151C459.573 219.313 459.323 220.109 458.406 222.719C457.911 224.146 457.484 225.344 457.474 225.391C457.443 225.464 457.583 225.469 460.052 225.474C462.521 225.479 462.667 225.474 462.646 225.396ZM474.271 223.974L474.286 215.786L475.781 215.802L477.271 215.818L479.286 222.344C480.396 225.932 481.365 229.094 481.443 229.37C481.521 229.641 481.589 229.859 481.599 229.849C481.609 229.839 481.859 229.063 482.156 228.125C482.453 227.188 483.464 224.042 484.401 221.13L486.104 215.833L487.443 215.828L488.781 215.818L488.766 224L488.75 232.193L487.807 232.188H486.859L486.87 225.307C486.88 221.526 486.87 218.453 486.844 218.474C486.828 218.5 485.891 221.359 484.766 224.828C483.641 228.297 482.646 231.37 482.552 231.656L482.38 232.177H480.594L478.417 225.245C477.224 221.432 476.229 218.281 476.214 218.245C476.193 218.208 476.172 221.323 476.161 225.172L476.146 232.161H475.203L474.26 232.156L474.271 223.974Z" fill="#BD0728"/>
<path fill-rule="evenodd" clip-rule="evenodd" d="M408.469 171.083C408.755 171.51 408.714 173.349 408.714 173.349C408.948 173.505 412.766 169.849 412.766 170.016C412.766 170.786 412.854 172.37 412.854 172.37C412.854 172.37 416.802 168.323 416.964 168.75C417.146 169.229 416.948 171.573 416.948 171.573C416.948 171.573 419.578 168.453 420.057 167.891C420.406 167.484 420.349 168.396 420.385 169.865C420.391 170.125 424.687 166.443 424.953 166.38C425.505 166.25 425.677 168.292 425.651 168.802C425.625 169.177 429.615 166.349 429.443 166.724L429.734 168.896C430.849 168.734 433.495 167.667 435.089 167.943C435.599 168.031 435.573 168.313 435.12 168.51C427.437 171.865 421.531 176.911 418.094 183.953C416.922 186.349 416.562 188.443 416.87 188.969C416.87 188.969 418.255 185.766 419.807 185.266C420.016 185.198 420.156 187.313 420.37 187.193C420.37 187.193 421.547 183.984 422.401 182.802C422.625 182.484 423.005 184.484 423.25 184.188C423.25 184.188 423.859 182.042 425.057 180.547C425.229 180.333 425.542 182.578 425.729 182.385C426.974 181.151 428.141 178.057 428.609 177.828C428.932 177.552 428.99 180.401 429.297 180.156C429.297 180.156 431.073 176.318 432.13 175.625C432.807 175.172 432.781 177.719 432.781 177.719C434.135 176.281 435.625 173.901 436.328 172.87C436.656 172.391 436.474 176.005 436.823 176.146C437.266 176.333 440.177 173.38 440.505 173.318C440.719 173.276 440.974 174.161 440.406 174.865C440.365 174.922 436.812 179.339 436.812 179.339C437.5 179.479 437.771 179.271 438.266 179.411C439.74 179.828 435.505 182.448 435.573 182.938C435.573 182.938 437.615 182.896 436.932 183.323C436.443 183.635 433.745 187.38 433.745 187.245C433.745 187.177 435.099 187.276 435.089 187.698C435.078 188.474 432.849 192.474 432.823 192.448C432.703 192.318 434.021 192.276 434.203 192.672C434.531 193.401 431.911 196.635 432.422 197.188C432.495 197.266 433.917 197.214 434.552 197.365C434.859 197.438 435.719 203.245 435.5 203.01C435.453 202.953 436.417 197.568 437.005 195.927C437.365 194.932 438.51 197.427 438.599 197.203C438.552 197.203 438.37 193.661 438.531 192.047C438.573 191.599 439.401 192.521 439.391 192.089C439.359 191.109 439.286 190.068 439.469 189.109C439.615 188.391 440.312 190.411 440.589 189.87C440.589 189.87 439.734 186.359 440.089 185.37C440.323 184.719 440.891 186.948 441.266 187.036C441.266 187.036 441.057 184.313 441.448 183.604L442.63 184.974C442.891 184.536 442.839 180.286 443.078 179.891C443.276 179.557 444.505 181.484 444.687 181.182C444.854 180.906 444.167 177.755 444.323 177.505C444.536 177.146 445.885 178.38 445.911 178.359C446.458 177.76 446.443 176.276 446.672 175.729C447.292 174.234 450.844 174.042 451.266 175.104C451.469 175.62 451.328 176.281 451.245 177.083C451.276 177.115 453.026 177.25 453.042 177.104C453.042 177.104 452.828 178.865 452.953 180.797C452.974 181.057 454.724 180.734 454.75 180.99C454.906 182.813 454.521 182.984 454.521 182.984C454.536 183.115 455.703 182.792 455.724 182.932C455.849 183.818 455.583 184.901 455.062 185.943C454.984 186.094 456.734 185.797 456.76 185.969C456.974 187.339 457.016 188.422 456.792 190.354C456.776 190.51 458.505 188.99 458.531 189.146C458.792 190.771 458.49 192.526 458.646 194.208C458.687 194.599 459.792 193.047 459.896 193.495C459.995 193.938 459.646 197.156 459.818 197.339C459.818 197.339 461.672 197.234 461.833 197.406C463.307 198.896 463.026 201.49 463.026 201.49C463.427 201.172 463.276 198.042 462.87 195.177C462.823 194.875 464.292 194.99 464.25 194.708C464.25 194.708 462.635 193.667 462.109 190.755C461.995 190.13 463.661 190.26 463.661 190.26C463.198 189.109 462.385 188.896 461.698 187.792C461.474 187.432 463.427 187.266 463.427 187.161C463.432 186.063 461.776 185.542 460.922 184.401C460.557 183.911 462.708 183.885 462.708 183.885C462.078 182.943 460 182.526 458.937 181.276C458.359 180.599 461.047 179.932 461.016 179.813C460.719 178.813 458.193 178.5 456.969 177.37C456.714 177.135 458.568 176.349 458.568 176.349C458.38 175.922 454.344 173.063 456.396 173.323C457.266 173.438 459.021 174.76 459.161 174.563C459.161 174.563 459.083 172.891 459.266 172.693C459.937 171.932 462.266 175.901 463.057 175.74C463.057 175.74 463.349 172.901 463.708 172.823C464.557 172.651 465.594 176.958 466.437 176.958C466.547 176.958 466.609 174.469 467.042 174.333C467.531 174.177 468.083 177.125 468.703 177.776C469.276 178.375 469.281 175.474 469.62 176.026C470.187 176.911 470.328 178.766 471.109 179.583C471.615 180.115 471.708 177.026 472.271 177.443C472.927 177.922 472.771 179.521 473.505 180.307C473.859 180.682 474.094 178.271 474.495 178.625C474.849 178.932 475.083 181.885 475.469 182.349C475.953 182.948 476.51 180.797 477.016 181.135C477.375 181.385 477.292 183.938 477.625 184.484C478.312 185.62 478.672 183.115 479.125 183.5C479.443 183.76 480.13 186.698 480.417 186.932C481.057 187.453 481.406 185.599 481.891 185.859C482.245 186.042 482.953 189.823 483.245 189.729C483.432 189.661 483.906 181.115 480.849 177.505C475.875 171.625 466.969 168.229 459.703 168.146C459.703 168.146 463.354 167.365 463.448 166.708C463.646 165.411 465.458 165.563 466.724 165.859C466.948 165.917 466.828 163.563 466.859 163.552C467.99 163.526 469 164.245 470.083 164.953C470.417 165.172 469.401 162.599 469.755 162.823C471.146 163.688 472.693 163.938 473.625 164.99C473.875 165.266 473.344 163.005 473.344 163.005C474.036 162.823 475.406 163.901 475.943 164.911C476.203 165.411 475.927 162.276 476.135 162.833C476.135 162.833 478.552 163.719 478.812 164.818C478.812 164.818 479.01 162.828 479.339 162.932C480.307 163.208 481.156 164.974 481.917 165.224C481.917 165.224 481.599 163.458 481.849 163.526C483.667 164.021 485.646 165.234 485.641 165.224C484.615 162.458 480.724 159.557 473.875 158.781C472.62 158.641 467.516 158.417 463.193 159.5C459.646 160.385 456.849 160.885 457.422 160.281C459.766 157.807 463.557 157.505 464.599 156.932C465.344 156.521 462.083 155.167 462.729 154.974C463.37 154.807 466.281 154.547 466.281 154.547C466.911 154.016 464.167 152.979 464.578 152.208C465.396 150.656 470.255 152.068 470.667 151.479C470.802 151.281 468.583 149.865 468.677 149.656C469.031 148.875 473.349 150.234 473.453 149.552C473.453 149.552 472.141 148.5 471.208 147.635C471.099 147.531 475.068 146.38 475.068 146.38C474.995 146.297 474.385 145.839 473.479 145.458C472.646 145.109 476.964 143.896 476.964 143.896C471.49 141.203 457.292 148.87 454.474 156.823C453.745 158.724 453.724 156.661 453.875 155.052C454.021 153.323 454.224 151.807 454.052 150.219C454 149.745 452.891 151.469 452.812 151.01C452.531 149.318 453.37 147.464 452.984 145.594C452.859 144.958 451.391 147.453 451.198 146.823C450.656 145.089 451.599 142.651 451.219 140.26C451.068 139.328 449.677 142.26 449.208 141.422C448.667 140.453 448.906 136.865 448.646 136.323C448.437 135.885 447.198 138.042 447.094 137.635C445.417 131.052 447.646 130.229 444.422 133.943C444.312 134.073 443.594 130.052 443.474 130.188C442.151 133.234 439.984 128.016 439.245 128.505C438.693 128.87 440.755 130.891 440.776 131.802C440.786 132.24 438.88 132.266 438.88 132.266C438.922 133.021 442.51 135.125 442.625 135.953C442.719 136.63 440.089 136.464 440.089 136.464C440.167 137.38 443.156 138.26 443.323 139.234C443.417 139.776 441.922 139.896 441.969 140.443C442.052 141.281 444.859 142.943 444.953 143.802C445.016 144.396 443.156 144.641 443.115 145.198C443.057 145.87 446.844 148.12 446.849 148.755C446.854 149.646 445.339 149.188 444.656 149.635C443.687 150.271 447.755 152.828 447.927 153.552C448.062 154.193 446.297 153.63 446.24 154.214C446.167 154.979 448.234 156.13 448.708 157.443C449.182 158.74 448.698 159.068 448.016 158.552C446.656 157.521 441.161 151.229 439.703 149.552C437.583 147.115 433.245 144.385 428.917 144.224C428.464 144.37 431.245 146.49 431.26 147.26C431.266 147.458 430.01 147.75 430.068 147.813C430.833 148.641 433.229 149.625 433.229 149.625L432.542 150.958C432.703 151.349 433.839 151.453 435.651 152.094C435.651 152.094 434.292 153.005 434.391 153.089C435.354 153.917 437.219 154.526 437.219 154.526L435.385 155.193C435.276 155.573 439.516 157.406 439.516 157.406C439.516 157.406 438.193 158.635 438.25 158.698C438.573 159.047 441.693 159.823 441.693 159.823C441.745 159.88 439.49 160.635 439.505 160.651C440.323 161.531 442.578 161.818 443.104 163.276C443.104 163.276 443.411 164.104 442.521 163.948C439.01 162.573 433.578 159.734 423.042 160.849C412.276 162.365 404.068 172.453 404.208 173.458C404.208 173.458 408.062 170.484 408.469 171.083Z" fill="#109421"/>
<path d="M448.547 173.891C449.604 173.156 449.88 171.583 449.156 170.38C448.432 169.172 446.99 168.792 445.932 169.521C444.875 170.255 444.604 171.828 445.323 173.031C446.047 174.24 447.49 174.62 448.547 173.891Z" fill="#8C4200"/>
<path d="M449.495 176.568C448.286 175.729 447.979 173.938 448.802 172.563C449.625 171.182 451.276 170.745 452.484 171.583C453.693 172.417 454.005 174.214 453.177 175.589C452.354 176.964 450.703 177.406 449.495 176.568Z" fill="#8C4200"/>
<path d="M446.318 179.052C445.026 178.161 444.693 176.245 445.573 174.776C446.458 173.302 448.214 172.833 449.505 173.729C450.797 174.62 451.125 176.536 450.245 178.005C449.365 179.479 447.604 179.948 446.318 179.052Z" fill="#8C4200"/>
<path fill-rule="evenodd" clip-rule="evenodd" d="M426.13 270.417H430.307V273.479H426.13V270.417Z" fill="black"/>
<path fill-rule="evenodd" clip-rule="evenodd" d="M409.313 272.771C409.313 272.771 431.792 274.604 445.573 271.438C445.573 271.438 446.734 272.276 445.068 274.354C443.406 276.432 439.193 276.88 436.88 277.323C436.88 277.323 436.328 278.656 436.37 279.349C436.417 280.042 437.828 279.969 438.521 279.823L439.214 279.672C439.214 279.672 438.891 282.271 430.385 282.615C427.594 282.729 418.385 282.938 416.438 280.021C416.438 280.021 418.12 280.167 418.563 280.021C419 279.87 418.682 277.99 418.516 277.719C418.359 277.448 412.547 277.719 409.5 274.698C408.745 273.839 408.38 272.922 408.38 272.594C408.38 272.568 409.313 272.771 409.313 272.771ZM421.026 277.818C421.026 277.818 427.177 278.656 434.255 277.818C434.255 277.818 434.443 279.25 434.12 279.797C433.792 280.344 425.63 280.76 421.51 279.995C420.849 279.771 420.823 278.901 421.026 277.818Z" fill="#8C4200"/>
<path fill-rule="evenodd" clip-rule="evenodd" d="M412.557 271.443C412.557 271.443 420.974 261.844 418.396 241.828C418.396 241.828 427.172 244.245 436.115 258.073C436.115 258.073 438.719 260.88 441.786 270.896L412.557 271.443Z" fill="#FDF9FF"/>
<path fill-rule="evenodd" clip-rule="evenodd" d="M449.854 98.8542C449.854 98.8542 378.104 156.12 378.104 223.651C378.104 291.182 449.854 350.073 449.854 350.073C449.854 350.073 521.141 296.042 521.141 223.651C521.141 151.26 449.854 98.8542 449.854 98.8542ZM449.828 112.714C449.828 112.714 386 163.661 386 223.734C386 283.823 449.828 336.214 449.828 336.214C449.828 336.214 513.245 288.146 513.245 223.734C513.245 159.339 449.828 112.714 449.828 112.714Z" fill="#C62139"/>
</g>
</g>
<defs>
<clipPath id="clip0_763_17521">
<rect width="900" height="450" fill="white"/>
</clipPath>
</defs>
</svg>
