<svg width="900" height="450" viewBox="0 0 900 450" fill="none" xmlns="http://www.w3.org/2000/svg">
<rect width="900" height="450" fill="#1E1E1E"/>
<g clip-path="url(#clip0_0_1)">
<rect width="900" height="450" fill="white"/>
<mask id="mask0_0_1" style="mask-type:luminance" maskUnits="userSpaceOnUse" x="0" y="0" width="900" height="450">
<path d="M0 -3.37219e-06H900V450H0V-3.37219e-06Z" fill="white"/>
</mask>
<g mask="url(#mask0_0_1)">
<path d="M0 -3.37219e-06H900V450H0V-3.37219e-06Z" fill="white"/>
<path d="M0 -3.37219e-06H900V450H0V-3.37219e-06Z" fill="#E21323"/>
</g>
<path d="M596.734 244.396C596.734 242.62 596.734 240.849 596.37 239.109C596.083 235.401 595.479 231.745 594.552 228.135C592.714 221.073 590.021 214.344 586.479 207.964C582.776 201.24 578.234 195.141 572.859 189.656C567.484 184.177 561.474 179.521 554.823 175.682C551.505 173.849 548.062 172.276 544.5 170.964C540.943 169.656 537.302 168.625 533.583 167.87C529.865 167.12 526.109 166.651 522.318 166.474C518.531 166.297 514.75 166.406 510.974 166.807C503.552 167.526 496.375 169.255 489.443 172C482.51 174.745 476.094 178.391 470.198 182.948C464.437 187.365 459.323 192.438 454.854 198.156C452.656 201.026 450.609 204 448.719 207.073C446.328 211.38 444.458 215.901 443.104 220.63L443.51 220.026C445.526 217.224 447.776 214.615 450.25 212.198C454.865 207.885 459.901 204.13 465.349 200.927C470.797 197.729 476.531 195.167 482.552 193.234C489.224 190.859 496.104 189.516 503.182 189.203C506.844 189.094 510.474 189.349 514.083 189.969C517.667 190.484 521.073 191.563 524.297 193.198C524.703 193.438 524.62 194.203 524.297 194.161C523.974 194.125 520.26 192.995 518.365 192.469C516.458 191.974 514.536 191.583 512.589 191.297C508.568 190.745 504.526 190.625 500.479 190.938C493.646 191.531 487.026 193.036 480.615 195.453C474.755 197.583 469.172 200.271 463.859 203.526C458.62 206.63 453.87 210.359 449.604 214.703C448.042 216.281 446.573 217.953 445.203 219.703C446.432 218.589 447.781 217.63 449.24 216.839C450.391 216.245 451.573 215.734 452.792 215.307C454.005 214.901 455.255 214.458 456.547 214.094C457.839 213.734 459.135 213.573 460.589 213.286C461.786 213.021 462.995 212.844 464.219 212.766C467.026 212.479 469.807 212.599 472.578 213.125C478.516 214.198 483.896 216.542 488.729 220.146C493.437 224.484 498.391 228.521 503.589 232.255C509.062 235.292 514.927 236.797 521.187 236.771C527.276 236.589 533.026 235.099 538.432 232.292C543.599 229.464 548.984 227.125 554.578 225.271C560.276 223.818 565.958 223.885 571.62 225.474C574.302 226.12 576.844 227.125 579.245 228.5C581.641 229.87 583.797 231.552 585.708 233.542C589.99 238.495 593.635 243.875 596.651 249.682C596.734 247.828 596.771 244.844 596.734 244.396ZM534.068 206.068L527.406 213.651L528.339 203.563L519.052 199.531L528.943 197.349L529.87 187.266L535.036 195.979L544.932 193.76L538.432 201.344L543.599 210.063L534.068 206.068Z" fill="white"/>
<path d="M499.427 81.5938C497.693 81.1875 495.953 80.8646 494.219 80.5833C490.563 79.8906 486.875 79.5 483.156 79.4115C475.896 79.474 468.75 80.4167 461.719 82.2396C454.286 84.099 447.24 86.9219 440.578 90.7031C433.917 94.4844 427.88 99.0885 422.474 104.51C419.818 107.224 417.391 110.12 415.182 113.203C412.974 116.286 411.01 119.521 409.297 122.906C407.589 126.292 406.141 129.786 404.969 133.391C403.792 137 402.896 140.672 402.286 144.417C401.047 151.755 400.849 159.12 401.693 166.51C402.536 173.906 404.391 181.036 407.25 187.911C410.073 194.594 413.667 200.833 418.031 206.63C420.234 209.438 422.578 212.13 425.057 214.703C428.635 218.094 432.542 221.068 436.766 223.62L436.281 223.052C434.089 220.391 432.151 217.552 430.469 214.542C427.484 208.984 425.146 203.172 423.453 197.099C421.755 191.026 420.745 184.844 420.411 178.547C419.854 171.495 420.354 164.516 421.906 157.609C422.734 154.12 423.891 150.745 425.38 147.479C426.818 144.161 428.745 141.146 431.151 138.443C431.474 138.12 432.203 138.443 432.042 138.885C431.88 139.328 429.901 142.396 428.854 144.172C427.802 145.948 427.036 147.641 426.229 149.458C424.661 153.177 423.516 157.026 422.797 161C421.599 167.688 421.344 174.411 422.026 181.172C422.573 187.385 423.745 193.479 425.542 199.448C427.234 205.214 429.604 210.688 432.646 215.87C433.786 217.766 435.026 219.594 436.359 221.359C435.599 219.88 435.021 218.333 434.625 216.719C434.625 215.427 434.182 214.219 434.099 212.682C434.021 211.151 434.099 210.063 433.859 208.651C433.615 207.234 434.063 205.984 434.099 204.615C434.161 203.38 434.292 202.156 434.505 200.943C434.979 198.135 435.828 195.443 437.047 192.875C439.609 187.427 443.26 182.839 447.99 179.115C453.391 175.698 458.563 171.958 463.495 167.896C467.885 163.385 470.885 158.083 472.495 152C473.849 146.042 473.849 140.083 472.495 134.125C471.078 128.411 470.203 122.615 469.875 116.734C469.932 110.854 471.453 105.38 474.438 100.313C475.766 97.8802 477.422 95.6927 479.391 93.7396C481.365 91.7917 483.573 90.1615 486.021 88.8542C491.932 85.9896 498.099 83.849 504.516 82.4375L499.427 81.5938ZM446.214 132.188L451.823 140.62L442.297 137.109L436.036 145.182L436.443 135.052L426.953 131.542L436.682 128.802L437.13 118.672L442.74 127.104L452.469 124.359L446.214 132.188Z" fill="white"/>
<path d="M324.443 121.578C323.474 123.068 322.583 124.604 321.698 126.094C319.781 129.286 318.167 132.62 316.849 136.104C314.328 142.948 312.672 149.995 311.885 157.245C311.047 164.833 311.24 172.391 312.458 179.927C313.677 187.458 315.88 194.693 319.073 201.63C320.703 205.042 322.583 208.307 324.708 211.438C326.839 214.563 329.193 217.51 331.771 220.276C334.349 223.042 337.12 225.599 340.089 227.948C343.057 230.292 346.188 232.401 349.474 234.271C355.906 237.979 362.724 240.729 369.927 242.526C377.135 244.323 384.448 245.094 391.87 244.844C399.141 244.578 406.276 243.432 413.266 241.411C416.74 240.339 420.141 239.089 423.479 237.661C427.911 235.516 432.057 232.922 435.917 229.87L435.193 230.115C431.927 231.245 428.594 232.063 425.177 232.573C418.932 233.427 412.672 233.589 406.391 233.057C400.109 232.526 393.964 231.318 387.953 229.427C381.141 227.464 374.771 224.531 368.854 220.63C365.792 218.62 362.964 216.323 360.375 213.734C357.781 211.214 355.625 208.365 353.917 205.177C353.917 204.734 354.24 204.172 354.641 204.495C355.047 204.818 357.188 207.719 358.677 209.297C359.943 210.813 361.286 212.25 362.719 213.609C365.641 216.401 368.844 218.823 372.328 220.875C378.141 224.339 384.323 226.948 390.859 228.703C396.88 230.344 403.005 231.38 409.229 231.807C415.229 232.229 421.193 231.917 427.115 230.88C429.297 230.474 431.453 229.953 433.578 229.307C431.922 229.51 430.266 229.51 428.609 229.307C427.318 229.068 426.104 228.865 424.854 228.5C423.604 228.135 422.313 227.734 421.057 227.292C419.807 226.844 418.635 226.24 417.385 225.719C416.26 225.214 415.172 224.651 414.115 224.021C411.667 222.62 409.464 220.911 407.495 218.896C403.302 214.583 400.276 209.568 398.406 203.849C397.099 197.583 395.406 191.422 393.323 185.37C391.995 182.573 390.328 179.99 388.333 177.625C386.333 175.26 384.068 173.188 381.531 171.406C376.432 168.063 370.859 165.974 364.818 165.151C358.953 164.484 353.208 163.276 347.578 161.521C344.875 160.495 342.349 159.13 340.01 157.432C337.667 155.734 335.589 153.766 333.766 151.516C331.958 149.417 330.479 147.104 329.339 144.578C328.198 142.052 327.443 139.411 327.068 136.667C326.464 130.141 326.609 123.63 327.51 117.141L324.443 121.578ZM353.349 189.078L363.203 186.781L356.578 194.448L361.87 203.083L352.5 199.047L345.922 206.714L346.729 196.625L337.401 192.589L347.255 190.292L348.099 180.203L353.349 189.078Z" fill="white"/>
<path d="M476.375 377.99C477.99 377.307 479.604 376.536 481.177 375.771C484.552 374.229 487.755 372.385 490.786 370.245C496.797 366.031 502.177 361.141 506.938 355.557C511.901 349.755 515.995 343.396 519.214 336.479C522.438 329.557 524.672 322.333 525.911 314.807C526.49 311.068 526.781 307.307 526.786 303.521C526.792 299.74 526.505 295.979 525.932 292.24C525.359 288.495 524.51 284.823 523.375 281.214C522.24 277.604 520.839 274.099 519.172 270.703C515.922 264.021 511.813 257.906 506.854 252.365C501.896 246.828 496.271 242.073 489.979 238.104C483.813 234.286 477.271 231.271 470.359 229.068C466.891 227.995 463.38 227.109 459.818 226.401C454.938 225.682 450.042 225.51 445.125 225.875L445.849 226.078C449.193 226.969 452.422 228.167 455.542 229.672C461.182 232.474 466.448 235.859 471.339 239.828C476.229 243.797 480.625 248.25 484.531 253.193C489.078 258.63 492.729 264.615 495.469 271.146C496.844 274.531 497.865 278.01 498.542 281.599C499.286 285.146 499.458 288.724 499.063 292.333C499.063 292.776 498.255 292.938 498.094 292.333C497.932 291.724 497.813 288.297 497.609 286.198C497.406 284.245 497.099 282.307 496.682 280.391C495.75 276.438 494.406 272.63 492.646 268.969C489.703 262.776 485.974 257.104 481.458 251.943C477.453 247.255 473.026 243.005 468.177 239.193C463.443 235.469 458.328 232.375 452.833 229.911C450.802 229.026 448.729 228.245 446.615 227.573C448.068 228.349 449.411 229.276 450.656 230.354C451.594 231.25 452.484 232.193 453.318 233.182C454.125 234.187 454.974 235.198 455.74 236.245C456.51 237.297 457.156 238.505 457.88 239.635C458.547 240.672 459.141 241.75 459.656 242.865C460.87 245.443 461.729 248.13 462.24 250.932C463.312 256.859 462.99 262.714 461.271 268.484C459.495 274.656 456.146 280.188 455.135 286.604C454.651 289.656 454.568 292.724 454.885 295.802C455.198 298.88 455.901 301.865 456.995 304.76C459.307 310.401 462.724 315.271 467.25 319.365C471.677 323.229 475.714 327.469 479.359 332.073C481.026 334.458 482.349 337.021 483.328 339.76C484.307 342.495 484.911 345.313 485.135 348.214C485.469 350.979 485.396 353.74 484.922 356.49C484.448 359.234 483.594 361.854 482.349 364.354C479.161 370.089 475.37 375.385 470.964 380.25L476.375 377.99ZM490.422 305.927L480.974 302.297L490.745 299.677L491.271 289.589L496.802 298.063L506.573 295.438L500.234 303.505L505.724 311.979L496.276 308.349L489.901 316.417L490.422 305.927Z" fill="white"/>
<path d="M307.281 306.656C308.453 307.984 309.625 309.276 310.833 310.688C313.318 313.417 316.005 315.917 318.911 318.193C324.755 322.557 331.036 326.146 337.766 328.969C344.823 331.964 352.151 333.953 359.755 334.943C367.359 335.927 374.953 335.875 382.542 334.776C386.281 334.193 389.958 333.328 393.568 332.182C397.177 331.036 400.677 329.625 404.073 327.948C407.464 326.266 410.708 324.339 413.807 322.161C416.906 319.984 419.823 317.589 422.552 314.969C427.984 309.833 432.599 304.052 436.391 297.62C440.188 291.188 443.016 284.354 444.88 277.12C446.656 270.089 447.557 262.948 447.583 255.693C447.542 252.068 447.313 248.448 446.901 244.844C446.073 239.974 444.729 235.25 442.859 230.677C442.859 230.964 442.859 231.203 442.859 231.448C443.005 234.891 442.844 238.318 442.375 241.734C441.406 247.953 439.776 253.99 437.479 259.849C435.188 265.708 432.281 271.25 428.771 276.474C424.969 282.469 420.354 287.755 414.922 292.333C412.12 294.688 409.104 296.729 405.88 298.464C402.734 300.255 399.38 301.495 395.823 302.177C395.38 302.177 394.979 301.609 395.422 301.328C395.865 301.047 399.219 299.797 401.115 298.99C406.698 296.583 411.729 293.328 416.214 289.224C421.245 284.563 425.526 279.286 429.052 273.406C432.313 268.13 435.005 262.573 437.13 256.745C439.219 251.12 440.563 245.323 441.167 239.354C441.5 237.161 441.719 234.953 441.813 232.734C441.552 234.385 441.078 235.974 440.401 237.5C439.844 238.661 439.224 239.792 438.542 240.885C437.813 241.979 437.089 243.104 436.323 244.156C435.552 245.203 434.583 246.172 433.74 247.224C432.953 248.172 432.104 249.057 431.193 249.885C429.146 251.807 426.885 253.432 424.411 254.766C419.068 257.536 413.391 259.005 407.37 259.167C400.99 258.646 394.594 258.51 388.193 258.76C381.974 259.745 376.391 262.177 371.438 266.063C366.828 269.99 363.276 274.714 360.781 280.229C358.49 285.656 355.703 290.823 352.422 295.719C348.823 300.385 344.302 303.844 338.854 306.089C336.328 307.229 333.688 307.984 330.938 308.359C328.193 308.729 325.448 308.698 322.703 308.271C316.255 307.026 310.052 305.021 304.094 302.255L307.281 306.656ZM380.281 298.224L380.969 288.094L386.458 296.609L396.229 294.068L389.849 301.896L395.302 310.406L385.854 306.734L379.432 314.563L380.036 304.474L370.589 300.766L380.281 298.224Z" fill="white"/>
</g>
<defs>
<clipPath id="clip0_0_1">
<rect width="900" height="450" fill="white"/>
</clipPath>
</defs>
</svg>
