<svg width="900" height="450" viewBox="0 0 900 450" fill="none" xmlns="http://www.w3.org/2000/svg">
<g clip-path="url(#clip0_763_17866)">
<path d="M900 0H0V450H900V0Z" fill="#1E1E1E"/>
<mask id="mask0_763_17866" style="mask-type:luminance" maskUnits="userSpaceOnUse" x="0" y="0" width="900" height="450">
<path d="M900 0H0V450H900V0Z" fill="white"/>
</mask>
<g mask="url(#mask0_763_17866)">
<mask id="mask1_763_17866" style="mask-type:luminance" maskUnits="userSpaceOnUse" x="0" y="0" width="900" height="450">
<path d="M0 0H900V450H0V0Z" fill="white"/>
</mask>
<g mask="url(#mask1_763_17866)">
<path d="M0 0H900V450H0V0Z" fill="white"/>
<path d="M0 0H900V450H0V0Z" fill="white"/>
<path d="M900 0H0V450H900V0Z" fill="#0D3B99"/>
</g>
<mask id="mask2_763_17866" style="mask-type:luminance" maskUnits="userSpaceOnUse" x="0" y="149" width="900" height="151">
<path d="M0 149.333H900V299.333H0V149.333Z" fill="white"/>
</mask>
<g mask="url(#mask2_763_17866)">
<path d="M900 149.774H0V298.893H900V149.774Z" fill="white"/>
</g>
<path d="M450 199.703L464.672 244.865L426.26 216.953H473.74L435.328 244.865L450 199.703Z" fill="#0D3B99"/>
<path d="M325.188 162.286L339.859 207.443L301.443 179.531H348.927L310.51 207.443L325.188 162.286Z" fill="#0D3B99"/>
<path d="M325.188 237.172L339.859 282.333L301.443 254.422H348.927L310.51 282.333L325.188 237.172Z" fill="#0D3B99"/>
<path d="M574.813 162.286L589.49 207.443L551.073 179.531H598.557L560.141 207.443L574.813 162.286Z" fill="#0D3B99"/>
<path d="M574.813 237.172L589.49 282.333L551.073 254.422H598.557L560.141 282.333L574.813 237.172Z" fill="#0D3B99"/>
</g>
</g>
<defs>
<clipPath id="clip0_763_17866">
<rect width="900" height="450" fill="white"/>
</clipPath>
</defs>
</svg>
