<svg width="900" height="450" viewBox="0 0 900 450" fill="none" xmlns="http://www.w3.org/2000/svg">
<g clip-path="url(#clip0_763_19091)">
<path d="M900 0H0V450H900V0Z" fill="#1E1E1E"/>
<mask id="mask0_763_19091" style="mask-type:luminance" maskUnits="userSpaceOnUse" x="0" y="0" width="900" height="450">
<path d="M900 0H0V450H900V0Z" fill="white"/>
</mask>
<g mask="url(#mask0_763_19091)">
<mask id="mask1_763_19091" style="mask-type:luminance" maskUnits="userSpaceOnUse" x="0" y="0" width="900" height="450">
<path d="M0 0H900V450H0V0Z" fill="white"/>
</mask>
<g mask="url(#mask1_763_19091)">
<path d="M0 0H900V450H0V0Z" fill="white"/>
<path d="M0 0H900V450H0V0Z" fill="white"/>
<path d="M0 0H900V450H0V0Z" fill="#477050"/>
</g>
<mask id="mask2_763_19091" style="mask-type:luminance" maskUnits="userSpaceOnUse" x="0" y="0" width="900" height="300">
<path d="M0 0H900V300H0V0Z" fill="white"/>
</mask>
<g mask="url(#mask2_763_19091)">
<path d="M0 0H900V299.557H0V0Z" fill="white"/>
</g>
<mask id="mask3_763_19091" style="mask-type:luminance" maskUnits="userSpaceOnUse" x="0" y="0" width="900" height="150">
<path d="M0 0H900V150H0V0Z" fill="white"/>
</mask>
<g mask="url(#mask3_763_19091)">
<path d="M0 0H900V149.113H0V0Z" fill="#CE2939"/>
</g>
</g>
</g>
<defs>
<clipPath id="clip0_763_19091">
<rect width="900" height="450" fill="white"/>
</clipPath>
</defs>
</svg>
