<svg width="900" height="450" viewBox="0 0 900 450" fill="none" xmlns="http://www.w3.org/2000/svg">
<rect width="900" height="450" fill="#1E1E1E"/>
<g clip-path="url(#clip0_0_1)">
<mask id="mask0_0_1" style="mask-type:luminance" maskUnits="userSpaceOnUse" x="0" y="0" width="900" height="450">
<path d="M0 -3.37219e-06H900V450H0V-3.37219e-06Z" fill="white"/>
</mask>
<g mask="url(#mask0_0_1)">
<path d="M0 -3.37219e-06H900V450H0V-3.37219e-06Z" fill="white"/>
<path d="M0 -3.37219e-06H900V450H0V-3.37219e-06Z" fill="white"/>
<path d="M0 -3.37219e-06H900V450H0V-3.37219e-06Z" fill="#1E1E1E"/>
<path d="M0 -3.37219e-06H900V450H0V-3.37219e-06Z" fill="white"/>
</g>
<mask id="mask1_0_1" style="mask-type:luminance" maskUnits="userSpaceOnUse" x="0" y="41" width="900" height="367">
<path d="M0 41.3333H900V407.333H0V41.3333Z" fill="white"/>
</mask>
<g mask="url(#mask1_0_1)">
<path d="M0 42.1236H900V112.204H0V42.1236ZM0 336.462H900V406.543H0V336.462Z" fill="#0038B8"/>
</g>
<path d="M379.104 265.547H520.682L449.89 142.786L379.104 265.547ZM449.89 306.463L520.682 183.708H379.104L449.89 306.463Z" stroke="#0038B8" stroke-width="12.9808"/>
</g>
<defs>
<clipPath id="clip0_0_1">
<rect width="900" height="450" fill="white"/>
</clipPath>
</defs>
</svg>
