<svg width="900" height="450" viewBox="0 0 900 450" fill="none" xmlns="http://www.w3.org/2000/svg">
<g clip-path="url(#clip0_764_78)">
<path d="M900 0H0V450H900V0Z" fill="#1E1E1E"/>
<mask id="mask0_764_78" style="mask-type:luminance" maskUnits="userSpaceOnUse" x="0" y="0" width="900" height="450">
<path d="M900 0H0V450H900V0Z" fill="white"/>
</mask>
<g mask="url(#mask0_764_78)">
<mask id="mask1_764_78" style="mask-type:luminance" maskUnits="userSpaceOnUse" x="0" y="0" width="900" height="450">
<path d="M0 0H900V450H0V0Z" fill="white"/>
</mask>
<g mask="url(#mask1_764_78)">
<path d="M0 0H900V450H0V0Z" fill="white"/>
<path d="M0 0H900V450H0V0Z" fill="white"/>
<path d="M0 0H900V450H0V0Z" fill="#CF142B"/>
</g>
<path d="M330.193 161.562C330.526 161.922 334.62 164.542 334.698 164.406C334.776 164.271 345.708 162.161 345.63 162.297C345.557 162.432 339.318 169.255 339.594 169.406C339.865 169.557 345.636 176.818 345.771 176.891C345.912 176.969 334.438 175.594 334.438 175.594L326.63 181.38L325.188 173.495C325.188 173.495 315.724 169.865 315.583 169.792C315.448 169.713 323.865 167.276 323.865 167.276L326.563 160.974C326.563 160.974 329.766 161.682 330.193 161.562Z" fill="#F9DD16" stroke="black" stroke-width="1.5702"/>
<path d="M469.766 181.453C470 174.854 457.761 144.573 455.734 139.911C451.849 134.802 447.823 126.776 446.208 119.901C445.24 112.99 441.672 107.474 436.458 105.474C430.474 102.099 424.49 103.151 418.755 103.453C415.932 103.953 413.484 105.365 412.057 107.51C408.823 111.755 407.156 111.37 404.958 113.172C387.281 115.297 370.354 123.682 357.5 129.354C350.646 133.708 344.875 136.177 342.219 136.651C335.073 136.448 329.984 132.948 327.563 131.099L303.995 108.609C297.151 103.234 295.172 110.609 296.484 111.786C298.662 116.807 293.495 119.656 312.162 138.104L318.969 153.068C318.969 153.068 318.438 157.083 318.771 157.266C322.016 165.609 327.662 163.74 330.375 161.521L336.261 156.583C336.261 156.583 347.708 153.422 347.896 153.099C359.995 155.271 391.5 150.422 396.745 148.182C401.479 145.771 401.708 147.948 405.844 144.854C409.287 142.766 407.375 144.453 413.787 139.062C415.755 137.5 417.188 140.177 417.484 142.021C417.266 159.417 419.068 170.588 420.115 187.969L446.162 202.172L469.766 181.453Z" fill="white" stroke="black" stroke-width="2.04126"/>
<path d="M318.542 123.698C318.781 123.917 313.677 138.542 313.677 138.542C313.677 138.542 309.557 134.234 309.599 134.167L313.083 118.74L318.542 123.698Z" fill="#F9DD16"/>
<path d="M318.693 123.156C318.448 124.146 317.412 128.573 316.953 129.776C316.563 131.115 316.203 132.464 315.932 133.802C315.453 135.266 315.234 136.224 314.714 137.724C314.516 139.021 314.203 140.229 313.823 141.521M311.719 116.146C311.807 116.338 312.104 117.693 312.125 118.557C311.932 119.458 311.573 122.693 311.182 123.781C310.854 124.99 310.589 126.203 310.37 127.437C309.974 128.755 309.807 129.63 309.37 130.984C309.24 132.167 308.984 133.26 308.677 134.432" stroke="black" stroke-width="1.77433"/>
<path d="M389.089 117.193C394.552 123.573 395.979 133.703 394.766 139.307M365.979 153.187L366.089 152.995C365.745 153.594 366.005 153.255 365.443 151.885C364.823 151.172 364.484 147.766 365.531 145.927C365.943 144.984 366.625 143.568 367.13 142.677C367.276 142.427 367.672 142.182 367.818 141.927M326.162 130.953L326.052 131.141L325.62 131.906C325.057 132.891 324.307 133.781 323.797 134.656C323.25 135.604 322.432 136.406 321.891 137.359C321.203 138.245 320.583 139.427 319.875 140.344C319.203 141.437 318.469 142.208 317.802 143.365M317.802 143.365C317.234 144.281 316.787 144.698 316.198 145.734L317.802 143.365ZM306.214 111.422C306.302 111.609 306.646 112.885 306.698 113.698C306.542 114.531 306.307 117.547 305.969 118.552C305.693 119.672 305.474 120.802 305.307 121.943C304.964 123.167 304.833 123.974 304.453 125.229C304.37 126.328 304.162 127.349 303.901 128.427M329.724 147.854C328.438 146.437 327.641 146.917 326.792 146.823C325.839 146.958 324.094 147.682 322.292 149.349C321.63 150.016 321.078 150.5 320.214 151.208C319.813 151.776 319.495 151.984 319.063 152.328M431.089 104.734L430.979 104.927C431.318 104.328 431.073 104.667 431.318 106.115C431.672 107.125 431.693 107.812 432.089 108.792M410.245 109.443C410.172 109.573 409.542 123.625 410.073 125.458C410.214 126.62 410.5 127.604 410.62 128.995C410.594 129.833 410.771 130.536 410.802 131.354C411.261 132.266 411.328 133.172 411.802 133.906C412.016 134.906 412.823 134.974 413.224 135.911C413.807 136.573 414.766 137.74 415.349 138.266M399.052 147.609C398.615 147.448 397.516 146.531 396.568 146.031C395.5 145.391 392.922 142.156 392.865 139.937" stroke="black" stroke-width="1.5702"/>
<path d="M410.406 128.005C410.365 128.068 408.865 129.432 406.401 131.734C403.261 134.411 394.807 138.917 393.797 139.271C392.828 139.667 391.599 140.646 390.651 140.76C389.557 141.151 388.469 141.281 387.438 141.49C386.177 141.708 385.104 141.896 384.13 141.922C381.172 143.073 365.818 142.088 365.031 141.891C364.136 141.854 363.245 141.776 362.354 141.667C361.62 141.818 360.755 141.719 359.766 141.74C358.573 141.604 357.88 141.812 356.875 141.896C356.068 142.281 354.734 142.667 353.823 143.219C352.589 143.667 351.823 144.302 350.969 144.646C350.068 145.333 337.885 151.802 337.297 152.094C336.021 152.594 331.474 153.766 330.448 150.615C330.198 149.38 329.662 148.094 329.662 147.156C329.333 146.021 329.578 144.828 329.672 143.786C330.891 138.51 332.693 136.479 333.203 135.588L333.745 134.641M445.537 118.724L445.427 118.911C445.719 118.401 445.583 118.667 444.797 119.568C444.011 120.151 443.026 121.088 442.307 121.698C441.578 122.365 440.87 123.312 440.229 123.557C439.568 124.354 438.755 124.583 437.87 125.01C436.807 125.344 435.792 125.781 434.823 126.328C433.5 126.969 432.672 127.588 431.448 128.224C430.672 129.13 429.901 129.682 429.234 130.76C428.578 131.755 427.927 132.604 427.302 133.698L425.781 136.365M433.115 192.755L433.333 192.37C432.927 193.078 433.068 192.891 433.464 191.693C433.516 190.245 433.922 188.5 433.979 187.219C434.245 185.87 434.516 184.411 434.578 183.042C434.547 181.432 434.594 179.995 434.401 178.437C434.427 177.01 434.307 175.526 434.307 174.13C434.328 172.745 434.261 171.557 434 170.203C434.005 169.198 433.99 167.818 433.781 166.573C433.943 165.609 433.693 164.708 433.505 163.922C433.177 162.411 433.052 161.531 432.703 159.969C432.49 159.13 432.287 158.062 431.964 156.807C431.87 155.625 431.276 154.073 431.047 153.047C430.719 152.286 430.391 151.266 430.281 150.37C429.938 149.536 429.438 148.521 429.323 147.583C428.953 146.865 428.568 145.75 428.167 144.693C427.823 143.828 427.578 142.76 427.208 141.911C426.839 140.838 426.38 139.917 426.162 138.828C425.792 138.448 425.714 138.047 425.516 137.724" stroke="black" stroke-width="1.5702"/>
<path d="M433.125 110.995C431.688 113.958 428.099 118.234 428.047 118.333L424.557 124.672C422.995 128.151 423.87 129.594 424.469 130.63C425.698 132.937 425.891 134.172 426.797 135.927C427.094 138.089 423.182 138.687 423.13 138.786C414.948 141.281 411.099 133.516 411.068 133.125C410.099 129.089 410.266 128.427 412.771 127.682C415.636 127.13 416.776 127.135 418.219 126.177C420.943 124.302 423.016 118.437 423.073 118.339C423.125 118.245 423.578 114.99 423.578 114.99C423.839 113.422 423.146 111.953 424.047 109.49C425.188 107.115 425.849 106.479 428.37 106.37C431.667 106.182 434.141 108.547 433.125 110.995Z" fill="#F9DD16" stroke="black" stroke-width="1.5702"/>
<path d="M539.833 123.771C539.349 123.88 535 126.052 535.083 126.188C535.161 126.323 531.562 136.688 531.479 136.552C531.401 136.422 528.5 127.688 528.229 127.849C527.958 128.005 518.687 129.281 518.552 129.365C518.416 129.443 525.354 120.365 525.354 120.365L524.156 110.818L531.818 113.537C531.818 113.537 539.745 107.297 539.88 107.219C540.01 107.141 537.958 115.526 537.958 115.526L542.167 120.979C542.167 120.979 539.943 123.349 539.833 123.771Z" fill="#F9DD16" stroke="black" stroke-width="1.57029"/>
<path d="M452.64 232.646C458.333 236.151 491.114 240.891 496.234 241.5C502.677 240.755 511.755 241.349 518.62 243.412C525.193 246.052 531.828 245.776 536.193 242.339C542.151 238.932 544.213 233.313 546.812 228.276C547.781 225.625 547.76 222.833 546.583 220.542C544.453 215.667 545.625 214.438 545.135 211.662C552.094 195.547 553.156 176.938 554.578 163.156C554.161 155.141 554.864 148.985 555.776 146.49C559.521 140.511 565.14 137.927 567.984 136.792L599.557 127.99C607.708 124.854 602.203 119.479 600.51 120C594.995 119.344 595.068 113.516 569.5 120.172L552.917 118.474C552.917 118.474 549.646 116.011 549.318 116.198C540.349 114.781 539.177 120.531 539.781 123.953L541.193 131.432C541.193 131.432 538.26 142.766 538.453 143.089C530.5 152.297 519.042 181.552 518.401 187.141C518.156 192.38 516.125 191.479 516.786 196.552C516.906 200.526 516.375 198.057 517.927 206.214C518.312 208.672 515.245 208.552 513.469 207.88C498.26 198.985 487.515 194.922 471.682 187.11L446.166 202.172L452.64 232.646Z" fill="white" stroke="black" stroke-width="2.04138"/>
<path d="M579 132.818C578.693 132.911 568.354 121.245 568.354 121.245C568.354 121.245 574.208 119.896 574.245 119.958L586.099 130.656L579 132.818Z" fill="#F9DD16"/>
<path d="M579.406 133.219C578.656 132.516 575.276 129.412 574.443 128.422C573.463 127.417 572.448 126.438 571.406 125.531C570.354 124.396 569.62 123.729 568.557 122.531C567.516 121.719 566.609 120.844 565.661 119.875M589.062 130.792C588.849 130.766 587.51 130.344 586.734 129.927C586.036 129.313 583.37 127.386 582.604 126.511C581.703 125.63 580.766 124.792 579.792 123.99C578.823 122.99 578.141 122.412 577.167 121.359C576.193 120.656 575.349 119.891 574.474 119.042" stroke="black" stroke-width="1.77443"/>
<path d="M549.516 196.141C541.172 197.594 531.536 193.734 527.203 189.901M529.349 158.438L529.458 158.625C529.104 158.037 529.276 158.427 530.76 158.636C531.698 158.464 534.87 159.88 535.963 161.693C536.588 162.516 537.5 163.802 538.031 164.682C538.177 164.932 538.198 165.391 538.349 165.641M568.812 135.672L568.698 135.484L568.245 134.734C567.656 133.761 567.239 132.677 566.729 131.802C566.167 130.865 565.864 129.766 565.297 128.828C564.864 127.797 564.13 126.682 563.677 125.62C563.052 124.495 562.739 123.484 562.047 122.339M562.047 122.339C561.521 121.396 561.38 120.807 560.76 119.787L562.047 122.339ZM595.974 128.469C595.766 128.453 594.469 128.104 593.729 127.745C593.068 127.193 590.531 125.484 589.818 124.688C588.969 123.896 588.083 123.141 587.156 122.432C586.25 121.526 585.604 121.011 584.693 120.057C583.76 119.432 582.969 118.745 582.146 117.984M552.141 130.24C554.031 129.854 554.01 128.938 554.516 128.261C554.87 127.38 555.104 125.531 554.536 123.162C554.281 122.271 554.13 121.557 553.937 120.464C553.635 119.839 553.609 119.464 553.526 118.927M539.526 238.136L539.411 237.948C539.771 238.537 539.594 238.162 538.193 237.641C537.13 237.432 536.51 237.11 535.453 236.953M545.781 218.031C545.708 217.906 533.641 210.333 531.766 209.865C530.667 209.401 529.656 209.156 528.375 208.557C527.651 208.12 526.937 207.917 526.203 207.537C525.172 207.464 524.338 207.073 523.453 207.11C522.469 206.787 522.005 207.438 520.979 207.313C520.104 207.479 518.604 207.708 517.849 207.943M517.75 189.391C518.109 189.099 519.469 188.62 520.385 188.063C521.479 187.474 525.614 186.901 527.599 187.964" stroke="black" stroke-width="1.57029"/>
<path d="M529.354 208.87C529.318 208.807 528.864 206.849 528.062 203.599C527.276 199.584 527.526 190.13 527.719 189.094C527.854 188.068 527.604 186.531 527.974 185.667C528.182 184.537 528.604 183.547 528.943 182.563C529.375 181.38 529.745 180.375 530.208 179.537C530.672 176.438 539.203 163.86 539.771 163.287C540.25 162.547 540.76 161.823 541.302 161.12C541.542 160.422 542.057 159.735 542.531 158.88C543.245 157.932 543.411 157.24 543.838 156.339C543.901 155.458 544.229 154.136 544.193 153.083C544.417 151.802 544.239 150.839 544.359 149.932C544.208 148.828 544.588 135.214 544.63 134.568C544.823 133.229 546.062 128.771 549.354 129.474C550.562 129.88 551.963 130.068 552.792 130.537C553.953 130.828 554.88 131.63 555.755 132.235C559.786 135.917 560.682 138.469 561.213 139.344L561.776 140.281M519.995 243.432L519.88 243.245C520.187 243.75 520.015 243.5 519.614 242.38C519.495 241.417 519.161 240.11 518.984 239.193C518.76 238.24 518.276 237.162 518.385 236.495C518.01 235.531 518.213 234.719 518.281 233.755C518.521 232.682 518.64 231.599 518.64 230.5C518.739 229.057 518.604 228.042 518.656 226.677C518.245 225.568 518.14 224.63 517.526 223.526C516.979 222.469 516.552 221.49 515.901 220.406L514.312 217.776M460.979 195.781L461.208 196.156C460.786 195.464 460.88 195.672 461.739 196.61C462.989 197.38 464.323 198.599 465.422 199.287C466.479 200.193 467.625 201.151 468.802 201.891C470.234 202.667 471.479 203.432 472.948 204.047C474.187 204.787 475.557 205.422 476.786 206.125C477.995 206.839 479.078 207.375 480.401 207.828C481.286 208.339 482.51 209.016 483.708 209.459C484.479 210.084 485.396 210.318 486.182 210.557C487.677 211.026 488.51 211.365 490.062 211.849C490.906 212.089 491.953 212.448 493.219 212.802C494.307 213.318 495.974 213.589 496.989 213.906C497.823 214.005 498.885 214.24 499.729 214.594C500.635 214.719 501.781 214.802 502.661 215.172C503.479 215.219 504.656 215.448 505.786 215.641C506.724 215.776 507.781 216.104 508.713 216.214C509.844 216.438 510.885 216.505 511.953 216.865C512.474 216.74 512.864 216.88 513.25 216.875" stroke="black" stroke-width="1.57029"/>
<path d="M532.995 236.735C531.104 234.026 529.125 228.828 529.068 228.735L525.229 222.589C522.937 219.521 521.229 219.542 520.016 219.531C517.37 219.422 516.193 218.969 514.193 218.865C512.14 218.031 513.562 214.401 513.505 214.307C515.39 206.094 524.151 206.703 524.51 206.87C528.552 208.073 529.052 208.542 528.458 211.047C527.51 213.761 526.937 214.735 527.062 216.438C527.354 219.698 531.484 224.401 531.542 224.495C531.599 224.589 534.239 226.61 534.239 226.61C535.495 227.615 537.13 227.755 538.854 229.761C540.38 231.922 540.609 232.802 539.443 235.005C537.963 237.901 534.646 238.823 532.995 236.735Z" fill="#F9DD16" stroke="black" stroke-width="1.57029"/>
<path d="M468.469 321.188C468.62 320.719 468.875 315.927 468.713 315.932C468.557 315.932 461.224 307.677 461.385 307.677C461.542 307.672 470.677 309.578 470.672 309.266C470.667 308.959 474.172 300.422 474.172 300.266C474.172 300.115 478.703 310.568 478.703 310.568L487.708 314.323L481.49 319.49C481.49 319.49 483.031 329.36 483.031 329.516C483.036 329.667 476.672 323.719 476.672 323.719L469.771 324.573C469.771 324.573 468.786 321.49 468.469 321.188Z" fill="#F9DD16" stroke="black" stroke-width="1.57029"/>
<path d="M416.094 192.427C410.161 195.521 389.615 221.057 386.526 225.11C383.969 230.969 378.911 238.401 373.672 243.209C368.062 247.485 364.99 253.271 365.844 258.708C365.865 265.49 369.792 270.057 372.927 274.792C374.781 276.948 377.25 278.328 379.859 278.469C385.213 279.104 385.713 280.714 388.401 281.688C399.125 295.677 414.984 305.906 426.417 314.016C433.687 317.677 438.755 321.36 440.5 323.38C443.901 329.568 443.365 335.646 442.948 338.636L434.943 369.922C433.635 378.432 441.12 376.438 441.5 374.734C444.833 370.37 449.932 373.349 456.833 348.245L466.609 334.979C466.609 334.979 470.411 333.432 470.406 333.057C476.13 326.125 471.656 322.25 468.338 321.052L461.042 318.505C461.042 318.505 452.526 310.333 452.146 310.339C448 298.953 427.953 274.547 423.349 271.203C418.854 268.375 420.661 267.094 415.859 265.12C412.302 263.224 414.745 264.011 406.781 261.245C404.422 260.349 406.062 257.792 407.542 256.62C422.969 248.125 431.911 241.011 446.698 231.443L446.167 202.177L416.094 192.427Z" fill="white" stroke="black" stroke-width="2.04137"/>
<path d="M440.948 350.005C441.026 349.693 456.464 346.734 456.464 346.734C456.464 346.734 454.729 352.396 454.651 352.396L439.312 357.125L440.948 350.005Z" fill="#F9DD16"/>
<path d="M440.396 350.151C441.391 349.86 445.807 348.537 447.099 348.323C448.474 347.99 449.839 347.62 451.156 347.188C452.682 346.86 453.635 346.568 455.224 346.266C456.464 345.781 457.687 345.448 459.01 345.13M437.714 359.589C437.839 359.417 438.885 358.485 439.635 358.037C440.526 357.75 443.557 356.443 444.708 356.229C445.932 355.906 447.141 355.526 448.333 355.099C449.693 354.776 450.547 354.479 451.964 354.177C453.068 353.703 454.161 353.37 455.344 353.052" stroke="black" stroke-width="1.77442"/>
<path d="M399.891 293.188C402.776 285.354 410.979 279.084 416.526 277.318M443.167 294.901H442.948C443.641 294.891 443.214 294.839 442.292 296C441.969 296.886 439.146 298.875 436.995 298.901C435.958 299.021 434.37 299.151 433.333 299.162C433.036 299.167 432.625 298.953 432.328 298.953M443.521 339.896H443.745L444.635 339.886C445.786 339.87 446.943 340.063 447.969 340.063C449.078 340.052 450.193 340.349 451.307 340.339C452.427 340.479 453.781 340.417 454.943 340.563C456.245 340.589 457.292 340.834 458.646 340.818M458.646 340.818C459.734 340.844 460.328 341.016 461.536 341L458.646 340.818ZM436.312 366.63C436.427 366.459 437.38 365.531 438.068 365.083C438.885 364.797 441.656 363.495 442.714 363.281C443.839 362.959 444.943 362.578 446.031 362.151C447.276 361.828 448.057 361.537 449.354 361.24C450.365 360.761 451.365 360.427 452.448 360.11M456.63 328.427C456.026 330.229 456.844 330.667 457.193 331.438C457.786 332.182 459.297 333.307 461.667 334.011C462.583 334.24 463.286 334.469 464.344 334.854C465.047 334.906 465.391 335.073 465.906 335.271M367.88 263.651H368.104C367.406 263.656 367.823 263.698 368.979 262.766C369.693 261.964 370.292 261.599 370.953 260.776M382.469 279.047C382.615 279.047 395.312 272.568 396.656 271.198C397.615 270.5 398.339 269.766 399.505 268.969C400.25 268.573 400.786 268.068 401.49 267.636C402.062 266.792 402.823 266.281 403.234 265.511C404.01 264.828 403.667 264.11 404.292 263.297C404.583 262.469 405.125 261.073 405.302 260.318M421.693 269.526C421.766 269.974 421.51 271.37 421.547 272.427C421.516 273.656 419.958 277.469 418.031 278.625" stroke="black" stroke-width="1.57029"/>
<path d="M398.734 269.646C398.812 269.646 400.766 270.245 404.026 271.188C407.958 272.526 416.161 277.479 416.979 278.162C417.812 278.792 419.292 279.344 419.865 280.094C420.76 280.834 421.422 281.693 422.12 282.469C422.943 283.432 423.646 284.25 424.151 285.068C426.651 287.011 433.474 300.573 433.693 301.344C434.109 302.125 434.49 302.922 434.838 303.735C435.333 304.287 435.682 305.073 436.198 305.901C436.677 306.985 437.203 307.474 437.786 308.287C438.526 308.781 439.531 309.724 440.474 310.219C441.49 311.052 442.432 311.386 443.161 311.938C444.219 312.365 456.021 319.505 456.568 319.865C457.651 320.698 460.958 323.99 458.698 326.438C457.734 327.266 456.87 328.36 456.047 328.828C455.208 329.672 454.036 330.063 453.068 330.5C447.812 332.094 445.12 331.578 444.083 331.589L442.974 331.604M372.969 244.37H373.187C372.588 244.375 372.896 244.354 374.083 244.573C374.99 244.953 376.307 245.323 377.203 245.63C378.156 245.922 379.349 246.047 379.88 246.474C380.917 246.641 381.526 247.219 382.344 247.761C383.172 248.495 384.068 249.141 385.031 249.693C386.255 250.5 387.219 250.896 388.391 251.62C389.578 251.828 390.453 252.209 391.734 252.24C392.937 252.297 394.016 252.427 395.292 252.417L398.401 252.38M444.401 217.99L443.953 217.995C444.781 217.985 444.547 217.959 443.292 218.219C441.99 218.901 440.25 219.427 439.094 220.016C437.771 220.464 436.354 220.959 435.115 221.594C433.713 222.422 432.422 223.099 431.146 224.037C429.875 224.724 428.63 225.573 427.396 226.266C426.167 226.943 425.156 227.594 424.094 228.49C423.203 228.99 421.995 229.693 421.01 230.49C420.073 230.834 419.406 231.495 418.807 232.047C417.641 233.084 416.932 233.625 415.729 234.703C415.099 235.302 414.255 236.011 413.312 236.912C412.318 237.584 411.245 238.865 410.458 239.568C409.958 240.229 409.219 241.021 408.484 241.558C407.922 242.271 407.276 243.203 406.51 243.766C406.062 244.443 405.271 245.323 404.542 246.193C403.953 246.922 403.135 247.656 402.573 248.401C401.812 249.245 401.229 250.099 400.38 250.828C400.234 251.334 399.917 251.599 399.729 251.927" stroke="black" stroke-width="1.57029"/>
<path d="M372.375 258.797C375.703 258.537 381.271 259.459 381.38 259.459L388.713 259.261C392.557 258.854 393.391 257.386 394.01 256.36C395.422 254.162 396.417 253.386 397.505 251.735C399.266 250.401 401.75 253.433 401.859 253.433C408.156 259.146 403.245 266.302 402.917 266.526C399.844 269.365 399.177 269.552 397.266 267.792C395.349 265.63 394.781 264.651 393.213 263.906C390.198 262.521 383.995 263.682 383.88 263.688C383.771 263.688 380.677 264.927 380.677 264.927C379.161 265.49 378.219 266.813 375.594 267.276C372.932 267.49 372.042 267.245 370.677 265.151C368.865 262.438 369.713 259.151 372.375 258.797Z" fill="#F9DD16" stroke="black" stroke-width="1.57029"/>
<path d="M452.49 232.552C449.729 231.057 447.594 230.708 446.547 231.354C445.214 222.359 444.078 213.359 442.281 204.38C425.266 196.76 421.672 195.031 416.089 192.427C418.787 190.823 420.162 189.182 420.115 187.969C428.703 191.338 437.198 194.875 446.005 197.844C461.214 187.172 464.531 184.979 469.61 181.531C469.672 184.63 470.432 186.62 471.526 187.187C464.271 192.812 456.917 198.276 449.901 204.292C451.714 222.583 451.99 226.505 452.49 232.552Z" fill="#F9DD16" stroke="black" stroke-width="2.04126"/>
</g>
</g>
<defs>
<clipPath id="clip0_764_78">
<rect width="900" height="450" fill="white"/>
</clipPath>
</defs>
</svg>
