<svg width="900" height="450" viewBox="0 0 900 450" fill="none" xmlns="http://www.w3.org/2000/svg">
<g clip-path="url(#clip0_764_183)">
<path d="M900 0H0V450H900V0Z" fill="#1E1E1E"/>
<mask id="mask0_764_183" style="mask-type:luminance" maskUnits="userSpaceOnUse" x="0" y="0" width="900" height="450">
<path d="M900 0H0V450H900V0Z" fill="white"/>
</mask>
<g mask="url(#mask0_764_183)">
<mask id="mask1_764_183" style="mask-type:luminance" maskUnits="userSpaceOnUse" x="0" y="0" width="900" height="450">
<path d="M0 0H900V450H0V0Z" fill="white"/>
</mask>
<g mask="url(#mask1_764_183)">
<path d="M0 0H900V450H0V0Z" fill="white"/>
<path d="M0 0H900V450H0V0Z" fill="white"/>
</g>
<mask id="mask2_764_183" style="mask-type:luminance" maskUnits="userSpaceOnUse" x="0" y="0" width="900" height="150">
<path d="M0 0H900V150H0V0Z" fill="white"/>
</mask>
<g mask="url(#mask2_764_183)">
<path d="M0 0H1012.5V150H0V0Z" fill="#FF9932"/>
</g>
<path d="M521.534 225.289C521.534 227.623 521.415 229.952 521.188 232.276C520.961 234.601 520.616 236.905 520.162 239.199C519.708 241.489 519.14 243.749 518.464 245.984C517.783 248.22 516.999 250.416 516.106 252.572C515.213 254.728 514.216 256.835 513.115 258.893C512.015 260.956 510.816 262.954 509.523 264.894C508.225 266.838 506.834 268.708 505.353 270.514C503.873 272.32 502.309 274.047 500.656 275.7C499.008 277.348 497.281 278.917 495.474 280.398C493.673 281.878 491.798 283.265 489.859 284.563C487.92 285.86 485.916 287.059 483.859 288.16C481.801 289.26 479.694 290.257 477.537 291.15C475.381 292.043 473.185 292.833 470.955 293.509C468.72 294.185 466.459 294.752 464.17 295.206C461.88 295.665 459.576 296.006 457.252 296.238C454.928 296.465 452.598 296.578 450.264 296.578C447.93 296.578 445.601 296.465 443.282 296.238C440.958 296.006 438.653 295.665 436.364 295.206C434.074 294.752 431.809 294.185 429.579 293.509C427.344 292.833 425.148 292.043 422.991 291.15C420.835 290.257 418.728 289.26 416.67 288.16C414.612 287.059 412.614 285.86 410.675 284.563C408.731 283.265 406.86 281.878 405.054 280.398C403.248 278.917 401.521 277.348 399.873 275.7C398.225 274.047 396.656 272.32 395.175 270.514C393.695 268.708 392.308 266.838 391.011 264.894C389.713 262.954 388.514 260.956 387.413 258.893C386.313 256.835 385.316 254.728 384.423 252.572C383.53 250.416 382.745 248.22 382.069 245.984C381.388 243.749 380.826 241.489 380.367 239.199C379.913 236.905 379.572 234.601 379.34 232.276C379.113 229.952 379 227.623 379 225.289C379 222.955 379.113 220.626 379.34 218.302C379.572 215.978 379.913 213.673 380.367 211.384C380.826 209.094 381.388 206.829 382.069 204.594C382.745 202.363 383.53 200.167 384.423 198.006C385.316 195.85 386.313 193.743 387.413 191.685C388.514 189.627 389.713 187.624 391.011 185.685C392.308 183.74 393.695 181.87 395.175 180.064C396.656 178.258 398.225 176.531 399.873 174.883C401.521 173.23 403.248 171.666 405.054 170.18C406.86 168.7 408.731 167.313 410.675 166.016C412.614 164.718 414.612 163.519 416.67 162.418C418.728 161.318 420.835 160.321 422.991 159.428C425.148 158.535 427.344 157.75 429.579 157.069C431.809 156.393 434.074 155.826 436.364 155.372C438.653 154.913 440.958 154.572 443.282 154.345C445.601 154.113 447.93 154 450.264 154C452.598 154 454.928 154.113 457.252 154.345C459.576 154.572 461.88 154.913 464.17 155.372C466.459 155.826 468.72 156.393 470.955 157.069C473.185 157.75 475.381 158.535 477.537 159.428C479.694 160.321 481.801 161.318 483.859 162.418C485.916 163.519 487.92 164.718 489.859 166.016C491.798 167.313 493.673 168.7 495.474 170.18C497.281 171.666 499.008 173.23 500.656 174.883C502.309 176.531 503.873 178.258 505.353 180.064C506.834 181.87 508.225 183.74 509.523 185.685C510.816 187.624 512.015 189.627 513.115 191.685C514.216 193.743 515.213 195.85 516.106 198.006C516.999 200.167 517.783 202.363 518.464 204.594C519.14 206.829 519.708 209.094 520.162 211.384C520.616 213.673 520.961 215.978 521.188 218.302C521.415 220.626 521.534 222.955 521.534 225.289Z" fill="#000080"/>
<path d="M513.101 225.289C513.101 227.347 513.002 229.4 512.8 231.452C512.597 233.5 512.296 235.533 511.897 237.551C511.492 239.57 510.994 241.568 510.396 243.537C509.799 245.506 509.109 247.44 508.319 249.345C507.53 251.245 506.651 253.105 505.684 254.921C504.712 256.737 503.656 258.498 502.511 260.211C501.366 261.923 500.143 263.576 498.84 265.165C497.532 266.759 496.151 268.279 494.7 269.734C493.244 271.19 491.719 272.572 490.13 273.879C488.537 275.187 486.888 276.411 485.176 277.556C483.464 278.695 481.702 279.756 479.886 280.723C478.07 281.696 476.215 282.574 474.31 283.363C472.411 284.148 470.476 284.844 468.507 285.441C466.538 286.038 464.545 286.536 462.527 286.941C460.504 287.341 458.47 287.642 456.423 287.844C454.375 288.046 452.322 288.145 450.264 288.145C448.207 288.145 446.154 288.046 444.106 287.844C442.058 287.642 440.025 287.341 438.007 286.941C435.989 286.536 433.995 286.038 432.026 285.441C430.058 284.844 428.118 284.148 426.218 283.363C424.319 282.574 422.458 281.696 420.642 280.723C418.831 279.756 417.065 278.695 415.358 277.556C413.645 276.411 411.992 275.187 410.403 273.879C408.809 272.572 407.29 271.19 405.834 269.734C404.378 268.279 402.997 266.759 401.694 265.165C400.386 263.576 399.162 261.923 398.018 260.211C396.878 258.498 395.817 256.737 394.85 254.921C393.878 253.105 392.999 251.245 392.21 249.345C391.425 247.44 390.734 245.506 390.132 243.537C389.535 241.568 389.037 239.57 388.637 237.551C388.232 235.533 387.931 233.5 387.729 231.452C387.532 229.4 387.428 227.347 387.428 225.289C387.428 223.231 387.532 221.179 387.729 219.131C387.931 217.078 388.232 215.045 388.637 213.027C389.037 211.009 389.535 209.015 390.132 207.041C390.734 205.072 391.425 203.138 392.21 201.233C392.999 199.333 393.878 197.473 394.85 195.657C395.817 193.841 396.878 192.08 398.018 190.367C399.162 188.655 400.386 187.007 401.694 185.413C402.997 183.824 404.378 182.299 405.834 180.844C407.29 179.388 408.809 178.006 410.403 176.699C411.992 175.396 413.645 174.167 415.358 173.028C417.065 171.883 418.831 170.827 420.642 169.855C422.458 168.883 424.319 168.004 426.218 167.22C428.118 166.43 430.058 165.739 432.026 165.137C433.995 164.54 435.989 164.042 438.007 163.642C440.025 163.237 442.058 162.936 444.106 162.734C446.154 162.532 448.207 162.433 450.264 162.433C452.322 162.433 454.375 162.532 456.423 162.734C458.47 162.936 460.504 163.237 462.527 163.642C464.545 164.042 466.538 164.54 468.507 165.137C470.476 165.739 472.411 166.43 474.31 167.22C476.215 168.004 478.07 168.883 479.886 169.855C481.702 170.827 483.464 171.883 485.176 173.028C486.888 174.167 488.537 175.396 490.13 176.699C491.719 178.006 493.244 179.388 494.7 180.844C496.151 182.299 497.532 183.824 498.84 185.413C500.143 187.007 501.366 188.655 502.511 190.367C503.656 192.08 504.712 193.841 505.684 195.657C506.651 197.473 507.53 199.333 508.319 201.233C509.109 203.138 509.799 205.072 510.396 207.041C510.994 209.015 511.492 211.009 511.897 213.027C512.296 215.045 512.597 217.078 512.8 219.131C513.002 221.179 513.101 223.231 513.101 225.289Z" fill="white"/>
<path d="M516.362 233.994C516.298 234.497 516.135 234.971 515.884 235.41C515.627 235.849 515.301 236.224 514.897 236.535C514.492 236.846 514.048 237.063 513.555 237.196C513.066 237.329 512.568 237.359 512.064 237.295C511.561 237.226 511.087 237.068 510.648 236.811C510.209 236.56 509.834 236.229 509.523 235.829C509.217 235.425 508.995 234.976 508.862 234.487C508.734 233.994 508.699 233.5 508.768 232.992C508.832 232.489 508.99 232.02 509.247 231.576C509.498 231.136 509.829 230.761 510.234 230.456C510.633 230.145 511.082 229.923 511.571 229.794C512.064 229.661 512.563 229.627 513.066 229.696C513.569 229.76 514.038 229.923 514.482 230.174C514.921 230.431 515.296 230.757 515.602 231.161C515.913 231.566 516.135 232.01 516.264 232.503C516.397 232.992 516.431 233.49 516.362 233.994Z" fill="#000080"/>
<path d="M450.264 288.145L452.564 251.353C451.542 248.284 450.778 239.599 450.264 225.289C449.756 239.599 448.986 248.284 447.965 251.353L450.264 288.145Z" fill="#000080"/>
<path d="M511.857 250.81C511.665 251.279 511.388 251.694 511.028 252.054C510.668 252.414 510.253 252.69 509.785 252.883C509.316 253.08 508.827 253.179 508.319 253.179C507.811 253.179 507.322 253.08 506.853 252.883C506.385 252.69 505.97 252.414 505.61 252.054C505.25 251.694 504.973 251.279 504.781 250.81C504.584 250.342 504.485 249.853 504.485 249.345C504.485 248.837 504.584 248.348 504.781 247.879C504.973 247.406 505.25 246.991 505.61 246.636C505.97 246.276 506.385 245.999 506.853 245.802C507.322 245.609 507.811 245.511 508.319 245.511C508.827 245.511 509.316 245.609 509.785 245.802C510.253 245.999 510.668 246.276 511.028 246.636C511.388 246.991 511.665 247.406 511.857 247.879C512.054 248.348 512.148 248.837 512.148 249.345C512.148 249.853 512.054 250.342 511.857 250.81Z" fill="#000080"/>
<path d="M434 286.003L445.744 251.057C445.547 247.835 447.057 239.244 450.264 225.289C446.07 238.977 443.08 247.174 441.303 249.868L434 286.003Z" fill="#000080"/>
<path d="M503.158 265.885C502.847 266.29 502.472 266.621 502.032 266.872C501.593 267.129 501.12 267.287 500.616 267.356C500.113 267.42 499.615 267.39 499.126 267.257C498.633 267.124 498.188 266.907 497.784 266.596C497.379 266.285 497.054 265.91 496.797 265.471C496.545 265.032 496.382 264.558 496.318 264.055C496.254 263.551 496.284 263.053 496.417 262.564C496.545 262.071 496.767 261.627 497.078 261.222C497.389 260.818 497.759 260.487 498.203 260.235C498.642 259.979 499.111 259.821 499.615 259.757C500.123 259.688 500.616 259.722 501.11 259.85C501.598 259.984 502.047 260.206 502.452 260.512C502.852 260.823 503.182 261.198 503.434 261.637C503.69 262.076 503.848 262.55 503.917 263.053C503.982 263.556 503.947 264.055 503.819 264.548C503.686 265.037 503.468 265.486 503.158 265.885Z" fill="#000080"/>
<path d="M418.846 279.727L439.231 249.009C439.877 245.846 443.553 237.936 450.264 225.289C442.67 237.428 437.667 244.568 435.249 246.71L418.846 279.727Z" fill="#000080"/>
<path d="M490.851 278.197C490.446 278.508 490.002 278.73 489.509 278.858C489.02 278.991 488.522 279.026 488.018 278.957C487.515 278.893 487.041 278.73 486.602 278.478C486.163 278.222 485.788 277.896 485.477 277.491C485.171 277.087 484.949 276.643 484.816 276.149C484.688 275.661 484.653 275.162 484.717 274.659C484.786 274.151 484.944 273.682 485.201 273.243C485.452 272.799 485.783 272.424 486.188 272.118C486.587 271.807 487.036 271.585 487.525 271.456C488.018 271.323 488.512 271.289 489.02 271.358C489.523 271.422 489.992 271.585 490.431 271.836C490.876 272.093 491.251 272.419 491.556 272.823C491.867 273.228 492.089 273.672 492.218 274.165C492.351 274.654 492.381 275.152 492.316 275.656C492.252 276.159 492.089 276.633 491.838 277.072C491.581 277.516 491.255 277.891 490.851 278.197Z" fill="#000080"/>
<path d="M405.834 269.734L433.467 245.343C434.913 242.456 440.514 235.77 450.264 225.289C439.788 235.045 433.107 240.645 430.215 242.091L405.834 269.734Z" fill="#000080"/>
<path d="M475.776 286.902C475.307 287.099 474.819 287.193 474.31 287.193C473.802 287.193 473.314 287.099 472.845 286.902C472.376 286.709 471.961 286.433 471.601 286.073C471.241 285.712 470.965 285.298 470.772 284.829C470.58 284.36 470.481 283.872 470.481 283.363C470.481 282.855 470.58 282.367 470.772 281.893C470.965 281.424 471.241 281.01 471.601 280.649C471.961 280.294 472.376 280.013 472.845 279.82C473.314 279.628 473.802 279.529 474.31 279.529C474.819 279.529 475.307 279.628 475.776 279.82C476.25 280.013 476.664 280.294 477.019 280.649C477.38 281.01 477.656 281.424 477.853 281.893C478.046 282.367 478.144 282.855 478.144 283.363C478.144 283.872 478.046 284.36 477.853 284.829C477.656 285.298 477.38 285.712 477.019 286.073C476.664 286.433 476.25 286.709 475.776 286.902Z" fill="#000080"/>
<path d="M395.846 256.717L428.853 240.315C430.995 237.892 438.135 232.888 450.264 225.289C437.622 232 429.717 235.681 426.554 236.328L395.846 256.717Z" fill="#000080"/>
<path d="M458.969 291.407C458.466 291.476 457.967 291.441 457.474 291.313C456.985 291.18 456.536 290.958 456.136 290.652C455.732 290.341 455.401 289.966 455.15 289.527C454.893 289.083 454.735 288.614 454.671 288.11C454.602 287.607 454.636 287.109 454.765 286.615C454.898 286.127 455.12 285.678 455.426 285.273C455.737 284.873 456.112 284.543 456.551 284.291C456.99 284.035 457.464 283.877 457.967 283.808C458.47 283.743 458.969 283.773 459.457 283.906C459.951 284.039 460.395 284.257 460.8 284.567C461.204 284.878 461.53 285.253 461.786 285.693C462.038 286.132 462.201 286.605 462.265 287.109C462.334 287.612 462.3 288.11 462.166 288.599C462.038 289.092 461.816 289.537 461.505 289.941C461.199 290.346 460.824 290.671 460.385 290.928C459.941 291.18 459.472 291.343 458.969 291.407Z" fill="#000080"/>
<path d="M389.57 241.558L425.695 234.255C428.39 232.474 436.581 229.488 450.264 225.289C436.315 228.501 427.728 230.006 424.506 229.814L389.57 241.558Z" fill="#000080"/>
<path d="M441.565 291.407C441.061 291.343 440.588 291.18 440.149 290.928C439.709 290.671 439.334 290.346 439.024 289.941C438.713 289.537 438.496 289.092 438.362 288.599C438.229 288.11 438.199 287.612 438.264 287.109C438.333 286.605 438.491 286.132 438.747 285.693C438.999 285.253 439.329 284.878 439.729 284.567C440.134 284.257 440.583 284.039 441.071 283.906C441.565 283.773 442.058 283.743 442.562 283.808C443.07 283.877 443.539 284.035 443.978 284.291C444.417 284.543 444.792 284.873 445.103 285.273C445.414 285.678 445.631 286.127 445.764 286.615C445.897 287.109 445.927 287.607 445.863 288.11C445.794 288.614 445.636 289.083 445.384 289.527C445.128 289.966 444.797 290.341 444.397 290.652C443.993 290.958 443.548 291.18 443.055 291.313C442.567 291.441 442.068 291.476 441.565 291.407Z" fill="#000080"/>
<path d="M387.428 225.289L424.21 227.589C427.274 226.567 435.959 225.802 450.264 225.289C435.959 224.781 427.274 224.011 424.21 222.99L387.428 225.289Z" fill="#000080"/>
<path d="M424.753 286.902C424.284 286.709 423.87 286.433 423.509 286.073C423.149 285.712 422.873 285.298 422.68 284.829C422.483 284.36 422.389 283.872 422.389 283.363C422.389 282.855 422.483 282.367 422.68 281.893C422.873 281.424 423.149 281.01 423.509 280.649C423.87 280.294 424.284 280.013 424.753 279.82C425.222 279.628 425.71 279.529 426.218 279.529C426.727 279.529 427.215 279.628 427.684 279.82C428.153 280.013 428.567 280.294 428.927 280.649C429.288 281.01 429.564 281.424 429.756 281.893C429.954 282.367 430.053 282.855 430.053 283.363C430.053 283.872 429.954 284.36 429.756 284.829C429.564 285.298 429.288 285.712 428.927 286.073C428.567 286.433 428.153 286.709 427.684 286.902C427.215 287.099 426.727 287.193 426.218 287.193C425.71 287.193 425.222 287.099 424.753 286.902Z" fill="#000080"/>
<path d="M389.57 209.02L424.506 220.764C427.728 220.572 436.315 222.082 450.264 225.289C436.581 221.095 428.39 218.104 425.695 216.323L389.57 209.02Z" fill="#000080"/>
<path d="M409.683 278.197C409.278 277.891 408.948 277.516 408.696 277.072C408.439 276.633 408.281 276.159 408.212 275.656C408.148 275.152 408.183 274.654 408.311 274.165C408.444 273.672 408.661 273.228 408.972 272.823C409.283 272.419 409.658 272.093 410.097 271.836C410.537 271.585 411.01 271.422 411.514 271.358C412.017 271.289 412.515 271.323 413.004 271.456C413.497 271.585 413.941 271.807 414.346 272.118C414.751 272.424 415.076 272.799 415.333 273.243C415.585 273.682 415.747 274.151 415.812 274.659C415.876 275.162 415.846 275.661 415.713 276.149C415.585 276.643 415.363 277.087 415.052 277.491C414.746 277.896 414.371 278.222 413.927 278.478C413.487 278.73 413.019 278.893 412.515 278.957C412.007 279.026 411.514 278.991 411.02 278.858C410.532 278.73 410.083 278.508 409.683 278.197Z" fill="#000080"/>
<path d="M395.846 193.861L426.554 214.251C429.717 214.897 437.622 218.578 450.264 225.289C438.135 217.695 430.995 212.686 428.853 210.268L395.846 193.861Z" fill="#000080"/>
<path d="M397.376 265.885C397.065 265.486 396.843 265.037 396.715 264.548C396.582 264.055 396.547 263.556 396.616 263.053C396.68 262.55 396.843 262.076 397.095 261.637C397.351 261.198 397.677 260.823 398.082 260.512C398.486 260.206 398.931 259.984 399.424 259.85C399.913 259.722 400.411 259.688 400.914 259.757C401.418 259.821 401.891 259.979 402.33 260.235C402.77 260.487 403.145 260.818 403.455 261.222C403.761 261.627 403.983 262.071 404.117 262.564C404.245 263.053 404.28 263.551 404.21 264.055C404.146 264.558 403.988 265.032 403.732 265.471C403.48 265.91 403.15 266.285 402.745 266.596C402.345 266.907 401.896 267.124 401.408 267.257C400.914 267.39 400.416 267.42 399.913 267.356C399.409 267.287 398.94 267.129 398.496 266.872C398.057 266.621 397.682 266.29 397.376 265.885Z" fill="#000080"/>
<path d="M405.834 180.844L430.215 208.487C433.107 209.933 439.788 215.533 450.264 225.289C440.514 214.808 434.913 208.127 433.467 205.235L405.834 180.844Z" fill="#000080"/>
<path d="M388.672 250.81C388.479 250.342 388.381 249.853 388.381 249.345C388.381 248.837 388.479 248.348 388.672 247.879C388.864 247.406 389.145 246.991 389.501 246.636C389.861 246.276 390.275 245.999 390.744 245.802C391.213 245.609 391.701 245.511 392.21 245.511C392.718 245.511 393.206 245.609 393.68 245.802C394.149 245.999 394.563 246.276 394.919 246.636C395.279 246.991 395.555 247.406 395.753 247.879C395.945 248.348 396.044 248.837 396.044 249.345C396.044 249.853 395.945 250.342 395.753 250.81C395.555 251.279 395.279 251.694 394.919 252.054C394.563 252.414 394.149 252.69 393.68 252.883C393.206 253.08 392.718 253.179 392.21 253.179C391.701 253.179 391.213 253.08 390.744 252.883C390.275 252.69 389.861 252.414 389.501 252.054C389.145 251.694 388.864 251.279 388.672 250.81Z" fill="#000080"/>
<path d="M418.846 170.856L435.249 203.868C437.667 206.015 442.67 213.155 450.264 225.289C443.553 212.642 439.877 204.737 439.231 201.569L418.846 170.856Z" fill="#000080"/>
<path d="M384.166 233.994C384.102 233.49 384.132 232.992 384.265 232.503C384.398 232.01 384.615 231.566 384.926 231.161C385.237 230.757 385.612 230.431 386.051 230.174C386.491 229.923 386.964 229.76 387.468 229.696C387.971 229.627 388.469 229.661 388.958 229.794C389.446 229.923 389.895 230.145 390.3 230.456C390.7 230.761 391.03 231.136 391.287 231.576C391.539 232.02 391.697 232.489 391.766 232.992C391.83 233.5 391.8 233.994 391.667 234.487C391.534 234.976 391.317 235.425 391.006 235.829C390.695 236.229 390.32 236.56 389.881 236.811C389.441 237.068 388.973 237.226 388.464 237.295C387.961 237.359 387.468 237.329 386.974 237.196C386.486 237.063 386.037 236.846 385.632 236.535C385.232 236.224 384.902 235.849 384.65 235.41C384.393 234.971 384.236 234.497 384.166 233.994Z" fill="#000080"/>
<path d="M434 164.575L441.303 200.71C443.08 203.409 446.07 211.601 450.264 225.289C447.057 211.334 445.547 202.748 445.744 199.521L434 164.575Z" fill="#000080"/>
<path d="M384.166 216.585C384.236 216.081 384.393 215.608 384.65 215.168C384.902 214.729 385.232 214.354 385.632 214.043C386.037 213.737 386.486 213.515 386.974 213.382C387.468 213.254 387.961 213.219 388.464 213.283C388.973 213.352 389.441 213.51 389.881 213.767C390.32 214.019 390.695 214.349 391.006 214.754C391.317 215.154 391.534 215.603 391.667 216.091C391.8 216.585 391.83 217.083 391.766 217.586C391.697 218.09 391.539 218.563 391.287 219.002C391.03 219.442 390.7 219.817 390.3 220.128C389.895 220.433 389.446 220.656 388.958 220.789C388.469 220.917 387.971 220.952 387.468 220.887C386.964 220.818 386.491 220.66 386.051 220.404C385.612 220.152 385.237 219.822 384.926 219.417C384.615 219.017 384.398 218.568 384.265 218.075C384.132 217.586 384.102 217.088 384.166 216.585Z" fill="#000080"/>
<path d="M450.264 162.433L447.965 199.225C448.986 202.294 449.756 210.979 450.264 225.289C450.778 210.979 451.542 202.294 452.564 199.225L450.264 162.433Z" fill="#000080"/>
<path d="M388.672 199.768C388.864 199.299 389.145 198.884 389.501 198.524C389.861 198.164 390.275 197.888 390.744 197.695C391.213 197.498 391.701 197.404 392.21 197.404C392.718 197.404 393.206 197.498 393.68 197.695C394.149 197.888 394.563 198.164 394.919 198.524C395.279 198.884 395.555 199.299 395.753 199.768C395.945 200.236 396.044 200.725 396.044 201.233C396.044 201.742 395.945 202.23 395.753 202.704C395.555 203.173 395.279 203.587 394.919 203.947C394.563 204.303 394.149 204.584 393.68 204.776C393.206 204.969 392.718 205.067 392.21 205.067C391.701 205.067 391.213 204.969 390.744 204.776C390.275 204.584 389.861 204.303 389.501 203.947C389.145 203.587 388.864 203.173 388.672 202.704C388.479 202.23 388.381 201.742 388.381 201.233C388.381 200.725 388.479 200.236 388.672 199.768Z" fill="#000080"/>
<path d="M466.529 164.575L454.789 199.521C454.982 202.748 453.472 211.334 450.264 225.289C454.459 211.601 457.449 203.409 459.23 200.71L466.529 164.575Z" fill="#000080"/>
<path d="M397.376 184.693C397.682 184.288 398.057 183.957 398.496 183.706C398.94 183.449 399.409 183.291 399.913 183.222C400.416 183.158 400.914 183.193 401.408 183.321C401.896 183.454 402.345 183.676 402.745 183.982C403.15 184.293 403.48 184.668 403.732 185.107C403.988 185.546 404.146 186.02 404.21 186.523C404.28 187.027 404.245 187.525 404.117 188.019C403.983 188.507 403.761 188.956 403.455 189.356C403.145 189.76 402.77 190.091 402.33 190.343C401.891 190.599 401.418 190.757 400.914 190.826C400.411 190.89 399.913 190.856 399.424 190.728C398.931 190.594 398.486 190.372 398.082 190.066C397.677 189.756 397.351 189.381 397.095 188.941C396.843 188.502 396.68 188.028 396.616 187.525C396.547 187.022 396.582 186.523 396.715 186.035C396.843 185.541 397.065 185.092 397.376 184.693Z" fill="#000080"/>
<path d="M481.682 170.856L461.303 201.569C460.652 204.737 456.975 212.642 450.264 225.289C457.859 213.155 462.867 206.015 465.285 203.868L481.682 170.856Z" fill="#000080"/>
<path d="M409.683 172.381C410.083 172.07 410.532 171.853 411.02 171.72C411.514 171.587 412.007 171.557 412.515 171.621C413.019 171.69 413.487 171.848 413.927 172.105C414.371 172.356 414.746 172.687 415.052 173.087C415.363 173.491 415.585 173.94 415.713 174.429C415.846 174.922 415.876 175.416 415.812 175.924C415.747 176.427 415.585 176.896 415.333 177.34C415.076 177.779 414.751 178.154 414.346 178.46C413.941 178.771 413.497 178.993 413.004 179.122C412.515 179.255 412.017 179.289 411.514 179.22C411.01 179.156 410.537 178.993 410.097 178.742C409.658 178.485 409.283 178.159 408.972 177.755C408.661 177.35 408.444 176.906 408.311 176.413C408.183 175.924 408.148 175.426 408.212 174.922C408.281 174.419 408.439 173.945 408.696 173.506C408.948 173.067 409.278 172.692 409.683 172.381Z" fill="#000080"/>
<path d="M494.7 180.844L467.061 205.235C465.616 208.127 460.02 214.808 450.264 225.289C460.74 215.533 467.422 209.933 470.313 208.487L494.7 180.844Z" fill="#000080"/>
<path d="M424.753 163.677C425.222 163.484 425.71 163.385 426.218 163.385C426.727 163.385 427.215 163.484 427.684 163.677C428.153 163.869 428.567 164.145 428.927 164.506C429.288 164.866 429.564 165.28 429.756 165.749C429.954 166.218 430.053 166.711 430.053 167.22C430.053 167.728 429.954 168.216 429.756 168.685C429.564 169.154 429.288 169.568 428.927 169.929C428.567 170.289 428.153 170.565 427.684 170.758C427.215 170.955 426.727 171.049 426.218 171.049C425.71 171.049 425.222 170.955 424.753 170.758C424.284 170.565 423.87 170.289 423.509 169.929C423.149 169.568 422.873 169.154 422.68 168.685C422.483 168.216 422.389 167.728 422.389 167.22C422.389 166.711 422.483 166.218 422.68 165.749C422.873 165.28 423.149 164.866 423.509 164.506C423.87 164.145 424.284 163.869 424.753 163.677Z" fill="#000080"/>
<path d="M504.682 193.861L471.68 210.268C469.534 212.686 462.398 217.695 450.264 225.289C462.907 218.578 470.812 214.897 473.98 214.251L504.682 193.861Z" fill="#000080"/>
<path d="M441.565 159.171C442.068 159.102 442.567 159.137 443.055 159.27C443.548 159.398 443.993 159.62 444.397 159.931C444.797 160.237 445.128 160.612 445.384 161.056C445.636 161.496 445.794 161.964 445.863 162.468C445.927 162.976 445.897 163.469 445.764 163.963C445.631 164.451 445.414 164.9 445.103 165.305C444.792 165.705 444.417 166.035 443.978 166.292C443.539 166.544 443.07 166.701 442.562 166.771C442.058 166.835 441.565 166.805 441.071 166.672C440.583 166.539 440.134 166.322 439.729 166.011C439.329 165.7 438.999 165.325 438.747 164.886C438.491 164.446 438.333 163.973 438.264 163.469C438.199 162.966 438.229 162.468 438.362 161.979C438.496 161.486 438.713 161.042 439.024 160.637C439.334 160.232 439.709 159.907 440.149 159.65C440.588 159.398 441.061 159.236 441.565 159.171Z" fill="#000080"/>
<path d="M510.959 209.02L474.838 216.323C472.139 218.104 463.948 221.095 450.264 225.289C464.214 222.082 472.8 220.572 476.028 220.764L510.959 209.02Z" fill="#000080"/>
<path d="M458.969 159.171C459.472 159.236 459.941 159.398 460.385 159.65C460.824 159.907 461.199 160.232 461.505 160.637C461.816 161.042 462.038 161.486 462.166 161.979C462.3 162.468 462.334 162.966 462.265 163.469C462.201 163.973 462.038 164.446 461.786 164.886C461.53 165.325 461.204 165.7 460.8 166.011C460.395 166.322 459.951 166.539 459.457 166.672C458.969 166.805 458.47 166.835 457.967 166.771C457.464 166.701 456.99 166.544 456.551 166.292C456.112 166.035 455.737 165.705 455.426 165.305C455.12 164.9 454.898 164.451 454.765 163.963C454.636 163.469 454.602 162.976 454.671 162.468C454.735 161.964 454.893 161.496 455.15 161.056C455.401 160.612 455.732 160.237 456.136 159.931C456.536 159.62 456.985 159.398 457.474 159.27C457.967 159.137 458.466 159.102 458.969 159.171Z" fill="#000080"/>
<path d="M513.101 225.289L476.319 222.99C473.254 224.011 464.57 224.781 450.264 225.289C464.57 225.802 473.254 226.567 476.319 227.589L513.101 225.289Z" fill="#000080"/>
<path d="M475.776 163.677C476.25 163.869 476.664 164.145 477.019 164.506C477.38 164.866 477.656 165.28 477.853 165.749C478.046 166.218 478.144 166.711 478.144 167.22C478.144 167.728 478.046 168.216 477.853 168.685C477.656 169.154 477.38 169.568 477.019 169.929C476.664 170.289 476.25 170.565 475.776 170.758C475.307 170.955 474.819 171.049 474.31 171.049C473.802 171.049 473.314 170.955 472.845 170.758C472.376 170.565 471.961 170.289 471.601 169.929C471.241 169.568 470.965 169.154 470.772 168.685C470.58 168.216 470.481 167.728 470.481 167.22C470.481 166.711 470.58 166.218 470.772 165.749C470.965 165.28 471.241 164.866 471.601 164.506C471.961 164.145 472.376 163.869 472.845 163.677C473.314 163.484 473.802 163.385 474.31 163.385C474.819 163.385 475.307 163.484 475.776 163.677Z" fill="#000080"/>
<path d="M510.959 241.558L476.028 229.814C472.8 230.006 464.214 228.501 450.264 225.289C463.948 229.488 472.139 232.474 474.838 234.255L510.959 241.558Z" fill="#000080"/>
<path d="M490.851 172.381C491.255 172.692 491.581 173.067 491.838 173.506C492.089 173.945 492.252 174.419 492.316 174.922C492.381 175.426 492.351 175.924 492.218 176.413C492.089 176.906 491.867 177.35 491.556 177.755C491.251 178.159 490.876 178.485 490.431 178.742C489.992 178.993 489.523 179.156 489.02 179.22C488.512 179.289 488.018 179.255 487.525 179.122C487.036 178.993 486.587 178.771 486.188 178.46C485.783 178.154 485.452 177.779 485.201 177.34C484.944 176.896 484.786 176.427 484.717 175.924C484.653 175.416 484.688 174.922 484.816 174.429C484.949 173.94 485.171 173.491 485.477 173.087C485.788 172.687 486.163 172.356 486.602 172.105C487.041 171.848 487.515 171.69 488.018 171.621C488.522 171.557 489.02 171.587 489.509 171.72C490.002 171.853 490.446 172.07 490.851 172.381Z" fill="#000080"/>
<path d="M504.682 256.717L473.98 236.328C470.812 235.681 462.907 232 450.264 225.289C462.398 232.888 469.534 237.892 471.68 240.315L504.682 256.717Z" fill="#000080"/>
<path d="M503.158 184.693C503.468 185.092 503.686 185.541 503.819 186.035C503.947 186.523 503.982 187.022 503.917 187.525C503.848 188.028 503.69 188.502 503.434 188.941C503.182 189.381 502.852 189.756 502.452 190.066C502.047 190.372 501.598 190.594 501.11 190.728C500.616 190.856 500.123 190.89 499.615 190.826C499.111 190.757 498.642 190.599 498.203 190.343C497.759 190.091 497.389 189.76 497.078 189.356C496.767 188.956 496.545 188.507 496.417 188.019C496.284 187.525 496.254 187.027 496.318 186.523C496.382 186.02 496.545 185.546 496.797 185.107C497.054 184.668 497.379 184.293 497.784 183.982C498.188 183.676 498.633 183.454 499.126 183.321C499.615 183.193 500.113 183.158 500.616 183.222C501.12 183.291 501.593 183.449 502.032 183.706C502.472 183.957 502.847 184.288 503.158 184.693Z" fill="#000080"/>
<path d="M494.7 269.734L470.313 242.091C467.422 240.645 460.74 235.045 450.264 225.289C460.02 235.77 465.616 242.456 467.061 245.343L494.7 269.734Z" fill="#000080"/>
<path d="M511.857 199.768C512.054 200.236 512.148 200.725 512.148 201.233C512.148 201.742 512.054 202.23 511.857 202.704C511.665 203.173 511.388 203.587 511.028 203.947C510.668 204.303 510.253 204.584 509.785 204.776C509.316 204.969 508.827 205.067 508.319 205.067C507.811 205.067 507.322 204.969 506.853 204.776C506.385 204.584 505.97 204.303 505.61 203.947C505.25 203.587 504.973 203.173 504.781 202.704C504.584 202.23 504.485 201.742 504.485 201.233C504.485 200.725 504.584 200.236 504.781 199.768C504.973 199.299 505.25 198.884 505.61 198.524C505.97 198.164 506.385 197.888 506.853 197.695C507.322 197.498 507.811 197.404 508.319 197.404C508.827 197.404 509.316 197.498 509.785 197.695C510.253 197.888 510.668 198.164 511.028 198.524C511.388 198.884 511.665 199.299 511.857 199.768Z" fill="#000080"/>
<path d="M481.682 279.727L465.285 246.71C462.867 244.568 457.859 237.428 450.264 225.289C456.975 237.936 460.652 245.846 461.303 249.009L481.682 279.727Z" fill="#000080"/>
<path d="M516.362 216.585C516.431 217.088 516.397 217.586 516.264 218.075C516.135 218.568 515.913 219.017 515.602 219.417C515.296 219.822 514.921 220.152 514.482 220.404C514.038 220.66 513.569 220.818 513.066 220.887C512.563 220.952 512.064 220.917 511.571 220.789C511.082 220.656 510.633 220.433 510.234 220.128C509.829 219.817 509.498 219.442 509.247 219.002C508.99 218.563 508.832 218.09 508.768 217.586C508.699 217.083 508.734 216.585 508.862 216.091C508.995 215.603 509.217 215.154 509.523 214.754C509.834 214.349 510.209 214.019 510.648 213.767C511.087 213.51 511.561 213.352 512.064 213.283C512.568 213.219 513.066 213.254 513.555 213.382C514.048 213.515 514.492 213.737 514.897 214.043C515.301 214.354 515.627 214.729 515.884 215.168C516.135 215.608 516.298 216.081 516.362 216.585Z" fill="#000080"/>
<path d="M466.529 286.003L459.23 249.868C457.449 247.174 454.459 238.977 450.264 225.289C453.472 239.244 454.982 247.835 454.789 251.057L466.529 286.003Z" fill="#000080"/>
<path d="M462.527 225.289C462.527 226.093 462.448 226.893 462.29 227.682C462.132 228.472 461.9 229.237 461.594 229.982C461.283 230.727 460.908 231.433 460.459 232.104C460.015 232.775 459.507 233.392 458.934 233.964C458.367 234.531 457.745 235.04 457.079 235.489C456.408 235.933 455.702 236.313 454.957 236.619C454.212 236.93 453.447 237.162 452.658 237.319C451.868 237.477 451.069 237.556 450.264 237.556C449.46 237.556 448.661 237.477 447.871 237.319C447.082 237.162 446.317 236.93 445.572 236.619C444.831 236.313 444.121 235.933 443.455 235.489C442.784 235.04 442.167 234.531 441.594 233.964C441.027 233.392 440.519 232.775 440.07 232.104C439.626 231.433 439.246 230.727 438.94 229.982C438.629 229.237 438.397 228.472 438.239 227.682C438.081 226.893 438.007 226.093 438.007 225.289C438.007 224.485 438.081 223.685 438.239 222.896C438.397 222.106 438.629 221.341 438.94 220.596C439.246 219.851 439.626 219.146 440.07 218.474C440.519 217.808 441.027 217.187 441.594 216.619C442.167 216.047 442.784 215.538 443.455 215.089C444.121 214.645 444.831 214.265 445.572 213.959C446.317 213.649 447.082 213.417 447.871 213.259C448.661 213.106 449.46 213.027 450.264 213.027C451.069 213.027 451.868 213.106 452.658 213.259C453.447 213.417 454.212 213.649 454.957 213.959C455.702 214.265 456.408 214.645 457.079 215.089C457.745 215.538 458.367 216.047 458.934 216.619C459.507 217.187 460.015 217.808 460.459 218.474C460.908 219.146 461.283 219.851 461.594 220.596C461.9 221.341 462.132 222.106 462.29 222.896C462.448 223.685 462.527 224.485 462.527 225.289Z" fill="#000080"/>
</g>
<path d="M900 300H0V450H900V300Z" fill="#128807"/>
</g>
<defs>
<clipPath id="clip0_764_183">
<rect width="900" height="450" fill="white"/>
</clipPath>
</defs>
</svg>
