<svg width="900" height="450" viewBox="0 0 900 450" fill="none" xmlns="http://www.w3.org/2000/svg">
<g clip-path="url(#clip0_764_754)">
<path d="M900 0H0V450H900V0Z" fill="#1E1E1E"/>
<mask id="mask0_764_754" style="mask-type:luminance" maskUnits="userSpaceOnUse" x="0" y="0" width="900" height="450">
<path d="M900 0H0V450H900V0Z" fill="white"/>
</mask>
<g mask="url(#mask0_764_754)">
<mask id="mask1_764_754" style="mask-type:luminance" maskUnits="userSpaceOnUse" x="0" y="0" width="900" height="450">
<path d="M0 0H900V450H0V0Z" fill="white"/>
</mask>
<g mask="url(#mask1_764_754)">
<path d="M0 0H900V450H0V0Z" fill="white"/>
<path d="M0 0H900V450H0V0Z" fill="white"/>
</g>
<mask id="mask2_764_754" style="mask-type:luminance" maskUnits="userSpaceOnUse" x="-1" y="0" width="902" height="450">
<path d="M-1 -3.37219e-06H901V450H-1V-3.37219e-06Z" fill="white"/>
</mask>
<g mask="url(#mask2_764_754)">
<path d="M-0.714164 -3.37219e-06H900.881V450H-0.714164V-3.37219e-06Z" fill="#CE1126"/>
</g>
<mask id="mask3_764_754" style="mask-type:luminance" maskUnits="userSpaceOnUse" x="-1" y="150" width="902" height="300">
<path d="M-1 150H901V450H-1V150Z" fill="white"/>
</mask>
<g mask="url(#mask3_764_754)">
<path d="M-0.714164 150.443H900.881V450H-0.714164V150.443Z" fill="white"/>
</g>
<mask id="mask4_764_754" style="mask-type:luminance" maskUnits="userSpaceOnUse" x="-1" y="300" width="902" height="150">
<path d="M-1 300H901V450H-1V300Z" fill="white"/>
</mask>
<g mask="url(#mask4_764_754)">
<path d="M-0.714164 300.887H900.881V450H-0.714164V300.887Z" fill="black"/>
</g>
<path d="M515.453 196.641C514.536 196.161 513.505 195.385 513.167 194.917C512.651 194.198 512.948 194.167 515.073 194.745C518.87 195.776 521.323 195.37 523.755 193.312L525.896 191.505L528.422 192.792C529.813 193.49 531.286 193.979 531.714 193.865C532.807 193.578 535.073 190.667 535 189.661C534.911 188.417 535.958 188.729 536.469 190.094C537.474 192.766 536.005 195.839 533.411 196.521C532.141 196.849 530.974 196.729 529.052 196.057C526.698 195.234 526.292 195.25 525.109 196.151C522.458 198.182 518.771 198.375 515.453 196.641ZM524.849 188.047C523.927 186.87 522.818 182.432 523.177 181.344C523.49 180.396 523.818 180.208 524.672 180.479C526.177 180.948 526.526 181.99 526.302 185.505C526.125 188.37 525.703 189.12 524.849 188.047ZM414.198 184.854C413.896 187.005 418.01 192.349 419.865 193.312C418.604 193.88 417.031 193.625 415.875 194.26C409.406 200.734 385.776 223.786 381.458 229.297C394.24 229.552 408.417 229.125 420.401 228.573C420.391 219.885 428.625 219.437 434.135 216.271C436.974 220.74 444.094 220.401 444.984 227.125C444.984 235.177 444.995 247.307 444.995 256.062H335.807C333.885 264.552 326.229 271.026 315.562 268.359C318.859 264.911 324.417 263.724 326.406 258.958C328.089 248.521 323.057 242.073 319.802 236.151C325.182 234.193 326 233.703 331.474 230.026C327.63 241.703 341.453 240.417 351.719 240.151C352.063 236.187 351.865 231.505 348.823 230.927C352.75 229.5 353.401 229.016 359.672 223.693V239.427C384.068 239.427 410.38 239.245 435.286 239.245C435.286 234.318 436.589 226.411 432.698 226.411C428.979 226.411 432.521 236.536 429.63 236.536H371.24C371.24 234.359 371.182 229.807 371.182 226.526C373.656 224.047 373.365 224.266 390.271 207.344C391.958 205.651 403.818 194.932 414.198 184.854ZM560.156 184.437C564.234 186.635 567.464 189.672 572.453 190.953C571.87 193.021 570.031 193.839 569.552 196.016V240.146C575.125 241.375 576.302 238.214 578.953 236.531C579.677 243.594 584.172 250.516 584.016 256.062H560.151C560.156 232.193 560.156 208.318 560.156 184.437ZM528.344 208.073C528.344 208.073 537.021 200.74 537.021 200.458V238.969L543.271 238.964C543.271 224.286 543.078 209.406 543.078 195.771C545.615 193.229 550.583 189.552 551.828 186.984V255.958C534.219 255.958 501.359 255.979 497.021 255.979C496.208 241.661 496.073 226.833 512.75 230.026V224.182C512.245 223.182 511.328 224.422 511.115 223.125C513.766 220.469 514.661 219.797 521.833 213.526C521.833 221.089 521.964 238.943 521.964 238.943C523.714 238.943 527.13 238.953 528.281 238.953C528.286 238.953 528.344 209.062 528.344 208.073ZM507.771 238.578C508.943 240.344 512.938 240.312 512.75 237.344C512.078 234.896 506.828 235.828 507.771 238.578Z" fill="#007A3D"/>
<path d="M352.453 264.193C352.453 264.635 352.37 265.062 352.198 265.474C352.026 265.885 351.786 266.245 351.474 266.563C351.161 266.875 350.797 267.115 350.385 267.286C349.979 267.458 349.552 267.542 349.104 267.542C348.661 267.542 348.234 267.458 347.828 267.286C347.417 267.115 347.052 266.875 346.74 266.563C346.427 266.245 346.182 265.885 346.016 265.474C345.844 265.062 345.76 264.635 345.76 264.193C345.76 263.75 345.844 263.323 346.016 262.911C346.182 262.5 346.427 262.141 346.74 261.823C347.052 261.51 347.417 261.271 347.828 261.099C348.234 260.927 348.661 260.844 349.104 260.844C349.552 260.844 349.979 260.927 350.385 261.099C350.797 261.271 351.161 261.51 351.474 261.823C351.786 262.141 352.026 262.5 352.198 262.911C352.37 263.323 352.453 263.75 352.453 264.193Z" fill="#007A3D"/>
<path d="M452.391 184.51C456.469 186.703 459.698 189.745 464.688 191.021C464.109 193.089 462.266 193.906 461.792 196.083V240.214C467.365 241.443 468.536 238.281 471.188 236.599C471.911 243.661 476.411 250.583 476.25 256.13H452.391C452.391 232.26 452.391 208.385 452.391 184.51Z" fill="#007A3D"/>
</g>
</g>
<defs>
<clipPath id="clip0_764_754">
<rect width="900" height="450" fill="white"/>
</clipPath>
</defs>
</svg>
