<svg width="900" height="450" viewBox="0 0 900 450" fill="none" xmlns="http://www.w3.org/2000/svg">
<g clip-path="url(#clip0_764_854)">
<path d="M900 0H0V450H900V0Z" fill="#1E1E1E"/>
<mask id="mask0_764_854" style="mask-type:luminance" maskUnits="userSpaceOnUse" x="0" y="0" width="900" height="450">
<path d="M900 0H0V450H900V0Z" fill="white"/>
</mask>
<g mask="url(#mask0_764_854)">
<path d="M900 0H0V450H900V0Z" fill="#DA0000"/>
<path d="M900 0H0V300H900V0Z" fill="white"/>
<path d="M900 0H0V150H900V0Z" fill="#239F40"/>
<path d="M419.433 271.48C430.713 275.143 442.914 274.789 453.963 270.479C465.011 266.169 474.226 258.169 480.04 247.838C485.854 237.506 487.909 225.482 485.856 213.808C483.803 202.134 477.769 191.53 468.778 183.799C474.628 192.451 477.953 202.558 478.381 212.991C478.809 223.423 476.323 233.769 471.202 242.87C466.08 251.97 458.525 259.467 449.382 264.52C440.239 269.573 429.869 271.983 419.433 271.48Z" fill="#DA0000"/>
<path d="M485.089 261.638C492.503 257.356 498.468 250.959 502.221 243.268C505.974 235.576 507.344 226.94 506.155 218.465C504.965 209.991 501.271 202.064 495.546 195.701C489.821 189.338 482.325 184.828 474.018 182.75C479.937 187.196 484.919 192.767 488.68 199.141C492.441 205.516 494.906 212.569 495.935 219.898C496.963 227.226 496.535 234.685 494.674 241.848C492.813 249.01 489.556 255.735 485.089 261.638Z" fill="#DA0000"/>
<path d="M450.286 280.684L447.471 224.434L450.286 180.149C451.996 182.536 454.281 184.453 456.929 185.723V218.786L454.665 274.659L450.286 280.684Z" fill="#DA0000"/>
<path d="M449.16 176.621L450.286 177.678C451.431 179.305 453.134 180.455 455.072 180.91C457.009 181.365 459.047 181.093 460.797 180.146C462.547 179.199 463.889 177.642 464.567 175.772C465.244 173.902 465.211 171.848 464.474 170C464.183 171.539 463.429 172.952 462.311 174.049C461.194 175.147 459.767 175.876 458.223 176.14C456.678 176.404 455.09 176.189 453.671 175.525C452.253 174.86 451.071 173.778 450.286 172.423" fill="#DA0000"/>
<path d="M481.139 271.48C469.859 275.143 457.658 274.789 446.609 270.479C435.56 266.169 426.346 258.169 420.532 247.838C414.717 237.506 412.662 225.482 414.715 213.808C416.768 202.134 422.803 191.53 431.793 183.799C425.943 192.451 422.618 202.558 422.19 212.991C421.762 223.423 424.248 233.769 429.37 242.87C434.492 251.97 442.047 259.467 451.19 264.52C460.333 269.573 470.703 271.983 481.139 271.48Z" fill="#DA0000"/>
<path d="M415.482 261.638C408.069 257.356 402.103 250.959 398.35 243.268C394.597 235.576 393.227 226.94 394.417 218.465C395.606 209.991 399.3 202.064 405.025 195.701C410.751 189.338 418.247 184.828 426.553 182.75C420.635 187.196 415.652 192.767 411.891 199.141C408.13 205.516 405.665 212.569 404.637 219.898C403.608 227.226 404.037 234.685 405.898 241.848C407.759 249.01 411.016 255.735 415.482 261.638Z" fill="#DA0000"/>
<path d="M450.286 280.684L453.1 224.434L450.286 180.149C448.576 182.536 446.291 184.453 443.642 185.723V218.786L445.906 274.659L450.286 280.684Z" fill="#DA0000"/>
<path d="M451.411 176.621L450.286 177.678C449.141 179.305 447.438 180.455 445.5 180.91C443.562 181.365 441.525 181.093 439.775 180.146C438.024 179.199 436.683 177.642 436.005 175.772C435.327 173.902 435.36 171.848 436.098 170C436.388 171.539 437.143 172.952 438.26 174.049C439.378 175.147 440.805 175.876 442.349 176.14C443.893 176.404 445.482 176.189 446.9 175.525C448.319 174.86 449.5 173.778 450.286 172.423" fill="#DA0000"/>
<path d="M-2 126.75H43.5289M-0.248889 142.5V133.75H13.76V140.75H27.7689V133.75H19.0133M5.00444 140.75H8.50667M43.5289 140.75H34.7733V133.75H48.7822M48.7822 125V140.75H62.7911V125M55.7867 125V140.75" stroke="white" stroke-width="2.8"/>
<path d="M-2 149.5H29.52M33.0222 149.5H64.5422" stroke="white" stroke-width="5.6"/>
<path d="M-2 299.5H29.52M33.0222 299.5H64.5422" stroke="white" stroke-width="5.6"/>
<path d="M-2 308.25H43.5289M-0.248889 324V315.25H13.76V322.25H27.7689V315.25H19.0133M5.00444 322.25H8.50667M43.5289 322.25H34.7733V315.25H48.7822M48.7822 306.5V322.25H62.7911V306.5M55.7867 306.5V322.25" stroke="white" stroke-width="2.8"/>
<path d="M68.0444 126.75H113.573M69.7956 142.5V133.75H83.8044V140.75H97.8133V133.75H89.0578M75.0489 140.75H78.5511M113.573 140.75H104.818V133.75H118.827M118.827 125V140.75H132.836V125M125.831 125V140.75" stroke="white" stroke-width="2.8"/>
<path d="M68.0444 149.5H99.5644M103.067 149.5H134.587" stroke="white" stroke-width="5.6"/>
<path d="M68.0444 299.5H99.5644M103.067 299.5H134.587" stroke="white" stroke-width="5.6"/>
<path d="M68.0444 308.25H113.573M69.7956 324V315.25H83.8044V322.25H97.8133V315.25H89.0578M75.0489 322.25H78.5511M113.573 322.25H104.818V315.25H118.827M118.827 306.5V322.25H132.836V306.5M125.831 306.5V322.25" stroke="white" stroke-width="2.8"/>
<path d="M138.089 126.75H183.618M139.84 142.5V133.75H153.849V140.75H167.858V133.75H159.102M145.093 140.75H148.596M183.618 140.75H174.862V133.75H188.871M188.871 125V140.75H202.88V125M195.876 125V140.75" stroke="white" stroke-width="2.8"/>
<path d="M138.089 149.5H169.609M173.111 149.5H204.631" stroke="white" stroke-width="5.6"/>
<path d="M138.089 299.5H169.609M173.111 299.5H204.631" stroke="white" stroke-width="5.6"/>
<path d="M138.089 308.25H183.618M139.84 324V315.25H153.849V322.25H167.858V315.25H159.102M145.093 322.25H148.596M183.618 322.25H174.862V315.25H188.871M188.871 306.5V322.25H202.88V306.5M195.876 306.5V322.25" stroke="white" stroke-width="2.8"/>
<path d="M208.133 126.75H253.662M209.884 142.5V133.75H223.893V140.75H237.902V133.75H229.147M215.138 140.75H218.64M253.662 140.75H244.907V133.75H258.916M258.916 125V140.75H272.924V125M265.92 125V140.75" stroke="white" stroke-width="2.8"/>
<path d="M208.133 149.5H239.653M243.156 149.5H274.676" stroke="white" stroke-width="5.6"/>
<path d="M208.133 299.5H239.653M243.156 299.5H274.676" stroke="white" stroke-width="5.6"/>
<path d="M208.133 308.25H253.662M209.884 324V315.25H223.893V322.25H237.902V315.25H229.147M215.138 322.25H218.64M253.662 322.25H244.907V315.25H258.916M258.916 306.5V322.25H272.924V306.5M265.92 306.5V322.25" stroke="white" stroke-width="2.8"/>
<path d="M278.178 126.75H323.707M279.929 142.5V133.75H293.938V140.75H307.947V133.75H299.191M285.182 140.75H288.684M323.707 140.75H314.951V133.75H328.96M328.96 125V140.75H342.969V125M335.964 125V140.75" stroke="white" stroke-width="2.8"/>
<path d="M278.178 149.5H309.698M313.2 149.5H344.72" stroke="white" stroke-width="5.6"/>
<path d="M278.178 299.5H309.698M313.2 299.5H344.72" stroke="white" stroke-width="5.6"/>
<path d="M278.178 308.25H323.707M279.929 324V315.25H293.938V322.25H307.947V315.25H299.191M285.182 322.25H288.684M323.707 322.25H314.951V315.25H328.96M328.96 306.5V322.25H342.969V306.5M335.964 306.5V322.25" stroke="white" stroke-width="2.8"/>
<path d="M348.222 126.75H393.751M349.973 142.5V133.75H363.982V140.75H377.991V133.75H369.236M355.227 140.75H358.729M393.751 140.75H384.996V133.75H399.004M399.004 125V140.75H413.013V125M406.009 125V140.75" stroke="white" stroke-width="2.8"/>
<path d="M348.222 149.5H379.742M383.244 149.5H414.764" stroke="white" stroke-width="5.6"/>
<path d="M348.222 299.5H379.742M383.244 299.5H414.764" stroke="white" stroke-width="5.6"/>
<path d="M348.222 308.25H393.751M349.973 324V315.25H363.982V322.25H377.991V315.25H369.236M355.227 322.25H358.729M393.751 322.25H384.996V315.25H399.004M399.004 306.5V322.25H413.013V306.5M406.009 306.5V322.25" stroke="white" stroke-width="2.8"/>
<path d="M418.267 126.75H463.796M420.018 142.5V133.75H434.027V140.75H448.036V133.75H439.28M425.271 140.75H428.773M463.796 140.75H455.04V133.75H469.049M469.049 125V140.75H483.058V125M476.053 125V140.75" stroke="white" stroke-width="2.8"/>
<path d="M418.267 149.5H449.787M453.289 149.5H484.809" stroke="white" stroke-width="5.6"/>
<path d="M418.267 299.5H449.787M453.289 299.5H484.809" stroke="white" stroke-width="5.6"/>
<path d="M418.267 308.25H463.796M420.018 324V315.25H434.027V322.25H448.036V315.25H439.28M425.271 322.25H428.773M463.796 322.25H455.04V315.25H469.049M469.049 306.5V322.25H483.058V306.5M476.053 306.5V322.25" stroke="white" stroke-width="2.8"/>
<path d="M488.311 126.75H533.84M490.062 142.5V133.75H504.071V140.75H518.08V133.75H509.324M495.316 140.75H498.818M533.84 140.75H525.084V133.75H539.093M539.093 125V140.75H553.102V125M546.098 125V140.75" stroke="white" stroke-width="2.8"/>
<path d="M488.311 149.5H519.831M523.333 149.5H554.853" stroke="white" stroke-width="5.6"/>
<path d="M488.311 299.5H519.831M523.333 299.5H554.853" stroke="white" stroke-width="5.6"/>
<path d="M488.311 308.25H533.84M490.062 324V315.25H504.071V322.25H518.08V315.25H509.324M495.316 322.25H498.818M533.84 322.25H525.084V315.25H539.093M539.093 306.5V322.25H553.102V306.5M546.098 306.5V322.25" stroke="white" stroke-width="2.8"/>
<path d="M558.356 126.75H603.884M560.107 142.5V133.75H574.116V140.75H588.124V133.75H579.369M565.36 140.75H568.862M603.884 140.75H595.129V133.75H609.138M609.138 125V140.75H623.147V125M616.142 125V140.75" stroke="white" stroke-width="2.8"/>
<path d="M558.356 149.5H589.876M593.378 149.5H624.898" stroke="white" stroke-width="5.6"/>
<path d="M558.356 299.5H589.876M593.378 299.5H624.898" stroke="white" stroke-width="5.6"/>
<path d="M558.356 308.25H603.884M560.107 324V315.25H574.116V322.25H588.124V315.25H579.369M565.36 322.25H568.862M603.884 322.25H595.129V315.25H609.138M609.138 306.5V322.25H623.147V306.5M616.142 306.5V322.25" stroke="white" stroke-width="2.8"/>
<path d="M628.4 126.75H673.929M630.151 142.5V133.75H644.16V140.75H658.169V133.75H649.413M635.404 140.75H638.907M673.929 140.75H665.173V133.75H679.182M679.182 125V140.75H693.191V125M686.187 125V140.75" stroke="white" stroke-width="2.8"/>
<path d="M628.4 149.5H659.92M663.422 149.5H694.942" stroke="white" stroke-width="5.6"/>
<path d="M628.4 299.5H659.92M663.422 299.5H694.942" stroke="white" stroke-width="5.6"/>
<path d="M628.4 308.25H673.929M630.151 324V315.25H644.16V322.25H658.169V315.25H649.413M635.404 322.25H638.907M673.929 322.25H665.173V315.25H679.182M679.182 306.5V322.25H693.191V306.5M686.187 306.5V322.25" stroke="white" stroke-width="2.8"/>
<path d="M698.444 126.75H743.973M700.196 142.5V133.75H714.204V140.75H728.213V133.75H719.458M705.449 140.75H708.951M743.973 140.75H735.218V133.75H749.227M749.227 125V140.75H763.236V125M756.231 125V140.75" stroke="white" stroke-width="2.8"/>
<path d="M698.444 149.5H729.964M733.467 149.5H764.987" stroke="white" stroke-width="5.6"/>
<path d="M698.444 299.5H729.964M733.467 299.5H764.987" stroke="white" stroke-width="5.6"/>
<path d="M698.444 308.25H743.973M700.196 324V315.25H714.204V322.25H728.213V315.25H719.458M705.449 322.25H708.951M743.973 322.25H735.218V315.25H749.227M749.227 306.5V322.25H763.236V306.5M756.231 306.5V322.25" stroke="white" stroke-width="2.8"/>
<path d="M768.356 126.75H813.884M770.107 142.5V133.75H784.116V140.75H798.124V133.75H789.369M775.36 140.75H778.862M813.884 140.75H805.129V133.75H819.138M819.138 125V140.75H833.147V125M826.142 125V140.75" stroke="white" stroke-width="2.8"/>
<path d="M768.356 149.5H799.876M803.378 149.5H834.898" stroke="white" stroke-width="5.6"/>
<path d="M768.356 299.5H799.876M803.378 299.5H834.898" stroke="white" stroke-width="5.6"/>
<path d="M768.356 308.25H813.884M770.107 324V315.25H784.116V322.25H798.124V315.25H789.369M775.36 322.25H778.862M813.884 322.25H805.129V315.25H819.138M819.138 306.5V322.25H833.147V306.5M826.142 306.5V322.25" stroke="white" stroke-width="2.8"/>
<path d="M838.4 126.75H883.929M840.151 142.5V133.75H854.16V140.75H868.169V133.75H859.413M845.404 140.75H848.907M883.929 140.75H875.173V133.75H889.182M889.182 125V140.75H903.191V125M896.187 125V140.75" stroke="white" stroke-width="2.8"/>
<path d="M838.4 149.5H869.92M873.422 149.5H904.942" stroke="white" stroke-width="5.6"/>
<path d="M838.4 299.5H869.92M873.422 299.5H904.942" stroke="white" stroke-width="5.6"/>
<path d="M838.4 308.25H883.929M840.151 324V315.25H854.16V322.25H868.169V315.25H859.413M845.404 322.25H848.907M883.929 322.25H875.173V315.25H889.182M889.182 306.5V322.25H903.191V306.5M896.187 306.5V322.25" stroke="white" stroke-width="2.8"/>
</g>
</g>
<defs>
<clipPath id="clip0_764_854">
<rect width="900" height="450" fill="white"/>
</clipPath>
</defs>
</svg>
