<svg width="900" height="450" viewBox="0 0 900 450" fill="none" xmlns="http://www.w3.org/2000/svg">
<g clip-path="url(#clip0_764_984)">
<path d="M900 0H0V450H900V0Z" fill="#1E1E1E"/>
<mask id="mask0_764_984" style="mask-type:luminance" maskUnits="userSpaceOnUse" x="0" y="0" width="900" height="450">
<path d="M900 0H0V450H900V0Z" fill="white"/>
</mask>
<g mask="url(#mask0_764_984)">
<mask id="mask1_764_984" style="mask-type:luminance" maskUnits="userSpaceOnUse" x="0" y="0" width="900" height="450">
<path d="M0 0H900V450H0V0Z" fill="white"/>
</mask>
<g mask="url(#mask1_764_984)">
<path d="M0 0H900V450H0V0Z" fill="white"/>
<path d="M0 0H900V450H0V0Z" fill="white"/>
</g>
<mask id="mask2_764_984" style="mask-type:luminance" maskUnits="userSpaceOnUse" x="0" y="0" width="300" height="450">
<path d="M0 0H300V450H0V0Z" fill="white"/>
</mask>
<g mask="url(#mask2_764_984)">
<path d="M0.151041 -3.37219e-06H299.161V599.002H0.151041V-3.37219e-06Z" fill="#009246"/>
</g>
<mask id="mask3_764_984" style="mask-type:luminance" maskUnits="userSpaceOnUse" x="300" y="0" width="300" height="450">
<path d="M300 -3.37219e-06H600V450H300V-3.37219e-06Z" fill="white"/>
</mask>
<g mask="url(#mask3_764_984)">
<path d="M300.495 -3.37219e-06H599.505V599.002H300.495V-3.37219e-06Z" fill="white"/>
</g>
<mask id="mask4_764_984" style="mask-type:luminance" maskUnits="userSpaceOnUse" x="600" y="0" width="300" height="450">
<path d="M600 -3.37219e-06H900V450H600V-3.37219e-06Z" fill="white"/>
</mask>
<g mask="url(#mask4_764_984)">
<path d="M600.839 -3.37219e-06H899.849V599.002H600.839V-3.37219e-06Z" fill="#CE2B37"/>
</g>
</g>
</g>
<defs>
<clipPath id="clip0_764_984">
<rect width="900" height="450" fill="white"/>
</clipPath>
</defs>
</svg>
