<svg width="900" height="450" viewBox="0 0 900 450" fill="none" xmlns="http://www.w3.org/2000/svg">
<rect width="900" height="450" fill="#1E1E1E"/>
<g clip-path="url(#clip0_0_1)">
<path d="M0 0H900V450H0V0Z" fill="white"/>
<mask id="mask0_0_1" style="mask-type:luminance" maskUnits="userSpaceOnUse" x="0" y="0" width="900" height="450">
<path d="M0 0H900V450H0V0Z" fill="white"/>
</mask>
<g mask="url(#mask0_0_1)">
<path d="M0 0L900 450ZM0 450L900 0Z" fill="black"/>
<path d="M0 0L900 450M0 450L900 0" stroke="#DF112D" stroke-width="40"/>
</g>
<path d="M488.725 71.9C498.337 110.925 493.069 159.125 449.602 185.875C406.11 159.125 400.842 110.925 410.454 71.9C420.691 62.575 467.279 56.825 488.725 71.9Z" fill="#E8112D" stroke="black" stroke-width="0.015"/>
<path d="M449.527 64.075C465.456 64.075 480.311 68.3 489.074 73.775C490.772 60.3 496.864 46.85 504.054 36.675C496.564 36.525 493.194 40.525 493.119 44.675C491.247 39.35 483.881 39.675 481.634 42.55C489.848 48.1 483.507 57.95 476.092 55.925C472.596 54.975 470.774 52.55 470.1 49C471.095 48.9324 472.031 48.4985 472.727 47.7818C473.422 47.0651 473.828 46.1163 473.867 45.1177C473.906 44.1192 473.575 43.1414 472.938 42.3725C472.301 41.6036 471.402 41.0978 470.414 40.9524C469.427 40.807 468.421 41.0323 467.589 41.5849C466.758 42.1375 466.16 42.9784 465.91 43.946C465.66 44.9135 465.777 45.9393 466.237 46.8261C466.697 47.713 467.468 48.3982 468.402 48.75C467.46 50.3787 466.018 51.6597 464.291 52.4028C462.564 53.1459 460.643 53.3115 458.815 52.875C454.92 51.775 453.272 48.25 453.272 45.125C453.272 37 461.087 35.75 463.434 37.15C463.284 31.675 454.695 27.3 452.024 31.825C453.652 29.0005 454.291 25.712 453.838 22.4824C453.386 19.2527 451.869 16.267 449.527 14C444.209 19 444.059 26.5 447.031 31.825C444.384 27.3 435.796 31.675 435.621 37.15C437.968 35.75 445.782 37 445.782 45.15C445.844 46.8736 445.334 48.5692 444.331 49.9715C443.328 51.3737 441.889 52.4036 440.24 52.9C438.409 53.3261 436.491 53.1501 434.768 52.398C433.046 51.646 431.611 50.3579 430.677 48.725C431.603 48.3586 432.362 47.663 432.808 46.7716C433.253 45.8801 433.355 44.8553 433.093 43.8934C432.831 42.9315 432.224 42.1001 431.388 41.5584C430.553 41.0167 429.547 40.8028 428.563 40.9576C427.579 41.1123 426.687 41.6249 426.058 42.3972C425.428 43.1695 425.105 44.1472 425.15 45.1432C425.196 46.1391 425.607 47.0833 426.304 47.7949C427.001 48.5066 427.936 48.9356 428.93 49C428.281 52.55 426.433 54.975 422.963 55.925C415.548 57.95 409.231 48.1 417.42 42.55C415.173 39.65 407.808 39.35 405.935 44.65C405.86 40.525 402.49 36.525 395 36.675C402.19 46.85 408.282 60.3 409.98 73.775C418.743 68.275 433.598 64.075 449.527 64.075Z" fill="#F9DD16" stroke="black" stroke-width="0.015"/>
<path d="M482.583 102.325C481.634 102.575 481.634 103.825 481.135 103.825C483.632 103.75 484.83 103.05 485.604 101.8C485.055 102.3 485.529 103.25 485.354 103.475C487.177 102.85 488.051 101.275 487.402 100.225C487.826 100.825 489 101.15 489.399 101.2C488.101 100.2 489 97.875 486.952 96.7C487.626 96.65 488.95 97.45 489.324 98.35C489 96.275 488.7 94.95 487.002 93.8C487.177 94 488.151 94.2 488.55 93.8C488.112 93.5365 487.756 93.1559 487.523 92.701C487.289 92.2461 487.186 91.735 487.227 91.225C487.352 90.225 486.678 89.975 485.379 90.325C483.615 90.6346 481.827 90.7852 480.037 90.775C476.816 90.775 474.02 90.775 471.348 88.925C475.343 90.6 480.436 87.1 480.436 84.2C480.436 81 476.491 78.375 468.527 80.125C460.538 81.875 450.826 81.125 450.826 78.475C450.826 75.8 457.791 75.45 461.361 75.975C464.932 76.55 467.503 76.9 474.194 74.525C472.547 75.175 467.229 75.35 463.009 74.15C458.79 72.95 448.429 72.95 448.354 78.55C448.254 84.15 459.389 83.65 468.976 82.225C474.569 81.4 477.515 81.975 477.515 83.8C477.515 85.55 472.372 86.275 468.427 85.8C464.182 85.2518 459.87 85.601 455.769 86.825C451.874 87.975 449.178 86.825 444.858 87.575C442.786 87.925 437.718 87.575 435.221 83.425C433.673 84.525 429.055 86.825 428.281 89.075C427.157 91.15 427.906 93.2 429.379 95.225C431.227 97.775 428.455 97.375 426.483 97.475C423.787 97.6 420.166 97.175 418.269 95.05C416.596 93.15 414.374 91.625 412.602 93.025C411.678 93.75 412.552 94.7 413.276 94.45C414 94.175 414.849 94.7 415.623 95.05C415.12 94.8366 414.571 94.7567 414.029 94.818C413.486 94.8793 412.969 95.0798 412.527 95.4C411.778 96.05 412.676 97.275 413.55 96.85C414.249 96.5 415.647 96.275 416.546 97.1C415.573 96.925 414.549 96.95 414.05 97.5C413.55 98.025 413.925 98.8 414.998 98.75C416.721 98.675 417.145 99.875 418.868 99.625C418.488 99.6601 418.119 99.7764 417.788 99.9662C417.456 100.156 417.169 100.415 416.946 100.725C418.544 99.975 420.316 101.975 422.388 101.525C421.59 101.85 420.291 102.65 420.291 103.275C421.54 101.825 429.829 104.35 430.028 101.25C430.154 101.662 430.177 102.099 430.094 102.522C430.011 102.945 429.826 103.341 429.554 103.675C430.603 103.025 434.048 102.8 435.097 100.325C435.196 101.075 435.047 102.025 434.422 102.25C435.521 102.6 436.969 101.775 438.442 99.575C439.041 98.7 439.191 98.125 439.066 97.475C439.736 97.5266 440.41 97.4401 441.046 97.2208C441.681 97.0015 442.265 96.6541 442.761 96.2C443.935 95.2 445.233 97.025 447.255 95.725C449.253 94.45 451 95.55 452.099 94.9C453.197 94.25 454.72 95.15 455.919 94.4C457.092 93.65 458.965 94.75 460.912 93.2C464.033 94.325 467.653 96.45 476.541 94.8C481.634 93.875 483.232 95.6 483.232 97.925C483.232 99.55 482.284 99.675 481.584 99.725C478.763 99.9 477.54 98.65 476.416 99.05C475.667 99.325 475.218 100.55 476.292 100.975C475.393 101.425 475.518 102.275 475.967 102.6C476.416 102.925 477.615 102.625 478.414 102.25C477.39 102.725 476.316 103.55 476.916 104.45C477.29 104.95 478.214 105.425 479.088 104.3C479.962 103.15 481.584 102.175 482.583 102.325ZM426.133 78.1C423.562 77.05 422.713 77.025 423.287 79.1C423.537 80 424.161 81.275 424.785 81.85C424.785 80.975 425.135 78.55 426.133 78.1Z" fill="#F9DD16" stroke="black" stroke-width="0.015"/>
<path d="M434.148 78.1C436.719 77.05 437.593 77.025 436.994 79.1C436.713 80.1199 436.2 81.061 435.496 81.85C435.496 80.975 435.171 78.55 434.148 78.1Z" fill="#F9DD16" stroke="black" stroke-width="0.015"/>
<path d="M430.153 76.7C435.022 76.7 435.646 78.975 435.596 81.825C435.596 84.9 433.923 83.825 432.999 87.8C432.625 89.325 431.401 89.425 430.153 89.425C428.905 89.425 427.706 89.325 427.332 87.8C426.383 83.85 424.735 84.9 424.71 81.8C424.71 78.975 425.31 76.7 430.153 76.7Z" fill="#F9DD16" stroke="black" stroke-width="0.015"/>
<path d="M417.645 87.975C416.396 87.225 415.598 87.725 415.098 87.875C416.696 88.3 416.771 90.375 420.441 91.325C419.617 91.075 419.143 91.575 418.369 91.15C419.867 92.325 421.565 93.725 425.16 93.75C427.157 93.775 425.759 94.8 424.461 94.225C425.809 95.625 428.505 94.475 430.203 97.025C430.528 95.025 427.032 91.925 428.63 89.675C423.687 89.45 423.287 86.725 420.441 84.525C418.119 82.775 417.894 80.95 416.871 77.575C416.421 76.025 414.624 75.075 413.625 75.45C412.751 75.75 412.452 76.525 413.201 77.075C413.95 77.65 414.898 77.725 415.098 79.15C414.125 77.975 412.676 77.55 411.977 78.3C411.553 78.725 411.728 79.75 412.627 79.85C414.125 80 413.051 81.45 414.749 82.875C413.251 81.2 411.952 81.025 411.153 81.95C410.654 82.5 411.153 83.475 412.177 83.375C413.675 83.225 415.423 87 417.645 87.975ZM457.517 102.15C456.743 102.3 456.967 103.575 455.919 103.65C458.415 103.65 459.714 103.075 460.912 102.1C460.363 102.425 460.138 103.25 460.088 103.725C461.411 102.575 464.582 102.475 466.23 102.8C467.878 103.125 468.152 102.35 468.727 101.3C469.351 100.225 468.527 99.625 467.703 98.8C466.879 97.975 466.704 96.825 466.879 94.9C462.46 89.025 454.571 91.875 454.496 94.45C457.342 97.75 457.691 97.375 460.088 97.85C462.46 98.3 463.933 98.3 462.335 99.625C461.786 100.1 459.489 99.875 457.691 99.95C453.697 100.125 451.874 97.2 450.701 98.7C449.702 99.95 450.701 100.525 452.698 100.45C451.325 100.45 449.502 100.4 449.827 101.675C450.326 103.825 452.398 101.275 453.197 102.175C452.523 102 451.45 102.425 451.425 103.075C451.375 103.725 452.923 104.575 454.67 103.2C455.487 102.563 456.482 102.196 457.517 102.15Z" fill="#F9DD16" stroke="black" stroke-width="0.015"/>
<path d="M460.937 93.2C459.547 92.5937 458.008 92.4196 456.518 92.7ZM439.366 92.525C438.192 95.05 438.891 96.3 439.066 97.475ZM426.808 80.5C427.631 80.925 428.081 79.75 429.279 81C428.955 80.625 428.53 81.925 427.631 81.075M433.424 80.5C432.625 80.925 432.175 79.75 430.977 81C431.302 80.625 431.726 81.925 432.625 81.075" fill="#F9DD16"/>
<path d="M460.937 93.2C459.547 92.5937 458.008 92.4196 456.518 92.7M439.366 92.525C438.192 95.05 438.891 96.3 439.066 97.475M426.808 80.5C427.631 80.925 428.081 79.75 429.279 81C428.955 80.625 428.53 81.925 427.631 81.075M433.424 80.5C432.625 80.925 432.175 79.75 430.977 81C431.302 80.625 431.726 81.925 432.625 81.075" stroke="black" stroke-width="0.015"/>
<path d="M430.977 80.975C430.702 81.225 430.677 80.8 430.877 81.875C431.277 83.875 431.726 84.8 430.128 84.8C428.48 84.8 428.98 83.875 429.379 81.875C429.579 80.8 429.554 81.225 429.279 80.975" fill="#F9DD16"/>
<path d="M430.977 80.975C430.702 81.225 430.677 80.8 430.877 81.875C431.277 83.875 431.726 84.8 430.128 84.8C428.48 84.8 428.98 83.875 429.379 81.875C429.579 80.8 429.554 81.225 429.279 80.975" stroke="black" stroke-width="0.015"/>
<path d="M430.153 88.625C431.451 88.625 432.2 88.6 432.001 86.75C431.926 86 432.899 85.725 432.55 84.525C432.924 86 430.153 85.85 430.153 85.2C430.153 85.85 427.382 86 427.731 84.525C427.407 85.725 428.38 86.025 428.281 86.775C428.081 88.6 428.855 88.625 430.153 88.625ZM428.98 84.9L425.834 84.025ZM428.98 85.075L425.484 85.025ZM429.005 85.25L426.009 86.05ZM431.302 84.9L434.447 84.025ZM431.302 85.075L434.822 85.025ZM431.302 85.25L434.298 86.05Z" fill="#FF0016"/>
<path d="M428.98 84.9L425.834 84.025M428.98 85.075L425.484 85.025M429.005 85.25L426.009 86.05M431.302 84.9L434.447 84.025M431.302 85.075L434.822 85.025M431.302 85.25L434.298 86.05M430.153 88.625C431.451 88.625 432.2 88.6 432.001 86.75C431.926 86 432.899 85.725 432.55 84.525C432.924 86 430.153 85.85 430.153 85.2C430.153 85.85 427.382 86 427.731 84.525C427.407 85.725 428.38 86.025 428.281 86.775C428.081 88.6 428.855 88.625 430.153 88.625Z" stroke="black" stroke-width="0.008"/>
<path d="M413.9 75.5C413.001 74.375 410.704 75.325 410.654 76.75C411.428 75.825 412.701 77.15 413.4 76.875C413.85 76.675 414.274 75.975 413.9 75.5ZM412.726 78.2C411.803 77.05 409.531 78.025 409.481 79.45C410.23 78.525 411.503 79.825 412.202 79.55C412.701 79.375 413.101 78.65 412.701 78.2H412.726ZM412.127 81.825C411.104 80.775 408.931 82 409.056 83.4C409.705 82.4 411.104 83.575 411.753 83.225C412.227 82.975 412.552 82.225 412.127 81.825ZM413.226 93.025C412.077 92.125 410.08 93.575 410.33 94.95C410.879 93.9 412.402 94.9 413.026 94.45C413.425 94.175 413.675 93.375 413.226 93.025ZM413.151 95.475C411.803 94.975 410.33 96.975 411.029 98.2C411.203 97.025 412.951 97.5 413.4 96.9C413.725 96.5 413.725 95.675 413.151 95.475ZM414.923 97.325C413.55 96.8 412.077 98.8 412.776 100.025C412.951 98.85 414.724 99.325 415.173 98.75C415.473 98.325 415.473 97.525 414.923 97.325ZM450.726 100.85C449.352 100.35 447.879 102.35 448.578 103.6C448.753 102.4 450.526 102.875 450.975 102.3C451.275 101.875 451.275 101.05 450.726 100.85ZM452.548 102.525C451.15 102.175 449.927 104.325 450.751 105.475C450.801 104.275 452.598 104.55 452.973 103.925C453.222 103.475 453.122 102.675 452.548 102.525ZM451.275 98.5C450.002 97.75 448.229 99.5 448.678 100.825C449.078 99.7 450.726 100.475 451.275 99.95C451.649 99.6 451.774 98.8 451.275 98.5ZM476.741 101.375C475.318 101.025 474.094 103.175 474.918 104.325C474.968 103.125 476.766 103.4 477.165 102.775C477.415 102.325 477.315 101.525 476.741 101.375ZM476.766 99.125C475.493 98.425 473.77 100.225 474.269 101.525C474.644 100.4 476.316 101.1 476.841 100.575C477.19 100.225 477.29 99.4 476.766 99.125ZM477.765 103.375C476.341 103.125 475.218 105.3 476.092 106.425C476.092 105.225 477.889 105.425 478.239 104.775C478.489 104.3 478.364 103.5 477.765 103.375ZM430.253 87.525C431.152 87.525 431.501 87.775 431.501 89.4C431.501 92.825 431.476 94.3 430.378 94.3C429.254 94.3 429.329 92.9 429.329 90.375C429.329 89.075 429.329 88.4 429.08 88.525C429.08 87.65 429.454 87.525 430.253 87.525Z" fill="#0051BA" stroke="black" stroke-width="0.002"/>
<path d="M478.104 134.325C477.25 134.55 477.25 135.675 476.801 135.675C479.048 135.608 480.126 134.978 480.823 133.853C480.329 134.303 480.756 135.158 480.598 135.36C482.239 134.798 483.025 133.38 482.441 132.435C482.823 132.975 483.879 133.268 484.238 133.313C483.07 132.413 483.879 130.32 482.036 129.263C482.643 129.218 483.834 129.938 484.171 130.748C483.879 128.88 483.609 127.688 482.081 126.653C482.239 126.833 483.115 127.013 483.474 126.653C483.08 126.415 482.76 126.073 482.55 125.663C482.339 125.254 482.247 124.794 482.284 124.335C482.396 123.435 481.789 123.21 480.621 123.525C479.033 123.804 477.424 123.939 475.812 123.93C472.914 123.93 470.397 123.93 467.993 122.265C471.588 123.773 476.172 120.623 476.172 118.013C476.172 115.133 472.621 112.77 465.453 114.345C458.263 115.92 449.522 115.245 449.522 112.86C449.522 110.453 455.791 110.138 459.005 110.61C462.218 111.128 464.532 111.443 470.554 109.305C469.071 109.89 464.285 110.048 460.488 108.968C456.69 107.888 447.365 107.888 447.298 112.928C447.208 117.968 457.229 117.518 465.858 116.235C470.891 115.493 473.543 116.01 473.543 117.653C473.543 119.228 468.914 119.88 465.364 119.453C461.544 118.959 457.663 119.273 453.971 120.375C450.466 121.41 448.039 120.375 444.152 121.05C442.287 121.365 437.725 121.05 435.478 117.315C434.085 118.305 429.928 120.375 429.232 122.4C428.221 124.268 428.895 126.113 430.221 127.935C431.883 130.23 429.389 129.87 427.614 129.96C425.187 130.073 421.929 129.69 420.221 127.778C418.716 126.068 416.716 124.695 415.121 125.955C414.289 126.608 415.076 127.463 415.727 127.238C416.379 126.99 417.143 127.463 417.84 127.778C417.387 127.585 416.893 127.514 416.405 127.569C415.917 127.624 415.451 127.804 415.053 128.093C414.379 128.678 415.188 129.78 415.975 129.398C416.604 129.083 417.862 128.88 418.671 129.623C417.795 129.465 416.873 129.488 416.424 129.983C415.975 130.455 416.312 131.153 417.278 131.108C418.828 131.04 419.21 132.12 420.761 131.895C420.418 131.927 420.087 132.031 419.788 132.202C419.49 132.373 419.231 132.606 419.03 132.885C420.469 132.21 422.064 134.01 423.929 133.605C423.21 133.898 422.041 134.618 422.041 135.18C423.165 133.875 430.625 136.148 430.805 133.358C430.918 133.728 430.938 134.122 430.864 134.502C430.789 134.883 430.622 135.239 430.378 135.54C431.322 134.955 434.422 134.753 435.366 132.525C435.456 133.2 435.321 134.055 434.759 134.258C435.748 134.573 437.051 133.83 438.377 131.85C438.916 131.063 439.051 130.545 438.939 129.96C439.542 130.006 440.148 129.929 440.72 129.731C441.292 129.534 441.818 129.221 442.264 128.813C443.321 127.913 444.489 129.555 446.309 128.385C448.107 127.238 449.68 128.228 450.668 127.643C451.657 127.058 453.028 127.868 454.106 127.193C455.162 126.518 456.847 127.508 458.6 126.113C461.409 127.125 464.667 129.038 472.666 127.553C477.25 126.72 478.688 128.273 478.688 130.365C478.688 131.828 477.834 131.94 477.205 131.985C474.666 132.143 473.565 131.018 472.554 131.378C471.88 131.625 471.475 132.728 472.442 133.11C471.633 133.515 471.745 134.28 472.15 134.573C472.554 134.865 473.633 134.595 474.352 134.258C473.43 134.685 472.464 135.428 473.003 136.238C473.34 136.688 474.172 137.115 474.958 136.103C475.745 135.068 477.205 134.19 478.104 134.325ZM427.299 112.523C424.985 111.578 424.221 111.555 424.738 113.423C424.963 114.233 425.524 115.38 426.086 115.898C426.086 115.11 426.401 112.928 427.299 112.523Z" fill="#F9DD16" stroke="black" stroke-width="0.0135"/>
<path d="M434.512 112.523C436.827 111.578 437.613 111.555 437.074 113.423C436.821 114.34 436.359 115.187 435.726 115.898C435.726 115.11 435.434 112.928 434.512 112.523Z" fill="#F9DD16" stroke="black" stroke-width="0.0135"/>
<path d="M430.917 111.263C435.299 111.263 435.86 113.31 435.816 115.875C435.816 118.643 434.31 117.675 433.479 121.253C433.142 122.625 432.041 122.715 430.917 122.715C429.794 122.715 428.715 122.625 428.378 121.253C427.524 117.698 426.041 118.643 426.019 115.853C426.019 113.31 426.558 111.263 430.917 111.263Z" fill="#F9DD16" stroke="black" stroke-width="0.0135"/>
<path d="M419.66 121.41C418.536 120.735 417.817 121.185 417.368 121.32C418.806 121.703 418.873 123.57 422.176 124.425C421.435 124.2 421.008 124.65 420.311 124.268C421.659 125.325 423.187 126.585 426.423 126.608C428.221 126.63 426.962 127.553 425.794 127.035C427.007 128.295 429.434 127.26 430.962 129.555C431.254 127.755 428.108 124.965 429.546 122.94C425.097 122.738 424.738 120.285 422.176 118.305C420.087 116.73 419.884 115.088 418.963 112.05C418.559 110.655 416.941 109.8 416.042 110.138C415.255 110.408 414.986 111.105 415.66 111.6C416.334 112.118 417.188 112.185 417.368 113.468C416.491 112.41 415.188 112.028 414.559 112.703C414.177 113.085 414.334 114.008 415.143 114.098C416.491 114.233 415.525 115.538 417.053 116.82C415.705 115.313 414.536 115.155 413.817 115.988C413.368 116.483 413.817 117.36 414.739 117.27C416.087 117.135 417.66 120.533 419.66 121.41ZM455.544 134.168C454.848 134.303 455.05 135.45 454.106 135.518C456.353 135.518 457.522 135 458.6 134.123C458.106 134.415 457.904 135.158 457.859 135.585C459.05 134.55 461.903 134.46 463.386 134.753C464.869 135.045 465.116 134.348 465.633 133.403C466.195 132.435 465.453 131.895 464.712 131.153C463.97 130.41 463.813 129.375 463.97 127.643C459.993 122.355 452.893 124.92 452.825 127.238C455.387 130.208 455.701 129.87 457.859 130.298C459.993 130.703 461.319 130.703 459.881 131.895C459.387 132.323 457.319 132.12 455.701 132.188C452.106 132.345 450.466 129.713 449.41 131.063C448.511 132.188 449.41 132.705 451.207 132.638C449.972 132.638 448.331 132.593 448.623 133.74C449.073 135.675 450.938 133.38 451.657 134.19C451.05 134.033 450.084 134.415 450.062 135C450.017 135.585 451.41 136.35 452.983 135.113C453.718 134.539 454.613 134.209 455.544 134.168Z" fill="#F9DD16" stroke="black" stroke-width="0.0135"/>
<path d="M458.623 126.113C457.372 125.567 455.986 125.41 454.645 125.663ZM439.208 125.505C438.152 127.777 438.782 128.903 438.939 129.96ZM427.906 114.682C428.648 115.065 429.052 114.007 430.131 115.132C429.838 114.795 429.456 115.965 428.648 115.2M433.861 114.682C433.142 115.065 432.737 114.007 431.659 115.132C431.951 114.795 432.333 115.965 433.142 115.2" fill="#F9DD16"/>
<path d="M458.623 126.113C457.372 125.567 455.986 125.41 454.645 125.663M439.208 125.505C438.152 127.777 438.782 128.903 438.939 129.96M427.906 114.682C428.648 115.065 429.052 114.007 430.131 115.132C429.838 114.795 429.456 115.965 428.648 115.2M433.861 114.682C433.142 115.065 432.737 114.007 431.659 115.132C431.951 114.795 432.333 115.965 433.142 115.2" stroke="black" stroke-width="0.0135"/>
<path d="M431.659 115.11C431.411 115.335 431.389 114.953 431.569 115.92C431.928 117.72 432.333 118.553 430.895 118.553C429.412 118.553 429.861 117.72 430.22 115.92C430.4 114.953 430.378 115.335 430.131 115.11" fill="#F9DD16"/>
<path d="M431.659 115.11C431.411 115.335 431.389 114.953 431.569 115.92C431.928 117.72 432.333 118.553 430.895 118.553C429.412 118.553 429.861 117.72 430.22 115.92C430.4 114.953 430.378 115.335 430.131 115.11" stroke="black" stroke-width="0.0135"/>
<path d="M430.917 121.995C432.086 121.995 432.76 121.973 432.58 120.308C432.512 119.633 433.389 119.385 433.074 118.305C433.411 119.633 430.917 119.498 430.917 118.913C430.917 119.498 428.423 119.633 428.737 118.305C428.445 119.385 429.322 119.655 429.232 120.33C429.052 121.973 429.749 121.995 430.917 121.995ZM429.861 118.643L427.03 117.855ZM429.861 118.8L426.715 118.755ZM429.883 118.958L427.187 119.678ZM431.951 118.643L434.782 117.855ZM431.951 118.8L435.119 118.755ZM431.951 118.958L434.647 119.678Z" fill="#FF0016"/>
<path d="M429.861 118.643L427.03 117.855M429.861 118.8L426.715 118.755M429.883 118.958L427.187 119.678M431.951 118.643L434.782 117.855M431.951 118.8L435.119 118.755M431.951 118.958L434.647 119.678M430.917 121.995C432.086 121.995 432.76 121.973 432.58 120.308C432.512 119.633 433.389 119.385 433.074 118.305C433.411 119.633 430.917 119.498 430.917 118.913C430.917 119.498 428.423 119.633 428.737 118.305C428.445 119.385 429.322 119.655 429.232 120.33C429.052 121.973 429.749 121.995 430.917 121.995Z" stroke="black" stroke-width="0.0072"/>
<path d="M416.289 110.182C415.48 109.17 413.413 110.025 413.368 111.308C414.065 110.475 415.211 111.668 415.84 111.42C416.244 111.24 416.626 110.61 416.289 110.182ZM415.233 112.613C414.402 111.578 412.357 112.455 412.312 113.737C412.986 112.905 414.132 114.075 414.761 113.828C415.211 113.67 415.57 113.018 415.211 112.613H415.233ZM414.694 115.875C413.772 114.93 411.818 116.033 411.93 117.293C412.514 116.393 413.772 117.45 414.357 117.135C414.784 116.91 415.076 116.235 414.694 115.875ZM415.682 125.955C414.649 125.145 412.851 126.45 413.076 127.688C413.57 126.743 414.941 127.643 415.503 127.238C415.862 126.99 416.087 126.27 415.682 125.955ZM415.615 128.16C414.402 127.71 413.076 129.51 413.705 130.612C413.862 129.555 415.435 129.983 415.84 129.443C416.132 129.083 416.132 128.34 415.615 128.16ZM417.21 129.825C415.975 129.353 414.649 131.153 415.278 132.255C415.435 131.198 417.031 131.625 417.435 131.108C417.705 130.725 417.705 130.005 417.21 129.825ZM449.432 132.998C448.197 132.548 446.871 134.348 447.5 135.473C447.657 134.393 449.253 134.82 449.657 134.302C449.927 133.92 449.927 133.178 449.432 132.998ZM451.073 134.505C449.814 134.19 448.713 136.125 449.455 137.16C449.5 136.08 451.118 136.328 451.455 135.765C451.679 135.36 451.589 134.64 451.073 134.505ZM449.927 130.883C448.781 130.208 447.185 131.782 447.59 132.975C447.949 131.962 449.432 132.66 449.927 132.188C450.264 131.873 450.376 131.153 449.927 130.883ZM472.846 133.47C471.565 133.155 470.464 135.09 471.206 136.125C471.251 135.045 472.869 135.293 473.228 134.73C473.453 134.325 473.363 133.605 472.846 133.47ZM472.869 131.445C471.723 130.815 470.172 132.435 470.622 133.605C470.959 132.593 472.464 133.222 472.936 132.75C473.251 132.435 473.34 131.693 472.869 131.445ZM473.767 135.27C472.487 135.045 471.475 137.002 472.262 138.015C472.262 136.935 473.88 137.115 474.194 136.53C474.419 136.102 474.307 135.382 473.767 135.27ZM431.007 121.005C431.816 121.005 432.13 121.23 432.13 122.692C432.13 125.775 432.108 127.103 431.119 127.103C430.108 127.103 430.176 125.842 430.176 123.57C430.176 122.4 430.176 121.793 429.951 121.905C429.951 121.118 430.288 121.005 431.007 121.005Z" fill="#0051BA" stroke="black" stroke-width="0.0018"/>
<path d="M470.651 161.738C470.015 161.925 470.015 162.863 469.681 162.863C471.354 162.806 472.157 162.281 472.675 161.344C472.307 161.719 472.625 162.431 472.508 162.6C473.729 162.131 474.314 160.95 473.879 160.163C474.164 160.613 474.95 160.856 475.218 160.894C474.348 160.144 474.95 158.4 473.578 157.519C474.03 157.481 474.917 158.081 475.168 158.756C474.95 157.2 474.749 156.206 473.612 155.344C473.729 155.494 474.381 155.644 474.649 155.344C474.356 155.146 474.117 154.861 473.961 154.52C473.804 154.178 473.735 153.795 473.762 153.413C473.846 152.663 473.394 152.475 472.525 152.738C471.343 152.97 470.145 153.083 468.945 153.075C466.787 153.075 464.913 153.075 463.124 151.688C465.8 152.944 469.212 150.319 469.212 148.144C469.212 145.744 466.569 143.775 461.233 145.088C455.881 146.4 449.373 145.838 449.373 143.85C449.373 141.844 454.04 141.581 456.433 141.975C458.825 142.406 460.548 142.669 465.031 140.888C463.927 141.375 460.364 141.506 457.537 140.606C454.71 139.706 447.768 139.706 447.717 143.906C447.651 148.106 455.111 147.731 461.534 146.663C465.281 146.044 467.255 146.475 467.255 147.844C467.255 149.156 463.809 149.7 461.166 149.344C458.323 148.933 455.433 149.195 452.686 150.113C450.076 150.975 448.269 150.113 445.376 150.675C443.987 150.938 440.591 150.675 438.919 147.563C437.882 148.388 434.787 150.113 434.268 151.8C433.516 153.356 434.017 154.894 435.004 156.413C436.242 158.325 434.385 158.025 433.064 158.1C431.257 158.194 428.832 157.875 427.561 156.281C426.44 154.856 424.951 153.713 423.763 154.763C423.144 155.306 423.73 156.019 424.215 155.831C424.7 155.625 425.269 156.019 425.787 156.281C425.451 156.121 425.083 156.061 424.72 156.107C424.356 156.153 424.01 156.304 423.713 156.544C423.211 157.031 423.814 157.95 424.399 157.631C424.867 157.369 425.804 157.2 426.406 157.819C425.754 157.688 425.068 157.706 424.734 158.119C424.399 158.513 424.65 159.094 425.369 159.056C426.523 159 426.808 159.9 427.962 159.713C427.707 159.739 427.46 159.826 427.238 159.968C427.016 160.111 426.824 160.305 426.674 160.538C427.745 159.975 428.932 161.475 430.321 161.138C429.785 161.381 428.916 161.981 428.916 162.45C429.752 161.363 435.305 163.256 435.439 160.931C435.524 161.24 435.539 161.568 435.483 161.885C435.428 162.202 435.304 162.499 435.121 162.75C435.824 162.263 438.132 162.094 438.835 160.238C438.902 160.8 438.802 161.513 438.383 161.681C439.119 161.944 440.09 161.325 441.077 159.675C441.478 159.019 441.578 158.588 441.495 158.1C441.944 158.139 442.395 158.074 442.821 157.909C443.247 157.745 443.638 157.484 443.97 157.144C444.757 156.394 445.626 157.763 446.981 156.788C448.32 155.831 449.491 156.656 450.227 156.169C450.963 155.681 451.983 156.356 452.786 155.794C453.572 155.231 454.827 156.056 456.131 154.894C458.222 155.738 460.648 157.331 466.603 156.094C470.015 155.4 471.086 156.694 471.086 158.438C471.086 159.656 470.45 159.75 469.982 159.788C468.092 159.919 467.272 158.981 466.519 159.281C466.017 159.488 465.716 160.406 466.436 160.725C465.833 161.063 465.917 161.7 466.218 161.944C466.519 162.188 467.322 161.963 467.858 161.681C467.172 162.038 466.452 162.656 466.854 163.331C467.105 163.706 467.724 164.063 468.309 163.219C468.895 162.356 469.982 161.625 470.651 161.738ZM432.83 143.569C431.107 142.781 430.538 142.763 430.923 144.319C431.09 144.994 431.508 145.95 431.927 146.381C431.927 145.725 432.161 143.906 432.83 143.569Z" fill="#F9DD16" stroke="black" stroke-width="0.0106331"/>
<path d="M438.199 143.569C439.922 142.781 440.508 142.763 440.106 144.319C439.918 145.084 439.574 145.789 439.103 146.381C439.103 145.725 438.885 143.906 438.199 143.569Z" fill="#F9DD16" stroke="black" stroke-width="0.0106331"/>
<path d="M435.523 142.519C438.785 142.519 439.203 144.225 439.17 146.363C439.17 148.669 438.049 147.863 437.43 150.844C437.179 151.988 436.359 152.063 435.523 152.063C434.687 152.063 433.884 151.988 433.633 150.844C432.997 147.881 431.893 148.669 431.876 146.344C431.876 144.225 432.278 142.519 435.523 142.519Z" fill="#F9DD16" stroke="black" stroke-width="0.0106331"/>
<path d="M427.142 150.975C426.306 150.413 425.771 150.788 425.436 150.9C426.507 151.219 426.557 152.775 429.016 153.488C428.464 153.3 428.146 153.675 427.627 153.356C428.631 154.238 429.769 155.288 432.177 155.306C433.516 155.325 432.579 156.094 431.709 155.663C432.612 156.713 434.419 155.85 435.556 157.763C435.774 156.263 433.432 153.938 434.503 152.25C431.19 152.081 430.923 150.038 429.016 148.388C427.46 147.075 427.31 145.706 426.624 143.175C426.323 142.013 425.118 141.3 424.449 141.581C423.864 141.806 423.663 142.388 424.165 142.8C424.667 143.231 425.302 143.288 425.436 144.356C424.784 143.475 423.814 143.156 423.345 143.719C423.061 144.038 423.178 144.806 423.78 144.881C424.784 144.994 424.064 146.081 425.202 147.15C424.198 145.894 423.328 145.763 422.793 146.456C422.459 146.869 422.793 147.6 423.479 147.525C424.483 147.413 425.654 150.244 427.142 150.975ZM453.856 161.606C453.338 161.719 453.488 162.675 452.786 162.731C454.459 162.731 455.329 162.3 456.131 161.569C455.763 161.813 455.613 162.431 455.579 162.788C456.466 161.925 458.59 161.85 459.694 162.094C460.798 162.338 460.982 161.756 461.367 160.969C461.785 160.163 461.233 159.713 460.681 159.094C460.129 158.475 460.012 157.613 460.129 156.169C457.169 151.763 451.883 153.9 451.832 155.831C453.739 158.306 453.974 158.025 455.579 158.381C457.169 158.719 458.155 158.719 457.085 159.713C456.717 160.069 455.178 159.9 453.974 159.956C451.297 160.088 450.076 157.894 449.29 159.019C448.621 159.956 449.29 160.388 450.628 160.331C449.708 160.331 448.487 160.294 448.704 161.25C449.039 162.863 450.427 160.95 450.963 161.625C450.511 161.494 449.792 161.813 449.775 162.3C449.741 162.788 450.779 163.425 451.95 162.394C452.497 161.916 453.163 161.641 453.856 161.606Z" fill="#F9DD16" stroke="black" stroke-width="0.0106331"/>
<path d="M456.148 154.894C455.217 154.439 454.186 154.308 453.187 154.519ZM441.695 154.388C440.909 156.281 441.378 157.219 441.495 158.1ZM433.281 145.369C433.833 145.688 434.135 144.806 434.937 145.744C434.72 145.463 434.436 146.438 433.833 145.8M437.714 145.369C437.179 145.688 436.878 144.806 436.075 145.744C436.292 145.463 436.577 146.438 437.179 145.8" fill="#F9DD16"/>
<path d="M456.148 154.894C455.217 154.439 454.186 154.308 453.187 154.519M441.695 154.388C440.909 156.281 441.378 157.219 441.495 158.1M433.281 145.369C433.833 145.688 434.135 144.806 434.937 145.744C434.72 145.463 434.436 146.438 433.833 145.8M437.714 145.369C437.179 145.688 436.878 144.806 436.075 145.744C436.292 145.463 436.577 146.438 437.179 145.8" stroke="black" stroke-width="0.0106331"/>
<path d="M436.075 145.725C435.891 145.913 435.874 145.594 436.008 146.4C436.276 147.9 436.577 148.594 435.506 148.594C434.402 148.594 434.737 147.9 435.004 146.4C435.138 145.594 435.121 145.913 434.937 145.725" fill="#F9DD16"/>
<path d="M436.075 145.725C435.891 145.913 435.874 145.594 436.008 146.4C436.276 147.9 436.577 148.594 435.506 148.594C434.402 148.594 434.737 147.9 435.004 146.4C435.138 145.594 435.121 145.913 434.937 145.725" stroke="black" stroke-width="0.0106331"/>
<path d="M435.523 151.462C436.393 151.462 436.895 151.444 436.761 150.056C436.711 149.494 437.363 149.287 437.129 148.387C437.38 149.494 435.523 149.381 435.523 148.894C435.523 149.381 433.666 149.494 433.9 148.387C433.683 149.287 434.335 149.512 434.268 150.075C434.135 151.444 434.653 151.462 435.523 151.462ZM434.737 148.669L432.629 148.012ZM434.737 148.8L432.395 148.762ZM434.753 148.931L432.746 149.531ZM436.292 148.669L438.4 148.012ZM436.292 148.8L438.651 148.762ZM436.292 148.931L438.3 149.531Z" fill="#FF0016"/>
<path d="M434.737 148.669L432.629 148.012M434.737 148.8L432.395 148.762M434.753 148.931L432.746 149.531M436.292 148.669L438.4 148.012M436.292 148.8L438.651 148.762M436.292 148.931L438.3 149.531M435.523 151.462C436.393 151.462 436.895 151.444 436.761 150.056C436.711 149.494 437.363 149.287 437.129 148.387C437.38 149.494 435.523 149.381 435.523 148.894C435.523 149.381 433.666 149.494 433.9 148.387C433.683 149.287 434.335 149.512 434.268 150.075C434.135 151.444 434.653 151.462 435.523 151.462Z" stroke="black" stroke-width="0.00567098"/>
<path d="M424.633 141.619C424.031 140.775 422.492 141.488 422.459 142.556C422.977 141.863 423.83 142.856 424.299 142.65C424.6 142.5 424.884 141.975 424.633 141.619ZM423.847 143.644C423.228 142.781 421.706 143.513 421.672 144.581C422.174 143.888 423.027 144.863 423.496 144.656C423.83 144.525 424.098 143.981 423.83 143.644H423.847ZM423.446 146.363C422.76 145.575 421.304 146.494 421.388 147.544C421.823 146.794 422.76 147.675 423.195 147.413C423.512 147.225 423.73 146.663 423.446 146.363ZM424.182 154.763C423.412 154.088 422.074 155.175 422.241 156.206C422.609 155.419 423.63 156.169 424.048 155.831C424.315 155.625 424.483 155.025 424.182 154.763ZM424.131 156.6C423.228 156.225 422.241 157.725 422.71 158.644C422.827 157.763 423.998 158.119 424.299 157.669C424.516 157.369 424.516 156.75 424.131 156.6ZM425.319 157.988C424.399 157.594 423.412 159.094 423.88 160.013C423.998 159.131 425.185 159.488 425.486 159.056C425.687 158.738 425.687 158.138 425.319 157.988ZM449.307 160.631C448.387 160.256 447.4 161.756 447.868 162.694C447.985 161.794 449.173 162.15 449.474 161.719C449.675 161.4 449.675 160.781 449.307 160.631ZM450.528 161.888C449.591 161.625 448.771 163.238 449.323 164.1C449.357 163.2 450.561 163.406 450.812 162.938C450.979 162.6 450.912 162 450.528 161.888ZM449.675 158.869C448.821 158.306 447.634 159.619 447.935 160.613C448.202 159.769 449.307 160.35 449.675 159.956C449.925 159.694 450.009 159.094 449.675 158.869ZM466.737 161.025C465.783 160.763 464.964 162.375 465.516 163.238C465.549 162.338 466.753 162.544 467.021 162.075C467.188 161.738 467.121 161.138 466.737 161.025ZM466.753 159.338C465.9 158.813 464.746 160.163 465.081 161.138C465.332 160.294 466.452 160.819 466.804 160.425C467.038 160.163 467.105 159.544 466.753 159.338ZM467.423 162.525C466.469 162.338 465.716 163.969 466.302 164.813C466.302 163.913 467.506 164.063 467.74 163.575C467.908 163.219 467.824 162.619 467.423 162.525ZM435.59 150.638C436.192 150.638 436.426 150.825 436.426 152.044C436.426 154.613 436.409 155.719 435.673 155.719C434.921 155.719 434.971 154.669 434.971 152.775C434.971 151.8 434.971 151.294 434.804 151.388C434.804 150.731 435.055 150.638 435.59 150.638Z" fill="#0051BA" stroke="black" stroke-width="0.00141774"/>
</g>
<defs>
<clipPath id="clip0_0_1">
<rect width="900" height="450" fill="white"/>
</clipPath>
</defs>
</svg>
