<svg width="900" height="450" viewBox="0 0 900 450" fill="none" xmlns="http://www.w3.org/2000/svg">
<g clip-path="url(#clip0_764_1366)">
<path d="M900 0H0V450H900V0Z" fill="#1E1E1E"/>
<mask id="mask0_764_1366" style="mask-type:luminance" maskUnits="userSpaceOnUse" x="0" y="0" width="900" height="450">
<path d="M900 0H0V450H900V0Z" fill="white"/>
</mask>
<g mask="url(#mask0_764_1366)">
<mask id="mask1_764_1366" style="mask-type:luminance" maskUnits="userSpaceOnUse" x="0" y="0" width="900" height="450">
<path d="M0 0H900V450H0V0Z" fill="white"/>
</mask>
<g mask="url(#mask1_764_1366)">
<path d="M0 0H900V450H0V0Z" fill="white"/>
<path d="M0 0H900V450H0V0Z" fill="white"/>
</g>
<mask id="mask2_764_1366" style="mask-type:luminance" maskUnits="userSpaceOnUse" x="-1" y="0" width="902" height="151">
<path d="M-1 -3.37219e-06H901V150.667H-1V-3.37219e-06Z" fill="white"/>
</mask>
<g mask="url(#mask2_764_1366)">
<path d="M900.649 149.776H-0.649326V-3.37219e-06H900.649V149.776Z" fill="black"/>
</g>
<mask id="mask3_764_1366" style="mask-type:luminance" maskUnits="userSpaceOnUse" x="-1" y="149" width="902" height="151">
<path d="M-1 149.333H901V300H-1V149.333Z" fill="white"/>
</mask>
<g mask="url(#mask3_764_1366)">
<path d="M900.649 299.557H-0.649326V149.776H900.649V299.557Z" fill="#BC0001"/>
</g>
<mask id="mask4_764_1366" style="mask-type:luminance" maskUnits="userSpaceOnUse" x="-1" y="133" width="902" height="23">
<path d="M-1 133.333H901V156H-1V133.333Z" fill="white"/>
</mask>
<g mask="url(#mask4_764_1366)">
<path d="M900.649 154.844H-0.649326V134.198H900.649V154.844Z" fill="#F2F2F2"/>
</g>
<mask id="mask5_764_1366" style="mask-type:luminance" maskUnits="userSpaceOnUse" x="-1" y="298" width="902" height="153">
<path d="M-1 298.667H901V450.667H-1V298.667Z" fill="white"/>
</mask>
<g mask="url(#mask5_764_1366)">
<path d="M900.649 450.667H-0.649326V299.565H900.649V450.667Z" fill="#007D34"/>
</g>
<mask id="mask6_764_1366" style="mask-type:luminance" maskUnits="userSpaceOnUse" x="-1" y="293" width="902" height="23">
<path d="M-1 293.333H901V316H-1V293.333Z" fill="white"/>
</mask>
<g mask="url(#mask6_764_1366)">
<path d="M900.649 315.141H-0.649326V293.984H900.649V315.141Z" fill="#F2F2F2"/>
</g>
<path d="M398.167 129.401C400.464 125.526 397.109 115.828 391.568 105.901C385.271 94.6094 357.547 64.349 357.547 64.349C357.547 64.349 370.078 103.104 376.375 114.391C381.964 124.401 389.193 132.026 393.87 131.891L527.12 362.932L531.417 360.448L398.167 129.401Z" fill="#F2F2F2"/>
<path d="M393.885 131.859L393.896 131.875L527.13 362.896L531.38 360.438L398.135 129.401L398.141 129.391C399.219 127.573 399.094 124.302 397.781 119.927C396.578 115.911 394.422 111.068 391.542 105.906C385.495 95.0677 359.339 66.349 357.615 64.4635C358.401 66.8854 370.354 103.542 376.401 114.375C379.161 119.318 382.385 123.771 385.484 126.922C388.729 130.219 391.625 131.927 393.865 131.859H393.885ZM527.109 362.974L527.094 362.948L393.854 131.917C391.594 131.974 388.693 130.26 385.448 126.964C382.339 123.807 379.109 119.349 376.354 114.406C370.125 103.245 357.646 64.7448 357.521 64.3594L357.479 64.2344L357.568 64.3281C357.844 64.6302 385.365 94.7188 391.594 105.88C394.474 111.042 396.63 115.891 397.839 119.911C399.151 124.292 399.271 127.573 398.198 129.401L531.458 360.458L531.432 360.474L527.109 362.974Z" fill="black"/>
<path d="M506.24 132.172C510.745 132.24 517.479 124.51 523.339 114.76C529.99 103.682 542.443 64.5573 542.443 64.5573C542.443 64.5573 515.078 94.7031 508.422 105.786C502.526 115.609 499.51 125.682 501.948 129.672L367.891 360.25L372.177 362.75L506.24 132.172Z" fill="#F2F2F2"/>
<path d="M367.927 360.24L372.167 362.708L506.224 132.146H506.24C506.26 132.146 506.276 132.146 506.297 132.146C508.396 132.146 511.146 130.411 514.26 127.13C517.141 124.089 520.271 119.802 523.313 114.745C529.703 104.104 541.599 67.1094 542.38 64.6719C540.672 66.5573 514.839 95.1562 508.448 105.797C505.536 110.646 503.276 115.661 502.089 119.922C500.844 124.38 500.802 127.745 501.974 129.656L501.979 129.672L501.974 129.687L367.927 360.24ZM372.188 362.786L367.849 360.26L367.865 360.234L501.917 129.672C500.75 127.74 500.786 124.365 502.031 119.906C503.224 115.646 505.484 110.625 508.401 105.771C514.979 94.8125 542.151 64.8385 542.427 64.5365L542.51 64.4427L542.474 64.5625C542.344 64.9531 529.943 103.818 523.365 114.771C520.323 119.839 517.188 124.12 514.302 127.167C511.177 130.464 508.411 132.203 506.297 132.203C506.281 132.203 506.271 132.198 506.26 132.198L372.188 362.786Z" fill="black"/>
<path d="M518.813 223.958C518.813 299.417 467.182 360.583 449.932 360.583C432.88 360.583 381.052 299.417 381.052 223.958C381.052 148.505 433.599 87.3385 449.932 87.3385C465.734 87.3385 518.813 148.505 518.813 223.958Z" fill="#BC0001"/>
<path d="M452.922 87.599V208.302C457.125 197.161 464.292 174.323 464.292 147.953C464.292 121.583 457.125 98.7396 452.922 87.599Z" fill="#F2F2F2"/>
<path d="M446.781 88.0417C442.557 99.3333 435.573 121.922 435.573 147.953C435.573 173.979 442.557 196.568 446.781 207.859V88.0417Z" fill="#F2F2F2"/>
<path d="M452.922 241.219V361.917C457.125 350.781 464.292 327.938 464.292 301.568C464.292 275.193 457.125 252.354 452.922 241.219Z" fill="#F2F2F2"/>
<path d="M446.781 241.656C442.557 252.953 435.573 275.536 435.573 301.568C435.573 327.594 442.557 350.182 446.781 361.474V241.656Z" fill="#F2F2F2"/>
<path d="M461.406 224.417C461.406 234.651 456.271 242.948 449.932 242.948C443.599 242.948 438.464 234.651 438.464 224.417C438.464 214.182 443.599 205.885 449.932 205.885C456.271 205.885 461.406 214.182 461.406 224.417Z" fill="#F2F2F2"/>
<path d="M504.474 293.661C512.927 273.255 518.813 249.422 518.813 223.958C518.813 198.74 512.88 175.12 504.396 154.844C495.964 175.12 490.094 198.74 490.094 223.958C490.094 249.422 496 273.255 504.474 293.661Z" fill="black"/>
<path d="M395.557 293.953C404.073 273.479 410.016 249.547 410.016 223.958C410.016 198.62 404.026 174.896 395.474 154.557C386.984 174.896 381.057 198.62 381.057 223.958C381.057 249.547 387.016 273.479 395.557 293.953Z" fill="black"/>
</g>
</g>
<defs>
<clipPath id="clip0_764_1366">
<rect width="900" height="450" fill="white"/>
</clipPath>
</defs>
</svg>
