<svg width="900" height="450" viewBox="0 0 900 450" fill="none" xmlns="http://www.w3.org/2000/svg">
<g clip-path="url(#clip0_764_1429)">
<path d="M900 0H0V450H900V0Z" fill="#1E1E1E"/>
<mask id="mask0_764_1429" style="mask-type:luminance" maskUnits="userSpaceOnUse" x="0" y="0" width="900" height="450">
<path d="M900 0H0V450H900V0Z" fill="white"/>
</mask>
<g mask="url(#mask0_764_1429)">
<mask id="mask1_764_1429" style="mask-type:luminance" maskUnits="userSpaceOnUse" x="0" y="0" width="900" height="450">
<path d="M0 0H900V450H0V0Z" fill="white"/>
</mask>
<g mask="url(#mask1_764_1429)">
<path d="M0 0H900V450H0V0Z" fill="white"/>
<path d="M0 0H900V450H0V0Z" fill="#ED2736"/>
</g>
<path d="M415.953 194.375C407.563 189.203 398.771 184.849 389.573 181.313C385.51 187.323 382.417 193.797 380.297 200.734C378.182 207.672 377.13 214.766 377.141 222.021C377.13 229.375 378.229 236.563 380.438 243.583C384.349 234.609 389.172 226.156 394.896 218.219C401.01 209.474 408.026 201.526 415.948 194.375H415.953ZM393.63 175.984C403.542 179.458 413.057 183.813 422.161 189.047C424.193 187.271 426.349 185.755 428.38 184.229C418.667 178.896 408.521 174.583 397.943 171.292C396.406 172.766 394.969 174.328 393.63 175.984ZM402.51 166.979C413.854 169.964 424.719 174.193 435.104 179.661C437.51 178.141 439.922 176.74 442.203 175.349C431.24 169.823 419.781 165.635 407.833 162.792C405.948 164.047 404.172 165.443 402.51 166.979ZM413.286 159.37C425.859 161.885 437.906 165.943 449.432 171.547C460.974 165.979 473.021 161.922 485.578 159.37C482.849 157.781 480.021 156.375 477.104 155.156C474.188 153.938 471.203 152.917 468.151 152.089C465.099 151.266 462.01 150.646 458.875 150.229C455.74 149.813 452.594 149.604 449.432 149.604C446.271 149.604 443.125 149.813 439.99 150.229C436.859 150.646 433.766 151.266 430.714 152.089C427.661 152.917 424.677 153.938 421.76 155.156C418.844 156.375 416.021 157.781 413.286 159.37ZM491.031 162.922C479.089 165.724 467.63 169.865 456.661 175.354C459.057 176.745 461.427 178.182 463.766 179.667C474.161 174.24 485.026 170.01 496.359 166.984C494.719 165.448 492.943 164.094 491.031 162.927V162.922ZM500.922 171.422C490.333 174.635 480.188 178.901 470.484 184.224C472.651 185.76 474.766 187.37 476.828 189.047C485.88 183.786 495.349 179.432 505.234 175.984C503.964 174.302 502.526 172.781 500.922 171.411V171.422ZM509.292 181.438C500.115 184.885 491.365 189.198 483.042 194.375C490.927 201.557 497.943 209.505 504.094 218.219C509.719 226.214 514.536 234.667 518.547 243.583C520.641 236.547 521.698 229.365 521.719 222.021C521.74 214.786 520.693 207.708 518.573 200.792C516.453 193.875 513.359 187.422 509.286 181.443L509.292 181.438ZM503.078 231.156C495.625 219.083 486.661 208.26 476.193 198.688C473.911 200.333 471.5 201.984 469.344 203.63C478.167 211.854 485.932 220.979 492.635 231.005C499.339 241.031 504.807 251.688 509.042 262.984C511.073 259.984 512.891 256.854 514.495 253.599C511.245 245.833 507.438 238.354 503.078 231.151V231.156ZM462.875 198.182C465.156 196.531 467.443 194.885 469.849 193.359C467.823 191.589 465.667 189.938 463.51 188.286C461.099 189.813 458.688 191.333 456.281 192.979H456.406C458.563 194.63 460.719 196.406 462.875 198.182ZM449.432 188.031C451.844 186.51 454.375 184.984 456.661 183.594C454.25 182.068 451.844 180.547 449.432 179.151C447.021 180.547 444.74 182.073 442.328 183.594C444.74 184.99 447.021 186.51 449.432 188.031ZM442.583 192.974C440.177 191.323 437.891 189.802 435.484 188.281L429.016 193.224C431.422 194.87 433.708 196.391 435.99 198.042C438.135 196.286 440.333 194.599 442.583 192.979V192.974ZM449.432 198.047C447.276 199.693 445.12 201.469 442.839 203.375C445.12 205.146 447.276 207.052 449.432 208.953C451.589 207.052 453.745 205.146 456.026 203.375C453.87 201.604 451.714 199.703 449.432 198.052V198.047ZM449.432 221.76C439.474 232.5 431.146 244.38 424.448 257.401C419.844 266.172 416.125 275.302 413.292 284.792C416.036 286.344 418.87 287.714 421.792 288.901C424.714 290.089 427.698 291.083 430.745 291.885C433.797 292.688 436.885 293.292 440.016 293.698C443.141 294.104 446.281 294.302 449.438 294.302C452.589 294.302 455.729 294.104 458.854 293.698C461.984 293.292 465.073 292.688 468.125 291.885C471.172 291.083 474.156 290.089 477.078 288.901C480 287.714 482.833 286.344 485.578 284.792C482.745 275.302 479.026 266.172 474.422 257.396C467.766 244.349 459.438 232.469 449.438 221.76H449.432ZM407.583 269.828C411.568 259.615 416.542 249.906 422.5 240.703C428.458 231.495 435.281 222.984 442.964 215.167C440.807 213.135 438.651 211.234 436.37 209.208C427.417 217.854 419.573 227.417 412.849 237.896C406.12 248.37 400.688 259.479 396.547 271.224C398.943 273.87 401.521 276.323 404.281 278.578C405.297 275.661 406.443 272.745 407.578 269.828H407.583ZM455.901 215.167C463.583 223 470.417 231.516 476.396 240.719C482.375 249.922 487.38 259.625 491.411 269.828C492.552 272.745 493.568 275.661 494.583 278.578C497.385 276.323 500.005 273.87 502.443 271.224C498.26 259.49 492.792 248.385 486.047 237.911C479.297 227.438 471.448 217.87 462.495 209.208C460.214 211.234 458.057 213.141 455.901 215.167ZM389.828 262.979C394.057 251.688 399.536 241.042 406.266 231.031C412.995 221.026 420.786 211.938 429.646 203.755C427.375 201.995 425.052 200.302 422.672 198.682C412.234 208.328 403.271 219.193 395.786 231.276C391.401 238.422 387.599 245.859 384.375 253.599C385.948 256.87 387.766 259.995 389.828 262.984V262.979ZM449.813 143.766C452.469 143.766 455.115 143.896 457.755 144.156C460.396 144.417 463.021 144.802 465.62 145.323C468.224 145.839 470.797 146.484 473.339 147.255C475.875 148.026 478.375 148.917 480.823 149.932C483.276 150.948 485.672 152.083 488.016 153.333C490.354 154.583 492.63 155.948 494.833 157.422C497.042 158.896 499.172 160.474 501.224 162.161C503.276 163.844 505.24 165.625 507.115 167.5C508.995 169.375 510.771 171.339 512.458 173.391C514.141 175.443 515.719 177.573 517.193 179.781C518.672 181.984 520.031 184.26 521.281 186.599C522.536 188.943 523.667 191.339 524.682 193.792C525.698 196.245 526.594 198.74 527.365 201.276C528.135 203.818 528.776 206.391 529.297 208.995C529.813 211.594 530.203 214.219 530.464 216.859C530.724 219.5 530.854 222.151 530.854 224.802C530.854 227.458 530.724 230.104 530.464 232.745C530.203 235.385 529.818 238.01 529.297 240.615C528.781 243.214 528.135 245.786 527.365 248.328C526.594 250.87 525.703 253.365 524.688 255.818C523.672 258.266 522.536 260.667 521.286 263.005C520.036 265.344 518.672 267.62 517.198 269.828C515.724 272.031 514.146 274.161 512.464 276.214C510.776 278.266 508.995 280.229 507.12 282.109C505.245 283.984 503.281 285.766 501.229 287.448C499.177 289.13 497.047 290.714 494.839 292.188C492.635 293.661 490.359 295.026 488.021 296.276C485.677 297.526 483.281 298.661 480.828 299.677C478.38 300.693 475.88 301.583 473.344 302.354C470.802 303.125 468.229 303.771 465.63 304.286C463.026 304.807 460.401 305.193 457.76 305.453C455.12 305.714 452.474 305.844 449.818 305.844C447.161 305.849 444.516 305.719 441.875 305.458C439.234 305.198 436.609 304.807 434.01 304.292C431.406 303.771 428.833 303.13 426.292 302.359C423.755 301.589 421.255 300.693 418.807 299.677C416.354 298.661 413.958 297.531 411.615 296.281C409.276 295.026 407 293.667 404.792 292.193C402.589 290.719 400.458 289.135 398.406 287.453C396.354 285.771 394.391 283.99 392.516 282.115C390.635 280.24 388.854 278.271 387.172 276.224C385.49 274.172 383.906 272.042 382.432 269.833C380.958 267.625 379.594 265.354 378.344 263.01C377.094 260.672 375.958 258.276 374.943 255.823C373.927 253.37 373.036 250.875 372.266 248.339C371.495 245.797 370.849 243.224 370.333 240.62C369.813 238.021 369.422 235.396 369.161 232.755C368.901 230.115 368.771 227.464 368.771 224.813C368.776 222.161 368.911 219.51 369.177 216.875C369.443 214.234 369.833 211.615 370.354 209.01C370.875 206.411 371.521 203.839 372.297 201.302C373.068 198.766 373.964 196.271 374.979 193.823C376 191.37 377.135 188.979 378.385 186.641C379.635 184.302 381 182.026 382.474 179.823C383.953 177.62 385.531 175.49 387.214 173.438C388.896 171.391 390.677 169.427 392.552 167.552C394.427 165.672 396.391 163.896 398.443 162.214C400.49 160.526 402.62 158.948 404.823 157.474C407.031 156 409.302 154.635 411.641 153.385C413.979 152.13 416.375 150.995 418.823 149.979C421.276 148.964 423.766 148.068 426.307 147.292C428.844 146.521 431.411 145.875 434.016 145.354C436.615 144.833 439.234 144.438 441.875 144.172C444.516 143.911 447.161 143.776 449.813 143.771V143.766ZM485.578 126.01C482.568 129.505 480.12 133.349 478.219 137.552C477.604 135.974 477.521 134.365 477.964 132.734C478.599 126.896 480.25 123.349 483.292 118.401C484.307 116.625 485.323 115.104 485.828 113.203C486.354 111.599 486.693 109.958 486.849 108.281C487 106.599 486.958 104.927 486.729 103.255C486.5 101.583 486.083 99.9635 485.479 98.3854C484.88 96.8125 484.109 95.3229 483.167 93.9271C483.458 96.6771 483.286 99.401 482.656 102.099C482.026 104.797 480.969 107.313 479.49 109.651C479.135 110.214 478.714 110.724 478.219 111.172C474.901 114.24 472.068 117.708 469.724 121.573C467.281 125.5 465.417 129.682 464.141 134.13C463.359 132.698 463.063 131.177 463.255 129.557C463 123.599 464.016 119.922 466.177 114.469C467.016 112.688 467.609 110.828 467.953 108.885C468.839 103.052 467.318 95.5729 462.245 90.3698C462.969 93.0417 463.234 95.7604 463.036 98.5208C462.844 101.281 462.198 103.938 461.104 106.479C460.792 107.047 460.453 107.594 460.089 108.125C457.328 111.688 455.047 115.536 453.24 119.667C451.542 123.964 450.401 128.401 449.818 132.984C448.76 131.693 448.208 130.214 448.167 128.542C447.026 122.708 447.406 118.906 448.677 113.198C449.292 111.349 449.589 109.443 449.563 107.49C449.557 105.807 449.365 104.146 448.984 102.505C448.604 100.865 448.047 99.2917 447.307 97.776C446.573 96.2604 445.677 94.849 444.625 93.5365C443.568 92.224 442.38 91.0469 441.063 90C442.198 92.5521 442.885 95.2187 443.125 98C443.365 100.781 443.141 103.526 442.458 106.234C442.203 106.74 441.948 107.375 441.698 107.88C440.177 111.052 438.401 114.099 436.755 120.438C435.719 124.943 435.25 129.51 435.359 134.135C434.266 132.969 433.505 131.615 433.078 130.078C431.047 124.37 430.792 120.693 431.302 114.729C431.49 112.828 431.49 110.927 431.302 109.026C430.286 103.063 426.479 96.4687 420.141 93.0417C421.635 95.3802 422.708 97.8958 423.359 100.589C424.01 103.281 424.208 106.01 423.948 108.771L423.568 110.672C422.047 114.948 421.073 119.344 420.651 123.865C420.26 128.464 420.51 133.031 421.411 137.557C420.12 136.583 419.146 135.359 418.49 133.88C415.573 128.552 414.813 124.875 414.302 119.042C414.286 117.083 413.948 115.182 413.292 113.339C411.516 107.63 406.693 101.667 399.849 99.3854C404.286 104.328 406.063 110.036 406.063 114.224C406.083 114.865 406.042 115.495 405.938 116.125C405.135 120.578 404.885 125.057 405.177 129.568C405.573 134.177 406.547 138.656 408.094 143.01C406.635 142.266 405.448 141.208 404.542 139.844C400.865 135.151 399.599 131.599 398.203 125.891C397.818 123.948 397.182 122.089 396.302 120.313C393.635 115.109 387.932 109.911 380.828 108.646C385.901 112.953 388.563 118.411 389.328 122.469C389.432 123.099 389.474 123.729 389.453 124.37C389.432 128.901 389.896 133.38 390.849 137.813C391.901 142.271 393.552 146.5 395.792 150.495C394.255 150 392.943 149.151 391.859 147.958C387.422 143.901 385.516 140.604 383.359 135.151C382.677 133.318 381.786 131.583 380.698 129.953C377.146 125.26 370.807 121.073 363.453 120.948C369.286 124.375 372.708 129.193 374.104 133.125L374.484 135.026C375.12 138.448 375.5 142 377.906 148.089C379.682 152.349 382.005 156.276 384.885 159.885C383.271 159.651 381.833 159.021 380.573 157.979C375.63 154.688 373.214 151.641 370.047 146.693C369.161 144.943 368.021 143.375 366.62 142C362.438 137.818 355.464 134.646 348.234 135.661C354.448 138.198 358.63 142.51 360.661 146.188C360.917 146.693 361.172 147.328 361.422 147.964C362.568 151.13 363.453 154.557 366.75 160.266C369.177 164.214 372.094 167.766 375.5 170.917C373.88 170.854 372.359 170.432 370.932 169.651C365.479 167.115 362.693 164.578 358.885 160.135C357.62 158.615 356.224 157.219 354.703 155.953C349.88 152.526 342.526 150.5 335.552 152.656C342.146 154.177 346.964 157.729 349.375 161.026C349.833 161.5 350.172 162.052 350.391 162.677C352.37 166.745 354.823 170.505 357.745 173.964C360.667 177.547 364.052 180.635 367.891 183.219C366.271 183.427 364.703 183.219 363.198 182.583C357.49 181.063 354.318 178.906 349.88 175.104C348.422 173.818 346.859 172.677 345.188 171.677C343.672 170.938 342.094 170.37 340.448 169.974C338.807 169.583 337.141 169.375 335.453 169.354C333.766 169.333 332.094 169.495 330.438 169.844C328.786 170.193 327.193 170.719 325.656 171.427C328.443 171.563 331.13 172.151 333.719 173.198C336.302 174.24 338.646 175.677 340.75 177.516C341.161 178 341.542 178.505 341.891 179.036C344.047 181.698 345.948 184.74 350.896 189.052C354.406 192.063 358.255 194.557 362.438 196.536C360.885 197.036 359.323 197.078 357.745 196.661C351.781 196.031 348.359 194.38 343.286 191.339C341.51 190.323 339.99 189.307 338.089 188.802C336.495 188.276 334.865 187.932 333.198 187.781C331.526 187.63 329.859 187.672 328.203 187.901C326.542 188.13 324.927 188.547 323.365 189.151C321.797 189.75 320.323 190.521 318.938 191.464C321.688 191.182 324.411 191.354 327.109 191.984C329.802 192.615 332.318 193.667 334.661 195.141C335.188 195.5 335.651 195.922 336.057 196.411C338.594 198.818 341.005 201.484 346.458 204.906C350.37 207.38 354.552 209.24 359.01 210.49C357.583 211.25 356.063 211.589 354.443 211.5C348.484 211.63 344.807 210.615 339.354 208.458C337.573 207.615 335.714 207.026 333.771 206.682C327.938 205.797 320.453 207.318 315.255 212.391C321.724 210.74 327.687 211.755 331.365 213.531C331.927 213.839 332.479 214.177 333.01 214.547C336.594 217.38 340.5 219.667 344.724 221.411C348.948 223.156 353.328 224.292 357.865 224.818C356.615 225.854 355.177 226.401 353.557 226.464C347.594 227.734 343.917 227.224 338.083 225.958C336.219 225.401 334.318 225.109 332.375 225.068C326.417 225.068 319.313 227.734 315 233.568C317.531 232.432 320.172 231.745 322.938 231.505C325.698 231.266 328.422 231.49 331.109 232.172C331.74 232.427 332.25 232.677 332.88 232.932C336.859 235.104 341.047 236.755 345.438 237.875C349.901 238.922 354.427 239.385 359.01 239.271C357.844 240.365 356.49 241.125 354.948 241.552C349.37 243.583 345.568 243.839 339.734 243.328C337.786 243.141 335.844 243.141 333.896 243.328C328.063 244.344 321.469 248.151 318.047 254.615C320.359 253.068 322.865 251.958 325.568 251.281C328.266 250.604 331 250.406 333.771 250.688C334.406 250.813 334.911 250.938 335.547 251.068C339.844 252.651 344.276 253.625 348.839 253.99C353.406 254.359 357.938 254.099 362.432 253.224C361.458 254.51 360.229 255.484 358.755 256.141C353.552 259.057 349.75 259.818 343.917 260.328C341.979 260.469 340.078 260.807 338.208 261.344C336.615 261.859 335.094 262.552 333.656 263.417C332.219 264.276 330.891 265.292 329.682 266.458C328.474 267.62 327.411 268.906 326.495 270.313C325.583 271.719 324.833 273.208 324.255 274.786C326.323 272.927 328.641 271.469 331.208 270.401C333.776 269.333 336.448 268.724 339.224 268.568C339.859 268.547 340.495 268.589 341.125 268.698C345.573 269.505 350.057 269.76 354.568 269.458C359.151 269.135 363.589 268.161 367.885 266.536C367.214 268.068 366.161 269.25 364.714 270.089C360.021 273.766 356.469 275.031 350.766 276.427C348.859 276.818 347.042 277.448 345.313 278.333C343.818 279.099 342.427 280.021 341.146 281.099C339.859 282.182 338.714 283.391 337.703 284.729C336.693 286.068 335.844 287.505 335.161 289.036C334.474 290.568 333.969 292.156 333.641 293.802C335.38 291.656 337.422 289.849 339.771 288.396C342.12 286.938 344.641 285.906 347.339 285.307C347.969 285.203 348.604 285.161 349.24 285.182C353.776 285.208 358.255 284.745 362.682 283.786C367.177 282.714 371.443 281.068 375.49 278.844C374.974 280.406 374.083 281.714 372.828 282.776C368.771 287.214 365.469 289.115 360.021 291.271C358.266 292.031 356.573 292.922 354.948 293.932C350.13 297.484 345.943 303.828 345.818 311.182C347.193 308.75 348.938 306.625 351.052 304.797C353.161 302.969 355.516 301.547 358.12 300.526C358.755 300.401 359.26 300.276 359.896 300.146C363.318 299.516 366.87 299.135 372.958 296.724C377.214 294.932 381.188 292.651 384.88 289.875C384.568 291.448 383.891 292.844 382.849 294.063C379.552 299.005 376.63 301.417 371.563 304.589C369.854 305.531 368.292 306.672 366.87 308.01C365.693 309.214 364.667 310.526 363.786 311.958C362.906 313.391 362.198 314.906 361.661 316.495C361.125 318.089 360.771 319.719 360.599 321.391C360.427 323.063 360.448 324.734 360.656 326.401C361.625 323.797 363.005 321.427 364.786 319.292C366.573 317.161 368.661 315.385 371.052 313.969C371.688 313.714 372.193 313.464 372.828 313.208C377.172 311.995 381.276 310.219 385.13 307.88C389.083 305.453 392.635 302.536 395.781 299.13C395.844 300.786 395.422 302.313 394.516 303.698C391.979 309.151 389.443 311.943 385.005 315.745C383.49 316.984 382.135 318.38 380.948 319.932C377.521 324.75 375.495 332.109 377.651 339.083C379.047 332.49 382.594 327.667 386.021 325.26C386.5 324.875 387.005 324.536 387.542 324.245C391.635 322.24 395.443 319.786 398.958 316.885C402.464 313.922 405.505 310.542 408.089 306.74C408.286 308.344 408.12 309.911 407.578 311.432C405.932 317.141 403.901 320.313 399.969 324.75C398.651 326.208 397.557 327.813 396.677 329.573C394.01 334.896 393.125 342.375 396.297 348.974C396.802 342.255 399.589 336.927 402.51 334.01C402.917 333.521 403.38 333.099 403.906 332.74C406.698 330.583 409.615 328.682 413.927 323.734C416.932 320.224 419.427 316.375 421.406 312.198C421.885 313.74 421.969 315.302 421.661 316.885C420.901 322.849 419.38 326.271 416.333 331.344C415.219 332.964 414.333 334.698 413.672 336.547C411.896 342.25 412.276 349.859 416.464 355.823C415.828 349.099 417.729 343.391 420.141 339.969C420.49 339.479 420.87 339.016 421.281 338.573C423.693 336.036 426.354 333.63 429.906 328.177C432.276 324.229 434.094 320.047 435.359 315.62C436.125 317.047 436.458 318.573 436.375 320.188C436.625 326.151 435.615 329.828 433.328 335.281C432.547 337.078 431.953 338.938 431.552 340.859C430.667 346.693 432.188 354.177 437.26 359.375C435.615 352.911 436.625 346.948 438.531 343.271C438.75 342.682 439.047 342.13 439.417 341.62C442.25 338.057 444.531 334.167 446.266 329.953C448.094 325.729 449.276 321.333 449.818 316.766C450.734 318.063 451.281 319.5 451.464 321.078C452.604 327.036 452.224 330.714 450.828 336.547C450.276 338.411 449.979 340.313 449.943 342.255C449.953 343.938 450.156 345.594 450.547 347.229C450.932 348.865 451.5 350.432 452.25 351.938C452.995 353.443 453.901 354.844 454.969 356.146C456.036 357.443 457.234 358.604 458.568 359.63C455.901 353.542 455.901 347.583 457.172 343.526C457.328 342.911 457.536 342.323 457.807 341.75C459.979 337.771 461.625 333.583 462.75 329.193C463.792 324.729 464.26 320.208 464.146 315.625C465.286 316.76 466.052 318.115 466.427 319.682C468.583 325.26 468.708 329.068 468.328 335.026C468.01 336.927 468.01 338.833 468.328 340.734C468.583 342.406 469.031 344.021 469.656 345.589C470.286 347.156 471.083 348.635 472.052 350.021C473.021 351.406 474.13 352.661 475.385 353.792C476.641 354.922 478.01 355.896 479.484 356.714C475.938 351.005 475.047 345.047 475.682 340.99C475.688 340.328 475.813 339.693 476.063 339.083C477.583 334.807 478.552 330.411 478.979 325.896C479.24 321.302 478.984 316.734 478.219 312.198C479.464 313.208 480.438 314.432 481.135 315.875C484.052 321.078 484.813 324.88 485.323 330.714C485.359 332.656 485.656 334.557 486.208 336.422C486.74 338.021 487.443 339.542 488.318 340.979C489.193 342.422 490.219 343.745 491.396 344.953C492.568 346.161 493.865 347.219 495.281 348.135C496.698 349.052 498.193 349.797 499.781 350.375C495.339 345.297 493.563 339.594 493.438 335.406C493.417 334.771 493.458 334.135 493.563 333.505C494.438 329.057 494.693 324.578 494.323 320.063C493.995 315.5 493.063 311.057 491.536 306.745C492.964 307.495 494.104 308.552 494.958 309.917C498.635 314.609 500.031 318.161 501.427 323.865C501.771 325.766 502.359 327.583 503.203 329.318C505.995 334.646 511.573 339.719 518.802 340.99C516.62 339.271 514.786 337.234 513.302 334.885C511.823 332.536 510.781 330 510.177 327.292C510.073 326.661 510.031 326.026 510.052 325.385C510.198 320.854 509.776 316.375 508.781 311.948C507.656 307.453 505.964 303.182 503.708 299.141C505.292 299.625 506.604 300.516 507.641 301.802C512.078 305.859 513.984 309.156 516.266 314.609C516.927 316.417 517.818 318.109 518.927 319.682C522.479 324.5 528.823 328.688 536.052 328.813C533.651 327.417 531.552 325.661 529.745 323.552C527.943 321.443 526.536 319.094 525.521 316.51C525.297 315.938 525.125 315.344 525.016 314.734C524.458 310.229 523.318 305.875 521.594 301.672C519.87 297.417 517.589 293.484 514.745 289.88C516.385 290.052 517.823 290.688 519.057 291.781C524 295.078 526.411 297.995 529.453 303.068C530.411 304.766 531.552 306.333 532.88 307.76C534.078 308.938 535.396 309.964 536.828 310.844C538.26 311.724 539.771 312.432 541.365 312.969C542.958 313.505 544.589 313.859 546.26 314.031C547.932 314.203 549.599 314.182 551.271 313.974C545.052 311.568 540.87 307.255 538.969 303.578C538.604 303.031 538.349 302.438 538.203 301.802C536.88 297.484 535.063 293.38 532.75 289.5C530.339 285.578 527.464 282.026 524.13 278.849C525.76 278.88 527.281 279.302 528.698 280.115C534.026 282.651 536.943 285.188 540.745 289.625C541.906 291.172 543.26 292.521 544.802 293.682C546.172 294.667 547.63 295.484 549.182 296.141C550.729 296.797 552.333 297.271 553.99 297.568C555.646 297.865 557.318 297.974 559 297.896C560.677 297.818 562.333 297.557 563.953 297.109C557.484 295.589 552.667 292.036 550.13 288.609C549.75 288.13 549.411 287.625 549.115 287.089C547.469 284.047 546.073 280.75 541.885 275.677C538.839 272.203 535.417 269.161 531.615 266.542C533.219 266.339 534.781 266.505 536.307 267.052C542.016 268.698 545.182 270.854 549.75 274.661C551.182 275.948 552.745 277.047 554.443 277.953C559.771 280.62 567.25 281.505 573.844 278.333C567.125 277.828 561.927 275.042 558.88 272.12C558.391 271.714 557.969 271.25 557.615 270.724C555.068 267.016 552.109 263.677 548.734 260.708C545.182 257.76 541.333 255.266 537.193 253.224C538.74 252.74 540.302 252.656 541.885 252.969C547.719 253.729 551.271 255.255 556.219 258.422C557.865 259.448 559.599 260.292 561.417 260.958C567.125 262.734 574.734 262.354 580.693 258.172C573.974 258.802 568.391 256.901 564.969 254.49L563.443 253.349C560.359 250.016 556.891 247.141 553.047 244.719C549.115 242.328 544.927 240.51 540.49 239.266C541.922 238.521 543.448 238.182 545.057 238.255C551.146 238 554.823 239.016 560.151 241.297C561.953 242.078 563.813 242.672 565.734 243.073C571.568 243.958 579.047 242.438 584.25 237.365C577.781 239.016 571.948 238 568.141 236.099C567.568 235.849 567.016 235.557 566.495 235.208C562.932 232.448 559.083 230.167 554.953 228.359C550.651 226.656 546.214 225.474 541.635 224.807C542.969 223.87 544.453 223.323 546.073 223.161C551.911 222.021 555.714 222.401 561.422 223.797C563.281 224.349 565.188 224.646 567.13 224.682C568.807 224.667 570.469 224.464 572.104 224.073C573.74 223.688 575.313 223.13 576.828 222.396C578.339 221.661 579.755 220.771 581.068 219.724C582.385 218.677 583.568 217.5 584.625 216.188C578.411 218.724 572.448 218.724 568.516 217.458C567.901 217.323 567.307 217.109 566.745 216.823C563.573 215.302 560.526 213.526 554.188 211.88C549.682 210.833 545.115 210.37 540.49 210.484C541.625 209.339 542.979 208.578 544.547 208.203C550.255 206.047 554.063 205.917 559.896 206.297C561.839 206.62 563.781 206.62 565.729 206.297C567.385 206.031 568.995 205.583 570.547 204.948C572.104 204.313 573.568 203.516 574.943 202.547C576.313 201.583 577.563 200.474 578.682 199.224C579.802 197.974 580.771 196.609 581.583 195.141C575.875 198.693 570.042 199.578 565.854 199.073C565.203 198.964 564.573 198.792 563.953 198.563C559.719 197.057 555.365 196.083 550.891 195.646C546.286 195.37 541.724 195.667 537.193 196.531C538.104 195.141 539.333 194.125 540.87 193.49C546.073 190.568 549.75 189.813 555.583 189.302C557.526 189.266 559.427 188.969 561.286 188.417C566.995 186.51 572.958 181.818 575.24 174.844C573.203 176.724 570.917 178.208 568.37 179.297C565.823 180.385 563.167 181.016 560.401 181.188C559.766 181.208 559.13 181.167 558.5 181.057C555.073 180.552 551.526 179.792 545.057 180.297C540.438 180.635 535.953 181.604 531.615 183.219C532.359 181.755 533.417 180.573 534.781 179.667C539.474 175.99 543.026 174.594 548.734 173.198C550.672 172.859 552.531 172.266 554.313 171.427C559.516 168.635 564.714 163.052 565.979 155.823C561.672 161.026 556.344 163.688 552.156 164.448C551.526 164.557 550.896 164.599 550.255 164.578C545.76 164.427 541.323 164.849 536.938 165.844C532.432 166.927 528.161 168.62 524.135 170.917C524.568 169.344 525.417 168.031 526.672 166.984C530.729 162.547 534.026 160.646 539.474 158.365C541.339 157.729 543.073 156.839 544.677 155.698C549.37 152.146 553.552 145.807 553.682 138.578C550.255 144.286 545.438 147.708 541.505 149.104C540.885 149.333 540.25 149.5 539.604 149.609C536.177 150.245 532.625 150.625 526.542 153.036C522.313 154.813 518.38 157.094 514.745 159.885C515 158.281 515.635 156.844 516.646 155.573C519.943 150.63 522.99 148.214 527.938 145.172C529.656 144.245 531.219 143.104 532.625 141.75C536.813 137.563 539.984 130.589 538.969 123.359C536.432 129.573 532.12 133.76 528.443 135.792C527.911 136.057 527.365 136.271 526.797 136.427C522.443 137.766 518.297 139.583 514.365 141.88C510.443 144.292 506.891 147.167 503.708 150.5C503.792 148.927 504.214 147.448 504.979 146.063C507.516 140.609 510.052 137.818 514.49 133.891C516.042 132.698 517.438 131.344 518.672 129.828C522.099 125.01 524.125 117.656 521.969 110.682C520.448 117.146 516.896 121.969 513.599 124.505C513.094 124.917 512.547 125.255 511.953 125.516C508.906 127.167 505.609 128.563 500.667 132.745C497.125 135.724 494.083 139.146 491.536 143.01C491.203 141.391 491.375 139.828 492.047 138.318C493.693 132.615 495.724 129.443 499.526 124.875C500.797 123.354 502.063 122.083 502.953 120.182C503.698 118.677 504.266 117.109 504.656 115.474C505.047 113.844 505.255 112.188 505.276 110.51C505.297 108.833 505.135 107.172 504.786 105.526C504.438 103.885 503.911 102.302 503.208 100.781C503.099 103.552 502.521 106.224 501.474 108.797C500.432 111.37 498.979 113.682 497.12 115.745C496.682 116.203 496.219 116.625 495.724 117.01C491.938 119.563 488.557 122.563 485.578 126.016V126.01Z" fill="#FEDD00"/>
</g>
</g>
<defs>
<clipPath id="clip0_764_1429">
<rect width="900" height="450" fill="white"/>
</clipPath>
</defs>
</svg>
