<svg width="900" height="450" viewBox="0 0 900 450" fill="none" xmlns="http://www.w3.org/2000/svg">
<g clip-path="url(#clip0_764_1578)">
<path d="M900 0H0V450H900V0Z" fill="#1E1E1E"/>
<mask id="mask0_764_1578" style="mask-type:luminance" maskUnits="userSpaceOnUse" x="0" y="0" width="900" height="450">
<path d="M900 0H0V450H900V0Z" fill="white"/>
</mask>
<g mask="url(#mask0_764_1578)">
<mask id="mask1_764_1578" style="mask-type:luminance" maskUnits="userSpaceOnUse" x="0" y="0" width="900" height="450">
<path d="M0 0H900V450H0V0Z" fill="white"/>
</mask>
<g mask="url(#mask1_764_1578)">
<path d="M0 0H900V450H0V0Z" fill="white"/>
<path d="M0 0H900V450H0V0Z" fill="white"/>
</g>
<mask id="mask2_764_1578" style="mask-type:luminance" maskUnits="userSpaceOnUse" x="0" y="0" width="900" height="450">
<path d="M0 0H900V450H0V0Z" fill="white"/>
</mask>
<g mask="url(#mask2_764_1578)">
<path d="M0 0H900V450H0V0Z" fill="#032EA1"/>
</g>
<mask id="mask3_764_1578" style="mask-type:luminance" maskUnits="userSpaceOnUse" x="0" y="112" width="900" height="226">
<path d="M0 112H900V337.333H0V112Z" fill="white"/>
</mask>
<g mask="url(#mask3_764_1578)">
<path d="M0 112.333H900V337H0V112.333Z" fill="#E00025"/>
</g>
<path d="M386.661 211.776H514.474V260.969H386.661V211.776Z" fill="white" stroke="black" stroke-width="1.07831" stroke-linejoin="bevel"/>
<path d="M507.885 238.943H511.911V257.469H507.885V238.943Z" fill="white" stroke="black" stroke-width="1.07831" stroke-linejoin="bevel"/>
<path d="M386.661 229.787H514.474V235.505H386.661V229.787Z" fill="white" stroke="black" stroke-width="1.07831" stroke-linejoin="bevel"/>
<path d="M386.661 222.037H514.474V227.078H386.661V222.037Z" fill="white" stroke="black" stroke-width="1.07831" stroke-linejoin="bevel"/>
<path d="M386.661 214.297H514.474V219.188H386.661V214.297Z" fill="white" stroke="black" stroke-width="1.06146" stroke-linejoin="bevel"/>
<path d="M420.312 238.943H424.339V257.469H420.312V238.943Z" fill="white" stroke="black" stroke-width="1.07831" stroke-linejoin="bevel"/>
<path d="M475.333 238.943H479.365V257.469H475.333V238.943Z" fill="white" stroke="black" stroke-width="1.07831" stroke-linejoin="bevel"/>
<path d="M387.672 238.943H391.703V257.469H387.672V238.943Z" fill="white" stroke="black" stroke-width="1.07831" stroke-linejoin="bevel"/>
<path d="M395.568 238.943H399.599V257.469H395.568V238.943Z" fill="white" stroke="black" stroke-width="1.07831" stroke-linejoin="bevel"/>
<path d="M403.995 238.943H408.021V257.469H403.995V238.943Z" fill="white" stroke="black" stroke-width="1.07831" stroke-linejoin="bevel"/>
<path d="M412.417 238.943H416.443V257.469H412.417V238.943Z" fill="white" stroke="black" stroke-width="1.07831" stroke-linejoin="bevel"/>
<path d="M482.974 238.943H487V257.469H482.974V238.943Z" fill="white" stroke="black" stroke-width="1.07831" stroke-linejoin="bevel"/>
<path d="M491.396 238.943H495.422V257.469H491.396V238.943Z" fill="white" stroke="black" stroke-width="1.07831" stroke-linejoin="bevel"/>
<path d="M499.818 238.943H503.849V257.469H499.818V238.943Z" fill="white" stroke="black" stroke-width="1.07831" stroke-linejoin="bevel"/>
<path d="M336.672 263.552C338.651 262.547 340.906 260.203 341.641 257.578H558.484C559.224 260.203 561.479 262.547 563.453 263.552H336.672Z" fill="white" stroke="black" stroke-width="1.07831"/>
<path d="M447.292 136.896C447.292 136.896 447.13 132.276 449.818 132.229C452.51 132.276 452.344 136.896 452.344 136.896H447.292Z" fill="white" stroke="black" stroke-width="1.07831"/>
<path d="M433.26 198.162V191.943C433.172 188.833 430.161 188.61 430.073 186.344C430.073 186.344 429.688 182.943 430.583 181.391C431.802 185.938 434.016 185.104 434.016 183.235C434.016 181.604 432.76 180.084 430.188 176.125C429.365 174.86 429.875 170.891 431.026 169.469C431.474 172.922 431.984 174.568 433.464 174.568C434.37 174.568 435.104 173.979 435.104 172.255C435.104 170.057 433.62 168.948 432.885 166.948C432.031 164.61 432.62 162.235 434.036 160.901C434.646 164.307 434.464 165.662 435.974 165.662C439.026 164.698 435.979 160.287 435.328 159.172C434.578 157.875 436.333 155.287 436.333 155.287C437.302 158.307 437.615 158.552 438.656 158.276C439.974 157.922 439.807 155.964 438.198 154.386C437.182 153.386 437.292 151.901 438.38 150.708C439.474 152.849 440.875 152.719 441.01 151.443L440.13 146.511H459.51L458.547 151.281C458.271 152.651 460.115 152.948 461.26 150.703C462.354 151.901 462.458 153.386 461.443 154.386C459.839 155.964 459.667 157.922 460.984 158.276C462.031 158.552 462.339 158.307 463.307 155.287C463.307 155.287 464.885 157.052 464.318 159.172C463.667 160.287 460.62 164.698 463.667 165.662C465.177 165.662 464.995 164.307 465.604 160.901C467.021 162.235 467.609 164.61 466.755 166.948C466.026 168.948 464.536 170.057 464.536 172.255C464.536 173.979 465.276 174.568 466.177 174.568C467.661 174.568 468.172 172.922 468.615 169.469C469.771 170.891 470.276 174.86 469.458 176.125C466.885 180.084 465.63 181.604 465.63 183.235C465.63 185.104 467.844 185.938 469.063 181.391C469.958 182.943 469.568 186.344 469.568 186.344C469.479 188.61 466.469 188.833 466.38 191.943V198.162H433.26Z" fill="white" stroke="black" stroke-width="1.07831"/>
<path d="M441.37 146.469L440.927 142.958H458.714L458.266 146.469H441.37Z" fill="white" stroke="black" stroke-width="1.07831"/>
<path d="M442.563 142.886L442.177 140H457.458L457.073 142.886H442.563Z" fill="white" stroke="black" stroke-width="1.07831"/>
<path d="M444.99 139.896L444.734 137.011H454.906L454.651 139.896H444.99Z" fill="white" stroke="black" stroke-width="1.07831"/>
<path d="M482.073 263.552C479.797 262.677 476.484 260.276 476.484 257.86V230.563L479.448 226.792H420.172L423.016 230.563V257.86C423.016 260.276 420.74 262.677 418.464 263.552H482.073Z" fill="white" stroke="black" stroke-width="1.07831"/>
<path d="M430.714 238.943H434.74V257.469H430.714V238.943Z" fill="white" stroke="black" stroke-width="1.07831" stroke-linejoin="bevel"/>
<path d="M464.766 238.943H468.792V257.469H464.766V238.943Z" fill="white" stroke="black" stroke-width="1.07831" stroke-linejoin="bevel"/>
<path d="M419.109 195.724V226.792H479.786V220.099L479.875 195.724C477.391 196.703 476.958 198.953 476.958 198.953V212.182H422.203V198.953C422.203 198.953 421.594 196.703 419.109 195.724Z" fill="white" stroke="black" stroke-width="1.07831"/>
<path d="M471.552 263.552C469.568 262.677 465.245 260.276 465.245 257.86V227.313C465.672 225.61 467.984 224.599 469.469 223.542H429.24C431.151 224.552 433.286 225.396 434.047 227.313V257.86C434.047 260.276 430.635 262.677 428.651 263.552H471.552Z" fill="white" stroke="black" stroke-width="1.07831"/>
<path d="M476.953 223.865V201.865H471.438V199.719H427.818V201.865H422.302V223.865H476.953Z" fill="white" stroke="black" stroke-width="1.07831"/>
<path d="M462.859 263.552C460.911 262.677 458.083 260.276 458.083 257.86V231.781L459.682 229.412H439.812L441.406 231.781V257.86C441.406 260.276 438.578 262.677 436.635 263.552H462.859Z" fill="white" stroke="black" stroke-width="1.07831"/>
<path d="M444.719 229.417H454.786V263.537H444.719V229.417Z" fill="white" stroke="black" stroke-width="1.10189"/>
<path d="M460.073 221.912C460.094 219.662 466.63 219.563 469.99 217.646H429.609C432.974 219.563 439.354 219.719 439.354 221.912L440.724 226.271L457.438 226.943L460.073 221.912Z" fill="white" stroke="black" stroke-width="1.07831" stroke-linejoin="bevel"/>
<path d="M467.969 198.162C467.969 192.662 468.198 190.542 469.885 190.542L469.891 208.042C465.745 209.547 462.781 214.839 462.781 214.839H436.714C436.714 214.839 433.755 209.547 429.609 208.042V190.542C431.693 190.542 431.708 192.755 431.708 198.162H467.969Z" fill="white" stroke="black" stroke-width="1.07831"/>
<path d="M469.885 195.906C469.885 189.594 475.339 188.886 475.339 188.886V194.5C473.26 194.412 472.26 196.276 472.26 199.047C472.26 201.813 473.932 201.86 473.932 201.86V217.797H469.885V195.906Z" fill="white" stroke="black" stroke-width="1.07831"/>
<path d="M429.635 195.906C429.635 189.594 424.188 188.886 424.188 188.886V194.5C426.26 194.412 427.26 196.276 427.26 199.047C427.26 201.813 425.589 201.86 425.589 201.86V217.797H429.635V195.906Z" fill="white" stroke="black" stroke-width="1.07831"/>
<path d="M440.37 152.422H459.609" stroke="black" stroke-width="0.898589"/>
<path d="M438.094 158.432H461.589" stroke="black" stroke-width="0.898589"/>
<path d="M435.812 165.724H463.781" stroke="black" stroke-width="0.898589"/>
<path d="M433.432 174.63H466.604" stroke="black" stroke-width="0.898589"/>
<path d="M432.667 184.787H466.839" stroke="black" stroke-width="0.898589"/>
<path d="M422.302 217.912H476.953" stroke="black" stroke-width="1.07831"/>
<path d="M439.641 217.922H459.901V225.37H439.641V217.922Z" stroke="black" stroke-width="1.07831"/>
<path d="M437.104 201.422C440.464 205.453 440.151 212.297 440.109 216.328H459.589C459.552 212.297 459.24 205.453 462.599 201.422H437.104Z" fill="white" stroke="black" stroke-width="1.07831"/>
<path d="M448.052 155.219L445.385 153.844V149.917C446.474 150.245 447.703 150.375 447.823 152.115C448.198 149.636 448.885 149.755 449.964 148.787C451.036 149.755 451.724 149.636 452.104 152.115C452.224 150.375 453.448 150.245 454.536 149.917V153.844L451.87 155.219H448.052Z" fill="white" stroke="black" stroke-width="1.07831"/>
<path d="M447.875 161.667L443.443 158.62V155C444.995 155.36 446.74 155.505 446.911 157.412C447.453 154.693 448.427 153.281 449.958 152.224C451.495 153.281 452.469 154.693 453.01 157.412C453.182 155.505 454.922 155.36 456.479 155V158.62L452.047 161.667H447.875Z" fill="white" stroke="black" stroke-width="1.07831"/>
<path d="M447.557 171.719L442.464 167.245V161.922C444.25 162.453 446.255 162.667 446.453 165.469C447.073 161.469 448.198 159.406 449.958 157.844C451.719 159.406 452.844 161.469 453.464 165.469C453.661 162.667 455.667 162.453 457.453 161.922V167.245L452.354 171.719H447.557Z" fill="white" stroke="black" stroke-width="1.07831"/>
<path d="M456.958 177.662L452.349 184.037H447.135L442.526 177.662H456.958Z" fill="white" stroke="black" stroke-width="1.07831"/>
<path d="M439.865 188.37C442.172 189.63 443.021 192.141 443.271 196.854H456.24C456.49 192.141 457.339 189.63 459.646 188.37H439.865Z" fill="white" stroke="black" stroke-width="1.07831"/>
<path d="M459.833 177.662V171.255C457.646 171.86 456.229 173.156 455.594 174.917C455.594 172.792 452.797 167.891 449.745 165.448C446.687 168.177 443.844 172.615 443.901 174.917C443.38 173.24 441.849 171.86 439.656 171.255V177.662H459.833Z" fill="white" stroke="black" stroke-width="1.07831" stroke-linejoin="bevel"/>
<path d="M460.813 188.37V181.964C458.411 182.568 456.859 183.865 456.167 185.62C456.167 183.495 453.099 178.594 449.755 176.151C446.401 178.886 443.281 183.318 443.344 185.62C442.771 183.948 441.094 182.568 438.693 181.964V188.37H460.813Z" fill="white" stroke="black" stroke-width="1.07831" stroke-linejoin="bevel"/>
<path d="M463.51 201.511V194.125C460.521 194.896 458.667 197.104 457.724 198.391C457.724 194.391 453.208 188.292 449.75 186.297C446.203 188.344 441.776 194.646 441.776 198.391C440.807 197.11 438.979 194.896 435.99 194.125V201.511H463.51Z" fill="white" stroke="black" stroke-width="1.07831" stroke-linejoin="bevel"/>
<path d="M461.891 217.912V210.318C459.255 211.349 458.469 213.891 457.641 215.615C457.964 207.912 453.302 199.63 449.75 197.526C446.198 199.63 441.448 208.089 441.859 215.615C441.01 213.901 440.245 211.349 437.609 210.318V217.912H461.891Z" fill="white" stroke="black" stroke-width="1.07831" stroke-linejoin="bevel"/>
<path d="M460.047 229.417V221.818C457.286 222.474 457.12 223.495 456.24 225.193C456.568 220.594 453.307 215.344 449.755 213.245C446.203 215.344 442.943 220.594 443.271 225.193C442.391 223.495 442.286 222.474 439.458 221.818V229.417H460.047Z" fill="white" stroke="black" stroke-width="1.07831"/>
<path d="M341.641 257.578V234.615C340.891 231.693 338.406 229.104 336.542 228.589V208.375L340.745 210.646L345.542 231.781V257.578H341.641Z" fill="white" stroke="black" stroke-width="1.07831"/>
<path d="M341.641 257.667V234.615C340.891 231.693 338.406 229.11 336.542 228.589V206.974C339.365 206.974 340.745 210.651 340.745 210.651L345.542 231.781V257.49L341.641 257.667Z" fill="white" stroke="black" stroke-width="1.07831"/>
<path d="M338.656 263.552C340.599 262.677 343.427 260.276 343.427 257.86V229.162L342.094 226.792H390.979L389.068 229.162V257.86C389.068 260.276 391.01 262.677 392.953 263.552H338.656Z" fill="white" stroke="black" stroke-width="1.07831"/>
<path d="M383.094 263.552C381.151 262.677 378.318 260.276 378.318 257.86V230.563L382.385 226.792H349.151L353.219 230.563V257.86C353.219 260.276 350.391 262.677 348.448 263.552H383.094Z" fill="white" stroke="black" stroke-width="1.07831"/>
<path d="M378.432 263.552C376.49 262.677 373.656 260.276 373.656 257.86V233.182L376.318 229.412H355.208L357.87 233.182V257.86C357.87 260.276 355.036 262.677 353.094 263.552H378.432Z" fill="white" stroke="black" stroke-width="1.07831"/>
<path d="M360.719 229.417H370.807V263.557H360.719V229.417Z" fill="white" stroke="black" stroke-width="1.07831"/>
<path d="M346.995 238.943H351.021V257.469H346.995V238.943Z" fill="white" stroke="black" stroke-width="1.07831" stroke-linejoin="bevel"/>
<path d="M381.531 238.943H385.557V257.469H381.531V238.943Z" fill="white" stroke="black" stroke-width="1.07831" stroke-linejoin="bevel"/>
<path d="M343.557 207.688H348.411V226.682H343.557V207.688Z" fill="white" stroke="black" stroke-width="1.07831" stroke-linejoin="bevel"/>
<path d="M343.557 204.12H348.38V207.641H343.557V204.12Z" fill="white" stroke="black" stroke-width="1.07831" stroke-linejoin="bevel"/>
<path d="M383.464 211.776H390.38V226.443H383.464V211.776Z" fill="white" stroke="black" stroke-width="1.16143" stroke-linejoin="bevel"/>
<path d="M348.328 226.537V194.026C349.714 194.026 349.927 198.792 353.104 198.792C354.755 198.792 354.578 196.818 353.651 195.214C352.828 193.787 351.813 191.823 353.193 188.162C354.141 190.964 356.687 191.849 356.219 190.094C355.411 187.073 353.078 186.578 354.828 181.891C355.438 185.802 357.943 185.63 357.333 183.354C356.646 180.797 355.229 179.745 356.979 176.136C357.958 180.235 359.286 179.995 359.286 177.453C359.286 173.693 359.141 169.636 364.005 168.13C364.005 168.13 364.286 164.682 366.042 164.682C367.792 164.682 368.073 168.13 368.073 168.13C372.937 169.636 372.797 173.693 372.797 177.453C372.797 179.995 374.12 180.235 375.099 176.136C376.849 179.745 375.432 180.797 374.745 183.354C374.135 185.63 376.646 185.802 377.25 181.891C379 186.578 376.667 187.073 375.859 190.094C375.391 191.849 377.938 190.964 378.885 188.162C380.266 191.823 379.25 193.787 378.427 195.214C377.5 196.818 377.323 198.792 378.974 198.792C382.151 198.792 382.365 194.026 383.75 194.026V226.537H348.328Z" fill="white" stroke="black" stroke-width="1.07831"/>
<path d="M340.729 201.985V226.787H343.552V201.922C342.536 201.406 341.583 201.328 340.729 201.985Z" fill="white" stroke="black" stroke-width="1.07831"/>
<path d="M340.818 218.037C344.318 219.823 347.776 221.891 348.656 226.792H340.818V218.037Z" fill="white" stroke="black" stroke-width="1.07831"/>
<path d="M389.302 210.61V226.792H391.589V210.568C390.875 210.235 389.901 210.182 389.302 210.61Z" fill="white" stroke="black" stroke-width="1.07831"/>
<path d="M391.594 217.912C388.099 219.698 384.635 221.766 383.76 226.667H391.594V217.912Z" fill="white" stroke="black" stroke-width="1.07831"/>
<path d="M368.479 180.11L370.516 178.401V176.203C369.771 176.276 369.365 176.537 368.812 177.255C368.349 175.802 367.318 174.667 365.937 173.964C364.557 174.667 363.526 175.75 363.057 177.203C362.51 176.485 362.099 176.276 361.354 176.203V178.401L363.396 180.11H368.479Z" fill="white" stroke="black" stroke-width="1.07831"/>
<path d="M369.568 185.604L370.516 183.552V180.703C369.771 180.776 369.365 181.037 368.812 181.771C368.344 180.292 367.318 179.141 365.937 178.427C364.557 179.141 363.526 180.24 363.057 181.714C362.505 180.985 362.099 180.776 361.354 180.703V183.552L362.302 185.604H369.568Z" fill="white" stroke="black" stroke-width="1.07831"/>
<path d="M369.714 193.052L372.74 189.36V185.719C371.635 185.844 371.031 186.281 370.214 187.521C369.516 185.026 367.99 184.479 365.937 183.271C363.885 184.479 362.359 184.938 361.661 187.432C360.844 186.193 360.24 185.844 359.135 185.719V189.36L362.161 193.052H369.714Z" fill="white" stroke="black" stroke-width="1.07831"/>
<path d="M370.604 200.365C370.604 200.365 374.13 197.287 374.339 195.599V191.703C372.974 191.865 371.677 192.219 370.672 193.818C369.812 190.594 368.469 189.698 365.937 188.13C363.406 189.698 362.068 190.594 361.208 193.818C360.198 192.219 358.906 191.865 357.542 191.703V195.599C357.984 197.287 361.276 200.365 361.276 200.365H370.604Z" fill="white" stroke="black" stroke-width="1.07831"/>
<path d="M372.109 213.87C372.109 213.87 376.938 208.521 377.047 206.438V200.365C375.24 200.615 373.531 201.854 372.198 204.354C371.063 199.323 369.286 195.823 365.938 193.386C362.594 195.823 360.818 199.323 359.682 204.354C358.349 201.854 356.641 200.615 354.833 200.365V206.438C355.177 208.521 359.771 213.87 359.771 213.87H372.109Z" fill="white" stroke="black" stroke-width="1.07831"/>
<path d="M372.109 221.854C372.109 221.854 376.234 217.651 377.047 215.828V209.755C375.24 210.005 373.531 211.25 372.198 213.745C371.063 208.719 369.286 205.839 365.938 203.401C362.594 205.839 360.818 208.719 359.682 213.745C358.349 211.25 356.641 210.005 354.833 209.755V215.828C355.88 217.651 359.771 221.854 359.771 221.854H372.109Z" fill="white" stroke="black" stroke-width="1.07831"/>
<path d="M373.771 226.495C372.562 221.25 371.526 217.36 365.724 213.417C359.922 217.36 358.885 221.25 357.682 226.495H373.771Z" fill="white" stroke="black" stroke-width="1.07831"/>
<path d="M376.755 229.417V221.818C374.12 222.854 371.74 224.38 370.865 226.084C369.88 221.865 367.99 220.005 365.635 217.459C363.281 220.005 361.703 221.865 360.724 226.084C359.844 224.38 357.464 222.854 354.828 221.818V229.417H376.755Z" fill="white" stroke="black" stroke-width="1.07831"/>
<path d="M558.26 257.578V234.615C559.016 231.693 561.495 229.104 563.359 228.589V208.375L559.156 210.646L554.359 231.781V257.578H558.26Z" fill="white" stroke="black" stroke-width="1.07831"/>
<path d="M558.26 257.667V234.615C559.016 231.693 561.495 229.11 563.359 228.589V206.974C560.542 206.974 559.156 210.651 559.156 210.651L554.359 231.781V257.49L558.26 257.667Z" fill="white" stroke="black" stroke-width="1.07831"/>
<path d="M561.25 263.552C559.307 262.677 556.479 260.276 556.479 257.86V229.162L557.807 226.792H508.927L510.833 229.162V257.86C510.833 260.276 508.891 262.677 506.948 263.552H561.25Z" fill="white" stroke="black" stroke-width="1.07831"/>
<path d="M516.812 263.552C518.755 262.677 521.583 260.276 521.583 257.86V230.563L517.521 226.792H550.75L546.687 230.563V257.86C546.687 260.276 549.516 262.677 551.458 263.552H516.812Z" fill="white" stroke="black" stroke-width="1.07831"/>
<path d="M521.474 263.552C523.417 262.677 526.245 260.276 526.245 257.86V233.182L523.583 229.412H544.698L542.036 233.182V257.86C542.036 260.276 544.865 262.677 546.807 263.552H521.474Z" fill="white" stroke="black" stroke-width="1.07831"/>
<path d="M539.188 229.417H529.099V263.557H539.182L539.188 229.417Z" fill="white" stroke="black" stroke-width="1.07831"/>
<path d="M552.911 238.943H548.88V257.469H552.911V238.943Z" fill="white" stroke="black" stroke-width="1.07831" stroke-linejoin="bevel"/>
<path d="M518.375 238.943H514.344V257.469H518.375V238.943Z" fill="white" stroke="black" stroke-width="1.07831" stroke-linejoin="bevel"/>
<path d="M556.349 207.688H551.495V226.682H556.349V207.688Z" fill="white" stroke="black" stroke-width="1.07831" stroke-linejoin="bevel"/>
<path d="M556.349 204.12H551.521V207.641H556.349V204.12Z" fill="white" stroke="black" stroke-width="1.07831" stroke-linejoin="bevel"/>
<path d="M516.443 211.776H509.526V226.443H516.443V211.776Z" fill="white" stroke="black" stroke-width="1.16143" stroke-linejoin="bevel"/>
<path d="M551.573 226.537V194.026C550.188 194.026 549.974 198.792 546.802 198.792C545.146 198.792 545.323 196.818 546.25 195.214C547.073 193.787 548.089 191.823 546.708 188.162C545.76 190.964 543.214 191.849 543.682 190.094C544.495 187.073 546.823 186.578 545.073 181.891C544.469 185.802 541.958 185.63 542.568 183.354C543.255 180.797 544.672 179.745 542.922 176.136C541.943 180.235 540.62 179.995 540.62 177.453C540.62 173.693 540.766 169.636 535.901 168.13C535.901 168.13 535.62 164.682 533.865 164.682C532.109 164.682 531.828 168.13 531.828 168.13C526.964 169.636 527.109 173.693 527.109 177.453C527.109 179.995 525.781 180.235 524.802 176.136C523.057 179.745 524.474 180.797 525.156 183.354C525.766 185.63 523.26 185.802 522.651 181.891C520.906 186.578 523.234 187.073 524.042 190.094C524.516 191.849 521.969 190.964 521.021 188.162C519.635 191.823 520.656 193.787 521.479 195.214C522.406 196.818 522.578 198.792 520.927 198.792C517.755 198.792 517.542 194.026 516.156 194.026V226.537H551.573Z" fill="white" stroke="black" stroke-width="1.07831"/>
<path d="M559.172 201.985V226.787H556.354V201.922C557.37 201.406 558.323 201.328 559.172 201.985Z" fill="white" stroke="black" stroke-width="1.07831"/>
<path d="M559.083 218.037C555.589 219.823 552.125 221.891 551.25 226.792H559.083V218.037Z" fill="white" stroke="black" stroke-width="1.07831"/>
<path d="M510.599 210.61V226.792H508.313V210.568C509.031 210.235 510.005 210.182 510.599 210.61Z" fill="white" stroke="black" stroke-width="1.07831"/>
<path d="M508.312 217.912C511.807 219.698 515.266 221.766 516.146 226.667H508.312V217.912Z" fill="white" stroke="black" stroke-width="1.07831"/>
<path d="M531.422 180.11L529.385 178.401V176.203C530.13 176.276 530.536 176.537 531.089 177.255C531.557 175.802 532.589 174.667 533.969 173.964C535.349 174.667 536.375 175.75 536.844 177.203C537.396 176.485 537.802 176.276 538.547 176.203V178.401L536.51 180.11H531.422Z" fill="white" stroke="black" stroke-width="1.07831"/>
<path d="M530.333 185.604L529.385 183.552V180.703C530.135 180.776 530.542 181.037 531.089 181.771C531.557 180.292 532.589 179.141 533.969 178.427C535.349 179.141 536.38 180.24 536.844 181.714C537.396 180.985 537.802 180.776 538.547 180.703V183.552L537.604 185.604H530.333Z" fill="white" stroke="black" stroke-width="1.07831"/>
<path d="M530.187 193.052L527.161 189.36V185.719C528.271 185.844 528.875 186.281 529.693 187.521C530.385 185.026 531.917 184.479 533.964 183.271C536.016 184.479 537.547 184.938 538.24 187.432C539.057 186.193 539.661 185.844 540.771 185.719V189.36L537.745 193.052H530.187Z" fill="white" stroke="black" stroke-width="1.07831"/>
<path d="M529.302 200.365C529.302 200.365 525.776 197.287 525.562 195.599V191.703C526.932 191.865 528.224 192.219 529.234 193.818C530.094 190.594 531.432 189.698 533.964 188.13C536.495 189.698 537.839 190.594 538.693 193.818C539.703 192.219 541 191.865 542.365 191.703V195.599C541.917 197.287 538.63 200.365 538.63 200.365H529.302Z" fill="white" stroke="black" stroke-width="1.07831"/>
<path d="M527.797 213.87C527.797 213.87 522.964 208.521 522.854 206.438V200.365C524.661 200.615 526.375 201.854 527.708 204.354C528.844 199.323 530.615 195.823 533.964 193.386C537.313 195.823 539.083 199.323 540.219 204.354C541.557 201.854 543.266 200.615 545.073 200.365V206.438C544.724 208.521 540.13 213.87 540.13 213.87H527.797Z" fill="white" stroke="black" stroke-width="1.07831"/>
<path d="M527.797 221.854C527.797 221.854 523.667 217.651 522.854 215.828V209.755C524.661 210.005 526.375 211.25 527.708 213.745C528.844 208.719 530.615 205.839 533.964 203.401C537.313 205.839 539.083 208.719 540.219 213.745C541.557 211.25 543.266 210.005 545.073 209.755V215.828C544.026 217.651 540.13 221.854 540.13 221.854H527.797Z" fill="white" stroke="black" stroke-width="1.07831"/>
<path d="M526.135 226.495C527.339 221.25 528.375 217.36 534.177 213.417C539.984 217.36 541.021 221.25 542.224 226.495H526.135Z" fill="white" stroke="black" stroke-width="1.07831"/>
<path d="M523.146 229.417V221.818C525.781 222.854 528.161 224.38 529.042 226.084C530.021 221.865 531.911 220.005 534.266 217.459C536.625 220.005 538.198 221.865 539.182 226.084C540.057 224.38 542.443 222.854 545.078 221.818V229.417H523.146Z" fill="white" stroke="black" stroke-width="1.07831"/>
<path d="M312.172 291.297H587.708V305.375H312.172V291.297Z" fill="white" stroke="black" stroke-width="1.07831"/>
<path d="M304.906 305.354H594.969V319.406H304.906V305.354Z" fill="white" stroke="black" stroke-width="1.07831"/>
<path d="M326.641 270.25H573.234V279.36H326.641V270.25Z" fill="white" stroke="black" stroke-width="1.07831"/>
<path d="M319.427 279.292H580.448V291.224H319.427V279.292Z" fill="white" stroke="black" stroke-width="1.07831"/>
<path d="M330.948 263.25H568.927V270.188H330.948V263.25Z" fill="white" stroke="black" stroke-width="1.07831"/>
<path d="M356.776 263.281H374.75V319.375H356.776V263.281Z" fill="white" stroke="black" stroke-width="1.17378"/>
<path d="M360.75 263.281H370.766V319.38H360.755L360.75 263.281Z" fill="white" stroke="black" stroke-width="1.17154"/>
<path d="M440.641 263.281H458.62V319.375H440.641V263.281Z" fill="white" stroke="black" stroke-width="1.17378"/>
<path d="M444.74 263.281H454.755V319.38H444.74V263.281Z" fill="white" stroke="black" stroke-width="1.17154"/>
<path d="M525 263.281H542.974V319.375H525V263.281Z" fill="white" stroke="black" stroke-width="1.17378"/>
<path d="M528.974 263.281H538.99V319.38H528.974V263.281Z" fill="white" stroke="black" stroke-width="1.17154"/>
<path d="M341.641 257.578H558.484" stroke="black" stroke-width="1.07831"/>
<path d="M360.573 312.328H370.953M360.573 305.307H370.953M360.573 298.287H370.953M360.573 291.266H370.953M360.573 284.245H370.953M360.573 277.224H370.953M360.573 270.203H370.953" stroke="black" stroke-width="1.07831"/>
<path d="M444.786 312.339H454.453M444.786 305.313H454.453M444.786 298.292H454.453M444.786 291.266H454.453M444.786 284.24H454.453M444.786 277.219H454.453M444.786 270.193H454.453" stroke="black" stroke-width="1.07831"/>
<path d="M528.797 312.328H539.177M528.797 305.307H539.177M528.797 298.287H539.177M528.797 291.266H539.177M528.797 284.245H539.177M528.797 277.224H539.177M528.797 270.203H539.177" stroke="black" stroke-width="1.07831"/>
</g>
</g>
<defs>
<clipPath id="clip0_764_1578">
<rect width="900" height="450" fill="white"/>
</clipPath>
</defs>
</svg>
