<svg width="900" height="450" viewBox="0 0 900 450" fill="none" xmlns="http://www.w3.org/2000/svg">
<rect width="900" height="450" fill="#1E1E1E"/>
<g clip-path="url(#clip0_0_1)">
<mask id="mask0_0_1" style="mask-type:luminance" maskUnits="userSpaceOnUse" x="0" y="0" width="900" height="450">
<path d="M0 -3.37219e-06H900V450H0V-3.37219e-06Z" fill="white"/>
</mask>
<g mask="url(#mask0_0_1)">
<path d="M0 -3.37219e-06H900V450H0V-3.37219e-06Z" fill="white"/>
<path d="M0 -3.37219e-06H900V450H0V-3.37219e-06Z" fill="white"/>
</g>
<mask id="mask1_0_1" style="mask-type:luminance" maskUnits="userSpaceOnUse" x="0" y="0" width="900" height="252">
<path d="M0 -3.37219e-06H900V252H0V-3.37219e-06Z" fill="white"/>
</mask>
<g mask="url(#mask1_0_1)">
<path d="M0 -3.37219e-06H900V251.973H0V-3.37219e-06Z" fill="#C81010"/>
</g>
<path d="M458.615 40.9479C430.037 29.1302 412.542 26.9583 392.995 26.7656C364.688 26.9583 351.177 39.1198 324.188 40.2448C334.88 51.7656 373.641 54.5781 389.984 39.4531C414.276 41.9844 419.792 48.5417 426.307 56.7083C416.167 55.1042 404.484 52.1823 394.792 62.9063C386.615 64.5521 382.823 62.9063 368.833 62.9063C362.307 62.9063 360.042 66.1146 360.136 71.8959C364.359 66.0521 393.547 69.4948 400.708 71.8959C406.203 73.7344 412.047 81.3594 419.011 82.6042C437.271 85.8542 463.464 76.3125 487.625 69.8125L539.865 62.9063H504.026L548.854 53.9219H500.115C499.083 52.7344 496.61 51.2083 494.636 49.9063C507.172 41.8333 518.255 27.1563 521.083 20.0677C543.688 19.8438 558.276 17.75 575.813 13.6458C460.214 0.854164 486.531 14.6458 458.615 40.9479Z" fill="#F8D000" stroke="black" stroke-width="0.688979" stroke-miterlimit="22.926"/>
<path d="M405.156 59.7448C406.401 59.7448 407.401 60.75 407.401 61.9948C407.401 63.2344 406.401 64.2396 405.156 64.2396C403.927 64.2396 402.912 63.2344 402.912 61.9948C402.912 60.75 403.927 59.7448 405.156 59.7448Z" fill="black" stroke="black" stroke-width="0.224667" stroke-miterlimit="22.926"/>
<path d="M435.219 57.349C435.219 57.349 425.828 62.9063 419.594 62.9063M487.625 69.8125C487.625 69.8125 496.208 62.9063 504.026 62.9063M350.875 36.8438C350.875 36.8438 357.854 33.1927 361.151 32.2188M379.797 31.6354C379.797 31.6354 390.87 26.8542 403.193 27.0938M409.724 32.8021C409.724 32.8021 424.24 30.3594 437.646 33.3385M426.412 36.3073C426.412 36.3073 438.453 34.2865 450 37.5469M438.797 39.974C438.797 39.974 451.063 40.1406 457.162 42.5052M324.188 40.2448C324.188 40.2448 341.396 44.9479 355.386 38.224M326.375 42.2813C326.375 42.2813 348.719 47.7917 358.938 37.5625M333.865 46.1458C333.865 46.1458 350.698 51.5677 363.938 37.5781M349.5 49.5469C349.5 49.5469 363.099 45.651 368.25 37.6406M360.136 49.7708C360.136 49.7708 369.255 43.4531 372.537 37.8177M477.651 42.6406C477.651 42.6406 481.214 47.1198 494.636 49.9063M480.016 40.5313C480.016 40.5313 485.781 46.2969 497.792 47.7031M482.922 37.8177C482.922 37.8177 488.776 42.849 501.526 44.724M485.813 34.9271C485.813 34.9271 494.771 40.9063 504.969 41.5938M489.349 31.1563C489.349 31.1563 495.625 37.0104 508.068 38.4635M491.985 28.1458C491.985 28.1458 499.339 34.4635 510.901 35.3333M494.573 25C494.573 25 499.083 30.2083 513.953 31.5729M497.208 21.599C497.208 21.599 502.229 27.1094 516.354 28.3073M499.261 18.7969C499.261 18.7969 508.099 25.4635 518.328 25.3281M501.016 16.25C501.016 16.25 512.698 23.2604 519.662 23.0365M503.141 13.0156C503.141 13.0156 512.427 18.7969 521.083 20.0677M463.24 45.5C463.24 45.5 466.984 48.3333 470.49 48.2135M465.396 43.4063C465.396 43.4063 468.646 46.1771 473.109 46.1615M468.021 40.8281C468.021 40.8281 471.703 44.2761 476.12 43.6458M470.505 38.3438C470.505 38.3438 474.906 41.3386 478.849 41.25M473.261 35.5104C473.261 35.5104 476.526 38.3438 481.693 38.6146M475.719 32.3958C475.719 32.3958 479.552 35.7969 484.432 35.9167M478.307 30.151C478.307 30.151 482.021 32.5313 487.281 32.9792M480.662 27.5313C480.662 27.5313 485.677 29.2969 490.276 29.7292M483.37 24.3229C483.37 24.3229 486.828 26.75 492.974 26.599M485.813 21.1198C485.813 21.1198 489.917 23.8438 495.188 23.9063M487.61 18.0781C487.61 18.0781 493.12 21.1615 497.87 20.474M489.615 14.4375C489.615 14.4375 493.104 18.2604 499.604 18.125M491.026 12.7917C491.026 12.7917 497.287 16.3125 501.526 15.4115M493.677 10.7969C493.677 10.7969 498.422 13.6875 502.766 13.5677M498.5 9.34375C498.5 9.34375 506.958 13.6615 518.406 8.98437M505.703 12.4167C505.703 12.4167 522.807 16.3385 530.224 9.47917M519.125 13.4375C519.125 13.4375 530.88 14.6615 544.031 10.5M526.943 13.5104C526.943 13.5104 544.797 17.1042 575.813 13.6458M364.984 49.3646C364.984 49.3646 372.969 44.1094 376.281 38.0573M370.964 48.3958C370.964 48.3958 377.386 42.1615 379.261 38.2969M376.896 46.7917C376.896 46.7917 382.182 42.0417 383.349 38.7188M351.073 38.4323C351.073 38.4323 362.547 35.9323 389.984 39.4531M361.677 33.849C361.677 33.849 371.292 29.1927 379.859 27.7708M371.229 31.9167C371.229 31.9167 378.255 28.6094 388.62 26.9583M387.198 31.2865C387.198 31.2865 396.917 27.1406 408.813 27.5313M399.495 31.3646C399.495 31.3646 412.823 28.3854 425.109 30.0625M435.188 37.8802C435.188 37.8802 445.36 37.4167 457.052 40.3177M417.797 33.7917C417.797 33.7917 432.37 33.0104 442.359 34.8542M507.917 12.8385C507.917 12.8385 512.953 17.1927 526.969 19.9635M515.828 13.5417C515.828 13.5417 523.708 18.0208 536.136 19.5781M524.094 13.599C524.094 13.599 535.151 18.4063 546.833 18.7083M536.333 14.6458C536.333 14.6458 547.594 17.3594 561.552 16.625M393.698 31.125C393.698 31.125 401.339 27.9792 414.875 28.2344M444.068 42.5677C444.068 42.5677 448.651 42.0104 454.344 44.724" stroke="black" stroke-width="0.688979" stroke-miterlimit="22.926"/>
<path d="M426.307 56.7083C429.464 57.1979 432.474 57.5729 435.219 57.349C445.943 51.4948 453.266 45.9948 458.615 40.9479" stroke="black" stroke-width="0.688979" stroke-miterlimit="22.926"/>
<path d="M374.38 222.88C369.141 222.172 364.037 220.917 359.063 219.125C354.089 217.328 349.36 215.036 344.87 212.24C340.386 209.448 336.24 206.214 332.438 202.542C328.636 198.865 325.261 194.839 322.313 190.448C326.906 193.062 331.724 195.167 336.766 196.76C341.802 198.359 346.953 199.406 352.219 199.911C357.479 200.417 362.735 200.359 367.99 199.75C373.24 199.141 378.37 197.99 383.375 196.297" fill="#F8D000"/>
<path d="M374.38 222.88C369.141 222.172 364.037 220.917 359.063 219.125C354.089 217.328 349.36 215.036 344.87 212.24C340.386 209.448 336.24 206.214 332.438 202.542C328.636 198.865 325.261 194.839 322.313 190.448C326.906 193.062 331.724 195.167 336.766 196.76C341.802 198.359 346.953 199.406 352.219 199.911C357.479 200.417 362.735 200.359 367.99 199.75C373.24 199.141 378.37 197.99 383.375 196.297" stroke="black" stroke-width="0.688979" stroke-miterlimit="22.926"/>
<path d="M373.943 240.698L311.302 220.802L376.531 212.75" fill="#F8D000"/>
<path d="M373.943 240.698L311.302 220.802L376.531 212.75" stroke="black" stroke-width="0.688979" stroke-miterlimit="22.926"/>
<path d="M383.38 196.286C378.75 193.729 374.443 190.719 370.453 187.25C366.464 183.781 362.885 179.932 359.708 175.703C356.536 171.479 353.839 166.963 351.62 162.167C349.401 157.37 347.714 152.391 346.547 147.234C349.885 151.333 353.62 155.036 357.74 158.344C361.865 161.651 366.286 164.49 371.016 166.859C375.74 169.234 380.661 171.083 385.776 172.411C390.891 173.74 396.094 174.521 401.375 174.745" fill="#F8D000"/>
<path d="M383.38 196.286C378.75 193.729 374.443 190.719 370.453 187.25C366.464 183.781 362.885 179.932 359.708 175.703C356.536 171.479 353.839 166.963 351.62 162.167C349.401 157.37 347.714 152.391 346.547 147.234C349.885 151.333 353.62 155.036 357.74 158.344C361.865 161.651 366.286 164.49 371.016 166.859C375.74 169.234 380.661 171.083 385.776 172.411C390.891 173.74 396.094 174.521 401.375 174.745" stroke="black" stroke-width="0.688979" stroke-miterlimit="22.926"/>
<path d="M376.531 212.745L325.313 171.557L389.047 187.62" fill="#F8D000"/>
<path d="M376.531 212.745L325.313 171.557L389.047 187.62" stroke="black" stroke-width="0.688979" stroke-miterlimit="22.926"/>
<path d="M401.37 174.75C397.979 170.698 395.047 166.328 392.583 161.656C390.115 156.979 388.162 152.099 386.729 147.011C385.297 141.922 384.412 136.74 384.078 131.464C383.74 126.188 383.964 120.932 384.74 115.703C386.37 120.735 388.516 125.531 391.167 130.11C393.818 134.683 396.917 138.927 400.464 142.844C404.016 146.761 407.938 150.266 412.229 153.349C416.521 156.438 421.089 159.042 425.927 161.162" fill="#F8D000"/>
<path d="M401.37 174.75C397.979 170.698 395.047 166.328 392.583 161.656C390.115 156.979 388.162 152.099 386.729 147.011C385.297 141.922 384.412 136.74 384.078 131.464C383.74 126.188 383.964 120.932 384.74 115.703C386.37 120.735 388.516 125.531 391.167 130.11C393.818 134.683 396.917 138.927 400.464 142.844C404.016 146.761 407.938 150.266 412.229 153.349C416.521 156.438 421.089 159.042 425.927 161.162" stroke="black" stroke-width="0.68898" stroke-miterlimit="22.926"/>
<path d="M389.042 187.625L356.151 130.719L409.787 168.713" fill="#F8D000"/>
<path d="M389.042 187.625L356.151 130.719L409.787 168.713" stroke="black" stroke-width="0.68898" stroke-miterlimit="22.926"/>
<path d="M425.937 161.161C424.24 156.151 423.083 151.026 422.474 145.771C421.859 140.521 421.807 135.266 422.307 130C422.812 124.74 423.859 119.589 425.453 114.547C427.047 109.505 429.146 104.687 431.76 100.094C431.469 105.37 431.729 110.62 432.552 115.844C433.37 121.068 434.724 126.146 436.62 131.083C438.516 136.016 440.906 140.698 443.792 145.13C446.677 149.557 449.995 153.635 453.745 157.359" fill="#F8D000"/>
<path d="M425.937 161.161C424.24 156.151 423.083 151.026 422.474 145.771C421.859 140.521 421.807 135.266 422.307 130C422.812 124.74 423.859 119.589 425.453 114.547C427.047 109.505 429.146 104.687 431.76 100.094C431.469 105.37 431.729 110.62 432.552 115.844C433.37 121.068 434.724 126.146 436.62 131.083C438.516 136.016 440.906 140.698 443.792 145.13C446.677 149.557 449.995 153.635 453.745 157.359" stroke="black" stroke-width="0.688979" stroke-miterlimit="22.926"/>
<path d="M409.792 168.708L399.682 103.766L435.964 158.573" fill="#F8D000"/>
<path d="M409.792 168.708L399.682 103.766L435.964 158.573" stroke="black" stroke-width="0.688979" stroke-miterlimit="22.926"/>
<path d="M453.755 157.365C453.979 152.078 454.755 146.88 456.083 141.766C457.412 136.646 459.26 131.724 461.63 127C464 122.276 466.839 117.849 470.141 113.724C473.448 109.599 477.151 105.865 481.25 102.526C479.068 107.344 477.417 112.333 476.292 117.5C475.172 122.662 474.599 127.891 474.583 133.177C474.568 138.464 475.104 143.693 476.198 148.865C477.287 154.037 478.906 159.042 481.057 163.87" fill="#F8D000"/>
<path d="M453.755 157.365C453.979 152.078 454.755 146.88 456.083 141.766C457.412 136.646 459.26 131.724 461.63 127C464 122.276 466.839 117.849 470.141 113.724C473.448 109.599 477.151 105.865 481.25 102.526C479.068 107.344 477.417 112.333 476.292 117.5C475.172 122.662 474.599 127.891 474.583 133.177C474.568 138.464 475.104 143.693 476.198 148.865C477.287 154.037 478.906 159.042 481.057 163.87" stroke="black" stroke-width="0.688979" stroke-miterlimit="22.926"/>
<path d="M435.969 158.568L450.011 94.3594L464.042 158.573" fill="#F8D000"/>
<path d="M435.969 158.568L450.011 94.3594L464.042 158.573" stroke="black" stroke-width="0.688979" stroke-miterlimit="22.926"/>
<path d="M481.052 163.864C483.172 159.021 485.771 154.453 488.859 150.161C491.943 145.87 495.443 141.948 499.359 138.396C503.276 134.844 507.521 131.745 512.094 129.094C516.667 126.437 521.469 124.297 526.495 122.661C522.724 126.364 519.38 130.422 516.469 134.833C513.552 139.245 511.135 143.911 509.208 148.833C507.287 153.76 505.901 158.828 505.047 164.047C504.198 169.265 503.901 174.515 504.162 179.797" fill="#F8D000"/>
<path d="M481.052 163.864C483.172 159.021 485.771 154.453 488.859 150.161C491.943 145.87 495.443 141.948 499.359 138.396C503.276 134.844 507.521 131.745 512.094 129.094C516.667 126.437 521.469 124.297 526.495 122.661C522.724 126.364 519.38 130.422 516.469 134.833C513.552 139.245 511.135 143.911 509.208 148.833C507.287 153.76 505.901 158.828 505.047 164.047C504.198 169.265 503.901 174.515 504.162 179.797" stroke="black" stroke-width="0.688979" stroke-miterlimit="22.926"/>
<path d="M464.031 158.568L500.313 103.765L490.208 168.708" fill="#F8D000"/>
<path d="M464.031 158.568L500.313 103.765L490.208 168.708" stroke="black" stroke-width="0.688979" stroke-miterlimit="22.926"/>
<path d="M504.167 179.802C507.896 176.047 511.969 172.729 516.401 169.844C520.828 166.953 525.51 164.563 530.443 162.667C535.38 160.771 540.458 159.411 545.677 158.589C550.901 157.771 556.151 157.505 561.432 157.797C556.573 159.885 551.99 162.464 547.682 165.521C543.37 168.583 539.427 172.063 535.854 175.958C532.281 179.854 529.156 184.083 526.479 188.641C523.802 193.198 521.63 197.984 519.963 203" fill="#F8D000"/>
<path d="M504.167 179.802C507.896 176.047 511.969 172.729 516.401 169.844C520.828 166.953 525.51 164.563 530.443 162.667C535.38 160.771 540.458 159.411 545.677 158.589C550.901 157.771 556.151 157.505 561.432 157.797C556.573 159.885 551.99 162.464 547.682 165.521C543.37 168.583 539.427 172.063 535.854 175.958C532.281 179.854 529.156 184.083 526.479 188.641C523.802 193.198 521.63 197.984 519.963 203" stroke="black" stroke-width="0.688979" stroke-miterlimit="22.926"/>
<path d="M490.213 168.714L543.844 130.719L510.958 187.62" fill="#F8D000"/>
<path d="M490.213 168.714L543.844 130.719L510.958 187.62" stroke="black" stroke-width="0.688979" stroke-miterlimit="22.926"/>
<path d="M519.969 203.01C524.797 200.859 529.797 199.234 534.969 198.141C540.14 197.047 545.37 196.51 550.656 196.526C555.943 196.542 561.172 197.109 566.338 198.229C571.5 199.349 576.495 201 581.312 203.177C576.026 203.375 570.823 204.12 565.698 205.417C560.573 206.714 555.64 208.531 550.901 210.875C546.161 213.219 541.719 216.026 537.578 219.312C533.432 222.594 529.677 226.271 526.312 230.349" fill="#F8D000"/>
<path d="M519.969 203.01C524.797 200.859 529.797 199.234 534.969 198.141C540.14 197.047 545.37 196.51 550.656 196.526C555.943 196.542 561.172 197.109 566.338 198.229C571.5 199.349 576.495 201 581.312 203.177C576.026 203.375 570.823 204.12 565.698 205.417C560.573 206.714 555.64 208.531 550.901 210.875C546.161 213.219 541.719 216.026 537.578 219.312C533.432 222.594 529.677 226.271 526.312 230.349" stroke="black" stroke-width="0.688979" stroke-miterlimit="22.926"/>
<path d="M510.958 187.63L574.698 171.573L523.469 212.755" fill="#F8D000"/>
<path d="M510.958 187.63L574.698 171.573L523.469 212.755" stroke="black" stroke-width="0.688979" stroke-miterlimit="22.926"/>
<path d="M526.312 230.344C531.594 230.083 536.844 230.375 542.057 231.224C547.276 232.073 552.349 233.458 557.271 235.38C562.198 237.302 566.865 239.724 571.276 242.635C575.693 245.547 579.75 248.885 583.453 252.656C578.458 250.932 573.333 249.745 568.089 249.104C562.839 248.464 557.583 248.38 552.318 248.854C547.052 249.323 541.896 250.344 536.844 251.906C531.797 253.469 526.964 255.547 522.354 258.13" fill="#F8D000"/>
<path d="M526.312 230.344C531.594 230.083 536.844 230.375 542.057 231.224C547.276 232.073 552.349 233.458 557.271 235.38C562.198 237.302 566.865 239.724 571.276 242.635C575.693 245.547 579.75 248.885 583.453 252.656C578.458 250.932 573.333 249.745 568.089 249.104C562.839 248.464 557.583 248.38 552.318 248.854C547.052 249.323 541.896 250.344 536.844 251.906C531.797 253.469 526.964 255.547 522.354 258.13" stroke="black" stroke-width="0.688979" stroke-miterlimit="22.926"/>
<path d="M523.469 212.75L588.698 220.797L526.057 240.698" fill="#F8D000"/>
<path d="M523.469 212.75L588.698 220.797L526.057 240.698" stroke="black" stroke-width="0.688979" stroke-miterlimit="22.926"/>
<path d="M526.386 233.656C526.386 236.156 526.266 238.651 526.021 241.141C525.776 243.63 525.406 246.104 524.917 248.557C524.432 251.01 523.823 253.432 523.099 255.828C522.37 258.224 521.531 260.573 520.573 262.885C519.615 265.198 518.547 267.458 517.365 269.662C516.188 271.87 514.901 274.01 513.516 276.094C512.125 278.172 510.636 280.177 509.047 282.115C507.458 284.047 505.781 285.901 504.016 287.667C502.245 289.438 500.391 291.115 498.458 292.703C496.526 294.287 494.521 295.776 492.438 297.167C490.359 298.557 488.214 299.844 486.01 301.021C483.802 302.198 481.542 303.271 479.234 304.224C476.922 305.182 474.568 306.026 472.172 306.75C469.781 307.479 467.354 308.083 464.901 308.573C462.448 309.063 459.979 309.427 457.49 309.672C455 309.917 452.5 310.042 450 310.042C447.5 310.042 445 309.917 442.511 309.672C440.021 309.427 437.552 309.063 435.099 308.573C432.646 308.083 430.219 307.479 427.828 306.75C425.432 306.026 423.078 305.182 420.766 304.224C418.458 303.271 416.198 302.198 413.99 301.021C411.787 299.844 409.641 298.557 407.563 297.167C405.479 295.776 403.474 294.287 401.542 292.703C399.604 291.115 397.755 289.438 395.984 287.667C394.219 285.901 392.542 284.047 390.953 282.115C389.365 280.177 387.875 278.172 386.484 276.094C385.099 274.01 383.813 271.87 382.63 269.662C381.453 267.458 380.385 265.198 379.427 262.885C378.469 260.573 377.63 258.224 376.901 255.828C376.177 253.432 375.568 251.01 375.083 248.557C374.594 246.104 374.224 243.63 373.979 241.141C373.734 238.651 373.615 236.156 373.615 233.656C373.615 231.151 373.734 228.656 373.979 226.167C374.224 223.677 374.594 221.203 375.083 218.75C375.568 216.297 376.177 213.875 376.901 211.479C377.63 209.083 378.469 206.734 379.427 204.422C380.385 202.109 381.453 199.854 382.63 197.646C383.813 195.438 385.099 193.297 386.484 191.214C387.875 189.135 389.365 187.13 390.953 185.193C392.542 183.26 394.219 181.411 395.984 179.641C397.755 177.87 399.609 176.193 401.542 174.604C403.474 173.021 405.479 171.531 407.563 170.141C409.641 168.75 411.787 167.464 413.99 166.286C416.198 165.109 418.458 164.036 420.766 163.083C423.078 162.125 425.432 161.281 427.828 160.557C430.219 159.828 432.646 159.224 435.099 158.734C437.552 158.245 440.021 157.88 442.511 157.635C445 157.391 447.5 157.266 450 157.266C452.5 157.266 455 157.391 457.49 157.635C459.979 157.88 462.448 158.245 464.901 158.734C467.354 159.224 469.781 159.828 472.172 160.557C474.568 161.281 476.922 162.125 479.234 163.083C481.542 164.036 483.802 165.109 486.01 166.286C488.214 167.464 490.359 168.75 492.438 170.141C494.521 171.531 496.526 173.021 498.458 174.604C500.391 176.193 502.245 177.87 504.016 179.641C505.781 181.411 507.458 183.26 509.047 185.193C510.636 187.13 512.125 189.135 513.516 191.214C514.901 193.297 516.188 195.438 517.365 197.646C518.547 199.854 519.615 202.109 520.573 204.422C521.531 206.734 522.37 209.083 523.099 211.479C523.823 213.875 524.432 216.297 524.917 218.75C525.406 221.203 525.776 223.677 526.021 226.167C526.266 228.656 526.386 231.151 526.386 233.656Z" fill="#F8D000" stroke="black" stroke-width="0.688979" stroke-miterlimit="22.926"/>
<mask id="mask2_0_1" style="mask-type:luminance" maskUnits="userSpaceOnUse" x="0" y="241" width="900" height="211">
<path d="M0 241.333H900V451.333H0V241.333Z" fill="white"/>
</mask>
<g mask="url(#mask2_0_1)">
<path d="M0 242.653H900V451.333H0V242.653Z" fill="#183070"/>
</g>
<mask id="mask3_0_1" style="mask-type:luminance" maskUnits="userSpaceOnUse" x="0" y="38" width="900" height="412">
<path d="M0 38.6667H900V449.333H0V38.6667Z" fill="white"/>
</mask>
<g mask="url(#mask3_0_1)">
<path d="M-54.0019 251.625C-23.9991 239.646 5.99847 239.646 36.0013 251.625C65.9988 263.609 96.0016 263.609 125.999 251.625C156.002 239.646 186 239.646 215.997 251.625C246 263.609 275.997 263.609 306 251.625C335.998 239.646 367.498 239.646 400.5 251.625C433.502 263.609 466.499 263.609 499.501 251.625C532.503 239.646 564.002 239.646 594 251.625C624.003 263.609 654 263.609 684.003 251.625C714.001 239.646 743.998 239.646 774.001 251.625C803.999 263.609 834.001 263.609 863.999 251.625C894.002 239.646 923.999 239.646 954.002 251.625" stroke="white" stroke-width="35.9468"/>
</g>
<mask id="mask4_0_1" style="mask-type:luminance" maskUnits="userSpaceOnUse" x="0" y="110" width="900" height="340">
<path d="M0 110.667H900V449.333H0V110.667Z" fill="white"/>
</mask>
<g mask="url(#mask4_0_1)">
<path d="M-54.0019 323.521C-23.9991 311.536 5.99847 311.536 36.0013 323.521C65.9988 335.505 96.0016 335.505 125.999 323.521C156.002 311.536 186 311.536 215.997 323.521C246 335.505 275.997 335.505 306 323.521C335.998 311.536 367.498 311.536 400.5 323.521C433.502 335.505 466.499 335.505 499.501 323.521C532.503 311.536 564.002 311.536 594 323.521C624.003 335.505 654 335.505 684.003 323.521C714.001 311.536 743.998 311.536 774.001 323.521C803.999 335.505 834.001 335.505 863.999 323.521C894.002 311.536 923.999 311.536 954.002 323.521" stroke="white" stroke-width="35.9468"/>
</g>
<mask id="mask5_0_1" style="mask-type:luminance" maskUnits="userSpaceOnUse" x="0" y="182" width="900" height="268">
<path d="M0 182.667H900V449.333H0V182.667Z" fill="white"/>
</mask>
<g mask="url(#mask5_0_1)">
<path d="M-54.0019 395.417C-23.9991 383.432 5.99847 383.432 36.0013 395.417C65.9988 407.396 96.0016 407.396 125.999 395.417C156.002 383.432 186 383.432 215.997 395.417C246 407.396 275.997 407.396 306 395.417C335.998 383.432 367.498 383.432 400.5 395.417C433.502 407.396 466.499 407.396 499.501 395.417C532.503 383.432 564.002 383.432 594 395.417C624.003 407.396 654 407.396 684.003 395.417C714.001 383.432 743.998 383.432 774.001 395.417C803.999 407.396 834.001 407.396 863.999 395.417C894.002 383.432 923.999 383.432 954.002 395.417" stroke="white" stroke-width="35.9468"/>
</g>
</g>
<defs>
<clipPath id="clip0_0_1">
<rect width="900" height="450" fill="white"/>
</clipPath>
</defs>
</svg>
