<svg width="900" height="450" viewBox="0 0 900 450" fill="none" xmlns="http://www.w3.org/2000/svg">
<g clip-path="url(#clip0_764_1956)">
<path d="M900 0H0V450H900V0Z" fill="#1E1E1E"/>
<mask id="mask0_764_1956" style="mask-type:luminance" maskUnits="userSpaceOnUse" x="0" y="0" width="900" height="450">
<path d="M900 0H0V450H900V0Z" fill="white"/>
</mask>
<g mask="url(#mask0_764_1956)">
<path d="M900 0H0V450H900V0Z" fill="white"/>
<mask id="mask1_764_1956" style="mask-type:luminance" maskUnits="userSpaceOnUse" x="0" y="0" width="900" height="450">
<path d="M0 0H900V450H0V0Z" fill="white"/>
</mask>
<g mask="url(#mask1_764_1956)">
<path d="M0 0H900V450H0V0Z" fill="#3A75C4"/>
</g>
<mask id="mask2_764_1956" style="mask-type:luminance" maskUnits="userSpaceOnUse" x="0" y="0" width="900" height="338">
<path d="M0 0H900V337.333H0V0Z" fill="white"/>
</mask>
<g mask="url(#mask2_764_1956)">
<path d="M0 0H900V337H0V0Z" fill="#CE1126"/>
</g>
<mask id="mask3_764_1956" style="mask-type:luminance" maskUnits="userSpaceOnUse" x="0" y="0" width="900" height="226">
<path d="M0 0H900V225.333H0V0Z" fill="white"/>
</mask>
<g mask="url(#mask3_764_1956)">
<path d="M0 0H900V224.667H0V0Z" fill="white"/>
</g>
<mask id="mask4_764_1956" style="mask-type:luminance" maskUnits="userSpaceOnUse" x="0" y="0" width="900" height="114">
<path d="M0 0H900V113.333H0V0Z" fill="white"/>
</mask>
<g mask="url(#mask4_764_1956)">
<path d="M0 0H900V112.333H0V0Z" fill="#FFC61E"/>
</g>
<mask id="mask5_764_1956" style="mask-type:luminance" maskUnits="userSpaceOnUse" x="0" y="0" width="376" height="450">
<path d="M0 0H375.333V449.333H0V0Z" fill="white"/>
</mask>
<g mask="url(#mask5_764_1956)">
<path d="M0 449.333L374.443 224.667L0 0V449.333Z" fill="#3D8E33"/>
</g>
<path d="M229.078 224.667C229.078 226.323 229.036 227.974 228.953 229.63C228.875 231.281 228.755 232.932 228.589 234.578C228.427 236.224 228.224 237.865 227.984 239.5C227.74 241.141 227.458 242.766 227.135 244.391C226.812 246.016 226.448 247.625 226.047 249.234C225.646 250.839 225.203 252.432 224.724 254.016C224.245 255.599 223.724 257.167 223.167 258.729C222.609 260.286 222.016 261.828 221.38 263.354C220.75 264.885 220.078 266.396 219.37 267.891C218.661 269.391 217.922 270.865 217.141 272.323C216.359 273.786 215.542 275.224 214.693 276.641C213.844 278.063 212.958 279.458 212.036 280.833C211.12 282.214 210.167 283.563 209.182 284.891C208.198 286.224 207.177 287.526 206.13 288.802C205.078 290.083 204 291.333 202.885 292.563C201.776 293.786 200.635 294.984 199.464 296.156C198.297 297.328 197.099 298.469 195.87 299.578C194.646 300.688 193.396 301.771 192.115 302.818C190.833 303.87 189.531 304.885 188.203 305.87C186.875 306.859 185.521 307.807 184.146 308.729C182.771 309.646 181.37 310.531 179.953 311.385C178.531 312.234 177.094 313.052 175.635 313.828C174.177 314.609 172.698 315.354 171.203 316.063C169.708 316.766 168.193 317.438 166.667 318.073C165.135 318.703 163.594 319.302 162.036 319.859C160.479 320.417 158.906 320.932 157.323 321.411C155.74 321.896 154.146 322.333 152.542 322.74C150.937 323.141 149.323 323.5 147.703 323.823C146.078 324.146 144.448 324.432 142.812 324.672C141.177 324.917 139.531 325.12 137.885 325.281C136.24 325.443 134.589 325.563 132.937 325.646C131.286 325.729 129.63 325.766 127.979 325.766C126.323 325.766 124.667 325.729 123.016 325.646C121.365 325.563 119.714 325.443 118.068 325.281C116.422 325.12 114.781 324.917 113.141 324.672C111.505 324.432 109.875 324.146 108.255 323.823C106.63 323.5 105.016 323.141 103.411 322.74C101.807 322.333 100.214 321.896 98.6302 321.411C97.0469 320.932 95.4739 320.417 93.9167 319.859C92.3594 319.302 90.8177 318.703 89.2864 318.073C87.7604 317.438 86.2448 316.766 84.75 316.063C83.2552 315.354 81.776 314.609 80.3177 313.828C78.8594 313.052 77.4219 312.234 76 311.385C74.5833 310.531 73.1823 309.646 71.8073 308.729C70.4323 307.807 69.0781 306.859 67.75 305.87C66.4219 304.885 65.1198 303.87 63.8385 302.818C62.5625 301.771 61.3073 300.688 60.0833 299.578C58.8542 298.469 57.6562 297.328 56.4896 296.156C55.3177 294.984 54.1771 293.786 53.0677 292.563C51.9531 291.333 50.875 290.083 49.8281 288.802C48.776 287.526 47.7604 286.224 46.7708 284.891C45.7864 283.563 44.8333 282.214 43.9167 280.833C42.9948 279.458 42.1094 278.063 41.2604 276.641C40.4114 275.224 39.5937 273.786 38.8125 272.323C38.0364 270.865 37.2917 269.391 36.5833 267.891C35.875 266.396 35.2083 264.885 34.5729 263.354C33.9375 261.828 33.3437 260.286 32.7864 258.729C32.2292 257.167 31.7083 255.599 31.2292 254.016C30.75 252.432 30.3073 250.839 29.9062 249.234C29.5052 247.625 29.1406 246.016 28.8177 244.391C28.4948 242.766 28.2135 241.141 27.9687 239.5C27.7292 237.865 27.526 236.224 27.3646 234.578C27.2031 232.932 27.0781 231.281 27 229.63C26.9167 227.974 26.875 226.323 26.875 224.667C26.875 223.01 26.9167 221.359 27 219.708C27.0781 218.052 27.2031 216.406 27.3646 214.755C27.526 213.109 27.7292 211.469 27.9687 209.833C28.2135 208.198 28.4948 206.568 28.8177 204.943C29.1406 203.323 29.5052 201.708 29.9062 200.104C30.3073 198.495 30.75 196.901 31.2292 195.318C31.7083 193.734 32.2292 192.167 32.7864 190.609C33.3437 189.052 33.9375 187.505 34.5729 185.979C35.2083 184.448 35.875 182.938 36.5833 181.443C37.2917 179.948 38.0364 178.469 38.8125 177.01C39.5937 175.552 40.4114 174.109 41.2604 172.693C42.1094 171.271 42.9948 169.875 43.9167 168.5C44.8333 167.125 45.7864 165.771 46.7708 164.443C47.7604 163.115 48.776 161.807 49.8281 160.531C50.875 159.25 51.9531 158 53.0677 156.771C54.1771 155.547 55.3177 154.349 56.4896 153.177C57.6562 152.01 58.8542 150.87 60.0833 149.755C61.3073 148.646 62.5625 147.568 63.8385 146.516C65.1198 145.464 66.4219 144.448 67.75 143.464C69.0781 142.479 70.4323 141.526 71.8073 140.604C73.1823 139.688 74.5833 138.802 76 137.953C77.4219 137.099 78.8594 136.286 80.3177 135.505C81.776 134.724 83.2552 133.979 84.75 133.276C86.2448 132.568 87.7604 131.896 89.2864 131.26C90.8177 130.63 92.3594 130.036 93.9167 129.479C95.4739 128.922 97.0469 128.401 98.6302 127.922C100.214 127.438 101.807 127 103.411 126.599C105.016 126.193 106.63 125.833 108.255 125.51C109.875 125.188 111.505 124.906 113.141 124.661C114.781 124.417 116.422 124.214 118.068 124.052C119.714 123.891 121.365 123.771 123.016 123.688C124.667 123.609 126.323 123.568 127.979 123.568C129.63 123.568 131.286 123.609 132.937 123.688C134.589 123.771 136.24 123.891 137.885 124.052C139.531 124.214 141.177 124.417 142.812 124.661C144.448 124.906 146.078 125.188 147.703 125.51C149.323 125.833 150.937 126.193 152.542 126.599C154.146 127 155.74 127.438 157.323 127.922C158.906 128.401 160.479 128.922 162.036 129.479C163.594 130.036 165.135 130.63 166.667 131.26C168.193 131.896 169.708 132.568 171.203 133.276C172.698 133.979 174.177 134.724 175.635 135.505C177.094 136.286 178.531 137.099 179.953 137.953C181.37 138.802 182.771 139.688 184.146 140.604C185.521 141.526 186.875 142.479 188.203 143.464C189.531 144.448 190.833 145.464 192.115 146.516C193.396 147.568 194.646 148.646 195.87 149.755C197.099 150.87 198.297 152.01 199.464 153.177C200.635 154.349 201.776 155.547 202.885 156.771C204 158 205.078 159.25 206.13 160.531C207.177 161.807 208.198 163.115 209.182 164.443C210.167 165.771 211.12 167.125 212.036 168.5C212.958 169.875 213.844 171.271 214.693 172.693C215.542 174.109 216.359 175.552 217.141 177.01C217.922 178.469 218.661 179.948 219.37 181.443C220.078 182.938 220.75 184.448 221.38 185.979C222.016 187.505 222.609 189.052 223.167 190.609C223.724 192.167 224.245 193.734 224.724 195.318C225.203 196.901 225.646 198.495 226.047 200.104C226.448 201.708 226.812 203.323 227.135 204.943C227.458 206.568 227.74 208.198 227.984 209.833C228.224 211.469 228.427 213.109 228.589 214.755C228.755 216.406 228.875 218.052 228.953 219.708C229.036 221.359 229.078 223.01 229.078 224.667Z" fill="white"/>
<path d="M274.01 224.667C274.01 226.323 273.969 227.974 273.891 229.63C273.807 231.281 273.687 232.932 273.526 234.578C273.359 236.224 273.161 237.865 272.917 239.5C272.672 241.141 272.391 242.766 272.068 244.391C271.745 246.016 271.385 247.625 270.979 249.234C270.578 250.839 270.135 252.432 269.656 254.016C269.177 255.599 268.656 257.167 268.099 258.729C267.542 260.286 266.948 261.828 266.312 263.354C265.682 264.885 265.01 266.396 264.302 267.891C263.599 269.391 262.854 270.865 262.073 272.323C261.292 273.786 260.479 275.224 259.625 276.641C258.776 278.063 257.891 279.458 256.974 280.833C256.052 282.214 255.099 283.563 254.115 284.891C253.13 286.224 252.109 287.526 251.062 288.802C250.01 290.083 248.932 291.333 247.823 292.563C246.708 293.786 245.568 294.984 244.401 296.156C243.229 297.328 242.031 298.469 240.807 299.578C239.578 300.688 238.328 301.771 237.047 302.818C235.771 303.87 234.464 304.885 233.135 305.87C231.807 306.859 230.453 307.807 229.078 308.729C227.703 309.646 226.307 310.531 224.885 311.385C223.469 312.234 222.026 313.052 220.568 313.828C219.109 314.609 217.63 315.354 216.135 316.063C214.641 316.766 213.13 317.438 211.599 318.073C210.073 318.703 208.526 319.302 206.969 319.859C205.411 320.417 203.844 320.932 202.26 321.411C200.677 321.896 199.083 322.333 197.474 322.74C195.87 323.141 194.255 323.5 192.635 323.823C191.01 324.146 189.38 324.432 187.745 324.672C186.109 324.917 184.469 325.12 182.818 325.281C181.172 325.443 179.526 325.563 177.87 325.646C176.219 325.729 174.562 325.766 172.911 325.766C171.255 325.766 169.604 325.729 167.948 325.646C166.297 325.563 164.646 325.443 163 325.281C161.354 325.12 159.714 324.917 158.078 324.672C156.437 324.432 154.807 324.146 153.187 323.823C151.562 323.5 149.948 323.141 148.344 322.74C146.74 322.333 145.146 321.896 143.562 321.411C141.979 320.932 140.406 320.417 138.849 319.859C137.292 319.302 135.75 318.703 134.219 318.073C132.693 317.438 131.182 316.766 129.682 316.063C128.187 315.354 126.714 314.609 125.25 313.828C123.792 313.052 122.354 312.234 120.932 311.385C119.516 310.531 118.12 309.646 116.745 308.729C115.365 307.807 114.016 306.859 112.687 305.87C111.354 304.885 110.052 303.87 108.771 302.818C107.495 301.771 106.24 300.688 105.016 299.578C103.792 298.469 102.594 297.328 101.422 296.156C100.25 294.984 99.1094 293.786 98 292.563C96.8906 291.333 95.8073 290.083 94.7604 288.802C93.7083 287.526 92.6927 286.224 91.7083 284.891C90.7187 283.563 89.7656 282.214 88.849 280.833C87.9271 279.458 87.0469 278.063 86.1927 276.641C85.3437 275.224 84.526 273.786 83.75 272.323C82.9687 270.865 82.224 269.391 81.5156 267.891C80.8073 266.396 80.1406 264.885 79.5052 263.354C78.875 261.828 78.276 260.286 77.7187 258.729C77.1615 257.167 76.6458 255.599 76.1615 254.016C75.6823 252.432 75.2396 250.839 74.8385 249.234C74.4375 247.625 74.0781 246.016 73.7552 244.391C73.4323 242.766 73.1458 241.141 72.9062 239.5C72.6615 237.865 72.4583 236.224 72.2969 234.578C72.1354 232.932 72.0156 231.281 71.9323 229.63C71.849 227.974 71.8125 226.323 71.8125 224.667C71.8125 223.01 71.849 221.359 71.9323 219.708C72.0156 218.052 72.1354 216.406 72.2969 214.755C72.4583 213.109 72.6615 211.469 72.9062 209.833C73.1458 208.198 73.4323 206.568 73.7552 204.943C74.0781 203.323 74.4375 201.708 74.8385 200.104C75.2396 198.495 75.6823 196.901 76.1615 195.318C76.6458 193.734 77.1615 192.167 77.7187 190.609C78.276 189.052 78.875 187.505 79.5052 185.979C80.1406 184.448 80.8073 182.938 81.5156 181.443C82.224 179.948 82.9687 178.469 83.75 177.01C84.526 175.552 85.3437 174.109 86.1927 172.693C87.0469 171.271 87.9271 169.875 88.849 168.5C89.7656 167.125 90.7187 165.771 91.7083 164.443C92.6927 163.115 93.7083 161.807 94.7604 160.531C95.8073 159.25 96.8906 158 98 156.771C99.1094 155.547 100.25 154.349 101.422 153.177C102.594 152.01 103.792 150.87 105.016 149.755C106.24 148.646 107.495 147.568 108.771 146.516C110.052 145.464 111.354 144.448 112.687 143.464C114.016 142.479 115.365 141.526 116.745 140.604C118.12 139.688 119.516 138.802 120.932 137.953C122.354 137.099 123.792 136.286 125.25 135.505C126.714 134.724 128.187 133.979 129.682 133.276C131.182 132.568 132.693 131.896 134.219 131.26C135.75 130.63 137.292 130.036 138.849 129.479C140.406 128.922 141.979 128.401 143.562 127.922C145.146 127.438 146.74 127 148.344 126.599C149.948 126.193 151.562 125.833 153.187 125.51C154.807 125.188 156.437 124.906 158.078 124.661C159.714 124.417 161.354 124.214 163 124.052C164.646 123.891 166.297 123.771 167.948 123.688C169.604 123.609 171.255 123.568 172.911 123.568C174.562 123.568 176.219 123.609 177.87 123.688C179.526 123.771 181.172 123.891 182.818 124.052C184.469 124.214 186.109 124.417 187.745 124.661C189.38 124.906 191.01 125.188 192.635 125.51C194.255 125.833 195.87 126.193 197.474 126.599C199.083 127 200.677 127.438 202.26 127.922C203.844 128.401 205.411 128.922 206.969 129.479C208.526 130.036 210.073 130.63 211.599 131.26C213.13 131.896 214.641 132.568 216.135 133.276C217.63 133.979 219.109 134.724 220.568 135.505C222.026 136.286 223.469 137.099 224.885 137.953C226.307 138.802 227.703 139.688 229.078 140.604C230.453 141.526 231.807 142.479 233.135 143.464C234.464 144.448 235.771 145.464 237.047 146.516C238.328 147.568 239.578 148.646 240.807 149.755C242.031 150.87 243.229 152.01 244.401 153.177C245.568 154.349 246.708 155.547 247.823 156.771C248.932 158 250.01 159.25 251.062 160.531C252.109 161.807 253.13 163.115 254.115 164.443C255.099 165.771 256.052 167.125 256.974 168.5C257.891 169.875 258.776 171.271 259.625 172.693C260.479 174.109 261.292 175.552 262.073 177.01C262.854 178.469 263.599 179.948 264.302 181.443C265.01 182.938 265.682 184.448 266.312 185.979C266.948 187.505 267.542 189.052 268.099 190.609C268.656 192.167 269.177 193.734 269.656 195.318C270.135 196.901 270.578 198.495 270.979 200.104C271.385 201.708 271.745 203.323 272.068 204.943C272.391 206.568 272.672 208.198 272.917 209.833C273.161 211.469 273.359 213.109 273.526 214.755C273.687 216.406 273.807 218.052 273.891 219.708C273.969 221.359 274.01 223.01 274.01 224.667Z" fill="#3D8E33"/>
<path d="M150.458 133.599L161.484 167.432L132.641 146.542H168.25L139.406 167.432L150.458 133.599Z" fill="white"/>
<path d="M150.458 181.844L161.484 215.672L132.641 194.781H168.25L139.406 215.672L150.458 181.844Z" fill="white"/>
<path d="M150.458 230.083L161.484 263.917L132.641 243.026H168.25L139.406 263.917L150.458 230.083Z" fill="white"/>
<path d="M150.458 278.323L161.484 312.156L132.641 291.266H168.25L139.406 312.156L150.458 278.323Z" fill="white"/>
</g>
</g>
<defs>
<clipPath id="clip0_764_1956">
<rect width="900" height="450" fill="white"/>
</clipPath>
</defs>
</svg>
