<svg width="900" height="450" viewBox="0 0 900 450" fill="none" xmlns="http://www.w3.org/2000/svg">
<rect width="900" height="450" fill="#1E1E1E"/>
<g clip-path="url(#clip0_0_1)">
<mask id="mask0_0_1" style="mask-type:luminance" maskUnits="userSpaceOnUse" x="0" y="0" width="900" height="450">
<path d="M0 0H900V450H0V0Z" fill="white"/>
</mask>
<g mask="url(#mask0_0_1)">
<path d="M900 0H0V450" fill="#009E49"/>
<path d="M0 450H900V0" fill="#CE1126"/>
<path d="M0 450L900 0Z" fill="black"/>
<path d="M0 450L900 0" stroke="#FCD116" stroke-width="210"/>
<path d="M0 450L900 0Z" fill="black"/>
<path d="M0 450L900 0" stroke="black" stroke-width="150"/>
</g>
<path d="M557.849 96.0818L567.666 158.312L598.781 153.404" fill="white"/>
<path d="M557.849 96.0818L602.369 140.657L580.081 162.917" fill="white"/>
<path d="M630.991 107.713L574.84 136.279L589.123 164.355" fill="white"/>
<path d="M630.991 107.713L602.355 163.828L574.297 149.51" fill="white"/>
<path d="M642.531 180.869L598.011 136.294L575.723 158.554" fill="white"/>
<path d="M642.531 180.869L580.313 170.975L585.26 139.866" fill="white"/>
<path d="M576.522 214.451L605.158 158.335L577.1 144.017" fill="white"/>
<path d="M576.522 214.451L566.705 152.221L597.82 147.312" fill="white"/>
<path d="M524.185 162.05L586.403 171.944L591.35 140.835" fill="white"/>
<path d="M524.185 162.05L580.336 133.483L594.619 161.559" fill="white"/>
<path d="M283.088 235.866L292.904 298.096L324.02 293.188" fill="white"/>
<path d="M283.088 235.866L327.608 280.441L305.32 302.701" fill="white"/>
<path d="M356.23 247.497L300.078 276.063L314.362 304.139" fill="white"/>
<path d="M356.23 247.497L327.593 303.612L299.536 289.294" fill="white"/>
<path d="M367.77 320.653L323.25 276.078L300.962 298.338" fill="white"/>
<path d="M367.77 320.653L305.552 310.759L310.499 279.65" fill="white"/>
<path d="M301.76 354.235L330.397 298.119L302.339 283.801" fill="white"/>
<path d="M301.76 354.235L291.944 292.005L323.059 287.096" fill="white"/>
<path d="M249.424 301.834L311.642 311.728L316.589 280.618" fill="white"/>
<path d="M249.424 301.834L305.575 273.267L319.858 301.343" fill="white"/>
</g>
<defs>
<clipPath id="clip0_0_1">
<rect width="900" height="450" fill="white"/>
</clipPath>
</defs>
</svg>
