<svg width="900" height="450" viewBox="0 0 900 450" fill="none" xmlns="http://www.w3.org/2000/svg">
<g clip-path="url(#clip0_764_2102)">
<path d="M900 0H0V450H900V0Z" fill="#1E1E1E"/>
<mask id="mask0_764_2102" style="mask-type:luminance" maskUnits="userSpaceOnUse" x="0" y="0" width="900" height="450">
<path d="M900 0H0V450H900V0Z" fill="white"/>
</mask>
<g mask="url(#mask0_764_2102)">
<mask id="mask1_764_2102" style="mask-type:luminance" maskUnits="userSpaceOnUse" x="0" y="0" width="900" height="450">
<path d="M0 0H900V449.333H0V0Z" fill="white"/>
</mask>
<g mask="url(#mask1_764_2102)">
<path d="M0 0H900V449.333H0V0Z" fill="white"/>
<path d="M0 0H900V449.333H0V0Z" fill="white"/>
<path d="M0 0H900V449.333H0V0Z" fill="#024FA2"/>
</g>
<mask id="mask2_764_2102" style="mask-type:luminance" maskUnits="userSpaceOnUse" x="0" y="74" width="900" height="301">
<path d="M0 74.6667H900V374.667H0V74.6667Z" fill="white"/>
</mask>
<g mask="url(#mask2_764_2102)">
<path d="M0 74.8906H900V374.443H0V74.8906Z" fill="white"/>
</g>
<mask id="mask3_764_2102" style="mask-type:luminance" maskUnits="userSpaceOnUse" x="0" y="86" width="900" height="277">
<path d="M0 86.6667H900V362.667H0V86.6667Z" fill="white"/>
</mask>
<g mask="url(#mask3_764_2102)">
<path d="M0 87.3698H900V361.964H0V87.3698Z" fill="#ED1C27"/>
</g>
<path d="M400.073 224.667C400.073 226.302 400.036 227.932 399.953 229.568C399.875 231.198 399.755 232.828 399.594 234.453C399.432 236.078 399.234 237.703 398.995 239.318C398.755 240.938 398.474 242.547 398.156 244.146C397.839 245.75 397.479 247.344 397.083 248.927C396.682 250.516 396.25 252.089 395.776 253.651C395.302 255.219 394.786 256.766 394.234 258.307C393.687 259.844 393.099 261.37 392.474 262.88C391.849 264.391 391.187 265.88 390.49 267.359C389.786 268.839 389.052 270.297 388.281 271.74C387.516 273.177 386.708 274.599 385.87 276C385.026 277.401 384.156 278.781 383.245 280.141C382.339 281.5 381.396 282.839 380.422 284.151C379.448 285.464 378.443 286.75 377.406 288.01C376.37 289.276 375.307 290.51 374.208 291.724C373.109 292.932 371.984 294.12 370.828 295.271C369.672 296.427 368.49 297.557 367.276 298.651C366.068 299.75 364.828 300.818 363.568 301.854C362.302 302.891 361.016 303.896 359.703 304.87C358.391 305.844 357.057 306.781 355.698 307.693C354.339 308.599 352.958 309.474 351.557 310.313C350.156 311.151 348.734 311.958 347.292 312.729C345.849 313.5 344.391 314.234 342.917 314.932C341.437 315.63 339.943 316.292 338.432 316.917C336.922 317.542 335.401 318.13 333.859 318.682C332.323 319.234 330.771 319.745 329.208 320.219C327.646 320.693 326.068 321.13 324.484 321.526C322.901 321.922 321.307 322.281 319.703 322.599C318.099 322.922 316.49 323.198 314.875 323.438C313.255 323.677 311.635 323.88 310.01 324.036C308.38 324.198 306.755 324.318 305.12 324.401C303.49 324.479 301.854 324.521 300.224 324.521C298.589 324.521 296.953 324.479 295.323 324.401C293.693 324.318 292.062 324.198 290.432 324.036C288.807 323.88 287.187 323.677 285.573 323.438C283.953 323.198 282.344 322.922 280.74 322.599C279.141 322.281 277.547 321.922 275.958 321.526C274.375 321.13 272.802 320.693 271.234 320.219C269.672 319.745 268.12 319.234 266.583 318.682C265.042 318.13 263.521 317.542 262.01 316.917C260.5 316.292 259.005 315.63 257.531 314.932C256.052 314.234 254.594 313.5 253.151 312.729C251.708 311.958 250.292 311.151 248.885 310.313C247.484 309.474 246.104 308.599 244.745 307.693C243.391 306.781 242.052 305.844 240.74 304.87C239.427 303.896 238.141 302.891 236.875 301.854C235.615 300.818 234.375 299.75 233.167 298.651C231.953 297.557 230.771 296.427 229.615 295.271C228.458 294.12 227.333 292.932 226.234 291.724C225.141 290.51 224.073 289.276 223.036 288.01C222 286.75 220.995 285.464 220.021 284.151C219.047 282.839 218.104 281.5 217.198 280.141C216.292 278.781 215.417 277.401 214.578 276C213.734 274.599 212.932 273.177 212.161 271.74C211.391 270.297 210.656 268.839 209.958 267.359C209.26 265.88 208.594 264.391 207.969 262.88C207.344 261.37 206.755 259.844 206.208 258.307C205.656 256.766 205.146 255.219 204.672 253.651C204.193 252.089 203.76 250.516 203.365 248.927C202.964 247.344 202.609 245.75 202.286 244.146C201.969 242.547 201.693 240.938 201.453 239.318C201.208 237.703 201.01 236.078 200.849 234.453C200.693 232.828 200.568 231.198 200.49 229.568C200.411 227.932 200.37 226.302 200.37 224.667C200.37 223.031 200.411 221.401 200.49 219.766C200.568 218.135 200.693 216.505 200.849 214.88C201.01 213.255 201.208 211.63 201.453 210.016C201.693 208.401 201.969 206.792 202.286 205.188C202.609 203.583 202.964 201.99 203.365 200.406C203.76 198.818 204.193 197.245 204.672 195.682C205.146 194.12 205.656 192.568 206.208 191.026C206.755 189.49 207.344 187.964 207.969 186.453C208.594 184.948 209.26 183.453 209.958 181.974C210.656 180.5 211.391 179.036 212.161 177.599C212.932 176.156 213.734 174.734 214.578 173.333C215.417 171.932 216.292 170.552 217.198 169.193C218.104 167.833 219.047 166.5 220.021 165.188C220.995 163.875 222 162.583 223.036 161.323C224.073 160.057 225.141 158.823 226.234 157.609C227.333 156.401 228.458 155.219 229.615 154.063C230.771 152.906 231.953 151.781 233.167 150.682C234.375 149.583 235.615 148.516 236.875 147.479C238.141 146.443 239.427 145.438 240.74 144.464C242.052 143.49 243.391 142.552 244.745 141.641C246.104 140.734 247.484 139.859 248.885 139.021C250.292 138.182 251.708 137.375 253.151 136.604C254.594 135.833 256.052 135.099 257.531 134.401C259.005 133.703 260.5 133.042 262.01 132.417C263.521 131.792 265.042 131.203 266.583 130.651C268.12 130.099 269.672 129.589 271.234 129.115C272.802 128.641 274.375 128.203 275.958 127.807C277.547 127.411 279.141 127.052 280.74 126.734C282.344 126.417 283.953 126.135 285.573 125.896C287.187 125.656 288.807 125.458 290.432 125.297C292.062 125.135 293.693 125.016 295.323 124.938C296.953 124.854 298.589 124.812 300.224 124.812C301.854 124.812 303.49 124.854 305.12 124.938C306.755 125.016 308.38 125.135 310.01 125.297C311.635 125.458 313.255 125.656 314.875 125.896C316.49 126.135 318.099 126.417 319.703 126.734C321.307 127.052 322.901 127.411 324.484 127.807C326.068 128.203 327.646 128.641 329.208 129.115C330.771 129.589 332.323 130.099 333.859 130.651C335.401 131.203 336.922 131.792 338.432 132.417C339.943 133.042 341.437 133.703 342.917 134.401C344.391 135.099 345.849 135.833 347.292 136.604C348.734 137.375 350.156 138.182 351.557 139.021C352.958 139.859 354.339 140.734 355.698 141.641C357.057 142.552 358.391 143.49 359.703 144.464C361.016 145.438 362.302 146.443 363.568 147.479C364.828 148.516 366.068 149.583 367.276 150.682C368.49 151.781 369.672 152.906 370.828 154.063C371.984 155.219 373.109 156.401 374.208 157.609C375.307 158.823 376.37 160.057 377.406 161.323C378.443 162.583 379.448 163.875 380.422 165.188C381.396 166.5 382.339 167.833 383.245 169.193C384.156 170.552 385.026 171.932 385.87 173.333C386.708 174.734 387.516 176.156 388.281 177.599C389.052 179.036 389.786 180.5 390.49 181.974C391.187 183.453 391.849 184.948 392.474 186.453C393.099 187.964 393.687 189.49 394.234 191.026C394.786 192.568 395.302 194.12 395.776 195.682C396.25 197.245 396.682 198.818 397.083 200.406C397.479 201.99 397.839 203.583 398.156 205.188C398.474 206.792 398.755 208.401 398.995 210.016C399.234 211.63 399.432 213.255 399.594 214.88C399.755 216.505 399.875 218.135 399.953 219.766C400.036 221.401 400.073 223.031 400.073 224.667Z" fill="white"/>
<path d="M300.224 127.938L270.328 219.932L316.328 234.88L300.224 127.938Z" fill="#ED1C27"/>
<path d="M300.224 127.938L330.115 219.932L284.115 234.88L300.224 127.938Z" fill="#ED1C27"/>
<path d="M392.219 194.776H295.49V243.141L392.219 194.776Z" fill="#ED1C27"/>
<path d="M392.219 194.776L313.964 251.635L285.531 212.505L392.219 194.776Z" fill="#ED1C27"/>
<path d="M208.224 194.776L286.484 251.635L314.911 212.505L208.224 194.776Z" fill="#ED1C27"/>
<path d="M208.224 194.776H304.958V243.141L208.224 194.776Z" fill="#ED1C27"/>
<path d="M357.078 302.927L327.188 210.927L281.188 225.875L357.078 302.927Z" fill="#ED1C27"/>
<path d="M357.078 302.927L278.823 246.068L307.25 206.938L357.078 302.927Z" fill="#ED1C27"/>
<path d="M243.365 302.927L321.62 246.068L293.193 206.938L243.365 302.927Z" fill="#ED1C27"/>
<path d="M243.365 302.927L273.255 210.927L319.255 225.875L243.365 302.927Z" fill="#ED1C27"/>
</g>
</g>
<defs>
<clipPath id="clip0_764_2102">
<rect width="900" height="450" fill="white"/>
</clipPath>
</defs>
</svg>
