<svg width="900" height="450" viewBox="0 0 900 450" fill="none" xmlns="http://www.w3.org/2000/svg">
<g clip-path="url(#clip0_764_2175)">
<path d="M900 0H0V450H900V0Z" fill="#1E1E1E"/>
<mask id="mask0_764_2175" style="mask-type:luminance" maskUnits="userSpaceOnUse" x="0" y="0" width="900" height="450">
<path d="M900 0H0V450H900V0Z" fill="white"/>
</mask>
<g mask="url(#mask0_764_2175)">
<mask id="mask1_764_2175" style="mask-type:luminance" maskUnits="userSpaceOnUse" x="0" y="0" width="900" height="450">
<path d="M0 0H900V450H0V0Z" fill="white"/>
</mask>
<g mask="url(#mask1_764_2175)">
<path d="M0 0H900V450H0V0Z" fill="white"/>
<path d="M0 0H900V450H0V0Z" fill="white"/>
</g>
<mask id="mask2_764_2175" style="mask-type:luminance" maskUnits="userSpaceOnUse" x="144" y="17" width="296" height="258">
<path d="M144 17.9896H440V274.667H144V17.9896Z" fill="white"/>
</mask>
<g mask="url(#mask2_764_2175)">
<path d="M242.214 148.245L299.542 62.2552M263.714 162.578L321.036 76.5885M285.208 176.911L342.536 90.9219" stroke="black" stroke-width="17.2245"/>
</g>
<mask id="mask3_764_2175" style="mask-type:luminance" maskUnits="userSpaceOnUse" x="460" y="174" width="296" height="258">
<path d="M460 174.667H756V431.375H460V174.667Z" fill="white"/>
</mask>
<g mask="url(#mask3_764_2175)">
<path d="M557.51 358.443L614.839 272.453M579.01 372.776L636.333 286.786M600.505 387.109L657.833 301.12" stroke="black" stroke-width="17.2245"/>
</g>
<path d="M571.844 305.896L643.5 353.667" stroke="white" stroke-width="8.61224"/>
<path d="M507.349 138.693C508.755 139.63 510.141 140.604 511.5 141.609C512.859 142.615 514.193 143.656 515.5 144.724C516.812 145.797 518.094 146.901 519.344 148.036C520.599 149.172 521.828 150.333 523.026 151.531C524.219 152.724 525.391 153.948 526.526 155.198C527.661 156.453 528.766 157.729 529.844 159.036C530.917 160.344 531.958 161.677 532.969 163.031C533.974 164.391 534.953 165.771 535.891 167.177C536.833 168.583 537.74 170.01 538.609 171.458C539.484 172.906 540.318 174.38 541.115 175.87C541.917 177.359 542.677 178.87 543.401 180.396C544.125 181.927 544.812 183.474 545.464 185.031C546.109 186.594 546.719 188.172 547.292 189.766C547.865 191.354 548.396 192.964 548.891 194.578C549.38 196.198 549.833 197.828 550.245 199.469C550.661 201.104 551.031 202.755 551.365 204.417C551.693 206.073 551.984 207.74 552.234 209.411C552.484 211.083 552.693 212.76 552.859 214.443C553.031 216.13 553.156 217.813 553.24 219.505C553.323 221.193 553.37 222.885 553.37 224.573C553.37 226.266 553.333 227.958 553.25 229.646C553.172 231.333 553.047 233.021 552.88 234.703C552.719 236.385 552.516 238.068 552.266 239.74C552.021 241.411 551.734 243.078 551.406 244.74C551.078 246.396 550.708 248.047 550.297 249.688C549.891 251.328 549.443 252.958 548.953 254.578C548.464 256.198 547.932 257.802 547.365 259.396C546.797 260.99 546.187 262.568 545.547 264.13C544.901 265.693 544.214 267.24 543.495 268.771C542.771 270.302 542.016 271.813 541.219 273.302C540.422 274.797 539.589 276.271 538.724 277.719C537.854 279.172 536.953 280.604 536.01 282.01C535.073 283.417 534.104 284.802 533.099 286.161C532.089 287.521 531.052 288.854 529.979 290.161C528.906 291.469 527.807 292.75 526.672 294.005C525.536 295.26 524.37 296.484 523.177 297.682C521.984 298.88 520.76 300.047 519.505 301.182C518.255 302.323 516.974 303.427 515.667 304.5C514.365 305.578 513.031 306.62 511.672 307.625C510.318 308.635 508.932 309.609 507.531 310.552C506.125 311.495 504.698 312.401 503.245 313.271C501.797 314.141 500.328 314.974 498.833 315.776C497.344 316.573 495.833 317.333 494.307 318.063C492.781 318.786 491.234 319.474 489.672 320.12C488.109 320.771 486.531 321.38 484.943 321.953C483.349 322.521 481.745 323.057 480.125 323.547C478.51 324.042 476.88 324.495 475.24 324.906C473.599 325.318 471.948 325.693 470.292 326.021C468.63 326.354 466.969 326.646 465.292 326.896C463.62 327.146 461.943 327.354 460.26 327.521C458.578 327.688 456.891 327.813 455.203 327.901C453.51 327.984 451.823 328.026 450.13 328.031C448.437 328.031 446.75 327.99 445.062 327.911C443.37 327.828 441.682 327.708 440 327.542C438.318 327.38 436.641 327.172 434.964 326.927C433.292 326.682 431.625 326.391 429.969 326.063C428.307 325.734 426.656 325.37 425.016 324.958C423.375 324.547 421.745 324.099 420.125 323.609C418.505 323.12 416.901 322.594 415.307 322.026C413.714 321.458 412.135 320.849 410.573 320.203C409.01 319.557 407.464 318.875 405.932 318.151C404.406 317.432 402.896 316.672 401.401 315.875C399.906 315.083 398.437 314.25 396.984 313.38C395.531 312.516 394.104 311.609 392.698 310.672C391.292 309.734 389.906 308.76 388.547 307.755C387.187 306.75 385.854 305.714 384.542 304.641C383.234 303.568 381.953 302.464 380.698 301.328C379.443 300.198 378.219 299.031 377.021 297.839C375.823 296.641 374.656 295.417 373.521 294.167C372.385 292.917 371.276 291.635 370.203 290.328C369.13 289.021 368.089 287.693 367.078 286.333C366.068 284.974 365.094 283.594 364.151 282.188C363.214 280.781 362.307 279.354 361.437 277.906C360.562 276.458 359.729 274.984 358.932 273.495C358.13 272.005 357.37 270.495 356.646 268.969C355.922 267.438 355.234 265.896 354.583 264.333C353.937 262.771 353.323 261.193 352.755 259.599C352.182 258.01 351.651 256.406 351.156 254.786C350.667 253.167 350.214 251.536 349.802 249.901C349.385 248.26 349.016 246.609 348.682 244.953C348.349 243.292 348.062 241.625 347.812 239.953C347.562 238.281 347.354 236.604 347.182 234.922C347.016 233.234 346.891 231.552 346.807 229.859C346.719 228.172 346.677 226.484 346.677 224.792C346.672 223.099 346.714 221.411 346.797 219.719C346.875 218.031 347 216.344 347.161 214.661C347.328 212.979 347.531 211.297 347.781 209.625C348.026 207.953 348.312 206.286 348.641 204.625C348.969 202.969 349.339 201.318 349.745 199.677C350.156 198.036 350.604 196.406 351.094 194.786C351.583 193.167 352.115 191.563 352.682 189.969C353.25 188.375 353.854 186.797 354.5 185.234C355.146 183.672 355.833 182.125 356.552 180.594C357.276 179.063 358.031 177.552 358.828 176.063C359.625 174.568 360.458 173.094 361.323 171.646C362.193 170.193 363.094 168.766 364.031 167.354C364.969 165.948 365.943 164.568 366.948 163.208C367.953 161.844 368.995 160.51 370.068 159.203C371.135 157.896 372.24 156.615 373.375 155.359C374.51 154.104 375.677 152.88 376.87 151.682C378.062 150.484 379.286 149.318 380.542 148.182C381.792 147.042 383.073 145.938 384.375 144.865C385.682 143.786 387.016 142.745 388.375 141.74C389.729 140.729 391.109 139.755 392.516 138.813C393.922 137.87 395.349 136.964 396.797 136.094C398.25 135.224 399.719 134.391 401.208 133.589C402.703 132.792 404.208 132.031 405.74 131.302C407.266 130.578 408.812 129.891 410.375 129.245C411.937 128.594 413.51 127.984 415.104 127.411C416.698 126.844 418.302 126.307 419.922 125.818C421.536 125.323 423.167 124.87 424.807 124.458C426.448 124.047 428.099 123.672 429.755 123.344C431.411 123.01 433.078 122.719 434.75 122.469C436.427 122.219 438.104 122.01 439.786 121.844C441.469 121.677 443.156 121.552 444.844 121.464C446.531 121.38 448.224 121.339 449.917 121.333C451.604 121.333 453.297 121.375 454.984 121.453C456.677 121.536 458.359 121.656 460.047 121.823C461.729 121.984 463.406 122.193 465.078 122.438C466.755 122.682 468.422 122.974 470.078 123.302C471.74 123.63 473.391 123.995 475.031 124.406C476.672 124.818 478.302 125.266 479.922 125.755C481.536 126.245 483.146 126.771 484.74 127.339C486.328 127.906 487.906 128.516 489.474 129.161C491.036 129.807 492.583 130.49 494.109 131.214C495.641 131.932 497.151 132.693 498.646 133.49C500.135 134.281 501.609 135.115 503.062 135.984C504.51 136.849 505.943 137.755 507.349 138.693Z" fill="#CD2E3A"/>
<path d="M364.031 167.354C363.094 168.766 362.229 170.214 361.432 171.708C360.635 173.203 359.911 174.729 359.266 176.297C358.62 177.859 358.052 179.453 357.562 181.073C357.073 182.693 356.667 184.333 356.339 185.99C356.01 187.651 355.76 189.323 355.599 191.01C355.432 192.693 355.354 194.38 355.354 196.073C355.354 197.766 355.443 199.453 355.609 201.141C355.776 202.823 356.026 204.495 356.359 206.151C356.687 207.813 357.104 209.453 357.594 211.073C358.089 212.688 358.661 214.281 359.307 215.844C359.958 217.406 360.682 218.932 361.479 220.427C362.281 221.917 363.151 223.365 364.094 224.771C365.036 226.177 366.042 227.536 367.12 228.844C368.193 230.151 369.328 231.401 370.526 232.594C371.724 233.792 372.979 234.927 374.286 236C375.599 237.068 376.958 238.073 378.365 239.016C379.771 239.953 381.224 240.823 382.719 241.615C384.208 242.411 385.74 243.135 387.302 243.781C388.87 244.427 390.458 244.995 392.078 245.484C393.698 245.974 395.339 246.38 397 246.708C398.661 247.036 400.333 247.286 402.016 247.448C403.703 247.615 405.391 247.693 407.083 247.693C408.776 247.693 410.464 247.604 412.146 247.438C413.833 247.271 415.505 247.021 417.161 246.688C418.823 246.359 420.458 245.943 422.078 245.453C423.698 244.958 425.292 244.385 426.854 243.74C428.417 243.089 429.943 242.365 431.432 241.568C432.927 240.766 434.375 239.896 435.781 238.953C437.187 238.01 438.542 237.005 439.849 235.927C441.156 234.854 442.411 233.719 443.604 232.521C444.802 231.323 445.932 230.068 447.005 228.76C448.078 227.448 449.083 226.089 450.021 224.682C450.964 223.276 451.969 221.917 453.042 220.604C454.109 219.297 455.245 218.042 456.443 216.844C457.635 215.646 458.885 214.51 460.193 213.438C461.5 212.359 462.859 211.354 464.266 210.411C465.672 209.469 467.12 208.599 468.609 207.797C470.104 207 471.63 206.276 473.193 205.625C474.755 204.979 476.349 204.406 477.969 203.911C479.583 203.422 481.224 203.005 482.885 202.677C484.542 202.344 486.214 202.094 487.901 201.927C489.583 201.76 491.271 201.672 492.964 201.672C494.656 201.672 496.344 201.75 498.031 201.917C499.714 202.078 501.385 202.328 503.047 202.656C504.708 202.984 506.344 203.391 507.964 203.88C509.589 204.37 511.177 204.938 512.745 205.583C514.307 206.229 515.833 206.953 517.328 207.75C518.823 208.547 520.271 209.411 521.682 210.349C523.089 211.292 524.448 212.297 525.755 213.37C527.068 214.438 528.323 215.573 529.521 216.771C530.719 217.964 531.854 219.214 532.927 220.521C534.005 221.828 535.01 223.188 535.953 224.594C536.896 226 537.766 227.448 538.562 228.938C539.365 230.432 540.089 231.958 540.74 233.521C541.385 235.083 541.958 236.677 542.453 238.292C542.943 239.911 543.354 241.552 543.687 243.214C544.021 244.87 544.271 246.542 544.437 248.229C544.604 249.911 544.687 251.599 544.693 253.292C544.693 254.984 544.609 256.672 544.448 258.354C544.281 260.042 544.036 261.714 543.708 263.375C543.38 265.031 542.974 266.672 542.484 268.292C541.995 269.911 541.427 271.505 540.776 273.068C540.13 274.635 539.411 276.161 538.615 277.656C537.818 279.151 536.953 280.599 536.01 282.01C535.073 283.417 534.104 284.802 533.099 286.161C532.089 287.521 531.052 288.854 529.979 290.161C528.906 291.469 527.807 292.75 526.672 294.005C525.536 295.26 524.37 296.484 523.177 297.682C521.984 298.88 520.76 300.047 519.505 301.182C518.255 302.323 516.974 303.427 515.667 304.5C514.365 305.578 513.031 306.62 511.672 307.625C510.318 308.635 508.932 309.609 507.531 310.552C506.125 311.495 504.698 312.401 503.245 313.271C501.797 314.141 500.328 314.974 498.833 315.776C497.344 316.573 495.833 317.333 494.307 318.063C492.781 318.786 491.234 319.474 489.672 320.12C488.109 320.771 486.531 321.38 484.943 321.953C483.349 322.521 481.745 323.057 480.125 323.547C478.51 324.042 476.88 324.495 475.24 324.906C473.599 325.318 471.948 325.693 470.292 326.021C468.63 326.354 466.969 326.646 465.292 326.896C463.62 327.146 461.943 327.354 460.26 327.521C458.578 327.688 456.891 327.813 455.203 327.901C453.51 327.984 451.823 328.026 450.13 328.031C448.437 328.031 446.75 327.99 445.062 327.911C443.37 327.828 441.682 327.708 440 327.542C438.318 327.38 436.641 327.172 434.964 326.927C433.292 326.682 431.625 326.391 429.969 326.063C428.307 325.734 426.656 325.37 425.016 324.958C423.375 324.547 421.745 324.099 420.125 323.609C418.505 323.12 416.901 322.594 415.307 322.026C413.714 321.458 412.135 320.849 410.573 320.203C409.01 319.557 407.464 318.875 405.932 318.151C404.406 317.432 402.896 316.672 401.401 315.875C399.906 315.083 398.437 314.25 396.984 313.38C395.531 312.516 394.104 311.609 392.698 310.672C391.292 309.734 389.906 308.76 388.547 307.755C387.187 306.75 385.854 305.714 384.542 304.641C383.234 303.568 381.953 302.464 380.698 301.328C379.443 300.198 378.219 299.031 377.021 297.839C375.823 296.641 374.656 295.417 373.521 294.167C372.385 292.917 371.276 291.635 370.203 290.328C369.13 289.021 368.089 287.693 367.078 286.333C366.068 284.974 365.094 283.594 364.151 282.188C363.214 280.781 362.307 279.354 361.437 277.906C360.562 276.458 359.729 274.984 358.932 273.495C358.13 272.005 357.37 270.495 356.646 268.969C355.922 267.438 355.234 265.896 354.583 264.333C353.937 262.771 353.323 261.193 352.755 259.599C352.182 258.01 351.651 256.406 351.156 254.786C350.667 253.167 350.214 251.536 349.802 249.901C349.385 248.26 349.016 246.609 348.682 244.953C348.349 243.292 348.062 241.625 347.812 239.953C347.562 238.281 347.354 236.604 347.182 234.922C347.016 233.234 346.891 231.552 346.807 229.859C346.719 228.172 346.677 226.484 346.677 224.792C346.672 223.099 346.714 221.411 346.797 219.719C346.875 218.031 347 216.344 347.161 214.661C347.328 212.979 347.531 211.297 347.781 209.625C348.026 207.953 348.312 206.286 348.641 204.625C348.969 202.969 349.339 201.318 349.745 199.677C350.156 198.036 350.604 196.406 351.094 194.786C351.583 193.167 352.115 191.563 352.682 189.969C353.25 188.375 353.854 186.797 354.5 185.234C355.146 183.672 355.833 182.125 356.552 180.594C357.276 179.063 358.031 177.552 358.828 176.063C359.625 174.568 360.458 173.094 361.323 171.646C362.193 170.193 363.094 168.766 364.031 167.354Z" fill="#0047A0"/>
<mask id="mask4_764_2175" style="mask-type:luminance" maskUnits="userSpaceOnUse" x="144" y="174" width="296" height="258">
<path d="M144 174.667H440V431.375H144V174.667Z" fill="white"/>
</mask>
<g mask="url(#mask4_764_2175)">
<path d="M299.542 387.109L242.214 301.12M321.036 372.776L263.714 286.786M342.536 358.443L285.208 272.453" stroke="black" stroke-width="17.2245"/>
</g>
<mask id="mask5_764_2175" style="mask-type:luminance" maskUnits="userSpaceOnUse" x="460" y="17" width="296" height="258">
<path d="M460 17.9896H756V274.667H460V17.9896Z" fill="white"/>
</mask>
<g mask="url(#mask5_764_2175)">
<path d="M614.839 176.911L557.51 90.9218M636.333 162.578L579.01 76.5885M657.833 148.245L600.505 62.2552" stroke="black" stroke-width="17.2245"/>
</g>
<path d="M281.625 336.948L303.125 322.615M571.844 143.469L596.922 126.75M618.422 112.417L639.917 98.0886" stroke="white" stroke-width="8.61224"/>
</g>
</g>
<defs>
<clipPath id="clip0_764_2175">
<rect width="900" height="450" fill="white"/>
</clipPath>
</defs>
</svg>
