<svg width="900" height="450" viewBox="0 0 900 450" fill="none" xmlns="http://www.w3.org/2000/svg">
<g clip-path="url(#clip0_764_2246)">
<path d="M900 0H0V450H900V0Z" fill="#1E1E1E"/>
<mask id="mask0_764_2246" style="mask-type:luminance" maskUnits="userSpaceOnUse" x="0" y="0" width="900" height="450">
<path d="M900 0H0V450H900V0Z" fill="white"/>
</mask>
<g mask="url(#mask0_764_2246)">
<mask id="mask1_764_2246" style="mask-type:luminance" maskUnits="userSpaceOnUse" x="0" y="0" width="900" height="450">
<path d="M0 0H900V450H0V0Z" fill="white"/>
</mask>
<g mask="url(#mask1_764_2246)">
<path d="M0 0H900V450H0V0Z" fill="white"/>
<path d="M0 0H900V450H0V0Z" fill="white"/>
</g>
<mask id="mask2_764_2246" style="mask-type:luminance" maskUnits="userSpaceOnUse" x="0" y="0" width="900" height="151">
<path d="M0 0H900V150.667H0V0Z" fill="white"/>
</mask>
<g mask="url(#mask2_764_2246)">
<path d="M0 0H900V149.776H0V0Z" fill="#007A3D"/>
</g>
<mask id="mask3_764_2246" style="mask-type:luminance" maskUnits="userSpaceOnUse" x="0" y="149" width="900" height="151">
<path d="M0 149.333H900V300H0V149.333Z" fill="white"/>
</mask>
<g mask="url(#mask3_764_2246)">
<path d="M0 149.776H900V299.557H0V149.776Z" fill="white"/>
</g>
<mask id="mask4_764_2246" style="mask-type:luminance" maskUnits="userSpaceOnUse" x="0" y="298" width="900" height="159">
<path d="M0 298.667H900V456.667H0V298.667Z" fill="white"/>
</mask>
<g mask="url(#mask4_764_2246)">
<path d="M0 299.601H900V456.667H0V299.601Z" fill="#CE1126"/>
</g>
<mask id="mask5_764_2246" style="mask-type:luminance" maskUnits="userSpaceOnUse" x="0" y="0" width="225" height="450">
<path d="M0 0H224.667V449.333H0V0Z" fill="white"/>
</mask>
<g mask="url(#mask5_764_2246)">
<path d="M0 0L224.667 149.776V299.557L0 449.333V0Z" fill="black"/>
</g>
</g>
</g>
<defs>
<clipPath id="clip0_764_2246">
<rect width="900" height="450" fill="white"/>
</clipPath>
</defs>
</svg>
