<svg width="900" height="450" viewBox="0 0 900 450" fill="none" xmlns="http://www.w3.org/2000/svg">
<g clip-path="url(#clip0_764_2452)">
<path d="M900 0H0V450H900V0Z" fill="#1E1E1E"/>
<mask id="mask0_764_2452" style="mask-type:luminance" maskUnits="userSpaceOnUse" x="0" y="0" width="900" height="450">
<path d="M900 0H0V450H900V0Z" fill="white"/>
</mask>
<g mask="url(#mask0_764_2452)">
<mask id="mask1_764_2452" style="mask-type:luminance" maskUnits="userSpaceOnUse" x="0" y="0" width="900" height="450">
<path d="M0 0H900V450H0V0Z" fill="white"/>
</mask>
<g mask="url(#mask1_764_2452)">
<path d="M0 0H900V450H0V0Z" fill="white"/>
<path d="M0 0H900V450H0V0Z" fill="white"/>
<path d="M0 0H900V450H0V0Z" fill="#012169"/>
</g>
<mask id="mask2_764_2452" style="mask-type:luminance" maskUnits="userSpaceOnUse" x="0" y="0" width="705" height="450">
<path d="M0 0H704.667V449.333H0V0Z" fill="white"/>
</mask>
<g mask="url(#mask2_764_2452)">
<path d="M0 0L449.333 224.667M449.333 0L0 224.667" stroke="white" stroke-width="44.9334"/>
</g>
<mask id="mask3_764_2452" style="mask-type:luminance" maskUnits="userSpaceOnUse" x="0" y="0" width="525" height="263">
<path d="M0 0H524.224V262.109H0V0Z" fill="white"/>
</mask>
<g mask="url(#mask3_764_2452)">
<mask id="mask4_764_2452" style="mask-type:luminance" maskUnits="userSpaceOnUse" x="0" y="0" width="525" height="263">
<path d="M0 0V112.333H524.224V224.667H449.333L0 0ZM449.333 0H224.667V262.109H0V224.667L449.333 0Z" fill="white"/>
</mask>
<g mask="url(#mask4_764_2452)">
<path d="M0 0L449.333 224.667M449.333 0L0 224.667" stroke="#C8102E" stroke-width="29.9556"/>
</g>
</g>
<mask id="mask5_764_2452" style="mask-type:luminance" maskUnits="userSpaceOnUse" x="0" y="0" width="562" height="300">
<path d="M0 0H562V300H0V0Z" fill="white"/>
</mask>
<g mask="url(#mask5_764_2452)">
<path d="M224.667 0V262.109M0 112.333H524.224" stroke="white" stroke-width="74.8891"/>
</g>
<mask id="mask6_764_2452" style="mask-type:luminance" maskUnits="userSpaceOnUse" x="0" y="0" width="548" height="286">
<path d="M0 0H547.333V285.333H0V0Z" fill="white"/>
</mask>
<g mask="url(#mask6_764_2452)">
<path d="M224.667 0V262.109M0 112.333H524.224" stroke="#C8102E" stroke-width="44.9334"/>
</g>
<mask id="mask7_764_2452" style="mask-type:luminance" maskUnits="userSpaceOnUse" x="0" y="0" width="899" height="450">
<path d="M0 0H898.667V449.333H0V0Z" fill="white"/>
</mask>
<g mask="url(#mask7_764_2452)">
<path d="M0 224.667H449.333V0H898.667V449.333H0V224.667Z" fill="#012169"/>
</g>
<path d="M741.86 174.453V244.438C741.86 305.094 713.146 325.906 674.745 342.417C636.344 325.906 607.276 305.094 607.276 244.438V174.453H741.86Z" fill="white" stroke="white" stroke-width="7.18935" stroke-linejoin="round"/>
<path d="M565.641 336.672C567.797 342.417 583.229 349.953 601.172 340.26C613.375 333.443 621.271 323.755 628.807 306.526C630.958 302.219 632.037 296.833 627.011 293.604C623.063 290.734 616.604 287.505 613.734 284.635C612.297 283.198 610.865 282.12 609.787 281.047C610.505 281.76 611.219 282.479 611.938 283.557C619.115 292.172 611.578 304.729 603.682 312.271C597.943 317.651 587.531 330.932 572.458 318.37C569.229 315.5 561.693 327.344 565.641 336.672ZM783.849 336.672C781.334 342.417 765.901 349.953 748.318 340.26C736.115 333.443 728.219 323.755 720.323 306.526C718.531 302.219 717.453 296.833 722.479 293.604C726.427 290.734 732.886 287.505 735.755 284.635C737.193 283.198 738.266 282.12 739.703 281.047C738.985 281.76 738.266 282.479 737.552 283.557C730.375 292.172 737.912 304.729 745.448 312.271C751.188 317.651 761.953 330.932 777.026 318.37C780.261 315.5 787.438 327.344 783.849 336.672Z" fill="#FCEA83" stroke="white" stroke-width="7.18935" stroke-linejoin="round"/>
<path d="M674.745 367.537C703.458 367.537 747.604 354.62 771.287 309.396C775.235 301.859 771.287 297.912 766.625 295.401C761.599 293.25 755.495 288.224 752.266 284.995C758.011 290.734 756.932 294.682 752.985 301.146C734.682 331.651 709.557 347.083 674.745 347.083C639.932 347.083 614.813 331.651 596.505 301.146C592.557 294.682 591.484 290.734 596.865 284.995C593.995 288.224 587.537 293.25 582.511 295.401C577.844 297.912 573.896 301.859 577.844 309.396C601.531 354.62 646.037 367.537 674.745 367.537Z" fill="#FCEA83" stroke="white" stroke-width="7.18935" stroke-linejoin="round"/>
<path d="M608.349 306.886C607.63 303.297 602.964 304.734 601.531 309.037C599.734 306.526 597.943 304.016 596.505 301.141C592.198 294.682 591.479 290.375 597.583 284.276C600.453 281.406 606.198 278.172 610.146 281.761C618.401 288.583 614.094 299.708 608.349 306.886ZM740.781 306.886C741.5 303.297 746.526 304.734 747.958 309.037C749.755 306.526 751.547 304.016 752.985 301.141C757.292 294.682 758.011 290.375 751.547 284.276C749.037 281.406 743.297 278.172 738.99 281.761C731.094 288.583 735.042 299.708 740.781 306.886ZM565.641 336.672C562.052 331.292 559.182 317.292 558.464 313.703C557.386 310.474 557.026 307.604 560.974 306.167C564.922 304.734 568.511 309.755 570.307 314.063C572.099 318.37 574.974 324.828 578.203 332.724C570.307 328.057 563.844 331.292 565.641 336.672ZM783.849 336.672C787.078 331.292 789.948 317.292 791.026 313.703C791.745 310.474 792.464 307.604 788.516 306.167C784.568 304.734 780.979 309.755 779.182 314.063C777.386 318.37 774.516 324.828 771.287 332.724C779.182 328.057 785.281 331.292 783.849 336.672Z" fill="#C8102E" stroke="white" stroke-width="7.18935" stroke-linejoin="round"/>
<path d="M647.11 174.094C642.443 175.172 639.214 175.531 634.906 171.583C632.037 168.708 632.755 163.688 635.625 161.891C638.854 159.74 641.724 158.302 645.677 159.38C649.62 160.458 660.031 170.146 657.521 170.505C655.005 170.505 651.057 173.016 647.11 174.094ZM658.235 156.865C659.672 155.792 661.469 155.073 666.13 154.714C670.438 154.354 673.667 154.354 674.745 157.583C676.182 161.531 677.255 166.198 680.13 168.354C678.333 169.427 669.365 170.505 666.13 168.708C661.828 166.557 660.75 158.302 658.235 156.865ZM689.099 157.229C690.537 156.151 692.333 156.151 696.995 156.51C701.662 156.87 703.458 157.229 704.531 160.458C705.61 164.047 704.531 168.714 706.688 171.943C704.531 172.662 697.354 172.662 694.844 170.146C690.896 167.276 691.255 159.021 689.099 157.229Z" fill="white" stroke="white" stroke-width="7.18935" stroke-linejoin="round"/>
<path d="M710.636 159.38C707.406 158.661 705.25 158.302 703.818 159.38C705.61 161.531 704.177 170.146 707.766 173.016C710.276 174.813 716.735 175.172 718.172 171.224C719.964 167.635 719.964 162.25 710.636 159.38ZM673.667 155.792C674.745 154.714 676.901 154.354 681.203 154.354C685.87 154.354 688.745 155.073 690.177 157.943C691.615 161.531 691.255 166.198 693.766 169.068C692.688 170.505 683 170.505 680.13 168.354C676.182 165.839 675.823 157.583 673.667 155.792ZM643.162 159.021C643.162 157.229 645.677 156.87 652.136 156.51C658.594 155.792 658.953 156.151 661.11 160.818C662.182 163.328 663.62 167.635 666.49 169.068C658.594 170.865 656.083 171.943 651.776 169.427C648.547 167.635 644.958 163.328 644.24 161.531C643.88 160.458 643.88 159.38 643.162 159.021Z" fill="#073163" stroke="white" stroke-width="7.18935" stroke-linejoin="round"/>
<path d="M643.88 127.078C641.37 127.078 639.214 126 637.781 124.208C635.266 120.979 628.448 119.542 625.578 122.411C624.5 123.13 623.063 123.13 621.99 123.49C620.193 123.49 618.042 125.286 618.761 128.875C620.193 127.797 620.552 128.875 621.63 128.875C622.349 128.516 621.99 129.234 621.99 129.948C621.99 131.745 625.938 135.333 629.526 134.974C633.474 134.974 635.266 136.411 635.985 137.13C637.063 138.203 636.344 137.844 637.063 139.641C638.136 140.719 638.495 141.078 636.703 142.51C634.193 144.667 632.396 149.688 636.703 153.635C641.37 157.229 653.214 162.609 666.49 152.203C679.412 142.151 699.511 147.896 700.943 151.484C702.74 155.073 703.459 157.229 703.818 159.021C704.177 160.458 705.969 161.891 708.479 161.531C710.995 161.531 713.865 162.609 715.302 163.688C717.094 164.766 719.604 164.406 718.891 161.172C717.453 151.125 711.354 149.688 710.636 145.026C714.224 145.385 716.735 145.385 718.172 143.948C719.25 142.51 720.682 140 722.12 139.281C723.198 138.563 723.198 137.844 721.761 138.203C719.964 138.563 718.891 139.281 715.662 138.922C699.151 137.13 652.854 124.568 643.88 127.078Z" fill="#059334" stroke="white" stroke-width="7.18935" stroke-linejoin="round"/>
<path d="M717.094 139.281C715.302 140.359 713.505 142.151 710.276 146.458C706.688 151.125 695.922 155.792 682.641 155.792C669.719 155.792 661.823 153.635 656.084 148.974C652.854 146.458 650.339 145.026 648.188 143.948C644.24 142.151 643.521 138.203 644.599 134.974C643.521 136.771 642.802 138.563 640.651 138.203C639.214 138.203 636.344 138.203 637.063 139.641C636.703 138.922 636.703 137.844 636.344 137.49L635.625 136.771C636.703 137.49 639.214 135.333 641.011 135.333C642.443 135.693 644.24 133.896 643.88 131.745C643.521 129.948 643.162 128.516 642.802 127.078C645.677 125.646 683.36 132.464 690.896 133.182C698.433 133.542 719.964 136.771 717.094 139.281Z" fill="black" stroke="white" stroke-width="7.18935" stroke-linejoin="round"/>
<path d="M648.906 125.646C652.495 122.057 656.802 120.26 661.11 121.339H662.182C664.339 119.542 669.36 119.182 672.235 120.62H673.667C677.974 119.182 686.229 120.62 689.099 123.49L690.177 124.208C699.87 123.49 705.61 127.797 712.432 134.615C713.146 135.333 714.224 136.771 716.021 137.13C718.172 137.49 718.531 138.563 716.735 139.641C714.584 140.719 712.787 142.51 709.198 146.458C705.969 150.766 695.563 155.073 682.641 155.073C670.078 155.073 662.542 152.922 656.802 148.615C653.573 146.099 651.057 144.667 649.266 143.589C647.11 142.87 644.24 140 645.318 137.13C646.037 134.255 644.24 130.667 642.802 127.078C643.88 126.359 646.75 125.286 648.188 126L648.906 125.641V125.646Z" fill="#059334" stroke="white" stroke-width="7.18935" stroke-linejoin="round"/>
<path d="M712.427 134.615C705.61 127.797 699.87 123.49 690.177 124.208C690.177 124.568 690.177 125.646 689.818 126.359C695.563 128.516 703.818 134.974 707.406 139.641C708.839 138.203 711.354 136.411 712.427 134.615ZM689.099 123.49C686.229 120.62 677.974 119.182 673.667 120.62C673.667 122.057 673.667 124.208 672.953 125.646C675.464 126.719 677.615 129.234 679.771 131.745C681.203 131.385 684.797 130.307 686.589 129.948C687.307 128.516 688.745 125.286 689.099 123.49ZM672.235 120.62C669.365 119.182 664.339 119.542 662.182 121.339C661.469 122.771 661.11 125.646 661.11 127.078C662.542 127.078 664.698 128.156 665.412 128.875C667.568 128.156 670.438 126.719 671.516 125.646C671.875 124.208 672.594 122.057 672.235 120.62ZM648.906 125.646C652.495 122.057 656.802 120.26 661.11 121.339C660.391 122.411 660.031 124.568 660.031 126.719C656.083 126.359 651.057 127.438 648.906 128.875V125.646Z" fill="#00493D" stroke="white" stroke-width="7.18935" stroke-linejoin="round"/>
<path d="M705.969 140.359C702.74 135.693 694.844 130.307 689.459 127.797C689.459 128.156 688.745 129.594 688.386 130.667C690.537 133.901 694.844 141.078 696.641 145.026C698.432 144.307 703.458 142.151 705.969 140.359ZM678.693 148.255C679.412 143.229 679.771 136.052 679.771 133.542C681.563 133.182 685.151 132.104 686.589 131.745C688.386 134.615 692.688 142.151 694.485 145.74C690.177 146.818 683 148.615 678.693 148.255ZM666.13 131.026C667.927 130.307 670.438 128.875 672.235 127.438C673.667 128.516 676.542 131.026 677.615 132.464C677.615 135.693 676.542 145.021 676.182 148.255C673.313 148.255 668.646 147.536 666.13 146.099C666.49 140.719 666.849 134.615 666.13 131.026ZM648.188 135.333C648.547 134.615 648.906 132.104 648.906 131.026C651.776 129.234 658.953 127.438 664.339 130.307C664.698 133.896 664.339 142.87 663.979 145.026C659.313 141.432 651.776 136.411 648.188 135.333Z" fill="#00493D" stroke="white" stroke-width="7.18935" stroke-linejoin="round"/>
<path d="M630.245 128.875C629.526 128.875 629.167 126.719 627.729 126.719C627.37 126.719 626.292 127.078 625.938 126.719C625.938 127.438 626.297 128.156 626.651 128.516C627.01 129.589 628.807 128.875 630.245 128.875Z" fill="black"/>
<path d="M630.245 134.974C634.547 134.974 635.266 129.589 637.422 129.234M632.755 135.333C635.985 136.771 638.495 129.234 641.011 129.589M626.297 126C627.37 126 628.089 124.568 629.886 126.359C630.604 127.078 631.677 127.438 632.396 127.438M631.677 131.385C630.245 133.542 627.729 134.974 626.292 134.255M625.578 122.411C624.5 123.13 623.781 124.568 623.063 125.646M621.99 127.797V129.589" stroke="white" stroke-width="7.18935" stroke-linejoin="round"/>
<path d="M660.391 122.411C652.854 116.672 643.88 111.286 635.625 110.214C641.011 113.443 656.084 125.286 660.031 129.234" fill="black"/>
<path d="M660.391 122.411C652.854 116.672 643.88 111.286 635.625 110.214C641.011 113.443 656.084 125.286 660.031 129.234" stroke="white" stroke-width="7.18935" stroke-linejoin="round"/>
<path d="M664.698 117.031C655.724 110.927 645.318 104.109 635.266 103.391C642.802 107.339 653.927 116.672 660.031 124.208M676.182 106.979C681.203 95.8542 686.589 89.7552 693.766 82.9375C690.177 90.474 686.229 105.906 684.438 112.005" fill="black"/>
<path d="M664.698 117.031C655.724 110.927 645.318 104.109 635.266 103.391C642.802 107.339 653.927 116.672 660.031 124.208M676.182 106.979C681.203 95.8542 686.589 89.7552 693.766 82.9375C690.177 90.474 686.229 105.906 684.438 112.005" stroke="white" stroke-width="7.18935" stroke-linejoin="round"/>
<path d="M684.078 105.188C687.667 97.2917 693.047 90.474 702.38 86.1667C697.714 90.8281 690.537 104.828 688.745 112.365" fill="black"/>
<path d="M684.078 105.188C687.667 97.2917 693.047 90.474 702.38 86.1667C697.714 90.8281 690.537 104.828 688.745 112.365" stroke="white" stroke-width="7.18935" stroke-linejoin="round"/>
<path d="M687.307 112.365C691.615 106.266 700.229 94.7761 715.662 88.6771C706.688 97.6511 693.406 114.156 690.177 120.62M692.333 120.26C698.792 116.672 711.714 110.927 721.042 112.724C715.302 114.875 698.073 122.771 690.537 129.948" fill="black"/>
<path d="M687.307 112.365C691.615 106.266 700.229 94.7761 715.662 88.6771C706.688 97.6511 693.406 114.156 690.177 120.62M692.333 120.26C698.792 116.672 711.714 110.927 721.042 112.724C715.302 114.875 698.073 122.771 690.537 129.948" stroke="white" stroke-width="7.18935" stroke-linejoin="round"/>
<path d="M690.896 117.75C696.995 111.286 708.12 101.599 719.964 97.6511C711.354 105.906 693.047 124.568 690.537 127.438M673.667 113.802C669.365 100.521 662.901 87.9584 653.214 84.0104C658.594 91.9063 665.417 103.391 669.005 120.62M665.412 113.443C658.235 104.828 648.547 96.2136 637.422 94.4219C644.959 98.724 657.521 111.286 662.182 123.49" fill="black"/>
<path d="M690.896 117.75C696.995 111.286 708.12 101.599 719.964 97.6511C711.354 105.906 693.047 124.568 690.537 127.438M673.667 113.802C669.365 100.521 662.901 87.9584 653.214 84.0104C658.594 91.9063 665.417 103.391 669.005 120.62M665.412 113.443C658.235 104.828 648.547 96.2136 637.422 94.4219C644.959 98.724 657.521 111.286 662.182 123.49" stroke="white" stroke-width="7.18935" stroke-linejoin="round"/>
<path d="M669.365 113.083C660.391 96.9323 653.573 94.0625 649.625 90.8281C652.854 96.9323 660.75 113.083 665.417 119.901" fill="black"/>
<path d="M669.365 113.083C660.391 96.9323 653.573 94.0625 649.625 90.8281C652.854 96.9323 660.75 113.083 665.417 119.901" stroke="white" stroke-width="7.18935" stroke-linejoin="round"/>
<path d="M651.417 112.005C655.724 114.516 662.182 120.62 664.339 124.568" stroke="white" stroke-width="7.18935" stroke-linejoin="round"/>
<path d="M651.417 119.542C653.568 121.339 657.521 123.49 661.11 126.719L651.417 119.542ZM694.125 124.927C697.714 122.052 705.61 117.391 709.557 115.953L694.125 124.927ZM691.615 122.411C695.203 117.75 702.38 111.286 704.891 109.135L691.615 122.411ZM701.662 100.161C698.432 103.75 690.896 112.724 688.026 117.031L701.662 100.161ZM692.334 96.9323C689.818 100.161 684.797 109.495 683.36 112.724L692.334 96.9323ZM663.979 97.6511C666.13 103.391 670.078 113.083 671.516 117.031L663.979 97.6511ZM660.75 103.75C662.182 105.906 665.052 110.927 666.13 114.516L660.75 103.75Z" fill="black"/>
<path d="M651.417 119.542C653.568 121.339 657.521 123.49 661.11 126.719M694.125 124.927C697.714 122.052 705.61 117.391 709.557 115.953M691.615 122.411C695.203 117.75 702.38 111.286 704.891 109.135M701.662 100.161C698.432 103.75 690.896 112.724 688.026 117.031M692.334 96.9323C689.818 100.161 684.797 109.495 683.36 112.724M663.979 97.6511C666.13 103.391 670.078 113.083 671.516 117.031M660.75 103.75C662.182 105.906 665.052 110.927 666.13 114.516" stroke="white" stroke-width="7.18935" stroke-linejoin="round"/>
<path d="M672.953 101.958C672.953 98.724 675.104 95.1354 677.255 95.1354C679.771 95.1354 681.563 99.4427 681.563 101.958C681.563 104.828 679.412 107.339 677.255 107.339C675.104 107.339 672.953 105.188 672.953 101.958Z" fill="black" stroke="white" stroke-width="7.18935" stroke-linejoin="round"/>
<path d="M668.287 104.828C668.646 101.24 671.156 98.3698 673.313 98.724C675.464 99.0834 676.542 103.391 676.182 105.906C675.823 108.776 673.307 110.927 671.516 110.568C669.719 110.568 667.927 108.057 668.287 104.828ZM677.974 105.906C677.261 102.672 678.693 99.0834 680.849 98.724C683 98.3698 685.151 101.958 685.511 104.828C686.229 107.698 684.438 110.568 682.641 110.568C680.849 110.927 678.334 109.135 677.974 105.906Z" fill="black" stroke="white" stroke-width="7.18935" stroke-linejoin="round"/>
<path d="M672.594 108.776C672.594 105.188 674.745 101.958 676.896 101.958C679.412 101.958 681.203 105.906 681.203 108.776C681.203 111.646 679.052 114.161 676.901 114.161C674.745 114.161 672.594 112.005 672.594 108.776Z" fill="black" stroke="white" stroke-width="7.18935" stroke-linejoin="round"/>
<path d="M666.13 110.568C666.13 107.339 668.646 103.75 670.797 103.75C672.953 103.75 675.104 108.057 675.104 110.568C675.104 113.443 672.594 115.953 670.797 115.953C668.646 115.953 666.13 113.802 666.13 110.568ZM679.412 109.135C679.412 105.906 681.563 102.318 683.719 102.318C686.229 102.318 688.026 106.62 688.026 109.135C688.026 112.005 685.87 114.516 683.719 114.516C681.568 114.516 679.412 112.365 679.412 109.135Z" fill="black" stroke="white" stroke-width="7.18935" stroke-linejoin="round"/>
<path d="M677.974 112.005C677.974 108.417 680.49 105.188 682.641 105.188C684.797 105.188 686.948 109.135 686.948 112.005C686.948 114.875 684.797 117.391 682.641 117.391C680.49 117.391 677.974 115.234 677.974 112.005Z" fill="black" stroke="white" stroke-width="7.18935" stroke-linejoin="round"/>
<path d="M672.235 115.234C672.235 111.646 674.386 108.417 676.542 108.417C679.052 108.417 680.849 112.724 680.849 115.234C680.849 118.104 678.693 120.62 676.542 120.62C674.386 120.62 672.235 118.464 672.235 115.234ZM663.261 115.234C663.261 111.646 665.057 108.417 666.849 108.417C668.646 108.417 670.078 112.724 670.078 115.234C670.078 118.104 668.287 120.62 666.849 120.62C665.057 120.62 663.261 118.464 663.261 115.234ZM683.36 114.516C683.36 111.286 685.151 108.057 686.948 108.057C688.745 108.057 690.537 112.005 690.537 114.516C690.537 117.75 688.386 119.901 686.948 119.901C685.151 119.901 683.36 117.75 683.36 114.516Z" fill="black" stroke="white" stroke-width="7.18935" stroke-linejoin="round"/>
<path d="M685.511 120.62C686.229 117.031 688.386 114.161 689.818 114.516C691.255 114.875 691.615 119.182 690.896 121.698C690.537 124.927 688.385 126.719 686.948 126.359C685.51 126 684.797 123.49 685.511 120.62Z" fill="black" stroke="white" stroke-width="7.18935" stroke-linejoin="round"/>
<path d="M678.693 119.542C679.052 116.313 681.203 113.083 683 113.443C685.151 113.443 686.229 117.745 685.87 120.26C685.511 123.49 683.719 125.646 681.922 125.286C680.13 125.286 678.333 122.771 678.693 119.542ZM668.646 120.62C667.568 117.031 665.417 114.516 663.979 114.875C662.542 115.234 662.182 119.542 662.901 122.057C663.62 124.927 665.771 126.719 667.208 126.359C668.287 126.005 669.36 123.49 668.646 120.62Z" fill="black" stroke="white" stroke-width="7.18935" stroke-linejoin="round"/>
<path d="M666.13 119.901C666.13 116.672 667.927 113.443 669.719 113.443C671.875 113.443 673.313 117.391 673.313 119.901C673.313 123.13 671.516 125.286 669.719 125.286C668.287 125.286 666.13 123.13 666.13 119.901Z" fill="black" stroke="white" stroke-width="7.18935" stroke-linejoin="round"/>
<path d="M671.516 121.339C671.516 117.75 673.667 114.516 675.823 114.516C678.333 114.516 680.13 118.464 680.13 121.339C680.13 124.208 677.974 126.719 675.823 126.719C673.667 126.719 671.516 124.568 671.516 121.339ZM673.313 81.8594C672.594 84.7292 670.078 87.2396 671.875 91.1875C668.646 90.1146 665.771 89.7552 663.261 92.625C666.49 92.2656 669.36 93.3438 670.797 95.4948C667.927 95.1354 666.49 96.5729 665.771 98.3698C668.287 97.6511 670.797 96.9323 671.875 97.2917C670.797 98.3698 669.005 100.161 668.646 101.599C670.797 99.8021 673.313 100.161 674.745 99.0834C673.667 101.599 675.823 104.109 677.615 106.62C677.255 103.031 679.412 100.521 678.333 98.724C681.563 99.4427 681.922 102.313 686.589 102.313C684.797 101.24 683.719 97.6511 681.563 97.6511C682.641 97.2917 686.948 96.9323 687.667 97.6511C686.948 96.2136 684.438 94.7761 683 94.7761C684.438 93.3438 686.948 90.474 688.745 89.7552C686.229 90.1146 682.281 90.474 680.849 92.625C684.438 89.7552 683.719 84.3698 687.667 83.6511C685.511 83.2917 682.281 84.7292 679.771 87.2396C680.849 85.0886 680.849 82.2188 682.281 81.5C679.412 82.2188 676.182 85.8073 675.104 87.599C675.104 85.8073 674.026 82.9375 673.313 81.8594Z" fill="black" stroke="white" stroke-width="7.18935" stroke-linejoin="round"/>
<path d="M675.104 87.599C675.104 88.6771 675.104 90.8281 674.745 91.5469L675.104 87.599ZM679.771 87.2396C679.052 87.9584 677.615 90.474 677.615 92.625L679.771 87.2396Z" fill="black"/>
<path d="M675.104 87.599C675.104 88.6771 675.104 90.8281 674.745 91.5469M679.771 87.2396C679.052 87.9584 677.615 90.474 677.615 92.625" stroke="white" stroke-width="7.18935" stroke-linejoin="round"/>
<path d="M681.922 91.5469C680.844 92.2656 679.771 93.3438 679.412 94.7813" stroke="white" stroke-width="7.18935" stroke-linejoin="round"/>
<path d="M565.641 336.672C567.797 342.417 583.229 349.953 601.172 340.26C613.375 333.443 621.271 323.755 628.807 306.526C630.958 302.219 632.037 296.833 627.011 293.604C623.063 290.734 616.604 287.505 613.734 284.635C612.297 283.198 610.865 282.12 609.787 281.047C610.505 281.76 611.219 282.479 611.938 283.557C619.115 292.172 611.578 304.729 603.682 312.271C597.943 317.651 587.531 330.932 572.458 318.37C569.229 315.5 561.693 327.344 565.641 336.672ZM783.849 336.672C781.334 342.417 765.901 349.953 748.318 340.26C736.115 333.443 728.219 323.755 720.323 306.526C718.531 302.219 717.453 296.833 722.479 293.604C726.427 290.734 732.886 287.505 735.755 284.635C737.193 283.198 738.266 282.12 739.703 281.047C738.985 281.76 738.266 282.479 737.552 283.557C730.375 292.172 737.912 304.729 745.448 312.271C751.188 317.651 761.953 330.932 777.026 318.37C780.261 315.5 787.438 327.344 783.849 336.672Z" fill="#FCEA83" stroke="black" stroke-width="1.0769"/>
<path d="M674.745 367.537C703.458 367.537 747.604 354.62 771.287 309.396C775.235 301.859 771.287 297.912 766.625 295.401C761.599 293.25 755.495 288.224 752.266 284.995C758.011 290.734 756.932 294.682 752.985 301.146C734.682 331.651 709.557 347.083 674.745 347.083C639.932 347.083 614.813 331.651 596.505 301.146C592.557 294.682 591.484 290.734 596.865 284.995C593.995 288.224 587.537 293.25 582.511 295.401C577.844 297.912 573.896 301.859 577.844 309.396C601.531 354.62 646.037 367.537 674.745 367.537Z" fill="#FCEA83" stroke="black" stroke-width="1.0769"/>
<path d="M608.349 306.886C607.63 303.297 602.964 304.734 601.531 309.037C599.734 306.526 597.943 304.016 596.505 301.141C592.198 294.682 591.479 290.375 597.583 284.276C600.453 281.406 606.198 278.172 610.146 281.761C618.401 288.583 614.094 299.708 608.349 306.886ZM740.781 306.886C741.5 303.297 746.526 304.734 747.958 309.037C749.755 306.526 751.547 304.016 752.985 301.141C757.292 294.682 758.011 290.375 751.547 284.276C749.037 281.406 743.297 278.172 738.99 281.761C731.094 288.583 735.042 299.708 740.781 306.886ZM565.641 336.672C562.052 331.292 559.182 317.292 558.464 313.703C557.386 310.474 557.026 307.604 560.974 306.167C564.922 304.734 568.511 309.755 570.307 314.063C572.099 318.37 574.974 324.828 578.203 332.724C570.307 328.057 563.844 331.292 565.641 336.672ZM783.849 336.672C787.078 331.292 789.948 317.292 791.026 313.703C791.745 310.474 792.464 307.604 788.516 306.167C784.568 304.734 780.979 309.755 779.182 314.063C777.386 318.37 774.516 324.828 771.287 332.724C779.182 328.057 785.281 331.292 783.849 336.672Z" fill="#C8102E" stroke="black" stroke-width="1.0769"/>
<path d="M586.458 304.375L583.589 305.807C582.87 306.167 582.87 306.885 582.87 307.245H582.51L581.073 304.016H581.432C581.432 304.375 581.792 304.734 582.51 304.375L588.609 301.141C589.328 300.781 589.328 300.427 588.969 300.068L589.328 299.708L591.125 303.297H590.766C590.406 302.938 590.047 302.578 589.328 302.938L586.818 304.375L587.891 306.526L590.766 305.448C591.484 305.089 591.125 304.375 591.125 304.016H591.484L592.917 307.245C592.557 306.885 592.198 306.526 591.484 306.885L585.38 310.115C584.661 310.474 584.661 310.833 585.021 311.193L584.661 311.552L582.87 308.323L583.229 307.964C583.589 308.323 583.943 308.682 584.661 308.323L587.536 306.885L586.458 304.375ZM592.557 309.036C593.276 308.677 593.276 308.323 592.917 307.604H593.276L596.865 312.984L594.354 314.781V314.422C595.786 313.344 595.786 311.911 595.432 311.552C595.073 311.193 594.714 310.833 594.714 310.474C594.354 310.474 594.354 310.115 593.635 310.833C593.276 311.193 591.125 312.625 591.125 312.625C591.484 312.984 591.844 314.063 593.635 312.984H593.995L590.047 315.859V315.5C591.844 314.063 591.125 312.984 590.766 312.625L588.25 314.422C587.536 314.781 587.536 315.141 587.536 315.5C587.896 315.5 587.896 315.859 588.25 316.219C588.609 316.932 589.688 317.651 591.484 316.932L591.844 317.292L588.969 318.37L585.38 312.625H585.74C586.099 312.984 586.458 313.344 587.177 312.984L592.557 309.036ZM598.302 322.677L595.786 324.828C595.427 325.188 595.427 325.906 595.786 326.266H595.427L592.917 323.755L593.276 323.396C593.635 323.755 593.995 324.115 594.714 323.396L599.375 318.729C600.094 318.37 600.094 318.01 599.734 317.292L602.25 320.167C601.891 319.807 601.172 319.807 600.813 320.167L598.661 322.318L600.453 324.115L602.609 322.318C603.323 321.599 602.969 321.24 602.609 320.88L602.969 320.521L605.479 323.396H605.12C604.76 323.396 604.401 323.036 603.682 323.755L599.021 328.057C598.302 328.776 598.302 329.135 598.661 329.495V329.854L596.146 326.984C596.505 326.984 597.224 327.344 597.583 326.984L600.094 324.469L598.302 322.677ZM603.682 330.214L604.76 331.292L606.198 328.063C606.198 328.063 605.12 328.417 603.328 329.495L603.682 330.214L603.323 330.573L602.609 329.854C602.25 330.214 601.891 330.214 601.531 330.573C600.453 331.292 600.813 331.651 601.172 332.01V332.37L599.375 330.573H599.734L601.172 330.214L608.349 326.266L608.708 326.625C608.708 326.625 608.349 326.984 605.12 334.161C605.12 334.88 604.76 335.24 605.12 335.958L602.25 333.443L602.609 333.083C602.969 333.802 603.682 333.802 604.042 333.083C604.042 332.724 604.401 332.01 604.401 331.651L603.328 330.573L603.682 330.214ZM606.557 337.391L606.917 337.031C607.271 337.391 607.63 337.391 608.349 337.031L613.016 330.932L612.656 330.573C611.938 330.214 610.865 330.214 609.786 331.292V330.932L611.219 329.135L616.604 333.083L614.807 335.24H614.453C615.526 334.161 615.172 332.724 614.453 332.37V332.01L609.786 338.109C609.068 338.469 609.427 339.188 609.786 339.547H609.427L606.557 337.391Z" fill="#00493D"/>
<path d="M615.885 338.828L614.094 341.339C613.734 342.057 614.094 342.417 614.453 342.776L614.094 343.135L611.219 340.979V340.62C611.938 340.979 612.297 340.979 612.656 340.26L616.604 334.88C616.964 334.161 616.604 333.802 616.245 333.443L616.604 333.083L619.474 335.24V335.599C618.76 335.24 618.401 335.24 618.042 335.958L616.245 338.469L618.401 339.906L620.193 337.391C620.552 336.672 620.193 336.313 619.833 335.958L620.193 335.599L623.063 337.75V338.109C622.703 337.75 621.99 337.75 621.63 338.469L618.042 344.214C617.323 344.568 617.682 344.927 618.042 345.286V345.646L614.807 343.495H615.167C615.526 343.495 615.885 343.495 616.245 343.135L618.042 340.26L615.885 338.828ZM623.063 348.875L623.422 348.516C623.781 348.875 624.5 348.875 624.859 348.156L627.729 342.057C628.089 341.339 627.729 340.979 627.37 340.62L633.474 343.49L632.036 346.365L631.677 346.005C632.755 344.568 631.677 343.135 631.318 342.776C630.958 342.776 630.604 342.417 630.245 342.417C629.885 342.417 629.885 342.417 629.526 343.135C629.167 343.49 628.089 345.646 628.089 345.646C628.448 346.005 629.167 346.724 630.604 344.927H630.964L628.807 349.234L628.448 348.875C629.526 346.724 628.089 346.365 627.729 346.365L626.297 349.234C625.938 349.953 626.297 350.313 626.656 350.313V350.672L623.063 348.875ZM633.474 353.901C632.396 353.182 632.396 351.031 633.474 348.875C634.188 346.724 635.625 344.927 637.063 345.646C638.135 346.005 637.781 348.156 637.063 350.313C635.984 352.823 634.547 354.26 633.474 353.901H633.115C635.625 354.979 637.422 353.542 638.495 351.031C639.573 348.875 639.214 346.365 637.063 345.286C634.906 344.214 632.755 345.646 631.677 348.156C630.599 350.672 630.958 353.182 633.115 353.901H633.474ZM644.599 354.62L646.036 350.313C646.396 349.594 646.036 349.234 645.677 348.875L647.469 349.234V349.594C647.109 349.594 646.75 349.594 646.391 350.313L644.958 354.62C644.24 356.411 643.161 357.849 641.01 357.13C639.573 356.771 638.495 354.979 639.214 353.182L641.01 348.516C641.37 347.802 641.01 347.443 640.651 347.083V346.724L643.88 348.156V348.516C643.521 348.156 642.802 348.156 642.802 348.875L641.01 353.542C640.651 354.979 640.651 356.411 641.729 356.771C642.802 357.13 643.88 356.411 644.599 354.62Z" fill="#00493D"/>
<path d="M647.828 349.953C647.828 349.594 647.828 349.594 647.469 349.594L649.979 349.953L652.135 356.771L653.214 352.464C653.573 351.745 653.214 351.391 652.854 351.031L655.005 351.391L654.646 351.75C654.286 351.75 653.927 351.75 653.573 352.464L651.776 360.359H651.417L648.547 351.745L646.75 357.49C646.75 358.568 647.109 358.568 647.469 358.927V359.286L645.318 358.568V358.208C645.677 358.568 646.391 358.208 646.391 357.49L648.187 351.031L647.828 349.953Z" fill="#00493D"/>
<path d="M660.031 357.13C659.313 360.359 657.88 361.078 657.161 361.078H656.443C656.443 361.078 656.083 360.719 656.443 360.359L657.521 353.182C657.88 352.823 657.88 352.464 658.234 352.823H658.953C659.672 352.823 660.391 354.26 660.031 357.13L661.109 357.49C661.823 353.901 660.391 352.464 658.594 352.104C657.161 351.745 655.005 351.391 655.005 351.391V351.75C655.365 352.104 656.083 352.104 655.724 353.182L654.646 359.646C654.286 360.359 653.927 360.719 653.573 360.719H653.214L656.802 361.438C658.594 361.797 660.391 361.438 661.109 357.49L660.031 357.13ZM663.26 354.26C663.26 353.542 662.542 353.182 662.182 353.182V352.823L668.646 353.542L668.286 356.411C668.286 354.62 667.208 353.901 666.49 353.901C666.13 353.542 665.771 353.542 665.411 353.542C665.057 353.542 665.057 353.542 665.057 354.62C665.057 354.979 664.698 357.49 664.698 357.49C665.057 357.49 666.13 357.849 666.849 355.693L666.49 360.359H666.13C666.13 358.208 665.057 358.208 664.698 358.208L664.339 361.438C664.339 362.156 664.339 362.156 664.698 362.156L665.411 362.516C666.49 362.516 667.568 362.156 668.286 360H668.646L667.927 362.875L661.109 362.156C661.823 362.156 662.182 361.797 662.542 361.078L663.26 354.26ZM675.104 358.568C675.104 361.797 674.026 362.875 672.953 362.875C672.594 362.516 672.594 362.516 672.234 362.516L671.875 362.156L672.234 354.62C672.234 354.26 672.234 354.26 672.594 354.26H673.313C674.026 354.26 675.104 355.339 675.104 358.568H676.542C676.542 354.979 674.745 353.901 672.953 353.901C671.516 353.542 669.359 353.542 669.359 353.542V353.901C669.724 353.901 670.438 354.26 670.438 354.979L670.078 361.797C670.078 362.516 669.719 362.875 669.359 362.875V363.234H672.594C674.385 363.234 676.182 362.516 676.542 358.568H675.104ZM685.51 361.438C685.51 362.156 685.87 362.156 686.589 362.156V362.516L682.641 362.875C683 362.516 683.719 362.156 683.719 361.438L683 354.62C682.641 353.901 682.281 353.901 681.563 353.901V353.542L685.51 353.182C685.151 353.542 684.438 353.901 684.797 354.62L685.51 361.438ZM689.099 362.156V361.797C689.458 361.797 689.818 361.438 689.818 360.719L688.385 353.182H688.026C687.307 353.542 686.589 354.26 686.948 355.693H686.589L686.229 353.182L692.688 352.104L693.047 354.62H692.688C692.688 353.182 691.615 352.823 690.536 352.823H690.177L691.615 360.359C691.615 361.078 691.974 361.438 692.688 361.438V361.797L689.099 362.156ZM704.531 354.979L703.099 350.672C703.099 349.953 702.38 349.953 702.021 349.953V349.594L703.818 348.875V349.234C703.458 349.594 703.458 349.594 703.458 350.313L704.891 354.979C705.25 356.411 705.25 358.568 703.099 359.281C701.661 359.641 699.87 358.927 699.51 356.771L698.073 352.104C697.714 351.391 697.354 351.391 696.995 351.391L696.635 351.031L700.229 349.953V350.313C699.87 350.672 699.51 351.031 699.87 351.745L700.943 356.411C701.302 357.849 702.38 358.568 703.458 358.568C704.531 358.208 704.891 356.771 704.531 354.979ZM708.479 352.464C710.276 351.75 709.917 350.672 709.557 349.594C709.198 348.516 708.479 347.802 707.766 348.156C707.406 348.156 707.047 348.516 707.406 348.875L708.479 352.464L708.844 352.823L709.557 355.693C709.917 356.411 710.635 356.411 710.995 356.057V356.411L707.766 357.849L707.406 357.49C708.125 357.13 708.125 356.771 708.125 356.052L705.609 349.953C705.25 348.875 704.891 349.234 704.177 349.234V348.875L707.766 347.443C709.198 347.083 710.635 347.443 711.354 348.875C711.714 350.672 710.995 351.75 709.557 352.464C709.198 352.464 708.839 352.823 708.839 352.823L708.484 352.464H708.479ZM717.453 353.542C716.375 353.901 714.943 352.464 713.865 349.953C712.786 347.797 712.786 345.646 713.865 345.286C714.943 344.927 716.375 346.365 717.453 348.516C718.531 350.672 718.531 352.823 717.453 353.542C719.609 352.823 720.323 350.313 719.25 347.797C718.172 345.646 716.021 344.208 713.865 344.927C711.714 346.005 710.995 348.516 712.073 350.672C713.146 353.182 715.302 354.62 717.453 353.542ZM717.813 343.495H717.094L719.25 342.057L725.708 345.646L723.557 341.698C723.198 340.979 722.479 340.979 722.12 340.979V340.62L723.917 339.906C723.552 340.26 723.198 340.62 723.917 341.339L727.505 348.516L727.146 348.875L719.25 344.568L722.12 349.953C722.479 350.672 723.198 350.672 723.557 350.313V350.672L721.76 351.745V351.391C722.12 351.031 722.12 350.672 721.76 349.953L718.891 344.208L717.813 343.495ZM733.964 344.568V344.208C733.964 343.854 734.323 343.495 733.964 342.776L729.656 336.672H729.297C728.578 337.031 728.219 338.469 729.297 339.547L728.938 339.906L727.505 337.391L732.885 333.802L734.323 335.958C733.245 334.88 732.167 334.88 731.448 335.24L731.094 335.599L735.396 341.698C735.755 342.417 736.474 342.417 736.833 342.057V342.417L733.964 344.568ZM737.911 335.958L740.063 338.469C740.422 338.828 741.141 338.828 741.5 338.469V338.828L738.63 341.339V340.979C738.99 340.62 738.99 340.26 738.63 339.547L734.323 334.161C733.964 333.443 733.604 333.802 732.885 333.802L735.76 331.292V331.651C735.76 332.01 735.396 332.37 735.76 333.083L737.552 335.24L739.703 333.802L737.911 331.292C737.552 330.573 736.833 330.932 736.474 330.932L739.349 328.417V328.781C738.99 329.135 738.99 329.495 739.349 330.214L743.651 335.599C744.01 335.958 744.37 335.958 744.729 335.599L745.089 335.958L742.219 338.469L741.859 338.109C742.219 337.75 742.578 337.391 742.219 336.672L740.063 334.161L737.911 335.958ZM741.141 328.417C740.781 328.057 740.063 328.057 739.703 328.417V328.057L744.37 323.755L746.526 325.906H746.167C745.089 324.469 743.651 325.188 742.938 325.547C742.938 325.906 742.578 325.906 742.219 326.266C742.219 326.266 742.219 326.625 742.578 327.344L744.729 329.495C745.089 329.135 746.167 328.417 744.729 326.625H745.089L747.958 329.854V330.214C746.167 328.417 745.448 329.495 745.089 329.854L747.24 332.01C747.599 332.724 747.958 332.724 747.958 332.724L749.036 331.651C749.396 331.292 749.755 330.214 749.036 328.063H749.396L750.828 330.573L746.167 335.24L745.807 334.88C746.167 334.521 746.526 334.161 745.807 333.443L741.141 328.417ZM749.75 318.37C749.391 318.729 749.391 319.448 750.109 319.807C750.828 320.521 751.547 320.521 752.979 319.807C753.698 319.448 755.135 319.089 756.208 320.167C758.005 321.958 757.286 323.396 756.927 324.109C756.568 324.469 755.854 324.828 755.495 325.188C755.135 325.188 755.135 325.188 755.135 325.547V325.906L752.62 323.755H752.979C754.417 324.469 755.854 324.828 756.568 323.755C757.286 323.036 756.568 322.318 756.208 321.958C755.495 321.24 754.776 321.24 753.698 321.958C752.62 322.318 751.188 322.318 750.109 321.599C748.672 320.167 748.672 319.089 749.391 318.01C749.75 317.651 750.469 317.292 750.828 316.932C751.188 316.932 751.188 316.932 750.828 316.219L753.339 318.01H752.979C751.188 317.292 750.109 317.651 749.75 318.37ZM752.984 315.5C752.271 315.141 751.911 315.5 751.552 315.859H751.193L755.141 310.115L757.651 311.911L757.292 312.271C755.859 311.193 754.422 311.911 754.063 312.271C754.063 312.63 753.703 312.984 753.703 313.344C753.344 313.344 753.344 313.703 754.063 314.063C754.422 314.422 756.573 315.859 756.573 315.859C756.932 315.5 757.651 314.781 756.214 313.344V312.984L759.807 315.859C757.651 314.781 757.292 315.859 756.932 316.219L759.448 318.01C760.167 318.37 760.521 318.37 760.521 318.37C760.521 318.01 760.88 317.651 761.24 317.292C761.599 316.573 761.958 315.5 760.521 314.063L760.88 313.703L762.677 315.859L759.089 321.24H758.729C759.089 320.521 759.089 320.167 758.37 319.448L752.984 315.5ZM762.677 309.036L761.599 310.833C760.167 309.396 759.448 308.323 759.448 308.323L762.677 309.036H763.396C763.755 309.036 764.469 309.396 764.828 309.396C765.906 309.755 765.547 310.115 765.188 310.833H765.547L767.344 307.604C766.625 308.323 766.266 307.964 765.547 307.964C758.01 306.526 757.292 306.167 757.292 306.167V306.526L763.036 312.984C763.396 313.344 763.396 314.063 763.396 314.422H763.755L764.828 312.625L764.469 312.271C764.109 312.984 763.755 313.344 763.036 312.271L762.318 311.552L763.396 309.036H762.677ZM760.521 301.141C760.161 301.5 760.161 302.219 761.24 302.578C762.313 302.938 762.672 302.578 763.75 301.859C764.828 301.141 765.901 300.427 767.339 301.141C769.495 302.219 769.135 304.016 768.776 304.729C768.417 305.094 768.057 305.807 767.698 306.167V306.885L764.828 305.448C766.62 305.807 768.057 305.448 768.417 304.375C768.776 303.656 768.057 302.938 767.698 302.578C766.979 302.219 766.26 302.578 765.188 303.297C764.109 304.375 763.031 304.729 761.599 304.016C760.161 303.297 759.443 302.219 760.161 301.141C760.161 300.427 760.88 300.068 761.24 299.708C761.24 299.349 761.24 299.349 760.88 298.99V298.63L763.75 300.068H763.391C761.599 299.708 760.521 300.427 760.521 301.141Z" fill="#00493D"/>
<path d="M647.11 174.094C642.443 175.172 639.214 175.531 634.906 171.583C632.037 168.708 632.755 163.688 635.625 161.891C638.854 159.74 641.724 158.302 645.677 159.38C649.62 160.458 660.031 170.146 657.521 170.505C655.005 170.505 651.057 173.016 647.11 174.094ZM658.235 156.865C659.672 155.792 661.469 155.073 666.13 154.714C670.438 154.354 673.667 154.354 674.745 157.583C676.182 161.531 677.255 166.198 680.13 168.354C678.333 169.427 669.365 170.505 666.13 168.708C661.828 166.557 660.75 158.302 658.235 156.865ZM689.099 157.229C690.537 156.151 692.333 156.151 696.995 156.51C701.662 156.87 703.458 157.229 704.531 160.458C705.61 164.047 704.531 168.714 706.688 171.943C704.531 172.662 697.354 172.662 694.844 170.146C690.896 167.276 691.255 159.021 689.099 157.229Z" fill="white" stroke="black" stroke-width="1.0769"/>
<path d="M710.636 159.38C707.406 158.661 705.25 158.302 703.818 159.38C705.61 161.531 704.177 170.146 707.766 173.016C710.276 174.813 716.735 175.172 718.172 171.224C719.964 167.635 719.964 162.25 710.636 159.38ZM673.667 155.792C674.745 154.714 676.901 154.354 681.203 154.354C685.87 154.354 688.745 155.073 690.177 157.943C691.615 161.531 691.255 166.198 693.766 169.068C692.688 170.505 683 170.505 680.13 168.354C676.182 165.839 675.823 157.583 673.667 155.792ZM643.162 159.021C643.162 157.229 645.677 156.87 652.136 156.51C658.594 155.792 658.953 156.151 661.11 160.818C662.182 163.328 663.62 167.635 666.49 169.068C658.594 170.865 656.083 171.943 651.776 169.427C648.547 167.635 644.958 163.328 644.24 161.531C643.88 160.458 643.88 159.38 643.162 159.021Z" fill="#073163" stroke="black" stroke-width="1.0769"/>
<path d="M660.391 122.411C652.854 116.672 643.88 111.286 635.625 110.214C641.011 113.443 656.084 125.286 660.031 129.234" fill="#F9D050"/>
<path d="M660.391 122.411C652.854 116.672 643.88 111.286 635.625 110.214C641.011 113.443 656.084 125.286 660.031 129.234" stroke="black" stroke-width="0.484532"/>
<path d="M664.698 117.031C655.724 110.927 645.318 104.109 635.266 103.391C642.802 107.339 653.927 116.672 660.031 124.208M676.182 106.979C681.203 95.8542 686.589 89.7552 693.766 82.9375C690.177 90.474 686.229 105.906 684.438 112.005" fill="#F9D050"/>
<path d="M664.698 117.031C655.724 110.927 645.318 104.109 635.266 103.391C642.802 107.339 653.927 116.672 660.031 124.208M676.182 106.979C681.203 95.8542 686.589 89.7552 693.766 82.9375C690.177 90.474 686.229 105.906 684.438 112.005" stroke="black" stroke-width="0.484532"/>
<path d="M684.078 105.188C687.667 97.2917 693.047 90.474 702.38 86.1667C697.714 90.8281 690.537 104.828 688.745 112.365" fill="#F9D050"/>
<path d="M684.078 105.188C687.667 97.2917 693.047 90.474 702.38 86.1667C697.714 90.8281 690.537 104.828 688.745 112.365" stroke="black" stroke-width="0.484532"/>
<path d="M687.307 112.365C691.615 106.266 700.229 94.7761 715.662 88.6771C706.688 97.6511 693.406 114.156 690.177 120.62M692.333 120.26C698.792 116.672 711.714 110.927 721.042 112.724C715.302 114.875 698.073 122.771 690.537 129.948" fill="#F9D050"/>
<path d="M687.307 112.365C691.615 106.266 700.229 94.7761 715.662 88.6771C706.688 97.6511 693.406 114.156 690.177 120.62M692.333 120.26C698.792 116.672 711.714 110.927 721.042 112.724C715.302 114.875 698.073 122.771 690.537 129.948" stroke="black" stroke-width="0.484532"/>
<path d="M690.896 117.75C696.995 111.286 708.12 101.599 719.964 97.6511C711.354 105.906 693.047 124.568 690.537 127.438M673.667 113.802C669.365 100.521 662.901 87.9584 653.214 84.0104C658.594 91.9063 665.417 103.391 669.005 120.62M665.412 113.443C658.235 104.828 648.547 96.2136 637.422 94.4219C644.959 98.724 657.521 111.286 662.182 123.49" fill="#F9D050"/>
<path d="M690.896 117.75C696.995 111.286 708.12 101.599 719.964 97.6511C711.354 105.906 693.047 124.568 690.537 127.438M673.667 113.802C669.365 100.521 662.901 87.9584 653.214 84.0104C658.594 91.9063 665.417 103.391 669.005 120.62M665.412 113.443C658.235 104.828 648.547 96.2136 637.422 94.4219C644.959 98.724 657.521 111.286 662.182 123.49" stroke="black" stroke-width="0.484532"/>
<path d="M669.365 113.083C660.391 96.9323 653.573 94.0625 649.625 90.8281C652.854 96.9323 660.75 113.083 665.417 119.901" fill="#F9D050"/>
<path d="M669.365 113.083C660.391 96.9323 653.573 94.0625 649.625 90.8281C652.854 96.9323 660.75 113.083 665.417 119.901" stroke="black" stroke-width="0.484532"/>
<path d="M651.417 112.005C655.724 114.516 662.182 120.62 664.339 124.568" stroke="black" stroke-width="0.484532"/>
<path d="M651.417 119.542C653.568 121.339 657.521 123.49 661.11 126.719L651.417 119.542ZM694.125 124.927C697.714 122.052 705.61 117.391 709.557 115.953L694.125 124.927ZM691.615 122.411C695.203 117.75 702.38 111.286 704.891 109.135L691.615 122.411ZM701.662 100.161C698.432 103.75 690.896 112.724 688.026 117.031L701.662 100.161ZM692.334 96.9323C689.818 100.161 684.797 109.495 683.36 112.724L692.334 96.9323ZM663.979 97.6511C666.13 103.391 670.078 113.083 671.516 117.031L663.979 97.6511ZM660.75 103.75C662.182 105.906 665.052 110.927 666.13 114.516L660.75 103.75Z" fill="#F9D050"/>
<path d="M651.417 119.542C653.568 121.339 657.521 123.49 661.11 126.719M694.125 124.927C697.714 122.052 705.61 117.391 709.557 115.953M691.615 122.411C695.203 117.75 702.38 111.286 704.891 109.135M701.662 100.161C698.432 103.75 690.896 112.724 688.026 117.031M692.334 96.9323C689.818 100.161 684.797 109.495 683.36 112.724M663.979 97.6511C666.13 103.391 670.078 113.083 671.516 117.031M660.75 103.75C662.182 105.906 665.052 110.927 666.13 114.516" stroke="black" stroke-width="0.484532"/>
<path d="M672.953 101.958C672.953 98.724 675.104 95.1354 677.255 95.1354C679.771 95.1354 681.563 99.4427 681.563 101.958C681.563 104.828 679.412 107.339 677.255 107.339C675.104 107.339 672.953 105.188 672.953 101.958Z" fill="#F9D050" stroke="black" stroke-width="0.484532"/>
<path d="M668.287 104.828C668.646 101.24 671.156 98.3698 673.313 98.724C675.464 99.0834 676.542 103.391 676.182 105.906C675.823 108.776 673.307 110.927 671.516 110.568C669.719 110.568 667.927 108.057 668.287 104.828ZM677.974 105.906C677.261 102.672 678.693 99.0834 680.849 98.724C683 98.3698 685.151 101.958 685.511 104.828C686.229 107.698 684.438 110.568 682.641 110.568C680.849 110.927 678.334 109.135 677.974 105.906Z" fill="#F9D050" stroke="black" stroke-width="0.484532"/>
<path d="M672.594 108.776C672.594 105.188 674.745 101.958 676.896 101.958C679.412 101.958 681.203 105.906 681.203 108.776C681.203 111.646 679.052 114.161 676.901 114.161C674.745 114.161 672.594 112.005 672.594 108.776Z" fill="#F9D050" stroke="black" stroke-width="0.484532"/>
<path d="M666.13 110.568C666.13 107.339 668.646 103.75 670.797 103.75C672.953 103.75 675.104 108.057 675.104 110.568C675.104 113.443 672.594 115.953 670.797 115.953C668.646 115.953 666.13 113.802 666.13 110.568ZM679.412 109.135C679.412 105.906 681.563 102.318 683.719 102.318C686.229 102.318 688.026 106.62 688.026 109.135C688.026 112.005 685.87 114.516 683.719 114.516C681.568 114.516 679.412 112.365 679.412 109.135Z" fill="#F9D050" stroke="black" stroke-width="0.484532"/>
<path d="M677.974 112.005C677.974 108.417 680.49 105.188 682.641 105.188C684.797 105.188 686.948 109.135 686.948 112.005C686.948 114.875 684.797 117.391 682.641 117.391C680.49 117.391 677.974 115.234 677.974 112.005Z" fill="#F9D050" stroke="black" stroke-width="0.484532"/>
<path d="M672.235 115.234C672.235 111.646 674.386 108.417 676.542 108.417C679.052 108.417 680.849 112.724 680.849 115.234C680.849 118.104 678.693 120.62 676.542 120.62C674.386 120.62 672.235 118.464 672.235 115.234ZM663.261 115.234C663.261 111.646 665.057 108.417 666.849 108.417C668.646 108.417 670.078 112.724 670.078 115.234C670.078 118.104 668.287 120.62 666.849 120.62C665.057 120.62 663.261 118.464 663.261 115.234ZM683.36 114.516C683.36 111.286 685.151 108.057 686.948 108.057C688.745 108.057 690.537 112.005 690.537 114.516C690.537 117.75 688.386 119.901 686.948 119.901C685.151 119.901 683.36 117.75 683.36 114.516Z" fill="#F9D050" stroke="black" stroke-width="0.484532"/>
<path d="M685.511 120.62C686.229 117.031 688.386 114.161 689.818 114.516C691.255 114.875 691.615 119.182 690.896 121.698C690.537 124.927 688.385 126.719 686.948 126.359C685.51 126 684.797 123.49 685.511 120.62Z" fill="#F9D050" stroke="black" stroke-width="0.484532"/>
<path d="M678.693 119.542C679.052 116.313 681.203 113.083 683 113.443C685.151 113.443 686.229 117.745 685.87 120.26C685.511 123.49 683.719 125.646 681.922 125.286C680.13 125.286 678.333 122.771 678.693 119.542ZM668.646 120.62C667.568 117.031 665.417 114.516 663.979 114.875C662.542 115.234 662.182 119.542 662.901 122.057C663.62 124.927 665.771 126.719 667.208 126.359C668.287 126.005 669.36 123.49 668.646 120.62Z" fill="#F9D050" stroke="black" stroke-width="0.484532"/>
<path d="M666.13 119.901C666.13 116.672 667.927 113.443 669.719 113.443C671.875 113.443 673.313 117.391 673.313 119.901C673.313 123.13 671.516 125.286 669.719 125.286C668.287 125.286 666.13 123.13 666.13 119.901Z" fill="#F9D050" stroke="black" stroke-width="0.484532"/>
<path d="M671.516 121.339C671.516 117.75 673.667 114.516 675.823 114.516C678.333 114.516 680.13 118.464 680.13 121.339C680.13 124.208 677.974 126.719 675.823 126.719C673.667 126.719 671.516 124.568 671.516 121.339ZM673.313 81.8594C672.594 84.7292 670.078 87.2396 671.875 91.1875C668.646 90.1146 665.771 89.7552 663.261 92.625C666.49 92.2656 669.36 93.3438 670.797 95.4948C667.927 95.1354 666.49 96.5729 665.771 98.3698C668.287 97.6511 670.797 96.9323 671.875 97.2917C670.797 98.3698 669.005 100.161 668.646 101.599C670.797 99.8021 673.313 100.161 674.745 99.0834C673.667 101.599 675.823 104.109 677.615 106.62C677.255 103.031 679.412 100.521 678.333 98.724C681.563 99.4427 681.922 102.313 686.589 102.313C684.797 101.24 683.719 97.6511 681.563 97.6511C682.641 97.2917 686.948 96.9323 687.667 97.6511C686.948 96.2136 684.438 94.7761 683 94.7761C684.438 93.3438 686.948 90.474 688.745 89.7552C686.229 90.1146 682.281 90.474 680.849 92.625C684.438 89.7552 683.719 84.3698 687.667 83.6511C685.511 83.2917 682.281 84.7292 679.771 87.2396C680.849 85.0886 680.849 82.2188 682.281 81.5C679.412 82.2188 676.182 85.8073 675.104 87.599C675.104 85.8073 674.026 82.9375 673.313 81.8594Z" fill="#F9D050" stroke="black" stroke-width="0.484532"/>
<path d="M675.104 87.599C675.104 88.6771 675.104 90.8281 674.745 91.5469L675.104 87.599ZM679.771 87.2396C679.052 87.9584 677.615 90.474 677.615 92.625L679.771 87.2396Z" fill="#F9D050"/>
<path d="M675.104 87.599C675.104 88.6771 675.104 90.8281 674.745 91.5469M679.771 87.2396C679.052 87.9584 677.615 90.474 677.615 92.625" stroke="black" stroke-width="0.484532"/>
<path d="M681.922 91.5469C680.844 92.2656 679.771 93.3438 679.412 94.7813" stroke="black" stroke-width="0.484532"/>
<path d="M643.88 127.078C641.37 127.078 639.214 126 637.781 124.208C635.266 120.979 628.448 119.542 625.578 122.411C624.5 123.13 623.063 123.13 621.99 123.49C620.193 123.49 618.042 125.286 618.761 128.875C620.193 127.797 620.552 128.875 621.63 128.875C622.349 128.516 621.99 129.234 621.99 129.948C621.99 131.745 625.938 135.333 629.526 134.974C633.474 134.974 635.266 136.411 635.985 137.13C637.063 138.203 636.344 137.844 637.063 139.641C638.136 140.719 638.495 141.078 636.703 142.51C634.193 144.667 632.396 149.688 636.703 153.635C641.37 157.229 653.214 162.609 666.49 152.203C679.412 142.151 699.511 147.896 700.943 151.484C702.74 155.073 703.459 157.229 703.818 159.021C704.177 160.458 705.969 161.891 708.479 161.531C710.995 161.531 713.865 162.609 715.302 163.688C717.094 164.766 719.604 164.406 718.891 161.172C717.453 151.125 711.354 149.688 710.636 145.026C714.224 145.385 716.735 145.385 718.172 143.948C719.25 142.51 720.682 140 722.12 139.281C723.198 138.563 723.198 137.844 721.761 138.203C719.964 138.563 718.891 139.281 715.662 138.922C699.151 137.13 652.854 124.568 643.88 127.078Z" fill="#059334" stroke="black" stroke-width="1.0769"/>
<path d="M717.094 139.281C715.302 140.359 713.505 142.151 710.276 146.458C706.688 151.125 695.922 155.792 682.641 155.792C669.719 155.792 661.823 153.635 656.084 148.974C652.854 146.458 650.339 145.026 648.188 143.948C644.24 142.151 643.521 138.203 644.599 134.974C643.521 136.771 642.802 138.563 640.651 138.203C639.214 138.203 636.344 138.203 637.063 139.641C636.703 138.922 636.703 137.844 636.344 137.49L635.625 136.771C636.703 137.49 639.214 135.333 641.011 135.333C642.443 135.693 644.24 133.896 643.88 131.745C643.521 129.948 643.162 128.516 642.802 127.078C645.677 125.646 683.36 132.464 690.896 133.182C698.433 133.542 719.964 136.771 717.094 139.281Z" fill="black" stroke="black" stroke-width="1.0769"/>
<path d="M648.906 125.646C652.495 122.057 656.802 120.26 661.11 121.339H662.182C664.339 119.542 669.36 119.182 672.235 120.62H673.667C677.974 119.182 686.229 120.62 689.099 123.49L690.177 124.208C699.87 123.49 705.61 127.797 712.432 134.615C713.146 135.333 714.224 136.771 716.021 137.13C718.172 137.49 718.531 138.563 716.735 139.641C714.584 140.719 712.787 142.51 709.198 146.458C705.969 150.766 695.563 155.073 682.641 155.073C670.078 155.073 662.542 152.922 656.802 148.615C653.573 146.099 651.057 144.667 649.266 143.589C647.11 142.87 644.24 140 645.318 137.13C646.037 134.255 644.24 130.667 642.802 127.078C643.88 126.359 646.75 125.286 648.188 126L648.906 125.641V125.646Z" fill="#059334" stroke="black" stroke-width="1.0769"/>
<path d="M712.427 134.615C705.61 127.797 699.87 123.49 690.177 124.208C690.177 124.568 690.177 125.646 689.818 126.359C695.563 128.516 703.818 134.974 707.406 139.641C708.839 138.203 711.354 136.411 712.427 134.615ZM689.099 123.49C686.229 120.62 677.974 119.182 673.667 120.62C673.667 122.057 673.667 124.208 672.953 125.646C675.464 126.719 677.615 129.234 679.771 131.745C681.203 131.385 684.797 130.307 686.589 129.948C687.307 128.516 688.745 125.286 689.099 123.49ZM672.235 120.62C669.365 119.182 664.339 119.542 662.182 121.339C661.469 122.771 661.11 125.646 661.11 127.078C662.542 127.078 664.698 128.156 665.412 128.875C667.568 128.156 670.438 126.719 671.516 125.646C671.875 124.208 672.594 122.057 672.235 120.62ZM648.906 125.646C652.495 122.057 656.802 120.26 661.11 121.339C660.391 122.411 660.031 124.568 660.031 126.719C656.083 126.359 651.057 127.438 648.906 128.875V125.646Z" fill="#00493D" stroke="black" stroke-width="1.0769"/>
<path d="M705.969 140.359C702.74 135.693 694.844 130.307 689.459 127.797C689.459 128.156 688.745 129.594 688.386 130.667C690.537 133.901 694.844 141.078 696.641 145.026C698.432 144.307 703.458 142.151 705.969 140.359ZM678.693 148.255C679.412 143.229 679.771 136.052 679.771 133.542C681.563 133.182 685.151 132.104 686.589 131.745C688.386 134.615 692.688 142.151 694.485 145.74C690.177 146.818 683 148.615 678.693 148.255ZM666.13 131.026C667.927 130.307 670.438 128.875 672.235 127.438C673.667 128.516 676.542 131.026 677.615 132.464C677.615 135.693 676.542 145.021 676.182 148.255C673.313 148.255 668.646 147.536 666.13 146.099C666.49 140.719 666.849 134.615 666.13 131.026ZM648.188 135.333C648.547 134.615 648.906 132.104 648.906 131.026C651.776 129.234 658.953 127.438 664.339 130.307C664.698 133.896 664.339 142.87 663.979 145.026C659.313 141.432 651.776 136.411 648.188 135.333Z" fill="#00493D" stroke="black" stroke-width="1.0769"/>
<path d="M630.245 128.875C629.526 128.875 629.167 126.719 627.729 126.719C627.37 126.719 626.292 127.078 625.938 126.719C625.938 127.438 626.297 128.156 626.651 128.516C627.01 129.589 628.807 128.875 630.245 128.875Z" fill="black"/>
<path d="M630.245 134.974C634.547 134.974 635.266 129.589 637.422 129.234M632.755 135.333C635.985 136.771 638.495 129.234 641.011 129.589M626.297 126C627.37 126 628.089 124.568 629.886 126.359C630.604 127.078 631.677 127.438 632.396 127.438M631.677 131.385C630.245 133.542 627.729 134.974 626.292 134.255M625.578 122.411C624.5 123.13 623.781 124.568 623.063 125.646M621.99 127.797V129.589" stroke="black" stroke-width="1.0769"/>
<path d="M741.859 174.453V244.438C741.859 305.094 713.146 325.906 674.745 342.417C636.344 325.906 607.276 305.094 607.276 244.438V174.453H741.859Z" fill="white"/>
<path d="M674.745 233.672C677.974 233.672 683 230.802 687.307 226.495C691.974 221.469 699.87 219.672 708.125 226.495C716.375 233.313 721.401 230.443 725.708 226.495C730.016 222.547 733.604 221.109 741.859 221.109V174.453H607.276V221.109C615.531 221.109 619.12 222.547 623.427 226.495C627.729 230.443 632.755 233.313 641.01 226.495C649.625 219.672 657.161 221.469 662.188 226.495C666.135 230.802 671.156 233.672 674.745 233.672Z" fill="#C8102E"/>
<path d="M674.745 269.563C679.052 269.563 687.667 264.896 689.818 263.818C697.714 259.151 703.458 263.458 708.12 265.615C713.146 267.766 722.479 270.276 728.219 265.615C733.964 260.948 737.193 261.307 741.141 261.307C741.859 255.922 741.859 250.536 741.859 244.438V240.13C736.833 239.052 734.323 240.49 728.938 245.156C723.557 249.823 717.453 248.745 709.557 245.875C702.021 242.641 694.484 236.901 686.948 245.875C684.797 248.385 679.771 251.974 674.745 251.974C669.365 251.974 664.698 248.385 662.542 245.875C654.646 236.901 647.469 242.641 639.932 245.875C632.036 248.745 625.578 249.823 620.193 245.156C615.172 240.49 612.656 239.052 607.276 240.13V244.438C607.276 250.536 607.635 255.922 608.349 261.307C612.297 261.307 615.167 260.948 620.911 265.615C626.656 270.276 636.344 267.766 641.01 265.615C646.036 263.458 651.776 259.151 659.672 263.818C661.828 264.896 670.078 269.563 674.745 269.563ZM674.745 284.995C680.13 284.995 686.589 282.839 692.333 279.609C699.51 275.661 704.536 277.453 711.714 281.047C719.25 284.635 725.349 283.557 729.656 281.047C731.807 279.609 733.604 276.74 738.271 277.813C736.115 286.786 732.885 294.682 728.938 301.141C721.76 302.938 717.813 302.938 710.276 299.708C702.74 296.12 693.406 293.964 688.385 297.193C683.719 300.068 678.693 301.5 674.745 301.5C670.797 301.5 665.771 300.068 661.109 297.193C656.083 293.964 646.75 296.12 639.214 299.708C631.677 302.938 627.729 302.938 620.552 301.141C616.604 294.682 613.375 286.786 611.224 277.818C615.885 276.74 617.682 279.609 619.833 281.047C623.781 283.557 630.245 284.635 637.422 281.047C644.958 277.453 649.984 275.661 657.161 279.609C662.901 282.839 669.359 284.995 674.745 284.995ZM674.745 342.417C689.104 336.313 702.38 329.495 713.146 320.167C710.276 319.089 708.484 319.807 705.969 318.01C703.458 316.219 695.922 315.5 689.458 319.089C682.641 322.318 679.771 323.036 674.745 323.036C669.719 323.036 666.849 322.318 660.031 319.089C653.573 315.5 646.036 316.219 643.521 318.01C641.01 319.807 639.214 319.089 636.344 320.167C647.109 329.495 660.031 336.313 674.745 342.417Z" fill="#0B50A0"/>
<path d="M665.412 192.042C665.771 192.755 665.052 194.552 665.412 195.271C666.13 196.703 666.13 197.422 667.209 198.141H669.719C677.615 198.141 686.948 194.911 694.844 194.911C702.38 194.911 707.047 197.422 711.354 197.422C713.865 197.422 716.016 195.63 716.016 193.833C716.016 192.042 713.146 190.964 707.047 190.964C698.432 190.964 693.766 193.115 686.589 193.115C675.823 193.115 674.026 189.167 674.026 187.375C674.026 185.578 675.823 183.068 681.563 183.068C683.36 183.068 684.797 182.708 685.511 181.99C685.87 181.271 686.948 179.839 689.099 178.76C691.615 177.323 696.641 178.76 699.151 176.964C699.151 178.401 696.995 180.552 695.203 181.271C698.792 180.198 702.74 180.198 703.459 183.068C701.662 181.99 698.792 182.708 697.714 183.068C696.276 183.427 695.563 183.786 694.125 184.146C695.563 183.786 696.276 186.656 698.432 186.656C696.276 188.453 692.688 188.453 689.099 187.016C688.026 186.656 685.156 185.578 683.36 185.578C679.771 185.578 677.615 186.297 677.615 187.734C677.615 189.526 679.771 190.604 686.229 190.604C692.688 190.604 696.276 188.807 705.969 188.807C705.25 187.734 706.328 186.656 704.891 185.578C708.479 185.578 712.427 186.656 713.865 189.167C713.505 186.656 715.662 184.505 714.943 182.349C717.094 182.708 718.891 184.859 719.25 186.656C719.25 185.578 720.683 185.578 720.683 184.505C722.839 185.578 723.912 188.094 723.552 190.245C724.63 188.453 725.709 189.167 726.427 187.016C727.146 188.453 726.787 192.755 724.271 194.193C726.427 192.755 729.656 192.755 731.807 195.271C729.656 194.912 728.578 195.99 727.505 196.344C723.198 198.859 716.016 200.292 710.636 199.938C704.891 199.578 704.172 198.5 700.584 198.5C702.74 198.859 707.047 203.167 710.995 203.167C713.505 203.167 715.302 203.167 716.375 202.807C717.453 202.448 719.25 202.807 720.683 203.526C721.761 204.599 723.912 205.677 725.349 205.318C724.99 206.755 724.271 207.474 723.198 207.828C724.99 208.906 723.912 209.625 725.709 211.063C724.99 211.063 724.271 211.781 723.198 211.422C724.271 212.495 724.271 213.932 725.349 214.651C724.99 214.651 723.912 215.01 723.198 214.651C724.271 216.083 723.198 217.88 724.271 218.599C725.349 220.031 723.198 221.828 721.401 220.391C721.761 221.469 720.683 222.547 719.61 222.188C718.531 221.828 717.813 220.75 718.172 220.391C718.172 220.031 718.172 220.031 718.531 219.672C717.813 220.75 716.375 220.75 715.662 220.391C715.302 220.031 714.943 219.672 714.943 219.318C712.427 220.031 711.354 217.88 711.714 216.802C712.073 215.729 714.224 215.37 714.943 215.729C715.662 216.083 716.375 216.443 717.094 215.729C717.813 215.37 718.172 214.651 718.172 213.932C718.172 212.854 717.094 209.625 712.427 209.984C707.047 210.344 698.432 208.906 694.125 207.474C693.766 207.115 693.406 207.115 693.047 206.755C693.047 208.188 691.615 208.906 691.615 210.344C691.615 212.135 692.334 213.573 694.485 214.292C693.406 216.083 691.615 215.729 690.896 214.651C690.896 215.729 689.459 216.443 689.459 217.88C689.099 217.162 688.74 216.802 688.386 216.083C687.308 218.599 684.438 220.031 683 219.318C681.203 220.75 679.052 220.391 678.334 218.958C677.255 219.677 675.823 219.677 675.104 218.958C675.104 220.031 674.386 219.677 674.026 221.109C674.026 221.828 672.594 222.188 671.875 221.828C671.156 221.469 670.797 220.031 671.516 219.318C670.438 220.031 669.36 220.031 668.646 219.318C668.646 218.599 668.646 217.521 669.36 217.162H670.078C669.36 216.802 668.287 217.162 667.568 216.802C666.849 216.083 666.849 215.37 667.209 214.651C667.568 214.292 668.646 213.573 669.36 214.292L669.719 214.651C669.719 213.932 670.078 213.214 670.438 213.214C671.156 212.854 672.235 212.854 673.307 213.932C674.026 215.01 674.745 215.01 676.901 214.651C678.693 214.651 681.563 212.854 683.719 211.063C677.615 209.984 681.203 206.036 683 204.599C681.563 204.24 679.412 204.24 677.974 204.958C670.438 208.906 662.542 213.573 657.521 212.135C657.521 212.854 657.88 213.573 658.235 214.292C657.162 214.292 655.005 214.292 654.287 213.214C653.927 213.932 653.214 215.729 653.927 217.162C653.214 216.443 651.057 215.729 649.979 215.37C650.698 216.083 649.979 217.521 650.339 218.599C649.266 217.521 647.469 216.802 646.75 217.521C646.037 218.24 644.599 218.599 643.521 218.24C642.802 219.318 641.729 220.031 640.651 220.391C640.651 219.672 640.651 218.599 640.292 218.24C639.932 219.318 638.854 220.75 637.422 221.469C637.422 220.75 637.422 219.672 637.063 218.958C637.063 220.391 634.193 221.109 633.834 222.188C634.193 221.109 634.193 220.031 634.193 219.318C633.474 220.391 632.396 221.469 630.599 221.828C630.959 221.109 631.318 220.391 630.959 219.672C630.599 221.109 628.448 221.828 626.651 221.469C626.651 222.188 625.219 223.26 623.422 222.188C622.349 221.828 621.63 220.75 622.349 220.031C620.912 220.031 619.474 218.599 620.193 217.521C620.193 217.161 620.552 216.802 620.552 216.443C619.474 215.729 619.115 214.292 620.193 213.214C620.552 212.854 621.63 212.854 622.349 212.854C622.349 209.984 624.86 209.984 625.938 212.135C626.651 213.214 628.807 215.01 630.599 214.651C631.318 214.651 631.677 214.292 632.396 214.292C634.547 213.573 638.854 211.781 641.37 209.625C641.729 208.547 641.729 207.828 641.729 207.115C640.292 207.828 638.854 208.547 638.136 209.625V208.547C637.063 208.547 635.266 208.188 634.547 208.188C634.906 207.828 635.266 206.036 635.985 205.677C634.193 206.036 632.396 205.677 630.959 205.318C631.677 204.599 631.677 203.526 632.037 202.448C631.318 202.807 629.526 202.089 628.089 202.448C628.448 201.37 628.807 199.938 629.886 199.578C628.448 199.938 626.651 199.578 624.86 198.859C626.292 198.859 627.011 197.063 628.089 197.063C625.219 197.063 624.5 195.63 623.063 194.911C624.141 195.271 624.86 194.193 625.938 194.193C624.86 193.833 623.063 192.042 623.781 190.964C623.422 191.323 623.063 192.042 622.349 192.396C621.63 192.755 620.193 192.396 619.115 191.323C618.396 189.885 618.755 188.094 620.193 187.734C618.396 187.375 618.396 185.578 619.115 184.859C619.474 184.146 620.912 183.068 621.63 184.146C621.99 184.505 622.349 185.219 622.703 185.578C622.344 184.859 622.344 183.427 622.344 182.349C622.703 181.271 623.422 181.271 624.5 180.911C625.578 180.911 626.292 181.99 626.292 183.068C626.292 184.146 626.651 184.859 627.011 186.297C627.011 185.938 627.37 185.219 627.37 184.859C627.37 183.427 629.167 183.786 630.24 184.146C631.318 184.505 631.677 186.656 630.24 187.734C629.526 188.453 629.88 189.526 630.599 190.245C633.115 194.193 637.422 197.422 641.011 197.781C641.011 196.344 641.724 194.911 642.802 193.833C642.802 193.115 643.162 192.042 643.521 191.323C643.88 189.167 644.959 188.094 646.391 188.807C646.031 188.448 645.672 188.094 645.672 187.734C644.599 186.656 643.521 184.859 644.24 183.427C644.958 181.99 647.11 182.349 647.828 183.068C647.469 180.911 649.979 179.12 649.979 178.042C650.339 179.12 651.057 180.552 650.698 181.63C651.057 180.198 653.568 178.401 655.365 177.682C654.646 178.76 656.802 180.552 656.443 181.63C657.162 179.839 660.031 178.76 662.183 178.76C661.464 179.479 661.464 180.911 661.464 181.63C662.542 181.63 664.339 181.271 665.057 180.198C665.057 181.63 664.339 183.068 663.62 183.786C663.979 183.427 665.412 183.427 666.49 183.427C665.412 184.5 665.771 185.578 664.698 186.297C666.13 185.578 667.927 185.578 668.287 187.016C669 188.094 667.927 189.885 667.209 190.964C666.49 191.323 665.771 192.042 665.412 192.042Z" fill="#F9D050" stroke="black" stroke-width="1.0769"/>
<path d="M643.162 196.344C640.651 197.422 639.932 199.932 639.573 201.37" stroke="black" stroke-width="1.0769"/>
<path d="M642.802 198.859C639.214 201.01 637.781 202.807 638.5 206.755M644.599 209.625C646.75 208.906 648.188 208.188 649.984 204.958" stroke="black" stroke-width="1.0769"/>
<path d="M648.906 206.396C648.188 207.828 648.906 210.344 647.828 211.422C649.625 210.344 651.057 208.906 651.417 206.396" stroke="black" stroke-width="1.0769"/>
<path d="M649.625 210.344C651.057 209.625 653.214 207.469 654.287 204.958C653.927 206.037 654.287 207.828 653.573 208.906C655.365 207.115 656.084 206.037 656.443 204.24C656.443 204.599 656.802 205.318 656.802 205.677C657.521 204.958 658.235 204.24 658.235 202.807M658.235 203.88V205.677C659.672 204.599 660.031 203.167 660.031 201.37" stroke="black" stroke-width="1.0769"/>
<path d="M659.672 203.526C661.823 202.089 662.182 199.938 662.182 196.703M662.182 200.292C663.62 199.219 663.979 198.5 663.979 195.271M659.313 185.578C658.594 185.578 657.875 185.938 657.875 187.016C657.875 187.734 656.802 188.807 656.802 189.885C656.443 191.323 655.724 191.682 654.646 191.323C653.568 190.604 653.568 190.604 653.568 189.526C653.568 188.094 655.365 187.734 655.365 186.297C655.724 185.578 656.083 184.5 656.443 184.5C654.646 185.578 652.136 184.859 651.776 182.708" stroke="black" stroke-width="1.0769"/>
<path d="M662.542 186.656C661.828 187.016 661.11 185.938 660.031 186.297C659.672 186.297 658.594 186.656 658.235 186.297" stroke="black" stroke-width="1.0769"/>
<path d="M657.521 188.448C657.88 188.807 659.672 189.526 661.469 188.807C660.031 189.167 658.953 187.375 660.391 186.297M654.287 184.859C652.854 184.859 651.776 185.938 652.136 187.016C652.495 188.094 653.927 188.094 655.005 187.375M651.776 202.807C652.136 202.448 652.495 201.729 652.495 201.37C653.214 201.37 653.927 201.01 654.287 200.651C655.724 200.651 656.802 199.578 657.162 198.5C657.875 198.5 658.235 196.703 658.594 195.99C658.953 196.344 659.672 195.99 660.031 194.552C660.75 194.911 661.823 194.552 662.182 193.474M647.469 190.964C647.469 191.323 646.75 192.042 646.037 192.396C646.396 193.115 646.037 194.912 645.318 195.271C645.677 195.984 645.318 197.063 644.958 197.781C644.958 198.141 645.318 199.219 645.318 199.578M648.906 183.786C648.188 185.578 648.547 187.734 649.985 188.089" stroke="black" stroke-width="1.0769"/>
<path d="M649.625 189.526C649.266 191.323 649.266 193.833 648.906 194.912C648.547 195.63 647.828 198.141 650.698 198.859C653.927 199.578 655.724 199.219 657.521 193.833M662.901 207.828C662.901 208.188 662.542 208.906 661.823 208.906M665.412 207.115C665.412 207.828 664.698 208.906 664.339 209.266M667.927 206.396C667.927 207.115 667.927 208.188 667.208 208.547M646.037 184.141C646.396 184.141 646.75 184.859 647.109 185.578C646.037 184.859 644.958 186.656 645.677 187.734M644.958 190.245C644.599 190.604 643.88 190.964 643.521 191.323M643.88 193.474C643.521 193.474 643.162 193.833 642.802 193.833M626.651 187.016C626.651 186.656 626.651 186.656 627.011 186.297M623.422 185.938C623.063 185.938 623.063 185.938 622.708 185.578M623.781 190.964H624.5M622.349 188.807C621.63 188.094 620.552 187.734 620.193 187.734M642.083 202.089C639.573 204.24 638.495 206.037 638.136 208.547M644.599 203.88C643.88 205.318 642.802 206.396 641.729 207.115M630.604 214.651C627.729 215.365 625.578 215.01 623.422 213.573C623.063 213.214 622.708 213.214 622.349 212.854M641.37 209.625C641.011 211.063 640.651 212.854 639.932 213.214C642.802 211.776 645.318 209.625 645.677 206.396M620.552 216.443C621.63 216.083 622.703 216.802 623.422 216.083M683 204.599C683.719 204.958 684.797 205.318 685.151 205.677C685.511 204.958 686.948 203.885 688.026 203.526M657.521 212.135C657.156 210.703 657.88 208.906 660.031 208.188M643.521 218.24C643.88 217.521 643.88 216.443 644.24 215.724M627.729 219.313C627.37 220.031 626.651 220.75 626.651 221.469M622.349 220.031C622.349 220.031 622.349 219.672 622.708 219.672C623.422 219.318 624.5 218.599 624.859 217.88M671.156 215.01C670.438 215.37 670.078 215.01 669.719 214.651M670.797 216.802C670.797 216.802 670.438 217.162 670.078 217.162M672.594 218.599C672.234 218.958 671.875 219.313 671.516 219.313M683 219.313C683.719 218.953 684.078 218.24 684.438 216.802M678.333 218.958C679.412 218.599 680.13 217.88 681.203 216.802M688.386 216.083C688.386 215.37 688.386 214.651 688.745 213.932M714.943 219.313C714.224 218.599 714.224 217.521 715.302 216.802C716.021 216.443 716.375 216.083 717.094 215.724" stroke="black" stroke-width="1.0769"/>
<path d="M693.047 206.755C687.307 204.24 687.667 201.01 683 201.37M718.531 217.88C718.891 218.24 718.531 219.313 718.531 219.672M721.761 217.88C721.401 218.958 721.401 219.313 721.401 220.391M694.125 184.141H691.255M663.979 196.344C663.979 197.063 665.057 198.5 667.927 198.5C667.568 198.5 667.208 198.141 667.208 198.141M665.412 192.042C665.052 192.401 664.698 192.042 664.698 192.042C663.979 191.323 665.057 189.885 666.13 189.167C665.057 189.526 664.339 189.526 663.62 189.526C662.901 191.682 660.75 192.755 659.313 191.323C658.953 192.755 657.162 194.552 655.724 194.193C654.287 193.474 653.927 192.396 654.287 191.323C652.495 193.474 650.339 192.042 649.625 191.323C649.266 190.604 649.625 188.807 650.339 186.656" stroke="black" stroke-width="1.0769"/>
<path d="M688.385 205.677C687.307 206.396 686.229 205.677 685.151 206.755C684.438 207.469 685.51 207.828 686.229 207.828C685.87 208.906 685.87 209.266 687.667 209.266C686.948 210.344 689.099 210.703 688.74 212.135C689.818 211.063 689.818 209.625 689.458 208.547C689.099 207.469 687.307 206.755 688.385 205.677Z" fill="black"/>
<path d="M655.724 194.193C654.286 193.474 653.927 192.396 654.286 191.323C653.927 192.042 653.214 192.396 652.495 192.396C651.057 195.63 649.266 198.5 647.109 198.5C644.599 198.859 644.958 201.37 646.75 201.37C650.698 202.089 652.495 200.651 655.724 194.193ZM620.193 185.578C621.271 184.5 620.552 183.427 619.833 183.068C618.76 182.708 616.604 183.068 615.526 184.859C616.604 184.5 617.682 184.5 618.042 185.219C618.401 185.938 619.115 186.656 620.193 185.578ZM621.99 179.12C624.5 179.12 625.219 179.479 625.578 180.552C625.938 181.271 625.219 182.349 624.5 182.349C623.422 182.349 622.349 181.63 622.703 181.271C623.063 180.552 623.063 179.479 621.99 179.12ZM629.167 184.859C630.958 185.219 631.677 184.146 630.604 182.708C630.245 181.63 629.167 180.911 627.37 181.271C629.167 182.349 627.37 184.146 629.167 184.859ZM615.885 190.964C616.964 192.755 618.76 192.755 619.474 192.396C620.552 192.036 620.911 190.964 620.552 190.245C619.833 189.167 618.76 188.807 618.401 190.245C617.682 191.682 616.604 191.323 615.885 190.964ZM621.271 212.854C620.552 211.422 618.401 211.422 616.604 212.854C617.323 212.495 618.755 212.854 619.115 213.573C619.474 214.292 620.193 214.292 620.552 214.292C620.911 213.932 621.63 213.573 621.271 212.854ZM624.141 210.703C624.141 208.906 621.63 208.547 620.193 209.266C620.911 209.266 621.99 209.984 621.99 210.703C622.349 211.422 623.063 211.781 623.422 211.781C624.141 211.417 624.5 211.063 624.141 210.703ZM620.552 217.161C618.401 216.802 617.323 219.313 617.323 221.109C617.682 220.031 618.76 219.313 619.833 219.672C620.911 219.672 621.271 219.313 621.271 218.599C621.63 217.88 621.271 217.521 620.552 217.161ZM620.911 223.26C621.63 223.625 622.349 222.901 622.703 221.828C622.703 221.109 624.141 221.109 624.5 221.469C625.219 221.828 625.219 223.26 624.141 223.979C623.422 224.339 621.63 224.698 620.911 223.26ZM670.797 212.495C670.078 212.135 668.286 211.422 666.849 212.495C667.927 212.135 668.646 212.854 669.005 213.573C669.005 214.292 670.078 214.651 670.438 213.932C670.797 213.573 671.156 212.854 670.797 212.495ZM667.568 215.01C666.13 214.292 664.339 216.083 663.979 217.521C664.339 217.161 665.771 216.443 666.49 216.443C667.208 216.802 667.927 216.443 667.927 215.724C668.286 215.37 668.286 215.01 667.568 215.01ZM669.365 217.88C668.286 217.88 666.849 219.313 666.849 220.75C667.208 220.031 667.927 219.672 668.646 220.031C669.365 220.031 670.438 219.672 670.438 218.958C670.438 218.24 670.078 217.88 669.365 217.88ZM672.594 220.75C671.875 220.391 670.797 220.75 670.797 221.828C670.797 222.901 670.797 223.979 670.438 224.339C671.156 223.62 671.875 223.26 672.594 222.901C672.953 222.547 673.307 221.469 672.594 220.75ZM713.146 217.521C712.432 216.802 711.354 217.161 710.995 217.88C710.635 218.599 710.276 220.391 710.995 221.828C710.995 221.109 711.714 220.031 712.432 220.031C713.505 219.672 713.865 218.24 713.146 217.521ZM715.302 218.958C713.865 219.672 713.865 222.188 714.943 223.62C714.943 222.906 715.302 221.828 716.016 221.469C717.094 221.469 717.453 220.031 717.094 219.313C716.375 218.599 715.661 218.958 715.302 218.958ZM719.609 220.391C718.891 220.031 718.172 220.75 718.172 221.469C717.813 222.547 718.531 223.979 719.609 224.698C719.609 223.979 719.969 223.26 720.323 222.906C721.401 222.188 721.042 220.75 719.609 220.391ZM722.839 220.031C722.12 220.031 721.401 221.109 722.12 222.188C722.479 222.906 723.198 223.26 724.63 222.906C724.271 222.906 723.552 221.828 723.917 221.469C724.271 220.75 723.917 220.031 722.839 220.031Z" fill="#073163"/>
<path d="M623.063 287.146L641.01 231.875L658.953 287.146L611.938 253.052H670.078L623.063 287.146Z" fill="#F9D050"/>
<path d="M626.651 282.12L663.979 254.844H618.042L655.005 282.12L641.01 238.339L626.651 282.12Z" fill="#024919"/>
<path d="M690.536 287.146L708.484 231.875L726.427 287.146L679.411 253.052H737.552L690.536 287.146Z" fill="#F9D050"/>
<path d="M694.125 282.12L731.453 254.844H685.51L722.479 282.12L708.484 238.339L694.125 282.12Z" fill="#024919"/>
<path d="M656.802 326.266L674.745 270.995L692.693 326.266L645.677 292.172H703.818L656.802 326.266Z" fill="#F9D050"/>
<path d="M660.391 321.24L697.714 293.964H651.776L688.745 321.24L674.745 277.458L660.391 321.24Z" fill="#024919"/>
<path d="M741.86 174.453V244.438C741.86 305.094 713.146 325.906 674.745 342.417C636.344 325.906 607.276 305.094 607.276 244.438V174.453H741.86Z" stroke="black" stroke-width="1.0769"/>
</g>
</g>
<defs>
<clipPath id="clip0_764_2452">
<rect width="900" height="450" fill="white"/>
</clipPath>
</defs>
</svg>
