<svg width="900" height="450" viewBox="0 0 900 450" fill="none" xmlns="http://www.w3.org/2000/svg">
<g clip-path="url(#clip0_764_2689)">
<path d="M900 0H0V450H900V0Z" fill="#1E1E1E"/>
<mask id="mask0_764_2689" style="mask-type:luminance" maskUnits="userSpaceOnUse" x="0" y="0" width="900" height="450">
<path d="M900 0H0V450H900V0Z" fill="white"/>
</mask>
<g mask="url(#mask0_764_2689)">
<mask id="mask1_764_2689" style="mask-type:luminance" maskUnits="userSpaceOnUse" x="0" y="0" width="900" height="450">
<path d="M0 0H900V450H0V0Z" fill="white"/>
</mask>
<g mask="url(#mask1_764_2689)">
<path d="M0 0H900V450H0V0Z" fill="white"/>
<path d="M0 0H900V450H0V0Z" fill="white"/>
<path d="M0 0H900V450H0V0Z" fill="#00AFCA"/>
</g>
<path d="M546.615 188.719C546.615 190.698 546.521 192.677 546.323 194.646C546.13 196.615 545.839 198.573 545.453 200.516C545.068 202.458 544.589 204.375 544.016 206.271C543.438 208.167 542.771 210.026 542.016 211.854C541.255 213.688 540.411 215.474 539.479 217.219C538.547 218.969 537.526 220.661 536.427 222.307C535.328 223.953 534.151 225.542 532.891 227.073C531.635 228.604 530.307 230.073 528.906 231.469C527.51 232.87 526.042 234.198 524.51 235.453C522.984 236.714 521.396 237.891 519.745 238.99C518.099 240.089 516.406 241.104 514.656 242.042C512.911 242.974 511.125 243.818 509.297 244.578C507.464 245.333 505.604 246 503.708 246.573C501.813 247.151 499.896 247.63 497.953 248.016C496.01 248.401 494.057 248.693 492.083 248.885C490.115 249.083 488.141 249.177 486.156 249.177C484.177 249.177 482.203 249.083 480.234 248.885C478.26 248.693 476.307 248.401 474.365 248.016C472.422 247.63 470.505 247.151 468.609 246.573C466.714 246 464.854 245.333 463.021 244.578C461.193 243.818 459.406 242.974 457.661 242.042C455.911 241.104 454.219 240.089 452.568 238.99C450.922 237.891 449.333 236.714 447.802 235.453C446.276 234.198 444.807 232.87 443.406 231.469C442.01 230.073 440.682 228.604 439.422 227.073C438.167 225.542 436.99 223.953 435.891 222.307C434.792 220.661 433.771 218.969 432.839 217.219C431.906 215.474 431.063 213.688 430.302 211.854C429.547 210.026 428.88 208.167 428.302 206.271C427.729 204.375 427.25 202.458 426.865 200.516C426.474 198.573 426.187 196.615 425.99 194.646C425.797 192.677 425.703 190.698 425.703 188.719C425.703 186.74 425.797 184.766 425.99 182.797C426.187 180.823 426.474 178.87 426.865 176.927C427.25 174.984 427.729 173.068 428.302 171.172C428.88 169.276 429.547 167.411 430.302 165.583C431.063 163.755 431.906 161.969 432.839 160.219C433.771 158.474 434.792 156.776 435.891 155.13C436.99 153.484 438.167 151.896 439.422 150.365C440.682 148.833 442.01 147.37 443.406 145.969C444.807 144.568 446.276 143.24 447.802 141.984C449.333 140.729 450.922 139.552 452.568 138.453C454.219 137.349 455.911 136.333 457.661 135.401C459.406 134.469 461.193 133.62 463.021 132.865C464.854 132.109 466.714 131.443 468.609 130.865C470.505 130.292 472.422 129.813 474.365 129.422C476.307 129.036 478.26 128.75 480.234 128.552C482.203 128.359 484.177 128.26 486.156 128.26C488.141 128.26 490.115 128.359 492.083 128.552C494.057 128.75 496.01 129.036 497.953 129.422C499.896 129.813 501.813 130.292 503.708 130.865C505.604 131.443 507.464 132.109 509.297 132.865C511.125 133.62 512.911 134.469 514.656 135.401C516.406 136.333 518.099 137.349 519.745 138.453C521.396 139.552 522.984 140.729 524.51 141.984C526.042 143.24 527.51 144.568 528.906 145.969C530.307 147.37 531.635 148.833 532.891 150.365C534.151 151.896 535.328 153.484 536.427 155.13C537.526 156.776 538.547 158.474 539.479 160.219C540.411 161.969 541.255 163.755 542.016 165.583C542.771 167.411 543.438 169.276 544.016 171.172C544.589 173.068 545.068 174.984 545.453 176.927C545.839 178.87 546.13 180.823 546.323 182.797C546.521 184.766 546.615 186.74 546.615 188.719Z" fill="#FEC50C"/>
<path d="M486.156 120.016C489.755 119.974 491.099 117.724 491.099 115.031C491.099 111.438 486.156 94.3177 486.156 94.3177C486.156 94.3177 481.214 111.438 481.214 115.031C481.214 117.724 482.562 120.016 486.156 120.016Z" fill="#FEC50C"/>
<path d="M554.859 188.719C554.906 192.312 557.151 193.661 559.849 193.661C563.443 193.661 580.563 188.719 580.563 188.719C580.563 188.719 563.443 183.776 559.849 183.776C557.151 183.776 554.859 185.125 554.859 188.719Z" fill="#FEC50C"/>
<path d="M486.156 257.422C482.562 257.469 481.214 259.714 481.214 262.411C481.214 266.005 486.156 283.125 486.156 283.125C486.156 283.125 491.099 266.005 491.099 262.411C491.099 259.714 489.755 257.422 486.156 257.422Z" fill="#FEC50C"/>
<path d="M417.453 188.719C417.411 185.125 415.161 183.776 412.469 183.776C408.875 183.776 391.755 188.719 391.755 188.719C391.755 188.719 408.875 193.661 412.469 193.661C415.161 193.661 417.453 192.312 417.453 188.719Z" fill="#FEC50C"/>
<path d="M512.448 125.245C515.786 126.583 517.896 125.021 518.927 122.531C520.302 119.208 522.286 101.5 522.286 101.5C522.286 101.5 511.167 115.427 509.792 118.75C508.76 121.24 509.13 123.87 512.448 125.245Z" fill="#FEC50C"/>
<path d="M549.63 215.01C548.297 218.349 549.859 220.453 552.349 221.49C555.672 222.865 573.375 224.849 573.375 224.849C573.375 224.849 559.453 213.729 556.13 212.354C553.641 211.323 551.005 211.693 549.63 215.01Z" fill="#FEC50C"/>
<path d="M459.865 252.193C456.531 250.859 454.422 252.422 453.391 254.911C452.016 258.229 450.031 275.938 450.031 275.938C450.031 275.938 461.151 262.016 462.526 258.693C463.557 256.203 463.187 253.568 459.865 252.193Z" fill="#FEC50C"/>
<path d="M422.688 162.427C424.021 159.089 422.458 156.984 419.969 155.953C416.646 154.578 398.938 152.594 398.938 152.594C398.938 152.594 412.865 163.714 416.188 165.089C418.677 166.12 421.307 165.75 422.688 162.427Z" fill="#FEC50C"/>
<path d="M534.74 140.141C537.312 142.651 539.854 142.016 541.76 140.109C544.302 137.568 552.911 121.964 552.911 121.964C552.911 121.964 537.312 130.578 534.771 133.12C532.865 135.026 532.198 137.599 534.74 140.141Z" fill="#FEC50C"/>
<path d="M534.74 237.302C532.229 239.875 532.865 242.417 534.771 244.323C537.313 246.865 552.911 255.474 552.911 255.474C552.911 255.474 544.302 239.875 541.76 237.333C539.854 235.427 537.281 234.76 534.74 237.302Z" fill="#FEC50C"/>
<path d="M437.578 237.302C435.005 234.792 432.464 235.427 430.557 237.333C428.016 239.875 419.406 255.474 419.406 255.474C419.406 255.474 435.005 246.865 437.547 244.323C439.453 242.417 440.12 239.844 437.578 237.302Z" fill="#FEC50C"/>
<path d="M437.578 140.141C440.089 137.568 439.453 135.026 437.547 133.12C435.005 130.578 419.406 121.964 419.406 121.964C419.406 121.964 428.016 137.568 430.557 140.109C432.464 142.016 435.036 142.682 437.578 140.141Z" fill="#FEC50C"/>
<path d="M549.63 162.427C551.047 165.734 553.641 166.12 556.13 165.089C559.453 163.714 573.375 152.594 573.375 152.594C573.375 152.594 555.672 154.578 552.349 155.953C549.859 156.984 548.255 159.109 549.63 162.427Z" fill="#FEC50C"/>
<path d="M512.448 252.193C509.146 253.609 508.76 256.203 509.792 258.693C511.167 262.016 522.286 275.938 522.286 275.938C522.286 275.938 520.302 258.229 518.927 254.911C517.896 252.422 515.771 250.818 512.448 252.193Z" fill="#FEC50C"/>
<path d="M422.688 215.01C421.266 211.708 418.677 211.323 416.188 212.354C412.865 213.729 398.938 224.849 398.938 224.849C398.938 224.849 416.646 222.865 419.969 221.49C422.458 220.453 424.063 218.333 422.688 215.01Z" fill="#FEC50C"/>
<path d="M459.865 125.245C463.172 123.828 463.557 121.24 462.526 118.75C461.151 115.427 450.031 101.5 450.031 101.5C450.031 101.5 452.016 119.208 453.391 122.531C454.422 125.021 456.547 126.625 459.865 125.245Z" fill="#FEC50C"/>
<path d="M499.563 121.339C503.094 121.995 504.854 120.052 505.38 117.411C506.083 113.885 504.578 96.1302 504.578 96.1302C504.578 96.1302 496.391 111.953 495.688 115.479C495.161 118.125 496.036 120.635 499.563 121.339Z" fill="#FEC50C"/>
<path d="M553.542 202.125C552.885 205.656 554.823 207.417 557.469 207.943C560.995 208.646 578.75 207.135 578.75 207.135C578.75 207.135 562.922 198.948 559.396 198.25C556.755 197.724 554.245 198.599 553.542 202.125Z" fill="#FEC50C"/>
<path d="M472.755 256.104C469.219 255.448 467.458 257.385 466.932 260.031C466.234 263.557 467.74 281.312 467.74 281.312C467.74 281.312 475.927 265.484 476.63 261.958C477.156 259.318 476.281 256.807 472.755 256.104Z" fill="#FEC50C"/>
<path d="M418.776 175.318C419.432 171.781 417.495 170.021 414.849 169.495C411.323 168.797 393.568 170.302 393.568 170.302C393.568 170.302 409.396 178.49 412.922 179.193C415.563 179.719 418.073 178.844 418.776 175.318Z" fill="#FEC50C"/>
<path d="M524.328 131.594C527.344 133.557 529.708 132.438 531.208 130.193C533.208 127.208 538.609 110.224 538.609 110.224C538.609 110.224 524.984 121.714 522.99 124.703C521.49 126.943 521.339 129.599 524.328 131.594Z" fill="#FEC50C"/>
<path d="M543.281 226.891C541.323 229.906 542.443 232.271 544.682 233.771C547.672 235.766 564.651 241.167 564.651 241.167C564.651 241.167 553.167 227.547 550.177 225.552C547.932 224.052 545.281 223.901 543.281 226.891Z" fill="#FEC50C"/>
<path d="M447.99 245.844C444.974 243.885 442.604 245.005 441.109 247.245C439.109 250.234 433.708 267.214 433.708 267.214C433.708 267.214 447.333 255.729 449.328 252.74C450.828 250.495 450.979 247.844 447.99 245.844Z" fill="#FEC50C"/>
<path d="M429.036 150.552C430.995 147.536 429.875 145.167 427.635 143.672C424.646 141.672 407.661 136.271 407.661 136.271C407.661 136.271 419.151 149.891 422.141 151.891C424.38 153.385 427.036 153.542 429.036 150.552Z" fill="#FEC50C"/>
<path d="M543.281 150.552C545.318 153.516 547.932 153.385 550.177 151.891C553.167 149.891 564.651 136.271 564.651 136.271C564.651 136.271 547.672 141.672 544.682 143.672C542.443 145.167 541.286 147.562 543.281 150.552Z" fill="#FEC50C"/>
<path d="M524.328 245.844C521.365 247.88 521.49 250.495 522.99 252.74C524.984 255.729 538.609 267.214 538.609 267.214C538.609 267.214 533.208 250.234 531.208 247.245C529.708 245.005 527.318 243.849 524.328 245.844Z" fill="#FEC50C"/>
<path d="M429.036 226.891C427 223.927 424.38 224.052 422.141 225.552C419.151 227.547 407.661 241.167 407.661 241.167C407.661 241.167 424.646 235.766 427.635 233.771C429.875 232.271 431.031 229.88 429.036 226.891Z" fill="#FEC50C"/>
<path d="M447.99 131.594C450.953 129.563 450.828 126.943 449.328 124.703C447.333 121.714 433.708 110.224 433.708 110.224C433.708 110.224 439.109 127.208 441.109 130.193C442.604 132.438 445 133.594 447.99 131.594Z" fill="#FEC50C"/>
<path d="M553.542 175.318C554.286 178.833 556.755 179.719 559.396 179.193C562.922 178.49 578.75 170.302 578.75 170.302C578.75 170.302 560.995 168.797 557.469 169.495C554.823 170.021 552.839 171.792 553.542 175.318Z" fill="#FEC50C"/>
<path d="M499.562 256.104C496.047 256.849 495.161 259.318 495.687 261.958C496.391 265.484 504.578 281.312 504.578 281.312C504.578 281.312 506.083 263.557 505.38 260.031C504.854 257.385 503.089 255.401 499.562 256.104Z" fill="#FEC50C"/>
<path d="M418.776 202.125C418.031 198.609 415.563 197.724 412.922 198.25C409.396 198.948 393.568 207.135 393.568 207.135C393.568 207.135 411.323 208.646 414.849 207.943C417.495 207.417 419.479 205.651 418.776 202.125Z" fill="#FEC50C"/>
<path d="M472.755 121.339C476.271 120.594 477.156 118.125 476.63 115.479C475.927 111.953 467.74 96.1302 467.74 96.1302C467.74 96.1302 466.234 113.885 466.932 117.411C467.458 120.052 469.229 122.036 472.755 121.339Z" fill="#FEC50C"/>
<path d="M475.37 319.688C473.755 319.776 472.182 319.984 470.641 320.479C468.526 320.766 466.505 321.5 464.406 321.844L463.568 321.979L462.161 322.115C462.25 322.5 462.313 322.891 462.313 323.281C462.313 323.687 462.266 324.073 462.161 324.406C462.073 324.719 461.786 325.109 461.563 325.349C461.266 325.677 460.948 325.964 460.573 326.141C460.214 326.323 459.813 326.396 459.406 326.427C459 326.443 458.583 326.427 458.193 326.276C457.786 326.141 457.411 325.885 457.068 325.589C456.651 325.693 456.214 325.766 455.813 325.813C455.391 325.859 455 325.859 454.63 325.813C454.208 325.693 453.776 325.557 453.37 325.391C452.964 325.229 452.578 325.021 452.203 324.781C450.672 325.677 448.969 326.531 448.036 328.104C447.516 328.823 447.406 329.646 447.286 330.5C447.214 331.547 447.484 332.656 447.932 333.63C448.099 333.917 448.234 332.599 448.74 332.417C449.594 331.714 450.661 331.203 451.74 330.922C452.651 330.453 452.531 330.948 452.156 331.667C452.068 332.042 451.557 333.464 452.245 332.745C455.286 331.401 458.656 331.13 461.938 330.875C466.698 330.38 471.479 330.276 476.255 330.214C480.75 330.276 485.245 330.333 489.734 330.5C491.88 330.563 494.036 331.042 496.146 330.682C496.656 330.547 497.448 330.516 497.75 330.214C496.792 329.661 495.667 329.646 494.604 329.51H486.036C483.656 329.271 481.167 329.245 478.922 328.344C478.323 328.104 477.771 327.536 477.198 328.151C476.344 328.448 475.432 328.656 474.531 328.719C472.964 328.839 471.391 328.51 469.938 327.922C470.984 326.469 472.24 325.198 473.396 323.849C472.469 323.698 471.568 323.505 470.641 323.281C472.271 322.156 473.786 320.885 475.37 319.688Z" fill="#FEC50C"/>
<path d="M545.349 335.208C542.094 337.161 539.609 333.698 536.885 332.656C534.943 333.714 534.76 337.245 532.948 338.917C530.776 341.391 528.109 338.229 528.312 335.786C525.714 337.979 524.396 342.943 520.198 342.276C518.203 340.656 516.729 337.245 515.208 341.125C513.964 343.026 510.661 345.724 508.953 342.859C508.422 340.328 507.156 337.354 505.781 341.37C504.833 344.214 501.802 346.302 498.87 345.063C497.266 343.75 500.156 338.891 498.115 339.24C495.057 341.26 493.281 346.276 489.016 345.87C487.359 344.016 490.021 340.865 488.203 338.802C486.062 341.552 483.682 345.583 479.974 345.87C478.182 344.422 480.047 340.255 478.901 339.641C475.099 341.922 471.083 345.984 466.297 344.714C468.161 337.578 475.953 335.078 482.505 334.521C493.781 333.135 505.641 335.682 516.49 331.615C518.24 330.547 522.484 329.036 520.974 326.563C519.635 324.609 524.458 325.375 524.922 323.094C524.635 320.203 527.135 320.599 529.578 320.349C540.531 319.875 551.349 322.182 562.271 322.573C563.094 327.896 557.193 331.63 552.443 329.99C550.172 330.354 546.766 324.771 547.438 328.833C546.979 330.969 547.297 333.781 545.349 335.208ZM452.156 324.313C454.693 326.635 456.469 323.875 458.839 322.87C466.792 320.135 473.724 315.354 480.562 310.583C484.708 307.151 488.297 302.708 493.865 301.594C504.719 298.313 516.255 298.714 527.151 295.682C535.448 284.323 549.536 280.271 561.344 273.74C563.995 272.917 565.016 270.74 565.865 268.328C570.37 261.214 576.51 254.911 583.766 250.609C587.203 248.729 591.302 247.651 595.188 248.51C594.911 253.141 592.255 257.245 589.047 260.448C591.672 260.391 593.927 258.729 596.578 258.823C597.49 263.578 592.354 266.063 589.625 269.026C591.146 269.38 596.974 269.818 593.797 271.344C589.75 274.151 585.13 276.078 581.396 279.339C584.839 279.958 585.234 280.693 581.729 281.938C579.833 283.224 576.182 283.672 575.833 286.177C578.438 287.776 574.63 289.365 573.167 289.885C570.359 290.542 567.417 291.76 571.141 293.891C569.729 296.021 566.708 296.474 564.24 296.26C564.99 298.677 566.073 301.375 562.943 302.438C555.922 307.745 547.682 311.609 538.854 312.49C549.88 313.339 561.234 311.292 570.656 305.297C571.901 303.823 578.422 302.245 574.776 301.01C573.057 300.292 569.375 299.5 569.125 298.193C574.229 295.042 580.656 296.161 586.146 294.292C586.292 292.516 581.974 293.01 580.365 292.604C576.526 292.292 576.75 291.313 580.448 290.948C585.135 289.708 590.438 289.464 594.375 286.411C591.167 284.922 587.135 286.234 583.714 285.021C589.516 282.479 596.359 282.224 601.563 278.411C603.932 275.776 598.526 276.599 596.948 276.661C593.734 277.224 592.25 275.682 595.901 274.349C602.135 269.755 610.026 266.771 614.406 260.104C615.443 258.615 616.844 254.12 613.536 255.74C609.188 257.182 605.359 262.073 600.406 260.563C610.172 252.995 619.464 244.375 626.135 233.901C626.479 230.88 621.74 230.557 620.505 232.927C614.229 238.974 608.552 246.109 600.521 249.896C608.214 242.474 614.573 233.682 620.125 224.568C621.313 221.859 624.51 218.599 622.776 215.589C619.979 213.276 616.479 215.396 615.026 218.167C610.146 224.531 606.443 231.964 600.172 237.151C605.661 226.672 611.349 215.516 611.484 203.427C611.469 200.938 610.969 197.276 607.589 197.74C604.911 198.219 605.547 202.229 604.443 204.255C602.01 212.516 600.87 221.458 595.885 228.688C597.005 221.979 598.969 214.984 597.464 208.208C596.76 205.177 591.87 206.479 592.5 209.479C586.656 239.073 566.797 264.953 540.828 279.922C528.938 286.651 515.656 290.99 502.141 292.958C498.51 293.75 494.578 293.286 491.104 294.526C482.682 300.979 477.589 311.781 466.927 315.167C462.151 317.536 455.922 318.021 452.505 322.458C452.208 323.026 452.146 323.682 452.156 324.313Z" fill="#FEC50C"/>
<path d="M484.057 294.292C482.484 297.146 481.563 300.427 479.542 302.984C473.453 297.448 464.635 297.63 456.917 297.26C450.547 296.922 443.62 296.333 438.693 291.792C433.505 287.547 429.271 282.031 423.479 278.583C418.193 277.146 412.859 275.349 408.609 271.724C399.521 264.318 394.318 253.328 385.443 245.693C383.75 244.026 381.755 242.734 379.859 241.323C378.057 241.76 378.87 245.651 376.667 243.667C375.469 242.812 372.464 242.729 372.198 243.922C374.911 247.5 377.625 251.583 378 256.156C376.151 256.349 372.859 255.766 371.943 256.453C374.401 260.141 377.552 263.406 381.13 266.01C379.417 266.286 376.031 266.135 375.375 266.828C378.927 269.724 382.74 272.682 387.391 273.427C388.344 274.682 386 277.109 387.969 278.182C389.115 278.646 392.891 279.427 390.286 280.729C388.505 281.932 389.167 284.734 391.448 284.672C392.891 285.406 396.13 285.589 396.38 286.865C395.104 288.167 391.125 289.708 394.51 290.927C397.672 292.682 401.281 293.818 404.896 293.943C403.083 295.469 400.849 296.333 398.984 297.771C407.318 302.656 416.557 305.87 425.688 308.969C429.323 310.182 433 311.312 436.771 312.026C425.818 311.396 415.234 308.151 405.26 303.714C400.094 301.448 394.891 299.26 389.594 297.307C391.917 296.099 394.604 295.802 397.01 294.755C392.01 293.755 386.547 293.427 382.151 290.677C382.828 289.474 385.38 289.417 386.792 288.807C389.448 288.172 391.099 287.396 387.354 287.167C383.573 286.141 379.245 286.604 375.917 284.323C376.13 282.958 379.615 283.432 381.031 282.844C382.818 282.536 384.802 282.281 386.229 281.078C380.391 278.656 372.755 280.375 368.182 275.219C367.13 273.25 371.458 274.833 372.693 274.505C375.823 274.505 379.193 275.505 382.177 274.24C373.667 270.505 364.552 267.01 358.068 260.099C357.344 258.99 355.187 255.953 356.927 255.578C361.979 256.245 365.635 261.76 371.036 260.901C371.755 259.932 367.896 258.349 366.937 256.964C359.057 250.208 351.417 242.87 345.896 234.021C345.516 231.062 350.161 230.62 351.385 232.906C357.411 238.703 362.849 245.474 370.354 249.437C373.016 250.724 368.823 247.906 368.266 246.885C361.333 238.833 354.734 230.333 349.891 220.854C349.021 219.146 347.583 216.052 350.182 215.146C352.776 213.844 355.349 215.615 356.661 217.844C361.76 224.271 365.51 231.911 371.859 237.266C366.448 226.771 360.677 215.719 360.536 203.641C360.661 201.302 360.812 197.76 363.99 197.854C366.656 197.453 366.234 200.865 367.104 202.49C369.734 211.365 370.88 220.969 376.146 228.802C374.984 222.219 373.271 215.443 374.411 208.75C374.672 206.552 377.146 205.891 378.76 207.219C380.062 210.411 380.339 214.354 381.526 217.771C388.292 240.922 403.49 261.281 423.286 274.943C439.594 286.13 458.948 292.807 478.698 293.969C480.484 294.125 482.276 294.177 484.063 294.292" fill="#FEC50C"/>
<path d="M460.052 323.917C460.052 324.214 459.948 324.464 459.74 324.672C459.531 324.88 459.281 324.984 458.984 324.984C458.693 324.984 458.443 324.88 458.234 324.672C458.026 324.464 457.922 324.214 457.922 323.917C457.922 323.625 458.026 323.375 458.234 323.167C458.443 322.958 458.693 322.854 458.984 322.854C459.281 322.854 459.531 322.958 459.74 323.167C459.948 323.375 460.052 323.625 460.052 323.917Z" fill="#FEC50C"/>
<path d="M459.329 323.75C459.329 323.87 459.287 323.969 459.204 324.058C459.12 324.141 459.016 324.183 458.896 324.183C458.776 324.183 458.677 324.141 458.589 324.058C458.506 323.969 458.464 323.87 458.464 323.75C458.464 323.631 458.506 323.526 458.589 323.443C458.677 323.36 458.776 323.313 458.896 323.313C459.016 323.313 459.12 323.36 459.204 323.443C459.287 323.526 459.329 323.631 459.329 323.75Z" fill="#FEC50C" stroke="#00AFCA" stroke-width="0.171197"/>
<path d="M54.5833 32.7656C54.5833 32.7656 50.2656 29.1354 48.8021 30.9583C46.4427 33.8854 56.0521 48.4687 56.0521 53.6042C56.0521 62.0312 50.4271 64.3229 43.4844 65.526C38.8229 66.3333 31.2344 65.1875 31.2344 65.1875C32.6667 63.2708 33.5937 62.7031 36 62.5521C33.3229 61.1562 30.5937 58.1406 30.5937 53.4375C30.5937 46.1823 33.5781 43.1979 33.5781 35.0208C33.5781 30.4844 29.8594 24.7135 29.8594 24.7135C36.4323 25.3698 39.6875 31.4583 37.8333 36.3229C38.8802 36.474 39.8333 36.2344 40.6458 35.4635C41.1302 36.8125 40.3698 38.375 39.3542 39.724C40.1719 40.1615 40.7708 39.901 42.0781 39.6302C41.9531 41.0208 41.1198 42.4948 39.0833 43.8854C44.9948 42.349 48.6302 46.4687 48.6302 50.7812C48.6302 54.0365 46.3489 56.3698 44.1198 56.3698C43.3958 56.3698 42.3385 56.0729 41.7396 55.6302C41.3177 56.526 41.5364 57.724 41.9687 58.6198C40.3333 58.1875 39.2969 57.2187 40.0364 55.1979C38.7812 55.0833 37.7812 54.6562 37.0989 53.849C37.7917 52.9635 38.8333 52.4583 40.0364 52.5C39.1198 50.6146 40.1406 49.5573 41.625 48.6979C41.625 48.6979 40.6823 52.5 43.0937 52.5C44.1771 52.5 45.1667 52.1458 45.1667 50.5469C45.1667 49.1562 43.9479 47.2292 41.1354 47.3542C38.3229 47.474 36.0417 49.2917 36.0417 53.7812C36.0417 57.9219 39.3854 59.9792 43.7864 60.1146C47.7552 60.2344 50.75 58.0885 50.75 53.9896C50.75 48.5417 42.8854 36.1198 42.8854 31.2656C42.8854 27.6198 46.1614 25.5885 49.3646 25.5885C53.526 25.5885 57.0312 29.7031 57.0312 29.7031L54.5885 32.7656H54.5833Z" fill="#FEC50C"/>
<path d="M55.4948 131.271C55.4948 140.375 47.3177 145.057 40.8906 145.057C32.2344 145.057 27.625 139.88 27.625 133.104C27.625 129.266 28.3281 126.854 30.0989 123.177C30.0989 123.177 44.3802 93.4844 49.9375 81.9948C50.6302 80.5625 50.8542 78.9323 50.8542 76.5417C50.8542 72.849 47.276 69.8333 43.5208 69.7396C40.0989 69.6562 36.3646 72.9323 36.3646 76.6667C36.3646 81.2031 38.7187 83.224 41.1354 83.224C44.1094 83.224 45.2917 82 45.2917 79.9115C45.2917 78.4583 44.5885 77.8281 43.5833 77.8281C41.0312 77.8281 41.7448 81.2604 41.7448 81.2604C40.4792 80.9844 39.4427 79.6927 40.0364 78.0729C39.1094 77.8698 38.2396 77.3802 37.5573 76.6042C38.2448 75.9427 39.026 75.4323 40.0364 75.2552C39.4375 73.2865 40.2344 72.3229 41.9583 71.9167C41.6146 72.6719 41.5989 73.3698 41.7187 74.0312C44.4323 73.2604 48.5937 74.4844 48.5937 79.1771C48.5937 83.8333 45.3594 87.7552 39.3021 86.776C40.7448 87.4687 41.4739 88.875 41.625 90.4531C40.526 90.026 39.3021 89.9635 39.3021 89.9635C40.0104 91.2135 40.9948 92.2917 40.9531 94.7448C39.8281 94.2344 38.7864 93.2865 37.3437 93.8854C39.6042 98.3333 36.8281 104.448 29.7656 105.896C32.3489 102.865 33.6146 99.5937 33.6146 96.3385C33.6146 85.7812 30.6823 84.0052 30.6823 76.6667C30.6823 73.5937 32.2604 70.276 35.3906 68.026V68.1458C33.3229 67.5937 31.9948 66.5729 31.2344 65.1927C35.9583 63.849 42.8281 63.875 46.5156 65.3281C50.7552 65.8177 53.7135 69.0677 54.5833 70.7187C55.4583 72.3698 57.151 78.3385 54.5833 83.7135C51.776 89.5937 38.5364 117.661 34.4114 126.49C33.5364 128.359 33.0052 130.344 33.0052 132.495C33.0052 137.901 37.9583 139.786 40.7708 139.786C44.1302 139.786 47.5521 137.224 47.5521 134.026C47.5521 132 46.4531 130.776 44.8646 130.776C41.0625 130.776 41.2969 134.01 42.0521 136.047C39.6875 134.984 38.3125 133.083 38.6875 131.083C37.3489 130.901 36.0781 130.266 34.901 128.937C35.8229 127.771 36.9531 126.885 38.6875 126.854C37.9323 123.75 40.0104 122.437 42.0521 121.708C41.4062 123.99 40.9844 126.609 44.8646 126.609C47.6927 126.609 49.9219 127.099 51.2239 128.937C51.2969 126.49 51.526 116.807 51.526 116.807C51.6927 113.167 46.6562 113.271 43.4583 114.354C44.6667 110.161 47.1406 107.896 52.875 108.469C51.4844 107.891 50 106.578 50 104.057C50 100.646 52.7708 96.8646 54.5833 95.75L55.4948 131.271Z" fill="#FEC50C"/>
<path d="M55.4948 158.589C55.4948 149.479 47.3177 144.797 40.8906 144.797C32.2344 144.797 27.625 149.974 27.625 156.75C27.625 160.589 28.3281 163 30.0989 166.677C30.0989 166.677 44.3802 196.375 49.9375 207.859C50.6302 209.292 50.8542 210.922 50.8542 213.313C50.8542 217.005 47.276 220.026 43.5208 220.115C40.0989 220.203 36.3646 216.927 36.3646 213.193C36.3646 208.656 38.7187 206.635 41.1354 206.635C44.1094 206.635 45.2917 207.854 45.2917 209.943C45.2917 211.396 44.5885 212.026 43.5833 212.026C41.0312 212.026 41.7448 208.594 41.7448 208.594C40.4792 208.87 39.4427 210.167 40.0364 211.781C39.1094 211.99 38.2396 212.474 37.5573 213.255C38.2448 213.917 39.026 214.427 40.0364 214.599C39.4375 216.573 40.2344 217.536 41.9583 217.943C41.6146 217.182 41.5989 216.484 41.7187 215.828C44.4323 216.599 48.5937 215.37 48.5937 210.677C48.5937 206.021 45.3594 202.099 39.3021 203.078C40.7448 202.391 41.4739 200.979 41.625 199.401C40.526 199.833 39.3021 199.891 39.3021 199.891C40.0104 198.646 40.9948 197.568 40.9531 195.115C39.8281 195.625 38.7864 196.568 37.3437 195.969C39.6042 191.526 36.8281 185.406 29.7656 183.958C32.3489 186.99 33.6146 190.26 33.6146 193.521C33.6146 204.078 30.6823 205.854 30.6823 213.193C30.6823 216.26 32.2604 219.578 35.3906 221.833V221.708C33.3229 222.266 31.9948 223.281 31.2344 224.667C35.9583 226.005 42.8281 225.979 46.5156 224.531C50.7552 224.042 53.7135 220.786 54.5833 219.135C55.4583 217.484 57.151 211.521 54.5833 206.146C51.776 200.266 38.5364 172.193 34.4114 163.37C33.5364 161.5 33.0052 159.51 33.0052 157.365C33.0052 151.958 37.9583 150.073 40.7708 150.073C44.1302 150.073 47.5521 152.63 47.5521 155.833C47.5521 157.859 46.4531 159.078 44.8646 159.078C41.0625 159.078 41.2969 155.844 42.0521 153.807C39.6875 154.875 38.3125 156.771 38.6875 158.771C37.3489 158.958 36.0781 159.594 34.901 160.917C35.8229 162.089 36.9531 162.969 38.6875 163C37.9323 166.109 40.0104 167.422 42.0521 168.151C41.4062 165.87 40.9844 163.245 44.8646 163.245C47.6927 163.245 49.9219 162.755 51.2239 160.917C51.2969 163.37 51.526 173.052 51.526 173.052C51.6927 176.693 46.6562 176.589 43.4583 175.505C44.6667 179.693 47.1406 181.958 52.875 181.385C51.4844 181.969 50 183.276 50 185.797C50 189.208 52.7708 192.99 54.5833 194.109L55.4948 158.589Z" fill="#FEC50C"/>
<path d="M54.5833 32.7656C54.5833 32.7656 58.9062 29.1354 60.3698 30.9583C62.7292 33.8854 53.1198 48.4687 53.1198 53.6042C53.1198 62.0312 58.7448 64.3229 65.6875 65.526C70.3489 66.3333 77.9375 65.1875 77.9375 65.1875C76.5052 63.2708 75.5781 62.7031 73.1719 62.5521C75.8489 61.1562 78.5781 58.1406 78.5781 53.4375C78.5781 46.1823 75.5937 43.1979 75.5937 35.0208C75.5937 30.4844 79.3125 24.7135 79.3125 24.7135C72.7396 25.3698 69.4844 31.4583 71.3385 36.3229C70.2917 36.474 69.3385 36.2344 68.526 35.4635C68.0417 36.8125 68.8021 38.375 69.8177 39.724C69 40.1615 68.401 39.901 67.0937 39.6302C67.2187 41.0208 68.0521 42.4948 70.0885 43.8854C64.1771 42.349 60.5417 46.4687 60.5417 50.7812C60.5417 54.0365 62.8229 56.3698 65.0521 56.3698C65.776 56.3698 66.8333 56.0729 67.4323 55.6302C67.8542 56.526 67.6354 57.724 67.2031 58.6198C68.8385 58.1875 69.875 57.2187 69.1354 55.1979C70.3906 55.0833 71.3906 54.6562 72.0729 53.849C71.3802 52.9635 70.3385 52.4583 69.1354 52.5C70.0521 50.6146 69.0312 49.5573 67.5469 48.6979C67.5469 48.6979 68.4896 52.5 66.0781 52.5C64.9948 52.5 64.0052 52.1458 64.0052 50.5469C64.0052 49.1562 65.2239 47.2292 68.0364 47.3542C70.8489 47.474 73.125 49.2917 73.125 53.7812C73.125 57.9219 69.7864 59.9792 65.3854 60.1146C61.4167 60.2344 58.4219 58.0885 58.4219 53.9896C58.4219 48.5417 66.2864 36.1198 66.2864 31.2656C66.2864 27.6198 63.0104 25.5885 59.8073 25.5885C55.6458 25.5885 52.1406 29.7031 52.1406 29.7031L54.5833 32.7656Z" fill="#FEC50C"/>
<path d="M53.6771 131.271C53.6771 140.375 61.8542 145.057 68.2812 145.057C76.9375 145.057 81.5469 139.88 81.5469 133.104C81.5469 129.266 80.8437 126.854 79.0729 123.177C79.0729 123.177 64.7917 93.4844 59.2344 81.9948C58.5417 80.5625 58.3177 78.9323 58.3177 76.5417C58.3177 72.849 61.8958 69.8333 65.651 69.7396C69.0729 69.6562 72.8021 72.9323 72.8021 76.6667C72.8021 81.2031 70.4531 83.224 68.0364 83.224C65.0625 83.224 63.8802 82 63.8802 79.9115C63.8802 78.4583 64.5833 77.8281 65.5885 77.8281C68.1406 77.8281 67.4271 81.2604 67.4271 81.2604C68.6927 80.9844 69.7292 79.6927 69.1354 78.0729C70.0625 77.8698 70.9323 77.3802 71.6146 76.6042C70.9271 75.9427 70.1458 75.4323 69.1354 75.2552C69.7344 73.2865 68.9375 72.3229 67.2083 71.9167C67.5573 72.6719 67.5729 73.3698 67.4531 74.0312C64.7396 73.2604 60.5781 74.4844 60.5781 79.1771C60.5781 83.8333 63.8125 87.7552 69.8698 86.776C68.4271 87.4687 67.6979 88.875 67.5469 90.4531C68.6458 90.026 69.8698 89.9635 69.8698 89.9635C69.1614 91.2135 68.1771 92.2917 68.2187 94.7448C69.3437 94.2344 70.3854 93.2865 71.8281 93.8854C69.5677 98.3333 72.3437 104.448 79.4062 105.896C76.8229 102.865 75.5573 99.5937 75.5573 96.3385C75.5573 85.7812 78.4896 84.0052 78.4896 76.6667C78.4896 73.5937 76.9114 70.276 73.7812 68.026V68.1458C75.8489 67.5937 77.1771 66.5729 77.9375 65.1927C73.2135 63.849 66.3437 63.875 62.6562 65.3281C58.4167 65.8177 55.4583 69.0677 54.5885 70.7187C53.7135 72.3698 52.0208 78.3385 54.5885 83.7135C57.3958 89.5937 70.6354 117.661 74.7604 126.49C75.6354 128.359 76.1667 130.344 76.1667 132.495C76.1667 137.901 71.2135 139.786 68.401 139.786C65.0417 139.786 61.6198 137.224 61.6198 134.026C61.6198 132 62.7187 130.776 64.3073 130.776C68.1094 130.776 67.875 134.01 67.1198 136.047C69.4844 134.984 70.8594 133.083 70.4844 131.083C71.8229 130.901 73.0937 130.266 74.2708 128.937C73.3489 127.771 72.2187 126.885 70.4844 126.854C71.2396 123.75 69.1614 122.437 67.1198 121.708C67.7656 123.99 68.1875 126.609 64.3073 126.609C61.4792 126.609 59.25 127.099 57.9479 128.937C57.875 126.49 57.6458 116.807 57.6458 116.807C57.4792 113.167 62.5156 113.271 65.7135 114.354C64.5052 110.161 62.0312 107.896 56.2969 108.469C57.6875 107.891 59.1719 106.578 59.1719 104.057C59.1719 100.646 56.401 96.8646 54.5885 95.75L53.6771 131.271Z" fill="#FEC50C"/>
<path d="M53.6771 158.589C53.6771 149.479 61.8542 144.797 68.2812 144.797C76.9375 144.797 81.5469 149.974 81.5469 156.75C81.5469 160.589 80.8437 163 79.0729 166.677C79.0729 166.677 64.7917 196.375 59.2344 207.859C58.5417 209.292 58.3177 210.922 58.3177 213.313C58.3177 217.005 61.8958 220.026 65.651 220.115C69.0729 220.203 72.8021 216.927 72.8021 213.193C72.8021 208.656 70.4531 206.635 68.0364 206.635C65.0625 206.635 63.8802 207.854 63.8802 209.943C63.8802 211.396 64.5833 212.026 65.5885 212.026C68.1406 212.026 67.4271 208.594 67.4271 208.594C68.6927 208.87 69.7292 210.167 69.1354 211.781C70.0625 211.99 70.9323 212.474 71.6146 213.255C70.9271 213.917 70.1458 214.427 69.1354 214.599C69.7344 216.573 68.9375 217.536 67.2083 217.943C67.5573 217.182 67.5729 216.484 67.4531 215.828C64.7396 216.599 60.5781 215.37 60.5781 210.677C60.5781 206.021 63.8125 202.099 69.8698 203.078C68.4271 202.391 67.6979 200.979 67.5469 199.401C68.6458 199.833 69.8698 199.891 69.8698 199.891C69.1614 198.646 68.1771 197.568 68.2187 195.115C69.3437 195.625 70.3854 196.568 71.8281 195.969C69.5677 191.526 72.3437 185.406 79.4062 183.958C76.8229 186.99 75.5573 190.26 75.5573 193.521C75.5573 204.078 78.4896 205.854 78.4896 213.193C78.4896 216.26 76.9114 219.578 73.7812 221.833V221.708C75.8489 222.266 77.1771 223.281 77.9375 224.667C73.2135 226.005 66.3437 225.979 62.6562 224.531C58.4167 224.042 55.4583 220.786 54.5885 219.135C53.7135 217.484 52.0208 211.521 54.5885 206.146C57.3958 200.266 70.6354 172.193 74.7604 163.37C75.6354 161.5 76.1667 159.51 76.1667 157.365C76.1667 151.958 71.2135 150.073 68.401 150.073C65.0417 150.073 61.6198 152.63 61.6198 155.833C61.6198 157.859 62.7187 159.078 64.3073 159.078C68.1094 159.078 67.875 155.844 67.1198 153.807C69.4844 154.875 70.8594 156.771 70.4844 158.771C71.8229 158.958 73.0937 159.594 74.2708 160.917C73.3489 162.089 72.2187 162.969 70.4844 163C71.2396 166.109 69.1614 167.422 67.1198 168.151C67.7656 165.87 68.1875 163.245 64.3073 163.245C61.4792 163.245 59.25 162.755 57.9479 160.917C57.875 163.37 57.6458 173.052 57.6458 173.052C57.4792 176.693 62.5156 176.589 65.7135 175.505C64.5052 179.693 62.0312 181.958 56.2969 181.385C57.6875 181.969 59.1719 183.276 59.1719 185.797C59.1719 189.208 56.401 192.99 54.5885 194.109L53.6771 158.589Z" fill="#FEC50C"/>
<path d="M54.5833 416.568C54.5833 416.568 50.2656 420.198 48.8021 418.375C46.4427 415.448 56.0521 400.865 56.0521 395.734C56.0521 387.302 50.4271 385.01 43.4844 383.807C38.8229 383 31.2344 384.146 31.2344 384.146C32.6667 386.063 33.5937 386.63 36 386.786C33.3229 388.177 30.5937 391.198 30.5937 395.896C30.5937 403.151 33.5781 406.141 33.5781 414.313C33.5781 418.849 29.8594 424.62 29.8594 424.62C36.4323 423.964 39.6875 417.875 37.8333 413.016C38.8802 412.865 39.8333 413.099 40.6458 413.87C41.1302 412.521 40.3698 410.958 39.3542 409.609C40.1719 409.172 40.7708 409.432 42.0781 409.703C41.9531 408.313 41.1198 406.839 39.0833 405.448C44.9948 406.984 48.6302 402.865 48.6302 398.552C48.6302 395.297 46.3489 392.964 44.1198 392.964C43.3958 392.964 42.3385 393.26 41.7396 393.708C41.3177 392.807 41.5364 391.609 41.9687 390.714C40.3333 391.146 39.2969 392.115 40.0364 394.141C38.7812 394.255 37.7812 394.677 37.0989 395.484C37.7917 396.37 38.8333 396.875 40.0364 396.833C39.1198 398.724 40.1406 399.776 41.625 400.635C41.625 400.635 40.6823 396.833 43.0937 396.833C44.1771 396.833 45.1667 397.188 45.1667 398.786C45.1667 400.177 43.9479 402.104 41.1354 401.984C38.3229 401.859 36.0417 400.042 36.0417 395.552C36.0417 391.411 39.3854 389.354 43.7864 389.219C47.7552 389.099 50.75 391.25 50.75 395.344C50.75 400.792 42.8854 413.214 42.8854 418.073C42.8854 421.714 46.1614 423.75 49.3646 423.75C53.526 423.75 57.0312 419.63 57.0312 419.63L54.5885 416.568H54.5833Z" fill="#FEC50C"/>
<path d="M55.4948 318.068C55.4948 308.958 47.3177 304.276 40.8906 304.276C32.2344 304.276 27.625 309.453 27.625 316.229C27.625 320.068 28.3281 322.479 30.0989 326.156C30.0989 326.156 44.3802 355.854 49.9375 367.339C50.6302 368.771 50.8542 370.401 50.8542 372.792C50.8542 376.484 47.276 379.5 43.5208 379.594C40.0989 379.677 36.3646 376.401 36.3646 372.667C36.3646 368.135 38.7187 366.109 41.1354 366.109C44.1094 366.109 45.2917 367.333 45.2917 369.422C45.2917 370.875 44.5885 371.505 43.5833 371.505C41.0312 371.505 41.7448 368.073 41.7448 368.073C40.4792 368.349 39.4427 369.646 40.0364 371.26C39.1094 371.464 38.2396 371.953 37.5573 372.729C38.2448 373.391 39.026 373.906 40.0364 374.078C39.4375 376.052 40.2344 377.016 41.9583 377.417C41.6146 376.661 41.5989 375.964 41.7187 375.302C44.4323 376.078 48.5937 374.849 48.5937 370.156C48.5937 365.5 45.3594 361.578 39.3021 362.557C40.7448 361.87 41.4739 360.458 41.625 358.88C40.526 359.307 39.3021 359.37 39.3021 359.37C40.0104 358.12 40.9948 357.042 40.9531 354.589C39.8281 355.099 38.7864 356.047 37.3437 355.448C39.6042 351 36.8281 344.885 29.7656 343.438C32.3489 346.469 33.6146 349.74 33.6146 353C33.6146 363.557 30.6823 365.328 30.6823 372.672C30.6823 375.74 32.2604 379.057 35.3906 381.313V381.188C33.3229 381.74 31.9948 382.76 31.2344 384.146C35.9583 385.484 42.8281 385.458 46.5156 384.005C50.7552 383.516 53.7135 380.266 54.5833 378.615C55.4583 376.964 57.151 370.995 54.5833 365.625C51.776 359.74 38.5364 331.672 34.4114 322.849C33.5364 320.974 33.0052 318.99 33.0052 316.844C33.0052 311.438 37.9583 309.547 40.7708 309.547C44.1302 309.547 47.5521 312.109 47.5521 315.307C47.5521 317.339 46.4531 318.557 44.8646 318.557C41.0625 318.557 41.2969 315.323 42.0521 313.286C39.6875 314.349 38.3125 316.25 38.6875 318.25C37.3489 318.432 36.0781 319.068 34.901 320.396C35.8229 321.563 36.9531 322.448 38.6875 322.479C37.9323 325.583 40.0104 326.896 42.0521 327.625C41.4062 325.349 40.9844 322.724 44.8646 322.724C47.6927 322.724 49.9219 322.234 51.2239 320.396C51.2969 322.849 51.526 332.531 51.526 332.531C51.6927 336.167 46.6562 336.063 43.4583 334.979C44.6667 339.172 47.1406 341.438 52.875 340.865C51.4844 341.448 50 342.755 50 345.276C50 348.688 52.7708 352.469 54.5833 353.583L55.4948 318.063V318.068Z" fill="#FEC50C"/>
<path d="M55.4948 290.745C55.4948 299.854 47.3177 304.536 40.8906 304.536C32.2344 304.536 27.625 299.359 27.625 292.583C27.625 288.745 28.3281 286.333 30.0989 282.656C30.0989 282.656 44.3802 252.958 49.9375 241.474C50.6302 240.042 50.8542 238.411 50.8542 236.021C50.8542 232.328 47.276 229.312 43.5208 229.219C40.0989 229.13 36.3646 232.411 36.3646 236.141C36.3646 240.677 38.7187 242.698 41.1354 242.698C44.1094 242.698 45.2917 241.479 45.2917 239.391C45.2917 237.937 44.5885 237.307 43.5833 237.307C41.0312 237.307 41.7448 240.74 41.7448 240.74C40.4792 240.464 39.4427 239.167 40.0364 237.552C39.1094 237.344 38.2396 236.859 37.5573 236.083C38.2448 235.417 39.026 234.906 40.0364 234.734C39.4375 232.76 40.2344 231.797 41.9583 231.396C41.6146 232.151 41.5989 232.849 41.7187 233.51C44.4323 232.734 48.5937 233.964 48.5937 238.656C48.5937 243.312 45.3594 247.234 39.3021 246.255C40.7448 246.943 41.4739 248.354 41.625 249.932C40.526 249.5 39.3021 249.443 39.3021 249.443C40.0104 250.693 40.9948 251.766 40.9531 254.219C39.8281 253.708 38.7864 252.766 37.3437 253.365C39.6042 257.812 36.8281 263.927 29.7656 265.375C32.3489 262.344 33.6146 259.073 33.6146 255.812C33.6146 245.255 30.6823 243.484 30.6823 236.141C30.6823 233.073 32.2604 229.755 35.3906 227.5V227.625C33.3229 227.068 31.9948 226.052 31.2344 224.667C35.9583 223.328 42.8281 223.354 46.5156 224.802C50.7552 225.297 53.7135 228.547 54.5833 230.198C55.4583 231.849 57.151 237.818 54.5833 243.187C51.776 249.068 38.5364 277.141 34.4114 285.964C33.5364 287.839 33.0052 289.823 33.0052 291.969C33.0052 297.375 37.9583 299.266 40.7708 299.266C44.1302 299.266 47.5521 296.703 47.5521 293.505C47.5521 291.474 46.4531 290.255 44.8646 290.255C41.0625 290.255 41.2969 293.49 42.0521 295.526C39.6875 294.464 38.3125 292.562 38.6875 290.562C37.3489 290.38 36.0781 289.745 34.901 288.417C35.8229 287.25 36.9531 286.365 38.6875 286.333C37.9323 283.229 40.0104 281.911 42.0521 281.187C41.4062 283.464 40.9844 286.089 44.8646 286.089C47.6927 286.089 49.9219 286.578 51.2239 288.417C51.2969 285.964 51.526 276.281 51.526 276.281C51.6927 272.646 46.6562 272.75 43.4583 273.833C44.6667 269.641 47.1406 267.375 52.875 267.948C51.4844 267.365 50 266.057 50 263.536C50 260.125 52.7708 256.344 54.5833 255.229L55.4948 290.745Z" fill="#FEC50C"/>
<path d="M54.5833 416.568C54.5833 416.568 58.9062 420.198 60.3698 418.375C62.7292 415.448 53.1198 400.865 53.1198 395.734C53.1198 387.302 58.7448 385.01 65.6875 383.807C70.3489 383 77.9375 384.146 77.9375 384.146C76.5052 386.063 75.5781 386.63 73.1719 386.786C75.8489 388.177 78.5781 391.198 78.5781 395.896C78.5781 403.151 75.5937 406.141 75.5937 414.313C75.5937 418.849 79.3125 424.62 79.3125 424.62C72.7396 423.964 69.4844 417.875 71.3385 413.016C70.2917 412.865 69.3385 413.099 68.526 413.87C68.0417 412.521 68.8021 410.958 69.8177 409.609C69 409.172 68.401 409.432 67.0937 409.703C67.2187 408.313 68.0521 406.839 70.0885 405.448C64.1771 406.984 60.5417 402.865 60.5417 398.552C60.5417 395.297 62.8229 392.964 65.0521 392.964C65.776 392.964 66.8333 393.26 67.4323 393.708C67.8542 392.807 67.6354 391.609 67.2031 390.714C68.8385 391.146 69.875 392.115 69.1354 394.141C70.3906 394.255 71.3906 394.677 72.0729 395.484C71.3802 396.37 70.3385 396.875 69.1354 396.833C70.0521 398.724 69.0312 399.776 67.5469 400.635C67.5469 400.635 68.4896 396.833 66.0781 396.833C64.9948 396.833 64.0052 397.188 64.0052 398.786C64.0052 400.177 65.2239 402.104 68.0364 401.984C70.8489 401.859 73.125 400.042 73.125 395.552C73.125 391.411 69.7864 389.354 65.3854 389.219C61.4167 389.099 58.4219 391.25 58.4219 395.344C58.4219 400.792 66.2864 413.214 66.2864 418.073C66.2864 421.714 63.0104 423.75 59.8073 423.75C55.6458 423.75 52.1406 419.63 52.1406 419.63L54.5833 416.568Z" fill="#FEC50C"/>
<path d="M53.6771 318.068C53.6771 308.958 61.8542 304.276 68.2812 304.276C76.9375 304.276 81.5469 309.453 81.5469 316.229C81.5469 320.068 80.8437 322.479 79.0729 326.156C79.0729 326.156 64.7917 355.854 59.2344 367.339C58.5417 368.771 58.3177 370.401 58.3177 372.792C58.3177 376.484 61.8958 379.5 65.651 379.594C69.0729 379.677 72.8021 376.401 72.8021 372.667C72.8021 368.135 70.4531 366.109 68.0364 366.109C65.0625 366.109 63.8802 367.333 63.8802 369.422C63.8802 370.875 64.5833 371.505 65.5885 371.505C68.1406 371.505 67.4271 368.073 67.4271 368.073C68.6927 368.349 69.7292 369.646 69.1354 371.26C70.0625 371.464 70.9323 371.953 71.6146 372.729C70.9271 373.391 70.1458 373.906 69.1354 374.078C69.7344 376.052 68.9375 377.016 67.2083 377.417C67.5573 376.661 67.5729 375.964 67.4531 375.302C64.7396 376.078 60.5781 374.849 60.5781 370.156C60.5781 365.5 63.8125 361.578 69.8698 362.557C68.4271 361.87 67.6979 360.458 67.5469 358.88C68.6458 359.307 69.8698 359.37 69.8698 359.37C69.1614 358.12 68.1771 357.042 68.2187 354.589C69.3437 355.099 70.3854 356.047 71.8281 355.448C69.5677 351 72.3437 344.885 79.4062 343.438C76.8229 346.469 75.5573 349.74 75.5573 353C75.5573 363.557 78.4896 365.328 78.4896 372.672C78.4896 375.74 76.9114 379.057 73.7812 381.313V381.188C75.8489 381.74 77.1771 382.76 77.9375 384.146C73.2135 385.484 66.3437 385.458 62.6562 384.005C58.4167 383.516 55.4583 380.266 54.5885 378.615C53.7135 376.964 52.0208 370.995 54.5885 365.625C57.3958 359.74 70.6354 331.672 74.7604 322.849C75.6354 320.974 76.1667 318.99 76.1667 316.844C76.1667 311.438 71.2135 309.547 68.401 309.547C65.0417 309.547 61.6198 312.109 61.6198 315.307C61.6198 317.339 62.7187 318.557 64.3073 318.557C68.1094 318.557 67.875 315.323 67.1198 313.286C69.4844 314.349 70.8594 316.25 70.4844 318.25C71.8229 318.432 73.0937 319.068 74.2708 320.396C73.3489 321.563 72.2187 322.448 70.4844 322.479C71.2396 325.583 69.1614 326.896 67.1198 327.625C67.7656 325.349 68.1875 322.724 64.3073 322.724C61.4792 322.724 59.25 322.234 57.9479 320.396C57.875 322.849 57.6458 332.531 57.6458 332.531C57.4792 336.167 62.5156 336.063 65.7135 334.979C64.5052 339.172 62.0312 341.438 56.2969 340.865C57.6875 341.448 59.1719 342.755 59.1719 345.276C59.1719 348.688 56.401 352.469 54.5885 353.583L53.6771 318.063V318.068Z" fill="#FEC50C"/>
<path d="M53.6771 290.745C53.6771 299.854 61.8542 304.536 68.2812 304.536C76.9375 304.536 81.5469 299.359 81.5469 292.583C81.5469 288.745 80.8437 286.333 79.0729 282.656C79.0729 282.656 64.7917 252.958 59.2344 241.474C58.5417 240.042 58.3177 238.411 58.3177 236.021C58.3177 232.328 61.8958 229.312 65.651 229.219C69.0729 229.13 72.8021 232.411 72.8021 236.141C72.8021 240.677 70.4531 242.698 68.0364 242.698C65.0625 242.698 63.8802 241.479 63.8802 239.391C63.8802 237.937 64.5833 237.307 65.5885 237.307C68.1406 237.307 67.4271 240.74 67.4271 240.74C68.6927 240.464 69.7292 239.167 69.1354 237.552C70.0625 237.344 70.9323 236.859 71.6146 236.083C70.9271 235.417 70.1458 234.906 69.1354 234.734C69.7344 232.76 68.9375 231.797 67.2083 231.396C67.5573 232.151 67.5729 232.849 67.4531 233.51C64.7396 232.734 60.5781 233.964 60.5781 238.656C60.5781 243.312 63.8125 247.234 69.8698 246.255C68.4271 246.943 67.6979 248.354 67.5469 249.932C68.6458 249.5 69.8698 249.443 69.8698 249.443C69.1614 250.693 68.1771 251.766 68.2187 254.219C69.3437 253.708 70.3854 252.766 71.8281 253.365C69.5677 257.812 72.3437 263.927 79.4062 265.375C76.8229 262.344 75.5573 259.073 75.5573 255.812C75.5573 245.255 78.4896 243.484 78.4896 236.141C78.4896 233.073 76.9114 229.755 73.7812 227.5V227.625C75.8489 227.068 77.1771 226.052 77.9375 224.667C73.2135 223.328 66.3437 223.354 62.6562 224.802C58.4167 225.297 55.4583 228.547 54.5885 230.198C53.7135 231.849 52.0208 237.818 54.5885 243.187C57.3958 249.068 70.6354 277.141 74.7604 285.964C75.6354 287.839 76.1667 289.823 76.1667 291.969C76.1667 297.375 71.2135 299.266 68.401 299.266C65.0417 299.266 61.6198 296.703 61.6198 293.505C61.6198 291.474 62.7187 290.255 64.3073 290.255C68.1094 290.255 67.875 293.49 67.1198 295.526C69.4844 294.464 70.8594 292.562 70.4844 290.562C71.8229 290.38 73.0937 289.745 74.2708 288.417C73.3489 287.25 72.2187 286.365 70.4844 286.333C71.2396 283.229 69.1614 281.911 67.1198 281.187C67.7656 283.464 68.1875 286.089 64.3073 286.089C61.4792 286.089 59.25 286.578 57.9479 288.417C57.875 285.964 57.6458 276.281 57.6458 276.281C57.4792 272.646 62.5156 272.75 65.7135 273.833C64.5052 269.641 62.0312 267.375 56.2969 267.948C57.6875 267.365 59.1719 266.057 59.1719 263.536C59.1719 260.125 56.401 256.344 54.5885 255.229L53.6771 290.745Z" fill="#FEC50C"/>
</g>
</g>
<defs>
<clipPath id="clip0_764_2689">
<rect width="900" height="450" fill="white"/>
</clipPath>
</defs>
</svg>
