<svg width="900" height="450" viewBox="0 0 900 450" fill="none" xmlns="http://www.w3.org/2000/svg">
<rect width="900" height="450" fill="#1E1E1E"/>
<g clip-path="url(#clip0_0_1)">
<mask id="mask0_0_1" style="mask-type:luminance" maskUnits="userSpaceOnUse" x="0" y="0" width="900" height="450">
<path d="M0 -3.37219e-06H900V450H0V-3.37219e-06Z" fill="white"/>
</mask>
<g mask="url(#mask0_0_1)">
<path d="M0 -3.37219e-06H900V450H0V-3.37219e-06Z" fill="white"/>
<path d="M0 -3.37219e-06H900V450H0V-3.37219e-06Z" fill="white"/>
</g>
<mask id="mask1_0_1" style="mask-type:luminance" maskUnits="userSpaceOnUse" x="0" y="0" width="900" height="450">
<path d="M0 -3.37219e-06H900V450H0V-3.37219e-06Z" fill="white"/>
</mask>
<g mask="url(#mask1_0_1)">
<path d="M0 -3.37219e-06H900V450H0V-3.37219e-06Z" fill="#CE1126"/>
</g>
<mask id="mask2_0_1" style="mask-type:luminance" maskUnits="userSpaceOnUse" x="0" y="112" width="900" height="226">
<path d="M0 112H900V337.333H0V112Z" fill="white"/>
</mask>
<g mask="url(#mask2_0_1)">
<path d="M0 112.333H900V337H0V112.333Z" fill="#002868"/>
</g>
<path d="M539.865 224.667C539.865 226.135 539.833 227.609 539.76 229.078C539.687 230.547 539.578 232.01 539.432 233.474C539.292 234.937 539.109 236.401 538.896 237.854C538.677 239.307 538.427 240.755 538.141 242.198C537.854 243.641 537.531 245.078 537.172 246.505C536.818 247.927 536.422 249.349 535.995 250.755C535.568 252.161 535.109 253.557 534.615 254.943C534.12 256.328 533.589 257.698 533.026 259.057C532.464 260.417 531.87 261.76 531.24 263.089C530.609 264.422 529.948 265.734 529.255 267.031C528.562 268.328 527.839 269.604 527.083 270.87C526.323 272.13 525.536 273.37 524.724 274.594C523.906 275.818 523.057 277.021 522.182 278.203C521.307 279.38 520.401 280.542 519.469 281.677C518.536 282.812 517.573 283.927 516.589 285.016C515.599 286.109 514.583 287.172 513.547 288.214C512.505 289.25 511.443 290.266 510.349 291.255C509.26 292.24 508.146 293.203 507.01 294.135C505.875 295.068 504.714 295.974 503.531 296.849C502.354 297.724 501.151 298.573 499.927 299.391C498.703 300.208 497.464 300.995 496.203 301.75C494.937 302.505 493.661 303.229 492.365 303.922C491.068 304.615 489.75 305.276 488.422 305.906C487.094 306.536 485.75 307.13 484.391 307.693C483.031 308.255 481.661 308.786 480.276 309.281C478.891 309.776 477.495 310.24 476.089 310.667C474.677 311.094 473.26 311.484 471.833 311.839C470.411 312.198 468.974 312.521 467.531 312.807C466.089 313.094 464.641 313.344 463.187 313.563C461.729 313.776 460.271 313.958 458.807 314.099C457.344 314.245 455.88 314.354 454.411 314.427C452.943 314.5 451.469 314.536 450 314.536C448.531 314.536 447.057 314.5 445.589 314.427C444.12 314.354 442.656 314.245 441.193 314.099C439.729 313.958 438.271 313.776 436.812 313.563C435.359 313.344 433.911 313.094 432.469 312.807C431.026 312.521 429.589 312.198 428.167 311.839C426.74 311.484 425.323 311.094 423.911 310.667C422.505 310.24 421.109 309.776 419.724 309.281C418.339 308.786 416.969 308.255 415.609 307.693C414.25 307.13 412.906 306.536 411.578 305.906C410.245 305.276 408.932 304.615 407.635 303.922C406.339 303.229 405.062 302.505 403.797 301.75C402.536 300.995 401.297 300.208 400.073 299.391C398.849 298.573 397.646 297.724 396.469 296.849C395.286 295.974 394.125 295.068 392.99 294.135C391.854 293.203 390.74 292.24 389.651 291.255C388.557 290.266 387.495 289.25 386.453 288.214C385.417 287.172 384.401 286.109 383.411 285.016C382.427 283.927 381.464 282.812 380.531 281.677C379.599 280.542 378.693 279.38 377.818 278.203C376.943 277.021 376.094 275.818 375.276 274.594C374.464 273.37 373.677 272.13 372.917 270.87C372.161 269.604 371.437 268.328 370.745 267.031C370.052 265.734 369.391 264.422 368.76 263.089C368.13 261.76 367.536 260.417 366.974 259.057C366.411 257.698 365.88 256.328 365.385 254.943C364.891 253.557 364.427 252.161 364.005 250.755C363.578 249.349 363.182 247.927 362.828 246.505C362.469 245.078 362.146 243.641 361.859 242.198C361.573 240.755 361.323 239.307 361.104 237.854C360.891 236.401 360.708 234.937 360.568 233.474C360.422 232.01 360.312 230.547 360.24 229.078C360.167 227.609 360.135 226.135 360.135 224.667C360.135 223.198 360.167 221.724 360.24 220.255C360.312 218.786 360.422 217.323 360.568 215.859C360.708 214.396 360.891 212.937 361.104 211.479C361.323 210.026 361.573 208.578 361.859 207.135C362.146 205.693 362.469 204.26 362.828 202.833C363.182 201.406 363.578 199.99 364.005 198.578C364.432 197.172 364.891 195.776 365.385 194.391C365.88 193.005 366.411 191.635 366.974 190.276C367.536 188.917 368.13 187.573 368.76 186.245C369.391 184.917 370.052 183.599 370.745 182.302C371.437 181.005 372.161 179.729 372.917 178.469C373.677 177.203 374.464 175.964 375.276 174.74C376.094 173.516 376.943 172.312 377.818 171.135C378.693 169.953 379.599 168.792 380.531 167.656C381.464 166.521 382.427 165.406 383.411 164.318C384.401 163.224 385.417 162.161 386.453 161.12C387.495 160.083 388.557 159.068 389.651 158.078C390.74 157.094 391.854 156.13 392.99 155.198C394.125 154.266 395.286 153.359 396.469 152.484C397.646 151.609 398.849 150.76 400.073 149.948C401.297 149.13 402.536 148.344 403.797 147.583C405.062 146.828 406.339 146.104 407.635 145.411C408.932 144.719 410.245 144.057 411.578 143.427C412.906 142.802 414.25 142.203 415.609 141.641C416.969 141.078 418.339 140.547 419.724 140.052C421.109 139.557 422.505 139.099 423.911 138.672C425.323 138.245 426.74 137.849 428.167 137.495C429.589 137.135 431.026 136.812 432.469 136.526C433.911 136.24 435.359 135.99 436.812 135.771C438.271 135.557 439.729 135.375 441.193 135.234C442.656 135.089 444.12 134.979 445.589 134.906C447.057 134.839 448.531 134.802 450 134.802C451.469 134.802 452.943 134.839 454.411 134.906C455.88 134.979 457.344 135.089 458.807 135.234C460.271 135.375 461.729 135.557 463.187 135.771C464.641 135.99 466.089 136.24 467.531 136.526C468.974 136.812 470.411 137.135 471.833 137.495C473.26 137.849 474.677 138.245 476.089 138.672C477.495 139.099 478.891 139.557 480.276 140.052C481.661 140.547 483.031 141.078 484.391 141.641C485.75 142.203 487.094 142.802 488.422 143.427C489.75 144.057 491.068 144.719 492.365 145.411C493.661 146.104 494.937 146.828 496.203 147.583C497.464 148.344 498.703 149.13 499.927 149.948C501.151 150.76 502.354 151.609 503.531 152.484C504.714 153.359 505.875 154.266 507.01 155.198C508.146 156.13 509.26 157.094 510.349 158.078C511.443 159.068 512.505 160.083 513.547 161.12C514.583 162.161 515.599 163.224 516.589 164.318C517.573 165.406 518.536 166.521 519.469 167.656C520.401 168.792 521.307 169.953 522.182 171.135C523.057 172.312 523.906 173.516 524.724 174.74C525.536 175.964 526.323 177.203 527.083 178.469C527.839 179.729 528.562 181.005 529.255 182.302C529.948 183.599 530.609 184.917 531.24 186.245C531.87 187.573 532.464 188.917 533.026 190.276C533.589 191.635 534.12 193.005 534.615 194.391C535.109 195.776 535.568 197.172 535.995 198.578C536.422 199.99 536.818 201.406 537.172 202.833C537.531 204.26 537.854 205.693 538.141 207.135C538.427 208.578 538.677 210.026 538.896 211.479C539.109 212.937 539.292 214.396 539.432 215.859C539.578 217.323 539.687 218.786 539.76 220.255C539.833 221.724 539.865 223.198 539.865 224.667Z" fill="white"/>
</g>
<defs>
<clipPath id="clip0_0_1">
<rect width="900" height="450" fill="white"/>
</clipPath>
</defs>
</svg>
