<svg width="900" height="450" viewBox="0 0 900 450" fill="none" xmlns="http://www.w3.org/2000/svg">
<g clip-path="url(#clip0_764_2823)">
<path d="M900 0H0V450H900V0Z" fill="#1E1E1E"/>
<mask id="mask0_764_2823" style="mask-type:luminance" maskUnits="userSpaceOnUse" x="0" y="0" width="900" height="450">
<path d="M900 0H0V450H900V0Z" fill="white"/>
</mask>
<g mask="url(#mask0_764_2823)">
<mask id="mask1_764_2823" style="mask-type:luminance" maskUnits="userSpaceOnUse" x="0" y="0" width="900" height="450">
<path d="M0 0H900V450H0V0Z" fill="white"/>
</mask>
<g mask="url(#mask1_764_2823)">
<path d="M0 0H900V450H0V0Z" fill="white"/>
<path d="M0 0H900V450H0V0Z" fill="white"/>
</g>
<mask id="mask2_764_2823" style="mask-type:luminance" maskUnits="userSpaceOnUse" x="0" y="0" width="900" height="450">
<path d="M0 0H900V450H0V0Z" fill="white"/>
</mask>
<g mask="url(#mask2_764_2823)">
<path d="M0 0H900V450H0V0Z" fill="#ED1C24"/>
</g>
<mask id="mask3_764_2823" style="mask-type:luminance" maskUnits="userSpaceOnUse" x="0" y="112" width="900" height="225">
<path d="M0 112H900V337H0V112Z" fill="white"/>
</mask>
<g mask="url(#mask3_764_2823)">
<path d="M0 112.333H900V336.667H0V112.333Z" fill="white"/>
</g>
<path d="M446.938 112.333C442.115 122.49 433.031 129.589 424.349 136.302C422.922 137.552 419.37 139.964 421.948 141.802C424.156 139.339 430.208 142.604 426.693 145.255C423.536 148.208 419.198 149.286 415.698 151.724C412.594 153.406 409.448 155.167 406.99 157.745C406.823 161.771 411.99 159.542 414.083 161.219C416.818 164.141 412.927 169.057 409.344 167.932C404.766 168.073 401.604 172.104 399.87 175.948C396.286 181.49 389.495 183.13 384.094 186.286C381 188.089 377.995 190.083 375.12 192.188C371.406 194.724 374.635 199.75 378.583 198.516C382.849 198.089 386.688 194.74 391.099 195.708C395.104 197.115 396.224 202.344 394.859 205.995C393.854 208.922 391.401 210.984 389.443 213.266C386.255 216.495 382.089 218.589 377.698 219.589C373.453 221.01 369.641 223.615 366.854 227.125C363.625 230.375 360.406 233.682 356.693 236.396C355.516 239.385 358.828 241.938 361.589 241.859C367.406 241.495 371.438 236.734 376.391 234.286C380.5 232.438 385.339 236.87 384.333 241.151C384.016 245.318 380.115 247.432 376.646 248.714C366.448 253.839 357.599 261.271 349.734 269.474C348.109 272.792 343.641 271.813 341.234 274.125C339.667 277.052 343.599 278.594 345.948 278.292C356.036 277.078 365.448 272.818 374.365 268.125C377.682 266.536 380.797 264.453 384.245 263.188C387.484 262.391 392 263.797 392.578 267.484C392.573 271.375 388.719 273.526 385.667 275.047C376.25 279.995 365.922 282.729 355.859 286C352.094 284.943 349.255 291.646 353.385 292.849C357.755 294.349 362.401 293.146 366.87 292.953C380.693 290.833 392.776 283.354 405.698 278.521C411.068 276.771 417.406 279.214 420.057 284.245C422.719 288.734 422.479 294.63 419.667 298.99C415.229 308.49 408.479 317.219 399.422 322.677C393.734 325.495 387.094 326.568 382.219 330.88C377.714 332.365 384.479 338.458 385.458 333.625C388.167 329.927 392.943 328.823 397.276 328.672C403.792 327.964 410.708 326.76 415.766 322.255C420.307 318.729 424.776 313.87 430.938 313.792C434.339 314.198 437.708 316.932 441.167 315.266C444.193 313.88 448.938 314.693 449.729 318.411C451.172 322.76 455.656 324.74 459.214 327.073C460.5 328.88 464.781 333.542 465.766 329.432C464.969 326.5 466.109 322.01 469.953 322.99C473.313 323.141 476.516 324.38 479.87 324.583C484.333 325.51 488.057 328.568 490.594 332.255C492.339 334.667 496.156 338.802 498.995 335.609C500.76 332.307 497.396 329.552 494.656 328.37C490.667 325.896 487.255 322.604 483.766 319.484C478.62 314.682 474.177 308.568 473.359 301.391C472.255 294.234 472.833 286.938 473.771 279.802C474.943 275.203 480.818 272.698 484.927 275.135C490.708 277.776 496.453 281.552 503.078 281.141C512.656 281.349 522.495 279.516 531.854 282.286C540.964 285.156 547.474 292.844 556.344 296.167C558.333 297.375 560.875 296.229 561.599 294.104C562.479 292.198 561.859 289.76 560.021 288.677C549.74 278.297 535.688 273.255 523.792 265.146C520.047 264.193 519.365 258.167 522.828 256.427C527.38 253.12 533.823 254.661 537.859 258.073C541.271 260.068 545.115 261.563 549.115 261.568C553.214 260.286 551.224 254.354 547.557 253.906C540.906 250.156 536.146 243.995 530.38 239.109C527.068 236.302 523.438 233.458 518.979 232.911C516.542 232.469 514.047 232.375 511.578 232.536C509.266 230.021 512.349 226.172 515.344 226.484C518.417 226.693 521.469 226.922 524.536 226.495C527.969 226.24 531.391 225.885 534.833 225.865C537.609 227.755 543.161 224.49 540.656 221.224C537.917 218.828 533.958 219.036 530.682 217.802C524.938 215.917 519.083 214.396 513.161 213.198C509.021 212.953 509.531 207.495 513.172 206.896C515.557 206.005 517.625 207.839 519.917 208.12C523.823 208.964 527.859 208.948 531.766 209.802C535.073 208.167 532.516 203.328 529.521 203.047C522.453 200.521 516.344 195.958 510.37 191.521C503.776 186.563 497.797 180.828 491.12 175.984C488.698 174.484 484.729 174.052 484.094 170.724C483.87 167.667 487.469 166.271 490.021 166.984C493.646 168.057 497.021 169.917 500.714 170.833C503.609 171.328 506.594 172.182 509.385 171.818C512.927 169.589 507.865 168.167 506.031 167.396C501.307 164.849 497.109 161.453 492.859 158.214C489.266 155.146 495.906 153.792 498.193 154.974C502.01 156.573 502.443 151.005 499.589 149.604C496.224 148.177 493.333 145.802 490.281 143.729C484.771 139.807 478.531 136.703 471.755 135.839C464.161 135.078 457.068 130.708 453.042 124.214C450.542 120.51 448.708 116.417 446.938 112.333ZM421.99 154.948C425.906 155.063 425.302 162.12 421.448 161.646C417.708 161.406 417.938 154.188 421.99 154.948ZM458.917 158.745C462.724 158.063 463.531 165.016 459.729 165.344C455.76 166.052 454.292 158.307 458.917 158.745ZM448.099 159.651C451.964 160.411 451.276 167.141 447.38 167.198C444.526 167.833 441.453 169.781 438.568 168.323C436.224 165.839 439.615 162.172 442.234 161.365C444.24 160.958 446.089 160.047 448.099 159.651ZM472.995 159.682C476.714 161.036 475.401 167.609 471.474 167.526C467.766 168.021 466.036 161.828 469.495 160.359C470.62 159.964 471.792 159.63 472.995 159.682ZM431.005 167.135C433.74 169.74 432.125 174.766 428.75 175.964C426.318 177.318 423 180.521 420.354 177.885C418.917 174.672 422.521 172.245 424.646 170.464C426.536 168.99 428.63 167.651 431.005 167.135ZM462.255 181.661C466.177 183.51 464.188 190.573 459.885 190.13C456.354 189.24 456.818 183.177 460.375 182.698C461.047 182.438 461.661 182.063 462.255 181.661ZM449.823 182.359C453.49 184.078 450.693 190.193 447 189.313C443.172 188.859 443.245 182.135 447.464 182.74C448.26 182.703 449.078 182.682 449.823 182.359ZM476.625 185.87C480.641 184.62 485.474 188.76 484.172 192.958C482.385 196.208 477.958 196.62 474.786 195.406C471.146 195.224 468.698 189.75 471.938 187.432C473.281 186.422 474.974 186.005 476.625 185.87ZM417.297 186.922C420.62 185.115 424.146 190.542 421.323 192.938C419.448 195.688 414.646 196.813 412.526 193.755C410.771 190.766 413.615 185.75 417.297 186.922ZM401.974 189.495C405.745 190.01 408.198 193.427 409.589 196.688C409.932 200.656 404.073 202.839 401.516 199.948C398.641 198.146 396.125 194.438 397.635 190.995C398.563 189.63 400.411 189.068 401.974 189.495ZM493.641 203.844C497.729 202.766 500.698 209.297 497.188 211.661C493.979 214.578 487.74 210.714 489.411 206.557C490.245 205.016 491.906 203.99 493.641 203.844ZM441.604 211.297C445.036 211.734 443.922 217.672 440.755 217.474C437.354 216.844 438.13 210.958 441.604 211.297ZM424.219 214.453C427.016 212.474 430.62 217.302 428.292 219.552C425.505 221.516 421.891 216.766 424.219 214.453ZM451.865 215.036C455.104 217.005 457.031 220.677 457.432 224.385C455.88 227.844 449.88 227.01 449.203 223.323C448.021 220.406 449.115 216.656 451.865 215.036ZM461.516 220.766C465.693 219.719 464.193 228.448 460.703 225.417C459.547 224.042 460.167 221.776 461.516 220.766ZM400.917 226.844C403.682 226.036 407.714 226.885 408.474 230.063C408.797 233.042 405.521 234.594 403.115 235.333C399.26 236.521 395.495 238.474 391.354 238.214C388.245 236.438 387.13 232.807 386.026 229.635C389.021 226.828 393.432 227.651 397.151 226.948C398.406 226.885 399.661 226.854 400.917 226.844ZM494.917 240.521C498.443 238.792 502.24 244.391 499.286 247.01C495.589 251.26 488.479 252.052 484.063 248.479C483.531 244.714 487.286 241.984 490.625 241.443C492.031 241.047 493.427 240.453 494.917 240.521ZM514.745 244.818C518.75 244.13 521.911 249.849 519.047 252.807C516.339 256.891 509.88 257.964 506.182 254.615C504.745 251.229 507.667 247.698 510.776 246.615C512.109 246.042 513.375 245.318 514.745 244.818ZM415.047 250.896C418.755 250.531 422.156 254.214 421.672 257.875C424.359 260.521 419.599 265.448 416.922 262.708C414.563 259.849 414.573 255.969 413.661 252.547C413.62 251.792 414.182 250.807 415.047 250.896ZM443.542 253.031C447.38 251.375 452.344 255.964 450.255 259.849C448.766 263.016 442.943 261.953 443.135 258.286C443.125 256.536 442.984 254.734 443.542 253.031ZM429.677 255.516C433.526 254.635 437.057 259.62 434.917 262.953C431.083 263.292 429.089 258.74 429.677 255.516Z" fill="#00A651"/>
</g>
</g>
<defs>
<clipPath id="clip0_764_2823">
<rect width="900" height="450" fill="white"/>
</clipPath>
</defs>
</svg>
