<svg width="900" height="450" viewBox="0 0 900 450" fill="none" xmlns="http://www.w3.org/2000/svg">
<g clip-path="url(#clip0_764_2863)">
<path d="M900 0H0V450H900V0Z" fill="#1E1E1E"/>
<mask id="mask0_764_2863" style="mask-type:luminance" maskUnits="userSpaceOnUse" x="0" y="0" width="900" height="450">
<path d="M900 0H0V450H900V0Z" fill="white"/>
</mask>
<g mask="url(#mask0_764_2863)">
<mask id="mask1_764_2863" style="mask-type:luminance" maskUnits="userSpaceOnUse" x="0" y="0" width="900" height="450">
<path d="M0 0H900V450H0V0Z" fill="white"/>
</mask>
<g mask="url(#mask1_764_2863)">
<path d="M0 0H900V450H0V0Z" fill="white"/>
<path d="M0 0H900V450H0V0Z" fill="white"/>
<path d="M0 0H900V450H0V0Z" fill="#66CCFF"/>
</g>
<path d="M300 409.953L449.776 388.984L599.552 409.953L449.776 40L300 409.953Z" fill="white"/>
<path d="M320.219 409.953L449.776 388.984L579.333 409.953L449.776 89.4271L320.219 409.953Z" fill="black"/>
<path d="M300 409.953H599.552L449.776 224.229L300 409.953Z" fill="#FCD116"/>
</g>
</g>
<defs>
<clipPath id="clip0_764_2863">
<rect width="900" height="450" fill="white"/>
</clipPath>
</defs>
</svg>
