<svg width="900" height="450" viewBox="0 0 900 450" fill="none" xmlns="http://www.w3.org/2000/svg">
<rect width="900" height="450" fill="#1E1E1E"/>
<g clip-path="url(#clip0_0_1)">
<mask id="mask0_0_1" style="mask-type:luminance" maskUnits="userSpaceOnUse" x="0" y="0" width="900" height="450">
<path d="M0 -3.37219e-06H900V450H0V-3.37219e-06Z" fill="white"/>
</mask>
<g mask="url(#mask0_0_1)">
<path d="M0 -3.37219e-06H900V450H0V-3.37219e-06Z" fill="white"/>
<path d="M0 -3.37219e-06H900V450H0V-3.37219e-06Z" fill="white"/>
</g>
<mask id="mask1_0_1" style="mask-type:luminance" maskUnits="userSpaceOnUse" x="0" y="0" width="900" height="450">
<path d="M0 -3.37219e-06H900V449.333H0V-3.37219e-06Z" fill="white"/>
</mask>
<g mask="url(#mask1_0_1)">
<path d="M0 -3.37219e-06H900V449.333H0V-3.37219e-06Z" fill="#002B7F"/>
</g>
<mask id="mask2_0_1" style="mask-type:luminance" maskUnits="userSpaceOnUse" x="0" y="224" width="900" height="226">
<path d="M0 224H900V450H0V224Z" fill="white"/>
</mask>
<g mask="url(#mask2_0_1)">
<path d="M0 224.669H900V450H0V224.669Z" fill="#CE1126"/>
</g>
<path d="M162.708 91.5833L161.333 138.385H113.839C107.995 127.026 103.167 117.38 103.167 104.312C103.167 93.3802 111.771 84.6979 124.161 84.6979C137.281 84.6979 151.698 89.1198 162.708 91.5833Z" fill="#FFD83D"/>
<path d="M108.849 93.7292V120.75" stroke="black" stroke-width="1.12334" stroke-linecap="round" stroke-linejoin="round"/>
<path d="M112.661 90.974V126.948" stroke="black" stroke-width="1.12334" stroke-linecap="round" stroke-linejoin="round"/>
<path d="M116.474 89.0834V131.938" stroke="black" stroke-width="1.12334" stroke-linecap="round" stroke-linejoin="round"/>
<path d="M120.292 88.1979V121.807" stroke="black" stroke-width="1.12334" stroke-linecap="round" stroke-linejoin="round"/>
<path d="M124.104 88.0313V121.974" stroke="black" stroke-width="1.12334" stroke-linecap="round" stroke-linejoin="round"/>
<path d="M127.922 86.8438V121.958" stroke="black" stroke-width="1.12334" stroke-linecap="round" stroke-linejoin="round"/>
<path d="M131.734 86.8438V121.958" stroke="black" stroke-width="1.12334" stroke-linecap="round" stroke-linejoin="round"/>
<path d="M135.547 87.1875V122.302" stroke="black" stroke-width="1.12334" stroke-linecap="round" stroke-linejoin="round"/>
<path d="M139.365 87.5313V122.646" stroke="black" stroke-width="1.12334" stroke-linecap="round" stroke-linejoin="round"/>
<path d="M143.177 89.7709V124.88" stroke="black" stroke-width="1.12334" stroke-linecap="round" stroke-linejoin="round"/>
<path d="M146.99 90.1146V129.698" stroke="black" stroke-width="1.12334" stroke-linecap="round" stroke-linejoin="round"/>
<path d="M150.807 90.1146V125.224" stroke="black" stroke-width="1.12334" stroke-linecap="round" stroke-linejoin="round"/>
<path d="M154.62 90.1146V125.224" stroke="black" stroke-width="1.12334" stroke-linecap="round" stroke-linejoin="round"/>
<path d="M132.766 88.3125C140.828 89.6406 158.531 97.9271 156.516 109.135C153.651 125.016 144.375 118.641 132.078 116.359L122.786 119.458C119.464 122.849 114.563 125.958 111.255 121.865H105.75V143.375H166.667V91.4063L132.766 88.3125Z" fill="black" stroke="black" stroke-width="1.12334" stroke-linecap="round" stroke-linejoin="round"/>
<path d="M163.74 84.6094C163.74 85.1042 163.646 85.5729 163.458 86.0261C163.271 86.4792 163.005 86.8802 162.656 87.2292C162.307 87.5729 161.911 87.8438 161.458 88.0313C161.005 88.2188 160.531 88.3125 160.042 88.3125C159.552 88.3125 159.078 88.2188 158.625 88.0313C158.172 87.8438 157.771 87.5729 157.427 87.2292C157.078 86.8802 156.813 86.4792 156.625 86.0261C156.438 85.5729 156.344 85.1042 156.344 84.6094C156.344 84.1198 156.438 83.6511 156.625 83.1979C156.813 82.7448 157.078 82.3438 157.427 81.9948C157.771 81.6511 158.172 81.3802 158.625 81.1927C159.078 81.0052 159.552 80.9115 160.042 80.9115C160.531 80.9115 161.005 81.0052 161.458 81.1927C161.911 81.3802 162.307 81.6511 162.656 81.9948C163.005 82.3438 163.271 82.7448 163.458 83.1979C163.646 83.6511 163.74 84.1198 163.74 84.6094Z" fill="#FFD83D" stroke="black" stroke-width="1.49778" stroke-linecap="round" stroke-linejoin="round"/>
<path d="M155.427 82.6094C155.427 83.099 155.333 83.5729 155.146 84.0261C154.958 84.4792 154.688 84.8802 154.344 85.2292C153.995 85.5729 153.594 85.8386 153.141 86.0313C152.688 86.2188 152.219 86.3125 151.729 86.3125C151.234 86.3125 150.766 86.2188 150.313 86.0313C149.859 85.8386 149.458 85.5729 149.109 85.2292C148.766 84.8802 148.495 84.4792 148.307 84.0261C148.12 83.5729 148.026 83.099 148.026 82.6094C148.026 82.1198 148.12 81.6459 148.307 81.1927C148.495 80.7396 148.766 80.3438 149.109 79.9948C149.458 79.6459 149.859 79.3802 150.313 79.1927C150.766 79.0052 151.234 78.9115 151.729 78.9115C152.219 78.9115 152.688 79.0052 153.141 79.1927C153.594 79.3802 153.995 79.6459 154.344 79.9948C154.688 80.3438 154.958 80.7396 155.146 81.1927C155.333 81.6459 155.427 82.1198 155.427 82.6094Z" fill="#FFD83D" stroke="black" stroke-width="1.49778" stroke-linecap="round" stroke-linejoin="round"/>
<path d="M146.99 80.4948C146.99 80.9844 146.896 81.4531 146.708 81.9063C146.521 82.3594 146.255 82.7604 145.906 83.1094C145.563 83.4531 145.161 83.724 144.708 83.9115C144.255 84.099 143.781 84.1927 143.292 84.1927C142.802 84.1927 142.328 84.099 141.875 83.9115C141.422 83.724 141.021 83.4531 140.677 83.1094C140.328 82.7604 140.063 82.3594 139.875 81.9063C139.688 81.4531 139.594 80.9844 139.594 80.4948C139.594 80 139.688 79.5313 139.875 79.0781C140.063 78.625 140.328 78.224 140.677 77.875C141.021 77.5313 141.422 77.2604 141.875 77.0729C142.328 76.8854 142.802 76.7917 143.292 76.7917C143.781 76.7917 144.255 76.8854 144.708 77.0729C145.161 77.2604 145.563 77.5313 145.906 77.875C146.255 78.224 146.521 78.625 146.708 79.0781C146.896 79.5313 146.99 80 146.99 80.4948Z" fill="#FFD83D" stroke="black" stroke-width="1.49778" stroke-linecap="round" stroke-linejoin="round"/>
<path d="M138.526 79.0781C138.526 79.5729 138.432 80.0417 138.24 80.4948C138.052 80.9479 137.786 81.349 137.443 81.6979C137.094 82.0417 136.693 82.3125 136.24 82.5C135.786 82.6875 135.313 82.7813 134.823 82.7813C134.333 82.7813 133.859 82.6875 133.406 82.5C132.953 82.3125 132.557 82.0417 132.208 81.6979C131.859 81.349 131.594 80.9479 131.406 80.4948C131.219 80.0417 131.125 79.5729 131.125 79.0781C131.125 78.5886 131.219 78.1198 131.406 77.6667C131.594 77.2084 131.859 76.8125 132.208 76.4636C132.557 76.1146 132.953 75.849 133.406 75.6615C133.859 75.474 134.333 75.3802 134.823 75.3802C135.313 75.3802 135.786 75.474 136.24 75.6615C136.693 75.849 137.094 76.1146 137.443 76.4636C137.786 76.8125 138.052 77.2084 138.24 77.6667C138.432 78.1198 138.526 78.5886 138.526 79.0781Z" fill="#FFD83D" stroke="black" stroke-width="1.49778" stroke-linecap="round" stroke-linejoin="round"/>
<path d="M130.057 78.2448C130.057 78.7344 129.964 79.2084 129.776 79.6615C129.589 80.1146 129.318 80.5156 128.974 80.8594C128.625 81.2084 128.224 81.474 127.771 81.6615C127.318 81.849 126.849 81.9427 126.354 81.9427C125.865 81.9427 125.396 81.849 124.943 81.6615C124.49 81.474 124.089 81.2084 123.74 80.8594C123.396 80.5156 123.125 80.1146 122.938 79.6615C122.75 79.2084 122.656 78.7344 122.656 78.2448C122.656 77.7552 122.75 77.2813 122.938 76.8281C123.125 76.375 123.396 75.974 123.74 75.6302C124.089 75.2813 124.49 75.0156 124.943 74.8281C125.396 74.6406 125.865 74.5469 126.354 74.5469C126.849 74.5469 127.318 74.6406 127.771 74.8281C128.224 75.0156 128.625 75.2813 128.974 75.6302C129.318 75.974 129.589 76.375 129.776 76.8281C129.964 77.2813 130.057 77.7552 130.057 78.2448Z" fill="#FFD83D" stroke="black" stroke-width="1.49778" stroke-linecap="round" stroke-linejoin="round"/>
<path d="M121.755 78.7188C121.755 79.2084 121.661 79.6823 121.474 80.1354C121.281 80.5886 121.016 80.9896 120.672 81.3334C120.323 81.6823 119.922 81.9479 119.469 82.1354C119.016 82.3229 118.542 82.4167 118.052 82.4167C117.563 82.4167 117.089 82.3229 116.635 82.1354C116.182 81.9479 115.786 81.6823 115.438 81.3334C115.089 80.9896 114.823 80.5886 114.635 80.1354C114.448 79.6823 114.354 79.2084 114.354 78.7188C114.354 78.2292 114.448 77.7552 114.635 77.3021C114.823 76.849 115.089 76.4479 115.438 76.1042C115.786 75.7552 116.182 75.4896 116.635 75.3021C117.089 75.1146 117.563 75.0209 118.052 75.0209C118.542 75.0209 119.016 75.1146 119.469 75.3021C119.922 75.4896 120.323 75.7552 120.672 76.1042C121.016 76.4479 121.281 76.849 121.474 77.3021C121.661 77.7552 121.755 78.2292 121.755 78.7188Z" fill="#FFD83D" stroke="black" stroke-width="1.49778" stroke-linecap="round" stroke-linejoin="round"/>
<path d="M113.839 81.4271C113.839 81.9167 113.745 82.3906 113.557 82.8438C113.37 83.2969 113.099 83.6979 112.755 84.0469C112.406 84.3906 112.005 84.6563 111.552 84.8438C111.099 85.0365 110.63 85.1302 110.135 85.1302C109.646 85.1302 109.177 85.0365 108.724 84.8438C108.271 84.6563 107.87 84.3906 107.521 84.0469C107.177 83.6979 106.906 83.2969 106.719 82.8438C106.531 82.3906 106.438 81.9167 106.438 81.4271C106.438 80.9375 106.531 80.4636 106.719 80.0104C106.906 79.5573 107.177 79.1615 107.521 78.8125C107.87 78.4636 108.271 78.1979 108.724 78.0104C109.177 77.8229 109.646 77.7292 110.135 77.7292C110.63 77.7292 111.099 77.8229 111.552 78.0104C112.005 78.1979 112.406 78.4636 112.755 78.8125C113.099 79.1615 113.37 79.5573 113.557 80.0104C113.745 80.4636 113.839 80.9375 113.839 81.4271Z" fill="#FFD83D" stroke="black" stroke-width="1.49778" stroke-linecap="round" stroke-linejoin="round"/>
<path d="M107.172 86.3334C107.172 86.8229 107.078 87.2969 106.891 87.75C106.703 88.2031 106.432 88.599 106.089 88.9479C105.74 89.2969 105.339 89.5625 104.885 89.75C104.432 89.9375 103.964 90.0313 103.469 90.0313C102.979 90.0313 102.51 89.9375 102.052 89.75C101.599 89.5625 101.203 89.2969 100.854 88.9479C100.505 88.599 100.24 88.2031 100.052 87.75C99.8646 87.2969 99.7708 86.8229 99.7708 86.3334C99.7708 85.8438 99.8646 85.3698 100.052 84.9167C100.24 84.4636 100.505 84.0625 100.854 83.7136C101.203 83.3698 101.599 83.1042 102.052 82.9167C102.51 82.724 102.979 82.6302 103.469 82.6302C103.964 82.6302 104.432 82.724 104.885 82.9167C105.339 83.1042 105.74 83.3698 106.089 83.7136C106.432 84.0625 106.703 84.4636 106.891 84.9167C107.078 85.3698 107.172 85.8438 107.172 86.3334Z" fill="#FFD83D" stroke="black" stroke-width="1.49778" stroke-linecap="round" stroke-linejoin="round"/>
<path d="M102.438 93.1719C102.438 93.6615 102.344 94.1354 102.156 94.5886C101.969 95.0417 101.703 95.4427 101.354 95.7865C101.005 96.1354 100.609 96.4011 100.156 96.5886C99.7031 96.7761 99.2292 96.8698 98.7396 96.8698C98.25 96.8698 97.7761 96.7761 97.3229 96.5886C96.8698 96.4011 96.4688 96.1354 96.1198 95.7865C95.7761 95.4427 95.5104 95.0417 95.3177 94.5886C95.1302 94.1354 95.0365 93.6615 95.0365 93.1719C95.0365 92.6823 95.1302 92.2084 95.3177 91.7552C95.5104 91.3021 95.7761 90.9011 96.1198 90.5573C96.4688 90.2084 96.8698 89.9427 97.3229 89.7552C97.7761 89.5677 98.25 89.474 98.7396 89.474C99.2292 89.474 99.7031 89.5677 100.156 89.7552C100.609 89.9427 101.005 90.2084 101.354 90.5573C101.703 90.9011 101.969 91.3021 102.156 91.7552C102.344 92.2084 102.438 92.6823 102.438 93.1719Z" fill="#FFD83D" stroke="black" stroke-width="1.49778" stroke-linecap="round" stroke-linejoin="round"/>
<path d="M100.156 101.219C100.156 101.708 100.063 102.177 99.875 102.63C99.6875 103.089 99.4219 103.484 99.0729 103.833C98.7292 104.182 98.3281 104.448 97.875 104.635C97.4219 104.823 96.9479 104.917 96.4584 104.917C95.9688 104.917 95.4948 104.823 95.0417 104.635C94.5886 104.448 94.1875 104.182 93.8438 103.833C93.4948 103.484 93.2292 103.089 93.0417 102.63C92.8542 102.177 92.7604 101.708 92.7604 101.219C92.7604 100.724 92.8542 100.255 93.0417 99.8021C93.2292 99.349 93.4948 98.9479 93.8438 98.599C94.1875 98.2552 94.5886 97.9844 95.0417 97.7969C95.4948 97.6094 95.9688 97.5157 96.4584 97.5157C96.9479 97.5157 97.4219 97.6094 97.875 97.7969C98.3281 97.9844 98.7292 98.2552 99.0729 98.599C99.4219 98.9479 99.6875 99.349 99.875 99.8021C100.063 100.255 100.156 100.724 100.156 101.219Z" fill="#FFD83D" stroke="black" stroke-width="1.49778" stroke-linecap="round" stroke-linejoin="round"/>
<path d="M100.245 109.563C100.245 110.052 100.151 110.526 99.9635 110.979C99.776 111.432 99.5052 111.833 99.1615 112.177C98.8125 112.526 98.4115 112.792 97.9583 112.979C97.5052 113.167 97.0365 113.26 96.5417 113.26C96.0521 113.26 95.5833 113.167 95.1302 112.979C94.6771 112.792 94.276 112.526 93.9271 112.177C93.5833 111.833 93.3125 111.432 93.125 110.979C92.9375 110.526 92.8438 110.052 92.8438 109.563C92.8438 109.073 92.9375 108.599 93.125 108.146C93.3125 107.693 93.5833 107.297 93.9271 106.948C94.276 106.599 94.6771 106.333 95.1302 106.146C95.5833 105.958 96.0521 105.865 96.5417 105.865C97.0365 105.865 97.5052 105.958 97.9583 106.146C98.4115 106.333 98.8125 106.599 99.1615 106.948C99.5052 107.297 99.776 107.693 99.9635 108.146C100.151 108.599 100.245 109.073 100.245 109.563Z" fill="#FFD83D" stroke="black" stroke-width="1.49778" stroke-linecap="round" stroke-linejoin="round"/>
<path d="M101.833 117.734C101.833 118.229 101.74 118.698 101.552 119.151C101.365 119.604 101.099 120.005 100.75 120.354C100.406 120.698 100.005 120.969 99.5521 121.156C99.099 121.344 98.625 121.438 98.1354 121.438C97.6458 121.438 97.1719 121.344 96.7188 121.156C96.2656 120.969 95.8646 120.698 95.5208 120.354C95.1719 120.005 94.9063 119.604 94.7188 119.151C94.5313 118.698 94.4375 118.229 94.4375 117.734C94.4375 117.245 94.5313 116.776 94.7188 116.323C94.9063 115.87 95.1719 115.469 95.5208 115.12C95.8646 114.776 96.2656 114.505 96.7188 114.318C97.1719 114.13 97.6458 114.036 98.1354 114.036C98.625 114.036 99.099 114.13 99.5521 114.318C100.005 114.505 100.406 114.776 100.75 115.12C101.099 115.469 101.365 115.87 101.552 116.323C101.74 116.776 101.833 117.245 101.833 117.734Z" fill="#FFD83D" stroke="black" stroke-width="1.49778" stroke-linecap="round" stroke-linejoin="round"/>
<path d="M161.677 89.5156L161.333 94.3334C152.125 92.9219 139.078 87.7969 126.917 87.7969C115.677 87.7969 106.953 92.2917 106.953 103.625C106.953 114.797 111.688 124.958 117.969 135.286L111.427 138.385C105.583 127.026 100.76 117.38 100.76 104.313C100.76 93.3802 109.359 82.6302 124.161 82.6302C137.281 82.6302 150.667 87.0521 161.677 89.5156Z" fill="#FFD83D" stroke="black" stroke-width="1.49778" stroke-linecap="round" stroke-linejoin="round"/>
<path d="M171.083 91.5833L172.458 138.385H219.953C225.797 127.026 230.625 117.38 230.625 104.312C230.625 93.3802 222.026 84.6979 209.63 84.6979C196.51 84.6979 182.094 89.1198 171.083 91.5833Z" fill="#FFD83D"/>
<path d="M224.943 93.7292V120.75" stroke="black" stroke-width="1.12334" stroke-linecap="round" stroke-linejoin="round"/>
<path d="M221.13 90.974V126.948" stroke="black" stroke-width="1.12334" stroke-linecap="round" stroke-linejoin="round"/>
<path d="M217.318 89.0834V131.938" stroke="black" stroke-width="1.12334" stroke-linecap="round" stroke-linejoin="round"/>
<path d="M213.5 88.1979V121.807" stroke="black" stroke-width="1.12334" stroke-linecap="round" stroke-linejoin="round"/>
<path d="M209.687 88.0313V121.974" stroke="black" stroke-width="1.12334" stroke-linecap="round" stroke-linejoin="round"/>
<path d="M205.87 86.8438V121.958" stroke="black" stroke-width="1.12334" stroke-linecap="round" stroke-linejoin="round"/>
<path d="M202.057 86.8438V121.958" stroke="black" stroke-width="1.12334" stroke-linecap="round" stroke-linejoin="round"/>
<path d="M198.245 87.1875V122.302" stroke="black" stroke-width="1.12334" stroke-linecap="round" stroke-linejoin="round"/>
<path d="M194.427 87.5313V122.646" stroke="black" stroke-width="1.12334" stroke-linecap="round" stroke-linejoin="round"/>
<path d="M190.615 89.7709V124.88" stroke="black" stroke-width="1.12334" stroke-linecap="round" stroke-linejoin="round"/>
<path d="M186.802 90.1146V129.698" stroke="black" stroke-width="1.12334" stroke-linecap="round" stroke-linejoin="round"/>
<path d="M182.984 90.1146V125.224" stroke="black" stroke-width="1.12334" stroke-linecap="round" stroke-linejoin="round"/>
<path d="M179.172 90.1146V125.224" stroke="black" stroke-width="1.12334" stroke-linecap="round" stroke-linejoin="round"/>
<path d="M201.026 88.3125C192.963 89.6406 175.26 97.9271 177.276 109.135C180.141 125.016 189.417 118.641 201.713 116.359L211.005 119.458C214.333 122.849 219.229 125.958 222.536 121.865H228.042V143.375H167.125V91.4063L201.026 88.3125Z" fill="black" stroke="black" stroke-width="1.12334" stroke-linecap="round" stroke-linejoin="round"/>
<path d="M170.052 84.6094C170.052 85.1042 170.146 85.5729 170.333 86.0261C170.521 86.4792 170.786 86.8802 171.135 87.2292C171.484 87.5729 171.88 87.8438 172.333 88.0313C172.786 88.2188 173.26 88.3125 173.75 88.3125C174.24 88.3125 174.713 88.2188 175.167 88.0313C175.62 87.8438 176.021 87.5729 176.365 87.2292C176.713 86.8802 176.979 86.4792 177.167 86.0261C177.359 85.5729 177.453 85.1042 177.453 84.6094C177.453 84.1198 177.359 83.6511 177.167 83.1979C176.979 82.7448 176.713 82.3438 176.365 81.9948C176.021 81.6511 175.62 81.3802 175.167 81.1927C174.713 81.0052 174.24 80.9115 173.75 80.9115C173.26 80.9115 172.786 81.0052 172.333 81.1927C171.88 81.3802 171.484 81.6511 171.135 81.9948C170.786 82.3438 170.521 82.7448 170.333 83.1979C170.146 83.6511 170.052 84.1198 170.052 84.6094Z" fill="#FFD83D" stroke="black" stroke-width="1.49778" stroke-linecap="round" stroke-linejoin="round"/>
<path d="M178.365 82.6094C178.365 83.099 178.458 83.5729 178.646 84.0261C178.833 84.4792 179.104 84.8802 179.448 85.2292C179.797 85.5729 180.198 85.8386 180.651 86.0313C181.104 86.2188 181.573 86.3125 182.068 86.3125C182.557 86.3125 183.026 86.2188 183.479 86.0313C183.932 85.8386 184.333 85.5729 184.682 85.2292C185.026 84.8802 185.297 84.4792 185.484 84.0261C185.672 83.5729 185.766 83.099 185.766 82.6094C185.766 82.1198 185.672 81.6459 185.484 81.1927C185.297 80.7396 185.026 80.3438 184.682 79.9948C184.333 79.6459 183.932 79.3802 183.479 79.1927C183.026 79.0052 182.557 78.9115 182.068 78.9115C181.573 78.9115 181.104 79.0052 180.651 79.1927C180.198 79.3802 179.797 79.6459 179.448 79.9948C179.104 80.3438 178.833 80.7396 178.646 81.1927C178.458 81.6459 178.365 82.1198 178.365 82.6094Z" fill="#FFD83D" stroke="black" stroke-width="1.49778" stroke-linecap="round" stroke-linejoin="round"/>
<path d="M186.802 80.4948C186.802 80.9844 186.896 81.4531 187.083 81.9063C187.271 82.3594 187.536 82.7604 187.885 83.1094C188.229 83.4531 188.63 83.724 189.083 83.9115C189.536 84.099 190.01 84.1927 190.5 84.1927C190.99 84.1927 191.464 84.099 191.917 83.9115C192.37 83.724 192.771 83.4531 193.115 83.1094C193.464 82.7604 193.729 82.3594 193.917 81.9063C194.104 81.4531 194.198 80.9844 194.198 80.4948C194.198 80 194.104 79.5313 193.917 79.0781C193.729 78.625 193.464 78.224 193.115 77.875C192.771 77.5313 192.37 77.2604 191.917 77.0729C191.464 76.8854 190.99 76.7917 190.5 76.7917C190.01 76.7917 189.536 76.8854 189.083 77.0729C188.63 77.2604 188.229 77.5313 187.885 77.875C187.536 78.224 187.271 78.625 187.083 79.0781C186.896 79.5313 186.802 80 186.802 80.4948Z" fill="#FFD83D" stroke="black" stroke-width="1.49778" stroke-linecap="round" stroke-linejoin="round"/>
<path d="M195.271 79.0781C195.271 79.5729 195.365 80.0417 195.552 80.4948C195.74 80.9479 196.005 81.349 196.354 81.6979C196.698 82.0417 197.099 82.3125 197.552 82.5C198.005 82.6875 198.479 82.7813 198.969 82.7813C199.458 82.7813 199.932 82.6875 200.385 82.5C200.839 82.3125 201.234 82.0417 201.583 81.6979C201.932 81.349 202.198 80.9479 202.385 80.4948C202.573 80.0417 202.667 79.5729 202.667 79.0781C202.667 78.5886 202.573 78.1198 202.385 77.6667C202.198 77.2084 201.932 76.8125 201.583 76.4636C201.234 76.1146 200.839 75.849 200.385 75.6615C199.932 75.474 199.458 75.3802 198.969 75.3802C198.479 75.3802 198.005 75.474 197.552 75.6615C197.099 75.849 196.698 76.1146 196.354 76.4636C196.005 76.8125 195.74 77.2084 195.552 77.6667C195.365 78.1198 195.271 78.5886 195.271 79.0781Z" fill="#FFD83D" stroke="black" stroke-width="1.49778" stroke-linecap="round" stroke-linejoin="round"/>
<path d="M203.734 78.2448C203.734 78.7344 203.828 79.2084 204.016 79.6615C204.203 80.1146 204.474 80.5156 204.818 80.8594C205.167 81.2084 205.568 81.474 206.021 81.6615C206.474 81.849 206.943 81.9427 207.437 81.9427C207.927 81.9427 208.396 81.849 208.849 81.6615C209.302 81.474 209.703 81.2084 210.052 80.8594C210.396 80.5156 210.667 80.1146 210.854 79.6615C211.042 79.2084 211.135 78.7344 211.135 78.2448C211.135 77.7552 211.042 77.2813 210.854 76.8281C210.667 76.375 210.396 75.974 210.052 75.6302C209.703 75.2813 209.302 75.0156 208.849 74.8281C208.396 74.6406 207.927 74.5469 207.437 74.5469C206.943 74.5469 206.474 74.6406 206.021 74.8281C205.568 75.0156 205.167 75.2813 204.818 75.6302C204.474 75.974 204.203 76.375 204.016 76.8281C203.828 77.2813 203.734 77.7552 203.734 78.2448Z" fill="#FFD83D" stroke="black" stroke-width="1.49778" stroke-linecap="round" stroke-linejoin="round"/>
<path d="M212.036 78.7188C212.036 79.2084 212.13 79.6823 212.323 80.1354C212.51 80.5886 212.776 80.9896 213.125 81.3334C213.469 81.6823 213.87 81.9479 214.323 82.1354C214.776 82.3229 215.25 82.4167 215.74 82.4167C216.229 82.4167 216.703 82.3229 217.156 82.1354C217.609 81.9479 218.005 81.6823 218.354 81.3334C218.703 80.9896 218.969 80.5886 219.156 80.1354C219.344 79.6823 219.437 79.2084 219.437 78.7188C219.437 78.2292 219.344 77.7552 219.156 77.3021C218.969 76.849 218.703 76.4479 218.354 76.1042C218.005 75.7552 217.609 75.4896 217.156 75.3021C216.703 75.1146 216.229 75.0209 215.74 75.0209C215.25 75.0209 214.776 75.1146 214.323 75.3021C213.87 75.4896 213.469 75.7552 213.125 76.1042C212.776 76.4479 212.51 76.849 212.323 77.3021C212.13 77.7552 212.036 78.2292 212.036 78.7188Z" fill="#FFD83D" stroke="black" stroke-width="1.49778" stroke-linecap="round" stroke-linejoin="round"/>
<path d="M219.953 81.4271C219.953 81.9167 220.047 82.3906 220.234 82.8438C220.422 83.2969 220.693 83.6979 221.036 84.0469C221.385 84.3906 221.786 84.6563 222.24 84.8438C222.693 85.0365 223.161 85.1302 223.656 85.1302C224.146 85.1302 224.615 85.0365 225.068 84.8438C225.521 84.6563 225.922 84.3906 226.271 84.0469C226.615 83.6979 226.885 83.2969 227.073 82.8438C227.26 82.3906 227.354 81.9167 227.354 81.4271C227.354 80.9375 227.26 80.4636 227.073 80.0104C226.885 79.5573 226.615 79.1615 226.271 78.8125C225.922 78.4636 225.521 78.1979 225.068 78.0104C224.615 77.8229 224.146 77.7292 223.656 77.7292C223.161 77.7292 222.693 77.8229 222.24 78.0104C221.786 78.1979 221.385 78.4636 221.036 78.8125C220.693 79.1615 220.422 79.5573 220.234 80.0104C220.047 80.4636 219.953 80.9375 219.953 81.4271Z" fill="#FFD83D" stroke="black" stroke-width="1.49778" stroke-linecap="round" stroke-linejoin="round"/>
<path d="M226.62 86.3334C226.62 86.8229 226.714 87.2969 226.906 87.75C227.094 88.2031 227.359 88.599 227.703 88.9479C228.052 89.2969 228.453 89.5625 228.906 89.75C229.359 89.9375 229.833 90.0313 230.323 90.0313C230.812 90.0313 231.286 89.9375 231.74 89.75C232.193 89.5625 232.589 89.2969 232.937 88.9479C233.286 88.599 233.552 88.2031 233.74 87.75C233.927 87.2969 234.021 86.8229 234.021 86.3334C234.021 85.8438 233.927 85.3698 233.74 84.9167C233.552 84.4636 233.286 84.0625 232.937 83.7136C232.589 83.3698 232.193 83.1042 231.74 82.9167C231.286 82.724 230.812 82.6302 230.323 82.6302C229.833 82.6302 229.359 82.724 228.906 82.9167C228.453 83.1042 228.052 83.3698 227.703 83.7136C227.359 84.0625 227.094 84.4636 226.906 84.9167C226.714 85.3698 226.62 85.8438 226.62 86.3334Z" fill="#FFD83D" stroke="black" stroke-width="1.49778" stroke-linecap="round" stroke-linejoin="round"/>
<path d="M231.354 93.1719C231.354 93.6615 231.448 94.1354 231.635 94.5886C231.823 95.0417 232.089 95.4427 232.437 95.7865C232.786 96.1354 233.182 96.4011 233.641 96.5886C234.094 96.7761 234.562 96.8698 235.052 96.8698C235.547 96.8698 236.016 96.7761 236.469 96.5886C236.922 96.4011 237.323 96.1354 237.672 95.7865C238.016 95.4427 238.286 95.0417 238.474 94.5886C238.661 94.1354 238.755 93.6615 238.755 93.1719C238.755 92.6823 238.661 92.2084 238.474 91.7552C238.286 91.3021 238.016 90.9011 237.672 90.5573C237.323 90.2084 236.922 89.9427 236.469 89.7552C236.016 89.5677 235.547 89.474 235.052 89.474C234.562 89.474 234.094 89.5677 233.641 89.7552C233.182 89.9427 232.786 90.2084 232.437 90.5573C232.089 90.9011 231.823 91.3021 231.635 91.7552C231.448 92.2084 231.354 92.6823 231.354 93.1719Z" fill="#FFD83D" stroke="black" stroke-width="1.49778" stroke-linecap="round" stroke-linejoin="round"/>
<path d="M233.635 101.219C233.635 101.708 233.729 102.177 233.917 102.63C234.104 103.089 234.37 103.484 234.719 103.833C235.068 104.182 235.464 104.448 235.917 104.635C236.37 104.823 236.844 104.917 237.333 104.917C237.823 104.917 238.297 104.823 238.75 104.635C239.203 104.448 239.604 104.182 239.948 103.833C240.297 103.484 240.562 103.089 240.75 102.63C240.937 102.177 241.031 101.708 241.031 101.219C241.031 100.724 240.937 100.255 240.75 99.8021C240.562 99.349 240.297 98.9479 239.948 98.599C239.604 98.2552 239.203 97.9844 238.75 97.7969C238.297 97.6094 237.823 97.5157 237.333 97.5157C236.844 97.5157 236.37 97.6094 235.917 97.7969C235.464 97.9844 235.068 98.2552 234.719 98.599C234.37 98.9479 234.104 99.349 233.917 99.8021C233.729 100.255 233.635 100.724 233.635 101.219Z" fill="#FFD83D" stroke="black" stroke-width="1.49778" stroke-linecap="round" stroke-linejoin="round"/>
<path d="M233.547 109.563C233.547 110.052 233.641 110.526 233.828 110.979C234.016 111.432 234.286 111.833 234.63 112.177C234.979 112.526 235.38 112.792 235.833 112.979C236.286 113.167 236.755 113.26 237.25 113.26C237.74 113.26 238.208 113.167 238.661 112.979C239.115 112.792 239.516 112.526 239.865 112.177C240.208 111.833 240.479 111.432 240.667 110.979C240.854 110.526 240.948 110.052 240.948 109.563C240.948 109.073 240.854 108.599 240.667 108.146C240.479 107.693 240.208 107.297 239.865 106.948C239.516 106.599 239.115 106.333 238.661 106.146C238.208 105.958 237.74 105.865 237.25 105.865C236.755 105.865 236.286 105.958 235.833 106.146C235.38 106.333 234.979 106.599 234.63 106.948C234.286 107.297 234.016 107.693 233.828 108.146C233.641 108.599 233.547 109.073 233.547 109.563Z" fill="#FFD83D" stroke="black" stroke-width="1.49778" stroke-linecap="round" stroke-linejoin="round"/>
<path d="M231.958 117.734C231.958 118.229 232.052 118.698 232.24 119.151C232.427 119.604 232.693 120.005 233.042 120.354C233.385 120.698 233.786 120.969 234.24 121.156C234.693 121.344 235.167 121.438 235.656 121.438C236.146 121.438 236.62 121.344 237.073 121.156C237.526 120.969 237.927 120.698 238.271 120.354C238.62 120.005 238.885 119.604 239.073 119.151C239.26 118.698 239.354 118.229 239.354 117.734C239.354 117.245 239.26 116.776 239.073 116.323C238.885 115.87 238.62 115.469 238.271 115.12C237.927 114.776 237.526 114.505 237.073 114.318C236.62 114.13 236.146 114.036 235.656 114.036C235.167 114.036 234.693 114.13 234.24 114.318C233.786 114.505 233.385 114.776 233.042 115.12C232.693 115.469 232.427 115.87 232.24 116.323C232.052 116.776 231.958 117.245 231.958 117.734Z" fill="#FFD83D" stroke="black" stroke-width="1.49778" stroke-linecap="round" stroke-linejoin="round"/>
<path d="M172.115 89.5156L172.458 94.3334C181.667 92.9219 194.714 87.7969 206.875 87.7969C218.115 87.7969 226.839 92.2917 226.839 103.625C226.839 114.797 222.104 124.958 215.823 135.286L222.365 138.385C228.208 127.026 233.031 117.38 233.031 104.313C233.031 93.3802 224.432 82.6302 209.63 82.6302C196.51 82.6302 183.125 87.0521 172.115 89.5156Z" fill="#FFD83D" stroke="black" stroke-width="1.49778" stroke-linecap="round" stroke-linejoin="round"/>
<path d="M166.896 39.7865L163.036 47.0156L166.896 54.224L170.755 47.0156L166.896 39.7865ZM166.896 58.0365L163.036 65.2448L166.896 72.4792L170.755 65.2448L166.896 58.0365Z" fill="#FFD83D" stroke="black" stroke-width="1.49778" stroke-linecap="round" stroke-linejoin="round"/>
<path d="M153.13 56.1302L159.219 59.9948L165.292 56.1302L159.219 52.2708L153.13 56.1302ZM168.5 56.1302L174.573 59.9948L180.661 56.1302L174.573 52.2708L168.5 56.1302Z" fill="#FFD83D" stroke="black" stroke-width="1.49778" stroke-linecap="round" stroke-linejoin="round"/>
<path d="M169.823 56.2188C169.823 56.6042 169.745 56.9792 169.599 57.3386C169.448 57.6979 169.24 58.0104 168.964 58.2865C168.693 58.5625 168.375 58.7708 168.016 58.9219C167.656 59.0677 167.286 59.1458 166.896 59.1458C166.51 59.1458 166.135 59.0677 165.776 58.9219C165.417 58.7708 165.104 58.5625 164.828 58.2865C164.552 58.0104 164.344 57.6979 164.193 57.3386C164.047 56.9792 163.969 56.6042 163.969 56.2188C163.969 55.8281 164.047 55.4583 164.193 55.099C164.344 54.7396 164.552 54.4219 164.828 54.1511C165.104 53.875 165.417 53.6667 165.776 53.5156C166.135 53.3698 166.51 53.2917 166.896 53.2917C167.286 53.2917 167.656 53.3698 168.016 53.5156C168.375 53.6667 168.693 53.875 168.964 54.1511C169.24 54.4219 169.448 54.7396 169.599 55.099C169.745 55.4583 169.823 55.8281 169.823 56.2188Z" fill="#FFD83D" stroke="black" stroke-width="1.49778" stroke-linecap="round" stroke-linejoin="round"/>
<path d="M174.724 74.8906C174.724 75.4011 174.677 75.9115 174.573 76.4167C174.474 76.9219 174.328 77.4115 174.13 77.8854C173.932 78.3594 173.693 78.8125 173.406 79.2396C173.12 79.6667 172.797 80.0625 172.432 80.4271C172.068 80.7865 171.672 81.1146 171.245 81.4011C170.818 81.6823 170.37 81.9271 169.891 82.125C169.417 82.3177 168.927 82.4688 168.422 82.5677C167.922 82.6667 167.411 82.7188 166.896 82.7188C166.38 82.7188 165.875 82.6667 165.37 82.5677C164.865 82.4688 164.375 82.3177 163.901 82.125C163.427 81.9271 162.974 81.6823 162.547 81.4011C162.12 81.1146 161.724 80.7865 161.359 80.4271C160.995 80.0625 160.672 79.6667 160.385 79.2396C160.099 78.8125 159.859 78.3594 159.661 77.8854C159.464 77.4115 159.318 76.9219 159.219 76.4167C159.115 75.9115 159.068 75.4011 159.068 74.8906C159.068 74.375 159.115 73.8646 159.219 73.3594C159.318 72.8594 159.464 72.3698 159.661 71.8906C159.859 71.4167 160.099 70.9688 160.385 70.5417C160.672 70.1094 160.995 69.7188 161.359 69.3542C161.724 68.9896 162.12 68.6667 162.547 68.3802C162.974 68.0938 163.427 67.8542 163.901 67.6563C164.375 67.4583 164.865 67.3125 165.37 67.2083C165.875 67.1094 166.38 67.0573 166.896 67.0573C167.411 67.0573 167.922 67.1094 168.422 67.2083C168.927 67.3125 169.417 67.4583 169.891 67.6563C170.37 67.8542 170.818 68.0938 171.245 68.3802C171.672 68.6667 172.068 68.9896 172.432 69.3542C172.797 69.7188 173.12 70.1094 173.406 70.5417C173.693 70.9688 173.932 71.4167 174.13 71.8906C174.328 72.3698 174.474 72.8594 174.573 73.3594C174.677 73.8646 174.724 74.375 174.724 74.8906Z" fill="#FFD83D" stroke="black" stroke-width="1.49778" stroke-linecap="round" stroke-linejoin="round"/>
<path d="M164.932 67.3073C164.932 69.6406 164.911 70.9948 164.906 72.2656C163.021 72.3542 161.156 72.5521 159.339 72.8542M174.453 72.8542C172.635 72.5521 170.771 72.3542 168.885 72.2656C168.885 70.9948 168.885 69.6458 168.885 67.3073M159.313 76.8073C161.781 76.3958 164.313 76.1771 166.896 76.1771C169.479 76.1771 172.01 76.3958 174.479 76.8073" stroke="black" stroke-width="1.12334" stroke-linecap="round" stroke-linejoin="round"/>
<path d="M159.245 88.1354C158.5 100.927 156.99 113.958 152.01 123.427L160.109 120.151C162.938 109.422 163.531 95.5521 164.391 89L159.245 88.1354ZM174.547 88.1354L169.401 89C170.26 95.5521 170.854 109.422 173.682 120.151L181.781 123.427C176.802 113.958 175.292 100.927 174.547 88.1354Z" fill="#FFD83D" stroke="black" stroke-width="1.49778" stroke-linecap="round" stroke-linejoin="round"/>
<path d="M166.885 115.844C157.214 115.844 150.109 120.401 149.682 132.016C147.318 127.854 137.318 114.771 127.99 116.521C122.438 117.563 117.536 125.26 118.37 134.073C113.776 120.87 100.318 118.708 90.5 126.516C99.2188 133.682 103.094 154.849 110.438 164.031H223.333C230.672 154.849 234.578 133.682 243.297 126.516C233.474 118.708 220.016 120.87 215.422 134.073C216.255 125.26 211.328 117.563 205.781 116.521C196.448 114.771 186.474 127.854 184.109 132.016C183.682 120.401 176.557 115.844 166.885 115.844Z" fill="#FFD83D" stroke="black" stroke-width="1.49778" stroke-linecap="round" stroke-linejoin="round"/>
<path d="M223.167 164.026C223.167 168.208 197.958 172.802 166.896 172.802C135.833 172.802 110.625 168.208 110.625 164.026C110.625 159.849 135.833 157.661 166.896 157.661C197.958 157.661 223.167 159.849 223.167 164.026Z" fill="black" stroke="black" stroke-width="1.12334" stroke-linecap="round" stroke-linejoin="round"/>
<path d="M169.521 85.7083C169.521 86.0573 169.453 86.3906 169.323 86.7136C169.188 87.0313 169 87.3177 168.75 87.5625C168.505 87.8073 168.224 88 167.901 88.1302C167.578 88.2656 167.245 88.3334 166.896 88.3334C166.547 88.3334 166.214 88.2656 165.891 88.1302C165.573 88 165.286 87.8073 165.042 87.5625C164.797 87.3177 164.604 87.0313 164.474 86.7136C164.339 86.3906 164.271 86.0573 164.271 85.7083C164.271 85.3594 164.339 85.0261 164.474 84.7031C164.604 84.3802 164.797 84.099 165.042 83.849C165.286 83.6042 165.573 83.4167 165.891 83.2813C166.214 83.1511 166.547 83.0834 166.896 83.0834C167.245 83.0834 167.578 83.1511 167.901 83.2813C168.224 83.4167 168.505 83.6042 168.75 83.849C169 84.099 169.188 84.3802 169.323 84.7031C169.453 85.0261 169.521 85.3594 169.521 85.7083Z" fill="#FFD83D" stroke="black" stroke-width="1.12334" stroke-linecap="round" stroke-linejoin="round"/>
<path d="M169.693 91.3854C169.693 91.7552 169.62 92.1146 169.479 92.4531C169.339 92.7969 169.135 93.099 168.875 93.3646C168.609 93.625 168.307 93.8281 167.969 93.9688C167.625 94.1094 167.266 94.1823 166.896 94.1823C166.526 94.1823 166.167 94.1094 165.828 93.9688C165.484 93.8281 165.182 93.625 164.917 93.3646C164.656 93.099 164.453 92.7969 164.313 92.4531C164.172 92.1146 164.099 91.7552 164.099 91.3854C164.099 91.0156 164.172 90.6563 164.313 90.3125C164.453 89.974 164.656 89.6719 164.917 89.4063C165.182 89.1459 165.484 88.9427 165.828 88.8021C166.167 88.6615 166.526 88.5886 166.896 88.5886C167.266 88.5886 167.625 88.6615 167.969 88.8021C168.307 88.9427 168.609 89.1459 168.875 89.4063C169.135 89.6719 169.339 89.974 169.479 90.3125C169.62 90.6563 169.693 91.0156 169.693 91.3854Z" fill="#FFD83D" stroke="black" stroke-width="1.12334" stroke-linecap="round" stroke-linejoin="round"/>
<path d="M169.953 97.4948C169.953 97.9011 169.875 98.2865 169.719 98.6615C169.563 99.0365 169.344 99.3646 169.057 99.6511C168.771 99.9375 168.438 100.161 168.068 100.318C167.693 100.469 167.302 100.547 166.896 100.547C166.49 100.547 166.099 100.469 165.729 100.318C165.354 100.161 165.021 99.9375 164.734 99.6511C164.448 99.3646 164.229 99.0365 164.073 98.6615C163.917 98.2865 163.844 97.9011 163.844 97.4948C163.844 97.0886 163.917 96.6979 164.073 96.3229C164.229 95.9479 164.448 95.6198 164.734 95.3334C165.021 95.0469 165.354 94.8281 165.729 94.6719C166.099 94.5156 166.49 94.4375 166.896 94.4375C167.302 94.4375 167.693 94.5156 168.068 94.6719C168.438 94.8281 168.771 95.0469 169.057 95.3334C169.344 95.6198 169.563 95.9479 169.719 96.3229C169.875 96.6979 169.953 97.0886 169.953 97.4948Z" fill="#FFD83D" stroke="black" stroke-width="1.12334" stroke-linecap="round" stroke-linejoin="round"/>
<path d="M170.38 104.292C170.38 104.755 170.292 105.198 170.115 105.625C169.938 106.052 169.688 106.427 169.359 106.755C169.031 107.083 168.656 107.333 168.229 107.51C167.802 107.688 167.359 107.776 166.896 107.776C166.432 107.776 165.99 107.688 165.563 107.51C165.135 107.333 164.76 107.083 164.432 106.755C164.104 106.427 163.854 106.052 163.677 105.625C163.5 105.198 163.411 104.755 163.411 104.292C163.411 103.828 163.5 103.385 163.677 102.958C163.854 102.531 164.104 102.156 164.432 101.828C164.76 101.5 165.135 101.25 165.563 101.073C165.99 100.896 166.432 100.807 166.896 100.807C167.359 100.807 167.802 100.896 168.229 101.073C168.656 101.25 169.031 101.5 169.359 101.828C169.688 102.156 169.938 102.531 170.115 102.958C170.292 103.385 170.38 103.828 170.38 104.292Z" fill="#FFD83D" stroke="black" stroke-width="1.12334" stroke-linecap="round" stroke-linejoin="round"/>
<path d="M170.724 111.865C170.724 112.37 170.63 112.859 170.432 113.328C170.24 113.797 169.964 114.214 169.604 114.568C169.245 114.927 168.828 115.208 168.359 115.401C167.891 115.594 167.406 115.693 166.896 115.693C166.391 115.693 165.901 115.594 165.432 115.401C164.964 115.208 164.547 114.927 164.188 114.568C163.828 114.214 163.552 113.797 163.359 113.328C163.167 112.859 163.068 112.37 163.068 111.865C163.068 111.354 163.167 110.865 163.359 110.396C163.552 109.927 163.828 109.516 164.188 109.156C164.547 108.797 164.964 108.521 165.432 108.323C165.901 108.13 166.391 108.031 166.896 108.031C167.406 108.031 167.891 108.13 168.359 108.323C168.828 108.521 169.245 108.797 169.604 109.156C169.964 109.516 170.24 109.927 170.432 110.396C170.63 110.865 170.724 111.354 170.724 111.865Z" fill="#FFD83D" stroke="black" stroke-width="1.12334" stroke-linecap="round" stroke-linejoin="round"/>
<path d="M165.375 119.229C164.958 119.224 164.568 119.573 164.672 120.234C164.797 121.016 164.948 122.479 165.094 123.464C165.26 124.583 165.911 124.313 166.078 123.443C166.245 122.573 166.177 122.01 166.219 120.396C166.24 119.589 165.786 119.234 165.375 119.229ZM168.417 119.229C168.005 119.234 167.552 119.589 167.573 120.396C167.615 122.01 167.547 122.573 167.714 123.443C167.88 124.313 168.531 124.583 168.698 123.464C168.844 122.479 168.995 121.016 169.12 120.234C169.224 119.573 168.833 119.224 168.417 119.229ZM162.661 119.651C162.281 119.703 161.891 120.083 161.911 120.49C161.953 121.234 162.156 122.13 162.24 123.255C162.323 124.411 163.141 123.964 163.224 123.302C163.302 122.635 163.396 121.656 163.318 120.375C163.286 119.891 163.073 119.682 162.823 119.651C162.771 119.641 162.714 119.641 162.661 119.651ZM170.969 119.651C170.719 119.682 170.505 119.891 170.479 120.375C170.396 121.656 170.49 122.635 170.568 123.302C170.651 123.964 171.469 124.411 171.552 123.255C171.635 122.13 171.839 121.234 171.88 120.49C171.901 120.083 171.51 119.703 171.13 119.651C171.078 119.641 171.021 119.641 170.969 119.651ZM159.406 120.958C159.062 121.047 158.74 121.469 158.844 121.943C159.052 122.896 159.245 123.948 159.245 124.917C159.245 125.745 159.953 125.448 159.99 124.87C160.031 124.286 160.109 123.063 160.109 121.943C160.109 121.109 159.755 120.87 159.406 120.958ZM174.151 120.958C173.906 121.026 173.682 121.318 173.682 121.943C173.682 123.063 173.76 124.286 173.802 124.87C173.844 125.448 174.547 125.745 174.547 124.917C174.547 123.948 174.74 122.896 174.948 121.943C175.052 121.469 174.729 121.047 174.385 120.958C174.297 120.938 174.234 120.938 174.151 120.958ZM129.896 121.089C129.479 121.073 129.187 121.635 129.474 122.255C129.932 123.25 130.411 123.88 130.88 124.948C131.292 125.901 131.927 125.307 131.724 124.646C131.516 123.984 131.292 123.245 130.667 121.839C130.437 121.307 130.146 121.094 129.896 121.089ZM203.896 121.089C203.646 121.094 203.354 121.307 203.125 121.839C202.5 123.245 202.276 123.984 202.073 124.646C201.865 125.307 202.5 125.901 202.911 124.948C203.38 123.88 203.859 123.25 204.318 122.255C204.604 121.635 204.312 121.073 203.896 121.089ZM132.891 121.135C132.589 121.229 132.401 121.615 132.589 122.073C132.958 122.979 133.5 123.917 133.875 124.901C134.203 125.771 134.943 125.526 134.693 124.74C134.443 123.953 134.37 123.49 133.875 122C133.625 121.255 133.198 121.042 132.891 121.135ZM200.667 121.135C200.406 121.193 200.104 121.443 199.917 122C199.422 123.49 199.349 123.953 199.099 124.74C198.849 125.526 199.589 125.771 199.917 124.901C200.292 123.917 200.833 122.979 201.203 122.073C201.391 121.615 201.203 121.229 200.901 121.135C200.823 121.109 200.755 121.115 200.667 121.135ZM136.635 121.859C136.25 121.932 135.953 122.521 136.214 123.24C136.547 124.151 137.016 125.016 137.432 126.047C137.844 127.083 138.531 126.875 138.37 126.214C138.203 125.552 138 124.453 137.5 122.797C137.286 122.073 136.937 121.802 136.635 121.859ZM197.156 121.859C196.854 121.802 196.505 122.073 196.292 122.797C195.792 124.453 195.589 125.552 195.422 126.214C195.26 126.875 195.948 127.083 196.359 126.047C196.776 125.016 197.245 124.151 197.578 123.24C197.839 122.521 197.542 121.932 197.156 121.859ZM127.37 122.375C126.953 122.417 126.573 123.099 126.828 123.615C127.245 124.443 127.505 124.724 127.906 125.604C128.323 126.516 128.776 125.807 128.609 125.229C128.443 124.651 128.229 123.974 128.026 123.146C127.87 122.542 127.62 122.349 127.37 122.375ZM206.422 122.375C206.172 122.349 205.922 122.542 205.766 123.146C205.562 123.974 205.349 124.651 205.182 125.229C205.016 125.807 205.469 126.516 205.885 125.604C206.286 124.724 206.547 124.443 206.964 123.615C207.219 123.099 206.839 122.417 206.422 122.375ZM156.224 124.469C155.786 124.469 155.318 125.052 155.474 125.594C155.724 126.464 156.109 127.234 156.391 128.354C156.635 129.349 157.344 128.854 157.302 128.193C157.26 127.526 157.146 126.625 156.854 125.219C156.75 124.693 156.484 124.469 156.224 124.469ZM177.568 124.469C177.307 124.469 177.047 124.693 176.937 125.219C176.646 126.625 176.531 127.526 176.49 128.193C176.448 128.854 177.156 129.349 177.406 128.354C177.682 127.234 178.068 126.464 178.318 125.594C178.474 125.052 178.005 124.469 177.568 124.469ZM166.896 125.359C166.359 125.359 166.281 126.083 166.266 126.672C166.203 128.594 165.401 130.464 164.719 131.396C164.036 132.328 163.031 132.083 162.099 131.583C161.167 131.089 160.609 130.714 159.62 129.969C158.625 129.224 157.87 129.661 159.057 131.349C162.516 136.276 166.266 140.49 166.266 148.526C166.266 149.568 166.448 149.885 166.896 149.885C167.344 149.885 167.552 149.568 167.552 148.526C167.552 140.49 171.276 136.276 174.734 131.349C175.922 129.661 175.167 129.224 174.172 129.969C173.182 130.714 172.625 131.089 171.693 131.583C170.76 132.083 169.755 132.328 169.073 131.396C168.391 130.464 167.589 128.594 167.526 126.672C167.51 126.083 167.432 125.359 166.896 125.359ZM140.474 124.151C140.427 124.151 140.375 124.161 140.333 124.177C140.13 124.24 140 124.484 140.078 124.901C140.214 125.651 140.734 127.125 140.943 127.828C141.151 128.531 142.016 128.38 141.807 127.432C141.599 126.479 141.609 126.188 141.365 125.115C141.229 124.526 140.802 124.161 140.474 124.151ZM193.318 124.151C192.99 124.161 192.562 124.526 192.427 125.115C192.182 126.188 192.193 126.479 191.984 127.432C191.776 128.38 192.641 128.531 192.849 127.828C193.057 127.125 193.578 125.651 193.714 124.901C193.792 124.484 193.661 124.24 193.458 124.177C193.417 124.161 193.365 124.151 193.318 124.151ZM124.771 124.458C124.339 124.49 124.026 125.036 124.469 125.839C124.943 126.703 125.755 127.792 126.13 128.411C126.5 129.031 127.146 128.615 126.687 127.828C126.234 127.042 126.083 126.135 125.542 125.021C125.344 124.599 125.031 124.438 124.771 124.458ZM209.021 124.458C208.76 124.438 208.453 124.599 208.25 125.021C207.708 126.135 207.557 127.042 207.104 127.828C206.646 128.615 207.292 129.031 207.661 128.411C208.036 127.792 208.849 126.703 209.323 125.839C209.766 125.036 209.453 124.49 209.021 124.458ZM101.042 126.953C100.542 126.922 100.385 127.828 100.854 128.427C101.536 129.297 102.01 129.755 102.797 130.464C103.417 131.021 103.599 130.297 103.286 129.734C102.979 129.177 102.526 128.609 101.906 127.677C101.568 127.167 101.266 126.964 101.042 126.953ZM232.75 126.953C232.526 126.964 232.224 127.167 231.885 127.677C231.266 128.609 230.818 129.177 230.505 129.734C230.193 130.297 230.375 131.021 230.995 130.464C231.781 129.755 232.255 129.297 232.937 128.427C233.406 127.828 233.25 126.922 232.75 126.953ZM104.807 127.698C104.411 127.703 104.146 128 104.458 128.682C104.901 129.661 105.49 130.771 105.859 131.516C106.234 132.26 107.37 132.51 106.917 131.349C106.458 130.193 106.37 129.594 105.953 128.521C105.75 127.979 105.208 127.693 104.807 127.698ZM228.984 127.698C228.583 127.693 228.042 127.979 227.839 128.521C227.422 129.594 227.333 130.193 226.875 131.349C226.422 132.51 227.557 132.26 227.932 131.516C228.302 130.771 228.891 129.661 229.333 128.682C229.646 128 229.38 127.703 228.984 127.698ZM97.5052 127.958C96.9271 127.964 96.875 128.542 97.3906 128.917C98.0729 129.411 98.8854 129.964 99.6823 130.599C100.615 131.349 100.974 130.661 100.479 130.042C99.9844 129.417 99.5 128.786 98.2552 128.167C97.9427 128.01 97.6979 127.953 97.5052 127.958ZM236.286 127.958C236.094 127.953 235.849 128.01 235.536 128.167C234.292 128.786 233.812 129.417 233.312 130.042C232.818 130.661 233.177 131.349 234.109 130.599C234.906 129.964 235.719 129.411 236.401 128.917C236.917 128.542 236.865 127.964 236.286 127.958ZM154.167 128.495C153.839 128.542 153.562 128.911 153.698 129.385C153.943 130.255 154.229 131.177 154.401 132.078C154.562 132.948 155.573 132.958 155.406 132.172C155.24 131.38 155.156 130.396 154.865 129.198C154.76 128.745 154.531 128.531 154.307 128.495C154.26 128.49 154.214 128.49 154.167 128.495ZM179.484 128.495C179.26 128.531 179.031 128.745 178.927 129.198C178.635 130.396 178.552 131.38 178.385 132.172C178.219 132.958 179.229 132.948 179.391 132.078C179.562 131.177 179.849 130.255 180.094 129.385C180.229 128.911 179.953 128.542 179.625 128.495C179.583 128.49 179.531 128.49 179.484 128.495ZM131.63 127.01C131.375 127.078 131.229 127.568 131.417 128.25C132.474 132.036 132.797 134.031 132.609 134.964C132.427 135.896 131.911 136.026 131.229 135.714C130.547 135.406 129.745 134.953 129.125 134.521C128.505 134.083 127.859 134.604 128.75 135.339C133.281 139.068 136.427 143.328 137.641 148.495C137.891 149.547 138.552 149.672 138.37 148.495C137.339 141.984 137.141 136.635 138.698 133.281C139.281 132.021 138.693 130.807 137.76 132.859C137.141 134.224 136.135 134.766 135.328 133.583C134.516 132.406 132.849 129.255 132.354 127.828C132.167 127.292 131.937 127.042 131.745 127.01C131.703 127 131.667 127 131.63 127.01ZM202.047 127.01C201.854 127.042 201.625 127.292 201.437 127.828C200.943 129.255 199.276 132.406 198.469 133.583C197.656 134.766 196.651 134.224 196.031 132.859C195.099 130.807 194.51 132.021 195.099 133.281C196.651 136.635 196.453 141.984 195.422 148.495C195.24 149.672 195.901 149.547 196.151 148.495C197.365 143.328 200.51 139.068 205.042 135.339C205.937 134.604 205.292 134.083 204.667 134.521C204.047 134.953 203.245 135.406 202.562 135.714C201.88 136.026 201.37 135.896 201.182 134.964C200.995 134.031 201.318 132.036 202.375 128.25C202.568 127.568 202.417 127.078 202.161 127.01C202.13 127 202.089 127 202.047 127.01ZM108.833 128.823C108.427 128.828 108.083 129.115 108.271 129.734C108.573 130.729 109.187 131.807 109.396 132.427C109.604 133.047 110.271 132.76 110.146 131.891C110.021 131.021 109.958 130.5 109.792 129.547C109.708 129.073 109.245 128.818 108.833 128.823ZM224.958 128.823C224.547 128.818 224.083 129.073 224 129.547C223.833 130.5 223.771 131.021 223.646 131.891C223.526 132.76 224.187 133.047 224.396 132.427C224.604 131.807 225.224 130.729 225.521 129.734C225.708 129.115 225.37 128.828 224.958 128.823ZM122.901 127.521C122.422 127.438 122.354 128.667 122.76 129.161C123.297 129.823 124.047 130.625 124.797 131.526C125.417 132.271 125.797 131.609 125.427 130.99C125.052 130.365 124.5 129.703 123.505 128.13C123.26 127.74 123.057 127.552 122.901 127.521ZM210.896 127.521C210.734 127.552 210.531 127.74 210.286 128.13C209.292 129.703 208.74 130.365 208.365 130.99C207.995 131.609 208.375 132.271 209 131.526C209.75 130.625 210.495 129.823 211.031 129.161C211.437 128.667 211.37 127.438 210.896 127.521ZM112.042 130.484C111.745 130.464 111.495 130.703 111.62 131.302C111.792 132.141 112.042 132.833 112.25 133.62C112.458 134.406 113 134.271 113 133.526C113 132.781 112.865 131.948 112.74 131.161C112.682 130.771 112.333 130.505 112.042 130.484ZM221.75 130.484C221.458 130.505 221.115 130.771 221.052 131.161C220.927 131.948 220.792 132.781 220.792 133.526C220.792 134.271 221.333 134.406 221.542 133.62C221.75 132.833 222 132.141 222.172 131.302C222.297 130.703 222.047 130.464 221.75 130.484ZM121.844 131.547C121.38 131.62 120.974 132.068 121.516 132.766C122.385 133.885 123.339 134.667 123.672 135.083C124 135.495 124.844 135.344 124.302 134.474C123.755 133.583 122.922 132.516 122.547 131.854C122.406 131.604 122.125 131.505 121.844 131.547ZM211.76 131.547C211.557 131.568 211.349 131.667 211.245 131.854C210.87 132.516 210.042 133.583 209.49 134.474C208.953 135.344 209.792 135.495 210.12 135.083C210.453 134.667 211.406 133.885 212.276 132.766C212.818 132.068 212.411 131.62 211.948 131.547C211.875 131.536 211.828 131.542 211.76 131.547ZM106.375 134.672C106.01 134.641 105.885 134.938 106.375 135.609C107.495 137.141 108.729 139.458 108.812 140.453C108.891 141.448 108.401 141.438 107.943 141.438C106.578 141.438 105.911 140.438 104.667 140.151C103.427 139.859 103.245 140.516 104.13 141.156C108.682 144.469 113.25 148.167 115.083 151.526C115.828 152.891 116.833 153.391 116.276 152.083C114.562 148.089 114.146 144.703 114.521 142.656C114.896 140.604 115.401 139.224 115.339 138.042C115.276 136.865 114.609 136.943 114.333 138.042C114.146 138.792 113.786 139.776 113.536 140.151C113.292 140.521 112.292 140.729 111.339 139.448C110.385 138.167 107.984 135.693 107.198 135.073C106.901 134.839 106.594 134.693 106.375 134.672ZM227.417 134.672C227.198 134.693 226.891 134.839 226.599 135.073C225.807 135.693 223.406 138.167 222.453 139.448C221.5 140.729 220.505 140.521 220.255 140.151C220.005 139.776 219.646 138.792 219.458 138.042C219.182 136.943 218.516 136.865 218.453 138.042C218.391 139.224 218.901 140.604 219.271 142.656C219.646 144.703 219.229 148.089 217.516 152.083C216.958 153.391 217.964 152.891 218.708 151.526C220.542 148.167 225.109 144.469 229.661 141.156C230.547 140.516 230.365 139.859 229.125 140.151C227.88 140.438 227.214 141.438 225.849 141.438C225.391 141.438 224.901 141.448 224.984 140.453C225.062 139.458 226.297 137.141 227.417 135.609C227.906 134.938 227.781 134.641 227.417 134.672Z" fill="black"/>
<path d="M113.094 159.25L114.552 163.875ZM116.099 158.375L117.391 163.047ZM119.344 157.844L120.229 162.609ZM122.354 157.24L123.302 161.995ZM126.214 156.859L126.99 161.646ZM130.323 156.865L131.156 161.641ZM134.328 155.51L134.932 160.318ZM138.104 155.75L138.703 160.563ZM141.755 155.266L142.354 160.078ZM145.417 154.885L145.75 159.724ZM149.333 154.885L149.62 159.724ZM152.88 154.641L153.125 159.484ZM156.797 154.396L157 159.24ZM161.297 154.276L161.5 159.12ZM220.698 159.25L219.24 163.875ZM217.693 158.375L216.401 163.047ZM214.448 157.844L213.563 162.609ZM211.438 157.24L210.49 161.995ZM207.578 156.859L206.802 161.646ZM203.469 156.865L202.635 161.641ZM199.464 155.51L198.859 160.318ZM195.688 155.75L195.089 160.563ZM192.037 155.266L191.438 160.078ZM188.375 154.885L188.042 159.724ZM184.458 154.885L184.172 159.724ZM180.911 154.641L180.667 159.484ZM176.995 154.396L176.792 159.24ZM172.495 154.276L172.292 159.12ZM166.896 153.958V159.292Z" fill="#FFD83D"/>
<path d="M113.094 159.25L114.552 163.875M116.099 158.375L117.391 163.047M119.344 157.844L120.229 162.609M122.354 157.24L123.302 161.995M126.214 156.859L126.99 161.646M130.323 156.865L131.156 161.641M134.328 155.51L134.932 160.318M138.104 155.75L138.703 160.563M141.755 155.266L142.354 160.078M145.417 154.885L145.75 159.724M149.333 154.885L149.62 159.724M152.88 154.641L153.125 159.484M156.797 154.396L157 159.24M161.297 154.276L161.5 159.12M220.698 159.25L219.24 163.875M217.693 158.375L216.401 163.047M214.448 157.844L213.563 162.609M211.438 157.24L210.49 161.995M207.578 156.859L206.802 161.646M203.469 156.865L202.635 161.641M199.464 155.51L198.859 160.318M195.688 155.75L195.089 160.563M192.037 155.266L191.438 160.078M188.375 154.885L188.042 159.724M184.458 154.885L184.172 159.724M180.911 154.641L180.667 159.484M176.995 154.396L176.792 159.24M172.495 154.276L172.292 159.12M166.896 153.958V159.292" stroke="black" stroke-width="1.12334" stroke-linecap="round" stroke-linejoin="round"/>
</g>
<defs>
<clipPath id="clip0_0_1">
<rect width="900" height="450" fill="white"/>
</clipPath>
</defs>
</svg>
