<svg width="900" height="450" viewBox="0 0 900 450" fill="none" xmlns="http://www.w3.org/2000/svg">
<g clip-path="url(#clip0_764_3097)">
<mask id="mask0_764_3097" style="mask-type:luminance" maskUnits="userSpaceOnUse" x="0" y="0" width="900" height="450">
<path d="M0.666653 -3.37219e-06H899.333V449.333H0.666653V-3.37219e-06Z" fill="white"/>
</mask>
<g mask="url(#mask0_764_3097)">
<path d="M0.666653 -3.37219e-06H899.333V449.333H0.666653V-3.37219e-06Z" fill="white"/>
<path d="M0.666653 -3.37219e-06H899.333V449.333H0.666653V-3.37219e-06Z" fill="white"/>
<path d="M0.666653 -3.37219e-06H899.333V449.333H0.666653V-3.37219e-06Z" fill="#FFBE29"/>
</g>
<path d="M42.6042 41.9375H276.255V407.396H42.6042V41.9375Z" fill="#EB7400"/>
<path d="M42.6042 41.9375H159.432V407.396H42.6042V41.9375Z" fill="#00534E"/>
<path d="M318.193 41.9375H857.396V407.396H318.193V41.9375Z" fill="#8D153A"/>
<path d="M376.802 336.412C376.802 336.412 371.844 346.761 366.365 350.974C358.25 357.224 341.609 356.771 334.547 364.057C326.083 372.651 335.203 384.005 335.13 384.99L334.667 390.99C334.667 390.99 340.37 391.057 342.771 391.443C346.385 392.021 347.797 395.031 354.521 394.583C371.432 393.458 370.75 377.844 371.708 364.495C372.557 359.412 374.521 352.787 375.641 347.708C376.594 343.349 376.797 336.412 376.797 336.412H376.802Z" fill="#FFBE29" stroke="black" stroke-width="1.56967"/>
<path d="M503.188 361.313L506.594 359.396L508.052 361.318C509.995 363.88 515.37 363.849 518.932 361.255L521.656 359.276L523.943 361.255C526.943 363.865 532.547 363.865 536.125 361.266C538.63 359.448 538.979 359.411 540.636 360.797C541.625 361.62 544.521 362.562 547.073 362.885C551.672 363.469 551.74 363.432 554.432 359.495C556.682 356.198 557.037 354.865 556.5 351.667C556.141 349.547 555.755 346.135 555.646 344.083C555.443 340.37 555.464 340.349 561.005 338.464C564.068 337.422 567.609 336.031 568.88 335.365C571.094 334.203 577.198 327.208 577.198 325.828C577.198 325.458 574.813 324.901 571.901 324.583C560.307 323.313 558.344 317.24 565.88 305.958C578.167 287.563 585.583 269.646 585.636 258.234C585.656 253.13 585.953 251.417 586.625 252.526C589.37 257.063 584.453 276.073 577 289.724L574 295.219L576.865 294.578C578.438 294.224 587.698 290.411 597.438 286.104C624.099 274.328 633.255 272.016 650.511 272.724C664.964 273.318 671.12 276.073 681.328 286.521C686.734 292.052 691.943 296.01 701.469 301.828C721.771 314.229 722.615 315.302 723.583 329.88C724.557 344.651 724.073 345.453 712.62 347.922C702.833 350.031 696.698 354.484 695.052 360.672C694.172 363.974 696.021 364.068 700.958 360.974L704.573 358.708L706.182 360.974C708.297 363.953 712.792 363.969 716.521 361L719.339 358.76L722.219 361C726.698 364.484 732.651 363.635 734.333 359.286C734.656 358.448 735.516 358.714 737.261 360.193C740.531 362.969 748.917 364.156 749.823 361.979C750.167 361.146 749.511 359.089 748.365 357.411C743.485 350.276 741.958 346.87 741.896 342.984C741.807 337.583 743.458 334.974 749.761 330.583C757.412 325.245 759.776 318.354 753.958 318.354C750.365 318.354 746.74 315.255 744.432 310.208C739.74 299.943 740.656 288.438 747.703 269.297C754.86 249.849 755.656 246.266 755.682 233.26C755.708 222.745 755.438 220.927 752.984 215.167C751.484 211.641 748.443 206.391 746.224 203.505L742.193 198.25L747.37 194.062C763.182 181.281 759.948 160.359 740.912 152.302C735.089 149.833 733.636 149.615 723.427 149.682C717.307 149.724 707.969 150.51 702.682 151.432C697.292 152.37 688.167 153.125 681.906 153.151C671.964 153.188 670.276 152.948 666.443 150.958C662.448 148.885 661.761 147.896 660.979 143.099C660.818 142.115 660.11 141.13 659.406 140.917C658.047 140.495 651.771 145.812 650.844 148.167C650.386 149.328 650.016 149.245 648.672 147.698C647.781 146.672 646.537 144.307 645.906 142.448C644.323 137.766 646.266 134.26 651.901 131.635L656.276 129.594L653.698 128.031C648.375 124.812 639.328 127.016 636.057 132.328C635.13 133.833 634.12 135.068 633.813 135.068C633.505 135.073 631.745 133.641 629.906 131.88C623.037 125.333 625.396 115.641 634.583 112.682C639.484 111.104 643.823 112.313 644.724 115.5C646.099 120.365 650.38 113.969 649.615 108.193C649.104 104.349 649.182 104.214 651.906 104.214C655.693 104.214 663.755 109.068 666.25 112.849C669.146 117.234 668.938 124.151 665.75 129.302L663.245 133.349L666.521 132.708C671.318 131.771 675.984 128.859 678.344 125.333C680.839 121.604 681.104 114.339 678.896 110.422C676.75 106.625 676.995 106.021 680.167 107.302C685.557 109.49 688.438 111.896 690.599 116.021C692.547 119.734 692.656 120.661 691.599 124.526C690.948 126.911 689.505 130.052 688.386 131.505C686.646 133.76 686.583 134.141 687.974 134.141C690.557 134.141 695.948 131.755 697.865 129.766C698.833 128.76 700.245 126.286 701 124.266L702.375 120.594L703.958 123.391C706.193 127.349 710.537 130.911 715.839 133.13C721.537 135.516 723.912 135.646 720.932 133.417C718.922 131.911 715.219 121.312 716.339 120.276C717 119.667 724.74 125.474 733.573 133.214C741.932 140.531 747.182 142.932 754.859 142.932C764.667 142.932 770.375 134.604 765.969 126.729C763.401 122.135 757.677 121.5 754.328 125.432C752.787 127.24 752.365 128.677 752.818 130.573C753.37 132.896 753.156 133.208 750.985 133.208C748.136 133.208 742.516 129.646 732.537 121.526C717.318 109.135 698.828 98.6354 685.479 94.7969C676.912 92.3385 658.609 91.375 649.901 92.9323C640.474 94.6146 629.323 99.875 623.25 105.51C612.484 115.495 612.318 128.781 622.797 140.88L625.797 144.344L623.766 147.427C620.807 151.906 621.063 157.937 624.391 162.38C625.859 164.333 627.339 165.932 627.682 165.932C628.021 165.932 628.396 164.677 628.516 163.141C628.807 159.25 630.516 156.651 633.453 155.62C636.094 154.687 637.802 155.13 649.901 159.839C662.636 164.797 683.568 165.141 705.828 160.75C716.74 158.599 729.61 158.724 735.271 161.042C745.646 165.281 748.052 176.318 740.422 184.693C737.12 188.323 733.938 189.797 723.245 192.661C715.109 194.839 713.182 194.984 694.688 194.802C678.886 194.651 673.208 194.948 666.755 196.26C659.755 197.687 655.448 197.833 634.88 197.323L611.099 196.74L613.734 198.87C615.188 200.042 617.234 201.484 618.292 202.073C620.083 203.078 620.026 203.214 617.359 204.182C615.792 204.745 612.313 205.208 609.63 205.208H604.75L604.094 209.255C603.734 211.479 603.761 214.078 604.156 215.026C604.734 216.427 604.521 216.63 603.005 216.094C601.979 215.729 599.12 215.016 596.656 214.505C594.188 213.995 590.87 212.953 589.276 212.193C586.599 210.911 586.302 210.948 585.318 212.651C584.438 214.172 576.172 220.172 574.958 220.172C574.766 220.172 574.511 219.016 574.396 217.599C574.287 216.187 573.094 212.505 571.75 209.417C570.406 206.333 569 202.964 568.63 201.938C568.068 200.385 567.818 200.307 567.141 201.469C566.693 202.24 566.037 204.344 565.688 206.146C565.333 207.943 564.089 210.87 562.922 212.641L560.792 215.87L559.432 213.109C557.974 210.151 555.557 207.078 554.677 207.078C554.386 207.078 553.88 208.026 553.563 209.182C552.891 211.599 547.156 218.302 545.755 218.302C545.24 218.302 544.813 216.406 544.813 214.094C544.813 211.776 544.359 209.885 543.802 209.885C543.245 209.885 542.792 210.484 542.792 211.214C542.792 212.995 537.891 218.302 536.245 218.302C535.531 218.302 534.375 218.932 533.682 219.703C531.875 221.714 530.396 221.432 531.156 219.219C531.516 218.182 531.281 215.766 530.641 213.844L529.135 209.302C528.891 208.573 527.136 208.766 523.417 209.932C517.412 211.807 515.401 211.474 518.49 209.115C519.62 208.255 521.333 205.266 522.307 202.474C523.276 199.682 524.708 197.208 525.484 196.974C526.578 196.641 526.521 197.052 525.234 198.745C524.313 199.958 523.563 201.594 523.557 202.38C523.557 203.161 522.859 205.026 522.021 206.516C521.177 208.01 520.651 209.375 520.844 209.557C521.042 209.734 523.328 208.891 525.922 207.672L530.646 205.464L530.667 207.443C530.677 208.526 531.245 211.396 531.932 213.812L533.177 218.214L536.391 216.771C539.677 215.297 542.792 210.042 542.792 205.969C542.792 203.958 543.974 204.266 544.458 206.406C544.599 207.031 545.339 209.391 546.104 211.641L547.495 215.74L549.698 213.151C550.906 211.729 552.427 208.938 553.068 206.953C554.188 203.5 555.948 202.021 555.948 204.526C555.948 206.328 560.995 212.807 561.969 212.25C562.443 211.979 563.38 209.552 564.052 206.849C565.458 201.229 567.724 197.406 569.162 198.229C569.703 198.542 569.917 199.141 569.63 199.562C569.349 199.99 570.51 203.641 572.214 207.682C573.49 210.693 574.755 213.708 576.021 216.724C576.646 218.219 577.208 218 580.859 214.849C583.135 212.891 585.203 210.698 585.453 209.974C585.828 208.885 586.333 208.922 588.464 210.214C591.438 212.01 601.438 214.917 602.208 214.203C602.5 213.932 602.797 211.37 602.87 208.505L603 203.297L605.88 203.88C607.458 204.198 610.787 204.177 613.271 203.833L617.787 203.208L613.761 200.516C611.547 199.031 609.313 197.115 608.787 196.255C608.234 195.339 606.261 194.557 604.031 194.37C598 193.87 587.318 188.026 587.318 185.224C587.318 184.698 588.797 185.594 590.604 187.208C594.62 190.797 600.193 193.052 605.063 193.052H608.703L606.453 190.125C605.156 188.448 603.995 185.26 603.724 182.641C603.292 178.458 602.839 177.792 598.365 174.76C595.677 172.938 592.349 170.208 590.969 168.693L588.458 165.932L587.177 169.208C586.474 171.005 585.615 172.479 585.266 172.479C584.917 172.479 583.563 171.427 582.255 170.141C580.948 168.854 579.62 167.807 579.297 167.812C578.979 167.823 577.818 169.552 576.724 171.661L574.734 175.5L573.198 173.292C572.349 172.073 570.349 169.922 568.755 168.505C567.156 167.094 566.318 165.932 566.886 165.932C567.458 165.932 569.427 167.406 571.266 169.208L574.609 172.484L575.969 170.083C576.776 168.661 577.078 166.474 576.714 164.703C576.182 162.13 576.255 161.979 577.266 163.594C577.912 164.625 579.865 166.599 581.615 167.979L584.787 170.49L586.979 166.578C589.156 162.677 589.172 162.672 590.162 165C591.49 168.109 601.089 175.786 609.261 180.276C610.521 180.964 609.99 178.589 607.667 173.12C607.047 171.672 606.542 169.063 606.542 167.318C606.542 164.734 605.781 163.583 602.391 161.068C597.5 157.437 595.917 154.854 594.995 148.995C594.625 146.62 593.766 143.979 593.094 143.13C592.094 141.865 591.932 142.573 592.198 146.974C592.375 149.948 591.979 153.635 591.318 155.182L590.109 157.984L589.177 155.646C588.667 154.365 586.396 152.125 584.136 150.677C581.875 149.234 580.287 147.802 580.609 147.505C580.932 147.208 583.255 148.531 585.776 150.438C589.62 153.349 590.464 153.661 590.995 152.38C591.62 150.875 590.995 144.328 589.787 139.75C589.188 137.469 589.24 137.479 592.125 140.297C594.255 142.375 595.438 144.854 596.349 149.182C597.511 154.677 598.094 155.589 603.302 160.052C606.427 162.729 609.151 164.771 609.349 164.589C609.547 164.406 609.943 157.474 610.224 149.187C610.771 133.297 610.156 129.516 606.234 124.604L604.219 122.083L607.386 118.75C611.521 114.396 613.417 110.911 614.24 106.156L614.912 102.286L611.333 105.589C608.406 108.297 607.005 108.891 603.615 108.891C600.261 108.891 598.948 108.344 596.682 105.99C593.969 103.167 589.162 100.453 584.531 99.1302C582.823 98.6458 582.255 98.8542 582.255 99.9844C582.255 100.812 581.313 103.198 580.156 105.286L578.063 109.083L573.667 104.849C570.969 102.245 567.771 100.224 565.391 99.6146C559.313 98.0521 558.979 98.2083 558.979 102.63C558.979 109.333 556.047 110.583 550.766 106.125C546.74 102.729 543.401 101.99 535.771 102.807L529.875 103.443L530.932 106.036C531.823 108.208 531.62 109.12 529.724 111.583C526.646 115.578 522.641 117.307 516.479 117.307C513.641 117.307 510.089 117.88 508.583 118.583C507.083 119.281 503.349 120.089 500.287 120.375C497.224 120.661 493.964 121.172 493.037 121.51C491.583 122.036 491.427 121.604 491.891 118.385C492.609 113.458 489.083 109.828 483.589 109.828C476.458 109.828 473.172 116.047 475.964 124.255C476.5 125.833 477.203 128.328 477.526 129.792C477.859 131.312 481.068 135.344 485.005 139.182C488.792 142.885 492.375 146.734 492.964 147.74C493.552 148.75 495.495 150.359 497.287 151.328L500.537 153.089L500.109 149.693C499.636 145.958 500.469 145.375 502.505 148.01C503.229 148.948 505.078 150.469 506.609 151.391C509.021 152.833 509.391 152.865 509.391 151.609C509.391 150.812 509.886 148.974 510.484 147.526L511.578 144.896L513.474 148.474C514.516 150.448 517.906 154.922 521.005 158.427C527.021 165.219 530.688 172.813 528.797 174.563C528.026 175.271 525.953 175.219 521.656 174.375C518.323 173.719 514.198 173.375 512.495 173.604C509.011 174.078 508.734 173.641 510.88 171.021C513.141 168.26 512.781 167.802 508.339 167.802C503.198 167.802 490.443 165.401 485.542 163.51C480.781 161.672 479.682 162.13 478.281 166.536C477.651 168.521 476.495 172.115 475.714 174.521L474.297 178.901L479.448 178.417C482.281 178.151 485.927 177.547 487.547 177.073C489.167 176.599 490.641 176.349 490.823 176.516C491 176.682 490.276 178.391 489.214 180.318L487.281 183.818L490.495 183.182C492.26 182.828 494.922 181.969 496.401 181.271C498.979 180.052 499.188 180.141 501.224 183.328C503.724 187.245 505.724 187.083 506.167 182.927C506.625 178.635 508.073 179.266 510.797 184.958C513.417 190.432 516.141 192.365 516.667 189.12C516.839 188.042 518.25 186.292 519.802 185.224C522.938 183.068 525.302 183.714 526.656 187.099C528.063 190.604 524.932 194.214 515.833 199.599C497.604 210.38 487.005 225.125 483.979 243.922C481.25 260.875 489.771 278.391 506.87 290.974C515.052 296.995 528.047 303.349 527.224 300.927C523.714 290.63 523.833 270.979 527.417 267.667C527.958 267.167 527.771 269.219 527.005 272.219C524.156 283.406 525.396 292.323 532.698 313.214C539.302 332.109 538.386 340.187 529.042 345.526C526.037 347.24 524.104 347.521 516.037 347.427C507.276 347.323 506.323 347.495 503.51 349.682C500.787 351.802 497.25 358.76 497.25 362.005C497.25 363.766 499.25 363.531 503.188 361.318V361.313Z" fill="#FFBE29" stroke="black" stroke-width="4.292"/>
<path d="M645.349 360.932L649.026 358.63L651.516 360.932C654.787 363.948 658.61 363.88 661.75 360.75C663.12 359.385 664.354 358.437 664.485 358.646C664.62 358.854 665.229 359.87 665.844 360.896C666.62 362.198 668.214 362.854 671.099 363.052C674.568 363.292 675.5 362.964 676.88 361.021L678.526 358.703L682.141 360.969C692.042 367.177 697.318 360.661 692.891 347.693C690.641 341.099 691.88 337.391 699.13 328.995C702.188 325.453 704.693 321.677 704.698 320.599C704.698 318.88 704.13 318.651 700.063 318.729C696.167 318.807 695.026 318.396 692.979 316.193C689.641 312.615 689.839 308.51 693.568 303.964L696.547 300.323L691.261 296.828C688.36 294.901 683.12 290.354 679.62 286.714C671.761 278.542 664.037 274.661 653.849 273.786L647.021 273.193L647.031 278.24C647.042 284.734 650.167 290.979 658.693 301.562C668.386 313.594 669.063 315.458 669.458 331.182L669.787 344.484L666.985 347.078C664.448 349.427 663.307 349.724 655.125 350.187C647.339 350.625 645.703 351.016 643.417 352.99C640.38 355.615 639.474 357.042 638.537 360.667C637.99 362.776 638.214 363.234 639.776 363.234C640.818 363.234 643.328 362.198 645.349 360.932ZM438.557 322.458C438.557 320.776 439.323 320.328 443.115 319.802L447.672 319.172L444.63 316.807C441.021 314 440.688 311.807 443.87 311.802C447.037 311.802 452.406 308.589 453.224 306.214C453.604 305.109 453.365 303.635 452.682 302.875C450.906 300.896 447.563 301.198 446.943 303.391C446.276 305.745 445.162 305.75 442.63 303.411C438.823 299.891 438.734 292.609 442.453 288.365C444.203 286.365 444.188 286.234 441.953 284.172C439.552 281.953 437.839 277.557 438.964 276.516C439.323 276.182 441.224 276.448 443.182 277.104C445.969 278.031 447.068 278.047 448.219 277.167C451.698 274.5 447.927 271.073 442.349 271.828C440.109 272.13 439.182 271.828 438.859 270.693C438.615 269.828 436.651 268.703 434.438 268.161C430.49 267.182 430.458 267.198 430.458 269.854C430.458 272.766 428.755 273.312 425.521 271.448C422.891 269.927 420.339 271.104 420.339 273.839C420.339 276.391 422.969 277.646 427.677 277.349C431.287 277.125 431.422 279.745 427.995 283.51L425.526 286.219L427.479 288.958C430.375 293.016 430.13 299.755 426.969 303.099L424.49 305.724L422.865 303.62C420.604 300.698 417.511 300.891 416.667 304.016C416.109 306.057 416.568 306.99 419.193 309.156C420.953 310.609 423.526 311.802 424.912 311.802C428.333 311.802 428.198 314.427 424.641 317.083L421.859 319.156L426.156 319.807C428.526 320.167 430.458 320.839 430.458 321.302C430.458 323.089 431.573 328.5 434.396 328.635C436.922 328.755 438.495 325.016 438.557 322.458Z" fill="#FFBE29" stroke="black" stroke-width="4.292"/>
<path d="M492.984 302.875C496.891 301.375 505.344 294.385 505.344 292.656C505.344 292.115 503.011 289.609 500.162 287.094C494.156 281.792 487.625 272.865 485.932 267.646C485.052 264.927 480.787 260.266 468.776 248.906L452.797 233.781L448.193 234.922C445.662 235.547 442.568 236.073 441.323 236.094C439.182 236.125 439.219 236.245 442.068 238.396L445.078 240.667L449.292 238.385C453.38 236.172 453.526 236.156 454.031 237.937C454.328 238.984 453.693 240.792 452.563 242.12C451.464 243.406 450.839 244.865 451.172 245.359C451.505 245.859 450.453 246.896 448.833 247.672C445.833 249.104 443.75 253.828 446.12 253.828C448.25 253.828 452.948 248.172 452.406 246.26C452.13 245.276 452.26 244.271 452.703 244.021C454.531 242.974 454.417 247.411 452.563 249.599C451.464 250.885 450.839 252.344 451.172 252.844C451.505 253.339 450.453 254.38 448.833 255.151C445.854 256.578 443.75 261.307 446.099 261.307C448.396 261.307 453.016 255.901 452.448 253.88C452.146 252.823 452.26 251.75 452.703 251.5C453.938 250.797 454.599 254.302 453.563 256.021C453.005 256.938 453.01 258.193 453.573 259.193C454.599 260.995 453.557 264.458 451.672 265.536C450.865 266 451.412 266.906 453.375 268.349C456.208 270.437 456.266 270.661 456.266 279.885C456.266 287.594 456.583 289.589 458.037 290.927C459.667 292.437 459.807 292.443 459.807 290.995C459.807 289.417 462.646 287.49 464.969 287.49C465.651 287.49 469.932 291.026 474.474 295.354C479.047 299.703 483.833 303.406 485.188 303.641C486.537 303.875 487.995 304.125 488.427 304.193C488.865 304.266 490.912 303.672 492.984 302.875ZM444.125 265.573C444.125 263.089 438.87 260.432 432.583 259.745C427.51 259.193 427.427 259.224 427.427 261.698C427.427 263.745 428.224 264.547 431.724 266.036C437.354 268.427 444.125 268.177 444.125 265.573Z" fill="#FFBE29" stroke="black" stroke-width="4.292"/>
<path d="M449.88 265.344C452.448 263.073 453.662 260.375 452.12 260.375C450.344 260.375 445.636 264.5 445.636 266.052C445.636 268.474 446.51 268.328 449.88 265.344ZM444.422 257.995C444.636 256.589 443.75 255.656 441.083 254.479C435.333 251.948 428.464 250.776 426.807 252.042C423.76 254.38 425.792 257.521 430.719 258.083C432.698 258.313 435.391 258.901 436.693 259.396C440.479 260.833 444.083 260.177 444.422 257.995ZM444.422 250.484C444.729 248.484 443.417 247.766 432.714 244.089C424.724 241.344 421.188 242.641 423.74 247.375C424.63 249.021 426.125 249.776 429.474 250.266C431.964 250.63 435.365 251.339 437.037 251.844C441.495 253.198 444.073 252.724 444.422 250.484ZM449.781 243.443C451.396 241.849 452.719 239.964 452.719 239.255C452.719 236.964 446.339 241.021 445.526 243.828C444.552 247.198 446.13 247.052 449.781 243.443ZM444.422 242.974C444.771 240.693 440.886 238.635 433.25 237.052C427.646 235.891 425.172 236.552 425.594 239.094C425.823 240.479 427.688 241.495 432.984 243.104C441.458 245.688 444.005 245.656 444.422 242.974ZM451.891 232.365C461.677 228.115 462.526 217.396 453.297 214.578C449.464 213.411 447.016 214.042 445.552 216.573C444.427 218.51 445.177 222.036 446.714 222.036C447.234 222.036 447.656 222.693 447.656 223.49C447.656 227.214 432.714 228.896 426.583 225.87C424.432 224.802 423.495 222.036 425.287 222.036C426.625 222.036 427.552 219.224 426.87 217.229C425.938 214.516 423.13 213.578 419.068 214.615C409.891 216.953 410.151 227.474 419.49 231.937C427.151 235.599 443.943 235.818 451.891 232.365Z" fill="#FFBE29" stroke="black" stroke-width="4.292"/>
<path d="M445.802 224.125C446.37 223.599 446.125 222.797 445.172 222.068C443.094 220.469 443.203 218.094 445.484 215.38C447.198 213.339 447.412 210.286 448.005 179.484C449.021 126.406 453.068 86.4844 458.396 76.9062C460.521 73.0937 460.224 73.0781 454.74 76.7187C447.672 81.4114 442.292 87.5156 437.526 96.2604C428.526 112.771 425.396 134.979 425.396 182.396C425.396 209.318 425.583 212.839 427.156 215.37C428.651 217.771 428.729 218.661 427.682 221.224C427 222.891 426.693 224.479 426.995 224.76C429.005 226.62 443.641 226.125 445.802 224.13V224.125ZM528.042 173.51C528.349 173.052 527.667 170.734 526.537 168.365C524.766 164.667 524.052 164.057 521.531 164.057C513.641 164.057 500.948 160.615 487.865 154.922C480.307 151.635 477.698 150.88 476.792 151.719C474.484 153.854 478.323 158.927 484.271 161.594C489.552 163.953 504.307 166.859 511.037 166.859C514.943 166.859 515.037 167.031 512.813 170.167L511.177 172.474L515.594 172.583C518.026 172.646 521.38 173.016 523.052 173.406C527.385 174.427 527.427 174.427 528.042 173.51Z" fill="#FFBE29" stroke="black" stroke-width="4.292"/>
<path d="M574.156 197.427C574.156 196.057 570.026 192.339 565.844 189.943C562.557 188.063 562.016 188.005 562.005 189.536C561.995 191.87 559.875 197.719 559.037 197.719C558.568 197.719 557.875 196.578 557.495 195.177C557.115 193.781 555.521 191.026 553.953 189.057L551.104 185.479L548.886 188.792C546.818 191.885 543.234 194.917 541.646 194.917C541.266 194.917 541.193 193.286 541.479 191.297C541.792 189.135 541.552 187.417 540.875 187.031C540.255 186.677 539.75 186.802 539.75 187.307C539.75 188.474 534.771 193.979 533.719 193.979C533.287 193.979 532.677 192.401 532.37 190.474C532.063 188.547 531.537 185.495 531.208 183.693C530.875 181.896 531.583 183.115 532.781 186.406L534.958 192.391L537.349 188.745C538.662 186.74 539.74 184.547 539.745 183.87C539.745 183.198 540.193 182.901 540.729 183.208C541.271 183.516 542.026 185.932 542.401 188.568L543.094 193.365L545.724 190.552C547.167 189.005 548.865 186.938 549.484 185.953C550.604 184.193 550.667 184.198 552.886 186.031C554.125 187.063 556.037 189.521 557.13 191.5C558.224 193.479 559.266 194.948 559.443 194.771C559.62 194.594 560.021 192.552 560.333 190.24C560.646 187.927 560.922 185.948 560.948 185.839C561.104 185.266 568.87 190.193 571.745 192.688C573.589 194.292 575.344 195.375 575.641 195.104C575.938 194.828 576.182 192.464 576.182 189.849C576.182 185.792 575.74 184.708 573.198 182.49C570.276 179.943 570.193 179.927 569.115 181.792C567.714 184.214 566.063 184.245 566.063 181.854C566.063 180.115 560.537 173.406 559.104 173.406C558.729 173.406 557.568 174.88 556.516 176.682C555.469 178.479 554.339 179.953 554.011 179.948C552.594 179.943 544.807 171.474 544.813 169.943C544.813 168.729 545.339 169.036 546.703 171.068C547.74 172.615 549.813 174.917 551.307 176.188C554.333 178.766 555.432 178.135 556.599 173.172C556.932 171.76 557.511 170.604 557.886 170.604C559.182 170.604 565.958 177.625 566.912 179.953L567.865 182.292L568.594 179.719C569.479 176.573 570.458 176.458 571.87 179.328C572.464 180.526 575.38 183.016 578.359 184.865L583.771 188.224L584.859 184.849C585.453 182.99 586.245 181.922 586.615 182.474C587.167 183.297 585.761 188.896 584.698 190.099C584.542 190.281 582.787 189.286 580.802 187.885L577.193 185.344L577.177 189.896C577.167 192.396 576.891 195.396 576.557 196.552C575.896 198.813 574.156 199.453 574.156 197.427ZM547.172 161.13C540.74 155.891 539.761 154.693 539.906 152.208L540.057 149.568L540.474 152.12C540.719 153.609 542.432 155.844 544.594 157.49L548.292 160.307L550.563 157.74C551.813 156.333 552.854 154.651 552.87 154.01C552.927 152.333 553.234 152.474 557.589 156.161C561.458 159.438 561.521 159.453 562.094 157.328C562.417 156.146 562.302 153.917 561.839 152.38C560.578 148.146 560.823 147.505 562.74 150.063C563.693 151.333 565.229 153.13 566.151 154.052C567.755 155.667 567.854 155.646 568.448 153.589C568.792 152.406 569.078 150.24 569.089 148.776L569.099 146.115L572.589 149.974C575.849 153.578 576.146 153.714 577.141 151.995C577.729 150.984 578.214 148.552 578.224 146.589C578.234 144.052 578.511 143.417 579.172 144.38C580.271 145.99 579.505 150.38 577.469 154.12L576.005 156.802L574.089 153.885C571.63 150.156 570.813 150.214 569.24 154.24C567.75 158.047 566.781 158.339 565.333 155.411C564.391 153.516 564.214 153.75 563.547 157.724L562.807 162.146L553.932 155.427L551.938 157.641C550.839 158.854 549.927 160.38 549.906 161.021C549.865 162.417 548.797 162.458 547.172 161.13ZM604.391 141.615C602.052 139.552 600.438 137.589 600.807 137.25C601.177 136.906 601.594 136.807 601.734 137.031C601.875 137.255 603.787 139.219 605.984 141.396C611.052 146.411 610.011 146.552 604.391 141.615ZM528.172 133.927C526.042 131.115 526.193 129.255 528.781 126.208C530.656 124.01 531.511 123.708 534.787 124.115C536.88 124.375 541.396 126.182 544.818 128.135C548.771 130.391 552.854 131.896 556.021 132.271C558.761 132.599 561.005 132.719 561.005 132.547C561.005 132.37 559.865 130.563 558.474 128.526C555.172 123.688 555.287 123.167 559.01 126.068C562.839 129.042 567.412 129.911 577.641 129.604L582.636 129.458L579.734 126.661C575.682 122.755 576.932 122.401 581.406 126.193C585.604 129.75 585.344 130 576.505 130.859C572.75 131.224 568.714 130.958 565.354 130.13C560.333 128.88 560.141 128.901 561.089 130.542C561.641 131.49 562.526 132.266 563.063 132.266C563.599 132.266 564.042 132.745 564.042 133.328C564.042 135.135 553.193 133.547 548.011 130.984C536.172 125.141 534.682 124.63 531.859 125.5C530.292 125.979 528.724 127.391 528.182 128.807C526.38 133.526 533.234 137.193 536.063 133.021C536.886 131.813 536.693 130.984 535.25 129.516C533.276 127.5 533.464 127.214 536.125 128.156C538.021 128.828 538.271 133.255 536.516 134.88C534.5 136.745 529.906 136.214 528.172 133.927Z" fill="black" stroke="black" stroke-width="4.292"/>
<path d="M574.813 122.276C573.333 120.906 574.495 120.573 581.13 120.453C589.344 120.302 594.333 118.969 600.214 115.344C604.932 112.437 606.208 113.01 601.734 116.021C597.651 118.766 591.281 120.88 585.135 121.526C582.156 121.839 578.766 122.271 577.594 122.49C576.427 122.703 575.172 122.609 574.813 122.276Z" fill="black" stroke="black" stroke-width="4.292"/>
<path d="M503.188 361.313L506.594 359.396L508.052 361.318C509.995 363.88 515.37 363.849 518.932 361.255L521.656 359.276L523.943 361.255C526.943 363.865 532.547 363.865 536.125 361.266C538.63 359.448 538.979 359.411 540.635 360.797C541.625 361.62 544.521 362.563 547.073 362.885C551.672 363.469 551.74 363.432 554.432 359.495C556.682 356.198 557.036 354.865 556.5 351.667C556.141 349.547 555.755 346.135 555.646 344.083C555.443 340.37 555.464 340.349 561.005 338.464C564.068 337.422 567.609 336.031 568.88 335.365C571.094 334.203 577.198 327.208 577.198 325.828C577.198 325.458 574.813 324.901 571.901 324.583C560.307 323.313 558.344 317.24 565.88 305.958C578.167 287.563 585.583 269.646 585.635 258.234C585.656 253.13 585.953 251.417 586.625 252.526C589.37 257.063 584.453 276.073 577 289.724L574 295.219L576.865 294.578C578.438 294.224 587.698 290.411 597.438 286.104C624.099 274.328 633.255 272.016 650.51 272.724C664.964 273.318 671.12 276.073 681.328 286.521C686.734 292.052 691.943 296.01 701.469 301.828C721.771 314.229 722.615 315.302 723.583 329.88C724.557 344.651 724.073 345.453 712.62 347.922C702.833 350.031 696.698 354.484 695.052 360.672C694.172 363.974 696.021 364.068 700.958 360.974L704.573 358.708L706.182 360.974C708.297 363.953 712.792 363.969 716.521 361L719.339 358.76L722.219 361C726.698 364.484 732.651 363.635 734.333 359.286C734.656 358.448 735.516 358.714 737.26 360.193C740.531 362.969 748.917 364.156 749.823 361.979C750.167 361.146 749.51 359.089 748.365 357.411C743.484 350.276 741.958 346.87 741.896 342.984C741.807 337.583 743.458 334.974 749.76 330.583C757.411 325.245 759.776 318.354 753.958 318.354C750.365 318.354 746.74 315.255 744.432 310.208C739.74 299.943 740.656 288.438 747.703 269.297C754.859 249.849 755.656 246.266 755.682 233.26C755.708 222.745 755.438 220.927 752.984 215.167C751.484 211.641 748.443 206.391 746.224 203.505L742.193 198.25L747.37 194.063C763.182 181.281 759.948 160.359 740.911 152.302C735.089 149.833 733.635 149.615 723.427 149.682C717.307 149.724 707.969 150.51 702.682 151.432C697.292 152.37 688.167 153.125 681.906 153.151C671.964 153.188 670.276 152.948 666.443 150.958C662.448 148.885 661.76 147.896 660.979 143.099C660.818 142.115 660.109 141.13 659.406 140.917C658.047 140.495 651.771 145.813 650.844 148.167C650.385 149.328 650.016 149.245 648.672 147.698C647.781 146.672 646.536 144.307 645.906 142.448C644.323 137.766 646.266 134.26 651.901 131.635L656.276 129.594L653.698 128.031C648.375 124.813 639.328 127.016 636.057 132.328C635.13 133.833 634.12 135.068 633.813 135.068C633.505 135.073 631.745 133.641 629.906 131.88C623.036 125.333 625.396 115.641 634.583 112.682C639.484 111.104 643.823 112.313 644.724 115.5C646.099 120.365 650.38 113.969 649.615 108.193C649.104 104.349 649.182 104.214 651.906 104.214C655.693 104.214 663.755 109.068 666.25 112.849C669.146 117.234 668.938 124.151 665.75 129.302L663.245 133.349L666.521 132.708C671.318 131.771 675.984 128.859 678.344 125.333C680.839 121.604 681.104 114.339 678.896 110.422C676.75 106.625 676.995 106.021 680.167 107.302C685.557 109.49 688.438 111.896 690.599 116.021C692.547 119.734 692.656 120.661 691.599 124.526C690.948 126.911 689.505 130.052 688.385 131.505C686.646 133.76 686.583 134.141 687.974 134.141C690.557 134.141 695.948 131.755 697.865 129.766C698.833 128.76 700.245 126.286 701 124.266L702.375 120.594L703.958 123.391C706.193 127.349 710.536 130.911 715.839 133.13C721.536 135.516 723.911 135.646 720.932 133.417C718.922 131.911 715.219 121.313 716.339 120.276C717 119.667 724.74 125.474 733.573 133.214C741.932 140.531 747.182 142.932 754.859 142.932C764.667 142.932 770.375 134.604 765.969 126.729C763.401 122.135 757.677 121.5 754.328 125.432C752.786 127.24 752.365 128.677 752.818 130.573C753.37 132.896 753.156 133.208 750.984 133.208C748.135 133.208 742.516 129.646 732.536 121.526C717.318 109.135 698.828 98.6354 685.479 94.7969C676.911 92.3385 658.609 91.375 649.901 92.9323C640.474 94.6146 629.323 99.875 623.25 105.51C612.484 115.495 612.318 128.781 622.797 140.88L625.797 144.344L623.766 147.427C620.807 151.906 621.063 157.938 624.391 162.38C625.859 164.333 627.339 165.932 627.682 165.932C628.021 165.932 628.396 164.677 628.516 163.141C628.807 159.25 630.516 156.651 633.453 155.62C636.094 154.688 637.802 155.13 649.901 159.839C662.635 164.797 683.568 165.141 705.828 160.75C716.74 158.599 729.609 158.724 735.271 161.042C745.646 165.281 748.052 176.318 740.422 184.693C737.12 188.323 733.938 189.797 723.245 192.661C715.109 194.839 713.182 194.984 694.688 194.802C678.885 194.651 673.208 194.948 666.755 196.26C659.755 197.688 655.448 197.833 634.88 197.323L611.099 196.74L613.734 198.87C615.188 200.042 617.234 201.484 618.292 202.073C620.083 203.078 620.026 203.214 617.359 204.182C615.792 204.745 612.313 205.208 609.63 205.208H604.75L604.094 209.255C603.734 211.479 603.76 214.078 604.156 215.026C604.734 216.427 604.521 216.63 603.005 216.094C601.979 215.729 599.12 215.016 596.656 214.505C594.188 213.995 590.87 212.953 589.276 212.193C586.599 210.911 586.302 210.948 585.318 212.651C584.438 214.172 576.172 220.172 574.958 220.172C574.766 220.172 574.51 219.016 574.396 217.599C574.286 216.188 573.094 212.505 571.75 209.417C570.406 206.333 569 202.964 568.63 201.938C568.068 200.385 567.818 200.307 567.141 201.469C566.693 202.24 566.036 204.344 565.688 206.146C565.333 207.943 564.089 210.87 562.922 212.641L560.792 215.87L559.432 213.109C557.974 210.151 555.557 207.078 554.677 207.078C554.385 207.078 553.88 208.026 553.563 209.182C552.891 211.599 547.156 218.302 545.755 218.302C545.24 218.302 544.813 216.406 544.813 214.094C544.813 211.776 544.359 209.885 543.802 209.885C543.245 209.885 542.792 210.484 542.792 211.214C542.792 212.995 537.891 218.302 536.245 218.302C535.531 218.302 534.375 218.932 533.682 219.703C531.875 221.714 530.396 221.432 531.156 219.219C531.516 218.182 531.281 215.766 530.641 213.844L529.135 209.302C528.891 208.573 527.135 208.766 523.417 209.932C517.411 211.807 515.401 211.474 518.49 209.115C519.62 208.255 521.333 205.266 522.307 202.474C523.276 199.682 524.708 197.208 525.484 196.974C526.578 196.641 526.521 197.052 525.234 198.745C524.313 199.958 523.563 201.594 523.557 202.38C523.557 203.161 522.859 205.026 522.021 206.516C521.177 208.01 520.651 209.375 520.844 209.557C521.042 209.734 523.328 208.891 525.922 207.672L530.646 205.464L530.667 207.443C530.677 208.526 531.245 211.396 531.932 213.813L533.177 218.214L536.391 216.771C539.677 215.297 542.792 210.042 542.792 205.969C542.792 203.958 543.974 204.266 544.458 206.406C544.599 207.031 545.339 209.391 546.104 211.641L547.495 215.74L549.698 213.151C550.906 211.729 552.427 208.938 553.068 206.953C554.188 203.5 555.948 202.021 555.948 204.526C555.948 206.328 560.995 212.807 561.969 212.25C562.443 211.979 563.38 209.552 564.052 206.849C565.458 201.229 567.724 197.406 569.161 198.229C569.703 198.542 569.917 199.141 569.63 199.563C569.349 199.99 570.51 203.641 572.214 207.682C573.49 210.693 574.755 213.708 576.021 216.724C576.646 218.219 577.208 218 580.859 214.849C583.135 212.891 585.203 210.698 585.453 209.974C585.828 208.885 586.333 208.922 588.464 210.214C591.438 212.01 601.438 214.917 602.208 214.203C602.5 213.932 602.797 211.37 602.87 208.505L603 203.297L605.88 203.88C607.458 204.198 610.786 204.177 613.271 203.833L617.786 203.208L613.76 200.516C611.547 199.031 609.313 197.115 608.786 196.255C608.234 195.339 606.26 194.557 604.031 194.37C598 193.87 587.318 188.026 587.318 185.224C587.318 184.698 588.797 185.594 590.604 187.208C594.62 190.797 600.193 193.052 605.063 193.052H608.703L606.453 190.125C605.156 188.448 603.995 185.26 603.724 182.641C603.292 178.458 602.839 177.792 598.365 174.76C595.677 172.938 592.349 170.208 590.969 168.693L588.458 165.932L587.177 169.208C586.474 171.005 585.615 172.479 585.266 172.479C584.917 172.479 583.563 171.427 582.255 170.141C580.948 168.854 579.62 167.807 579.297 167.813C578.979 167.823 577.818 169.552 576.724 171.661L574.734 175.5L573.198 173.292C572.349 172.073 570.349 169.922 568.755 168.505C567.156 167.094 566.318 165.932 566.885 165.932C567.458 165.932 569.427 167.406 571.266 169.208L574.609 172.484L575.969 170.083C576.776 168.661 577.078 166.474 576.714 164.703C576.182 162.13 576.255 161.979 577.266 163.594C577.911 164.625 579.865 166.599 581.615 167.979L584.786 170.49L586.979 166.578C589.156 162.677 589.172 162.672 590.161 165C591.49 168.109 601.089 175.786 609.26 180.276C610.521 180.964 609.99 178.589 607.667 173.12C607.047 171.672 606.542 169.063 606.542 167.318C606.542 164.734 605.781 163.583 602.391 161.068C597.5 157.438 595.917 154.854 594.995 148.995C594.625 146.62 593.766 143.979 593.094 143.13C592.094 141.865 591.932 142.573 592.198 146.974C592.375 149.948 591.979 153.635 591.318 155.182L590.109 157.984L589.177 155.646C588.667 154.365 586.396 152.125 584.135 150.677C581.875 149.234 580.286 147.802 580.609 147.505C580.932 147.208 583.255 148.531 585.776 150.438C589.62 153.349 590.464 153.661 590.995 152.38C591.62 150.875 590.995 144.328 589.786 139.75C589.188 137.469 589.24 137.479 592.125 140.297C594.255 142.375 595.438 144.854 596.349 149.182C597.51 154.677 598.094 155.589 603.302 160.052C606.427 162.729 609.151 164.771 609.349 164.589C609.547 164.406 609.943 157.474 610.224 149.188C610.771 133.297 610.156 129.516 606.234 124.604L604.219 122.083L607.385 118.75C611.521 114.396 613.417 110.911 614.24 106.156L614.911 102.286L611.333 105.589C608.406 108.297 607.005 108.891 603.615 108.891C600.26 108.891 598.948 108.344 596.682 105.99C593.969 103.167 589.161 100.453 584.531 99.1302C582.823 98.6458 582.255 98.8542 582.255 99.9844C582.255 100.812 581.313 103.198 580.156 105.286L578.063 109.083L573.667 104.849C570.969 102.245 567.771 100.224 565.391 99.6146C559.313 98.0521 558.979 98.2083 558.979 102.63C558.979 109.333 556.047 110.583 550.766 106.125C546.74 102.729 543.401 101.99 535.771 102.807L529.875 103.443L530.932 106.036C531.823 108.208 531.62 109.12 529.724 111.583C526.646 115.578 522.641 117.307 516.479 117.307C513.641 117.307 510.089 117.88 508.583 118.583C507.083 119.281 503.349 120.089 500.286 120.375C497.224 120.661 493.964 121.172 493.036 121.51C491.583 122.036 491.427 121.604 491.891 118.385C492.609 113.458 489.083 109.828 483.589 109.828C476.458 109.828 473.172 116.047 475.964 124.255C476.5 125.833 477.203 128.328 477.526 129.792C477.859 131.313 481.068 135.344 485.005 139.182C488.792 142.885 492.375 146.734 492.964 147.74C493.552 148.75 495.495 150.359 497.286 151.328L500.536 153.089L500.109 149.693C499.635 145.958 500.469 145.375 502.505 148.01C503.229 148.948 505.078 150.469 506.609 151.391C509.021 152.833 509.391 152.865 509.391 151.609C509.391 150.813 509.885 148.974 510.484 147.526L511.578 144.896L513.474 148.474C514.516 150.448 517.906 154.922 521.005 158.427C527.021 165.219 530.688 172.813 528.797 174.563C528.026 175.271 525.953 175.219 521.656 174.375C518.323 173.719 514.198 173.375 512.495 173.604C509.01 174.078 508.734 173.641 510.88 171.021C513.141 168.26 512.781 167.802 508.339 167.802C503.198 167.802 490.443 165.401 485.542 163.51C480.781 161.672 479.682 162.13 478.281 166.536C477.651 168.521 476.495 172.115 475.714 174.521L474.297 178.901L479.448 178.417C482.281 178.151 485.927 177.547 487.547 177.073C489.167 176.599 490.641 176.349 490.823 176.516C491 176.682 490.276 178.391 489.214 180.318L487.281 183.818L490.495 183.182C492.26 182.828 494.922 181.969 496.401 181.271C498.979 180.052 499.188 180.141 501.224 183.328C503.724 187.245 505.724 187.083 506.167 182.927C506.625 178.635 508.073 179.266 510.797 184.958C513.417 190.432 516.141 192.365 516.667 189.12C516.839 188.042 518.25 186.292 519.802 185.224C522.938 183.068 525.302 183.714 526.656 187.099C528.063 190.604 524.932 194.214 515.833 199.599C497.604 210.38 487.005 225.125 483.979 243.922C481.25 260.875 489.771 278.391 506.87 290.974C515.052 296.995 528.047 303.349 527.224 300.927C523.714 290.63 523.833 270.979 527.417 267.667C527.958 267.167 527.771 269.219 527.005 272.219C524.156 283.406 525.396 292.323 532.698 313.214C539.302 332.109 538.385 340.188 529.042 345.526C526.036 347.24 524.104 347.521 516.036 347.427C507.276 347.323 506.323 347.495 503.51 349.682C500.786 351.802 497.25 358.76 497.25 362.005C497.25 363.766 499.25 363.531 503.188 361.318V361.313Z" fill="#FFBE29"/>
<path d="M645.349 360.932L649.026 358.63L651.516 360.932C654.786 363.948 658.609 363.88 661.75 360.75C663.12 359.385 664.354 358.438 664.484 358.646C664.62 358.854 665.229 359.87 665.844 360.896C666.62 362.198 668.214 362.854 671.099 363.052C674.568 363.292 675.5 362.964 676.88 361.021L678.526 358.703L682.141 360.969C692.042 367.177 697.318 360.661 692.891 347.693C690.641 341.099 691.88 337.391 699.13 328.995C702.187 325.453 704.693 321.677 704.698 320.599C704.698 318.88 704.13 318.651 700.062 318.729C696.167 318.807 695.026 318.396 692.979 316.193C689.641 312.615 689.839 308.51 693.568 303.964L696.547 300.323L691.26 296.828C688.359 294.901 683.12 290.354 679.62 286.714C671.76 278.542 664.036 274.661 653.849 273.786L647.021 273.193L647.031 278.24C647.042 284.734 650.167 290.979 658.693 301.563C668.385 313.594 669.062 315.458 669.458 331.182L669.786 344.484L666.984 347.078C664.448 349.427 663.307 349.724 655.125 350.188C647.339 350.625 645.703 351.016 643.417 352.99C640.38 355.615 639.474 357.042 638.536 360.667C637.99 362.776 638.214 363.234 639.776 363.234C640.818 363.234 643.328 362.198 645.349 360.932ZM438.557 322.458C438.557 320.776 439.323 320.328 443.115 319.802L447.672 319.172L444.63 316.807C441.021 314 440.687 311.807 443.87 311.802C447.036 311.802 452.406 308.589 453.224 306.214C453.604 305.109 453.365 303.635 452.682 302.875C450.906 300.896 447.562 301.198 446.943 303.391C446.276 305.745 445.161 305.75 442.63 303.411C438.823 299.891 438.734 292.609 442.453 288.365C444.203 286.365 444.187 286.234 441.953 284.172C439.552 281.953 437.839 277.557 438.964 276.516C439.323 276.182 441.224 276.448 443.182 277.104C445.969 278.031 447.068 278.047 448.219 277.167C451.698 274.5 447.927 271.073 442.349 271.828C440.109 272.13 439.182 271.828 438.859 270.693C438.615 269.828 436.651 268.703 434.437 268.161C430.49 267.182 430.458 267.198 430.458 269.854C430.458 272.766 428.755 273.313 425.521 271.448C422.891 269.927 420.339 271.104 420.339 273.839C420.339 276.391 422.969 277.646 427.677 277.349C431.286 277.125 431.422 279.745 427.995 283.51L425.526 286.219L427.479 288.958C430.375 293.016 430.13 299.755 426.969 303.099L424.49 305.724L422.865 303.62C420.604 300.698 417.51 300.891 416.667 304.016C416.109 306.057 416.568 306.99 419.193 309.156C420.953 310.609 423.526 311.802 424.911 311.802C428.333 311.802 428.198 314.427 424.641 317.083L421.859 319.156L426.156 319.807C428.526 320.167 430.458 320.839 430.458 321.302C430.458 323.089 431.573 328.5 434.396 328.635C436.922 328.755 438.495 325.016 438.557 322.458Z" fill="#FFBE29"/>
<path d="M492.984 302.875C496.891 301.375 505.344 294.385 505.344 292.656C505.344 292.115 503.01 289.609 500.161 287.094C494.156 281.792 487.625 272.865 485.932 267.646C485.052 264.927 480.786 260.266 468.776 248.906L452.797 233.781L448.193 234.922C445.661 235.547 442.568 236.073 441.323 236.094C439.182 236.125 439.219 236.245 442.068 238.396L445.078 240.667L449.292 238.385C453.38 236.172 453.526 236.156 454.031 237.938C454.328 238.984 453.693 240.792 452.563 242.12C451.464 243.406 450.839 244.865 451.172 245.359C451.505 245.859 450.453 246.896 448.833 247.672C445.833 249.104 443.75 253.828 446.12 253.828C448.25 253.828 452.948 248.172 452.406 246.26C452.13 245.276 452.26 244.271 452.703 244.021C454.531 242.974 454.417 247.411 452.563 249.599C451.464 250.885 450.839 252.344 451.172 252.844C451.505 253.339 450.453 254.38 448.833 255.151C445.854 256.578 443.75 261.307 446.099 261.307C448.396 261.307 453.016 255.901 452.448 253.88C452.146 252.823 452.26 251.75 452.703 251.5C453.938 250.797 454.599 254.302 453.563 256.021C453.005 256.938 453.01 258.193 453.573 259.193C454.599 260.995 453.557 264.458 451.672 265.536C450.865 266 451.411 266.906 453.375 268.349C456.208 270.438 456.266 270.661 456.266 279.885C456.266 287.594 456.583 289.589 458.036 290.927C459.667 292.438 459.807 292.443 459.807 290.995C459.807 289.417 462.646 287.49 464.969 287.49C465.651 287.49 469.932 291.026 474.474 295.354C479.047 299.703 483.833 303.406 485.188 303.641C486.536 303.875 487.995 304.125 488.427 304.193C488.865 304.266 490.911 303.672 492.984 302.875ZM444.125 265.573C444.125 263.089 438.87 260.432 432.583 259.745C427.51 259.193 427.427 259.224 427.427 261.698C427.427 263.745 428.224 264.547 431.724 266.036C437.354 268.427 444.125 268.177 444.125 265.573Z" fill="#FFBE29"/>
<path d="M449.88 265.344C452.448 263.073 453.661 260.375 452.12 260.375C450.344 260.375 445.635 264.5 445.635 266.052C445.635 268.474 446.51 268.328 449.88 265.344ZM444.422 257.995C444.635 256.589 443.75 255.656 441.083 254.479C435.333 251.948 428.464 250.776 426.807 252.042C423.76 254.38 425.792 257.521 430.719 258.083C432.698 258.313 435.391 258.901 436.693 259.396C440.479 260.833 444.083 260.177 444.422 257.995ZM444.422 250.484C444.729 248.484 443.417 247.766 432.714 244.089C424.724 241.344 421.187 242.641 423.74 247.375C424.63 249.021 426.125 249.776 429.474 250.266C431.964 250.63 435.365 251.339 437.036 251.844C441.495 253.198 444.073 252.724 444.422 250.484ZM449.781 243.443C451.396 241.849 452.719 239.964 452.719 239.255C452.719 236.964 446.339 241.021 445.526 243.828C444.552 247.198 446.13 247.052 449.781 243.443ZM444.422 242.974C444.771 240.693 440.885 238.635 433.25 237.052C427.646 235.891 425.172 236.552 425.594 239.094C425.823 240.479 427.687 241.495 432.984 243.104C441.458 245.688 444.005 245.656 444.422 242.974ZM451.891 232.365C461.677 228.115 462.526 217.396 453.297 214.578C449.464 213.411 447.016 214.042 445.552 216.573C444.427 218.51 445.177 222.036 446.714 222.036C447.234 222.036 447.656 222.693 447.656 223.49C447.656 227.214 432.714 228.896 426.583 225.87C424.432 224.802 423.495 222.036 425.286 222.036C426.625 222.036 427.552 219.224 426.87 217.229C425.937 214.516 423.13 213.578 419.068 214.615C409.891 216.953 410.151 227.474 419.49 231.938C427.151 235.599 443.943 235.818 451.891 232.365Z" fill="#FFBE29"/>
<path d="M445.802 224.125C446.37 223.599 446.125 222.797 445.172 222.068C443.094 220.469 443.203 218.094 445.484 215.38C447.198 213.339 447.411 210.286 448.005 179.484C449.021 126.406 453.068 86.4844 458.396 76.9063C460.521 73.0937 460.224 73.0781 454.74 76.7188C447.672 81.4115 442.292 87.5156 437.526 96.2604C428.526 112.771 425.396 134.979 425.396 182.396C425.396 209.318 425.583 212.839 427.156 215.37C428.651 217.771 428.729 218.661 427.682 221.224C427 222.891 426.693 224.479 426.995 224.76C429.005 226.62 443.641 226.125 445.802 224.13V224.125ZM528.042 173.51C528.349 173.052 527.667 170.734 526.536 168.365C524.766 164.667 524.052 164.057 521.531 164.057C513.641 164.057 500.948 160.615 487.865 154.922C480.307 151.635 477.698 150.88 476.792 151.719C474.484 153.854 478.323 158.927 484.271 161.594C489.552 163.953 504.307 166.859 511.036 166.859C514.943 166.859 515.036 167.031 512.813 170.167L511.177 172.474L515.594 172.583C518.026 172.646 521.38 173.016 523.052 173.406C527.385 174.427 527.427 174.427 528.042 173.51Z" fill="#FFBE29"/>
<path d="M574.156 197.427C574.156 196.057 570.026 192.339 565.844 189.943C562.557 188.062 562.016 188.005 562.005 189.536C561.995 191.87 559.875 197.719 559.036 197.719C558.568 197.719 557.875 196.578 557.495 195.177C557.115 193.781 555.521 191.026 553.953 189.057L551.104 185.479L548.885 188.792C546.818 191.885 543.234 194.917 541.646 194.917C541.266 194.917 541.193 193.286 541.479 191.297C541.792 189.135 541.552 187.417 540.875 187.031C540.255 186.677 539.75 186.802 539.75 187.307C539.75 188.474 534.771 193.979 533.719 193.979C533.286 193.979 532.677 192.401 532.37 190.474C532.062 188.547 531.536 185.495 531.208 183.693C530.875 181.896 531.583 183.115 532.781 186.406L534.958 192.391L537.349 188.745C538.661 186.74 539.74 184.547 539.745 183.87C539.745 183.198 540.193 182.901 540.729 183.208C541.271 183.516 542.026 185.932 542.401 188.568L543.094 193.365L545.724 190.552C547.167 189.005 548.865 186.937 549.484 185.953C550.604 184.193 550.667 184.198 552.885 186.031C554.125 187.062 556.036 189.521 557.13 191.5C558.224 193.479 559.266 194.948 559.443 194.771C559.62 194.594 560.021 192.552 560.333 190.24C560.646 187.927 560.922 185.948 560.948 185.839C561.104 185.266 568.87 190.193 571.745 192.687C573.589 194.292 575.344 195.375 575.641 195.104C575.937 194.828 576.182 192.464 576.182 189.849C576.182 185.792 575.74 184.708 573.198 182.49C570.276 179.943 570.193 179.927 569.115 181.792C567.714 184.214 566.062 184.245 566.062 181.854C566.062 180.115 560.536 173.406 559.104 173.406C558.729 173.406 557.568 174.88 556.516 176.682C555.469 178.479 554.339 179.953 554.01 179.948C552.594 179.943 544.807 171.474 544.812 169.943C544.812 168.729 545.339 169.036 546.703 171.068C547.74 172.615 549.812 174.917 551.307 176.187C554.333 178.766 555.432 178.135 556.599 173.172C556.932 171.76 557.51 170.604 557.885 170.604C559.182 170.604 565.958 177.625 566.911 179.953L567.865 182.292L568.594 179.719C569.479 176.573 570.458 176.458 571.87 179.328C572.464 180.526 575.38 183.016 578.359 184.865L583.771 188.224L584.859 184.849C585.453 182.99 586.245 181.922 586.615 182.474C587.167 183.297 585.76 188.896 584.698 190.099C584.542 190.281 582.786 189.286 580.802 187.885L577.193 185.344L577.177 189.896C577.167 192.396 576.891 195.396 576.557 196.552C575.896 198.813 574.156 199.453 574.156 197.427ZM547.172 161.13C540.74 155.891 539.76 154.693 539.906 152.208L540.057 149.568L540.474 152.12C540.719 153.609 542.432 155.844 544.594 157.49L548.292 160.307L550.562 157.74C551.812 156.333 552.854 154.651 552.87 154.01C552.927 152.333 553.234 152.474 557.589 156.161C561.458 159.438 561.521 159.453 562.094 157.328C562.417 156.146 562.302 153.917 561.839 152.38C560.578 148.146 560.823 147.505 562.74 150.063C563.693 151.333 565.229 153.13 566.151 154.052C567.755 155.667 567.854 155.646 568.448 153.589C568.792 152.406 569.078 150.24 569.089 148.776L569.099 146.115L572.589 149.974C575.849 153.578 576.146 153.714 577.141 151.995C577.729 150.984 578.214 148.552 578.224 146.589C578.234 144.052 578.51 143.417 579.172 144.38C580.271 145.99 579.505 150.38 577.469 154.12L576.005 156.802L574.089 153.885C571.63 150.156 570.812 150.214 569.24 154.24C567.75 158.047 566.781 158.339 565.333 155.411C564.391 153.516 564.214 153.75 563.547 157.724L562.807 162.146L553.932 155.427L551.937 157.641C550.839 158.854 549.927 160.38 549.906 161.021C549.865 162.417 548.797 162.458 547.172 161.13ZM604.391 141.615C602.052 139.552 600.437 137.589 600.807 137.25C601.177 136.906 601.594 136.807 601.734 137.031C601.875 137.255 603.786 139.219 605.984 141.396C611.052 146.411 610.01 146.552 604.391 141.615ZM528.172 133.927C526.042 131.115 526.193 129.255 528.781 126.208C530.656 124.01 531.51 123.708 534.786 124.115C536.88 124.375 541.396 126.182 544.818 128.135C548.771 130.391 552.854 131.896 556.021 132.271C558.76 132.599 561.005 132.719 561.005 132.547C561.005 132.37 559.865 130.562 558.474 128.526C555.172 123.687 555.286 123.167 559.01 126.068C562.839 129.042 567.411 129.911 577.641 129.604L582.635 129.458L579.734 126.661C575.682 122.755 576.932 122.401 581.406 126.193C585.604 129.75 585.344 130 576.505 130.859C572.75 131.224 568.714 130.958 565.354 130.13C560.333 128.88 560.141 128.901 561.089 130.542C561.641 131.49 562.526 132.266 563.062 132.266C563.599 132.266 564.042 132.745 564.042 133.328C564.042 135.135 553.193 133.547 548.01 130.984C536.172 125.141 534.682 124.63 531.859 125.5C530.292 125.979 528.724 127.391 528.182 128.807C526.38 133.526 533.234 137.193 536.062 133.021C536.885 131.812 536.693 130.984 535.25 129.516C533.276 127.5 533.464 127.214 536.125 128.156C538.021 128.828 538.271 133.255 536.516 134.88C534.5 136.745 529.906 136.214 528.172 133.927Z" fill="black"/>
<path d="M574.812 122.276C573.333 120.906 574.495 120.573 581.13 120.453C589.344 120.302 594.333 118.969 600.214 115.344C604.932 112.437 606.208 113.01 601.734 116.021C597.651 118.766 591.281 120.88 585.135 121.526C582.156 121.839 578.766 122.271 577.594 122.49C576.427 122.703 575.172 122.609 574.812 122.276Z" fill="black"/>
<path d="M798.833 336.5C798.833 336.5 803.787 346.828 809.255 351.042C817.365 357.276 833.99 356.828 841.047 364.104C849.505 372.688 840.391 384.021 840.469 385.005L840.933 390.995C840.933 390.995 835.229 391.063 832.828 391.448C829.219 392.026 827.813 395.031 821.094 394.589C804.193 393.464 804.875 377.865 803.922 364.537C803.073 359.464 801.11 352.849 799.995 347.776C799.037 343.422 798.833 336.5 798.833 336.5Z" fill="#FFBE29" stroke="black" stroke-width="1.56818"/>
<path d="M798.797 112.911C798.797 112.911 803.755 102.568 809.229 98.349C817.344 92.1042 833.985 92.5573 841.047 85.2709C849.505 76.6771 840.386 65.3281 840.464 64.3386L840.927 58.3438C840.927 58.3438 835.224 58.2761 832.818 57.8906C829.208 57.3125 827.797 54.3021 821.073 54.75C804.162 55.875 804.844 71.4896 803.891 84.8334C803.042 89.9167 801.073 96.5417 799.959 101.62C799 105.979 798.797 112.911 798.797 112.911ZM376.802 112.922C376.802 112.922 371.844 102.573 366.365 98.3594C358.25 92.1094 341.609 92.5625 334.547 85.2761C326.083 76.6823 335.203 65.3281 335.13 64.3438L334.662 58.349C334.662 58.349 340.37 58.2761 342.771 57.8906C346.385 57.3125 347.797 54.3021 354.521 54.75C371.432 55.875 370.75 71.4948 371.708 84.8386C372.557 89.9219 374.521 96.5469 375.641 101.63C376.594 105.984 376.797 112.922 376.797 112.922H376.802Z" fill="#FFBE29" stroke="black" stroke-width="1.56967"/>
</g>
<defs>
<clipPath id="clip0_764_3097">
<rect width="900" height="450" fill="white"/>
</clipPath>
</defs>
</svg>
