<svg xmlns="http://www.w3.org/2000/svg" xmlns:xlink="http://www.w3.org/1999/xlink" width="900" zoomAndPan="magnify" viewBox="0 0 675 337.499995" height="450" preserveAspectRatio="xMidYMid meet" version="1.0"><defs><clipPath id="81dbbbd0d5"><path d="M 0.5 0 L 674.5 0 L 674.5 337 L 0.5 337 Z M 0.5 0 " clip-rule="nonzero"/></clipPath></defs><g clip-path="url(#81dbbbd0d5)"><path fill="#ffffff" d="M 0.5 0 L 674.5 0 L 674.5 337 L 0.5 337 Z M 0.5 0 " fill-opacity="1" fill-rule="nonzero"/><path fill="#ffffff" d="M 0.5 0 L 674.5 0 L 674.5 337 L 0.5 337 Z M 0.5 0 " fill-opacity="1" fill-rule="nonzero"/><path fill="#ffbe29" d="M 0.5 0 L 674.5 0 L 674.5 337 L 0.5 337 Z M 0.5 0 " fill-opacity="1" fill-rule="nonzero"/></g><path fill="#eb7400" d="M 31.953125 31.453125 L 207.191406 31.453125 L 207.191406 305.546875 L 31.953125 305.546875 Z M 31.953125 31.453125 " fill-opacity="1" fill-rule="nonzero"/><path fill="#00534e" d="M 31.953125 31.453125 L 119.574219 31.453125 L 119.574219 305.546875 L 31.953125 305.546875 Z M 31.953125 31.453125 " fill-opacity="1" fill-rule="nonzero"/><path fill="#8d153a" d="M 238.644531 31.453125 L 643.046875 31.453125 L 643.046875 305.546875 L 238.644531 305.546875 Z M 238.644531 31.453125 " fill-opacity="1" fill-rule="nonzero"/><path stroke-linecap="butt" transform="matrix(0.561668, 0, 0, 0.561668, 0.499265, 0)" fill-opacity="1" fill="#ffbe29" fill-rule="nonzero" stroke-linejoin="miter" d="M 502.258209 449.213153 C 502.258209 449.213153 495.637303 463.032207 488.320924 468.658586 C 477.48545 477.004266 455.265079 476.399204 445.834461 486.128875 C 434.53302 497.604184 446.710757 512.765502 446.613391 514.079947 L 445.99442 522.091799 C 445.99442 522.091799 453.609852 522.182211 456.815984 522.696861 C 461.642569 523.468836 463.527301 527.488672 472.505861 526.890565 C 495.087879 525.388342 494.176809 504.538053 495.45648 486.713073 C 496.590101 479.925253 499.212036 471.078833 500.707303 464.297969 C 501.980019 458.476857 502.251254 449.213153 502.251254 449.213153 Z M 502.258209 449.213153 " stroke="#000000" stroke-width="2.096" stroke-opacity="1" stroke-miterlimit="4"/><path stroke-linecap="butt" transform="matrix(0.586123, 0, 0, 0.571879, -22.074729, -3.265537)" fill-opacity="1" fill="#ffbe29" fill-rule="nonzero" stroke-linejoin="miter" d="M 681.538536 479.559318 L 685.897156 477.045674 L 687.763233 479.566148 C 690.249113 482.92678 697.126936 482.885797 701.685494 479.484182 L 705.171057 476.888571 L 708.096798 479.484182 C 711.935583 482.906289 719.106647 482.906289 723.685199 479.497843 C 726.890851 477.11398 727.337376 477.066166 729.456706 478.883093 C 730.722972 479.96232 734.428466 481.19865 737.694099 481.622145 C 743.578903 482.387167 743.665543 482.339353 747.111119 477.175455 C 749.990208 472.851714 750.443398 471.103093 749.756948 466.909133 C 749.297094 464.129098 748.803917 459.655086 748.663961 456.963848 C 748.404043 452.093664 748.430701 452.066341 755.521791 449.593681 C 759.440551 448.227571 763.97245 446.403813 765.598602 445.529502 C 768.431039 444.006289 776.241901 434.832856 776.241901 433.022759 C 776.241901 432.53779 773.189533 431.806921 769.464045 431.390257 C 754.62874 429.723602 752.116202 421.759177 761.759817 406.964199 C 777.481508 382.838686 786.971839 359.341583 787.038484 344.375842 C 787.065142 337.6819 787.445022 335.434648 788.30475 336.889555 C 791.816972 342.838967 785.52563 367.770486 775.988647 385.673365 L 772.149862 392.879599 L 775.815369 392.039441 C 777.828065 391.574963 789.677649 386.574998 802.140372 380.926131 C 836.256243 365.482251 847.972535 362.449485 870.052215 363.37844 C 888.546363 364.157123 896.42387 367.770486 909.486403 381.472575 C 916.404214 388.726623 923.068771 393.917843 935.258248 401.547571 C 961.236693 417.811118 962.316352 419.218212 963.55596 438.33693 C 964.802232 457.708378 964.182428 458.760283 949.527066 461.997966 C 937.004362 464.76434 929.153513 470.604463 927.047512 478.71916 C 925.921202 483.04973 928.28712 483.17268 934.605121 479.115332 L 939.230324 476.144041 L 941.289672 479.115332 C 943.995483 483.022408 949.746996 483.0429 954.518819 479.149484 L 958.124345 476.212347 L 961.809845 479.149484 C 967.541365 483.719124 975.158954 482.605744 977.311607 476.902232 C 977.724809 475.802513 978.824461 476.150872 981.057088 478.090749 C 985.24243 481.731434 995.972368 483.2888 997.132001 480.433628 C 997.571862 479.34074 996.732128 476.642671 995.265925 474.443233 C 989.021235 465.085376 987.068519 460.618194 986.988544 455.522601 C 986.875247 448.439318 988.987912 445.017211 997.052027 439.259054 C 1006.842262 432.257738 1009.867971 423.220916 1002.42366 423.220916 C 997.825115 423.220916 993.186583 419.156737 990.234184 412.537931 C 984.229418 399.074911 985.40238 383.986219 994.419526 358.883936 C 1003.576629 333.378651 1004.596306 328.679231 1004.629629 311.62334 C 1004.662951 297.832453 1004.316394 295.44859 1001.177388 287.893998 C 999.257995 283.269714 995.365893 276.384516 992.526792 272.60039 L 987.368424 265.708362 L 993.992995 260.216597 C 1014.226592 243.45442 1010.087901 216.016088 985.728943 205.449222 C 978.277967 202.21154 976.418556 201.924657 963.356023 202.013454 C 955.525167 202.068099 943.575616 203.099512 936.811089 204.30852 C 929.913272 205.53802 918.236967 206.52845 910.226169 206.562603 C 897.503528 206.610416 895.344211 206.296211 890.439097 203.68694 C 885.327381 200.96838 884.44766 199.670574 883.447976 193.379635 C 883.241375 192.088661 882.334995 190.797686 881.435279 190.517633 C 879.69583 189.964359 871.665038 196.938353 870.478747 200.025763 C 869.892266 201.548977 869.419082 201.439688 867.699626 199.411013 C 866.559987 198.065394 864.967157 194.964323 864.160746 192.525816 C 862.13472 186.385149 864.6206 181.788186 871.831652 178.345588 L 877.42988 175.668011 L 874.130924 173.618845 C 867.319746 169.397563 855.74341 172.286887 851.558067 179.254051 C 850.371776 181.228081 849.078852 182.846922 848.685643 182.846922 C 848.292434 182.853753 846.039814 180.975351 843.687225 178.666624 C 834.896673 170.080619 837.915718 157.368959 849.671997 153.489205 C 855.943346 151.419547 861.494923 153.004236 862.647891 157.184534 C 864.407335 163.564271 869.885601 155.176352 868.905911 147.601268 C 868.252784 142.56032 868.352753 142.382726 871.838316 142.382726 C 876.68345 142.382726 887.000185 148.748801 890.192508 153.707783 C 893.898002 159.459108 893.63142 168.530083 889.552711 175.2855 L 886.347059 180.59284 L 890.539065 179.752682 C 896.677123 178.523182 902.648567 174.704903 905.667611 170.080619 C 908.859934 165.189942 909.199827 155.661321 906.374054 150.524745 C 903.628257 145.545272 903.941491 144.752928 908.000206 146.433244 C 914.898024 149.302076 918.583524 152.457792 921.349316 157.86759 C 923.84186 162.737774 923.981816 163.953612 922.628911 169.021883 C 921.795841 172.150276 919.949758 176.2691 918.516879 178.174824 C 916.290916 181.132453 916.210942 181.631084 917.990378 181.631084 C 921.295999 181.631084 928.193816 178.50269 930.646374 175.893419 C 931.885981 174.575122 933.692076 171.33061 934.658437 168.680355 L 936.417881 163.864815 L 938.443906 167.532822 C 941.303001 172.724043 946.861242 177.396141 953.645762 180.305956 C 960.936788 183.43435 963.975827 183.605114 960.1637 180.681637 C 957.59118 178.707607 952.85268 164.807432 954.28556 163.448151 C 955.131959 162.648977 965.035491 170.265043 976.338581 180.415245 C 987.035196 190.012172 993.75307 193.161057 1003.576629 193.161057 C 1016.125991 193.161057 1023.430346 182.239003 1017.79213 171.911207 C 1014.506503 165.886659 1007.182154 165.053331 1002.896844 170.210399 C 1000.924135 172.580601 1000.384305 174.465834 1000.964122 176.952155 C 1001.670565 179.998582 1001.397318 180.408415 998.618198 180.408415 C 994.972685 180.408415 987.781627 175.736316 975.012334 165.087484 C 955.538497 148.837598 931.879317 135.067203 914.798055 130.033086 C 903.834858 126.809065 880.415602 125.545412 869.272462 127.587748 C 857.209612 129.794016 842.940794 136.692875 835.16992 144.083533 C 821.394279 157.177704 821.181013 174.602445 834.590103 190.469819 L 838.428889 195.012137 L 835.829711 199.055825 C 832.044242 204.9301 832.370806 212.839881 836.629458 218.666343 C 838.508863 221.2278 840.401598 223.32478 840.841458 223.32478 C 841.274655 223.32478 841.754503 221.678616 841.907788 219.663603 C 842.281003 214.56118 844.466978 211.152734 848.225788 209.800285 C 851.604719 208.577616 853.790694 209.158213 869.272462 215.333033 C 885.567305 221.835719 912.352163 222.286536 940.836482 216.528379 C 954.798731 213.707361 971.266853 213.871294 978.511227 216.91089 C 991.787026 222.470961 994.866052 236.944903 985.102475 247.928432 C 980.877145 252.689327 976.8051 254.622374 963.122763 258.379178 C 952.712724 261.234349 950.246838 261.425605 926.580993 261.186536 C 906.360725 260.988449 899.096357 261.377791 890.83897 263.09909 C 881.881805 264.970662 876.370216 265.161917 850.051877 264.492523 L 819.621507 263.727501 L 822.993773 266.521197 C 824.853185 268.058072 827.472356 269.950135 828.825261 270.721988 C 831.117869 272.040284 831.044559 272.217879 827.632305 273.488362 C 825.626273 274.226061 821.174349 274.833981 817.742101 274.833981 L 811.497411 274.833981 L 810.657677 280.14132 C 810.197822 283.057967 810.231145 286.466412 810.737651 287.709573 C 811.477417 289.546992 811.20417 289.813384 809.264784 289.109837 C 807.951866 288.631698 804.293024 287.695912 801.140688 287.026518 C 797.981688 286.357124 793.736365 284.991013 791.69701 283.993752 C 788.271427 282.313436 787.891548 282.36125 786.631946 284.594841 C 785.505636 286.589362 774.928983 294.45816 773.376141 294.45816 C 773.129552 294.45816 772.802989 292.941777 772.656369 291.083866 C 772.516413 289.232786 770.990229 284.403585 769.270773 280.353067 C 767.551317 276.30938 765.751887 271.890012 765.278703 270.544393 C 764.558931 268.508888 764.239032 268.40643 763.37264 269.929643 C 762.799488 270.940565 761.959753 273.700109 761.513228 276.06348 C 761.060038 278.420021 759.467209 282.258792 757.974348 284.58118 L 755.248544 288.816123 L 753.509094 285.19593 C 751.643018 281.316175 748.550663 277.286149 747.424353 277.286149 C 747.051138 277.286149 746.404676 278.52931 745.998138 280.045693 C 745.13841 283.215069 737.800732 292.005991 736.007966 292.005991 C 735.348175 292.005991 734.801681 289.51967 734.801681 286.486904 C 734.801681 283.447308 734.221864 280.967817 733.508757 280.967817 C 732.795649 280.967817 732.215832 281.753331 732.215832 282.709608 C 732.215832 285.045657 725.944484 292.005991 723.838483 292.005991 C 722.925439 292.005991 721.445907 292.832488 720.559521 293.84341 C 718.24692 296.480003 716.354185 296.111153 717.327211 293.208168 C 717.787065 291.848888 717.48716 288.679512 716.667419 286.159038 L 714.741362 280.202795 C 714.428128 279.246518 712.182172 279.499248 707.423678 281.029292 C 699.739443 283.488291 697.166923 283.051136 701.119006 279.956895 C 702.565215 278.829854 704.757855 274.909117 706.004127 271.24794 C 707.243735 267.586764 709.076488 264.342251 710.069507 264.034876 C 711.469064 263.597721 711.395754 264.137334 709.749608 266.357264 C 708.569982 267.948783 707.610285 270.093577 707.603621 271.12499 C 707.603621 272.149573 706.71057 274.594911 705.637576 276.548449 C 704.557918 278.508818 703.884798 280.298423 704.131386 280.537492 C 704.384639 280.769731 707.31038 279.663182 710.62933 278.064832 L 716.674084 275.168678 L 716.700742 277.764288 C 716.714071 279.185043 717.440508 282.948678 718.32023 286.118054 L 719.913059 291.889872 L 724.025091 289.997808 C 728.230427 288.064762 732.215832 281.172734 732.215832 275.831241 C 732.215832 273.194648 733.728687 273.59765 734.348491 276.405008 C 734.528434 277.224674 735.474801 280.318915 736.454491 283.269714 L 738.233928 288.645359 L 741.053036 285.250574 C 742.599213 283.385833 744.545264 279.724657 745.365005 277.122216 C 746.797885 272.593559 749.050505 270.653682 749.050505 273.939178 C 749.050505 276.30255 755.508462 284.799758 756.754734 284.068888 C 757.361209 283.7137 758.560829 280.530662 759.420557 276.985605 C 761.219988 269.615438 764.11907 264.601812 765.958488 265.681039 C 766.651602 266.090873 766.924849 266.876386 766.558298 267.429661 C 766.198412 267.989766 767.684609 272.777984 769.863919 278.078493 C 771.496736 282.026553 773.116223 285.981443 774.735711 289.936333 C 775.535458 291.896702 776.25523 291.609819 780.927085 287.477334 C 783.839496 284.909046 786.485326 282.033384 786.805225 281.083937 C 787.285073 279.656351 787.931535 279.704165 790.657339 281.398142 C 794.462801 283.754683 807.258752 287.566132 808.245107 286.630346 C 808.618322 286.275157 808.998202 282.914525 809.091506 279.157721 L 809.25812 272.327168 L 812.94362 273.09219 C 814.962981 273.508853 819.221633 273.481531 822.400627 273.030715 L 828.178799 272.211048 L 823.027096 268.679652 C 820.194659 266.732945 817.335563 264.219301 816.662443 263.09226 C 815.956 261.890083 813.430133 260.8655 810.577702 260.6196 C 802.860144 259.963867 789.191136 252.299986 789.191136 248.625148 C 789.191136 247.935263 791.083871 249.110118 793.396472 251.227589 C 798.534846 255.93384 805.665923 258.89147 811.897284 258.89147 L 816.55581 258.89147 L 813.676721 255.052699 C 812.017246 252.853261 810.53105 248.672962 810.184493 245.237194 C 809.631335 239.75226 809.051518 238.877949 803.326663 234.902567 C 799.887751 232.511874 795.629099 228.932664 793.862991 226.944973 L 790.650674 223.32478 L 789.011193 227.621198 C 788.111478 229.977738 787.011826 231.910785 786.565301 231.910785 C 786.118775 231.910785 784.38599 230.531013 782.713186 228.843867 C 781.040382 227.15672 779.34092 225.783779 778.927717 225.790609 C 778.521179 225.804271 777.034983 228.072014 775.635426 230.838388 L 773.089565 235.872506 L 771.12352 232.976351 C 770.037197 231.378002 767.478007 228.556983 765.438653 226.699073 C 763.392633 224.847993 762.31964 223.32478 763.046076 223.32478 C 763.779178 223.32478 766.298381 225.257826 768.650969 227.621198 L 772.929615 231.917616 L 774.669065 228.768731 C 775.702071 226.90399 776.088616 224.035157 775.622097 221.712769 C 774.942312 218.338476 775.035616 218.14039 776.32854 220.257861 C 777.154945 221.610311 779.654154 224.199091 781.893446 226.009187 L 785.952161 229.301514 L 788.75794 224.171768 C 791.543725 219.055684 791.563719 219.048854 792.829985 222.102111 C 794.529447 226.179951 806.812227 236.248186 817.268918 242.136123 C 818.881741 243.037756 818.201956 239.923024 815.229563 232.750943 C 814.436481 230.852049 813.790019 227.429942 813.790019 225.141707 C 813.790019 221.753753 812.816993 220.2442 808.478366 216.945043 C 802.220347 212.184148 800.194321 208.796193 799.014694 201.111821 C 798.541511 197.997089 797.441859 194.533999 796.582131 193.420618 C 795.302536 191.760794 795.095934 192.689749 795.435827 198.461567 C 795.662422 202.361812 795.155915 207.197844 794.309517 209.226518 L 792.763339 212.901356 L 791.570383 209.834437 C 790.917257 208.154121 788.01151 205.216984 785.119092 203.31809 C 782.226673 201.426027 780.193983 199.547625 780.607186 199.158283 C 781.020389 198.768941 783.992781 200.503902 787.218427 203.003884 C 792.136871 206.822164 793.216529 207.231997 793.896314 205.551681 C 794.696061 203.577651 793.896314 194.991646 792.350137 188.987589 C 791.583712 185.995807 791.650358 186.009468 795.342523 189.704798 C 798.068327 192.430188 799.581182 195.681531 800.747479 201.357721 C 802.233676 208.563955 802.980106 209.759301 809.644664 215.613085 C 813.643399 219.12399 817.128962 221.801566 817.382215 221.562497 C 817.635469 221.323428 818.141975 212.231962 818.501861 201.364552 C 819.20164 180.524534 818.415222 175.565553 813.39681 169.124341 L 810.817626 165.818353 L 814.869677 161.446799 C 820.161336 155.736457 822.587235 151.166817 823.640235 144.930522 L 824.499963 139.855421 L 819.921412 144.185992 C 816.17593 147.737879 814.383164 148.516562 810.044537 148.516562 C 805.752562 148.516562 804.073094 147.799354 801.174011 144.711944 C 797.701776 141.009785 791.55039 137.451066 785.625598 135.716106 C 783.439623 135.080865 782.713186 135.354087 782.713186 136.836317 C 782.713186 137.922375 781.506901 141.050768 780.027369 143.78982 L 777.348217 148.769293 L 771.723331 143.216053 C 768.27109 139.800777 764.179051 137.150522 761.133348 136.351347 C 753.355809 134.302181 752.929278 134.507098 752.929278 140.306238 C 752.929278 149.097159 749.177132 150.736492 742.41927 144.889539 C 737.267567 140.436018 732.995586 139.46608 723.232009 140.538476 L 715.687729 141.371804 L 717.040635 144.773419 C 718.180274 147.62176 717.920356 148.817107 715.494457 152.047958 C 711.555704 157.286993 706.430659 159.554736 698.546487 159.554736 C 694.914303 159.554736 690.369075 160.306097 688.443017 161.228222 C 686.523625 162.143516 681.745137 163.202252 677.826377 163.577932 C 673.907617 163.953612 669.735604 164.623007 668.549313 165.066993 C 666.689901 165.756878 666.489964 165.189942 667.08311 160.968661 C 668.002819 154.506957 663.490913 149.746062 656.459805 149.746062 C 647.336026 149.746062 643.13069 157.901742 646.702893 168.666694 C 647.389342 170.736352 648.289057 174.008187 648.70226 175.927572 C 649.128792 177.922093 653.234159 183.208942 658.272565 188.243059 C 663.117698 193.099582 667.702914 198.147361 668.456009 199.465658 C 669.209104 200.790785 671.694984 202.901426 673.987592 204.171909 L 678.146276 206.480636 L 677.599782 202.027115 C 676.993307 197.129609 678.059637 196.364587 680.665479 199.820847 C 681.591852 201.050346 683.95777 203.044868 685.91715 204.253876 C 689.00284 206.145939 689.476024 206.186922 689.476024 204.540759 C 689.476024 203.495684 690.109157 201.084499 690.875581 199.185605 L 692.275138 195.736176 L 694.701037 200.428766 C 696.033949 203.017545 700.372576 208.884991 704.337988 213.481953 C 712.035552 222.388994 716.7274 232.34794 714.308166 234.643006 C 713.321811 235.571961 710.669317 235.503656 705.171057 234.397106 C 700.90574 233.536457 695.627411 233.08564 693.4481 233.386184 C 688.989511 234.007765 688.63629 233.433998 691.382087 229.99823 C 694.274505 226.378037 693.814651 225.776948 688.129783 225.776948 C 681.551865 225.776948 665.230363 222.628063 658.959014 220.148573 C 652.867608 217.737387 651.461387 218.338476 649.668621 224.117124 C 648.862209 226.719565 647.382677 231.432646 646.382994 234.588362 L 644.570234 240.332857 L 651.161482 239.697616 C 654.787001 239.349257 659.452191 238.556913 661.524869 237.935333 C 663.597546 237.313753 665.483616 236.985886 665.716876 237.204464 C 665.943471 237.423041 665.017097 239.663463 663.657527 242.190767 L 661.184976 246.780899 L 665.297009 245.947572 C 667.556294 245.483094 670.961883 244.356053 672.854617 243.440759 C 676.153573 241.842409 676.420155 241.958529 679.025997 246.138827 C 682.224985 251.275403 684.784175 251.063656 685.350663 245.612875 C 685.937144 239.984499 687.789891 240.810996 691.275454 248.27679 C 694.627727 255.455701 698.113291 257.989837 698.786411 253.734402 C 699.006341 252.320478 700.812437 250.025412 702.798475 248.625148 C 706.810538 245.797299 709.836248 246.644288 711.569033 251.084148 C 713.368463 255.68111 709.363064 260.414683 697.720082 267.477475 C 674.39413 281.61672 660.831755 300.954016 656.959647 325.605482 C 653.467419 347.838932 664.370635 370.810082 686.250378 387.312698 C 696.720398 395.208818 713.34847 403.542092 712.295469 400.365885 C 707.803558 386.861882 707.956842 361.090205 712.542058 356.745973 C 713.235172 356.09024 712.995248 358.781478 712.015558 362.715877 C 708.370045 377.387905 709.95621 389.081811 719.29992 416.47916 C 727.750579 441.260406 726.577617 451.854594 714.6214 458.855911 C 710.77595 461.103163 708.303399 461.472013 697.98 461.349063 C 686.770213 461.212452 685.550599 461.43786 681.951738 464.306693 C 678.466175 467.086728 673.94094 476.212347 673.94094 480.467781 C 673.94094 482.776508 676.50013 482.469133 681.538536 479.566148 Z M 681.538536 479.559318 " stroke="#000000" stroke-width="5.56" stroke-opacity="1" stroke-miterlimit="4"/><path stroke-linecap="butt" transform="matrix(0.586123, 0, 0, 0.571879, -22.074729, -3.265537)" fill-opacity="1" fill="#ffbe29" fill-rule="nonzero" stroke-linejoin="miter" d="M 863.447638 479.060687 L 868.152816 476.041583 L 871.338475 479.060687 C 875.523817 483.015577 880.415602 482.92678 884.43433 478.821618 C 886.187109 477.032013 887.766609 475.788852 887.933223 476.062074 C 888.106502 476.335297 888.886255 477.667254 889.672673 479.012873 C 890.665692 480.720512 892.705047 481.581161 896.397212 481.840722 C 900.835807 482.154928 902.028763 481.724603 903.794871 479.176807 L 905.900871 476.137211 L 910.526074 479.108501 C 923.195398 487.25052 929.946595 478.705498 924.281721 461.697421 C 921.402632 453.049941 922.988797 448.186587 932.265861 437.175736 C 936.177956 432.53096 939.383609 427.578809 939.390273 426.164884 C 939.390273 423.910802 938.663836 423.610257 933.458817 423.712716 C 928.473728 423.815174 927.01419 423.27556 924.395018 420.386236 C 920.123037 415.693646 920.37629 410.31117 925.148113 404.348098 L 928.96024 399.573541 L 922.195714 394.99024 C 918.483556 392.462935 911.779011 386.499862 907.300428 381.725306 C 897.24361 371.008168 887.360071 365.919406 874.324196 364.771873 L 865.586961 363.99319 L 865.60029 370.611996 C 865.613619 379.129696 869.612354 387.319529 880.522235 401.199213 C 892.924977 416.97779 893.791369 419.423128 894.297876 440.044568 L 894.717743 457.489801 L 891.132211 460.891416 C 887.886571 463.971995 886.427033 464.361337 875.957013 464.969256 C 865.993499 465.543023 863.900828 466.055314 860.975087 468.644094 C 857.08965 472.086693 855.930017 473.958264 854.730397 478.712329 C 854.030618 481.478703 854.317194 482.079792 856.316561 482.079792 C 857.649473 482.079792 860.86179 480.720512 863.447638 479.060687 Z M 598.838039 428.603392 C 598.838039 426.397123 599.817729 425.809695 604.669527 425.11981 L 610.501015 424.293313 L 606.608913 421.192242 C 601.990375 417.510573 601.563843 414.634911 605.635888 414.62808 C 609.687939 414.62808 616.559098 410.413629 617.605434 407.298897 C 618.091946 405.850819 617.785377 403.917773 616.91232 402.920512 C 614.639705 400.324902 610.361059 400.721074 609.567977 403.596737 C 608.714914 406.684147 607.288698 406.690977 604.049723 403.624059 C 599.177932 399.006605 599.064634 389.457492 603.823128 383.890591 C 606.06242 381.267659 606.042426 381.096895 603.183331 378.391996 C 600.11097 375.48218 597.91833 369.717193 599.357875 368.351083 C 599.817729 367.913927 602.250293 368.262286 604.756166 369.122935 C 608.321705 370.338774 609.727926 370.359265 611.200794 369.204902 C 615.652718 365.707659 610.827578 361.213155 603.689837 362.203585 C 600.824077 362.599757 599.637786 362.203585 599.224583 360.714525 C 598.911349 359.580653 596.398811 358.105253 593.566374 357.394876 C 588.514639 356.110732 588.474652 356.131223 588.474652 359.614805 C 588.474652 363.433085 586.295342 364.150293 582.156651 361.704955 C 578.79105 359.710433 575.525416 361.254138 575.525416 364.840179 C 575.525416 368.18715 578.891018 369.833313 584.915778 369.443971 C 589.534317 369.150258 589.707595 372.586026 585.322316 377.524516 L 582.163316 381.076403 L 584.662525 384.669274 C 588.368019 389.990275 588.054785 398.829011 584.009398 403.214226 L 580.837069 406.656825 L 578.757727 403.897281 C 575.865309 400.065341 571.906561 400.318071 570.826903 404.416403 C 570.113795 407.09398 570.700276 408.316649 574.059214 411.158159 C 576.311834 413.063883 579.604126 414.62808 581.376898 414.62808 C 585.755512 414.62808 585.582234 418.070679 581.030341 421.554261 L 577.471467 424.272821 L 582.969727 425.12664 C 586.002101 425.597948 588.474652 426.47909 588.474652 427.087009 C 588.474652 429.429889 589.900867 436.526833 593.513057 436.704428 C 596.745368 436.86153 598.758064 431.957193 598.838039 428.603392 Z M 598.838039 428.603392 " stroke="#000000" stroke-width="5.56" stroke-opacity="1" stroke-miterlimit="4"/><path stroke-linecap="butt" transform="matrix(0.586123, 0, 0, 0.571879, -22.074729, -3.265537)" fill-opacity="1" fill="#ffbe29" fill-rule="nonzero" stroke-linejoin="miter" d="M 668.482667 402.920512 C 673.481085 400.953313 684.297663 391.78671 684.297663 389.518967 C 684.297663 388.808589 681.311941 385.523093 677.666428 382.223936 C 669.982193 375.270433 661.624837 363.562865 659.458856 356.718651 C 658.332546 353.153102 652.874273 347.039757 637.505803 332.142321 L 617.05894 312.306395 L 611.167471 313.802286 C 607.928496 314.621952 603.969749 315.311838 602.376919 315.33916 C 599.637786 315.380144 599.684438 315.537246 603.329951 318.358265 L 607.182065 321.336386 L 612.573693 318.344604 C 617.80537 315.441619 617.991978 315.421127 618.63844 317.757176 C 619.01832 319.130117 618.205244 321.500319 616.759035 323.24211 C 615.352813 324.929257 614.553066 326.841812 614.979598 327.490714 C 615.40613 328.146447 614.059889 329.505727 611.987211 330.52348 C 608.148426 332.401882 605.482603 338.597194 608.514977 338.597194 C 611.240781 338.597194 617.252212 331.179213 616.559098 328.6724 C 616.205876 327.381425 616.37249 326.063129 616.938978 325.735262 C 619.278238 324.362321 619.131617 330.181952 616.759035 333.050785 C 615.352813 334.737931 614.553066 336.650486 614.979598 337.306219 C 615.40613 337.955122 614.059889 339.321232 611.987211 340.332154 C 608.175084 342.203726 605.482603 348.405868 608.488319 348.405868 C 611.427389 348.405868 617.338851 341.315754 616.612415 338.665499 C 616.22587 337.278897 616.37249 335.871803 616.938978 335.543936 C 618.518478 334.621812 619.364877 339.218774 618.03863 341.472856 C 617.325522 342.675034 617.332187 344.321197 618.051959 345.632663 C 619.364877 347.996035 618.031965 352.538352 615.619395 353.952277 C 614.586389 354.560196 615.286168 355.748712 617.798706 357.640776 C 621.424225 360.379827 621.497535 360.673541 621.497535 372.770451 C 621.497535 382.879669 621.904073 385.495771 623.763485 387.251223 C 625.849491 389.232084 626.029435 389.238914 626.029435 387.34002 C 626.029435 385.270363 629.661618 382.743058 632.634011 382.743058 C 633.507068 382.743058 638.985335 387.381004 644.796829 393.057193 C 650.648311 398.760705 656.773039 403.617228 658.505824 403.924603 C 660.231945 404.231978 662.098021 404.559845 662.651179 404.648642 C 663.211002 404.74427 665.830173 403.965587 668.482667 402.920512 Z M 605.962451 354.000091 C 605.962451 350.741917 599.237913 347.258335 591.193791 346.356702 C 584.702512 345.632663 584.595879 345.673647 584.595879 348.918159 C 584.595879 351.602567 585.615557 352.654472 590.094139 354.60801 C 597.298526 357.743234 605.962451 357.415367 605.962451 354.000091 Z M 605.962451 354.000091 " stroke="#000000" stroke-width="5.56" stroke-opacity="1" stroke-miterlimit="4"/><path stroke-linecap="butt" transform="matrix(0.586123, 0, 0, 0.571879, -22.074729, -3.265537)" fill-opacity="1" fill="#ffbe29" fill-rule="nonzero" stroke-linejoin="miter" d="M 613.326788 353.699547 C 616.612415 350.721425 618.165256 347.183199 616.192547 347.183199 C 613.919933 347.183199 607.895173 352.592997 607.895173 354.628502 C 607.895173 357.804709 609.014819 357.613453 613.326788 353.699547 Z M 606.342331 344.061636 C 606.615578 342.217387 605.482603 340.994718 602.07035 339.451013 C 594.712678 336.131364 585.922126 334.59449 583.802797 336.254314 C 579.904031 339.321232 582.503208 343.440056 588.80788 344.177756 C 591.340412 344.4783 594.785988 345.250152 596.452127 345.899055 C 601.297261 347.784288 605.909135 346.923638 606.342331 344.061636 Z M 606.342331 334.211979 C 606.73554 331.589046 605.056071 330.64643 591.360405 325.824059 C 581.136974 322.224358 576.611739 323.925166 579.877372 330.134138 C 581.017012 332.292593 582.92974 333.283023 587.21505 333.925095 C 590.400709 334.403234 594.752665 335.332189 596.891988 335.994753 C 602.59685 337.770697 605.895806 337.149116 606.342331 334.211979 Z M 613.200161 324.977071 C 615.266174 322.886922 616.958972 320.414261 616.958972 319.485306 C 616.958972 316.479863 608.794888 321.800864 607.755217 325.482532 C 606.508945 329.9019 608.528306 329.710644 613.200161 324.977071 Z M 606.342331 324.362321 C 606.788856 321.370539 601.817096 318.67247 592.046855 316.595982 C 584.875791 315.072769 581.710126 315.940249 582.249955 319.273559 C 582.543196 321.090486 584.929107 322.422444 591.706962 324.533085 C 602.550198 327.921039 605.809166 327.880056 606.342331 324.362321 Z M 615.899307 310.448484 C 628.422011 304.874753 629.508334 290.817475 617.698737 287.122146 C 612.793623 285.592102 609.661281 286.418599 607.78854 289.738247 C 606.348996 292.279213 607.308692 296.903498 609.274736 296.903498 C 609.941192 296.903498 610.481021 297.764147 610.481021 298.809222 C 610.481021 303.693067 591.360405 305.899336 583.516221 301.930785 C 580.763759 300.530521 579.564138 296.903498 581.856746 296.903498 C 583.569537 296.903498 584.755829 293.214999 583.882772 290.598897 C 582.689816 287.040179 579.097619 285.810679 573.899264 287.169959 C 562.156313 290.236878 562.489541 304.034595 574.439093 309.888379 C 584.242658 314.690258 605.729192 314.977141 615.899307 310.448484 Z M 615.899307 310.448484 " stroke="#000000" stroke-width="5.56" stroke-opacity="1" stroke-miterlimit="4"/><path stroke-linecap="butt" transform="matrix(0.586123, 0, 0, 0.571879, -22.074729, -3.265537)" fill-opacity="1" fill="#ffbe29" fill-rule="nonzero" stroke-linejoin="miter" d="M 608.108439 299.642549 C 608.834876 298.952664 608.521641 297.900758 607.302027 296.944481 C 604.642869 294.847501 604.782825 291.732769 607.701901 288.174051 C 609.89454 285.496474 610.167787 281.49377 610.927547 241.097879 C 612.227136 171.487712 617.405497 119.131523 624.223339 106.570136 C 626.942479 101.570171 626.562599 101.549679 619.54482 106.324236 C 610.501015 112.478564 603.616527 120.483973 597.518457 131.952471 C 586.002101 153.605324 581.996702 182.730803 581.996702 244.916158 C 581.996702 280.223287 582.236626 284.840741 584.249322 288.16039 C 586.16205 291.309275 586.262019 292.477299 584.922443 295.837931 C 584.049386 298.023708 583.656177 300.107027 584.042721 300.475877 C 586.61524 302.914384 605.342647 302.265482 608.108439 299.64938 Z M 713.341805 233.263235 C 713.735014 232.662146 712.861957 229.62255 711.415748 226.514648 C 709.149798 221.664955 708.236754 220.865781 705.011108 220.865781 C 694.914303 220.865781 678.672776 216.350785 661.931407 208.884991 C 652.261134 204.574912 648.92219 203.584481 647.762557 204.6842 C 644.810158 207.484727 649.721937 214.137686 657.332862 217.634929 C 664.090724 220.72917 682.971416 224.540618 691.582024 224.540618 C 696.580442 224.540618 696.700404 224.766026 693.854638 228.878019 L 691.761967 231.903954 L 697.413512 232.047396 C 700.525861 232.129363 704.817836 232.614332 706.957159 233.126623 C 712.502071 234.465412 712.555387 234.465412 713.341805 233.263235 Z M 713.341805 233.263235 " stroke="#000000" stroke-width="5.56" stroke-opacity="1" stroke-miterlimit="4"/><path stroke-linecap="butt" transform="matrix(0.586123, 0, 0, 0.571879, -22.074729, -3.265537)" fill-opacity="1" fill="#000000" fill-rule="nonzero" stroke-linejoin="miter" d="M 772.349799 264.629134 C 772.349799 262.832699 767.064805 257.955684 761.713165 254.81363 C 757.507829 252.3478 756.814715 252.272664 756.801386 254.280846 C 756.788057 257.340934 754.075582 265.011645 753.002588 265.011645 C 752.402778 265.011645 751.516392 263.515754 751.029879 261.678335 C 750.543366 259.847747 748.504011 256.234385 746.49798 253.652435 L 742.852467 248.959846 L 740.013365 253.304077 C 737.367536 257.361426 732.78232 261.336808 730.74963 261.336808 C 730.263117 261.336808 730.169813 259.198845 730.536364 256.589573 C 730.936237 253.754894 730.629668 251.500811 729.763275 250.99535 C 728.970193 250.530873 728.323731 250.694806 728.323731 251.35737 C 728.323731 252.887414 721.952414 260.107308 720.606173 260.107308 C 720.053015 260.107308 719.273261 258.037651 718.880052 255.510346 C 718.486844 252.983041 717.813723 248.980337 717.393856 246.616966 C 716.967324 244.260425 717.873704 245.858774 719.406553 250.175684 L 722.192338 258.023989 L 725.25137 253.242602 C 726.930838 250.612839 728.310402 247.737177 728.317066 246.849205 C 728.317066 245.968063 728.890218 245.578722 729.576668 245.981724 C 730.269782 246.384727 731.236142 249.554104 731.715991 253.010363 L 732.602377 259.301303 L 735.967978 255.612804 C 737.814061 253.58413 739.986707 250.8724 740.779789 249.581426 C 742.212669 247.272699 742.292644 247.279529 745.131745 249.683884 C 746.71791 251.036334 749.163803 254.260355 750.56336 256.855965 C 751.962917 259.451575 753.295828 261.377791 753.522423 261.145552 C 753.749018 260.913313 754.262189 258.235737 754.662063 255.202971 C 755.061936 252.170205 755.415158 249.574595 755.448481 249.431154 C 755.648417 248.679793 765.585273 255.141496 769.264109 258.413331 C 771.623362 260.517141 773.869318 261.937896 774.249198 261.582708 C 774.629078 261.220688 774.942312 258.119617 774.942312 254.69068 C 774.942312 249.369679 774.375825 247.948924 771.12352 245.039108 C 767.384703 241.698968 767.278071 241.678476 765.898507 244.123814 C 764.105741 247.300021 761.993076 247.341004 761.993076 244.205781 C 761.993076 241.924376 754.921981 233.126623 753.089227 233.126623 C 752.609379 233.126623 751.123183 235.05967 749.776942 237.423041 C 748.437366 239.779582 746.991157 241.712629 746.57129 241.705798 C 744.75853 241.698968 734.795016 230.592488 734.801681 228.584306 C 734.801681 226.992787 735.474801 227.395789 737.220915 230.059705 C 738.547162 232.088379 741.199656 235.107484 743.112384 236.774139 C 746.984492 240.155263 748.390714 239.328766 749.883575 232.819249 C 750.310107 230.968169 751.049873 229.451786 751.529721 229.451786 C 753.189196 229.451786 761.859785 238.659371 763.079399 241.712629 L 764.299013 244.779547 L 765.232051 241.405254 C 766.365026 237.2796 767.617963 237.129328 769.424058 240.892962 C 770.183818 242.46399 773.91597 245.728994 777.728097 248.15384 L 784.652572 252.559547 L 786.045465 248.133349 C 786.805225 245.694841 787.818237 244.294578 788.291421 245.018616 C 788.997864 246.097844 787.198434 253.440688 785.838864 255.018546 C 785.638927 255.257615 783.392971 253.95298 780.853775 252.115561 L 776.235236 248.782251 L 776.215242 254.752155 C 776.201913 258.03082 775.848692 261.965219 775.42216 263.481601 C 774.575761 266.446061 772.349799 267.286219 772.349799 264.629134 Z M 737.820725 217.02701 C 729.589997 210.155473 728.33706 208.584446 728.523667 205.326272 L 728.71694 201.863182 L 729.250104 205.210153 C 729.563338 207.163691 731.755978 210.093998 734.521769 212.252453 L 739.253605 215.947782 L 742.159353 212.58032 C 743.758846 210.73607 745.091758 208.529802 745.111752 207.689644 C 745.185062 205.490206 745.578271 205.674631 751.149841 210.510662 C 756.101607 214.80708 756.181582 214.827572 756.914683 212.040706 C 757.327886 210.490171 757.181266 207.566694 756.58812 205.551681 C 754.975297 199.998441 755.288531 199.158283 757.741088 202.512085 C 758.960703 204.178739 760.926747 206.53528 762.106374 207.744288 C 764.159058 209.86176 764.285684 209.834437 765.045444 207.136369 C 765.485305 205.585833 765.851855 202.744323 765.865184 200.824938 L 765.878513 197.334525 L 770.343767 202.395965 C 774.51578 207.122708 774.89566 207.300302 776.168591 205.04622 C 776.921686 203.721092 777.541489 200.531224 777.554819 197.956106 C 777.568148 194.629626 777.921369 193.796299 778.767768 195.059951 C 780.17399 197.170592 779.1943 202.928748 776.588458 207.833085 L 774.715717 211.35082 L 772.26316 207.525711 C 769.117488 202.635035 768.071153 202.710171 766.058456 207.990188 C 764.152393 212.983322 762.912785 213.365833 761.060038 209.527063 C 759.853753 207.040741 759.627158 207.348116 758.774095 212.559828 L 757.827728 218.358968 L 746.471321 209.547554 L 743.918796 212.450539 C 742.512574 214.042058 741.346277 216.04341 741.319618 216.883568 C 741.266302 218.714156 739.900067 218.768801 737.820725 217.02701 Z M 811.037556 191.432927 C 808.04517 188.728028 805.979157 186.15291 806.452341 185.708924 C 806.925524 185.258107 807.458689 185.128327 807.638632 185.422041 C 807.818575 185.715755 810.264468 188.290873 813.076911 191.146044 C 819.561526 197.723867 818.228614 197.908292 811.037556 191.432927 Z M 713.508419 181.351031 C 710.782615 177.662532 710.975887 175.224025 714.288172 171.228151 C 716.687413 168.345658 717.7804 167.949486 721.972407 168.482269 C 724.651559 168.823797 730.429731 171.193999 734.808345 173.755456 C 739.866745 176.713086 745.091758 178.687115 749.143809 179.178915 C 752.649366 179.60924 755.521791 179.766343 755.521791 179.540935 C 755.521791 179.308696 754.062253 176.938494 752.282816 174.267748 C 748.057486 167.922164 748.204106 167.239108 752.969265 171.043726 C 757.867715 174.943972 763.719197 176.084675 776.808388 175.681672 L 783.199699 175.490417 L 779.48754 171.82241 C 774.302514 166.699495 775.902008 166.235017 781.626863 171.20766 C 786.998497 175.872928 786.665269 176.200794 775.355514 177.327835 C 770.550368 177.805974 765.385336 177.457616 761.086696 176.371558 C 754.662063 174.732225 754.415474 174.759547 755.628424 176.911172 C 756.334867 178.154332 757.467842 179.172085 758.154291 179.172085 C 758.84074 179.172085 759.407228 179.800496 759.407228 180.565517 C 759.407228 182.935719 745.524954 180.852401 738.893719 177.491769 C 723.74518 169.827888 721.839116 169.158494 718.226926 170.299196 C 716.220894 170.927607 714.214862 172.778687 713.521748 174.636597 C 711.215811 180.825079 719.986369 185.633788 723.605224 180.162515 C 724.658224 178.577827 724.411635 177.491769 722.565553 175.565553 C 720.039686 172.922129 720.27961 172.546448 723.685199 173.782778 C 726.111098 174.66392 726.430996 180.46989 724.18504 182.601022 C 721.605857 185.04636 715.727717 184.349644 713.508419 181.351031 Z M 713.508419 181.351031 " stroke="#000000" stroke-width="5.56" stroke-opacity="1" stroke-miterlimit="4"/><path stroke-linecap="butt" transform="matrix(0.586123, 0, 0, 0.571879, -22.074729, -3.265537)" fill-opacity="1" fill="#000000" fill-rule="nonzero" stroke-linejoin="miter" d="M 773.189533 166.071084 C 771.296799 164.274648 772.782995 163.837493 781.273642 163.68039 C 791.783649 163.482304 798.168296 161.733683 805.692581 156.979618 C 811.73067 153.168169 813.363487 153.91953 807.638632 157.86759 C 802.413619 161.467291 794.262865 164.240496 786.398687 165.087484 C 782.58656 165.497317 778.247933 166.064253 776.748407 166.351137 C 775.255546 166.631189 773.649388 166.508239 773.189533 166.071084 Z M 773.189533 166.071084 " stroke="#000000" stroke-width="5.56" stroke-opacity="1" stroke-miterlimit="4"/><path fill="#ffbe29" d="M 377.390625 270.984375 L 379.945312 269.546875 L 381.039062 270.988281 C 382.496094 272.910156 386.527344 272.886719 389.199219 270.941406 L 391.242188 269.457031 L 392.957031 270.941406 C 395.207031 272.898438 399.410156 272.898438 402.09375 270.949219 C 403.972656 269.585938 404.234375 269.558594 405.476562 270.597656 C 406.21875 271.214844 408.390625 271.921875 410.304688 272.164062 C 413.753906 272.601562 413.804688 272.574219 415.824219 269.621094 C 417.511719 267.148438 417.777344 266.148438 417.375 263.75 C 417.105469 262.160156 416.816406 259.601562 416.734375 258.0625 C 416.582031 255.277344 416.597656 255.261719 420.753906 253.847656 C 423.050781 253.066406 425.707031 252.023438 426.660156 251.523438 C 428.320312 250.652344 432.898438 245.40625 432.898438 244.371094 C 432.898438 244.09375 431.109375 243.675781 428.925781 243.4375 C 420.230469 242.484375 418.757812 237.929688 424.410156 229.46875 C 433.625 215.671875 439.1875 202.234375 439.226562 193.675781 C 439.242188 189.847656 439.464844 188.5625 439.96875 189.394531 C 442.027344 192.796875 438.339844 207.054688 432.75 217.292969 L 430.5 221.414062 L 432.648438 220.933594 C 433.828125 220.667969 440.773438 217.808594 448.078125 214.578125 C 468.074219 205.746094 474.941406 204.011719 487.882812 204.542969 C 498.722656 204.988281 503.339844 207.054688 510.996094 214.890625 C 515.050781 219.039062 518.957031 222.007812 526.101562 226.371094 C 541.328125 235.671875 541.960938 236.476562 542.6875 247.410156 C 543.417969 258.488281 543.054688 259.089844 534.464844 260.941406 C 527.125 262.523438 522.523438 265.863281 521.289062 270.503906 C 520.628906 272.980469 522.015625 273.050781 525.71875 270.730469 L 528.429688 269.03125 L 529.636719 270.730469 C 531.222656 272.964844 534.59375 272.976562 537.390625 270.75 L 539.503906 269.070312 L 541.664062 270.75 C 545.023438 273.363281 549.488281 272.726562 550.75 269.464844 C 550.992188 268.835938 551.636719 269.035156 552.945312 270.144531 C 555.398438 272.226562 561.6875 273.117188 562.367188 271.484375 C 562.625 270.859375 562.132812 269.316406 561.273438 268.058594 C 557.613281 262.707031 556.46875 260.152344 556.421875 257.238281 C 556.355469 253.1875 557.59375 251.230469 562.320312 247.9375 C 568.058594 243.933594 569.832031 238.765625 565.46875 238.765625 C 562.773438 238.765625 560.054688 236.441406 558.324219 232.65625 C 554.804688 224.957031 555.492188 216.328125 560.777344 201.972656 C 566.144531 187.386719 566.742188 184.699219 566.761719 174.945312 C 566.78125 167.058594 566.578125 165.695312 564.738281 161.375 C 563.613281 158.730469 561.332031 154.792969 559.667969 152.628906 L 556.644531 148.6875 L 560.527344 145.546875 C 572.386719 135.960938 569.960938 120.269531 555.683594 114.226562 C 551.316406 112.375 550.226562 112.210938 542.570312 112.261719 C 537.980469 112.292969 530.976562 112.882812 527.011719 113.574219 C 522.96875 114.277344 516.125 114.84375 511.429688 114.863281 C 503.972656 114.890625 502.707031 114.710938 499.832031 113.21875 C 496.835938 111.664062 496.320312 110.921875 495.734375 107.324219 C 495.613281 106.585938 495.082031 105.847656 494.554688 105.6875 C 493.535156 105.371094 488.828125 109.359375 488.132812 111.125 C 487.789062 111.996094 487.511719 111.933594 486.503906 110.773438 C 485.835938 110.003906 484.902344 108.230469 484.429688 106.835938 C 483.242188 103.324219 484.699219 100.695312 488.925781 98.726562 L 492.207031 97.195312 L 490.273438 96.023438 C 486.28125 93.609375 479.496094 95.261719 477.042969 99.246094 C 476.347656 100.375 475.589844 101.300781 475.359375 101.300781 C 475.128906 101.304688 473.808594 100.230469 472.429688 98.910156 C 467.277344 94 469.046875 86.730469 475.9375 84.511719 C 479.613281 83.328125 482.867188 84.234375 483.542969 86.625 C 484.574219 90.273438 487.785156 85.476562 487.210938 81.144531 C 486.828125 78.261719 486.886719 78.160156 488.929688 78.160156 C 491.769531 78.160156 497.816406 81.800781 499.6875 84.636719 C 501.859375 87.925781 501.703125 93.113281 499.3125 96.976562 L 497.433594 100.011719 L 499.890625 99.53125 C 503.488281 98.828125 506.988281 96.644531 508.757812 94 C 510.628906 91.203125 510.828125 85.753906 509.171875 82.816406 C 507.5625 79.96875 507.746094 79.515625 510.125 80.476562 C 514.167969 82.117188 516.328125 83.921875 517.949219 87.015625 C 519.410156 89.800781 519.492188 90.496094 518.699219 93.394531 C 518.210938 95.183594 517.128906 97.539062 516.289062 98.628906 C 514.984375 100.320312 514.9375 100.605469 515.980469 100.605469 C 517.917969 100.605469 521.960938 98.816406 523.398438 97.324219 C 524.125 96.570312 525.183594 94.714844 525.75 93.199219 L 526.78125 90.445312 L 527.96875 92.542969 C 529.644531 95.511719 532.902344 98.183594 536.878906 99.847656 C 541.152344 101.636719 542.933594 101.734375 540.699219 100.0625 C 539.191406 98.933594 536.414062 90.984375 537.253906 90.207031 C 537.75 89.75 543.554688 94.105469 550.179688 99.910156 C 556.449219 105.398438 560.386719 107.199219 566.144531 107.199219 C 573.5 107.199219 577.78125 100.953125 574.476562 95.046875 C 572.550781 91.601562 568.257812 91.125 565.746094 94.074219 C 564.589844 95.429688 564.273438 96.507812 564.613281 97.929688 C 565.027344 99.671875 564.867188 99.90625 563.238281 99.90625 C 561.101562 99.90625 556.886719 97.234375 549.402344 91.144531 C 537.988281 81.851562 524.121094 73.976562 514.109375 71.097656 C 507.683594 69.253906 493.957031 68.53125 487.425781 69.699219 C 480.355469 70.960938 471.992188 74.90625 467.4375 79.132812 C 459.363281 86.621094 459.238281 96.585938 467.097656 105.660156 L 469.347656 108.257812 L 467.824219 110.570312 C 465.605469 113.929688 465.796875 118.453125 468.292969 121.785156 C 469.394531 123.25 470.503906 124.449219 470.761719 124.449219 C 471.015625 124.449219 471.296875 123.507812 471.386719 122.355469 C 471.605469 119.4375 472.886719 117.488281 475.089844 116.714844 C 477.070312 116.015625 478.351562 116.347656 487.425781 119.878906 C 496.976562 123.597656 512.675781 123.855469 529.371094 120.5625 C 537.554688 118.949219 547.207031 119.042969 551.453125 120.78125 C 559.234375 123.960938 561.039062 132.238281 555.316406 138.519531 C 552.839844 141.242188 550.453125 142.347656 542.433594 144.496094 C 536.332031 146.128906 534.886719 146.238281 521.015625 146.101562 C 509.164062 145.988281 504.90625 146.210938 500.066406 147.195312 C 494.816406 148.265625 491.585938 148.375 476.160156 147.992188 L 458.324219 147.554688 L 460.300781 149.152344 C 461.390625 150.03125 462.925781 151.113281 463.71875 151.554688 C 465.0625 152.308594 465.019531 152.410156 463.019531 153.136719 C 461.84375 153.558594 459.234375 153.90625 457.222656 153.90625 L 453.5625 153.90625 L 453.070312 156.941406 C 452.800781 158.609375 452.820312 160.558594 453.117188 161.269531 C 453.550781 162.320312 453.390625 162.472656 452.253906 162.070312 C 451.484375 161.796875 449.339844 161.261719 447.492188 160.878906 C 445.640625 160.496094 443.152344 159.714844 441.957031 159.144531 C 439.949219 158.183594 439.726562 158.210938 438.988281 159.488281 C 438.328125 160.628906 432.128906 165.128906 431.21875 165.128906 C 431.074219 165.128906 430.882812 164.261719 430.796875 163.199219 C 430.714844 162.140625 429.820312 159.378906 428.8125 157.0625 C 427.804688 154.75 426.75 152.222656 426.472656 151.453125 C 426.050781 150.289062 425.863281 150.230469 425.355469 151.101562 C 425.019531 151.679688 424.527344 153.257812 424.265625 154.609375 C 424 155.957031 423.066406 158.152344 422.191406 159.480469 L 420.59375 161.902344 L 419.574219 159.832031 C 418.480469 157.613281 416.667969 155.308594 416.007812 155.308594 C 415.789062 155.308594 415.410156 156.019531 415.171875 156.886719 C 414.667969 158.699219 410.367188 163.726562 409.316406 163.726562 C 408.929688 163.726562 408.609375 162.304688 408.609375 160.570312 C 408.609375 158.832031 408.269531 157.414062 407.851562 157.414062 C 407.433594 157.414062 407.09375 157.863281 407.09375 158.410156 C 407.09375 159.746094 403.417969 163.726562 402.183594 163.726562 C 401.648438 163.726562 400.78125 164.199219 400.261719 164.777344 C 398.90625 166.285156 397.796875 166.074219 398.367188 164.414062 C 398.636719 163.636719 398.460938 161.824219 397.980469 160.382812 L 396.851562 156.976562 C 396.667969 156.429688 395.351562 156.574219 392.5625 157.449219 C 388.058594 158.855469 386.550781 158.605469 388.867188 156.835938 C 389.714844 156.191406 391 153.949219 391.730469 151.855469 C 392.457031 149.761719 393.53125 147.90625 394.113281 147.730469 C 394.933594 147.480469 394.890625 147.789062 393.925781 149.058594 C 393.234375 149.96875 392.671875 151.195312 392.667969 151.785156 C 392.667969 152.371094 392.144531 153.769531 391.515625 154.886719 C 390.882812 156.007812 390.488281 157.03125 390.632812 157.167969 C 390.78125 157.300781 392.496094 156.667969 394.441406 155.753906 L 397.984375 154.097656 L 398 155.582031 C 398.007812 156.394531 398.433594 158.546875 398.949219 160.359375 L 399.882812 163.660156 L 402.292969 162.578125 C 404.757812 161.472656 407.09375 157.53125 407.09375 154.476562 C 407.09375 152.96875 407.980469 153.199219 408.34375 154.804688 C 408.449219 155.273438 409.003906 157.042969 409.578125 158.730469 L 410.621094 161.804688 L 412.273438 159.863281 C 413.179688 158.796875 414.320312 156.703125 414.800781 155.214844 C 415.640625 152.625 416.960938 151.515625 416.960938 153.394531 C 416.960938 154.746094 420.746094 159.605469 421.476562 159.1875 C 421.832031 158.984375 422.535156 157.164062 423.039062 155.136719 C 424.09375 150.921875 425.792969 148.054688 426.871094 148.671875 C 427.277344 148.90625 427.4375 149.355469 427.222656 149.671875 C 427.011719 149.992188 427.882812 152.730469 429.160156 155.761719 C 430.117188 158.019531 431.066406 160.28125 432.015625 162.542969 C 432.484375 163.664062 432.90625 163.5 435.644531 161.136719 C 437.351562 159.667969 438.902344 158.023438 439.089844 157.480469 C 439.371094 156.664062 439.75 156.691406 441.347656 157.660156 C 443.578125 159.007812 451.078125 161.1875 451.65625 160.652344 C 451.875 160.449219 452.097656 158.527344 452.152344 156.378906 L 452.25 152.472656 L 454.410156 152.910156 C 455.59375 153.148438 458.089844 153.132812 459.953125 152.875 L 463.339844 152.40625 L 460.320312 150.386719 C 458.660156 149.273438 456.984375 147.835938 456.589844 147.191406 C 456.175781 146.503906 454.695312 145.917969 453.023438 145.777344 C 448.5 145.402344 440.488281 141.019531 440.488281 138.917969 C 440.488281 138.523438 441.597656 139.195312 442.953125 140.40625 C 445.964844 143.097656 450.144531 144.789062 453.796875 144.789062 L 456.527344 144.789062 L 454.839844 142.59375 C 453.867188 141.335938 452.996094 138.945312 452.792969 136.980469 C 452.46875 133.84375 452.128906 133.34375 448.773438 131.070312 C 446.757812 129.703125 444.261719 127.65625 443.226562 126.519531 L 441.34375 124.449219 L 440.382812 126.90625 C 439.855469 128.253906 439.210938 129.359375 438.949219 129.359375 C 438.6875 129.359375 437.671875 128.570312 436.691406 127.605469 C 435.710938 126.640625 434.714844 125.855469 434.472656 125.859375 C 434.234375 125.867188 433.363281 127.164062 432.542969 128.746094 L 431.050781 131.625 L 429.898438 129.96875 C 429.261719 129.054688 427.761719 127.441406 426.566406 126.378906 C 425.367188 125.320312 424.738281 124.449219 425.164062 124.449219 C 425.59375 124.449219 427.070312 125.554688 428.449219 126.90625 L 430.957031 129.363281 L 431.976562 127.5625 C 432.582031 126.496094 432.808594 124.855469 432.535156 123.527344 C 432.136719 121.597656 432.191406 121.484375 432.949219 122.695312 C 433.433594 123.46875 434.898438 124.949219 436.210938 125.984375 L 438.589844 127.867188 L 440.234375 124.933594 C 441.867188 122.007812 441.878906 122.003906 442.621094 123.75 C 443.617188 126.082031 450.816406 131.839844 456.945312 135.207031 C 457.890625 135.722656 457.492188 133.941406 455.75 129.839844 C 455.285156 128.753906 454.90625 126.796875 454.90625 125.488281 C 454.90625 123.550781 454.335938 122.6875 451.792969 120.800781 C 448.125 118.078125 446.9375 116.140625 446.246094 111.746094 C 445.96875 109.964844 445.324219 107.984375 444.820312 107.347656 C 444.070312 106.398438 443.949219 106.929688 444.148438 110.230469 C 444.28125 112.460938 443.984375 115.226562 443.488281 116.386719 L 442.582031 118.488281 L 441.882812 116.734375 C 441.5 115.773438 439.796875 114.09375 438.101562 113.007812 C 436.40625 111.925781 435.214844 110.851562 435.457031 110.628906 C 435.699219 110.40625 437.441406 111.398438 439.332031 112.828125 C 442.214844 115.011719 442.847656 115.246094 443.246094 114.285156 C 443.714844 113.15625 443.246094 108.246094 442.339844 104.8125 C 441.890625 103.101562 441.929688 103.109375 444.09375 105.222656 C 445.691406 106.78125 446.578125 108.640625 447.261719 111.886719 C 448.132812 116.007812 448.570312 116.691406 452.476562 120.039062 C 454.820312 122.046875 456.863281 123.578125 457.011719 123.441406 C 457.160156 123.304688 457.457031 118.105469 457.667969 111.890625 C 458.078125 99.972656 457.617188 97.136719 454.675781 93.453125 L 453.164062 91.5625 L 455.539062 89.0625 C 458.640625 85.796875 460.0625 83.183594 460.679688 79.617188 L 461.183594 76.714844 L 458.5 79.191406 C 456.304688 81.222656 455.253906 81.667969 452.710938 81.667969 C 450.195312 81.667969 449.210938 81.257812 447.511719 79.492188 C 445.476562 77.375 441.871094 75.339844 438.398438 74.347656 C 437.117188 73.984375 436.691406 74.140625 436.691406 74.988281 C 436.691406 75.609375 435.984375 77.398438 435.117188 78.964844 L 433.546875 81.8125 L 430.25 78.636719 C 428.226562 76.683594 425.828125 75.167969 424.042969 74.710938 C 419.484375 73.539062 419.234375 73.65625 419.234375 76.972656 C 419.234375 82 417.035156 82.9375 413.074219 79.59375 C 410.054688 77.046875 407.550781 76.492188 401.828125 77.105469 L 397.40625 77.582031 L 398.199219 79.527344 C 398.867188 81.15625 398.714844 81.839844 397.292969 83.6875 C 394.984375 86.683594 391.980469 87.980469 387.359375 87.980469 C 385.230469 87.980469 382.566406 88.410156 381.4375 88.9375 C 380.3125 89.460938 377.511719 90.066406 375.214844 90.28125 C 372.917969 90.496094 370.472656 90.878906 369.777344 91.132812 C 368.6875 91.527344 368.570312 91.203125 368.917969 88.789062 C 369.457031 85.09375 366.8125 82.371094 362.691406 82.371094 C 357.34375 82.371094 354.878906 87.035156 356.972656 93.191406 C 357.375 94.375 357.902344 96.246094 358.144531 97.34375 C 358.394531 98.484375 360.800781 101.507812 363.753906 104.386719 C 366.59375 107.164062 369.28125 110.050781 369.722656 110.804688 C 370.164062 111.5625 371.621094 112.769531 372.964844 113.496094 L 375.402344 114.816406 L 375.082031 112.269531 C 374.726562 109.46875 375.351562 109.03125 376.878906 111.007812 C 377.421875 111.710938 378.808594 112.851562 379.957031 113.542969 C 381.765625 114.625 382.042969 114.648438 382.042969 113.707031 C 382.042969 113.109375 382.414062 111.730469 382.863281 110.644531 L 383.683594 108.671875 L 385.105469 111.355469 C 385.886719 112.835938 388.429688 116.191406 390.753906 118.820312 C 395.265625 123.914062 398.015625 129.609375 396.597656 130.921875 C 396.019531 131.453125 394.464844 131.414062 391.242188 130.78125 C 388.742188 130.289062 385.648438 130.03125 384.371094 130.203125 C 381.757812 130.558594 381.550781 130.230469 383.160156 128.265625 C 384.855469 126.195312 384.585938 125.851562 381.253906 125.851562 C 377.398438 125.851562 367.832031 124.050781 364.15625 122.632812 C 360.585938 121.253906 359.761719 121.597656 358.710938 124.902344 C 358.238281 126.390625 357.371094 129.085938 356.785156 130.890625 L 355.722656 134.175781 L 359.585938 133.8125 C 361.710938 133.613281 364.445312 133.160156 365.660156 132.804688 C 366.875 132.449219 367.980469 132.261719 368.117188 132.386719 C 368.25 132.511719 367.707031 133.792969 366.910156 135.238281 L 365.460938 137.863281 L 367.871094 137.386719 C 369.195312 137.121094 371.191406 136.476562 372.300781 135.953125 C 374.234375 135.039062 374.390625 135.105469 375.917969 137.496094 C 377.792969 140.433594 379.292969 140.3125 379.625 137.195312 C 379.96875 133.976562 381.054688 134.449219 383.097656 138.71875 C 385.0625 142.824219 387.105469 144.273438 387.5 141.839844 C 387.628906 141.03125 388.6875 139.71875 389.851562 138.917969 C 392.203125 137.300781 393.976562 137.785156 394.992188 140.324219 C 396.046875 142.953125 393.699219 145.660156 386.875 149.699219 C 373.203125 157.785156 365.253906 168.84375 362.984375 182.941406 C 360.9375 195.65625 367.328125 208.792969 380.152344 218.230469 C 386.289062 222.746094 396.035156 227.511719 395.417969 225.695312 C 392.785156 217.972656 392.875 203.234375 395.5625 200.75 C 395.96875 200.375 395.828125 201.914062 395.253906 204.164062 C 393.117188 212.554688 394.046875 219.242188 399.523438 234.910156 C 404.476562 249.082031 403.789062 255.140625 396.78125 259.144531 C 394.527344 260.429688 393.078125 260.640625 387.027344 260.570312 C 380.457031 260.492188 379.742188 260.621094 377.632812 262.261719 C 375.589844 263.851562 372.9375 269.070312 372.9375 271.503906 C 372.9375 272.824219 374.4375 272.648438 377.390625 270.988281 Z M 377.390625 270.984375 " fill-opacity="1" fill-rule="nonzero"/><path fill="#ffbe29" d="M 484.011719 270.699219 L 486.769531 268.972656 L 488.636719 270.699219 C 491.089844 272.960938 493.957031 272.910156 496.3125 270.5625 C 497.339844 269.539062 498.265625 268.828125 498.363281 268.984375 C 498.464844 269.140625 498.921875 269.902344 499.382812 270.671875 C 499.964844 271.648438 501.160156 272.140625 503.324219 272.289062 C 505.925781 272.46875 506.625 272.222656 507.660156 270.765625 L 508.894531 269.027344 L 511.605469 270.726562 C 519.03125 275.382812 522.988281 270.496094 519.667969 260.769531 C 517.980469 255.824219 518.910156 253.042969 524.347656 246.746094 C 526.640625 244.089844 528.519531 241.257812 528.523438 240.449219 C 528.523438 239.160156 528.097656 238.988281 525.046875 239.046875 C 522.125 239.105469 521.269531 238.796875 519.734375 237.144531 C 517.230469 234.460938 517.378906 231.382812 520.175781 227.972656 L 522.410156 225.242188 L 518.445312 222.621094 C 516.269531 221.175781 512.339844 217.765625 509.714844 215.035156 C 503.820312 208.90625 498.027344 205.996094 490.386719 205.339844 L 485.265625 204.894531 L 485.273438 208.679688 C 485.28125 213.550781 487.625 218.234375 494.019531 226.171875 C 501.289062 235.195312 501.796875 236.59375 502.09375 248.386719 L 502.339844 258.363281 L 500.238281 260.308594 C 498.335938 262.070312 497.480469 262.292969 491.34375 262.640625 C 485.503906 262.96875 484.277344 263.261719 482.5625 264.742188 C 480.285156 266.710938 479.605469 267.78125 478.902344 270.5 C 478.492188 272.082031 478.660156 272.425781 479.832031 272.425781 C 480.613281 272.425781 482.496094 271.648438 484.011719 270.699219 Z M 328.917969 241.84375 C 328.917969 240.582031 329.492188 240.246094 332.335938 239.851562 L 335.753906 239.378906 L 333.472656 237.605469 C 330.765625 235.5 330.515625 233.855469 332.902344 233.851562 C 335.277344 233.851562 339.304688 231.441406 339.917969 229.660156 C 340.203125 228.832031 340.023438 227.726562 339.511719 227.15625 C 338.179688 225.671875 335.671875 225.898438 335.207031 227.542969 C 334.707031 229.308594 333.871094 229.3125 331.972656 227.558594 C 329.117188 224.917969 329.050781 219.457031 331.839844 216.273438 C 333.152344 214.773438 333.140625 214.675781 331.464844 213.128906 C 329.664062 211.464844 328.378906 208.167969 329.222656 207.386719 C 329.492188 207.136719 330.917969 207.335938 332.386719 207.828125 C 334.476562 208.523438 335.300781 208.535156 336.164062 207.875 C 338.773438 205.875 335.945312 203.304688 331.761719 203.871094 C 330.082031 204.097656 329.386719 203.871094 329.144531 203.019531 C 328.960938 202.371094 327.488281 201.527344 325.828125 201.121094 C 322.867188 200.386719 322.84375 200.398438 322.84375 202.390625 C 322.84375 204.574219 321.566406 204.984375 319.140625 203.585938 C 317.167969 202.445312 315.253906 203.328125 315.253906 205.378906 C 315.253906 207.292969 317.226562 208.234375 320.757812 208.011719 C 323.464844 207.84375 323.566406 209.808594 320.996094 212.632812 L 319.144531 214.664062 L 320.609375 216.71875 C 322.78125 219.761719 322.597656 224.816406 320.226562 227.324219 L 318.367188 229.292969 L 317.148438 227.714844 C 315.453125 225.523438 313.132812 225.667969 312.5 228.011719 C 312.082031 229.542969 312.425781 230.242188 314.394531 231.867188 C 315.714844 232.957031 317.644531 233.851562 318.683594 233.851562 C 321.25 233.851562 321.148438 235.820312 318.480469 237.8125 L 316.394531 239.367188 L 319.617188 239.855469 C 321.394531 240.125 322.84375 240.628906 322.84375 240.976562 C 322.84375 242.316406 323.679688 246.375 325.796875 246.476562 C 327.691406 246.566406 328.871094 243.761719 328.917969 241.84375 Z M 328.917969 241.84375 " fill-opacity="1" fill-rule="nonzero"/><path fill="#ffbe29" d="M 369.738281 227.15625 C 372.667969 226.03125 379.007812 220.789062 379.007812 219.492188 C 379.007812 219.085938 377.257812 217.207031 375.121094 215.320312 C 370.617188 211.34375 365.71875 204.648438 364.449219 200.734375 C 363.789062 198.695312 360.589844 195.199219 351.582031 186.679688 L 339.597656 175.335938 L 336.144531 176.191406 C 334.246094 176.660156 331.925781 177.054688 330.992188 177.070312 C 329.386719 177.09375 329.414062 177.183594 331.550781 178.796875 L 333.808594 180.5 L 336.96875 178.789062 C 340.035156 177.128906 340.144531 177.117188 340.523438 178.453125 C 340.746094 179.238281 340.269531 180.59375 339.421875 181.589844 C 338.597656 182.554688 338.128906 183.648438 338.378906 184.019531 C 338.628906 184.394531 337.839844 185.171875 336.625 185.753906 C 334.375 186.828125 332.8125 190.371094 334.589844 190.371094 C 336.1875 190.371094 339.710938 186.128906 339.304688 184.695312 C 339.097656 183.957031 339.195312 183.203125 339.527344 183.015625 C 340.898438 182.230469 340.8125 185.558594 339.421875 187.199219 C 338.597656 188.164062 338.128906 189.257812 338.378906 189.632812 C 338.628906 190.003906 337.839844 190.785156 336.625 191.363281 C 334.390625 192.433594 332.8125 195.980469 334.574219 195.980469 C 336.296875 195.980469 339.761719 191.925781 339.335938 190.410156 C 339.109375 189.617188 339.195312 188.8125 339.527344 188.625 C 340.453125 188.097656 340.949219 190.726562 340.171875 192.015625 C 339.753906 192.703125 339.757812 193.644531 340.179688 194.394531 C 340.949219 195.746094 340.167969 198.34375 338.753906 199.152344 C 338.148438 199.5 338.558594 200.179688 340.03125 201.261719 C 342.15625 202.828125 342.199219 202.996094 342.199219 209.914062 C 342.199219 215.695312 342.4375 217.191406 343.527344 218.195312 C 344.75 219.328125 344.855469 219.332031 344.855469 218.246094 C 344.855469 217.0625 346.984375 215.617188 348.726562 215.617188 C 349.238281 215.617188 352.449219 218.269531 355.855469 221.515625 C 359.285156 224.777344 362.875 227.554688 363.890625 227.730469 C 364.902344 227.90625 365.996094 228.09375 366.320312 228.144531 C 366.648438 228.199219 368.183594 227.753906 369.738281 227.15625 Z M 333.09375 199.179688 C 333.09375 197.316406 329.152344 195.324219 324.4375 194.808594 C 320.632812 194.394531 320.570312 194.417969 320.570312 196.273438 C 320.570312 197.808594 321.167969 198.410156 323.792969 199.527344 C 328.015625 201.320312 333.09375 201.132812 333.09375 199.179688 Z M 333.09375 199.179688 " fill-opacity="1" fill-rule="nonzero"/><path fill="#ffbe29" d="M 337.410156 199.007812 C 339.335938 197.304688 340.246094 195.28125 339.089844 195.28125 C 337.757812 195.28125 334.226562 198.375 334.226562 199.539062 C 334.226562 201.355469 334.882812 201.246094 337.410156 199.007812 Z M 333.316406 193.496094 C 333.476562 192.441406 332.8125 191.742188 330.8125 190.859375 C 326.5 188.960938 321.347656 188.082031 320.105469 189.03125 C 317.820312 190.785156 319.34375 193.140625 323.039062 193.5625 C 324.523438 193.734375 326.542969 194.175781 327.519531 194.546875 C 330.359375 195.625 333.0625 195.132812 333.316406 193.496094 Z M 333.316406 187.863281 C 333.546875 186.363281 332.5625 185.824219 324.535156 183.066406 C 318.542969 181.007812 315.890625 181.980469 317.804688 185.53125 C 318.472656 186.765625 319.59375 187.332031 322.105469 187.699219 C 323.972656 187.972656 326.523438 188.503906 327.777344 188.882812 C 331.121094 189.898438 333.054688 189.542969 333.316406 187.863281 Z M 337.335938 182.582031 C 338.546875 181.386719 339.539062 179.972656 339.539062 179.441406 C 339.539062 177.722656 334.753906 180.765625 334.144531 182.871094 C 333.414062 185.398438 334.597656 185.289062 337.335938 182.582031 Z M 333.316406 182.230469 C 333.578125 180.519531 330.664062 178.976562 324.9375 177.789062 C 320.734375 176.917969 318.878906 177.414062 319.195312 179.320312 C 319.367188 180.359375 320.765625 181.121094 324.738281 182.328125 C 331.09375 184.265625 333.003906 184.242188 333.316406 182.230469 Z M 338.917969 174.273438 C 346.257812 171.085938 346.894531 163.046875 339.972656 160.933594 C 337.097656 160.058594 335.261719 160.53125 334.164062 162.429688 C 333.320312 163.882812 333.882812 166.527344 335.035156 166.527344 C 335.425781 166.527344 335.742188 167.019531 335.742188 167.617188 C 335.742188 170.410156 324.535156 171.671875 319.9375 169.402344 C 318.324219 168.601562 317.621094 166.527344 318.964844 166.527344 C 319.96875 166.527344 320.664062 164.417969 320.152344 162.921875 C 319.453125 160.886719 317.347656 160.183594 314.300781 160.960938 C 307.417969 162.714844 307.613281 170.605469 314.617188 173.953125 C 320.363281 176.699219 332.957031 176.863281 338.917969 174.273438 Z M 338.917969 174.273438 " fill-opacity="1" fill-rule="nonzero"/><path fill="#ffbe29" d="M 334.351562 168.09375 C 334.777344 167.699219 334.59375 167.097656 333.878906 166.550781 C 332.320312 165.351562 332.402344 163.570312 334.113281 161.535156 C 335.398438 160.003906 335.558594 157.714844 336.003906 134.613281 C 336.765625 94.804688 339.800781 64.863281 343.796875 57.679688 C 345.390625 54.820312 345.167969 54.808594 341.054688 57.539062 C 335.753906 61.058594 331.71875 65.636719 328.144531 72.195312 C 321.394531 84.578125 319.046875 101.234375 319.046875 136.796875 C 319.046875 156.988281 319.1875 159.628906 320.367188 161.527344 C 321.488281 163.328125 321.546875 163.996094 320.761719 165.917969 C 320.25 167.167969 320.019531 168.359375 320.246094 168.570312 C 321.753906 169.964844 332.730469 169.59375 334.351562 168.097656 Z M 396.03125 130.132812 C 396.261719 129.789062 395.75 128.050781 394.902344 126.273438 C 393.574219 123.5 393.039062 123.042969 391.148438 123.042969 C 385.230469 123.042969 375.710938 120.460938 365.898438 116.191406 C 360.230469 113.726562 358.273438 113.160156 357.59375 113.789062 C 355.863281 115.390625 358.742188 119.195312 363.203125 121.195312 C 367.164062 122.964844 378.230469 125.144531 383.277344 125.144531 C 386.207031 125.144531 386.277344 125.273438 384.609375 127.625 L 383.382812 129.355469 L 386.695312 129.4375 C 388.519531 129.484375 391.035156 129.761719 392.289062 130.054688 C 395.539062 130.820312 395.570312 130.820312 396.03125 130.132812 Z M 396.03125 130.132812 " fill-opacity="1" fill-rule="nonzero"/><path fill="#000000" d="M 430.617188 148.070312 C 430.617188 147.042969 427.519531 144.253906 424.382812 142.457031 C 421.917969 141.046875 421.511719 141.003906 421.503906 142.152344 C 421.496094 143.902344 419.90625 148.289062 419.277344 148.289062 C 418.925781 148.289062 418.40625 147.433594 418.121094 146.382812 C 417.835938 145.335938 416.640625 143.269531 415.464844 141.792969 L 413.328125 139.109375 L 411.664062 141.59375 C 410.113281 143.914062 407.425781 146.1875 406.234375 146.1875 C 405.949219 146.1875 405.894531 144.964844 406.109375 143.472656 C 406.34375 141.851562 406.164062 140.5625 405.65625 140.273438 C 405.191406 140.007812 404.8125 140.101562 404.8125 140.480469 C 404.8125 141.355469 401.078125 145.484375 400.289062 145.484375 C 399.964844 145.484375 399.507812 144.300781 399.277344 142.855469 C 399.046875 141.410156 398.652344 139.121094 398.40625 137.769531 C 398.15625 136.421875 398.6875 137.335938 399.585938 139.804688 L 401.21875 144.292969 L 403.011719 141.558594 C 403.996094 140.054688 404.804688 138.410156 404.808594 137.902344 C 404.808594 137.398438 405.144531 137.175781 405.546875 137.40625 C 405.953125 137.636719 406.519531 139.449219 406.800781 141.425781 L 407.320312 145.023438 L 409.292969 142.914062 C 410.375 141.753906 411.648438 140.203125 412.113281 139.464844 C 412.953125 138.144531 413 138.148438 414.664062 139.523438 C 415.59375 140.296875 417.027344 142.140625 417.847656 143.625 C 418.667969 145.109375 419.449219 146.210938 419.582031 146.078125 C 419.714844 145.945312 420.015625 144.414062 420.25 142.679688 C 420.484375 140.945312 420.691406 139.460938 420.710938 139.378906 C 420.828125 138.949219 426.652344 142.644531 428.808594 144.515625 C 430.191406 145.71875 431.507812 146.53125 431.730469 146.328125 C 431.953125 146.121094 432.136719 144.347656 432.136719 142.386719 C 432.136719 139.34375 431.804688 138.53125 429.898438 136.867188 C 427.707031 134.957031 427.644531 134.945312 426.835938 136.34375 C 425.785156 138.160156 424.546875 138.183594 424.546875 136.390625 C 424.546875 135.085938 420.402344 130.054688 419.328125 130.054688 C 419.046875 130.054688 418.175781 131.160156 417.386719 132.511719 C 416.601562 133.859375 415.753906 134.964844 415.507812 134.960938 C 414.445312 134.957031 408.605469 128.605469 408.609375 127.457031 C 408.609375 126.546875 409.003906 126.777344 410.027344 128.300781 C 410.804688 129.460938 412.359375 131.1875 413.480469 132.140625 C 415.75 134.074219 416.574219 133.601562 417.449219 129.878906 C 417.699219 128.820312 418.132812 127.953125 418.414062 127.953125 C 419.386719 127.953125 424.46875 133.21875 425.183594 134.964844 L 425.898438 136.71875 L 426.445312 134.789062 C 427.109375 132.429688 427.84375 132.34375 428.902344 134.496094 C 429.347656 135.394531 431.535156 137.261719 433.769531 138.648438 L 437.828125 141.167969 L 438.644531 138.636719 C 439.089844 137.242188 439.683594 136.441406 439.960938 136.855469 C 440.375 137.472656 439.320312 141.671875 438.523438 142.574219 C 438.40625 142.710938 437.089844 141.964844 435.601562 140.914062 L 432.894531 139.007812 L 432.882812 142.421875 C 432.875 144.296875 432.667969 146.546875 432.417969 147.414062 C 431.921875 149.109375 430.617188 149.589844 430.617188 148.070312 Z M 410.378906 120.847656 C 405.554688 116.917969 404.820312 116.019531 404.929688 114.15625 L 405.042969 112.175781 L 405.355469 114.089844 C 405.539062 115.207031 406.824219 116.882812 408.445312 118.117188 L 411.21875 120.230469 L 412.921875 118.304688 C 413.859375 117.25 414.640625 115.988281 414.652344 115.507812 C 414.695312 114.25 414.925781 114.355469 418.191406 117.121094 C 421.09375 119.578125 421.140625 119.589844 421.570312 117.996094 C 421.8125 117.109375 421.726562 115.4375 421.378906 114.285156 C 420.433594 111.109375 420.617188 110.628906 422.054688 112.546875 C 422.769531 113.5 423.921875 114.847656 424.613281 115.539062 C 425.816406 116.75 425.890625 116.734375 426.335938 115.191406 C 426.59375 114.304688 426.808594 112.679688 426.816406 111.582031 L 426.824219 109.585938 L 429.441406 112.480469 C 431.886719 115.183594 432.109375 115.285156 432.855469 113.996094 C 433.296875 113.238281 433.660156 111.414062 433.667969 109.941406 C 433.675781 108.039062 433.882812 107.5625 434.378906 108.285156 C 435.203125 109.492188 434.628906 112.785156 433.101562 115.589844 L 432.003906 117.601562 L 430.566406 115.414062 C 428.722656 112.617188 428.109375 112.660156 426.929688 115.679688 C 425.8125 118.535156 425.085938 118.753906 424 116.558594 C 423.292969 115.136719 423.160156 115.3125 422.660156 118.292969 L 422.105469 121.609375 L 415.449219 116.570312 L 413.953125 118.230469 C 413.128906 119.140625 412.445312 120.285156 412.429688 120.765625 C 412.398438 121.8125 411.597656 121.84375 410.378906 120.847656 Z M 453.292969 106.210938 C 451.539062 104.664062 450.328125 103.191406 450.605469 102.9375 C 450.882812 102.679688 451.195312 102.605469 451.300781 102.773438 C 451.40625 102.941406 452.839844 104.414062 454.488281 106.046875 C 458.289062 109.808594 457.507812 109.914062 453.292969 106.210938 Z M 396.128906 100.445312 C 394.53125 98.335938 394.644531 96.941406 396.585938 94.65625 C 397.992188 93.007812 398.632812 92.78125 401.089844 93.085938 C 402.660156 93.28125 406.046875 94.636719 408.613281 96.101562 C 411.578125 97.792969 414.640625 98.921875 417.015625 99.203125 C 419.070312 99.449219 420.753906 99.539062 420.753906 99.410156 C 420.753906 99.277344 419.898438 97.921875 418.855469 96.394531 C 416.378906 92.765625 416.464844 92.375 419.257812 94.550781 C 422.128906 96.78125 425.558594 97.433594 433.230469 97.203125 L 436.976562 97.09375 L 434.800781 94.996094 C 431.761719 92.066406 432.699219 91.800781 436.054688 94.644531 C 439.203125 97.3125 439.007812 97.5 432.378906 98.144531 C 429.5625 98.417969 426.535156 98.21875 424.015625 97.597656 C 420.25 96.660156 420.105469 96.675781 420.816406 97.90625 C 421.230469 98.617188 421.894531 99.199219 422.296875 99.199219 C 422.699219 99.199219 423.03125 99.558594 423.03125 99.996094 C 423.03125 101.351562 414.894531 100.160156 411.007812 98.238281 C 402.128906 93.855469 401.011719 93.472656 398.894531 94.125 C 397.71875 94.484375 396.542969 95.542969 396.136719 96.605469 C 394.785156 100.144531 399.925781 102.894531 402.046875 99.765625 C 402.664062 98.859375 402.519531 98.238281 401.4375 97.136719 C 399.957031 95.625 400.097656 95.410156 402.09375 96.117188 C 403.515625 96.621094 403.703125 99.941406 402.386719 101.160156 C 400.875 102.558594 397.429688 102.160156 396.128906 100.445312 Z M 396.128906 100.445312 " fill-opacity="1" fill-rule="nonzero"/><path fill="#000000" d="M 431.109375 91.707031 C 430 90.679688 430.871094 90.429688 435.847656 90.339844 C 442.007812 90.226562 445.75 89.226562 450.160156 86.507812 C 453.699219 84.328125 454.65625 84.757812 451.300781 87.015625 C 448.238281 89.074219 443.460938 90.660156 438.851562 91.144531 C 436.617188 91.378906 434.074219 91.703125 433.195312 91.867188 C 432.320312 92.027344 431.378906 91.957031 431.109375 91.707031 Z M 431.109375 91.707031 " fill-opacity="1" fill-rule="nonzero"/><path stroke-linecap="butt" transform="matrix(0.561668, 0, 0, 0.561668, 0.499265, 0)" fill-opacity="1" fill="#ffbe29" fill-rule="nonzero" stroke-linejoin="miter" d="M 1065.800216 449.331383 C 1065.800216 449.331383 1072.414167 463.122619 1079.716636 468.748998 C 1090.545156 477.073813 1112.744663 476.475706 1122.168326 486.191468 C 1133.462812 497.652868 1121.29203 512.786366 1121.396351 514.100811 L 1122.015322 522.098754 C 1122.015322 522.098754 1114.399889 522.189165 1111.193758 522.703816 C 1106.374128 523.475791 1104.49635 527.488672 1095.524744 526.897519 C 1072.956636 525.395297 1073.867706 504.565872 1072.59499 486.768711 C 1071.461369 479.994801 1068.839434 471.16229 1067.351121 464.38838 C 1066.071451 458.574223 1065.800216 449.331383 1065.800216 449.331383 Z M 1065.800216 449.331383 " stroke="#000000" stroke-width="2.094" stroke-opacity="1" stroke-miterlimit="4"/><path stroke-linecap="butt" transform="matrix(0.561668, 0, 0, 0.561668, 0.499265, 0)" fill-opacity="1" fill="#ffbe29" fill-rule="nonzero" stroke-linejoin="miter" d="M 1065.751533 150.771655 C 1065.751533 150.771655 1072.372439 136.959555 1079.681863 131.326221 C 1090.517337 122.987497 1112.737708 123.592558 1122.168326 113.862887 C 1133.462812 102.387578 1121.285075 87.233215 1121.389396 85.911816 L 1122.008367 77.906918 C 1122.008367 77.906918 1114.392935 77.816506 1111.179848 77.301856 C 1106.360218 76.529881 1104.475486 72.510045 1095.496925 73.108152 C 1072.914908 74.610375 1073.825978 95.460664 1072.553262 113.27869 C 1071.41964 120.066509 1068.790751 128.912929 1067.302438 135.693794 C 1066.022767 141.514905 1065.751533 150.771655 1065.751533 150.771655 Z M 502.258209 150.785564 C 502.258209 150.785564 495.637303 136.96651 488.320924 131.340131 C 477.48545 122.994451 455.265079 123.599513 445.834461 113.869842 C 434.53302 102.394533 446.710757 87.233215 446.613391 85.91877 L 445.987465 77.913873 C 445.987465 77.913873 453.609852 77.816506 456.815984 77.301856 C 461.642569 76.529881 463.527301 72.510045 472.505861 73.108152 C 495.087879 74.610375 494.176809 95.467619 495.45648 113.285644 C 496.590101 120.073464 499.212036 128.919884 500.707303 135.707703 C 501.980019 141.52186 502.251254 150.785564 502.251254 150.785564 Z M 502.258209 150.785564 " stroke="#000000" stroke-width="2.096" stroke-opacity="1" stroke-miterlimit="4"/></svg>