<svg width="900" height="450" viewBox="0 0 900 450" fill="none" xmlns="http://www.w3.org/2000/svg">
<g clip-path="url(#clip0_764_3146)">
<path d="M900 0H0V450H900V0Z" fill="#1E1E1E"/>
<mask id="mask0_764_3146" style="mask-type:luminance" maskUnits="userSpaceOnUse" x="0" y="0" width="900" height="450">
<path d="M900 0H0V450H900V0Z" fill="white"/>
</mask>
<g mask="url(#mask0_764_3146)">
<path d="M0.5 0.5H899.5V449.5H0.5V0.5Z" fill="#BF0A30" stroke="black"/>
<path d="M0 61.3636H900M0 143.182H900M0 225H900M0 306.818H900M0 388.636H900" stroke="white" stroke-width="40"/>
<path d="M204.785 0H0V204.545H204.785V0Z" fill="#002868"/>
<path d="M102.392 40.9091L83.4077 99.2694L112.622 108.751L102.392 40.9091Z" fill="white"/>
<path d="M102.392 40.9091L121.377 99.2694L92.1626 108.751L102.392 40.9091Z" fill="white"/>
<path d="M160.812 83.3274L99.3854 83.3103L99.394 113.975L160.812 83.3274Z" fill="white"/>
<path d="M160.821 83.3189L111.126 119.379L93.0632 94.5483L160.821 83.3189Z" fill="white"/>
<path d="M43.9638 83.3189L93.6583 119.379L111.721 94.5483L43.9638 83.3189Z" fill="white"/>
<path d="M43.9723 83.3274L105.399 83.3103L105.391 113.975L43.9723 83.3274Z" fill="white"/>
<path d="M138.503 151.922L119.512 93.5567L90.3043 103.033L138.503 151.922Z" fill="white"/>
<path d="M138.508 151.917L88.8008 115.843L106.851 91.0262L138.508 151.917Z" fill="white"/>
<path d="M66.2767 151.917L115.984 115.843L97.9332 91.0262L66.2767 151.917Z" fill="white"/>
<path d="M66.2815 151.922L85.2728 93.5567L114.48 103.033L66.2815 151.922Z" fill="white"/>
</g>
</g>
<defs>
<clipPath id="clip0_764_3146">
<rect width="900" height="450" fill="white"/>
</clipPath>
</defs>
</svg>
