<svg width="900" height="450" viewBox="0 0 900 450" fill="none" xmlns="http://www.w3.org/2000/svg">
<rect width="900" height="450" fill="#1E1E1E"/>
<g clip-path="url(#clip0_0_1)">
<mask id="mask0_0_1" style="mask-type:luminance" maskUnits="userSpaceOnUse" x="0" y="0" width="900" height="450">
<path d="M0 -3.37219e-06H900V450H0V-3.37219e-06Z" fill="white"/>
</mask>
<g mask="url(#mask0_0_1)">
<path d="M0 -3.37219e-06H900V450H0V-3.37219e-06Z" fill="white"/>
<path d="M0 -3.37219e-06H900V450H0V-3.37219e-06Z" fill="white"/>
</g>
<mask id="mask1_0_1" style="mask-type:luminance" maskUnits="userSpaceOnUse" x="0" y="0" width="900" height="450">
<path d="M0 -3.37219e-06H900V450H0V-3.37219e-06Z" fill="white"/>
</mask>
<g mask="url(#mask1_0_1)">
<path d="M0 -3.37219e-06H900V450H0V-3.37219e-06Z" fill="#009543"/>
</g>
<mask id="mask2_0_1" style="mask-type:luminance" maskUnits="userSpaceOnUse" x="0" y="0" width="900" height="315">
<path d="M0 -3.37219e-06H900V314.667H0V-3.37219e-06Z" fill="white"/>
</mask>
<g mask="url(#mask2_0_1)">
<path d="M0 -3.37219e-06H900V314.536H0V-3.37219e-06Z" fill="white"/>
</g>
<mask id="mask3_0_1" style="mask-type:luminance" maskUnits="userSpaceOnUse" x="0" y="0" width="900" height="136">
<path d="M0 -3.37219e-06H900V136H0V-3.37219e-06Z" fill="white"/>
</mask>
<g mask="url(#mask3_0_1)">
<path d="M0 -3.37219e-06H900V134.802H0V-3.37219e-06Z" fill="#00209F"/>
</g>
<path d="M449.641 143.141C447.078 143.198 444.583 146.031 444.583 146.031L444.802 176.339L435.234 186.359H442.979L442.912 203.74L397.094 265.438L390.323 263.099L378.484 288.349C378.484 288.349 407.766 306.688 450.266 306.188C496.912 305.63 522.255 287.505 522.255 287.505L510.021 262.578L504.031 265.182L457.625 203.807L457.557 185.906H465.302L454.76 176.01L454.823 145.818C454.823 145.818 452.203 143.089 449.641 143.146V143.141Z" fill="black" stroke="black" stroke-width="1.49778"/>
<path d="M465.62 215.698H433.938C433.938 215.698 422.438 191.469 424.302 174.531C426.203 157.281 436.057 149.12 449.162 148.979C464.656 148.807 472.781 156.573 475.234 173.839C477.662 190.948 465.62 215.698 465.62 215.698Z" stroke="black" stroke-width="7.48891"/>
<path d="M394.266 273.448C393.75 274.141 389.953 281.734 389.953 281.734L396.51 280.354L394.266 273.448Z" fill="white"/>
<path d="M398.057 283.292L391.151 285.536L399.437 288.812L398.057 283.292Z" fill="white"/>
<path d="M401.172 273.615L404.625 283.802L413.083 281.385L410.839 276.552L401.172 273.615Z" fill="white"/>
<path d="M406.521 287.438L407.729 291.583L418.948 294.344L414.458 284.849L406.521 287.438Z" fill="white"/>
<path d="M418.953 278.797L422.922 288.292L431.38 285.01L428.62 280.87L418.953 278.797Z" fill="white"/>
<path d="M424.479 291.755L425.859 295.38L438.979 297.276L433.453 288.646L424.479 291.755Z" fill="white"/>
<path d="M437.073 281.568L441.906 290.026L454.167 285.536L452.786 282.26L437.073 281.568Z" fill="white"/>
<path d="M444.156 293.13L446.75 297.62L461.943 297.099L456.245 288.641L444.156 293.13Z" fill="white"/>
<path d="M460.214 281.911L464.359 288.99L474.026 284.328L471.437 280.531L460.214 281.911Z" fill="white"/>
<path d="M476.094 287.26L466.422 292.094L469.016 296.234L481.964 294.167L476.094 287.26Z" fill="white"/>
<path d="M479.208 279.828L484.214 286.047L492.328 279.656L489.563 276.724L479.208 279.828Z" fill="white"/>
<path d="M494.052 283.109L486.281 288.979L488.354 292.604L499.057 289.844L494.052 283.109Z" fill="white"/>
<path d="M504.76 270.859L506.656 273.62L501.307 281.563L495.781 274.484L504.76 270.859Z" fill="white"/>
<path d="M508.385 277.766L511.661 284.323L505.104 286.568L504.583 283.458L508.385 277.766Z" fill="white"/>
</g>
<defs>
<clipPath id="clip0_0_1">
<rect width="900" height="450" fill="white"/>
</clipPath>
</defs>
</svg>
