<svg width="900" height="450" viewBox="0 0 900 450" fill="none" xmlns="http://www.w3.org/2000/svg">
<g clip-path="url(#clip0_764_3336)">
<path d="M900 0H0V450H900V0Z" fill="#1E1E1E"/>
<mask id="mask0_764_3336" style="mask-type:luminance" maskUnits="userSpaceOnUse" x="0" y="0" width="900" height="450">
<path d="M900 0H0V450H900V0Z" fill="white"/>
</mask>
<g mask="url(#mask0_764_3336)">
<mask id="mask1_764_3336" style="mask-type:luminance" maskUnits="userSpaceOnUse" x="0" y="0" width="900" height="450">
<path d="M0 0H900V450H0V0Z" fill="white"/>
</mask>
<g mask="url(#mask1_764_3336)">
<path d="M0 0H900V450H0V0Z" fill="white"/>
<path d="M0 0H900V450H0V0Z" fill="white"/>
</g>
<mask id="mask2_764_3336" style="mask-type:luminance" maskUnits="userSpaceOnUse" x="0" y="225" width="900" height="225">
<path d="M0 225H900V450H0V225Z" fill="white"/>
</mask>
<g mask="url(#mask2_764_3336)">
<path d="M0 225.666H900V450H0V225.666Z" fill="#00A3E0"/>
</g>
<mask id="mask3_764_3336" style="mask-type:luminance" maskUnits="userSpaceOnUse" x="0" y="0" width="900" height="225">
<path d="M0 0H900V225H0V0Z" fill="white"/>
</mask>
<g mask="url(#mask3_764_3336)">
<path d="M0 0H900V224.334H0V0Z" fill="#EF3340"/>
</g>
<mask id="mask4_764_3336" style="mask-type:luminance" maskUnits="userSpaceOnUse" x="0" y="150" width="900" height="151">
<path d="M0 150H900V300.667H0V150Z" fill="white"/>
</mask>
<g mask="url(#mask4_764_3336)">
<path d="M0 150.443H900V300.224H0V150.443Z" fill="white"/>
</g>
</g>
</g>
<defs>
<clipPath id="clip0_764_3336">
<rect width="900" height="450" fill="white"/>
</clipPath>
</defs>
</svg>
