<svg width="900" height="450" viewBox="0 0 900 450" fill="none" xmlns="http://www.w3.org/2000/svg">
<g clip-path="url(#clip0_764_3382)">
<path d="M900 0H0V450H900V0Z" fill="#1E1E1E"/>
<mask id="mask0_764_3382" style="mask-type:luminance" maskUnits="userSpaceOnUse" x="0" y="0" width="900" height="450">
<path d="M900 0H0V450H900V0Z" fill="white"/>
</mask>
<g mask="url(#mask0_764_3382)">
<mask id="mask1_764_3382" style="mask-type:luminance" maskUnits="userSpaceOnUse" x="0" y="0" width="900" height="450">
<path d="M0 0H900V449.333H0V0Z" fill="white"/>
</mask>
<g mask="url(#mask1_764_3382)">
<path d="M0 0H900V449.333H0V0Z" fill="white"/>
<path d="M0 0H900V449.333H0V0Z" fill="white"/>
<path d="M0 0H900V449.333H0" fill="#9D2235"/>
</g>
<mask id="mask2_764_3382" style="mask-type:luminance" maskUnits="userSpaceOnUse" x="0" y="178" width="900" height="93">
<path d="M0 178.667H900V270.667H0V178.667Z" fill="white"/>
</mask>
<g mask="url(#mask2_764_3382)">
<path d="M0 179.734H900V269.599H0" fill="white"/>
</g>
</g>
</g>
<defs>
<clipPath id="clip0_764_3382">
<rect width="900" height="450" fill="white"/>
</clipPath>
</defs>
</svg>
