<svg width="900" height="450" viewBox="0 0 900 450" fill="none" xmlns="http://www.w3.org/2000/svg">
<g clip-path="url(#clip0_764_3427)">
<path d="M900 0H0V450H900V0Z" fill="#1E1E1E"/>
<mask id="mask0_764_3427" style="mask-type:luminance" maskUnits="userSpaceOnUse" x="0" y="0" width="900" height="450">
<path d="M900 0H0V450H900V0Z" fill="white"/>
</mask>
<g mask="url(#mask0_764_3427)">
<mask id="mask1_764_3427" style="mask-type:luminance" maskUnits="userSpaceOnUse" x="0" y="0" width="900" height="450">
<path d="M0 0H900V449.333H0V0Z" fill="white"/>
</mask>
<g mask="url(#mask1_764_3427)">
<path d="M0 0H900V449.333H0V0Z" fill="white"/>
<path d="M0 0H900V449.333H0V0Z" fill="white"/>
<path d="M0 0H900V449.333H0V0Z" fill="#239E46"/>
</g>
<mask id="mask2_764_3427" style="mask-type:luminance" maskUnits="userSpaceOnUse" x="0" y="0" width="900" height="338">
<path d="M0 0H900V337.333H0V0Z" fill="white"/>
</mask>
<g mask="url(#mask2_764_3427)">
<path d="M0 0H900V337H0V0Z" fill="black"/>
</g>
<mask id="mask3_764_3427" style="mask-type:luminance" maskUnits="userSpaceOnUse" x="0" y="0" width="900" height="114">
<path d="M0 0H900V113.333H0V0Z" fill="white"/>
</mask>
<g mask="url(#mask3_764_3427)">
<path d="M0 0H900V112.333H0V0Z" fill="#E70013"/>
</g>
<path d="M482.333 225.167C482.333 227.005 482.245 228.844 482.063 230.672C481.88 232.505 481.615 234.323 481.255 236.125C480.896 237.927 480.448 239.714 479.917 241.474C479.38 243.234 478.76 244.964 478.057 246.661C477.354 248.359 476.568 250.021 475.703 251.646C474.833 253.266 473.891 254.844 472.87 256.37C471.844 257.901 470.75 259.375 469.583 260.797C468.417 262.219 467.182 263.583 465.88 264.885C464.583 266.182 463.219 267.417 461.797 268.583C460.375 269.75 458.901 270.844 457.37 271.87C455.844 272.891 454.266 273.833 452.646 274.703C451.021 275.568 449.359 276.354 447.661 277.057C445.964 277.76 444.229 278.38 442.469 278.917C440.708 279.448 438.927 279.896 437.125 280.255C435.318 280.615 433.505 280.885 431.672 281.063C429.844 281.245 428.005 281.333 426.167 281.333C424.328 281.333 422.49 281.245 420.661 281.063C418.828 280.885 417.016 280.615 415.208 280.255C413.406 279.896 411.625 279.448 409.865 278.917C408.104 278.38 406.37 277.76 404.672 277.057C402.974 276.354 401.313 275.568 399.688 274.703C398.068 273.833 396.49 272.891 394.964 271.87C393.432 270.844 391.958 269.75 390.536 268.583C389.115 267.417 387.75 266.182 386.453 264.885C385.151 263.583 383.917 262.219 382.75 260.797C381.583 259.375 380.49 257.901 379.464 256.37C378.443 254.844 377.5 253.266 376.63 251.646C375.766 250.021 374.979 248.359 374.276 246.661C373.573 244.964 372.953 243.234 372.417 241.474C371.885 239.714 371.437 237.927 371.078 236.125C370.719 234.323 370.453 232.505 370.271 230.672C370.089 228.844 370 227.005 370 225.167C370 223.328 370.089 221.495 370.271 219.661C370.453 217.833 370.719 216.016 371.078 214.208C371.437 212.406 371.885 210.625 372.417 208.865C372.953 207.104 373.573 205.375 374.276 203.672C374.979 201.974 375.766 200.313 376.63 198.693C377.5 197.068 378.443 195.49 379.464 193.964C380.49 192.432 381.583 190.958 382.75 189.536C383.917 188.115 385.151 186.75 386.453 185.453C387.75 184.151 389.115 182.917 390.536 181.75C391.958 180.583 393.432 179.49 394.964 178.469C396.49 177.443 398.068 176.5 399.688 175.63C401.313 174.766 402.974 173.979 404.672 173.276C406.37 172.573 408.104 171.953 409.865 171.417C411.625 170.885 413.406 170.437 415.208 170.078C417.016 169.719 418.828 169.453 420.661 169.271C422.49 169.089 424.328 169 426.167 169C428.005 169 429.844 169.089 431.672 169.271C433.505 169.453 435.318 169.719 437.125 170.078C438.927 170.437 440.708 170.885 442.469 171.417C444.229 171.953 445.964 172.573 447.661 173.276C449.359 173.979 451.021 174.766 452.646 175.63C454.266 176.5 455.844 177.443 457.37 178.469C458.901 179.49 460.375 180.583 461.797 181.75C463.219 182.917 464.583 184.151 465.88 185.453C467.182 186.75 468.417 188.115 469.583 189.536C470.75 190.958 471.844 192.432 472.87 193.964C473.891 195.49 474.833 197.068 475.703 198.693C476.568 200.313 477.354 201.974 478.057 203.672C478.76 205.375 479.38 207.104 479.917 208.865C480.448 210.625 480.896 212.406 481.255 214.208C481.615 216.016 481.88 217.833 482.063 219.661C482.245 221.495 482.333 223.328 482.333 225.167Z" fill="white"/>
<path d="M486.323 225.167C486.323 226.766 486.245 228.359 486.089 229.953C485.932 231.542 485.698 233.12 485.385 234.687C485.073 236.255 484.687 237.802 484.224 239.333C483.76 240.865 483.224 242.365 482.609 243.844C482 245.318 481.318 246.76 480.562 248.172C479.807 249.583 478.99 250.953 478.099 252.281C477.214 253.609 476.26 254.891 475.25 256.125C474.234 257.359 473.161 258.547 472.031 259.677C470.901 260.807 469.719 261.875 468.484 262.891C467.245 263.906 465.964 264.854 464.635 265.745C463.307 266.63 461.937 267.453 460.526 268.208C459.12 268.958 457.677 269.641 456.198 270.255C454.724 270.865 453.219 271.401 451.687 271.87C450.161 272.333 448.609 272.719 447.042 273.031C445.479 273.344 443.896 273.578 442.307 273.734C440.719 273.891 439.12 273.969 437.526 273.969C435.927 273.969 434.333 273.891 432.74 273.734C431.151 273.578 429.573 273.344 428.005 273.031C426.437 272.719 424.885 272.333 423.359 271.87C421.828 271.401 420.323 270.865 418.849 270.255C417.37 269.641 415.927 268.958 414.521 268.208C413.109 267.453 411.74 266.63 410.411 265.745C409.083 264.854 407.802 263.906 406.562 262.891C405.328 261.875 404.146 260.807 403.016 259.677C401.885 258.547 400.812 257.359 399.802 256.125C398.786 254.891 397.833 253.609 396.948 252.281C396.057 250.953 395.24 249.583 394.484 248.172C393.729 246.76 393.047 245.318 392.437 243.844C391.823 242.365 391.286 240.865 390.823 239.333C390.359 237.802 389.974 236.255 389.661 234.687C389.349 233.12 389.115 231.542 388.958 229.953C388.802 228.359 388.724 226.766 388.724 225.167C388.724 223.568 388.802 221.974 388.958 220.385C389.115 218.792 389.349 217.214 389.661 215.646C389.974 214.078 390.359 212.531 390.823 211C391.286 209.469 391.823 207.969 392.437 206.49C393.047 205.016 393.729 203.573 394.484 202.161C395.24 200.755 396.057 199.385 396.948 198.052C397.833 196.724 398.786 195.443 399.802 194.208C400.812 192.974 401.885 191.792 403.016 190.661C404.146 189.531 405.328 188.458 406.562 187.443C407.802 186.427 409.083 185.479 410.411 184.589C411.74 183.703 413.109 182.88 414.521 182.13C415.927 181.375 417.37 180.693 418.849 180.078C420.323 179.469 421.828 178.932 423.359 178.469C424.885 178.005 426.437 177.615 428.005 177.302C429.573 176.99 431.151 176.755 432.74 176.599C434.333 176.443 435.927 176.365 437.526 176.365C439.12 176.365 440.719 176.443 442.307 176.599C443.896 176.755 445.479 176.99 447.042 177.302C448.609 177.615 450.161 178.005 451.687 178.469C453.219 178.932 454.724 179.469 456.198 180.078C457.677 180.693 459.12 181.375 460.526 182.13C461.937 182.88 463.307 183.703 464.635 184.589C465.964 185.479 467.25 186.427 468.484 187.443C469.719 188.458 470.901 189.531 472.031 190.661C473.161 191.792 474.234 192.974 475.25 194.208C476.26 195.443 477.214 196.724 478.099 198.052C478.99 199.385 479.807 200.755 480.562 202.161C481.318 203.573 482 205.016 482.609 206.49C483.224 207.969 483.76 209.469 484.224 211C484.687 212.531 485.073 214.078 485.385 215.646C485.698 217.214 485.932 218.792 486.089 220.385C486.245 221.974 486.323 223.568 486.323 225.167Z" fill="black"/>
<path d="M453.479 225.167L529.021 200.62L482.333 264.885V185.453L529.021 249.714L453.479 225.167Z" fill="white"/>
</g>
</g>
<defs>
<clipPath id="clip0_764_3427">
<rect width="900" height="450" fill="white"/>
</clipPath>
</defs>
</svg>
