<svg width="900" height="450" viewBox="0 0 900 450" fill="none" xmlns="http://www.w3.org/2000/svg">
<g clip-path="url(#clip0_766_17993)">
<mask id="mask0_766_17993" style="mask-type:luminance" maskUnits="userSpaceOnUse" x="0" y="0" width="900" height="450">
<path d="M900 0H0V450H900V0Z" fill="white"/>
</mask>
<g mask="url(#mask0_766_17993)">
<path d="M900 0H0V450H900V0Z" fill="#1E1E1E"/>
<mask id="mask1_766_17993" style="mask-type:luminance" maskUnits="userSpaceOnUse" x="0" y="0" width="900" height="450">
<path d="M900 0H0V450H900V0Z" fill="white"/>
</mask>
<g mask="url(#mask1_766_17993)">
<mask id="mask2_766_17993" style="mask-type:luminance" maskUnits="userSpaceOnUse" x="0" y="0" width="900" height="450">
<path d="M0 0H900V450H0V0Z" fill="white"/>
</mask>
<g mask="url(#mask2_766_17993)">
<path d="M0 0H900V450H0V0Z" fill="white"/>
<path d="M0 0H900V450H0V0Z" fill="white"/>
</g>
<mask id="mask3_766_17993" style="mask-type:luminance" maskUnits="userSpaceOnUse" x="0" y="0" width="900" height="225">
<path d="M0 0H900V225H0V0Z" fill="white"/>
</mask>
<g mask="url(#mask3_766_17993)">
<path d="M0 0H900V224.334H0V0Z" fill="#CE1127"/>
</g>
</g>
</g>
</g>
<defs>
<clipPath id="clip0_766_17993">
<rect width="900" height="450" fill="white"/>
</clipPath>
</defs>
</svg>
