<svg width="900" height="450" viewBox="0 0 900 450" fill="none" xmlns="http://www.w3.org/2000/svg">
<g clip-path="url(#clip0_764_3606)">
<path d="M900 0H0V450H900V0Z" fill="#1E1E1E"/>
<mask id="mask0_764_3606" style="mask-type:luminance" maskUnits="userSpaceOnUse" x="0" y="0" width="900" height="450">
<path d="M900 0H0V450H900V0Z" fill="white"/>
</mask>
<g mask="url(#mask0_764_3606)">
<path d="M900 0H0V450H900V0Z" fill="white"/>
<mask id="mask1_764_3606" style="mask-type:luminance" maskUnits="userSpaceOnUse" x="0" y="0" width="900" height="450">
<path d="M0 0H900V450H0V0Z" fill="white"/>
</mask>
<g mask="url(#mask1_764_3606)">
<path d="M0 0H900V450H0V0Z" fill="white"/>
<path d="M0 0H900V450H0V0Z" fill="white"/>
<path d="M0 0H900V450H0V0Z" fill="#C8102E"/>
</g>
<mask id="mask2_764_3606" style="mask-type:luminance" maskUnits="userSpaceOnUse" x="0" y="0" width="600" height="450">
<path d="M0 0H600V450H0V0Z" fill="white"/>
</mask>
<g mask="url(#mask2_764_3606)">
<path d="M0 0H599.776V450H0V0Z" fill="#FFD100"/>
</g>
<mask id="mask3_764_3606" style="mask-type:luminance" maskUnits="userSpaceOnUse" x="0" y="0" width="300" height="450">
<path d="M0 0H300V450H0V0Z" fill="white"/>
</mask>
<g mask="url(#mask3_764_3606)">
<path d="M0 0H298.893V450H0V0Z" fill="#003DA5"/>
</g>
<path d="M423.885 91.4844C422.276 91.4844 420.87 91.8958 420.047 92.5313C421.354 92.9115 422.297 94.1146 422.297 95.5729V99.2813H418.594C417.141 99.2813 415.938 98.349 415.552 97.0573C414.911 97.875 414.505 99.2813 414.505 100.891C414.505 102.5 414.911 103.906 415.552 104.724C415.932 103.422 417.13 102.474 418.594 102.474H422.297V120.286C422.297 121.688 421.422 122.849 420.203 123.281C421.969 123.521 423.495 125.891 423.911 127.188C424.328 125.896 425.849 123.521 427.615 123.281C426.979 123.063 426.464 122.677 426.073 122.125C425.682 121.578 425.49 120.964 425.495 120.286V102.474H429.198C430.651 102.474 431.854 103.406 432.24 104.698C432.88 103.88 433.292 102.474 433.292 100.865C433.292 99.2552 432.88 97.849 432.24 97.0313C431.859 98.3333 430.661 99.2813 429.198 99.2813H425.495V95.5729C425.495 94.1198 426.427 92.9219 427.719 92.5313C426.901 91.8958 425.495 91.4844 423.885 91.4844Z" fill="black"/>
<path d="M423.885 92.2552C423.047 92.2552 422.307 92.4115 421.688 92.6094C422.516 93.3333 423.068 94.3802 423.068 95.5781V99.2813C423.068 99.3333 423.052 99.3854 423.042 99.4375V100.021H422.453C422.401 100.031 422.349 100.047 422.297 100.047H418.594C417.411 100.047 416.375 99.5104 415.656 98.6927C415.448 99.3229 415.271 100.042 415.271 100.891C415.271 101.729 415.427 102.469 415.63 103.089C416.349 102.26 417.396 101.714 418.594 101.714H423.068C423.063 101.786 423.042 101.865 423.042 101.943V102.323C423.052 102.375 423.063 102.422 423.068 102.479V120.292C423.068 121.448 422.469 122.359 421.688 123.078C422.24 123.422 422.724 123.849 423.141 124.354C423.51 124.797 423.656 125.229 423.906 125.682C424.161 125.229 424.307 124.797 424.677 124.354C425.083 123.859 425.563 123.443 426.109 123.104C425.318 122.385 424.724 121.453 424.724 120.292V101.734H425.339C425.391 101.724 425.443 101.708 425.495 101.708H429.198C430.38 101.708 431.417 102.25 432.135 103.063C432.344 102.438 432.521 101.719 432.521 100.865C432.521 100.031 432.365 99.2917 432.161 98.6667C431.443 99.5 430.396 100.047 429.198 100.047H425.495C425.443 100.047 425.391 100.031 425.339 100.021H424.75V99.4323C424.74 99.3854 424.724 99.3333 424.724 99.2813V95.5729C424.724 94.3958 425.266 93.3594 426.078 92.6354C425.453 92.4271 424.734 92.2552 423.88 92.2552" fill="#FFD100"/>
<path d="M470.276 156.76C468.01 155.151 466.151 153.333 464.828 151.214C461.651 146.109 460.307 139.844 460.307 133.479C460.307 130.786 463.323 127.755 463.323 125.578C463.323 122.286 463.016 120.313 463.016 120.313C464.083 120.458 465.953 122.359 465.953 122.359C465.953 122.359 465.891 116.896 464.167 115.943C464.167 115.943 464.865 115.224 467.385 115.151C466.677 113.354 463.167 111.167 463.167 111.167C463.344 110.849 463.667 110.578 464.089 110.349C464.969 109.859 466.208 109.536 467.156 109.349C466.146 109.141 464.984 108.818 463.703 108.406C460.786 107.453 457.354 106.057 454.146 104.521C448.286 101.708 443.828 101.531 441.37 101.531C439.583 101.531 436.953 101.578 435.411 102.604C434 103.542 434.115 104.755 433.625 105.182C432.458 106.193 430.469 106.156 429.51 106.156C423.297 106.156 423.068 112.802 423.068 112.802C423.068 112.802 424.656 110.396 427.464 110.396C432.13 110.396 435.667 112.943 435.667 113.901C435.667 114.286 435.188 114.359 435.156 114.359C432.109 114.359 427.505 112.604 425.063 112.521V113.719C430.516 115.62 436.052 118.307 436.052 130.156C436.052 137.615 435.156 145.229 431.427 151.214C430.104 153.333 428.219 155.151 425.953 156.76L448.115 160.755L470.276 156.76Z" fill="black"/>
<path d="M448.115 151.771L425.953 156.76C424.948 156.458 420.208 154.984 416.88 153.13C411.026 149.87 407.99 146.625 401.036 146.307V141.016C401.036 138.193 402.057 135.646 402.057 132.943C399.125 132.156 390.984 122.203 383.474 117.786C372.427 124.943 363.875 136.688 363.875 142.089C363.875 142.089 364.203 258.172 363.875 298.615C363.875 300.943 362.469 304.24 362.469 304.24C366.5 302.531 373.896 292.417 375.453 288.568V290.411C381.542 287.63 386.005 280.333 388 276.557C388.036 277.104 388.13 278.474 388.13 278.474C393.573 273.703 400.5 245.505 400.5 245.505L412.042 256.849C412.042 256.849 407.87 265.323 406.24 266.844C406.24 266.844 407.333 266.979 408.568 266.969C407.807 268.063 402.005 276.417 400.182 279.568C398.484 282.521 397.281 281.208 394.661 281.208C392.495 281.208 387.573 284.661 386.766 286.063C385.917 287.531 385.286 289.318 385.286 290.792C385.286 292.406 386.995 294.625 386.995 294.625C387.182 293.849 387.505 293.578 387.505 293.578C387.505 293.578 392.005 299.182 392.672 299.917C393.188 300.484 395.49 300.854 396.302 300.12C398.328 298.276 400.297 296.984 402.104 294.318C403.031 292.943 403.104 291.37 404.172 289.896C407.75 284.964 414.865 275.516 416.49 273.359C416.599 273.964 416.693 274.464 416.797 275.073C418.641 271.349 427.505 264.234 427.505 264.234L436.781 268.505C436.781 268.505 419.464 308.313 404.094 314.432C404.094 314.432 410.781 317.276 418.995 321.542C420.224 322.182 421.453 322.839 422.672 323.505C423.771 322.182 424.839 320.823 425.87 319.443C430.776 312.875 435.583 305.26 435.583 305.26C435.917 307.234 433.323 313.344 428.938 320.875C428.073 322.354 427.172 323.901 426.177 325.474C427.292 326.109 428.396 326.76 429.5 327.417C437.635 332.313 445.276 337.943 448.104 343.109L450.099 338.115L448.104 333.115V158.396L449.104 155.901L448.115 151.771Z" fill="black"/>
<path d="M448.104 333.115C445.234 330.005 439.234 326.198 432.49 322.688C440.641 308.052 444.682 284.917 442.786 280.313C442.786 280.313 439.443 292.313 435.349 299.151C431.562 305.479 426.901 312.604 422.391 317.885C418.682 316.302 415.089 314.974 412.016 314.052C425.526 303.646 439.339 269.245 439.339 269.245L425.052 262.625C425.052 262.625 419.708 268.854 417.974 270.01C417.974 270.01 417.229 266.911 416.797 265.818C416.797 265.818 414.75 267.37 413.63 267.406C413.63 267.406 413.292 265.302 413.042 263.927C411.63 264.87 409.281 264.672 409.281 264.672C411.344 263.693 413.781 257.719 413.781 257.719L400.141 239.573C400.141 239.573 395.349 262.599 389.891 267.328V168.188L394.214 172.198L400.755 166.089V161.438L394.953 166.859V152.828C395.625 151.818 396.255 150.786 396.844 149.734C397.781 151.37 400.818 156.385 404.385 159.469C404.969 157.083 408.833 154.818 408.833 154.818C408.833 154.818 410.214 158.568 412.333 159.495C413.078 158.182 417.521 155.281 417.521 155.281C417.521 155.281 413.719 155.859 412.177 157.297C410.854 157.005 410.516 151.776 410.516 151.776C410.516 151.776 404.922 154.505 403.948 156.453C402.88 156.167 401.219 151.969 400.573 150.245C401.958 150.089 403.349 150.016 404.74 150.016C406.339 150.016 408.38 150.771 410.516 151.776C412.865 152.885 415.323 154.286 417.521 155.281C420.333 156.552 424.589 156.813 425.828 156.865C424.406 157.865 422.844 158.776 421.151 159.625C421.151 159.625 427.844 159.563 432.547 157.224C434.229 156.141 435.969 155.068 437.458 153.797C436.812 155.589 435.807 157.708 434.234 159.521C441.141 158.938 444.583 154.995 445.557 153.672C446.016 154.854 446.833 156.76 448.115 158.396H450.609V328.146L448.104 333.115ZM397.203 133.453L397.328 136.62V145.948C394.823 145.089 391.672 140.969 390.146 138.792V137.516C390.146 136.313 390.854 135.438 391.375 134.958L389.865 134.422C389.292 135.078 388.667 136.052 388.667 137.313V138.052L384.167 142.885L379.745 136.188V134.552C379.745 133.448 380.594 132.219 381.307 131.38L379.823 130.844C379.073 131.818 378.286 133.12 378.286 134.349V135.677C376.594 137.422 374.901 139.172 373.203 140.917L370.62 135.37C373.719 131.078 378.745 126.271 383.479 122.828C383.479 122.828 393.745 132.25 397.203 133.453ZM371.182 142.5V150.193L367.604 153.516V142.089C367.604 140.995 368.062 139.677 368.828 138.229L371.182 142.5Z" fill="#AD7C59"/>
<path d="M382.323 145.464V150.219L378.208 154.078V139.203L382.323 145.464ZM376.75 154.052L372.635 150.219V144.646L376.75 140.328V154.052ZM395.536 148.276C394.583 149.625 392.078 152.927 389.38 154.385V141.323C390 142.354 392.839 146.953 395.536 148.276ZM387.922 141.99V154.052L383.802 150.219V145.948L387.922 141.99ZM371.182 154.844V166.88L367.599 163.536V158.193L371.182 154.844ZM376.75 158.703V163.021L372.63 166.854V154.87L376.75 158.703ZM382.318 154.87V166.859L378.203 163V158.729L382.318 154.87ZM387.917 158.729V163L383.802 166.859V154.87L387.917 158.729ZM393.49 166.88L389.375 163.021V159.01C390.792 158.146 392.219 156.552 393.49 154.87V166.88ZM383.063 172.198L387.406 168.161V267.328C387.406 267.328 387.708 272.25 387.917 275.458L378.719 284.76V168.135L383.063 172.198ZM376.234 281.052C376.234 284.24 370.417 291.672 367.599 293.375V168.188L371.891 172.198L376.234 168.161V281.052Z" fill="#AD7C59"/>
<path d="M412.323 270.292L415.495 268.12C415.495 268.12 415.703 269.167 415.979 270.599C414.62 272.458 406.828 283.094 402.969 288.286C402.01 289.578 401.203 292.859 401.203 292.859C401.203 292.859 399.797 292.198 399.797 290.995C399.797 289.818 399.953 288.417 399.953 288.417C399.953 288.417 398.906 289.615 397.089 289.615C397.089 288.167 399.891 286.594 400.005 284.531C397.865 286.115 396.01 285.302 393.536 286.063C390.844 286.896 390.094 288.026 389.271 287.979C388.781 287.953 388.344 287.115 388.526 286.599C388.849 285.708 392.182 283.24 394.51 282.792C395.068 282.688 399.453 283.75 400.339 282.385C403.979 276.766 409.885 267.646 410.458 266.771C410.833 266.677 411.177 266.583 411.453 266.411C411.453 266.411 411.422 269.281 412.323 270.292Z" fill="#C8102E"/>
<path d="M391.948 287.802C392.12 288.005 392.104 288.302 391.922 288.464L390.49 289.714C390.302 289.875 390 289.844 389.823 289.641C389.646 289.438 389.661 289.135 389.849 288.974L391.281 287.724C391.375 287.641 391.49 287.604 391.615 287.62C391.734 287.635 391.859 287.698 391.948 287.802ZM394.12 289.307C394.547 289.802 394.521 290.5 394.068 290.891L390.589 293.932C390.141 294.328 389.411 294.25 388.979 293.755C388.552 293.26 388.578 292.536 389.031 292.146L392.505 289.13C392.687 288.979 392.891 288.896 393.12 288.875C393.479 288.844 393.849 289 394.12 289.307ZM396.109 291.661C396.536 292.151 396.51 292.849 396.057 293.245L392.557 296.286C392.104 296.677 391.401 296.599 390.974 296.104C390.547 295.615 390.573 294.891 391.026 294.495L394.5 291.479C394.667 291.333 394.865 291.245 395.089 291.224C395.443 291.198 395.844 291.349 396.109 291.661ZM397.312 293.526C397.714 293.49 398.047 293.625 398.307 293.932C398.734 294.427 398.708 295.151 398.255 295.542L394.781 298.563C394.328 298.953 393.625 298.875 393.193 298.38C392.766 297.885 392.771 297.188 393.219 296.797L396.724 293.755C396.891 293.609 397.099 293.542 397.312 293.526Z" fill="#C8102E"/>
<path d="M448.094 151.771L470.25 156.76C471.26 156.458 476 154.984 479.323 153.13C485.177 149.87 488.214 146.625 495.172 146.307V141.016C495.172 138.193 494.146 135.646 494.146 132.943C497.078 132.156 505.219 122.203 512.729 117.786C523.776 124.943 532.333 136.688 532.333 142.089C532.333 142.089 532 258.172 532.333 298.615C532.333 300.943 533.74 304.24 533.74 304.24C529.703 302.531 522.312 292.417 520.755 288.568V290.411C514.661 287.63 510.203 280.333 508.203 276.557C508.172 277.104 508.078 278.474 508.078 278.474C502.635 273.703 495.708 245.505 495.708 245.505L484.161 256.849C484.161 256.849 488.339 265.323 489.964 266.844C489.964 266.844 488.875 266.979 487.641 266.969C488.396 268.063 494.203 276.417 496.021 279.568C497.724 282.521 498.927 281.208 501.542 281.208C503.714 281.208 508.63 284.661 509.437 286.063C510.286 287.531 510.922 289.318 510.922 290.792C510.922 292.406 509.208 294.625 509.208 294.625C509.026 293.849 508.698 293.578 508.698 293.578C508.698 293.578 504.198 299.182 503.536 299.917C503.021 300.484 500.719 300.854 499.906 300.12C497.875 298.276 495.911 296.984 494.104 294.318C493.172 292.943 493.104 291.37 492.031 289.896C488.458 284.964 481.344 275.516 479.714 273.359C479.604 273.964 479.51 274.464 479.411 275.073C477.562 271.349 468.698 264.234 468.698 264.234L459.422 268.505C459.422 268.505 476.74 308.313 492.115 314.432C492.115 314.432 485.427 317.276 477.214 321.542C475.979 322.182 474.755 322.839 473.531 323.505C472.432 322.182 471.37 320.823 470.339 319.443C465.427 312.875 460.625 305.26 460.625 305.26C460.292 307.234 462.885 313.344 467.271 320.875C468.13 322.354 469.031 323.901 470.031 325.474C468.917 326.109 467.807 326.76 466.708 327.417C458.573 332.313 450.932 337.943 448.104 343.109L446.104 338.115L448.104 333.115V158.396L447.104 155.901L448.094 151.771Z" fill="black"/>
<path d="M448.104 333.115C450.974 330.005 456.974 326.198 463.719 322.688C455.563 308.052 451.521 284.917 453.417 280.313C453.417 280.313 456.766 292.313 460.854 299.151C464.646 305.479 469.307 312.604 473.813 317.885C477.521 316.302 481.12 314.974 484.193 314.052C470.682 303.646 456.87 269.245 456.87 269.245L471.151 262.625C471.151 262.625 476.495 268.854 478.234 270.01C478.234 270.01 478.974 266.911 479.406 265.818C479.406 265.818 481.458 267.37 482.578 267.406C482.578 267.406 482.911 265.302 483.167 263.927C484.573 264.87 486.922 264.672 486.922 264.672C484.859 263.693 482.422 257.719 482.422 257.719L496.063 239.573C496.063 239.573 500.854 262.599 506.313 267.328V168.188L501.995 172.198L495.453 166.089V161.438L501.25 166.859V152.828C500.583 151.818 499.953 150.786 499.359 149.734C498.422 151.37 495.385 156.385 491.823 159.469C491.234 157.083 487.375 154.818 487.375 154.818C487.375 154.818 485.99 158.568 483.875 159.495C483.13 158.182 478.682 155.281 478.682 155.281C478.682 155.281 482.484 155.859 484.026 157.297C485.349 157.005 485.688 151.776 485.688 151.776C485.688 151.776 491.281 154.505 492.255 156.453C493.323 156.167 494.984 151.969 495.63 150.245C494.245 150.089 492.859 150.016 491.464 150.016C489.87 150.016 487.828 150.771 485.688 151.776C483.339 152.885 480.88 154.286 478.688 155.281C475.875 156.552 471.62 156.813 470.38 156.865C471.797 157.865 473.359 158.776 475.057 159.625C475.057 159.625 468.359 159.563 463.656 157.224C461.979 156.141 460.234 155.068 458.75 153.797C459.396 155.589 460.401 157.708 461.969 159.521C455.063 158.938 451.625 154.995 450.646 153.672C450.188 154.854 449.375 156.76 448.094 158.396H445.594V328.146L448.104 333.115ZM499.005 133.453L498.875 136.62V145.948C501.38 145.089 504.531 140.969 506.057 138.792V137.516C506.057 136.313 505.349 135.438 504.833 134.958L506.339 134.422C506.917 135.078 507.542 136.052 507.542 137.313V138.052L512.036 142.885L516.458 136.188V134.552C516.458 133.448 515.609 132.219 514.901 131.38L516.385 130.844C517.13 131.818 517.917 133.12 517.917 134.349V135.677C519.609 137.422 521.307 139.172 523.005 140.917L525.583 135.37C522.484 131.078 517.464 126.271 512.729 122.828C512.729 122.828 502.464 132.25 499.005 133.453ZM525.026 142.5V150.193L528.604 153.516V142.089C528.604 140.995 528.146 139.677 527.375 138.229L525.026 142.5Z" fill="#AD7C59"/>
<path d="M513.88 145.464V150.219L517.995 154.078V139.203L513.88 145.464ZM519.453 154.052L523.568 150.219V144.646L519.453 140.328V154.052ZM500.667 148.276C501.625 149.625 504.125 152.927 506.828 154.385V141.323C506.208 142.354 503.365 146.953 500.667 148.276ZM508.286 141.99V154.052L512.401 150.219V145.948L508.286 141.99ZM525.026 154.844V166.88L528.604 163.536V158.193L525.026 154.844ZM519.458 158.703V163.021L523.573 166.854V154.87L519.458 158.703ZM513.885 154.87V166.859L518 163V158.729L513.885 154.87ZM508.286 158.729V163L512.401 166.859V154.87L508.286 158.729ZM502.719 166.88L506.833 163.021V159.01C505.411 158.146 503.984 156.552 502.719 154.87V166.88ZM513.146 172.198L508.797 168.161V267.328C508.797 267.328 508.495 272.25 508.286 275.458L517.49 284.76V168.135L513.146 172.198ZM519.969 281.052C519.969 284.24 525.792 291.672 528.609 293.375V168.188L524.312 172.198L519.969 168.161V281.052Z" fill="#AD7C59"/>
<path d="M483.88 270.292L480.714 268.12C480.714 268.12 480.5 269.167 480.229 270.599C481.583 272.458 489.38 283.094 493.234 288.286C494.198 289.578 495 292.859 495 292.859C495 292.859 496.406 292.198 496.406 290.995C496.406 289.818 496.25 288.417 496.25 288.417C496.25 288.417 497.302 289.615 499.115 289.615C499.115 288.167 496.312 286.594 496.203 284.531C498.339 286.115 500.198 285.302 502.667 286.063C505.359 286.896 506.109 288.026 506.937 287.979C507.422 287.953 507.865 287.115 507.677 286.599C507.354 285.708 504.026 283.24 501.698 282.792C501.141 282.688 496.755 283.75 495.87 282.385C492.229 276.766 486.318 267.646 485.75 266.771C485.375 266.677 485.026 266.583 484.75 266.411C484.75 266.411 484.786 269.281 483.88 270.292Z" fill="#C8102E"/>
<path d="M504.26 287.802C504.083 288.005 504.099 288.302 504.286 288.464L505.719 289.714C505.906 289.875 506.203 289.844 506.38 289.641C506.557 289.438 506.542 289.135 506.354 288.974L504.922 287.724C504.828 287.641 504.719 287.604 504.594 287.62C504.474 287.635 504.349 287.698 504.26 287.802ZM502.089 289.307C501.661 289.802 501.687 290.5 502.141 290.891L505.615 293.932C506.068 294.328 506.797 294.25 507.224 293.755C507.651 293.26 507.625 292.536 507.172 292.146L503.698 289.13C503.521 288.979 503.318 288.896 503.083 288.875C502.729 288.844 502.354 289 502.089 289.307ZM500.094 291.661C499.667 292.151 499.693 292.849 500.146 293.245L503.646 296.286C504.099 296.677 504.802 296.599 505.234 296.104C505.661 295.615 505.635 294.891 505.182 294.495L501.703 291.479C501.536 291.333 501.344 291.245 501.12 291.224C500.76 291.198 500.365 291.349 500.094 291.661ZM498.896 293.526C498.495 293.49 498.161 293.625 497.901 293.932C497.469 294.427 497.5 295.151 497.948 295.542L501.427 298.563C501.88 298.953 502.583 298.875 503.01 298.38C503.437 297.885 503.437 297.188 502.984 296.797L499.484 293.755C499.312 293.609 499.109 293.542 498.896 293.526Z" fill="#C8102E"/>
<path d="M442.979 103.167C448.698 103.167 452.724 105.776 458.135 108.177C459.552 108.802 460.854 109.312 462.016 109.708C461.292 110.354 460.724 111 460.563 111.547C460.563 111.547 462.99 112 464.089 114.026C464.089 114.026 461.781 114.292 461.406 115.641C462.698 115.734 463.979 117.365 463.984 118.937L460.714 117.911C460.714 117.911 461.505 121.589 461.505 125.578C461.505 127.62 458.568 130.021 458.568 133.479C458.568 144.328 461.302 148.5 463.245 151.854C464.005 153.167 464.625 154.677 465.906 155.818C460.302 152.833 456.141 149.104 456.141 145.646V132.531H454.682V145.646C454.682 148.156 455.297 149.323 455.297 149.323C456.177 152.104 457.953 156.391 459.052 158.115C453.901 155.333 451.281 151.844 451.281 150.552V132.531H449.828V150.807L450.109 152.057C449.484 152.995 448.672 154.109 448.115 154.484C447.557 154.109 446.771 152.995 446.146 152.057L446.427 150.807V132.531H444.969V150.552C444.969 151.844 442.354 155.333 437.198 158.115C438.302 156.391 440.078 152.104 440.958 149.323C440.958 149.323 441.573 148.156 441.573 145.646V132.531H440.115V145.646C440.115 149.104 435.969 152.839 430.375 155.818C431.641 154.677 432.25 153.161 433.005 151.854C435.135 148.187 437.76 143.526 437.76 130.255C437.76 125.276 437.026 121.891 435.745 119.521C435.354 118.74 434.828 116.661 437.813 116.661C439.359 116.661 442.901 119.396 442.901 119.396C442.901 119.396 442.755 117.214 440.958 115.969C440.656 115.766 440.167 115.115 440.167 114.51C440.167 114.062 440.938 112.948 441.542 112.672C441.958 112.484 435.464 111.349 435.464 108.406C435.464 107.792 435.849 107.38 437.198 107.38C438.969 107.38 441.849 109.505 444.406 109.505C446.297 109.505 447.047 109.042 448.979 109.042C451.349 109.042 456.286 113.526 457.979 113.365C456.089 112.177 453.036 107.687 448.422 107.687C446.818 107.687 445.365 108.047 443.87 108.047C441.953 108.047 440.062 106.281 437.99 106.281C436.604 106.281 435.052 106.359 434.823 106C434.417 105.375 434.781 105.01 435.151 104.495C435.859 103.516 437.833 103.234 439.781 103.167C440.349 103.146 440.922 103.135 441.495 103.141C442.036 103.146 442.542 103.167 442.979 103.167Z" fill="#AD7C59"/>
<path d="M424.401 110.182C424.401 110.182 425.609 107.896 428.661 107.896C429.937 107.896 434.151 107.807 434.151 107.807C434.714 109.266 437.271 111.703 437.271 114.234C437.271 114.234 434.672 109.552 427.422 109.552C425.604 109.552 424.401 110.182 424.401 110.182ZM436.193 115.13C436.193 115.13 434.646 116.755 434.312 117.625C432.781 117.047 430.12 114.297 430.12 114.297C430.12 114.297 432.375 115.62 436.187 115.13H436.193Z" fill="#C8102E"/>
<path d="M433.745 110.823C433.745 110.823 431.964 110.25 431.964 109.651C431.964 108.891 432.828 108.891 433.344 109.484C433.703 109.891 433.745 110.823 433.745 110.823Z" fill="black"/>
<path d="M445.734 111.797C445.734 112.167 445.641 112.526 445.453 112.865C445.266 113.208 445 113.51 444.656 113.771C444.312 114.036 443.911 114.24 443.458 114.38C443.01 114.521 442.542 114.594 442.052 114.594C441.562 114.594 441.094 114.521 440.646 114.38C440.193 114.24 439.797 114.036 439.448 113.771C439.104 113.51 438.839 113.208 438.651 112.865C438.464 112.526 438.37 112.167 438.37 111.797C438.37 111.427 438.464 111.073 438.651 110.729C438.839 110.385 439.104 110.083 439.448 109.823C439.797 109.563 440.193 109.359 440.646 109.219C441.094 109.073 441.562 109.005 442.052 109.005C442.542 109.005 443.01 109.073 443.458 109.219C443.911 109.359 444.312 109.563 444.656 109.823C445 110.083 445.266 110.385 445.453 110.729C445.641 111.073 445.734 111.427 445.734 111.797Z" fill="black"/>
<path d="M444.604 111.797C444.604 112.135 444.542 112.464 444.411 112.776C444.281 113.089 444.094 113.365 443.854 113.604C443.615 113.844 443.339 114.031 443.026 114.161C442.714 114.292 442.385 114.354 442.047 114.354C441.708 114.354 441.385 114.292 441.068 114.161C440.755 114.031 440.479 113.844 440.24 113.604C440 113.365 439.818 113.089 439.688 112.776C439.557 112.464 439.49 112.135 439.49 111.797C439.49 111.458 439.557 111.13 439.688 110.818C439.818 110.505 440 110.229 440.24 109.99C440.479 109.75 440.755 109.568 441.068 109.438C441.385 109.307 441.708 109.24 442.047 109.24C442.385 109.24 442.714 109.307 443.026 109.438C443.339 109.568 443.615 109.75 443.854 109.99C444.094 110.229 444.281 110.505 444.411 110.818C444.542 111.13 444.604 111.458 444.604 111.797Z" fill="#FFD100"/>
<path d="M443.219 111.797C443.219 112.12 443.104 112.396 442.875 112.625C442.651 112.854 442.375 112.969 442.047 112.969C441.724 112.969 441.448 112.854 441.219 112.625C440.995 112.396 440.88 112.12 440.88 111.797C440.88 111.474 440.995 111.198 441.219 110.969C441.448 110.74 441.724 110.625 442.047 110.625C442.375 110.625 442.651 110.74 442.875 110.969C443.104 111.198 443.219 111.474 443.219 111.797Z" fill="black"/>
<path d="M400.76 295.536L408.849 299.953L406.885 308.953L398.797 304.536L400.76 295.536Z" fill="black"/>
<path d="M363.078 209.057L360.167 210.385L393.083 282.49H396.589L363.078 209.057ZM401.901 294.089L399.526 296.542L401.01 299.813L403.896 298.484L401.901 294.089Z" fill="black"/>
<path d="M373.307 265.906C373.307 265.906 376.083 271.635 378.188 272.417C377.099 272.12 373.563 273.422 373.563 273.422C373.563 273.422 379.802 278.995 385.094 279.359C389.583 279.672 391.76 277.427 391.76 277.427L390.859 272.677C390.859 272.677 388.115 269.359 383.719 267.828C379.281 266.281 373.307 265.906 373.307 265.906ZM394.214 255.646C394.214 255.646 390.385 258.922 389.333 262.719C388.286 266.516 390.021 270.833 390.021 270.833L393.234 276.833C393.234 276.833 397.693 274.458 399.594 270.911C401.49 267.365 400.792 262.573 400.792 262.573C400.792 262.573 397.26 263.891 396.813 264.474C397.557 260.536 394.214 255.646 394.214 255.646ZM381.906 254.115C381.906 254.115 377.552 255.583 373.323 255.328C369.297 255.089 365.943 251.703 365.943 251.703C365.943 251.703 369.286 249.448 370.932 249.745C369.12 249.083 366.49 244.542 366.49 244.542C366.49 244.542 370.224 243.411 373.536 244.661C376.849 245.911 379.74 249.542 379.74 249.542L381.906 254.115ZM383.401 232.844C383.401 232.844 385.583 237.354 385.068 238.922C385.74 237.88 388.297 236.255 388.297 236.255C388.297 236.255 389.844 243.552 388.365 248.063C386.885 252.573 382.385 254.292 382.385 254.292L377.422 244.635C377.422 244.635 376.682 241.057 378.229 238.224C379.781 235.396 383.401 232.844 383.401 232.844ZM355.073 220.906C355.073 220.906 359.776 220.411 364.083 222.198C367.682 223.693 368.786 226.406 368.786 226.406L370.557 231.161C370.557 231.161 365.438 233.083 361.391 231.615C357.339 230.141 354.365 225.281 354.365 225.281C354.365 225.281 357.193 224.208 358.271 224.609C356.703 223.917 355.073 220.906 355.073 220.906ZM369.875 212.083C369.875 212.083 371.938 214.74 372 217.792C372.552 216.167 375.13 214.375 375.13 214.375C375.13 214.375 377.781 220.792 377.198 225.349C376.62 229.906 372.802 232.604 372.802 232.604L368.042 223.568C368.042 223.568 366.495 219.87 366.948 216.995C367.406 214.125 369.875 212.083 369.875 212.083ZM353.573 194.812C353.573 194.812 352.719 199.729 354.172 202.563C355.469 205.094 356.297 205.646 356.297 205.646C353.823 204.016 350.083 203.875 350.083 203.875C350.083 203.875 351.411 209.229 354.594 211.672C357.776 214.109 362.677 213.542 362.677 213.542C362.677 213.542 365.906 209.25 365.677 204.62C365.453 199.995 361.781 195.036 361.781 195.036C361.781 195.036 360.333 198.042 360.203 200.286C359.266 197.974 353.573 194.812 353.573 194.812ZM392.016 277.224L392.146 278.99C395.083 279.016 395.516 278.724 396.271 279.651C396.771 280.266 397.964 280.802 399.161 280.255C400.359 279.708 400.896 278.271 400.349 277.073C399.802 275.875 398.688 275.615 397.615 275.828C396.953 275.958 396.521 276.484 395.964 276.771C394.901 277.323 392.016 277.224 392.016 277.224Z" fill="black"/>
<path d="M391.76 275.875L393.187 276.922C391.656 279.427 391.177 279.641 391.568 280.771C391.823 281.521 391.651 282.813 390.552 283.542C389.453 284.266 387.948 283.964 387.219 282.865C386.495 281.766 386.865 280.682 387.609 279.885C388.068 279.396 388.745 279.307 389.286 278.984C390.312 278.375 391.76 275.875 391.76 275.875ZM381.828 254.906L381.958 256.672C384.891 256.698 385.328 256.406 386.078 257.333C386.578 257.948 387.771 258.484 388.969 257.938C390.167 257.391 390.703 255.953 390.156 254.755C389.609 253.557 388.495 253.297 387.422 253.51C386.766 253.641 386.333 254.167 385.776 254.453C384.708 255.005 381.823 254.906 381.823 254.906H381.828Z" fill="black"/>
<path d="M382.422 255.531L383.667 256.786C381.766 259.021 381.26 259.161 381.464 260.333C381.604 261.115 381.229 262.37 380.031 262.917C378.833 263.464 377.396 262.927 376.849 261.729C376.302 260.531 376.833 259.521 377.698 258.849C378.229 258.438 378.906 258.453 379.49 258.219C380.604 257.776 382.422 255.531 382.422 255.531ZM371.953 234.016L372.083 235.781C375.016 235.807 375.453 235.516 376.203 236.438C376.708 237.052 377.896 237.594 379.094 237.047C380.292 236.5 380.828 235.063 380.281 233.859C379.734 232.661 378.62 232.406 377.547 232.615C376.891 232.745 376.458 233.271 375.896 233.563C374.833 234.109 371.948 234.01 371.948 234.01L371.953 234.016Z" fill="black"/>
<path d="M372.766 233.646L374.01 234.901C372.109 237.135 371.604 237.276 371.807 238.448C371.948 239.229 371.573 240.479 370.375 241.026C369.177 241.573 367.74 241.036 367.193 239.839C366.646 238.641 367.177 237.63 368.042 236.958C368.573 236.547 369.25 236.563 369.833 236.328C370.948 235.885 372.766 233.646 372.766 233.646ZM361.432 211.958L361.562 213.724C364.495 213.75 364.932 213.458 365.682 214.38C366.187 214.995 367.375 215.536 368.573 214.99C369.771 214.443 370.307 213.005 369.76 211.807C369.219 210.604 368.104 210.349 367.031 210.557C366.37 210.688 365.937 211.214 365.38 211.505C364.318 212.052 361.432 211.958 361.432 211.958Z" fill="black"/>
<path d="M362.245 211.589L363.49 212.844C361.589 215.078 361.083 215.214 361.292 216.391C361.427 217.172 361.052 218.422 359.854 218.969C358.656 219.516 357.219 218.979 356.672 217.781C356.125 216.583 356.661 215.573 357.521 214.901C358.052 214.49 358.734 214.505 359.318 214.271C360.427 213.828 362.245 211.589 362.245 211.589Z" fill="black"/>
<path d="M401.927 298.089L406.943 300.828L405.724 306.411L400.708 303.672L401.927 298.089ZM379.964 249.677C378.911 250.109 377.354 245.531 376.208 243.026C375.031 240.453 372.646 236.484 373.323 236.177C374.068 235.839 375.047 237.922 376.25 240.552C377.453 243.188 380.948 249.266 379.964 249.672V249.677ZM369.167 225.568C368.115 226.005 366.964 223.005 365.818 220.5C364.646 217.927 363.5 216.109 364.177 215.797C364.922 215.458 366.021 217.714 366.979 219.818C367.911 221.859 370.151 225.156 369.167 225.568ZM394.146 280.229C393.323 280.453 389.719 272.911 386.807 266.531C383.896 260.151 381.724 254.984 382.401 254.677C383.146 254.339 385.505 260.365 388.417 266.745C391.333 273.13 394.766 280.063 394.146 280.229Z" fill="#FFD100"/>
<path d="M399.474 278.078C399.474 278.437 399.349 278.745 399.094 279C398.839 279.255 398.531 279.38 398.172 279.38C397.813 279.38 397.51 279.255 397.255 279C397 278.745 396.875 278.437 396.875 278.078C396.875 277.719 397 277.411 397.255 277.161C397.51 276.906 397.813 276.781 398.172 276.781C398.531 276.781 398.839 276.906 399.094 277.161C399.349 277.411 399.474 277.719 399.474 278.078Z" fill="#FFD100"/>
<path d="M390.526 281.547C390.526 281.906 390.401 282.214 390.146 282.469C389.891 282.724 389.583 282.849 389.224 282.849C388.865 282.849 388.557 282.724 388.307 282.469C388.052 282.214 387.922 281.906 387.922 281.547C387.922 281.188 388.052 280.885 388.307 280.63C388.557 280.375 388.865 280.25 389.224 280.25C389.583 280.25 389.891 280.375 390.146 280.63C390.401 280.885 390.526 281.188 390.526 281.547Z" fill="#FFD100"/>
<path d="M389.281 255.745C389.281 256.104 389.156 256.411 388.901 256.667C388.646 256.922 388.339 257.047 387.979 257.047C387.62 257.047 387.313 256.922 387.063 256.667C386.807 256.411 386.677 256.104 386.677 255.745C386.677 255.385 386.807 255.078 387.063 254.828C387.313 254.573 387.62 254.443 387.979 254.443C388.339 254.443 388.646 254.573 388.901 254.828C389.156 255.078 389.281 255.385 389.281 255.745Z" fill="#FFD100"/>
<path d="M380.328 260.734C380.328 261.094 380.203 261.401 379.948 261.656C379.693 261.906 379.385 262.036 379.026 262.036C378.667 262.036 378.359 261.906 378.109 261.656C377.854 261.401 377.724 261.094 377.724 260.734C377.724 260.375 377.854 260.068 378.109 259.812C378.359 259.557 378.667 259.432 379.026 259.432C379.385 259.432 379.693 259.557 379.948 259.812C380.203 260.068 380.328 260.375 380.328 260.734Z" fill="#FFD100"/>
<path d="M379.406 234.859C379.406 235.219 379.281 235.526 379.026 235.781C378.771 236.031 378.469 236.161 378.109 236.161C377.75 236.161 377.443 236.031 377.187 235.781C376.932 235.526 376.807 235.219 376.807 234.859C376.807 234.5 376.932 234.193 377.187 233.938C377.443 233.688 377.75 233.557 378.109 233.557C378.469 233.557 378.771 233.688 379.026 233.938C379.281 234.193 379.406 234.5 379.406 234.859Z" fill="#FFD100"/>
<path d="M370.672 238.849C370.672 239.208 370.547 239.516 370.292 239.766C370.036 240.021 369.729 240.146 369.37 240.146C369.01 240.146 368.703 240.021 368.448 239.766C368.198 239.516 368.068 239.208 368.068 238.849C368.068 238.49 368.198 238.182 368.448 237.927C368.703 237.672 369.01 237.547 369.37 237.547C369.729 237.547 370.036 237.672 370.292 237.927C370.547 238.182 370.672 238.49 370.672 238.849Z" fill="#FFD100"/>
<path d="M368.891 212.802C368.891 213.161 368.76 213.469 368.505 213.724C368.255 213.979 367.948 214.104 367.589 214.104C367.229 214.104 366.922 213.979 366.667 213.724C366.411 213.469 366.286 213.161 366.286 212.802C366.286 212.443 366.411 212.141 366.667 211.885C366.922 211.63 367.229 211.505 367.589 211.505C367.948 211.505 368.255 211.63 368.505 211.885C368.76 212.141 368.891 212.443 368.891 212.802Z" fill="#FFD100"/>
<path d="M360.151 216.792C360.151 217.151 360.026 217.458 359.771 217.708C359.521 217.964 359.214 218.094 358.854 218.094C358.495 218.094 358.188 217.964 357.932 217.708C357.677 217.458 357.552 217.151 357.552 216.792C357.552 216.432 357.677 216.125 357.932 215.87C358.188 215.615 358.495 215.49 358.854 215.49C359.214 215.49 359.521 215.615 359.771 215.87C360.026 216.125 360.151 216.432 360.151 216.792Z" fill="#FFD100"/>
<path d="M355.021 197.802C355.021 197.802 354.896 201.396 356.083 203.437C357.271 205.474 359.927 206.292 359.927 206.292C359.927 206.292 360.057 202.693 358.865 200.656C357.677 198.615 355.021 197.802 355.021 197.802ZM352.536 205.937C352.536 205.937 355.656 206.12 357.464 207.5C359.266 208.88 359.964 211.76 359.964 211.76C359.964 211.76 357.891 211.974 356.089 210.589C354.286 209.208 352.536 205.937 352.536 205.937ZM362.333 198.677C362.333 198.677 361.297 201.057 361.417 203.625C361.536 206.193 363.031 209.083 363.031 209.083C363.031 209.083 364.391 206 364.271 203.432C364.151 200.865 362.698 199.401 362.333 198.677ZM357.078 221.823C357.078 221.823 358.609 223.964 360.974 225.13C363.333 226.297 366.849 226.339 366.849 226.339C366.849 226.339 365.094 224.062 362.734 222.896C360.37 221.729 357.078 221.823 357.078 221.823ZM357.839 226.792C357.839 226.792 358.964 229 361.026 229.948C363.083 230.896 367.302 230.818 367.302 230.818C367.302 230.818 365.682 228.755 363.625 227.807C361.563 226.859 357.839 226.792 357.839 226.792ZM369.703 215.021C369.703 215.021 368.458 217.078 368.578 219.349C368.703 221.615 370.193 224.099 370.193 224.099C370.193 224.099 371.24 221.255 371.115 218.984C370.995 216.719 369.703 215.021 369.703 215.021ZM374.292 217.932C374.292 217.932 372.161 220.792 371.854 223.734C371.547 226.677 373.068 229.698 373.068 229.698C373.068 229.698 375.641 227.109 375.948 224.172C376.255 221.229 374.292 217.932 374.292 217.932ZM368.417 245.094C368.417 245.094 368.672 246.151 369.563 247.271C370.453 248.396 371.979 249.583 371.979 249.583C371.979 249.583 373.448 249.109 375.281 249.505C377.109 249.906 379.542 251.536 379.542 251.536C379.542 251.536 376.922 247.625 374.203 246.104C371.484 244.583 368.417 245.094 368.417 245.094ZM368.146 251.812C368.146 251.812 371.536 250.365 374.328 250.74C377.125 251.109 379.641 253.318 379.641 253.318C379.641 253.318 375.87 254.625 373.073 254.25C370.281 253.875 368.146 251.812 368.146 251.812ZM382.479 236.047C382.479 236.047 379.479 239.224 379.229 241.979C378.979 244.734 381.661 247.307 381.661 247.307C381.661 247.307 381.531 245.536 381.99 244.375C382.453 243.208 383.438 241.969 383.438 241.969C383.438 241.969 383.854 240.547 383.693 239.406C383.464 237.818 382.479 236.047 382.479 236.047ZM386.781 239.724C386.781 239.724 383.958 242.583 383.208 245.646C382.464 248.714 383.792 251.979 383.792 251.979C383.792 251.979 386.365 249.948 387.115 246.885C387.859 243.823 386.781 239.724 386.781 239.724ZM393.865 258.187C393.865 258.187 395.146 260.859 395.469 263.099C395.792 265.333 395.495 266.104 395.495 266.104C395.495 266.104 394.167 267.406 393.573 268.172C392.813 269.156 392.698 270.958 392.698 270.958C392.698 270.958 390.042 267.005 390.453 264.115C390.859 261.224 393.865 258.187 393.865 258.187ZM399.464 264.375C399.464 264.375 396.063 266.62 394.708 268.927C393.359 271.234 394.057 273.594 394.057 273.594C394.057 273.594 396.484 273.38 397.839 271.078C399.188 268.771 399.464 264.375 399.464 264.375ZM377.099 273.87C377.099 273.87 382.005 273.734 385 274.474C388 275.208 389.094 276.818 389.094 276.818C389.094 276.818 385.719 278.396 382.724 277.656C379.724 276.922 377.099 273.87 377.099 273.87ZM376.271 268.047C376.271 268.047 378.484 271.479 381.344 272.724C385.286 274.437 389.854 273.609 389.854 273.609C389.854 273.609 387.37 270.568 383.958 269.224C380.547 267.885 376.271 268.047 376.271 268.047Z" fill="#007749"/>
<path d="M544.229 200.677L544.87 202.031C544.87 202.031 543.833 202.385 543.359 203.307C542.891 204.229 543.667 205.531 543.667 205.531C543.667 205.531 538.276 205.057 537.432 205.609C536.667 206.104 537.755 209.839 537.255 212.995C536.552 217.391 534.818 217.021 534.75 217.875C534.677 218.703 535.411 219.995 535.411 219.995C535.411 219.995 534.401 220.313 534.187 220.74C533.839 221.417 534.427 222.672 534.005 223.5C531.661 228.104 528.193 234.901 525.906 239.396C525.583 240.021 524.724 240.26 524.292 241.109C523.896 241.891 524.219 243.026 524.219 243.026C524.219 243.026 522.698 243.115 522.172 244.151C521.615 245.25 521.943 246.729 521.943 246.729C521.943 246.729 520.984 246.854 520.51 247.781C520.005 248.766 520.859 249.286 520.641 249.724C517.562 255.766 513.932 262.885 511.719 267.229C510.906 268.828 508.057 269.146 506.401 272.391C504.797 275.542 507.094 277.859 507.094 277.859C507.094 277.859 504.708 278.078 504.078 279.318C503.432 280.583 503.943 282.505 505.661 283.38C507.38 284.26 509.26 283.547 509.906 282.281C510.536 281.042 509.266 278.984 509.266 278.984C509.266 278.984 512.495 279.453 514.094 276.302C515.75 273.057 514.354 270.589 515.172 268.995C517.385 264.651 521.01 257.526 524.089 251.484C524.312 251.052 525.224 251.427 525.724 250.438C526.198 249.51 525.724 248.672 525.724 248.672C525.724 248.672 527.135 248.063 527.693 246.964C528.219 245.927 527.411 244.635 527.411 244.635C527.411 244.635 528.521 244.24 528.922 243.458C529.349 242.615 529.036 241.786 529.354 241.161C531.646 236.661 535.109 229.865 537.458 225.26C537.88 224.438 539.234 224.151 539.578 223.474C539.792 223.052 539.453 222.042 539.453 222.042C539.453 222.042 540.943 221.896 541.573 221.349C542.219 220.792 540.906 219.594 544.052 216.443C546.307 214.182 549.953 212.854 549.906 211.948C549.854 210.943 546.302 206.859 546.302 206.859C546.302 206.859 547.797 206.734 548.271 205.813C548.74 204.891 548.422 203.818 548.422 203.818L549.906 203.563V196.531L544.229 200.677ZM495.234 298.568C494.974 299.089 494.974 299.604 495.234 300.125C495.234 300.125 493.448 299.568 492.833 299.87C492.255 300.156 492.833 308.583 492.833 308.583C492.833 308.583 499.969 304.083 499.859 303.448C499.745 302.771 498.25 301.635 498.25 301.635C498.828 301.542 499.281 301.177 499.505 300.74C499.74 300.276 499.771 298.958 498.146 298.13C497.542 297.823 497 297.729 496.562 297.776C495.839 297.849 495.38 298.276 495.234 298.568Z" fill="black"/>
<path d="M545.526 200.958L548.901 202.672L548.849 198.604L545.526 200.958ZM544.224 203.411C543.792 204.26 544.214 205.349 545.172 205.839C546.13 206.328 547.24 206.026 547.677 205.177C548.109 204.323 547.687 203.234 546.729 202.745C546.385 202.568 546.021 202.49 545.63 202.516C545.026 202.557 544.495 202.88 544.224 203.411ZM538.422 206.505C538.068 206.734 538.552 209.771 538.448 212.354C538.354 214.792 537.573 215.479 537.146 216.318C536.75 217.094 535.333 218.005 535.333 218.005L536.505 219.182C536.505 219.182 537.271 217.99 538.474 215.625C539.896 212.844 539.849 207.797 540.266 207.526C540.625 207.292 543.589 206.552 543.589 206.552C543.589 206.552 540.87 206.406 539.37 206.427C538.87 206.432 538.505 206.453 538.422 206.505Z" fill="#FFD100"/>
<path d="M538.734 220.536C538.734 220.536 539.125 219.443 540.495 216.755C542.151 213.51 545.677 211.156 545.76 210.568C545.849 209.964 544.536 207.12 544.536 207.12C544.536 207.12 541.422 207.714 540.979 208.141C540.557 208.552 540.745 212.766 539.089 216.01C537.719 218.703 537.047 219.693 537.047 219.693L538.734 220.536Z" fill="#FFD100"/>
<path d="M546.682 210.797C546.708 211.292 542.604 214.224 541.188 217.01C539.984 219.37 539.474 220.688 539.474 220.688L541.109 220.943C541.109 220.943 540.995 219.266 541.391 218.49C541.818 217.651 541.932 216.63 543.844 215.12C545.875 213.516 548.62 212.115 548.599 211.693C548.578 211.302 545.531 207.526 545.531 207.526C545.531 207.526 546.656 210.37 546.682 210.797ZM534.672 229.021C537.135 224.182 537.885 223.854 538.198 223.245C538.531 222.589 538.453 221.708 537.354 221.146C536.943 220.938 536.589 220.885 536.281 220.917C535.766 220.974 535.391 221.302 535.182 221.714C534.87 222.323 535.036 223.135 532.573 227.974L526.974 238.938C526.974 238.938 526.391 240.016 527.49 240.573C528.583 241.13 529.073 240.01 529.073 240.01L534.672 229.021ZM524.781 241.594C524.474 242.198 524.995 243.078 525.953 243.563C526.911 244.052 527.948 243.958 528.255 243.359C528.563 242.76 528.01 241.88 527.052 241.391C526.573 241.146 526.089 241.047 525.672 241.083C525.26 241.12 524.932 241.297 524.781 241.594ZM522.708 244.714C522.313 245.49 522.927 246.604 524.089 247.193C525.245 247.786 526.505 247.635 526.901 246.859C527.297 246.083 526.677 244.974 525.521 244.38C525.083 244.161 524.651 244.042 524.24 244.026C523.552 243.99 522.953 244.229 522.708 244.714ZM521.406 248.193C521.099 248.792 521.62 249.672 522.578 250.156C523.536 250.646 524.573 250.552 524.88 249.953C525.188 249.354 524.661 248.474 523.703 247.984C523.224 247.74 522.714 247.641 522.297 247.677C521.885 247.714 521.557 247.891 521.406 248.193ZM520.563 251.516C520.563 251.516 514.344 263.745 512.151 268.047C511.453 269.422 508.5 270.281 507.349 272.547C506.182 274.828 507.005 276.964 508.521 277.734C510.042 278.51 512.266 277.948 513.432 275.667C514.583 273.401 513.547 270.5 514.25 269.125C516.443 264.818 522.656 252.589 522.656 252.589C522.656 252.589 523.271 251.51 522.172 250.953C521.948 250.833 521.708 250.792 521.453 250.823C520.849 250.901 520.563 251.516 520.563 251.516ZM504.839 279.906C504.375 280.823 504.906 282.042 506.042 282.62C507.172 283.198 508.49 282.917 508.953 282.005C509.422 281.089 508.859 279.87 507.729 279.297C507.302 279.078 506.87 278.979 506.448 278.99C505.75 279.01 505.13 279.339 504.839 279.906ZM496.557 298.594C496.203 298.604 495.911 298.719 495.792 298.948C495.557 299.417 496.047 300.156 496.891 300.583C497.74 301.016 498.62 300.974 498.859 300.51C499.099 300.042 498.604 299.302 497.76 298.875C497.339 298.656 496.917 298.578 496.557 298.594ZM493.646 300.891V306.922L498.552 303.396C498.552 303.396 497.885 302.219 496.432 301.479C494.974 300.74 493.646 300.891 493.646 300.891Z" fill="#FFD100"/>
<path d="M496.75 166.552C496.75 163.245 501.099 159.984 501.099 159.984H395.13C395.13 159.984 399.474 163.245 399.474 166.552V245.427C399.474 247.505 400.12 248.859 401.135 250.182C402.156 251.604 404.328 253.573 406.583 255.036C413.542 259.557 425.177 264.323 433.979 268.328C441.318 271.667 444.302 273.01 448.115 277.734C451.927 273.01 454.938 271.667 462.276 268.328C471.078 264.323 482.714 259.557 489.672 255.036C491.927 253.573 494.099 251.604 495.115 250.182C496.135 248.859 496.75 247.505 496.75 245.427V166.552Z" fill="#FFD100"/>
<path d="M401.979 211.177V166.552C401.979 164.026 400.703 162.49 400.703 162.49H495.526C495.526 162.49 494.25 164.026 494.25 166.552L494.276 211.177L448.13 225.156L401.979 211.177Z" fill="#C8102E"/>
<path d="M494.276 211.177L465.698 210.641H430.557L401.979 211.177V245.427C401.979 247.151 403.766 251.182 414.073 256.313C431.099 264.802 444.193 268.766 448.115 273.594C452.036 268.766 465.13 264.802 482.161 256.313C492.464 251.182 494.25 247.151 494.25 245.427L494.276 211.177Z" fill="#003DA5"/>
<path d="M465.01 209.391C465.01 209.391 481.495 205.234 481.495 187.615C481.495 173.854 464.969 167.026 464.5 163.745C462.88 169.427 470.021 177.271 470.021 186.568C470.021 198.594 461.151 199.167 461.151 199.167C459.073 199.167 458.234 200.651 457.417 200.651C455.672 200.469 454.849 198.245 453.125 198.245C451.5 198.245 450.255 200.75 448.115 200.75C445.974 200.75 444.75 198.245 443.13 198.245C441.406 198.245 440.583 200.469 438.839 200.651C438.021 200.651 437.177 199.167 435.104 199.167C435.104 199.167 426.234 198.594 426.234 186.568C426.234 177.271 433.375 169.422 431.755 163.745C431.286 167.026 414.76 173.854 414.76 187.615C414.76 205.234 431.245 209.391 431.245 209.391L426.542 217.953C426.542 217.953 433.354 218.292 436.969 221.375C441.333 225.094 440.906 232.974 440.906 238.708C440.906 243.224 440.339 247.99 438.021 249.953C434.906 252.589 432.802 252.786 432.802 255.88C432.802 258.464 434.792 258.984 438.021 260.688C442.156 262.87 441.964 265.797 448.115 265.797C454.266 265.797 454.099 262.87 458.234 260.688C461.464 258.984 463.448 258.464 463.448 255.88C463.448 252.786 461.344 252.589 458.234 249.953C455.917 247.984 455.349 243.224 455.349 238.708C455.349 232.974 454.922 225.094 459.281 221.375C462.901 218.292 469.714 217.953 469.714 217.953L465.01 209.391Z" fill="black"/>
<path d="M448.115 164.964L445.25 173.094L437.453 169.385L441.161 177.182L433.031 180.073L441.161 182.958L437.453 190.729L445.25 187.021L448.115 195.151L451 187.021L458.797 190.729L455.089 182.958L463.219 180.073L455.089 177.182L458.797 169.385L451 173.094L448.115 164.964ZM430.552 210.641C430.552 210.641 420.375 208.156 416.573 203.13C409.927 209.109 401.979 211.177 401.979 211.177C401.979 211.177 410.271 214.922 416.573 219.693C419.479 215.531 430.552 210.641 430.552 210.641ZM465.698 210.641C465.698 210.641 476.771 215.531 479.677 219.693C485.979 214.922 494.271 211.177 494.271 211.177C494.271 211.177 486.323 209.109 479.677 203.13C475.875 208.156 465.698 210.641 465.698 210.641ZM434.724 221.479L430.76 225.438L434.724 229.401L438.682 225.438L434.724 221.479ZM461.531 221.479L457.573 225.438L461.531 229.401L465.495 225.438L461.531 221.479ZM433.724 244.609C433.724 249.615 433.24 252.25 433.24 252.25C433.24 252.25 438.823 250.604 439.937 244.943C440.458 242.286 441.042 232.5 438.354 230.833L431.068 229.401C431.854 231.349 433.724 237.375 433.724 244.609ZM457.901 230.833C455.219 232.5 455.797 242.286 456.318 244.943C457.432 250.604 463.016 252.25 463.016 252.25C463.016 252.25 462.531 249.615 462.531 244.609C462.531 237.375 464.401 231.349 465.187 229.401L457.901 230.833ZM416.552 231.115C414.042 231.745 412.521 234.302 413.151 236.813C413.25 237.198 413.406 237.552 413.589 237.891C413.214 237.76 412.828 237.688 412.437 237.656C412.276 237.651 412.115 237.651 411.953 237.656C409.573 237.74 407.594 239.604 407.427 242.031C407.25 244.615 409.214 246.839 411.797 247.016C412.177 247.042 412.552 247.026 412.922 246.964C412.693 247.271 412.505 247.604 412.359 247.958C411.396 250.359 412.568 253.125 414.969 254.094C417.37 255.057 420.109 253.865 421.078 251.458C421.219 251.104 421.312 250.74 421.359 250.359C421.589 250.677 421.849 250.958 422.151 251.203C424.135 252.865 427.109 252.604 428.771 250.615C429.167 250.141 429.464 249.604 429.646 249.016C429.833 248.422 429.901 247.818 429.844 247.198C429.786 246.578 429.615 245.995 429.328 245.443C429.042 244.896 428.656 244.422 428.182 244.021C427.88 243.771 427.547 243.573 427.208 243.411C427.578 243.292 427.927 243.13 428.255 242.922C430.453 241.547 431.115 238.625 429.74 236.432C428.797 234.922 427.135 234.146 425.474 234.26C424.677 234.313 423.948 234.552 423.276 234.974C422.948 235.177 422.646 235.417 422.38 235.693C422.385 235.302 422.344 234.917 422.25 234.542C421.698 232.344 419.682 230.896 417.5 230.99C417.177 231 416.865 231.042 416.552 231.115ZM466.391 244.76C466.896 249.547 470.786 253.557 475.589 254.703C474.771 253.365 474.224 251.87 474.057 250.281C473.453 244.604 477.844 240.01 483.844 240.01C484.792 240.01 485.708 240.125 486.604 240.339C484.49 236.875 480.505 234.464 476.177 234.464C470.177 234.464 465.786 239.089 466.391 244.76Z" fill="black"/>
<path d="M423.833 186.568C423.833 195.615 428.661 200.953 435.104 200.953C436.333 200.953 437.682 202.615 438.839 202.615C440.724 202.615 441.984 200.521 443.13 200.521C444.594 200.521 445.578 202.823 448.115 202.823C450.651 202.823 451.661 200.521 453.125 200.521C454.276 200.521 455.531 202.615 457.417 202.615C458.578 202.615 459.922 200.953 461.151 200.953C467.594 200.953 472.422 195.615 472.422 186.568C472.422 179.182 466.224 170.182 466.901 168.724C466.901 168.724 478.99 177.396 478.99 187.615C478.99 204.068 462.302 208.135 462.302 208.135L466.057 216.599C466.057 216.599 460.885 217.375 457.724 219.922C453.51 223.318 453.458 232.495 453.458 238.703C453.458 246.016 453.729 249.115 456.37 251.099C459.156 253.193 461.255 253.646 461.255 255.776C461.255 257.635 459.083 258.396 456.271 259.635C453.068 261.047 452.75 263.5 448.115 263.5C443.484 263.5 443.188 261.047 439.99 259.635C437.172 258.396 435.005 257.635 435.005 255.776C435.005 253.646 437.099 253.193 439.885 251.099C442.526 249.115 442.797 246.016 442.797 238.703C442.797 232.495 442.745 223.318 438.531 219.922C435.37 217.37 430.198 216.599 430.198 216.599L433.953 208.135C433.953 208.135 417.266 204.073 417.266 187.615C417.266 177.396 429.354 168.724 429.354 168.724C430.031 170.182 423.833 179.182 423.833 186.568ZM441.802 254.526C438.526 254.526 436.438 255.219 436.438 256.214C436.438 257.208 438.526 257.875 441.802 257.875C442.677 257.875 443.667 257.37 443.667 256.214C443.667 255.062 442.677 254.526 441.802 254.526ZM454.453 254.526C453.578 254.526 452.589 255.062 452.589 256.214C452.589 257.37 453.578 257.875 454.453 257.875C457.734 257.875 459.823 257.214 459.823 256.214C459.823 255.219 457.734 254.526 454.453 254.526Z" fill="#FFD100"/>
<path d="M448.141 170.438L449.984 175.625L454.943 173.25L452.589 178.234L457.755 180.073L452.589 181.917L454.943 186.875L449.984 184.521L448.12 189.682L446.276 184.521L441.318 186.875L443.672 181.917L438.505 180.073L443.672 178.234L441.318 173.25L446.276 175.625L448.141 170.438ZM406.833 211.328C406.833 211.328 413.13 214.464 416.292 217.255L416.469 217.411L416.568 217.281C419.557 213.854 425.104 210.943 425.104 210.943C425.104 210.943 419.776 209.474 416.417 205.625C412.865 209.245 406.833 211.328 406.833 211.328ZM489.417 211.333C489.417 211.333 483.12 214.469 479.958 217.266L479.781 217.417L479.677 217.292C476.688 213.859 471.141 210.953 471.141 210.953C471.141 210.953 476.474 209.479 479.833 205.635C483.38 209.255 489.417 211.333 489.417 211.333ZM434.724 223.37L436.792 225.438L434.724 227.536L432.625 225.438L434.724 223.37ZM461.531 223.37L463.63 225.438L461.531 227.536L459.464 225.438L461.531 223.37ZM437.536 232.417C438.979 234.411 438.734 237.641 438.734 242.13C438.734 246.656 435.339 248.391 435.339 248.391C435.339 237.51 434.214 234.891 433.625 231.599L437.536 232.417ZM462.63 231.599C462.042 234.891 460.922 237.51 460.922 248.391C460.922 248.391 457.521 246.656 457.521 242.13C457.521 237.635 457.276 234.411 458.719 232.417L462.63 231.599Z" fill="#FFD100"/>
<path d="M421.458 235.714C421.562 236.12 421.573 236.521 421.536 236.917C421.505 237.245 421.417 237.542 421.307 237.839C420.74 237.63 420.125 237.531 419.49 237.531C417.911 237.531 416.5 238.224 415.526 239.318C415.271 239.094 415.052 238.839 414.865 238.552C414.656 238.229 414.479 237.875 414.38 237.479C413.891 235.526 415.083 233.547 417.036 233.057C417.281 232.995 417.536 232.964 417.776 232.953C418.198 232.937 418.604 232.99 419.005 233.115C419.406 233.24 419.776 233.427 420.109 233.677C420.443 233.932 420.729 234.229 420.958 234.578C421.193 234.932 421.359 235.307 421.458 235.714Z" fill="#FFD100"/>
<path d="M426.906 242.531C426.552 242.755 426.172 242.891 425.786 242.979C425.469 243.052 425.161 243.057 424.844 243.042C424.865 242.443 424.771 241.828 424.573 241.224C424.089 239.724 422.99 238.594 421.646 238.005C421.781 237.693 421.958 237.406 422.172 237.141C422.417 236.839 422.698 236.563 423.042 236.344C424.75 235.276 427 235.802 428.068 237.505C428.203 237.719 428.313 237.953 428.396 238.182C428.542 238.573 428.615 238.979 428.62 239.396C428.625 239.818 428.563 240.224 428.427 240.62C428.292 241.021 428.094 241.38 427.833 241.708C427.573 242.036 427.26 242.313 426.906 242.531Z" fill="#FFD100"/>
<path d="M422.104 249.823C421.786 249.552 421.542 249.234 421.339 248.896C421.172 248.615 421.068 248.323 420.984 248.016C421.563 247.849 422.115 247.573 422.63 247.198C423.906 246.271 424.641 244.88 424.786 243.422C425.125 243.453 425.453 243.531 425.771 243.651C426.135 243.792 426.484 243.974 426.797 244.234C428.344 245.526 428.536 247.828 427.245 249.375C427.083 249.568 426.896 249.745 426.708 249.891C426.375 250.151 426.016 250.349 425.62 250.484C425.219 250.62 424.813 250.682 424.396 250.677C423.974 250.672 423.568 250.594 423.177 250.448C422.781 250.302 422.427 250.094 422.104 249.823Z" fill="#FFD100"/>
<path d="M413.688 247.51C413.849 247.12 414.073 246.792 414.333 246.495C414.552 246.245 414.797 246.057 415.063 245.885C415.396 246.385 415.833 246.823 416.349 247.198C417.625 248.125 419.177 248.396 420.604 248.078C420.682 248.411 420.708 248.75 420.693 249.089C420.672 249.474 420.604 249.865 420.453 250.245C419.703 252.115 417.573 253.01 415.703 252.26C415.469 252.167 415.245 252.042 415.047 251.906C414.698 251.672 414.396 251.391 414.146 251.052C413.896 250.719 413.708 250.349 413.583 249.948C413.464 249.547 413.406 249.141 413.427 248.719C413.443 248.302 413.531 247.896 413.688 247.51Z" fill="#FFD100"/>
<path d="M413.292 238.792C413.708 238.818 414.094 238.932 414.458 239.089C414.755 239.219 415.01 239.391 415.26 239.594C414.891 240.068 414.604 240.615 414.406 241.224C413.922 242.724 414.141 244.281 414.885 245.542C414.594 245.719 414.281 245.849 413.948 245.938C413.578 246.036 413.188 246.094 412.781 246.068C410.771 245.932 409.255 244.182 409.396 242.172C409.411 241.922 409.464 241.672 409.526 241.438C409.641 241.036 409.818 240.661 410.063 240.318C410.302 239.979 410.594 239.688 410.938 239.443C411.281 239.203 411.651 239.026 412.057 238.911C412.458 238.802 412.87 238.76 413.292 238.792Z" fill="#FFD100"/>
<path d="M423.016 242.875C423.016 243.344 422.927 243.792 422.75 244.224C422.568 244.656 422.312 245.036 421.984 245.37C421.651 245.698 421.271 245.953 420.839 246.135C420.406 246.313 419.958 246.401 419.49 246.401C419.021 246.401 418.573 246.313 418.141 246.135C417.708 245.953 417.328 245.698 416.995 245.37C416.667 245.036 416.411 244.656 416.229 244.224C416.052 243.792 415.964 243.344 415.964 242.875C415.964 242.406 416.052 241.958 416.229 241.526C416.411 241.094 416.667 240.708 416.995 240.38C417.328 240.047 417.708 239.797 418.141 239.615C418.573 239.438 419.021 239.349 419.49 239.349C419.958 239.349 420.406 239.438 420.839 239.615C421.271 239.797 421.651 240.047 421.984 240.38C422.312 240.708 422.568 241.094 422.75 241.526C422.927 241.958 423.016 242.406 423.016 242.875Z" fill="#FFD100"/>
<path d="M481.417 238.12C475.562 239.25 471.344 244.422 471.958 250.464C470.094 248.917 468.729 246.833 468.484 244.531C468.01 240.052 471.266 236.583 476.177 236.583C478.052 236.583 479.859 237.161 481.417 238.12Z" fill="#FFD100"/>
</g>
</g>
<defs>
<clipPath id="clip0_764_3606">
<rect width="900" height="450" fill="white"/>
</clipPath>
</defs>
</svg>
