<svg width="900" height="450" viewBox="0 0 900 450" fill="none" xmlns="http://www.w3.org/2000/svg">
<g clip-path="url(#clip0_764_4069)">
<path d="M900 0H0V450H900V0Z" fill="#1E1E1E"/>
<mask id="mask0_764_4069" style="mask-type:luminance" maskUnits="userSpaceOnUse" x="0" y="0" width="900" height="450">
<path d="M900 0H0V450H900V0Z" fill="white"/>
</mask>
<g mask="url(#mask0_764_4069)">
<path d="M0 0H900V450H0V0Z" fill="#003087"/>
<path d="M0 442.8V432L900 52.5V183.6L0 442.8Z" fill="white"/>
<path d="M0 435.6V428.4L900 7.20001V95.4L0 435.6Z" fill="#E57200"/>
<path d="M162.663 24L171.058 163.5H154.268L162.663 24Z" fill="white"/>
<path d="M188.545 67.0214L172.562 166.149L152.764 160.851L188.545 67.0214Z" fill="white"/>
<path d="M212.663 76.9997L171.538 168.618L153.788 158.382L212.663 76.9997Z" fill="white"/>
<path d="M233.373 92.8728L169.91 170.738L155.417 156.262L233.373 92.8728Z" fill="white"/>
<path d="M249.265 113.559L167.787 172.365L157.539 154.635L249.265 113.559Z" fill="white"/>
<path d="M259.255 137.649L165.316 173.387L160.011 153.613L259.255 137.649Z" fill="white"/>
<path d="M302.326 163.5L162.663 171.885V155.115L302.326 163.5Z" fill="white"/>
<path d="M259.255 189.351L160.011 173.387L165.316 153.613L259.255 189.351Z" fill="white"/>
<path d="M249.265 213.441L157.539 172.365L167.787 154.635L249.265 213.441Z" fill="white"/>
<path d="M233.373 234.127L155.417 170.738L169.91 156.262L233.373 234.127Z" fill="white"/>
<path d="M212.663 250L153.788 168.618L171.538 158.382L212.663 250Z" fill="white"/>
<path d="M188.545 259.979L152.764 166.149L172.562 160.851L188.545 259.979Z" fill="white"/>
<path d="M162.663 303L154.268 163.5H171.058L162.663 303Z" fill="white"/>
<path d="M136.782 259.979L152.764 160.851L172.562 166.149L136.782 259.979Z" fill="white"/>
<path d="M112.664 250L153.788 158.382L171.538 168.618L112.664 250Z" fill="white"/>
<path d="M91.9533 234.127L155.417 156.262L169.91 170.738L91.9533 234.127Z" fill="white"/>
<path d="M76.0616 213.441L157.539 154.635L167.787 172.365L76.0616 213.441Z" fill="white"/>
<path d="M66.0717 189.351L160.011 153.613L165.316 173.387L66.0717 189.351Z" fill="white"/>
<path d="M23 163.5L162.663 155.115V171.885L23 163.5Z" fill="white"/>
<path d="M66.0717 137.649L165.316 153.613L160.011 173.387L66.0717 137.649Z" fill="white"/>
<path d="M76.0616 113.559L167.787 154.635L157.539 172.365L76.0616 113.559Z" fill="white"/>
<path d="M91.9533 92.8728L169.91 156.262L155.417 170.738L91.9533 92.8728Z" fill="white"/>
<path d="M112.664 76.9996L171.538 158.382L153.788 168.618L112.664 76.9996Z" fill="white"/>
<path d="M136.782 67.0214L172.562 160.851L152.764 166.149L136.782 67.0214Z" fill="white"/>
</g>
</g>
<defs>
<clipPath id="clip0_764_4069">
<rect width="900" height="450" fill="white"/>
</clipPath>
</defs>
</svg>
