<svg width="900" height="450" viewBox="0 0 900 450" fill="none" xmlns="http://www.w3.org/2000/svg">
<rect width="900" height="450" fill="#1E1E1E"/>
<g clip-path="url(#clip0_0_1)">
<mask id="mask0_0_1" style="mask-type:luminance" maskUnits="userSpaceOnUse" x="0" y="0" width="900" height="450">
<path d="M0 -3.37219e-06H900V450H0V-3.37219e-06Z" fill="white"/>
</mask>
<g mask="url(#mask0_0_1)">
<path d="M0 -3.37219e-06H900V450H0V-3.37219e-06Z" fill="white"/>
<path d="M0 -3.37219e-06H900V450H0V-3.37219e-06Z" fill="white"/>
<path d="M0 -3.37219e-06H900V450H0V-3.37219e-06Z" fill="#D82126"/>
<path d="M0 269.999V180.001L900 269.999V180.001L0 269.999ZM405.001 -3.37219e-06H494.999L450 176.788L405.001 -3.37219e-06ZM494.999 450H405.001L450 273.217L494.999 450ZM0 -3.37219e-06H134.997L491.337 249.813L0 -3.37219e-06ZM0 450H134.997L491.337 200.187L0 450ZM900 -3.37219e-06H765.003L408.663 249.813L900 -3.37219e-06ZM900 450H765.003L408.663 200.187L900 450Z" fill="#F8E92E"/>
</g>
<path d="M530.24 224.667C530.24 227.297 530.109 229.917 529.854 232.531C529.594 235.146 529.208 237.745 528.698 240.323C528.182 242.896 527.547 245.443 526.781 247.958C526.021 250.474 525.135 252.943 524.13 255.375C523.125 257.802 522 260.172 520.766 262.49C519.526 264.807 518.177 267.062 516.714 269.245C515.255 271.432 513.693 273.536 512.026 275.568C510.359 277.599 508.594 279.547 506.74 281.406C504.88 283.26 502.932 285.026 500.901 286.693C498.87 288.359 496.76 289.922 494.578 291.385C492.391 292.844 490.141 294.193 487.823 295.432C485.505 296.672 483.135 297.792 480.708 298.797C478.276 299.802 475.807 300.687 473.292 301.448C470.776 302.214 468.229 302.849 465.656 303.365C463.078 303.875 460.479 304.26 457.865 304.521C455.25 304.776 452.63 304.906 450 304.906C447.37 304.906 444.75 304.776 442.135 304.521C439.521 304.26 436.922 303.875 434.344 303.365C431.771 302.849 429.224 302.214 426.708 301.448C424.193 300.687 421.724 299.802 419.292 298.797C416.865 297.792 414.495 296.672 412.177 295.432C409.859 294.193 407.609 292.844 405.422 291.38C403.234 289.922 401.13 288.359 399.099 286.693C397.068 285.026 395.12 283.26 393.26 281.406C391.406 279.547 389.641 277.599 387.974 275.568C386.307 273.536 384.745 271.432 383.286 269.245C381.823 267.062 380.474 264.807 379.234 262.49C377.995 260.172 376.875 257.802 375.87 255.375C374.865 252.943 373.979 250.474 373.219 247.958C372.453 245.443 371.818 242.896 371.302 240.323C370.792 237.745 370.406 235.146 370.146 232.531C369.891 229.917 369.76 227.297 369.76 224.667C369.76 222.042 369.891 219.417 370.146 216.802C370.406 214.187 370.792 211.589 371.302 209.016C371.818 206.437 372.453 203.891 373.219 201.375C373.979 198.859 374.865 196.391 375.87 193.964C376.875 191.531 377.995 189.161 379.234 186.844C380.474 184.526 381.823 182.276 383.286 180.089C384.745 177.906 386.307 175.797 387.974 173.766C389.641 171.734 391.406 169.786 393.26 167.932C395.12 166.073 397.068 164.307 399.099 162.641C401.13 160.974 403.234 159.411 405.422 157.953C407.609 156.49 409.859 155.141 412.177 153.901C414.495 152.667 416.865 151.542 419.292 150.536C421.724 149.531 424.193 148.646 426.708 147.885C429.224 147.12 431.771 146.484 434.344 145.969C436.922 145.458 439.521 145.073 442.135 144.818C444.75 144.557 447.37 144.427 450 144.427C452.63 144.427 455.25 144.557 457.865 144.818C460.479 145.073 463.078 145.458 465.656 145.969C468.229 146.484 470.776 147.12 473.292 147.885C475.807 148.646 478.276 149.531 480.708 150.536C483.135 151.542 485.505 152.667 487.823 153.901C490.141 155.141 492.391 156.49 494.578 157.953C496.76 159.411 498.87 160.974 500.901 162.641C502.932 164.307 504.88 166.073 506.74 167.932C508.594 169.786 510.359 171.734 512.026 173.766C513.693 175.797 515.255 177.906 516.714 180.089C518.177 182.276 519.526 184.526 520.766 186.844C522 189.161 523.125 191.531 524.13 193.964C525.135 196.391 526.021 198.859 526.781 201.375C527.547 203.891 528.182 206.437 528.698 209.016C529.208 211.589 529.594 214.187 529.854 216.802C530.109 219.417 530.24 222.042 530.24 224.667Z" fill="#D82126"/>
<path d="M514.193 224.667C514.193 226.771 514.089 228.865 513.88 230.958C513.677 233.052 513.37 235.13 512.958 237.193C512.547 239.25 512.036 241.286 511.427 243.302C510.818 245.312 510.109 247.292 509.302 249.234C508.5 251.172 507.604 253.073 506.609 254.927C505.62 256.781 504.542 258.583 503.375 260.328C502.203 262.078 500.953 263.766 499.62 265.391C498.286 267.016 496.875 268.568 495.391 270.057C493.901 271.542 492.349 272.953 490.724 274.286C489.099 275.62 487.411 276.87 485.661 278.042C483.917 279.208 482.115 280.286 480.26 281.276C478.406 282.271 476.505 283.167 474.562 283.974C472.62 284.776 470.646 285.484 468.635 286.094C466.62 286.703 464.583 287.214 462.521 287.625C460.464 288.036 458.385 288.344 456.292 288.547C454.198 288.755 452.104 288.859 450 288.859C447.896 288.859 445.802 288.755 443.708 288.547C441.615 288.344 439.536 288.036 437.479 287.625C435.417 287.214 433.38 286.703 431.365 286.094C429.354 285.484 427.375 284.776 425.437 283.974C423.495 283.167 421.594 282.271 419.74 281.276C417.885 280.286 416.083 279.208 414.339 278.042C412.589 276.87 410.901 275.62 409.276 274.286C407.651 272.953 406.099 271.542 404.609 270.057C403.125 268.568 401.714 267.016 400.38 265.391C399.047 263.766 397.797 262.078 396.625 260.328C395.458 258.583 394.38 256.781 393.391 254.927C392.396 253.073 391.5 251.172 390.698 249.234C389.891 247.292 389.182 245.312 388.573 243.302C387.964 241.286 387.453 239.25 387.042 237.193C386.63 235.13 386.323 233.052 386.12 230.958C385.911 228.865 385.807 226.771 385.807 224.667C385.807 222.562 385.911 220.469 386.12 218.375C386.323 216.281 386.63 214.208 387.042 212.146C387.453 210.083 387.964 208.047 388.573 206.031C389.182 204.021 389.891 202.047 390.698 200.104C391.5 198.161 392.396 196.26 393.391 194.406C394.38 192.552 395.458 190.755 396.625 189.005C397.797 187.255 399.047 185.568 400.38 183.943C401.714 182.318 403.125 180.766 404.609 179.276C406.099 177.792 407.651 176.38 409.276 175.047C410.901 173.714 412.589 172.464 414.339 171.297C416.083 170.125 417.885 169.047 419.74 168.057C421.594 167.062 423.495 166.167 425.437 165.365C427.375 164.557 429.354 163.849 431.365 163.24C433.38 162.63 435.417 162.12 437.479 161.708C439.536 161.302 441.615 160.99 443.708 160.786C445.802 160.578 447.896 160.474 450 160.474C452.104 160.474 454.198 160.578 456.292 160.786C458.385 160.99 460.464 161.302 462.521 161.708C464.583 162.12 466.62 162.63 468.635 163.24C470.646 163.849 472.62 164.557 474.562 165.365C476.505 166.167 478.406 167.062 480.26 168.057C482.115 169.047 483.917 170.125 485.661 171.297C487.411 172.464 489.099 173.714 490.724 175.047C492.349 176.38 493.901 177.792 495.391 179.276C496.875 180.766 498.286 182.318 499.62 183.943C500.953 185.568 502.203 187.255 503.375 189.005C504.542 190.755 505.62 192.552 506.609 194.406C507.604 196.26 508.5 198.161 509.302 200.104C510.109 202.047 510.818 204.021 511.427 206.031C512.036 208.047 512.547 210.083 512.958 212.146C513.37 214.208 513.677 216.281 513.88 218.375C514.089 220.469 514.193 222.562 514.193 224.667Z" fill="#F8E92E"/>
</g>
<defs>
<clipPath id="clip0_0_1">
<rect width="900" height="450" fill="white"/>
</clipPath>
</defs>
</svg>
