<svg width="900" height="450" viewBox="0 0 900 450" fill="none" xmlns="http://www.w3.org/2000/svg">
<g clip-path="url(#clip0_764_4215)">
<path d="M900 0H0V450H900V0Z" fill="#1E1E1E"/>
<mask id="mask0_764_4215" style="mask-type:luminance" maskUnits="userSpaceOnUse" x="0" y="0" width="900" height="450">
<path d="M900 0H0V450H900V0Z" fill="white"/>
</mask>
<g mask="url(#mask0_764_4215)">
<mask id="mask1_764_4215" style="mask-type:luminance" maskUnits="userSpaceOnUse" x="0" y="0" width="900" height="450">
<path d="M0 0H900V449.333H0V0Z" fill="white"/>
</mask>
<g mask="url(#mask1_764_4215)">
<path d="M0 0H900V449.333H0V0Z" fill="white"/>
<path d="M0 0H900V449.333H0V0Z" fill="white"/>
</g>
<mask id="mask2_764_4215" style="mask-type:luminance" maskUnits="userSpaceOnUse" x="0" y="0" width="900" height="226">
<path d="M0 0H900V225.333H0V0Z" fill="white"/>
</mask>
<g mask="url(#mask2_764_4215)">
<path d="M0 0H900V224.667H0V0Z" fill="#FECB00"/>
</g>
<mask id="mask3_764_4215" style="mask-type:luminance" maskUnits="userSpaceOnUse" x="0" y="224" width="900" height="226">
<path d="M0 224H900V449.333H0V224Z" fill="white"/>
</mask>
<g mask="url(#mask3_764_4215)">
<path d="M0 224.667H900V449.333H0V224.667Z" fill="#EA2839"/>
</g>
<mask id="mask4_764_4215" style="mask-type:luminance" maskUnits="userSpaceOnUse" x="0" y="149" width="900" height="151">
<path d="M0 149.333H900V300H0V149.333Z" fill="white"/>
</mask>
<g mask="url(#mask4_764_4215)">
<path d="M0 149.776H900V299.557H0V149.776Z" fill="#34B233"/>
</g>
<path d="M396.198 240.469L450 74.8906L503.802 240.469H396.198Z" fill="white"/>
<path d="M493.526 272.094L352.677 374.427L406.474 208.844L493.526 272.094Z" fill="white"/>
<path d="M433.375 291.635L292.526 189.302H466.625L433.375 291.635Z" fill="white"/>
<path d="M433.375 189.302H607.474L466.625 291.635L433.375 189.302Z" fill="white"/>
<path d="M493.526 208.844L547.323 374.427L406.474 272.094L493.526 208.844Z" fill="white"/>
</g>
</g>
<defs>
<clipPath id="clip0_764_4215">
<rect width="900" height="450" fill="white"/>
</clipPath>
</defs>
</svg>
