<svg width="900" height="450" viewBox="0 0 900 450" fill="none" xmlns="http://www.w3.org/2000/svg">
<rect width="900" height="450" fill="#1E1E1E"/>
<g clip-path="url(#clip0_0_1)">
<mask id="mask0_0_1" style="mask-type:luminance" maskUnits="userSpaceOnUse" x="0" y="0" width="900" height="450">
<path d="M0 -3.37219e-06H900V450H0V-3.37219e-06Z" fill="white"/>
</mask>
<g mask="url(#mask0_0_1)">
<path d="M0 -3.37219e-06H900V450H0V-3.37219e-06Z" fill="white"/>
<path d="M0 -3.37219e-06H900V450H0V-3.37219e-06Z" fill="white"/>
<path d="M0 -3.37219e-06H900V450H0V-3.37219e-06Z" fill="#DA2032"/>
</g>
<path d="M300 -3.37219e-06H600V450H300V-3.37219e-06Z" fill="#0066B3"/>
<path d="M68.0677 202.198H105.51V381.932H68.0677V202.198ZM195.375 202.198H232.823V381.932H195.375V202.198ZM113 359.469L150.443 381.932L187.891 359.469H113ZM113 337H187.891V351.979H113V337ZM113 202.198L150.443 224.667L187.891 202.198H113ZM113 232.156H187.891V247.135H113V232.156ZM168.229 259.156C169.625 261.052 170.687 263.115 171.422 265.344C172.156 267.578 172.526 269.87 172.531 272.219C172.536 284.422 162.646 294.318 150.443 294.318C149.286 294.318 148.146 294.432 147.01 294.656C145.88 294.885 144.776 295.219 143.708 295.661C142.641 296.099 141.63 296.646 140.667 297.286C139.708 297.927 138.818 298.656 138 299.474C137.182 300.292 136.453 301.177 135.812 302.141C135.172 303.099 134.63 304.115 134.187 305.182C133.745 306.25 133.411 307.349 133.187 308.484C132.958 309.615 132.849 310.76 132.849 311.917C132.849 313.073 132.958 314.214 133.187 315.349C133.411 316.479 133.745 317.583 134.187 318.651C134.63 319.719 135.172 320.729 135.812 321.693C136.453 322.651 137.187 323.542 138 324.359C138.818 325.172 139.708 325.906 140.667 326.547C141.63 327.188 142.641 327.729 143.708 328.172C144.776 328.615 145.88 328.948 147.01 329.172C148.146 329.401 149.286 329.51 150.443 329.51C171.125 329.51 187.891 312.745 187.891 292.068C187.891 278.323 180.328 265.688 168.229 259.156ZM150.443 304.427C150.937 304.427 151.422 304.474 151.906 304.573C152.385 304.667 152.854 304.807 153.307 304.995C153.766 305.188 154.198 305.417 154.604 305.688C155.016 305.964 155.391 306.271 155.74 306.62C156.089 306.969 156.396 307.349 156.672 307.755C156.943 308.167 157.172 308.594 157.365 309.052C157.552 309.505 157.693 309.974 157.786 310.453C157.885 310.938 157.932 311.422 157.932 311.917C157.932 312.406 157.885 312.896 157.786 313.375C157.693 313.859 157.552 314.328 157.365 314.781C157.172 315.234 156.943 315.667 156.672 316.078C156.396 316.484 156.089 316.865 155.74 317.214C155.391 317.557 155.016 317.87 154.604 318.141C154.198 318.417 153.766 318.646 153.307 318.833C152.854 319.021 152.385 319.167 151.906 319.26C151.422 319.359 150.937 319.406 150.443 319.406C149.953 319.406 149.464 319.359 148.984 319.26C148.5 319.167 148.031 319.021 147.578 318.833C147.125 318.646 146.693 318.417 146.281 318.141C145.875 317.87 145.495 317.557 145.146 317.214C144.802 316.865 144.49 316.484 144.219 316.078C143.943 315.667 143.714 315.234 143.526 314.781C143.339 314.328 143.193 313.859 143.099 313.375C143.005 312.896 142.953 312.406 142.953 311.917C142.953 311.422 143.005 310.938 143.099 310.453C143.193 309.974 143.339 309.505 143.526 309.052C143.714 308.594 143.943 308.167 144.219 307.755C144.49 307.349 144.802 306.969 145.146 306.62C145.495 306.271 145.875 305.964 146.281 305.688C146.693 305.417 147.125 305.188 147.578 304.995C148.031 304.807 148.5 304.667 148.984 304.573C149.464 304.474 149.953 304.427 150.443 304.427Z" fill="#FFD900"/>
<path d="M132.656 324.979C131.266 323.083 130.203 321.021 129.464 318.792C128.729 316.557 128.359 314.266 128.359 311.917C128.354 299.714 138.24 289.818 150.443 289.818C151.599 289.818 152.745 289.703 153.875 289.479C155.01 289.25 156.109 288.917 157.177 288.474C158.245 288.031 159.26 287.49 160.219 286.849C161.182 286.208 162.068 285.479 162.885 284.661C163.703 283.844 164.432 282.953 165.073 281.995C165.714 281.031 166.26 280.021 166.698 278.953C167.141 277.885 167.474 276.786 167.703 275.651C167.927 274.521 168.042 273.375 168.042 272.219C168.042 271.063 167.927 269.917 167.703 268.786C167.474 267.651 167.141 266.552 166.698 265.484C166.26 264.417 165.714 263.406 165.073 262.443C164.432 261.484 163.703 260.594 162.885 259.776C162.068 258.958 161.182 258.229 160.219 257.589C159.26 256.948 158.245 256.406 157.177 255.964C156.109 255.521 155.01 255.188 153.875 254.964C152.745 254.734 151.599 254.625 150.443 254.625C129.766 254.625 113 271.385 113 292.068C113 305.813 120.562 318.448 132.656 324.979ZM150.443 279.708C149.953 279.708 149.464 279.661 148.984 279.563C148.5 279.469 148.031 279.328 147.578 279.135C147.125 278.948 146.693 278.719 146.281 278.448C145.875 278.172 145.495 277.859 145.146 277.516C144.802 277.167 144.49 276.786 144.219 276.38C143.943 275.969 143.714 275.536 143.526 275.083C143.339 274.63 143.193 274.161 143.099 273.677C143.005 273.198 142.953 272.708 142.953 272.219C142.953 271.729 143.005 271.24 143.099 270.755C143.193 270.276 143.339 269.807 143.526 269.354C143.714 268.901 143.943 268.469 144.219 268.057C144.49 267.651 144.802 267.271 145.146 266.922C145.495 266.578 145.875 266.266 146.281 265.99C146.693 265.719 147.125 265.49 147.578 265.302C148.031 265.109 148.5 264.969 148.984 264.875C149.464 264.776 149.953 264.729 150.443 264.729C150.937 264.729 151.422 264.776 151.906 264.875C152.385 264.969 152.854 265.109 153.307 265.302C153.766 265.49 154.198 265.719 154.604 265.99C155.016 266.266 155.391 266.578 155.74 266.922C156.089 267.271 156.396 267.651 156.672 268.057C156.943 268.469 157.172 268.901 157.365 269.354C157.552 269.807 157.693 270.276 157.786 270.755C157.885 271.24 157.932 271.729 157.932 272.219C157.932 272.708 157.885 273.198 157.786 273.677C157.693 274.161 157.552 274.63 157.365 275.083C157.172 275.536 156.943 275.969 156.672 276.38C156.396 276.786 156.089 277.167 155.74 277.516C155.391 277.859 155.016 278.172 154.604 278.448C154.198 278.719 153.766 278.948 153.307 279.135C152.854 279.328 152.385 279.469 151.906 279.563C151.422 279.661 150.937 279.708 150.443 279.708ZM109.328 152.703C109.302 152.974 109.276 153.25 109.255 153.521C109.255 154.87 109.323 156.219 109.453 157.557C109.583 158.901 109.781 160.234 110.047 161.557C110.307 162.88 110.635 164.188 111.026 165.479C111.422 166.771 111.875 168.036 112.391 169.286C112.906 170.531 113.484 171.75 114.12 172.938C114.755 174.13 115.448 175.286 116.198 176.406C116.948 177.526 117.75 178.609 118.604 179.651C119.458 180.698 120.365 181.693 121.318 182.646C122.271 183.599 123.271 184.505 124.312 185.365C125.354 186.219 126.437 187.021 127.562 187.771C128.682 188.521 129.839 189.214 131.026 189.849C132.219 190.484 133.432 191.063 134.682 191.578C135.927 192.094 137.198 192.547 138.484 192.938C139.776 193.328 141.083 193.656 142.406 193.922C143.729 194.182 145.062 194.38 146.406 194.516C147.75 194.646 149.094 194.714 150.443 194.714C151.792 194.714 153.141 194.646 154.479 194.516C155.823 194.38 157.156 194.182 158.479 193.922C159.802 193.656 161.109 193.328 162.401 192.938C163.693 192.547 164.958 192.094 166.208 191.578C167.453 191.063 168.672 190.484 169.859 189.849C171.047 189.214 172.203 188.521 173.328 187.771C174.448 187.021 175.531 186.219 176.573 185.365C177.615 184.505 178.615 183.599 179.568 182.646C180.521 181.693 181.427 180.698 182.281 179.651C183.141 178.609 183.943 177.526 184.693 176.406C185.443 175.286 186.135 174.13 186.771 172.938C187.406 171.75 187.979 170.531 188.495 169.286C189.016 168.036 189.469 166.771 189.859 165.479C190.25 164.188 190.578 162.88 190.839 161.557C191.104 160.234 191.302 158.901 191.432 157.557C191.568 156.219 191.63 154.87 191.63 153.521C191.635 153.271 191.635 153.021 191.63 152.776C190.76 154.766 189.755 156.682 188.604 158.531C187.458 160.375 186.182 162.125 184.781 163.786C183.38 165.448 181.865 167 180.24 168.438C178.609 169.88 176.891 171.198 175.068 172.385C173.25 173.578 171.359 174.63 169.385 175.547C167.417 176.464 165.391 177.229 163.307 177.854C161.224 178.474 159.109 178.943 156.958 179.255C154.807 179.573 152.646 179.729 150.474 179.729C148.297 179.729 146.135 179.568 143.984 179.25C141.833 178.932 139.714 178.464 137.63 177.839C135.547 177.214 133.521 176.443 131.552 175.521C129.578 174.604 127.687 173.547 125.87 172.354C124.052 171.156 122.328 169.839 120.703 168.396C119.078 166.953 117.562 165.396 116.167 163.734C114.766 162.068 113.49 160.313 112.344 158.464C111.198 156.615 110.193 154.693 109.328 152.698V152.703Z" fill="#FFD900"/>
<path d="M180.432 142.286C180.432 143.271 180.38 144.25 180.286 145.224C180.187 146.203 180.047 147.172 179.854 148.13C179.661 149.094 179.427 150.047 179.141 150.984C178.854 151.922 178.526 152.844 178.151 153.75C177.776 154.656 177.354 155.547 176.891 156.411C176.432 157.276 175.927 158.115 175.38 158.932C174.839 159.745 174.255 160.536 173.63 161.292C173.01 162.052 172.349 162.776 171.656 163.469C170.964 164.167 170.234 164.823 169.479 165.443C168.719 166.068 167.932 166.651 167.115 167.198C166.302 167.74 165.458 168.245 164.594 168.708C163.729 169.172 162.844 169.589 161.937 169.964C161.031 170.339 160.109 170.672 159.172 170.953C158.229 171.24 157.281 171.479 156.318 171.667C155.354 171.859 154.385 172.005 153.411 172.099C152.432 172.198 151.458 172.245 150.474 172.245C149.495 172.245 148.516 172.198 147.536 172.099C146.562 172.005 145.594 171.859 144.63 171.667C143.667 171.479 142.719 171.24 141.781 170.953C140.839 170.672 139.917 170.339 139.01 169.964C138.104 169.589 137.219 169.172 136.354 168.708C135.49 168.245 134.646 167.74 133.833 167.198C133.016 166.651 132.229 166.068 131.469 165.443C130.714 164.823 129.984 164.167 129.292 163.469C128.599 162.776 127.943 162.052 127.318 161.292C126.698 160.536 126.115 159.745 125.568 158.932C125.021 158.115 124.521 157.276 124.057 156.411C123.594 155.547 123.177 154.656 122.797 153.75C122.422 152.844 122.094 151.922 121.807 150.984C121.526 150.047 121.286 149.094 121.094 148.13C120.901 147.172 120.76 146.203 120.661 145.224C120.568 144.25 120.521 143.271 120.521 142.286C120.521 141.307 120.568 140.328 120.661 139.354C120.76 138.375 120.901 137.406 121.094 136.443C121.286 135.484 121.526 134.531 121.807 133.594C122.094 132.656 122.422 131.729 122.797 130.823C123.177 129.917 123.594 129.031 124.057 128.167C124.521 127.302 125.021 126.464 125.568 125.646C126.115 124.828 126.698 124.042 127.318 123.286C127.943 122.526 128.599 121.802 129.292 121.109C129.984 120.411 130.714 119.755 131.469 119.13C132.229 118.51 133.016 117.927 133.833 117.38C134.646 116.839 135.49 116.333 136.354 115.87C137.219 115.406 138.104 114.99 139.01 114.615C139.917 114.24 140.839 113.906 141.781 113.625C142.719 113.339 143.667 113.099 144.63 112.906C145.594 112.719 146.562 112.573 147.536 112.479C148.516 112.38 149.495 112.333 150.474 112.333C151.458 112.333 152.432 112.38 153.411 112.479C154.385 112.573 155.354 112.719 156.318 112.906C157.281 113.099 158.229 113.339 159.172 113.625C160.109 113.906 161.031 114.24 161.937 114.615C162.844 114.99 163.729 115.406 164.594 115.87C165.458 116.333 166.302 116.839 167.115 117.38C167.932 117.927 168.719 118.51 169.479 119.13C170.234 119.755 170.964 120.411 171.656 121.109C172.349 121.802 173.01 122.526 173.63 123.286C174.255 124.042 174.839 124.828 175.38 125.646C175.927 126.464 176.432 127.302 176.891 128.167C177.354 129.031 177.776 129.917 178.151 130.823C178.526 131.729 178.854 132.656 179.141 133.594C179.427 134.531 179.661 135.484 179.854 136.443C180.047 137.406 180.187 138.375 180.286 139.354C180.38 140.328 180.432 141.307 180.432 142.286Z" fill="#FFD900"/>
<path d="M153.594 44.9427C149.87 46.6302 148.479 49.6771 148.177 52.7083C147.995 55.2656 149.12 58.1406 149.229 60.6354C149.229 64.9375 144.786 66.349 144.786 72.4844C144.786 74.5937 146.734 76.9167 146.734 82.3854C146.396 85.2604 144.792 85.9063 142.99 86.1302C142.49 86.1302 142.016 86.0365 141.552 85.849C141.094 85.6563 140.693 85.3854 140.339 85.0365C139.99 84.6823 139.719 84.2813 139.526 83.8177C139.339 83.3594 139.245 82.8854 139.245 82.3854C139.245 81.3906 139.594 80.5313 140.281 79.8125C140.401 79.6771 140.526 79.5521 140.661 79.4375C141.516 78.5729 142.687 78.2448 142.682 75.9687C142.682 74.8021 141.922 73.7396 141.203 71.6667C140.521 69.6615 141.016 66.3073 142.635 64.3281C140.016 65.3385 138.401 67.849 137.573 70.1042C136.708 72.875 137.464 74.4687 136.271 76.776C135.547 78.2656 134.682 78.8802 133.859 80.125C132.891 81.4792 131.75 84.651 131.75 86.1198C131.75 87.349 131.875 88.5677 132.115 89.776C132.354 90.9792 132.708 92.151 133.177 93.2865C133.646 94.4219 134.224 95.5 134.906 96.526C135.589 97.5469 136.365 98.4896 137.234 99.3594C138.104 100.229 139.052 101.005 140.073 101.688C141.094 102.37 142.172 102.948 143.312 103.417C144.448 103.891 145.615 104.245 146.823 104.484C148.026 104.724 149.245 104.844 150.474 104.844C151.703 104.844 152.922 104.724 154.125 104.484C155.333 104.245 156.505 103.891 157.641 103.417C158.776 102.948 159.854 102.37 160.875 101.688C161.901 101.005 162.844 100.229 163.714 99.3594C164.583 98.4896 165.359 97.5469 166.042 96.526C166.724 95.5 167.302 94.4219 167.771 93.2865C168.245 92.151 168.599 90.9792 168.839 89.776C169.078 88.5677 169.198 87.349 169.198 86.1198C169.198 84.651 168.073 81.4792 167.104 80.125C166.286 78.8802 165.406 78.2656 164.677 76.776C163.5 74.4687 164.26 72.875 163.391 70.1042C162.568 67.849 160.948 65.3385 158.328 64.3281C159.948 66.3073 160.443 69.6615 159.76 71.6667C159.036 73.7344 158.271 74.8021 158.271 75.9687C158.271 78.2448 159.437 78.5729 160.292 79.4375C160.427 79.5521 160.552 79.6771 160.672 79.8125C161.359 80.5313 161.708 81.3906 161.708 82.3854C161.708 82.8854 161.615 83.3594 161.427 83.8177C161.234 84.2813 160.964 84.6823 160.615 85.0365C160.26 85.3854 159.859 85.6563 159.396 85.849C158.937 86.0365 158.464 86.1302 157.964 86.1302C155.896 85.8698 154.406 84.901 154.219 82.3854C154.219 75.1771 157.307 74.7187 157.307 69.3854C157.307 61.7656 150.474 58.1615 150.474 52.5937C150.474 50.7031 150.917 47.4896 153.589 44.9427H153.594Z" fill="#FFD900"/>
</g>
<defs>
<clipPath id="clip0_0_1">
<rect width="900" height="450" fill="white"/>
</clipPath>
</defs>
</svg>
