<svg width="900" height="450" viewBox="0 0 900 450" fill="none" xmlns="http://www.w3.org/2000/svg">
<g clip-path="url(#clip0_764_4304)">
<path d="M900 0H0V450H900V0Z" fill="#1E1E1E"/>
<mask id="mask0_764_4304" style="mask-type:luminance" maskUnits="userSpaceOnUse" x="0" y="0" width="900" height="450">
<path d="M900 0H0V450H900V0Z" fill="white"/>
</mask>
<g mask="url(#mask0_764_4304)">
<mask id="mask1_764_4304" style="mask-type:luminance" maskUnits="userSpaceOnUse" x="0" y="0" width="900" height="450">
<path d="M0 0H900V450H0V0Z" fill="white"/>
</mask>
<g mask="url(#mask1_764_4304)">
<path d="M0 0H900V450H0V0Z" fill="white"/>
<path d="M0 0H900V450H0V0Z" fill="#00785D"/>
</g>
<path d="M449.641 92L435.13 136.661L473.125 109.063H426.156L464.151 136.661L449.641 92Z" fill="#FBD116"/>
<path d="M449.641 317.719H353.708C352.5 316.495 351.313 315.245 350.151 313.974H449.641C450.406 314.25 450.932 314.953 450.974 315.75C451.016 316.609 450.474 317.417 449.641 317.719ZM449.641 288.385C450.198 287.25 451.281 284.615 450.792 281.318C450.568 279.823 450.083 278.62 449.641 277.75C444.255 282.844 434.146 291.01 419.224 295.521C412.26 297.63 404.87 298.76 397.219 298.76H338.12C339.859 301.323 341.687 303.823 343.599 306.25H400.729C419.359 306.25 436.422 299.531 449.641 288.385ZM347.047 265.271C344.203 266.365 341.156 267.047 337.974 267.234C351.891 282.979 372.229 292.911 394.88 292.911C416.391 292.911 435.818 283.953 449.641 269.562C451.984 253.385 453.693 234.87 453.896 214.417C454.135 190.599 452.281 169.281 449.641 151.068C443.469 156.604 431.901 168.562 426.448 186.891C424.406 193.755 423.313 201.021 423.313 208.547C423.313 224.161 428.031 238.677 436.125 250.75C426.188 237.917 420.271 221.812 420.271 204.333C420.271 192.724 422.88 181.719 427.547 171.875C424.328 168.469 421.88 164.328 420.495 159.719C414.245 170.755 410.672 183.5 410.672 197.078C410.672 213.969 416.198 229.573 425.536 242.187C409.276 225.141 386.344 214.516 360.943 214.516C359.578 214.516 358.219 214.547 356.87 214.609C359.427 216.99 361.573 219.807 363.188 222.937C388.453 222.979 411.266 233.536 427.49 250.458C411.995 237.516 392.052 229.724 370.307 229.724C358.151 229.724 346.563 232.156 336 236.562C346.854 265.245 374.578 285.656 407.047 285.656C409.151 285.656 411.234 285.562 413.297 285.396C408.911 286.182 404.401 286.594 399.792 286.594C379.307 286.594 360.714 278.469 347.047 265.271ZM449.641 348.375H399.922C415.313 354.49 432.083 357.854 449.641 357.854C450.063 357.052 450.792 355.411 450.813 353.219C450.833 350.911 450.068 349.188 449.641 348.375ZM449.641 325.443H361.99C364.359 327.474 366.802 329.427 369.313 331.292H449.641C449.844 331.089 450.833 330.031 450.833 328.37C450.833 326.703 449.844 325.646 449.641 325.443ZM449.641 337.146H377.844C382.193 339.885 386.703 342.391 391.37 344.63H449.641C449.979 344.099 450.776 342.677 450.724 340.708C450.682 338.953 449.984 337.688 449.641 337.146Z" fill="white"/>
<path d="M355.318 161.146L341.594 190.599L370.005 174.839L337.76 170.88L361.521 193.042L355.318 161.146Z" fill="#FBD116"/>
<path d="M378.833 121.932L388.333 153.005L398.917 122.276L372.292 140.917L404.786 141.484L378.833 121.932Z" fill="#FBD116"/>
<path d="M449.641 317.719H545.573C546.781 316.495 547.969 315.245 549.13 313.974H449.641C448.875 314.25 448.349 314.953 448.307 315.75C448.266 316.609 448.807 317.417 449.641 317.719ZM449.641 288.385C449.083 287.25 448 284.615 448.49 281.318C448.714 279.823 449.198 278.62 449.641 277.75C455.021 282.844 465.135 291.01 480.057 295.521C487.021 297.63 494.411 298.76 502.062 298.76H561.161C559.422 301.323 557.594 303.823 555.682 306.25H498.552C479.922 306.25 462.859 299.531 449.641 288.385ZM552.234 265.271C555.078 266.365 558.125 267.047 561.307 267.234C547.391 282.979 527.052 292.911 504.401 292.911C482.891 292.911 463.464 283.953 449.641 269.562C447.297 253.385 445.589 234.87 445.385 214.417C445.146 190.599 447 169.281 449.641 151.068C455.812 156.604 467.38 168.562 472.833 186.891C474.875 193.755 475.969 201.021 475.969 208.547C475.969 224.161 471.25 238.677 463.156 250.75C473.094 237.917 479.01 221.812 479.01 204.333C479.01 192.724 476.401 181.719 471.734 171.875C474.953 168.469 477.401 164.328 478.786 159.719C485.036 170.755 488.609 183.5 488.609 197.078C488.609 213.969 483.083 229.573 473.745 242.187C490.005 225.141 512.937 214.516 538.339 214.516C539.703 214.516 541.062 214.547 542.411 214.609C539.854 216.99 537.708 219.807 536.094 222.937C510.828 222.979 488.016 233.536 471.792 250.458C487.286 237.516 507.229 229.724 528.974 229.724C541.13 229.724 552.719 232.156 563.281 236.562C552.427 265.245 524.703 285.656 492.234 285.656C490.13 285.656 488.047 285.562 485.984 285.396C490.37 286.182 494.88 286.594 499.49 286.594C519.974 286.594 538.568 278.469 552.234 265.271ZM449.641 348.375H499.359C483.969 354.49 467.198 357.854 449.641 357.854C449.219 357.052 448.49 355.411 448.469 353.219C448.448 350.911 449.214 349.188 449.641 348.375ZM449.641 325.443H537.292C534.922 327.474 532.479 329.427 529.969 331.292H449.641C449.437 331.089 448.448 330.031 448.448 328.37C448.448 326.703 449.437 325.646 449.641 325.443ZM449.641 337.146H521.437C517.089 339.885 512.578 342.391 507.911 344.63H449.641C449.302 344.099 448.505 342.677 448.557 340.708C448.599 338.953 449.297 337.688 449.641 337.146Z" fill="white"/>
<path d="M543.964 161.146L557.688 190.599L529.276 174.839L561.521 170.88L537.76 193.042L543.964 161.146Z" fill="#FBD116"/>
<path d="M520.448 121.932L510.948 153.005L500.365 122.276L526.99 140.917L494.495 141.484L520.448 121.932Z" fill="#FBD116"/>
</g>
</g>
<defs>
<clipPath id="clip0_764_4304">
<rect width="900" height="450" fill="white"/>
</clipPath>
</defs>
</svg>
