<svg width="900" height="450" viewBox="0 0 900 450" fill="none" xmlns="http://www.w3.org/2000/svg">
<g clip-path="url(#clip0_764_6275)">
<path d="M900 0H0V450H900V0Z" fill="#1E1E1E"/>
<mask id="mask0_764_6275" style="mask-type:luminance" maskUnits="userSpaceOnUse" x="0" y="0" width="900" height="450">
<path d="M900 0H0V450H900V0Z" fill="white"/>
</mask>
<g mask="url(#mask0_764_6275)">
<mask id="mask1_764_6275" style="mask-type:luminance" maskUnits="userSpaceOnUse" x="-1" y="0" width="902" height="450">
<path d="M-1 -3.37219e-06H901V449.333H-1V-3.37219e-06Z" fill="white"/>
</mask>
<g mask="url(#mask1_764_6275)">
<path d="M-1 -3.37219e-06H901V449.333H-1V-3.37219e-06Z" fill="white"/>
<path d="M-1 -3.37219e-06H901V449.333H-1V-3.37219e-06Z" fill="white"/>
</g>
<path d="M516.781 167.151H551.135L561.911 134.802L572.688 167.151H607.042L578.75 187.823L590.203 220.625L561.911 200.401L533.62 220.625L545.073 187.823L516.781 167.151ZM393.516 150.526C393.922 152.568 394.385 154.604 394.901 156.625C395.411 158.651 395.984 160.667 396.604 162.672C397.224 164.677 397.901 166.667 398.63 168.646C399.354 170.625 400.135 172.594 400.969 174.542C401.802 176.495 402.687 178.432 403.62 180.349C404.557 182.266 405.542 184.172 406.578 186.052C407.615 187.937 408.703 189.797 409.839 191.641C410.974 193.49 412.156 195.307 413.391 197.109C414.625 198.911 415.906 200.687 417.234 202.443C418.557 204.198 419.932 205.927 421.354 207.63C422.771 209.333 424.234 211.01 425.745 212.661C427.255 214.312 428.807 215.937 430.401 217.531C431.995 219.125 433.63 220.687 435.313 222.224C436.99 223.76 438.708 225.266 440.464 226.734C442.224 228.208 444.021 229.646 445.854 231.057C447.693 232.464 449.563 233.833 451.469 235.172C453.38 236.516 455.323 237.818 457.297 239.083C459.276 240.354 461.286 241.583 463.328 242.781C465.375 243.974 467.448 245.135 469.552 246.255C471.656 247.375 473.786 248.453 475.953 249.495C478.115 250.536 480.302 251.542 482.516 252.505C484.734 253.469 486.974 254.391 489.24 255.271C491.5 256.151 493.786 256.99 496.099 257.786C498.406 258.589 500.734 259.344 503.089 260.057C505.438 260.766 507.802 261.437 510.188 262.068C512.573 262.693 514.974 263.276 517.391 263.818C519.807 264.354 522.234 264.849 524.677 265.302C527.12 265.755 529.573 266.161 532.036 266.521C534.5 266.885 536.974 267.203 539.453 267.474C541.938 267.745 544.422 267.974 546.917 268.156C549.411 268.339 551.906 268.474 554.406 268.562C556.906 268.656 559.411 268.703 561.911 268.703C564.417 268.703 566.917 268.656 569.417 268.562C571.917 268.474 574.411 268.339 576.906 268.156C579.401 267.974 581.885 267.745 584.37 267.474C586.849 267.203 589.323 266.885 591.786 266.521C594.25 266.161 596.703 265.755 599.146 265.302C601.589 264.849 604.016 264.354 606.432 263.818C608.849 263.276 611.25 262.693 613.635 262.068C616.021 261.437 618.391 260.766 620.74 260.057C623.089 259.344 625.417 258.589 627.724 257.786C630.036 256.99 632.323 256.151 634.589 255.271C636.849 254.391 639.089 253.469 641.307 252.505C643.521 251.542 645.714 250.536 647.875 249.495C650.036 248.453 652.167 247.375 654.271 246.255C656.38 245.135 658.453 243.974 660.495 242.781C662.536 241.583 664.547 240.354 666.526 239.083C668.505 237.818 670.448 236.516 672.354 235.172C674.26 233.833 676.135 232.464 677.969 231.057C679.802 229.646 681.599 228.208 683.359 226.734C685.115 225.266 686.833 223.76 688.516 222.224C690.193 220.687 691.828 219.125 693.422 217.531C695.021 215.937 696.573 214.312 698.078 212.661C699.589 211.01 701.052 209.333 702.474 207.63C703.891 205.927 705.266 204.198 706.594 202.443C707.922 200.687 709.198 198.911 710.432 197.109C711.667 195.307 712.849 193.49 713.984 191.641C715.12 189.797 716.208 187.937 717.245 186.052C718.281 184.172 719.266 182.266 720.203 180.349C721.141 178.432 722.021 176.495 722.854 174.542C723.688 172.594 724.469 170.625 725.198 168.646C725.922 166.667 726.599 164.677 727.219 162.672C727.844 160.667 728.411 158.651 728.927 156.625C729.438 154.604 729.901 152.568 730.307 150.526C730.307 153.214 730.24 155.896 730.104 158.573C729.969 161.255 729.766 163.932 729.495 166.604C729.224 169.276 728.891 171.937 728.484 174.594C728.078 177.245 727.609 179.891 727.073 182.521C726.531 185.156 725.932 187.776 725.26 190.375C724.589 192.979 723.854 195.568 723.057 198.135C722.255 200.703 721.391 203.25 720.464 205.781C719.536 208.307 718.542 210.812 717.49 213.292C716.432 215.771 715.318 218.224 714.141 220.651C712.964 223.073 711.724 225.474 710.422 227.839C709.125 230.208 707.766 232.542 706.349 234.844C704.932 237.146 703.458 239.411 701.927 241.646C700.396 243.875 698.807 246.068 697.167 248.224C695.526 250.38 693.833 252.495 692.083 254.573C690.333 256.646 688.536 258.677 686.682 260.667C684.833 262.656 682.932 264.599 680.984 266.5C679.036 268.396 677.042 270.245 675 272.047C672.958 273.849 670.87 275.604 668.74 277.307C666.609 279.01 664.438 280.661 662.224 282.26C660.01 283.859 657.76 285.401 655.469 286.896C653.177 288.385 650.849 289.823 648.484 291.198C646.12 292.578 643.724 293.901 641.292 295.167C638.865 296.432 636.401 297.641 633.911 298.786C631.417 299.937 628.901 301.021 626.354 302.052C623.807 303.078 621.24 304.042 618.641 304.948C616.047 305.849 613.432 306.693 610.797 307.474C608.156 308.25 605.5 308.969 602.828 309.62C600.156 310.271 597.469 310.859 594.766 311.38C592.063 311.906 589.349 312.365 586.62 312.76C583.896 313.151 581.161 313.479 578.417 313.745C575.677 314.005 572.927 314.203 570.177 314.339C567.422 314.469 564.667 314.536 561.911 314.536C559.156 314.536 556.401 314.469 553.651 314.339C550.896 314.203 548.151 314.005 545.406 313.745C542.661 313.479 539.927 313.151 537.203 312.76C534.479 312.365 531.76 311.906 529.057 311.38C526.359 310.859 523.667 310.271 520.995 309.62C518.323 308.969 515.667 308.25 513.031 307.474C510.391 306.693 507.776 305.849 505.182 304.948C502.589 304.042 500.016 303.078 497.469 302.052C494.922 301.021 492.406 299.937 489.911 298.786C487.422 297.641 484.964 296.432 482.531 295.167C480.099 293.901 477.703 292.578 475.339 291.198C472.974 289.823 470.646 288.385 468.354 286.896C466.068 285.401 463.813 283.859 461.599 282.26C459.385 280.661 457.214 279.01 455.083 277.307C452.953 275.604 450.865 273.849 448.823 272.047C446.781 270.245 444.786 268.396 442.839 266.5C440.891 264.599 438.99 262.656 437.141 260.667C435.286 258.677 433.49 256.646 431.74 254.573C429.995 252.495 428.297 250.38 426.656 248.224C425.016 246.068 423.427 243.875 421.896 241.646C420.365 239.411 418.891 237.146 417.474 234.844C416.057 232.542 414.698 230.208 413.401 227.839C412.104 225.474 410.865 223.073 409.682 220.651C408.505 218.224 407.391 215.771 406.333 213.292C405.281 210.812 404.286 208.307 403.359 205.781C402.432 203.25 401.568 200.703 400.766 198.135C399.969 195.568 399.234 192.979 398.563 190.375C397.896 187.776 397.292 185.156 396.75 182.521C396.214 179.891 395.745 177.245 395.339 174.594C394.938 171.937 394.599 169.276 394.328 166.604C394.057 163.932 393.854 161.255 393.719 158.573C393.583 155.896 393.516 153.214 393.516 150.526Z" fill="#FFD700"/>
<path d="M292.536 167.151H326.891L337.667 134.802L348.443 167.151H382.797L354.505 187.823L365.958 220.625L337.667 200.401L309.375 220.625L320.828 187.823L292.536 167.151ZM169.271 150.526C169.677 152.568 170.141 154.604 170.651 156.625C171.167 158.651 171.734 160.667 172.359 162.672C172.979 164.677 173.656 166.667 174.385 168.646C175.109 170.625 175.891 172.594 176.724 174.542C177.557 176.495 178.443 178.432 179.375 180.349C180.312 182.266 181.297 184.172 182.333 186.052C183.37 187.937 184.458 189.797 185.594 191.641C186.729 193.49 187.911 195.307 189.146 197.109C190.38 198.911 191.661 200.687 192.984 202.443C194.312 204.198 195.687 205.927 197.109 207.63C198.526 209.333 199.99 211.01 201.5 212.661C203.01 214.312 204.557 215.937 206.156 217.531C207.75 219.125 209.385 220.687 211.062 222.224C212.745 223.76 214.464 225.266 216.219 226.734C217.979 228.208 219.776 229.646 221.609 231.057C223.443 232.464 225.318 233.833 227.224 235.172C229.135 236.516 231.078 237.818 233.052 239.083C235.031 240.354 237.042 241.583 239.083 242.781C241.125 243.974 243.203 245.135 245.307 246.255C247.411 247.375 249.542 248.453 251.703 249.495C253.87 250.536 256.057 251.542 258.271 252.505C260.49 253.469 262.729 254.391 264.99 255.271C267.255 256.151 269.542 256.99 271.854 257.786C274.161 258.589 276.49 259.344 278.839 260.057C281.187 260.766 283.557 261.437 285.943 262.068C288.328 262.693 290.729 263.276 293.146 263.818C295.562 264.354 297.99 264.849 300.432 265.302C302.875 265.755 305.328 266.161 307.792 266.521C310.255 266.885 312.729 267.203 315.208 267.474C317.693 267.745 320.177 267.974 322.672 268.156C325.167 268.339 327.661 268.474 330.161 268.562C332.661 268.656 335.161 268.703 337.667 268.703C340.167 268.703 342.672 268.656 345.172 268.562C347.672 268.474 350.167 268.339 352.661 268.156C355.156 267.974 357.641 267.745 360.125 267.474C362.604 267.203 365.078 266.885 367.542 266.521C370.005 266.161 372.458 265.755 374.901 265.302C377.344 264.849 379.771 264.354 382.188 263.818C384.604 263.276 387.005 262.693 389.391 262.068C391.776 261.437 394.141 260.766 396.495 260.057C398.844 259.344 401.172 258.589 403.479 257.786C405.792 256.99 408.078 256.151 410.339 255.271C412.604 254.391 414.844 253.469 417.063 252.505C419.276 251.542 421.464 250.536 423.625 249.495C425.792 248.453 427.922 247.375 430.026 246.255C432.13 245.135 434.208 243.974 436.25 242.781C438.292 241.583 440.302 240.354 442.281 239.083C444.255 237.818 446.198 236.516 448.109 235.172C450.016 233.833 451.885 232.464 453.724 231.057C455.557 229.646 457.354 228.208 459.115 226.734C460.87 225.266 462.589 223.76 464.266 222.224C465.948 220.687 467.583 219.125 469.177 217.531C470.771 215.937 472.323 214.312 473.833 212.661C475.344 211.01 476.807 209.333 478.224 207.63C479.646 205.927 481.021 204.198 482.344 202.443C483.672 200.687 484.953 198.911 486.188 197.109C487.422 195.307 488.604 193.49 489.74 191.641C490.875 189.797 491.964 187.937 493 186.052C494.036 184.172 495.021 182.266 495.958 180.349C496.891 178.432 497.776 176.495 498.609 174.542C499.443 172.594 500.224 170.625 500.948 168.646C501.677 166.667 502.354 164.677 502.974 162.672C503.599 160.667 504.167 158.651 504.677 156.625C505.193 154.604 505.656 152.568 506.063 150.526C506.063 153.214 505.995 155.896 505.859 158.573C505.724 161.255 505.521 163.932 505.25 166.604C504.979 169.276 504.641 171.937 504.24 174.594C503.833 177.245 503.365 179.891 502.828 182.521C502.286 185.156 501.682 187.776 501.016 190.375C500.344 192.979 499.609 195.568 498.813 198.135C498.01 200.703 497.146 203.25 496.219 205.781C495.292 208.307 494.297 210.812 493.245 213.292C492.188 215.771 491.073 218.224 489.896 220.651C488.714 223.073 487.479 225.474 486.177 227.839C484.88 230.208 483.521 232.542 482.104 234.844C480.688 237.146 479.214 239.411 477.682 241.646C476.151 243.875 474.563 246.068 472.922 248.224C471.281 250.38 469.583 252.495 467.839 254.573C466.089 256.646 464.292 258.677 462.438 260.667C460.589 262.656 458.688 264.599 456.74 266.5C454.792 268.396 452.797 270.245 450.755 272.047C448.714 273.849 446.625 275.604 444.495 277.307C442.365 279.01 440.193 280.661 437.979 282.26C435.766 283.859 433.516 285.401 431.224 286.896C428.932 288.385 426.604 289.823 424.24 291.198C421.875 292.578 419.479 293.901 417.047 295.167C414.615 296.432 412.156 297.641 409.667 298.786C407.172 299.937 404.656 301.021 402.109 302.052C399.563 303.078 396.99 304.042 394.396 304.948C391.802 305.849 389.188 306.693 386.547 307.474C383.911 308.25 381.255 308.969 378.583 309.62C375.911 310.271 373.224 310.859 370.521 311.38C367.818 311.906 365.099 312.365 362.375 312.76C359.651 313.151 356.917 313.479 354.172 313.745C351.427 314.005 348.682 314.203 345.927 314.339C343.177 314.469 340.422 314.536 337.667 314.536C334.911 314.536 332.156 314.469 329.406 314.339C326.651 314.203 323.901 314.005 321.161 313.745C318.417 313.479 315.682 313.151 312.958 312.76C310.229 312.365 307.516 311.906 304.812 311.38C302.109 310.859 299.422 310.271 296.75 309.62C294.078 308.969 291.422 308.25 288.786 307.474C286.146 306.693 283.531 305.849 280.937 304.948C278.339 304.042 275.771 303.078 273.224 302.052C270.677 301.021 268.161 299.937 265.667 298.786C263.177 297.641 260.714 296.432 258.286 295.167C255.854 293.901 253.458 292.578 251.094 291.198C248.729 289.823 246.401 288.385 244.109 286.896C241.818 285.401 239.568 283.859 237.354 282.26C235.141 280.661 232.969 279.01 230.839 277.307C228.708 275.604 226.62 273.849 224.578 272.047C222.536 270.245 220.542 268.396 218.594 266.5C216.646 264.599 214.745 262.656 212.896 260.667C211.042 258.677 209.245 256.646 207.495 254.573C205.745 252.495 204.052 250.38 202.411 248.224C200.771 246.068 199.182 243.875 197.651 241.646C196.12 239.411 194.646 237.146 193.229 234.844C191.812 232.542 190.453 230.208 189.156 227.839C187.854 225.474 186.62 223.073 185.437 220.651C184.26 218.224 183.146 215.771 182.089 213.292C181.036 210.812 180.042 208.307 179.115 205.781C178.187 203.25 177.323 200.703 176.521 198.135C175.724 195.568 174.99 192.979 174.318 190.375C173.646 187.776 173.047 185.156 172.505 182.521C171.969 179.891 171.5 177.245 171.094 174.594C170.687 171.937 170.354 169.276 170.083 166.604C169.812 163.932 169.609 161.255 169.474 158.573C169.339 155.896 169.271 153.214 169.271 150.526Z" fill="#FFD700"/>
<mask id="mask2_764_6275" style="mask-type:luminance" maskUnits="userSpaceOnUse" x="-1" y="0" width="902" height="450">
<path d="M-1 -3.37219e-06H901V449.333H-1V-3.37219e-06Z" fill="white"/>
</mask>
<g mask="url(#mask2_764_6275)">
<path d="M-0.714164 -3.37219e-06H900.881V449.333H-0.714164V-3.37219e-06Z" fill="#D01C1F"/>
</g>
<mask id="mask3_764_6275" style="mask-type:luminance" maskUnits="userSpaceOnUse" x="-1" y="89" width="902" height="271">
<path d="M-1 89.3333H901V360H-1V89.3333Z" fill="white"/>
</mask>
<g mask="url(#mask3_764_6275)">
<path d="M-0.714164 89.8646H900.881V359.469H-0.714164V89.8646Z" fill="#00A95C"/>
</g>
<path d="M404.661 167.151H439.01L449.792 134.802L460.568 167.151H494.917L466.63 187.823L478.078 220.625L449.792 200.401L421.5 220.625L432.948 187.823L404.661 167.151ZM281.396 150.526C281.802 152.568 282.26 154.604 282.776 156.625C283.292 158.651 283.859 160.667 284.479 162.672C285.104 164.677 285.776 166.667 286.505 168.646C287.234 170.625 288.016 172.594 288.849 174.542C289.677 176.495 290.563 178.432 291.5 180.349C292.432 182.266 293.422 184.172 294.458 186.052C295.495 187.937 296.578 189.797 297.714 191.641C298.854 193.49 300.036 195.307 301.271 197.109C302.5 198.911 303.781 200.687 305.109 202.443C306.438 204.198 307.813 205.927 309.229 207.63C310.651 209.333 312.115 211.01 313.62 212.661C315.13 214.312 316.682 215.937 318.276 217.531C319.875 219.125 321.51 220.687 323.188 222.224C324.865 223.76 326.583 225.266 328.344 226.734C330.099 228.208 331.896 229.646 333.734 231.057C335.568 232.464 337.438 233.833 339.349 235.172C341.255 236.516 343.198 237.818 345.177 239.083C347.151 240.354 349.161 241.583 351.208 242.781C353.25 243.974 355.323 245.135 357.427 246.255C359.531 247.375 361.667 248.453 363.828 249.495C365.99 250.536 368.177 251.542 370.396 252.505C372.609 253.469 374.849 254.391 377.115 255.271C379.38 256.151 381.667 256.99 383.974 257.786C386.286 258.589 388.615 259.344 390.964 260.057C393.313 260.766 395.682 261.437 398.063 262.068C400.448 262.693 402.849 263.276 405.266 263.818C407.682 264.354 410.115 264.849 412.557 265.302C415 265.755 417.453 266.161 419.917 266.521C422.38 266.885 424.854 267.203 427.333 267.474C429.813 267.745 432.302 267.974 434.792 268.156C437.286 268.339 439.786 268.474 442.286 268.562C444.786 268.656 447.286 268.703 449.792 268.703C452.292 268.703 454.792 268.656 457.292 268.562C459.797 268.474 462.292 268.339 464.786 268.156C467.276 267.974 469.766 267.745 472.245 267.474C474.729 267.203 477.198 266.885 479.661 266.521C482.125 266.161 484.583 265.755 487.026 265.302C489.464 264.849 491.896 264.354 494.313 263.818C496.729 263.276 499.13 262.693 501.516 262.068C503.896 261.437 506.266 260.766 508.615 260.057C510.964 259.344 513.292 258.589 515.604 257.786C517.911 256.99 520.198 256.151 522.464 255.271C524.729 254.391 526.969 253.469 529.182 252.505C531.401 251.542 533.589 250.536 535.75 249.495C537.911 248.453 540.047 247.375 542.151 246.255C544.255 245.135 546.328 243.974 548.37 242.781C550.417 241.583 552.427 240.354 554.401 239.083C556.38 237.818 558.323 236.516 560.229 235.172C562.141 233.833 564.01 232.464 565.844 231.057C567.682 229.646 569.479 228.208 571.234 226.734C572.995 225.266 574.714 223.76 576.391 222.224C578.068 220.687 579.708 219.125 581.302 217.531C582.896 215.937 584.448 214.312 585.958 212.661C587.464 211.01 588.927 209.333 590.349 207.63C591.771 205.927 593.141 204.198 594.469 202.443C595.797 200.687 597.078 198.911 598.307 197.109C599.542 195.307 600.729 193.49 601.865 191.641C603 189.797 604.083 187.937 605.12 186.052C606.156 184.172 607.146 182.266 608.078 180.349C609.016 178.432 609.901 176.495 610.734 174.542C611.563 172.594 612.344 170.625 613.073 168.646C613.802 166.667 614.474 164.677 615.099 162.672C615.719 160.667 616.286 158.651 616.802 156.625C617.318 154.604 617.776 152.568 618.182 150.526C618.182 153.214 618.115 155.896 617.979 158.573C617.844 161.255 617.646 163.932 617.375 166.604C617.104 169.276 616.766 171.937 616.359 174.594C615.958 177.245 615.484 179.891 614.948 182.521C614.411 185.156 613.807 187.776 613.135 190.375C612.469 192.979 611.734 195.568 610.932 198.135C610.135 200.703 609.271 203.25 608.339 205.781C607.411 208.307 606.422 210.812 605.365 213.292C604.313 215.771 603.193 218.224 602.016 220.651C600.839 223.073 599.599 225.474 598.302 227.839C597 230.208 595.646 232.542 594.224 234.844C592.807 237.146 591.333 239.411 589.802 241.646C588.276 243.875 586.688 246.068 585.047 248.224C583.406 250.38 581.708 252.495 579.958 254.573C578.214 256.646 576.411 258.677 574.563 260.667C572.714 262.656 570.813 264.599 568.865 266.5C566.911 268.396 564.917 270.245 562.875 272.047C560.833 273.849 558.75 275.604 556.62 277.307C554.49 279.01 552.318 280.661 550.104 282.26C547.891 283.859 545.635 285.401 543.344 286.896C541.052 288.385 538.724 289.823 536.359 291.198C534 292.578 531.599 293.901 529.172 295.167C526.74 296.432 524.281 297.641 521.786 298.786C519.297 299.937 516.776 301.021 514.229 302.052C511.688 303.078 509.115 304.042 506.521 304.948C503.927 305.849 501.307 306.693 498.672 307.474C496.036 308.25 493.38 308.969 490.708 309.62C488.031 310.271 485.344 310.859 482.641 311.38C479.938 311.906 477.224 312.365 474.5 312.76C471.771 313.151 469.036 313.479 466.297 313.745C463.552 314.005 460.802 314.203 458.052 314.339C455.297 314.469 452.547 314.536 449.792 314.536C447.031 314.536 444.281 314.469 441.526 314.339C438.776 314.203 436.026 314.005 433.281 313.745C430.542 313.479 427.807 313.151 425.078 312.76C422.354 312.365 419.641 311.906 416.938 311.38C414.234 310.859 411.547 310.271 408.875 309.62C406.198 308.969 403.542 308.25 400.906 307.474C398.271 306.693 395.651 305.849 393.057 304.948C390.464 304.042 387.896 303.078 385.349 302.052C382.802 301.021 380.281 299.937 377.792 298.786C375.302 297.641 372.839 296.432 370.406 295.167C367.979 293.901 365.578 292.578 363.219 291.198C360.854 289.823 358.526 288.385 356.234 286.896C353.943 285.401 351.688 283.859 349.474 282.26C347.26 280.661 345.089 279.01 342.958 277.307C340.828 275.604 338.745 273.849 336.703 272.047C334.661 270.245 332.667 268.396 330.714 266.5C328.766 264.599 326.87 262.656 325.016 260.667C323.167 258.677 321.365 256.646 319.62 254.573C317.87 252.495 316.177 250.38 314.531 248.224C312.891 246.068 311.307 243.875 309.776 241.646C308.245 239.411 306.771 237.146 305.354 234.844C303.938 232.542 302.578 230.208 301.276 227.839C299.979 225.474 298.74 223.073 297.563 220.651C296.385 218.224 295.266 215.771 294.214 213.292C293.156 210.812 292.167 208.307 291.24 205.781C290.307 203.25 289.443 200.703 288.646 198.135C287.844 195.568 287.109 192.979 286.443 190.375C285.771 187.776 285.167 185.156 284.63 182.521C284.094 179.891 283.62 177.245 283.219 174.594C282.813 171.937 282.474 169.276 282.203 166.604C281.932 163.932 281.734 161.255 281.599 158.573C281.464 155.896 281.396 153.214 281.396 150.526Z" fill="#FFD700"/>
</g>
</g>
<defs>
<clipPath id="clip0_764_6275">
<rect width="900" height="450" fill="white"/>
</clipPath>
</defs>
</svg>
