<svg width="900" height="450" viewBox="0 0 900 450" fill="none" xmlns="http://www.w3.org/2000/svg">
<g clip-path="url(#clip0_764_6383)">
<path d="M900 0H0V450H900V0Z" fill="#1E1E1E"/>
<mask id="mask0_764_6383" style="mask-type:luminance" maskUnits="userSpaceOnUse" x="0" y="0" width="900" height="450">
<path d="M900 0H0V450H900V0Z" fill="white"/>
</mask>
<g mask="url(#mask0_764_6383)">
<mask id="mask1_764_6383" style="mask-type:luminance" maskUnits="userSpaceOnUse" x="0" y="0" width="900" height="450">
<path d="M0 0H900V450H0V0Z" fill="white"/>
</mask>
<g mask="url(#mask1_764_6383)">
<path d="M0 0H900V450H0V0Z" fill="white"/>
<path d="M0 0H900V450H0V0Z" fill="white"/>
<path d="M0 0H900V450H0V0Z" fill="#012169"/>
</g>
<mask id="mask2_764_6383" style="mask-type:luminance" maskUnits="userSpaceOnUse" x="0" y="0" width="705" height="450">
<path d="M0 0H704.667V449.333H0V0Z" fill="white"/>
</mask>
<g mask="url(#mask2_764_6383)">
<path d="M0 0L449.333 224.667M449.333 0L0 224.667" stroke="white" stroke-width="44.9334"/>
</g>
<mask id="mask3_764_6383" style="mask-type:luminance" maskUnits="userSpaceOnUse" x="0" y="0" width="525" height="263">
<path d="M0 0H524.224V262.109H0V0Z" fill="white"/>
</mask>
<g mask="url(#mask3_764_6383)">
<mask id="mask4_764_6383" style="mask-type:luminance" maskUnits="userSpaceOnUse" x="0" y="0" width="525" height="263">
<path d="M0 0V112.333H524.224V224.667H449.333L0 0ZM449.333 0H224.667V262.109H0V224.667L449.333 0Z" fill="white"/>
</mask>
<g mask="url(#mask4_764_6383)">
<path d="M0 0L449.333 224.667M449.333 0L0 224.667" stroke="#C8102E" stroke-width="29.9556"/>
</g>
</g>
<mask id="mask5_764_6383" style="mask-type:luminance" maskUnits="userSpaceOnUse" x="0" y="0" width="562" height="300">
<path d="M0 0H562V300H0V0Z" fill="white"/>
</mask>
<g mask="url(#mask5_764_6383)">
<path d="M224.667 0V262.109M0 112.333H524.224" stroke="white" stroke-width="74.8891"/>
</g>
<mask id="mask6_764_6383" style="mask-type:luminance" maskUnits="userSpaceOnUse" x="0" y="0" width="548" height="286">
<path d="M0 0H547.333V285.333H0V0Z" fill="white"/>
</mask>
<g mask="url(#mask6_764_6383)">
<path d="M224.667 0V262.109M0 112.333H524.224" stroke="#C8102E" stroke-width="44.9334"/>
</g>
<mask id="mask7_764_6383" style="mask-type:luminance" maskUnits="userSpaceOnUse" x="0" y="0" width="900" height="450">
<path d="M0 0H900V450H0V0Z" fill="white"/>
</mask>
<g mask="url(#mask7_764_6383)">
<path d="M0 225H450V0H900V450H0V225Z" fill="#012169"/>
</g>
<path d="M576.911 110.479H769.286L769.057 247.37C770.656 302.396 736.359 336.542 673.25 351.938C628.443 340.813 576.766 317.792 576.688 248.932L576.917 110.479H576.911Z" fill="white"/>
<path d="M581.172 114.609H765.016L764.797 245.781C766.328 298.51 733.547 331.229 673.24 345.984C630.412 335.318 581.026 313.26 580.953 247.276L581.172 114.609Z" fill="#00A2BD" stroke="black" stroke-width="1.35774"/>
<path d="M763.589 261.318C756.901 311.651 718.141 333.641 673.234 345.313C633.49 334.651 590.724 317.63 582.438 261.568L763.594 261.318H763.589Z" fill="#A53D08"/>
<path d="M665.953 139.042L665.698 122.51L678.771 122.635L678.896 139.042H714.651L714.781 151.859L678.896 151.984L678.609 303.125L665.859 303.203L665.698 151.859L630.062 151.984L630.073 138.911L665.953 139.042Z" fill="black"/>
<path fill-rule="evenodd" clip-rule="evenodd" d="M637.011 267.552L669.74 301.505C681.052 289.068 673.203 242.573 658.318 234.01C656.537 239.516 653.5 246.115 650.276 248.245C643.182 253.078 625.792 258.734 631.604 262.354C632.932 260.521 636.396 258.787 638.026 262.865C639.964 269.287 630.787 269.693 630.787 269.693C630.787 269.693 624.979 268.979 623.958 263.068C622.938 257.156 632.615 251.755 633.438 251.344C634.255 251.037 646.896 247.672 649.042 236.453C651.693 225.443 654.443 227.078 654.953 226.87C671.469 228.5 682.276 258.073 682.891 278.87C683.5 299.672 674.427 313.438 672.797 314.354C671.167 315.271 633.438 269.594 633.438 269.594L637.011 267.552Z" fill="#FF9A08" stroke="black" stroke-width="0.724926"/>
<path d="M660.87 235.948L661.068 297.224M657.198 237.068L657.401 292.74M653.219 245.12L653.422 289.375M649.958 248.281L650.162 284.885M646.49 249.917V280.807M642.719 252.359V276.833M639.458 254.297V273.057" stroke="black" stroke-width="0.724926"/>
<path d="M636.5 271.427L670.245 310.073" stroke="#FFDF00" stroke-width="0.724926" stroke-linecap="round"/>
<path d="M671.88 247.057C671.88 247.057 687.172 280.505 673 308.031M632.521 264.391C632.521 264.391 633.646 261.438 635.073 262.662M629.87 255.828C629.87 255.828 623.755 261.229 627.12 264.698" stroke="#FFDF00" stroke-width="1.35774" stroke-linecap="round"/>
<path d="M678.995 170.781C681.261 168.839 682.438 167.651 683.839 167.865C685.245 168.083 687.151 167.974 688.557 167.542C689.964 167.109 696.927 166.245 699.787 167.219C700.761 167.323 702.057 167.865 704.052 169.537C706.052 171.214 708.964 174.125 707.995 182.224C707.021 190.323 707.339 193.787 706.912 198.313C706.162 206.307 704.386 212.885 701.193 212.354C705.511 219.912 705.943 226.391 708.75 231.573C711.557 236.755 713.281 247.339 712.203 258.781C711.125 270.229 708.104 295.927 717.172 313.203C715.656 314.287 711.99 313.203 708.75 309.75C705.511 306.292 704.089 306.406 701.406 308.453C693.203 314.714 685.516 322.266 674.198 314.714C671.604 312.99 670.787 310.917 672.688 305.646C677.438 292.474 679.745 274.396 678.995 265.912V170.781Z" fill="#008021" stroke="black" stroke-width="0.298807"/>
<path d="M686.776 162.682C687.37 164.516 687.693 166.891 686.719 169.052C685.75 171.214 685.537 173.802 687.151 176.932C689.745 173.266 693.417 174.021 695.573 171.859C697.735 169.698 698.167 167.646 699.787 167.219C698.167 165.813 695.682 164.302 696.224 160.198C696.766 156.094 702.485 152.75 697.302 146.484C693.959 142.443 689.094 143.568 686.99 145.135C686 145.87 685.156 146.917 684.833 147.62C684.505 148.318 684.917 149.917 684.13 150.859C683.557 151.552 682.912 152.161 682.182 152.693C681.703 153.047 681.396 153.557 681.917 154.151C682.125 154.391 682.5 154.438 682.917 154.583C682.677 155.068 682.401 155.552 682.136 155.906C681.875 156.234 681.985 156.552 682.292 156.818C681.886 158.115 682.672 158.255 682.13 159.224C681.662 160.068 681.026 161.063 682.781 162.031C683.266 162.302 685.563 162.839 686.776 162.682ZM665.776 184.172C662.75 184.927 657.891 183.63 654.219 184.063C652.599 184.25 651.302 183.412 651.521 181.792C651.735 180.172 651.953 177.693 651.625 175.422C651.125 171.891 652.818 167 655.193 161.604C657.563 156.203 658.755 153.177 658.755 150.641C658.755 148.969 658.917 147.078 660.427 146.109C661.547 145.391 661.761 144.693 662.156 144.109C663.073 142.76 663.938 142.438 664.047 143.245C664.11 143.729 663.938 144.161 663.505 144.813C664.474 144 666.125 143.057 666.5 142.786C666.88 142.516 668.797 141.167 668.906 142.438C669.662 142.057 670.172 142.083 670.365 142.49C670.568 142.927 670.443 143.109 670.063 143.432C670.604 143.328 671.224 144.271 670.146 145.109C670.714 144.922 671.276 145.865 670.281 146.729C669.25 147.62 668.068 148.24 667.688 148.943C667.313 149.646 664.745 151.615 663.724 152.047C662.693 152.479 662.641 153.068 662.641 154.583C662.641 171.214 660.646 169.859 660.646 173.859C660.646 174.938 660.427 175.912 661.511 175.583C662.589 175.26 664.151 174.776 665.776 174.776V184.172ZM666.422 220.016C671.302 217.578 676.896 216.672 679.807 215.917C682.724 215.156 687.37 212.891 689.636 211.703C691.906 210.516 693.74 208.896 695.037 208.464C696.333 208.031 697.781 207.141 698.599 205.547C702.807 197.344 705.078 190.755 705.078 185.031C705.078 181.255 704.11 177.042 700.432 180.068C696.985 182.906 693.224 188.385 692.229 192.375C690.714 198.422 689.422 199.719 689.094 200.906C688.771 202.094 687.552 202.094 686.073 202.417C679.703 203.823 678.188 204.792 673.438 208.359C668.693 211.922 663.505 215.052 660.052 216.995C656.594 218.938 655.948 219.156 655.193 220.719C654.438 222.287 653.735 223.474 653.089 224.177C652.438 224.875 652.25 225.698 652.386 226.552C652.495 227.255 652.167 230.49 652.115 231.573C652.057 232.651 652.328 232.922 652.766 232.974C653.193 233.031 653.787 232.813 654.005 231.516C653.787 232.813 655.568 232.38 655.677 231.412C655.62 232.813 657.516 232.005 657.625 230.708C657.625 231.625 659.052 230.99 659.188 230.547C659.511 229.469 659.776 228.281 660.208 227.417C660.839 226.162 661.516 224.537 662.75 223.635C664.156 222.609 663.505 221.474 666.422 220.016ZM701.406 308.453C701.735 309.641 702.323 310.99 702.537 311.802C702.755 312.609 702.375 312.865 702.162 313.313C701.031 315.688 699.813 319.474 699.625 321.521C699.521 322.708 698.708 323.839 698.328 324.542C697.912 325.318 698.073 325.912 699.031 326.646C699.49 327 700.974 326.542 701.136 325.781C701.677 326.323 702.646 326.109 703.078 325.297C703.568 325.781 704.375 325.458 704.917 324.651C705.401 324.974 706.104 324.328 706.37 323.896C707.13 324.271 707.943 323.813 707.964 322.328C707.969 322.031 708.156 321.521 708.375 321.167C708.584 320.818 708.667 320.141 708.641 319.547C708.615 318.953 708.995 317.766 709.505 316.932C710.016 316.094 710.906 314.609 710.531 313.203C710.177 311.896 709.615 312.016 709.125 310.125C707.943 308.885 706.318 307.156 704.646 307.047C702.974 306.943 702 308.073 701.406 308.453ZM670.688 317.74C672.198 319.25 675.599 319.302 677.974 316.766C677.115 316.391 675.219 315.526 674.36 314.823C673.172 316.01 671.818 317.359 670.688 317.74Z" fill="#FFE1CF" stroke="black" stroke-width="0.298807"/>
<path d="M685.969 146.052C686.557 142.219 689.276 142.313 690.985 142.703C691.688 142.87 693.417 143.031 695.037 142.599C698.24 141.745 700.651 142.87 700.328 145.943C701.193 146.594 702.104 148.104 701.948 149.401C701.787 150.698 702.052 151.234 703.245 151.396C704.427 151.563 706.969 153.016 705.292 155.068C706.912 156.042 708.156 158.526 707.292 160.198C706.427 161.87 703.839 162.141 702.755 160.63C701.573 161.172 699.625 161.276 698.438 160.036C697.625 161.005 695.573 160.901 695.198 160.036C694.823 159.172 694.183 158.708 693.417 158.469C692.552 158.203 692.5 155.823 693.792 155.557C693.63 154.854 693.688 154.042 694.011 153.667C694.334 153.286 694.063 152.589 693.308 151.99C692.552 151.396 691.906 149.13 692.662 147.891C691.365 148.323 688.505 147.078 687.912 146.214C687.313 145.349 686.511 145.297 685.969 146.052Z" fill="#870F00" stroke="black" stroke-width="0.298807"/>
<path d="M686.776 162.682C688.88 162.411 689.583 161.115 691.146 161.224M682.292 156.818C682.432 156.938 682.61 157.036 682.807 157.146C683.235 157.38 683.698 157.406 684.13 157.458M682.917 154.583C683.214 154.688 683.526 154.833 683.807 155.125M687.802 146.052C686.557 144.865 689.906 142.438 693.417 145.891C694.073 146.536 695.735 146.542 696.224 146.375M692.662 147.891C694.281 147.51 696.709 147.51 697.412 149.344C698.115 151.182 699.521 149.995 700.651 152.156C701.787 154.313 703.568 156.745 705.292 155.068M698.438 160.036C697.948 159.391 697.735 157.984 698.057 157.01C697.412 156.255 697.677 154.693 698.057 153.938M693.792 155.557C693.849 156.203 694.714 157.391 696.063 157.609M702.755 160.63C702 159.656 702.104 158.797 702.271 157.609" stroke="black" stroke-width="0.298807"/>
<path d="M694.875 149.885C694.823 150.859 695.417 152.156 696.438 152.583C696.656 153.125 697.735 154.635 699.896 154.422M700.328 145.943C699.146 145.026 697.537 143.896 695.417 143.615M687.151 176.932C685.318 179.417 684.13 182.875 684.995 187.734C685.86 192.594 687.261 199.719 683.698 202.958M701.193 212.354C698.708 211.813 695.146 211.813 693.198 213.214C691.255 214.62 688.016 214.729 685.86 213.646" stroke="black" stroke-width="0.298807"/>
<path d="M695.953 212.188C693.792 212.568 692.771 214.078 692.771 218.073C692.771 222.068 691.906 227.901 692.662 233.625M692.011 213.865C690.61 214.24 689.151 214.297 689.422 218.073M684.724 218.182C684.776 215.859 685.589 213.703 687.099 214.078M700.271 218.615C700.38 213.484 699.25 212.026 697.735 212.083C699.787 212.135 701.188 212.385 702.057 220.776C702.703 227.037 704.011 229.255 705.511 234.167C709.396 246.906 707.453 266.557 709.396 273.469M697.302 220.125C701.406 232.005 703.568 245.177 696.875 266.339C701.406 278.865 705.943 287.938 706.802 293.12M684.344 248.198C685.099 245.5 682.401 245.177 684.776 235.677C685.807 231.557 685.969 229.089 685.318 227.792M685.318 233.406C684.344 237.62 688.453 245.5 686.401 251.224M681.323 252.302C681.323 255.974 682.182 260.724 681.969 264.396C681.755 268.068 683.25 269.771 684.995 273.25C691.255 285.776 695.516 294.714 694.927 306.511C694.823 308.672 695.573 313.203 693.307 314.5M681.485 317.688C682.13 317.74 682.833 317.417 683.646 315.474C684.453 313.526 687.047 301.865 685.969 293.875M687.261 302.948C687.584 305.432 687.583 310.505 685.969 314.5M691.365 295.495C692.339 300.787 692.229 305.537 691.474 308.886M689.203 308.886C689.313 311.042 690.287 316.443 688.662 316.875M697.307 283.833C701.297 290.099 704.427 305.537 707.776 308.776M700.761 306.292C700.651 304.568 700.542 302.188 699.568 301.109M657.625 230.708C657.677 229.521 657.464 228.385 658.755 226.552M655.677 231.412C655.839 227.255 655.787 226.875 656.974 225.74M654.005 231.516C654.057 228.547 653.677 227.521 654.87 225.635M668.906 142.438C668.443 142.734 665.745 144.781 664.615 145.651M670.063 143.432C669.552 143.516 668.068 144.729 665.427 146.781M670.146 145.109C669.313 145.484 667.719 147.026 666.261 148.052M663.505 144.813C663.104 145.109 662.323 145.974 661.943 146.271M701.136 325.781C700.896 325.516 700.896 324.568 701.323 323.516M703.078 325.297C702.787 325 703.078 323.703 703.375 322.87M704.917 324.651C704.568 324.49 704.459 323.734 704.969 322.708M706.37 323.896C706.13 323.813 706.021 323.406 706.453 322.219" stroke="black" stroke-width="0.298807"/>
<path d="M685.13 149.453C685.911 150.479 686.719 150.37 686.865 151.031C687.005 151.693 687.109 151.74 687.26 151.938C687.411 152.13 686.891 152.094 686.635 151.99C686.385 151.885 685.75 151.896 685.359 151.901C684.974 151.906 684.516 151.448 684.807 151.396C685.089 151.344 685.052 151.255 685.01 151.052C684.969 150.854 685.172 150.531 685.292 150.474C685.411 150.417 685.328 150.427 685.219 150.156C685.104 149.891 684.964 149.234 685.13 149.453ZM685.604 148.516C686.479 148.62 687.99 149.094 688.812 150C689.453 150.714 688.932 150.521 688.604 150.552C688.276 150.578 687.635 150.344 687.312 149.937C686.995 149.536 686.042 149.021 685.536 148.885C685.229 148.807 684.937 148.437 685.604 148.516Z" fill="black"/>
</g>
</g>
<defs>
<clipPath id="clip0_764_6383">
<rect width="900" height="450" fill="white"/>
</clipPath>
</defs>
</svg>
