<svg width="900" height="450" viewBox="0 0 900 450" fill="none" xmlns="http://www.w3.org/2000/svg">
<rect width="900" height="450" fill="#1E1E1E"/>
<g clip-path="url(#clip0_0_1)">
<mask id="mask0_0_1" style="mask-type:luminance" maskUnits="userSpaceOnUse" x="0" y="0" width="901" height="451">
<path d="M0 -3.37219e-06H901V451H0V-3.37219e-06Z" fill="white"/>
</mask>
<g mask="url(#mask0_0_1)">
<path d="M0 -3.37219e-06H901V451H0V-3.37219e-06Z" fill="white"/>
<path d="M0 -3.37219e-06H901V451H0V-3.37219e-06Z" fill="white"/>
<path d="M0.281981 -3.37219e-06H900.718V601.337H0.281981V-3.37219e-06Z" fill="#C8102E"/>
</g>
<mask id="mask1_0_1" style="mask-type:luminance" maskUnits="userSpaceOnUse" x="0" y="0" width="450" height="450">
<path d="M0 -3.37219e-06H450V450H0V-3.37219e-06Z" fill="white"/>
</mask>
<g mask="url(#mask1_0_1)">
<path d="M0.281251 -3.37219e-06H449.333V600.003H0.281251V-3.37219e-06Z" fill="white"/>
</g>
<path d="M23.1198 82.7031V128.094H68.4792C68.4792 135.656 76.0417 143.224 83.5989 143.224V188.609H128.958V143.224C136.516 143.224 144.078 135.656 144.078 128.094H189.437V82.7031H144.078C144.078 75.1406 136.516 67.5781 128.958 67.5781V22.1927H83.5989V67.5781C76.0417 67.5781 68.4792 75.1406 68.4792 82.7031H23.1198Z" fill="#C8102E"/>
<path d="M26.1458 85.7292V125.068H71.5052C71.5052 132.63 79.0625 140.198 86.625 140.198V185.583H125.932V140.198C133.495 140.198 141.052 132.63 141.052 125.068H186.411V85.7292H141.052C141.052 78.1667 133.495 70.599 125.932 70.599V25.2135H86.625V70.599C79.0625 70.599 71.5052 78.1667 71.5052 85.7292H26.1458Z" fill="#96877D"/>
<path d="M27.6614 87.2448V123.552H73.0156C73.0156 131.115 80.5781 138.682 88.1354 138.682V184.073H124.422V138.682C131.984 138.682 139.542 131.115 139.542 123.552H184.901V87.2448H139.542C139.542 79.6823 131.984 72.1146 124.422 72.1146V26.7292H88.1354V72.1146C80.5781 72.1146 73.0156 79.6823 73.0156 87.2448H27.6614Z" fill="#CCCCCC"/>
<path d="M85.3073 71.5729C87.9635 74.2344 87.2448 79.2656 83.7031 82.8073C80.1562 86.3542 75.1302 87.0729 72.474 84.4115C69.8177 81.7552 70.5365 76.724 74.0781 73.1771C77.6198 69.6354 82.6458 68.9167 85.3073 71.5729Z" fill="#96877D"/>
<path d="M71.9375 79.599L73.0104 78.526L77.2865 80.6667L75.1458 76.3854L76.2135 75.3177L80.4948 83.875L71.9375 79.5938V79.599ZM78.3542 73.1771L79.4219 72.1094L85.8385 78.526L84.7708 79.599L78.3542 73.1771Z" fill="#D0D0D0"/>
<path d="M140.083 84.4115C137.427 87.0729 132.401 86.3542 128.859 82.8073C125.318 79.2656 124.599 74.2344 127.255 71.5729C129.911 68.9167 134.937 69.6354 138.479 73.1823C142.021 76.724 142.74 81.7552 140.083 84.4115Z" fill="#96877D"/>
<path d="M132.068 71.0417L133.135 72.1094L131 76.3906L135.276 74.25L136.344 75.3177L127.792 79.599L132.068 71.0417ZM138.479 77.4583L139.552 78.5312L133.135 84.9479L132.068 83.8802L138.479 77.4583Z" fill="#D0D0D0"/>
<path d="M127.255 139.229C124.599 136.568 125.318 131.536 128.859 127.995C132.401 124.448 137.427 123.729 140.083 126.391C142.74 129.047 142.021 134.078 138.479 137.62C134.937 141.167 129.911 141.885 127.255 139.229Z" fill="#96877D"/>
<path d="M140.62 131.203L139.552 132.276L135.271 130.135L137.411 134.417L136.344 135.484L132.068 126.927L140.62 131.208V131.203ZM134.203 137.625L133.135 138.693L126.719 132.276L127.792 131.203L134.203 137.625Z" fill="#D0D0D0"/>
<path d="M72.474 126.391C75.1302 123.729 80.1562 124.448 83.7031 127.995C87.2448 131.536 87.9635 136.568 85.3073 139.229C82.6458 141.885 77.6198 141.167 74.0781 137.62C70.5365 134.078 69.8177 129.047 72.474 126.391Z" fill="#96877D"/>
<path d="M80.4896 139.76L79.4219 138.693L81.5573 134.411L77.2812 136.552L76.2135 135.484L84.7656 131.203L80.4896 139.76ZM74.0781 133.344L73.0104 132.271L79.4219 125.854L80.4896 126.922L74.0781 133.344Z" fill="#D0D0D0"/>
<path d="M138.036 105.401C138.036 106.443 137.984 107.479 137.88 108.516C137.781 109.552 137.625 110.578 137.422 111.599C137.224 112.62 136.969 113.63 136.667 114.625C136.364 115.62 136.016 116.599 135.62 117.562C135.219 118.521 134.776 119.463 134.286 120.38C133.797 121.297 133.26 122.187 132.682 123.052C132.104 123.922 131.484 124.755 130.828 125.557C130.167 126.364 129.469 127.135 128.734 127.87C128 128.604 127.229 129.302 126.427 129.963C125.62 130.625 124.786 131.245 123.922 131.823C123.057 132.401 122.167 132.932 121.25 133.422C120.333 133.917 119.391 134.359 118.432 134.755C117.469 135.156 116.495 135.505 115.5 135.807C114.5 136.109 113.495 136.364 112.474 136.568C111.453 136.766 110.427 136.922 109.391 137.021C108.359 137.125 107.318 137.177 106.281 137.177C105.24 137.177 104.203 137.125 103.167 137.021C102.13 136.922 101.104 136.766 100.083 136.568C99.0624 136.364 98.0572 136.109 97.0624 135.807C96.0676 135.505 95.0885 135.156 94.1249 134.755C93.1666 134.359 92.2291 133.917 91.3124 133.422C90.3906 132.932 89.4999 132.401 88.6354 131.823C87.7708 131.245 86.9374 130.625 86.1354 129.963C85.3281 129.302 84.5624 128.604 83.8229 127.87C83.0885 127.135 82.3906 126.364 81.7343 125.557C81.0729 124.755 80.4531 123.922 79.8749 123.052C79.2968 122.187 78.7656 121.297 78.276 120.38C77.7812 119.463 77.3385 118.521 76.9427 117.562C76.5416 116.599 76.1927 115.62 75.8906 114.625C75.5885 113.63 75.3385 112.62 75.1354 111.599C74.9322 110.578 74.7812 109.552 74.677 108.516C74.5729 107.479 74.526 106.443 74.526 105.401C74.526 104.359 74.5729 103.323 74.677 102.286C74.7812 101.25 74.9322 100.224 75.1354 99.2031C75.3385 98.1822 75.5885 97.1718 75.8906 96.177C76.1927 95.1822 76.5416 94.2031 76.9427 93.2395C77.3385 92.2812 77.7812 91.3385 78.276 90.4218C78.7656 89.5051 79.2968 88.6145 79.8749 87.7499C80.4531 86.8801 81.0729 86.0468 81.7343 85.2447C82.3906 84.4374 83.0885 83.6666 83.8229 82.9322C84.5624 82.1979 85.3281 81.4999 86.1354 80.8385C86.9374 80.177 87.7708 79.5572 88.6354 78.9791C89.4999 78.401 90.3906 77.8697 91.3124 77.3802C92.2291 76.8854 93.1666 76.4427 94.1249 76.0468C95.0885 75.6458 96.0676 75.2968 97.0624 74.9947C98.0572 74.6927 99.0624 74.4374 100.083 74.2343C101.104 74.0312 102.13 73.8802 103.167 73.7812C104.203 73.677 105.24 73.6249 106.281 73.6249C107.318 73.6249 108.359 73.677 109.391 73.7812C110.427 73.8802 111.453 74.0312 112.474 74.2343C113.495 74.4374 114.5 74.6927 115.5 74.9947C116.495 75.2968 117.469 75.6458 118.432 76.0468C119.391 76.4427 120.333 76.8854 121.25 77.3802C122.167 77.8697 123.057 78.401 123.922 78.9791C124.786 79.5572 125.62 80.177 126.427 80.8385C127.229 81.4999 128 82.1979 128.734 82.9322C129.469 83.6666 130.167 84.4374 130.828 85.2447C131.484 86.0468 132.104 86.8801 132.682 87.7499C133.26 88.6145 133.797 89.5051 134.286 90.4218C134.776 91.3385 135.219 92.2812 135.62 93.2395C136.016 94.2031 136.364 95.1822 136.667 96.177C136.969 97.1718 137.224 98.1822 137.422 99.2031C137.625 100.224 137.781 101.25 137.88 102.286C137.984 103.323 138.036 104.359 138.036 105.401Z" stroke="#96877D" stroke-width="0.513079"/>
<path d="M130.474 105.401C130.474 106.193 130.432 106.984 130.359 107.776C130.281 108.562 130.161 109.344 130.01 110.125C129.854 110.901 129.661 111.672 129.432 112.427C129.203 113.187 128.937 113.932 128.63 114.667C128.328 115.396 127.989 116.115 127.614 116.812C127.245 117.51 126.838 118.193 126.396 118.849C125.958 119.51 125.484 120.146 124.979 120.76C124.479 121.37 123.948 121.958 123.385 122.521C122.828 123.078 122.24 123.609 121.63 124.114C121.016 124.62 120.38 125.088 119.719 125.531C119.062 125.969 118.385 126.38 117.682 126.75C116.984 127.125 116.271 127.463 115.536 127.766C114.807 128.073 114.062 128.338 113.302 128.568C112.547 128.797 111.776 128.99 111 129.146C110.224 129.302 109.437 129.417 108.651 129.495C107.865 129.573 107.073 129.609 106.281 129.609C105.49 129.609 104.698 129.573 103.906 129.495C103.12 129.417 102.338 129.302 101.557 129.146C100.781 128.99 100.016 128.797 99.2551 128.568C98.4999 128.338 97.7551 128.073 97.0208 127.766C96.2864 127.463 95.5728 127.125 94.8749 126.75C94.177 126.38 93.4947 125.969 92.8385 125.531C92.177 125.088 91.5416 124.62 90.9322 124.114C90.3176 123.609 89.7343 123.078 89.1718 122.521C88.6093 121.958 88.0781 121.37 87.5781 120.76C87.0729 120.146 86.6041 119.51 86.1614 118.849C85.7239 118.193 85.3176 117.51 84.9426 116.812C84.5676 116.115 84.2291 115.396 83.927 114.667C83.6249 113.932 83.3593 113.187 83.1249 112.427C82.8958 111.672 82.7031 110.901 82.552 110.125C82.3958 109.344 82.2812 108.562 82.2031 107.776C82.1249 106.984 82.0833 106.193 82.0833 105.401C82.0833 104.609 82.1249 103.818 82.2031 103.026C82.2812 102.24 82.3958 101.453 82.552 100.677C82.7031 99.901 82.8958 99.1301 83.1249 98.3749C83.3593 97.6145 83.6249 96.8697 83.927 96.1354C84.2291 95.4062 84.5676 94.6874 84.9426 93.9895C85.3176 93.2916 85.7239 92.6093 86.1614 91.9531C86.6041 91.2916 87.0729 90.6562 87.5781 90.0416C88.0781 89.4322 88.6093 88.8437 89.1718 88.2812C89.7343 87.7239 90.3176 87.1874 90.9322 86.6874C91.5416 86.1822 92.177 85.7135 92.8385 85.2708C93.4947 84.8333 94.177 84.4218 94.8749 84.052C95.5728 83.677 96.2864 83.3385 97.0208 83.0364C97.7551 82.7291 98.4999 82.4635 99.2551 82.2343C100.016 82.0052 100.781 81.8124 101.557 81.6562C102.338 81.4999 103.12 81.3854 103.906 81.3072C104.698 81.2291 105.49 81.1926 106.281 81.1926C107.073 81.1926 107.865 81.2291 108.651 81.3072C109.437 81.3854 110.224 81.4999 111 81.6562C111.776 81.8124 112.547 82.0052 113.302 82.2343C114.062 82.4635 114.807 82.7291 115.536 83.0364C116.271 83.3385 116.984 83.677 117.682 84.052C118.385 84.4218 119.062 84.8333 119.719 85.2708C120.38 85.7135 121.016 86.1822 121.63 86.6874C122.24 87.1874 122.828 87.7239 123.385 88.2812C123.948 88.8437 124.479 89.4322 124.979 90.0416C125.484 90.6562 125.958 91.2916 126.396 91.9531C126.838 92.6093 127.245 93.2916 127.614 93.9895C127.989 94.6874 128.328 95.4062 128.63 96.1354C128.937 96.8697 129.203 97.6145 129.432 98.3749C129.661 99.1301 129.854 99.901 130.01 100.677C130.161 101.453 130.281 102.24 130.359 103.026C130.432 103.818 130.474 104.609 130.474 105.401Z" stroke="#96877D" stroke-width="0.513079"/>
<path d="M95.6979 131.115C95.6979 131.318 95.6562 131.51 95.5781 131.693C95.5052 131.88 95.3958 132.042 95.2552 132.188C95.1094 132.328 94.9479 132.438 94.7604 132.516C94.5781 132.589 94.3854 132.63 94.1823 132.63C93.9844 132.63 93.7917 132.589 93.6042 132.516C93.4219 132.438 93.2552 132.328 93.1146 132.188C92.974 132.042 92.8646 131.88 92.7865 131.693C92.7083 131.51 92.6719 131.318 92.6719 131.115C92.6719 130.917 92.7083 130.724 92.7865 130.536C92.8646 130.349 92.974 130.188 93.1146 130.047C93.2552 129.906 93.4219 129.797 93.6042 129.719C93.7917 129.641 93.9844 129.604 94.1823 129.604C94.3854 129.604 94.5781 129.641 94.7604 129.719C94.9479 129.797 95.1094 129.906 95.2552 130.047C95.3958 130.188 95.5052 130.349 95.5781 130.536C95.6562 130.724 95.6979 130.917 95.6979 131.115Z" fill="black"/>
<path d="M119.885 131.115C119.885 131.318 119.849 131.51 119.771 131.693C119.693 131.88 119.583 132.042 119.443 132.188C119.302 132.328 119.135 132.438 118.953 132.516C118.766 132.589 118.573 132.63 118.375 132.63C118.172 132.63 117.979 132.589 117.797 132.516C117.609 132.438 117.448 132.328 117.307 132.188C117.161 132.042 117.052 131.88 116.979 131.693C116.901 131.51 116.865 131.318 116.865 131.115C116.865 130.917 116.901 130.724 116.979 130.536C117.052 130.349 117.161 130.188 117.307 130.047C117.448 129.906 117.609 129.797 117.797 129.719C117.979 129.641 118.172 129.604 118.375 129.604C118.573 129.604 118.766 129.641 118.953 129.719C119.135 129.797 119.302 129.906 119.443 130.047C119.583 130.188 119.693 130.349 119.771 130.536C119.849 130.724 119.885 130.917 119.885 131.115Z" fill="black"/>
<path d="M105.276 131.115V132.693H103.26C101.245 132.693 101.245 134.271 103.26 134.271H105.276V135.849C105.281 137.484 107.036 137.682 107.167 135.984L107.292 134.281H109.307C111.323 134.281 111.323 132.703 109.307 132.703H107.292V131.125C107.292 129.547 105.276 129.547 105.276 131.125V131.115ZM76.7396 113.234L78.8229 112.734L78.5885 111.771C78.5365 111.552 78.4531 111.401 78.3281 111.323C78.2083 111.24 77.9948 111.219 77.6979 111.255L77.6667 111.109L79.4583 110.682L79.4896 110.828C79.2865 110.88 79.1406 110.943 79.0573 111.016C78.974 111.083 78.9219 111.172 78.8906 111.276C78.8646 111.38 78.8698 111.516 78.9167 111.693L79.1458 112.661L80.8073 112.26C81.0729 112.198 81.2448 112.141 81.3229 112.083C81.3906 112.031 81.4323 111.964 81.4531 111.88C81.4896 111.755 81.4896 111.63 81.4583 111.5L81.4167 111.307L81.5573 111.276L82.099 113.547L81.9583 113.578L81.9115 113.391C81.8594 113.172 81.7604 113.031 81.6094 112.964C81.5104 112.922 81.3021 112.937 80.9844 113.01L77.5677 113.828C77.2969 113.891 77.125 113.948 77.0469 114.005C76.9792 114.057 76.9375 114.12 76.9167 114.203C76.8802 114.328 76.8802 114.458 76.9115 114.589L76.9531 114.771L76.8125 114.807L75.875 110.87L77.0208 110.542L77.0573 110.677C76.8229 110.807 76.6615 110.927 76.5677 111.042C76.474 111.156 76.4167 111.286 76.3958 111.437C76.375 111.578 76.3958 111.792 76.4635 112.062L76.7396 113.234ZM75.401 103.844C75.4427 103.141 75.7448 102.542 76.3073 102.057C76.8698 101.568 77.5573 101.349 78.3542 101.396C79.1771 101.443 79.849 101.74 80.3646 102.292C80.8802 102.844 81.1198 103.49 81.0781 104.229C81.0312 104.974 80.7344 105.589 80.1719 106.068C79.6146 106.547 78.9115 106.76 78.0677 106.714C77.2083 106.667 76.5156 106.333 76.0052 105.714C75.5521 105.172 75.349 104.552 75.401 103.844ZM75.6875 103.937C75.6615 104.422 75.8229 104.823 76.1615 105.135C76.5937 105.531 77.2396 105.75 78.1042 105.797C78.9896 105.844 79.6823 105.698 80.1823 105.344C80.5729 105.073 80.776 104.698 80.7917 104.219C80.8281 103.703 80.6562 103.271 80.2656 102.922C79.8854 102.568 79.2656 102.365 78.4115 102.318C77.4844 102.266 76.7812 102.411 76.3021 102.75C75.9219 103.021 75.7187 103.417 75.6875 103.937ZM83.5677 94L83.0521 95.3594L80.0208 96.1771C79.974 96.3177 79.9219 96.4531 79.8646 96.5937C79.849 96.6302 79.8333 96.6667 79.8177 96.7083L81.2917 97.2708C81.6146 97.3906 81.8229 97.4323 81.9271 97.3906C82.0729 97.3385 82.1823 97.2135 82.2552 97.026L82.3333 96.8281L82.474 96.8802L81.6406 99.0573L81.5052 99.0052L81.5781 98.8177C81.6562 98.599 81.6458 98.4219 81.5417 98.276C81.4844 98.1927 81.3125 98.0937 81.0208 97.9844L77.7396 96.7344C77.4167 96.6146 77.2083 96.5729 77.1042 96.6146C76.9531 96.6667 76.8437 96.7917 76.7708 96.9844L76.6979 97.1771L76.5573 97.125L77.2656 95.2708C77.4687 94.7292 77.6615 94.349 77.8385 94.1198C78.0156 93.8958 78.2396 93.7344 78.5208 93.6354C78.7969 93.5365 79.0833 93.5417 79.3802 93.6562C79.6875 93.7708 79.9219 93.9792 80.0729 94.2708C80.224 94.5625 80.2708 94.9375 80.2031 95.401L82.0573 94.9062C82.4844 94.7969 82.7865 94.6719 82.9635 94.5417C83.1354 94.4115 83.2917 94.2135 83.4271 93.9479L83.5677 94ZM79.5833 96.6146C79.6042 96.5469 79.6354 96.4792 79.6667 96.4062C79.849 95.9219 79.8854 95.5156 79.7656 95.1927C79.6562 94.8594 79.4375 94.6354 79.1042 94.5156C78.7865 94.3958 78.4896 94.3958 78.2187 94.5208C77.9427 94.6406 77.7448 94.8698 77.6198 95.1979C77.5625 95.3385 77.5156 95.5469 77.4687 95.8125L79.5833 96.6146ZM91.151 78.5885L92.2031 79.9531L92.0833 80.0312C91.7344 79.75 91.4062 79.5781 91.099 79.5208C90.6562 79.4323 90.224 79.526 89.7969 79.8021C89.2135 80.1823 88.9219 80.6979 88.9167 81.3542C88.9167 81.9062 89.0885 82.4531 89.4375 82.9896C89.7187 83.4219 90.0573 83.7656 90.4583 84.0156C90.8594 84.2656 91.25 84.3854 91.6302 84.375C91.9948 84.375 92.3281 84.276 92.6354 84.0833C92.974 83.8698 93.2292 83.5781 93.4115 83.2187L92.5573 81.901C92.4115 81.6719 92.2969 81.5312 92.2135 81.4844C92.1354 81.4375 92.0469 81.4167 91.9479 81.4271C91.8542 81.4375 91.7135 81.5 91.526 81.6198L91.4427 81.4948L93.2135 80.349L93.2969 80.4792L93.2135 80.5312C93.0365 80.6458 92.9531 80.7812 92.9635 80.9375C92.974 81.0521 93.0573 81.2292 93.2135 81.474L94.1198 82.875C93.9635 83.1615 93.776 83.4323 93.5521 83.6719C93.3437 83.901 93.0885 84.1146 92.7812 84.3125C91.8958 84.8854 91.0469 85.0365 90.2187 84.7708C89.5937 84.5677 89.1042 84.1927 88.7552 83.6354C88.4896 83.224 88.3385 82.776 88.2969 82.2917C88.2344 81.724 88.3333 81.1823 88.5833 80.6719C88.7917 80.2604 89.125 79.9062 89.5781 79.6094C89.7448 79.5 89.9062 79.4167 90.0573 79.3542C90.2135 79.2969 90.4427 79.2292 90.75 79.1615C90.8542 79.1458 90.9531 79.1146 91.0521 79.0677C91.099 79.0365 91.1198 78.9948 91.1198 78.9375C91.125 78.8802 91.0937 78.7917 91.026 78.6719L91.151 78.5885ZM100.005 79.2031L97.974 79.7448L97.8385 80.6719C97.8021 80.8958 97.7969 81.0625 97.8281 81.1615C97.849 81.2448 97.9062 81.3021 97.9948 81.3437C98.0885 81.3854 98.2656 81.3802 98.5208 81.3281L98.5573 81.474L96.9062 81.9115L96.8698 81.7708C97.0781 81.6719 97.2031 81.5833 97.2552 81.5052C97.3542 81.349 97.4323 81.0573 97.4896 80.6354L98.1875 75.8125L98.3229 75.776L101.318 79.6667C101.557 79.9792 101.75 80.1719 101.901 80.2448C102.047 80.3177 102.229 80.3281 102.448 80.2865L102.484 80.4323L100.411 80.9792L100.375 80.8385C100.583 80.7708 100.714 80.6979 100.771 80.6198C100.828 80.5469 100.849 80.4635 100.823 80.375C100.792 80.2604 100.693 80.0937 100.526 79.875L100.005 79.2031ZM99.8229 78.9479L98.3646 77.0573L98.0156 79.4271L99.8229 78.9479ZM109.422 78.9167L109.552 78.9531L109.031 80.4115L104.823 80.2448L104.828 80.0937L105.036 80.1042C105.266 80.1146 105.432 80.0469 105.536 79.901C105.594 79.8177 105.63 79.6198 105.646 79.3073L105.781 75.8021C105.792 75.4583 105.766 75.2448 105.693 75.1562C105.594 75.0365 105.443 74.974 105.234 74.9635L105.031 74.9583L105.036 74.8073L107.495 74.901L107.49 75.0521C107.203 75.0365 107 75.0573 106.88 75.1094C106.776 75.1458 106.693 75.2135 106.635 75.3125C106.589 75.3958 106.557 75.599 106.547 75.9219L106.411 79.3385C106.401 79.5625 106.422 79.7135 106.458 79.7969C106.49 79.8542 106.536 79.901 106.604 79.9271C106.667 79.9583 106.875 79.9792 107.224 79.9948L107.625 80.0104C108.042 80.026 108.333 80.0052 108.505 79.9531C108.687 79.8854 108.844 79.7865 108.979 79.6406C109.125 79.4896 109.271 79.25 109.422 78.9167ZM116.667 80.8594L116.781 80.9271L115.875 82.1823L111.88 80.8594L111.927 80.7187L112.12 80.7812C112.339 80.8542 112.516 80.8333 112.656 80.724C112.74 80.6615 112.828 80.4792 112.927 80.1875L114.026 76.8542C114.135 76.5312 114.161 76.3177 114.12 76.2135C114.057 76.0677 113.927 75.9635 113.734 75.8958L113.542 75.8333L113.589 75.6927L115.922 76.4635L115.875 76.6042C115.604 76.5156 115.401 76.474 115.276 76.4896C115.161 76.5 115.068 76.5417 114.984 76.6198C114.917 76.6875 114.828 76.875 114.729 77.1823L113.656 80.4271C113.589 80.6406 113.557 80.7917 113.573 80.8802C113.589 80.9479 113.62 81.0052 113.677 81.0469C113.729 81.0937 113.922 81.1719 114.255 81.2812L114.635 81.4062C115.031 81.5365 115.318 81.599 115.495 81.5937C115.677 81.5885 115.854 81.5365 116.036 81.4271C116.219 81.3229 116.427 81.1354 116.667 80.8594ZM122.5 83.9479L120.781 82.7344L119.984 83.2187C119.792 83.3385 119.661 83.4427 119.599 83.526C119.552 83.5937 119.542 83.6771 119.573 83.776C119.599 83.8698 119.714 84.0052 119.917 84.1719L119.833 84.2917L118.432 83.3021L118.521 83.1823C118.729 83.2812 118.88 83.3229 118.969 83.3073C119.156 83.2812 119.432 83.1562 119.792 82.9323L123.937 80.3802L124.052 80.4635L122.984 85.25C122.901 85.6354 122.875 85.9062 122.917 86.0677C122.953 86.2292 123.062 86.3802 123.234 86.5208L123.146 86.6406L121.396 85.401L121.484 85.2812C121.667 85.3958 121.807 85.4479 121.901 85.4427C122 85.4427 122.073 85.401 122.125 85.3281C122.193 85.2292 122.26 85.0469 122.318 84.776L122.5 83.9479ZM122.583 83.6406L123.099 81.3125L121.057 82.5625L122.583 83.6406ZM129.031 84.8333L129.906 86.0156L128.609 91.1198L131.13 89.2552C131.401 89.0521 131.547 88.8958 131.568 88.7865C131.599 88.6406 131.552 88.4844 131.422 88.3125L131.312 88.1615L131.432 88.0729L132.557 89.5937L132.437 89.6823L132.323 89.526C132.187 89.3437 132.036 89.25 131.865 89.2552C131.76 89.2604 131.589 89.3542 131.344 89.5365L127.661 92.2656L127.573 92.151L128.958 86.6562L126.266 88.6562C125.995 88.8542 125.849 89.0052 125.828 89.1146C125.797 89.2656 125.844 89.4219 125.974 89.5937L126.089 89.7448L125.969 89.8333L124.839 88.3125L124.958 88.224L125.073 88.375C125.208 88.5625 125.365 88.6562 125.531 88.651C125.635 88.6458 125.812 88.5521 126.057 88.3698L129.094 86.1198C129.135 85.9531 129.167 85.7812 129.172 85.6094C129.172 85.5104 129.146 85.3802 129.094 85.224C129.047 85.1146 128.984 85.0156 128.911 84.9219L129.031 84.8333ZM135.885 97.474L134.703 97.9583L134.656 97.8125C134.854 97.7083 134.995 97.6198 135.068 97.5417C135.182 97.4219 135.255 97.276 135.281 97.1146C135.302 96.9219 135.276 96.7396 135.203 96.5625L134.948 95.8385L131.031 97.2292C130.714 97.3385 130.531 97.4427 130.479 97.5365C130.406 97.6719 130.406 97.8385 130.474 98.0365L130.536 98.2135L130.396 98.2656L129.63 96.0885L129.771 96.0417L129.833 96.224C129.911 96.4375 130.031 96.5677 130.193 96.6146C130.292 96.6406 130.484 96.6042 130.776 96.5L134.693 95.1146L134.474 94.5C134.391 94.2604 134.312 94.0937 134.24 94.0052C134.135 93.8802 134 93.8021 133.844 93.7656C133.677 93.7187 133.474 93.7292 133.234 93.7969L133.182 93.651L134.406 93.2865L135.885 97.474ZM131.583 107.125L131.505 105.677L133.948 103.703C133.937 103.557 133.927 103.406 133.922 103.26V103.135L132.344 103.219C132 103.234 131.792 103.281 131.714 103.365C131.599 103.469 131.547 103.625 131.557 103.828L131.568 104.042L131.422 104.047L131.302 101.719L131.448 101.714L131.458 101.917C131.474 102.146 131.557 102.307 131.708 102.396C131.797 102.448 131.995 102.469 132.302 102.453L135.812 102.271C136.151 102.25 136.365 102.203 136.443 102.125C136.557 102.016 136.604 101.854 136.594 101.651L136.583 101.448L136.734 101.437L136.833 103.417C136.865 103.995 136.844 104.422 136.776 104.698C136.703 104.979 136.562 105.219 136.344 105.422C136.13 105.625 135.865 105.734 135.557 105.75C135.224 105.771 134.927 105.677 134.667 105.469C134.411 105.266 134.219 104.937 134.094 104.484L132.594 105.687C132.25 105.964 132.026 106.193 131.917 106.385C131.807 106.578 131.745 106.818 131.729 107.12L131.583 107.125ZM134.172 103.12C134.177 103.172 134.177 103.219 134.177 103.255L134.182 103.349C134.208 103.865 134.339 104.25 134.578 104.5C134.818 104.755 135.109 104.87 135.458 104.849C135.797 104.833 136.062 104.714 136.266 104.49C136.469 104.266 136.557 103.979 136.542 103.63C136.521 103.417 136.484 103.208 136.432 103.005L134.172 103.12ZM135.667 114.318L135.182 116.151L135.036 116.115L135.068 116.016C135.083 115.943 135.078 115.839 135.052 115.693C135.026 115.547 134.974 115.411 134.891 115.276C134.76 115.083 134.615 114.901 134.448 114.74L132.786 112.948L131.469 112.599C131.141 112.516 130.932 112.495 130.833 112.547C130.698 112.62 130.604 112.76 130.547 112.974L130.5 113.141L130.359 113.104L130.948 110.87L131.089 110.906L131.042 111.094C130.979 111.318 131.005 111.49 131.12 111.62C131.187 111.698 131.37 111.776 131.661 111.854L132.906 112.182L135.49 111.312C135.792 111.214 135.984 111.141 136.062 111.094C136.146 111.052 136.255 110.948 136.396 110.776C136.448 110.714 136.479 110.641 136.495 110.562L136.635 110.599L136.047 112.854L135.906 112.812L135.932 112.698C135.969 112.578 135.969 112.458 135.937 112.339C135.911 112.219 135.839 112.146 135.724 112.12C135.63 112.094 135.437 112.13 135.156 112.224L133.172 112.875L134.521 114.333C134.724 114.552 134.885 114.677 135.005 114.714C135.161 114.755 135.292 114.714 135.391 114.578C135.453 114.49 135.5 114.385 135.521 114.276L135.667 114.318Z" fill="black"/>
<path d="M123.536 110.026C124.068 109.891 124.943 110 124.943 110C124.943 110 125.021 110.365 124.792 110.49C125.047 110.635 125.969 110.588 125.969 110.588C125.969 110.588 125.609 110.865 125.432 110.974C125.76 111.005 126.172 111.432 126.172 111.432C126.172 111.432 125.406 111.562 125.073 111.385C125.276 111.792 125.25 112.151 125.25 112.151C125.25 112.151 124.01 111.844 123.562 111.026M121.463 109.328C121.161 110.068 118.958 108.687 118.958 108.687C118.958 108.687 119.927 110.229 121.385 110.401M93.9322 123.479H119.755L121.75 121.891L118.427 120.099L113.312 118.359L111.266 117.234L107.484 117.437L104.312 119.125L99.9635 119.641L98.9426 120.818L95.7187 121.073L90.6562 120.969L99.0937 122.302L92.1406 121.943L93.9322 123.479Z" fill="#96877D"/>
<path d="M123.536 110.026C124.068 109.891 124.943 110 124.943 110C124.943 110 125.021 110.365 124.792 110.49C125.047 110.635 125.969 110.588 125.969 110.588C125.969 110.588 125.609 110.865 125.432 110.974C125.76 111.005 126.172 111.432 126.172 111.432C126.172 111.432 125.406 111.562 125.073 111.385C125.276 111.792 125.25 112.151 125.25 112.151C125.25 112.151 124.01 111.844 123.562 111.026M121.463 109.328C121.161 110.068 118.958 108.687 118.958 108.687C118.958 108.687 119.927 110.229 121.385 110.401M93.9322 123.479H119.755L121.75 121.891L118.427 120.099L113.312 118.359L111.266 117.234L107.484 117.437L104.312 119.125L99.9635 119.641L98.9426 120.818L95.7187 121.073L90.6562 120.969L99.0937 122.302L92.1406 121.943L93.9322 123.479Z" stroke="black" stroke-width="0.202636"/>
<path d="M107.844 116.057C104.609 114.318 103.661 118.604 102.266 119.641C104.146 119.958 105.568 118.193 107.177 117.338C108.396 120.667 110.323 118.463 110.323 118.463C110.323 118.463 112.328 121.646 115 120.203C115.729 120.75 116.536 120.255 116.536 120.255C116.536 120.255 117.505 120.432 117.708 119.995C118.219 120.177 118.786 119.536 118.786 119.536C118.786 119.536 119.896 119.552 120.115 118.974C121.76 119.271 123.948 115.599 123.948 115.599L124.615 114.318L125.583 114.115C125.583 114.115 125.651 113.474 125.125 113.5C125.109 113.115 124.781 112.911 124.307 112.99C124.396 112.76 124.052 112.578 124.052 112.578C123.13 112.807 123.078 115.135 123.078 115.135C123.078 115.135 121.469 116.365 120.88 116.672C120.854 115.338 118.63 113.536 119.088 112.682C119.552 111.823 120.995 114 122.26 113.604C123.526 113.203 124.146 111.557 124.203 110.276C123.849 109.406 122.974 107.974 122.974 107.974L122.156 107.922L121.443 106.182C121.443 106.182 119.932 107.167 119.958 108.026C119.984 108.88 121.547 109.609 121.547 109.609C121.547 109.609 120.646 110.172 119.807 109.917C119.729 110.786 120.828 110.62 121.24 110.635C121.443 111.26 122.057 111.604 122.057 111.604C122.057 111.604 122.443 112.568 121.443 112.474C120.448 112.385 119.271 110.088 117.865 111.146C116.37 112.271 118.531 114.318 118.531 114.318C118.531 114.318 117.213 115.01 116.432 116.776C113.25 114.088 111.38 115.338 107.844 116.057Z" fill="#96877D" stroke="black" stroke-width="0.202636"/>
<path d="M103.193 111.505C104.521 112.76 103.594 114.844 104.109 115.24C104.661 115.661 105.443 115.036 105.443 115.036C106.833 115.406 109.328 114.625 109.328 114.625C110.427 115.24 109.99 114.333 110.656 114.37C111.245 115.88 113.213 115.599 113.213 115.599C113.213 115.599 111.411 113.755 110.297 113.245C109.443 113.755 106.948 113.833 106.516 113.755C106.031 113.672 106.333 113.078 106.104 112.734C107.021 111.838 106.297 109.625 105.797 108.792C103.766 107.437 101.338 109.76 103.193 111.505ZM94.3489 107.76C92.677 108.213 89.776 105.599 88.4166 106.604C87.0624 107.604 87.6979 110.078 88.5989 111.307C89.4843 112.51 87.3072 112.943 86.7187 113.656C86.1666 114.328 86.901 115.104 86.901 115.104L87.5156 115.505L87.4062 116.406L87.7291 117.495C87.7291 117.495 88.0312 117.755 88.1301 117.422C88.4114 117.703 88.1614 118.51 88.8541 118.614C88.6041 118.094 89.0312 116.661 89.0312 116.661C89.0312 116.661 90.2447 116.75 90.552 116.229C90.8593 115.703 90.2656 114.562 90.2656 114.562H90.6249C90.2187 114.281 90.0833 113.443 90.0833 113.443C90.0833 113.443 91.7656 112.906 91.7447 111.63C91.7291 110.354 89.0156 109 90.0104 108.338C91.1145 107.604 93.026 110.24 94.6718 109.026C96.302 107.828 95.2551 108.99 95.2551 108.99C95.2551 108.99 95.9947 107.312 94.3489 107.76ZM102.979 89.8385C100.745 88.9062 96.1718 88.8489 93.6249 87.5885C92.5051 87.6562 92.0051 88.5416 91.9635 88.8906C90.7916 88.8333 89.9999 90.677 90.1718 91.0416C88.0416 90.177 87.052 93.5468 87.7447 94.2395C85.927 94.3176 86.151 96.6353 85.9791 97.2812C85.3958 98.6978 86.1093 99.1718 87.2552 98.6614C87.4322 99.276 87.1874 99.6249 86.6666 99.7395C89.8176 103.349 91.5989 97.5208 94.3645 97.5364C97.8176 96.526 99.1718 94.8281 99.1718 94.8281L100.526 95.0051L102.979 89.8385Z" fill="#96877D" stroke="black" stroke-width="0.202636"/>
<path d="M109.167 87.2552C109.167 87.6927 109.083 88.1145 108.917 88.5156C108.75 88.9218 108.51 89.2812 108.203 89.5885C107.891 89.8958 107.536 90.1354 107.13 90.302C106.729 90.4687 106.307 90.5572 105.87 90.5572C105.432 90.5572 105.01 90.4687 104.609 90.302C104.203 90.1354 103.849 89.8958 103.536 89.5885C103.229 89.2812 102.99 88.9218 102.823 88.5156C102.656 88.1145 102.573 87.6927 102.573 87.2552C102.573 86.8177 102.656 86.3958 102.823 85.9895C102.99 85.5885 103.229 85.2291 103.536 84.9218C103.849 84.6093 104.203 84.3749 104.609 84.2083C105.01 84.0364 105.432 83.9531 105.87 83.9531C106.307 83.9531 106.729 84.0364 107.13 84.2083C107.536 84.3749 107.891 84.6093 108.203 84.9218C108.51 85.2291 108.75 85.5885 108.917 85.9895C109.083 86.3958 109.167 86.8177 109.167 87.2552Z" fill="#96877D" stroke="black" stroke-width="0.202636"/>
<path d="M100.068 113.245C98.0208 112.87 94.6353 110.75 94.2916 107.974C96.1926 100.49 106.021 104.396 106.87 98.7708C106.651 95.0572 107.318 91.3802 109.375 88.2708C110.333 87.0572 111.573 86.7395 111.573 86.7395C111.573 86.7395 111.797 87.5312 111.469 88.0676C113.094 87.8906 115.318 88.7968 116.838 88.8854C117.286 89.7968 117.25 90.1249 117.146 90.677C117.042 91.2291 116.432 91.0885 116.432 91.0885C116.031 91.4635 115.557 91.8489 114.49 91.651C113.682 92.2656 111.979 92.4166 111.979 92.4166C111.979 92.4166 115.536 96.1666 114.948 97.3281C115.687 97.6718 116.786 99.3229 116.786 99.3229C116.786 99.3229 119.219 98.0468 120.01 96.8697C121.417 96.8697 123.719 98.3385 124.87 98.5051C126.276 99.6458 127.677 100.807 127.677 100.807C127.677 100.807 126.005 101.911 125.276 100.448C124.396 100.526 122.49 98.4166 119.854 99.0676C119.781 101.411 117.198 103.062 117.198 103.062C117.198 103.062 119.609 102.724 120.927 103.521C122.042 104.443 123.167 105.344 124.302 106.234L126.094 109.302C126.094 109.302 124.458 109.583 123.844 107.458C123.229 109.172 123.208 106.396 120.776 105.104C120.036 105.198 119.667 105.245 119.036 104.75C117.286 105.224 115.213 106.245 112.75 105.979C111 106.526 109.719 107.984 107.943 108.792C106.167 109.599 105.641 109.198 105.641 109.198L104.208 109.25C104 110.115 104.12 111.427 103.338 111.656C103.838 112.193 102.979 114.484 102.115 114.88C102.521 116.349 103.719 116.802 104.974 117.542C104.974 117.542 106.088 117.026 106.818 117.693C107.547 118.359 108.297 120.25 108.297 120.25C108.297 120.25 106.781 120.354 106.307 120.151C105.828 119.943 105.781 119.448 105.229 119.588C101.766 116.505 99.9426 117.729 99.6041 117.026C99.2656 116.307 100.427 114.432 100.068 113.245Z" fill="#96877D" stroke="black" stroke-width="0.202636"/>
<path d="M91.7447 99.5051C91.927 99.2812 93.1927 99.7603 93.1927 99.7603L95.5052 101.208L100.203 104.25L101.87 106.672L98.8697 105.693L94.7083 102.115L92.4687 100.667C92.4687 100.667 91.5624 99.7343 91.7447 99.5051ZM119.547 107.213C117.922 106.802 113.922 111.661 113.922 111.661L116.937 114.937C116.937 114.937 117.031 109.359 119.547 107.213Z" fill="#96877D" stroke="black" stroke-width="0.202636"/>
<path d="M99.7603 93.651C98.8749 94.7864 98.7968 97.0728 99.9478 97.9947C100.057 99.3853 101.24 102.187 102.167 102.448C103.177 102.74 107.224 103.677 108.812 103.422C108.51 105.995 110.526 108.057 112.391 109.411C112.38 109.641 112.375 109.922 112.588 110.208C112.802 110.484 113.781 110.531 113.823 110.38C114.255 110.995 116.364 111.26 116.516 110.99C116.667 110.724 113.417 108.463 112.698 107.771C112.088 106.63 110.927 104.083 110.651 102.042C109.057 100.146 106.323 100.182 106.323 100.182L106.406 96.4635L106.562 92.2708L105.078 91.4999C105.078 91.4999 105.38 91.3645 105.536 91.1926C105.901 91.3489 106.578 90.6249 106.667 90.4218C107.005 90.5416 107.312 90.5416 107.375 90.3593C107.427 90.1979 107.49 89.4791 107.614 89.1093C108.729 88.1249 107.448 86.0312 105.74 85.9999C104.047 85.9635 103.667 88.0208 103.698 88.177C103.859 88.8229 103.823 89.1458 103.698 89.302C103.573 89.4583 102.984 89.8124 102.984 89.8124C102.984 89.8124 102.036 89.3645 100.885 89.8124C99.7395 90.2604 98.4426 90.8593 98.3801 91.6041C97.8541 91.6822 96.9999 92.3593 96.8489 92.9322C96.3853 92.8437 95.7864 93.2291 94.802 94.8281C93.0364 95.6093 92.9322 99.3801 92.9322 99.3801C92.9322 99.3801 92.4583 100.073 92.4374 100.443C92.4114 100.812 92.6041 101.146 92.8333 101.083C92.8593 101.323 93.177 101.542 93.3176 101.463C93.3697 101.708 93.7187 101.844 93.9322 101.812C93.9531 101.979 94.6301 101.937 94.6874 101.786C94.7447 101.62 94.6197 100.792 94.6978 100.724C94.7708 100.661 95.3385 101.094 95.4895 100.979C95.6458 100.865 95.4635 100.495 95.3749 100.354C95.302 100.224 94.8124 100.083 94.6978 99.4843C94.5833 98.8853 95.0051 98.052 95.0051 98.052C95.0051 98.052 96.9218 96.5416 97.1406 95.2499C98.5833 95.3906 99.3489 94.1249 99.7603 93.651Z" fill="#96877D" stroke="black" stroke-width="0.202636"/>
<path d="M96.4218 88.2395C96.8645 87.1666 98.4426 87.2656 98.4426 87.2656C98.4426 87.2656 99.0103 85.776 101.141 86.6666C101.943 86.0468 104.057 86.9374 104.057 86.9374C104.057 86.9374 104.849 85.8801 105.885 85.9999C107.807 86.2239 108.125 87.9843 108.005 88.2916C106.953 88.5572 105.135 87.4374 103.75 87.7552C102.943 88.2083 101.63 88.6926 101.141 89.3541C99.8593 89.4843 98.4895 88.1718 96.4218 88.2395ZM100.427 90.0156C100.906 89.7239 102.083 89.2083 102.88 89.8385C103.719 90.7395 105 91.5781 105 91.5781L106.458 92.1926L107.125 92.6041L106.687 99.2812C105.338 97.8958 104.078 97.6562 103.109 96.0312C102.594 95.3333 102.99 93.6562 102.088 92.552C101.187 91.4426 100.229 90.6979 100.427 90.0156Z" fill="#96877D" stroke="black" stroke-width="0.202636"/>
<path d="M103.927 91.9479C103.927 91.9479 104.693 91.802 104.906 91.9791C105.172 92.0729 105.432 92.151 105.5 92.3801C105.792 92.4635 105.99 92.6145 105.99 92.8333C106.26 92.9062 106.37 93.3906 106.37 93.3906L106.115 93.7708C106.115 93.7708 105.828 93.4999 105.792 93.2135C105.609 93.1197 105.203 93.026 105.104 92.7604C104.786 92.7291 104.583 92.5624 104.526 92.2916C104.234 92.3593 103.927 91.9479 103.927 91.9479Z" fill="#96877D" stroke="black" stroke-width="0.202636"/>
<path d="M110.396 87.5885C109.958 87.0989 109.193 87.4583 109.193 87.4583L107.151 90.9895L106.255 91.7343L106.177 94.4947L106.917 97.0781L106.661 99.0729C106.661 99.0729 107.693 98.1041 107.812 97.5624C107.927 97.0468 107.432 95.3645 107.432 95.3645C107.432 95.3645 106.818 94.3176 107.557 92.3697C108.297 90.427 109.984 88.8177 110.396 87.5885Z" fill="#96877D" stroke="black" stroke-width="0.202636"/>
<path d="M115.443 90.7343C115.443 90.7343 112.25 95.302 107.021 96.9218C105.578 97.2708 106.104 93.5468 106.104 93.5468L105.745 93.651C105.745 93.651 104.937 97.2968 106.87 97.3333C112.125 96.2968 116.068 90.7656 116.068 90.7656L115.437 90.7343H115.443ZM117.609 116.984C117.609 116.984 117.125 117.344 116.484 116.984C116.156 116.219 115.26 116.167 115.26 116.167C115.26 116.167 114.682 114.51 113.776 114.99C113.635 114.135 112.651 114.583 112.651 114.583C112.651 114.583 112.625 113.338 111.474 113.51C111.859 112.088 109.891 112.177 109.891 112.177C109.891 112.177 109.823 110.578 106.922 110.901C113.177 108.099 118.12 115.297 118.12 115.297M120.573 117.594C120.573 117.594 122.021 119.219 122.771 119.234C123.526 119.245 123.588 117.646 123.588 117.646C123.588 117.646 123.833 118.338 124.203 118.161C124.167 118.646 124.667 118.771 124.667 118.771C124.667 118.771 123.359 121.802 119.656 118.927M109.266 118.213L108.755 120.312C108.755 120.312 108.104 120.901 108.297 121.031C108.49 121.156 109.526 120.823 109.526 120.823C109.526 120.823 111.135 120.63 111.62 120.161C111.953 120.911 112.693 120.979 112.693 120.979C112.693 120.979 112.745 120.656 112.641 120.469C113 120.531 113.307 120.417 113.307 120.417C113.307 120.417 113.51 119.828 113.052 119.594C113.104 119.161 113.323 118.776 112.542 118.828C111.963 119.443 110.547 120.146 110.187 119.901C109.833 119.661 111.594 118.88 111.109 117.854" fill="#96877D"/>
<path d="M117.609 116.984C117.609 116.984 117.125 117.344 116.484 116.984C116.156 116.219 115.26 116.167 115.26 116.167C115.26 116.167 114.682 114.51 113.776 114.99C113.635 114.135 112.651 114.583 112.651 114.583C112.651 114.583 112.625 113.338 111.474 113.51C111.859 112.088 109.891 112.177 109.891 112.177C109.891 112.177 109.823 110.578 106.922 110.901C113.177 108.099 118.12 115.297 118.12 115.297M120.573 117.594C120.573 117.594 122.021 119.219 122.771 119.234C123.526 119.245 123.588 117.646 123.588 117.646C123.588 117.646 123.833 118.338 124.203 118.161C124.167 118.646 124.667 118.771 124.667 118.771C124.667 118.771 123.359 121.802 119.656 118.927M109.266 118.213L108.755 120.312C108.755 120.312 108.104 120.901 108.297 121.031C108.49 121.156 109.526 120.823 109.526 120.823C109.526 120.823 111.135 120.63 111.62 120.161C111.953 120.911 112.693 120.979 112.693 120.979C112.693 120.979 112.745 120.656 112.641 120.469C113 120.531 113.307 120.417 113.307 120.417C113.307 120.417 113.51 119.828 113.052 119.594C113.104 119.161 113.323 118.776 112.542 118.828C111.963 119.443 110.547 120.146 110.187 119.901C109.833 119.661 111.594 118.88 111.109 117.854M115.443 90.7343C115.443 90.7343 112.25 95.302 107.021 96.9218C105.578 97.2708 106.104 93.5468 106.104 93.5468L105.745 93.651C105.745 93.651 104.937 97.2968 106.87 97.3333C112.125 96.2968 116.068 90.7656 116.068 90.7656L115.437 90.7343H115.443Z" stroke="black" stroke-width="0.202636"/>
</g>
<defs>
<clipPath id="clip0_0_1">
<rect width="900" height="450" fill="white"/>
</clipPath>
</defs>
</svg>
