<svg width="900" height="450" viewBox="0 0 900 450" fill="none" xmlns="http://www.w3.org/2000/svg">
<g clip-path="url(#clip0_764_6599)">
<path d="M900 0H0V450H900V0Z" fill="#1E1E1E"/>
<mask id="mask0_764_6599" style="mask-type:luminance" maskUnits="userSpaceOnUse" x="0" y="0" width="900" height="450">
<path d="M900 0H0V450H900V0Z" fill="white"/>
</mask>
<g mask="url(#mask0_764_6599)">
<mask id="mask1_764_6599" style="mask-type:luminance" maskUnits="userSpaceOnUse" x="0" y="0" width="900" height="450">
<path d="M0 0H900V450H0V0Z" fill="white"/>
</mask>
<g mask="url(#mask1_764_6599)">
<path d="M0 0H900V450H0V0Z" fill="white"/>
<path d="M0 0H900V450H0V0Z" fill="white"/>
<path d="M0 0H900V450H0V0Z" fill="#1E1E1E"/>
<path d="M0 0H900V450H0V0Z" fill="#D21034"/>
</g>
<path d="M150 113H749.115V337.667H150V113Z" fill="#007E3A"/>
<path d="M483.505 305.214C527.625 305.214 563.391 269.453 563.391 225.333C563.391 181.219 527.625 145.453 483.505 145.453C439.391 145.453 403.625 181.219 403.625 225.333C403.625 269.453 439.391 305.214 483.505 305.214Z" fill="white"/>
<path d="M513.464 305.214C557.578 305.214 593.344 269.453 593.344 225.333C593.344 181.219 557.578 145.453 513.464 145.453C469.344 145.453 433.583 181.219 433.583 225.333C433.583 269.453 469.344 305.214 513.464 305.214Z" fill="#007E3A"/>
</g>
</g>
<defs>
<clipPath id="clip0_764_6599">
<rect width="900" height="450" fill="white"/>
</clipPath>
</defs>
</svg>
