<svg width="900" height="450" viewBox="0 0 900 450" fill="none" xmlns="http://www.w3.org/2000/svg">
<rect width="900" height="450" fill="#1E1E1E"/>
<g clip-path="url(#clip0_0_1)">
<path d="M900 0H0V450H900V0Z" fill="black"/>
<path d="M900 150H0V300H900V150Z" fill="#CE1126"/>
<path d="M900 300H0V450H900V300Z" fill="#339E35"/>
<path d="M449.5 267.922C502.934 267.922 546.25 224.606 546.25 171.172C546.25 117.739 502.934 74.4223 449.5 74.4223C396.066 74.4223 352.75 117.739 352.75 171.172C352.75 224.606 396.066 267.922 449.5 267.922Z" fill="#CE1126"/>
<path d="M449.5 18.1723C446.2 18.1723 445 23.1223 445 27.9223C445 39.9223 446.5 45.9223 449.5 63.1723C452.56 45.9223 454 39.7723 454 27.9223C454 22.9723 452.5 18.1723 449.5 18.1723Z" fill="#CE1126"/>
<path d="M462.835 18.7545C459.547 18.4669 457.921 23.2935 457.502 28.0752C456.456 40.0296 457.428 46.1375 458.913 63.5833C463.465 46.6656 465.435 40.6645 466.468 28.8596C466.899 23.9285 465.823 19.016 462.835 18.7545Z" fill="#CE1126"/>
<path d="M476.068 20.4967C472.818 19.9237 470.777 24.5901 469.943 29.3172C467.86 41.1349 468.295 47.3042 468.254 64.8131C474.263 48.3565 476.749 42.55 478.807 30.88C479.666 26.0052 479.023 21.0177 476.068 20.4967Z" fill="#CE1126"/>
<path d="M489.099 23.3857C485.912 22.5316 483.472 27.0023 482.229 31.6388C479.123 43.2299 479.019 49.4137 477.452 66.8523C484.873 50.9821 487.855 45.4144 490.923 33.9681C492.204 29.1868 491.997 24.1621 489.099 23.3857Z" fill="#CE1126"/>
<path d="M501.829 27.3994C498.728 26.2707 495.908 30.5118 494.266 35.0223C490.162 46.2987 489.519 52.4499 486.439 69.6858C495.214 54.5227 498.67 49.2361 502.723 38.1006C504.416 33.4491 504.648 28.4255 501.829 27.3994Z" fill="#CE1126"/>
<path d="M514.161 32.5072C511.17 31.1126 507.99 35.0917 505.962 39.4419C500.89 50.3176 499.714 56.3894 495.143 73.2911C505.206 58.9505 509.11 53.9853 514.118 43.2455C516.21 38.7593 516.88 33.7751 514.161 32.5072Z" fill="#CE1126"/>
<path d="M526 38.6705C523.142 37.0204 519.628 40.7073 517.228 44.8642C511.228 55.2566 509.527 61.2028 503.5 77.6418C514.775 64.2328 519.097 59.6268 525.022 49.3643C527.497 45.0775 528.598 40.1705 526 38.6705Z" fill="#CE1126"/>
<path d="M537.257 45.8421C534.554 43.9493 530.732 47.3158 527.979 51.2477C521.096 61.0775 518.883 66.8528 511.446 82.7039C523.847 70.3287 528.554 66.1168 535.351 56.4099C538.19 52.3551 539.715 47.5628 537.257 45.8421Z" fill="#CE1126"/>
<path d="M547.846 53.9675C545.319 51.8463 541.218 54.8669 538.132 58.5439C530.419 67.7365 527.711 73.297 518.921 88.4397C532.353 77.1923 537.41 73.4067 545.027 64.3291C548.208 60.5371 550.145 55.8959 547.846 53.9675Z" fill="#CE1126"/>
<path d="M557.687 62.985C555.354 60.6515 551.005 63.3032 547.611 66.6973C539.126 75.1826 535.944 80.4859 525.868 94.8048C540.229 84.7709 545.596 81.4405 553.975 73.0613C557.475 69.5611 559.809 65.1063 557.687 62.985Z" fill="#CE1126"/>
<path d="M566.705 72.826C564.584 70.298 560.02 72.5606 556.343 75.6459C547.151 83.3593 543.519 88.3651 532.233 101.751C547.414 93.0073 553.051 90.1573 562.128 82.5403C565.92 79.3585 568.633 75.1241 566.705 72.826Z" fill="#CE1126"/>
<path d="M574.83 83.4151C572.937 80.7119 568.194 82.5682 564.262 85.3213C554.433 92.2042 550.378 96.8744 537.968 109.226C553.854 101.838 559.718 99.4906 569.425 92.6937C573.479 89.8545 576.551 85.8726 574.83 83.4151Z" fill="#CE1126"/>
<path d="M582.002 94.6724C580.352 91.8144 575.465 93.2502 571.308 95.6502C560.916 101.65 556.47 105.949 543.031 117.172C559.5 111.197 565.546 109.369 575.808 103.444C580.095 100.969 583.502 97.2705 582.002 94.6724Z" fill="#CE1126"/>
<path d="M588.165 106.512C586.77 103.521 581.777 104.525 577.427 106.554C566.551 111.625 561.747 115.52 547.381 125.53C564.308 121.013 570.491 119.719 581.23 114.711C585.717 112.619 589.433 109.231 588.165 106.512Z" fill="#CE1126"/>
<path d="M593.273 118.843C592.144 115.742 587.082 116.308 582.572 117.949C571.296 122.054 566.17 125.515 550.987 134.234C568.243 131.21 574.515 130.459 585.65 126.407C590.302 124.714 594.299 121.662 593.273 118.843Z" fill="#CE1126"/>
<path d="M597.287 131.573C596.433 128.385 591.341 128.507 586.704 129.75C575.113 132.856 569.706 135.857 553.82 143.22C571.274 141.711 577.587 141.51 589.034 138.443C593.815 137.162 598.063 134.471 597.287 131.573Z" fill="#CE1126"/>
<path d="M298.825 144.605C298.251 147.855 302.918 149.897 307.645 150.73C319.462 152.813 325.632 152.378 343.14 152.418C326.684 146.409 320.878 143.923 309.208 141.865C304.333 141.006 299.346 141.65 298.825 144.605Z" fill="#CE1126"/>
<path d="M301.714 131.574C300.859 134.762 305.33 137.202 309.966 138.444C321.557 141.55 327.741 141.653 345.18 143.219C329.31 135.799 323.742 132.816 312.296 129.75C307.515 128.469 302.49 128.675 301.714 131.574Z" fill="#CE1126"/>
<path d="M305.727 118.844C304.598 121.945 308.839 124.766 313.35 126.407C324.626 130.511 330.777 131.154 348.013 134.234C332.85 125.458 327.564 122.002 316.429 117.949C311.777 116.256 306.754 116.024 305.727 118.844Z" fill="#CE1126"/>
<path d="M310.835 106.512C309.44 109.503 313.419 112.683 317.769 114.711C328.645 119.783 334.717 120.959 351.618 125.529C337.278 115.466 332.313 111.561 321.574 106.554C317.087 104.462 312.103 103.793 310.835 106.512Z" fill="#CE1126"/>
<path d="M316.999 94.673C315.348 97.5315 319.035 101.046 323.192 103.446C333.584 109.445 339.53 111.146 355.969 117.172C342.561 105.897 337.955 101.575 327.693 95.6499C323.406 93.1751 318.499 92.0745 316.999 94.673Z" fill="#CE1126"/>
<path d="M324.17 83.4158C322.277 86.1195 325.643 89.9417 329.575 92.6947C339.405 99.5773 345.18 101.79 361.031 109.225C348.657 96.8247 344.445 92.1176 334.738 85.321C330.684 82.482 325.891 80.9579 324.17 83.4158Z" fill="#CE1126"/>
<path d="M332.296 72.8265C330.174 75.3549 333.194 79.456 336.871 82.5412C346.064 90.2543 351.624 92.9616 366.767 101.751C355.52 88.3185 351.735 83.2622 342.658 75.6455C338.866 72.4639 334.224 70.5279 332.296 72.8265Z" fill="#CE1126"/>
<path d="M341.313 62.9856C338.979 65.3195 341.631 69.6682 345.025 73.0622C353.51 81.5472 358.813 84.7288 373.132 94.8042C363.099 80.4429 359.769 75.076 351.39 66.6971C347.89 63.197 343.435 60.8639 341.313 62.9856Z" fill="#CE1126"/>
<path d="M351.153 53.9676C348.626 56.0888 350.888 60.652 353.974 64.3289C361.687 73.5214 366.693 77.1534 380.079 88.4392C371.335 73.2582 368.485 67.6215 360.868 58.544C357.686 54.7521 353.452 52.0393 351.153 53.9676Z" fill="#CE1126"/>
<path d="M361.743 45.8421C359.04 47.7349 360.896 52.478 363.649 56.4099C370.532 66.2397 375.202 70.2943 387.554 82.7039C380.166 66.8184 377.818 60.9547 371.021 51.2477C368.182 47.1929 364.2 44.1213 361.743 45.8421Z" fill="#CE1126"/>
<path d="M373 38.6705C370.142 40.3204 371.578 45.2072 373.978 49.3641C379.978 59.7563 384.277 64.2024 395.5 77.6413C389.525 61.1725 387.697 55.1265 381.772 44.8642C379.297 40.5774 375.598 37.1705 373 38.6705Z" fill="#CE1126"/>
<path d="M384.839 32.5073C381.849 33.9019 382.853 38.8953 384.882 43.2455C389.953 54.1212 393.848 58.9251 403.857 73.2911C399.34 56.3641 398.046 50.1817 393.038 39.442C390.946 34.9557 387.558 31.2394 384.839 32.5073Z" fill="#CE1126"/>
<path d="M397.171 27.3996C394.07 28.5281 394.635 33.5899 396.277 38.1004C400.382 49.3766 403.844 54.5017 412.563 69.6854C409.538 52.4294 408.788 46.1578 404.734 35.0226C403.041 30.3711 399.99 26.3736 397.171 27.3996Z" fill="#CE1126"/>
<path d="M409.901 23.3856C406.713 24.2397 406.835 29.3316 408.078 33.9681C411.183 45.5592 414.185 50.9666 421.548 66.8524C420.039 49.3982 419.838 43.0851 416.771 31.6388C415.489 26.8575 412.798 22.6092 409.901 23.3856Z" fill="#CE1126"/>
<path d="M422.932 20.4969C419.682 21.0698 419.36 26.1529 420.193 30.88C422.278 42.6976 424.797 48.346 430.747 64.813C430.765 47.2939 431.115 40.9873 429.057 29.3174C428.197 24.4426 425.886 19.976 422.932 20.4969Z" fill="#CE1126"/>
<path d="M436.165 18.7545C432.878 19.0422 432.114 24.0779 432.532 28.8596C433.578 40.814 435.595 46.6604 440.087 63.5833C441.632 46.1323 442.531 39.8802 441.498 28.0752C441.066 23.1441 439.154 18.4931 436.165 18.7545Z" fill="#CE1126"/>
<path d="M787 138.922H112V150.172H787V138.922Z" fill="black"/>
</g>
<defs>
<clipPath id="clip0_0_1">
<rect width="900" height="450" fill="white"/>
</clipPath>
</defs>
</svg>
