<svg width="900" height="450" viewBox="0 0 900 450" fill="none" xmlns="http://www.w3.org/2000/svg">
<g clip-path="url(#clip0_764_7584)">
<path d="M900 0H0V450H900V0Z" fill="#1E1E1E"/>
<mask id="mask0_764_7584" style="mask-type:luminance" maskUnits="userSpaceOnUse" x="0" y="0" width="900" height="450">
<path d="M900 0H0V450H900V0Z" fill="white"/>
</mask>
<g mask="url(#mask0_764_7584)">
<mask id="mask1_764_7584" style="mask-type:luminance" maskUnits="userSpaceOnUse" x="0" y="0" width="900" height="450">
<path d="M0 0H900V450H0V0Z" fill="white"/>
</mask>
<g mask="url(#mask1_764_7584)">
<path d="M0 0H900V450H0V0Z" fill="white"/>
<path d="M0 0H900V450H0V0Z" fill="white"/>
<path d="M0 0H900V450H0V0Z" fill="white"/>
</g>
<mask id="mask2_764_7584" style="mask-type:luminance" maskUnits="userSpaceOnUse" x="0" y="0" width="900" height="226">
<path d="M0 0H900V225.333H0V0Z" fill="white"/>
</mask>
<g mask="url(#mask2_764_7584)">
<path d="M17.0766 16.0469H900M900 80.2396H17.0766M17.0766 144.427H900M900 208.62H17.0766" stroke="#CC0000" stroke-width="32.0953"/>
</g>
<mask id="mask3_764_7584" style="mask-type:luminance" maskUnits="userSpaceOnUse" x="0" y="0" width="450" height="274">
<path d="M0 0H450V273.333H0V0Z" fill="white"/>
</mask>
<g mask="url(#mask3_764_7584)">
<path d="M0 0H449.333V272.813H0V0Z" fill="#000066"/>
</g>
<mask id="mask4_764_7584" style="mask-type:luminance" maskUnits="userSpaceOnUse" x="0" y="256" width="900" height="162">
<path d="M0 256H900V417.333H0V256Z" fill="white"/>
</mask>
<g mask="url(#mask4_764_7584)">
<path d="M-4.76837e-07 272.813H900M900 337H-4.76837e-07M-4.76837e-07 401.193H900" stroke="#CC0000" stroke-width="32.0953"/>
</g>
<path d="M281.5 48.1406L288.656 97.0885L316.339 56.099L301.495 103.307L344.219 78.3646L310.385 114.474L359.734 110.526L313.594 128.38L359.734 146.234L310.385 142.292L344.219 178.396L301.495 153.453L316.339 200.661L288.656 159.672L281.5 208.62L274.344 159.672L246.661 200.661L261.505 153.453L218.781 178.396L252.615 142.292L203.266 146.234L249.406 128.38L203.266 110.526L252.615 114.474L218.781 78.3646L261.505 103.307L246.661 56.099L274.344 97.0885L281.5 48.1406ZM241.38 50.151C239.76 49.4323 238.12 48.7604 236.453 48.1458C234.792 47.526 233.115 46.9635 231.417 46.4479C229.719 45.9375 228.005 45.4792 226.281 45.0729C224.552 44.6667 222.818 44.3125 221.068 44.0156C219.323 43.7135 217.562 43.474 215.802 43.2812C214.036 43.0937 212.271 42.9583 210.5 42.8802C208.729 42.8021 206.958 42.776 205.182 42.8073C203.411 42.8385 201.641 42.9219 199.87 43.0625C198.104 43.2031 196.344 43.401 194.589 43.651C192.833 43.901 191.083 44.2031 189.349 44.5625C187.615 44.9219 185.891 45.3333 184.177 45.8021C182.469 46.2656 180.771 46.7865 179.094 47.3594C177.411 47.9271 175.755 48.5521 174.115 49.224C172.474 49.901 170.859 50.625 169.26 51.401C167.667 52.1771 166.099 53 164.552 53.8698C163.01 54.7448 161.495 55.6667 160.01 56.6302C158.521 57.599 157.068 58.6094 155.641 59.6667C154.219 60.724 152.828 61.8229 151.474 62.9687C150.12 64.1094 148.802 65.2969 147.521 66.5208C146.24 67.75 144.995 69.0104 143.792 70.3125C142.589 71.6146 141.427 72.9583 140.307 74.3333C139.187 75.7083 138.109 77.1146 137.078 78.5573C136.047 80 135.062 81.4687 134.12 82.974C133.177 84.4792 132.286 86.0052 131.437 87.5677C130.594 89.125 129.797 90.7083 129.052 92.3177C128.302 93.9271 127.604 95.5521 126.958 97.2083C126.312 98.8594 125.719 100.526 125.177 102.214C124.635 103.906 124.146 105.609 123.714 107.328C123.276 109.047 122.891 110.776 122.562 112.521C122.234 114.26 121.958 116.01 121.74 117.771C121.521 119.531 121.354 121.297 121.245 123.068C121.135 124.839 121.083 126.609 121.083 128.38C121.083 130.156 121.135 131.927 121.245 133.698C121.354 135.464 121.521 137.229 121.74 138.99C121.958 140.75 122.234 142.5 122.562 144.245C122.891 145.984 123.276 147.719 123.714 149.438C124.146 151.156 124.635 152.859 125.177 154.547C125.719 156.234 126.312 157.906 126.958 159.557C127.604 161.208 128.302 162.839 129.052 164.448C129.797 166.052 130.594 167.635 131.437 169.198C132.286 170.755 133.177 172.286 134.12 173.786C135.062 175.292 136.047 176.766 137.078 178.208C138.109 179.646 139.187 181.057 140.307 182.432C141.427 183.807 142.589 185.146 143.792 186.448C144.995 187.75 146.24 189.016 147.521 190.24C148.802 191.464 150.12 192.651 151.474 193.792C152.828 194.938 154.219 196.036 155.641 197.094C157.068 198.151 158.521 199.167 160.01 200.13C161.495 201.099 163.01 202.016 164.552 202.891C166.099 203.76 167.667 204.589 169.26 205.359C170.859 206.135 172.474 206.859 174.115 207.536C175.755 208.208 177.411 208.833 179.094 209.406C180.771 209.974 182.469 210.495 184.177 210.958C185.891 211.427 187.615 211.839 189.349 212.198C191.083 212.557 192.833 212.859 194.589 213.109C196.344 213.365 198.104 213.557 199.87 213.698C201.641 213.839 203.411 213.927 205.182 213.958C206.958 213.984 208.729 213.964 210.5 213.885C212.271 213.802 214.036 213.667 215.802 213.479C217.562 213.292 219.323 213.047 221.068 212.75C222.818 212.448 224.552 212.099 226.281 211.693C228.005 211.286 229.719 210.828 231.417 210.312C233.115 209.802 234.792 209.234 236.453 208.62C238.12 208 239.76 207.333 241.38 206.615C238.995 208.323 236.536 209.922 234.005 211.411C231.474 212.896 228.885 214.266 226.229 215.51C223.573 216.76 220.865 217.885 218.104 218.891C215.344 219.891 212.547 220.766 209.708 221.51C206.87 222.255 204.005 222.87 201.109 223.354C198.214 223.833 195.302 224.187 192.375 224.401C189.448 224.62 186.516 224.703 183.583 224.651C180.651 224.604 177.724 224.417 174.807 224.099C171.885 223.781 168.99 223.328 166.115 222.745C163.24 222.161 160.396 221.448 157.583 220.604C154.771 219.766 152.005 218.792 149.281 217.698C146.557 216.599 143.891 215.38 141.281 214.042C138.672 212.703 136.125 211.245 133.646 209.672C131.172 208.099 128.771 206.417 126.443 204.625C124.12 202.833 121.885 200.938 119.734 198.943C117.583 196.943 115.526 194.854 113.568 192.667C111.609 190.484 109.75 188.214 108 185.859C106.25 183.505 104.609 181.073 103.078 178.568C101.547 176.063 100.135 173.495 98.8385 170.859C97.5469 168.224 96.375 165.536 95.3229 162.797C94.276 160.057 93.3542 157.276 92.5573 154.448C91.7656 151.625 91.0989 148.766 90.5677 145.88C90.0312 142.995 89.6354 140.089 89.3646 137.167C89.0989 134.245 88.9635 131.318 88.9635 128.38C88.9635 125.448 89.0989 122.516 89.3646 119.594C89.6354 116.672 90.0312 113.766 90.5677 110.88C91.0989 107.995 91.7656 105.141 92.5573 102.313C93.3542 99.4896 94.276 96.7031 95.3229 93.9635C96.375 91.224 97.5469 88.5365 98.8385 85.901C100.135 83.2656 101.547 80.6979 103.078 78.1927C104.609 75.6875 106.25 73.2604 108 70.9062C109.75 68.5521 111.609 66.2813 113.568 64.0937C115.526 61.9115 117.583 59.8177 119.734 57.8229C121.885 55.8229 124.12 53.9323 126.443 52.1406C128.771 50.3437 131.172 48.6615 133.646 47.0885C136.125 45.5156 138.672 44.0625 141.281 42.7187C143.891 41.3802 146.557 40.1615 149.281 39.0677C152.005 37.9687 154.771 37 157.583 36.1562C160.396 35.3125 163.24 34.599 166.115 34.0156C168.99 33.4323 171.885 32.9844 174.807 32.6615C177.724 32.3437 180.651 32.1615 183.583 32.1094C186.516 32.0573 189.448 32.1406 192.375 32.3594C195.302 32.5781 198.214 32.9271 201.109 33.4115C204.005 33.8958 206.87 34.5104 209.708 35.2552C212.547 36 215.344 36.875 218.104 37.875C220.865 38.875 223.573 40 226.229 41.25C228.885 42.5 231.474 43.8646 234.005 45.3542C236.536 46.8385 238.995 48.4375 241.38 50.151Z" fill="#FFCC00"/>
</g>
</g>
<defs>
<clipPath id="clip0_764_7584">
<rect width="900" height="450" fill="white"/>
</clipPath>
</defs>
</svg>
