<svg width="900" height="450" viewBox="0 0 900 450" fill="none" xmlns="http://www.w3.org/2000/svg">
<rect width="900" height="450" fill="#1E1E1E"/>
<g clip-path="url(#clip0_0_1)">
<path d="M900 0H0V450H900V0Z" fill="black"/>
<path d="M900 0H0V154.688H900V0Z" fill="white"/>
<path d="M900 0H0V140.625H900V0Z" fill="#007168"/>
<path d="M900 295.125H0V450H900V295.125Z" fill="white"/>
<path d="M900 309.375H0V450H900V309.375Z" fill="#FCE100"/>
<path d="M0 0V450L295.75 225L0 0Z" fill="#D21034"/>
<path d="M153.504 309.364L98.5575 269.194L43.6851 309.375L64.9659 244.782L9.73817 205.089L77.8373 205.338L98.577 140.625L119.384 205.372L187.429 205.07L132.19 244.837L153.504 309.364Z" fill="#FCE100"/>
<path fill-rule="evenodd" clip-rule="evenodd" d="M50.8683 264.321H90.4509C93.6358 267.888 100.742 269.343 107.51 264.278C119.916 257.494 143.918 264.321 143.918 264.321L148.644 259.307L137.124 221.552L132.988 217.127C132.988 217.127 124.127 211.819 107.288 213.588C90.4509 215.358 84.5429 212.999 84.5429 212.999C84.5429 212.999 69.7736 214.768 65.638 216.833C65.1833 217.2 60.9117 221.552 60.9117 221.552L50.8683 264.321Z" fill="white" stroke="black" stroke-width="1.57465" stroke-linecap="round" stroke-linejoin="round"/>
<path d="M58.844 254.587C58.844 254.587 96.6542 249.868 107.585 264.321C101.412 268.538 95.9767 268.886 90.1557 264.616C91.083 263.073 103.744 249.868 135.942 254.293" stroke="black" stroke-width="1.57465" stroke-linecap="round" stroke-linejoin="round"/>
<path d="M99.3129 216.833L99.0177 258.422ZM132.988 217.422L140.078 250.458ZM66.0278 216.903L62.0933 233.94Z" fill="black"/>
<path d="M99.3129 216.833L99.0177 258.422M132.988 217.422L140.078 250.458M66.0278 216.903L62.0933 233.94" stroke="black" stroke-width="1.57465" stroke-linecap="round" stroke-linejoin="round"/>
<path fill-rule="evenodd" clip-rule="evenodd" d="M25.1598 268.849L34.4686 279.747C35.5617 280.398 36.5327 280.356 37.5037 279.747L51.2996 263.217L57.0939 256.054C57.9911 254.993 58.2775 253.809 58.1975 252.748L69.2749 242.919C70.1811 242.982 70.7208 243.084 71.627 243.145C70.5564 242.868 69.7708 242.348 70.6138 241.176L73.0969 239.248L75.028 241.727C75.028 241.727 72.2693 245.309 71.9934 245.309C71.7175 245.309 68.9583 245.309 68.9583 245.309L63.1641 250.544L65.697 252.779L69.5102 263.217L74.2011 259.91L71.1656 249.166L77.7881 242.003L75.3043 238.145L76.9602 235.941C76.9602 235.941 99.8788 250.349 108.709 246.492C108.947 246.578 109.242 236.217 109.242 236.217C109.242 236.217 85.5137 233.738 84.9611 229.053C84.4095 224.37 90.204 223.819 90.204 223.819L87.7202 220.238L88.2728 218.308L92.4114 223.543L101.793 215.553L156.976 278.37C159.988 277.15 160.632 276.414 160.839 273.41C160.761 273.335 106.759 211.421 106.759 211.421L110.898 207.013C111.714 206.095 112 205.705 112.001 204.257L118.347 198.748C120.256 199.402 121.473 200.544 122.486 202.053L139.933 187.289C140.393 187.748 141.789 188.207 142.737 187.691L171.582 160.045L140.145 182.217L139.042 181.391C139.042 180.472 140.182 180.245 139.042 178.635C137.82 177.172 136.006 180.013 135.731 180.013C135.455 180.013 131.181 178.505 130.244 176.594L129.936 181.666L121.934 189.105L115.865 188.829L107.035 197.37L105.932 200.676L107.311 203.432C107.311 203.432 102.62 207.564 102.62 207.288C102.62 207.013 101.672 206.071 101.631 205.949L105.655 202.329L106.207 199.85L104.864 197.756C104.457 198.052 99.3092 203.432 99.0329 202.88C98.573 202.366 84.1342 186.074 84.1342 186.074L84.9611 183.044L75.5806 172.85C72.1606 171.671 66.751 171.472 65.6473 178.911C64.7879 180.658 57.6457 179.186 57.6457 179.186L53.7829 180.013L31.9853 210.87L44.1257 225.472L68.9583 194.064L69.6955 185.166L74.906 190.984C76.6432 191.207 78.2981 191.226 79.8725 190.433L94.5848 206.83L92.1351 209.217C92.9631 210.135 93.5327 210.722 94.3606 211.64C95.1885 211.089 95.9786 210.428 96.8065 209.876C97.0828 210.245 97.5426 210.943 97.8189 211.31C96.586 211.98 95.7212 212.872 94.4883 213.542C92.5155 212.258 90.6108 210.659 90.7556 208.115L82.4783 215.003L82.202 216.38L57.6457 236.768L55.4383 237.044L54.8865 243.38L70.8897 230.156V228.227L72.5452 229.604L84.9611 219.687C84.9611 219.687 85.789 220.788 85.5137 220.788C85.2374 220.788 74.4764 230.707 74.4764 230.707L74.2011 231.808L72.2693 233.462L71.1656 232.635L56.2661 245.859H54.0588L45.7813 254.125C43.6463 254.31 41.7963 254.536 39.987 255.778L25.1598 268.849Z" fill="black" stroke="black" stroke-width="1.57465" stroke-linecap="round" stroke-linejoin="round"/>
</g>
<defs>
<clipPath id="clip0_0_1">
<rect width="900" height="450" fill="white"/>
</clipPath>
</defs>
</svg>
