<svg xmlns="http://www.w3.org/2000/svg" xmlns:xlink="http://www.w3.org/1999/xlink" width="900" zoomAndPan="magnify" viewBox="0 0 675 337.499995" height="450" preserveAspectRatio="xMidYMid meet" version="1.0"><defs><clipPath id="5be86f0ad3"><path d="M 0.5 0 L 674.5 0 L 674.5 337 L 0.5 337 Z M 0.5 0 " clip-rule="nonzero"/></clipPath><clipPath id="b0b4e44427"><path d="M 0.5 0 L 450 0 L 450 337 L 0.5 337 Z M 0.5 0 " clip-rule="nonzero"/></clipPath><clipPath id="db257992b1"><path d="M 0.5 0 L 226 0 L 226 337 L 0.5 337 Z M 0.5 0 " clip-rule="nonzero"/></clipPath></defs><g clip-path="url(#5be86f0ad3)"><path fill="#ffffff" d="M 0.5 0 L 674.5 0 L 674.5 337 L 0.5 337 Z M 0.5 0 " fill-opacity="1" fill-rule="nonzero"/><path fill="#ffffff" d="M 0.5 0 L 674.5 0 L 674.5 337 L 0.5 337 Z M 0.5 0 " fill-opacity="1" fill-rule="nonzero"/><path fill="#ec1920" d="M 0.5 0 L 674.5 0 L 674.5 449.335938 L 0.5 449.335938 Z M 0.5 0 " fill-opacity="1" fill-rule="nonzero"/></g><g clip-path="url(#b0b4e44427)"><path fill="#ffffff" d="M 0.5 0 L 449.832031 0 L 449.832031 449.335938 L 0.5 449.335938 Z M 0.5 0 " fill-opacity="1" fill-rule="nonzero"/></g><g clip-path="url(#db257992b1)"><path fill="#051440" d="M 0.5 0 L 225.167969 0 L 225.167969 449.335938 L 0.5 449.335938 Z M 0.5 0 " fill-opacity="1" fill-rule="nonzero"/></g></svg>