<svg width="900" height="450" viewBox="0 0 900 450" fill="none" xmlns="http://www.w3.org/2000/svg">
<g clip-path="url(#clip0_764_7712)">
<mask id="mask0_764_7712" style="mask-type:luminance" maskUnits="userSpaceOnUse" x="0" y="0" width="900" height="450">
<path d="M0.666653 -3.37219e-06H899.333V449.333H0.666653V-3.37219e-06Z" fill="white"/>
</mask>
<g mask="url(#mask0_764_7712)">
<path d="M0.666653 -3.37219e-06H899.333V449.333H0.666653V-3.37219e-06Z" fill="white"/>
<path d="M0.666653 -3.37219e-06H899.333V449.333H0.666653V-3.37219e-06Z" fill="white"/>
<path d="M0.666653 -3.37219e-06H899.333V599.115H0.666653V-3.37219e-06Z" fill="#EC1920"/>
</g>
<mask id="mask1_764_7712" style="mask-type:luminance" maskUnits="userSpaceOnUse" x="0" y="0" width="600" height="450">
<path d="M0.666653 -3.37219e-06H600V449.333H0.666653V-3.37219e-06Z" fill="white"/>
</mask>
<g mask="url(#mask1_764_7712)">
<path d="M0.666653 -3.37219e-06H599.776V599.115H0.666653V-3.37219e-06Z" fill="white"/>
</g>
<mask id="mask2_764_7712" style="mask-type:luminance" maskUnits="userSpaceOnUse" x="0" y="0" width="302" height="450">
<path d="M0.666653 -3.37219e-06H301.333V449.333H0.666653V-3.37219e-06Z" fill="white"/>
</mask>
<g mask="url(#mask2_764_7712)">
<path d="M0.666653 -3.37219e-06H300.224V599.115H0.666653V-3.37219e-06Z" fill="#051440"/>
</g>
</g>
<defs>
<clipPath id="clip0_764_7712">
<rect width="900" height="450" fill="white"/>
</clipPath>
</defs>
</svg>
