<svg width="900" height="450" viewBox="0 0 900 450" fill="none" xmlns="http://www.w3.org/2000/svg">
<g clip-path="url(#clip0_765_60)">
<path d="M900 0H0V450H900V0Z" fill="#1E1E1E"/>
<mask id="mask0_765_60" style="mask-type:luminance" maskUnits="userSpaceOnUse" x="0" y="0" width="900" height="450">
<path d="M900 0H0V450H900V0Z" fill="white"/>
</mask>
<g mask="url(#mask0_765_60)">
<path d="M900 0H0V450H900V0Z" fill="white"/>
<mask id="mask1_765_60" style="mask-type:luminance" maskUnits="userSpaceOnUse" x="0" y="0" width="900" height="450">
<path d="M0 0H900V450H0V0Z" fill="white"/>
</mask>
<g mask="url(#mask1_765_60)">
<path d="M0 0H900V450H0V0Z" fill="white"/>
<path d="M0 0H900V450H0V0Z" fill="white"/>
<path d="M0 0H900V450H0V0Z" fill="#007934"/>
</g>
<path d="M274 0H626V450H274V0Z" fill="white"/>
<path d="M452.855 30C452.069 38.5052 451.282 47.0104 450.496 55.5104C447.616 55.9479 444.736 56.3802 441.861 56.8125C441.861 56.8125 447.855 60.1823 448.902 63.5625C449.074 64.1042 449.006 64.5521 448.762 64.8906C448.683 64.9948 448.558 65.1146 448.449 65.2031C446.715 66.5365 441.574 65.9063 441.574 65.9063C441.574 65.9063 448.381 71.651 448.902 73.7344C448.918 73.7813 448.933 73.8281 448.933 73.875C448.933 73.9115 448.939 73.9792 448.933 74.0156C448.923 74.0469 448.887 74.099 448.876 74.1302C448.829 74.2292 448.746 74.349 448.647 74.4375C447.048 75.9167 439.501 76.3333 439.501 76.3333C439.501 76.3333 447.871 82.3021 448.392 85.6823C448.866 88.75 448.47 90.5469 448.392 90.8542C447.808 90.3542 434.314 79.0104 425.605 82.3229C425.173 82.5469 424.918 82.7604 424.814 82.974C424.767 83.0781 424.756 83.2083 424.782 83.3125C425.392 85.1979 437.704 87.1302 446.293 94.5521C446.079 96.4115 421.819 88.6458 420.918 93.5104C421.678 94.8802 447.027 98.5365 448.902 101.844C439.569 102.193 420.282 99.7865 420.918 102.859C418.97 106.406 439.137 104.401 447.595 107.297C450.079 110.099 449.84 112.453 445.522 112.75C437.366 108.87 419.116 105.99 419.074 110.938C419.074 110.948 419.069 110.964 419.074 110.969C419.074 110.974 419.1 110.99 419.1 110.995C419.111 111.01 419.116 111.036 419.131 111.052C419.157 111.078 419.225 111.109 419.272 111.135C421.335 112.167 438.329 111.667 444.73 115.885C435.657 117.938 404.892 111.719 404.694 114.755C405.574 116.172 410.439 122.385 418.819 122.125C427.194 121.865 446.574 125.516 447.881 128.115C447.923 128.198 447.923 128.281 447.913 128.344C447.345 130.156 422.392 122.807 412.793 127.323C402.85 132.01 441.314 129.172 447.6 134.896C453.881 140.62 435.038 134.359 435.038 134.359C435.038 134.359 408.876 130.729 404.954 132.552C401.027 134.375 396.569 138.542 396.569 138.542C396.569 138.542 399.178 143.734 401.798 142.693C402.199 142.536 402.47 142.5 402.621 142.552C402.626 142.552 402.647 142.552 402.652 142.552L402.678 142.578C402.683 142.583 402.704 142.604 402.71 142.609C402.71 142.615 402.73 142.63 402.736 142.635C402.736 142.641 402.762 142.661 402.767 142.667C402.777 142.693 402.788 142.745 402.793 142.776C402.855 143.557 401.001 145.828 401.001 145.828C401.001 145.828 437.663 154.661 445.777 162.469C453.892 170.276 399.183 150.234 399.183 150.234C399.183 150.234 377.199 158.302 400.491 158.823C397.897 162.599 401.569 164.927 401.798 165.068C401.798 165.068 440.548 173.141 444.475 179.391C448.402 185.635 418.038 173.396 411.23 170.01C404.668 166.745 386.392 171.74 385.35 173.26C385.34 173.271 385.324 173.302 385.319 173.318C385.319 173.323 385.324 173.339 385.319 173.344C385.319 173.354 385.319 173.391 385.319 173.401C385.324 173.406 385.319 173.422 385.319 173.427C385.324 173.438 385.319 173.453 385.319 173.458C385.324 173.464 385.345 173.479 385.35 173.484C385.35 173.49 385.345 173.51 385.35 173.516C385.361 173.536 385.392 173.578 385.407 173.599C385.413 173.604 385.428 173.62 385.433 173.625C386.605 174.911 394.762 176.677 395.012 178.88C395.012 178.891 395.006 178.901 395.012 178.911C395.012 179.026 394.975 179.167 394.923 179.276C393.897 181.26 384.163 182.099 383.756 183.969C383.751 184 383.73 184.047 383.73 184.078C383.73 186.161 432.694 196.313 445.777 207.245C458.866 218.177 407.308 194.219 407.308 194.219C407.308 194.219 410.189 198.125 407.308 199.167C404.433 200.203 394.204 184.589 377.449 194.219C374.397 198.182 392.079 201.328 396.574 201.766C395.038 205.688 393.699 206.984 399.98 210.891C400.668 211.318 401.053 211.573 401.204 211.708C401.204 211.714 401.225 211.734 401.23 211.734L401.262 211.766C401.262 211.766 401.256 211.792 401.262 211.792C401.262 211.797 401.262 211.818 401.262 211.823C401.256 211.823 401.236 211.823 401.23 211.823C401.225 211.823 401.21 211.823 401.204 211.823C400.23 211.672 388.944 205.901 387.762 205.661C387.751 205.661 387.715 205.661 387.71 205.661C387.704 205.661 387.683 205.661 387.678 205.661C387.678 206.182 388.986 212.443 388.986 212.443C383.183 207.76 376.173 206.344 369.611 211.141C369.6 211.422 369.553 215.911 376.142 218.688C372.428 226.234 380.345 223.891 392.907 230.917C374.236 226.068 372.741 235.078 386.09 237.161C399.439 239.245 436.09 240.547 444.73 251.74C446.553 254.099 447.048 255.286 446.689 255.667C445.251 256.964 431.996 247.432 430.069 247.078C430.064 247.078 430.043 247.073 430.043 247.078C430.038 247.083 430.017 247.099 430.012 247.104C429.986 247.135 429.949 247.198 429.928 247.245C429.454 248.281 429.017 252.786 429.017 252.786C423.433 249.573 418.308 246.688 411.631 245.328C411.105 246.365 411.215 247.844 410.694 248.885C404.631 244.542 399.35 241.484 390.548 241.063C390.199 242.448 389.845 243.854 389.496 245.24C389.496 245.24 382.157 236.13 367.762 245.24C359.725 250.974 398.131 247.318 404.413 254.083C410.694 260.849 405.72 261.88 405.72 261.88C400.486 259.974 395.272 258.083 390.038 256.172C390.038 256.172 371.433 252.771 366.199 256.938C360.965 261.104 442.626 271.255 444.986 282.448C446.574 288.516 425.798 276.094 407.824 270.75C407.126 272.74 406.413 274.724 405.72 276.714C405.293 276.292 398.34 269.568 390.548 268.406C390.548 268.411 390.522 268.427 390.517 268.438C390.517 268.448 390.517 268.479 390.517 268.495C390.532 269.349 392.111 275.443 392.111 275.443C392.111 275.443 371.975 266.063 361.767 271.005C351.558 275.953 397.355 278.552 401.543 283.24C402.001 283.75 402.194 284.125 402.168 284.37C402.163 284.411 402.131 284.474 402.111 284.51C401.1 285.984 387.444 280.542 386.09 283.24C384.517 286.365 362.272 277.521 362.532 281.688C362.798 285.849 365.689 288.182 365.689 288.182C365.689 288.182 412.017 292.604 413.59 298.073C415.157 303.536 387.933 294.964 387.933 294.964C387.933 294.964 385.303 298.849 387.397 300.672C387.475 300.74 387.543 300.807 387.564 300.839V300.865C387.564 300.865 387.538 300.87 387.538 300.865C386.59 300.557 371.84 290.948 373.272 298.323C367.501 296.042 352.6 288.958 354.694 294.427C356.756 299.813 395.626 307.479 396.772 307.703C395.741 307.786 379.303 309.151 380.064 313.438C358.032 300.094 358.085 308.094 358.585 308.719C358.585 308.724 358.585 308.75 358.585 308.75C357.35 308.552 330.241 301.839 351.793 313.438C363.355 319.656 366.173 322.083 366.23 323.016C366.23 323.036 366.23 323.083 366.23 323.099C366.225 323.125 366.21 323.161 366.199 323.188C366.199 323.193 366.173 323.208 366.173 323.214C366.163 323.229 366.152 323.255 366.142 323.271C366.142 323.276 366.121 323.292 366.116 323.297C366.111 323.302 366.09 323.323 366.085 323.328C366.085 323.328 366.064 323.349 366.058 323.354C366.053 323.359 366.038 323.38 366.027 323.385C365.579 323.667 364.501 323.547 364.183 323.552C364.168 323.552 364.137 323.552 364.126 323.552C364.121 323.552 364.1 323.578 364.1 323.583L364.126 323.609C364.433 324.063 366.126 328.656 366.027 329.458C366.027 329.469 366.006 329.505 366.001 329.516C366.001 329.516 366.001 329.536 366.001 329.542C366.001 329.542 365.975 329.542 365.97 329.542C365.97 329.542 365.975 329.568 365.97 329.568C365.97 329.573 365.944 329.568 365.944 329.568C365.944 329.568 365.918 329.573 365.918 329.568C364.97 329.333 350.694 321.75 345.798 321.234C340.824 320.714 317.262 327.734 342.392 338.667C367.517 349.599 382.954 336.057 396.824 337.62C410.699 339.182 417.256 341.531 415.949 345.953C414.637 350.38 401.756 331.448 388.22 347.818C372.819 344.792 362.371 343.036 370.319 354.292C345.168 344.943 329.808 357.141 361.48 362.089C392.605 363 411.741 354.542 411.741 354.542C411.741 354.542 416.991 364.193 424.585 357.427C431.819 350.974 432.387 359.182 432.652 359.969C432.657 359.979 432.678 359.99 432.683 359.995C432.683 360 432.678 360.021 432.683 360.026C432.683 360.026 432.704 360.026 432.71 360.026C433.267 359.885 440.012 356.891 440.012 356.891C440.621 356.891 441.246 356.891 441.861 356.891V419.349C450.319 419.438 458.767 419.516 467.23 419.604C467.23 419.604 459.116 365.219 463.564 357.932C467.876 350.875 471.949 351.635 472.199 351.693C472.199 351.693 488.694 356.625 490.527 355.844C490.548 355.833 490.59 355.828 490.611 355.813C490.626 355.807 490.657 355.797 490.668 355.786C490.699 355.766 490.751 355.724 490.782 355.703C490.788 355.698 490.803 355.677 490.808 355.672C492.152 354.458 490.788 349.656 499.163 350.391C501.751 349.453 500.762 345.354 502.428 344.344C502.46 344.328 502.512 344.302 502.543 344.286C502.605 344.26 502.699 344.224 502.772 344.203C502.871 344.177 503.001 344.156 503.111 344.146C505.73 343.885 556.241 358.193 567.236 344.656C564.355 337.109 554.397 344.141 551.782 344.401C549.423 344.401 539.47 339.719 533.71 344.401C528.475 340.5 504.673 337.906 504.673 337.906C501.532 334.781 561.475 339.453 564.876 337.115C571.944 330.083 551.798 330.87 548.652 333.214C543.069 329.833 536.053 330.083 531.777 332.422C529.73 327.547 510.267 329.661 499.444 328.271C495.986 326.25 496.558 325.094 498.907 323.833C521.506 324.792 543.986 327.724 566.694 326.719C572.835 318.76 558.97 315.76 550.475 322.536C545.486 314.38 535.288 322.271 528.48 321.49C521.678 320.708 524.819 312.391 533.454 313.693C542.095 314.995 557.538 313.161 560.418 309.26C563.293 305.354 558.699 301.401 544.449 305.104C539.626 300.417 529.022 305.099 524.048 306.661C517.433 302.99 502.038 306.146 496.803 307.448C491.678 304.281 523.767 299.115 523.767 299.115C536.152 298.901 543.137 296.766 547.064 295.724C565.788 285.75 546.803 284.688 536.975 291.943C530.876 287.208 525.085 292.349 519.59 294.172C514.439 295.88 504.907 297.125 503.736 296.63C503.72 296.625 503.689 296.609 503.678 296.604C503.678 296.599 503.652 296.578 503.652 296.573L503.621 296.547C503.621 296.542 503.621 296.521 503.621 296.516V296.49C503.626 296.479 503.642 296.448 503.652 296.432C504.423 295.245 518.538 286.63 518.538 286.63C518.538 286.63 536.866 285.313 540.527 284.792C542.762 284.474 550.59 280.792 550.585 279.427C550.522 278.578 547.262 278.656 537.376 281.151C528.475 281.927 523.246 281.427 519.845 281.688C514.371 281.125 512.064 280.547 511.605 280.047C511.59 280.026 511.558 279.984 511.548 279.964C511.512 279.87 511.532 279.766 511.605 279.677C511.621 279.661 511.668 279.615 511.689 279.594C513.032 278.531 521.689 277.76 521.689 277.76C521.689 277.76 548.126 275.349 549.876 273.974C549.881 273.969 549.897 273.948 549.902 273.943C549.913 273.932 549.928 273.901 549.933 273.891C549.933 273.88 549.96 273.865 549.96 273.859C550.506 263.115 527.532 268.073 526.918 268.151C526.986 260.594 506.189 268.042 505.215 268.151C505.21 268.151 505.189 268.156 505.183 268.151C504.288 267.63 503.902 267.078 503.819 266.573C503.798 266.38 503.819 266.161 503.876 265.979C504.397 264.422 507.543 263.208 507.543 263.208C513.303 261.823 521.913 261.391 524.163 259.568C524.163 259.568 540.418 259.422 542.345 255.13C538.361 244.188 507.949 257.068 503.876 259.026C503.064 259.026 502.564 258.823 502.314 258.49C500.98 256.547 507.579 250.151 507.798 249.932C507.803 249.932 507.824 249.906 507.829 249.901C508.835 249.62 533.111 248.385 544.704 232.755C545.522 223.094 530.84 238.208 530.84 238.208C529.746 225.672 514.876 239.005 506.236 240.042C497.6 241.083 497.345 236.135 503.366 235.354C509.387 234.573 516.183 235.083 519.59 225.974C522.991 216.865 533.215 226.505 535.043 223.12C536.819 219.844 531.699 217.052 531.381 216.88C531.381 216.88 538.965 209.047 526.663 209.307C514.486 209.568 498.741 207.792 498.423 207.755C499.189 207.464 511.59 202.813 523.256 203.063C535.298 203.323 528.751 194.474 517.23 194.474C505.715 194.474 499.704 190.578 499.704 190.578C506.246 188.151 512.788 185.719 519.335 183.292C518.897 181.469 518.465 179.656 518.027 177.839C518.027 177.839 529.538 168.719 513.308 170.802C497.085 172.885 495.241 173.146 495.241 173.146C495.241 173.146 463.293 178.016 462.538 178.094C462.538 178.094 462.517 178.094 462.512 178.094C462.204 178.042 459.038 177.068 458.449 175.859C458.433 175.818 458.402 175.76 458.392 175.719C458.376 175.672 458.366 175.599 458.366 175.547C458.361 175.49 458.355 175.406 458.366 175.349C458.496 174.714 459.48 174.026 462.001 173.401C470.376 171.318 499.97 165.344 504.418 166.906C504.991 167.104 505.413 167.063 505.668 166.849C507.335 165.349 501.788 155.771 488.168 154.417C472.46 152.854 462.798 158.318 462.798 158.318C462.798 158.318 452.574 154.661 462.001 151.536C471.423 148.411 486.35 152.583 486.35 152.583C486.35 152.583 503.09 147.63 489.22 145.547C475.345 143.464 470.97 147.422 464.616 147.635C462.074 144.49 486.392 143.745 487.913 141.141C485.345 136.453 470.303 141.141 461.486 141.141C457.741 139.557 457.491 136.984 461.746 135.406C470.73 135.057 479.178 135.583 488.168 135.234C487.902 130.464 488.173 124.807 487.913 120.036C476.512 117.969 463.142 121.552 456.746 121.25C458.454 116.047 483.069 114.703 485.808 113.286C491.465 106.255 462.204 113.177 461.491 113.286C456.293 112.521 456.611 109.26 459.897 107.297C467.491 106.427 484.512 108.401 483.225 103.286C482.236 98.4896 471.423 101.057 466.97 102.099C462.522 103.141 455.975 102.354 455.975 102.354C453.126 98.5365 481.637 100.099 481.376 97.1563C481.006 93.776 463.303 96.1042 457.282 96.3646C452.652 93.1875 479.053 91.0729 480.298 90.6563C480.303 90.651 480.324 90.6302 480.324 90.6302C481.314 81.9792 462.001 90.6302 458.335 90.6302C457.704 90.6302 457.23 90.474 456.887 90.2031C456.808 90.1458 456.725 90.0521 456.657 89.9792C455.402 88.5208 456.517 85.1771 456.517 85.1771C456.517 85.1771 463.397 82.1042 463.819 81.3646C463.819 81.3594 463.845 81.3385 463.845 81.3333C463.85 81.3333 463.845 81.3073 463.845 81.3073C463.845 81.3021 463.845 81.2813 463.845 81.276C463.845 81.276 463.824 81.2552 463.819 81.25C463.803 81.2292 463.767 81.1927 463.736 81.1667C462.923 80.5469 458.194 78.9844 457.569 78.9323C457.564 78.9323 457.543 78.9323 457.538 78.9323C457.538 78.9323 457.517 78.9063 457.512 78.9063C457.501 78.901 457.491 78.8854 457.48 78.875C457.48 78.875 457.46 78.8542 457.454 78.849C457.1 78.1198 457.538 72.9427 457.538 72.9427C457.538 72.9427 462.991 68.8802 463.335 67.2656C463.34 67.25 463.335 67.224 463.335 67.2083C463.34 67.1979 463.335 67.1667 463.335 67.151C463.335 67.1406 463.335 67.1094 463.335 67.0938C463.335 67.0833 463.34 67.0521 463.335 67.0417C463.335 67.0313 463.335 67.0156 463.335 67.0104C463.329 66.9948 463.314 66.9688 463.308 66.9531C463.303 66.9479 463.308 66.9323 463.308 66.9271C463.303 66.9219 463.282 66.901 463.277 66.8958C463.272 66.8906 463.256 66.8802 463.251 66.8698C463.241 66.8542 463.23 66.8281 463.22 66.8125C463.22 66.8073 463.199 66.7917 463.194 66.7865C463.173 66.7656 463.137 66.7448 463.105 66.7292C463.095 66.724 463.064 66.7083 463.053 66.6979C461.673 66.0417 455.975 68 455.975 68C455.975 66.2656 455.975 64.5365 455.975 62.8021C455.975 62.8021 460.965 62.2604 461.491 59.9219C461.517 59.7813 461.506 59.6458 461.491 59.526C461.48 59.474 461.475 59.401 461.46 59.3542C461.428 59.2552 461.376 59.1354 461.319 59.0469C461.308 59.0313 461.272 59 461.262 58.9896C460.121 57.5208 455.465 57.3229 455.465 57.3229C454.59 48.2135 453.725 39.1146 452.85 30.0052L452.855 30ZM448.194 119.214V122.802C448.194 122.802 442.324 122.505 441.236 121.589C441.225 121.583 441.21 121.563 441.204 121.563C441.199 121.557 441.178 121.536 441.178 121.531C441.173 121.526 441.152 121.51 441.147 121.505C441.142 121.5 441.121 121.479 441.121 121.474C441.111 121.464 441.1 121.432 441.09 121.422C441.09 121.417 441.095 121.396 441.09 121.391C441.09 121.385 441.064 121.37 441.064 121.365C441.064 121.359 441.064 121.339 441.064 121.333C441.064 121.323 441.064 121.286 441.064 121.276C441.064 121.271 441.064 121.255 441.064 121.25C441.064 121.245 441.064 121.229 441.064 121.224C441.069 121.203 441.079 121.156 441.09 121.135C441.095 121.13 441.116 121.115 441.121 121.109C441.131 121.089 441.157 121.047 441.178 121.026C441.183 121.016 441.199 121 441.204 120.995C441.215 120.984 441.251 120.953 441.262 120.938C441.303 120.906 441.35 120.859 441.402 120.828C443.371 119.453 447.303 119.49 448.079 119.271C448.085 119.271 448.1 119.276 448.111 119.271C448.116 119.271 448.131 119.245 448.137 119.245C448.142 119.24 448.163 119.245 448.168 119.245C448.168 119.24 448.189 119.219 448.194 119.214ZM456.517 123.99C456.72 123.99 468.21 124.089 469.22 125.573C469.225 125.583 469.241 125.615 469.246 125.63C469.256 125.646 469.272 125.693 469.277 125.714C469.277 125.729 469.272 125.755 469.277 125.771C469.277 125.792 469.277 125.833 469.277 125.854C469.272 125.875 469.256 125.917 469.246 125.938C468.371 127.792 456.746 128.906 456.746 128.906L456.517 123.99ZM455.866 131.083C455.871 131.083 455.892 131.078 455.892 131.083C455.897 131.083 455.918 131.078 455.923 131.083C456.605 131.26 461.361 131.411 461.944 132.208C461.949 132.219 461.97 132.229 461.975 132.24C461.975 132.245 461.97 132.266 461.975 132.266C461.975 132.276 462.001 132.286 462.001 132.297C462.001 132.297 462.001 132.318 462.001 132.323C462.001 132.328 462.001 132.349 462.001 132.354C462.001 132.354 462.001 132.375 462.001 132.38C462.001 132.385 462.001 132.406 462.001 132.406C462.001 132.411 462.001 132.432 462.001 132.438C462.001 132.443 461.975 132.458 461.975 132.464C461.97 132.469 461.975 132.49 461.975 132.495C461.965 132.505 461.954 132.536 461.944 132.552C461.944 132.552 461.918 132.573 461.918 132.578C461.913 132.583 461.923 132.604 461.918 132.604C460.928 133.807 456.538 134.13 456.319 134.13H456.293C456.288 134.13 456.293 134.104 456.293 134.104C456.288 134.099 456.267 134.083 456.262 134.073C456.064 133.672 455.866 131.083 455.866 131.083ZM420.835 140.516C424.585 140.323 432.032 141.203 446.006 145.036C446.006 145.333 446.288 148.938 446.178 149.526C446.178 149.531 446.147 149.552 446.147 149.557C446.147 149.563 446.147 149.583 446.147 149.583C446.147 149.589 446.121 149.615 446.121 149.615C445.902 149.505 420.694 142.302 418.392 142.411C418.329 142.411 418.251 142.417 418.189 142.411C418.142 142.401 418.069 142.391 418.022 142.38C417.96 142.365 417.876 142.323 417.824 142.297C417.803 142.286 417.756 142.281 417.736 142.266C417.73 142.266 417.715 142.245 417.71 142.24C417.631 142.188 417.553 142.109 417.506 142.042C417.506 142.036 417.486 142.021 417.48 142.016C417.475 142 417.46 141.969 417.454 141.958C417.449 141.953 417.454 141.932 417.454 141.927C417.449 141.917 417.428 141.885 417.423 141.875C417.423 141.865 417.423 141.849 417.423 141.844C417.423 141.833 417.423 141.802 417.423 141.786C417.423 141.776 417.423 141.745 417.423 141.729C417.428 141.698 417.439 141.651 417.454 141.62C417.486 141.542 417.548 141.443 417.621 141.365C418.006 140.99 418.975 140.615 420.835 140.516ZM433.902 151.167C437.923 151.021 447.548 153.328 448.079 153.203C448.079 153.964 448.506 157.573 448.022 158.313C448.017 158.318 448.001 158.339 447.996 158.344C447.991 158.349 447.97 158.365 447.965 158.37C447.96 158.375 447.944 158.396 447.939 158.401C447.928 158.406 447.892 158.422 447.881 158.427C447.876 158.427 447.861 158.427 447.85 158.427C447.84 158.427 447.808 158.427 447.793 158.427C447.788 158.427 447.772 158.427 447.767 158.427C446.949 158.224 432.741 153.734 432.199 151.901C432.189 151.87 432.199 151.818 432.199 151.786C432.204 151.724 432.236 151.646 432.282 151.589C432.288 151.583 432.303 151.568 432.314 151.563C432.319 151.557 432.335 151.542 432.34 151.536C432.611 151.318 433.173 151.193 433.902 151.167ZM473.449 161.052C477.288 160.979 479.996 161.307 478.991 162.469C476.251 165.625 457.314 168.229 457.314 168.229L456.975 162.469C457.381 162.406 467.001 161.177 473.449 161.052ZM419.241 179.021C422.465 178.849 429.96 180.609 446.657 187.635L446.772 191.792C446.772 191.792 418.496 183.266 417.512 181.849C417.022 181.151 416.121 179.188 419.241 179.021ZM474.647 185.208C475.506 185.167 476.111 185.25 476.319 185.464C476.324 185.469 476.345 185.484 476.35 185.49C476.361 185.51 476.371 185.557 476.376 185.578C476.381 185.599 476.407 185.635 476.407 185.661C476.392 185.781 476.303 185.938 476.152 186.115C473.517 189.057 459.387 191.99 459.387 191.99C459.387 191.99 459.387 188.286 459.387 188.177C459.387 188.177 459.413 188.177 459.418 188.177C460.058 188.151 470.433 185.422 474.642 185.208H474.647ZM412.652 185.719C416.871 185.495 426.402 187.719 447.767 197.781C447.767 197.885 447.96 201.354 447.881 201.677C447.881 201.677 447.855 201.677 447.85 201.677C446.585 201.271 409.413 188.286 409.413 188.286C409.371 188.146 408.814 185.922 412.652 185.719ZM483.423 201.964C484.501 201.917 485.215 202.01 485.381 202.245C485.397 202.271 485.407 202.323 485.413 202.359C485.407 202.469 485.314 202.615 485.126 202.781C481.756 205.807 460.267 209.474 459.501 209.531C459.496 209.531 459.475 209.531 459.475 209.531C459.47 209.531 459.449 209.536 459.444 209.531L459.418 209.505C459.407 209.495 459.392 209.464 459.387 209.448C459.387 209.443 459.387 209.427 459.387 209.422C459.381 209.406 459.361 209.375 459.361 209.365C459.22 208.661 459.668 206.203 459.699 205.859C459.699 205.854 459.699 205.833 459.699 205.833C459.699 205.833 459.725 205.828 459.73 205.833C459.73 205.833 459.751 205.859 459.756 205.859C459.762 205.859 459.777 205.859 459.782 205.859C461.163 205.839 477.631 202.203 483.423 201.964ZM420.236 211.427C426.637 211.099 446.022 219.938 446.97 220.214C446.975 220.214 447.001 220.214 447.001 220.214C446.902 220.604 446.887 223.797 446.803 224.307C446.798 224.323 446.803 224.354 446.803 224.365H446.772C446.251 224.083 419.678 213.12 418.506 213.995C417.772 212.271 418.532 211.51 420.236 211.427ZM477.402 213.74C478.73 213.682 479.704 213.745 480.012 213.911C480.053 213.932 480.085 213.969 480.1 213.995C480.1 214 480.1 214.021 480.1 214.026C480.1 214.031 480.1 214.047 480.1 214.052C480.095 214.063 480.105 214.099 480.1 214.109C480.095 214.115 480.074 214.13 480.069 214.135C480.053 214.161 480.017 214.193 479.986 214.224C478.012 215.964 459.699 219.563 459.699 219.563C459.699 219.563 459.616 216.188 459.616 215.859C460.137 215.75 471.954 213.979 477.402 213.74ZM475.923 225.406C477.21 225.365 478.126 225.438 478.34 225.661L478.366 225.693C478.371 225.703 478.366 225.74 478.366 225.75C478.366 225.755 478.392 225.771 478.392 225.776C478.392 225.781 478.366 225.797 478.366 225.802C478.366 225.818 478.371 225.849 478.366 225.859C478.361 225.865 478.34 225.88 478.34 225.891C478.324 225.917 478.303 225.948 478.282 225.974C478.262 225.995 478.22 226.036 478.194 226.057C476.22 227.755 460.694 231 460.694 231C460.694 231 460.267 227.297 460.267 227.188C460.699 227.198 471.079 225.568 475.923 225.411V225.406ZM410.407 226.339C414.152 226.104 423.433 227.641 446.345 235.917L447.116 240.38C447.116 240.38 408.965 228.135 407.876 227.755C407.881 227.755 407.876 227.729 407.876 227.724C407.881 227.703 407.871 227.646 407.876 227.583C407.892 227.469 407.949 227.297 408.079 227.13C408.345 226.802 408.96 226.432 410.407 226.339ZM460.668 236.031C461.126 236.13 467.522 236.339 468.704 237.328C468.71 237.333 468.73 237.354 468.736 237.359C468.741 237.365 468.756 237.38 468.762 237.385C468.767 237.391 468.788 237.411 468.793 237.417C468.803 237.432 468.814 237.458 468.819 237.474C468.824 237.479 468.845 237.495 468.85 237.5C468.861 237.521 468.871 237.563 468.876 237.583C468.876 237.589 468.876 237.609 468.876 237.615C468.876 237.62 468.876 237.635 468.876 237.641C468.876 237.651 468.876 237.688 468.876 237.698C468.876 237.703 468.876 237.719 468.876 237.724C468.876 237.74 468.85 237.771 468.85 237.781C468.845 237.786 468.85 237.807 468.85 237.813C468.845 237.823 468.829 237.854 468.819 237.87C467.835 239.396 461.147 239.958 461.147 239.958C461.147 239.958 460.819 236.969 460.668 236.031ZM476.152 244.734C477.642 244.698 478.71 244.865 478.933 245.297C479.064 245.589 478.819 246.021 478.111 246.599C472.631 251.063 460.694 251.938 460.694 251.938V247.021C460.694 247.021 460.715 247.021 460.72 247.021C461.402 246.943 471.204 244.849 476.152 244.734ZM491.35 249.307C493.241 249.24 494.058 249.552 494.303 249.984C494.324 250.026 494.35 250.089 494.361 250.13C494.381 250.203 494.397 250.302 494.392 250.38C494.329 250.943 493.72 251.615 493.256 252.047C491.392 253.792 461.689 263.151 461.689 263.151C461.689 263.151 461.465 256.943 461.574 256.401C478.939 251.167 487.433 249.458 491.35 249.307ZM472.142 266.88C474.032 266.813 475.512 266.922 475.949 267.359C475.98 267.391 476.017 267.443 476.038 267.474C476.048 267.495 476.058 267.536 476.064 267.557C476.069 267.578 476.064 267.62 476.064 267.646C476.064 267.682 476.074 267.745 476.064 267.786C476.043 267.87 475.986 267.969 475.923 268.068C473.381 270.547 461.038 270.922 461.038 270.922V267.844C463.355 267.766 468.517 267.016 472.142 266.88ZM484.501 271.938C485.09 271.922 485.449 272.021 485.496 272.193C485.501 272.203 485.501 272.234 485.496 272.25C485.47 272.391 485.293 272.609 484.928 272.87C479.996 276.354 461.46 279.932 461.46 279.932C461.46 279.932 461.689 277.495 461.803 276.911C462.319 276.901 480.069 272.047 484.501 271.938ZM494.902 275.807C497.085 275.786 498.751 276.109 499.704 276.797H499.73V276.823C499.73 276.828 499.73 276.849 499.73 276.854C499.73 276.865 499.73 276.896 499.73 276.911C499.637 277.583 498.251 280.76 493.366 282.135C487.277 281.594 461.433 289.193 460.923 289.313C460.918 289.307 460.892 289.313 460.892 289.313C460.892 289.302 460.892 289.271 460.892 289.255C460.881 288.766 461.236 286.146 461.236 286.146C470.142 280.849 486.335 275.885 494.902 275.807ZM428.73 290.724C428.788 290.724 428.84 290.724 428.902 290.724C440.079 291.922 444.256 296.083 445.439 297.755C443.21 301.646 425.538 292.922 427.397 291.063C427.611 290.875 428.048 290.74 428.73 290.724ZM492.798 291.458C493.241 291.443 493.647 291.531 493.933 291.714C494.053 291.792 494.168 291.901 494.246 292.021C494.355 292.198 494.428 292.432 494.449 292.703C493.277 294.495 487.241 293.714 486.861 293.661C487.168 293.552 490.652 291.542 492.798 291.458ZM468.85 303.547C469.678 303.516 470.366 303.599 470.751 303.833C470.798 303.859 470.855 303.911 470.892 303.943C470.907 303.958 470.939 303.99 470.949 304C470.965 304.021 470.996 304.063 471.006 304.083C471.022 304.109 471.027 304.146 471.038 304.172C471.105 304.38 471.079 304.672 470.892 305.016C469.142 308.286 461.46 307.078 461.46 307.078V304.792C461.465 304.792 461.491 304.792 461.491 304.792C461.923 304.828 466.152 303.661 468.85 303.547ZM423.616 312.167C425.98 312.047 428.043 313.589 430.21 314.823C435.032 313.839 444.928 315.583 444.928 315.583V319.932C444.928 319.938 444.902 319.958 444.897 319.964C444.892 319.964 444.876 319.958 444.871 319.964C443.97 320.12 432.371 319.615 429.782 317.984C427.673 317.984 421.694 314.849 421.23 313.24C421.23 313.224 421.204 313.198 421.204 313.182C421.199 313.161 421.204 313.115 421.204 313.099C421.204 313.083 421.204 313.052 421.204 313.042C421.204 313.031 421.199 312.995 421.204 312.984C421.204 312.979 421.204 312.964 421.204 312.958C421.204 312.943 421.23 312.911 421.23 312.901C421.236 312.896 421.23 312.875 421.23 312.87C422.058 312.432 422.866 312.203 423.616 312.167ZM474.335 314.313C476.147 314.214 476.913 314.771 475.496 316.771C471.553 322.328 461.35 320.047 461.35 320.047L460.923 316.599C464.522 316.74 471.1 314.484 474.329 314.313H474.335ZM436.204 325.583C440.329 325.391 444.814 327.026 444.814 327.026C444.918 327.234 447.032 331.375 445.152 332.76C445.085 332.807 445.006 332.859 444.928 332.901C442.626 334.099 431.621 331.964 430.975 327.563C432.272 326.203 434.189 325.677 436.204 325.583ZM393.673 327.729C397.444 327.505 401.663 329.818 402.142 330.047C402.147 330.047 402.163 330.047 402.168 330.047C402.168 330.177 402.027 334.229 402.027 334.229C402.027 334.229 394.558 332.156 392.194 327.984C392.668 327.854 393.173 327.76 393.673 327.729ZM465.527 328.297C469.736 328.271 474.819 329.25 475.553 330.667C475.694 330.958 475.652 331.276 475.381 331.599C473.303 334.109 461.465 331.828 461.465 331.828V328.776C462.517 328.469 463.965 328.307 465.527 328.297Z" fill="#007934"/>
</g>
</g>
<defs>
<clipPath id="clip0_765_60">
<rect width="900" height="450" fill="white"/>
</clipPath>
</defs>
</svg>
