<svg width="900" height="450" viewBox="0 0 900 450" fill="none" xmlns="http://www.w3.org/2000/svg">
<g clip-path="url(#clip0_765_5456)">
<path d="M900 0H0V450H900V0Z" fill="#1E1E1E"/>
<mask id="mask0_765_5456" style="mask-type:luminance" maskUnits="userSpaceOnUse" x="0" y="0" width="900" height="450">
<path d="M900 0H0V450H900V0Z" fill="white"/>
</mask>
<g mask="url(#mask0_765_5456)">
<mask id="mask1_765_5456" style="mask-type:luminance" maskUnits="userSpaceOnUse" x="0" y="0" width="900" height="450">
<path d="M0 0H900V450H0V0Z" fill="white"/>
</mask>
<g mask="url(#mask1_765_5456)">
<path d="M0 0H900V450H0V0Z" fill="white"/>
<path d="M0 0H900V450H0V0Z" fill="white"/>
<path d="M0 0H900V450H0V0Z" fill="white"/>
</g>
<path d="M12.9 217.531H321.572L12.9 24.0208V436.036H321.572L12.9 127.026V217.531Z" fill="#DC143C"/>
<mask id="mask2_765_5456" style="mask-type:luminance" maskUnits="userSpaceOnUse" x="-2" y="0" width="372" height="450">
<path d="M-2 0H369.448V450H-2V0Z" fill="white"/>
</mask>
<g mask="url(#mask2_765_5456)">
<path d="M12.9063 217.854H321.578L12.9063 24.0565V436.683H321.578L12.9063 127.215V217.854Z" stroke="#003893" stroke-width="26.5863"/>
</g>
<path d="M13.5729 217.531H322.245L13.5729 24.0208V436.036H322.245L13.5729 127.026V217.531Z" fill="#DC143C"/>
<path d="M29.2604 144.964C30.4687 148.036 31.8958 151.005 33.5469 153.865C35.1979 156.724 37.0521 159.443 39.1094 162.026C41.1667 164.609 43.4062 167.021 45.8229 169.266C48.2448 171.51 50.8177 173.563 53.5417 175.422C56.2708 177.281 59.1198 178.927 62.0885 180.359C65.0625 181.792 68.125 182.995 71.276 183.969C74.4323 184.943 77.6354 185.677 80.901 186.167C84.1614 186.661 87.4427 186.906 90.7396 186.906C94.0417 186.906 97.3229 186.661 100.583 186.167C103.844 185.677 107.052 184.943 110.203 183.969C113.354 182.995 116.417 181.792 119.391 180.359C122.365 178.927 125.214 177.281 127.937 175.422C130.667 173.563 133.24 171.51 135.656 169.266C138.078 167.021 140.312 164.609 142.37 162.026C144.427 159.443 146.281 156.724 147.932 153.865C149.583 151.005 151.016 148.036 152.219 144.964C152.219 146.979 152.12 148.99 151.922 150.995C151.724 153 151.427 154.995 151.036 156.969C150.641 158.948 150.151 160.896 149.568 162.828C148.984 164.755 148.307 166.651 147.536 168.51C146.766 170.375 145.901 172.193 144.953 173.969C144.005 175.745 142.969 177.474 141.854 179.146C140.734 180.823 139.536 182.443 138.255 184C136.979 185.557 135.63 187.047 134.208 188.469C132.781 189.896 131.292 191.25 129.734 192.526C128.177 193.802 126.562 195.005 124.891 196.12C123.219 197.24 121.49 198.276 119.719 199.224C117.943 200.177 116.125 201.036 114.266 201.807C112.401 202.578 110.51 203.255 108.583 203.844C106.656 204.427 104.708 204.917 102.734 205.307C100.76 205.703 98.7708 205.995 96.7656 206.193C94.7604 206.391 92.7552 206.49 90.7396 206.49C88.7292 206.49 86.7187 206.391 84.7187 206.193C82.7135 205.995 80.7239 205.703 78.75 205.307C76.776 204.917 74.8229 204.427 72.901 203.844C70.9739 203.255 69.0781 202.578 67.2187 201.807C65.3594 201.036 63.5417 200.177 61.7656 199.224C59.9896 198.276 58.2656 197.24 56.5937 196.12C54.9167 195.005 53.3021 193.802 51.7448 192.526C50.1875 191.25 48.6979 189.896 47.276 188.469C45.8542 187.047 44.5 185.557 43.2239 184C41.9479 182.443 40.75 180.823 39.6302 179.146C38.5104 177.474 37.4792 175.745 36.526 173.969C35.5781 172.193 34.7187 170.375 33.9479 168.51C33.1771 166.651 32.5 164.755 31.9167 162.828C31.3281 160.896 30.8385 158.948 30.4479 156.969C30.0521 154.995 29.7604 153 29.5625 150.995C29.3646 148.99 29.2604 146.979 29.2604 144.964Z" fill="white"/>
<path d="M119.349 173.604C119.349 174.542 119.302 175.479 119.214 176.411C119.12 177.349 118.984 178.271 118.802 179.193C118.62 180.115 118.391 181.021 118.12 181.922C117.849 182.818 117.531 183.698 117.172 184.568C116.812 185.432 116.411 186.281 115.974 187.109C115.531 187.932 115.052 188.74 114.531 189.516C114.01 190.297 113.453 191.052 112.854 191.776C112.26 192.5 111.635 193.193 110.969 193.859C110.307 194.521 109.615 195.151 108.891 195.745C108.167 196.339 107.417 196.896 106.635 197.422C105.854 197.943 105.052 198.422 104.229 198.865C103.401 199.307 102.557 199.708 101.687 200.068C100.823 200.427 99.9427 200.74 99.0469 201.016C98.151 201.286 97.2396 201.51 96.3229 201.698C95.401 201.88 94.4792 202.016 93.5469 202.109C92.6146 202.198 91.6771 202.245 90.7396 202.245C89.8021 202.245 88.8698 202.198 87.9375 202.109C87.0052 202.016 86.0781 201.88 85.1614 201.698C84.2396 201.51 83.3333 201.286 82.4375 201.016C81.5417 200.74 80.6562 200.427 79.7917 200.068C78.9271 199.708 78.0833 199.307 77.2552 198.865C76.4271 198.422 75.625 197.943 74.8489 197.422C74.0677 196.896 73.3177 196.339 72.5937 195.745C71.8698 195.151 71.1719 194.521 70.5104 193.859C69.8489 193.193 69.2187 192.5 68.625 191.776C68.0312 191.052 67.4739 190.297 66.9531 189.516C66.4323 188.74 65.9531 187.932 65.5104 187.109C65.0677 186.281 64.6667 185.432 64.3073 184.568C63.9531 183.698 63.6354 182.818 63.3646 181.922C63.0937 181.021 62.8646 180.115 62.6823 179.193C62.5 178.271 62.3594 177.349 62.2708 176.411C62.1771 175.479 62.1302 174.542 62.1302 173.604C62.1302 172.667 62.1771 171.734 62.2708 170.797C62.3594 169.865 62.5 168.938 62.6823 168.021C62.8646 167.099 63.0937 166.188 63.3646 165.292C63.6354 164.396 63.9531 163.51 64.3073 162.646C64.6667 161.781 65.0677 160.932 65.5104 160.104C65.9531 159.276 66.4323 158.474 66.9531 157.693C67.4739 156.911 68.0312 156.161 68.625 155.438C69.2187 154.714 69.8489 154.016 70.5104 153.354C71.1719 152.693 71.8698 152.063 72.5937 151.469C73.3177 150.87 74.0677 150.313 74.8489 149.792C75.625 149.271 76.4271 148.792 77.2552 148.349C78.0833 147.906 78.9271 147.505 79.7917 147.146C80.6562 146.786 81.5417 146.469 82.4375 146.198C83.3333 145.927 84.2396 145.698 85.1614 145.516C86.0781 145.333 87.0052 145.193 87.9375 145.104C88.8698 145.01 89.8021 144.964 90.7396 144.964C91.6771 144.964 92.6146 145.01 93.5469 145.104C94.4792 145.193 95.401 145.333 96.3229 145.516C97.2396 145.698 98.151 145.927 99.0469 146.198C99.9427 146.469 100.823 146.786 101.687 147.146C102.557 147.505 103.401 147.906 104.229 148.349C105.052 148.792 105.854 149.271 106.635 149.792C107.417 150.313 108.167 150.87 108.891 151.469C109.615 152.063 110.307 152.693 110.969 153.354C111.635 154.016 112.26 154.714 112.854 155.438C113.453 156.161 114.01 156.911 114.531 157.693C115.052 158.474 115.531 159.276 115.974 160.104C116.411 160.932 116.812 161.781 117.172 162.646C117.531 163.51 117.849 164.396 118.12 165.292C118.391 166.188 118.62 167.099 118.802 168.021C118.984 168.938 119.12 169.865 119.214 170.797C119.302 171.734 119.349 172.667 119.349 173.604Z" fill="white"/>
<path d="M101.687 147.146L98.4948 134.594L90.7396 144.964" fill="white"/>
<path d="M110.969 153.354L112.818 140.531L101.687 147.146" fill="white"/>
<path d="M117.172 162.646L123.776 151.505L110.969 153.354" fill="white"/>
<path d="M119.349 173.604L129.708 165.844L117.172 162.646" fill="white"/>
<path d="M117.172 184.568L129.708 181.365L119.349 173.604" fill="white"/>
<path d="M110.969 193.859L123.776 195.703L117.172 184.568" fill="white"/>
<path d="M79.7917 147.146L82.9896 134.594L90.7396 144.964" fill="white"/>
<path d="M70.5104 153.354L68.6667 140.531L79.7917 147.146" fill="white"/>
<path d="M64.3073 162.646L57.7031 151.505L70.5104 153.354" fill="white"/>
<path d="M62.1302 173.604L51.7708 165.844L64.3073 162.646" fill="white"/>
<path d="M64.3073 184.568L51.7708 181.365L62.1302 173.604" fill="white"/>
<path d="M70.5104 193.859L57.7031 195.703L64.3073 184.568" fill="white"/>
<path d="M132.635 326.786C132.635 328.156 132.568 329.526 132.432 330.896C132.297 332.26 132.099 333.62 131.828 334.969C131.562 336.313 131.229 337.646 130.833 338.958C130.432 340.271 129.974 341.563 129.448 342.833C128.922 344.104 128.333 345.344 127.687 346.557C127.042 347.766 126.339 348.943 125.573 350.083C124.812 351.229 123.995 352.328 123.125 353.391C122.255 354.453 121.333 355.469 120.365 356.443C119.396 357.411 118.38 358.333 117.318 359.203C116.26 360.078 115.156 360.891 114.016 361.656C112.875 362.422 111.698 363.125 110.49 363.771C109.281 364.422 108.042 365.005 106.776 365.531C105.505 366.057 104.214 366.521 102.901 366.917C101.589 367.318 100.26 367.651 98.9167 367.917C97.5677 368.188 96.2135 368.385 94.8489 368.521C93.4844 368.656 92.1146 368.724 90.7396 368.724C89.3698 368.724 88 368.656 86.6354 368.521C85.2708 368.385 83.9114 368.188 82.5677 367.917C81.2239 367.651 79.8906 367.318 78.5781 366.917C77.2656 366.521 75.9739 366.057 74.7083 365.531C73.4427 365.005 72.2031 364.422 70.9948 363.771C69.7812 363.125 68.6042 362.422 67.4635 361.656C66.3229 360.891 65.2239 360.078 64.1614 359.203C63.1042 358.333 62.0885 357.411 61.1198 356.443C60.1458 355.469 59.2292 354.453 58.3542 353.391C57.4844 352.328 56.6719 351.229 55.9062 350.083C55.1458 348.943 54.4427 347.766 53.7917 346.557C53.1458 345.344 52.5625 344.104 52.0364 342.833C51.5104 341.563 51.0469 340.271 50.651 338.958C50.25 337.646 49.9219 336.313 49.651 334.969C49.3854 333.62 49.1823 332.26 49.0469 330.896C48.9114 329.526 48.8489 328.156 48.8489 326.786C48.8489 325.411 48.9114 324.042 49.0469 322.672C49.1823 321.307 49.3854 319.948 49.651 318.604C49.9219 317.255 50.25 315.922 50.651 314.609C51.0469 313.297 51.5104 312.005 52.0364 310.734C52.5625 309.464 53.1458 308.224 53.7917 307.016C54.4427 305.802 55.1458 304.625 55.9062 303.484C56.6719 302.344 57.4844 301.24 58.3542 300.177C59.2292 299.115 60.1458 298.099 61.1198 297.13C62.0885 296.156 63.1042 295.234 64.1614 294.365C65.2239 293.495 66.3229 292.677 67.4635 291.911C68.6042 291.151 69.7812 290.443 70.9948 289.797C72.2031 289.151 73.4427 288.563 74.7083 288.036C75.9739 287.51 77.2656 287.047 78.5781 286.651C79.8906 286.25 81.2239 285.917 82.5677 285.651C83.9114 285.38 85.2708 285.182 86.6354 285.047C88 284.911 89.3698 284.844 90.7396 284.844C92.1146 284.844 93.4844 284.911 94.8489 285.047C96.2135 285.182 97.5677 285.38 98.9167 285.651C100.26 285.917 101.589 286.25 102.901 286.651C104.214 287.047 105.505 287.51 106.776 288.036C108.042 288.563 109.281 289.151 110.49 289.797C111.698 290.443 112.875 291.151 114.016 291.911C115.156 292.677 116.26 293.495 117.318 294.365C118.38 295.234 119.396 296.156 120.365 297.13C121.333 298.099 122.255 299.115 123.125 300.177C123.995 301.24 124.812 302.344 125.573 303.484C126.339 304.625 127.042 305.802 127.687 307.016C128.333 308.224 128.922 309.464 129.448 310.734C129.974 312.005 130.432 313.297 130.833 314.609C131.229 315.922 131.562 317.255 131.828 318.604C132.099 319.948 132.297 321.307 132.432 322.672C132.568 324.042 132.635 325.411 132.635 326.786Z" fill="white"/>
<path d="M101.583 367.297L90.7396 392.911L79.8958 367.297" fill="white"/>
<path d="M79.8958 286.271L90.7396 260.656L101.583 286.271" fill="white"/>
<path d="M50.276 337.641L24.6823 326.786L50.276 315.927" fill="white"/>
<path d="M131.208 315.927L156.797 326.786L131.208 337.641" fill="white"/>
<path d="M79.8958 367.297L57.7135 384.052L61.1198 356.443" fill="white"/>
<path d="M101.583 286.271L123.771 269.516L120.365 297.13" fill="white"/>
<path d="M50.276 315.927L33.5364 293.719L61.1198 297.13" fill="white"/>
<path d="M131.208 337.641L147.948 359.849L120.365 356.443" fill="white"/>
<path d="M61.1198 356.443L33.5364 359.849L50.276 337.641" fill="white"/>
<path d="M120.365 297.13L147.948 293.719L131.208 315.927" fill="white"/>
<path d="M61.1198 297.13L57.7135 269.516L79.8958 286.271" fill="white"/>
<path d="M120.365 356.443L123.771 384.052L101.583 367.297" fill="white"/>
</g>
</g>
<defs>
<clipPath id="clip0_765_5456">
<rect width="900" height="450" fill="white"/>
</clipPath>
</defs>
</svg>
