<svg width="900" height="450" viewBox="0 0 900 450" fill="none" xmlns="http://www.w3.org/2000/svg">
<g clip-path="url(#clip0_765_5616)">
<path d="M900 0H0V450H900V0Z" fill="#1E1E1E"/>
<mask id="mask0_765_5616" style="mask-type:luminance" maskUnits="userSpaceOnUse" x="0" y="0" width="900" height="450">
<path d="M900 0H0V450H900V0Z" fill="white"/>
</mask>
<g mask="url(#mask0_765_5616)">
<path d="M900 0H0V450H900V0Z" fill="#D9D9D9"/>
<mask id="mask1_765_5616" style="mask-type:luminance" maskUnits="userSpaceOnUse" x="0" y="0" width="900" height="450">
<path d="M0 0H900V450H0V0Z" fill="white"/>
</mask>
<g mask="url(#mask1_765_5616)">
<path d="M0 0H900V450H0V0Z" fill="white"/>
<path d="M0 0H900V450H0V0Z" fill="white"/>
<path d="M0 0H900V450H0V0Z" fill="#012169"/>
</g>
<mask id="mask2_765_5616" style="mask-type:luminance" maskUnits="userSpaceOnUse" x="0" y="0" width="705" height="450">
<path d="M0 0H704.667V449.333H0V0Z" fill="white"/>
</mask>
<g mask="url(#mask2_765_5616)">
<path d="M-0.00098002 -3.37219e-06L449.332 224.667M449.332 -3.37219e-06L-0.00098002 224.667" stroke="white" stroke-width="44.9334"/>
</g>
<mask id="mask3_765_5616" style="mask-type:luminance" maskUnits="userSpaceOnUse" x="0" y="0" width="525" height="300">
<path d="M0 0H524.224V299.557H0V0Z" fill="white"/>
</mask>
<g mask="url(#mask3_765_5616)">
<mask id="mask4_765_5616" style="mask-type:luminance" maskUnits="userSpaceOnUse" x="0" y="0" width="525" height="300">
<path d="M0 0V112.333H524.224V224.667H449.333L0 0ZM0 224.667V299.557H224.667V0H449.333L0 224.667Z" fill="white"/>
</mask>
<g mask="url(#mask4_765_5616)">
<path d="M-0.00098002 -3.37219e-06L449.332 224.667M449.332 -3.37219e-06L-0.00098002 224.667" stroke="#C8102E" stroke-width="29.9556"/>
</g>
</g>
<mask id="mask5_765_5616" style="mask-type:luminance" maskUnits="userSpaceOnUse" x="0" y="0" width="562" height="338">
<path d="M0 0H562V337.333H0V0Z" fill="white"/>
</mask>
<g mask="url(#mask5_765_5616)">
<path d="M224.666 -3.37219e-06V299.557M-0.00098002 112.333H524.223" stroke="white" stroke-width="74.8891"/>
</g>
<mask id="mask6_765_5616" style="mask-type:luminance" maskUnits="userSpaceOnUse" x="0" y="0" width="548" height="323">
<path d="M0 0H547.333V322.667H0V0Z" fill="white"/>
</mask>
<g mask="url(#mask6_765_5616)">
<path d="M224.666 -3.37219e-06V299.557M-0.00098002 112.333H524.223" stroke="#C8102E" stroke-width="44.9334"/>
</g>
<mask id="mask7_765_5616" style="mask-type:luminance" maskUnits="userSpaceOnUse" x="0" y="0" width="899" height="450">
<path d="M0 0H898.667V449.333H0V0Z" fill="white"/>
</mask>
<g mask="url(#mask7_765_5616)">
<path d="M449.333 0H898.667V449.333H0V224.667H449.333V0Z" fill="#FEDD00"/>
</g>
<path d="M263.557 112.333C263.557 113.583 263.495 114.833 263.37 116.078C263.25 117.328 263.068 118.563 262.823 119.792C262.578 121.016 262.271 122.229 261.911 123.427C261.547 124.625 261.125 125.802 260.646 126.958C260.167 128.12 259.63 129.25 259.042 130.354C258.453 131.453 257.807 132.526 257.115 133.568C256.417 134.609 255.672 135.615 254.88 136.583C254.083 137.547 253.245 138.474 252.359 139.359C251.474 140.245 250.547 141.083 249.583 141.88C248.615 142.672 247.609 143.417 246.568 144.115C245.526 144.813 244.453 145.453 243.349 146.042C242.245 146.635 241.115 147.167 239.958 147.646C238.802 148.125 237.625 148.547 236.427 148.911C235.229 149.276 234.016 149.578 232.792 149.823C231.562 150.068 230.323 150.25 229.078 150.37C227.833 150.495 226.583 150.557 225.333 150.557C224.083 150.557 222.833 150.495 221.589 150.37C220.339 150.25 219.104 150.068 217.875 149.823C216.646 149.578 215.437 149.276 214.24 148.911C213.042 148.547 211.865 148.125 210.703 147.646C209.547 147.167 208.417 146.635 207.312 146.042C206.208 145.453 205.141 144.813 204.099 144.115C203.057 143.417 202.052 142.672 201.083 141.88C200.115 141.083 199.193 140.245 198.307 139.359C197.422 138.474 196.578 137.547 195.786 136.583C194.995 135.615 194.245 134.609 193.552 133.568C192.854 132.526 192.214 131.453 191.625 130.354C191.031 129.25 190.5 128.12 190.021 126.958C189.542 125.802 189.12 124.625 188.755 123.427C188.391 122.229 188.089 121.016 187.844 119.792C187.599 118.563 187.417 117.328 187.292 116.078C187.172 114.833 187.109 113.583 187.109 112.333C187.109 111.083 187.172 109.833 187.292 108.589C187.417 107.344 187.599 106.104 187.844 104.875C188.089 103.651 188.391 102.438 188.755 101.24C189.12 100.042 189.542 98.8646 190.021 97.7083C190.5 96.5521 191.031 95.4219 191.625 94.3177C192.214 93.2135 192.854 92.1406 193.552 91.099C194.245 90.0573 194.995 89.0521 195.786 88.0833C196.578 87.1198 197.422 86.1927 198.307 85.3073C199.193 84.4219 200.115 83.5833 201.083 82.7865C202.052 81.9948 203.057 81.25 204.099 80.5521C205.141 79.8594 206.208 79.2135 207.312 78.625C208.417 78.0365 209.547 77.5 210.703 77.0208C211.865 76.5417 213.042 76.1198 214.24 75.7552C215.437 75.3958 216.646 75.0885 217.875 74.8438C219.104 74.599 220.339 74.4167 221.589 74.2969C222.833 74.1719 224.083 74.1094 225.333 74.1094C226.583 74.1094 227.833 74.1719 229.078 74.2969C230.323 74.4167 231.562 74.599 232.792 74.8438C234.016 75.0885 235.229 75.3958 236.427 75.7552C237.625 76.1198 238.802 76.5417 239.958 77.0208C241.115 77.5 242.245 78.0365 243.349 78.625C244.453 79.2135 245.526 79.8594 246.568 80.5521C247.609 81.25 248.615 81.9948 249.583 82.7865C250.547 83.5833 251.474 84.4219 252.359 85.3073C253.245 86.1927 254.083 87.1198 254.88 88.0833C255.672 89.0521 256.417 90.0573 257.115 91.099C257.807 92.1406 258.453 93.2135 259.042 94.3177C259.63 95.4219 260.167 96.5521 260.646 97.7083C261.125 98.8646 261.547 100.042 261.911 101.24C262.271 102.438 262.578 103.651 262.823 104.875C263.068 106.104 263.25 107.344 263.37 108.589C263.495 109.833 263.557 111.083 263.557 112.333Z" fill="#012169"/>
<path d="M225.333 74.1094L247.802 143.255L188.979 100.521H261.682L202.865 143.255" fill="#FEDD00"/>
<path d="M94.276 92.0365L107.484 132.682L72.9114 107.563H115.646L81.0729 132.682" fill="#FEDD00"/>
<path d="M356.391 92.0365L369.594 132.682L335.021 107.563H377.755L343.182 132.682" fill="#FEDD00"/>
<path d="M225.333 166.927L238.536 207.573L203.964 182.453H246.698L212.125 207.573" fill="#FEDD00"/>
<path d="M225.333 17.151L238.536 57.7917L203.964 32.6719H246.698L212.125 57.7917" fill="#FEDD00"/>
</g>
</g>
<defs>
<clipPath id="clip0_765_5616">
<rect width="900" height="450" fill="white"/>
</clipPath>
</defs>
</svg>
