<svg width="900" height="450" viewBox="0 0 900 450" fill="none" xmlns="http://www.w3.org/2000/svg">
<g clip-path="url(#clip0_765_5807)">
<path d="M900 0H0V450H900V0Z" fill="#1E1E1E"/>
<mask id="mask0_765_5807" style="mask-type:luminance" maskUnits="userSpaceOnUse" x="0" y="0" width="900" height="450">
<path d="M900 0H0V450H900V0Z" fill="white"/>
</mask>
<g mask="url(#mask0_765_5807)">
<mask id="mask1_765_5807" style="mask-type:luminance" maskUnits="userSpaceOnUse" x="0" y="0" width="900" height="450">
<path d="M0 0H900V450H0V0Z" fill="white"/>
</mask>
<g mask="url(#mask1_765_5807)">
<path d="M0 0H900V450H0V0Z" fill="white"/>
<path d="M0 0H900V450H0V0Z" fill="white"/>
<path d="M0 0H900V450H0V0Z" fill="#012169"/>
</g>
<mask id="mask2_765_5807" style="mask-type:luminance" maskUnits="userSpaceOnUse" x="0" y="0" width="450" height="225">
<path d="M0 0H449.333V224.667H0V0Z" fill="white"/>
</mask>
<g mask="url(#mask2_765_5807)">
<path d="M0 0L449.333 224.667M0 224.667L449.333 0" stroke="white" stroke-width="44.9334"/>
</g>
<mask id="mask3_765_5807" style="mask-type:luminance" maskUnits="userSpaceOnUse" x="0" y="0" width="450" height="225">
<path d="M0 0H449.333V224.667H0V0Z" fill="white"/>
</mask>
<g mask="url(#mask3_765_5807)">
<mask id="mask4_765_5807" style="mask-type:luminance" maskUnits="userSpaceOnUse" x="0" y="0" width="450" height="225">
<path d="M0 0L224.667 112.333H0V0ZM224.667 0H449.333L224.667 112.333V0ZM224.667 112.333H449.333V224.667L224.667 112.333ZM224.667 112.333V224.667H0L224.667 112.333Z" fill="white"/>
</mask>
<g mask="url(#mask4_765_5807)">
<path d="M0 0L449.333 224.667M0 224.667L449.333 0" stroke="#C8102E" stroke-width="29.9556"/>
</g>
</g>
<mask id="mask5_765_5807" style="mask-type:luminance" maskUnits="userSpaceOnUse" x="0" y="0" width="450" height="225">
<path d="M0 0H449.333V224.667H0V0Z" fill="white"/>
</mask>
<g mask="url(#mask5_765_5807)">
<path d="M224.667 0V224.667M0 112.333H449.333" stroke="white" stroke-width="74.8891"/>
<path d="M224.667 0V224.667M0 112.333H449.333" stroke="#C8102E" stroke-width="44.9334"/>
</g>
<path d="M674.667 78.8177V95.8177L708.667 78.8177H674.667Z" fill="white"/>
<path d="M681.151 98.8073L671.161 85.0521L708.656 78.8229L681.151 98.8073Z" fill="white"/>
<path d="M674.667 78.8177V95.8177L640.667 78.8177H674.667Z" fill="white"/>
<path d="M668.182 98.8073L678.177 85.0521L640.677 78.8229L668.182 98.8073Z" fill="white"/>
<path d="M685.177 86.4531L669.01 91.7031L695.682 118.786L685.177 86.4531Z" fill="white"/>
<path d="M668.167 98.7969L678.161 85.0417L695.672 118.781L668.167 98.7969Z" fill="white"/>
<path d="M664.156 86.4531L680.328 91.7031L674.667 54.1146L664.156 86.4531Z" fill="white"/>
<path d="M685.172 86.4635L669.005 91.7135L674.667 54.125L685.172 86.4635Z" fill="white"/>
<path d="M664.156 86.4531L680.328 91.7031L653.651 118.786L664.156 86.4531Z" fill="white"/>
<path d="M681.167 98.7969L671.172 85.0417L653.661 118.781L681.167 98.7969Z" fill="white"/>
<path d="M674.667 82.5677V93.7969L697.135 82.5677H674.667Z" fill="#C8102E"/>
<path d="M678.953 95.776L672.349 86.6875L697.13 82.5677L678.953 95.776Z" fill="#C8102E"/>
<path d="M674.667 82.5677V93.7969L652.198 82.5677H674.667Z" fill="#C8102E"/>
<path d="M670.38 95.776L676.984 86.6875L652.208 82.5677L670.38 95.776Z" fill="#C8102E"/>
<path d="M681.609 87.6094L670.927 91.0833L688.552 108.979L681.609 87.6094Z" fill="#C8102E"/>
<path d="M670.375 95.7656L676.974 86.6771L688.547 108.974L670.375 95.7656Z" fill="#C8102E"/>
<path d="M667.724 87.6094L678.406 91.0833L674.667 66.2448L667.724 87.6094Z" fill="#C8102E"/>
<path d="M681.609 87.6198L670.927 91.0885L674.667 66.25L681.609 87.6198Z" fill="#C8102E"/>
<path d="M667.724 87.6094L678.406 91.0833L660.781 108.979L667.724 87.6094Z" fill="#C8102E"/>
<path d="M678.964 95.7656L672.359 86.6771L660.786 108.974L678.964 95.7656Z" fill="#C8102E"/>
<path d="M763.661 157.396V172.521L793.917 157.396H763.661Z" fill="white"/>
<path d="M769.432 175.182L760.536 162.943L793.906 157.401L769.432 175.182Z" fill="white"/>
<path d="M763.661 157.396V172.521L733.406 157.396H763.661Z" fill="white"/>
<path d="M757.891 175.182L766.781 162.943L733.411 157.401L757.891 175.182Z" fill="white"/>
<path d="M773.01 164.188L758.625 168.865L782.359 192.964L773.01 164.188Z" fill="white"/>
<path d="M757.875 175.172L766.766 162.932L782.354 192.958L757.875 175.172Z" fill="white"/>
<path d="M754.307 164.187L768.693 168.865L763.656 135.411L754.307 164.187Z" fill="white"/>
<path d="M773.01 164.198L758.62 168.87L763.661 135.422L773.01 164.198Z" fill="white"/>
<path d="M754.307 164.188L768.693 168.865L744.958 192.964L754.307 164.188Z" fill="white"/>
<path d="M769.443 175.172L760.552 162.932L744.964 192.958L769.443 175.172Z" fill="white"/>
<path d="M763.661 161.141V170.505L782.38 161.141H763.661Z" fill="#C8102E"/>
<path d="M767.229 172.151L761.729 164.578L782.375 161.146L767.229 172.151Z" fill="#C8102E"/>
<path d="M763.661 161.141V170.505L744.938 161.141H763.661Z" fill="#C8102E"/>
<path d="M760.089 172.151L765.594 164.578L744.943 161.146L760.089 172.151Z" fill="#C8102E"/>
<path d="M769.448 165.349L760.542 168.24L775.234 183.151L769.448 165.349Z" fill="#C8102E"/>
<path d="M760.083 172.146L765.583 164.573L775.229 183.151L760.083 172.146Z" fill="#C8102E"/>
<path d="M757.875 165.349L766.776 168.24L763.656 147.542L757.875 165.349Z" fill="#C8102E"/>
<path d="M769.443 165.354L760.542 168.245L763.661 147.547L769.443 165.354Z" fill="#C8102E"/>
<path d="M757.875 165.349L766.776 168.24L752.089 183.151L757.875 165.349Z" fill="#C8102E"/>
<path d="M767.24 172.146L761.734 164.573L752.094 183.151L767.24 172.146Z" fill="#C8102E"/>
<path d="M570.844 183.276V200.276L604.844 183.276H570.844Z" fill="white"/>
<path d="M577.328 203.266L567.333 189.51L604.833 183.281L577.328 203.266Z" fill="white"/>
<path d="M570.844 183.276V200.276L536.844 183.276H570.844Z" fill="white"/>
<path d="M564.359 203.266L574.349 189.51L536.854 183.281L564.359 203.266Z" fill="white"/>
<path d="M581.354 190.911L565.182 196.161L591.859 223.245L581.354 190.911Z" fill="white"/>
<path d="M564.344 203.255L574.339 189.5L591.849 223.24L564.344 203.255Z" fill="white"/>
<path d="M560.333 190.911L576.5 196.161L570.839 158.573L560.333 190.911Z" fill="white"/>
<path d="M581.349 190.922L565.182 196.177L570.844 158.583L581.349 190.922Z" fill="white"/>
<path d="M560.333 190.911L576.5 196.161L549.828 223.245L560.333 190.911Z" fill="white"/>
<path d="M577.344 203.255L567.349 189.5L549.833 223.24L577.344 203.255Z" fill="white"/>
<path d="M570.844 187.026V198.255L593.307 187.026H570.844Z" fill="#C8102E"/>
<path d="M575.13 200.234L568.526 191.146L593.302 187.026L575.13 200.234Z" fill="#C8102E"/>
<path d="M570.844 187.026V198.255L548.375 187.026H570.844Z" fill="#C8102E"/>
<path d="M566.557 200.234L573.161 191.146L548.38 187.026L566.557 200.234Z" fill="#C8102E"/>
<path d="M577.786 192.068L567.104 195.542L584.729 213.437L577.786 192.068Z" fill="#C8102E"/>
<path d="M566.547 200.224L573.151 191.135L584.724 213.432L566.547 200.224Z" fill="#C8102E"/>
<path d="M563.901 192.068L574.583 195.542L570.844 170.703L563.901 192.068Z" fill="#C8102E"/>
<path d="M577.786 192.078L567.104 195.547L570.844 170.708L577.786 192.078Z" fill="#C8102E"/>
<path d="M563.901 192.068L574.583 195.542L556.958 213.437L563.901 192.068Z" fill="#C8102E"/>
<path d="M575.135 200.224L568.536 191.135L556.964 213.432L575.135 200.224Z" fill="#C8102E"/>
<path d="M674.667 347.203V366.073L712.411 347.203H674.667Z" fill="white"/>
<path d="M681.865 369.391L670.771 354.125L712.401 347.208L681.865 369.391Z" fill="white"/>
<path d="M674.667 347.203V366.073L636.922 347.203H674.667Z" fill="white"/>
<path d="M667.469 369.391L678.563 354.125L636.932 347.208L667.469 369.391Z" fill="white"/>
<path d="M686.333 355.677L668.385 361.51L697.995 391.573L686.333 355.677Z" fill="white"/>
<path d="M667.453 369.38L678.547 354.115L697.99 391.568L667.453 369.38Z" fill="white"/>
<path d="M663 355.677L680.948 361.51L674.667 319.781L663 355.677Z" fill="white"/>
<path d="M686.328 355.688L668.38 361.521L674.667 319.792L686.328 355.688Z" fill="white"/>
<path d="M663 355.677L680.948 361.51L651.339 391.573L663 355.677Z" fill="white"/>
<path d="M681.88 369.38L670.792 354.115L651.344 391.568L681.88 369.38Z" fill="white"/>
<path d="M674.667 350.948V364.052L700.88 350.948H674.667Z" fill="#C8102E"/>
<path d="M679.667 366.359L671.964 355.755L700.87 350.953L679.667 366.359Z" fill="#C8102E"/>
<path d="M674.667 350.948V364.052L648.458 350.948H674.667Z" fill="#C8102E"/>
<path d="M669.667 366.359L677.37 355.755L648.464 350.953L669.667 366.359Z" fill="#C8102E"/>
<path d="M682.771 356.833L670.302 360.885L690.87 381.766L682.771 356.833Z" fill="#C8102E"/>
<path d="M669.656 366.349L677.359 355.75L690.865 381.76L669.656 366.349Z" fill="#C8102E"/>
<path d="M666.568 356.833L679.031 360.885L674.667 331.906L666.568 356.833Z" fill="#C8102E"/>
<path d="M682.766 356.844L670.302 360.891L674.667 331.917L682.766 356.844Z" fill="#C8102E"/>
<path d="M666.568 356.833L679.031 360.885L658.464 381.766L666.568 356.833Z" fill="#C8102E"/>
<path d="M679.677 366.349L671.974 355.75L658.474 381.76L679.677 366.349Z" fill="#C8102E"/>
</g>
</g>
<defs>
<clipPath id="clip0_765_5807">
<rect width="900" height="450" fill="white"/>
</clipPath>
</defs>
</svg>
