<svg width="900" height="450" viewBox="0 0 900 450" fill="none" xmlns="http://www.w3.org/2000/svg">
<rect width="900" height="450" fill="#1E1E1E"/>
<g clip-path="url(#clip0_0_1)">
<mask id="mask0_0_1" style="mask-type:luminance" maskUnits="userSpaceOnUse" x="0" y="0" width="900" height="450">
<path d="M0 -3.37219e-06H900V450H0V-3.37219e-06Z" fill="white"/>
</mask>
<g mask="url(#mask0_0_1)">
<path d="M0 -3.37219e-06H900V450H0V-3.37219e-06Z" fill="white"/>
<path d="M0 -3.37219e-06H900V450H0V-3.37219e-06Z" fill="white"/>
<path d="M0 -3.37219e-06H900V450H0V-3.37219e-06Z" fill="#DB161B"/>
</g>
<mask id="mask1_0_1" style="mask-type:luminance" maskUnits="userSpaceOnUse" x="225" y="0" width="676" height="151">
<path d="M225.333 -3.37219e-06H900.333V150.667H225.333V-3.37219e-06Z" fill="white"/>
</mask>
<g mask="url(#mask1_0_1)">
<path d="M225.333 -3.37219e-06H900.333V149.776H225.333V-3.37219e-06Z" fill="white"/>
</g>
<mask id="mask2_0_1" style="mask-type:luminance" maskUnits="userSpaceOnUse" x="225" y="298" width="676" height="153">
<path d="M225.333 298.667H900.333V450.667H225.333V298.667Z" fill="white"/>
</mask>
<g mask="url(#mask2_0_1)">
<path d="M225.333 299.565H900.333V450.667H225.333V299.565Z" fill="#008000"/>
</g>
<path fill-rule="evenodd" clip-rule="evenodd" d="M52.3906 76.8646H76.5365C76.8542 76.8646 77.1615 76.9219 77.4531 77.0365C77.75 77.1511 78.0104 77.3177 78.2344 77.5261C78.4636 77.7396 78.6354 77.9844 78.7604 78.2604C78.8802 78.5365 78.9427 78.8229 78.9427 79.125V90.5C78.9427 90.7969 78.8802 91.0834 78.7604 91.3594C78.6354 91.6406 78.4636 91.8802 78.2344 92.0938C78.0104 92.3073 77.75 92.4688 77.4531 92.5834C77.1615 92.6979 76.8542 92.7552 76.5365 92.7552H52.3906C52.0729 92.7552 51.7656 92.6979 51.4688 92.5834C51.1719 92.4688 50.9167 92.3073 50.6875 92.0938C50.4635 91.8802 50.2865 91.6406 50.1667 91.3594C50.0417 91.0834 49.9844 90.7969 49.9844 90.5V79.125C49.9844 78.8229 50.0417 78.5365 50.1667 78.2604C50.2865 77.9844 50.4635 77.7396 50.6875 77.5261C50.9167 77.3177 51.1719 77.1511 51.4688 77.0365C51.7656 76.9219 52.0729 76.8646 52.3906 76.8646Z" fill="white" stroke="#DB161B" stroke-width="0.283081"/>
<path fill-rule="evenodd" clip-rule="evenodd" d="M53.0104 77.5261H75.9167C76.2188 77.5261 76.5104 77.5781 76.7917 77.6823C77.0677 77.7865 77.3177 77.9375 77.5313 78.1302C77.7448 78.3229 77.9115 78.5469 78.026 78.8021C78.1406 79.0573 78.1979 79.3229 78.1979 79.5938V90.0209C78.1979 90.2969 78.1406 90.5573 78.026 90.8125C77.9115 91.0677 77.7448 91.2917 77.5313 91.4844C77.3177 91.6771 77.0677 91.8281 76.7917 91.9323C76.5104 92.0365 76.2188 92.0886 75.9167 92.0886H53.0104C52.7083 92.0886 52.4167 92.0365 52.1354 91.9323C51.8542 91.8281 51.6094 91.6771 51.3958 91.4844C51.1823 91.2917 51.0156 91.0677 50.901 90.8125C50.7865 90.5573 50.724 90.2969 50.724 90.0209V79.5938C50.724 79.3229 50.7865 79.0573 50.901 78.8021C51.0156 78.5469 51.1823 78.3229 51.3958 78.1302C51.6094 77.9375 51.8542 77.7865 52.1354 77.6823C52.4167 77.5781 52.7083 77.5261 53.0104 77.5261Z" fill="white" stroke="#DB161B" stroke-width="0.26361"/>
<path fill-rule="evenodd" clip-rule="evenodd" d="M63.5 81.5L64.8906 81.5469L64.9531 82.1771L66.0885 82.75L66.9688 82.0313L68.0417 82.6094L67.0313 83.2396L67.2865 84.1094L68.5469 84.0625V85.224L67.5365 85.1719L67.0313 85.8959L68.1667 86.724L67.2865 87.3959L66.3385 86.6667L64.9531 86.9636L65.0156 88.0261L63.5 88.1198L63.3125 87.1042L62.0521 86.5729L61.3542 87.2969L60.2812 86.7656L60.9167 85.9427L60.1563 85.4115H59.0833L59.0208 83.9115L60.0938 84.0104L60.849 83.1406L59.9687 82.4688L61.1042 81.6875L61.9219 82.3177L63.3125 82.1302L63.5 81.5Z" fill="white" stroke="#DB161B" stroke-width="0.166254"/>
<path d="M65.4427 84.6354C65.4427 84.8125 65.4062 84.9792 65.3281 85.1354C65.25 85.2969 65.1406 85.4375 65 85.5625C64.8542 85.6823 64.6875 85.776 64.5052 85.8437C64.3177 85.9114 64.1198 85.9427 63.9219 85.9427C63.7187 85.9427 63.526 85.9114 63.3385 85.8437C63.151 85.776 62.9844 85.6823 62.8437 85.5625C62.6979 85.4375 62.5885 85.2969 62.5104 85.1354C62.4323 84.9792 62.3958 84.8125 62.3958 84.6354C62.3958 84.4635 62.4323 84.2969 62.5104 84.1406C62.5885 83.9792 62.6979 83.8385 62.8437 83.7135C62.9844 83.5937 63.151 83.5 63.3385 83.4323C63.526 83.3646 63.7187 83.3333 63.9219 83.3333C64.1198 83.3333 64.3177 83.3646 64.5052 83.4323C64.6875 83.5 64.8542 83.5937 65 83.7135C65.1406 83.8385 65.25 83.9792 65.3281 84.1406C65.4062 84.2969 65.4427 84.4635 65.4427 84.6354Z" fill="white" stroke="#DB161B" stroke-width="0.179323"/>
<path fill-rule="evenodd" clip-rule="evenodd" d="M54.4375 78.1927L52.2135 80.1771ZM55.9219 78.1927L53.6979 80.1771ZM57.4062 78.1927L55.1823 80.1771ZM58.8958 78.1927L56.6667 80.1771ZM60.3802 78.1927L58.151 80.1771ZM61.8646 78.1927L59.6354 80.1771ZM63.349 78.1927L61.1198 80.1771ZM64.8333 78.1927L62.6042 80.1771ZM66.3177 78.1927L64.0938 80.1771ZM67.8021 78.1927L65.5781 80.1771ZM69.2917 78.1927L67.0625 80.1771ZM70.776 78.1927L68.5469 80.1771ZM64.8333 78.1927L62.6042 80.1771ZM72.2604 78.1927L70.0313 80.1771ZM73.7448 78.1927L71.5156 80.1771ZM75.2292 78.1927L73 80.1771ZM76.7135 78.1927L74.4844 80.1771ZM74.4844 78.1927L76.7135 80.1771ZM73 78.1927L75.2292 80.1771ZM71.5156 78.1927L73.7448 80.1771ZM70.0313 78.1927L72.2604 80.1771ZM68.5469 78.1927L70.776 80.1771ZM67.0625 78.1927L69.2917 80.1771ZM65.5781 78.1927L67.8021 80.1771ZM64.0938 78.1927L66.3177 80.1771ZM62.6042 78.1927L64.8333 80.1771ZM61.1198 78.1927L63.349 80.1771ZM59.6354 78.1927L61.8646 80.1771ZM58.151 78.1927L60.3802 80.1771ZM64.0938 78.1927L66.3177 80.1771ZM56.6667 78.1927L58.8958 80.1771ZM55.1823 78.1927L57.4062 80.1771ZM53.6979 78.1927L55.9219 80.1771ZM52.2135 78.1927L54.4375 80.1771ZM54.4375 89.4375L52.2135 91.4323ZM55.9219 89.4375L53.6979 91.4323ZM57.4062 89.4375L55.1823 91.4323ZM58.8958 89.4375L56.6667 91.4323ZM60.3802 89.4375L58.151 91.4323ZM61.8646 89.4375L59.6354 91.4323ZM63.349 89.4375L61.1198 91.4323ZM64.8333 89.4375L62.6042 91.4323ZM66.3177 89.4375L64.0938 91.4323ZM67.8021 89.4375L65.5781 91.4323ZM69.2917 89.4375L67.0625 91.4323ZM70.776 89.4375L68.5469 91.4323ZM64.8333 89.4375L62.6042 91.4323ZM72.2604 89.4375L70.0313 91.4323ZM73.7448 89.4375L71.5156 91.4323ZM75.2292 89.4375L73 91.4323ZM76.7135 89.4375L74.4844 91.4323ZM74.4844 89.4375L76.7135 91.4323ZM73 89.4375L75.2292 91.4323ZM71.5156 89.4375L73.7448 91.4323ZM70.0313 89.4375L72.2604 91.4323ZM68.5469 89.4375L70.776 91.4323ZM67.0625 89.4375L69.2917 91.4323ZM65.5781 89.4375L67.8021 91.4323ZM64.0938 89.4375L66.3177 91.4323ZM62.6042 89.4375L64.8333 91.4323ZM61.1198 89.4375L63.349 91.4323ZM59.6354 89.4375L61.8646 91.4323ZM58.151 89.4375L60.3802 91.4323ZM64.0938 89.4375L66.3177 91.4323ZM56.6667 89.4375L58.8958 91.4323ZM55.1823 89.4375L57.4062 91.4323ZM53.6979 89.4375L55.9219 91.4323ZM52.2135 89.4375L54.4375 91.4323Z" fill="white"/>
<path d="M54.4375 78.1927L52.2135 80.1771M55.9219 78.1927L53.6979 80.1771M57.4062 78.1927L55.1823 80.1771M58.8958 78.1927L56.6667 80.1771M60.3802 78.1927L58.151 80.1771M61.8646 78.1927L59.6354 80.1771M63.349 78.1927L61.1198 80.1771M64.8333 78.1927L62.6042 80.1771M66.3177 78.1927L64.0938 80.1771M67.8021 78.1927L65.5781 80.1771M69.2917 78.1927L67.0625 80.1771M70.776 78.1927L68.5469 80.1771M72.2604 78.1927L70.0313 80.1771M73.7448 78.1927L71.5156 80.1771M75.2292 78.1927L73 80.1771M76.7135 78.1927L74.4844 80.1771M74.4844 78.1927L76.7135 80.1771M73 78.1927L75.2292 80.1771M71.5156 78.1927L73.7448 80.1771M70.0313 78.1927L72.2604 80.1771M68.5469 78.1927L70.776 80.1771M67.0625 78.1927L69.2917 80.1771M65.5781 78.1927L67.8021 80.1771M64.0938 78.1927L66.3177 80.1771M62.6042 78.1927L64.8333 80.1771M61.1198 78.1927L63.349 80.1771M59.6354 78.1927L61.8646 80.1771M58.151 78.1927L60.3802 80.1771M56.6667 78.1927L58.8958 80.1771M55.1823 78.1927L57.4062 80.1771M53.6979 78.1927L55.9219 80.1771M52.2135 78.1927L54.4375 80.1771M54.4375 89.4375L52.2135 91.4323M55.9219 89.4375L53.6979 91.4323M57.4062 89.4375L55.1823 91.4323M58.8958 89.4375L56.6667 91.4323M60.3802 89.4375L58.151 91.4323M61.8646 89.4375L59.6354 91.4323M63.349 89.4375L61.1198 91.4323M64.8333 89.4375L62.6042 91.4323M66.3177 89.4375L64.0938 91.4323M67.8021 89.4375L65.5781 91.4323M69.2917 89.4375L67.0625 91.4323M70.776 89.4375L68.5469 91.4323M72.2604 89.4375L70.0313 91.4323M73.7448 89.4375L71.5156 91.4323M75.2292 89.4375L73 91.4323M76.7135 89.4375L74.4844 91.4323M74.4844 89.4375L76.7135 91.4323M73 89.4375L75.2292 91.4323M71.5156 89.4375L73.7448 91.4323M70.0313 89.4375L72.2604 91.4323M68.5469 89.4375L70.776 91.4323M67.0625 89.4375L69.2917 91.4323M65.5781 89.4375L67.8021 91.4323M64.0938 89.4375L66.3177 91.4323M62.6042 89.4375L64.8333 91.4323M61.1198 89.4375L63.349 91.4323M59.6354 89.4375L61.8646 91.4323M58.151 89.4375L60.3802 91.4323M56.6667 89.4375L58.8958 91.4323M55.1823 89.4375L57.4062 91.4323M53.6979 89.4375L55.9219 91.4323M52.2135 89.4375L54.4375 91.4323" stroke="#DB161B" stroke-width="0.26361"/>
<path fill-rule="evenodd" clip-rule="evenodd" d="M173.609 76.8646H149.464C149.146 76.8646 148.839 76.9219 148.542 77.0365C148.25 77.1511 147.99 77.3177 147.76 77.5261C147.536 77.7396 147.365 77.9844 147.24 78.2604C147.12 78.5365 147.057 78.8229 147.057 79.125V90.5C147.057 90.7969 147.12 91.0834 147.24 91.3594C147.365 91.6406 147.536 91.8802 147.76 92.0938C147.99 92.3073 148.25 92.4688 148.542 92.5834C148.839 92.6979 149.146 92.7552 149.464 92.7552H173.609C173.927 92.7552 174.234 92.6979 174.531 92.5834C174.823 92.4688 175.083 92.3073 175.312 92.0938C175.536 91.8802 175.708 91.6406 175.833 91.3594C175.953 91.0834 176.016 90.7969 176.016 90.5V79.125C176.016 78.8229 175.953 78.5365 175.833 78.2604C175.708 77.9844 175.536 77.7396 175.312 77.5261C175.083 77.3177 174.823 77.1511 174.531 77.0365C174.234 76.9219 173.927 76.8646 173.609 76.8646Z" fill="white" stroke="#DB161B" stroke-width="0.283081"/>
<path fill-rule="evenodd" clip-rule="evenodd" d="M172.99 77.5261H150.083C149.781 77.5261 149.49 77.5781 149.208 77.6823C148.927 77.7865 148.682 77.9375 148.469 78.1302C148.255 78.3229 148.089 78.5469 147.974 78.8021C147.854 79.0573 147.797 79.3229 147.797 79.5938V90.0209C147.797 90.2969 147.854 90.5573 147.974 90.8125C148.089 91.0677 148.255 91.2917 148.469 91.4844C148.682 91.6771 148.927 91.8281 149.208 91.9323C149.49 92.0365 149.781 92.0886 150.083 92.0886H172.99C173.292 92.0886 173.583 92.0365 173.865 91.9323C174.141 91.8281 174.391 91.6771 174.604 91.4844C174.818 91.2917 174.984 91.0677 175.099 90.8125C175.214 90.5573 175.271 90.2969 175.271 90.0209V79.5938C175.271 79.3229 175.214 79.0573 175.099 78.8021C174.984 78.5469 174.818 78.3229 174.604 78.1302C174.391 77.9375 174.141 77.7865 173.865 77.6823C173.583 77.5781 173.292 77.5261 172.99 77.5261Z" fill="white" stroke="#DB161B" stroke-width="0.26361"/>
<path fill-rule="evenodd" clip-rule="evenodd" d="M162.5 81.5L161.109 81.5469L161.047 82.1771L159.911 82.75L159.026 82.0313L157.958 82.6094L158.964 83.2396L158.714 84.1094L157.453 84.0625V85.224L158.458 85.1719L158.964 85.8959L157.828 86.724L158.714 87.3959L159.661 86.6667L161.047 86.9636L160.984 88.0261L162.5 88.1198L162.687 87.1042L163.948 86.5729L164.641 87.2969L165.714 86.7656L165.083 85.9427L165.839 85.4115H166.911L166.974 83.9115L165.906 84.0104L165.146 83.1406L166.031 82.4688L164.896 81.6875L164.073 82.3177L162.687 82.1302L162.5 81.5Z" fill="white" stroke="#DB161B" stroke-width="0.166254"/>
<path d="M160.552 84.6354C160.552 84.8125 160.594 84.9792 160.672 85.1354C160.75 85.2969 160.859 85.4375 161 85.5625C161.146 85.6823 161.307 85.776 161.495 85.8437C161.682 85.9114 161.875 85.9427 162.078 85.9427C162.281 85.9427 162.474 85.9114 162.661 85.8437C162.849 85.776 163.016 85.6823 163.156 85.5625C163.297 85.4375 163.411 85.2969 163.484 85.1354C163.562 84.9792 163.604 84.8125 163.604 84.6354C163.604 84.4635 163.562 84.2969 163.484 84.1406C163.411 83.9792 163.297 83.8385 163.156 83.7135C163.016 83.5937 162.849 83.5 162.661 83.4323C162.474 83.3646 162.281 83.3333 162.078 83.3333C161.875 83.3333 161.682 83.3646 161.495 83.4323C161.307 83.5 161.146 83.5937 161 83.7135C160.859 83.8385 160.75 83.9792 160.672 84.1406C160.594 84.2969 160.552 84.4635 160.552 84.6354Z" fill="white" stroke="#DB161B" stroke-width="0.179323"/>
<path fill-rule="evenodd" clip-rule="evenodd" d="M171.562 78.1927L173.786 80.1771ZM170.073 78.1927L172.302 80.1771ZM168.589 78.1927L170.818 80.1771ZM167.104 78.1927L169.333 80.1771ZM165.62 78.1927L167.849 80.1771ZM164.135 78.1927L166.365 80.1771ZM162.651 78.1927L164.875 80.1771ZM161.167 78.1927L163.391 80.1771ZM159.677 78.1927L161.906 80.1771ZM158.193 78.1927L160.422 80.1771ZM156.708 78.1927L158.937 80.1771ZM155.224 78.1927L157.453 80.1771ZM161.167 78.1927L163.391 80.1771ZM153.74 78.1927L155.969 80.1771ZM152.255 78.1927L154.484 80.1771ZM150.771 78.1927L152.995 80.1771ZM149.281 78.1927L151.51 80.1771ZM151.51 78.1927L149.281 80.1771ZM152.995 78.1927L150.771 80.1771ZM154.484 78.1927L152.255 80.1771ZM155.969 78.1927L153.74 80.1771ZM157.453 78.1927L155.224 80.1771ZM158.937 78.1927L156.708 80.1771ZM160.422 78.1927L158.193 80.1771ZM161.906 78.1927L159.677 80.1771ZM163.391 78.1927L161.167 80.1771ZM164.875 78.1927L162.651 80.1771ZM166.365 78.1927L164.135 80.1771ZM167.849 78.1927L165.62 80.1771ZM161.906 78.1927L159.677 80.1771ZM169.333 78.1927L167.104 80.1771ZM170.818 78.1927L168.589 80.1771ZM172.302 78.1927L170.073 80.1771ZM173.786 78.1927L171.562 80.1771ZM171.562 89.4375L173.786 91.4323ZM170.073 89.4375L172.302 91.4323ZM168.589 89.4375L170.818 91.4323ZM167.104 89.4375L169.333 91.4323ZM165.62 89.4375L167.849 91.4323ZM164.135 89.4375L166.365 91.4323ZM162.651 89.4375L164.875 91.4323ZM161.167 89.4375L163.391 91.4323ZM159.677 89.4375L161.906 91.4323ZM158.193 89.4375L160.422 91.4323ZM156.708 89.4375L158.937 91.4323ZM155.224 89.4375L157.453 91.4323ZM161.167 89.4375L163.391 91.4323ZM153.74 89.4375L155.969 91.4323ZM152.255 89.4375L154.484 91.4323ZM150.771 89.4375L152.995 91.4323ZM149.281 89.4375L151.51 91.4323ZM151.51 89.4375L149.281 91.4323ZM152.995 89.4375L150.771 91.4323ZM154.484 89.4375L152.255 91.4323ZM155.969 89.4375L153.74 91.4323ZM157.453 89.4375L155.224 91.4323ZM158.937 89.4375L156.708 91.4323ZM160.422 89.4375L158.193 91.4323ZM161.906 89.4375L159.677 91.4323ZM163.391 89.4375L161.167 91.4323ZM164.875 89.4375L162.651 91.4323ZM166.365 89.4375L164.135 91.4323ZM167.849 89.4375L165.62 91.4323ZM161.906 89.4375L159.677 91.4323ZM169.333 89.4375L167.104 91.4323ZM170.818 89.4375L168.589 91.4323ZM172.302 89.4375L170.073 91.4323ZM173.786 89.4375L171.562 91.4323Z" fill="white"/>
<path d="M171.562 78.1927L173.786 80.1771M170.073 78.1927L172.302 80.1771M168.589 78.1927L170.818 80.1771M167.104 78.1927L169.333 80.1771M165.62 78.1927L167.849 80.1771M164.135 78.1927L166.365 80.1771M162.651 78.1927L164.875 80.1771M161.167 78.1927L163.391 80.1771M159.677 78.1927L161.906 80.1771M158.193 78.1927L160.422 80.1771M156.708 78.1927L158.937 80.1771M155.224 78.1927L157.453 80.1771M153.74 78.1927L155.969 80.1771M152.255 78.1927L154.484 80.1771M150.771 78.1927L152.995 80.1771M149.281 78.1927L151.51 80.1771M151.51 78.1927L149.281 80.1771M152.995 78.1927L150.771 80.1771M154.484 78.1927L152.255 80.1771M155.969 78.1927L153.74 80.1771M157.453 78.1927L155.224 80.1771M158.937 78.1927L156.708 80.1771M160.422 78.1927L158.193 80.1771M161.906 78.1927L159.677 80.1771M163.391 78.1927L161.167 80.1771M164.875 78.1927L162.651 80.1771M166.365 78.1927L164.135 80.1771M167.849 78.1927L165.62 80.1771M169.333 78.1927L167.104 80.1771M170.818 78.1927L168.589 80.1771M172.302 78.1927L170.073 80.1771M173.786 78.1927L171.562 80.1771M171.562 89.4375L173.786 91.4323M170.073 89.4375L172.302 91.4323M168.589 89.4375L170.818 91.4323M167.104 89.4375L169.333 91.4323M165.62 89.4375L167.849 91.4323M164.135 89.4375L166.365 91.4323M162.651 89.4375L164.875 91.4323M161.167 89.4375L163.391 91.4323M159.677 89.4375L161.906 91.4323M158.193 89.4375L160.422 91.4323M156.708 89.4375L158.937 91.4323M155.224 89.4375L157.453 91.4323M153.74 89.4375L155.969 91.4323M152.255 89.4375L154.484 91.4323M150.771 89.4375L152.995 91.4323M149.281 89.4375L151.51 91.4323M151.51 89.4375L149.281 91.4323M152.995 89.4375L150.771 91.4323M154.484 89.4375L152.255 91.4323M155.969 89.4375L153.74 91.4323M157.453 89.4375L155.224 91.4323M158.937 89.4375L156.708 91.4323M160.422 89.4375L158.193 91.4323M161.906 89.4375L159.677 91.4323M163.391 89.4375L161.167 91.4323M164.875 89.4375L162.651 91.4323M166.365 89.4375L164.135 91.4323M167.849 89.4375L165.62 91.4323M169.333 89.4375L167.104 91.4323M170.818 89.4375L168.589 91.4323M172.302 89.4375L170.073 91.4323M173.786 89.4375L171.562 91.4323" stroke="#DB161B" stroke-width="0.26361"/>
<path fill-rule="evenodd" clip-rule="evenodd" d="M95.4063 110.177C59.375 145.411 44.0052 149.87 51.2188 152.708C58.4323 155.547 81.6354 137.359 105.781 113.203C129.922 89.0521 144.708 67.5521 137.495 64.7136C130.281 61.875 133.729 72.6979 95.4063 110.177Z" fill="white" stroke="#DB161B" stroke-width="0.423123"/>
<path fill-rule="evenodd" clip-rule="evenodd" d="M65.0781 135.781L77.6979 139.094C65.8177 150.349 52.4531 154.984 48.7396 153C45.026 151.016 55.4219 146.38 65.0781 135.781Z" fill="white" stroke="#DB161B" stroke-width="0.247134"/>
<path fill-rule="evenodd" clip-rule="evenodd" d="M65.0781 137.109L75.474 139.76C63.901 150.578 52.4531 153.656 49.4896 152.339C46.5104 151.016 55.6719 147.292 65.0781 137.109Z" fill="white" stroke="#DB161B" stroke-width="0.247134"/>
<path d="M103.854 108.635C103.823 108.807 103.745 109.563 103.667 109.865C103.667 110.281 103.625 110.594 103.578 110.927C103.458 111.208 103.479 111.474 103.115 111.578C102.865 111.922 102.708 112.01 102.38 112.156C102.156 112.328 101.813 112.5 101.453 112.641C101.083 112.781 100.75 112.797 100.349 112.724C100.021 112.521 99.7865 112.318 99.5208 112.156C99.4531 111.891 99.4011 111.51 99.3333 111.255C99.4271 111.516 99.5052 111.938 99.5208 112.313C99.4844 112.724 99.3333 112.901 99.151 113.208M100.443 114.109C100.411 114.089 100.38 114.057 100.349 114.026C100.568 114.219 100.479 114.13 99.974 113.87C99.625 113.703 99.2396 113.615 98.7761 113.542H97.4896C96.9896 113.542 96.6511 113.604 96.2917 113.703C96.0313 113.938 95.6406 114.063 95.3698 114.271C95.0833 114.448 94.9636 114.646 94.8177 114.927C94.5625 115.151 94.3958 115.495 94.1667 115.667C94.0677 116.042 93.849 116.026 93.7083 116.318C94.1406 116.349 94.4948 116.401 94.7188 116.641C95.1094 116.818 94.3958 116.469 94.2604 116.318C93.9531 116.234 93.8802 116.151 93.4323 116.151C93.0104 116.031 92.7552 116.25 92.3229 116.318C92.0729 116.443 92 116.484 91.6771 116.484M95.4583 118.198C95.2708 118.203 94.4115 118.349 94.0729 118.198C93.6979 118.109 93.474 117.927 93.2448 117.62C93.1302 117.401 93.2448 118.016 93.2448 118.281C93.2083 118.76 93.0417 118.766 92.7865 119.094C92.5156 119.245 92.2344 119.464 91.9531 119.583C91.724 119.76 91.4375 119.88 91.125 119.995C90.849 120.109 90.5156 120.229 90.2917 120.401C89.9844 120.594 90.0156 120.833 89.8385 121.135C89.8646 121.536 89.9427 121.76 90.2031 121.958C90.3073 122.224 90.5573 122.505 90.7552 122.693C90.9844 123.068 91.2344 123.24 90.6615 123.344C90.3438 123.464 90.1719 123.365 89.8385 123.344M89.6511 123.911C89.4219 123.865 88.6146 123.625 88.2656 123.505H86.974C86.474 123.536 86.375 123.672 85.9583 123.828C85.6875 124.078 85.5 124.25 85.125 124.406C84.9323 124.63 84.5417 125.01 84.3906 125.302C84.2813 125.583 84.2031 125.958 84.2031 126.37C84.2136 126.839 84.3542 126.922 84.3906 127.349C84.4948 127.693 84.6615 128.016 84.9479 128.323C84.9844 128.427 85.0156 128.458 85.125 128.49M85.2552 129.557C85.2135 129.557 85.125 129.766 84.9896 129.948C84.6979 130.245 84.6615 130.271 84.2031 130.271C83.8021 130.255 83.8385 130.115 83.5521 130.005C83.4167 129.807 83.2448 129.641 83.0938 129.365C82.9896 129.198 82.8958 128.938 82.7656 128.786C82.6458 128.594 82.4948 128.448 82.3698 128.271C82.25 128.219 82.2031 128.167 82.0469 128.141C82.4219 128.203 82.4531 128.328 82.6979 128.526C82.8125 128.714 82.9323 128.901 83.0261 129.109C83.0677 129.385 83.1563 129.604 83.1563 129.948C83.1563 130.297 83.1563 130.552 83.0261 130.844C82.8698 131.01 82.7604 131.177 82.5729 131.302C82.4167 131.443 82.2292 131.641 82.1094 131.813C81.9063 131.938 81.7552 132.047 81.5208 132.203C81.3229 132.313 81.1094 132.432 80.8021 132.464C80.4167 132.432 80.3021 132.328 80.0156 132.203C79.7708 132.021 79.5781 131.911 79.3594 131.75C79.1875 131.63 79.0156 131.401 78.9011 131.234C78.5521 131.146 78.3281 131.182 78.1146 131.365C77.9375 131.484 77.7813 131.641 77.6615 131.813C77.5469 131.865 77.375 132.021 77.2604 132.073M78.0417 132.224C78.1458 132.271 78.5208 132.531 78.6927 132.63C78.7969 132.964 78.9635 133.151 79.0156 133.51C79.1042 133.865 79.099 134.245 79.099 134.641C79.0052 135.057 78.8333 135.354 78.6927 135.682C78.4323 135.865 78.3021 135.984 77.9583 136.172C77.6354 136.214 77.3125 136.255 76.901 136.255C76.6458 136.333 76.1667 136.375 75.9219 136.255C75.5625 136.203 75.2917 136.057 75.026 135.932C74.724 135.76 74.5417 135.599 74.2135 135.443C74.0521 135.214 73.8073 135 73.5625 134.719C73.3594 134.448 73.2083 134.297 73.0729 134C73.1927 134.344 73.375 134.641 73.4792 134.964C73.6667 135.302 73.7708 135.427 73.8073 135.849C73.9167 136.188 73.8854 136.589 73.8854 136.974C73.8542 137.234 73.8333 137.729 73.724 137.938V138.188M66 139.464V139.583C66 139.271 65.9896 139.427 66.1302 140.052C66.3802 140.328 66.9583 140.401 67.4427 140.281C67.8646 139.974 67.8542 139.734 68.6198 139.583C69.3646 139.63 69.6458 139.823 70.0625 140.052C70.5521 140.266 70.7813 140.38 71.1094 140.865C71.2708 141.266 71.3594 141.531 70.849 141.682C70.4375 141.943 69.9479 142.089 69.4063 142.156C68.8021 142.156 68.3646 142.089 68.0938 142.385C67.6823 142.771 67.7031 143 67.7031 143.667C67.5625 143.875 67.5365 144.49 67.4427 144.724C67.0781 144.875 66.8646 144.953 66.2604 144.953C66.1198 144.594 65.9635 143.943 65.8698 143.557C65.7656 143.135 65.7344 142.552 65.474 142.266C65.2188 141.938 64.9167 141.667 64.5573 141.448C64.401 141.25 64.0938 141.083 63.776 140.984C64.2865 141.219 64.3594 141.474 64.4271 142.036C63.9792 142.234 63.8542 142.38 63.1198 142.385C62.3958 142.333 62.2188 142.172 61.9375 141.802C61.8906 142.385 61.6771 142.583 61.5469 143.089C61.276 143.443 61.1615 143.802 60.8906 144.25C61.0052 144.823 61.2552 144.844 61.2865 145.542C61.4531 145.995 61.4375 146.432 61.8073 146.708C61.974 146.885 62.099 146.927 62.4635 146.938C61.7031 146.938 61.2656 146.865 60.7604 146.589C60.375 146.38 60.0781 146.109 59.7135 145.891C59.25 145.594 58.6771 145.313 58.1406 145.188C57.5365 145.188 57.099 145.125 56.8333 145.422C56.4635 145.661 56.2135 146.063 56.0469 146.589C55.9271 147.193 55.8802 147.599 56.1771 147.99C56.401 148.443 56.4479 148.62 56.1771 149.156C55.8698 149.536 55.4219 149.583 54.7344 149.74C54.2917 149.724 53.8542 149.646 53.4271 149.51" stroke="#DB161B" stroke-width="0.247134"/>
<path fill-rule="evenodd" clip-rule="evenodd" d="M136.521 78.3802C152.51 50.776 163.125 27.2865 160.203 25.9479C157.286 24.6042 141.953 45.9167 125.964 73.5156L136.521 78.3802Z" fill="white" stroke="#DB161B" stroke-width="0.334754"/>
<path fill-rule="evenodd" clip-rule="evenodd" d="M135.464 77.8906C150.885 51.2656 161.51 28.7865 159.182 27.7135C156.854 26.6406 142.448 47.375 127.021 74" fill="white"/>
<path d="M135.464 77.8906C150.885 51.2656 161.51 28.7865 159.182 27.7135C156.854 26.6406 142.448 47.375 127.021 74" stroke="#DB161B" stroke-width="0.294314"/>
<path fill-rule="evenodd" clip-rule="evenodd" d="M132.813 64C130.938 67.1146 128.953 70.6719 127.021 74L135.464 77.8906C137.391 74.5625 139.495 71.0573 141.255 67.8906L132.813 64Z" fill="white" stroke="#DB161B" stroke-width="0.334005"/>
<path fill-rule="evenodd" clip-rule="evenodd" d="M133.526 65.0729C131.656 68.1875 130.344 70.5677 128.417 73.8958L134.745 76.8125C136.677 73.4896 138.104 71.1563 139.859 67.9896L133.526 65.0729Z" fill="white" stroke="#DB161B" stroke-width="0.334005"/>
<path d="M138.12 68.6823L133.901 66.7344L130.151 73.2084L134.375 75.1511L138.12 68.6823Z" fill="white" stroke="#DB161B" stroke-width="0.334753"/>
<path fill-rule="evenodd" clip-rule="evenodd" d="M138.125 68.6823L130.156 73.2084ZM134.375 75.1511L133.901 66.7396ZM157.208 35.7448L152.984 33.7969Z" fill="white"/>
<path d="M138.125 68.6823L130.156 73.2084M134.375 75.1511L133.901 66.7396M157.208 35.7448L152.984 33.7969" stroke="#DB161B" stroke-width="0.334005"/>
<path d="M155.75 31.9479C155.823 32.2344 156.005 32.4531 156.292 32.5989C156.573 32.7448 156.88 32.776 157.213 32.6927C157.542 32.6094 157.797 32.4375 157.974 32.1719C158.156 31.9114 158.208 31.6354 158.135 31.3437C158.057 31.0573 157.88 30.8385 157.594 30.6927C157.307 30.5469 157 30.5208 156.672 30.5989C156.344 30.6823 156.088 30.8594 155.911 31.1198C155.729 31.3802 155.677 31.6562 155.75 31.9479Z" fill="#DB161B" stroke="#DB161B" stroke-width="0.43321"/>
<path fill-rule="evenodd" clip-rule="evenodd" d="M130.589 110.177C166.625 145.411 181.995 149.87 174.781 152.708C167.568 155.547 144.365 137.359 120.219 113.203C96.0729 89.0521 81.2916 67.5521 88.5052 64.7136C95.7135 61.875 92.2708 72.6979 130.589 110.177Z" fill="white" stroke="#DB161B" stroke-width="0.423123"/>
<path fill-rule="evenodd" clip-rule="evenodd" d="M160.922 135.781L148.302 139.094C160.182 150.349 173.547 154.984 177.255 153C180.969 151.016 170.573 146.38 160.922 135.781Z" fill="white" stroke="#DB161B" stroke-width="0.247134"/>
<path fill-rule="evenodd" clip-rule="evenodd" d="M160.922 137.109L150.526 139.76C162.099 150.578 173.547 153.656 176.505 152.339C179.484 151.016 170.323 147.292 160.922 137.109Z" fill="white" stroke="#DB161B" stroke-width="0.247134"/>
<path d="M122.141 108.635C122.172 108.807 122.255 109.563 122.328 109.865C122.328 110.281 122.375 110.594 122.422 110.927C122.542 111.208 122.516 111.474 122.885 111.578C123.13 111.922 123.286 112.01 123.62 112.156C123.844 112.328 124.187 112.5 124.547 112.641C124.917 112.781 125.25 112.797 125.646 112.724C125.979 112.521 126.208 112.318 126.479 112.156C126.547 111.891 126.599 111.51 126.667 111.255C126.568 111.516 126.495 111.938 126.479 112.313C126.516 112.724 126.667 112.901 126.844 113.208M125.557 114.109C125.589 114.089 125.62 114.057 125.646 114.026C125.432 114.219 125.521 114.13 126.021 113.87C126.375 113.703 126.755 113.615 127.219 113.542H128.51C129.01 113.542 129.349 113.604 129.708 113.703C129.969 113.938 130.359 114.063 130.63 114.271C130.911 114.448 131.031 114.646 131.182 114.927C131.437 115.151 131.604 115.495 131.833 115.667C131.932 116.042 132.146 116.026 132.292 116.318C131.854 116.349 131.505 116.401 131.281 116.641C130.891 116.818 131.604 116.469 131.734 116.318C132.042 116.234 132.12 116.151 132.568 116.151C132.99 116.031 133.24 116.25 133.677 116.318C133.922 116.443 134 116.484 134.318 116.484M130.536 118.198C130.724 118.203 131.589 118.349 131.922 118.198C132.297 118.109 132.521 117.927 132.755 117.62C132.87 117.401 132.755 118.016 132.755 118.281C132.792 118.76 132.958 118.766 133.214 119.094C133.479 119.245 133.766 119.464 134.042 119.583C134.276 119.76 134.557 119.88 134.875 119.995C135.151 120.109 135.479 120.229 135.703 120.401C136.01 120.594 135.984 120.833 136.161 121.135C136.13 121.536 136.057 121.76 135.797 121.958C135.693 122.224 135.443 122.505 135.24 122.693C135.016 123.068 134.76 123.24 135.339 123.344C135.651 123.464 135.823 123.365 136.161 123.344M136.349 123.911C136.573 123.865 137.385 123.625 137.734 123.505H139.021C139.526 123.536 139.62 123.672 140.042 123.828C140.312 124.078 140.5 124.25 140.875 124.406C141.068 124.63 141.458 125.01 141.609 125.302C141.719 125.583 141.792 125.958 141.792 126.37C141.786 126.839 141.646 126.922 141.609 127.349C141.5 127.693 141.339 128.016 141.052 128.323C141.016 128.427 140.984 128.458 140.875 128.49M140.745 129.557C140.781 129.557 140.875 129.766 141.005 129.948C141.302 130.245 141.339 130.271 141.792 130.271C142.198 130.255 142.161 130.115 142.448 130.005C142.578 129.807 142.755 129.641 142.901 129.365C143.005 129.198 143.104 128.938 143.234 128.786C143.354 128.594 143.5 128.448 143.63 128.271C143.75 128.219 143.792 128.167 143.953 128.141C143.578 128.203 143.547 128.328 143.297 128.526C143.187 128.714 143.068 128.901 142.969 129.109C142.932 129.385 142.844 129.604 142.844 129.948C142.844 130.297 142.844 130.552 142.969 130.844C143.125 131.01 143.24 131.177 143.427 131.302C143.583 131.443 143.771 131.641 143.891 131.813C144.094 131.938 144.245 132.047 144.474 132.203C144.677 132.313 144.885 132.432 145.193 132.464C145.583 132.432 145.698 132.328 145.979 132.203C146.229 132.021 146.422 131.911 146.641 131.75C146.812 131.63 146.984 131.401 147.094 131.234C147.448 131.146 147.672 131.182 147.88 131.365C148.062 131.484 148.219 131.641 148.339 131.813C148.453 131.865 148.625 132.021 148.734 132.073M147.958 132.224C147.854 132.271 147.479 132.531 147.307 132.63C147.203 132.964 147.036 133.151 146.984 133.51C146.896 133.865 146.901 134.245 146.901 134.641C146.99 135.057 147.161 135.354 147.307 135.682C147.568 135.865 147.698 135.984 148.042 136.172C148.359 136.214 148.682 136.255 149.094 136.255C149.349 136.333 149.828 136.375 150.078 136.255C150.437 136.203 150.708 136.057 150.969 135.932C151.271 135.76 151.458 135.599 151.786 135.443C151.948 135.214 152.193 135 152.437 134.719C152.641 134.448 152.786 134.297 152.927 134C152.807 134.344 152.62 134.641 152.521 134.964C152.333 135.302 152.224 135.427 152.193 135.849C152.078 136.188 152.109 136.589 152.109 136.974C152.146 137.234 152.167 137.729 152.276 137.938V138.188M160 139.464V139.583C160 139.271 160.005 139.427 159.865 140.052C159.62 140.328 159.042 140.401 158.557 140.281C158.135 139.974 158.146 139.734 157.38 139.583C156.635 139.63 156.354 139.823 155.937 140.052C155.443 140.266 155.219 140.38 154.891 140.865C154.729 141.266 154.635 141.531 155.151 141.682C155.562 141.943 156.047 142.089 156.594 142.156C157.198 142.156 157.635 142.089 157.901 142.385C158.318 142.771 158.297 143 158.297 143.667C158.437 143.875 158.464 144.49 158.557 144.724C158.922 144.875 159.135 144.953 159.734 144.953C159.875 144.594 160.036 143.943 160.13 143.557C160.234 143.135 160.266 142.552 160.521 142.266C160.776 141.938 161.083 141.667 161.437 141.448C161.599 141.25 161.906 141.083 162.224 140.984C161.708 141.219 161.635 141.474 161.568 142.036C162.021 142.234 162.141 142.38 162.88 142.385C163.604 142.333 163.781 142.172 164.057 141.802C164.109 142.385 164.318 142.583 164.453 143.089C164.719 143.443 164.833 143.802 165.104 144.25C164.99 144.823 164.745 144.844 164.714 145.542C164.542 145.995 164.562 146.432 164.187 146.708C164.026 146.885 163.901 146.927 163.536 146.938C164.292 146.938 164.734 146.865 165.24 146.589C165.625 146.38 165.922 146.109 166.286 145.891C166.75 145.594 167.323 145.313 167.859 145.188C168.464 145.188 168.896 145.125 169.167 145.422C169.536 145.661 169.786 146.063 169.953 146.589C170.073 147.193 170.12 147.599 169.823 147.99C169.599 148.443 169.552 148.62 169.823 149.156C170.125 149.536 170.578 149.583 171.26 149.74C171.708 149.724 172.146 149.646 172.573 149.51" stroke="#DB161B" stroke-width="0.247134"/>
<path fill-rule="evenodd" clip-rule="evenodd" d="M89.4791 78.3802C73.4895 50.776 62.8749 27.2865 65.7968 25.9479C68.7083 24.6042 84.0468 45.9167 100.036 73.5156L89.4791 78.3802Z" fill="white" stroke="#DB161B" stroke-width="0.334754"/>
<path fill-rule="evenodd" clip-rule="evenodd" d="M90.5312 77.8906C75.1145 51.2656 64.4843 28.7865 66.8177 27.7135C69.1458 26.6406 83.552 47.375 98.9791 74" fill="white"/>
<path d="M90.5312 77.8906C75.1145 51.2656 64.4843 28.7865 66.8177 27.7135C69.1458 26.6406 83.552 47.375 98.9791 74" stroke="#DB161B" stroke-width="0.294314"/>
<path fill-rule="evenodd" clip-rule="evenodd" d="M93.1823 64C95.0625 67.1146 97.0468 70.6719 98.9791 74L90.5312 77.8906C88.6093 74.5625 86.5052 71.0573 84.7448 67.8906L93.1823 64Z" fill="white" stroke="#DB161B" stroke-width="0.334005"/>
<path fill-rule="evenodd" clip-rule="evenodd" d="M92.4739 65.0729C94.3437 68.1875 95.6562 70.5677 97.5781 73.8958L91.25 76.8125C89.3177 73.4896 87.8958 71.1563 86.1354 67.9896L92.4739 65.0729Z" fill="white" stroke="#DB161B" stroke-width="0.334005"/>
<path d="M87.8751 68.6823L92.099 66.7344L95.849 73.2084L91.6251 75.1511L87.8751 68.6823Z" fill="white" stroke="#DB161B" stroke-width="0.334753"/>
<path fill-rule="evenodd" clip-rule="evenodd" d="M87.875 68.6823L95.8437 73.2084ZM91.625 75.1511L92.0989 66.7396ZM68.7916 35.7448L73.0156 33.7969Z" fill="white"/>
<path d="M87.875 68.6823L95.8437 73.2084M91.625 75.1511L92.0989 66.7396M68.7916 35.7448L73.0156 33.7969" stroke="#DB161B" stroke-width="0.334005"/>
<path d="M70.2501 31.9479C70.172 32.2344 69.9949 32.4531 69.7084 32.5989C69.422 32.7448 69.1147 32.776 68.7866 32.6927C68.4584 32.6094 68.2032 32.4375 68.0261 32.1719C67.8438 31.9114 67.7918 31.6354 67.8647 31.3437C67.9376 31.0573 68.1199 30.8385 68.4063 30.6927C68.6876 30.5469 68.9949 30.5208 69.323 30.5989C69.6563 30.6823 69.9063 30.8594 70.0886 31.1198C70.2709 31.3802 70.323 31.6562 70.2501 31.9479Z" fill="#DB161B" stroke="#DB161B" stroke-width="0.43321"/>
<path fill-rule="evenodd" clip-rule="evenodd" d="M101.958 63.625C101.958 86.7969 102.094 95.5261 100.385 96.7292C98.7709 98.0052 53.6979 96.7292 53.6979 103.349C53.6979 109.969 90.8229 116.589 101.958 116.589C116.813 116.589 124.24 109.969 124.24 96.7292V63.625H101.958Z" fill="white" stroke="#DB161B" stroke-width="0.304798"/>
<path fill-rule="evenodd" clip-rule="evenodd" d="M101.958 70.2448V73.5521C109.385 74.6667 116.813 74.6667 124.24 73.5521V70.2448C116.813 71.3542 109.385 71.3542 101.958 70.2448ZM101.958 63.625V66.9323C109.385 68.0417 116.813 68.0417 124.24 66.9323V63.625C116.813 64.7344 109.385 64.7344 101.958 63.625Z" fill="white" stroke="#DB161B" stroke-width="0.26361"/>
<path fill-rule="evenodd" clip-rule="evenodd" d="M101.958 66.9323V70.2448C109.385 71.3542 116.813 71.3542 124.24 70.2448V66.9323C116.813 68.0417 109.385 68.0417 101.958 66.9323ZM101.958 73.5521V76.8646C109.391 77.9688 116.813 77.9688 124.24 76.8646V73.5521C116.813 74.6667 109.385 74.6667 101.958 73.5521Z" fill="white" stroke="#DB161B" stroke-width="0.26361"/>
<path d="M103.984 68.8177C103.984 69.0156 103.885 69.1823 103.688 69.3229C103.49 69.4583 103.255 69.5312 102.974 69.5312C102.693 69.5312 102.453 69.4583 102.255 69.3229C102.057 69.1823 101.958 69.0156 101.958 68.8177C101.958 68.6198 102.057 68.4479 102.255 68.3125C102.453 68.1719 102.693 68.1042 102.974 68.1042C103.255 68.1042 103.49 68.1719 103.688 68.3125C103.885 68.4479 103.984 68.6198 103.984 68.8177Z" fill="white" stroke="#DB161B" stroke-width="0.247338"/>
<path d="M108.036 69.1719C108.036 69.3698 107.937 69.5364 107.74 69.6771C107.542 69.8177 107.302 69.8854 107.021 69.8854C106.745 69.8854 106.505 69.8177 106.307 69.6771C106.109 69.5364 106.01 69.3698 106.01 69.1719C106.01 68.9739 106.109 68.8073 106.307 68.6667C106.505 68.526 106.745 68.4583 107.021 68.4583C107.302 68.4583 107.542 68.526 107.74 68.6667C107.937 68.8073 108.036 68.9739 108.036 69.1719Z" fill="white" stroke="#DB161B" stroke-width="0.247338"/>
<path d="M112.089 69.5312C112.089 69.7291 111.99 69.8958 111.792 70.0364C111.594 70.1719 111.354 70.2448 111.073 70.2448C110.797 70.2448 110.557 70.1719 110.359 70.0364C110.161 69.8958 110.062 69.7291 110.062 69.5312C110.062 69.3333 110.161 69.1666 110.359 69.026C110.557 68.8854 110.797 68.8177 111.073 68.8177C111.354 68.8177 111.594 68.8854 111.792 69.026C111.99 69.1666 112.089 69.3333 112.089 69.5312Z" fill="white" stroke="#DB161B" stroke-width="0.247338"/>
<path d="M116.135 69.5312C116.135 69.7291 116.036 69.8958 115.839 70.0364C115.641 70.1719 115.401 70.2448 115.125 70.2448C114.844 70.2448 114.604 70.1719 114.406 70.0364C114.208 69.8958 114.109 69.7291 114.109 69.5312C114.109 69.3333 114.208 69.1666 114.406 69.026C114.604 68.8854 114.844 68.8177 115.125 68.8177C115.401 68.8177 115.641 68.8854 115.839 69.026C116.036 69.1666 116.135 69.3333 116.135 69.5312Z" fill="white" stroke="#DB161B" stroke-width="0.247338"/>
<path d="M120.188 69.1719C120.188 69.3698 120.089 69.5364 119.891 69.6771C119.693 69.8177 119.453 69.8854 119.172 69.8854C118.896 69.8854 118.656 69.8177 118.458 69.6771C118.26 69.5364 118.161 69.3698 118.161 69.1719C118.161 68.9739 118.26 68.8073 118.458 68.6667C118.656 68.526 118.896 68.4583 119.172 68.4583C119.453 68.4583 119.693 68.526 119.891 68.6667C120.089 68.8073 120.188 68.9739 120.188 69.1719Z" fill="white" stroke="#DB161B" stroke-width="0.247338"/>
<path d="M124.234 68.8177C124.234 69.0156 124.135 69.1823 123.943 69.3229C123.745 69.4583 123.505 69.5312 123.224 69.5312C122.943 69.5312 122.708 69.4583 122.51 69.3229C122.313 69.1823 122.214 69.0156 122.214 68.8177C122.214 68.6198 122.313 68.4479 122.51 68.3125C122.708 68.1719 122.943 68.1042 123.224 68.1042C123.505 68.1042 123.745 68.1719 123.943 68.3125C124.135 68.4479 124.234 68.6198 124.234 68.8177Z" fill="white" stroke="#DB161B" stroke-width="0.247338"/>
<path fill-rule="evenodd" clip-rule="evenodd" d="M101.958 80.1771L124.24 98.0521ZM104.182 80.1771L124.24 96.0625ZM107.156 80.8334L124.24 94.0781ZM109.391 80.8334L124.24 92.0886ZM111.615 80.8334L124.24 90.1042ZM113.839 80.8334L124.24 88.1198ZM116.068 80.8334L124.24 86.1302ZM118.292 80.8334L124.24 84.8125ZM120.526 80.8334L124.24 83.4844ZM122.75 80.8334L124.24 82.1615ZM101.958 82.1615L124.24 100.036ZM124.24 80.1771L99.7344 100.036ZM122.01 80.1771L100.479 97.3854ZM119.042 80.8334L101.958 94.0781ZM116.813 80.8334L101.958 92.0886ZM114.589 80.8334L101.958 90.1042ZM112.354 80.8334L101.958 88.1198ZM110.13 80.8334L101.958 86.1302ZM107.901 80.8334L101.958 84.8125ZM105.677 80.8334L101.958 83.4844ZM103.443 80.8334L101.958 82.1615ZM124.24 82.1615L99.7344 102.021ZM124.24 84.1459L99.7344 104.005ZM124.24 86.1302L99.7344 106ZM124.24 88.1198L99.7344 107.984ZM124.24 90.1042L99.7344 109.969ZM124.24 92.0886L99.7344 111.953ZM124.24 94.0781L99.7344 113.938ZM124.24 96.0677L99.7344 115.927ZM124.24 98.0521L101.219 116.589ZM124.24 100.036L103.443 116.589ZM123.49 102.688L107.156 115.927ZM122.75 105.333L109.391 115.927ZM121.266 108.641L114.589 113.938ZM101.958 84.1459L123.49 101.365ZM101.958 86.1302L123.49 103.349ZM101.958 88.1198L122.75 104.672ZM101.958 90.1042L122.75 106.656ZM101.958 92.0886L122.01 107.984ZM101.219 93.4167L121.266 109.307ZM101.219 95.4011L119.786 109.969ZM100.479 96.7292L119.042 111.292ZM99.7344 98.0521L117.552 111.953ZM99.7344 100.036L116.813 113.276ZM99.7344 102.021L114.589 113.938ZM101.958 76.8646V80.1771C109.391 81.2761 116.813 81.2761 124.24 80.1771V76.8646C116.813 77.9688 109.391 77.9688 101.958 76.8646ZM99.7344 104.005L113.099 114.604ZM99.7344 106L111.615 115.26ZM99.7344 107.984L110.13 115.927ZM99.7344 109.969L107.156 115.927ZM99.7344 111.953L105.677 116.589ZM99.7344 113.938L103.443 116.589Z" fill="white"/>
<path d="M101.958 80.1771L124.24 98.0521L101.219 116.589M101.958 80.1771V76.8646C109.391 77.9688 116.813 77.9688 124.24 76.8646V80.1771M101.958 80.1771C109.391 81.2761 116.813 81.2761 124.24 80.1771M104.182 80.1771L124.24 96.0625M107.156 80.8334L124.24 94.0781L99.7344 113.938L103.443 116.589L124.24 100.036L101.958 82.1615L103.443 80.8334M109.391 80.8334L124.24 92.0886L99.7344 111.953L105.677 116.589M111.615 80.8334L124.24 90.1042L99.7344 109.969L107.156 115.927L123.49 102.688M113.839 80.8334L124.24 88.1198L99.7344 107.984L110.13 115.927M116.068 80.8334L124.24 86.1302L99.7344 106L111.615 115.26M118.292 80.8334L124.24 84.8125M120.526 80.8334L124.24 83.4844M122.75 80.8334L124.24 82.1615L99.7344 102.021L114.589 113.938L121.266 108.641M124.24 80.1771L99.7344 100.036L116.813 113.276M122.01 80.1771L100.479 97.3854M119.042 80.8334L101.958 94.0781M116.813 80.8334L101.958 92.0886L122.01 107.984M114.589 80.8334L101.958 90.1042L122.75 106.656M112.354 80.8334L101.958 88.1198L122.75 104.672M110.13 80.8334L101.958 86.1302L123.49 103.349M107.901 80.8334L101.958 84.8125M105.677 80.8334L101.958 83.4844M124.24 84.1459L99.7344 104.005L113.099 114.604M124.24 96.0677L99.7344 115.927M122.75 105.333L109.391 115.927M101.958 84.1459L123.49 101.365M101.219 93.4167L121.266 109.307M101.219 95.4011L119.786 109.969M100.479 96.7292L119.042 111.292M99.7344 98.0521L117.552 111.953" stroke="#DB161B" stroke-width="0.26361"/>
<path d="M103.984 78.7448C103.984 78.9427 103.885 79.1094 103.688 79.25C103.49 79.3906 103.255 79.4583 102.974 79.4583C102.693 79.4583 102.453 79.3906 102.255 79.25C102.057 79.1094 101.958 78.9427 101.958 78.7448C101.958 78.5469 102.057 78.3802 102.255 78.2396C102.453 78.1042 102.693 78.0312 102.974 78.0312C103.255 78.0312 103.49 78.1042 103.688 78.2396C103.885 78.3802 103.984 78.5469 103.984 78.7448Z" fill="white" stroke="#DB161B" stroke-width="0.247338"/>
<path d="M108.036 79.1042C108.036 79.3021 107.937 79.4687 107.74 79.6094C107.542 79.7448 107.302 79.8177 107.021 79.8177C106.745 79.8177 106.505 79.7448 106.307 79.6094C106.109 79.4687 106.01 79.3021 106.01 79.1042C106.01 78.9062 106.109 78.7396 106.307 78.5989C106.505 78.4583 106.745 78.3906 107.021 78.3906C107.302 78.3906 107.542 78.4583 107.74 78.5989C107.937 78.7396 108.036 78.9062 108.036 79.1042Z" fill="white" stroke="#DB161B" stroke-width="0.247338"/>
<path d="M112.089 79.4583C112.089 79.6562 111.99 79.8229 111.792 79.9635C111.594 80.1041 111.354 80.1719 111.073 80.1719C110.797 80.1719 110.557 80.1041 110.359 79.9635C110.161 79.8229 110.062 79.6562 110.062 79.4583C110.062 79.2604 110.161 79.0937 110.359 78.9531C110.557 78.8177 110.797 78.7448 111.073 78.7448C111.354 78.7448 111.594 78.8177 111.792 78.9531C111.99 79.0937 112.089 79.2604 112.089 79.4583Z" fill="white" stroke="#DB161B" stroke-width="0.247338"/>
<path d="M116.135 79.4583C116.135 79.6562 116.036 79.8229 115.839 79.9635C115.641 80.1041 115.401 80.1719 115.125 80.1719C114.844 80.1719 114.604 80.1041 114.406 79.9635C114.208 79.8229 114.109 79.6562 114.109 79.4583C114.109 79.2604 114.208 79.0937 114.406 78.9531C114.604 78.8177 114.844 78.7448 115.125 78.7448C115.401 78.7448 115.641 78.8177 115.839 78.9531C116.036 79.0937 116.135 79.2604 116.135 79.4583Z" fill="white" stroke="#DB161B" stroke-width="0.247338"/>
<path d="M120.188 79.1042C120.188 79.3021 120.089 79.4687 119.891 79.6094C119.693 79.7448 119.453 79.8177 119.172 79.8177C118.896 79.8177 118.656 79.7448 118.458 79.6094C118.26 79.4687 118.161 79.3021 118.161 79.1042C118.161 78.9062 118.26 78.7396 118.458 78.5989C118.656 78.4583 118.896 78.3906 119.172 78.3906C119.453 78.3906 119.693 78.4583 119.891 78.5989C120.089 78.7396 120.188 78.9062 120.188 79.1042Z" fill="white" stroke="#DB161B" stroke-width="0.247338"/>
<path d="M124.234 78.7448C124.234 78.9427 124.135 79.1094 123.943 79.25C123.745 79.3906 123.505 79.4583 123.224 79.4583C122.943 79.4583 122.708 79.3906 122.51 79.25C122.313 79.1094 122.214 78.9427 122.214 78.7448C122.214 78.5469 122.313 78.3802 122.51 78.2396C122.708 78.1042 122.943 78.0312 123.224 78.0312C123.505 78.0312 123.745 78.1042 123.943 78.2396C124.135 78.3802 124.234 78.5469 124.234 78.7448Z" fill="white" stroke="#DB161B" stroke-width="0.247338"/>
<path fill-rule="evenodd" clip-rule="evenodd" d="M70.0313 111.292L96.7656 97.3854ZM68.5469 110.625L93.7917 97.3854ZM67.8021 109.307L90.8229 97.3854ZM67.0625 107.984L87.1094 97.3854ZM65.5781 106.656L84.1354 97.3854ZM66.3177 104.672L78.9375 98.0521ZM65.5781 103.349L75.2292 98.0521ZM65.5781 101.365L72.2604 98.0521ZM72.2604 111.953L97.5052 98.7136ZM74.4844 112.62L98.2448 100.036ZM76.7135 113.276L98.9896 101.365ZM78.9375 113.938L97.5052 104.005ZM81.9115 113.938L98.2448 105.333ZM84.1354 114.604L98.2448 107.318ZM86.3698 115.26L97.5052 109.307ZM89.3333 115.26L98.2448 110.625ZM92.3073 115.927L98.2448 112.62ZM95.2813 115.927L98.9896 113.938ZM100.479 96.7292H96.7656C95.5156 103.349 95.5156 109.969 96.7656 116.589H100.479C99.224 109.969 99.224 103.349 100.479 96.7292ZM56.6667 106L65.5781 99.3802ZM56.6667 101.365L65.5781 109.307Z" fill="white"/>
<path d="M70.0313 111.292L96.7656 97.3854M68.5469 110.625L93.7917 97.3854M67.8021 109.307L90.8229 97.3854M67.0625 107.984L87.1094 97.3854M65.5781 106.656L84.1354 97.3854M66.3177 104.672L78.9375 98.0521M65.5781 103.349L75.2292 98.0521M65.5781 101.365L72.2604 98.0521M72.2604 111.953L97.5052 98.7136M74.4844 112.62L98.2448 100.036M76.7135 113.276L98.9896 101.365M78.9375 113.938L97.5052 104.005M81.9115 113.938L98.2448 105.333M84.1354 114.604L98.2448 107.318M86.3698 115.26L97.5052 109.307M89.3333 115.26L98.2448 110.625M92.3073 115.927L98.2448 112.62M95.2813 115.927L98.9896 113.938M56.6667 106L65.5781 99.3802M56.6667 101.365L65.5781 109.307M100.479 96.7292H96.7656C95.5156 103.349 95.5156 109.969 96.7656 116.589H100.479C99.224 109.969 99.224 103.349 100.479 96.7292Z" stroke="#DB161B" stroke-width="0.26361"/>
<path fill-rule="evenodd" clip-rule="evenodd" d="M70.0313 98.0521L65.5781 98.7136C64.5885 102.906 64.5885 106.432 65.5781 110.625L70.0313 111.953C69.0417 107.76 69.0417 102.245 70.0313 98.0521Z" fill="white" stroke="#DB161B" stroke-width="0.187972"/>
<path fill-rule="evenodd" clip-rule="evenodd" d="M124.208 64.9479V61.6094C120.875 61.6406 118.646 59.6511 118.646 57.6354L107.526 57.6667C107.526 59.6511 105.302 61.6406 101.958 61.6406V64.9479H124.208Z" fill="white" stroke="#DB161B" stroke-width="0.322772"/>
<path d="M108.318 53.6927H117.854V57.6667H108.318V53.6927ZM109.115 49.7188H117.057V53.6927H109.115V49.7188ZM109.115 45.75H117.057V49.7188H109.115V45.75Z" fill="white"/>
<path d="M109.115 49.7188H117.057M109.115 49.7188V53.6927H117.057V49.7188M109.115 49.7188V45.75H117.057V49.7188M108.318 53.6927H117.854V57.6667H108.318V53.6927Z" stroke="#DB161B" stroke-width="0.272596"/>
<path d="M109.906 40.4531H116.266V45.75H109.906V40.4531Z" fill="white" stroke="#DB161B" stroke-width="0.272596"/>
<path d="M109.635 35.8177H116.542V40.4531H109.635V35.8177Z" fill="white" stroke="#DB161B" stroke-width="0.284578"/>
<path d="M122.677 31.5156C122.677 31.9271 122.62 32.3385 122.5 32.7448C122.385 33.151 122.208 33.5416 121.979 33.9218C121.745 34.3073 121.464 34.6666 121.125 35.0104C120.792 35.3541 120.411 35.6718 119.979 35.9635C119.552 36.2552 119.089 36.5156 118.589 36.7448C118.083 36.9739 117.552 37.1718 116.995 37.3281C116.438 37.4843 115.859 37.6041 115.266 37.6875C114.672 37.7656 114.073 37.8073 113.469 37.8073C112.865 37.8073 112.266 37.7656 111.672 37.6875C111.083 37.6041 110.505 37.4843 109.948 37.3281C109.391 37.1718 108.859 36.9739 108.354 36.7448C107.854 36.5156 107.385 36.2552 106.958 35.9635C106.531 35.6718 106.151 35.3541 105.813 35.0104C105.479 34.6666 105.198 34.3073 104.964 33.9218C104.734 33.5416 104.557 33.151 104.438 32.7448C104.323 32.3385 104.266 31.9271 104.266 31.5156C104.266 31.1041 104.323 30.6927 104.438 30.2916C104.557 29.8854 104.734 29.4896 104.964 29.1093C105.198 28.7291 105.479 28.3646 105.813 28.0208C106.151 27.6771 106.531 27.3593 106.958 27.0677C107.385 26.776 107.854 26.5156 108.354 26.2864C108.859 26.0573 109.391 25.8646 109.948 25.7083C110.505 25.5469 111.083 25.4271 111.672 25.3489C112.266 25.2656 112.865 25.2291 113.469 25.2291C114.073 25.2291 114.672 25.2656 115.266 25.3489C115.859 25.4271 116.438 25.5469 116.995 25.7083C117.552 25.8646 118.083 26.0573 118.589 26.2864C119.089 26.5156 119.552 26.776 119.979 27.0677C120.411 27.3593 120.792 27.6771 121.125 28.0208C121.464 28.3646 121.745 28.7291 121.979 29.1093C122.208 29.4896 122.385 29.8854 122.5 30.2916C122.62 30.6927 122.677 31.1041 122.677 31.5156Z" fill="white" stroke="#DB161B" stroke-width="0.268135"/>
<path fill-rule="evenodd" clip-rule="evenodd" d="M118.078 31.1823C118.078 32.9219 120.375 35.8177 120.375 35.8177C118.708 36.9583 116.01 37.8073 113.469 37.8073C110.932 37.8073 107.766 37.3333 106.568 35.8177C106.568 35.8177 108.865 32.9219 108.865 31.1823C108.865 29.4479 106.568 27.2135 106.568 27.2135C108.229 26.0729 110.932 25.224 113.469 25.224C116.01 25.224 118.708 26.0729 120.375 27.2135C120.375 27.2135 118.078 29.4479 118.078 31.1823Z" fill="white" stroke="#DB161B" stroke-width="0.268103"/>
<path fill-rule="evenodd" clip-rule="evenodd" d="M116.542 31.1823C116.542 32.9219 118.839 36.4792 118.839 36.4792C117.177 37.6198 116.01 37.8073 113.469 37.8073C110.932 37.8073 109.302 37.9948 108.099 36.4792C108.099 36.4792 110.401 32.9219 110.401 31.1823C110.401 29.4479 108.099 26.5521 108.099 26.5521C109.766 25.4115 110.932 25.224 113.469 25.224C116.01 25.224 117.177 25.4115 118.839 26.5521C118.839 26.5521 116.542 29.4479 116.542 31.1823Z" fill="white" stroke="#DB161B" stroke-width="0.268103"/>
<path d="M106.563 31.8489C106.563 32.1093 106.505 32.3646 106.391 32.6093C106.271 32.8489 106.104 33.0677 105.891 33.25C105.677 33.4375 105.427 33.5833 105.146 33.6823C104.859 33.7812 104.568 33.8333 104.266 33.8333C103.958 33.8333 103.667 33.7812 103.38 33.6823C103.099 33.5833 102.849 33.4375 102.635 33.25C102.422 33.0677 102.255 32.8489 102.135 32.6093C102.021 32.3646 101.964 32.1093 101.964 31.8489C101.964 31.5833 102.021 31.3333 102.135 31.0885C102.255 30.8437 102.422 30.6302 102.635 30.4427C102.849 30.2552 103.099 30.1146 103.38 30.0104C103.667 29.9114 103.958 29.8593 104.266 29.8593C104.568 29.8593 104.859 29.9114 105.146 30.0104C105.427 30.1146 105.677 30.2552 105.891 30.4427C106.104 30.6302 106.271 30.8437 106.391 31.0885C106.505 31.3333 106.563 31.5833 106.563 31.8489Z" fill="white" stroke="#DB161B" stroke-width="0.268135"/>
<path d="M124.979 31.8489C124.979 32.1093 124.922 32.3646 124.802 32.6093C124.688 32.8489 124.521 33.0677 124.307 33.25C124.089 33.4375 123.839 33.5833 123.557 33.6823C123.276 33.7812 122.984 33.8333 122.677 33.8333C122.37 33.8333 122.078 33.7812 121.797 33.6823C121.516 33.5833 121.266 33.4375 121.052 33.25C120.833 33.0677 120.667 32.8489 120.552 32.6093C120.432 32.3646 120.375 32.1093 120.375 31.8489C120.375 31.5833 120.432 31.3333 120.552 31.0885C120.667 30.8437 120.833 30.6302 121.052 30.4427C121.266 30.2552 121.516 30.1146 121.797 30.0104C122.078 29.9114 122.37 29.8593 122.677 29.8593C122.984 29.8593 123.276 29.9114 123.557 30.0104C123.839 30.1146 124.089 30.2552 124.307 30.4427C124.521 30.6302 124.688 30.8437 124.802 31.0885C124.922 31.3333 124.979 31.5833 124.979 31.8489Z" fill="white" stroke="#DB161B" stroke-width="0.268135"/>
<path d="M115.771 31.8489C115.771 32.1093 115.714 32.3646 115.599 32.6093C115.479 32.8489 115.313 33.0677 115.099 33.25C114.88 33.4375 114.635 33.5833 114.354 33.6823C114.068 33.7812 113.776 33.8333 113.469 33.8333C113.167 33.8333 112.87 33.7812 112.589 33.6823C112.307 33.5833 112.057 33.4375 111.844 33.25C111.625 33.0677 111.458 32.8489 111.344 32.6093C111.229 32.3646 111.167 32.1093 111.167 31.8489C111.167 31.5833 111.229 31.3333 111.344 31.0885C111.458 30.8437 111.625 30.6302 111.844 30.4427C112.057 30.2552 112.307 30.1146 112.589 30.0104C112.87 29.9114 113.167 29.8593 113.469 29.8593C113.776 29.8593 114.068 29.9114 114.354 30.0104C114.635 30.1146 114.88 30.2552 115.099 30.4427C115.313 30.6302 115.479 30.8437 115.599 31.0885C115.714 31.3333 115.771 31.5833 115.771 31.8489Z" fill="white" stroke="#DB161B" stroke-width="0.268135"/>
<path d="M115.771 25.2291C115.771 25.4896 115.714 25.7448 115.599 25.9896C115.479 26.2291 115.313 26.4479 115.099 26.6302C114.88 26.8177 114.635 26.9635 114.354 27.0625C114.068 27.1614 113.776 27.2135 113.469 27.2135C113.167 27.2135 112.87 27.1614 112.589 27.0625C112.307 26.9635 112.057 26.8177 111.844 26.6302C111.625 26.4479 111.458 26.2291 111.344 25.9896C111.229 25.7448 111.167 25.4896 111.167 25.2291C111.167 24.9635 111.229 24.7083 111.344 24.4687C111.458 24.2239 111.625 24.0104 111.844 23.8229C112.057 23.6354 112.307 23.4948 112.589 23.3906C112.87 23.2916 113.167 23.2396 113.469 23.2396C113.776 23.2396 114.068 23.2916 114.354 23.3906C114.635 23.4948 114.88 23.6354 115.099 23.8229C115.313 24.0104 115.479 24.2239 115.599 24.4687C115.714 24.7083 115.771 24.9635 115.771 25.2291Z" fill="white" stroke="#DB161B" stroke-width="0.268135"/>
<path d="M109.114 62.9635C109.114 63.2291 109.052 63.4791 108.932 63.7239C108.812 63.9687 108.635 64.1823 108.417 64.3698C108.193 64.5521 107.932 64.6979 107.641 64.7968C107.349 64.901 107.047 64.9479 106.729 64.9479C106.411 64.9479 106.109 64.901 105.818 64.7968C105.526 64.6979 105.266 64.5521 105.042 64.3698C104.818 64.1823 104.646 63.9687 104.526 63.7239C104.406 63.4791 104.344 63.2291 104.344 62.9635C104.344 62.6979 104.406 62.4479 104.526 62.2031C104.646 61.9583 104.818 61.7448 105.042 61.5573C105.266 61.375 105.526 61.2291 105.818 61.1302C106.109 61.026 106.411 60.9791 106.729 60.9791C107.047 60.9791 107.349 61.026 107.641 61.1302C107.932 61.2291 108.193 61.375 108.417 61.5573C108.635 61.7448 108.812 61.9583 108.932 62.2031C109.052 62.4479 109.114 62.6979 109.114 62.9635Z" fill="white" stroke="#DB161B" stroke-width="0.272877"/>
<path d="M121.828 62.9635C121.828 63.2291 121.766 63.4791 121.646 63.7239C121.526 63.9687 121.354 64.1823 121.13 64.3698C120.906 64.5521 120.646 64.6979 120.354 64.7968C120.062 64.901 119.76 64.9479 119.443 64.9479C119.125 64.9479 118.823 64.901 118.531 64.7968C118.24 64.6979 117.979 64.5521 117.755 64.3698C117.536 64.1823 117.359 63.9687 117.24 63.7239C117.12 63.4791 117.057 63.2291 117.057 62.9635C117.057 62.6979 117.12 62.4479 117.24 62.2031C117.359 61.9583 117.536 61.7448 117.755 61.5573C117.979 61.375 118.24 61.2291 118.531 61.1302C118.823 61.026 119.125 60.9791 119.443 60.9791C119.76 60.9791 120.062 61.026 120.354 61.1302C120.646 61.2291 120.906 61.375 121.13 61.5573C121.354 61.7448 121.526 61.9583 121.646 62.2031C121.766 62.4479 121.828 62.6979 121.828 62.9635Z" fill="white" stroke="#DB161B" stroke-width="0.272877"/>
<path fill-rule="evenodd" clip-rule="evenodd" d="M107.526 57.6667H118.646L113.089 63.625L107.526 57.6667Z" fill="white" stroke="#DB161B" stroke-width="0.272596"/>
<path d="M116.266 62.302C116.266 62.6509 116.182 62.9895 116.021 63.3124C115.859 63.6405 115.63 63.927 115.333 64.1718C115.037 64.4218 114.693 64.6145 114.302 64.7499C113.912 64.8801 113.505 64.9478 113.083 64.9478C112.667 64.9478 112.261 64.8801 111.87 64.7499C111.479 64.6145 111.136 64.4218 110.839 64.1718C110.542 63.927 110.313 63.6405 110.151 63.3124C109.99 62.9895 109.906 62.6509 109.906 62.302C109.906 61.9478 109.99 61.6145 110.151 61.2864C110.313 60.9634 110.542 60.677 110.839 60.427C111.136 60.1822 111.479 59.9895 111.87 59.8541C112.261 59.7187 112.667 59.6509 113.083 59.6509C113.505 59.6509 113.912 59.7187 114.302 59.8541C114.693 59.9895 115.037 60.1822 115.333 60.427C115.63 60.677 115.859 60.9634 116.021 61.2864C116.182 61.6145 116.266 61.9478 116.266 62.302Z" fill="white" stroke="#DB161B" stroke-width="0.363834"/>
<path d="M101.771 82.1667H116.995C117.25 82.1667 117.469 82.2344 117.651 82.375C117.833 82.5104 117.922 82.6771 117.922 82.8698V85.4375C117.922 85.6302 117.833 85.7969 117.651 85.9323C117.469 86.0729 117.25 86.1406 116.995 86.1406H101.771C101.516 86.1406 101.297 86.0729 101.115 85.9323C100.938 85.7969 100.844 85.6302 100.844 85.4375V82.8698C100.844 82.6771 100.938 82.5104 101.115 82.375C101.297 82.2344 101.516 82.1667 101.771 82.1667Z" fill="white" stroke="#DB161B" stroke-width="0.247134"/>
<path fill-rule="evenodd" clip-rule="evenodd" d="M123.125 78.8594C121.063 78.8594 119.411 80.4011 119.411 82.3177V85.3281C119.411 87.2448 121.063 88.7865 123.125 88.7865C125.182 88.7865 126.839 87.2448 126.839 85.3281V82.3177C126.839 80.4011 125.182 78.8594 123.125 78.8594ZM123.125 80.1823C121.891 80.1823 120.891 81.4219 120.891 82.9531V84.6979C120.891 86.2344 121.891 87.4636 123.125 87.4636C124.359 87.4636 125.349 86.2344 125.349 84.6979V82.9531C125.349 81.4219 124.359 80.1823 123.125 80.1823ZM103.818 79.5261C102.583 79.5261 101.594 80.7552 101.594 82.2865V85.3594C101.594 86.8958 102.583 88.1302 103.818 88.1302C105.052 88.1302 106.042 86.8958 106.042 85.3594V82.2865C106.042 80.7552 105.052 79.5261 103.818 79.5261ZM103.818 78.1979C101.76 78.1979 100.104 79.7396 100.104 81.6615V85.9948C100.104 87.9115 101.76 89.4531 103.818 89.4531C105.875 89.4531 107.531 87.9115 107.531 85.9948V81.6615C107.531 79.7396 105.875 78.1979 103.818 78.1979Z" fill="white" stroke="#DB161B" stroke-width="0.247134"/>
<path fill-rule="evenodd" clip-rule="evenodd" d="M97.8802 80.8438C96.6458 80.8438 95.6458 82.0781 95.6458 83.6146V84.3334C95.6458 85.8698 96.6458 87.1042 97.8802 87.1042C99.1146 87.1042 100.104 85.8698 100.104 84.3334V83.6146C100.104 82.0781 99.1146 80.8438 97.8802 80.8438ZM97.8802 79.5261C95.8177 79.5261 94.1667 81.0677 94.1667 82.9844V84.9688C94.1667 86.8854 95.8177 88.4271 97.8802 88.4271C99.9323 88.4271 101.594 86.8854 101.594 84.9688V82.9844C101.594 81.0677 99.9323 79.5261 97.8802 79.5261Z" fill="white" stroke="#DB161B" stroke-width="0.247134"/>
<path fill-rule="evenodd" clip-rule="evenodd" d="M88.9688 79.0156C86.7448 79.0156 84.9583 80.3959 84.9583 82.1094V85.5365C84.9583 87.2552 86.7448 88.6302 88.9688 88.6302C91.1927 88.6302 92.974 87.2552 92.974 85.5365V82.1094C92.974 80.3959 91.1927 79.0156 88.9688 79.0156ZM88.9688 77.5313C85.2656 77.5313 82.2865 79.2604 82.2865 81.4063V86.25C82.2865 88.3906 85.2656 90.1146 88.9688 90.1146C92.6667 90.1146 95.6458 88.3906 95.6458 86.25V81.4063C95.6458 79.2604 92.6667 77.5313 88.9688 77.5313ZM137.234 79.6719C135.01 79.6719 133.219 81.0625 133.219 82.7761V86.2031C133.219 87.9219 135.01 89.2969 137.234 89.2969C139.448 89.2969 141.24 87.9219 141.24 86.2031V82.7761C141.24 81.0625 139.448 79.6719 137.234 79.6719ZM137.234 78.1979C133.526 78.1979 130.547 79.9219 130.547 82.0625V86.9063C130.547 89.0521 133.526 90.7709 137.234 90.7709C140.932 90.7709 143.911 89.0521 143.911 86.9063V82.0625C143.911 79.9219 140.932 78.1979 137.234 78.1979Z" fill="white" stroke="#DB161B" stroke-width="0.247134"/>
<path d="M125.089 82.1667H133.031C133.167 82.1667 133.281 82.2344 133.375 82.375C133.469 82.5104 133.516 82.6771 133.516 82.8698V85.4375C133.516 85.6302 133.469 85.7969 133.375 85.9323C133.281 86.0729 133.167 86.1406 133.031 86.1406H125.089C124.958 86.1406 124.844 86.0729 124.75 85.9323C124.656 85.7969 124.609 85.6302 124.609 85.4375V82.8698C124.609 82.6771 124.656 82.5104 124.75 82.375C124.844 82.2344 124.958 82.1667 125.089 82.1667Z" fill="white" stroke="#DB161B" stroke-width="0.247134"/>
<path d="M116.724 81.5104H121.359C121.438 81.5104 121.505 81.599 121.557 81.7813C121.615 81.9688 121.641 82.1875 121.641 82.4479V85.8698C121.641 86.125 121.615 86.349 121.557 86.5313C121.505 86.7136 121.438 86.8073 121.359 86.8073H116.724C116.651 86.8073 116.583 86.7136 116.526 86.5313C116.474 86.349 116.443 86.125 116.443 85.8698V82.4479C116.443 82.1875 116.474 81.9688 116.526 81.7813C116.583 81.599 116.651 81.5104 116.724 81.5104Z" fill="white" stroke="#DB161B" stroke-width="0.247134"/>
<path d="M92.224 81.5104H96.8542C96.9323 81.5104 97 81.599 97.0573 81.7813C97.1094 81.9688 97.1406 82.1875 97.1406 82.4479V85.8698C97.1406 86.125 97.1094 86.349 97.0573 86.5313C97 86.7136 96.9323 86.8073 96.8542 86.8073H92.224C92.1458 86.8073 92.0781 86.7136 92.0208 86.5313C91.9688 86.349 91.9427 86.125 91.9427 85.8698V82.4479C91.9427 82.1875 91.9688 81.9688 92.0208 81.7813C92.0781 81.599 92.1458 81.5104 92.224 81.5104Z" fill="white" stroke="#DB161B" stroke-width="0.247134"/>
<path d="M76.1615 80.8438H85.4323C85.5886 80.8438 85.7188 80.9584 85.8281 81.1875C85.9375 81.4167 85.9948 81.6875 85.9948 82.0157V86.2917C85.9948 86.6146 85.9375 86.8907 85.8281 87.1198C85.7188 87.349 85.5886 87.4636 85.4323 87.4636H76.1615C76.0104 87.4636 75.875 87.349 75.7656 87.1198C75.6563 86.8907 75.599 86.6146 75.599 86.2917V82.0157C75.599 81.6875 75.6563 81.4167 75.7656 81.1875C75.875 80.9584 76.0104 80.8438 76.1615 80.8438Z" fill="white" stroke="#DB161B" stroke-width="0.247134"/>
<path d="M140.724 81.5104H149.328C149.474 81.5104 149.594 81.625 149.698 81.8542C149.802 82.0781 149.854 82.3542 149.854 82.6823V86.9583C149.854 87.2813 149.802 87.5573 149.698 87.7865C149.594 88.0156 149.474 88.1302 149.328 88.1302H140.724C140.578 88.1302 140.453 88.0156 140.354 87.7865C140.25 87.5573 140.198 87.2813 140.198 86.9583V82.6823C140.198 82.3542 140.25 82.0781 140.354 81.8542C140.453 81.625 140.578 81.5104 140.724 81.5104Z" fill="white" stroke="#DB161B" stroke-width="0.247134"/>
</g>
<defs>
<clipPath id="clip0_0_1">
<rect width="900" height="450" fill="white"/>
</clipPath>
</defs>
</svg>
