<svg width="900" height="450" viewBox="0 0 900 450" fill="none" xmlns="http://www.w3.org/2000/svg">
<g clip-path="url(#clip0_765_6164)">
<path d="M900 0H0V450H900V0Z" fill="#1E1E1E"/>
<mask id="mask0_765_6164" style="mask-type:luminance" maskUnits="userSpaceOnUse" x="0" y="0" width="900" height="450">
<path d="M900 0H0V450H900V0Z" fill="white"/>
</mask>
<g mask="url(#mask0_765_6164)">
<mask id="mask1_765_6164" style="mask-type:luminance" maskUnits="userSpaceOnUse" x="0" y="0" width="900" height="450">
<path d="M0 0H900V450H0V0Z" fill="white"/>
</mask>
<g mask="url(#mask1_765_6164)">
<path d="M0 0H900V450H0V0Z" fill="white"/>
<path d="M0 0H900V450H0V0Z" fill="white"/>
<path d="M0 0H900V450H0V0Z" fill="#1E1E1E"/>
<path d="M0 0H900V450H0V0Z" fill="white"/>
</g>
<mask id="mask2_765_6164" style="mask-type:luminance" maskUnits="userSpaceOnUse" x="0" y="224" width="450" height="226">
<path d="M0 224H450V450H0V224Z" fill="white"/>
</mask>
<g mask="url(#mask2_765_6164)">
<path d="M0 224.669H449.333V450H0V224.669Z" fill="#002855"/>
</g>
<mask id="mask3_765_6164" style="mask-type:luminance" maskUnits="userSpaceOnUse" x="448" y="-1" width="453" height="227">
<path d="M448.66 -1H900.66V225.33H448.66V-1Z" fill="white"/>
</mask>
<g mask="url(#mask3_765_6164)">
<path d="M449.33 -1H900.66V224.66H449.33V-1Z" fill="#A6192E"/>
</g>
<path fill-rule="evenodd" clip-rule="evenodd" d="M674.995 269.599L691.812 321.344L746.219 321.349L702.203 353.328L719.016 405.078L674.995 373.099L630.979 405.078L647.786 353.328L603.771 321.349L658.182 321.344L674.995 269.599Z" fill="#A6192E"/>
<path fill-rule="evenodd" clip-rule="evenodd" d="M225.661 44.9323L242.474 96.6771L296.885 96.6823L252.87 128.661L269.682 180.411L225.661 148.432L181.641 180.411L198.453 128.661L154.437 96.6823L208.844 96.6771L225.661 44.9323Z" fill="#002855"/>
</g>
</g>
<defs>
<clipPath id="clip0_765_6164">
<rect width="900" height="450" fill="white"/>
</clipPath>
</defs>
</svg>
