<svg width="900" height="450" viewBox="0 0 900 450" fill="none" xmlns="http://www.w3.org/2000/svg">
<g clip-path="url(#clip0_765_7333)">
<path d="M900 0H0V450H900V0Z" fill="#1E1E1E"/>
<mask id="mask0_765_7333" style="mask-type:luminance" maskUnits="userSpaceOnUse" x="0" y="0" width="900" height="450">
<path d="M900 0H0V450H900V0Z" fill="white"/>
</mask>
<g mask="url(#mask0_765_7333)">
<mask id="mask1_765_7333" style="mask-type:luminance" maskUnits="userSpaceOnUse" x="0" y="0" width="900" height="450">
<path d="M0 0H900V449.333H0V0Z" fill="white"/>
</mask>
<g mask="url(#mask1_765_7333)">
<path d="M0 0H900V449.333H0V0Z" fill="white"/>
<path d="M0 0H900V449.333H0V0Z" fill="white"/>
</g>
<mask id="mask2_765_7333" style="mask-type:luminance" maskUnits="userSpaceOnUse" x="0" y="0" width="900" height="450">
<path d="M0 0H900V449.333H0V0Z" fill="white"/>
</mask>
<g mask="url(#mask2_765_7333)">
<path d="M0 0H900V449.333H0V0Z" fill="#CE1126"/>
</g>
<mask id="mask3_765_7333" style="mask-type:luminance" maskUnits="userSpaceOnUse" x="0" y="112" width="900" height="226">
<path d="M0 112H900V337.333H0V112Z" fill="white"/>
</mask>
<g mask="url(#mask3_765_7333)">
<path d="M0 112.333H900V337H0V112.333Z" fill="white"/>
</g>
<mask id="mask4_765_7333" style="mask-type:luminance" maskUnits="userSpaceOnUse" x="353" y="125" width="194" height="117">
<path d="M353.333 125.333H546.667V241.333H353.333V125.333Z" fill="white"/>
</mask>
<g mask="url(#mask4_765_7333)">
<mask id="mask5_765_7333" style="mask-type:luminance" maskUnits="userSpaceOnUse" x="353" y="125" width="194" height="200">
<path d="M353.391 225.125C353.391 221.875 353.547 218.63 353.859 215.396C354.167 212.161 354.63 208.953 355.25 205.766C355.865 202.573 356.635 199.427 357.552 196.318C358.469 193.208 359.536 190.151 360.745 187.146C361.958 184.146 363.307 181.208 364.802 178.344C366.292 175.474 367.917 172.693 369.672 169.99C371.432 167.286 373.312 164.677 375.323 162.167C377.328 159.656 379.453 157.25 381.688 154.953C383.927 152.651 386.266 150.474 388.714 148.411C391.161 146.349 393.698 144.417 396.328 142.609C398.958 140.802 401.672 139.135 404.458 137.604C407.25 136.068 410.109 134.682 413.031 133.437C415.953 132.193 418.927 131.099 421.958 130.156C424.984 129.214 428.052 128.427 431.151 127.792C434.255 127.156 437.38 126.682 440.531 126.359C443.677 126.042 446.839 125.885 450 125.885C453.161 125.885 456.323 126.042 459.469 126.359C462.62 126.682 465.745 127.156 468.849 127.792C471.948 128.427 475.016 129.214 478.042 130.156C481.073 131.099 484.047 132.193 486.969 133.437C489.891 134.682 492.75 136.068 495.542 137.604C498.328 139.135 501.042 140.802 503.672 142.609C506.302 144.417 508.839 146.349 511.286 148.411C513.734 150.474 516.073 152.651 518.313 154.953C520.547 157.25 522.672 159.656 524.677 162.167C526.688 164.677 528.568 167.286 530.328 169.99C532.083 172.693 533.708 175.474 535.198 178.344C536.693 181.208 538.042 184.146 539.255 187.146C540.464 190.151 541.531 193.208 542.448 196.318C543.365 199.427 544.135 202.573 544.75 205.766C545.37 208.953 545.833 212.161 546.141 215.396C546.453 218.63 546.609 221.875 546.609 225.125C546.609 228.375 546.453 231.615 546.141 234.849C545.833 238.083 545.37 241.297 544.75 244.484C544.135 247.672 543.365 250.823 542.448 253.932C541.531 257.042 540.464 260.099 539.255 263.104C538.042 266.104 536.693 269.042 535.198 271.906C533.708 274.771 532.083 277.557 530.328 280.26C528.568 282.964 526.688 285.568 524.677 288.083C522.672 290.594 520.547 293 518.313 295.297C516.073 297.594 513.734 299.776 511.286 301.839C508.839 303.901 506.302 305.833 503.672 307.641C501.042 309.443 498.328 311.115 495.542 312.646C492.75 314.177 489.891 315.568 486.969 316.813C484.047 318.052 481.073 319.146 478.042 320.089C475.016 321.036 471.948 321.823 468.849 322.458C465.745 323.094 462.62 323.568 459.469 323.885C456.323 324.203 453.161 324.365 450 324.365C446.839 324.365 443.677 324.203 440.531 323.885C437.38 323.568 434.255 323.094 431.151 322.458C428.052 321.823 424.984 321.036 421.958 320.089C418.927 319.146 415.953 318.052 413.031 316.813C410.109 315.568 407.25 314.177 404.458 312.646C401.672 311.115 398.958 309.443 396.328 307.641C393.698 305.833 391.161 303.901 388.714 301.839C386.266 299.776 383.927 297.594 381.688 295.297C379.453 293 377.328 290.594 375.323 288.083C373.312 285.568 371.432 282.964 369.672 280.26C367.917 277.557 366.292 274.771 364.802 271.906C363.307 269.042 361.958 266.104 360.745 263.104C359.536 260.099 358.469 257.042 357.552 253.932C356.635 250.823 355.865 247.672 355.25 244.484C354.63 241.297 354.167 238.083 353.859 234.849C353.547 231.615 353.391 228.375 353.391 225.125Z" fill="white"/>
</mask>
<g mask="url(#mask5_765_7333)">
<path d="M408.042 213.422V206.937L424.443 213.896L408.042 213.422ZM408.042 203.693V192.891C408.042 192.891 406.13 193.161 406.401 191C406.49 186.495 418.406 199.214 424.51 203.359L424.375 212.005L408.042 203.693ZM388.083 240.438V219.099L348.719 217.219L353.641 240.172L388.083 240.438ZM388.625 214.229L388.354 199.104L352.547 185.057L351.995 210.719L388.625 214.229ZM387.536 193.979L391.557 189.833C391.557 189.833 388.969 188.068 389.094 186.443C389.141 184.802 391.698 184.552 391.75 182.776C391.797 181.135 388.854 180.937 388.823 179.297C388.63 177.516 391.089 175.609 391.089 175.609L365.667 153.724L359.38 180.474L387.536 193.979ZM507.813 240.438L507.536 219.641L547.448 216.667L544.167 240.438H507.813ZM545.057 210.396C544.594 207.016 544.115 203.646 543.333 200.333C542.286 195.896 540.948 191.547 539.323 187.286C539.203 186.974 539.026 186.687 538.901 186.375L507.813 199.385L508.094 214.792L545.057 210.396ZM523.807 160.385L505.208 174.453C505.24 175.797 506.578 176.833 506.948 178.12C507.807 179.927 506.099 181.526 505.047 182.802C504.188 183.979 506.031 184.583 506.646 185.276C508 186.667 506.823 188.839 505.38 189.641C507.115 190.677 507.99 192.62 508.37 194.531L536.224 180.042C532.891 173.026 528.74 166.391 523.807 160.385ZM487.589 213.693L487.865 207.474L472.01 214.365L487.589 213.693ZM471.932 203.969C471.932 203.969 486.693 190.797 489.839 188.365C489.839 191.068 488.13 193.161 488.13 193.161V203.427L472 210.99L471.932 203.969ZM376.339 151.833L392.901 169.995C393.354 168.297 397.115 168.042 400.938 168.312C404.766 168.583 407.818 168.057 407.818 170.76C407.818 173.464 405.875 173.078 405.875 174.969C405.875 176.859 408.786 176.703 408.786 179.13C408.786 181.562 406.677 181.068 406.667 182.948C406.656 184.505 408.865 184.589 408.865 184.589L424.38 199.448L424.443 183.573L392.464 134.005L376.339 151.833ZM401.927 133.062L423.589 176.844C423.589 176.844 423.833 136.432 427.484 134.266L421.401 123.198L401.927 133.062ZM471.844 128.417L463.755 156.37C466.281 156.672 468.813 156.755 471.354 156.615C473.635 156.807 471.859 158.943 471.984 160.208L471.948 177.401L494.807 137.031C489.552 134.286 483.974 132.25 478.359 130.385C476.214 129.63 474.042 128.974 471.844 128.417ZM500.292 140.094L472.016 183.562L471.984 200.302C478.276 194.313 484.604 188.354 490.88 182.344C492.073 180.656 487.099 179.828 489.583 177.776C491.833 177.068 492.219 173.427 489.844 172.729C487.896 169.865 491.615 168.344 493.958 168.656C497.224 168.807 500.583 167.948 503.776 168.854C505.531 170.531 507.151 166.312 508.875 165.365C512.286 161.937 515.698 158.51 519.068 155.042C513.474 149.224 507.214 144.24 500.292 140.094Z" fill="#FF9C10"/>
</g>
</g>
<mask id="mask6_765_7333" style="mask-type:luminance" maskUnits="userSpaceOnUse" x="409" y="308" width="79" height="18">
<path d="M409.333 308H488V325.333H409.333V308Z" fill="white"/>
</mask>
<g mask="url(#mask6_765_7333)">
<mask id="mask7_765_7333" style="mask-type:luminance" maskUnits="userSpaceOnUse" x="353" y="125" width="194" height="200">
<path d="M353.391 225.125C353.391 221.875 353.547 218.63 353.859 215.396C354.167 212.161 354.63 208.953 355.25 205.766C355.865 202.573 356.635 199.427 357.552 196.318C358.469 193.208 359.536 190.151 360.745 187.146C361.958 184.146 363.307 181.208 364.802 178.344C366.292 175.474 367.917 172.693 369.672 169.99C371.432 167.286 373.312 164.677 375.323 162.167C377.328 159.656 379.453 157.25 381.688 154.953C383.927 152.651 386.266 150.474 388.714 148.411C391.161 146.349 393.698 144.417 396.328 142.609C398.958 140.802 401.672 139.135 404.458 137.604C407.25 136.068 410.109 134.682 413.031 133.437C415.953 132.193 418.927 131.099 421.958 130.156C424.984 129.214 428.052 128.427 431.151 127.792C434.255 127.156 437.38 126.682 440.531 126.359C443.677 126.042 446.839 125.885 450 125.885C453.161 125.885 456.323 126.042 459.469 126.359C462.62 126.682 465.745 127.156 468.849 127.792C471.948 128.427 475.016 129.214 478.042 130.156C481.073 131.099 484.047 132.193 486.969 133.437C489.891 134.682 492.75 136.068 495.542 137.604C498.328 139.135 501.042 140.802 503.672 142.609C506.302 144.417 508.839 146.349 511.286 148.411C513.734 150.474 516.073 152.651 518.313 154.953C520.547 157.25 522.672 159.656 524.677 162.167C526.688 164.677 528.568 167.286 530.328 169.99C532.083 172.693 533.708 175.474 535.198 178.344C536.693 181.208 538.042 184.146 539.255 187.146C540.464 190.151 541.531 193.208 542.448 196.318C543.365 199.427 544.135 202.573 544.75 205.766C545.37 208.953 545.833 212.161 546.141 215.396C546.453 218.63 546.609 221.875 546.609 225.125C546.609 228.375 546.453 231.615 546.141 234.849C545.833 238.083 545.37 241.297 544.75 244.484C544.135 247.672 543.365 250.823 542.448 253.932C541.531 257.042 540.464 260.099 539.255 263.104C538.042 266.104 536.693 269.042 535.198 271.906C533.708 274.771 532.083 277.557 530.328 280.26C528.568 282.964 526.688 285.568 524.677 288.083C522.672 290.594 520.547 293 518.313 295.297C516.073 297.594 513.734 299.776 511.286 301.839C508.839 303.901 506.302 305.833 503.672 307.641C501.042 309.443 498.328 311.115 495.542 312.646C492.75 314.177 489.891 315.568 486.969 316.812C484.047 318.052 481.073 319.146 478.042 320.089C475.016 321.036 471.948 321.823 468.849 322.458C465.745 323.094 462.62 323.568 459.469 323.885C456.323 324.203 453.161 324.365 450 324.365C446.839 324.365 443.677 324.203 440.531 323.885C437.38 323.568 434.255 323.094 431.151 322.458C428.052 321.823 424.984 321.036 421.958 320.089C418.927 319.146 415.953 318.052 413.031 316.812C410.109 315.568 407.25 314.177 404.458 312.646C401.672 311.115 398.958 309.443 396.328 307.641C393.698 305.833 391.161 303.901 388.714 301.839C386.266 299.776 383.927 297.594 381.688 295.297C379.453 293 377.328 290.594 375.323 288.083C373.312 285.568 371.432 282.964 369.672 280.26C367.917 277.557 366.292 274.771 364.802 271.906C363.307 269.042 361.958 266.104 360.745 263.104C359.536 260.099 358.469 257.042 357.552 253.932C356.635 250.823 355.865 247.672 355.25 244.484C354.63 241.297 354.167 238.083 353.859 234.849C353.547 231.615 353.391 228.375 353.391 225.125Z" fill="white"/>
</mask>
<g mask="url(#mask7_765_7333)">
<path d="M427.359 308.859C420.406 309.25 413.479 313.943 410.234 316.453C416.063 319.005 422.286 320.995 428.906 322.365C439.458 324.135 450.005 324.12 460.557 324.12C462.276 323.906 463.984 323.656 465.656 323.38L487.88 315.891C487.88 315.891 477.188 308.833 468.714 309.141C460.24 309.443 454.516 317.734 447.682 317.125C440.849 316.51 438.115 308.859 428.271 308.859C427.964 308.859 427.667 308.844 427.359 308.859Z" fill="#083D9C"/>
</g>
</g>
<mask id="mask8_765_7333" style="mask-type:luminance" maskUnits="userSpaceOnUse" x="396" y="294" width="106" height="32">
<path d="M396 294.667H501.333V325.333H396V294.667Z" fill="white"/>
</mask>
<g mask="url(#mask8_765_7333)">
<mask id="mask9_765_7333" style="mask-type:luminance" maskUnits="userSpaceOnUse" x="353" y="125" width="194" height="200">
<path d="M353.391 225.125C353.391 221.875 353.547 218.63 353.859 215.396C354.167 212.161 354.63 208.953 355.25 205.766C355.865 202.573 356.635 199.427 357.552 196.318C358.469 193.208 359.536 190.151 360.745 187.146C361.958 184.146 363.307 181.208 364.802 178.344C366.292 175.474 367.917 172.693 369.672 169.99C371.432 167.286 373.312 164.677 375.323 162.167C377.328 159.656 379.453 157.25 381.688 154.953C383.927 152.651 386.266 150.474 388.714 148.411C391.161 146.349 393.698 144.417 396.328 142.609C398.958 140.802 401.672 139.135 404.458 137.604C407.25 136.068 410.109 134.682 413.031 133.437C415.953 132.193 418.927 131.099 421.958 130.156C424.984 129.214 428.052 128.427 431.151 127.792C434.255 127.156 437.38 126.682 440.531 126.359C443.677 126.042 446.839 125.885 450 125.885C453.161 125.885 456.323 126.042 459.469 126.359C462.62 126.682 465.745 127.156 468.849 127.792C471.948 128.427 475.016 129.214 478.042 130.156C481.073 131.099 484.047 132.193 486.969 133.437C489.891 134.682 492.75 136.068 495.542 137.604C498.328 139.135 501.042 140.802 503.672 142.609C506.302 144.417 508.839 146.349 511.286 148.411C513.734 150.474 516.073 152.651 518.313 154.953C520.547 157.25 522.672 159.656 524.677 162.167C526.688 164.677 528.568 167.286 530.328 169.99C532.083 172.693 533.708 175.474 535.198 178.344C536.693 181.208 538.042 184.146 539.255 187.146C540.464 190.151 541.531 193.208 542.448 196.318C543.365 199.427 544.135 202.573 544.75 205.766C545.37 208.953 545.833 212.161 546.141 215.396C546.453 218.63 546.609 221.875 546.609 225.125C546.609 228.375 546.453 231.615 546.141 234.849C545.833 238.083 545.37 241.297 544.75 244.484C544.135 247.672 543.365 250.823 542.448 253.932C541.531 257.042 540.464 260.099 539.255 263.104C538.042 266.104 536.693 269.042 535.198 271.906C533.708 274.771 532.083 277.557 530.328 280.26C528.568 282.964 526.688 285.568 524.677 288.083C522.672 290.594 520.547 293 518.313 295.297C516.073 297.594 513.734 299.776 511.286 301.839C508.839 303.901 506.302 305.833 503.672 307.641C501.042 309.443 498.328 311.115 495.542 312.646C492.75 314.177 489.891 315.568 486.969 316.812C484.047 318.052 481.073 319.146 478.042 320.089C475.016 321.036 471.948 321.823 468.849 322.458C465.745 323.094 462.62 323.568 459.469 323.885C456.323 324.203 453.161 324.365 450 324.365C446.839 324.365 443.677 324.203 440.531 323.885C437.38 323.568 434.255 323.094 431.151 322.458C428.052 321.823 424.984 321.036 421.958 320.089C418.927 319.146 415.953 318.052 413.031 316.812C410.109 315.568 407.25 314.177 404.458 312.646C401.672 311.115 398.958 309.443 396.328 307.641C393.698 305.833 391.161 303.901 388.714 301.839C386.266 299.776 383.927 297.594 381.688 295.297C379.453 293 377.328 290.594 375.323 288.083C373.312 285.568 371.432 282.964 369.672 280.26C367.917 277.557 366.292 274.771 364.802 271.906C363.307 269.042 361.958 266.104 360.745 263.104C359.536 260.099 358.469 257.042 357.552 253.932C356.635 250.823 355.865 247.672 355.25 244.484C354.63 241.297 354.167 238.083 353.859 234.849C353.547 231.615 353.391 228.375 353.391 225.125Z" fill="white"/>
</mask>
<g mask="url(#mask9_765_7333)">
<path d="M427.36 308.86C420.406 309.25 413.479 313.943 410.234 316.453C416.063 319.005 422.287 320.995 428.906 322.365C439.458 324.136 450.005 324.12 460.557 324.12C462.276 323.906 463.985 323.656 465.656 323.38L487.88 315.891C487.88 315.891 477.188 308.833 468.714 309.141C460.24 309.443 454.516 317.735 447.682 317.125C440.849 316.511 438.115 308.86 428.271 308.86C427.964 308.86 427.667 308.844 427.36 308.86Z" stroke="#083D9C" stroke-width="2.31027"/>
</g>
</g>
<mask id="mask10_765_7333" style="mask-type:luminance" maskUnits="userSpaceOnUse" x="353" y="246" width="190" height="58">
<path d="M353.333 246.667H542.667V304H353.333V246.667Z" fill="white"/>
</mask>
<g mask="url(#mask10_765_7333)">
<mask id="mask11_765_7333" style="mask-type:luminance" maskUnits="userSpaceOnUse" x="353" y="125" width="194" height="200">
<path d="M353.391 225.125C353.391 221.875 353.547 218.63 353.859 215.396C354.167 212.161 354.63 208.953 355.25 205.766C355.865 202.573 356.635 199.427 357.552 196.318C358.469 193.208 359.536 190.151 360.745 187.146C361.958 184.146 363.307 181.208 364.802 178.344C366.292 175.474 367.917 172.693 369.672 169.99C371.432 167.286 373.312 164.677 375.323 162.167C377.328 159.656 379.453 157.25 381.688 154.953C383.927 152.651 386.266 150.474 388.714 148.411C391.161 146.349 393.698 144.417 396.328 142.609C398.958 140.802 401.672 139.135 404.458 137.604C407.25 136.068 410.109 134.682 413.031 133.437C415.953 132.193 418.927 131.099 421.958 130.156C424.984 129.214 428.052 128.427 431.151 127.792C434.255 127.156 437.38 126.682 440.531 126.359C443.677 126.042 446.839 125.885 450 125.885C453.161 125.885 456.323 126.042 459.469 126.359C462.62 126.682 465.745 127.156 468.849 127.792C471.948 128.427 475.016 129.214 478.042 130.156C481.073 131.099 484.047 132.193 486.969 133.437C489.891 134.682 492.75 136.068 495.542 137.604C498.328 139.135 501.042 140.802 503.672 142.609C506.302 144.417 508.839 146.349 511.286 148.411C513.734 150.474 516.073 152.651 518.313 154.953C520.547 157.25 522.672 159.656 524.677 162.167C526.688 164.677 528.568 167.286 530.328 169.99C532.083 172.693 533.708 175.474 535.198 178.344C536.693 181.208 538.042 184.146 539.255 187.146C540.464 190.151 541.531 193.208 542.448 196.318C543.365 199.427 544.135 202.573 544.75 205.766C545.37 208.953 545.833 212.161 546.141 215.396C546.453 218.63 546.609 221.875 546.609 225.125C546.609 228.375 546.453 231.615 546.141 234.849C545.833 238.083 545.37 241.297 544.75 244.484C544.135 247.672 543.365 250.823 542.448 253.932C541.531 257.042 540.464 260.099 539.255 263.104C538.042 266.104 536.693 269.042 535.198 271.906C533.708 274.771 532.083 277.557 530.328 280.26C528.568 282.964 526.688 285.568 524.677 288.083C522.672 290.594 520.547 293 518.313 295.297C516.073 297.594 513.734 299.776 511.286 301.839C508.839 303.901 506.302 305.833 503.672 307.641C501.042 309.443 498.328 311.115 495.542 312.646C492.75 314.177 489.891 315.568 486.969 316.813C484.047 318.052 481.073 319.146 478.042 320.089C475.016 321.036 471.948 321.823 468.849 322.458C465.745 323.094 462.62 323.568 459.469 323.885C456.323 324.203 453.161 324.365 450 324.365C446.839 324.365 443.677 324.203 440.531 323.885C437.38 323.568 434.255 323.094 431.151 322.458C428.052 321.823 424.984 321.036 421.958 320.089C418.927 319.146 415.953 318.052 413.031 316.813C410.109 315.568 407.25 314.177 404.458 312.646C401.672 311.115 398.958 309.443 396.328 307.641C393.698 305.833 391.161 303.901 388.714 301.839C386.266 299.776 383.927 297.594 381.688 295.297C379.453 293 377.328 290.594 375.323 288.083C373.312 285.568 371.432 282.964 369.672 280.26C367.917 277.557 366.292 274.771 364.802 271.906C363.307 269.042 361.958 266.104 360.745 263.104C359.536 260.099 358.469 257.042 357.552 253.932C356.635 250.823 355.865 247.672 355.25 244.484C354.63 241.297 354.167 238.083 353.859 234.849C353.547 231.615 353.391 228.375 353.391 225.125Z" fill="white"/>
</mask>
<g mask="url(#mask11_765_7333)">
<path d="M513.286 303.661C513.286 303.661 502.354 292.042 489.505 291.771C476.656 291.5 480.214 297.177 470.37 297.984C460.531 298.797 458.068 292.042 449.047 292.313C440.031 292.583 434.833 297.984 428 298.255C421.167 298.526 412.422 291.5 407.229 291.771C402.031 292.042 383.443 299.875 383.443 299.875L386.995 303.12L513.286 303.661ZM370.87 288.255L526.677 288.797C529.141 285.286 519.026 276.906 509.729 276.099C502.073 276.37 496.609 283.932 490.323 284.203C484.036 284.474 476.932 276.37 469.823 276.641C462.714 276.911 455.333 284.203 448.224 284.203C441.12 284.203 435.927 276.37 426.906 276.37C417.885 276.37 413.786 285.01 406.953 284.474C400.115 283.932 394.104 275.828 387.542 275.828C380.984 275.828 370.047 285.552 367.865 285.01C365.677 284.474 370.87 288.255 370.87 288.255ZM431.104 273.354L465.885 273.333C465.885 273.333 458.099 261.464 448.5 262.281C437.807 262.557 431.104 273.354 431.104 273.354ZM542.016 272.521H494.422C494.422 272.521 500.583 268.927 502.26 265.604C505.339 267.266 504.5 268.927 510.661 269.203C516.818 269.479 522.698 262.286 528.578 262.563C534.458 262.839 542.016 272.521 542.016 272.521ZM354.458 272.521H402.057C402.057 272.521 395.896 268.927 394.214 265.604C391.135 267.266 391.979 268.927 385.818 269.203C379.661 269.479 373.781 262.286 367.896 262.563C362.021 262.839 354.458 272.521 354.458 272.521ZM391.911 258.005C391.911 258.005 389.724 253.417 389.453 247.74C380.703 244.771 373.599 254.224 367.313 254.495C361.026 254.766 354.464 247.74 354.464 247.74L358.016 257.734L391.911 258.005ZM538.979 257.734L505.083 258.005C505.083 258.005 507.271 253.417 507.542 247.74C516.292 244.771 523.396 254.224 529.682 254.495C535.974 254.766 542.531 247.74 542.531 247.74L538.979 257.734ZM439.75 258.005L456.969 258.016C456.969 258.016 457.245 252.333 448.219 252.333C439.198 252.333 439.75 258.005 439.75 258.005Z" fill="#083D9C"/>
</g>
</g>
<mask id="mask12_765_7333" style="mask-type:luminance" maskUnits="userSpaceOnUse" x="353" y="234" width="194" height="82">
<path d="M353.333 234.667H546.667V316H353.333V234.667Z" fill="white"/>
</mask>
<g mask="url(#mask12_765_7333)">
<mask id="mask13_765_7333" style="mask-type:luminance" maskUnits="userSpaceOnUse" x="353" y="125" width="194" height="200">
<path d="M353.391 225.125C353.391 221.875 353.547 218.63 353.859 215.396C354.167 212.161 354.63 208.953 355.25 205.766C355.865 202.573 356.635 199.427 357.552 196.318C358.469 193.208 359.536 190.151 360.745 187.146C361.958 184.146 363.307 181.208 364.802 178.344C366.292 175.474 367.917 172.693 369.672 169.99C371.432 167.286 373.312 164.677 375.323 162.167C377.328 159.656 379.453 157.25 381.688 154.953C383.927 152.651 386.266 150.474 388.714 148.411C391.161 146.349 393.698 144.417 396.328 142.609C398.958 140.802 401.672 139.135 404.458 137.604C407.25 136.068 410.109 134.682 413.031 133.437C415.953 132.193 418.927 131.099 421.958 130.156C424.984 129.214 428.052 128.427 431.151 127.792C434.255 127.156 437.38 126.682 440.531 126.359C443.677 126.042 446.839 125.885 450 125.885C453.161 125.885 456.323 126.042 459.469 126.359C462.62 126.682 465.745 127.156 468.849 127.792C471.948 128.427 475.016 129.214 478.042 130.156C481.073 131.099 484.047 132.193 486.969 133.437C489.891 134.682 492.75 136.068 495.542 137.604C498.328 139.135 501.042 140.802 503.672 142.609C506.302 144.417 508.839 146.349 511.286 148.411C513.734 150.474 516.073 152.651 518.313 154.953C520.547 157.25 522.672 159.656 524.677 162.167C526.688 164.677 528.568 167.286 530.328 169.99C532.083 172.693 533.708 175.474 535.198 178.344C536.693 181.208 538.042 184.146 539.255 187.146C540.464 190.151 541.531 193.208 542.448 196.318C543.365 199.427 544.135 202.573 544.75 205.766C545.37 208.953 545.833 212.161 546.141 215.396C546.453 218.63 546.609 221.875 546.609 225.125C546.609 228.375 546.453 231.615 546.141 234.849C545.833 238.083 545.37 241.297 544.75 244.484C544.135 247.672 543.365 250.823 542.448 253.932C541.531 257.042 540.464 260.099 539.255 263.104C538.042 266.104 536.693 269.042 535.198 271.906C533.708 274.771 532.083 277.557 530.328 280.26C528.568 282.964 526.688 285.568 524.677 288.083C522.672 290.594 520.547 293 518.313 295.297C516.073 297.594 513.734 299.776 511.286 301.839C508.839 303.901 506.302 305.833 503.672 307.641C501.042 309.443 498.328 311.115 495.542 312.646C492.75 314.177 489.891 315.568 486.969 316.813C484.047 318.052 481.073 319.146 478.042 320.089C475.016 321.036 471.948 321.823 468.849 322.458C465.745 323.094 462.62 323.568 459.469 323.885C456.323 324.203 453.161 324.365 450 324.365C446.839 324.365 443.677 324.203 440.531 323.885C437.38 323.568 434.255 323.094 431.151 322.458C428.052 321.823 424.984 321.036 421.958 320.089C418.927 319.146 415.953 318.052 413.031 316.813C410.109 315.568 407.25 314.177 404.458 312.646C401.672 311.115 398.958 309.443 396.328 307.641C393.698 305.833 391.161 303.901 388.714 301.839C386.266 299.776 383.927 297.594 381.688 295.297C379.453 293 377.328 290.594 375.323 288.083C373.312 285.568 371.432 282.964 369.672 280.26C367.917 277.557 366.292 274.771 364.802 271.906C363.307 269.042 361.958 266.104 360.745 263.104C359.536 260.099 358.469 257.042 357.552 253.932C356.635 250.823 355.865 247.672 355.25 244.484C354.63 241.297 354.167 238.083 353.859 234.849C353.547 231.615 353.391 228.375 353.391 225.125Z" fill="white"/>
</mask>
<g mask="url(#mask13_765_7333)">
<path d="M513.287 303.662C513.287 303.662 502.354 292.042 489.505 291.771C476.656 291.5 480.214 297.177 470.37 297.985C460.531 298.797 458.068 292.042 449.047 292.313C440.031 292.583 434.833 297.985 428 298.255C421.167 298.526 412.422 291.5 407.229 291.771C402.031 292.042 383.443 299.875 383.443 299.875L386.995 303.12L513.287 303.662ZM370.87 288.255L526.677 288.797C529.141 285.287 519.026 276.906 509.729 276.099C502.073 276.37 496.61 283.932 490.323 284.203C484.037 284.474 476.932 276.37 469.823 276.641C462.714 276.912 455.333 284.203 448.224 284.203C441.12 284.203 435.927 276.37 426.906 276.37C417.886 276.37 413.787 285.011 406.953 284.474C400.115 283.932 394.104 275.828 387.542 275.828C380.984 275.828 370.047 285.552 367.865 285.011C365.677 284.474 370.87 288.255 370.87 288.255ZM431.104 273.354L465.886 273.333C465.886 273.333 458.099 261.464 448.5 262.281C437.807 262.557 431.104 273.354 431.104 273.354ZM542.016 272.521H494.422C494.422 272.521 500.583 268.927 502.261 265.604C505.339 267.266 504.5 268.927 510.662 269.203C516.818 269.479 522.698 262.287 528.578 262.563C534.458 262.839 542.016 272.521 542.016 272.521ZM354.458 272.521H402.057C402.057 272.521 395.896 268.927 394.214 265.604C391.136 267.266 391.979 268.927 385.818 269.203C379.662 269.479 373.781 262.287 367.896 262.563C362.021 262.839 354.458 272.521 354.458 272.521ZM391.912 258.005C391.912 258.005 389.724 253.417 389.453 247.74C380.703 244.771 373.599 254.224 367.313 254.495C361.026 254.766 354.464 247.74 354.464 247.74L358.016 257.734L391.912 258.005ZM538.979 257.734L505.083 258.005C505.083 258.005 507.271 253.417 507.542 247.74C516.292 244.771 523.396 254.224 529.682 254.495C535.974 254.766 542.531 247.74 542.531 247.74L538.979 257.734ZM439.75 258.005L456.969 258.016C456.969 258.016 457.245 252.333 448.219 252.333C439.198 252.333 439.75 258.005 439.75 258.005Z" stroke="#083D9C" stroke-width="2.17073"/>
</g>
</g>
<mask id="mask14_765_7333" style="mask-type:luminance" maskUnits="userSpaceOnUse" x="392" y="126" width="114" height="148">
<path d="M392 126.667H505.333V273.333H392V126.667Z" fill="white"/>
</mask>
<g mask="url(#mask14_765_7333)">
<mask id="mask15_765_7333" style="mask-type:luminance" maskUnits="userSpaceOnUse" x="353" y="125" width="194" height="200">
<path d="M353.391 225.125C353.391 221.875 353.547 218.63 353.859 215.396C354.167 212.161 354.63 208.953 355.25 205.766C355.865 202.573 356.635 199.427 357.552 196.318C358.469 193.208 359.536 190.151 360.745 187.146C361.958 184.146 363.307 181.208 364.802 178.344C366.292 175.474 367.917 172.693 369.672 169.99C371.432 167.286 373.312 164.677 375.323 162.167C377.328 159.656 379.453 157.25 381.688 154.953C383.927 152.651 386.266 150.474 388.714 148.411C391.161 146.349 393.698 144.417 396.328 142.609C398.958 140.802 401.672 139.135 404.458 137.604C407.25 136.068 410.109 134.682 413.031 133.437C415.953 132.193 418.927 131.099 421.958 130.156C424.984 129.214 428.052 128.427 431.151 127.792C434.255 127.156 437.38 126.682 440.531 126.359C443.677 126.042 446.839 125.885 450 125.885C453.161 125.885 456.323 126.042 459.469 126.359C462.62 126.682 465.745 127.156 468.849 127.792C471.948 128.427 475.016 129.214 478.042 130.156C481.073 131.099 484.047 132.193 486.969 133.437C489.891 134.682 492.75 136.068 495.542 137.604C498.328 139.135 501.042 140.802 503.672 142.609C506.302 144.417 508.839 146.349 511.286 148.411C513.734 150.474 516.073 152.651 518.313 154.953C520.547 157.25 522.672 159.656 524.677 162.167C526.688 164.677 528.568 167.286 530.328 169.99C532.083 172.693 533.708 175.474 535.198 178.344C536.693 181.208 538.042 184.146 539.255 187.146C540.464 190.151 541.531 193.208 542.448 196.318C543.365 199.427 544.135 202.573 544.75 205.766C545.37 208.953 545.833 212.161 546.141 215.396C546.453 218.63 546.609 221.875 546.609 225.125C546.609 228.375 546.453 231.615 546.141 234.849C545.833 238.083 545.37 241.297 544.75 244.484C544.135 247.672 543.365 250.823 542.448 253.932C541.531 257.042 540.464 260.099 539.255 263.104C538.042 266.104 536.693 269.042 535.198 271.906C533.708 274.771 532.083 277.557 530.328 280.26C528.568 282.964 526.688 285.568 524.677 288.083C522.672 290.594 520.547 293 518.313 295.297C516.073 297.594 513.734 299.776 511.286 301.839C508.839 303.901 506.302 305.833 503.672 307.641C501.042 309.443 498.328 311.115 495.542 312.646C492.75 314.177 489.891 315.568 486.969 316.813C484.047 318.052 481.073 319.146 478.042 320.089C475.016 321.036 471.948 321.823 468.849 322.458C465.745 323.094 462.62 323.568 459.469 323.885C456.323 324.203 453.161 324.365 450 324.365C446.839 324.365 443.677 324.203 440.531 323.885C437.38 323.568 434.255 323.094 431.151 322.458C428.052 321.823 424.984 321.036 421.958 320.089C418.927 319.146 415.953 318.052 413.031 316.813C410.109 315.568 407.25 314.177 404.458 312.646C401.672 311.115 398.958 309.443 396.328 307.641C393.698 305.833 391.161 303.901 388.714 301.839C386.266 299.776 383.927 297.594 381.688 295.297C379.453 293 377.328 290.594 375.323 288.083C373.312 285.568 371.432 282.964 369.672 280.26C367.917 277.557 366.292 274.771 364.802 271.906C363.307 269.042 361.958 266.104 360.745 263.104C359.536 260.099 358.469 257.042 357.552 253.932C356.635 250.823 355.865 247.672 355.25 244.484C354.63 241.297 354.167 238.083 353.859 234.849C353.547 231.615 353.391 228.375 353.391 225.125Z" fill="white"/>
</mask>
<g mask="url(#mask15_765_7333)">
<path d="M430.724 202.62L466.536 212.073V161.552C450.13 162.365 436.464 130.755 465.443 128.594C437.01 124.542 433.729 131.839 430.453 139.672L430.724 202.62ZM438.677 248.281C430.891 261.031 410.068 257.25 405.198 248.349C403.74 247.943 404.604 193.438 404.604 193.438C404.604 193.438 402.276 192.391 402.167 190.714C402.063 189.021 405.333 188.865 405.333 186.698C405.333 184.536 401.995 185.385 401.927 183.203C401.943 181.12 405.49 181.406 405.333 179.484C405.146 177.313 401.354 177.635 401.193 175.635C401.073 174.042 403.906 172.656 404.693 171.943L402.047 171.906L396.083 172.026C391.844 172.031 396.156 172.938 396.094 175.354C396.057 176.932 393.948 177.984 393.755 179.354C393.688 180.766 396.776 181.755 396.813 183.448C396.849 184.953 393.781 185.057 393.891 186.458C394.083 188.833 396.609 189.354 396.573 190.792C396.531 192.224 393.172 192.771 393.161 193.917C393.281 196.13 393.651 249.964 393.651 249.964C399.005 277.391 429.917 284.365 438.677 248.281ZM459.057 248.281C466.849 261.031 487.667 257.25 492.536 248.349C493.995 247.943 493.135 193.438 493.135 193.438C493.135 193.438 495.464 192.391 495.568 190.714C495.672 189.021 492.609 188.865 492.609 186.698C492.609 184.536 495.745 185.385 495.813 183.203C495.797 181.12 492.521 181.276 492.677 179.349C492.865 177.177 495.438 177.432 495.583 175.432C495.708 173.708 493.969 172.656 493.182 171.943L495.693 171.906L501.656 172.026C505.891 172.031 501.583 172.938 501.641 175.354C501.682 176.932 503.792 177.984 503.979 179.354C504.047 180.766 500.964 181.755 500.922 183.448C500.891 184.953 503.953 185.057 503.844 186.458C503.651 188.833 501.125 189.354 501.167 190.792C501.203 192.224 504.568 192.771 504.573 193.917C504.458 196.13 504.089 249.964 504.089 249.964C498.729 277.391 467.823 284.365 459.057 248.281Z" fill="#CE1126"/>
</g>
</g>
<mask id="mask16_765_7333" style="mask-type:luminance" maskUnits="userSpaceOnUse" x="392" y="125" width="115" height="150">
<path d="M392 125.333H506.667V274.667H392V125.333Z" fill="white"/>
</mask>
<g mask="url(#mask16_765_7333)">
<mask id="mask17_765_7333" style="mask-type:luminance" maskUnits="userSpaceOnUse" x="353" y="125" width="194" height="200">
<path d="M353.391 225.125C353.391 221.875 353.547 218.63 353.859 215.396C354.167 212.161 354.63 208.953 355.25 205.766C355.865 202.573 356.635 199.427 357.552 196.318C358.469 193.208 359.536 190.151 360.745 187.146C361.958 184.146 363.307 181.208 364.802 178.344C366.292 175.474 367.917 172.693 369.672 169.99C371.432 167.286 373.312 164.677 375.323 162.167C377.328 159.656 379.453 157.25 381.688 154.953C383.927 152.651 386.266 150.474 388.714 148.411C391.161 146.349 393.698 144.417 396.328 142.609C398.958 140.802 401.672 139.135 404.458 137.604C407.25 136.068 410.109 134.682 413.031 133.437C415.953 132.193 418.927 131.099 421.958 130.156C424.984 129.214 428.052 128.427 431.151 127.792C434.255 127.156 437.38 126.682 440.531 126.359C443.677 126.042 446.839 125.885 450 125.885C453.161 125.885 456.323 126.042 459.469 126.359C462.62 126.682 465.745 127.156 468.849 127.792C471.948 128.427 475.016 129.214 478.042 130.156C481.073 131.099 484.047 132.193 486.969 133.437C489.891 134.682 492.75 136.068 495.542 137.604C498.328 139.135 501.042 140.802 503.672 142.609C506.302 144.417 508.839 146.349 511.286 148.411C513.734 150.474 516.073 152.651 518.313 154.953C520.547 157.25 522.672 159.656 524.677 162.167C526.688 164.677 528.568 167.286 530.328 169.99C532.083 172.693 533.708 175.474 535.198 178.344C536.693 181.208 538.042 184.146 539.255 187.146C540.464 190.151 541.531 193.208 542.448 196.318C543.365 199.427 544.135 202.573 544.75 205.766C545.37 208.953 545.833 212.161 546.141 215.396C546.453 218.63 546.609 221.875 546.609 225.125C546.609 228.375 546.453 231.615 546.141 234.849C545.833 238.083 545.37 241.297 544.75 244.484C544.135 247.672 543.365 250.823 542.448 253.932C541.531 257.042 540.464 260.099 539.255 263.104C538.042 266.104 536.693 269.042 535.198 271.906C533.708 274.771 532.083 277.557 530.328 280.26C528.568 282.964 526.688 285.568 524.677 288.083C522.672 290.594 520.547 293 518.313 295.297C516.073 297.594 513.734 299.776 511.286 301.839C508.839 303.901 506.302 305.833 503.672 307.641C501.042 309.443 498.328 311.115 495.542 312.646C492.75 314.177 489.891 315.568 486.969 316.813C484.047 318.052 481.073 319.146 478.042 320.089C475.016 321.036 471.948 321.823 468.849 322.458C465.745 323.094 462.62 323.568 459.469 323.885C456.323 324.203 453.161 324.365 450 324.365C446.839 324.365 443.677 324.203 440.531 323.885C437.38 323.568 434.255 323.094 431.151 322.458C428.052 321.823 424.984 321.036 421.958 320.089C418.927 319.146 415.953 318.052 413.031 316.813C410.109 315.568 407.25 314.177 404.458 312.646C401.672 311.115 398.958 309.443 396.328 307.641C393.698 305.833 391.161 303.901 388.714 301.839C386.266 299.776 383.927 297.594 381.688 295.297C379.453 293 377.328 290.594 375.323 288.083C373.312 285.568 371.432 282.964 369.672 280.26C367.917 277.557 366.292 274.771 364.802 271.906C363.307 269.042 361.958 266.104 360.745 263.104C359.536 260.099 358.469 257.042 357.552 253.932C356.635 250.823 355.865 247.672 355.25 244.484C354.63 241.297 354.167 238.083 353.859 234.849C353.547 231.615 353.391 228.375 353.391 225.125Z" fill="white"/>
</mask>
<g mask="url(#mask17_765_7333)">
<path d="M430.724 202.62L466.537 212.073V161.552C450.13 162.365 436.464 130.755 465.443 128.594C437.011 124.542 433.729 131.839 430.453 139.672L430.724 202.62ZM438.677 248.281C430.891 261.031 410.068 257.25 405.198 248.349C403.74 247.943 404.604 193.438 404.604 193.438C404.604 193.438 402.276 192.391 402.167 190.714C402.063 189.021 405.333 188.865 405.333 186.698C405.333 184.537 401.995 185.385 401.927 183.203C401.943 181.12 405.49 181.406 405.333 179.484C405.146 177.313 401.354 177.636 401.193 175.636C401.073 174.042 403.906 172.656 404.693 171.943L402.047 171.906L396.083 172.026C391.844 172.031 396.156 172.938 396.094 175.354C396.057 176.932 393.948 177.984 393.755 179.354C393.688 180.766 396.776 181.755 396.813 183.448C396.849 184.953 393.781 185.057 393.891 186.458C394.083 188.833 396.609 189.354 396.573 190.792C396.531 192.224 393.172 192.771 393.162 193.917C393.281 196.13 393.651 249.964 393.651 249.964C399.005 277.391 429.917 284.365 438.677 248.281ZM459.057 248.281C466.849 261.031 487.667 257.25 492.537 248.349C493.995 247.943 493.136 193.438 493.136 193.438C493.136 193.438 495.464 192.391 495.568 190.714C495.672 189.021 492.61 188.865 492.61 186.698C492.61 184.537 495.745 185.385 495.813 183.203C495.797 181.12 492.521 181.276 492.677 179.349C492.865 177.177 495.438 177.432 495.584 175.432C495.709 173.708 493.969 172.656 493.182 171.943L495.693 171.906L501.656 172.026C505.891 172.031 501.584 172.938 501.641 175.354C501.682 176.932 503.792 177.984 503.979 179.354C504.047 180.766 500.964 181.755 500.922 183.448C500.891 184.953 503.953 185.057 503.844 186.458C503.651 188.833 501.125 189.354 501.167 190.792C501.203 192.224 504.568 192.771 504.573 193.917C504.459 196.13 504.089 249.964 504.089 249.964C498.729 277.391 467.823 284.365 459.057 248.281Z" stroke="#630810" stroke-width="2.17073" stroke-linejoin="round"/>
</g>
</g>
<mask id="mask18_765_7333" style="mask-type:luminance" maskUnits="userSpaceOnUse" x="408" y="238" width="82" height="14">
<path d="M408 238.667H489.333V252H408V238.667Z" fill="white"/>
</mask>
<g mask="url(#mask18_765_7333)">
<mask id="mask19_765_7333" style="mask-type:luminance" maskUnits="userSpaceOnUse" x="353" y="125" width="194" height="200">
<path d="M353.391 225.125C353.391 221.875 353.547 218.63 353.859 215.396C354.167 212.161 354.63 208.953 355.25 205.766C355.865 202.573 356.635 199.427 357.552 196.318C358.469 193.208 359.536 190.151 360.745 187.146C361.958 184.146 363.307 181.208 364.802 178.344C366.292 175.474 367.917 172.693 369.672 169.99C371.432 167.286 373.312 164.677 375.323 162.167C377.328 159.656 379.453 157.25 381.688 154.953C383.927 152.651 386.266 150.474 388.714 148.411C391.161 146.349 393.698 144.417 396.328 142.609C398.958 140.802 401.672 139.135 404.458 137.604C407.25 136.068 410.109 134.682 413.031 133.437C415.953 132.193 418.927 131.099 421.958 130.156C424.984 129.214 428.052 128.427 431.151 127.792C434.255 127.156 437.38 126.682 440.531 126.359C443.677 126.042 446.839 125.885 450 125.885C453.161 125.885 456.323 126.042 459.469 126.359C462.62 126.682 465.745 127.156 468.849 127.792C471.948 128.427 475.016 129.214 478.042 130.156C481.073 131.099 484.047 132.193 486.969 133.437C489.891 134.682 492.75 136.068 495.542 137.604C498.328 139.135 501.042 140.802 503.672 142.609C506.302 144.417 508.839 146.349 511.286 148.411C513.734 150.474 516.073 152.651 518.313 154.953C520.547 157.25 522.672 159.656 524.677 162.167C526.688 164.677 528.568 167.286 530.328 169.99C532.083 172.693 533.708 175.474 535.198 178.344C536.693 181.208 538.042 184.146 539.255 187.146C540.464 190.151 541.531 193.208 542.448 196.318C543.365 199.427 544.135 202.573 544.75 205.766C545.37 208.953 545.833 212.161 546.141 215.396C546.453 218.63 546.609 221.875 546.609 225.125C546.609 228.375 546.453 231.615 546.141 234.849C545.833 238.083 545.37 241.297 544.75 244.484C544.135 247.672 543.365 250.823 542.448 253.932C541.531 257.042 540.464 260.099 539.255 263.104C538.042 266.104 536.693 269.042 535.198 271.906C533.708 274.771 532.083 277.557 530.328 280.26C528.568 282.964 526.688 285.568 524.677 288.083C522.672 290.594 520.547 293 518.313 295.297C516.073 297.594 513.734 299.776 511.286 301.839C508.839 303.901 506.302 305.833 503.672 307.641C501.042 309.443 498.328 311.115 495.542 312.646C492.75 314.177 489.891 315.568 486.969 316.813C484.047 318.052 481.073 319.146 478.042 320.089C475.016 321.036 471.948 321.823 468.849 322.458C465.745 323.094 462.62 323.568 459.469 323.885C456.323 324.203 453.161 324.365 450 324.365C446.839 324.365 443.677 324.203 440.531 323.885C437.38 323.568 434.255 323.094 431.151 322.458C428.052 321.823 424.984 321.036 421.958 320.089C418.927 319.146 415.953 318.052 413.031 316.813C410.109 315.568 407.25 314.177 404.458 312.646C401.672 311.115 398.958 309.443 396.328 307.641C393.698 305.833 391.161 303.901 388.714 301.839C386.266 299.776 383.927 297.594 381.688 295.297C379.453 293 377.328 290.594 375.323 288.083C373.312 285.568 371.432 282.964 369.672 280.26C367.917 277.557 366.292 274.771 364.802 271.906C363.307 269.042 361.958 266.104 360.745 263.104C359.536 260.099 358.469 257.042 357.552 253.932C356.635 250.823 355.865 247.672 355.25 244.484C354.63 241.297 354.167 238.083 353.859 234.849C353.547 231.615 353.391 228.375 353.391 225.125Z" fill="white"/>
</mask>
<g mask="url(#mask19_765_7333)">
<path d="M429.359 250.703C432.37 249.078 435.104 247.464 437.016 243.677L425.26 243.948C425.26 243.948 419.797 247.193 417.063 250.703H429.359ZM467.354 250.703C464.344 249.078 461.615 247.464 459.698 243.677L471.453 243.948C471.453 243.948 476.917 247.193 479.651 250.703H467.354Z" fill="#630810"/>
</g>
</g>
<mask id="mask20_765_7333" style="mask-type:luminance" maskUnits="userSpaceOnUse" x="389" y="221" width="119" height="49">
<path d="M389.333 221.333H508V269.333H389.333V221.333Z" fill="white"/>
</mask>
<g mask="url(#mask20_765_7333)">
<mask id="mask21_765_7333" style="mask-type:luminance" maskUnits="userSpaceOnUse" x="353" y="125" width="194" height="200">
<path d="M353.391 225.125C353.391 221.875 353.547 218.63 353.859 215.396C354.167 212.161 354.63 208.953 355.25 205.766C355.865 202.573 356.635 199.427 357.552 196.318C358.469 193.208 359.536 190.151 360.745 187.146C361.958 184.146 363.307 181.208 364.802 178.344C366.292 175.474 367.917 172.693 369.672 169.99C371.432 167.286 373.312 164.677 375.323 162.167C377.328 159.656 379.453 157.25 381.688 154.953C383.927 152.651 386.266 150.474 388.714 148.411C391.161 146.349 393.698 144.417 396.328 142.609C398.958 140.802 401.672 139.135 404.458 137.604C407.25 136.068 410.109 134.682 413.031 133.437C415.953 132.193 418.927 131.099 421.958 130.156C424.984 129.214 428.052 128.427 431.151 127.792C434.255 127.156 437.38 126.682 440.531 126.359C443.677 126.042 446.839 125.885 450 125.885C453.161 125.885 456.323 126.042 459.469 126.359C462.62 126.682 465.745 127.156 468.849 127.792C471.948 128.427 475.016 129.214 478.042 130.156C481.073 131.099 484.047 132.193 486.969 133.437C489.891 134.682 492.75 136.068 495.542 137.604C498.328 139.135 501.042 140.802 503.672 142.609C506.302 144.417 508.839 146.349 511.286 148.411C513.734 150.474 516.073 152.651 518.313 154.953C520.547 157.25 522.672 159.656 524.677 162.167C526.688 164.677 528.568 167.286 530.328 169.99C532.083 172.693 533.708 175.474 535.198 178.344C536.693 181.208 538.042 184.146 539.255 187.146C540.464 190.151 541.531 193.208 542.448 196.318C543.365 199.427 544.135 202.573 544.75 205.766C545.37 208.953 545.833 212.161 546.141 215.396C546.453 218.63 546.609 221.875 546.609 225.125C546.609 228.375 546.453 231.615 546.141 234.849C545.833 238.083 545.37 241.297 544.75 244.484C544.135 247.672 543.365 250.823 542.448 253.932C541.531 257.042 540.464 260.099 539.255 263.104C538.042 266.104 536.693 269.042 535.198 271.906C533.708 274.771 532.083 277.557 530.328 280.26C528.568 282.964 526.688 285.568 524.677 288.083C522.672 290.594 520.547 293 518.313 295.297C516.073 297.594 513.734 299.776 511.286 301.839C508.839 303.901 506.302 305.833 503.672 307.641C501.042 309.443 498.328 311.115 495.542 312.646C492.75 314.177 489.891 315.568 486.969 316.813C484.047 318.052 481.073 319.146 478.042 320.089C475.016 321.036 471.948 321.823 468.849 322.458C465.745 323.094 462.62 323.568 459.469 323.885C456.323 324.203 453.161 324.365 450 324.365C446.839 324.365 443.677 324.203 440.531 323.885C437.38 323.568 434.255 323.094 431.151 322.458C428.052 321.823 424.984 321.036 421.958 320.089C418.927 319.146 415.953 318.052 413.031 316.813C410.109 315.568 407.25 314.177 404.458 312.646C401.672 311.115 398.958 309.443 396.328 307.641C393.698 305.833 391.161 303.901 388.714 301.839C386.266 299.776 383.927 297.594 381.688 295.297C379.453 293 377.328 290.594 375.323 288.083C373.312 285.568 371.432 282.964 369.672 280.26C367.917 277.557 366.292 274.771 364.802 271.906C363.307 269.042 361.958 266.104 360.745 263.104C359.536 260.099 358.469 257.042 357.552 253.932C356.635 250.823 355.865 247.672 355.25 244.484C354.63 241.297 354.167 238.083 353.859 234.849C353.547 231.615 353.391 228.375 353.391 225.125Z" fill="white"/>
</mask>
<g mask="url(#mask21_765_7333)">
<path d="M408.037 239.359L488.948 239.63M429.36 250.703C432.37 249.078 435.104 247.464 437.016 243.677L425.261 243.948C425.261 243.948 419.797 247.193 417.063 250.703H429.36ZM467.354 250.703C464.344 249.078 461.615 247.464 459.698 243.677L471.453 243.948C471.453 243.948 476.917 247.193 479.651 250.703H467.354Z" stroke="#630810" stroke-width="3.13625" stroke-linecap="round"/>
</g>
</g>
<mask id="mask22_765_7333" style="mask-type:luminance" maskUnits="userSpaceOnUse" x="410" y="218" width="13" height="16">
<path d="M410.667 218.667H422.667V233.333H410.667V218.667Z" fill="white"/>
</mask>
<g mask="url(#mask22_765_7333)">
<mask id="mask23_765_7333" style="mask-type:luminance" maskUnits="userSpaceOnUse" x="353" y="125" width="194" height="200">
<path d="M353.391 225.125C353.391 221.875 353.547 218.63 353.859 215.396C354.167 212.161 354.63 208.953 355.25 205.766C355.865 202.573 356.635 199.427 357.552 196.318C358.469 193.208 359.536 190.151 360.745 187.146C361.958 184.146 363.307 181.208 364.802 178.344C366.292 175.474 367.917 172.693 369.672 169.99C371.432 167.286 373.312 164.677 375.323 162.167C377.328 159.656 379.453 157.25 381.688 154.953C383.927 152.651 386.266 150.474 388.714 148.411C391.161 146.349 393.698 144.417 396.328 142.609C398.958 140.802 401.672 139.135 404.458 137.604C407.25 136.068 410.109 134.682 413.031 133.437C415.953 132.193 418.927 131.099 421.958 130.156C424.984 129.214 428.052 128.427 431.151 127.792C434.255 127.156 437.38 126.682 440.531 126.359C443.677 126.042 446.839 125.885 450 125.885C453.161 125.885 456.323 126.042 459.469 126.359C462.62 126.682 465.745 127.156 468.849 127.792C471.948 128.427 475.016 129.214 478.042 130.156C481.073 131.099 484.047 132.193 486.969 133.437C489.891 134.682 492.75 136.068 495.542 137.604C498.328 139.135 501.042 140.802 503.672 142.609C506.302 144.417 508.839 146.349 511.286 148.411C513.734 150.474 516.073 152.651 518.313 154.953C520.547 157.25 522.672 159.656 524.677 162.167C526.688 164.677 528.568 167.286 530.328 169.99C532.083 172.693 533.708 175.474 535.198 178.344C536.693 181.208 538.042 184.146 539.255 187.146C540.464 190.151 541.531 193.208 542.448 196.318C543.365 199.427 544.135 202.573 544.75 205.766C545.37 208.953 545.833 212.161 546.141 215.396C546.453 218.63 546.609 221.875 546.609 225.125C546.609 228.375 546.453 231.615 546.141 234.849C545.833 238.083 545.37 241.297 544.75 244.484C544.135 247.672 543.365 250.823 542.448 253.932C541.531 257.042 540.464 260.099 539.255 263.104C538.042 266.104 536.693 269.042 535.198 271.906C533.708 274.771 532.083 277.557 530.328 280.26C528.568 282.964 526.688 285.568 524.677 288.083C522.672 290.594 520.547 293 518.313 295.297C516.073 297.594 513.734 299.776 511.286 301.839C508.839 303.901 506.302 305.833 503.672 307.641C501.042 309.443 498.328 311.115 495.542 312.646C492.75 314.177 489.891 315.568 486.969 316.813C484.047 318.052 481.073 319.146 478.042 320.089C475.016 321.036 471.948 321.823 468.849 322.458C465.745 323.094 462.62 323.568 459.469 323.885C456.323 324.203 453.161 324.365 450 324.365C446.839 324.365 443.677 324.203 440.531 323.885C437.38 323.568 434.255 323.094 431.151 322.458C428.052 321.823 424.984 321.036 421.958 320.089C418.927 319.146 415.953 318.052 413.031 316.813C410.109 315.568 407.25 314.177 404.458 312.646C401.672 311.115 398.958 309.443 396.328 307.641C393.698 305.833 391.161 303.901 388.714 301.839C386.266 299.776 383.927 297.594 381.688 295.297C379.453 293 377.328 290.594 375.323 288.083C373.312 285.568 371.432 282.964 369.672 280.26C367.917 277.557 366.292 274.771 364.802 271.906C363.307 269.042 361.958 266.104 360.745 263.104C359.536 260.099 358.469 257.042 357.552 253.932C356.635 250.823 355.865 247.672 355.25 244.484C354.63 241.297 354.167 238.083 353.859 234.849C353.547 231.615 353.391 228.375 353.391 225.125Z" fill="white"/>
</mask>
<g mask="url(#mask23_765_7333)">
<path d="M417.061 227.079L416.895 226.858L417.077 226.641L417.061 227.079Z" fill="#630810"/>
</g>
</g>
<mask id="mask24_765_7333" style="mask-type:luminance" maskUnits="userSpaceOnUse" x="393" y="201" width="47" height="50">
<path d="M393.333 201.333H440V250.667H393.333V201.333Z" fill="white"/>
</mask>
<g mask="url(#mask24_765_7333)">
<mask id="mask25_765_7333" style="mask-type:luminance" maskUnits="userSpaceOnUse" x="353" y="125" width="194" height="200">
<path d="M353.391 225.125C353.391 221.875 353.547 218.63 353.859 215.396C354.167 212.161 354.63 208.953 355.25 205.766C355.865 202.573 356.635 199.427 357.552 196.318C358.469 193.208 359.536 190.151 360.745 187.146C361.958 184.146 363.307 181.208 364.802 178.344C366.292 175.474 367.917 172.693 369.672 169.99C371.432 167.286 373.312 164.677 375.323 162.167C377.328 159.656 379.453 157.25 381.688 154.953C383.927 152.651 386.266 150.474 388.714 148.411C391.161 146.349 393.698 144.417 396.328 142.609C398.958 140.802 401.672 139.135 404.458 137.604C407.25 136.068 410.109 134.682 413.031 133.437C415.953 132.193 418.927 131.099 421.958 130.156C424.984 129.214 428.052 128.427 431.151 127.792C434.255 127.156 437.38 126.682 440.531 126.359C443.677 126.042 446.839 125.885 450 125.885C453.161 125.885 456.323 126.042 459.469 126.359C462.62 126.682 465.745 127.156 468.849 127.792C471.948 128.427 475.016 129.214 478.042 130.156C481.073 131.099 484.047 132.193 486.969 133.437C489.891 134.682 492.75 136.068 495.542 137.604C498.328 139.135 501.042 140.802 503.672 142.609C506.302 144.417 508.839 146.349 511.286 148.411C513.734 150.474 516.073 152.651 518.313 154.953C520.547 157.25 522.672 159.656 524.677 162.167C526.688 164.677 528.568 167.286 530.328 169.99C532.083 172.693 533.708 175.474 535.198 178.344C536.693 181.208 538.042 184.146 539.255 187.146C540.464 190.151 541.531 193.208 542.448 196.318C543.365 199.427 544.135 202.573 544.75 205.766C545.37 208.953 545.833 212.161 546.141 215.396C546.453 218.63 546.609 221.875 546.609 225.125C546.609 228.375 546.453 231.615 546.141 234.849C545.833 238.083 545.37 241.297 544.75 244.484C544.135 247.672 543.365 250.823 542.448 253.932C541.531 257.042 540.464 260.099 539.255 263.104C538.042 266.104 536.693 269.042 535.198 271.906C533.708 274.771 532.083 277.557 530.328 280.26C528.568 282.964 526.688 285.568 524.677 288.083C522.672 290.594 520.547 293 518.313 295.297C516.073 297.594 513.734 299.776 511.286 301.839C508.839 303.901 506.302 305.833 503.672 307.641C501.042 309.443 498.328 311.115 495.542 312.646C492.75 314.177 489.891 315.568 486.969 316.813C484.047 318.052 481.073 319.146 478.042 320.089C475.016 321.036 471.948 321.823 468.849 322.458C465.745 323.094 462.62 323.568 459.469 323.885C456.323 324.203 453.161 324.365 450 324.365C446.839 324.365 443.677 324.203 440.531 323.885C437.38 323.568 434.255 323.094 431.151 322.458C428.052 321.823 424.984 321.036 421.958 320.089C418.927 319.146 415.953 318.052 413.031 316.813C410.109 315.568 407.25 314.177 404.458 312.646C401.672 311.115 398.958 309.443 396.328 307.641C393.698 305.833 391.161 303.901 388.714 301.839C386.266 299.776 383.927 297.594 381.688 295.297C379.453 293 377.328 290.594 375.323 288.083C373.312 285.568 371.432 282.964 369.672 280.26C367.917 277.557 366.292 274.771 364.802 271.906C363.307 269.042 361.958 266.104 360.745 263.104C359.536 260.099 358.469 257.042 357.552 253.932C356.635 250.823 355.865 247.672 355.25 244.484C354.63 241.297 354.167 238.083 353.859 234.849C353.547 231.615 353.391 228.375 353.391 225.125Z" fill="white"/>
</mask>
<g mask="url(#mask25_765_7333)">
<path d="M411.865 220.182L421.432 232.88M411.865 232.875L422.25 220.453M417.333 219.365L417.057 227.198" stroke="#630810" stroke-width="3.13625" stroke-linecap="round"/>
</g>
</g>
<mask id="mask26_765_7333" style="mask-type:luminance" maskUnits="userSpaceOnUse" x="426" y="218" width="13" height="16">
<path d="M426.667 218.667H438.667V233.333H426.667V218.667Z" fill="white"/>
</mask>
<g mask="url(#mask26_765_7333)">
<mask id="mask27_765_7333" style="mask-type:luminance" maskUnits="userSpaceOnUse" x="353" y="125" width="194" height="200">
<path d="M353.391 225.125C353.391 221.875 353.547 218.63 353.859 215.396C354.167 212.161 354.63 208.953 355.25 205.766C355.865 202.573 356.635 199.427 357.552 196.318C358.469 193.208 359.536 190.151 360.745 187.146C361.958 184.146 363.307 181.208 364.802 178.344C366.292 175.474 367.917 172.693 369.672 169.99C371.432 167.286 373.312 164.677 375.323 162.167C377.328 159.656 379.453 157.25 381.688 154.953C383.927 152.651 386.266 150.474 388.714 148.411C391.161 146.349 393.698 144.417 396.328 142.609C398.958 140.802 401.672 139.135 404.458 137.604C407.25 136.068 410.109 134.682 413.031 133.437C415.953 132.193 418.927 131.099 421.958 130.156C424.984 129.214 428.052 128.427 431.151 127.792C434.255 127.156 437.38 126.682 440.531 126.359C443.677 126.042 446.839 125.885 450 125.885C453.161 125.885 456.323 126.042 459.469 126.359C462.62 126.682 465.745 127.156 468.849 127.792C471.948 128.427 475.016 129.214 478.042 130.156C481.073 131.099 484.047 132.193 486.969 133.437C489.891 134.682 492.75 136.068 495.542 137.604C498.328 139.135 501.042 140.802 503.672 142.609C506.302 144.417 508.839 146.349 511.286 148.411C513.734 150.474 516.073 152.651 518.313 154.953C520.547 157.25 522.672 159.656 524.677 162.167C526.688 164.677 528.568 167.286 530.328 169.99C532.083 172.693 533.708 175.474 535.198 178.344C536.693 181.208 538.042 184.146 539.255 187.146C540.464 190.151 541.531 193.208 542.448 196.318C543.365 199.427 544.135 202.573 544.75 205.766C545.37 208.953 545.833 212.161 546.141 215.396C546.453 218.63 546.609 221.875 546.609 225.125C546.609 228.375 546.453 231.615 546.141 234.849C545.833 238.083 545.37 241.297 544.75 244.484C544.135 247.672 543.365 250.823 542.448 253.932C541.531 257.042 540.464 260.099 539.255 263.104C538.042 266.104 536.693 269.042 535.198 271.906C533.708 274.771 532.083 277.557 530.328 280.26C528.568 282.964 526.688 285.568 524.677 288.083C522.672 290.594 520.547 293 518.313 295.297C516.073 297.594 513.734 299.776 511.286 301.839C508.839 303.901 506.302 305.833 503.672 307.641C501.042 309.443 498.328 311.115 495.542 312.646C492.75 314.177 489.891 315.568 486.969 316.813C484.047 318.052 481.073 319.146 478.042 320.089C475.016 321.036 471.948 321.823 468.849 322.458C465.745 323.094 462.62 323.568 459.469 323.885C456.323 324.203 453.161 324.365 450 324.365C446.839 324.365 443.677 324.203 440.531 323.885C437.38 323.568 434.255 323.094 431.151 322.458C428.052 321.823 424.984 321.036 421.958 320.089C418.927 319.146 415.953 318.052 413.031 316.813C410.109 315.568 407.25 314.177 404.458 312.646C401.672 311.115 398.958 309.443 396.328 307.641C393.698 305.833 391.161 303.901 388.714 301.839C386.266 299.776 383.927 297.594 381.688 295.297C379.453 293 377.328 290.594 375.323 288.083C373.312 285.568 371.432 282.964 369.672 280.26C367.917 277.557 366.292 274.771 364.802 271.906C363.307 269.042 361.958 266.104 360.745 263.104C359.536 260.099 358.469 257.042 357.552 253.932C356.635 250.823 355.865 247.672 355.25 244.484C354.63 241.297 354.167 238.083 353.859 234.849C353.547 231.615 353.391 228.375 353.391 225.125Z" fill="white"/>
</mask>
<g mask="url(#mask27_765_7333)">
<path d="M432.374 227.086L432.204 226.86L432.389 226.638L432.374 227.086Z" fill="#630810"/>
</g>
</g>
<mask id="mask28_765_7333" style="mask-type:luminance" maskUnits="userSpaceOnUse" x="409" y="201" width="47" height="50">
<path d="M409.333 201.333H456V250.667H409.333V201.333Z" fill="white"/>
</mask>
<g mask="url(#mask28_765_7333)">
<mask id="mask29_765_7333" style="mask-type:luminance" maskUnits="userSpaceOnUse" x="353" y="125" width="194" height="200">
<path d="M353.391 225.125C353.391 221.875 353.547 218.63 353.859 215.396C354.167 212.161 354.63 208.953 355.25 205.766C355.865 202.573 356.635 199.427 357.552 196.318C358.469 193.208 359.536 190.151 360.745 187.146C361.958 184.146 363.307 181.208 364.802 178.344C366.292 175.474 367.917 172.693 369.672 169.99C371.432 167.286 373.312 164.677 375.323 162.167C377.328 159.656 379.453 157.25 381.688 154.953C383.927 152.651 386.266 150.474 388.714 148.411C391.161 146.349 393.698 144.417 396.328 142.609C398.958 140.802 401.672 139.135 404.458 137.604C407.25 136.068 410.109 134.682 413.031 133.437C415.953 132.193 418.927 131.099 421.958 130.156C424.984 129.214 428.052 128.427 431.151 127.792C434.255 127.156 437.38 126.682 440.531 126.359C443.677 126.042 446.839 125.885 450 125.885C453.161 125.885 456.323 126.042 459.469 126.359C462.62 126.682 465.745 127.156 468.849 127.792C471.948 128.427 475.016 129.214 478.042 130.156C481.073 131.099 484.047 132.193 486.969 133.437C489.891 134.682 492.75 136.068 495.542 137.604C498.328 139.135 501.042 140.802 503.672 142.609C506.302 144.417 508.839 146.349 511.286 148.411C513.734 150.474 516.073 152.651 518.313 154.953C520.547 157.25 522.672 159.656 524.677 162.167C526.688 164.677 528.568 167.286 530.328 169.99C532.083 172.693 533.708 175.474 535.198 178.344C536.693 181.208 538.042 184.146 539.255 187.146C540.464 190.151 541.531 193.208 542.448 196.318C543.365 199.427 544.135 202.573 544.75 205.766C545.37 208.953 545.833 212.161 546.141 215.396C546.453 218.63 546.609 221.875 546.609 225.125C546.609 228.375 546.453 231.615 546.141 234.849C545.833 238.083 545.37 241.297 544.75 244.484C544.135 247.672 543.365 250.823 542.448 253.932C541.531 257.042 540.464 260.099 539.255 263.104C538.042 266.104 536.693 269.042 535.198 271.906C533.708 274.771 532.083 277.557 530.328 280.26C528.568 282.964 526.688 285.568 524.677 288.083C522.672 290.594 520.547 293 518.313 295.297C516.073 297.594 513.734 299.776 511.286 301.839C508.839 303.901 506.302 305.833 503.672 307.641C501.042 309.443 498.328 311.115 495.542 312.646C492.75 314.177 489.891 315.568 486.969 316.813C484.047 318.052 481.073 319.146 478.042 320.089C475.016 321.036 471.948 321.823 468.849 322.458C465.745 323.094 462.62 323.568 459.469 323.885C456.323 324.203 453.161 324.365 450 324.365C446.839 324.365 443.677 324.203 440.531 323.885C437.38 323.568 434.255 323.094 431.151 322.458C428.052 321.823 424.984 321.036 421.958 320.089C418.927 319.146 415.953 318.052 413.031 316.813C410.109 315.568 407.25 314.177 404.458 312.646C401.672 311.115 398.958 309.443 396.328 307.641C393.698 305.833 391.161 303.901 388.714 301.839C386.266 299.776 383.927 297.594 381.688 295.297C379.453 293 377.328 290.594 375.323 288.083C373.312 285.568 371.432 282.964 369.672 280.26C367.917 277.557 366.292 274.771 364.802 271.906C363.307 269.042 361.958 266.104 360.745 263.104C359.536 260.099 358.469 257.042 357.552 253.932C356.635 250.823 355.865 247.672 355.25 244.484C354.63 241.297 354.167 238.083 353.859 234.849C353.547 231.615 353.391 228.375 353.391 225.125Z" fill="white"/>
</mask>
<g mask="url(#mask29_765_7333)">
<path d="M427.172 220.182L436.74 232.88M427.172 232.875L437.563 220.453M432.641 219.365L432.37 227.198" stroke="#630810" stroke-width="3.13625" stroke-linecap="round"/>
</g>
</g>
<mask id="mask30_765_7333" style="mask-type:luminance" maskUnits="userSpaceOnUse" x="442" y="218" width="12" height="16">
<path d="M442.667 218.667H453.333V233.333H442.667V218.667Z" fill="white"/>
</mask>
<g mask="url(#mask30_765_7333)">
<mask id="mask31_765_7333" style="mask-type:luminance" maskUnits="userSpaceOnUse" x="353" y="125" width="194" height="200">
<path d="M353.391 225.125C353.391 221.875 353.547 218.63 353.859 215.396C354.167 212.161 354.63 208.953 355.25 205.766C355.865 202.573 356.635 199.427 357.552 196.318C358.469 193.208 359.536 190.151 360.745 187.146C361.958 184.146 363.307 181.208 364.802 178.344C366.292 175.474 367.917 172.693 369.672 169.99C371.432 167.286 373.312 164.677 375.323 162.167C377.328 159.656 379.453 157.25 381.688 154.953C383.927 152.651 386.266 150.474 388.714 148.411C391.161 146.349 393.698 144.417 396.328 142.609C398.958 140.802 401.672 139.135 404.458 137.604C407.25 136.068 410.109 134.682 413.031 133.437C415.953 132.193 418.927 131.099 421.958 130.156C424.984 129.214 428.052 128.427 431.151 127.792C434.255 127.156 437.38 126.682 440.531 126.359C443.677 126.042 446.839 125.885 450 125.885C453.161 125.885 456.323 126.042 459.469 126.359C462.62 126.682 465.745 127.156 468.849 127.792C471.948 128.427 475.016 129.214 478.042 130.156C481.073 131.099 484.047 132.193 486.969 133.437C489.891 134.682 492.75 136.068 495.542 137.604C498.328 139.135 501.042 140.802 503.672 142.609C506.302 144.417 508.839 146.349 511.286 148.411C513.734 150.474 516.073 152.651 518.313 154.953C520.547 157.25 522.672 159.656 524.677 162.167C526.688 164.677 528.568 167.286 530.328 169.99C532.083 172.693 533.708 175.474 535.198 178.344C536.693 181.208 538.042 184.146 539.255 187.146C540.464 190.151 541.531 193.208 542.448 196.318C543.365 199.427 544.135 202.573 544.75 205.766C545.37 208.953 545.833 212.161 546.141 215.396C546.453 218.63 546.609 221.875 546.609 225.125C546.609 228.375 546.453 231.615 546.141 234.849C545.833 238.083 545.37 241.297 544.75 244.484C544.135 247.672 543.365 250.823 542.448 253.932C541.531 257.042 540.464 260.099 539.255 263.104C538.042 266.104 536.693 269.042 535.198 271.906C533.708 274.771 532.083 277.557 530.328 280.26C528.568 282.964 526.688 285.568 524.677 288.083C522.672 290.594 520.547 293 518.313 295.297C516.073 297.594 513.734 299.776 511.286 301.839C508.839 303.901 506.302 305.833 503.672 307.641C501.042 309.443 498.328 311.115 495.542 312.646C492.75 314.177 489.891 315.568 486.969 316.813C484.047 318.052 481.073 319.146 478.042 320.089C475.016 321.036 471.948 321.823 468.849 322.458C465.745 323.094 462.62 323.568 459.469 323.885C456.323 324.203 453.161 324.365 450 324.365C446.839 324.365 443.677 324.203 440.531 323.885C437.38 323.568 434.255 323.094 431.151 322.458C428.052 321.823 424.984 321.036 421.958 320.089C418.927 319.146 415.953 318.052 413.031 316.813C410.109 315.568 407.25 314.177 404.458 312.646C401.672 311.115 398.958 309.443 396.328 307.641C393.698 305.833 391.161 303.901 388.714 301.839C386.266 299.776 383.927 297.594 381.688 295.297C379.453 293 377.328 290.594 375.323 288.083C373.312 285.568 371.432 282.964 369.672 280.26C367.917 277.557 366.292 274.771 364.802 271.906C363.307 269.042 361.958 266.104 360.745 263.104C359.536 260.099 358.469 257.042 357.552 253.932C356.635 250.823 355.865 247.672 355.25 244.484C354.63 241.297 354.167 238.083 353.859 234.849C353.547 231.615 353.391 228.375 353.391 225.125Z" fill="white"/>
</mask>
<g mask="url(#mask31_765_7333)">
<path d="M447.952 227.079L447.786 226.858L447.968 226.641L447.952 227.079Z" fill="#630810"/>
</g>
</g>
<mask id="mask32_765_7333" style="mask-type:luminance" maskUnits="userSpaceOnUse" x="424" y="201" width="48" height="50">
<path d="M424 201.333H472V250.667H424V201.333Z" fill="white"/>
</mask>
<g mask="url(#mask32_765_7333)">
<mask id="mask33_765_7333" style="mask-type:luminance" maskUnits="userSpaceOnUse" x="353" y="125" width="194" height="200">
<path d="M353.391 225.125C353.391 221.875 353.547 218.63 353.859 215.396C354.167 212.161 354.63 208.953 355.25 205.766C355.865 202.573 356.635 199.427 357.552 196.318C358.469 193.208 359.536 190.151 360.745 187.146C361.958 184.146 363.307 181.208 364.802 178.344C366.292 175.474 367.917 172.693 369.672 169.99C371.432 167.286 373.312 164.677 375.323 162.167C377.328 159.656 379.453 157.25 381.688 154.953C383.927 152.651 386.266 150.474 388.714 148.411C391.161 146.349 393.698 144.417 396.328 142.609C398.958 140.802 401.672 139.135 404.458 137.604C407.25 136.068 410.109 134.682 413.031 133.437C415.953 132.193 418.927 131.099 421.958 130.156C424.984 129.214 428.052 128.427 431.151 127.792C434.255 127.156 437.38 126.682 440.531 126.359C443.677 126.042 446.839 125.885 450 125.885C453.161 125.885 456.323 126.042 459.469 126.359C462.62 126.682 465.745 127.156 468.849 127.792C471.948 128.427 475.016 129.214 478.042 130.156C481.073 131.099 484.047 132.193 486.969 133.437C489.891 134.682 492.75 136.068 495.542 137.604C498.328 139.135 501.042 140.802 503.672 142.609C506.302 144.417 508.839 146.349 511.286 148.411C513.734 150.474 516.073 152.651 518.313 154.953C520.547 157.25 522.672 159.656 524.677 162.167C526.688 164.677 528.568 167.286 530.328 169.99C532.083 172.693 533.708 175.474 535.198 178.344C536.693 181.208 538.042 184.146 539.255 187.146C540.464 190.151 541.531 193.208 542.448 196.318C543.365 199.427 544.135 202.573 544.75 205.766C545.37 208.953 545.833 212.161 546.141 215.396C546.453 218.63 546.609 221.875 546.609 225.125C546.609 228.375 546.453 231.615 546.141 234.849C545.833 238.083 545.37 241.297 544.75 244.484C544.135 247.672 543.365 250.823 542.448 253.932C541.531 257.042 540.464 260.099 539.255 263.104C538.042 266.104 536.693 269.042 535.198 271.906C533.708 274.771 532.083 277.557 530.328 280.26C528.568 282.964 526.688 285.568 524.677 288.083C522.672 290.594 520.547 293 518.313 295.297C516.073 297.594 513.734 299.776 511.286 301.839C508.839 303.901 506.302 305.833 503.672 307.641C501.042 309.443 498.328 311.115 495.542 312.646C492.75 314.177 489.891 315.568 486.969 316.813C484.047 318.052 481.073 319.146 478.042 320.089C475.016 321.036 471.948 321.823 468.849 322.458C465.745 323.094 462.62 323.568 459.469 323.885C456.323 324.203 453.161 324.365 450 324.365C446.839 324.365 443.677 324.203 440.531 323.885C437.38 323.568 434.255 323.094 431.151 322.458C428.052 321.823 424.984 321.036 421.958 320.089C418.927 319.146 415.953 318.052 413.031 316.813C410.109 315.568 407.25 314.177 404.458 312.646C401.672 311.115 398.958 309.443 396.328 307.641C393.698 305.833 391.161 303.901 388.714 301.839C386.266 299.776 383.927 297.594 381.688 295.297C379.453 293 377.328 290.594 375.323 288.083C373.312 285.568 371.432 282.964 369.672 280.26C367.917 277.557 366.292 274.771 364.802 271.906C363.307 269.042 361.958 266.104 360.745 263.104C359.536 260.099 358.469 257.042 357.552 253.932C356.635 250.823 355.865 247.672 355.25 244.484C354.63 241.297 354.167 238.083 353.859 234.849C353.547 231.615 353.391 228.375 353.391 225.125Z" fill="white"/>
</mask>
<g mask="url(#mask33_765_7333)">
<path d="M442.755 220.182L452.323 232.88M442.755 232.875L453.141 220.453M448.224 219.365L447.948 227.198" stroke="#630810" stroke-width="3.13625" stroke-linecap="round"/>
</g>
</g>
<mask id="mask34_765_7333" style="mask-type:luminance" maskUnits="userSpaceOnUse" x="458" y="218" width="12" height="16">
<path d="M458.667 218.667H469.333V233.333H458.667V218.667Z" fill="white"/>
</mask>
<g mask="url(#mask34_765_7333)">
<mask id="mask35_765_7333" style="mask-type:luminance" maskUnits="userSpaceOnUse" x="353" y="125" width="194" height="200">
<path d="M353.391 225.125C353.391 221.875 353.547 218.63 353.859 215.396C354.167 212.161 354.63 208.953 355.25 205.766C355.865 202.573 356.635 199.427 357.552 196.318C358.469 193.208 359.536 190.151 360.745 187.146C361.958 184.146 363.307 181.208 364.802 178.344C366.292 175.474 367.917 172.693 369.672 169.99C371.432 167.286 373.312 164.677 375.323 162.167C377.328 159.656 379.453 157.25 381.688 154.953C383.927 152.651 386.266 150.474 388.714 148.411C391.161 146.349 393.698 144.417 396.328 142.609C398.958 140.802 401.672 139.135 404.458 137.604C407.25 136.068 410.109 134.682 413.031 133.437C415.953 132.193 418.927 131.099 421.958 130.156C424.984 129.214 428.052 128.427 431.151 127.792C434.255 127.156 437.38 126.682 440.531 126.359C443.677 126.042 446.839 125.885 450 125.885C453.161 125.885 456.323 126.042 459.469 126.359C462.62 126.682 465.745 127.156 468.849 127.792C471.948 128.427 475.016 129.214 478.042 130.156C481.073 131.099 484.047 132.193 486.969 133.437C489.891 134.682 492.75 136.068 495.542 137.604C498.328 139.135 501.042 140.802 503.672 142.609C506.302 144.417 508.839 146.349 511.286 148.411C513.734 150.474 516.073 152.651 518.313 154.953C520.547 157.25 522.672 159.656 524.677 162.167C526.688 164.677 528.568 167.286 530.328 169.99C532.083 172.693 533.708 175.474 535.198 178.344C536.693 181.208 538.042 184.146 539.255 187.146C540.464 190.151 541.531 193.208 542.448 196.318C543.365 199.427 544.135 202.573 544.75 205.766C545.37 208.953 545.833 212.161 546.141 215.396C546.453 218.63 546.609 221.875 546.609 225.125C546.609 228.375 546.453 231.615 546.141 234.849C545.833 238.083 545.37 241.297 544.75 244.484C544.135 247.672 543.365 250.823 542.448 253.932C541.531 257.042 540.464 260.099 539.255 263.104C538.042 266.104 536.693 269.042 535.198 271.906C533.708 274.771 532.083 277.557 530.328 280.26C528.568 282.964 526.688 285.568 524.677 288.083C522.672 290.594 520.547 293 518.313 295.297C516.073 297.594 513.734 299.776 511.286 301.839C508.839 303.901 506.302 305.833 503.672 307.641C501.042 309.443 498.328 311.115 495.542 312.646C492.75 314.177 489.891 315.568 486.969 316.813C484.047 318.052 481.073 319.146 478.042 320.089C475.016 321.036 471.948 321.823 468.849 322.458C465.745 323.094 462.62 323.568 459.469 323.885C456.323 324.203 453.161 324.365 450 324.365C446.839 324.365 443.677 324.203 440.531 323.885C437.38 323.568 434.255 323.094 431.151 322.458C428.052 321.823 424.984 321.036 421.958 320.089C418.927 319.146 415.953 318.052 413.031 316.813C410.109 315.568 407.25 314.177 404.458 312.646C401.672 311.115 398.958 309.443 396.328 307.641C393.698 305.833 391.161 303.901 388.714 301.839C386.266 299.776 383.927 297.594 381.688 295.297C379.453 293 377.328 290.594 375.323 288.083C373.312 285.568 371.432 282.964 369.672 280.26C367.917 277.557 366.292 274.771 364.802 271.906C363.307 269.042 361.958 266.104 360.745 263.104C359.536 260.099 358.469 257.042 357.552 253.932C356.635 250.823 355.865 247.672 355.25 244.484C354.63 241.297 354.167 238.083 353.859 234.849C353.547 231.615 353.391 228.375 353.391 225.125Z" fill="white"/>
</mask>
<g mask="url(#mask35_765_7333)">
<path d="M464.082 227.086L463.912 226.86L464.097 226.638L464.082 227.086Z" fill="#630810"/>
</g>
</g>
<mask id="mask36_765_7333" style="mask-type:luminance" maskUnits="userSpaceOnUse" x="440" y="201" width="48" height="50">
<path d="M440 201.333H488V250.667H440V201.333Z" fill="white"/>
</mask>
<g mask="url(#mask36_765_7333)">
<mask id="mask37_765_7333" style="mask-type:luminance" maskUnits="userSpaceOnUse" x="353" y="125" width="194" height="200">
<path d="M353.391 225.125C353.391 221.875 353.547 218.63 353.859 215.396C354.167 212.161 354.63 208.953 355.25 205.766C355.865 202.573 356.635 199.427 357.552 196.318C358.469 193.208 359.536 190.151 360.745 187.146C361.958 184.146 363.307 181.208 364.802 178.344C366.292 175.474 367.917 172.693 369.672 169.99C371.432 167.286 373.312 164.677 375.323 162.167C377.328 159.656 379.453 157.25 381.688 154.953C383.927 152.651 386.266 150.474 388.714 148.411C391.161 146.349 393.698 144.417 396.328 142.609C398.958 140.802 401.672 139.135 404.458 137.604C407.25 136.068 410.109 134.682 413.031 133.437C415.953 132.193 418.927 131.099 421.958 130.156C424.984 129.214 428.052 128.427 431.151 127.792C434.255 127.156 437.38 126.682 440.531 126.359C443.677 126.042 446.839 125.885 450 125.885C453.161 125.885 456.323 126.042 459.469 126.359C462.62 126.682 465.745 127.156 468.849 127.792C471.948 128.427 475.016 129.214 478.042 130.156C481.073 131.099 484.047 132.193 486.969 133.437C489.891 134.682 492.75 136.068 495.542 137.604C498.328 139.135 501.042 140.802 503.672 142.609C506.302 144.417 508.839 146.349 511.286 148.411C513.734 150.474 516.073 152.651 518.313 154.953C520.547 157.25 522.672 159.656 524.677 162.167C526.688 164.677 528.568 167.286 530.328 169.99C532.083 172.693 533.708 175.474 535.198 178.344C536.693 181.208 538.042 184.146 539.255 187.146C540.464 190.151 541.531 193.208 542.448 196.318C543.365 199.427 544.135 202.573 544.75 205.766C545.37 208.953 545.833 212.161 546.141 215.396C546.453 218.63 546.609 221.875 546.609 225.125C546.609 228.375 546.453 231.615 546.141 234.849C545.833 238.083 545.37 241.297 544.75 244.484C544.135 247.672 543.365 250.823 542.448 253.932C541.531 257.042 540.464 260.099 539.255 263.104C538.042 266.104 536.693 269.042 535.198 271.906C533.708 274.771 532.083 277.557 530.328 280.26C528.568 282.964 526.688 285.568 524.677 288.083C522.672 290.594 520.547 293 518.313 295.297C516.073 297.594 513.734 299.776 511.286 301.839C508.839 303.901 506.302 305.833 503.672 307.641C501.042 309.443 498.328 311.115 495.542 312.646C492.75 314.177 489.891 315.568 486.969 316.813C484.047 318.052 481.073 319.146 478.042 320.089C475.016 321.036 471.948 321.823 468.849 322.458C465.745 323.094 462.62 323.568 459.469 323.885C456.323 324.203 453.161 324.365 450 324.365C446.839 324.365 443.677 324.203 440.531 323.885C437.38 323.568 434.255 323.094 431.151 322.458C428.052 321.823 424.984 321.036 421.958 320.089C418.927 319.146 415.953 318.052 413.031 316.813C410.109 315.568 407.25 314.177 404.458 312.646C401.672 311.115 398.958 309.443 396.328 307.641C393.698 305.833 391.161 303.901 388.714 301.839C386.266 299.776 383.927 297.594 381.688 295.297C379.453 293 377.328 290.594 375.323 288.083C373.312 285.568 371.432 282.964 369.672 280.26C367.917 277.557 366.292 274.771 364.802 271.906C363.307 269.042 361.958 266.104 360.745 263.104C359.536 260.099 358.469 257.042 357.552 253.932C356.635 250.823 355.865 247.672 355.25 244.484C354.63 241.297 354.167 238.083 353.859 234.849C353.547 231.615 353.391 228.375 353.391 225.125Z" fill="white"/>
</mask>
<g mask="url(#mask37_765_7333)">
<path d="M458.88 220.182L468.448 232.88M458.88 232.875L469.271 220.453M464.349 219.365L464.078 227.198" stroke="#630810" stroke-width="3.13625" stroke-linecap="round"/>
</g>
</g>
<mask id="mask38_765_7333" style="mask-type:luminance" maskUnits="userSpaceOnUse" x="473" y="218" width="13" height="16">
<path d="M473.333 218.667H485.333V233.333H473.333V218.667Z" fill="white"/>
</mask>
<g mask="url(#mask38_765_7333)">
<mask id="mask39_765_7333" style="mask-type:luminance" maskUnits="userSpaceOnUse" x="353" y="125" width="194" height="200">
<path d="M353.391 225.125C353.391 221.875 353.547 218.63 353.859 215.396C354.167 212.161 354.63 208.953 355.25 205.766C355.865 202.573 356.635 199.427 357.552 196.318C358.469 193.208 359.536 190.151 360.745 187.146C361.958 184.146 363.307 181.208 364.802 178.344C366.292 175.474 367.917 172.693 369.672 169.99C371.432 167.286 373.312 164.677 375.323 162.167C377.328 159.656 379.453 157.25 381.688 154.953C383.927 152.651 386.266 150.474 388.714 148.411C391.161 146.349 393.698 144.417 396.328 142.609C398.958 140.802 401.672 139.135 404.458 137.604C407.25 136.068 410.109 134.682 413.031 133.437C415.953 132.193 418.927 131.099 421.958 130.156C424.984 129.214 428.052 128.427 431.151 127.792C434.255 127.156 437.38 126.682 440.531 126.359C443.677 126.042 446.839 125.885 450 125.885C453.161 125.885 456.323 126.042 459.469 126.359C462.62 126.682 465.745 127.156 468.849 127.792C471.948 128.427 475.016 129.214 478.042 130.156C481.073 131.099 484.047 132.193 486.969 133.437C489.891 134.682 492.75 136.068 495.542 137.604C498.328 139.135 501.042 140.802 503.672 142.609C506.302 144.417 508.839 146.349 511.286 148.411C513.734 150.474 516.073 152.651 518.313 154.953C520.547 157.25 522.672 159.656 524.677 162.167C526.688 164.677 528.568 167.286 530.328 169.99C532.083 172.693 533.708 175.474 535.198 178.344C536.693 181.208 538.042 184.146 539.255 187.146C540.464 190.151 541.531 193.208 542.448 196.318C543.365 199.427 544.135 202.573 544.75 205.766C545.37 208.953 545.833 212.161 546.141 215.396C546.453 218.63 546.609 221.875 546.609 225.125C546.609 228.375 546.453 231.615 546.141 234.849C545.833 238.083 545.37 241.297 544.75 244.484C544.135 247.672 543.365 250.823 542.448 253.932C541.531 257.042 540.464 260.099 539.255 263.104C538.042 266.104 536.693 269.042 535.198 271.906C533.708 274.771 532.083 277.557 530.328 280.26C528.568 282.964 526.688 285.568 524.677 288.083C522.672 290.594 520.547 293 518.313 295.297C516.073 297.594 513.734 299.776 511.286 301.839C508.839 303.901 506.302 305.833 503.672 307.641C501.042 309.443 498.328 311.115 495.542 312.646C492.75 314.177 489.891 315.568 486.969 316.813C484.047 318.052 481.073 319.146 478.042 320.089C475.016 321.036 471.948 321.823 468.849 322.458C465.745 323.094 462.62 323.568 459.469 323.885C456.323 324.203 453.161 324.365 450 324.365C446.839 324.365 443.677 324.203 440.531 323.885C437.38 323.568 434.255 323.094 431.151 322.458C428.052 321.823 424.984 321.036 421.958 320.089C418.927 319.146 415.953 318.052 413.031 316.813C410.109 315.568 407.25 314.177 404.458 312.646C401.672 311.115 398.958 309.443 396.328 307.641C393.698 305.833 391.161 303.901 388.714 301.839C386.266 299.776 383.927 297.594 381.688 295.297C379.453 293 377.328 290.594 375.323 288.083C373.312 285.568 371.432 282.964 369.672 280.26C367.917 277.557 366.292 274.771 364.802 271.906C363.307 269.042 361.958 266.104 360.745 263.104C359.536 260.099 358.469 257.042 357.552 253.932C356.635 250.823 355.865 247.672 355.25 244.484C354.63 241.297 354.167 238.083 353.859 234.849C353.547 231.615 353.391 228.375 353.391 225.125Z" fill="white"/>
</mask>
<g mask="url(#mask39_765_7333)">
<path d="M479.66 227.079L479.494 226.858L479.676 226.641L479.66 227.079Z" fill="#630810"/>
</g>
</g>
<mask id="mask40_765_7333" style="mask-type:luminance" maskUnits="userSpaceOnUse" x="456" y="201" width="47" height="50">
<path d="M456 201.333H502.667V250.667H456V201.333Z" fill="white"/>
</mask>
<g mask="url(#mask40_765_7333)">
<mask id="mask41_765_7333" style="mask-type:luminance" maskUnits="userSpaceOnUse" x="353" y="125" width="194" height="200">
<path d="M353.391 225.125C353.391 221.875 353.547 218.63 353.859 215.396C354.167 212.161 354.63 208.953 355.25 205.766C355.865 202.573 356.635 199.427 357.552 196.318C358.469 193.208 359.536 190.151 360.745 187.146C361.958 184.146 363.307 181.208 364.802 178.344C366.292 175.474 367.917 172.693 369.672 169.99C371.432 167.286 373.312 164.677 375.323 162.167C377.328 159.656 379.453 157.25 381.688 154.953C383.927 152.651 386.266 150.474 388.714 148.411C391.161 146.349 393.698 144.417 396.328 142.609C398.958 140.802 401.672 139.135 404.458 137.604C407.25 136.068 410.109 134.682 413.031 133.437C415.953 132.193 418.927 131.099 421.958 130.156C424.984 129.214 428.052 128.427 431.151 127.792C434.255 127.156 437.38 126.682 440.531 126.359C443.677 126.042 446.839 125.885 450 125.885C453.161 125.885 456.323 126.042 459.469 126.359C462.62 126.682 465.745 127.156 468.849 127.792C471.948 128.427 475.016 129.214 478.042 130.156C481.073 131.099 484.047 132.193 486.969 133.437C489.891 134.682 492.75 136.068 495.542 137.604C498.328 139.135 501.042 140.802 503.672 142.609C506.302 144.417 508.839 146.349 511.286 148.411C513.734 150.474 516.073 152.651 518.313 154.953C520.547 157.25 522.672 159.656 524.677 162.167C526.688 164.677 528.568 167.286 530.328 169.99C532.083 172.693 533.708 175.474 535.198 178.344C536.693 181.208 538.042 184.146 539.255 187.146C540.464 190.151 541.531 193.208 542.448 196.318C543.365 199.427 544.135 202.573 544.75 205.766C545.37 208.953 545.833 212.161 546.141 215.396C546.453 218.63 546.609 221.875 546.609 225.125C546.609 228.375 546.453 231.615 546.141 234.849C545.833 238.083 545.37 241.297 544.75 244.484C544.135 247.672 543.365 250.823 542.448 253.932C541.531 257.042 540.464 260.099 539.255 263.104C538.042 266.104 536.693 269.042 535.198 271.906C533.708 274.771 532.083 277.557 530.328 280.26C528.568 282.964 526.688 285.568 524.677 288.083C522.672 290.594 520.547 293 518.313 295.297C516.073 297.594 513.734 299.776 511.286 301.839C508.839 303.901 506.302 305.833 503.672 307.641C501.042 309.443 498.328 311.115 495.542 312.646C492.75 314.177 489.891 315.568 486.969 316.813C484.047 318.052 481.073 319.146 478.042 320.089C475.016 321.036 471.948 321.823 468.849 322.458C465.745 323.094 462.62 323.568 459.469 323.885C456.323 324.203 453.161 324.365 450 324.365C446.839 324.365 443.677 324.203 440.531 323.885C437.38 323.568 434.255 323.094 431.151 322.458C428.052 321.823 424.984 321.036 421.958 320.089C418.927 319.146 415.953 318.052 413.031 316.813C410.109 315.568 407.25 314.177 404.458 312.646C401.672 311.115 398.958 309.443 396.328 307.641C393.698 305.833 391.161 303.901 388.714 301.839C386.266 299.776 383.927 297.594 381.688 295.297C379.453 293 377.328 290.594 375.323 288.083C373.312 285.568 371.432 282.964 369.672 280.26C367.917 277.557 366.292 274.771 364.802 271.906C363.307 269.042 361.958 266.104 360.745 263.104C359.536 260.099 358.469 257.042 357.552 253.932C356.635 250.823 355.865 247.672 355.25 244.484C354.63 241.297 354.167 238.083 353.859 234.849C353.547 231.615 353.391 228.375 353.391 225.125Z" fill="white"/>
</mask>
<g mask="url(#mask41_765_7333)">
<path d="M474.464 220.182L484.031 232.88M474.464 232.875L484.849 220.453M479.932 219.365L479.656 227.198" stroke="#630810" stroke-width="3.13625" stroke-linecap="round"/>
</g>
</g>
</g>
</g>
<defs>
<clipPath id="clip0_765_7333">
<rect width="900" height="450" fill="white"/>
</clipPath>
</defs>
</svg>
