<svg width="900" height="450" viewBox="0 0 900 450" fill="none" xmlns="http://www.w3.org/2000/svg">
<rect width="900" height="450" fill="#1E1E1E"/>
<rect width="900" height="450" fill="white"/>
<path d="M900 0H0V450H900V0Z" fill="black"/>
<path d="M0 0H900V450L0 0Z" fill="#CE1126"/>
<path d="M616.676 129.307C612.252 135.031 601.783 123.55 589.242 123.288C576.7 123.025 567.816 135.326 564.158 139.514C560.501 143.702 548.743 165.686 549.004 168.042C549.265 170.397 556.321 161.499 558.933 159.929C559.194 163.069 556.059 166.733 556.843 167.78C557.627 168.827 565.987 161.499 568.861 161.237C569.645 163.331 567.294 165.425 568.078 168.565C569.123 169.612 573.826 163.331 576.962 162.023C577.484 164.378 574.087 168.827 575.916 171.706C577.223 171.967 585.061 162.808 587.674 161.76C590.287 160.713 586.367 170.397 587.674 171.182C590.025 169.612 597.342 161.237 599.693 160.19C602.045 159.143 599.432 170.921 600.477 170.921C603.351 168.827 610.667 158.882 611.451 157.312C612.235 155.741 610.667 172.491 618.767 181.39C626.866 190.289 639.148 200.495 640.453 200.495C642.021 197.616 639.931 191.597 641.237 191.858C644.895 195.784 651.688 201.542 653.256 201.542C654.824 201.542 652.21 195.261 654.301 195.261C658.482 199.186 670.501 214.628 694.016 221.694C692.448 217.245 689.051 213.319 688.79 211.226C690.358 211.487 695.846 214.105 696.89 213.843C697.935 213.581 685.394 198.14 686.178 196.046C689.052 195.784 690.359 197.616 691.404 196.307C690.097 194.214 679.123 181.913 679.123 179.034C679.123 176.155 682.52 179.557 683.565 179.034C684.61 178.51 679.385 167.518 680.43 166.21C681.475 164.902 692.97 173.276 695.845 173.276C698.719 173.276 696.629 163.069 697.935 162.545C699.242 162.022 708.91 168.042 711 168.042C713.089 168.042 712.828 163.592 713.612 164.116C714.396 164.639 737.128 187.409 729.289 214.104C721.451 233.21 705.775 243.417 682.781 235.042C684.087 237.136 696.368 247.343 709.693 243.679C723.018 240.014 739.217 229.546 737.389 203.374C735.56 177.203 726.937 173.538 725.631 169.613C724.325 165.687 727.722 170.659 730.596 171.707C733.47 172.754 730.073 166.21 729.289 163.331C728.505 160.451 737.912 169.35 740.263 170.136C742.615 170.921 734.776 148.675 732.425 147.105C730.073 145.534 734.776 147.627 736.344 148.151C737.912 148.675 721.973 123.811 718.576 123.811C715.18 123.811 721.45 122.502 723.279 122.502C725.109 122.502 704.991 106.276 701.594 106.276C698.196 106.276 708.908 102.088 709.954 101.826C711.784 102.088 686.7 88.4785 664.23 102.088C662.923 101.042 674.813 92.7977 675.204 89.2645C675.335 88.3482 671.285 86.3853 671.023 85.3387C670.762 84.2921 677.294 81.1515 677.555 78.796C675.988 76.702 673.113 77.4871 671.546 76.9642C671.154 75.0013 677.033 70.1593 676.51 68.066C676.118 66.8883 671.807 66.4957 670.762 67.2809C669.717 68.066 673.506 61.7848 672.852 59.953C672.33 59.1679 670.24 59.6916 668.149 60.2145C666.842 59.953 674.943 48.6986 673.375 47.1283C671.807 45.558 649.859 58.6434 641.759 73.2999C633.66 87.9564 639.931 99.7337 638.886 104.706C637.84 109.679 636.533 114.652 633.137 114.652C629.741 114.652 621.903 109.417 619.29 106.8C616.676 104.183 616.154 102.351 612.496 101.304C608.838 100.257 600.477 103.398 597.342 103.66C594.206 103.921 581.926 101.304 581.142 102.089C580.358 102.874 593.161 107.585 596.035 109.156C598.91 110.726 599.171 112.82 601.261 114.128C603.351 115.436 622.947 121.194 616.676 129.307ZM693.232 166.21C699.503 172.491 741.831 200.757 741.831 235.304C741.831 269.85 710.999 268.805 702.116 267.757C712.045 276.132 749.669 274.561 749.669 235.304C749.669 200.757 701.071 166.21 694.8 163.069C688.529 159.929 686.961 159.929 693.232 166.21Z" fill="#FCD116"/>
<path d="M218.53 325.593L227.464 296.803L236.399 325.906L212.872 308.069H242.056L218.53 325.593Z" fill="white"/>
<path d="M196.819 138.013L178.952 195.592L226.004 160.544H167.635L214.687 196.219L196.819 138.013Z" fill="white"/>
<path d="M128.184 225.906L110.316 283.486L157.368 248.438H99L146.052 284.113L128.184 225.906Z" fill="white"/>
<path d="M265.129 219.656L247.261 277.236L294.313 242.188H235.945L282.997 277.863L265.129 219.656Z" fill="white"/>
<path d="M196.819 344.656L178.952 402.236L226.004 367.187H167.635L214.687 402.862L196.819 344.656Z" fill="white"/>
</svg>
