<svg width="900" height="450" viewBox="0 0 900 450" fill="none" xmlns="http://www.w3.org/2000/svg">
<rect width="900" height="450" fill="#1E1E1E"/>
<g clip-path="url(#clip0_0_1)">
<mask id="mask0_0_1" style="mask-type:luminance" maskUnits="userSpaceOnUse" x="0" y="0" width="900" height="225">
<path d="M0 -3.37219e-06H900V224.667H0V-3.37219e-06Z" fill="white"/>
</mask>
<g mask="url(#mask0_0_1)">
<path fill-rule="evenodd" clip-rule="evenodd" d="M900 224.667H0V-3.37219e-06H900V224.667Z" fill="#0038A8"/>
</g>
<mask id="mask1_0_1" style="mask-type:luminance" maskUnits="userSpaceOnUse" x="0" y="224" width="900" height="226">
<path d="M0 224.667H900V449.333H0V224.667Z" fill="white"/>
</mask>
<g mask="url(#mask1_0_1)">
<path fill-rule="evenodd" clip-rule="evenodd" d="M0 449.333L0 224.667H900V449.333H0Z" fill="#CE1126"/>
</g>
<mask id="mask2_0_1" style="mask-type:luminance" maskUnits="userSpaceOnUse" x="-1" y="0" width="391" height="450">
<path d="M-0.3 -3.37219e-06H389.7V449.333H-0.3V-3.37219e-06Z" fill="white"/>
</mask>
<g mask="url(#mask2_0_1)">
<path fill-rule="evenodd" clip-rule="evenodd" d="M25.7885 56.5104L10.5073 65.7552L28.2365 67.974L32.325 85.3594L39.924 69.1979L57.726 70.6875L44.7 58.5L51.6167 42.0312L35.9917 50.625L22.4292 38.9323L25.7885 56.5104ZM51.6167 407.344L44.7 390.875L57.726 378.688L39.924 380.177L32.325 364.016L28.2365 381.401L10.5073 383.615L25.7885 392.865L22.4292 410.438L35.9917 398.745L51.6167 407.344ZM133.867 135.677L136.768 179.849C135.471 179.953 134.486 180.052 133.825 180.156L128.518 139.807L123.778 144.583L130.96 180.615C125.054 181.813 119.653 184.052 114.763 187.339L94.4031 156.771H87.6375L112.393 189.057C111.174 190.047 110.419 190.661 110.143 190.891L80.9552 157.609H72.6688V165.865L105.976 195.057C105.138 196.047 104.513 196.813 104.106 197.349L71.8615 172.589V179.313L102.388 199.719C99.075 204.708 96.8458 210.109 95.7 215.917L59.6375 208.734L54.9031 213.51L95.2052 218.823L94.8979 221.76L50.7365 218.859L44.8927 224.667L50.7365 230.51L94.8979 227.609L95.2052 230.552L54.9031 235.859L59.6375 240.599L95.7 233.453C96.8458 239.266 99.075 244.661 102.388 249.656L71.8615 270.057V276.781L104.106 252.026C104.513 252.557 105.138 253.323 105.976 254.318L72.6688 283.51V291.76H80.9552L110.143 258.484C110.419 258.714 111.174 259.323 112.393 260.313L87.6375 292.599H94.4031L114.763 262.036C119.809 265.396 125.205 267.641 130.96 268.76L123.778 304.792L128.518 309.568L133.825 269.219C134.486 269.323 135.471 269.422 136.768 269.526L133.867 313.693L139.71 319.536L145.554 313.693L142.653 269.526C143.95 269.422 144.919 269.323 145.554 269.219L150.867 309.568L155.643 304.792L148.497 268.76C154.434 267.563 159.83 265.323 164.695 262.036L185.096 292.599H191.82L167.065 260.313L169.315 258.484L198.539 291.76H206.752V283.51L173.481 254.318C174.346 253.323 174.971 252.557 175.356 252.026L207.632 276.781V270.057L177.033 249.656C180.393 244.688 182.653 239.286 183.799 233.453L219.82 240.599L224.596 235.859L184.294 230.552C184.419 229.25 184.497 228.271 184.523 227.609L228.721 230.51L234.57 224.667L228.721 218.859L184.523 221.76C184.497 221.099 184.419 220.12 184.294 218.823L224.596 213.51L219.82 208.734L183.799 215.917C182.653 210.109 180.408 204.708 177.075 199.719L207.632 179.313V172.589L175.356 197.349C174.971 196.813 174.346 196.047 173.481 195.057L206.752 165.865V157.609H198.539L169.315 190.891L167.065 189.057L191.82 156.771H185.096L164.658 187.339C159.768 184.052 154.382 181.813 148.497 180.615L155.643 144.583L150.867 139.807L145.554 180.156C144.919 180.052 143.95 179.953 142.653 179.849L145.554 135.677L139.71 129.833L133.867 135.677ZM327.21 218.823L326.825 200.938L316.054 215.193L298.94 210.036L309.138 224.667L298.94 239.339L316.054 234.182L326.825 248.432L327.21 230.552L344.091 224.667L327.21 218.823ZM389.018 224.667L-0.0343747 449.333V-3.37219e-06L389.018 224.667Z" fill="white"/>
</g>
<path fill-rule="evenodd" clip-rule="evenodd" d="M51.6094 407.344L35.9844 398.745L22.4219 410.438L25.7813 392.865L10.5 383.615L28.2292 381.401L32.3177 364.016L39.9167 380.177L57.7188 378.688L44.6927 390.875L51.6094 407.344ZM25.7813 56.5104L22.4219 38.9323L35.9844 50.625L51.6094 42.0312L44.6927 58.5L57.7188 70.6875L39.9167 69.1979L32.3177 85.3594L28.2292 67.974L10.5 65.7552L25.7813 56.5104ZM133.859 135.677L139.703 129.833L145.547 135.677L142.646 179.849C143.943 179.953 144.911 180.052 145.547 180.156L150.859 139.807L155.635 144.583L148.49 180.615C154.375 181.813 159.76 184.052 164.651 187.339L185.089 156.771H191.813L167.057 189.057L169.307 190.891L198.531 157.609H206.745V165.865L173.474 195.057C174.339 196.047 174.964 196.813 175.349 197.349L207.625 172.589V179.313L177.068 199.719C180.401 204.708 182.646 210.109 183.792 215.917L219.813 208.734L224.589 213.51L184.286 218.823C184.411 220.12 184.49 221.099 184.516 221.76L228.714 218.859L234.563 224.667L228.714 230.51L184.516 227.609C184.49 228.271 184.411 229.25 184.286 230.552L224.589 235.859L219.813 240.599L183.792 233.453C182.646 239.286 180.385 244.688 177.026 249.656L207.625 270.057V276.781L175.349 252.026C174.964 252.557 174.339 253.323 173.474 254.318L206.745 283.51V291.76H198.531L169.307 258.484L167.057 260.313L191.813 292.599H185.089L164.688 262.036C159.823 265.323 154.427 267.563 148.49 268.76L155.635 304.792L150.859 309.568L145.547 269.219C144.911 269.323 143.943 269.422 142.646 269.526L145.547 313.693L139.703 319.536L133.859 313.693L136.76 269.526C135.464 269.422 134.479 269.323 133.818 269.219L128.51 309.568L123.771 304.792L130.953 268.76C125.198 267.641 119.802 265.396 114.755 262.036L94.3958 292.599H87.6302L112.385 260.313C111.167 259.323 110.411 258.714 110.135 258.484L80.9479 291.76H72.6615V283.51L105.969 254.318C105.13 253.323 104.505 252.557 104.099 252.026L71.8542 276.781V270.057L102.38 249.656C99.0677 244.661 96.8385 239.266 95.6927 233.453L59.6302 240.599L54.8958 235.859L95.1979 230.552L94.8906 227.609L50.7292 230.51L44.8854 224.667L50.7292 218.859L94.8906 221.76L95.1979 218.823L54.8958 213.51L59.6302 208.734L95.6927 215.917C96.8385 210.109 99.0677 204.708 102.38 199.719L71.8542 179.313V172.589L104.099 197.349C104.505 196.813 105.13 196.047 105.969 195.057L72.6615 165.865V157.609H80.9479L110.135 190.891C110.411 190.661 111.167 190.047 112.385 189.057L87.6302 156.771H94.3958L114.755 187.339C119.646 184.052 125.047 181.813 130.953 180.615L123.771 144.583L128.51 139.807L133.818 180.156C134.479 180.052 135.464 179.953 136.76 179.849L133.859 135.677ZM327.203 218.823L344.083 224.667L327.203 230.552L326.818 248.432L316.047 234.182L298.932 239.339L309.13 224.667L298.932 210.036L316.047 215.193L326.818 200.938L327.203 218.823Z" fill="#FCD116"/>
</g>
<defs>
<clipPath id="clip0_0_1">
<rect width="900" height="450" fill="white"/>
</clipPath>
</defs>
</svg>
