<svg width="900" height="450" viewBox="0 0 900 450" fill="none" xmlns="http://www.w3.org/2000/svg">
<rect width="900" height="450" fill="#1E1E1E"/>
<g clip-path="url(#clip0_0_1)">
<mask id="mask0_0_1" style="mask-type:luminance" maskUnits="userSpaceOnUse" x="0" y="0" width="899" height="450">
<path d="M0 -3.37219e-06H898.667V449.333H0V-3.37219e-06Z" fill="white"/>
</mask>
<g mask="url(#mask0_0_1)">
<path d="M0 -3.37219e-06H898.667V449.333H0V-3.37219e-06Z" fill="white"/>
<path d="M0 -3.37219e-06H898.667V449.333H0V-3.37219e-06Z" fill="white"/>
<path d="M0 -3.37219e-06H898.667V449.333H0V-3.37219e-06Z" fill="#012169"/>
</g>
<mask id="mask1_0_1" style="mask-type:luminance" maskUnits="userSpaceOnUse" x="0" y="0" width="450" height="226">
<path d="M0 -3.37219e-06H450V225.333H0V-3.37219e-06Z" fill="white"/>
</mask>
<g mask="url(#mask1_0_1)">
<path d="M0 -3.37219e-06L449.333 224.667ZM449.333 -3.37219e-06L0 224.667Z" fill="black"/>
</g>
<mask id="mask2_0_1" style="mask-type:luminance" maskUnits="userSpaceOnUse" x="0" y="0" width="705" height="450">
<path d="M0 -3.37219e-06H704.667V449.333H0V-3.37219e-06Z" fill="white"/>
</mask>
<g mask="url(#mask2_0_1)">
<path d="M-0.00098002 -3.37219e-06L449.332 224.667M449.332 -3.37219e-06L-0.00098002 224.667" stroke="white" stroke-width="44.9334"/>
</g>
<mask id="mask3_0_1" style="mask-type:luminance" maskUnits="userSpaceOnUse" x="0" y="0" width="450" height="226">
<path d="M0 -3.37219e-06H450V225.333H0V-3.37219e-06Z" fill="white"/>
</mask>
<g mask="url(#mask3_0_1)">
<mask id="mask4_0_1" style="mask-type:luminance" maskUnits="userSpaceOnUse" x="0" y="0" width="525" height="300">
<path d="M0 -3.37219e-06V112.333H524.224V224.667H449.333L0 -3.37219e-06ZM449.333 -3.37219e-06H224.667V299.557H0V224.667L449.333 -3.37219e-06Z" fill="white"/>
</mask>
<g mask="url(#mask4_0_1)">
<path d="M0 -3.37219e-06L449.333 224.667ZM449.333 -3.37219e-06L0 224.667Z" fill="black"/>
</g>
</g>
<mask id="mask5_0_1" style="mask-type:luminance" maskUnits="userSpaceOnUse" x="0" y="0" width="525" height="300">
<path d="M0 -3.37219e-06H524.224V299.557H0V-3.37219e-06Z" fill="white"/>
</mask>
<g mask="url(#mask5_0_1)">
<mask id="mask6_0_1" style="mask-type:luminance" maskUnits="userSpaceOnUse" x="0" y="0" width="525" height="300">
<path d="M0 -3.37219e-06V112.333H524.224V224.667H449.333L0 -3.37219e-06ZM449.333 -3.37219e-06H224.667V299.557H0V224.667L449.333 -3.37219e-06Z" fill="white"/>
</mask>
<g mask="url(#mask6_0_1)">
<path d="M-4.76837e-07 -3.37219e-06L449.333 224.667M449.333 -3.37219e-06L-4.76837e-07 224.667" stroke="#C8102E" stroke-width="29.9556"/>
</g>
</g>
<mask id="mask7_0_1" style="mask-type:luminance" maskUnits="userSpaceOnUse" x="0" y="0" width="525" height="300">
<path d="M0 -3.37219e-06H524.667V300H0V-3.37219e-06Z" fill="white"/>
</mask>
<g mask="url(#mask7_0_1)">
<path d="M224.667 -3.37219e-06V299.557ZM0 112.333H524.224Z" fill="black"/>
</g>
<mask id="mask8_0_1" style="mask-type:luminance" maskUnits="userSpaceOnUse" x="0" y="0" width="562" height="338">
<path d="M0 -3.37219e-06H562V337.333H0V-3.37219e-06Z" fill="white"/>
</mask>
<g mask="url(#mask8_0_1)">
<path d="M224.666 -3.37219e-06V299.557M-0.00098002 112.333H524.223" stroke="white" stroke-width="74.8891"/>
</g>
<mask id="mask9_0_1" style="mask-type:luminance" maskUnits="userSpaceOnUse" x="0" y="0" width="525" height="300">
<path d="M0 -3.37219e-06H524.667V300H0V-3.37219e-06Z" fill="white"/>
</mask>
<g mask="url(#mask9_0_1)">
<path d="M224.667 -3.37219e-06V299.557ZM0 112.333H524.224Z" fill="black"/>
</g>
<mask id="mask10_0_1" style="mask-type:luminance" maskUnits="userSpaceOnUse" x="0" y="0" width="548" height="323">
<path d="M0 -3.37219e-06H547.333V322.667H0V-3.37219e-06Z" fill="white"/>
</mask>
<g mask="url(#mask10_0_1)">
<path d="M224.666 -3.37219e-06V299.557M-0.00098002 112.333H524.223" stroke="#C8102E" stroke-width="44.9334"/>
</g>
<mask id="mask11_0_1" style="mask-type:luminance" maskUnits="userSpaceOnUse" x="0" y="0" width="900" height="450">
<path d="M0 -3.37219e-06H900V450H0V-3.37219e-06Z" fill="white"/>
</mask>
<g mask="url(#mask11_0_1)">
<path d="M450 -3.37219e-06V225H0V450H900V-3.37219e-06H450Z" fill="#012169"/>
</g>
<path d="M600.318 238.266C590.729 246.385 581.594 258.25 579.349 268.974C573.026 299.135 564.641 305.849 551.698 299.375C551.698 315.583 565.896 316.812 572.13 307.344C572.13 322.531 577.641 335.714 590.073 346.948C595.313 351.677 596.302 348.443 593.818 343.203C591.328 337.958 591.328 321.036 586.359 311.328C594.328 317.052 606.036 313.813 605.052 298.12C594.833 304.109 584.682 303.87 583.63 289.641C582.344 272.953 588.844 248.724 600.318 238.266ZM588.188 118.297C588.875 112.302 587.589 106.161 583.214 102.297C574.766 94.8698 566.495 97.3281 560.328 103.318C551.099 98.3438 546.219 115.99 535.76 113.021C537.5 118.745 540.255 121.229 545.469 119.255C539.984 124.224 545.469 130.219 539 136.177C550.708 139.922 556.943 133.453 556.432 122.219C560.927 126.203 567.875 125.964 571.62 121.469C565.391 119.464 565.359 114.073 567.875 109.01C571.62 101.552 589.172 101.849 588.188 118.297Z" fill="#F7E017" stroke="black" stroke-width="0.449334"/>
<path d="M615.203 204.958C601.995 211.938 577.849 208.943 575.604 191.745C573.359 174.552 590.042 166.823 594.536 164.604C601.516 161.099 606.995 167.333 604.75 174.583C605.156 174.443 605.552 174.276 605.943 174.094C606.328 173.906 606.703 173.698 607.068 173.474C607.432 173.245 607.781 172.995 608.12 172.724C608.453 172.458 608.776 172.172 609.078 171.865C609.38 171.563 609.667 171.24 609.932 170.901C610.198 170.568 610.443 170.214 610.672 169.849C610.896 169.484 611.099 169.104 611.281 168.719C611.469 168.328 611.625 167.932 611.766 167.521C611.901 167.115 612.016 166.703 612.104 166.281C612.198 165.859 612.266 165.437 612.307 165.01C612.349 164.583 612.365 164.151 612.359 163.724C612.349 163.292 612.318 162.865 612.266 162.437C612.208 162.016 612.13 161.594 612.026 161.177C611.922 160.755 611.792 160.349 611.641 159.948C611.49 159.542 611.318 159.151 611.12 158.766C610.927 158.385 610.708 158.016 610.474 157.656C620.687 158.406 630.151 150.677 634.135 139.714C630.542 143.13 620.776 140.823 612.75 140.313C615.234 137.589 615.203 132.255 614.458 129.5C606.01 138.187 593.786 134.203 577.609 159.365C580.099 150.646 584.828 133.214 587.589 121.74C587.854 120.599 588.068 119.464 588.214 118.297C589.172 101.849 571.651 101.552 567.906 109.036C572.01 113.651 569.854 119.042 568.385 127.224C566.646 136.927 562.901 159.365 559.667 166.823C558.677 155.109 550.948 154.359 549.453 148.641C547.208 150.135 545.979 154.12 546.458 156.849C543.703 153.854 534.234 157.599 530.76 153.104C527.016 160.563 533.005 168.052 539.24 171.286C535.615 171.526 534.745 175.901 530.76 175.901C536.12 182.13 541.604 184.615 547.953 185.125C554.307 185.635 559.036 188 562.901 195.698C569.135 208.193 592.859 216.281 615.203 204.958Z" fill="#337321" stroke="black" stroke-width="0.449334"/>
<path d="M648.099 189.74C640.635 210.406 620.208 225.115 610.979 227.365C595.286 231.167 563.292 246.714 554.724 254.714C553.453 254.464 552.276 253.984 551.187 253.276C546.969 250.281 543.464 240.573 550.948 232.333C574.375 210.406 599.536 219.875 615.234 204.927C602.026 211.906 577.88 208.911 575.635 191.714C578.302 192.411 581.005 192.922 583.745 193.245C586.484 193.573 589.234 193.708 591.99 193.661C594.75 193.615 597.49 193.38 600.219 192.958C602.943 192.536 605.625 191.932 608.271 191.146C610.911 190.359 613.49 189.396 616.005 188.255C618.516 187.12 620.943 185.818 623.276 184.349C625.609 182.88 627.833 181.26 629.948 179.49C632.062 177.719 634.047 175.812 635.906 173.771C638.63 176.797 646.599 186.266 648.099 189.74Z" fill="#F7E017" stroke="black" stroke-width="0.449334"/>
<path d="M600.318 238.266C588.484 248.302 582.344 272.953 583.604 289.641C583.964 294.286 585.25 297.427 587.229 299.349C588.094 289.88 594.688 265.406 611.49 254.505C625.688 245.276 647.859 224.609 656.094 200.943C655.313 198.766 654.172 196.797 652.667 195.036C651.167 193.281 649.406 191.844 647.375 190.729C639.198 213.073 617.359 223.797 600.318 238.266Z" fill="#337321" stroke="black" stroke-width="0.449334"/>
<path d="M640.49 180.151C637.557 184.234 634.141 187.849 630.229 191C626.318 194.156 622.063 196.729 617.453 198.724C619.224 196.557 620.135 194.068 620.177 191.266C608.464 195.76 585.042 195.25 575.573 191.776C578.245 192.469 580.948 192.979 583.688 193.307C586.427 193.63 589.172 193.771 591.932 193.724C594.688 193.672 597.432 193.438 600.156 193.016C602.88 192.594 605.568 191.99 608.208 191.203C610.854 190.417 613.432 189.453 615.943 188.318C618.458 187.177 620.88 185.875 623.214 184.406C625.552 182.943 627.776 181.323 629.891 179.552C632.005 177.781 633.99 175.875 635.844 173.833C637.88 176.047 639.62 178.026 640.49 180.151Z" fill="#316D3A" stroke="black" stroke-width="0.449334"/>
<path d="M550.948 232.333C531.901 250.161 544.479 265.708 551.937 269.214C549.964 281.672 561.646 280.177 561.406 290.63C566.135 287.901 567.396 280.656 566.646 274.932C572.641 281.401 587.828 274.182 591.062 286.135C593.068 272.927 582.854 259.745 570.151 260.974C575.396 256.24 572.401 248.51 567.427 246.536C566.438 256.24 555.474 256.24 551.219 253.276C546.969 250.281 543.464 240.573 550.948 232.333Z" fill="#337321" stroke="black" stroke-width="0.449334"/>
<path d="M592.172 345.688C590.104 346.885 590.25 349.552 591.542 351.292C594.146 354.766 589.682 362.672 598.13 364.38C600.615 364.891 602.536 363.359 603.495 360.516C606.099 352.667 597.771 351.797 597.021 348.052C596.271 344.313 593.906 344.698 592.172 345.688Z" fill="#F7E017" stroke="black" stroke-width="0.449334"/>
<path d="M599.271 360.396C596.484 361.682 594.026 363.51 595.167 372.469C595.615 376.182 595.406 385.172 592.172 385.292C594.146 386.276 598.401 387.354 600.135 385.052C601.812 387.865 605.62 387.057 607.12 383.552C609.094 385.172 611.849 382.443 611.849 380.078C613.589 381.187 617.094 379.568 616.193 374.234C618.323 374.984 621.047 373.484 622.036 372.109C618.922 371.479 611.073 367.255 609.214 363.901C607.359 360.516 602.505 358.896 599.271 360.396Z" fill="#F7E017" stroke="black" stroke-width="0.449334"/>
<path d="M556.104 108.437C557.359 106.583 558.771 104.844 560.328 103.318M603.495 141.422C605.677 140.161 609.037 140.01 612.75 140.25M600.135 385.052C599.271 383.792 598.938 378.578 599.568 375.406M607.12 383.552C604.802 381.411 603.323 378.792 602.682 375.703M611.849 380.078C610.115 379.266 605.859 373.786 604.932 370.25M616.193 374.203C613.974 373.286 611.927 372.073 610.063 370.557C608.198 369.042 606.583 367.292 605.229 365.307" stroke="black" stroke-width="0.449334"/>
<path d="M731.042 232.604C761.687 258.276 763.667 278.677 758.932 290.661C756.448 279.458 743.745 262.021 730.536 257.526L731.042 232.604Z" fill="#F7E017" stroke="black" stroke-width="0.449334"/>
<path d="M676.255 218.135H733.052V285.385C733.052 342.693 701.177 376.573 668.766 394.484C636.385 376.542 604.479 342.661 604.479 285.385V218.135H644.354C644.276 220.651 644.62 223.109 645.391 225.505C646.161 227.901 647.313 230.099 648.844 232.094C658.25 231.167 668.885 224.13 676.255 218.135Z" fill="#337321" stroke="black" stroke-width="0.449334"/>
<path d="M733.052 218.135V285.385C733.052 302.672 730.146 317.859 725.203 331.068L668.797 227.573L612.391 331.068C607.005 316.318 604.391 301.089 604.542 285.385V218.135H733.052Z" fill="#006EC7" stroke="black" stroke-width="0.449334"/>
<path d="M726.911 326.125C725.682 329.875 724.286 333.563 722.714 337.182L668.797 236.948L614.875 337.182C613.297 333.568 611.896 329.88 610.682 326.125L668.828 218.349L726.911 326.125Z" fill="#F7E017"/>
<path d="M694.406 363C695.906 363.75 698.661 365.13 699.891 365.641C702.885 359.646 703.365 351.198 702.375 343.708C699.141 351.948 688.177 351.677 685.182 356.651C687.01 357.578 688.719 358.776 690.182 359.828C686.438 363.573 677.693 369.833 672.719 371.328V317.891C672.719 314.146 671.464 311.031 671.464 307.911V296.859C671.464 294.375 670.953 290.75 668.734 290.75C666.49 290.75 666.01 294.375 666.01 296.859V307.911C666.01 311.031 664.75 314.656 664.75 317.891V371.328C662.026 363.359 651.271 366.089 646.297 358.12C648.281 357.599 650.276 357.521 652.292 357.88C648.547 345.177 638.333 344.187 636.354 340.448C636.354 345.687 634.109 357.88 637.615 363.12C638.583 362.01 639.714 361.094 640.995 360.365C645.219 369.594 664.271 369.62 668.766 384.807C672.359 379.208 685.333 372.74 694.406 363Z" fill="#F7E017" stroke="black" stroke-width="0.449334"/>
<path d="M668.766 318.547C672.99 318.547 686.438 317.172 691.323 317.172C692.578 317.172 693.63 315.281 693.63 312.948C693.63 310.609 692.609 308.724 691.323 308.724C686.469 308.724 673.021 307.344 668.766 307.344C664.542 307.344 651.094 308.724 646.208 308.724C644.953 308.724 643.901 310.609 643.901 312.948C643.901 315.281 644.922 317.172 646.208 317.172C651.094 317.172 664.542 318.547 668.766 318.547Z" fill="#F7E017" stroke="black" stroke-width="0.449334"/>
<path d="M666.042 296.651C665.047 295.865 663.922 295.474 662.656 295.484C659.839 295.484 657.531 297.578 657.531 300.156C657.531 302.729 659.807 304.828 662.656 304.828C665.469 304.828 667.745 302.729 667.745 300.156C667.745 298.146 670.651 298.146 670.651 300.156C670.651 304.198 667.057 307.464 662.656 307.464C658.224 307.464 654.656 304.198 654.656 300.156C654.656 296.109 658.25 292.844 662.656 292.844C663.974 292.844 665.229 293.146 666.339 293.656C666.25 294.313 666.042 295.573 666.042 296.651ZM646.24 317.172C647.495 317.172 648.516 315.281 648.516 312.948C648.516 310.609 647.495 308.724 646.24 308.724" fill="#F7E017"/>
<path d="M646.24 317.172C647.495 317.172 648.516 315.281 648.516 312.948C648.516 310.609 647.495 308.724 646.24 308.724M666.042 296.651C665.047 295.865 663.922 295.474 662.656 295.484C659.839 295.484 657.531 297.578 657.531 300.156C657.531 302.729 659.807 304.828 662.656 304.828C665.469 304.828 667.745 302.729 667.745 300.156C667.745 298.146 670.651 298.146 670.651 300.156C670.651 304.198 667.057 307.464 662.656 307.464C658.224 307.464 654.656 304.198 654.656 300.156C654.656 296.109 658.25 292.844 662.656 292.844C663.974 292.844 665.229 293.146 666.339 293.656C666.25 294.313 666.042 295.573 666.042 296.651Z" stroke="black" stroke-width="0.449334"/>
<path d="M648.099 317.172C649.354 317.172 650.375 315.281 650.375 312.948C650.375 310.609 649.354 308.724 648.099 308.724M660.406 318.036C661.938 318.036 663.167 315.76 663.167 312.948C663.167 310.13 661.938 307.854 660.406 307.854M663.255 318.25C664.844 318.25 666.13 315.854 666.13 312.917C666.13 309.979 664.844 307.583 663.255 307.583M672.839 318.307C674.458 318.307 675.745 315.88 675.745 312.917C675.745 309.953 674.427 307.526 672.839 307.526M675.833 318.156C677.422 318.156 678.714 315.823 678.714 312.948C678.714 310.073 677.422 307.734 675.833 307.734M689.224 317.229C690.516 317.229 691.563 315.313 691.563 312.917C691.563 310.521 690.516 308.604 689.224 308.604M640.995 360.365C642.656 359.349 644.438 358.609 646.328 358.151ZM691.682 360.875L690.214 359.828ZM694.406 363C697.88 359.255 700.786 355.036 702.406 350.182Z" fill="#F7E017"/>
<path d="M648.099 317.172C649.354 317.172 650.375 315.281 650.375 312.948C650.375 310.609 649.354 308.724 648.099 308.724M660.406 318.036C661.938 318.036 663.167 315.76 663.167 312.948C663.167 310.13 661.938 307.854 660.406 307.854M663.255 318.25C664.844 318.25 666.13 315.854 666.13 312.917C666.13 309.979 664.844 307.583 663.255 307.583M672.839 318.307C674.458 318.307 675.745 315.88 675.745 312.917C675.745 309.953 674.427 307.526 672.839 307.526M675.833 318.156C677.422 318.156 678.714 315.823 678.714 312.948C678.714 310.073 677.422 307.734 675.833 307.734M689.224 317.229C690.516 317.229 691.563 315.313 691.563 312.917C691.563 310.521 690.516 308.604 689.224 308.604M640.995 360.365C642.656 359.349 644.438 358.609 646.328 358.151M691.682 360.875L690.214 359.828M694.406 363C697.88 359.255 700.786 355.036 702.406 350.182" stroke="black" stroke-width="0.449334"/>
<path d="M657.354 265.708C657.354 264.479 658.344 263.969 659.51 263.099C660.917 262.052 661.484 261.542 662.745 261.542H679.099C680.297 261.542 680.599 261.844 680.599 262.979V285.177C680.599 286.286 680.328 286.615 679.099 286.615H657.354V265.469" fill="white"/>
<path d="M657.354 265.708C657.354 264.479 658.344 263.969 659.51 263.099C660.917 262.052 661.484 261.542 662.745 261.542H679.099C680.297 261.542 680.599 261.844 680.599 262.979V285.177C680.599 286.286 680.328 286.615 679.099 286.615H657.354V265.469" stroke="black" stroke-width="0.449334"/>
<path d="M675.057 288.563C677.214 288.563 676.823 288.5 678.323 287.005C679.912 285.448 679.76 285.568 679.76 284.13V263.792C679.76 262.74 679.49 262.443 678.38 262.443H663.255C662.057 262.443 661.547 262.922 660.26 263.911C659.182 264.719 658.281 265.229 658.281 266.365V288.563H675.057Z" fill="#E5E5E5" stroke="black" stroke-width="0.449334"/>
<path d="M676.672 288.083C676.672 289.193 676.406 289.521 675.177 289.521H658.823C657.594 289.521 657.354 289.224 657.354 288.083V265.854C657.354 264.75 657.625 264.417 658.823 264.417H675.177C676.406 264.417 676.672 264.719 676.672 265.854V288.083Z" fill="white" stroke="black" stroke-width="0.449334"/>
<path d="M708.37 205.104C709.162 205.969 709.818 206.917 710.344 207.964C710.87 209.005 711.245 210.104 711.464 211.25C711.682 212.401 711.74 213.557 711.635 214.724C711.531 215.885 711.271 217.016 710.854 218.109H706.12C708.099 212.115 706.87 206.422 698.391 205.677C685.719 204.568 670.984 229.099 648.818 232.068C642.344 224.339 642.677 209.63 650.911 202.651C646.656 190.396 637.703 176.917 631.469 171.104C627.563 170.453 623.63 170.182 619.667 170.297C622.906 163.318 632.13 155.979 639.62 152.984C640.818 151.214 642.135 149.51 643.333 147.979C644.083 138.396 689.677 142.891 699.38 148.849C699.411 159.604 703.635 195.401 708.37 205.104Z" fill="#96877D" stroke="black" stroke-width="0.449334"/>
<path d="M653.13 211.667C652.052 195.073 645.339 181.38 635.906 172.063C640.396 173.323 649.594 173.323 655.823 168.828C664.031 163.349 685.479 153.76 693.328 157.865C693.958 159.245 694.318 162.359 693.839 164.339C691.979 159.365 671.281 167.063 665.443 169.427C659.839 172.036 657.354 175.542 659.328 183.391C656.094 180.661 657.203 178.026 653.849 176.047C655.198 179.286 656.302 185.125 656.693 189.859C655.438 186.505 653.219 179.286 648.339 175.031C652.563 183.24 656.245 202.979 654.505 213.464C657.865 213.464 665.292 210.167 668.255 207.802C665.651 211.547 658.104 214.151 653.25 215.141C651.063 217.75 649.563 224.49 649.682 228.234C649.354 223.62 650.792 212.385 653.13 211.667ZM708.37 205.104C704.234 200.521 696.536 198.036 686.708 200.703C688.208 199.953 691.443 198.698 694.318 198.219C693.958 195.609 691.594 184.375 691.203 181.651L693.958 180.542C695.339 187.281 697.073 194.979 698.182 198.099C699.052 198.339 701.057 198.724 702.797 199.594C702.047 196.99 697.823 178.177 697.943 176.167L701.688 174.161C703.156 184.375 705.521 199.203 708.365 205.104H708.37Z" fill="black"/>
<path d="M706.151 218.135C708.125 212.146 706.901 206.453 698.422 205.703C691.859 205.135 684.734 211.516 676.313 218.135H706.151ZM651.094 164.458C645.557 164.833 640.12 164.297 634.766 162.839C635.063 161.62 635.469 160.443 635.995 159.302C633.391 161.042 628.417 164.458 626.526 166.823C632.521 168.083 644.859 168.708 651.094 164.458Z" fill="#96877D" stroke="black" stroke-width="0.449334"/>
<path d="M650.943 202.682C652.318 206.661 653.219 210.5 653.339 213.911M639.651 153.016C637.401 156.307 635.427 159.844 634.766 162.839C638.99 164.219 647.349 164.964 651.094 164.458" stroke="black" stroke-width="0.449334"/>
<path d="M631.5 171.135C633.12 171.406 634.615 171.703 635.906 172.063C640.396 173.323 649.594 173.323 655.823 168.828C662.057 164.339 678.979 150.406 698.182 148.911" stroke="black" stroke-width="0.449334"/>
<path d="M626.557 166.823C632.552 168.083 644.891 168.682 651.094 164.458C665.531 154.63 679.49 148.88 693.448 148.13" stroke="black" stroke-width="0.449334"/>
<path d="M731.042 232.604C751.953 247.042 767.411 261.005 771.901 283.412C776.396 305.818 784.875 311.807 795.328 305.818C792.844 318.755 779.87 320.255 768.937 310.313C769.927 325.26 763.964 343.203 748.505 349.672C747.521 340.714 753.448 333.615 751.745 326.245C750.995 323.01 750.755 315.521 754.979 312.047C746.771 314.776 733.802 309.563 732.573 297.339C742.036 301.833 754.229 302.583 758.964 290.599C763.667 278.677 761.687 258.25 731.042 232.604ZM757.464 116.016C763.932 99.0938 780.891 100.828 786.609 108.052C803.297 98.5834 805.542 120 819.74 115.776C819.5 119.76 814.771 123.505 809.526 123.24C815.01 128.208 807.281 135.698 818.995 140.161C809.016 145.135 795.089 139.922 791.344 126.203C788.109 132.672 776.396 132.672 771.661 127.464C781.88 124.734 781.13 115.271 775.406 111.526C769.625 107.75 759.443 109.276 757.464 116.016ZM706.927 153.313C711.573 168.292 721.187 182.25 731.552 191.745C743.505 202.708 761.568 199.953 771.661 189.5C771.901 210.349 750.307 211.964 738.292 205.438C732.99 202.563 728.708 204.057 733.802 208.672C741.526 215.651 758.422 220.833 778.375 225.115C813.24 232.573 800.812 260.255 790.594 259.984C793.531 259.927 795.927 256.87 791.703 253.063C761.448 225.833 699.922 236.557 700.906 175.781C694.437 191.714 667.776 185.484 680.24 166.552C684.224 169.786 691.203 170.026 693.208 165.057C694.766 161.193 693.75 154.453 686.771 148.641C687.906 148.552 690.396 148.641 690.125 145.766C690.422 147.443 691.953 149.927 695.875 149.089C696.984 150.854 698.182 152.026 699.771 151.396C700.068 151.276 701.026 150.797 700.641 149.031C700.937 152.385 704.865 153.552 706.927 153.313Z" fill="#337321" stroke="black" stroke-width="0.449334"/>
<path d="M738.26 205.437C752.703 214.901 769.057 214.901 784.094 197.469C788.828 191.984 796.287 187.25 801.531 186.745C806.771 186.234 806.5 181.26 810.484 180.271C808 179.526 807.01 176.526 803.266 176.917C812.615 173.682 809.859 166.193 814.469 162.599C810.724 163.979 804.885 158.375 799.521 165.474C800.901 162.24 799.01 158.375 797.667 156.875C798.172 160.62 790.328 161.37 788.828 170.839C787.99 176.141 785.083 175.807 784.604 167.604C784.245 161.578 781.37 144.927 777.896 136.479C774.422 128 773.609 116.375 778.344 114.641C777.604 113.391 776.625 112.37 775.406 111.583C769.625 107.812 759.474 109.339 757.464 116.078C750.995 133.005 769.177 142.74 767.677 161.161C764.953 147.474 742.755 143.969 743.026 130.516C735.807 133.75 736.797 139.745 739.552 144.474C735.057 137.495 724.844 148.969 716.125 139.505C715.135 151.964 726.099 156.698 735.057 157.177C730.563 165.146 736.557 171.885 742.516 174.104C742.755 160.141 771.365 165.865 771.662 189.797C771.901 210.167 749.974 211.906 738.26 205.437ZM778.375 225.115C813.24 232.573 800.813 260.255 790.594 259.984C784.094 259.833 777.896 254.385 777.505 249.651C770.047 253.635 772.021 261.484 777.745 264.599C762.047 262.74 755.458 273.073 755.068 284.401C757.943 279.156 766.662 278.797 769.896 279.906C773.13 281.016 781.49 281.641 784.844 277.896C782.089 280.266 786.583 285.745 782.719 289.969C795.807 289.464 801.531 277.271 799.281 271.906C816.24 256.51 813 231.349 778.375 225.115ZM751.833 343.469C754.109 344.88 753.807 347.875 752.281 349.76C749.198 353.536 753.839 362.552 744.344 364.078C741.526 364.531 739.464 362.734 738.531 359.526C735.958 350.661 745.302 350.062 746.292 345.896C747.307 341.766 749.917 342.271 751.833 343.469Z" fill="#F7E017" stroke="black" stroke-width="0.449334"/>
<path d="M743.266 359.557C746.323 361.115 748.958 363.271 747.339 373.219C746.651 377.349 746.5 387.385 750.125 387.656C747.849 388.672 743.083 389.661 741.229 387.026C739.224 390.083 735.026 389.005 733.5 385.052C731.193 386.755 728.255 383.583 728.375 380.948C726.37 382.115 722.568 380.167 723.766 374.234C721.37 374.984 718.375 373.187 717.323 371.63C720.828 371.063 729.755 366.687 732 363C734.219 359.349 739.703 357.76 743.266 359.557Z" fill="#F7E017" stroke="black" stroke-width="0.449334"/>
<path d="M741.198 387.057C742.219 385.708 742.818 379.87 742.245 376.302M733.5 385.078C734.807 383.964 735.911 382.677 736.812 381.214C737.714 379.75 738.365 378.182 738.771 376.51M728.349 380.974C730.323 380.135 735.297 374.203 736.495 370.281M723.734 374.266C726.042 373.875 733.26 369.563 736.344 364.802" stroke="black" stroke-width="0.449334"/>
<path d="M700.906 175.807C700.49 201.333 711.094 214.271 725.802 222.661C720.349 219.396 722.714 208.193 715.349 204.568C717.083 204.448 719.839 206.932 724.182 205.943C722.057 201.214 718.583 193.995 710.495 193.005C712.62 192.766 717.234 193.516 720.198 192.375C715.974 185.875 704.771 188.99 700.906 175.807ZM698.271 151.516C697.375 151.214 696.625 150.318 695.875 149.151C691.953 149.99 690.422 147.5 690.125 145.823C690.365 148.698 687.906 148.578 686.74 148.672C693.75 154.479 694.766 161.219 693.208 165.083C691.203 170.057 684.255 169.818 680.24 166.583C679.729 177.156 693.448 180.661 698.422 167.333C698.422 169.578 701.297 169.339 702.047 172.307C705.583 166.583 702.885 158.344 698.271 151.516Z" fill="#F7E017" stroke="black" stroke-width="0.449334"/>
<path d="M676.375 100.948C674.995 99.5885 673.766 98.1042 672.677 96.5052C671.589 94.901 670.667 93.2083 669.906 91.4271C669.151 89.6458 668.573 87.8073 668.172 85.9115C667.776 84.0156 667.562 82.0989 667.536 80.1614C667.776 74.6771 670.026 68.6875 677.995 71.2031C675.505 71.2031 677.245 76.1771 674.635 76.6875C676.766 77.4375 679.609 75.6979 680 74.5573C680.51 76.2969 683.745 75.8177 683.984 77.7969C685.24 76.8073 683.865 71.9531 682.005 70.9375C683.385 70.1875 684.135 66.3229 683.505 64.4635C682.245 64.7031 680.391 66.4739 680.031 68.9583C680.656 66.9531 679.911 61.9792 676.406 61.2292C675.417 62.6094 675.146 65.9635 676.526 67.8177C673.292 67.0729 668.557 69.1979 667.417 71.9219C667.656 68.6302 668.135 63.9271 670.172 60.9583C670.865 59.9688 669.187 58.2344 667.865 60.599C665.443 55.8698 658.969 53.3802 656.094 55.75C653.219 58.1146 649.385 54.6406 647.016 58.3542C644.651 62.099 636.625 62.4896 637.042 66.4427C637.281 68.8073 636.714 72.4635 635.547 73.7813C632.672 77.0156 636.922 79.3802 637.672 82.2604C637.161 72.7917 652.229 54.3698 667.328 61.5885C665.948 63.9531 664.75 68.6875 664.333 74.4115C663.703 82.8854 664.964 94.8385 673.172 101.818L676.375 100.948Z" fill="#337321" stroke="black" stroke-width="0.449334"/>
<path d="M680.839 71.2969C680.75 69.0469 684.641 66.1406 689.854 66.2031C696.146 66.2604 701 71.9844 706.031 71.4427C711.063 70.875 708.578 73.6927 707.526 74.4375C706.479 75.1875 705.849 76.2969 706.208 77.6771C706.568 79.0521 705.943 79.9531 703.906 78.6614C699.412 75.8489 694.948 79.7708 689.016 77.6146C683.953 75.6979 680.99 74.651 680.839 71.2969Z" fill="#C8102E" stroke="black" stroke-width="0.449334"/>
<path d="M655.198 130.099C652.708 122.25 643.245 113.651 638.63 111.677L638.391 107.453C640.875 106.464 646.87 101.729 649.594 99.0938C668.286 108.052 693.687 95.3489 705.401 82.1667L709.896 84.8958L707.646 87.8906L705.281 86.6302C700.099 92.3073 694.5 97.526 688.479 102.297C692.818 103.406 698.781 104.156 700.427 104.068C710.885 96.5781 719.094 89.8646 723.073 89.3594L726.432 93.8489L723.432 95.9792L721.068 94.5989C709.865 103.828 697.161 123.984 692.161 137.437C685.214 135.937 660.286 136.927 655.198 130.099Z" fill="#96877D" stroke="black" stroke-width="0.449334"/>
<path d="M688.479 102.297C687.135 101.995 685.849 101.547 684.615 100.948C682.604 102.807 677.63 104.427 671.281 104.693" stroke="black" stroke-width="0.449334"/>
<path d="M656.182 127.344C654.505 118.057 657.172 107.781 661.906 104.667C672.24 111.526 689.943 111.526 700.401 104.036" stroke="black" stroke-width="0.449334"/>
<path d="M656.182 122.49C666.052 122.521 675.885 123.099 685.693 124.224C689.917 124.854 697.016 126.594 696.026 128.719M659.87 121.172L662.177 118.896L659.87 116.62L657.594 118.865L659.87 121.172Z" stroke="black" stroke-width="0.449334"/>
<path d="M665.292 74.7969C662.417 70.8125 654.536 69.5573 652.828 74.9167C652.078 77.2865 650.974 79.7708 649.083 80.9115C647.229 82.0208 647.646 85.4323 648.458 86.901C650.432 90.526 648.698 94 652.557 96.3698C652.557 93.4896 656.781 90.526 660.406 89.776C664.031 89.026 669.484 85.7917 670.234 82.1667C671.01 78.5156 672.271 75.5156 665.292 74.7969Z" fill="#337321" stroke="black" stroke-width="0.449334"/>
<path d="M647.349 110.656H648.339L648.365 117.458C648.583 117.526 648.781 117.625 648.964 117.755L654.839 114.37L655.344 115.24L649.443 118.656C649.474 118.865 649.505 119.104 649.474 119.313L655.344 122.698L654.839 123.568L648.906 120.214C648.745 120.38 648.557 120.5 648.339 120.573V127.344H647.349V120.542C647.13 120.474 646.932 120.37 646.75 120.24L640.875 123.625L640.37 122.76L646.271 119.344C646.24 119.135 646.208 118.896 646.24 118.682L640.37 115.297L640.875 114.432L646.776 117.818C646.938 117.651 647.13 117.531 647.349 117.458V110.656Z" fill="#96877D" stroke="black" stroke-width="0.449334"/>
<path d="M656.214 127.313C655.651 127.875 655.042 128.375 654.38 128.812C653.719 129.255 653.016 129.625 652.281 129.922C651.542 130.219 650.786 130.438 650.005 130.583C649.224 130.724 648.432 130.792 647.641 130.776C646.844 130.76 646.057 130.661 645.286 130.49C644.51 130.312 643.76 130.063 643.036 129.734C642.313 129.411 641.625 129.016 640.979 128.547C640.339 128.083 639.745 127.557 639.208 126.974C638.672 126.391 638.198 125.755 637.787 125.073C637.375 124.396 637.042 123.677 636.776 122.927C636.51 122.182 636.323 121.411 636.214 120.625C636.104 119.839 636.073 119.047 636.125 118.255C636.177 117.458 636.307 116.682 636.516 115.911C636.724 115.146 637.005 114.411 637.365 113.698C637.724 112.99 638.146 112.323 638.641 111.698C639.135 111.078 639.682 110.51 640.292 110C640.901 109.484 641.552 109.042 642.25 108.661C642.948 108.281 643.677 107.974 644.438 107.745C645.198 107.51 645.974 107.359 646.766 107.281C647.557 107.208 648.349 107.214 649.135 107.297C649.927 107.385 650.703 107.547 651.458 107.792C652.214 108.031 652.943 108.349 653.635 108.734C654.328 109.125 654.974 109.578 655.573 110.099C656.177 110.62 656.719 111.193 657.203 111.823C656.484 113.875 656.026 115.979 655.823 118.146C655.776 117.625 655.677 117.12 655.526 116.62C655.38 116.12 655.182 115.641 654.943 115.177C654.703 114.719 654.422 114.286 654.094 113.875C653.771 113.469 653.411 113.099 653.016 112.76C652.615 112.427 652.193 112.13 651.74 111.875C651.286 111.62 650.813 111.411 650.318 111.245C649.823 111.083 649.318 110.969 648.802 110.901C648.287 110.833 647.766 110.818 647.25 110.854C646.729 110.885 646.219 110.969 645.714 111.104C645.208 111.234 644.724 111.417 644.255 111.641C643.787 111.87 643.344 112.135 642.927 112.448C642.51 112.76 642.13 113.109 641.781 113.495C641.432 113.88 641.12 114.297 640.849 114.745C640.583 115.188 640.359 115.656 640.177 116.146C640 116.63 639.87 117.135 639.786 117.646C639.708 118.161 639.672 118.677 639.693 119.198C639.708 119.719 639.776 120.234 639.891 120.74C640.01 121.245 640.172 121.74 640.385 122.214C640.599 122.688 640.854 123.141 641.151 123.568C641.448 123.99 641.786 124.385 642.161 124.745C642.536 125.109 642.943 125.432 643.38 125.714C643.818 125.995 644.276 126.234 644.76 126.427C645.24 126.625 645.74 126.771 646.25 126.865C646.76 126.964 647.276 127.016 647.797 127.01C648.693 127 649.563 126.849 650.412 126.557C651.255 126.266 652.037 125.849 652.745 125.302C653.458 124.755 654.063 124.109 654.563 123.37C655.063 122.625 655.438 121.823 655.677 120.958C655.703 122.521 655.766 126.083 656.214 127.313Z" fill="#96877D" stroke="black" stroke-width="0.449334"/>
<path d="M642.854 138.547C642.104 137.677 640.729 135.307 640.875 133.573C642.484 133.589 643.891 134.13 645.099 135.188C644.979 133.932 644.474 131.203 644.74 129.948C646.891 130.75 648.635 132.078 649.984 133.932C649.51 131.792 649.432 129.63 649.745 127.464C651.24 128.328 653.729 130.698 654.24 132.313C654.349 129.672 654.927 127.135 655.974 124.703C657.083 125.813 658.849 126.833 659.958 128.328C660.198 126.323 661.219 123.958 662.682 123.359C664.469 125.495 665.547 127.937 665.922 130.698C667.026 130.339 668.526 128.448 669.156 127.464C670.073 128.969 670.359 130.583 670.026 132.313C671.401 131.057 673.021 129.318 673.38 127.823C674.979 129.01 676.099 130.547 676.734 132.432C676.495 130.818 676.615 127.943 676.104 126.323C677.031 126.786 677.823 127.422 678.474 128.224C679.13 129.031 679.588 129.932 679.849 130.938C680.359 129.198 681.469 126.083 682.453 125.333C683.604 127.297 684.224 129.411 684.312 131.682C684.943 130.427 685.932 128.208 686.917 127.703C687.786 129.078 687.667 132.073 687.427 133.693C688.37 132.38 689.526 131.302 690.901 130.458C691.083 131.573 691.083 132.693 690.901 133.813C692.01 133.182 693.901 129.828 694.526 128.089C695.453 128.719 696.229 129.495 696.859 130.422C697.484 131.349 697.917 132.359 698.151 133.453C699.953 132.464 701.448 131.135 702.646 129.469C702.646 130.339 703.036 132.703 702.526 134.563C703.276 133.813 704.026 132.313 704.385 131.682C704.891 132.943 704.505 135.906 703.995 137.526C705.068 136.578 706.312 136.042 707.74 135.906C707.859 138.036 706.359 141.75 704.984 144.505C693.057 141.182 668.016 139.922 642.854 138.547Z" fill="#337321" stroke="black" stroke-width="0.449334"/>
<path d="M684.552 72.5833C684.495 71.6562 686.531 69.5885 690.214 69.6146C694.62 69.6458 698.693 72.8802 702.198 72.6406C705.729 72.401 703.995 73.5729 703.245 73.8698C702.495 74.1719 702.078 74.651 702.318 75.1875C702.583 75.7552 702.135 76.1198 700.698 75.6094C697.552 74.4687 694.406 76.0573 690.276 75.1875C686.708 74.3802 684.641 73.9583 684.552 72.5833Z" fill="#F7E017"/>
<path d="M646.719 146.031C642.974 150.526 639.26 149.776 638.51 146.901C637.76 144.026 640.516 142.677 639.5 140.161C638.51 137.677 641.115 136.536 642.375 137.677C643.635 138.786 647.62 135.187 649.354 138.932C651.094 142.677 652.469 145.286 651.479 146.781C650.464 148.281 647.469 147.531 646.719 146.031ZM662.776 139.292C662.083 137.646 665.948 134.5 667.958 136.75C669.964 138.995 673.078 134.323 674.818 137.854C676.552 141.422 677.125 143.276 677.995 145.255C678.859 147.26 673.26 148.312 671.521 146.573C671.76 147.74 666.667 148.672 665.292 145.312C664.542 143.547 663.734 141.479 662.776 139.292ZM688.688 141.359C687.755 139.625 692.313 137.135 694.677 140.313C695.307 138.995 699.802 138.755 700.099 142.557L700.667 150.109C700.786 151.604 697.943 152.984 695.875 149.177C692.193 149.927 690.516 147.859 690.094 145.703C689.833 144.188 689.365 142.74 688.688 141.359Z" fill="#F7E017" stroke="black" stroke-width="0.449334"/>
<path d="M649.146 138.875C648.578 137.615 652.318 135.13 654.865 137.016C657.411 138.875 660.948 135.401 662.474 138.755C665.531 145.552 665.708 146.031 664.781 147.354C663.854 148.672 659.87 148.161 658.849 146.365C658.672 147.62 655.224 147.411 653.427 146.422C651.391 145.286 649.953 141.12 649.146 138.875ZM675.354 139.172C674.49 137.255 680.328 135.547 682.906 138.932C684.224 137.734 687.068 137.677 688.688 141.359C690.302 145.047 690.542 147.083 689.375 148.01C688.536 148.672 685.51 149.177 684.521 147.5C683.146 148.37 678.922 147.62 677.995 145.255C677.062 142.917 676.255 140.849 675.354 139.172ZM700.161 142.859C700.042 141.12 703.214 140.313 704.385 142.859C705.583 145.406 709.354 143.099 709.687 147.354C709.745 148.161 709.234 151.276 708.068 152.776C706.901 154.271 701.089 152.776 700.729 149.599C700.432 147.359 700.245 145.115 700.161 142.859Z" fill="#337321" stroke="black" stroke-width="0.449334"/>
<path d="M646.719 146.031C645.339 144.177 643.484 141.182 641.115 144.417M658.88 146.333C657.906 145.068 657.156 143.677 656.635 142.172M671.521 146.604C670.339 145.75 669.38 144.687 668.646 143.427M670.385 140.042C672.568 140.281 674.068 142.349 674.729 143.276C675.417 144.208 676.854 145.885 677.964 146.094M684.521 147.531C683.776 146.333 683.026 145.286 682.844 144.417M682.906 138.932C683.599 139.844 684.177 140.823 684.641 141.87M695.844 149.151C694.974 147.349 693.682 145.917 691.979 144.865M695.365 142.292C695.484 145.974 700.401 146.214 700.609 148.818M704.385 142.859C704.922 143.932 705.172 145.073 705.13 146.271" stroke="black" stroke-width="0.449334"/>
</g>
<defs>
<clipPath id="clip0_0_1">
<rect width="900" height="450" fill="white"/>
</clipPath>
</defs>
</svg>
