<svg width="900" height="450" viewBox="0 0 900 450" fill="none" xmlns="http://www.w3.org/2000/svg">
<rect width="900" height="450" fill="#1E1E1E"/>
<g clip-path="url(#clip0_0_1)">
<mask id="mask0_0_1" style="mask-type:luminance" maskUnits="userSpaceOnUse" x="0" y="0" width="900" height="450">
<path d="M0 -3.37219e-06H900V450H0V-3.37219e-06Z" fill="white"/>
</mask>
<g mask="url(#mask0_0_1)">
<path d="M0 -3.37219e-06H900V450H0V-3.37219e-06Z" fill="white"/>
<path d="M0 -3.37219e-06H900V450H0V-3.37219e-06Z" fill="white"/>
<path d="M0 -3.37219e-06H900V450H0V-3.37219e-06Z" fill="#007A3D"/>
</g>
<mask id="mask1_0_1" style="mask-type:luminance" maskUnits="userSpaceOnUse" x="0" y="0" width="900" height="300">
<path d="M0 -3.37219e-06H900V300H0V-3.37219e-06Z" fill="white"/>
</mask>
<g mask="url(#mask1_0_1)">
<path d="M0 -3.37219e-06H900V299.557H0V-3.37219e-06Z" fill="white"/>
</g>
<mask id="mask2_0_1" style="mask-type:luminance" maskUnits="userSpaceOnUse" x="0" y="0" width="900" height="151">
<path d="M0 -3.37219e-06H900V150.667H0V-3.37219e-06Z" fill="white"/>
</mask>
<g mask="url(#mask2_0_1)">
<path d="M0 -3.37219e-06H900V149.776H0V-3.37219e-06Z" fill="black"/>
</g>
<mask id="mask3_0_1" style="mask-type:luminance" maskUnits="userSpaceOnUse" x="0" y="0" width="301" height="450">
<path d="M0 -3.37219e-06H300.667V450H0V-3.37219e-06Z" fill="white"/>
</mask>
<g mask="url(#mask3_0_1)">
<path d="M0 -3.37219e-06L299.557 225L0 450V-3.37219e-06Z" fill="#CE1126"/>
</g>
</g>
<defs>
<clipPath id="clip0_0_1">
<rect width="900" height="450" fill="white"/>
</clipPath>
</defs>
</svg>
