<svg width="900" height="450" viewBox="0 0 900 450" fill="none" xmlns="http://www.w3.org/2000/svg">
<rect width="900" height="450" fill="#1E1E1E"/>
<g clip-path="url(#clip0_0_1)">
<mask id="mask0_0_1" style="mask-type:luminance" maskUnits="userSpaceOnUse" x="0" y="0" width="899" height="450">
<path d="M0 -3.37219e-06H898.667V450H0V-3.37219e-06Z" fill="white"/>
</mask>
<g mask="url(#mask0_0_1)">
<path d="M0 -3.37219e-06H898.667V450H0V-3.37219e-06Z" fill="white"/>
<path d="M0 -3.37219e-06H898.667V450H0V-3.37219e-06Z" fill="white"/>
</g>
<mask id="mask1_0_1" style="mask-type:luminance" maskUnits="userSpaceOnUse" x="0" y="0" width="900" height="450">
<path d="M0 -3.37219e-06H900V450H0V-3.37219e-06Z" fill="white"/>
</mask>
<g mask="url(#mask1_0_1)">
<path d="M0 -3.37219e-06H900V450H0V-3.37219e-06Z" fill="#FF0000"/>
</g>
<mask id="mask2_0_1" style="mask-type:luminance" maskUnits="userSpaceOnUse" x="0" y="0" width="270" height="450">
<path d="M0 -3.37219e-06H270V450H0V-3.37219e-06Z" fill="white"/>
</mask>
<g mask="url(#mask2_0_1)">
<path d="M0 -3.37219e-06H269.599V450H0V-3.37219e-06Z" fill="#006600"/>
</g>
<path fill-rule="evenodd" clip-rule="evenodd" d="M358.156 294.167C324.219 293.146 168.604 196.01 167.536 180.542L176.13 166.208C191.568 188.641 350.651 283.104 366.276 279.755L358.156 294.162" fill="#FFFF00"/>
<path d="M358.156 294.167C324.219 293.146 168.604 196.01 167.536 180.542L176.13 166.208C191.568 188.641 350.651 283.104 366.276 279.755L358.156 294.162" stroke="black" stroke-width="0.643672" stroke-linecap="round" stroke-linejoin="round"/>
<path fill-rule="evenodd" clip-rule="evenodd" d="M174.323 164.266C171.276 172.458 214.927 199.443 267.448 231.385C319.969 263.328 365.255 283.068 368.609 280.234C368.818 279.87 370.261 277.385 370.13 277.401C369.5 278.349 367.969 278.651 365.578 277.958C351.391 273.87 314.38 256.88 268.552 229.089C222.719 201.292 182.849 175.682 176.651 164.797C176.219 164.047 175.911 162.667 175.974 161.599L175.823 161.594L174.505 163.901L174.323 164.266ZM358.953 294.615C358.38 295.662 357.307 295.693 355.266 295.469C342.573 294.068 304.057 275.333 258.479 248.052C205.443 216.307 161.646 187.38 166.396 179.818L167.693 177.537L167.948 177.615C163.672 190.427 254.385 242.292 259.724 245.599C312.214 278.115 356.458 297.104 360.375 292.172L358.953 294.62V294.615Z" fill="#FFFF00" stroke="black" stroke-width="0.643672" stroke-linecap="round" stroke-linejoin="round"/>
<path fill-rule="evenodd" clip-rule="evenodd" d="M270.458 189.911C304.422 189.641 346.339 185.266 370.458 175.656L365.26 167.208C351.005 175.099 308.859 180.292 270.172 181.068C224.411 180.646 192.109 176.385 175.927 165.526L171.021 174.516C200.771 187.104 231.255 189.781 270.458 189.911Z" fill="#FFFF00" stroke="black" stroke-width="0.643672" stroke-linecap="round" stroke-linejoin="round"/>
<path fill-rule="evenodd" clip-rule="evenodd" d="M371.859 175.844C371.031 177.172 355.297 182.599 332.125 186.599C316.412 188.995 295.917 191.047 270.339 191.068C246.037 191.094 226.182 189.359 211.156 187.323C186.828 183.51 174.271 178.203 169.63 176.328C170.073 175.448 170.359 174.828 170.786 174C184.151 179.323 196.766 182.531 211.542 184.802C226.474 186.828 246.083 188.583 270.266 188.557C295.724 188.531 315.995 186.328 331.62 184.005C355.38 180.172 368.365 175.24 370.188 172.948L371.865 175.844H371.859ZM367.302 167.281C364.724 169.349 351.891 173.901 329.307 177.51C314.24 179.667 295.078 181.599 270.599 181.625C247.344 181.646 228.339 180.078 213.885 177.974C190.953 174.979 178.75 169.578 174.349 168.005C174.786 167.245 175.234 166.495 175.693 165.74C179.115 167.464 190.896 172.245 214.141 175.542C228.427 177.563 247.458 179.073 270.599 179.052C294.964 179.026 313.906 177.057 328.88 174.906C351.578 171.786 363.792 165.979 365.646 164.526L367.302 167.281ZM158.922 230.833C179.813 242.068 226.214 247.729 270.125 248.12C310.104 248.188 362.193 241.943 381.667 231.62L381.13 220.375C375.037 229.896 319.224 239.031 269.693 238.656C220.161 238.281 174.167 230.63 158.833 220.729L158.922 230.828" fill="#FFFF00"/>
<path d="M158.922 230.833C179.813 242.068 226.214 247.729 270.125 248.12C310.104 248.188 362.193 241.943 381.667 231.62L381.13 220.375C375.037 229.896 319.224 239.031 269.693 238.656C220.161 238.281 174.167 230.63 158.833 220.729L158.922 230.828M371.859 175.844C371.031 177.172 355.297 182.599 332.125 186.599C316.412 188.995 295.917 191.047 270.339 191.068C246.037 191.094 226.182 189.359 211.156 187.323C186.828 183.51 174.271 178.203 169.63 176.328C170.073 175.448 170.359 174.828 170.786 174C184.151 179.323 196.766 182.531 211.542 184.802C226.474 186.828 246.083 188.583 270.266 188.557C295.724 188.531 315.995 186.328 331.62 184.005C355.38 180.172 368.365 175.24 370.188 172.948L371.865 175.844H371.859ZM367.302 167.281C364.724 169.349 351.891 173.901 329.307 177.51C314.24 179.667 295.078 181.599 270.599 181.625C247.344 181.646 228.339 180.078 213.885 177.974C190.953 174.979 178.75 169.578 174.349 168.005C174.786 167.245 175.234 166.495 175.693 165.74C179.115 167.464 190.896 172.245 214.141 175.542C228.427 177.563 247.458 179.073 270.599 179.052C294.964 179.026 313.906 177.057 328.88 174.906C351.578 171.786 363.792 165.979 365.646 164.526L367.302 167.281Z" stroke="black" stroke-width="0.643672" stroke-linecap="round" stroke-linejoin="round"/>
<path fill-rule="evenodd" clip-rule="evenodd" d="M382.734 229.214V231.896C379.807 235.396 361.453 240.688 338.432 244.412C320.917 247.099 298.078 249.125 269.615 249.125C242.578 249.125 221.016 247.198 204.297 244.63C177.865 240.781 160.958 234.042 157.568 232.031L157.583 228.901C167.776 235.677 195.396 240.635 204.667 242.151C221.281 244.703 242.714 246.615 269.615 246.615C297.943 246.615 320.651 244.604 338.063 241.938C354.578 239.552 378.104 233.349 382.734 229.214ZM382.745 219.677V222.354C379.818 225.854 361.464 231.146 338.448 234.87C320.927 237.557 298.089 239.583 269.63 239.583C242.589 239.583 221.031 237.656 204.307 235.089C177.875 231.24 160.969 224.5 157.578 222.49L157.594 219.359C167.786 226.135 195.406 231.094 204.677 232.609C221.292 235.162 242.724 237.078 269.625 237.078C297.953 237.078 320.667 235.063 338.073 232.396C354.589 230.005 378.115 223.802 382.745 219.672V219.677ZM270.031 292.234C221.984 291.948 180.813 279.135 172.12 277.021L178.458 286.943C193.818 293.401 233.979 303.031 270.49 301.964C307.005 300.896 338.912 298.068 361.401 287.125L367.901 276.839C352.578 284.057 300.427 292.162 270.031 292.234Z" fill="#FFFF00" stroke="black" stroke-width="0.643672" stroke-linecap="round" stroke-linejoin="round"/>
<path fill-rule="evenodd" clip-rule="evenodd" d="M363.839 284.818C362.891 286.271 361.922 287.703 360.922 289.12C350.318 292.859 333.604 296.787 326.552 297.932C312.146 300.901 289.859 303.094 270.078 303.104C227.516 302.479 192.677 294.146 176.287 287.042L174.964 284.766L175.177 284.427L177.422 285.297C206.568 295.724 239.307 299.886 270.318 300.63C290.021 300.698 309.74 298.375 325.688 295.521C350.146 290.62 360.037 286.927 363.068 285.255L363.839 284.818ZM369.474 275.526L369.552 275.609C368.823 276.839 368.089 278.057 367.344 279.276C361.688 281.297 346.339 285.792 323.917 288.922C309.146 290.938 299.964 292.885 270.583 293.453C215.521 292.057 179.875 281.287 171.406 278.635L170.151 276.224C202.057 284.557 234.656 290.37 270.583 290.964C297.469 290.391 308.906 288.412 323.552 286.417C349.693 282.349 362.865 278.047 366.818 276.802C366.766 276.729 366.708 276.651 366.646 276.578L369.479 275.521V275.526H369.474Z" fill="#FFFF00" stroke="black" stroke-width="0.617835" stroke-linecap="round" stroke-linejoin="round"/>
<path fill-rule="evenodd" clip-rule="evenodd" d="M370.052 221.958C370.208 253.563 354.031 281.927 341.005 294.443C322.573 312.146 298.135 323.531 269.594 324.057C237.729 324.641 207.677 303.865 199.62 294.74C183.859 276.896 171.031 254.234 170.62 223.693C172.573 189.198 186.115 165.167 205.745 148.693C225.375 132.214 251.51 124.188 273.281 124.76C298.396 125.422 327.734 137.745 348.005 162.203C361.287 178.229 367.037 195.62 370.052 221.958ZM269.865 113.734C331.073 113.734 381.412 163.542 381.412 224.609C381.412 285.677 331.073 335.49 269.865 335.49C208.661 335.49 158.74 285.682 158.74 224.609C158.74 163.542 208.661 113.734 269.865 113.734Z" fill="#FFFF00" stroke="black" stroke-width="0.643672" stroke-linecap="round" stroke-linejoin="round"/>
<path fill-rule="evenodd" clip-rule="evenodd" d="M270.167 113.354C331.427 113.354 381.386 163.323 381.386 224.589C381.386 285.854 331.422 335.823 270.167 335.823C208.906 335.823 158.943 285.854 158.943 224.589C158.943 163.323 208.906 113.354 270.167 113.354ZM161.391 224.589C161.391 284.417 210.521 333.375 270.167 333.375C329.813 333.375 378.943 284.417 378.943 224.589C378.943 164.755 329.807 115.802 270.167 115.802C210.521 115.802 161.391 164.76 161.391 224.589Z" fill="#FFFF00" stroke="black" stroke-width="0.643672" stroke-linecap="round" stroke-linejoin="round"/>
<path fill-rule="evenodd" clip-rule="evenodd" d="M270.255 122.599C326.12 122.599 372.136 168.453 372.136 224.49C372.136 280.526 326.12 326.38 270.255 326.38C214.391 326.38 168.375 280.526 168.375 224.49C168.375 168.453 214.391 122.599 270.255 122.599ZM170.823 224.49C170.823 279.177 215.734 323.932 270.255 323.932C324.776 323.932 369.688 279.177 369.688 224.49C369.688 169.797 324.776 125.047 270.255 125.047C215.734 125.047 170.823 169.797 170.823 224.49Z" fill="#FFFF00" stroke="black" stroke-width="0.643672" stroke-linecap="round" stroke-linejoin="round"/>
<path fill-rule="evenodd" clip-rule="evenodd" d="M274.74 112.906H265.203L265.219 336.401H274.781L274.74 112.906Z" fill="#FFFF00" stroke="black" stroke-width="0.643672" stroke-linecap="round" stroke-linejoin="round"/>
<path fill-rule="evenodd" clip-rule="evenodd" d="M273.781 111.63H276.208L276.229 337.703H273.802L273.781 111.63ZM264.323 111.63H266.766L266.771 337.703H264.323V111.63Z" fill="#FFFF00" stroke="black" stroke-width="0.643672" stroke-linecap="round" stroke-linejoin="round"/>
<path fill-rule="evenodd" clip-rule="evenodd" d="M381.464 228.896V220.63L374.734 214.365L336.542 204.255L281.5 198.635L215.224 202.005L168.042 213.24L158.516 220.297V228.557L182.646 217.734L239.938 208.745H294.979L335.422 213.24L363.505 219.979L381.464 228.896Z" fill="#FFFF00" stroke="black" stroke-width="0.643672" stroke-linecap="round" stroke-linejoin="round"/>
<path fill-rule="evenodd" clip-rule="evenodd" d="M270.208 207.365C296.479 207.318 321.964 209.854 342.177 213.792C363.037 217.958 377.714 223.177 382.734 229.037L382.729 231.938C376.677 224.646 356.922 219.302 341.708 216.245C321.646 212.344 296.333 209.823 270.208 209.87C242.646 209.922 216.979 212.537 197.214 216.391C181.349 219.537 160.198 225.792 157.557 231.958V228.938C159.005 224.667 174.755 218.287 196.854 213.865C216.771 209.984 242.484 207.417 270.208 207.365ZM270.219 197.828C296.49 197.781 321.974 200.318 342.188 204.25C363.047 208.422 377.729 213.635 382.745 219.495L382.74 222.396C376.688 215.109 356.932 209.76 341.719 206.708C321.656 202.802 296.344 200.287 270.219 200.333C242.656 200.385 217.115 202.995 197.344 206.849C182.036 209.755 160.021 216.255 157.568 222.422V219.401C159.016 215.177 175.089 208.568 196.865 204.328C216.781 200.443 242.495 197.88 270.219 197.828ZM269.682 149.167C311.078 148.958 347.182 154.953 363.698 163.417L369.724 173.839C355.37 166.099 316.417 158.057 269.745 159.26C231.714 159.495 191.078 163.448 170.693 174.323L177.885 162.292C194.615 153.615 234.078 149.214 269.682 149.167Z" fill="#FFFF00" stroke="black" stroke-width="0.643672" stroke-linecap="round" stroke-linejoin="round"/>
<path fill-rule="evenodd" clip-rule="evenodd" d="M270.234 157.771C293.844 157.708 316.656 159.042 334.797 162.313C351.693 165.458 367.807 170.177 370.109 172.714L371.896 175.87C366.292 172.214 352.349 168.141 334.448 164.745C316.464 161.365 293.667 160.245 270.193 160.307C243.542 160.214 222.839 161.62 205.073 164.719C186.281 168.234 173.245 173.26 170.026 175.646L171.776 172.307C178.026 169.12 187.943 165.276 204.604 162.276C222.979 158.922 243.901 157.917 270.234 157.771ZM270.224 148.24C292.818 148.182 315.125 149.438 332.516 152.563C346.229 155.234 359.792 159.401 364.76 163.115L367.37 167.266C362.927 162.328 346.214 157.646 331.453 155.026C314.198 152.052 292.818 150.875 270.224 150.688C246.51 150.755 224.599 152.203 207.594 155.302C191.37 158.391 180.906 162.042 176.474 164.896L178.771 161.427C184.885 158.214 194.76 155.255 207.198 152.839C224.323 149.719 246.375 148.307 270.224 148.24ZM325.479 270.823C305.016 267.005 284.51 266.448 270.193 266.615C201.208 267.427 178.927 280.781 176.208 284.823L171.052 276.422C188.615 263.693 226.177 256.552 270.563 257.281C293.615 257.662 313.505 259.188 330.234 262.432L325.479 270.823Z" fill="#FFFF00" stroke="black" stroke-width="0.643672" stroke-linecap="round" stroke-linejoin="round"/>
<path fill-rule="evenodd" clip-rule="evenodd" d="M269.797 265.432C288.984 265.719 307.818 266.511 326 269.901L324.682 272.224C307.797 269.109 289.797 267.917 269.859 268.011C244.401 267.813 218.651 270.193 196.234 276.625C189.162 278.594 177.453 283.141 176.255 286.896L174.948 284.74C175.323 282.516 182.401 277.906 195.635 274.193C221.313 266.839 245.328 265.599 269.797 265.427V265.432ZM270.667 255.776C290.547 256.146 311.078 257.068 331.031 261.021L329.662 263.438C311.641 259.859 294.422 258.667 270.781 258.302C245.245 258.349 218.151 260.172 193.521 267.333C185.568 269.651 171.844 274.656 171.385 278.62L170.078 276.302C170.375 272.698 182.255 268 192.948 264.891C217.771 257.677 244.927 255.823 270.667 255.776Z" fill="#FFFF00" stroke="black" stroke-width="0.617835" stroke-linecap="round" stroke-linejoin="round"/>
<path fill-rule="evenodd" clip-rule="evenodd" d="M368.646 277.698L360.359 290.557L336.542 269.406L274.76 227.844L205.115 189.651L168.953 177.281L176.656 162.995L179.276 161.568L201.745 167.182L275.885 205.375L318.568 232.339L354.516 258.172L369.12 275.021L368.646 277.698Z" fill="#FFFF00" stroke="black" stroke-width="0.643672" stroke-linecap="round" stroke-linejoin="round"/>
<path fill-rule="evenodd" clip-rule="evenodd" d="M167.651 177.62C173.99 173.318 220.604 194.083 269.375 223.49C318.016 252.984 364.495 286.307 360.297 292.547L358.917 294.714L358.287 295.214C358.422 295.115 359.12 294.26 358.219 291.948C356.146 285.13 323.172 258.823 268.469 225.792C215.141 193.99 170.693 174.823 166.25 180.302L167.651 177.62ZM370.344 277.516C374.354 269.594 331.12 237.026 277.521 205.318C222.688 174.24 183.167 155.943 175.948 161.401L174.344 164.318C174.333 164.479 174.401 164.12 174.745 163.859C176.052 162.714 178.229 162.792 179.214 162.771C191.641 162.958 227.141 179.297 276.948 207.849C298.771 220.557 369.141 265.693 368.875 278.38C368.891 279.474 368.964 279.698 368.552 280.24L370.344 277.516Z" fill="#FFFF00" stroke="black" stroke-width="0.643672" stroke-linecap="round" stroke-linejoin="round"/>
<path d="M203.542 236.844C203.542 255.12 211.026 271.651 223.151 283.734C235.297 295.839 251.807 303.479 270.115 303.479C288.516 303.479 305.219 296.005 317.313 283.948C329.412 271.885 336.906 255.24 336.912 236.901V147.943L203.526 147.786L203.536 236.844H203.542Z" fill="white" stroke="black" stroke-width="0.752635"/>
<path d="M206.036 236.964V237.016C206.036 254.49 213.271 270.406 224.88 281.958C236.51 293.537 252.526 300.734 270.052 300.734C287.667 300.734 303.651 293.589 315.234 282.057C326.813 270.526 333.99 254.609 333.995 237.073H333.99V150.771L206.109 150.75L206.031 236.964M308.281 176.589L308.287 231.51L308.24 237.318C308.24 238.849 308.146 240.589 307.969 242.073C306.932 250.755 302.938 258.328 297.021 264.214C290.099 271.104 280.542 275.38 270.01 275.38C259.531 275.38 250.193 270.958 243.24 264.037C236.109 256.938 231.974 247.203 231.974 237.135L231.958 176.448L308.281 176.589Z" fill="#FF0000"/>
<path d="M206.036 236.964V237.016C206.036 254.49 213.271 270.406 224.88 281.958C236.51 293.537 252.526 300.734 270.052 300.734C287.667 300.734 303.651 293.589 315.234 282.057C326.813 270.526 333.99 254.609 333.995 237.073H333.99V150.771L206.109 150.75L206.031 236.964M308.281 176.589L308.287 231.51L308.24 237.318C308.24 238.849 308.146 240.589 307.969 242.073C306.932 250.755 302.938 258.328 297.021 264.214C290.099 271.104 280.542 275.38 270.01 275.38C259.531 275.38 250.193 270.958 243.24 264.037C236.109 256.938 231.974 247.203 231.974 237.135L231.958 176.448L308.281 176.589Z" stroke="black" stroke-width="0.569531"/>
<path d="M214.312 173.281C214.464 167.083 218.865 165.615 218.896 165.594C218.927 165.573 223.651 167.172 223.635 173.339L214.312 173.281Z" fill="#FFFF00"/>
<path d="M210.516 165.714L209.75 172.839L214.401 172.849C214.448 166.953 218.865 165.974 218.974 165.995C219.073 165.99 223.453 167.297 223.573 172.849H228.234L227.391 165.667L210.516 165.708V165.714ZM209.438 172.87H228.474C228.875 172.87 229.203 173.266 229.203 173.75C229.203 174.229 228.875 174.625 228.474 174.625H209.438C209.037 174.625 208.708 174.234 208.708 173.75C208.708 173.266 209.037 172.87 209.438 172.87Z" fill="#FFFF00" stroke="black" stroke-width="0.561668"/>
<path d="M216.359 172.833C216.375 169.115 218.896 168.063 218.911 168.063C218.911 168.063 221.542 169.146 221.563 172.833H216.359ZM209.844 162.745H228.089C228.474 162.745 228.792 163.104 228.792 163.537C228.792 163.974 228.474 164.328 228.089 164.328H209.844C209.458 164.328 209.141 163.974 209.141 163.537C209.141 163.104 209.458 162.745 209.844 162.745ZM210.224 164.344H227.677C228.047 164.344 228.349 164.698 228.349 165.13C228.349 165.568 228.047 165.922 227.677 165.922H210.224C209.854 165.922 209.557 165.568 209.557 165.13C209.557 164.698 209.854 164.344 210.224 164.344ZM215.865 152.448H217.24V153.427H218.245V152.427L219.661 152.432V153.427H220.667V152.427H222.078V154.688C222.078 155.042 221.792 155.271 221.458 155.271H216.505C216.172 155.271 215.865 155.005 215.865 154.682L215.859 152.448H215.865ZM221.052 155.469L221.365 162.714L216.531 162.698L216.849 155.448L221.052 155.469Z" fill="#FFFF00" stroke="black" stroke-width="0.561668"/>
<path d="M215.156 158.828L215.302 162.734H210.667L210.797 158.828H215.156Z" fill="#FFFF00" stroke="black" stroke-width="0.561668"/>
<path d="M227.073 158.828L227.219 162.734H222.589L222.719 158.828H227.073Z" fill="#FFFF00" stroke="black" stroke-width="0.561668"/>
<path d="M209.943 155.995L211.292 156V156.979H212.276V155.974L213.656 155.979V156.979H214.646V155.974L216.026 155.979V158.24C216.026 158.594 215.745 158.823 215.422 158.823H210.573C210.25 158.823 209.948 158.557 209.943 158.229V155.995Z" fill="#FFFF00" stroke="black" stroke-width="0.561668"/>
<path d="M221.859 155.995L223.208 156V156.979H224.193V155.974L225.573 155.979V156.979H226.563V155.974L227.943 155.979V158.24C227.943 158.594 227.661 158.823 227.339 158.823H222.49C222.167 158.823 221.865 158.557 221.859 158.229V155.995Z" fill="#FFFF00" stroke="black" stroke-width="0.561668"/>
<path d="M218.479 157.76C218.453 157.057 219.464 157.047 219.453 157.76V159.484H218.479V157.76Z" fill="black"/>
<path d="M212.495 160.266C212.49 159.583 213.432 159.568 213.422 160.266V161.599H212.495V160.266Z" fill="black"/>
<path d="M224.448 160.266C224.443 159.583 225.385 159.568 225.375 160.266V161.599H224.448V160.266Z" fill="black"/>
<path d="M214.312 225.318C214.464 219.115 218.865 217.646 218.896 217.625C218.927 217.604 223.651 219.203 223.635 225.375L214.312 225.318Z" fill="#FFFF00"/>
<path d="M210.516 217.745L209.75 224.875L214.401 224.885C214.448 218.984 218.865 218.005 218.974 218.026C219.073 218.021 223.453 219.328 223.573 224.885H228.234L227.391 217.698L210.516 217.745ZM209.438 224.901H228.474C228.875 224.901 229.203 225.297 229.203 225.781C229.203 226.266 228.875 226.656 228.474 226.656H209.438C209.037 226.656 208.708 226.266 208.708 225.781C208.708 225.297 209.037 224.901 209.438 224.901Z" fill="#FFFF00" stroke="black" stroke-width="0.561668"/>
<path d="M216.359 224.865C216.375 221.146 218.896 220.094 218.911 220.094C218.911 220.094 221.542 221.182 221.563 224.865H216.359ZM209.844 214.781H228.089C228.474 214.781 228.792 215.135 228.792 215.573C228.792 216.005 228.474 216.365 228.089 216.365H209.844C209.458 216.365 209.141 216.01 209.141 215.573C209.141 215.135 209.458 214.781 209.844 214.781ZM210.224 216.375H227.677C228.047 216.375 228.349 216.729 228.349 217.167C228.349 217.599 228.047 217.958 227.677 217.958H210.224C209.854 217.958 209.557 217.599 209.557 217.167C209.557 216.729 209.854 216.375 210.224 216.375ZM215.865 204.479H217.24V205.458H218.245V204.458L219.661 204.464V205.458H220.667V204.458H222.078V206.719C222.078 207.073 221.792 207.302 221.458 207.302H216.505C216.172 207.302 215.865 207.036 215.865 206.714L215.859 204.479H215.865ZM221.052 207.5L221.365 214.745L216.531 214.729L216.849 207.479L221.052 207.5Z" fill="#FFFF00" stroke="black" stroke-width="0.561668"/>
<path d="M215.156 210.859L215.302 214.766H210.667L210.797 210.859H215.156Z" fill="#FFFF00" stroke="black" stroke-width="0.561668"/>
<path d="M227.073 210.859L227.219 214.766H222.589L222.719 210.859H227.073Z" fill="#FFFF00" stroke="black" stroke-width="0.561668"/>
<path d="M209.943 208.026L211.292 208.031V209.01H212.276V208.01L213.656 208.016V209.01H214.646V208.01H216.026V210.271C216.026 210.625 215.745 210.854 215.422 210.854H210.573C210.25 210.854 209.948 210.589 209.943 210.266V208.026Z" fill="#FFFF00" stroke="black" stroke-width="0.561668"/>
<path d="M221.859 208.026L223.208 208.031V209.01H224.193V208.01L225.573 208.016V209.01H226.563V208.01H227.943V210.271C227.943 210.625 227.661 210.854 227.339 210.854H222.49C222.167 210.854 221.865 210.589 221.859 210.266V208.026Z" fill="#FFFF00" stroke="black" stroke-width="0.561668"/>
<path d="M218.479 209.792C218.453 209.089 219.464 209.078 219.453 209.792V211.516H218.479V209.792Z" fill="black"/>
<path d="M212.495 212.297C212.49 211.615 213.432 211.604 213.422 212.297V213.63H212.495V212.297Z" fill="black"/>
<path d="M224.448 212.297C224.443 211.615 225.385 211.604 225.375 212.297V213.63H224.448V212.297Z" fill="black"/>
<path d="M234.599 279.479C230.307 275 232.365 270.844 232.375 270.807C232.38 270.766 236.844 268.547 241.208 272.901L234.599 279.479Z" fill="#FFFF00"/>
<path d="M226.552 276.839L231.073 282.401L234.354 279.11C230.203 274.922 232.62 271.094 232.714 271.037C232.781 270.958 236.792 268.771 240.818 272.604L244.104 269.292L238.411 264.828L226.552 276.833L226.552 276.839ZM230.87 282.641L244.286 269.136C244.568 268.849 245.078 268.896 245.422 269.24C245.766 269.578 245.812 270.089 245.531 270.375L232.12 283.88C231.833 284.167 231.323 284.125 230.979 283.781C230.635 283.443 230.589 282.927 230.87 282.641Z" fill="#FFFF00" stroke="black" stroke-width="0.561668"/>
<path d="M235.724 277.708C233.094 275.073 234.125 272.542 234.135 272.537C234.135 272.537 236.76 271.432 239.391 274.016L235.724 277.708ZM223.974 275.224L236.833 262.276C237.104 262.005 237.578 262.031 237.885 262.339C238.198 262.646 238.229 263.12 237.953 263.391L225.099 276.339C224.828 276.615 224.354 276.589 224.042 276.281C223.734 275.974 223.703 275.5 223.974 275.224ZM225.375 276.078L237.672 263.693C237.932 263.432 238.396 263.469 238.703 263.776C239.016 264.083 239.052 264.547 238.797 264.807L226.495 277.193C226.24 277.453 225.776 277.417 225.464 277.11C225.156 276.802 225.115 276.339 225.375 276.078ZM220.906 263.693L221.88 262.719L222.573 263.406L223.281 262.693L222.573 261.99L223.573 260.99L224.276 261.693L224.99 260.979L224.276 260.271L225.276 259.271L226.875 260.865C227.13 261.115 227.089 261.479 226.854 261.714L223.365 265.229C223.13 265.464 222.724 265.495 222.495 265.266L220.906 263.698L220.906 263.693ZM226.708 262.141L232.068 267.026L228.651 270.443L223.734 265.11L226.708 262.141Z" fill="#FFFF00" stroke="black" stroke-width="0.561668"/>
<path d="M224.937 268.693L227.812 271.339L224.547 274.63L221.865 271.781L224.937 268.693Z" fill="#FFFF00" stroke="black" stroke-width="0.561668"/>
<path d="M233.333 260.235L236.208 262.886L232.943 266.172L230.266 263.328L233.333 260.235Z" fill="#FFFF00" stroke="black" stroke-width="0.561668"/>
<path d="M219.255 270.396L220.208 269.443L220.901 270.13L221.594 269.432L220.885 268.729L221.859 267.75L222.568 268.453L223.266 267.755L222.552 267.047L223.531 266.068L225.13 267.662C225.38 267.912 225.349 268.271 225.12 268.5L221.703 271.938C221.474 272.172 221.073 272.198 220.844 271.969L219.255 270.396Z" fill="#FFFF00" stroke="black" stroke-width="0.561668"/>
<path d="M227.651 261.938L228.604 260.985L229.297 261.677L229.995 260.974L229.281 260.271L230.26 259.292L230.969 259.995L231.661 259.297L230.953 258.589L231.927 257.61L233.531 259.203C233.781 259.453 233.745 259.813 233.516 260.042L230.099 263.485C229.87 263.714 229.469 263.745 229.24 263.516L227.651 261.943L227.651 261.938Z" fill="#FFFF00" stroke="black" stroke-width="0.561668"/>
<path d="M226.521 265.578C226 265.104 226.708 264.38 227.208 264.891L228.432 266.104L227.745 266.797L226.521 265.578Z" fill="black"/>
<path d="M224.078 271.594C223.594 271.115 224.25 270.438 224.734 270.938L225.682 271.875L225.026 272.531L224.078 271.594Z" fill="black"/>
<path d="M232.505 263.115C232.016 262.635 232.672 261.958 233.156 262.453L234.104 263.396L233.448 264.052L232.505 263.115Z" fill="black"/>
<path d="M265.667 173.281C265.818 167.083 270.219 165.615 270.25 165.594C270.281 165.573 275 167.172 274.984 173.339L265.667 173.281Z" fill="#FFFF00"/>
<path d="M261.87 165.714L261.104 172.839L265.755 172.849C265.797 166.953 270.219 165.974 270.323 165.995C270.427 165.99 274.807 167.297 274.922 172.849H279.583L278.745 165.667L261.87 165.708V165.714ZM260.792 172.87H279.828C280.229 172.87 280.557 173.266 280.557 173.75C280.557 174.229 280.229 174.625 279.828 174.625H260.792C260.391 174.625 260.057 174.234 260.057 173.75C260.057 173.266 260.391 172.87 260.792 172.87Z" fill="#FFFF00" stroke="black" stroke-width="0.561668"/>
<path d="M267.708 172.833C267.729 169.115 270.25 168.063 270.266 168.063C270.266 168.063 272.896 169.146 272.917 172.833H267.708ZM261.193 162.745H279.443C279.828 162.745 280.141 163.104 280.141 163.537C280.141 163.974 279.828 164.328 279.443 164.328H261.193C260.813 164.328 260.495 163.974 260.495 163.537C260.495 163.104 260.807 162.745 261.193 162.745ZM261.578 164.344H279.031C279.396 164.344 279.698 164.698 279.698 165.13C279.698 165.568 279.396 165.922 279.031 165.922H261.578C261.208 165.922 260.906 165.568 260.906 165.13C260.906 164.698 261.208 164.344 261.578 164.344ZM267.214 152.448H268.594V153.427H269.599V152.427L271.01 152.432V153.427H272.021V152.427H273.432L273.427 154.688C273.427 155.042 273.146 155.271 272.813 155.271H267.859C267.526 155.271 267.219 155.005 267.219 154.682L267.214 152.448ZM272.406 155.469L272.719 162.714L267.88 162.698L268.203 155.448L272.406 155.469Z" fill="#FFFF00" stroke="black" stroke-width="0.561668"/>
<path d="M266.505 158.828L266.656 162.734H262.021L262.151 158.828H266.51H266.505Z" fill="#FFFF00" stroke="black" stroke-width="0.561668"/>
<path d="M278.427 158.828L278.573 162.734H273.938L274.068 158.828H278.427Z" fill="#FFFF00" stroke="black" stroke-width="0.561668"/>
<path d="M261.297 155.995L262.646 156V156.979H263.63V155.974L265.01 155.979V156.979H266V155.974L267.38 155.979L267.375 158.24C267.375 158.594 267.099 158.823 266.776 158.823H261.927C261.599 158.823 261.297 158.557 261.297 158.229L261.292 155.995H261.297Z" fill="#FFFF00" stroke="black" stroke-width="0.561668"/>
<path d="M273.214 155.995L274.563 156V156.979H275.547V155.974L276.927 155.979V156.979H277.917V155.974L279.297 155.979V158.24C279.297 158.594 279.016 158.823 278.693 158.823H273.844C273.516 158.823 273.214 158.557 273.214 158.229V155.995Z" fill="#FFFF00" stroke="black" stroke-width="0.561668"/>
<path d="M269.833 157.76C269.802 157.057 270.818 157.047 270.807 157.76V159.484H269.833V157.76Z" fill="black"/>
<path d="M263.844 160.266C263.844 159.583 264.786 159.568 264.771 160.266V161.599H263.844V160.266Z" fill="black"/>
<path d="M275.797 160.266C275.797 159.583 276.74 159.568 276.729 160.266V161.599H275.797V160.266Z" fill="black"/>
<path d="M325.984 173.281C325.833 167.083 321.432 165.615 321.401 165.594C321.37 165.573 316.651 167.172 316.667 173.339L325.984 173.281Z" fill="#FFFF00"/>
<path d="M329.781 165.714L330.547 172.839L325.896 172.849C325.854 166.953 321.432 165.974 321.328 165.995C321.224 165.99 316.844 167.297 316.729 172.849H312.068L312.906 165.667L329.781 165.708V165.714ZM330.859 172.87H311.823C311.422 172.87 311.094 173.266 311.094 173.75C311.094 174.229 311.422 174.625 311.823 174.625H330.859C331.26 174.625 331.594 174.234 331.594 173.75C331.594 173.266 331.26 172.87 330.859 172.87Z" fill="#FFFF00" stroke="black" stroke-width="0.561668"/>
<path d="M323.943 172.833C323.922 169.115 321.401 168.063 321.385 168.063C321.385 168.063 318.755 169.146 318.734 172.833H323.943ZM330.458 162.745H312.208C311.823 162.745 311.51 163.104 311.51 163.537C311.51 163.974 311.823 164.328 312.208 164.328H330.458C330.838 164.328 331.156 163.974 331.156 163.537C331.156 163.104 330.844 162.745 330.458 162.745ZM330.073 164.344H312.62C312.255 164.344 311.953 164.698 311.953 165.13C311.953 165.568 312.255 165.922 312.62 165.922H330.073C330.443 165.922 330.745 165.568 330.745 165.13C330.745 164.698 330.443 164.344 330.073 164.344ZM324.437 152.448H323.057V153.427H322.052V152.427L320.641 152.432V153.427H319.63V152.427H318.219L318.224 154.688C318.224 155.042 318.505 155.271 318.838 155.271H323.792C324.125 155.271 324.432 155.005 324.432 154.682L324.437 152.448ZM319.245 155.469L318.932 162.714L323.771 162.698L323.448 155.448L319.245 155.469Z" fill="#FFFF00" stroke="black" stroke-width="0.561668"/>
<path d="M325.146 158.828L324.995 162.734H329.63L329.5 158.828H325.141H325.146Z" fill="#FFFF00" stroke="black" stroke-width="0.561668"/>
<path d="M313.224 158.828L313.078 162.734H317.714L317.583 158.828H313.224Z" fill="#FFFF00" stroke="black" stroke-width="0.561668"/>
<path d="M330.354 155.995L329.005 156V156.979H328.021V155.974L326.641 155.979V156.979H325.651V155.974L324.271 155.979L324.276 158.24C324.276 158.594 324.552 158.823 324.875 158.823H329.724C330.052 158.823 330.354 158.557 330.354 158.229L330.359 155.995H330.354Z" fill="#FFFF00" stroke="black" stroke-width="0.561668"/>
<path d="M318.437 155.995L317.088 156V156.979H316.104V155.974L314.724 155.979V156.979H313.734V155.974L312.354 155.979V158.24C312.354 158.594 312.635 158.823 312.958 158.823H317.807C318.135 158.823 318.437 158.557 318.437 158.229V155.995Z" fill="#FFFF00" stroke="black" stroke-width="0.561668"/>
<path d="M321.818 157.76C321.849 157.057 320.833 157.047 320.844 157.76V159.484H321.818V157.76Z" fill="black"/>
<path d="M327.807 160.266C327.807 159.583 326.865 159.568 326.88 160.266V161.599H327.807V160.266Z" fill="black"/>
<path d="M315.854 160.266C315.854 159.583 314.911 159.568 314.922 160.266V161.599H315.854V160.266Z" fill="black"/>
<path d="M325.984 225.318C325.833 219.115 321.432 217.646 321.401 217.625C321.37 217.604 316.651 219.203 316.667 225.375L325.984 225.318Z" fill="#FFFF00"/>
<path d="M329.781 217.745L330.547 224.875L325.896 224.885C325.854 218.984 321.432 218.005 321.328 218.026C321.224 218.021 316.844 219.328 316.729 224.885H312.068L312.906 217.698L329.781 217.745ZM330.859 224.901H311.823C311.422 224.901 311.094 225.297 311.094 225.781C311.094 226.266 311.422 226.656 311.823 226.656H330.859C331.26 226.656 331.594 226.266 331.594 225.781C331.594 225.297 331.26 224.901 330.859 224.901Z" fill="#FFFF00" stroke="black" stroke-width="0.561668"/>
<path d="M323.943 224.865C323.922 221.146 321.401 220.094 321.385 220.094C321.385 220.094 318.755 221.182 318.734 224.865H323.943ZM330.458 214.781H312.208C311.823 214.781 311.51 215.135 311.51 215.573C311.51 216.005 311.823 216.365 312.208 216.365H330.458C330.838 216.365 331.156 216.01 331.156 215.573C331.156 215.135 330.844 214.781 330.458 214.781ZM330.073 216.375H312.62C312.255 216.375 311.953 216.729 311.953 217.167C311.953 217.599 312.255 217.958 312.62 217.958H330.073C330.443 217.958 330.745 217.599 330.745 217.167C330.745 216.729 330.443 216.375 330.073 216.375ZM324.437 204.479H323.057V205.458H322.052V204.458L320.641 204.464V205.458H319.63V204.458H318.219L318.224 206.719C318.224 207.073 318.505 207.302 318.838 207.302H323.792C324.125 207.302 324.432 207.036 324.432 206.714L324.437 204.479ZM319.245 207.5L318.932 214.745L323.771 214.729L323.448 207.479L319.245 207.5Z" fill="#FFFF00" stroke="black" stroke-width="0.561668"/>
<path d="M325.146 210.859L324.995 214.766H329.63L329.5 210.859H325.141H325.146Z" fill="#FFFF00" stroke="black" stroke-width="0.561668"/>
<path d="M313.224 210.859L313.078 214.766H317.714L317.583 210.859H313.224Z" fill="#FFFF00" stroke="black" stroke-width="0.561668"/>
<path d="M330.354 208.026L329.005 208.031V209.01H328.021V208.01L326.641 208.016V209.01H325.651V208.01H324.271L324.276 210.271C324.276 210.625 324.552 210.854 324.875 210.854H329.724C330.052 210.854 330.354 210.589 330.354 210.266L330.359 208.031L330.354 208.026Z" fill="#FFFF00" stroke="black" stroke-width="0.561668"/>
<path d="M318.437 208.026L317.088 208.031V209.01H316.104V208.01L314.724 208.016V209.01H313.734V208.01H312.354V210.271C312.354 210.625 312.635 210.854 312.958 210.854H317.807C318.135 210.854 318.437 210.589 318.437 210.266V208.026Z" fill="#FFFF00" stroke="black" stroke-width="0.561668"/>
<path d="M321.818 209.792C321.849 209.089 320.833 209.078 320.844 209.792V211.516H321.818V209.792Z" fill="black"/>
<path d="M327.807 212.297C327.807 211.615 326.865 211.604 326.88 212.297V213.63H327.807V212.297Z" fill="black"/>
<path d="M315.854 212.297C315.854 211.615 314.911 211.604 314.922 212.297V213.63H315.854V212.297Z" fill="black"/>
<path d="M305.698 279.479C309.99 275 307.932 270.844 307.927 270.807C307.917 270.766 303.453 268.547 299.089 272.901L305.698 279.479Z" fill="#FFFF00"/>
<path d="M313.745 276.839L309.229 282.401L305.943 279.11C310.099 274.922 307.677 271.094 307.589 271.037C307.521 270.958 303.505 268.771 299.484 272.604L296.198 269.292L301.885 264.828L313.745 276.833L313.745 276.839ZM309.427 282.641L296.016 269.136C295.734 268.849 295.219 268.896 294.875 269.24C294.531 269.578 294.484 270.089 294.766 270.375L308.182 283.88C308.464 284.167 308.974 284.125 309.318 283.781C309.661 283.443 309.708 282.927 309.427 282.641Z" fill="#FFFF00" stroke="black" stroke-width="0.561668"/>
<path d="M304.578 277.708C307.203 275.073 306.172 272.542 306.161 272.537C306.161 272.537 303.536 271.432 300.906 274.016L304.578 277.708ZM316.323 275.224L303.469 262.276C303.198 262.005 302.719 262.031 302.411 262.339C302.104 262.646 302.073 263.12 302.344 263.391L315.203 276.339C315.474 276.615 315.948 276.589 316.255 276.281C316.563 275.974 316.599 275.5 316.323 275.224ZM314.922 276.078L302.625 263.693C302.365 263.432 301.901 263.469 301.594 263.776C301.286 264.083 301.245 264.547 301.505 264.807L313.802 277.193C314.062 277.453 314.526 277.417 314.833 277.109C315.141 276.802 315.182 276.339 314.922 276.078ZM319.391 263.693L318.417 262.719L317.724 263.406L317.016 262.693L317.724 261.99L316.729 260.99L316.021 261.693L315.312 260.979L316.021 260.271L315.026 259.271L313.422 260.865C313.172 261.115 313.208 261.479 313.443 261.714L316.932 265.229C317.167 265.464 317.573 265.495 317.807 265.266L319.391 263.698L319.391 263.693ZM313.589 262.141L308.229 267.026L311.646 270.443L316.568 265.11L313.589 262.141Z" fill="#FFFF00" stroke="black" stroke-width="0.561668"/>
<path d="M315.365 268.693L312.49 271.339L315.75 274.63L318.432 271.781L315.365 268.693Z" fill="#FFFF00" stroke="black" stroke-width="0.561668"/>
<path d="M306.964 260.234L304.089 262.886L307.354 266.172L310.036 263.328L306.964 260.234Z" fill="#FFFF00" stroke="black" stroke-width="0.561668"/>
<path d="M321.047 270.396L320.094 269.443L319.396 270.13L318.703 269.432L319.411 268.729L318.437 267.75L317.729 268.453L317.031 267.755L317.745 267.047L316.771 266.068L315.167 267.662C314.917 267.912 314.953 268.271 315.177 268.5L318.594 271.938C318.823 272.172 319.224 272.198 319.458 271.969L321.047 270.396Z" fill="#FFFF00" stroke="black" stroke-width="0.561668"/>
<path d="M312.646 261.938L311.693 260.985L311 261.677L310.307 260.974L311.016 260.271L310.042 259.292L309.333 259.995L308.635 259.297L309.349 258.589L308.37 257.61L306.771 259.203C306.521 259.453 306.552 259.813 306.781 260.042L310.198 263.485C310.427 263.714 310.828 263.745 311.063 263.516L312.646 261.943L312.646 261.938Z" fill="#FFFF00" stroke="black" stroke-width="0.561668"/>
<path d="M313.776 265.578C314.297 265.104 313.589 264.38 313.094 264.891L311.87 266.104L312.552 266.797L313.776 265.578Z" fill="black"/>
<path d="M316.219 271.594C316.703 271.115 316.047 270.438 315.562 270.938L314.62 271.875L315.271 272.531L316.219 271.594Z" fill="black"/>
<path d="M307.797 263.115C308.281 262.635 307.625 261.958 307.141 262.453L306.198 263.396L306.849 264.052L307.797 263.115Z" fill="black"/>
<path d="M261.995 227.177V227.182C261.995 229.667 262.948 231.932 264.479 233.573C266.01 235.219 268.125 236.245 270.432 236.245C272.755 236.245 274.865 235.229 276.391 233.589C277.917 231.948 278.865 229.688 278.865 227.193V215.094L262.026 215.083L261.995 227.177Z" fill="#003399"/>
<path d="M267.526 219.682C267.526 219.906 267.484 220.12 267.396 220.323C267.313 220.526 267.193 220.708 267.036 220.865C266.88 221.021 266.698 221.141 266.495 221.224C266.292 221.307 266.078 221.354 265.854 221.354C265.635 221.354 265.422 221.307 265.219 221.224C265.01 221.141 264.833 221.021 264.677 220.865C264.521 220.708 264.401 220.526 264.313 220.323C264.229 220.12 264.188 219.906 264.188 219.682C264.188 219.464 264.229 219.25 264.313 219.042C264.401 218.839 264.521 218.661 264.677 218.5C264.833 218.344 265.01 218.224 265.219 218.141C265.422 218.057 265.635 218.016 265.854 218.016C266.078 218.016 266.292 218.057 266.495 218.141C266.698 218.224 266.88 218.344 267.036 218.5C267.193 218.661 267.313 218.839 267.396 219.042C267.484 219.25 267.526 219.464 267.526 219.682Z" fill="white"/>
<path d="M276.87 219.693C276.87 219.911 276.828 220.125 276.74 220.328C276.656 220.536 276.536 220.714 276.38 220.87C276.224 221.026 276.042 221.146 275.839 221.234C275.635 221.318 275.422 221.359 275.198 221.359C274.979 221.359 274.766 221.318 274.563 221.234C274.354 221.146 274.177 221.026 274.021 220.87C273.865 220.714 273.745 220.536 273.656 220.328C273.573 220.125 273.531 219.911 273.531 219.693C273.531 219.469 273.573 219.255 273.656 219.052C273.745 218.849 273.865 218.667 274.021 218.51C274.177 218.354 274.354 218.234 274.563 218.151C274.766 218.063 274.979 218.021 275.198 218.021C275.422 218.021 275.635 218.063 275.839 218.151C276.042 218.234 276.224 218.354 276.38 218.51C276.536 218.667 276.656 218.849 276.74 219.052C276.828 219.255 276.87 219.469 276.87 219.693Z" fill="white"/>
<path d="M272.187 224.177C272.187 224.396 272.146 224.609 272.062 224.813C271.974 225.021 271.854 225.198 271.698 225.354C271.542 225.516 271.365 225.635 271.156 225.719C270.953 225.802 270.74 225.844 270.521 225.844C270.297 225.844 270.083 225.802 269.88 225.719C269.677 225.635 269.495 225.516 269.339 225.354C269.182 225.198 269.062 225.021 268.979 224.813C268.891 224.609 268.849 224.396 268.849 224.177C268.849 223.953 268.891 223.74 268.979 223.536C269.062 223.333 269.182 223.151 269.339 222.995C269.495 222.839 269.677 222.719 269.88 222.635C270.083 222.547 270.297 222.505 270.521 222.505C270.74 222.505 270.953 222.547 271.156 222.635C271.365 222.719 271.542 222.839 271.698 222.995C271.854 223.151 271.974 223.333 272.062 223.536C272.146 223.74 272.187 223.953 272.187 224.177Z" fill="white"/>
<path d="M267.526 228.875C267.526 229.094 267.484 229.307 267.396 229.51C267.313 229.719 267.193 229.896 267.036 230.052C266.88 230.208 266.698 230.328 266.495 230.417C266.292 230.5 266.078 230.542 265.854 230.542C265.635 230.542 265.422 230.5 265.219 230.417C265.01 230.328 264.833 230.208 264.677 230.052C264.521 229.896 264.401 229.719 264.313 229.51C264.229 229.307 264.188 229.094 264.188 228.875C264.188 228.651 264.229 228.438 264.313 228.234C264.401 228.031 264.521 227.849 264.677 227.693C264.833 227.536 265.01 227.417 265.219 227.328C265.422 227.245 265.635 227.203 265.854 227.203C266.078 227.203 266.292 227.245 266.495 227.328C266.698 227.417 266.88 227.536 267.036 227.693C267.193 227.849 267.313 228.031 267.396 228.234C267.484 228.438 267.526 228.651 267.526 228.875Z" fill="white"/>
<path d="M276.859 228.859C276.859 229.083 276.818 229.297 276.734 229.5C276.646 229.703 276.526 229.885 276.37 230.042C276.214 230.198 276.031 230.318 275.828 230.401C275.625 230.49 275.411 230.531 275.187 230.531C274.969 230.531 274.755 230.49 274.552 230.401C274.349 230.318 274.167 230.198 274.01 230.042C273.854 229.885 273.734 229.703 273.646 229.5C273.562 229.297 273.521 229.083 273.521 228.859C273.521 228.641 273.562 228.427 273.646 228.224C273.734 228.016 273.854 227.839 274.01 227.682C274.167 227.526 274.349 227.401 274.552 227.318C274.755 227.234 274.969 227.193 275.187 227.193C275.411 227.193 275.625 227.234 275.828 227.318C276.031 227.401 276.214 227.526 276.37 227.682C276.526 227.839 276.646 228.016 276.734 228.224C276.818 228.427 276.859 228.641 276.859 228.859Z" fill="white"/>
<path d="M261.995 197.953V197.958C261.995 200.443 262.948 202.708 264.479 204.349C266.01 205.995 268.125 207.021 270.432 207.021C272.755 207.021 274.865 206.005 276.391 204.365C277.917 202.724 278.865 200.464 278.865 197.969V185.87L262.026 185.859L261.995 197.953Z" fill="#003399"/>
<path d="M267.526 190.458C267.526 190.677 267.484 190.891 267.396 191.099C267.313 191.302 267.193 191.484 267.036 191.641C266.88 191.797 266.698 191.917 266.495 192C266.292 192.083 266.078 192.125 265.854 192.125C265.635 192.125 265.422 192.083 265.219 192C265.01 191.917 264.833 191.797 264.677 191.641C264.521 191.484 264.401 191.302 264.313 191.099C264.229 190.891 264.188 190.677 264.188 190.458C264.188 190.234 264.229 190.026 264.313 189.818C264.401 189.615 264.521 189.432 264.677 189.276C264.833 189.12 265.01 189 265.219 188.917C265.422 188.833 265.635 188.786 265.854 188.786C266.078 188.786 266.292 188.833 266.495 188.917C266.698 189 266.88 189.12 267.036 189.276C267.193 189.432 267.313 189.615 267.396 189.818C267.484 190.026 267.526 190.234 267.526 190.458Z" fill="white"/>
<path d="M276.87 190.464C276.87 190.688 276.828 190.901 276.74 191.104C276.656 191.307 276.536 191.49 276.38 191.646C276.224 191.802 276.042 191.922 275.839 192.01C275.635 192.094 275.422 192.135 275.198 192.135C274.979 192.135 274.766 192.094 274.563 192.01C274.354 191.922 274.177 191.802 274.021 191.646C273.865 191.49 273.745 191.307 273.656 191.104C273.573 190.901 273.531 190.688 273.531 190.464C273.531 190.245 273.573 190.031 273.656 189.828C273.745 189.625 273.865 189.443 274.021 189.286C274.177 189.13 274.354 189.01 274.563 188.922C274.766 188.839 274.979 188.797 275.198 188.797C275.422 188.797 275.635 188.839 275.839 188.922C276.042 189.01 276.224 189.13 276.38 189.286C276.536 189.443 276.656 189.625 276.74 189.828C276.828 190.031 276.87 190.245 276.87 190.464Z" fill="white"/>
<path d="M272.187 194.953C272.187 195.172 272.146 195.385 272.062 195.589C271.974 195.797 271.854 195.974 271.698 196.13C271.542 196.286 271.365 196.411 271.156 196.495C270.953 196.578 270.74 196.62 270.521 196.62C270.297 196.62 270.083 196.578 269.88 196.495C269.677 196.411 269.495 196.286 269.339 196.13C269.182 195.974 269.062 195.797 268.979 195.589C268.891 195.385 268.849 195.172 268.849 194.953C268.849 194.729 268.891 194.516 268.979 194.313C269.062 194.109 269.182 193.927 269.339 193.771C269.495 193.615 269.677 193.495 269.88 193.411C270.083 193.323 270.297 193.281 270.521 193.281C270.74 193.281 270.953 193.323 271.156 193.411C271.365 193.495 271.542 193.615 271.698 193.771C271.854 193.927 271.974 194.109 272.062 194.313C272.146 194.516 272.187 194.729 272.187 194.953Z" fill="white"/>
<path d="M267.526 199.646C267.526 199.87 267.484 200.083 267.396 200.286C267.313 200.49 267.193 200.672 267.036 200.828C266.88 200.984 266.698 201.104 266.495 201.193C266.292 201.276 266.078 201.318 265.854 201.318C265.635 201.318 265.422 201.276 265.219 201.193C265.01 201.104 264.833 200.984 264.677 200.828C264.521 200.672 264.401 200.49 264.313 200.286C264.229 200.083 264.188 199.87 264.188 199.646C264.188 199.427 264.229 199.214 264.313 199.01C264.401 198.807 264.521 198.625 264.677 198.469C264.833 198.313 265.01 198.193 265.219 198.104C265.422 198.021 265.635 197.979 265.854 197.979C266.078 197.979 266.292 198.021 266.495 198.104C266.698 198.193 266.88 198.313 267.036 198.469C267.193 198.625 267.313 198.807 267.396 199.01C267.484 199.214 267.526 199.427 267.526 199.646Z" fill="white"/>
<path d="M276.859 199.635C276.859 199.859 276.818 200.068 276.734 200.276C276.646 200.479 276.526 200.661 276.37 200.818C276.214 200.974 276.031 201.094 275.828 201.177C275.625 201.26 275.411 201.307 275.187 201.307C274.969 201.307 274.755 201.26 274.552 201.177C274.349 201.094 274.167 200.974 274.01 200.818C273.854 200.661 273.734 200.479 273.646 200.276C273.562 200.068 273.521 199.859 273.521 199.635C273.521 199.417 273.562 199.203 273.646 198.995C273.734 198.792 273.854 198.615 274.01 198.453C274.167 198.297 274.349 198.177 274.552 198.094C274.755 198.01 274.969 197.969 275.187 197.969C275.411 197.969 275.625 198.01 275.828 198.094C276.031 198.177 276.214 198.297 276.37 198.453C276.526 198.615 276.646 198.792 276.734 198.995C276.818 199.203 276.859 199.417 276.859 199.635Z" fill="white"/>
<path d="M238.63 227.177V227.182C238.63 229.667 239.583 231.932 241.115 233.573C242.646 235.219 244.76 236.245 247.073 236.245C249.391 236.245 251.5 235.229 253.026 233.589C254.552 231.948 255.5 229.688 255.5 227.193V215.094L238.661 215.083L238.63 227.177Z" fill="#003399"/>
<path d="M244.161 219.682C244.161 219.906 244.12 220.12 244.036 220.323C243.948 220.526 243.828 220.708 243.672 220.865C243.516 221.021 243.333 221.141 243.13 221.224C242.927 221.307 242.714 221.354 242.49 221.354C242.271 221.354 242.057 221.307 241.854 221.224C241.651 221.141 241.469 221.021 241.312 220.865C241.156 220.708 241.036 220.526 240.948 220.323C240.865 220.12 240.823 219.906 240.823 219.682C240.823 219.464 240.865 219.25 240.948 219.042C241.036 218.839 241.156 218.661 241.312 218.5C241.469 218.344 241.646 218.224 241.854 218.141C242.057 218.057 242.271 218.016 242.49 218.016C242.714 218.016 242.927 218.057 243.13 218.141C243.333 218.224 243.516 218.344 243.672 218.5C243.828 218.661 243.948 218.839 244.036 219.042C244.12 219.25 244.161 219.464 244.161 219.682Z" fill="white"/>
<path d="M253.505 219.693C253.505 219.911 253.464 220.125 253.38 220.328C253.292 220.536 253.172 220.714 253.016 220.87C252.859 221.026 252.677 221.146 252.474 221.234C252.271 221.318 252.057 221.359 251.833 221.359C251.615 221.359 251.401 221.318 251.198 221.234C250.995 221.146 250.812 221.026 250.656 220.87C250.5 220.714 250.38 220.536 250.292 220.328C250.208 220.125 250.167 219.911 250.167 219.693C250.167 219.469 250.208 219.255 250.292 219.052C250.38 218.849 250.5 218.667 250.656 218.51C250.812 218.354 250.995 218.234 251.198 218.151C251.401 218.063 251.615 218.021 251.833 218.021C252.057 218.021 252.271 218.063 252.474 218.151C252.677 218.234 252.859 218.354 253.016 218.51C253.172 218.667 253.292 218.849 253.38 219.052C253.464 219.255 253.505 219.469 253.505 219.693Z" fill="white"/>
<path d="M248.823 224.177C248.823 224.396 248.781 224.609 248.698 224.813C248.615 225.021 248.49 225.198 248.333 225.354C248.177 225.516 248 225.635 247.792 225.719C247.589 225.802 247.375 225.844 247.156 225.844C246.932 225.844 246.719 225.802 246.516 225.719C246.312 225.635 246.13 225.516 245.974 225.354C245.818 225.198 245.698 225.021 245.615 224.813C245.526 224.609 245.484 224.396 245.484 224.177C245.484 223.953 245.526 223.74 245.615 223.536C245.698 223.333 245.818 223.151 245.974 222.995C246.13 222.839 246.312 222.719 246.516 222.635C246.719 222.547 246.932 222.505 247.156 222.505C247.375 222.505 247.589 222.547 247.792 222.635C248 222.719 248.177 222.839 248.333 222.995C248.49 223.151 248.615 223.333 248.698 223.536C248.781 223.74 248.823 223.953 248.823 224.177Z" fill="white"/>
<path d="M244.161 228.875C244.161 229.094 244.12 229.307 244.036 229.51C243.948 229.719 243.828 229.896 243.672 230.052C243.516 230.208 243.333 230.328 243.13 230.417C242.927 230.5 242.714 230.542 242.49 230.542C242.271 230.542 242.057 230.5 241.854 230.417C241.651 230.328 241.469 230.208 241.312 230.052C241.156 229.896 241.036 229.719 240.948 229.51C240.865 229.307 240.823 229.094 240.823 228.875C240.823 228.651 240.865 228.438 240.948 228.234C241.036 228.031 241.156 227.849 241.312 227.693C241.469 227.536 241.646 227.417 241.854 227.328C242.057 227.245 242.271 227.203 242.49 227.203C242.714 227.203 242.927 227.245 243.13 227.328C243.333 227.417 243.516 227.536 243.672 227.693C243.828 227.849 243.948 228.031 244.036 228.234C244.12 228.438 244.161 228.651 244.161 228.875Z" fill="white"/>
<path d="M253.495 228.859C253.495 229.083 253.453 229.297 253.37 229.5C253.281 229.703 253.161 229.885 253.005 230.042C252.849 230.198 252.667 230.318 252.464 230.401C252.26 230.49 252.047 230.531 251.828 230.531C251.604 230.531 251.391 230.49 251.188 230.401C250.984 230.318 250.802 230.198 250.646 230.042C250.49 229.885 250.37 229.703 250.281 229.5C250.198 229.297 250.156 229.083 250.156 228.859C250.156 228.641 250.198 228.427 250.281 228.224C250.37 228.016 250.49 227.839 250.646 227.682C250.802 227.526 250.984 227.401 251.188 227.318C251.391 227.234 251.604 227.193 251.828 227.193C252.047 227.193 252.26 227.234 252.464 227.318C252.667 227.401 252.849 227.526 253.005 227.682C253.161 227.839 253.281 228.016 253.37 228.224C253.453 228.427 253.495 228.641 253.495 228.859Z" fill="white"/>
<path d="M285.297 227.177V227.182C285.297 229.667 286.25 231.932 287.781 233.573C289.318 235.219 291.427 236.245 293.74 236.245C296.063 236.245 298.167 235.229 299.698 233.589C301.219 231.948 302.167 229.688 302.167 227.193V215.094L285.328 215.083L285.297 227.177Z" fill="#003399"/>
<path d="M290.828 219.682C290.828 219.906 290.786 220.12 290.703 220.323C290.615 220.526 290.495 220.708 290.339 220.865C290.182 221.021 290.005 221.141 289.797 221.224C289.594 221.307 289.38 221.354 289.161 221.354C288.938 221.354 288.724 221.307 288.521 221.224C288.318 221.141 288.135 221.021 287.979 220.865C287.823 220.708 287.703 220.526 287.62 220.323C287.531 220.12 287.49 219.906 287.49 219.682C287.49 219.464 287.531 219.25 287.62 219.042C287.703 218.839 287.823 218.661 287.979 218.5C288.135 218.344 288.318 218.224 288.521 218.141C288.724 218.057 288.938 218.016 289.161 218.016C289.38 218.016 289.594 218.057 289.797 218.141C290.005 218.224 290.182 218.344 290.339 218.5C290.495 218.661 290.615 218.839 290.703 219.042C290.786 219.25 290.828 219.464 290.828 219.682Z" fill="white"/>
<path d="M300.172 219.693C300.172 219.911 300.13 220.125 300.047 220.328C299.964 220.536 299.839 220.714 299.682 220.87C299.526 221.026 299.349 221.146 299.141 221.234C298.938 221.318 298.724 221.359 298.505 221.359C298.281 221.359 298.068 221.318 297.865 221.234C297.661 221.146 297.479 221.026 297.323 220.87C297.167 220.714 297.047 220.536 296.964 220.328C296.875 220.125 296.833 219.911 296.833 219.693C296.833 219.469 296.875 219.255 296.964 219.052C297.047 218.849 297.167 218.667 297.323 218.51C297.479 218.354 297.661 218.234 297.865 218.151C298.068 218.063 298.281 218.021 298.505 218.021C298.724 218.021 298.938 218.063 299.141 218.151C299.349 218.234 299.526 218.354 299.682 218.51C299.839 218.667 299.964 218.849 300.047 219.052C300.13 219.255 300.172 219.469 300.172 219.693Z" fill="white"/>
<path d="M295.49 224.177C295.49 224.396 295.448 224.609 295.365 224.813C295.281 225.021 295.161 225.198 295.005 225.354C294.849 225.516 294.667 225.635 294.464 225.719C294.255 225.802 294.042 225.844 293.823 225.844C293.599 225.844 293.391 225.802 293.182 225.719C292.979 225.635 292.797 225.516 292.641 225.354C292.484 225.198 292.365 225.021 292.281 224.813C292.198 224.609 292.151 224.396 292.151 224.177C292.151 223.953 292.198 223.74 292.281 223.536C292.365 223.333 292.484 223.151 292.641 222.995C292.797 222.839 292.979 222.719 293.182 222.635C293.391 222.547 293.599 222.505 293.823 222.505C294.042 222.505 294.255 222.547 294.464 222.635C294.667 222.719 294.849 222.839 295.005 222.995C295.161 223.151 295.281 223.333 295.365 223.536C295.448 223.74 295.49 223.953 295.49 224.177Z" fill="white"/>
<path d="M290.828 228.875C290.828 229.094 290.786 229.307 290.703 229.51C290.615 229.719 290.495 229.896 290.339 230.052C290.182 230.208 290.005 230.328 289.797 230.417C289.594 230.5 289.38 230.542 289.161 230.542C288.938 230.542 288.724 230.5 288.521 230.417C288.318 230.328 288.135 230.208 287.979 230.052C287.823 229.896 287.703 229.719 287.62 229.51C287.531 229.307 287.49 229.094 287.49 228.875C287.49 228.651 287.531 228.438 287.62 228.234C287.703 228.031 287.823 227.849 287.979 227.693C288.135 227.536 288.318 227.417 288.521 227.328C288.724 227.245 288.938 227.203 289.161 227.203C289.38 227.203 289.594 227.245 289.797 227.328C290.005 227.417 290.182 227.536 290.339 227.693C290.495 227.849 290.615 228.031 290.703 228.234C290.786 228.438 290.828 228.651 290.828 228.875Z" fill="white"/>
<path d="M300.161 228.859C300.161 229.083 300.12 229.297 300.036 229.5C299.953 229.703 299.828 229.885 299.672 230.042C299.516 230.198 299.339 230.318 299.13 230.401C298.927 230.49 298.714 230.531 298.495 230.531C298.271 230.531 298.057 230.49 297.854 230.401C297.651 230.318 297.469 230.198 297.312 230.042C297.156 229.885 297.036 229.703 296.953 229.5C296.865 229.297 296.823 229.083 296.823 228.859C296.823 228.641 296.865 228.427 296.953 228.224C297.036 228.016 297.156 227.839 297.312 227.682C297.469 227.526 297.651 227.401 297.854 227.318C298.057 227.234 298.271 227.193 298.495 227.193C298.714 227.193 298.927 227.234 299.13 227.318C299.339 227.401 299.516 227.526 299.672 227.682C299.828 227.839 299.953 228.016 300.036 228.224C300.12 228.427 300.161 228.641 300.161 228.859Z" fill="white"/>
<path d="M261.995 256.141V256.146C261.995 258.63 262.948 260.896 264.479 262.536C266.01 264.188 268.125 265.208 270.432 265.208C272.755 265.208 274.865 264.193 276.391 262.552C277.917 260.911 278.865 258.651 278.865 256.156V244.063L262.026 244.047L261.995 256.141Z" fill="#003399"/>
<path d="M267.526 248.646C267.526 248.87 267.484 249.083 267.396 249.286C267.313 249.49 267.193 249.672 267.036 249.828C266.88 249.984 266.698 250.104 266.495 250.188C266.292 250.276 266.078 250.318 265.854 250.318C265.635 250.318 265.422 250.276 265.219 250.188C265.01 250.104 264.833 249.984 264.677 249.828C264.521 249.672 264.401 249.49 264.313 249.286C264.229 249.083 264.188 248.87 264.188 248.646C264.188 248.427 264.229 248.214 264.313 248.01C264.401 247.802 264.521 247.625 264.677 247.469C264.833 247.313 265.01 247.188 265.219 247.104C265.422 247.021 265.635 246.979 265.854 246.979C266.078 246.979 266.292 247.021 266.495 247.104C266.698 247.188 266.88 247.313 267.036 247.469C267.193 247.625 267.313 247.802 267.396 248.01C267.484 248.214 267.526 248.427 267.526 248.646Z" fill="white"/>
<path d="M276.87 248.656C276.87 248.875 276.828 249.089 276.74 249.292C276.656 249.5 276.536 249.677 276.38 249.833C276.224 249.99 276.042 250.115 275.839 250.198C275.635 250.281 275.422 250.323 275.198 250.323C274.979 250.323 274.766 250.281 274.563 250.198C274.354 250.115 274.177 249.99 274.021 249.833C273.865 249.677 273.745 249.5 273.656 249.292C273.573 249.089 273.531 248.875 273.531 248.656C273.531 248.432 273.573 248.219 273.656 248.016C273.745 247.812 273.865 247.63 274.021 247.474C274.177 247.318 274.354 247.198 274.563 247.115C274.766 247.026 274.979 246.984 275.198 246.984C275.422 246.984 275.635 247.026 275.839 247.115C276.042 247.198 276.224 247.318 276.38 247.474C276.536 247.63 276.656 247.812 276.74 248.016C276.828 248.219 276.87 248.432 276.87 248.656Z" fill="white"/>
<path d="M272.187 253.141C272.187 253.359 272.146 253.573 272.062 253.781C271.974 253.984 271.854 254.167 271.698 254.323C271.542 254.479 271.365 254.599 271.156 254.682C270.953 254.766 270.74 254.807 270.521 254.807C270.297 254.807 270.083 254.766 269.88 254.682C269.677 254.599 269.495 254.479 269.339 254.323C269.182 254.167 269.062 253.984 268.979 253.781C268.891 253.573 268.849 253.359 268.849 253.141C268.849 252.917 268.891 252.708 268.979 252.5C269.062 252.297 269.182 252.115 269.339 251.958C269.495 251.802 269.677 251.682 269.88 251.599C270.083 251.516 270.297 251.469 270.521 251.469C270.74 251.469 270.953 251.516 271.156 251.599C271.365 251.682 271.542 251.802 271.698 251.958C271.854 252.115 271.974 252.297 272.062 252.5C272.146 252.708 272.187 252.917 272.187 253.141Z" fill="white"/>
<path d="M267.526 257.839C267.526 258.057 267.484 258.271 267.396 258.474C267.313 258.682 267.193 258.859 267.036 259.016C266.88 259.172 266.698 259.297 266.495 259.38C266.292 259.464 266.078 259.505 265.854 259.505C265.635 259.505 265.422 259.464 265.219 259.38C265.01 259.297 264.833 259.172 264.677 259.016C264.521 258.859 264.401 258.682 264.313 258.474C264.229 258.271 264.188 258.057 264.188 257.839C264.188 257.615 264.229 257.401 264.313 257.198C264.401 256.995 264.521 256.812 264.677 256.656C264.833 256.5 265.01 256.38 265.219 256.297C265.422 256.208 265.635 256.167 265.854 256.167C266.078 256.167 266.292 256.208 266.495 256.297C266.698 256.38 266.88 256.5 267.036 256.656C267.193 256.812 267.313 256.995 267.396 257.198C267.484 257.401 267.526 257.615 267.526 257.839Z" fill="white"/>
<path d="M276.859 257.823C276.859 258.047 276.818 258.26 276.734 258.464C276.646 258.667 276.526 258.849 276.37 259.005C276.214 259.161 276.031 259.281 275.828 259.365C275.625 259.453 275.411 259.495 275.187 259.495C274.969 259.495 274.755 259.453 274.552 259.365C274.349 259.281 274.167 259.161 274.01 259.005C273.854 258.849 273.734 258.667 273.646 258.464C273.562 258.26 273.521 258.047 273.521 257.823C273.521 257.604 273.562 257.391 273.646 257.188C273.734 256.979 273.854 256.802 274.01 256.646C274.167 256.49 274.349 256.365 274.552 256.281C274.755 256.198 274.969 256.156 275.187 256.156C275.411 256.156 275.625 256.198 275.828 256.281C276.031 256.365 276.214 256.49 276.37 256.646C276.526 256.802 276.646 256.979 276.734 257.188C276.818 257.391 276.859 257.604 276.859 257.823Z" fill="white"/>
</g>
<defs>
<clipPath id="clip0_0_1">
<rect width="900" height="450" fill="white"/>
</clipPath>
</defs>
</svg>
