<svg width="900" height="450" viewBox="0 0 900 450" fill="none" xmlns="http://www.w3.org/2000/svg">
<rect width="900" height="450" fill="#1E1E1E"/>
<g clip-path="url(#clip0_0_1)">
<mask id="mask0_0_1" style="mask-type:luminance" maskUnits="userSpaceOnUse" x="0" y="0" width="899" height="450">
<path d="M0 -3.37219e-06H898.667V450H0V-3.37219e-06Z" fill="white"/>
</mask>
<g mask="url(#mask0_0_1)">
<path d="M0 -3.37219e-06H898.667V450H0V-3.37219e-06Z" fill="white"/>
<path d="M0 -3.37219e-06H898.667V450H0V-3.37219e-06Z" fill="#0099FF"/>
</g>
<path d="M443.599 224.802C443.599 227.01 443.547 229.214 443.438 231.417C443.328 233.62 443.167 235.818 442.948 238.016C442.734 240.208 442.464 242.401 442.141 244.583C441.818 246.766 441.438 248.938 441.01 251.099C440.578 253.266 440.094 255.417 439.557 257.557C439.021 259.698 438.432 261.823 437.797 263.932C437.156 266.042 436.464 268.141 435.719 270.214C434.974 272.292 434.182 274.349 433.339 276.391C432.495 278.427 431.599 280.443 430.656 282.438C429.714 284.432 428.724 286.401 427.682 288.349C426.641 290.292 425.557 292.214 424.422 294.104C423.286 295.995 422.104 297.859 420.88 299.693C419.656 301.526 418.385 303.333 417.073 305.104C415.755 306.875 414.401 308.615 413 310.318C411.599 312.026 410.161 313.693 408.677 315.328C407.198 316.964 405.677 318.563 404.115 320.12C402.557 321.682 400.958 323.203 399.323 324.682C397.693 326.167 396.021 327.604 394.313 329.005C392.609 330.406 390.87 331.76 389.099 333.073C387.328 334.391 385.526 335.661 383.688 336.885C381.854 338.109 379.99 339.292 378.099 340.427C376.208 341.557 374.286 342.646 372.344 343.688C370.396 344.724 368.427 345.719 366.432 346.661C364.438 347.604 362.422 348.5 360.385 349.344C358.344 350.188 356.286 350.979 354.214 351.724C352.135 352.469 350.042 353.156 347.927 353.797C345.818 354.438 343.693 355.026 341.552 355.563C339.411 356.099 337.26 356.583 335.099 357.01C332.932 357.443 330.76 357.818 328.578 358.146C326.396 358.469 324.208 358.74 322.01 358.953C319.818 359.172 317.615 359.333 315.411 359.443C313.208 359.547 311.005 359.604 308.797 359.604C306.594 359.604 304.385 359.547 302.182 359.443C299.979 359.333 297.781 359.172 295.583 358.953C293.391 358.74 291.203 358.469 289.021 358.146C286.839 357.818 284.667 357.443 282.5 357.01C280.339 356.583 278.182 356.099 276.047 355.563C273.906 355.026 271.781 354.438 269.667 353.797C267.557 353.156 265.464 352.469 263.385 351.724C261.307 350.979 259.25 350.188 257.214 349.344C255.177 348.5 253.156 347.604 251.167 346.661C249.172 345.719 247.198 344.724 245.255 343.688C243.307 342.646 241.391 341.557 239.5 340.427C237.604 339.292 235.74 338.109 233.906 336.885C232.073 335.661 230.271 334.391 228.5 333.073C226.724 331.76 224.99 330.406 223.281 329.005C221.578 327.604 219.906 326.167 218.271 324.682C216.635 323.203 215.042 321.682 213.479 320.12C211.922 318.563 210.401 316.964 208.917 315.328C207.438 313.693 205.995 312.026 204.599 310.318C203.198 308.615 201.839 306.875 200.526 305.104C199.214 303.333 197.943 301.526 196.719 299.693C195.49 297.859 194.312 295.995 193.177 294.104C192.042 292.214 190.953 290.292 189.917 288.349C188.875 286.401 187.885 284.432 186.943 282.438C185.995 280.443 185.104 278.427 184.26 276.391C183.417 274.349 182.62 272.292 181.88 270.214C181.135 268.141 180.443 266.042 179.802 263.932C179.161 261.823 178.573 259.698 178.036 257.557C177.5 255.417 177.021 253.266 176.589 251.099C176.156 248.938 175.781 246.766 175.458 244.583C175.135 242.401 174.865 240.208 174.646 238.016C174.432 235.818 174.271 233.62 174.161 231.417C174.052 229.214 174 227.01 174 224.802C174 222.599 174.052 220.391 174.161 218.188C174.271 215.984 174.432 213.786 174.646 211.589C174.865 209.396 175.135 207.203 175.458 205.021C175.781 202.839 176.156 200.667 176.589 198.505C177.021 196.339 177.5 194.188 178.036 192.047C178.573 189.906 179.161 187.781 179.802 185.672C180.443 183.563 181.135 181.469 181.88 179.391C182.62 177.313 183.417 175.255 184.26 173.219C185.104 171.177 185.995 169.161 186.943 167.167C187.885 165.172 188.875 163.203 189.917 161.26C190.953 159.313 192.042 157.396 193.177 155.5C194.312 153.609 195.49 151.745 196.719 149.911C197.943 148.078 199.214 146.276 200.526 144.5C201.839 142.729 203.198 140.99 204.599 139.286C205.995 137.583 207.438 135.911 208.917 134.276C210.401 132.641 211.922 131.047 213.479 129.484C215.042 127.922 216.635 126.406 218.271 124.922C219.906 123.443 221.578 122 223.281 120.599C224.99 119.203 226.724 117.844 228.5 116.531C230.271 115.214 232.073 113.948 233.906 112.719C235.74 111.495 237.604 110.313 239.5 109.182C241.391 108.047 243.307 106.958 245.255 105.922C247.198 104.88 249.172 103.885 251.167 102.943C253.156 102 255.177 101.109 257.214 100.266C259.25 99.4167 261.307 98.625 263.385 97.8802C265.464 97.1406 267.557 96.4479 269.667 95.8073C271.781 95.1667 273.906 94.5781 276.047 94.0417C278.182 93.5052 280.339 93.0208 282.5 92.5938C284.667 92.1615 286.839 91.7865 289.021 91.4635C291.203 91.1354 293.391 90.8698 295.583 90.651C297.781 90.4375 299.979 90.2708 302.182 90.1667C304.385 90.0573 306.594 90 308.797 90C311.005 90 313.208 90.0573 315.411 90.1667C317.615 90.2708 319.818 90.4375 322.01 90.651C324.208 90.8698 326.396 91.1354 328.578 91.4635C330.76 91.7865 332.932 92.1615 335.099 92.5938C337.26 93.0208 339.411 93.5052 341.552 94.0417C343.693 94.5781 345.818 95.1667 347.927 95.8073C350.042 96.4479 352.135 97.1406 354.214 97.8802C356.286 98.625 358.344 99.4167 360.385 100.266C362.422 101.109 364.438 102 366.432 102.943C368.427 103.885 370.396 104.88 372.344 105.922C374.286 106.958 376.208 108.047 378.099 109.182C379.99 110.313 381.854 111.495 383.688 112.719C385.526 113.948 387.328 115.214 389.099 116.531C390.87 117.844 392.609 119.203 394.313 120.599C396.021 122 397.693 123.443 399.323 124.922C400.958 126.406 402.557 127.922 404.115 129.484C405.677 131.047 407.198 132.641 408.677 134.276C410.161 135.911 411.599 137.583 413 139.286C414.401 140.99 415.755 142.729 417.073 144.5C418.385 146.276 419.656 148.078 420.88 149.911C422.104 151.745 423.286 153.609 424.422 155.5C425.557 157.396 426.641 159.313 427.682 161.26C428.724 163.203 429.714 165.172 430.656 167.167C431.599 169.161 432.495 171.177 433.339 173.219C434.182 175.255 434.974 177.313 435.719 179.391C436.464 181.469 437.156 183.563 437.797 185.672C438.432 187.781 439.021 189.906 439.557 192.047C440.094 194.188 440.578 196.339 441.01 198.505C441.438 200.667 441.818 202.839 442.141 205.021C442.464 207.203 442.734 209.396 442.948 211.589C443.167 213.786 443.328 215.984 443.438 218.188C443.547 220.391 443.599 222.599 443.599 224.802Z" fill="#FFFF00"/>
</g>
<defs>
<clipPath id="clip0_0_1">
<rect width="900" height="450" fill="white"/>
</clipPath>
</defs>
</svg>
