<svg width="900" height="450" viewBox="0 0 900 450" fill="none" xmlns="http://www.w3.org/2000/svg">
<g clip-path="url(#clip0_765_8398)">
<path d="M900 0H0V450H900V0Z" fill="#1E1E1E"/>
<mask id="mask0_765_8398" style="mask-type:luminance" maskUnits="userSpaceOnUse" x="0" y="0" width="900" height="450">
<path d="M900 0H0V450H900V0Z" fill="white"/>
</mask>
<g mask="url(#mask0_765_8398)">
<mask id="mask1_765_8398" style="mask-type:luminance" maskUnits="userSpaceOnUse" x="0" y="0" width="900" height="450">
<path d="M0 0H900V449.333H0V0Z" fill="white"/>
</mask>
<g mask="url(#mask1_765_8398)">
<path d="M0 0H900V449.333H0V0Z" fill="white"/>
<path d="M0 0H900V449.333H0V0Z" fill="white"/>
</g>
<mask id="mask2_765_8398" style="mask-type:luminance" maskUnits="userSpaceOnUse" x="0" y="0" width="900" height="450">
<path d="M0 0H900V449.333H0V0Z" fill="white"/>
</mask>
<g mask="url(#mask2_765_8398)">
<path d="M0 0.00520496H900V449.333H0V0.00520496Z" fill="#0038A8"/>
</g>
<mask id="mask3_765_8398" style="mask-type:luminance" maskUnits="userSpaceOnUse" x="0" y="0" width="900" height="300">
<path d="M0 0H900V300H0V0Z" fill="white"/>
</mask>
<g mask="url(#mask3_765_8398)">
<path d="M0 0.00520496H900V299.557H0V0.00520496Z" fill="white"/>
</g>
<mask id="mask4_765_8398" style="mask-type:luminance" maskUnits="userSpaceOnUse" x="0" y="0" width="900" height="151">
<path d="M0 0H900V150.667H0V0Z" fill="white"/>
</mask>
<g mask="url(#mask4_765_8398)">
<path d="M0 0.00520496H900V149.781H0V0.00520496Z" fill="#D52B1E"/>
</g>
<path d="M502.766 224.651C502.766 226.516 502.677 228.38 502.495 230.234C502.313 232.094 502.037 233.932 501.672 235.766C501.313 237.594 500.86 239.401 500.318 241.188C499.776 242.974 499.151 244.724 498.438 246.448C497.724 248.172 496.927 249.859 496.047 251.505C495.172 253.146 494.214 254.745 493.177 256.297C492.141 257.849 491.032 259.344 489.849 260.786C488.667 262.229 487.417 263.609 486.099 264.932C484.776 266.25 483.396 267.5 481.959 268.682C480.516 269.87 479.021 270.979 477.469 272.016C475.917 273.052 474.323 274.01 472.677 274.891C471.031 275.771 469.349 276.568 467.625 277.281C465.901 277.995 464.151 278.625 462.365 279.167C460.578 279.708 458.771 280.161 456.943 280.526C455.115 280.891 453.271 281.161 451.417 281.344C449.558 281.526 447.698 281.62 445.834 281.62C443.969 281.62 442.11 281.531 440.255 281.349C438.396 281.167 436.552 280.891 434.724 280.526C432.896 280.167 431.089 279.714 429.302 279.172C427.521 278.63 425.766 278 424.042 277.286C422.318 276.573 420.636 275.776 418.99 274.901C417.344 274.021 415.745 273.063 414.198 272.026C412.646 270.99 411.151 269.88 409.709 268.698C408.266 267.516 406.886 266.266 405.568 264.943C404.245 263.625 402.995 262.245 401.813 260.802C400.63 259.359 399.521 257.865 398.485 256.313C397.448 254.766 396.49 253.167 395.61 251.521C394.729 249.875 393.932 248.193 393.219 246.469C392.505 244.745 391.88 242.99 391.339 241.203C390.797 239.422 390.344 237.615 389.979 235.781C389.615 233.953 389.339 232.109 389.156 230.255C388.974 228.396 388.886 226.536 388.886 224.672C388.886 222.807 388.974 220.948 389.156 219.089C389.339 217.234 389.615 215.391 389.974 213.563C390.339 211.729 390.792 209.922 391.334 208.141C391.875 206.354 392.5 204.599 393.214 202.875C393.927 201.151 394.724 199.469 395.604 197.823C396.485 196.177 397.443 194.578 398.479 193.026C399.516 191.479 400.625 189.979 401.808 188.536C402.99 187.099 404.24 185.714 405.558 184.396C406.88 183.078 408.261 181.828 409.698 180.641C411.141 179.458 412.636 178.349 414.188 177.313C415.74 176.276 417.339 175.318 418.979 174.437C420.625 173.562 422.308 172.766 424.031 172.052C425.755 171.333 427.511 170.708 429.297 170.167C431.078 169.625 432.886 169.172 434.714 168.807C436.542 168.443 438.386 168.172 440.245 167.99C442.099 167.807 443.959 167.714 445.823 167.714C447.688 167.714 449.547 167.807 451.406 167.99C453.261 168.172 455.104 168.443 456.933 168.807C458.761 169.172 460.568 169.625 462.349 170.167C464.136 170.708 465.891 171.333 467.61 172.047C469.334 172.76 471.016 173.557 472.662 174.437C474.308 175.318 475.907 176.276 477.453 177.307C479.005 178.344 480.5 179.453 481.943 180.635C483.386 181.823 484.766 183.073 486.084 184.391C487.401 185.708 488.651 187.089 489.834 188.531C491.016 189.974 492.125 191.469 493.162 193.016C494.198 194.568 495.157 196.167 496.037 197.813C496.917 199.453 497.714 201.141 498.427 202.859C499.141 204.583 499.771 206.339 500.313 208.125C500.849 209.906 501.302 211.714 501.667 213.542C502.032 215.37 502.308 217.214 502.49 219.073C502.672 220.927 502.766 222.786 502.766 224.651Z" fill="white" stroke="black" stroke-width="2.50985" stroke-miterlimit="10"/>
<path d="M473.354 215.828C471.974 215.776 471.964 217.302 471.964 217.302C471.964 217.302 472.011 216.849 471.974 217.359C471.948 217.865 472.198 219.099 473.219 219.198C474.297 219.292 474.657 218.036 474.667 217.422C474.667 217.182 474.589 215.859 473.354 215.828Z" fill="#009B3A" stroke="black" stroke-width="0.670519"/>
<path d="M410.099 247.453L409.615 246.646C409.5 246.479 409.375 246.328 409.234 246.182C409.13 246.073 409.005 246.01 408.854 246C408.698 245.974 408.547 246.005 408.411 246.089C408.224 246.188 408.115 246.339 408.078 246.547C408.073 246.854 408.161 247.125 408.344 247.365L408.839 248.208L410.099 247.453ZM414.922 247.172L408.724 250.859L406.833 247.682C406.547 247.229 406.333 246.75 406.188 246.234C406.094 245.859 406.13 245.495 406.297 245.146C406.479 244.76 406.755 244.458 407.13 244.255C407.443 244.063 407.776 243.958 408.141 243.943C408.484 243.943 408.807 244.026 409.109 244.193C409.349 244.333 409.568 244.51 409.76 244.714C409.703 244.505 409.677 244.292 409.682 244.078C409.724 243.906 409.771 243.745 409.833 243.578C409.896 243.411 409.964 243.245 410.047 243.083L411.297 241.089L412.573 243.255L411.297 245.406C411.167 245.594 411.073 245.807 411.026 246.031C411.016 246.229 411.062 246.411 411.156 246.583L411.266 246.755L413.776 245.26L414.922 247.172ZM404.016 242.13L402.125 236.479L403.583 235.99L404.766 239.531L405.859 239.161L404.745 235.875L406.146 235.417L407.245 238.688L408.589 238.255L407.38 234.609L408.927 234.083L410.844 239.839L404.016 242.13ZM404.219 230.625L404.146 230.094C404.141 229.766 404.036 229.474 403.823 229.219C403.651 229.063 403.443 229 403.214 229.031C402.995 229.057 402.818 229.151 402.672 229.313C402.505 229.583 402.458 229.875 402.542 230.182L402.604 230.818L404.219 230.625ZM401.417 233.203L400.99 229.531C400.865 228.865 400.984 228.245 401.344 227.672C401.75 227.182 402.271 226.922 402.906 226.885C403.562 226.771 404.151 226.917 404.677 227.333C405.203 227.865 405.484 228.505 405.516 229.255L405.651 230.464L408.307 230.156L408.568 232.375L401.417 233.203ZM401.167 219.151L401.396 216.938L405.672 217.401C406.078 217.448 406.469 217.557 406.839 217.729C407.208 217.896 407.516 218.135 407.766 218.458C408 218.74 408.167 219.057 408.266 219.411C408.385 219.932 408.406 220.458 408.333 220.984C408.292 221.365 408.229 221.74 408.135 222.109C408.063 222.469 407.927 222.802 407.729 223.109C407.542 223.391 407.312 223.625 407.036 223.813C406.771 224 406.479 224.125 406.161 224.188C405.75 224.276 405.344 224.302 404.927 224.266L400.672 223.813L400.901 221.599L405.266 222.073C405.432 222.109 405.599 222.104 405.76 222.068C405.927 222.026 406.073 221.953 406.208 221.849C406.339 221.745 406.443 221.615 406.521 221.464C406.599 221.313 406.635 221.156 406.646 220.984C406.703 220.641 406.625 220.328 406.411 220.052C406.182 219.786 405.885 219.641 405.531 219.63L401.167 219.151ZM408.333 213.099L408.714 212.031C408.833 211.76 408.854 211.479 408.781 211.193C408.703 210.99 408.557 210.859 408.344 210.797C408.151 210.719 407.964 210.734 407.781 210.844C407.547 211.026 407.396 211.26 407.323 211.547L406.943 212.62L408.333 213.099ZM405.661 212.161L405.984 211.255C406.094 211.016 406.115 210.766 406.042 210.51C405.964 210.318 405.828 210.198 405.625 210.156C405.448 210.078 405.271 210.089 405.099 210.177C404.896 210.333 404.766 210.536 404.703 210.786L404.365 211.719L405.661 212.161ZM402.255 213.359L403.625 209.417C403.792 208.839 404.135 208.391 404.651 208.078C405.099 207.833 405.563 207.802 406.042 207.974C406.427 208.115 406.729 208.365 406.938 208.719C406.88 208.818 406.849 208.932 406.849 209.047C406.849 209.167 406.875 209.276 406.932 209.38C406.99 209.484 407.068 209.568 407.172 209.625C407.271 209.688 407.38 209.719 407.5 209.724C407.615 209.729 407.729 209.703 407.833 209.646C407.938 209.589 408.021 209.51 408.083 209.411C408.146 209.313 408.182 209.203 408.188 209.083C408.193 208.969 408.167 208.854 408.115 208.75C408.521 208.615 408.922 208.625 409.323 208.776C409.661 208.891 409.948 209.083 410.182 209.349C410.396 209.62 410.542 209.922 410.609 210.26C410.641 210.552 410.62 210.844 410.552 211.13C410.438 211.635 410.37 211.958 410.313 212.104L409.047 215.734L402.255 213.359ZM405.927 204.13L407.089 202.229L411.729 205.036L413.531 202.073L415.042 202.995L412.099 207.859L405.927 204.13ZM410.682 197.047L412.109 195.344L417.604 199.99L416.172 201.688L410.682 197.047ZM420.656 193.172L422.531 192.375C422.76 192.828 422.896 193.313 422.927 193.828C422.943 194.281 422.854 194.719 422.661 195.135C422.391 195.609 422.042 196.021 421.615 196.37C421.115 196.807 420.552 197.13 419.917 197.333C419.318 197.469 418.729 197.432 418.151 197.229C417.422 196.953 416.818 196.505 416.339 195.891C415.625 195.125 415.286 194.219 415.318 193.172C415.401 192.75 415.542 192.344 415.75 191.964C415.953 191.583 416.208 191.24 416.516 190.938C416.823 190.635 417.172 190.385 417.552 190.188C417.938 189.984 418.344 189.849 418.766 189.771C419.484 189.734 420.141 189.917 420.734 190.323L419.5 191.917C419.359 191.813 419.198 191.734 419.026 191.688C418.828 191.625 418.63 191.625 418.427 191.682C418.224 191.724 418.042 191.818 417.885 191.953C417.479 192.26 417.313 192.667 417.38 193.167C417.479 193.656 417.703 194.083 418.042 194.448C418.375 194.932 418.823 195.276 419.375 195.474C419.557 195.5 419.74 195.484 419.917 195.438C420.099 195.391 420.26 195.312 420.411 195.198C420.557 195.089 420.677 194.953 420.776 194.792C420.87 194.635 420.932 194.464 420.958 194.281C420.958 193.885 420.859 193.516 420.667 193.172M427.948 188.849L426.068 186.901L426.542 189.573L427.948 188.849ZM429.068 190.031L426.813 191.177L427.042 192.396L425.021 193.427L424.161 185.781L426.328 184.677L432.005 189.865L429.938 190.922L429.068 190.031ZM437.818 182.526L438.37 186.411L438.911 186.333C439.26 186.313 439.583 186.214 439.88 186.047C440.078 185.885 440.203 185.682 440.255 185.438C440.339 185.016 440.339 184.599 440.255 184.182C440.229 183.615 440.036 183.115 439.667 182.688C439.271 182.411 438.839 182.333 438.375 182.448L437.818 182.526ZM435.396 181.224L438.667 180.755C439.198 180.661 439.724 180.672 440.25 180.792C440.672 180.906 441.036 181.109 441.354 181.406C441.672 181.708 441.911 182.063 442.078 182.464C442.266 182.901 442.391 183.354 442.448 183.828C442.573 184.427 442.568 185.026 442.443 185.625C442.339 186.057 442.151 186.448 441.875 186.792C441.63 187.104 441.323 187.333 440.964 187.495C440.547 187.682 440.12 187.813 439.667 187.885L436.391 188.349L435.396 181.224ZM445.193 179.828L451.13 180.271L451.021 181.802L447.302 181.526L447.219 182.667L450.667 182.922L450.542 184.38L447.109 184.135L447.01 185.542L450.833 185.823L450.714 187.448L444.661 187L445.193 179.828ZM454.344 180.667L456.484 181.266L455.005 186.495L458.344 187.443L457.859 189.135L452.375 187.583L454.344 180.667ZM466.49 188.656L466.948 188.953C467.203 189.156 467.495 189.26 467.818 189.266C468.052 189.245 468.229 189.135 468.349 188.932C468.474 188.745 468.516 188.542 468.484 188.323C468.375 188.031 468.182 187.813 467.901 187.667L467.37 187.313L466.49 188.656ZM466.313 184.865L469.401 186.906C470 187.234 470.391 187.729 470.589 188.38C470.714 189.005 470.578 189.573 470.188 190.083C469.854 190.656 469.365 191.01 468.708 191.135C467.964 191.203 467.292 191.01 466.703 190.552L465.682 189.875L464.224 192.104L462.359 190.87L466.313 184.865ZM474.12 195.839L475.375 193.443L472.99 194.729L474.12 195.839ZM473.359 197.271L471.552 195.495L470.464 196.094L468.849 194.5L472.172 192.969L475.833 191.271L477.557 192.974L474.422 200.01L472.771 198.37L473.359 197.271ZM480.042 200.391L480.552 201.193C480.667 201.354 480.802 201.505 480.948 201.641C481.057 201.745 481.182 201.802 481.333 201.813C481.49 201.828 481.635 201.792 481.76 201.703C481.943 201.599 482.057 201.443 482.094 201.234C482.083 200.932 481.984 200.667 481.797 200.432L481.281 199.609L480.042 200.391ZM475.229 200.818L481.297 196.948L483.292 200.068C483.589 200.51 483.828 200.979 484.005 201.484C484.094 201.859 484.063 202.224 483.911 202.573C483.745 202.964 483.479 203.271 483.115 203.49C482.813 203.703 482.474 203.818 482.104 203.828C481.76 203.839 481.432 203.771 481.125 203.63C480.885 203.484 480.667 203.313 480.469 203.12C480.526 203.323 480.557 203.531 480.563 203.745C480.531 203.917 480.49 204.083 480.438 204.245C480.385 204.422 480.313 204.589 480.219 204.755L479.047 206.786L477.688 204.661L478.911 202.484C479.042 202.292 479.125 202.073 479.151 201.839C479.172 201.641 479.12 201.458 479 201.297L478.901 201.13L476.438 202.703L475.229 200.818ZM483.74 210.516L485.896 208.885L483.198 209.036L483.74 210.516ZM482.432 211.479L481.568 209.094L480.339 209.182L479.557 207.047L487.25 207.135L488.078 209.406L482.24 214.411L481.438 212.214L482.432 211.479ZM485.875 219.135L487.354 218.938L487.786 222.37L484.74 222.74C484.286 222.255 483.917 221.714 483.625 221.12C483.37 220.563 483.214 219.979 483.151 219.365C483.026 218.641 483.083 217.932 483.333 217.24C483.563 216.651 483.938 216.177 484.464 215.823C485.042 215.443 485.677 215.219 486.37 215.141C487.089 215.031 487.786 215.109 488.464 215.375C489.094 215.625 489.589 216.042 489.953 216.615C490.297 217.208 490.49 217.849 490.542 218.531C490.651 219.125 490.656 219.724 490.547 220.323C490.469 220.729 490.286 221.083 490 221.385C489.708 221.708 489.354 221.948 488.943 222.104L488.297 220.031C488.547 219.917 488.734 219.74 488.859 219.5C488.979 219.24 489.016 218.964 488.974 218.677C488.927 218.214 488.714 217.849 488.328 217.578C487.802 217.302 487.25 217.229 486.672 217.349C486.063 217.375 485.526 217.583 485.068 217.984C484.766 218.365 484.651 218.797 484.729 219.276C484.755 219.516 484.823 219.74 484.922 219.958C485.052 220.219 485.203 220.469 485.38 220.698L486.063 220.604L485.875 219.135ZM490.432 229.927L490.177 232.135L485.922 231.656C485.51 231.615 485.12 231.5 484.745 231.323C484.385 231.151 484.078 230.906 483.828 230.589C483.599 230.313 483.432 229.995 483.339 229.646C483.224 229.125 483.203 228.594 483.276 228.063C483.323 227.719 483.391 227.339 483.474 226.932C483.552 226.573 483.693 226.24 483.896 225.938C484.083 225.667 484.313 225.432 484.583 225.245C484.854 225.063 485.146 224.938 485.464 224.875C485.875 224.786 486.286 224.76 486.698 224.807L490.964 225.292L490.708 227.495L486.354 226.99C486.005 226.932 485.682 227.005 485.396 227.214C485.13 227.438 484.99 227.724 484.974 228.073C484.911 228.417 484.984 228.724 485.198 229.005C485.427 229.271 485.719 229.417 486.068 229.448L490.432 229.927ZM483.807 238.12L486.516 238.219L484.328 236.62L483.807 238.12ZM482.198 238.036L483.016 235.651L482.01 234.932L482.76 232.781L488.677 237.698L487.859 240L480.198 240.188L480.953 237.984L482.198 238.036ZM486.172 244.667L484.917 246.792L482.083 246.802L483.443 249.292L482.198 251.396L480.01 246.865L477.417 245.333L478.552 243.411L481.146 244.948L486.172 244.667Z" fill="black"/>
<path d="M493.479 224.667C493.479 226.229 493.401 227.786 493.25 229.339C493.094 230.896 492.87 232.438 492.563 233.969C492.261 235.5 491.88 237.016 491.427 238.51C490.974 240 490.448 241.469 489.854 242.911C489.255 244.354 488.589 245.766 487.854 247.146C487.12 248.521 486.318 249.859 485.448 251.156C484.584 252.458 483.656 253.708 482.662 254.917C481.672 256.125 480.625 257.281 479.521 258.385C478.417 259.49 477.266 260.536 476.058 261.526C474.849 262.516 473.599 263.448 472.302 264.313C471.005 265.182 469.667 265.984 468.287 266.719C466.912 267.458 465.5 268.125 464.063 268.724C462.62 269.318 461.151 269.844 459.656 270.297C458.162 270.75 456.651 271.13 455.12 271.438C453.589 271.74 452.047 271.969 450.49 272.125C448.938 272.276 447.38 272.354 445.818 272.354C444.255 272.354 442.698 272.276 441.146 272.125C439.594 271.974 438.052 271.745 436.521 271.438C434.99 271.135 433.474 270.755 431.979 270.302C430.49 269.849 429.021 269.323 427.578 268.729C426.136 268.13 424.724 267.464 423.349 266.729C421.969 265.99 420.636 265.188 419.334 264.323C418.037 263.453 416.787 262.526 415.578 261.536C414.37 260.547 413.214 259.495 412.11 258.396C411.005 257.292 409.959 256.135 408.969 254.927C407.979 253.719 407.052 252.469 406.182 251.167C405.313 249.87 404.511 248.531 403.776 247.156C403.042 245.781 402.375 244.37 401.776 242.927C401.177 241.484 400.651 240.016 400.198 238.521C399.745 237.026 399.37 235.516 399.063 233.984C398.761 232.453 398.531 230.906 398.375 229.354C398.224 227.802 398.146 226.245 398.146 224.682C398.146 223.12 398.224 221.562 398.375 220.005C398.531 218.453 398.761 216.911 399.063 215.38C399.365 213.849 399.745 212.333 400.198 210.839C400.651 209.344 401.177 207.88 401.776 206.437C402.37 204.995 403.037 203.583 403.776 202.203C404.511 200.828 405.313 199.49 406.182 198.193C407.047 196.896 407.974 195.641 408.969 194.432C409.959 193.229 411.005 192.073 412.11 190.969C413.214 189.865 414.37 188.818 415.573 187.823C416.781 186.833 418.031 185.906 419.334 185.036C420.63 184.172 421.969 183.37 423.344 182.63C424.719 181.896 426.13 181.229 427.573 180.63C429.016 180.036 430.485 179.51 431.979 179.057C433.474 178.604 434.985 178.224 436.516 177.917C438.047 177.615 439.589 177.385 441.141 177.234C442.698 177.078 444.255 177.005 445.813 177.005C447.375 177.005 448.933 177.078 450.485 177.234C452.037 177.385 453.584 177.615 455.11 177.922C456.641 178.224 458.157 178.604 459.646 179.057C461.141 179.51 462.61 180.036 464.052 180.635C465.495 181.229 466.901 181.896 468.281 182.635C469.657 183.37 470.995 184.172 472.292 185.036C473.589 185.906 474.839 186.833 476.047 187.823C477.255 188.813 478.406 189.859 479.511 190.964C480.615 192.068 481.662 193.224 482.651 194.432C483.646 195.635 484.573 196.891 485.438 198.187C486.308 199.484 487.11 200.823 487.844 202.198C488.584 203.578 489.25 204.984 489.844 206.427C490.443 207.87 490.969 209.339 491.422 210.833C491.875 212.323 492.255 213.839 492.558 215.37C492.865 216.901 493.094 218.443 493.245 219.995C493.401 221.547 493.479 223.104 493.479 224.667Z" stroke="black" stroke-width="1.00408" stroke-miterlimit="10"/>
<path d="M481.282 224.5C481.282 225.661 481.224 226.823 481.11 227.979C481 229.135 480.828 230.281 480.604 231.422C480.375 232.563 480.094 233.688 479.755 234.802C479.422 235.911 479.032 237.005 478.584 238.078C478.141 239.151 477.646 240.203 477.099 241.224C476.552 242.25 475.953 243.245 475.308 244.214C474.662 245.177 473.974 246.109 473.235 247.01C472.5 247.906 471.719 248.771 470.896 249.589C470.078 250.411 469.219 251.193 468.318 251.927C467.422 252.667 466.49 253.359 465.521 254.005C464.558 254.651 463.563 255.245 462.537 255.797C461.511 256.344 460.464 256.839 459.391 257.286C458.318 257.729 457.224 258.12 456.115 258.458C455 258.797 453.875 259.078 452.735 259.302C451.599 259.531 450.448 259.703 449.292 259.818C448.136 259.932 446.979 259.99 445.818 259.99C444.656 259.99 443.495 259.932 442.339 259.818C441.183 259.703 440.037 259.531 438.896 259.307C437.755 259.078 436.63 258.797 435.516 258.458C434.407 258.125 433.313 257.734 432.24 257.286C431.167 256.844 430.12 256.349 429.094 255.802C428.068 255.25 427.073 254.656 426.11 254.01C425.141 253.365 424.209 252.672 423.313 251.938C422.412 251.198 421.552 250.422 420.729 249.599C419.912 248.776 419.13 247.917 418.391 247.016C417.656 246.12 416.964 245.188 416.318 244.224C415.672 243.255 415.078 242.26 414.531 241.234C413.979 240.208 413.485 239.161 413.042 238.089C412.594 237.016 412.203 235.922 411.87 234.807C411.531 233.698 411.25 232.573 411.021 231.432C410.797 230.292 410.625 229.146 410.511 227.99C410.396 226.833 410.339 225.672 410.339 224.51C410.339 223.349 410.396 222.188 410.511 221.031C410.625 219.875 410.797 218.729 411.021 217.589C411.25 216.448 411.531 215.323 411.865 214.208C412.203 213.099 412.594 212.005 413.042 210.932C413.485 209.859 413.979 208.807 414.526 207.786C415.078 206.76 415.672 205.766 416.318 204.797C416.964 203.833 417.656 202.901 418.391 202C419.13 201.104 419.906 200.245 420.729 199.422C421.552 198.599 422.412 197.818 423.308 197.083C424.209 196.344 425.141 195.656 426.104 195.01C427.073 194.365 428.068 193.766 429.094 193.219C430.115 192.672 431.167 192.177 432.24 191.729C433.313 191.286 434.407 190.896 435.516 190.557C436.63 190.219 437.755 189.938 438.891 189.714C440.032 189.484 441.183 189.313 442.339 189.203C443.495 189.089 444.651 189.031 445.813 189.031C446.974 189.031 448.136 189.089 449.292 189.198C450.448 189.313 451.594 189.484 452.735 189.708C453.87 189.938 454.995 190.219 456.11 190.557C457.219 190.891 458.313 191.281 459.386 191.729C460.459 192.172 461.511 192.667 462.532 193.219C463.558 193.766 464.552 194.359 465.516 195.005C466.485 195.651 467.417 196.344 468.313 197.078C469.214 197.818 470.073 198.594 470.891 199.417C471.714 200.24 472.495 201.099 473.229 201.995C473.969 202.896 474.657 203.828 475.302 204.792C475.948 205.755 476.547 206.755 477.094 207.776C477.641 208.802 478.136 209.849 478.584 210.927C479.026 212 479.417 213.089 479.755 214.203C480.094 215.313 480.375 216.438 480.599 217.578C480.828 218.719 480.995 219.865 481.11 221.021C481.224 222.177 481.282 223.339 481.282 224.5Z" stroke="black" stroke-width="1.00408" stroke-miterlimit="10"/>
<path d="M445.818 211.74L448.797 220.271L457.813 220.474L450.63 225.938L453.24 234.583L445.818 229.448L438.396 234.583L440.995 225.938L433.802 220.474L442.834 220.271L445.818 211.74Z" fill="#FEDF00" stroke="black" stroke-width="0.409799"/>
<path d="M462.198 248.99C461.61 249.234 461 249.38 460.365 249.432C460.042 249.474 458.771 249.49 458.235 249.505C457.938 249.526 457.365 249.609 457.068 249.609C454.464 249.313 461.302 249.354 462.198 248.99ZM455.37 246.974C455.537 246.672 456.391 244.771 456.698 244.229C457.011 243.693 457.719 242.286 458.141 241.698C458.36 241.38 459.209 240.453 459.412 240.87C457.933 242.151 456.766 244.385 456.146 245.885C455.922 246.307 455.672 246.714 455.396 247.104C455.224 247.318 455.297 247.724 455.021 247.76C454.735 247.792 454.938 247.849 454.938 247.849C454.938 247.849 455.183 247.297 455.37 246.974ZM465.193 248.427C464.547 248.333 463.912 248.188 463.287 247.995C462.308 247.703 461.313 247.568 460.297 247.589C459.318 247.635 458.38 247.849 457.479 248.229C456.86 248.438 456.219 248.547 455.558 248.573C455.558 248.573 454.948 248.667 455.235 248.526C455.505 248.391 456.459 247.646 456.459 247.646L457.073 246.807C457.25 246.76 460.365 242.672 460.026 241.573C460.5 240.766 461.058 239.328 460.849 239.073C459.802 239.297 458.823 239.698 457.917 240.276C457.334 240.901 456.943 241.63 456.729 242.458C456.558 243.068 455.662 243.573 455.662 243.573C454.938 244.094 454.412 245.75 454.162 247.104C453.912 248.443 450.62 249.182 450.62 249.182C450.62 249.182 449.703 249.526 450.516 249.781C450.651 249.823 451.016 250.432 451.308 250.443C451.709 250.49 453.755 249.615 454.073 249.682C454.766 249.844 455.453 250.031 456.136 250.25C456.766 250.542 457.422 250.609 458.104 250.448C458.75 250.286 459.396 250.281 460.042 250.443C460.584 250.552 461.12 250.536 461.657 250.396C462.162 250.193 462.646 249.953 463.12 249.682C463.12 249.682 464.271 249.188 464.933 248.875C465.594 248.568 465.193 248.432 465.193 248.432" fill="#009B3A"/>
<path d="M465.193 248.427C464.547 248.333 463.912 248.188 463.287 247.995C462.308 247.703 461.313 247.568 460.297 247.589C459.318 247.635 458.38 247.849 457.479 248.229C456.86 248.438 456.219 248.547 455.558 248.573C455.558 248.573 454.948 248.667 455.235 248.526C455.505 248.391 456.459 247.646 456.459 247.646L457.073 246.807C457.25 246.76 460.365 242.672 460.026 241.573C460.5 240.766 461.058 239.328 460.849 239.073C459.802 239.297 458.823 239.698 457.917 240.276C457.334 240.901 456.943 241.63 456.729 242.458C456.558 243.068 455.662 243.573 455.662 243.573C454.938 244.094 454.412 245.75 454.162 247.104C453.912 248.443 450.62 249.182 450.62 249.182C450.62 249.182 449.703 249.526 450.516 249.781C450.651 249.823 451.016 250.432 451.308 250.443C451.709 250.49 453.755 249.615 454.073 249.682C454.766 249.844 455.453 250.031 456.136 250.25C456.766 250.542 457.422 250.609 458.104 250.448C458.75 250.286 459.396 250.281 460.042 250.443C460.584 250.552 461.12 250.536 461.657 250.396C462.162 250.193 462.646 249.953 463.12 249.682C463.12 249.682 464.271 249.188 464.933 248.875C465.594 248.568 465.193 248.432 465.193 248.432M462.198 248.99C461.61 249.234 461 249.38 460.365 249.432C460.042 249.474 458.771 249.49 458.235 249.505C457.938 249.526 457.365 249.609 457.068 249.609C454.464 249.313 461.302 249.354 462.198 248.99ZM455.37 246.974C455.537 246.672 456.391 244.771 456.698 244.229C457.011 243.693 457.719 242.286 458.141 241.698C458.36 241.38 459.209 240.453 459.412 240.87C457.933 242.151 456.766 244.385 456.146 245.885C455.922 246.307 455.672 246.714 455.396 247.104C455.224 247.318 455.297 247.724 455.021 247.76C454.735 247.792 454.938 247.849 454.938 247.849C454.938 247.849 455.183 247.297 455.37 246.974Z" stroke="black" stroke-width="0.51327"/>
<path d="M456.24 252.406C456.24 252.406 451.703 250.031 451.459 249.974C451.318 249.958 449.401 248.901 448.526 248.63C447.927 248.458 447.323 248.375 446.703 248.391C446.037 248.469 445.38 248.594 444.735 248.771L445.865 249.234C445.865 249.234 446.922 249.75 447.438 250.031C448.177 250.422 448.214 250.896 448.214 250.896L452.318 252.703L453.151 253.302C453.151 253.302 453.912 252.255 456.24 252.406Z" fill="#009B3A" stroke="black" stroke-width="0.409799"/>
<path d="M460.797 242.979C462.229 241.708 462.922 239.896 464.099 238.896C464.287 239.031 464.287 239.26 464.058 239.661C463.834 240.057 463.537 240.193 463.407 240.396C463.005 240.802 462.62 241.224 462.261 241.667C462.052 242.172 461.714 242.563 461.245 242.839C460.625 243.208 460.818 243.797 460.766 244.047C460.719 244.318 459.766 245 459.302 245.844C459.214 246.724 459.177 246.359 458.641 246.672C459.433 245.479 460.151 244.25 460.797 242.979ZM457.594 247.01C457.5 247.203 454.688 248.802 455.568 248.563C456.448 248.328 459.037 247.396 459.782 247.063C460.683 246.672 461.224 245.839 461.901 245.172C462.594 244.484 464.74 242.438 465.11 241.646C465.469 240.833 465.797 239.703 464.349 237.167C464.151 237.536 463.896 237.854 463.578 238.125C463.157 238.49 462.714 238.833 462.25 239.146L461.318 240.026C461.318 240.026 458.026 246.068 457.594 247.01Z" fill="#009B3A" stroke="black" stroke-width="0.5405"/>
<path d="M469.026 244.885C469.026 244.885 467.224 244.724 467.068 244.724C466.896 244.724 465.912 244.589 464.474 244.589C463.552 244.495 462.776 244.792 462.146 245.479C461.745 245.922 460.625 246.948 460.625 246.948L461.229 246.896C462.12 246.193 463.12 245.943 464.235 246.151C465.094 246.156 465.917 245.995 466.709 245.672C468.172 245.161 468.084 245.641 467.922 245.688C467.224 245.943 466.495 246.089 465.75 246.125C464.662 246.188 463.709 246.401 463.287 246.401C462.86 246.401 459.683 247.266 459.683 247.266C459.683 247.266 463.115 247.474 463.485 247.589C463.979 247.729 464.453 247.682 464.906 247.443C465.688 247.057 466.505 246.776 467.354 246.599C467.776 246.495 468.172 246.333 468.547 246.125C468.834 245.911 469.058 245.646 469.214 245.323C469.547 244.729 469.026 244.891 469.026 244.891M470.709 235.49C471.011 234.641 471.453 233.875 472.042 233.193C472.438 232.932 472.86 232.74 473.318 232.609C473.453 232.563 474.438 232.516 473.209 232.854C472.584 232.984 472.084 233.302 471.698 233.807C471.401 234.932 470.865 235.932 470.094 236.802C469.709 237.229 469.386 237.703 469.136 238.219L468.505 238.438C469.662 237.734 470.162 236.422 470.709 235.484V235.49ZM476.287 234.813C475.974 234.901 475.677 235.036 475.401 235.214C473.933 235.656 473.328 236.578 472.688 237.333C472.36 237.724 471.901 238.021 470.349 238.682C469.438 239.099 468.594 239.615 467.808 240.234C467.808 240.234 467.36 240.328 467.443 240.547C467.479 240.646 467.86 240.568 467.86 240.568C467.86 240.568 470.781 240.151 472 239.406C472.828 238.922 473.479 238.266 473.953 237.427C474.282 236.922 474.651 235.979 474.672 236.589C474.724 238.203 472.219 239.766 471.125 240.25C470.349 240.51 469.558 240.682 468.74 240.771C467.735 240.958 467.12 240.901 467.193 240.677C467.297 240.359 467.417 240.292 467.683 239.974C468.162 239.401 469.323 239.198 470.177 238.797C471.11 238.401 471.922 237.839 472.625 237.109C473.005 236.755 473.266 236.328 473.422 235.833C473.792 234.563 473.813 233.859 474.162 233.406C475.396 231.885 475.578 231.396 475.636 230.714C475.651 230.557 475 231.078 474.657 231.266C473.943 231.641 473.188 231.891 472.386 232.016C471.005 232.359 471.037 233.25 470.823 233.672C470.594 234.063 470.297 234.396 469.933 234.667C469.433 235.135 469.042 235.682 468.766 236.307C468.584 236.719 468.261 237.005 468.005 236.974C467.735 236.922 468.526 233.979 468.698 233.495C468.854 232.922 468.927 232.339 468.922 231.75C468.922 231.443 468.933 230.641 468.396 230.552C467.865 230.464 467.844 229.729 467.844 229.729C466.568 230.833 467.282 232.786 467.417 233.943C467.453 235.042 467.365 236.13 467.151 237.208C468.386 237.734 467.417 239.234 467.032 239.719C466.63 240.214 465.865 240.302 465.521 240.734C465.157 241.182 462.573 244.781 462.573 244.781L465.787 243.87C465.787 243.87 466.089 243.922 465.61 243.563C465.12 243.214 465.766 241.859 466.177 241.531C466.771 241.151 467.391 241.094 468.037 241.359C469.183 241.469 470.292 241.302 471.354 240.865C472.88 240.26 473.542 239.286 474.261 238.547C474.849 237.75 475.375 236.911 475.828 236.031C476.099 235.578 476.594 234.714 476.292 234.818" fill="#009B3A"/>
<path d="M469.026 244.885C469.026 244.885 467.224 244.724 467.068 244.724C466.896 244.724 465.912 244.589 464.474 244.589C463.552 244.495 462.776 244.792 462.146 245.479C461.745 245.922 460.625 246.948 460.625 246.948L461.229 246.896C462.12 246.193 463.12 245.943 464.235 246.151C465.094 246.156 465.917 245.995 466.709 245.672C468.172 245.161 468.084 245.641 467.922 245.688C467.224 245.943 466.495 246.089 465.75 246.125C464.662 246.188 463.709 246.401 463.287 246.401C462.86 246.401 459.683 247.266 459.683 247.266C459.683 247.266 463.115 247.474 463.485 247.589C463.979 247.729 464.453 247.682 464.906 247.443C465.688 247.057 466.505 246.776 467.354 246.599C467.776 246.495 468.172 246.333 468.547 246.125C468.834 245.911 469.058 245.646 469.214 245.323C469.547 244.729 469.026 244.891 469.026 244.891M476.287 234.813C475.974 234.901 475.677 235.036 475.401 235.214C473.933 235.656 473.328 236.578 472.688 237.333C472.36 237.724 471.901 238.021 470.349 238.682C469.438 239.099 468.594 239.615 467.808 240.234C467.808 240.234 467.36 240.328 467.443 240.547C467.479 240.646 467.86 240.568 467.86 240.568C467.86 240.568 470.781 240.151 472 239.406C472.828 238.922 473.479 238.266 473.953 237.427C474.282 236.922 474.651 235.979 474.672 236.589C474.724 238.203 472.219 239.766 471.125 240.25C470.349 240.51 469.558 240.682 468.74 240.771C467.735 240.958 467.12 240.901 467.193 240.677C467.297 240.359 467.417 240.292 467.683 239.974C468.162 239.401 469.323 239.198 470.177 238.797C471.11 238.401 471.922 237.839 472.625 237.109C473.005 236.755 473.266 236.328 473.422 235.833C473.792 234.563 473.813 233.859 474.162 233.406C475.396 231.885 475.578 231.396 475.636 230.714C475.651 230.557 475 231.078 474.657 231.266C473.943 231.641 473.188 231.891 472.386 232.016C471.005 232.359 471.037 233.25 470.823 233.672C470.594 234.063 470.297 234.396 469.933 234.667C469.433 235.135 469.042 235.682 468.766 236.307C468.584 236.719 468.261 237.005 468.005 236.974C467.735 236.922 468.526 233.979 468.698 233.495C468.854 232.922 468.927 232.339 468.922 231.75C468.922 231.443 468.933 230.641 468.396 230.552C467.865 230.464 467.844 229.729 467.844 229.729C466.568 230.833 467.282 232.786 467.417 233.943C467.453 235.042 467.365 236.13 467.151 237.208C468.386 237.734 467.417 239.234 467.032 239.719C466.63 240.214 465.865 240.302 465.521 240.734C465.157 241.182 462.573 244.781 462.573 244.781L465.787 243.87C465.787 243.87 466.089 243.922 465.61 243.563C465.12 243.214 465.766 241.859 466.177 241.531C466.771 241.151 467.391 241.094 468.037 241.359C469.183 241.469 470.292 241.302 471.354 240.865C472.88 240.26 473.542 239.286 474.261 238.547C474.849 237.75 475.375 236.911 475.828 236.031C476.099 235.578 476.594 234.714 476.292 234.818M470.709 235.49C471.011 234.641 471.453 233.875 472.042 233.193C472.438 232.932 472.86 232.74 473.318 232.609C473.453 232.563 474.438 232.516 473.209 232.854C472.584 232.984 472.084 233.302 471.698 233.807C471.401 234.932 470.865 235.932 470.094 236.802C469.709 237.229 469.386 237.703 469.136 238.219L468.505 238.438C469.662 237.734 470.162 236.422 470.709 235.484V235.49Z" stroke="black" stroke-width="0.51327"/>
<path d="M467.172 243.458C467.417 243.359 467.453 243.313 467.901 242.823C468.12 242.563 468.151 242.281 468.005 241.974C467.854 241.672 467.61 241.526 467.271 241.536C466.933 241.563 466.578 241.484 465.922 242.37C465.287 243.255 466.224 243.578 466.584 243.615C466.787 243.604 466.985 243.552 467.172 243.458Z" fill="#009B3A" stroke="black" stroke-width="0.571813"/>
<path d="M465.505 237.849C465.084 238.563 464.854 239.38 465.188 239.635C465.37 239.786 465.578 239.891 465.813 239.938C466.391 239.802 466.839 239.484 467.156 238.984C467.558 238.385 467.88 237.729 467.063 237.323C466.927 237.245 466.782 237.193 466.625 237.177C466.469 237.161 466.318 237.177 466.167 237.229C466.016 237.276 465.886 237.359 465.771 237.464C465.656 237.573 465.568 237.703 465.505 237.849Z" fill="#009B3A" stroke="black" stroke-width="0.584066"/>
<path d="M467.938 229.146C467.938 229.146 468.005 229.036 467.729 228.745C467.365 228.349 467.032 227.927 466.729 227.484C466.011 227.891 465.62 228.51 465.552 229.328C465.625 230.057 465.631 230.781 465.563 231.505C465.464 232.115 465.287 232.703 465.032 233.266C464.761 234.104 464.818 234.922 465.193 235.714C465.271 236.068 465.636 237.156 465.636 237.156C465.782 237.063 465.938 236.979 466.099 236.911C466.297 236.891 466.5 236.88 466.703 236.896C466.974 236.427 467.157 235.927 467.255 235.396C467.24 234.693 467.162 233.995 467.016 233.307C466.771 232.396 466.75 231.474 466.948 230.552C467.115 229.969 467.443 229.5 467.938 229.146Z" fill="#009B3A" stroke="black" stroke-width="0.51327"/>
<path d="M469.261 230.635C469.584 230.547 469.839 230.354 470.011 230.063C470.209 229.708 470.287 229.333 470.245 228.932C470.125 228.521 469.854 228.276 469.427 228.208C469.005 228.141 468.667 228.286 468.427 228.641C467.49 230.552 469.255 230.641 469.255 230.641" fill="#009B3A"/>
<path d="M469.261 230.635C469.584 230.547 469.839 230.354 470.011 230.063C470.209 229.708 470.287 229.333 470.245 228.932C470.125 228.521 469.854 228.276 469.427 228.208C469.005 228.141 468.667 228.286 468.427 228.641C467.49 230.552 469.255 230.641 469.255 230.641" stroke="black" stroke-width="0.563644"/>
<path d="M471.907 227.875C470.745 227.938 470.172 230.021 470.172 230.021C470 230.406 469.729 230.714 469.37 230.932C468.709 231.344 469.094 231.927 469.094 232.964C468.985 233.953 468.745 234.911 468.37 235.839L468.099 236.458C468.099 236.458 468.125 236.927 468.547 236.078C469.266 234.646 470.052 234.995 470.349 233.464C470.537 232.318 472.433 231.953 472.433 231.953L471.896 231.854C469.933 230.932 472.011 228.635 472.349 228.229C472.703 227.823 473.042 227.823 471.896 227.875" fill="#009B3A"/>
<path d="M471.907 227.875C470.745 227.938 470.172 230.021 470.172 230.021C470 230.406 469.729 230.714 469.37 230.932C468.709 231.344 469.094 231.927 469.094 232.964C468.985 233.953 468.745 234.911 468.37 235.839L468.099 236.458C468.099 236.458 468.125 236.927 468.547 236.078C469.266 234.646 470.052 234.995 470.349 233.464C470.537 232.318 472.433 231.953 472.433 231.953L471.896 231.854C469.933 230.932 472.011 228.635 472.349 228.229C472.703 227.823 473.042 227.823 471.896 227.875" stroke="black" stroke-width="0.669838"/>
<path d="M471.573 230.349C471.042 231.49 472.552 231.542 472.901 231.344C473.073 231.208 473.224 231.052 473.36 230.885C473.974 230 473.417 229.406 473.094 229.323C472.787 229.219 472.13 229.141 471.573 230.349Z" fill="#009B3A" stroke="black" stroke-width="0.570452"/>
<path d="M468.703 225.927C469.099 226.667 470.209 228.719 470.469 228.594C470.63 228.516 470.5 228.094 470.5 228.094C470.469 227.677 470.396 227.271 470.287 226.865C470.11 226.188 470.151 225.318 469.802 224.766C469.448 224.208 468.636 223.547 468.308 222.672C468.12 221.755 468.104 220.839 468.266 219.922C468.302 219.729 468.396 219.854 468.224 219.656C467.729 219.292 467.203 218.974 466.656 218.693C466.714 219.203 466.729 219.714 466.703 220.224C466.688 220.458 466.62 220.74 466.584 221.151C466.552 221.547 466.787 222.042 467.365 223.177C468.031 224.484 468.349 225.292 468.703 225.927ZM477.099 216.151C476.933 216.438 476.75 216.708 476.552 216.974C476.407 217.12 474.125 219.083 473.995 219.167C473.886 219.25 472.693 219.63 471.61 222.563C470.948 224.396 470.745 226.276 470.995 228.214L471.521 228.146L471.61 227.859C471.61 227.859 471.787 226.891 471.927 226.156C472.078 225.432 472.891 224.417 473.427 223.667C473.797 223.104 474.11 222.51 474.36 221.885C474.792 220.786 475.297 219.724 475.87 218.693C475.891 219.714 472.005 226.005 471.589 228.146L472.74 227.969C473.823 226.802 474.802 225.557 475.677 224.224C476.365 223.073 476.802 221.833 476.995 220.505C477.136 219.724 477.104 216.151 477.104 216.151" fill="#009B3A"/>
<path d="M477.099 216.151C476.933 216.438 476.75 216.708 476.552 216.974C476.407 217.12 474.125 219.083 473.995 219.167C473.886 219.25 472.693 219.63 471.61 222.563C470.948 224.396 470.745 226.276 470.995 228.214L471.521 228.146L471.61 227.859C471.61 227.859 471.787 226.891 471.927 226.156C472.078 225.432 472.891 224.417 473.427 223.667C473.797 223.104 474.11 222.51 474.36 221.885C474.792 220.786 475.297 219.724 475.87 218.693C475.891 219.714 472.005 226.005 471.589 228.146L472.74 227.969C473.823 226.802 474.802 225.557 475.677 224.224C476.365 223.073 476.802 221.833 476.995 220.505C477.136 219.724 477.104 216.151 477.104 216.151M468.703 225.927C469.099 226.667 470.209 228.719 470.469 228.594C470.63 228.516 470.5 228.094 470.5 228.094C470.469 227.677 470.396 227.271 470.287 226.865C470.11 226.188 470.151 225.318 469.802 224.766C469.448 224.208 468.636 223.547 468.308 222.672C468.12 221.755 468.104 220.839 468.266 219.922C468.302 219.729 468.396 219.854 468.224 219.656C467.729 219.292 467.203 218.974 466.656 218.693C466.714 219.203 466.729 219.714 466.703 220.224C466.688 220.458 466.62 220.74 466.584 221.151C466.552 221.547 466.787 222.042 467.365 223.177C468.031 224.484 468.349 225.292 468.703 225.927Z" stroke="black" stroke-width="0.51327"/>
<path d="M469.349 216.797C469.042 216.5 468.698 216.26 468.302 216.094C468.38 216.661 468.427 217.234 468.443 217.807C468.443 218.458 468.5 219.552 468.469 220.135C468.443 220.719 468.157 221.682 468.568 222.625C468.933 223.318 469.344 223.979 469.802 224.615C470.172 225.781 470.464 226.964 470.672 228.167C470.568 226.443 470.563 224.724 470.646 223C470.844 221.75 470.834 220.505 470.615 219.26C470.386 218.344 469.964 217.521 469.349 216.797ZM472.032 212.865C472.412 212.198 472.667 211.484 472.797 210.724C472.865 210.156 472.896 209.583 472.886 209.005C472.87 208.661 472.735 208.063 472.886 208.021C473.021 207.99 472.907 208.208 472.985 208.719C473.021 208.901 472.896 209.406 472.87 210.052C472.86 210.615 472.766 211.161 472.589 211.698C472.391 212.307 472.573 212.995 472.448 213.188C472.323 213.38 471.964 214.12 471.964 214.12C471.834 214.49 471.776 214.87 471.782 215.26C471.802 215.818 471.834 216.417 471.834 216.417C472.026 216.104 472.302 215.917 472.667 215.859C472.667 215.859 472.797 214.927 472.797 214.635C472.922 213.698 473.11 212.766 473.36 211.854C473.724 210.5 473.735 209.146 473.391 207.786C473.292 207.151 473.224 206.505 473.193 205.859C473.193 205.859 472.641 206.302 472.318 207.969C472.214 208.474 472.427 209.828 472.344 211.276C472.141 212.708 471.839 214.12 471.443 215.51" fill="#009B3A"/>
<path d="M472.032 212.865C472.412 212.198 472.667 211.484 472.797 210.724C472.865 210.156 472.896 209.583 472.886 209.005C472.87 208.661 472.735 208.063 472.886 208.021C473.021 207.99 472.907 208.208 472.985 208.719C473.021 208.901 472.896 209.406 472.87 210.052C472.86 210.615 472.766 211.161 472.589 211.698C472.391 212.307 472.573 212.995 472.448 213.188C472.323 213.38 471.964 214.12 471.964 214.12C471.834 214.49 471.776 214.87 471.782 215.26C471.802 215.818 471.834 216.417 471.834 216.417C472.026 216.104 472.302 215.917 472.667 215.859C472.667 215.859 472.797 214.927 472.797 214.635C472.922 213.698 473.11 212.766 473.36 211.854C473.724 210.5 473.735 209.146 473.391 207.786C473.292 207.151 473.224 206.505 473.193 205.859C473.193 205.859 472.641 206.302 472.318 207.969C472.214 208.474 472.427 209.828 472.344 211.276C472.141 212.708 471.839 214.12 471.443 215.51M469.349 216.797C469.042 216.5 468.698 216.26 468.302 216.094C468.38 216.661 468.427 217.234 468.443 217.807C468.443 218.458 468.5 219.552 468.469 220.135C468.443 220.719 468.157 221.682 468.568 222.625C468.933 223.318 469.344 223.979 469.802 224.615C470.172 225.781 470.464 226.964 470.672 228.167C470.568 226.443 470.563 224.724 470.646 223C470.844 221.75 470.834 220.505 470.615 219.26C470.386 218.344 469.964 217.521 469.349 216.797Z" stroke="black" stroke-width="0.51327"/>
<path d="M472.032 212.865L471.995 212.932C472.011 212.917 472.026 212.891 472.032 212.865Z" fill="#009B3A" stroke="black" stroke-width="0.51327"/>
<path d="M469.865 204.469C470.157 204.469 470.157 204.792 470.099 205.042C470.063 205.318 470.052 205.599 470.058 205.88C470.104 206.271 470.177 206.656 470.276 207.036C470.479 207.422 470.547 207.828 470.49 208.255C470.433 208.719 469.959 209.266 470.125 210.052C470.266 210.474 470.443 210.875 470.657 211.26C470.74 211.708 470.771 212.156 470.745 212.609C470.756 212.911 470.849 213.182 471.026 213.422C471.026 213.422 470.698 214.036 470.589 213.266C470.552 212.693 470.443 212.135 470.255 211.589C469.849 210.688 469.818 209.771 470.157 208.844C470.255 208.552 470.297 208.255 470.287 207.953C470.287 207.557 470.047 206.885 470 206.469C469.959 206.135 469.985 205.438 469.985 205.188M468.443 208.891C468.594 209.563 468.86 210.182 469.235 210.76C469.485 211.266 469.693 211.786 469.865 212.328C469.922 212.568 469.969 212.813 469.995 213.057C469.995 213.151 470.058 213.839 470.058 213.839V214.125C470.058 214.125 468.495 213.214 467.813 212.729C467.125 212.24 466.36 211.563 465.865 211.156C465.302 210.698 463.969 209.115 463.953 207.844L463.339 207.292C463.224 208.161 463.323 209.005 463.63 209.828C463.938 210.651 464.422 211.349 465.078 211.932C465.927 212.667 466.865 213.255 467.896 213.703C469.38 214.385 469.188 215 469.808 216.318C470.219 217.115 470.578 217.938 470.875 218.781C470.933 219.182 470.709 224.807 470.709 224.807L470.761 225.318C470.761 225.318 472.12 220.104 472.776 219.521C472.776 219.521 471.479 219.323 471.578 217.286L471.354 215.938C471.209 215.047 471.287 214.177 471.578 213.323C471.917 212.203 472.042 211.057 471.964 209.896C471.839 208.943 471.792 208.656 471.677 207.75C471.479 206.5 471.214 205.271 470.87 204.057C470.745 203.583 470.584 203.125 470.386 202.677C470.318 202.479 470.188 201.823 469.979 201.813C469.86 201.802 469.677 202.656 469.677 202.656C469.677 202.656 469.401 203.583 469.344 203.833C468.974 204.823 468.714 205.844 468.568 206.896C468.532 207.198 468.5 208.021 468.464 208.13C468.422 208.38 468.417 208.635 468.443 208.891Z" fill="#009B3A"/>
<path d="M469.865 204.469C470.157 204.469 470.157 204.792 470.099 205.042C470.063 205.318 470.052 205.599 470.058 205.88C470.104 206.271 470.177 206.656 470.276 207.036C470.479 207.422 470.547 207.828 470.49 208.255C470.433 208.719 469.959 209.266 470.125 210.052C470.266 210.474 470.443 210.875 470.657 211.26C470.74 211.708 470.771 212.156 470.745 212.609C470.756 212.911 470.849 213.182 471.026 213.422C471.026 213.422 470.698 214.036 470.589 213.266C470.552 212.693 470.443 212.135 470.255 211.589C469.849 210.688 469.818 209.771 470.157 208.844C470.255 208.552 470.297 208.255 470.287 207.953C470.287 207.557 470.047 206.885 470 206.469C469.959 206.135 469.985 205.438 469.985 205.188M468.443 208.891C468.594 209.563 468.86 210.182 469.235 210.76C469.485 211.266 469.693 211.786 469.865 212.328C469.922 212.568 469.969 212.813 469.995 213.057C469.995 213.151 470.058 213.839 470.058 213.839V214.125C470.058 214.125 468.495 213.214 467.813 212.729C467.125 212.24 466.36 211.563 465.865 211.156C465.302 210.698 463.969 209.115 463.953 207.844L463.339 207.292C463.224 208.161 463.323 209.005 463.63 209.828C463.938 210.651 464.422 211.349 465.078 211.932C465.927 212.667 466.865 213.255 467.896 213.703C469.38 214.385 469.188 215 469.808 216.318C470.219 217.115 470.578 217.938 470.875 218.781C470.933 219.182 470.709 224.807 470.709 224.807L470.761 225.318C470.761 225.318 472.12 220.104 472.776 219.521C472.776 219.521 471.479 219.323 471.578 217.286L471.354 215.938C471.209 215.047 471.287 214.177 471.578 213.323C471.917 212.203 472.042 211.057 471.964 209.896C471.839 208.943 471.792 208.656 471.677 207.75C471.479 206.5 471.214 205.271 470.87 204.057C470.745 203.583 470.584 203.125 470.386 202.677C470.318 202.479 470.188 201.823 469.979 201.813C469.86 201.802 469.677 202.656 469.677 202.656C469.677 202.656 469.401 203.583 469.344 203.833C468.974 204.823 468.714 205.844 468.568 206.896C468.532 207.198 468.5 208.021 468.464 208.13C468.422 208.38 468.417 208.635 468.443 208.891Z" stroke="black" stroke-width="0.51327"/>
<path d="M469.604 216C469.479 215.729 469.328 215.474 469.146 215.24C468.683 214.698 468.058 214.229 466.287 213.365C464.516 212.484 464.052 211.036 463.151 210.438C462.771 210.229 462.365 210.089 461.938 210.016C461.938 210.016 462.724 211.099 462.912 211.474C463.188 212.151 463.61 212.719 464.183 213.182C465.032 213.906 466 214.391 467.089 214.635C467.985 214.984 468.823 215.438 469.604 215.995M464.032 207.63C464.354 208.682 464.839 209.651 465.495 210.536C466.959 212.385 469.776 213.708 469.776 213.708C469.547 212.635 469.183 211.615 468.688 210.635C467.407 208.568 464.021 207.552 464.021 207.552C464.021 207.552 463.959 207.474 464.032 207.63ZM468.068 208.5C468.828 206.839 466.563 205.255 465.927 204.099C466.162 203.911 466.443 204.401 466.703 204.729C467.073 205.224 468.12 206.651 468.12 206.651L468.443 205.13L465.745 202.677C465.714 203.036 464.88 203.328 464.88 203.328C464.474 205.599 468.073 208.505 468.073 208.505" fill="#009B3A"/>
<path d="M469.604 216C469.479 215.729 469.328 215.474 469.146 215.24C468.683 214.698 468.058 214.229 466.287 213.365C464.516 212.484 464.052 211.036 463.151 210.438C462.771 210.229 462.365 210.089 461.938 210.016C461.938 210.016 462.724 211.099 462.912 211.474C463.188 212.151 463.61 212.719 464.183 213.182C465.032 213.906 466 214.391 467.089 214.635C467.985 214.984 468.823 215.438 469.604 215.995M468.068 208.5C468.828 206.839 466.563 205.255 465.927 204.099C466.162 203.911 466.443 204.401 466.703 204.729C467.073 205.224 468.12 206.651 468.12 206.651L468.443 205.13L465.745 202.677C465.714 203.036 464.88 203.328 464.88 203.328C464.474 205.599 468.073 208.505 468.073 208.505M464.032 207.63C464.354 208.682 464.839 209.651 465.495 210.536C466.959 212.385 469.776 213.708 469.776 213.708C469.547 212.635 469.183 211.615 468.688 210.635C467.407 208.568 464.021 207.552 464.021 207.552C464.021 207.552 463.959 207.474 464.032 207.63Z" stroke="black" stroke-width="0.51327"/>
<path d="M463.375 204.656C463.099 204.807 462.808 204.906 462.495 204.948L462.86 205.911L463.068 206.172C463.068 206.172 463.917 207.401 464.412 207.552C466.099 207.87 467.537 208.651 468.724 209.901C468.724 209.901 466.078 206.917 465.068 204.682L464.724 203.391L463.766 203.458C463.766 203.458 464.031 204.359 463.38 204.661" fill="#009B3A"/>
<path d="M463.375 204.656C463.099 204.807 462.808 204.906 462.495 204.948L462.86 205.911L463.068 206.172C463.068 206.172 463.917 207.401 464.412 207.552C466.099 207.87 467.537 208.651 468.724 209.901C468.724 209.901 466.078 206.917 465.068 204.682L464.724 203.391L463.766 203.458C463.766 203.458 464.031 204.359 463.38 204.661" stroke="black" stroke-width="0.51327"/>
<path d="M453.485 202.75C453.927 203.151 454.407 203.51 454.922 203.818C456.016 204.521 457.188 205.047 458.443 205.396C458.735 205.443 460.318 205.641 460.318 205.641C460.344 205.438 460.438 205.26 460.594 205.12C460.745 204.979 460.927 204.901 461.13 204.891L458.896 204.646C458.073 204.599 457.297 204.396 456.558 204.031C455.823 203.667 455.183 203.172 454.651 202.547C456.084 203.417 458.146 204.786 459.813 204.714C466.672 204.042 457.75 203.87 456.974 203.375C456.406 202.995 455.896 202.547 455.453 202.026L453.443 201.938C453.443 201.938 452.453 201.875 453.485 202.755" fill="#009B3A"/>
<path d="M453.485 202.75C453.927 203.151 454.407 203.51 454.922 203.818C456.016 204.521 457.188 205.047 458.443 205.396C458.735 205.443 460.318 205.641 460.318 205.641C460.344 205.438 460.438 205.26 460.594 205.12C460.745 204.979 460.927 204.901 461.13 204.891L458.896 204.646C458.073 204.599 457.297 204.396 456.558 204.031C455.823 203.667 455.183 203.172 454.651 202.547C456.084 203.417 458.146 204.786 459.813 204.714C466.672 204.042 457.75 203.87 456.974 203.375C456.406 202.995 455.896 202.547 455.453 202.026L453.443 201.938C453.443 201.938 452.453 201.875 453.485 202.755" stroke="black" stroke-width="0.51327"/>
<path d="M461.558 206.656C462 206.625 462.313 206.542 462.412 206.057C462.443 205.932 462.448 205.807 462.427 205.677C462.407 205.552 462.354 205.438 462.281 205.333C462.209 205.229 462.115 205.146 462 205.083C461.891 205.021 461.771 204.984 461.641 204.974C461.391 204.885 461.146 204.891 460.901 204.995C460.662 205.099 460.485 205.271 460.38 205.51C460.099 206.172 461.13 206.599 461.13 206.599C461.266 206.656 461.412 206.677 461.558 206.661M462.328 202.729C461.745 202.729 461.552 203.203 461.672 204.125C461.828 205.057 463.25 204.651 463.25 204.651L463.516 204.51C463.516 204.51 463.709 204.365 463.599 203.62C463.5 202.865 462.912 202.729 462.328 202.729ZM464.656 203.38H464.636C464.625 203.385 464.656 203.38 464.656 203.38Z" fill="#009B3A"/>
<path d="M461.558 206.656C462 206.625 462.313 206.542 462.412 206.057C462.443 205.932 462.448 205.807 462.427 205.677C462.407 205.552 462.354 205.438 462.281 205.333C462.209 205.229 462.115 205.146 462 205.083C461.891 205.021 461.771 204.984 461.641 204.974C461.391 204.885 461.146 204.891 460.901 204.995C460.662 205.099 460.485 205.271 460.38 205.51C460.099 206.172 461.13 206.599 461.13 206.599C461.266 206.656 461.412 206.677 461.558 206.661M462.328 202.729C461.745 202.729 461.552 203.203 461.672 204.125C461.828 205.057 463.25 204.651 463.25 204.651L463.516 204.51C463.516 204.51 463.709 204.365 463.599 203.62C463.5 202.865 462.912 202.729 462.328 202.729ZM464.656 203.38H464.636C464.625 203.385 464.656 203.38 464.656 203.38Z" stroke="black" stroke-width="0.51327"/>
<path d="M464.636 203.38C464.703 203.349 464.771 203.328 464.839 203.313C465.136 203.198 465.438 202.484 465.438 202.484C465.511 202.245 465.495 202.01 465.391 201.781C465.287 201.557 465.125 201.391 464.896 201.286C463.735 201.052 463.703 202.073 463.703 202.073C463.386 203.401 464.464 203.385 464.631 203.38M459.459 198.818C459.63 199.276 459.896 199.672 460.245 200.005C460.667 200.422 461.063 200.854 461.433 201.313C461.703 201.688 462.599 203.385 462.599 203.385C462.698 203.37 462.771 203.318 462.823 203.229C462.979 202.969 462.219 200.911 462.141 200.771C461.839 200.177 461.443 199.651 460.953 199.193C460.636 198.854 460.339 198.5 460.063 198.125C461.365 199.807 462.532 201.578 463.568 203.432C463.568 203.432 463.495 202.031 463.417 201.281C463.37 200.13 463.032 199.063 462.407 198.094C461.979 197.448 461.401 196.99 460.672 196.724C460.089 196.51 459.396 196.219 458.651 195.979C457.88 195.745 458.474 196.438 458.756 197.036C459.073 197.594 459.308 198.193 459.459 198.818Z" fill="#009B3A"/>
<path d="M464.636 203.38C464.703 203.349 464.771 203.328 464.839 203.313C465.136 203.198 465.438 202.484 465.438 202.484C465.511 202.245 465.495 202.01 465.391 201.781C465.287 201.557 465.125 201.391 464.896 201.286C463.735 201.052 463.703 202.073 463.703 202.073C463.386 203.401 464.464 203.385 464.631 203.38M459.459 198.818C459.63 199.276 459.896 199.672 460.245 200.005C460.667 200.422 461.063 200.854 461.433 201.313C461.703 201.688 462.599 203.385 462.599 203.385C462.698 203.37 462.771 203.318 462.823 203.229C462.979 202.969 462.219 200.911 462.141 200.771C461.839 200.177 461.443 199.651 460.953 199.193C460.636 198.854 460.339 198.5 460.063 198.125C461.365 199.807 462.532 201.578 463.568 203.432C463.568 203.432 463.495 202.031 463.417 201.281C463.37 200.13 463.032 199.063 462.407 198.094C461.979 197.448 461.401 196.99 460.672 196.724C460.089 196.51 459.396 196.219 458.651 195.979C457.88 195.745 458.474 196.438 458.756 197.036C459.073 197.594 459.308 198.193 459.459 198.818Z" stroke="black" stroke-width="0.51327"/>
<path d="M456.604 202.427C457.323 203.208 458.209 203.651 459.271 203.745C460.854 203.995 460.99 203.891 460.99 203.891C460.99 203.891 461.808 203.49 461.391 203.146C459.063 202.125 456.86 200.901 455.745 199.531C455.745 199.531 455.938 199.344 456.745 200.151C457.078 200.49 457.433 200.802 457.813 201.083C458.469 201.542 459.157 201.948 459.87 202.307C460.38 202.521 460.901 202.693 461.443 202.813C461.443 202.813 461.604 202.474 461.745 202.432C461.891 202.396 461.662 201.865 460.683 201.073C460.136 200.62 459.662 200.104 459.255 199.521C459.255 199.521 458.094 199.271 456.844 199.063C455.907 198.911 454.151 197.547 454.183 197.917C454.276 198.74 454.521 199.51 454.917 200.234C455.37 201.047 455.933 201.776 456.604 202.422" fill="#009B3A"/>
<path d="M456.604 202.427C457.323 203.208 458.209 203.651 459.271 203.745C460.854 203.995 460.99 203.891 460.99 203.891C460.99 203.891 461.808 203.49 461.391 203.146C459.063 202.125 456.86 200.901 455.745 199.531C455.745 199.531 455.938 199.344 456.745 200.151C457.078 200.49 457.433 200.802 457.813 201.083C458.469 201.542 459.157 201.948 459.87 202.307C460.38 202.521 460.901 202.693 461.443 202.813C461.443 202.813 461.604 202.474 461.745 202.432C461.891 202.396 461.662 201.865 460.683 201.073C460.136 200.62 459.662 200.104 459.255 199.521C459.255 199.521 458.094 199.271 456.844 199.063C455.907 198.911 454.151 197.547 454.183 197.917C454.276 198.74 454.521 199.51 454.917 200.234C455.37 201.047 455.933 201.776 456.604 202.422" stroke="black" stroke-width="0.51327"/>
<path d="M443.516 249.797C442.834 250 437.683 251.932 437.683 251.932L436.245 252.51C437.485 252.24 438.651 252.422 439.75 253.063L445.485 250.406C445.485 250.406 445.469 250.323 445.323 250.219C444.776 249.854 444.172 249.719 443.516 249.797Z" fill="#009B3A" stroke="black" stroke-width="0.409799"/>
<path d="M436.026 252.682C435.99 252.719 435.953 252.854 436.052 252.896C436.339 253.057 436.261 253.12 437.557 253.276C438.87 253.417 439.724 253.167 439.948 252.922C440.209 252.63 436.703 252.094 436.026 252.682Z" fill="#009B3A" stroke="black" stroke-width="0.43839"/>
<path d="M427.787 234.161L427.547 232.552C427.547 232.552 427.25 228.198 426.755 227.328C426.662 227.135 426.703 226.682 426.391 226.672C425.792 226.63 425.792 228.042 425.719 229.328C424.74 235.797 429.896 240.734 429.896 240.734L427.787 234.161Z" fill="#009B3A" stroke="black" stroke-width="0.56909"/>
<path d="M453.313 253.323C453.313 253.323 452.771 253.203 453.115 252.781C453.547 252.417 454.047 252.214 454.61 252.161C455 252.167 455.38 252.219 455.755 252.318C456.167 252.417 456.735 252.781 456.568 253.042C456.157 253.453 455.662 253.641 455.078 253.604C454.651 253.63 454.229 253.594 453.808 253.505C453.532 253.401 453.308 253.323 453.308 253.323" fill="#009B3A"/>
<path d="M453.313 253.323C453.313 253.323 452.771 253.203 453.115 252.781C453.547 252.417 454.047 252.214 454.61 252.161C455 252.167 455.38 252.219 455.755 252.318C456.167 252.417 456.735 252.781 456.568 253.042C456.157 253.453 455.662 253.641 455.078 253.604C454.651 253.63 454.229 253.594 453.808 253.505C453.532 253.401 453.308 253.323 453.308 253.323" stroke="black" stroke-width="0.524162"/>
<path d="M447.719 250.245C447.719 250.245 445.948 249.427 444.271 248.615C442.058 247.531 439.401 246.031 437.552 243.281C436.203 241.193 434.599 239.323 432.729 237.682C432.229 237.313 432.156 237.177 431.974 237.438C431.808 237.661 431.922 237.859 432.063 238.094C432.542 238.87 433.714 240.328 434.13 241.109C434.854 242.505 436.354 244.031 436.339 244.938C436.339 245.063 435.901 244.849 435.901 244.849C434.724 244.344 433.703 243.62 432.839 242.667C431.979 241.714 431.36 240.625 430.979 239.401C429.943 236.323 430.386 235.417 430.141 233.875C429.735 231.141 429.651 230.922 428.297 227.854C428.261 227.776 427.469 226.495 427.36 226.781C427.318 227.365 427.365 227.948 427.5 228.521L427.641 230.099C427.641 230.099 427.526 233.604 427.526 233.818C427.526 234.031 426.641 236.219 430.396 239.896C430.396 239.896 430.453 240.521 429.948 239.974C429.594 239.578 426.906 237.516 426.089 234.12C425.25 230.729 425.125 227.328 425.766 225.922C426.339 224.646 427.5 221.531 427.005 218.807C426.948 218.521 426.87 217.688 426.688 217.906C426.61 218.016 426.271 219.391 426.068 219.87C425.787 220.521 425.344 221.161 425.209 221.609C424.948 222.375 423.651 223.557 423.907 225.734C423.979 227.031 424.224 228.292 424.656 229.516C424.755 229.839 425.005 230.667 424.844 230.75C424.693 230.828 424.162 229.76 424.162 229.76C424.162 229.76 421.787 225.094 423.255 221.302C424.735 217.531 428.448 213.958 428.448 213.958C428.448 213.958 431.469 211.453 432.084 210.87C432.323 210.646 432.266 210.474 432.183 210.5C431.157 210.734 430.177 211.104 429.25 211.604C428.323 212.104 427.485 212.724 426.724 213.453C425.964 214.188 425.323 215.01 424.787 215.917C424.255 216.828 423.854 217.792 423.584 218.813C423.584 218.813 423.479 219.104 423.328 219.031C423.141 218.948 423.328 218.625 423.328 218.625C423.328 218.625 424.61 213.719 428.193 211.49C432.104 209.052 431.646 209.406 432.938 208.641C433.99 207.958 434.813 207.057 435.401 205.948C435.599 205.573 435.735 205.172 435.813 204.755C435.771 204.604 435.599 204.807 435.516 205.057C434.818 206.094 433.896 206.854 432.75 207.344C431.084 207.922 429.735 207.099 428.063 208.948C426.896 210.318 425.896 211.792 425.058 213.38C425.058 213.38 424.62 214.047 424.521 214.026C424.339 213.969 424.615 213.318 424.615 213.318C424.615 213.318 426.849 208.573 428.641 207.609C430.183 206.823 431.651 205.927 433.063 204.922C434.526 203.609 435.912 202.219 437.214 200.745C437.375 200.568 438.526 199.406 438.781 199.026C438.933 198.823 439.297 198.526 439.235 198.474C439.073 198.349 437.985 198.875 437.985 198.875C436.032 199.51 434.235 200.448 432.594 201.677C430.948 202.911 429.547 204.37 428.386 206.068C428.146 206.422 427.88 206.755 427.594 207.073C427.323 207.396 427.125 207.755 427.005 208.161C426.766 207.964 429.089 205.063 429.089 205.063L429.495 203.182C429.938 201.458 430.646 199.854 431.625 198.37C431.771 198.188 432.625 197.328 432.766 197.151C433.052 196.839 432.224 197.422 432.37 197.292C432.37 197.292 426.849 201.255 426.849 206.25C426.849 207.146 426.292 207.964 425.521 209.078C424.656 210.286 424.125 211.625 423.933 213.094C423.771 213.906 423.599 214.714 423.427 215.521C423.427 215.521 423.479 216.234 423.25 216.182C423.016 216.13 423.089 215.542 423.089 215.542C423.328 213.901 423.646 212.276 424.058 210.672C424.443 209.557 424.703 208.802 424.703 208.802C424.703 208.802 424.474 206.005 425.094 204.469C425.703 203.245 426.391 202.063 427.162 200.927C427.604 200.016 427.896 199.057 428.042 198.052C428.063 197.859 427.912 198.021 427.662 198.578C427.058 199.948 426.552 200.302 425.552 201.594C425.552 201.594 422.995 203.448 422.068 208.964C422.068 208.964 422.037 211.016 421.729 214.24C421.531 216.219 421.61 218.188 421.964 220.146C422.13 220.964 422.453 220.964 422.255 221.063C422.13 221.13 422.334 221.073 422.042 220.458C421.584 219.359 421.375 218.208 421.422 217.016C421.422 214.135 421.667 211.828 421.667 211.828C421.667 211.828 421.86 207.177 419.927 205.083C419.839 204.974 420.271 206.021 420.459 207.068C420.563 208.354 420.459 209.62 420.141 210.87C420.016 211.573 418.735 214.646 419.188 217.531C419.188 217.531 420.276 222.422 421.677 224.792C421.677 224.792 422.547 225.813 421.776 224.859C421.005 223.901 419.443 220.094 419.308 219.771C418.735 218.432 417.969 217.219 417.005 216.13C416.354 215.609 415.672 215.135 414.953 214.714C414.953 214.714 414.141 214.094 414.761 214.917C415.25 215.573 415.906 216.745 416.219 217.255C416.87 218.307 417.448 219.401 417.953 220.536C418.459 221.646 419.63 224.901 419.63 224.901L420.375 226.964C421.089 227.359 421.735 227.849 422.318 228.422C423.5 229.766 424.396 231.281 425 232.969C425.334 233.74 425.766 234.453 426.302 235.099C426.302 235.099 426.115 235.453 425.349 234.12C424.589 232.766 423.844 230.234 422.011 228.26C420.62 226.745 416.875 225.219 416.875 225.219C416.875 225.219 419.281 229.411 419.88 230.161C420.891 231.359 422.349 233.042 422.729 233.484C423.12 233.938 425.38 236.734 425.714 237.182C426.063 237.641 426.443 238.073 426.865 238.474C427.459 239.109 429.229 240.271 429.365 240.448C429.391 240.635 429.427 240.479 429.276 240.37C428.49 239.906 427.558 239.167 426.589 238.536C425.625 237.896 421.901 236.307 419.396 232.854C418.802 231.833 418.521 231.422 418.318 231.526C418.011 231.693 420.005 238.292 424.11 240.391C424.11 240.391 428.636 242.406 429.641 243.01C430.386 243.385 431.115 243.797 431.818 244.245C432.11 244.49 431.552 244.474 431.511 244.469C429.11 244.281 425.662 243.964 423.537 242.734C423.537 242.734 422.625 242.094 423.375 242.99C424.386 244.448 425.683 245.573 427.271 246.365C429.36 247.203 431.526 247.724 433.771 247.938C434.906 248 438.964 248.016 439.74 248.271C440.5 248.526 441.797 249.359 442.537 249.594C443.209 249.813 445.24 250.594 445.24 250.594C445.547 250.76 445.86 250.911 446.177 251.047C446.547 251.193 448.068 251.177 448.172 250.896C448.276 250.641 447.74 250.25 447.74 250.25" fill="#009B3A"/>
<path d="M447.719 250.245C447.719 250.245 445.948 249.427 444.271 248.615C442.058 247.531 439.401 246.031 437.552 243.281C436.203 241.193 434.599 239.323 432.729 237.682C432.229 237.313 432.156 237.177 431.974 237.438C431.808 237.661 431.922 237.859 432.063 238.094C432.542 238.87 433.714 240.328 434.13 241.109C434.854 242.505 436.354 244.031 436.339 244.938C436.339 245.063 435.901 244.849 435.901 244.849C434.724 244.344 433.703 243.62 432.839 242.667C431.979 241.714 431.36 240.625 430.979 239.401C429.943 236.323 430.386 235.417 430.141 233.875C429.735 231.141 429.651 230.922 428.297 227.854C428.261 227.776 427.469 226.495 427.36 226.781C427.318 227.365 427.365 227.948 427.5 228.521L427.641 230.099C427.641 230.099 427.526 233.604 427.526 233.818C427.526 234.031 426.641 236.219 430.396 239.896C430.396 239.896 430.453 240.521 429.948 239.974C429.594 239.578 426.906 237.516 426.089 234.12C425.25 230.729 425.125 227.328 425.766 225.922C426.339 224.646 427.5 221.531 427.005 218.807C426.948 218.521 426.87 217.688 426.688 217.906C426.61 218.016 426.271 219.391 426.068 219.87C425.787 220.521 425.344 221.161 425.209 221.609C424.948 222.375 423.651 223.557 423.907 225.734C423.979 227.031 424.224 228.292 424.656 229.516C424.755 229.839 425.005 230.667 424.844 230.75C424.693 230.828 424.162 229.76 424.162 229.76C424.162 229.76 421.787 225.094 423.255 221.302C424.735 217.531 428.448 213.958 428.448 213.958C428.448 213.958 431.469 211.453 432.084 210.87C432.323 210.646 432.266 210.474 432.183 210.5C431.157 210.734 430.177 211.104 429.25 211.604C428.323 212.104 427.485 212.724 426.724 213.453C425.964 214.188 425.323 215.01 424.787 215.917C424.255 216.828 423.854 217.792 423.584 218.813C423.584 218.813 423.479 219.104 423.328 219.031C423.141 218.948 423.328 218.625 423.328 218.625C423.328 218.625 424.61 213.719 428.193 211.49C432.104 209.052 431.646 209.406 432.938 208.641C433.99 207.958 434.813 207.057 435.401 205.948C435.599 205.573 435.735 205.172 435.813 204.755C435.771 204.604 435.599 204.807 435.516 205.057C434.818 206.094 433.896 206.854 432.75 207.344C431.084 207.922 429.735 207.099 428.063 208.948C426.896 210.318 425.896 211.792 425.058 213.38C425.058 213.38 424.62 214.047 424.521 214.026C424.339 213.969 424.615 213.318 424.615 213.318C424.615 213.318 426.849 208.573 428.641 207.609C430.183 206.823 431.651 205.927 433.063 204.922C434.526 203.609 435.912 202.219 437.214 200.745C437.375 200.568 438.526 199.406 438.781 199.026C438.933 198.823 439.297 198.526 439.235 198.474C439.073 198.349 437.985 198.875 437.985 198.875C436.032 199.51 434.235 200.448 432.594 201.677C430.948 202.911 429.547 204.37 428.386 206.068C428.146 206.422 427.88 206.755 427.594 207.073C427.323 207.396 427.125 207.755 427.005 208.161C426.766 207.964 429.089 205.063 429.089 205.063L429.495 203.182C429.938 201.458 430.646 199.854 431.625 198.37C431.771 198.188 432.625 197.328 432.766 197.151C433.052 196.839 432.224 197.422 432.37 197.292C432.37 197.292 426.849 201.255 426.849 206.25C426.849 207.146 426.292 207.964 425.521 209.078C424.656 210.286 424.125 211.625 423.933 213.094C423.771 213.906 423.599 214.714 423.427 215.521C423.427 215.521 423.479 216.234 423.25 216.182C423.016 216.13 423.089 215.542 423.089 215.542C423.328 213.901 423.646 212.276 424.058 210.672C424.443 209.557 424.703 208.802 424.703 208.802C424.703 208.802 424.474 206.005 425.094 204.469C425.703 203.245 426.391 202.063 427.162 200.927C427.604 200.016 427.896 199.057 428.042 198.052C428.063 197.859 427.912 198.021 427.662 198.578C427.058 199.948 426.552 200.302 425.552 201.594C425.552 201.594 422.995 203.448 422.068 208.964C422.068 208.964 422.037 211.016 421.729 214.24C421.531 216.219 421.61 218.188 421.964 220.146C422.13 220.964 422.453 220.964 422.255 221.063C422.13 221.13 422.334 221.073 422.042 220.458C421.584 219.359 421.375 218.208 421.422 217.016C421.422 214.135 421.667 211.828 421.667 211.828C421.667 211.828 421.86 207.177 419.927 205.083C419.839 204.974 420.271 206.021 420.459 207.068C420.563 208.354 420.459 209.62 420.141 210.87C420.016 211.573 418.735 214.646 419.188 217.531C419.188 217.531 420.276 222.422 421.677 224.792C421.677 224.792 422.547 225.813 421.776 224.859C421.005 223.901 419.443 220.094 419.308 219.771C418.735 218.432 417.969 217.219 417.005 216.13C416.354 215.609 415.672 215.135 414.953 214.714C414.953 214.714 414.141 214.094 414.761 214.917C415.25 215.573 415.906 216.745 416.219 217.255C416.87 218.307 417.448 219.401 417.953 220.536C418.459 221.646 419.63 224.901 419.63 224.901L420.375 226.964C421.089 227.359 421.735 227.849 422.318 228.422C423.5 229.766 424.396 231.281 425 232.969C425.334 233.74 425.766 234.453 426.302 235.099C426.302 235.099 426.115 235.453 425.349 234.12C424.589 232.766 423.844 230.234 422.011 228.26C420.62 226.745 416.875 225.219 416.875 225.219C416.875 225.219 419.281 229.411 419.88 230.161C420.891 231.359 422.349 233.042 422.729 233.484C423.12 233.938 425.38 236.734 425.714 237.182C426.063 237.641 426.443 238.073 426.865 238.474C427.459 239.109 429.229 240.271 429.365 240.448C429.391 240.635 429.427 240.479 429.276 240.37C428.49 239.906 427.558 239.167 426.589 238.536C425.625 237.896 421.901 236.307 419.396 232.854C418.802 231.833 418.521 231.422 418.318 231.526C418.011 231.693 420.005 238.292 424.11 240.391C424.11 240.391 428.636 242.406 429.641 243.01C430.386 243.385 431.115 243.797 431.818 244.245C432.11 244.49 431.552 244.474 431.511 244.469C429.11 244.281 425.662 243.964 423.537 242.734C423.537 242.734 422.625 242.094 423.375 242.99C424.386 244.448 425.683 245.573 427.271 246.365C429.36 247.203 431.526 247.724 433.771 247.938C434.906 248 438.964 248.016 439.74 248.271C440.5 248.526 441.797 249.359 442.537 249.594C443.209 249.813 445.24 250.594 445.24 250.594C445.547 250.76 445.86 250.911 446.177 251.047C446.547 251.193 448.068 251.177 448.172 250.896C448.276 250.641 447.74 250.25 447.74 250.25" stroke="black" stroke-width="0.409799"/>
<path d="M474.021 215.87C474.479 216.036 474.683 217.401 474.683 217.401C474.683 217.401 474.641 216.62 474.641 216.234C474.641 215.849 474.453 214.396 474.453 214.396L474.047 214.688C473.709 214.99 473.459 215.344 473.287 215.76C473.542 215.74 473.782 215.776 474.021 215.87Z" fill="#009B3A" stroke="black" stroke-width="0.51327"/>
</g>
</g>
<defs>
<clipPath id="clip0_765_8398">
<rect width="900" height="450" fill="white"/>
</clipPath>
</defs>
</svg>
