<svg width="900" height="450" viewBox="0 0 900 450" fill="none" xmlns="http://www.w3.org/2000/svg">
<g clip-path="url(#clip0_765_8481)">
<path d="M900 0H0V450H900V0Z" fill="#1E1E1E"/>
<mask id="mask0_765_8481" style="mask-type:luminance" maskUnits="userSpaceOnUse" x="0" y="0" width="900" height="450">
<path d="M900 0H0V450H900V0Z" fill="white"/>
</mask>
<g mask="url(#mask0_765_8481)">
<path d="M0 0H900V450H0V0Z" fill="#8D1B3D"/>
<path d="M257.143 450H0V0H257.143L321.429 25.0004L257.143 49.9991L321.429 74.9995L257.143 99.999L321.429 124.999L257.143 149.999L321.429 174.999L257.143 199.999L321.429 225L257.143 250L321.429 275L257.143 300L321.429 325L257.143 350L321.429 375L257.143 400L321.429 425L257.143 450Z" fill="white"/>
</g>
</g>
<defs>
<clipPath id="clip0_765_8481">
<rect width="900" height="450" fill="white"/>
</clipPath>
</defs>
</svg>
