<svg width="900" height="450" viewBox="0 0 900 450" fill="none" xmlns="http://www.w3.org/2000/svg">
<g clip-path="url(#clip0_765_8564)">
<path d="M900 0H0V450H900V0Z" fill="#1E1E1E"/>
<mask id="mask0_765_8564" style="mask-type:luminance" maskUnits="userSpaceOnUse" x="0" y="0" width="900" height="450">
<path d="M900 0H0V450H900V0Z" fill="white"/>
</mask>
<g mask="url(#mask0_765_8564)">
<mask id="mask1_765_8564" style="mask-type:luminance" maskUnits="userSpaceOnUse" x="0" y="0" width="900" height="450">
<path d="M0.666653 -3.37219e-06H899.333V450H0.666653V-3.37219e-06Z" fill="white"/>
</mask>
<g mask="url(#mask1_765_8564)">
<path d="M0.666653 -3.37219e-06H899.333V450H0.666653V-3.37219e-06Z" fill="white"/>
<path d="M0.666653 -3.37219e-06H899.333V450H0.666653V-3.37219e-06Z" fill="white"/>
</g>
<mask id="mask2_765_8564" style="mask-type:luminance" maskUnits="userSpaceOnUse" x="0" y="0" width="302" height="450">
<path d="M0 0H302V450H0V0Z" fill="white"/>
</mask>
<g mask="url(#mask2_765_8564)">
<path d="M0 0H300.886V600.003H0V0Z" fill="#002B7F"/>
</g>
<mask id="mask3_765_8564" style="mask-type:luminance" maskUnits="userSpaceOnUse" x="300" y="0" width="300" height="450">
<path d="M300 -3.37219e-06H600V450H300V-3.37219e-06Z" fill="white"/>
</mask>
<g mask="url(#mask3_765_8564)">
<path d="M300.224 -3.37219e-06H599.776V600.003H300.224V-3.37219e-06Z" fill="#FCD116"/>
</g>
<mask id="mask4_765_8564" style="mask-type:luminance" maskUnits="userSpaceOnUse" x="598" y="0" width="302" height="450">
<path d="M598 -3.37219e-06H900V450H598V-3.37219e-06Z" fill="white"/>
</mask>
<g mask="url(#mask4_765_8564)">
<path d="M599.114 -3.37219e-06H900V600.003H599.114V-3.37219e-06Z" fill="#CE1126"/>
</g>
</g>
</g>
<defs>
<clipPath id="clip0_765_8564">
<rect width="900" height="450" fill="white"/>
</clipPath>
</defs>
</svg>
