<svg width="900" height="450" viewBox="0 0 900 450" fill="none" xmlns="http://www.w3.org/2000/svg">
<g clip-path="url(#clip0_765_9210)">
<path d="M900 0H0V450H900V0Z" fill="#1E1E1E"/>
<mask id="mask0_765_9210" style="mask-type:luminance" maskUnits="userSpaceOnUse" x="0" y="0" width="900" height="450">
<path d="M900 0H0V450H900V0Z" fill="white"/>
</mask>
<g mask="url(#mask0_765_9210)">
<mask id="mask1_765_9210" style="mask-type:luminance" maskUnits="userSpaceOnUse" x="0" y="0" width="900" height="450">
<path d="M0 0H900V449.333H0V0Z" fill="white"/>
</mask>
<g mask="url(#mask1_765_9210)">
<path d="M0 0H900V449.333H0V0Z" fill="white"/>
<path d="M0 0H900V449.333H0V0Z" fill="white"/>
</g>
<mask id="mask2_765_9210" style="mask-type:luminance" maskUnits="userSpaceOnUse" x="0" y="0" width="900" height="226">
<path d="M0 0H900V225.333H0V0Z" fill="white"/>
</mask>
<g mask="url(#mask2_765_9210)">
<path d="M0 0H900V224.667H0V0Z" fill="white"/>
</g>
<mask id="mask3_765_9210" style="mask-type:luminance" maskUnits="userSpaceOnUse" x="0" y="224" width="900" height="226">
<path d="M0 224H900V449.333H0V224Z" fill="white"/>
</mask>
<g mask="url(#mask3_765_9210)">
<path d="M0 224.667H900V449.333H0V224.667Z" fill="#DA291C"/>
</g>
<mask id="mask4_765_9210" style="mask-type:luminance" maskUnits="userSpaceOnUse" x="0" y="149" width="900" height="151">
<path d="M0 149.333H900V300H0V149.333Z" fill="white"/>
</mask>
<g mask="url(#mask4_765_9210)">
<path d="M0 149.776H900V299.557H0V149.776Z" fill="#0032A0"/>
</g>
</g>
</g>
<defs>
<clipPath id="clip0_765_9210">
<rect width="900" height="450" fill="white"/>
</clipPath>
</defs>
</svg>
