<svg width="900" height="450" viewBox="0 0 900 450" fill="none" xmlns="http://www.w3.org/2000/svg">
<g clip-path="url(#clip0_765_9270)">
<path d="M900 0H0V450H900V0Z" fill="#1E1E1E"/>
<mask id="mask0_765_9270" style="mask-type:luminance" maskUnits="userSpaceOnUse" x="0" y="0" width="900" height="450">
<path d="M900 0H0V450H900V0Z" fill="white"/>
</mask>
<g mask="url(#mask0_765_9270)">
<mask id="mask1_765_9270" style="mask-type:luminance" maskUnits="userSpaceOnUse" x="0" y="0" width="900" height="450">
<path d="M0 0H900V449.333H0V0Z" fill="white"/>
</mask>
<g mask="url(#mask1_765_9270)">
<path d="M0 0H900V449.333H0V0Z" fill="white"/>
<path d="M0 0H900V449.333H0V0Z" fill="white"/>
</g>
<mask id="mask2_765_9270" style="mask-type:luminance" maskUnits="userSpaceOnUse" x="-1" y="0" width="902" height="450">
<path d="M-1 -3.37219e-06H901V450H-1V-3.37219e-06Z" fill="white"/>
</mask>
<g mask="url(#mask2_765_9270)">
<path d="M-0.721199 -3.37219e-06H900.721V450H-0.721199V-3.37219e-06Z" fill="#20603D"/>
</g>
<mask id="mask3_765_9270" style="mask-type:luminance" maskUnits="userSpaceOnUse" x="-1" y="0" width="902" height="338">
<path d="M-1 -3.37219e-06H901V337.333H-1V-3.37219e-06Z" fill="white"/>
</mask>
<g mask="url(#mask3_765_9270)">
<path d="M-0.721199 -3.37219e-06H900.721V337H-0.721199V-3.37219e-06Z" fill="#FAD201"/>
</g>
<mask id="mask4_765_9270" style="mask-type:luminance" maskUnits="userSpaceOnUse" x="-1" y="0" width="902" height="226">
<path d="M-1 -3.37219e-06H901V225.333H-1V-3.37219e-06Z" fill="white"/>
</mask>
<g mask="url(#mask4_765_9270)">
<path d="M-0.721199 -3.37219e-06H900.721V224.667H-0.721199V-3.37219e-06Z" fill="#00A1DE"/>
</g>
<path d="M850.427 117.391L800.281 120.323L847.964 136.141L798.76 125.984L840.729 153.615L795.833 131.068L829.219 168.62L791.687 135.214L814.224 180.135L786.609 138.146L796.76 187.375L780.948 139.661L778.021 189.844L777.396 116.766L850.427 117.391Z" fill="#E5BE01"/>
<path d="M850.427 117.391L800.281 114.458L847.964 98.6354L798.76 108.792L840.729 81.1615L795.833 103.714L829.219 66.1562L791.687 99.5625L814.224 54.6406L786.609 96.6302L796.76 47.401L780.948 95.1146L778.021 44.9323L777.396 118.01L850.427 117.391Z" fill="#E5BE01"/>
<path d="M705.609 117.391L755.76 120.323L708.078 136.141L757.276 125.984L715.313 153.615L760.208 131.068L726.818 168.62L764.349 135.214L741.813 180.135L769.427 138.146L759.276 187.375L775.089 139.661L778.021 189.844L778.641 116.766L705.609 117.391Z" fill="#E5BE01"/>
<path d="M705.609 117.391L755.76 114.458L708.078 98.6354L757.276 108.792L715.313 81.1615L760.208 103.714L726.818 66.1562L764.349 99.5625L741.813 54.6406L769.427 96.6302L759.276 47.401L775.089 95.1146L778.021 44.9323L778.641 118.01L705.609 117.391Z" fill="#E5BE01"/>
<path d="M799.411 117.391C799.411 118.089 799.375 118.786 799.307 119.484C799.24 120.182 799.135 120.875 799 121.563C798.865 122.25 798.693 122.932 798.49 123.604C798.286 124.271 798.052 124.932 797.781 125.578C797.516 126.229 797.214 126.859 796.885 127.479C796.557 128.099 796.198 128.698 795.807 129.281C795.417 129.865 795 130.427 794.557 130.969C794.109 131.51 793.641 132.031 793.146 132.526C792.651 133.021 792.13 133.49 791.589 133.938C791.047 134.38 790.484 134.797 789.906 135.188C789.323 135.578 788.724 135.938 788.104 136.266C787.484 136.599 786.854 136.896 786.203 137.167C785.557 137.432 784.901 137.667 784.229 137.875C783.557 138.078 782.88 138.245 782.193 138.385C781.505 138.521 780.812 138.625 780.115 138.693C779.417 138.76 778.719 138.797 778.021 138.797C777.318 138.797 776.62 138.76 775.922 138.693C775.224 138.625 774.531 138.521 773.844 138.385C773.156 138.245 772.479 138.078 771.807 137.875C771.141 137.667 770.479 137.432 769.833 137.167C769.187 136.896 768.552 136.599 767.932 136.266C767.318 135.938 766.719 135.578 766.135 135.188C765.552 134.797 764.99 134.38 764.448 133.938C763.906 133.49 763.385 133.021 762.891 132.526C762.396 132.031 761.927 131.51 761.484 130.969C761.036 130.427 760.62 129.865 760.234 129.281C759.844 128.698 759.484 128.099 759.151 127.479C758.823 126.859 758.521 126.229 758.255 125.578C757.99 124.932 757.75 124.271 757.547 123.604C757.344 122.932 757.177 122.25 757.036 121.563C756.901 120.875 756.797 120.182 756.729 119.484C756.661 118.786 756.625 118.089 756.625 117.391C756.625 116.687 756.661 115.99 756.729 115.292C756.797 114.594 756.901 113.901 757.036 113.214C757.177 112.526 757.344 111.844 757.547 111.177C757.75 110.505 757.99 109.844 758.255 109.198C758.521 108.547 758.823 107.917 759.151 107.297C759.484 106.677 759.844 106.078 760.234 105.495C760.62 104.911 761.036 104.349 761.484 103.807C761.927 103.266 762.396 102.75 762.891 102.25C763.385 101.755 763.906 101.286 764.448 100.844C764.99 100.396 765.552 99.9791 766.135 99.5885C766.719 99.2031 767.318 98.8385 767.932 98.5104C768.552 98.1823 769.187 97.8802 769.833 97.6146C770.479 97.3437 771.141 97.1094 771.807 96.9062C772.479 96.7031 773.156 96.5312 773.844 96.3958C774.531 96.2552 775.224 96.1562 775.922 96.0833C776.62 96.0156 777.318 95.9844 778.021 95.9844C778.719 95.9844 779.417 96.0156 780.115 96.0833C780.812 96.1562 781.505 96.2552 782.193 96.3958C782.88 96.5312 783.557 96.7031 784.229 96.9062C784.901 97.1094 785.557 97.3437 786.203 97.6146C786.854 97.8802 787.484 98.1823 788.104 98.5104C788.724 98.8385 789.323 99.2031 789.906 99.5885C790.484 99.9791 791.047 100.396 791.589 100.844C792.13 101.286 792.651 101.755 793.146 102.25C793.641 102.75 794.109 103.266 794.557 103.807C795 104.349 795.417 104.911 795.807 105.495C796.198 106.078 796.557 106.677 796.885 107.297C797.214 107.917 797.516 108.547 797.781 109.198C798.052 109.844 798.286 110.505 798.49 111.177C798.693 111.844 798.865 112.526 799 113.214C799.135 113.901 799.24 114.594 799.307 115.292C799.375 115.99 799.411 116.687 799.411 117.391Z" fill="#E5BE01" stroke="#00A1DE" stroke-width="2.12119"/>
</g>
</g>
<defs>
<clipPath id="clip0_765_9270">
<rect width="900" height="450" fill="white"/>
</clipPath>
</defs>
</svg>
