<svg width="900" height="450" viewBox="0 0 900 450" fill="none" xmlns="http://www.w3.org/2000/svg">
<g clip-path="url(#clip0_765_9320)">
<path d="M900 0H0V450H900V0Z" fill="#1E1E1E"/>
<mask id="mask0_765_9320" style="mask-type:luminance" maskUnits="userSpaceOnUse" x="0" y="0" width="900" height="450">
<path d="M900 0H0V450H900V0Z" fill="white"/>
</mask>
<g mask="url(#mask0_765_9320)">
<mask id="mask1_765_9320" style="mask-type:luminance" maskUnits="userSpaceOnUse" x="0" y="0" width="900" height="450">
<path d="M0 0H900V450H0V0Z" fill="white"/>
</mask>
<g mask="url(#mask1_765_9320)">
<path d="M0 0H900V450H0V0Z" fill="white"/>
<path d="M0 0H900V450H0V0Z" fill="#006C35"/>
</g>
<path d="M589.677 120.255C593.495 117.531 597.047 114.479 601.292 112.333C600.078 117.203 596.438 120.911 592.714 124.047C590.807 125.536 591.672 128.255 591.411 130.318C590.391 130.083 589.38 129.807 588.38 129.495C589.333 141.87 590.719 154.161 591.323 166.536C591.411 167.943 591.5 169.427 592.714 170.333C598.432 175.448 604.328 180.484 608.49 187C610.135 189.557 611 192.443 611.87 195.333C612.797 190.49 612.943 185.62 612.302 180.729C610.224 161.917 608.344 143.052 606.667 124.13C606.495 121.823 606.146 119.427 606.406 117.12C606.479 116.578 606.646 116.068 606.906 115.589C607.167 115.109 607.505 114.698 607.922 114.344C608.344 113.995 608.807 113.729 609.323 113.552C609.839 113.38 610.37 113.302 610.917 113.323C612.12 114.464 613.016 115.813 613.604 117.37C615.333 121.245 616.896 125.453 616.464 129.823C615.422 129.495 614.38 129.083 613.255 128.672C614.813 141.458 616.375 154.245 617.328 167.115C617.76 175.781 619.063 184.526 617.24 193.104C615.682 201.026 611.776 209.026 604.849 213.563C599.036 217.359 592.276 219.505 585.516 220.906C582.75 221.604 579.974 221.63 577.198 220.99C580.057 219.422 583.266 218.266 586.297 216.943C590.714 215.125 594.932 212.927 598.953 210.344C602.682 207.87 606.578 205.396 609.354 201.766C605.885 192.526 600.167 183.859 592.021 178.167C592.281 187.245 592.714 196.484 591.328 205.479C591.068 207.63 590.172 209.474 588.641 211.005C587.682 207.208 587.599 203.25 587.167 199.37C586.385 190.938 585.693 182.495 585.083 174.042C585.083 172.313 583.958 170.99 582.656 170C577.542 165.708 572.776 160.922 567.839 156.469C568.01 161.667 568.792 166.781 569.141 171.896C569.745 178.828 569.833 185.755 570.526 192.688C570.958 197.552 571.047 202.667 569.224 207.292C567.406 211.661 563.333 215.38 558.479 215.708C555.891 215.901 553.318 215.766 550.76 215.292C548.078 214.88 545.995 212.823 544.781 210.51C543.307 207.703 542.526 204.568 541.313 201.682C539.063 202.177 536.719 202.672 535.073 204.401C531.609 207.703 530.568 212.734 528.917 217.026C527.964 219.583 526.839 222.391 524.323 223.792C521.724 225.276 518.516 224.698 516.005 223.297C512.188 221.234 509.849 217.271 508.724 213.229C507.594 210.094 509.156 206.464 507.25 203.495C505.865 200.771 506.641 197.557 507.339 194.75C508.807 189.719 511.932 185.427 515.656 181.792L500.839 168.922C501.271 180.802 502.224 192.682 500.667 204.484C500.469 206.943 499.516 209.057 497.802 210.833C497.281 208.578 496.938 206.297 496.766 203.99C495.552 190.953 494.51 177.917 493.646 164.88C493.557 163.396 493.297 161.745 492.083 160.755C487.005 155.932 482.208 150.844 477.693 145.49C475.094 142.193 472.406 138.807 471.021 134.849C470.5 133.203 470.068 130.891 471.625 129.651C473.422 129.922 475.099 130.526 476.656 131.469C479.589 133.177 482.214 135.266 484.542 137.734C485.516 138.87 486.182 140.161 486.536 141.615C485.063 141.615 483.677 141.531 482.203 141.531C485.156 145.797 488.625 149.589 492.604 152.917C492.26 141.859 491.047 130.724 490.526 119.667C490.526 118.177 490.526 116.531 491.563 115.292C492.516 114.219 493.99 113.807 495.292 113.313C497.734 116.901 499.469 120.807 500.495 125.026C500.844 126.719 500.932 128.422 500.755 130.141C499.714 129.896 498.672 129.563 497.719 129.234C498.411 138.229 499.365 147.141 499.974 156.13C500.021 157.411 500.193 158.677 500.495 159.927C501.047 160.74 501.714 161.458 502.484 162.073C508.641 167.271 514.797 172.469 521.036 177.5C524.766 174.276 528.401 170.984 532.13 167.844C533 167.167 533.807 166.427 534.557 165.62C535.25 164.875 534.99 163.802 534.99 162.896C533.776 152.089 532.911 141.281 531.958 130.469C531.698 126.51 531.089 122.63 531.089 118.755C531.005 116.443 532.823 114.135 535.167 114.052C536.203 113.969 536.641 115.125 537.156 115.781C538.917 118.865 540.188 122.141 540.974 125.599C541.339 127.313 541.313 129.016 540.891 130.714C539.938 130.302 538.896 129.807 537.943 129.396C539.24 139.542 540.281 149.693 541.234 159.839C543.922 157.859 546.349 155.552 548.865 153.406C551.635 151.01 554.583 148.703 557.271 146.146C554.063 142.677 550.682 139.464 547.391 136.078C545.313 133.932 542.797 131.87 541.927 128.813C541.234 126.672 541.667 124.359 542.099 122.297C546 122.958 549.38 125.271 552.505 127.578C554.62 129.26 556.609 131.078 558.484 133.026C558.313 128.734 557.792 124.443 557.443 120.156C557.443 118.505 557.271 116.688 558.396 115.37C559.354 114.297 560.823 113.885 562.036 113.307C564.484 116.708 566.188 120.448 567.151 124.526C567.599 126.318 567.745 128.135 567.589 129.974C566.547 129.724 565.417 129.479 564.38 129.229C564.724 132.531 565.073 135.745 565.505 139.047C569.578 135.995 573.307 132.531 577.38 129.479C578.766 128.156 581.281 127.167 581.281 124.854C581.37 122.38 580.849 119.823 581.193 117.349C581.276 116.818 581.448 116.313 581.714 115.844C581.979 115.375 582.318 114.969 582.734 114.625C583.151 114.281 583.615 114.026 584.125 113.854C584.641 113.682 585.161 113.609 585.703 113.635C587.781 115.615 588.563 118.094 589.688 120.234L589.677 120.255ZM568.526 144.099C567.833 144.839 566.536 145.5 566.62 146.74C567.141 147.813 568.182 148.635 569.047 149.542C574.073 154.078 578.844 158.865 584.13 162.99C583.958 158.125 583.438 153.339 583.177 148.469C582.745 143.354 582.568 138.24 582.052 133.125C577.37 136.505 573.12 140.469 568.526 144.099ZM555.786 135.104C556.906 136.344 557.958 137.578 559.078 138.818C559.078 137.578 558.995 136.344 558.995 135.104H555.786ZM543.651 165.219C542.781 165.958 541.745 166.786 541.828 168.021C541.745 174.292 542.438 180.729 540.875 186.833C540.531 188.401 539.401 189.474 538.276 190.464C536.891 184.443 536.802 178.255 535.76 172.146C532.036 175.12 528.479 178.339 525.016 181.552C527.005 183.781 529 186.172 529.698 189.229C529.984 190.286 530.12 191.37 530.104 192.469C530.089 193.568 529.917 194.646 529.594 195.698C529.276 196.745 528.813 197.734 528.208 198.651C527.604 199.573 526.891 200.391 526.052 201.109C521.807 204.656 516.083 205.234 510.797 205.891C511.578 209.359 512.271 212.99 514.354 215.958C515.651 217.693 517.734 219.339 519.984 218.682C522.411 218.021 523.885 215.708 524.755 213.563C526.401 209.146 528.479 204.938 530.995 200.943C533.073 197.641 536.458 194.917 540.443 194.839C541.74 194.917 543.474 194.505 544.26 195.911C545.99 198.797 546.599 202.26 548.766 204.984C552.406 209.771 560.12 209.854 564.453 205.891C565.927 204.573 565.927 202.427 565.755 200.615C563.76 184.193 562.286 167.609 560.552 151.193C554.745 155.729 549.286 160.516 543.651 165.219ZM513.052 193.271C512.135 194.604 511.5 196.063 511.146 197.641C513.104 197.854 515.047 197.755 516.969 197.344C518.896 196.938 520.708 196.234 522.411 195.25C523.453 194.589 524.667 193.516 524.406 192.115C524.146 189.307 521.807 187.328 519.729 185.677C517.302 188.031 515.078 190.563 513.052 193.271ZM350.266 113.24C351.307 112.578 352.26 113.734 352.953 114.479C355.036 117.036 357.286 119.594 358.5 122.729C357.464 122.896 356.333 123.057 355.297 123.224C355.552 128.172 359.714 131.557 360.927 136.26C361.792 139.203 361.906 142.172 361.276 145.172C361.057 146.172 360.703 147.125 360.208 148.021C359.714 148.922 359.099 149.729 358.37 150.448C357.635 151.167 356.818 151.766 355.911 152.245C355.005 152.724 354.047 153.063 353.042 153.26C348.276 154.083 342.901 152.927 339.349 149.38C337.005 147.073 336.141 143.771 335.099 140.802C333.974 144.844 332.323 148.724 329.464 151.854C327.74 153.682 325.745 155.141 323.484 156.229C324.089 167.286 325.219 178.339 324.266 189.313C323.917 192.448 323.745 196.161 320.885 198.224C319.844 193.854 319.672 189.313 319.151 184.776C318.198 175.62 317.505 166.464 316.552 157.302C313.865 156.641 310.917 156.068 308.833 154.083C305.37 150.948 304.24 146.078 304.5 141.625C304.589 138.161 305.714 134.776 306.495 131.396C305.167 132.714 304.187 134.255 303.547 136.016C301.729 141.542 300.516 147.318 298 152.599C297.536 153.661 296.865 154.573 295.984 155.323C295.099 156.078 294.094 156.599 292.974 156.885C290.198 157.464 286.906 157.302 284.74 155.156C282.401 152.844 281.88 149.38 281.531 146.245C281.359 143.021 281.099 139.563 282.573 136.589C283.443 134.776 285.26 133.786 286.823 132.88C285.781 134.609 284.568 136.344 284.307 138.323C283.958 141.13 284.479 144.016 285 146.74C285.349 148.385 285.693 150.203 286.995 151.359C287.51 151.786 288.083 152.109 288.714 152.328C289.344 152.552 289.995 152.651 290.667 152.635C291.333 152.62 291.979 152.49 292.599 152.24C293.224 151.995 293.781 151.646 294.276 151.193C295.229 149.979 295.922 148.63 296.354 147.151C298.089 141.87 299.474 136.422 301.641 131.307C303.552 127.021 306.932 122.813 311.786 121.901C311.266 127.76 308.578 133.208 308.406 139.146C308.318 141.786 308.578 144.672 310.312 146.734C311.609 148.469 313.776 149.047 315.776 149.625C315.255 141.62 314.474 133.62 313.953 125.531C313.781 122.563 313.26 119.51 313.781 116.542C314.214 114.479 316.469 113.734 318.203 113.078C321.495 117.943 323.922 123.719 323.833 129.656C322.714 129.411 321.667 129.161 320.542 128.917C321.234 135.766 321.927 142.698 322.714 149.542C324.167 149.115 325.5 148.458 326.719 147.563C327.943 146.672 328.974 145.599 329.823 144.344C333.203 139.474 333.724 133.125 332.078 127.516C331.38 125.12 330.255 122.891 329.734 120.417C329.214 118.109 330.865 115.714 332.943 114.974C333.896 114.563 334.328 115.714 334.766 116.375C336.062 119.182 336.5 122.318 337.104 125.37C337.885 129.411 337.104 133.62 338.578 137.495C339.146 139.188 339.99 140.729 341.104 142.12C342.224 143.51 343.547 144.667 345.078 145.583C346.354 146.26 347.703 146.708 349.135 146.917C350.562 147.13 351.984 147.099 353.401 146.823C354.109 146.672 354.719 146.344 355.24 145.833C355.755 145.328 356.094 144.724 356.26 144.016C356.953 141.375 356 138.656 354.875 136.26C352.271 130.818 349.068 125.62 347.854 119.677C347.417 117.536 348.026 114.563 350.281 113.245L350.266 113.24Z" fill="white"/>
<path d="M469.281 119.599C471.031 116.745 473.427 114.63 476.474 113.245C475.62 115.219 474.578 117.089 473.354 118.854C472.484 120.177 472.484 121.823 472.401 123.312C474.396 123.214 476.359 122.911 478.292 122.401C477.776 123.969 477.255 125.625 475.781 126.609C474.135 127.766 471.708 128.51 469.974 127.104C469.531 126.594 469.177 126.026 468.911 125.406C468.646 124.786 468.479 124.135 468.417 123.464C468.354 122.792 468.401 122.125 468.547 121.464C468.693 120.802 468.938 120.182 469.281 119.599ZM361.797 115.964C362.661 114.646 364.307 114.151 365.615 113.568C368.234 117.151 370.026 121.109 370.99 125.448C371.323 127.094 371.349 128.745 371.073 130.396C370.12 130.068 369.078 129.74 368.125 129.406C369.25 137.411 370.641 145.333 371.594 153.333C376.188 151.104 380.438 148.385 385.203 146.401C386.698 145.766 388.26 145.38 389.885 145.25C389.276 146.568 388.583 147.891 387.198 148.469C382.167 151.026 377.052 153.255 372.115 156.057C372.547 160.021 372.979 164.062 373.5 168.021C375.755 165.135 377.75 161.505 381.646 160.599C381.823 162.74 381.13 165.302 382.688 167.031C385.115 168.932 388.411 167.776 390.661 166.042C390.49 162.906 391.359 159.854 391.964 156.802C392.917 157.214 394.13 157.38 394.479 158.536C395.516 161.422 395.255 164.641 394.479 167.526C393.698 170.828 391.01 173.302 388.063 174.786C386.245 175.693 383.99 176.187 381.995 175.365C379.917 174.542 378.615 172.562 377.229 170.828C376.016 173.797 374.021 176.521 373.938 179.901C373.708 183.443 372.969 186.875 371.714 190.193C370.458 193.51 368.745 196.573 366.568 199.375C359.198 209.026 347.932 214.802 336.49 218.188C329.901 220 323.052 221.651 316.12 221.323C312.276 221.323 308.693 220.365 305.37 218.432C303.984 217.526 302.771 216.286 301.385 215.464C299.651 215.13 297.828 215.625 296.01 215.625C291.677 215.792 287.344 215.958 283.094 215.214C288.297 213.484 293.583 212.161 298.698 210.266C297.995 205.589 298.094 200.932 298.984 196.292C299.88 191.646 301.516 187.286 303.896 183.203C305.208 181.099 306.766 179.203 308.578 177.51C307.104 180.484 305.286 183.37 304.505 186.672C303.583 190.141 303.156 193.667 303.214 197.255C303.271 200.844 303.818 204.354 304.849 207.792C308.406 206.635 311.87 205.068 315.255 203.583C323.141 200.115 330.854 196.406 338.052 191.62C340.74 189.724 343.516 187.74 345.333 184.854C346.198 183.453 346.026 181.802 346.026 180.234C342.297 180.974 338.656 182.708 334.755 182.625C332.328 182.464 329.729 181.969 327.995 180.068C326.26 178.172 326.177 175.448 326.521 173.057C326.734 171.448 327.224 169.927 327.984 168.49C328.745 167.057 329.729 165.802 330.943 164.724C333.802 162.328 338.052 162.411 341.344 163.901C344.552 165.385 346.375 168.521 347.932 171.49C352.786 169.677 356.078 165.385 360.849 163.323C361.021 165.797 360.76 168.682 362.667 170.667C363.792 172.068 365.703 171.984 367.26 172.151C367 168.187 366.396 164.312 365.875 160.432C364.229 147.479 362.583 134.448 361.193 121.411C361.109 119.516 360.849 117.531 361.802 115.964H361.797ZM332.151 172.312C331.719 173.219 332.76 173.797 333.453 174.13C336.052 175.036 338.917 174.458 341.599 173.964C340.214 172.479 338.568 170.828 336.313 170.745C334.839 170.661 332.76 170.745 332.151 172.312ZM351.047 177.677C351.219 180.318 351.307 182.958 350.443 185.432C349.052 189.641 345.849 193.021 342.552 195.828C336.224 201.026 328.771 204.406 321.578 208.203C318.302 210.042 314.922 211.667 311.438 213.068C315.854 213.401 320.276 212.656 324.609 212.328C331.281 211.917 337.698 210.016 343.849 207.542C350.266 204.901 356.505 201.521 361.531 196.568C364.724 193.552 366.896 189.922 368.031 185.677C368.453 183.583 368.656 181.464 368.641 179.328C366.042 179.245 363.266 179.328 360.927 178.005C359.021 176.932 357.979 174.87 356.854 173.057C355.052 174.766 353.115 176.307 351.047 177.677ZM421.521 115.719C422.474 114.646 424.203 114.807 425.333 115.552C425.958 115.974 426.516 116.464 427.005 117.031C427.5 117.594 427.917 118.214 428.25 118.885C428.583 119.557 428.828 120.26 428.979 120.995C429.135 121.734 429.193 122.474 429.151 123.224C428.958 124.568 428.583 125.865 428.026 127.104C427.677 125.203 427.766 123.224 426.901 121.49C425.604 119.677 423.177 119.344 421.615 117.859C421 117.365 420.74 116.214 421.521 115.719Z" fill="white"/>
<path d="M457.057 116.708C457.229 115.552 458.359 114.313 459.573 114.974C462.953 116.62 465.38 119.76 466.938 123.141C465.724 123.141 464.51 123.057 463.385 122.979C463.938 125.286 464.661 127.542 465.552 129.74C466.854 132.875 468.672 135.849 469.193 139.313C469.797 143.109 469.104 147.401 466.417 150.286C461.391 155.896 451.339 154.906 447 148.88C445.354 146.74 444.49 144.26 443.62 141.703C442.234 147.151 439.286 152.432 434.349 155.234C433.083 155.958 431.745 156.5 430.333 156.849C428.922 157.198 427.484 157.349 426.031 157.297C424.578 157.245 423.156 156.995 421.771 156.547C420.385 156.099 419.089 155.469 417.88 154.656C417.146 154.198 416.474 153.651 415.875 153.021C415.271 152.396 414.755 151.703 414.323 150.948C413.896 150.193 413.563 149.396 413.328 148.557C413.094 147.719 412.964 146.865 412.943 145.995C412.594 140.88 414.589 136.094 415.281 131.146C413.969 132.365 413.016 133.823 412.422 135.516C410.344 141.047 409.474 146.984 406.526 152.182C405.141 154.656 402.802 156.885 399.854 157.135C396.995 157.297 393.87 156.224 392.224 153.75C390.75 151.438 390.406 148.635 390.406 145.911C390.458 141.698 391.443 137.708 393.354 133.948C393.354 139.146 391.792 144.839 394.391 149.708C395.693 152.432 399.161 153.995 401.849 152.51C404.276 151.026 405.401 148.224 406.266 145.667C408.089 140.219 409.995 134.693 412.682 129.578C413.807 127.516 415.021 125.37 416.932 123.885C417.885 123.063 419.271 123.063 420.484 122.813C420.745 127.432 418.141 131.474 417.276 135.932C416.411 139.807 416.151 144.427 418.922 147.646C422.042 151.031 427.245 151.854 431.578 150.698C437.557 148.802 441.891 142.781 442.151 136.51C442.328 132.797 442.5 128.755 440.505 125.453C439.641 123.719 437.995 121.906 438.688 119.76C438.938 118.724 439.401 117.781 440.068 116.948C440.734 116.109 441.547 115.453 442.505 114.974C443.927 117.021 444.823 119.276 445.193 121.74C445.885 127.432 445.969 133.292 447.964 138.74C449.177 141.875 451 145.089 454.203 146.573C457.151 147.979 460.792 148.307 463.651 146.823C465.474 145.917 465.906 143.688 465.474 141.875C464.26 135.932 460.188 131.229 458.281 125.536C457.24 122.651 456.458 119.677 457.068 116.708H457.057ZM515.307 115.469C517.125 114.646 519.729 115.302 520.594 117.203C520.708 117.641 520.682 118.063 520.5 118.479C520.323 118.896 520.036 119.214 519.641 119.427C518.401 119.099 517.219 118.63 516.089 118.026C514.615 120.833 513.833 123.969 512.964 127.104C512.448 125.563 511.75 124.104 510.885 122.729C509.672 121.083 507.766 120.255 506.38 118.771C505.943 117.448 507.5 115.964 508.807 116.375C510.714 116.953 511.839 118.688 512.964 120.255C513.484 118.521 513.745 116.458 515.307 115.469ZM282.135 122.401C283.609 119.266 286.469 116.953 289.594 115.469C288.813 117.531 287.51 119.266 286.469 121.161C285.604 122.479 285.693 124.13 285.604 125.615C287.646 125.443 289.641 125.026 291.583 124.375C290.979 125.948 290.37 127.677 288.896 128.75C287.339 129.906 284.995 130.568 283.349 129.411C281.443 127.76 281.094 124.708 282.135 122.401Z" fill="white"/>
<path d="M393 118.193C393.521 115.469 397.594 115.552 398.896 117.615C399.76 119.099 400.193 120.667 401.063 122.151C401.844 123.635 402.797 125.203 402.276 126.937C401.495 129.661 399.5 131.807 399.24 134.693C400.193 134.281 401.151 133.786 402.104 133.286C401.844 134.776 402.104 136.755 400.542 137.578C398.635 138.49 396.292 136.672 396.469 134.609C396.729 130.896 400.37 128.01 399.24 124.052C395.599 128.917 390.573 133.292 384.417 134.198C387.104 132.052 390.141 130.568 392.568 128.094C394.036 126.536 395.25 124.807 396.208 122.896C394.906 121.573 392.656 120.339 393 118.193ZM395.516 117.943C396.099 118.833 396.849 119.552 397.766 120.089C397.589 119.568 397.302 119.12 396.901 118.74C396.505 118.359 396.042 118.094 395.516 117.943ZM373.755 119.922C375.057 119.594 376.62 119.099 377.656 120.255C378.438 120.984 379.109 121.797 379.677 122.703C380.24 123.609 380.682 124.573 380.99 125.594C381.302 126.615 381.479 127.661 381.516 128.724C381.552 129.792 381.453 130.849 381.214 131.885C380.521 130.318 380 128.667 379.219 127.182C377.917 124.38 375.057 122.729 373.755 119.922ZM345.849 121.656C346.495 122.323 346.964 123.099 347.255 123.979C347.542 124.865 347.625 125.766 347.495 126.687C345.411 127.021 343.333 127.599 341.255 128.094C340.969 128.156 340.688 128.167 340.401 128.115C340.12 128.068 339.854 127.969 339.609 127.812C339.365 127.656 339.161 127.464 338.995 127.224C338.828 126.984 338.714 126.729 338.651 126.443C338.682 125.203 338.885 123.995 339.26 122.812C339.693 124.052 340.125 125.286 340.557 126.609C341.078 126.359 341.688 126.198 342.208 125.948V122.568H343.417C343.594 123.557 343.766 124.63 343.938 125.62C344.63 125.536 345.24 125.453 345.932 125.37C345.844 124.135 345.844 122.896 345.844 121.656H345.849ZM521.896 124.38C523.594 123.906 525.328 123.687 527.094 123.719C526.271 124.755 525.26 125.552 524.063 126.109C518.078 128.505 511.927 130.234 506.203 133.286C506.724 134.365 507.245 135.354 507.766 136.427C506.38 136.177 504.729 136.177 503.693 135.021C503.448 134.797 503.266 134.531 503.135 134.224C503.005 133.922 502.948 133.599 502.953 133.271C502.964 132.937 503.036 132.625 503.182 132.323C503.323 132.026 503.526 131.771 503.776 131.557C504.75 130.875 505.786 130.323 506.896 129.911C511.839 128.094 516.776 126.031 521.896 124.38ZM431.313 128.667C432 128.141 432.724 127.677 433.484 127.266C433.396 129.495 434.177 131.474 435.13 133.453C436.083 135.432 435.302 138.24 432.964 138.734C430.969 139.396 429.146 138.156 427.76 137C426.635 137.99 425.422 139.312 423.776 139.062C420.74 138.901 419.266 135.354 419.875 132.714C420.135 130.979 421.521 129.906 422.734 128.833C422.563 130.651 421.87 132.464 422.302 134.281C422.651 135.516 424.12 135.516 425.161 135.927C425.51 133.948 425.594 131.88 426.115 129.823C426.286 128.75 427.589 128.667 428.286 128.172C428.458 129.906 428.375 131.641 428.891 133.286C429.328 134.526 430.802 134.937 431.839 135.516C432.359 133.125 431.318 130.896 431.318 128.667H431.313ZM341.344 131.807C342.646 131.807 344.203 131.557 345.245 132.63C345.995 133.359 346.641 134.172 347.177 135.068C347.714 135.964 348.125 136.917 348.417 137.922C348.703 138.927 348.859 139.953 348.88 141C348.901 142.047 348.786 143.078 348.536 144.094C347.495 141.375 346.63 138.406 344.375 136.344C342.99 135.104 341.599 133.703 341.344 131.807ZM520.766 142.198C521.411 141.505 522.135 140.896 522.932 140.385C523.016 142.427 523.531 144.354 524.495 146.161C525.359 147.974 525.359 150.865 523.193 151.687C521.203 152.594 519.12 151.521 517.474 150.37C516.172 151.359 514.615 152.594 512.792 152.099C510.104 151.521 508.974 148.385 509.411 145.911C509.583 144.099 511.146 142.943 512.359 141.786C512.099 143.687 511.318 145.583 511.839 147.479C512.271 148.719 513.745 148.469 514.786 148.719C515.13 146.573 514.958 144.344 515.828 142.365C516.495 141.88 517.219 141.495 517.995 141.208C518.078 143.104 517.734 145.172 518.688 146.901C519.292 147.974 520.594 148.057 521.635 148.385C521.547 146.323 520.943 144.26 520.766 142.198ZM592.797 145.172C592.74 145.021 592.703 144.865 592.688 144.703C592.672 144.542 592.672 144.385 592.693 144.224C592.714 144.062 592.755 143.911 592.818 143.76C592.875 143.609 592.953 143.469 593.047 143.339C593.141 143.208 593.25 143.094 593.375 142.99C593.495 142.885 593.63 142.797 593.776 142.729C593.917 142.656 594.068 142.604 594.229 142.573C594.385 142.536 594.542 142.526 594.703 142.531C596.875 142.531 598.521 144.344 599.557 146.078C601.38 149.625 602.245 153.917 600.771 157.708C599.995 154.328 600.078 150.036 596.958 147.812C595.568 146.984 593.922 146.49 592.797 145.172ZM473.094 152.594C473.599 152.078 474.198 151.719 474.896 151.526C475.594 151.339 476.297 151.333 476.995 151.521C478.729 153.172 478.38 156.141 476.995 157.875C474.479 161.177 470.318 162.745 466.245 162.745C468.76 161.26 471.62 160.432 473.875 158.536C474.911 157.792 474.74 156.391 474.911 155.234C473.698 155.401 472.484 155.646 471.359 155.812C471.818 154.677 472.396 153.604 473.094 152.594ZM531.344 155.151C532.125 154.99 533.161 154.495 533.682 155.318C533.078 157.297 530.995 158.125 529.349 158.948C523.109 161.833 517.042 165.052 510.885 168.188C510.625 167.609 510.281 167.115 510.021 166.542C513.484 163.984 517.302 162.083 521.026 160.026C524.495 158.292 527.786 156.396 531.344 155.156V155.151ZM413.891 160.021C414.063 158.781 414.932 157.875 415.625 156.969C420.391 162.167 424.464 168.188 426.63 175.036C428.714 181.552 429.234 188.401 430.531 195.083C431.229 198.469 431.833 202.016 434.089 204.734C435.563 206.635 437.729 207.792 439.807 208.943C440.24 206.797 440.76 204.49 442.755 203.255C448.823 199.208 455.844 196.74 462.776 194.51C457.146 194.344 451.422 194.51 445.786 194.427C441.193 194.344 436.599 194.755 432.094 193.932C432.266 192.198 432.266 190.385 433.307 188.818C435.385 185.349 439.026 183.37 442.495 181.557C447.724 178.755 453.182 176.526 458.875 174.875C457.401 173.307 455.151 171.573 455.755 169.016C456.797 166.047 459.396 163.073 462.693 163.156C466.333 163.156 469.885 164.641 473.005 166.458C474.911 167.693 477.255 169.016 477.943 171.323C477.745 172.995 477.109 174.479 476.036 175.781C474.042 178.255 470.49 178.089 467.542 178.422C467.37 180.401 467.109 182.792 465.115 183.703C464.516 182.146 463.88 180.604 463.208 179.078C456.016 180.401 449.599 184.115 443.969 188.568C459.917 188.651 475.776 188.24 491.729 188.323C492.766 188.401 493.807 188.484 494.849 188.651C494.156 192.859 489.906 194.922 486.182 195.828C478.641 197.474 471.099 198.964 463.557 200.448C457.922 201.604 452.203 202.922 447.089 205.479C445.161 206.495 443.568 207.896 442.323 209.688C446.078 211.01 449.922 212 453.849 212.656C455.151 212.99 456.969 213.234 457.318 214.802C457.833 216.865 457.922 219.755 455.927 221.073C453.417 221.651 450.813 221.073 448.302 220.661C441.365 219.589 434.693 215.958 430.703 210.021C427.672 205.729 426.802 200.365 426.026 195.25C424.104 198.12 421.911 200.76 419.438 203.172C412.677 209.526 404.531 214.146 396.036 217.854C393.089 219.177 389.359 219.589 386.411 217.776C384.333 216.536 383.552 213.979 382.688 211.833C374.797 215.88 366.734 219.755 357.979 221.406C352.604 222.49 347.172 223.042 341.688 223.052C344.547 221.651 347.495 220.578 350.354 219.422C359.891 215.464 369.25 211.005 378.438 206.219C379.568 205.563 380.953 204.984 381.729 203.911C382.599 201.521 382.688 198.964 383.984 196.651C385.411 193.87 387.464 191.667 390.141 190.052C388.495 193.682 386.76 197.396 386.24 201.354C391.87 198.026 397.042 194.094 401.755 189.557C402.969 188.234 404.703 186.583 404.01 184.604C403.141 181.802 401.667 179.328 400.625 176.604C399.068 172.641 397.161 168.516 397.594 164.146C397.682 162.74 398.719 161.672 399.417 160.599C403.229 163.068 405.656 167.115 407.823 170.995C407.042 171.156 406.177 171.323 405.396 171.49C406.87 175.531 409.297 179.161 409.99 183.448C410.297 185.135 410.219 186.802 409.766 188.453C409.307 190.099 408.516 191.568 407.391 192.854C401.495 199.208 394.219 203.995 387.365 209.193C388.578 209.854 389.88 210.76 391.354 210.677C394.214 210.594 396.99 209.604 399.583 208.531C409.12 204.323 416.922 197.313 424.984 190.792C422.99 183.036 419.438 175.776 415.708 168.682C414.193 165.984 413.583 163.099 413.891 160.021ZM459.917 170.25C460.891 171.63 462.161 172.62 463.734 173.219C466.078 173.714 468.328 172.313 470.063 170.828C467.891 169.182 465.38 167.859 462.609 167.859C461.307 167.859 459.922 168.932 459.922 170.25H459.917ZM294.62 160.021C294.625 159.76 294.682 159.51 294.786 159.271C294.891 159.031 295.036 158.818 295.219 158.63C295.406 158.448 295.62 158.307 295.859 158.203C296.099 158.099 296.349 158.047 296.615 158.042C299.557 157.708 301.641 160.104 303.458 162C304.411 162.99 305.193 164.313 304.589 165.714C304.24 167.281 302.417 167.198 301.208 167.526C298.604 167.693 297.568 170.5 295.573 171.734C291.583 174.458 286.646 176.604 281.703 175.943C282.917 174.208 284.911 173.469 286.818 172.891C290.37 171.734 293.234 169.177 295.833 166.536C295.141 164.396 294.271 162.25 294.62 160.021ZM296.266 160.349C296.396 161.823 296.828 163.198 297.568 164.474C298.094 163.307 298.583 162.125 299.036 160.927C298.125 160.688 297.198 160.495 296.266 160.349ZM300.167 165.714C301.12 165.63 302.073 165.464 303.026 165.385C302.88 164.13 302.562 162.917 302.073 161.755C300.859 162.661 300.688 164.313 300.167 165.714Z" fill="white"/>
<path d="M441.802 160.682C442.406 160.063 443.099 159.568 443.88 159.198C443.88 162.083 445.964 164.313 446.224 167.115C446.484 170.005 442.755 171.49 440.5 170.167C439.807 169.672 439.203 169.094 438.594 168.599C437.38 169.672 436.078 171.24 434.26 170.828C431.484 170.333 430.01 167.115 430.531 164.474C430.792 162.661 432.266 161.505 433.568 160.432C433.307 162.167 432.698 163.813 432.875 165.63C433.047 166.948 434.521 167.365 435.562 167.943C436.146 165.885 436.552 163.797 436.776 161.672C436.948 160.516 438.333 160.349 439.115 159.771C439.203 161.505 439.115 163.318 439.635 164.969C440.156 166.125 441.37 166.703 442.323 167.365C443.359 165.135 441.891 162.906 441.802 160.682ZM303.458 171.24C304.932 170.583 306.495 169.755 308.141 169.594C309.703 169.51 310.479 171.901 309.266 172.896C307.443 174.297 305.276 174.875 303.198 175.781C298.344 178.089 293.49 180.318 288.719 182.875C287.682 183.536 286.38 183.37 285.255 183.208C285.917 181.724 286.927 180.542 288.286 179.656C293.318 176.604 298.344 173.797 303.458 171.24ZM485.75 173.797C486.094 172.151 488 171.901 489.391 171.406C489.734 173.797 489.995 176.276 491.469 178.255C490.687 178.339 489.911 178.417 489.214 178.5C488.177 180.068 487.047 181.802 485.312 182.625C482.453 184.026 479.245 184.026 476.125 183.865C479.422 182.958 483.495 182.708 485.661 179.74C487.135 178.005 485.573 175.781 485.75 173.797ZM551.193 176.193C551.625 174.87 553.187 174.87 554.312 175.036C556.74 175.448 558.474 177.51 560.031 179.245C560.323 179.516 560.562 179.823 560.74 180.182C560.917 180.536 561.026 180.911 561.062 181.307C561.104 181.703 561.073 182.089 560.969 182.474C560.865 182.859 560.698 183.214 560.469 183.531C558.906 184.771 556.391 184.026 555.005 185.677C550.844 190.464 544.427 193.516 538.016 192.854C539.229 191.125 541.219 190.38 543.214 189.802C546.771 188.651 549.542 186.01 552.141 183.453C551.448 181.141 550.411 178.667 551.187 176.193H551.193ZM552.839 177.182C553.01 178.682 553.359 180.135 553.88 181.552C554.521 180.427 555.042 179.245 555.437 178.005C554.573 177.677 553.62 177.427 552.839 177.182ZM557.865 178.995C557.37 180.177 556.964 181.385 556.651 182.625C557.604 182.542 558.557 182.38 559.51 182.297C559.328 181.13 559.01 180.005 558.557 178.911C558.385 178.911 558.042 178.995 557.865 178.995ZM387.193 178.75C388.839 177.182 391.786 178.005 392.828 179.906C393.349 180.974 392.219 181.802 391.786 182.625C390.953 182.042 390.057 181.578 389.099 181.224C388.234 180.974 387.974 181.969 387.714 182.542C386.672 185.016 386.151 187.661 385.375 190.219C384.885 188.625 384.219 187.115 383.38 185.677C382.339 184.193 380.604 183.37 379.307 182.13C378.094 181.141 379.391 178.995 380.781 179.245C382.771 179.49 383.984 181.307 385.375 182.625C385.891 181.307 386.24 179.823 387.193 178.75ZM283.005 193.104C284.755 190.255 287.151 188.135 290.198 186.75C289.344 188.75 288.302 190.646 287.078 192.443C286.214 193.766 286.214 195.333 286.125 196.818C288.141 196.703 290.135 196.427 292.104 195.99C291.583 197.557 290.984 199.292 289.505 200.198C287.859 201.271 285.516 202.099 283.781 200.693C283.339 200.177 282.979 199.609 282.703 198.979C282.432 198.354 282.266 197.703 282.193 197.021C282.125 196.344 282.156 195.672 282.297 195C282.437 194.333 282.672 193.698 283.005 193.104ZM421.344 205.807C422.818 205.563 424.552 204.901 425.854 205.974C426.182 206.198 426.453 206.474 426.667 206.818C426.875 207.156 427.005 207.521 427.057 207.917C427.104 208.313 427.073 208.703 426.953 209.083C426.833 209.464 426.641 209.802 426.375 210.099C424.552 211.089 422.214 210.51 420.651 211.917C420.911 214.057 422.557 215.792 422.906 217.854C422.99 219.177 421.953 220.25 421.344 221.323C420.911 219.26 420.562 217.031 419.437 215.214C418.745 213.896 417.703 212.573 418.052 211.005C418.396 209.276 420.219 208.448 421.521 207.625C421.411 207.026 421.349 206.422 421.344 205.807ZM487.828 208.37C488.521 206.635 490.167 205.807 491.646 204.901C491.036 206.302 490 207.708 489.823 209.276C490.521 210.51 491.646 211.422 492.25 212.74C492.427 214.885 489.307 215.214 488.177 213.896C486.88 212.411 487.057 210.099 487.833 208.37H487.828ZM471.792 205.974C474.219 205.151 476.818 205.974 478.99 207.214C477.427 210.432 473.786 211.255 471.099 213.234C471.198 213.667 471.255 214.109 471.271 214.557C473.177 214.635 475.172 214.885 476.818 213.896C478.969 212.656 481.255 211.75 483.667 211.172C481.76 212.818 479.943 214.474 478.036 216.042C475.781 217.854 472.661 217.854 469.974 217.115C468.672 216.698 467.026 215.547 467.458 213.891C468.151 211.828 470.234 210.755 471.88 209.521C470.667 209.438 469.542 209.354 468.323 209.271C469.281 207.953 470.146 206.302 471.792 205.974ZM534.635 211.833C534.547 211.708 534.474 211.578 534.417 211.438C534.365 211.297 534.323 211.151 534.307 211C534.286 210.854 534.286 210.703 534.307 210.552C534.328 210.401 534.365 210.255 534.422 210.115C534.479 209.974 534.552 209.844 534.641 209.724C534.729 209.604 534.833 209.495 534.953 209.396C535.068 209.302 535.198 209.224 535.333 209.161C535.469 209.099 535.615 209.052 535.76 209.026C538.104 208.615 540.099 210.51 541.135 212.411C541.88 213.75 542.266 215.188 542.297 216.719C542.328 218.25 542 219.703 541.312 221.073C540.875 219.177 540.875 217.198 539.922 215.464C538.625 213.729 536.198 213.401 534.635 211.833ZM573.901 213.068C577.109 211.917 580.318 210.432 583.781 210.76C583.062 212.115 581.995 213.073 580.573 213.646C575.198 215.625 569.74 217.443 564.453 219.672C562.776 220.422 561.042 221 559.25 221.401C559.078 220.906 558.818 220.411 558.646 219.917C563.5 217.115 568.698 215.13 573.901 213.068ZM563.427 319.047H536.729V316.516C537.932 315.474 539.573 314.057 539.573 313.24C539.573 311.823 536.214 308.917 535.437 308.917C534.578 308.917 531.307 311.896 531.307 313.24C531.307 314.13 532.771 315.396 533.974 316.443L534.062 316.516V319.125H323.495C330.984 326.573 342.094 326.5 364.401 326.719C384.292 327.021 384.208 327.021 533.974 326.719V329.401C532.766 330.448 531.302 331.859 531.302 332.682C531.302 334.094 534.49 337 535.437 337C536.042 337 538.021 335.365 539.052 333.948H548.266C548.87 334.99 550.25 335.583 551.885 335.583C552.589 335.63 553.26 335.51 553.896 335.219C554.536 334.927 555.073 334.505 555.5 333.948H566.526C567.099 334.531 567.771 334.969 568.542 335.255C569.307 335.542 570.099 335.651 570.917 335.583C575.141 335.438 576.083 333.276 576.083 325.828C575.995 319.568 571.776 318.901 563.422 319.047H563.427ZM565.318 331.635H555.5C555.281 331.37 555.036 331.13 554.766 330.917C554.49 330.703 554.198 330.521 553.885 330.375C553.573 330.224 553.25 330.115 552.911 330.036C552.573 329.964 552.229 329.922 551.885 329.922C551.542 329.922 551.198 329.964 550.859 330.036C550.521 330.115 550.198 330.224 549.885 330.375C549.573 330.521 549.281 330.703 549.005 330.917C548.734 331.13 548.49 331.37 548.271 331.635H539.224C538.542 330.74 537.74 329.974 536.812 329.328V326.646H565.406C564.849 328.302 564.818 329.964 565.318 331.635Z" fill="white"/>
</g>
</g>
<defs>
<clipPath id="clip0_765_9320">
<rect width="900" height="450" fill="white"/>
</clipPath>
</defs>
</svg>
