<svg width="900" height="450" viewBox="0 0 900 450" fill="none" xmlns="http://www.w3.org/2000/svg">
<rect width="900" height="450" fill="#1E1E1E"/>
<g clip-path="url(#clip0_0_1)">
<mask id="mask0_0_1" style="mask-type:luminance" maskUnits="userSpaceOnUse" x="0" y="0" width="900" height="450">
<path d="M0 -3.37219e-06H900V450H0V-3.37219e-06Z" fill="white"/>
</mask>
<g mask="url(#mask0_0_1)">
<path d="M0 -3.37219e-06H900V450H0V-3.37219e-06Z" fill="white"/>
<path d="M0 -3.37219e-06H900V450H0V-3.37219e-06Z" fill="white"/>
<path d="M0 450V-3.37219e-06H900L0 450Z" fill="#0051BA"/>
<path d="M0 450H900V-3.37219e-06L0 450Z" fill="#215B33"/>
<path d="M-4.76837e-07 450L900 -3.37219e-06Z" fill="black"/>
<path d="M-4.76837e-07 450L900 -3.37219e-06" stroke="#FCD116" stroke-width="40.4401"/>
</g>
<path d="M157.932 89.8646L144.047 132.599L165.417 139.542L157.932 89.8646Z" fill="white"/>
<path d="M157.932 89.8646L171.818 132.599L150.453 139.542L157.932 89.8646Z" fill="white"/>
<path d="M200.667 120.917H155.734V143.38L200.667 120.917Z" fill="white"/>
<path d="M200.667 120.917L164.312 147.328L151.109 129.151L200.667 120.917Z" fill="white"/>
<path d="M115.198 120.917L151.552 147.328L164.755 129.151L115.198 120.917Z" fill="white"/>
<path d="M115.198 120.917H160.13V143.38L115.198 120.917Z" fill="white"/>
<path d="M184.344 171.151L170.458 128.417L149.094 135.359L184.344 171.151Z" fill="white"/>
<path d="M184.344 171.151L147.99 144.74L161.198 126.562L184.344 171.151Z" fill="white"/>
<path d="M131.521 171.151L167.875 144.74L154.667 126.562L131.521 171.151Z" fill="white"/>
<path d="M131.521 171.151L145.406 128.417L166.776 135.359L131.521 171.151Z" fill="white"/>
<path d="M69.2292 13.8385L55.3437 56.5729L76.7135 63.5156L69.2292 13.8385Z" fill="white"/>
<path d="M69.2292 13.8385L83.1146 56.5729L61.75 63.5156L69.2292 13.8385Z" fill="white"/>
<path d="M111.964 44.8854H67.0312V67.3542L111.964 44.8854Z" fill="white"/>
<path d="M111.964 44.8854L75.6094 71.2969L62.4062 53.125L111.964 44.8854Z" fill="white"/>
<path d="M26.4948 44.8854L62.8489 71.2969L76.0521 53.125L26.4948 44.8854Z" fill="white"/>
<path d="M26.4948 44.8854H71.4271V67.3542L26.4948 44.8854Z" fill="white"/>
<path d="M95.6406 95.125L81.7552 52.3906L60.3906 59.3333L95.6406 95.125Z" fill="white"/>
<path d="M95.6406 95.125L59.2864 68.7135L72.4948 50.5365L95.6406 95.125Z" fill="white"/>
<path d="M42.8177 95.125L79.1719 68.7135L65.9635 50.5365L42.8177 95.125Z" fill="white"/>
<path d="M42.8177 95.125L56.7031 52.3906L78.0729 59.3333L42.8177 95.125Z" fill="white"/>
<path d="M246.635 165.896L232.75 208.63L254.12 215.573L246.635 165.896Z" fill="white"/>
<path d="M246.635 165.896L260.521 208.63L239.156 215.573L246.635 165.896Z" fill="white"/>
<path d="M289.37 196.943H244.438V219.411L289.37 196.943Z" fill="white"/>
<path d="M289.37 196.943L253.021 223.354L239.812 205.177L289.37 196.943Z" fill="white"/>
<path d="M203.901 196.943L240.255 223.354L253.458 205.177L203.901 196.943Z" fill="white"/>
<path d="M203.901 196.943H248.833V219.411L203.901 196.943Z" fill="white"/>
<path d="M273.047 247.182L259.161 204.448L237.797 211.391L273.047 247.182Z" fill="white"/>
<path d="M273.047 247.182L236.698 220.771L249.901 202.594L273.047 247.182Z" fill="white"/>
<path d="M220.224 247.182L256.578 220.771L243.37 202.594L220.224 247.182Z" fill="white"/>
<path d="M220.224 247.182L234.109 204.448L255.479 211.391L220.224 247.182Z" fill="white"/>
<path d="M246.635 13.8385L260.521 56.5729L239.156 63.5156L246.635 13.8385Z" fill="white"/>
<path d="M246.635 13.8385L232.75 56.5729L254.12 63.5156L246.635 13.8385Z" fill="white"/>
<path d="M203.901 44.8854H248.833V67.3542L203.901 44.8854Z" fill="white"/>
<path d="M203.901 44.8854L240.255 71.2969L253.458 53.125L203.901 44.8854Z" fill="white"/>
<path d="M289.37 44.8854L253.021 71.2969L239.812 53.125L289.37 44.8854Z" fill="white"/>
<path d="M289.37 44.8854H244.438V67.3542L289.37 44.8854Z" fill="white"/>
<path d="M220.224 95.125L234.109 52.3906L255.479 59.3333L220.224 95.125Z" fill="white"/>
<path d="M220.224 95.125L256.578 68.7135L243.37 50.5365L220.224 95.125Z" fill="white"/>
<path d="M273.047 95.125L236.698 68.7135L249.901 50.5365L273.047 95.125Z" fill="white"/>
<path d="M273.047 95.125L259.161 52.3906L237.797 59.3333L273.047 95.125Z" fill="white"/>
<path d="M69.2292 165.896L83.1146 208.63L61.75 215.573L69.2292 165.896Z" fill="white"/>
<path d="M69.2292 165.896L55.3437 208.63L76.7135 215.573L69.2292 165.896Z" fill="white"/>
<path d="M26.4948 196.943H71.4271V219.411L26.4948 196.943Z" fill="white"/>
<path d="M26.4948 196.943L62.8489 223.354L76.0521 205.177L26.4948 196.943Z" fill="white"/>
<path d="M111.964 196.943L75.6094 223.354L62.4062 205.177L111.964 196.943Z" fill="white"/>
<path d="M111.964 196.943H67.0312V219.411L111.964 196.943Z" fill="white"/>
<path d="M42.8177 247.182L56.7031 204.448L78.0729 211.391L42.8177 247.182Z" fill="white"/>
<path d="M42.8177 247.182L79.1719 220.771L65.9635 202.594L42.8177 247.182Z" fill="white"/>
<path d="M95.6406 247.182L59.2864 220.771L72.4948 202.594L95.6406 247.182Z" fill="white"/>
<path d="M95.6406 247.182L81.7552 204.448L60.3906 211.391L95.6406 247.182Z" fill="white"/>
</g>
<defs>
<clipPath id="clip0_0_1">
<rect width="900" height="450" fill="white"/>
</clipPath>
</defs>
</svg>
