<svg width="900" height="450" viewBox="0 0 900 450" fill="none" xmlns="http://www.w3.org/2000/svg">
<g clip-path="url(#clip0_765_9504)">
<path d="M900 0H0V450H900V0Z" fill="#1E1E1E"/>
<mask id="mask0_765_9504" style="mask-type:luminance" maskUnits="userSpaceOnUse" x="0" y="0" width="900" height="450">
<path d="M900 0H0V450H900V0Z" fill="white"/>
</mask>
<g mask="url(#mask0_765_9504)">
<mask id="mask1_765_9504" style="mask-type:luminance" maskUnits="userSpaceOnUse" x="0" y="0" width="899" height="450">
<path d="M0 0H898.667V449.333H0V0Z" fill="white"/>
</mask>
<g mask="url(#mask1_765_9504)">
<path d="M0 0H898.667V449.333H0V0Z" fill="white"/>
<path d="M0 0H898.667V449.333H0V0Z" fill="white"/>
<path d="M0 449.333H898.667V0H0V449.333Z" fill="#D62828"/>
</g>
<mask id="mask2_765_9504" style="mask-type:luminance" maskUnits="userSpaceOnUse" x="0" y="0" width="600" height="450">
<path d="M0 0H599.333V449.333H0V0Z" fill="white"/>
</mask>
<g mask="url(#mask2_765_9504)">
<path d="M0 449.333V0H599.109L0 449.333Z" fill="#FCD856"/>
</g>
<mask id="mask3_765_9504" style="mask-type:luminance" maskUnits="userSpaceOnUse" x="0" y="0" width="301" height="450">
<path d="M0 0H300.667V449.333H0V0Z" fill="white"/>
</mask>
<g mask="url(#mask3_765_9504)">
<path d="M0 449.333V0H299.557L0 449.333Z" fill="#003F87"/>
</g>
<mask id="mask4_765_9504" style="mask-type:luminance" maskUnits="userSpaceOnUse" x="0" y="149" width="899" height="301">
<path d="M0 149.333H898.667V449.333H0V149.333Z" fill="white"/>
</mask>
<g mask="url(#mask4_765_9504)">
<path d="M0 449.333H898.667V149.776L0 449.333Z" fill="white"/>
</g>
<mask id="mask5_765_9504" style="mask-type:luminance" maskUnits="userSpaceOnUse" x="0" y="298" width="900" height="152">
<path d="M0 298.667H900V449.667H0V298.667Z" fill="white"/>
</mask>
<g mask="url(#mask5_765_9504)">
<path d="M0 449.667H900V299.559L0 449.667Z" fill="#007A3D"/>
</g>
</g>
</g>
<defs>
<clipPath id="clip0_765_9504">
<rect width="900" height="450" fill="white"/>
</clipPath>
</defs>
</svg>
