<svg width="900" height="450" viewBox="0 0 900 450" fill="none" xmlns="http://www.w3.org/2000/svg">
<g clip-path="url(#clip0_765_9566)">
<path d="M900 0H0V450H900V0Z" fill="#1E1E1E"/>
<mask id="mask0_765_9566" style="mask-type:luminance" maskUnits="userSpaceOnUse" x="0" y="0" width="900" height="450">
<path d="M900 0H0V450H900V0Z" fill="white"/>
</mask>
<g mask="url(#mask0_765_9566)">
<mask id="mask1_765_9566" style="mask-type:luminance" maskUnits="userSpaceOnUse" x="0" y="0" width="900" height="450">
<path d="M0 0H900V450H0V0Z" fill="white"/>
</mask>
<g mask="url(#mask1_765_9566)">
<path d="M0 0H900V450H0V0Z" fill="white"/>
<path d="M0 0H900V450H0V0Z" fill="white"/>
<path d="M0 0H900V450H0V0Z" fill="black"/>
</g>
<mask id="mask2_765_9566" style="mask-type:luminance" maskUnits="userSpaceOnUse" x="0" y="0" width="900" height="300">
<path d="M0 0H900V300H0V0Z" fill="white"/>
</mask>
<g mask="url(#mask2_765_9566)">
<path d="M0 0H900V299.557H0V0Z" fill="white"/>
</g>
<mask id="mask3_765_9566" style="mask-type:luminance" maskUnits="userSpaceOnUse" x="0" y="0" width="900" height="151">
<path d="M0 0H900V150.667H0V0Z" fill="white"/>
</mask>
<g mask="url(#mask3_765_9566)">
<path d="M0 0H900V149.776H0V0Z" fill="#D21034"/>
</g>
<mask id="mask4_765_9566" style="mask-type:luminance" maskUnits="userSpaceOnUse" x="0" y="0" width="301" height="450">
<path d="M0 0H300.667V450H0V0Z" fill="white"/>
</mask>
<g mask="url(#mask4_765_9566)">
<path d="M0 0L299.557 225L0 450V0Z" fill="#007229"/>
</g>
</g>
</g>
<defs>
<clipPath id="clip0_765_9566">
<rect width="900" height="450" fill="white"/>
</clipPath>
</defs>
</svg>
