<svg width="900" height="450" viewBox="0 0 900 450" fill="none" xmlns="http://www.w3.org/2000/svg">
<g clip-path="url(#clip0_765_9618)">
<path d="M900 0H0V450H900V0Z" fill="#1E1E1E"/>
<mask id="mask0_765_9618" style="mask-type:luminance" maskUnits="userSpaceOnUse" x="0" y="0" width="900" height="450">
<path d="M900 0H0V450H900V0Z" fill="white"/>
</mask>
<g mask="url(#mask0_765_9618)">
<mask id="mask1_765_9618" style="mask-type:luminance" maskUnits="userSpaceOnUse" x="0" y="0" width="900" height="450">
<path d="M0 0H900V450H0V0Z" fill="white"/>
</mask>
<g mask="url(#mask1_765_9618)">
<path d="M0 0H900V450H0V0Z" fill="white"/>
<path d="M0 0H900V450H0V0Z" fill="white"/>
</g>
<mask id="mask2_765_9618" style="mask-type:luminance" maskUnits="userSpaceOnUse" x="0" y="0" width="900" height="450">
<path d="M0 0H900V450H0V0Z" fill="white"/>
</mask>
<g mask="url(#mask2_765_9618)">
<path d="M0 0H900V450H0V0Z" fill="#006AA7"/>
</g>
<path d="M225 0H315V450H225V0Z" fill="#FECC00"/>
<mask id="mask3_765_9618" style="mask-type:luminance" maskUnits="userSpaceOnUse" x="0" y="178" width="900" height="93">
<path d="M0 178.667H900V270.667H0V178.667Z" fill="white"/>
</mask>
<g mask="url(#mask3_765_9618)">
<path d="M0 179.734H900V269.599H0V179.734Z" fill="#FECC00"/>
</g>
</g>
</g>
<defs>
<clipPath id="clip0_765_9618">
<rect width="900" height="450" fill="white"/>
</clipPath>
</defs>
</svg>
