<svg width="900" height="450" viewBox="0 0 900 450" fill="none" xmlns="http://www.w3.org/2000/svg">
<g clip-path="url(#clip0_765_9671)">
<path d="M900 0H0V450H900V0Z" fill="#1E1E1E"/>
<mask id="mask0_765_9671" style="mask-type:luminance" maskUnits="userSpaceOnUse" x="0" y="0" width="900" height="450">
<path d="M900 0H0V450H900V0Z" fill="white"/>
</mask>
<g mask="url(#mask0_765_9671)">
<mask id="mask1_765_9671" style="mask-type:luminance" maskUnits="userSpaceOnUse" x="0" y="0" width="900" height="450">
<path d="M0 0H900V450H0V0Z" fill="white"/>
</mask>
<g mask="url(#mask1_765_9671)">
<path d="M0 0H900V450H0V0Z" fill="white"/>
<path d="M0 0H900V450H0V0Z" fill="white"/>
</g>
<mask id="mask2_765_9671" style="mask-type:luminance" maskUnits="userSpaceOnUse" x="-1" y="0" width="902" height="225">
<path d="M-1 -3.37219e-06H901V225H-1V-3.37219e-06Z" fill="white"/>
</mask>
<g mask="url(#mask2_765_9671)">
<path d="M-0.721192 -3.37219e-06H900.721V224.334H-0.721192V-3.37219e-06Z" fill="#ED2939"/>
</g>
<mask id="mask3_765_9671" style="mask-type:luminance" maskUnits="userSpaceOnUse" x="-1" y="224" width="902" height="225">
<path d="M-1 224H901V449H-1V224Z" fill="white"/>
</mask>
<g mask="url(#mask3_765_9671)">
<path d="M-0.721192 224.666H900.721V449H-0.721192V224.666Z" fill="white"/>
</g>
<path d="M231.901 112.333C231.901 113.719 231.87 115.099 231.802 116.479C231.734 117.859 231.63 119.24 231.495 120.615C231.359 121.99 231.193 123.365 230.99 124.729C230.786 126.099 230.547 127.458 230.281 128.818C230.01 130.172 229.708 131.521 229.37 132.859C229.036 134.203 228.667 135.536 228.266 136.859C227.865 138.182 227.432 139.495 226.964 140.797C226.5 142.099 226.005 143.385 225.474 144.667C224.948 145.943 224.385 147.203 223.797 148.453C223.203 149.703 222.583 150.938 221.932 152.161C221.281 153.38 220.599 154.583 219.891 155.766C219.177 156.953 218.437 158.12 217.672 159.271C216.906 160.422 216.109 161.552 215.286 162.661C214.464 163.771 213.615 164.859 212.734 165.932C211.859 167 210.958 168.047 210.031 169.068C209.104 170.094 208.151 171.094 207.172 172.073C206.193 173.052 205.193 174.005 204.172 174.932C203.146 175.859 202.099 176.766 201.031 177.641C199.964 178.516 198.875 179.37 197.766 180.193C196.656 181.016 195.526 181.813 194.38 182.578C193.229 183.349 192.062 184.089 190.875 184.797C189.693 185.51 188.49 186.193 187.271 186.844C186.052 187.495 184.818 188.115 183.568 188.708C182.318 189.297 181.057 189.859 179.781 190.385C178.505 190.917 177.214 191.411 175.917 191.88C174.615 192.344 173.302 192.776 171.979 193.182C170.656 193.583 169.328 193.948 167.984 194.286C166.646 194.62 165.297 194.927 163.943 195.193C162.589 195.464 161.224 195.698 159.859 195.901C158.49 196.104 157.12 196.276 155.745 196.411C154.37 196.547 152.995 196.646 151.615 196.714C150.234 196.786 148.854 196.818 147.469 196.818C146.089 196.818 144.708 196.786 143.328 196.714C141.948 196.646 140.568 196.547 139.193 196.411C137.818 196.276 136.448 196.104 135.083 195.901C133.714 195.698 132.354 195.464 131 195.193C129.641 194.927 128.297 194.62 126.953 194.286C125.615 193.948 124.281 193.583 122.958 193.182C121.641 192.776 120.328 192.344 119.026 191.88C117.724 191.411 116.437 190.917 115.161 190.385C113.885 189.859 112.62 189.297 111.37 188.708C110.12 188.115 108.885 187.495 107.672 186.844C106.453 186.193 105.25 185.51 104.062 184.797C102.88 184.089 101.714 183.349 100.562 182.578C99.4114 181.813 98.2864 181.016 97.1719 180.193C96.0625 179.37 94.9739 178.516 93.9062 177.641C92.8385 176.766 91.7917 175.859 90.7708 174.932C89.7448 174.005 88.7448 173.052 87.7656 172.073C86.7917 171.094 85.8385 170.094 84.9114 169.068C83.9844 168.047 83.0781 167 82.2031 165.932C81.3281 164.859 80.4792 163.771 79.6562 162.661C78.8333 161.552 78.0364 160.422 77.2656 159.271C76.5 158.12 75.7604 156.953 75.0521 155.766C74.3385 154.583 73.6614 153.38 73.0104 152.161C72.3594 150.938 71.7344 149.703 71.1458 148.453C70.5521 147.203 69.9948 145.943 69.4635 144.667C68.9375 143.385 68.4375 142.099 67.9739 140.797C67.5104 139.495 67.0729 138.182 66.6719 136.859C66.2708 135.536 65.9062 134.203 65.5677 132.859C65.2344 131.521 64.9323 130.172 64.6614 128.818C64.3906 127.458 64.1562 126.099 63.9531 124.729C63.75 123.365 63.5781 121.99 63.4427 120.615C63.3073 119.24 63.2083 117.859 63.1406 116.479C63.0729 115.099 63.0364 113.719 63.0364 112.333C63.0364 110.953 63.0729 109.568 63.1406 108.187C63.2083 106.807 63.3073 105.427 63.4427 104.052C63.5781 102.677 63.75 101.307 63.9531 99.9375C64.1562 98.5677 64.3906 97.2083 64.6614 95.849C64.9323 94.4948 65.2344 93.1458 65.5677 91.8073C65.9062 90.4635 66.2708 89.1302 66.6719 87.8073C67.0729 86.4844 67.5104 85.1719 67.9739 83.8698C68.4375 82.5677 68.9375 81.2812 69.4635 80.0052C69.9948 78.724 70.5521 77.4635 71.1458 76.2135C71.7344 74.9635 72.3594 73.7292 73.0104 72.5104C73.6614 71.2865 74.3385 70.0885 75.0521 68.901C75.7604 67.7135 76.5 66.5469 77.2656 65.3958C78.0364 64.2448 78.8333 63.1146 79.6562 62.0052C80.4792 60.8958 81.3281 59.8073 82.2031 58.7396C83.0781 57.6667 83.9844 56.6198 84.9114 55.599C85.8385 54.5729 86.7917 53.5729 87.7656 52.5937C88.7448 51.6146 89.7448 50.6615 90.7708 49.7344C91.7917 48.8073 92.8385 47.901 93.9062 47.026C94.9739 46.151 96.0625 45.2969 97.1719 44.474C98.2864 43.651 99.4114 42.8542 100.562 42.0885C101.714 41.3177 102.88 40.5781 104.062 39.8698C105.25 39.1562 106.453 38.4792 107.672 37.8229C108.885 37.1719 110.12 36.5521 111.37 35.9583C112.62 35.3698 113.885 34.8073 115.161 34.2812C116.437 33.75 117.724 33.2552 119.026 32.7865C120.328 32.3229 121.641 31.8906 122.958 31.4896C124.281 31.0833 125.615 30.7187 126.953 30.3802C128.297 30.0469 129.641 29.7448 131 29.474C132.354 29.2031 133.714 28.9687 135.083 28.7656C136.448 28.5625 137.818 28.3906 139.193 28.2552C140.568 28.1198 141.948 28.0208 143.328 27.9531C144.708 27.8854 146.089 27.849 147.469 27.849C148.854 27.849 150.234 27.8854 151.615 27.9531C152.995 28.0208 154.37 28.1198 155.745 28.2552C157.12 28.3906 158.49 28.5625 159.859 28.7656C161.224 28.9687 162.589 29.2031 163.943 29.474C165.297 29.7448 166.646 30.0469 167.984 30.3802C169.328 30.7187 170.656 31.0833 171.979 31.4896C173.302 31.8906 174.615 32.3229 175.917 32.7865C177.214 33.2552 178.505 33.75 179.781 34.2812C181.057 34.8073 182.318 35.3698 183.568 35.9583C184.818 36.5521 186.052 37.1719 187.271 37.8229C188.49 38.4792 189.693 39.1562 190.875 39.8698C192.062 40.5781 193.229 41.3177 194.38 42.0885C195.526 42.8542 196.656 43.651 197.766 44.474C198.875 45.2969 199.964 46.151 201.031 47.026C202.099 47.901 203.146 48.8073 204.172 49.7344C205.193 50.6615 206.193 51.6146 207.172 52.5937C208.151 53.5729 209.104 54.5729 210.031 55.599C210.958 56.6198 211.859 57.6667 212.734 58.7396C213.615 59.8073 214.464 60.8958 215.286 62.0052C216.109 63.1146 216.906 64.2448 217.672 65.3958C218.437 66.5469 219.177 67.7135 219.891 68.901C220.599 70.0885 221.281 71.2865 221.932 72.5104C222.583 73.7292 223.203 74.9635 223.797 76.2135C224.385 77.4635 224.948 78.724 225.474 80.0052C226.005 81.2812 226.5 82.5677 226.964 83.8698C227.432 85.1719 227.865 86.4844 228.266 87.8073C228.667 89.1302 229.036 90.4635 229.37 91.8073C229.708 93.1458 230.01 94.4948 230.281 95.849C230.547 97.2083 230.786 98.5677 230.99 99.9375C231.193 101.307 231.359 102.677 231.495 104.052C231.63 105.427 231.734 106.807 231.802 108.187C231.87 109.568 231.901 110.953 231.901 112.333Z" fill="white"/>
<path d="M258.432 112.333C258.432 114.948 258.307 117.557 258.052 120.161C257.797 122.766 257.411 125.349 256.906 127.911C256.396 130.479 255.76 133.016 255.005 135.516C254.245 138.021 253.365 140.479 252.365 142.896C251.37 145.313 250.25 147.672 249.021 149.979C247.786 152.286 246.448 154.531 244.995 156.703C243.542 158.88 241.99 160.979 240.333 163C238.672 165.021 236.922 166.958 235.073 168.807C233.224 170.656 231.292 172.411 229.271 174.073C227.25 175.729 225.151 177.286 222.979 178.74C220.807 180.193 218.568 181.536 216.26 182.771C213.958 184.005 211.599 185.12 209.182 186.12C206.771 187.125 204.312 188.005 201.807 188.76C199.307 189.521 196.776 190.156 194.214 190.667C191.646 191.177 189.068 191.563 186.464 191.818C183.865 192.073 181.255 192.203 178.641 192.203C176.026 192.203 173.422 192.073 170.818 191.818C168.219 191.563 165.635 191.177 163.073 190.667C160.51 190.156 157.974 189.521 155.474 188.76C152.974 188.005 150.516 187.125 148.099 186.12C145.687 185.12 143.328 184.005 141.021 182.771C138.719 181.536 136.479 180.193 134.302 178.74C132.13 177.286 130.036 175.729 128.016 174.073C125.995 172.411 124.062 170.656 122.214 168.807C120.365 166.958 118.609 165.021 116.953 163C115.297 160.979 113.74 158.88 112.292 156.703C110.839 154.531 109.495 152.286 108.266 149.979C107.031 147.672 105.917 145.313 104.917 142.896C103.917 140.479 103.036 138.021 102.281 135.516C101.521 133.016 100.891 130.479 100.38 127.911C99.8698 125.349 99.4896 122.766 99.2344 120.161C98.9792 117.557 98.8489 114.948 98.8542 112.333C98.8489 109.719 98.9792 107.109 99.2344 104.505C99.4896 101.901 99.8698 99.3177 100.38 96.7552C100.891 94.1875 101.521 91.6563 102.281 89.151C103.036 86.6458 103.917 84.1875 104.917 81.7708C105.917 79.3542 107.031 76.9948 108.266 74.6875C109.495 72.3802 110.839 70.1406 112.292 67.9635C113.74 65.7865 115.297 63.6875 116.953 61.6667C118.609 59.6458 120.365 57.7083 122.214 55.8594C124.062 54.0104 125.995 52.2552 128.016 50.5937C130.036 48.9375 132.13 47.3802 134.302 45.9271C136.479 44.474 138.719 43.1302 141.021 41.8958C143.328 40.6615 145.687 39.5469 148.099 38.5469C150.516 37.5469 152.974 36.6667 155.474 35.9062C157.974 35.1458 160.51 34.5104 163.073 34C165.635 33.4896 168.219 33.1042 170.818 32.849C173.422 32.5937 176.026 32.4635 178.641 32.4635C181.255 32.4635 183.865 32.5937 186.464 32.849C189.068 33.1042 191.646 33.4896 194.214 34C196.776 34.5104 199.307 35.1458 201.807 35.9062C204.312 36.6667 206.771 37.5469 209.182 38.5469C211.599 39.5469 213.958 40.6615 216.26 41.8958C218.568 43.1302 220.807 44.474 222.979 45.9271C225.151 47.3802 227.25 48.9375 229.271 50.5937C231.292 52.2552 233.224 54.0104 235.073 55.8594C236.922 57.7083 238.672 59.6458 240.333 61.6667C241.99 63.6875 243.542 65.7865 244.995 67.9635C246.448 70.1406 247.786 72.3802 249.021 74.6875C250.25 76.9948 251.37 79.3542 252.365 81.7708C253.365 84.1875 254.245 86.6458 255.005 89.151C255.76 91.6563 256.396 94.1875 256.906 96.7552C257.411 99.3177 257.797 101.901 258.052 104.505C258.307 107.109 258.432 109.719 258.432 112.333Z" fill="#ED2939"/>
<path d="M157.922 114.37L146.448 105.568L134.984 114.375L139.396 100.177L127.891 91.4271L142.089 91.4583L146.443 77.2396L150.807 91.4583L165.005 91.4219L153.5 100.177L157.922 114.37Z" fill="white"/>
<path d="M247.917 114.37L236.448 105.568L224.979 114.375L229.396 100.177L217.885 91.4271L232.083 91.4583L236.443 77.2396L240.802 91.4583L255 91.4219L243.495 100.177L247.917 114.37Z" fill="white"/>
<path d="M202.964 80.9531L191.495 72.1458L180.026 80.9531L184.443 66.7604L172.937 58.0052L187.135 58.0365L191.49 43.8177L195.849 58.0365L210.047 58L198.542 66.7552L202.964 80.9531Z" fill="white"/>
<path d="M174.76 167.849L163.292 159.042L151.823 167.849L156.24 153.656L144.729 144.901L158.927 144.932L163.286 130.719L167.646 144.932L181.844 144.896L170.339 153.651L174.76 167.849Z" fill="white"/>
<path d="M231.078 167.849L219.604 159.042L208.141 167.849L212.552 153.656L201.047 144.901L215.245 144.932L219.604 130.719L223.964 144.932L238.161 144.896L226.656 153.651L231.078 167.849Z" fill="white"/>
</g>
</g>
<defs>
<clipPath id="clip0_765_9671">
<rect width="900" height="450" fill="white"/>
</clipPath>
</defs>
</svg>
