<svg width="900" height="450" viewBox="0 0 900 450" fill="none" xmlns="http://www.w3.org/2000/svg">
<g clip-path="url(#clip0_765_17592)">
<path d="M900 0H0V450H900V0Z" fill="#1E1E1E"/>
<mask id="mask0_765_17592" style="mask-type:luminance" maskUnits="userSpaceOnUse" x="0" y="0" width="900" height="450">
<path d="M900 0H0V450H900V0Z" fill="white"/>
</mask>
<g mask="url(#mask0_765_17592)">
<mask id="mask1_765_17592" style="mask-type:luminance" maskUnits="userSpaceOnUse" x="0" y="0" width="900" height="450">
<path d="M0 0H900V450H0V0Z" fill="white"/>
</mask>
<g mask="url(#mask1_765_17592)">
<path d="M0 0H900V450H0V0Z" fill="white"/>
<path d="M0 0H900V450H0V0Z" fill="white"/>
<path d="M0 0H900V450H0V0Z" fill="#012169"/>
</g>
<mask id="mask2_765_17592" style="mask-type:luminance" maskUnits="userSpaceOnUse" x="0" y="0" width="705" height="450">
<path d="M0 0H704.667V449.333H0V0Z" fill="white"/>
</mask>
<g mask="url(#mask2_765_17592)">
<path d="M0 0L449.333 224.667M449.333 0L0 224.667" stroke="white" stroke-width="44.9334"/>
</g>
<mask id="mask3_765_17592" style="mask-type:luminance" maskUnits="userSpaceOnUse" x="0" y="0" width="525" height="263">
<path d="M0 0H524.224V262.109H0V0Z" fill="white"/>
</mask>
<g mask="url(#mask3_765_17592)">
<mask id="mask4_765_17592" style="mask-type:luminance" maskUnits="userSpaceOnUse" x="0" y="0" width="525" height="263">
<path d="M0 0V112.333H524.224V224.667H449.333L0 0ZM449.333 0H224.667V262.109H0V224.667L449.333 0Z" fill="white"/>
</mask>
<g mask="url(#mask4_765_17592)">
<path d="M0 0L449.333 224.667M449.333 0L0 224.667" stroke="#C8102E" stroke-width="29.9556"/>
</g>
</g>
<mask id="mask5_765_17592" style="mask-type:luminance" maskUnits="userSpaceOnUse" x="0" y="0" width="562" height="300">
<path d="M0 0H562V300H0V0Z" fill="white"/>
</mask>
<g mask="url(#mask5_765_17592)">
<path d="M224.667 0V262.109M0 112.333H524.224" stroke="white" stroke-width="74.8891"/>
</g>
<mask id="mask6_765_17592" style="mask-type:luminance" maskUnits="userSpaceOnUse" x="0" y="0" width="548" height="286">
<path d="M0 0H547.333V285.333H0V0Z" fill="white"/>
</mask>
<g mask="url(#mask6_765_17592)">
<path d="M224.667 0V262.109M0 112.333H524.224" stroke="#C8102E" stroke-width="44.9334"/>
</g>
<mask id="mask7_765_17592" style="mask-type:luminance" maskUnits="userSpaceOnUse" x="0" y="0" width="900" height="450">
<path d="M0 0H900V450H0V0Z" fill="white"/>
</mask>
<g mask="url(#mask7_765_17592)">
<path d="M0 225H450V0H900V450H0V225Z" fill="#012169"/>
</g>
</g>
<path d="M749.215 192.366C749.07 243.253 740.98 298.075 674.61 324.188C608.237 298.075 600.146 243.253 600.002 192.366H749.215Z" fill="#5F7DBD"/>
<path d="M749.215 192.366C749.271 173.198 748.198 154.587 748.687 138.279C723.886 127.265 691.252 125 674.61 125C657.965 125 625.331 127.265 600.529 138.279C601.019 154.587 599.949 173.198 600.002 192.366H749.215Z" fill="#F2D049"/>
<path d="M674.61 324.188C704.698 312.352 722.809 294.61 733.631 274.012C732.011 274.074 728.617 273.978 727.151 273.878C725.519 273.772 663.512 267.59 656.169 264.917C649.78 262.593 625.406 266.892 614.029 270.927C624.643 292.837 643.028 311.763 674.61 324.188Z" fill="#E8ECE9"/>
<path d="M635.449 293.906C637.405 293.744 642.71 292.205 643.279 291.719C644.585 292.61 646.87 293.825 647.85 293.825C645.972 294.23 644.748 293.987 644.258 293.663C644.503 294.23 645.156 295.121 645.564 295.202C643.768 295.121 641.731 294.716 641.078 294.068C639.527 294.716 636.915 294.878 635.449 293.906Z" fill="#9CB8C5"/>
<path d="M638.956 296.337C639.65 296.539 643.115 297.106 643.564 297.106C642.422 298.075 643.401 299.007 645.319 298.845C644.381 298.966 643.357 299.318 644.054 299.452C645.727 299.776 650.254 298.561 651.152 298.075C649.601 300.06 642.057 301.883 638.956 296.337Z" fill="#9CB8C5"/>
<path d="M642.057 301.275C642.993 300.789 645.319 300.951 646.421 301.478C645.197 301.923 642.792 301.923 642.057 301.275Z" fill="#9CB8C5"/>
<path d="M645.564 301.194C647.237 300.91 651.969 302.045 653.642 301.032C653.07 302.531 650.091 302.733 649.071 302.409C648.054 302.085 647.074 301.68 646.38 301.721C646.748 301.518 646.136 301.478 645.564 301.194Z" fill="#9CB8C5"/>
<path d="M647.278 303.503C648.543 303.702 653.07 303.138 654.458 302.612C655.924 303.098 658.822 303.864 659.475 303.783C658.087 304.634 655.434 304.148 654.581 303.783C652.132 304.593 650.132 304.836 647.278 303.503Z" fill="#9CB8C5"/>
<path d="M649.441 304.26C651.253 304.665 652.797 304.375 654.581 303.783C655.136 304.02 656.445 304.31 657.676 304.251C658.495 304.715 659.597 305.363 660.658 305.444C659.556 305.889 655.516 305.444 654.703 304.998C652.662 305.039 649.152 305.484 648.299 306.173C648.258 305.606 648.628 304.818 649.441 304.26Z" fill="#9CB8C5"/>
<path d="M647.278 295.121C648.691 295.589 653.805 295.364 656.414 294.149C657.444 293.669 658.081 294.473 656.904 294.878C652.662 296.337 649.316 296.904 646.87 295.607C645.903 295.096 645.809 294.635 647.278 295.121Z" fill="#9CB8C5"/>
<path d="M672.324 288.239C666.042 291.152 661.88 292.043 653.152 289.373C652.339 289.123 651.764 289.373 652.662 289.94C653.56 290.504 658.373 291.8 659.516 291.881C660.658 291.962 660.25 292.489 659.556 292.691C658.863 292.894 658.659 293.38 659.597 293.015C660.536 292.651 665.779 292.513 667.92 293.623C668.855 294.109 669.1 294.028 669.019 293.663C668.937 293.299 669.427 293.056 670.121 292.975C670.814 292.894 671.222 292.651 670.692 292.448C670.161 292.245 670.08 292.124 670.488 291.921C670.896 291.719 670.937 291.516 670.325 291.395C669.712 291.273 669.304 291.111 669.876 290.828C670.447 290.547 671.304 290.342 671.957 290.264C672.12 289.818 671.835 288.644 672.324 288.239Z" fill="#9CB8C5"/>
<path d="M661.88 288.968C665.471 289.22 672.08 287.591 675.589 284.191C676.811 284.917 678.525 285.727 679.423 285.889C680.32 286.051 681.137 286.861 679.749 286.861C678.362 286.861 676.403 286.294 675.508 285.889C670.855 288.725 665.411 289.656 661.961 289.373C660.985 289.292 660.74 288.887 661.88 288.968Z" fill="#9CB8C5"/>
<path d="M651.275 269.535C652.499 270.385 654.662 271.8 657.475 271.597C658.863 272.691 661.026 273.622 662.005 273.825C660.128 274.595 658.087 275.243 657.557 275.85C656.7 275.04 655.601 275.162 655.315 274.757C654.499 275.405 654.621 275.81 655.152 276.134C655.682 276.458 659.801 277.146 660.822 276.863C661.842 276.579 662.115 277.418 661.271 277.71C659.067 278.48 654.785 277.751 653.315 275.405C651.846 273.055 650.581 272.164 646.584 274.311C646.135 273.177 646.135 272.893 645.36 272.893C644.585 272.893 643.156 271.881 644.258 271.921C645.36 271.962 648.625 271.476 651.275 269.535Z" fill="#9CB8C5"/>
<path d="M652.254 274.757C651.573 274.925 649.642 275.972 648.952 276.053C648.258 276.134 647.033 277.106 648.299 277.146C649.561 277.187 651.193 275.81 652.091 275.688C652.989 275.567 653.07 274.554 652.254 274.757Z" fill="#9CB8C5"/>
<path d="M656.21 278.845C655.726 278.929 653.642 279.412 653.07 279.371C652.499 279.331 651.928 279.493 651.969 279.898C652.009 280.303 652.173 280.546 651.316 280.465C650.458 280.384 649.724 280.708 649.52 280.951C649.316 281.194 649.152 281.437 650.01 281.518C650.867 281.599 651.316 281.68 652.295 281.234C653.275 280.789 654.213 280.1 655.274 280.06C656.332 280.019 657.393 278.642 656.21 278.845Z" fill="#9CB8C5"/>
<path d="M653.275 281.356C654.166 281.929 658.577 283.422 660.169 283.3C661.76 283.179 661.462 283.933 660.25 284.191C657.761 284.715 654.722 283.64 652.662 282.004C651.642 281.194 652.581 280.91 653.275 281.356Z" fill="#9CB8C5"/>
<path d="M674.161 283.503C670.786 284.571 667.348 284.191 665.961 283.827C664.573 283.462 663.308 283.381 664.247 284.272C665.185 285.16 668.206 285.768 669.916 285.322C663.839 286.699 662.247 286.578 660.74 286.335C659.23 286.092 656.395 286.145 655.193 286.254C654.295 286.335 653.07 286.213 652.54 285.889C652.009 285.565 651.846 284.958 653.438 285.12C655.026 285.282 655.234 284.958 653.846 284.755C652.458 284.553 650.54 285.12 652.417 286.294C654.295 287.469 658.414 286.213 661.026 286.942C663.635 287.672 669.182 288.198 674.447 283.986C674.717 283.771 675.181 283.179 674.161 283.503Z" fill="#9CB8C5"/>
<path d="M657.597 278.561C657.72 278.966 657.72 279.412 657.597 279.695C657.475 279.979 657.475 280.343 658.006 279.938C658.536 279.533 658.863 279.047 659.393 279.331C659.924 279.614 661.271 279.574 661.88 279.493C662.495 279.412 662.696 279.29 661.801 278.926C660.903 278.561 660.005 278.439 659.516 278.48C659.026 278.52 658.414 278.399 658.006 278.237C657.597 278.075 657.475 278.156 657.597 278.561Z" fill="#9CB8C5"/>
<path d="M666.287 280.141C665.594 280.181 664.369 279.736 663.716 279.452C663.063 279.169 662.128 279.128 662.822 280.06C663.512 280.991 666.532 281.518 667.593 281.072C668.655 280.627 668.206 280.141 669.264 280.789C670.325 281.437 671.427 281.882 672.202 281.882C672.977 281.882 673.263 281.882 672.406 281.396C671.549 280.91 671.141 280.789 671.059 280.384C670.978 279.979 670.855 279.736 671.631 279.979C672.406 280.222 673.304 280.667 673.916 280.343C674.528 280.019 675.668 279.29 676.688 279.29L676.933 278.683C675.464 278.561 674.528 279.007 674.12 279.169C673.712 279.331 672.977 279.412 672.202 279.29C671.427 279.169 670.406 279.088 670.161 278.885C669.917 278.683 669.917 278.52 670.57 278.399C671.223 278.277 671.427 277.832 670.529 277.994C669.631 278.156 667.226 278.075 665.961 277.67C664.696 277.268 664.165 277.227 663.635 277.427C663.104 277.629 663.186 278.196 663.961 278.237C664.737 278.277 666.491 278.439 667.104 279.007C667.716 279.574 667.634 279.614 666.94 279.331C666.247 279.047 664.981 279.209 666.287 280.141Z" fill="#9CB8C5"/>
<path d="M676.933 278.683L676.688 279.29C678.198 279.25 681.871 279.614 683.052 280.343C684.195 279.452 683.991 279.169 684.807 279.331C685.623 279.493 686.643 279.776 687.092 279.533C687.541 279.29 687.868 279.331 688.357 279.412C688.844 279.493 689.905 279.29 690.517 278.926C691.129 278.561 692.395 278.075 693.129 278.075C693.864 278.075 694.759 277.913 693.415 277.71C692.068 277.508 690.028 277.913 689.334 278.156C688.643 278.399 686.562 278.561 685.337 278.561C684.113 278.561 682.443 279.169 681.055 278.804C679.667 278.44 677.749 278.683 676.933 278.683Z" fill="#9CB8C5"/>
<path d="M695.82 277.953C693.374 279.736 690.436 280.141 686.929 280.384C685.909 280.455 686.223 280.742 687.092 280.829C690.762 281.194 695.007 279.857 696.391 278.399C696.793 277.978 696.749 277.28 695.82 277.953Z" fill="#9CB8C5"/>
<path d="M679.137 282.085C680.198 282.125 683.868 283.057 685.052 283.462C685.949 283.381 686.194 283.179 686.031 282.855C685.868 282.531 685.745 282.166 687.378 282.247C689.007 282.328 692.762 282.287 693.456 282.287C694.027 282.044 695.289 281.072 695.861 281.032C694.394 281.113 688.276 281.437 687.5 281.356C686.725 281.275 686.317 281.356 685.827 281.639C685.337 281.923 685.052 282.044 684.439 281.801C683.827 281.558 682.725 281.234 682.116 281.599C681.504 281.963 680.239 281.639 679.137 282.085Z" fill="#9CB8C5"/>
<path d="M693.456 282.287C694.027 282.044 695.289 281.072 695.861 281.032C696.922 280.951 698.146 281.396 698.717 281.477C699.289 281.558 699.901 281.437 699.493 280.991C699.085 280.546 699.452 279.776 701.125 279.979C702.796 280.181 703.653 280.465 705.285 280.303C706.918 280.141 707.652 281.356 710.751 280.141C710.506 281.356 711.077 281.437 711.649 281.194C712.22 280.951 712.873 281.032 713.853 281.761C714.832 282.49 720.787 282.571 722.175 282.328C723.56 282.085 724.294 282.814 723.233 283.138C722.175 283.462 721.927 283.948 722.175 284.272C722.417 284.593 722.662 284.998 721.359 284.836C720.053 284.674 719.808 285.079 719.155 285.565C718.502 286.051 718.339 286.213 716.543 285.889C714.75 285.565 714.424 285.808 713.444 285.97C712.465 286.132 712.22 286.132 711.241 285.808C710.261 285.484 708.142 285.16 706.836 285.565C705.53 285.97 704.55 286.375 703.408 286.051C702.265 285.727 702.183 285.889 702.918 285.16C703.653 284.431 703.816 284.512 705.203 284.35C706.591 284.191 707.652 283.786 706.673 283.219C705.693 282.652 705.367 282.733 704.061 283.381C702.755 284.029 702.102 284.431 700.636 283.624C699.166 282.814 698.432 282.976 697.452 283.219C696.473 283.462 694.843 282.895 693.456 282.287Z" fill="#9CB8C5"/>
<path d="M698.35 284.715C696.482 284.979 695.98 283.786 694.027 284.029C693.374 284.11 692.272 284.917 693.782 284.796C695.289 284.674 696.922 285.484 698.391 285.363C699.86 285.241 699.207 284.593 698.35 284.715Z" fill="#9CB8C5"/>
<path d="M696.187 286.132C697.17 285.777 699.207 286.456 700.064 286.294C700.921 286.132 701.738 286.659 700.84 286.942C699.942 287.226 697.779 286.416 696.799 286.699C695.82 286.983 694.843 286.618 696.187 286.132Z" fill="#9CB8C5"/>
<path d="M676.688 291.354C678.035 291.398 682.889 291.192 684.807 287.145C684.954 286.833 685.092 286.699 685.705 287.104C686.317 287.51 688.561 288.846 692.762 289.211C693.939 289.314 695.211 289.899 692.844 289.737C690.477 289.575 686.725 288.927 685.46 288.158C683.337 291.476 679.526 291.869 676.688 291.8C674.977 291.759 675.385 291.314 676.688 291.354Z" fill="#9CB8C5"/>
<path d="M687.174 285.849C686.521 286.74 684.276 288.279 683.256 288.36C682.239 288.441 679.178 288.158 678.402 287.874C677.627 287.591 676.688 287.672 677.79 288.441C678.892 289.211 681.627 289.737 682.725 289.494C683.827 289.251 685.092 288.887 685.95 289.413C686.807 289.94 688.398 290.949 689.334 290.747C690.272 290.547 692.191 290.547 692.803 290.828C693.415 291.111 694.476 291.962 692.884 291.476C691.293 290.99 689.987 291.395 689.252 291.071C690.068 292.205 691.921 294.028 693.497 294.028C693.864 294.028 694.109 294.676 693.333 295.04C694.109 295.405 695.901 295.688 696.84 294.838C696.595 295.162 696.718 295.364 697.126 295.567C697.534 295.769 698.024 296.053 697.289 296.134C696.554 296.215 694.884 296.418 694.395 296.215C695.983 297.225 700.105 298.845 704.306 298.035C705.106 297.882 705.53 297.552 704.224 297.589C701.53 297.67 701.37 297.63 700.881 297.349C700.391 297.062 700.472 296.823 701.248 296.58C702.02 296.337 703.979 296.053 704.795 296.053C705.612 296.053 706.428 295.729 704.755 295.729C703.081 295.729 701.044 295.729 700.228 295.445C699.411 295.162 698.799 294.797 699.656 294.23C700.513 293.663 701.411 293.825 701.819 293.299C699.126 293.258 695.82 291.84 697.656 290.547C698.083 290.245 697.942 290.223 697.248 290.142C696.554 290.061 694.517 289.494 693.66 289.008C692.803 288.522 693.374 288.117 694.068 287.996C692.476 288.279 689.293 287.429 687.174 285.849Z" fill="#9CB8C5"/>
<path d="M711.118 285.768C709.649 286.861 706.877 287.307 705.693 287.307C704.51 287.307 704.346 287.712 705.285 287.834C706.224 287.955 707.244 288.077 707.652 287.955C708.06 287.834 708.305 287.793 708.914 288.077C709.526 288.36 710.832 288.522 711.975 288.158C713.118 287.793 714.992 287.631 715.768 287.672C716.543 287.712 717.4 287.753 715.849 287.307C714.301 286.861 711.771 287.185 711.159 287.347C710.547 287.51 708.873 287.388 709.771 287.104C710.669 286.821 711.445 286.375 711.894 286.011C711.567 285.93 711.363 285.849 711.118 285.768Z" fill="#9CB8C5"/>
<path d="M710.343 288.927C709.077 289.859 707.244 290.747 705.367 290.828C707.081 291.435 708.509 293.177 709.608 293.096C709.077 293.42 708.428 293.906 707.734 293.987C708.795 294.271 710.588 293.947 712.057 293.137C714.506 293.825 717.686 293.38 718.747 292.489C717.155 292.489 715.24 291.921 714.383 291.192C715.159 291.192 715.89 290.706 716.257 290.264C714.424 290.585 711.281 289.697 710.343 288.927Z" fill="#9CB8C5"/>
<path d="M707.734 293.987C708.428 293.906 709.077 293.42 709.608 293.096C708.264 293.542 702.387 292.61 700.636 291.071C698.881 289.535 698.881 290.706 700.105 291.8C701.329 292.894 703.489 294.554 707.734 293.987Z" fill="#9CB8C5"/>
<path d="M712.057 297.711C711.322 298.116 707.815 298.359 706.673 298.116C705.53 297.873 705.04 297.994 705.326 298.44C705.612 298.885 705.734 299.29 704.795 299.169C703.857 299.047 702.183 299.25 701.493 299.493C700.799 299.736 699.942 300.343 701.411 300.1C702.877 299.857 704.224 299.574 705.326 299.857C706.428 300.141 710.343 300.222 711.118 299.898C711.894 299.574 711.363 299.574 710.996 299.574C710.628 299.574 710.465 299.331 710.996 299.088C711.526 298.845 711.934 298.156 712.057 297.711Z" fill="#9CB8C5"/>
<path d="M678.117 293.015C676.647 293.663 671.753 294.959 670.447 295.04C668.815 295.769 667.512 296.174 666.695 296.174C667.267 296.661 669.468 297.143 670.365 296.904C669.876 297.387 668.736 297.954 668.328 298.197C669.631 298.035 671.182 298.359 671.835 298.44C670.121 299.412 667.757 299.736 666.532 299.574C666.94 300.141 667.512 300.708 668.246 300.708C666.696 301.113 664.818 301.113 663.839 300.789C664.247 301.599 664.655 302.085 665.226 302.166C663.92 302.328 662.288 302.571 660.903 301.761C661.961 303.138 664.328 303.621 667.838 303.219C671.345 302.814 674.283 301.275 675.1 300.627C673.63 300.789 671.672 300.87 670.692 300.708C672.651 300.222 676.892 298.44 677.627 297.711C676.811 297.711 675.998 297.468 675.423 297.062C676.566 297.225 680.565 296.742 681.79 296.256C680.321 295.931 679.423 295.04 679.015 294.473C684.154 296.093 689.874 295.564 692.64 294.878C693.293 294.716 693.371 293.894 692.068 293.987C689.783 294.149 685.378 293.501 684.235 292.934C685.297 293.744 686.602 294.23 687.5 294.392C685.378 294.959 682.443 295.364 678.117 293.015Z" fill="#9CB8C5"/>
<path d="M668.328 298.197C668.736 297.954 669.876 297.387 670.365 296.904C669.468 297.144 667.267 296.661 666.695 296.174C667.512 296.174 668.815 295.769 670.447 295.04C667.512 294.959 665.471 294.959 664.41 294.392C663.349 293.825 661.393 293.987 660.658 294.149C659.924 294.311 660.169 295.526 663.267 295.202C661.961 296.093 658.455 296.418 657.149 296.094C657.475 297.144 657.72 298.197 657.393 298.764C659.108 299.736 663.594 300.951 665.798 300.789C663.839 300.06 662.778 299.25 664.41 299.088C666.042 298.926 666.94 298.602 668.328 298.197Z" fill="#9CB8C5"/>
<path d="M663.267 303.462C667.173 303.138 672.403 303.07 676.566 299.574C677.627 298.683 678.34 298.982 677.3 299.898C675.1 301.842 669.631 304.512 664.41 304.593C662.285 304.628 661.311 303.621 663.267 303.462Z" fill="#9CB8C5"/>
<path d="M692.517 297.062C691.538 297.427 688.803 297.873 687.99 297.751C687.174 297.63 685.99 297.589 685.337 297.994C684.684 298.399 684.643 298.642 685.541 298.723C686.439 298.804 687.582 298.885 688.153 298.845C687.419 299.25 686.929 299.817 686.766 300.06C688.072 299.736 690.476 300.303 691.17 300.708C690.64 300.87 690.028 300.667 689.579 300.424C691.782 302.733 698.309 302.733 699.37 302.328C698.881 302.693 698.432 303.057 697.942 303.179C699.779 303.503 701.898 303.462 703.979 302.247C703.285 302.369 701.207 302.166 700.676 302.126C701.085 301.721 701.694 301.356 702.265 301.194C701.452 301.032 698.881 301.113 698.268 301.437C698.513 300.951 698.962 300.343 699.452 300.141C696.228 300.141 692.313 300.1 690.885 299.331C693.17 299.574 695.7 298.237 696.758 298.237C694.966 298.197 693.007 297.792 692.517 297.062Z" fill="#9CB8C5"/>
<path d="M684.317 298.845C682.725 299.169 680.32 299.817 679.667 300.181C679.014 300.546 678.321 300.748 679.749 300.748C681.178 300.748 685.052 300.91 685.909 301.032C683.746 300.708 680.81 300.627 680.239 300.627C679.667 300.627 679.015 300.586 680.076 300.262C681.137 299.938 682.524 299.209 684.317 298.845Z" fill="#9CB8C5"/>
<path d="M681.096 302.612C681.664 302.612 684.154 302.612 685.133 301.761C686.154 302.531 688.113 303.621 689.375 303.621C690.64 303.621 690.517 303.945 689.415 304.067C688.317 304.188 686.153 303.543 685.052 302.733C683.582 303.26 682.361 302.814 681.096 302.612Z" fill="#9CB8C5"/>
<path d="M662.209 313.501C664.737 314.473 668.083 315.203 670.529 314.392C671.916 315.608 674.773 315.689 676.321 315.365C677.872 315.041 679.259 314.879 680.973 315.446C682.684 316.013 686.194 316.053 687.174 316.86C686.276 316.904 684.358 316.86 683.909 316.985C683.46 317.103 683.705 317.387 684.521 317.832C681.749 317.67 676.974 318.845 675.508 320.101C676.035 318.845 677.668 317.144 680.239 317.144C678.77 316.62 674.079 316.58 672.569 317.508C672.12 317.022 671.59 316.215 671.549 315.891C669.063 317.306 664.165 315.284 662.209 313.501Z" fill="#9CB8C5"/>
<path d="M655.72 308.968C658.731 308.541 660.781 307.591 661.679 306.7C662.209 307.186 664.41 307.672 666.818 306.943C666.328 307.307 666.287 307.996 666.491 308.36C664.9 308.401 661.88 309.17 660.862 309.697C659.842 310.22 656.863 310.585 655.887 310.058C654.907 309.535 654.866 309.089 655.72 308.968Z" fill="#9CB8C5"/>
<path d="M666.491 308.36C664.9 308.401 661.88 309.17 660.862 309.697C661.067 310.102 661.189 310.747 661.23 311.193C664.165 310.139 670.896 309.494 673.467 309.899C672.243 309.98 669.917 311.233 668.614 311.395C671.794 311.152 674.896 311.8 675.709 312.003C676.525 312.205 676.688 312.813 676.076 313.38C675.464 313.947 675.181 314.028 676.484 314.068C677.79 314.109 680.484 313.947 681.708 312.772C681.218 312.246 679.953 312.448 679.586 312.084C680.443 311.8 681.422 311.193 681.79 310.747C679.586 310.706 678.77 310.666 678.035 310.504C677.3 310.345 676.77 310.139 677.668 309.656C678.566 309.17 678.974 308.765 679.259 308.441C677.668 308.887 675.181 309.251 673.1 307.631C673.875 307.834 675.709 307.712 676.362 307.429C675.668 307.064 675.1 306.781 674.528 306.781C676.199 305.97 679.504 305.241 683.582 306.862C685.623 306.7 687.827 306.781 689.375 307.186C690.028 306.538 691.415 304.998 692.15 304.593C687.337 304.998 678.688 304.107 678.851 301.599C677.3 303.621 673.712 304.755 672.161 304.431C671.998 305.16 672.651 306.051 673.222 306.538C671.59 306.862 668.815 307.105 667.512 306.862C668.246 307.591 669.631 308.239 670.447 308.158C668.736 308.158 667.838 308.482 666.491 308.36Z" fill="#9CB8C5"/>
<path d="M676.484 314.068C677.79 314.109 680.484 313.947 681.708 312.772C681.218 312.246 679.953 312.448 679.586 312.084C680.443 311.8 681.422 311.193 681.79 310.747C685.215 310.467 688.276 310.629 689.742 310.183C691.211 309.737 694.966 309.98 695.7 309.778C692.435 310.301 691.782 310.585 691.619 311.112C691.456 311.638 692.68 312.084 693.456 312.084C691.987 312.003 690.15 313.542 689.987 314.149C688.031 313.015 687.092 314.352 686.888 314.797C686.072 314.473 683.378 314.554 681.991 315.729C680.198 315.203 679.014 314.919 677.219 315.203C678.321 314.96 678.117 314.23 676.484 314.068Z" fill="#9CB8C5"/>
<path d="M692.15 304.593C693.252 304.553 695.657 304.674 696.514 304.553C695.942 304.836 695.211 305.363 695.048 305.606C697.82 305.282 701.612 305.079 702.714 305.241C701.37 305.039 699.983 305.889 699.289 306.335C698.595 306.781 699.003 307.064 699.942 307.186C700.88 307.307 702.146 308.036 700.432 307.793C698.717 307.55 695.333 307.55 694.517 307.672C693.701 307.793 693.252 307.388 694.435 307.226C695.619 307.064 696.432 306.659 697.003 306.335C696.024 306.578 694.15 306.578 693.578 306.416C693.007 306.254 692.64 305.93 693.293 305.768C693.946 305.606 693.497 305.363 692.803 305.444C692.109 305.525 690.354 306.254 689.375 307.186C690.436 306.092 691.374 305.12 692.15 304.593Z" fill="#9CB8C5"/>
<path d="M679.708 306.416C681.055 307.915 682.644 308.765 685.174 308.846C685.705 308.862 686.694 309.569 685.419 309.616C681.991 309.737 680.28 308.927 678.77 306.74C678.459 306.291 679.033 305.665 679.708 306.416Z" fill="#9CB8C5"/>
<path d="M700.146 278.115C701.948 278.96 705.571 279.695 708.387 279.574C708.877 279.552 709.862 280.072 708.629 280.181C705.448 280.465 702.591 280.022 699.942 278.561C699.207 278.156 699.452 277.791 700.146 278.115Z" fill="#9CB8C5"/>
<path d="M701.982 278.075C704.754 277.994 706.836 278.034 707.693 278.845C709.282 278.359 712.138 278.075 712.791 278.196C713.444 278.318 714.179 278.034 712.669 277.67C711.159 277.308 707.652 277.187 706.55 277.389C705.448 277.589 702.02 277.71 700.88 277.589C701.37 277.67 701.694 277.751 701.982 278.075Z" fill="#9CB8C5"/>
<path d="M712.751 279.169C714.057 278.48 717.808 279.128 718.951 278.642C718.135 279.614 721.563 279.695 724.539 278.926C723.396 279.655 720.951 279.776 719.89 280.222C718.829 280.667 718.257 280.343 717.441 279.979C716.625 279.614 714.546 278.885 712.751 279.169Z" fill="#9CB8C5"/>
<path d="M724.539 278.926C721.563 279.695 718.135 279.614 718.951 278.642C717.808 279.128 714.057 278.48 712.751 279.169C714.097 278.358 715.118 279.007 716.094 277.346C716.706 277.47 718.135 277.551 718.624 276.903C719.482 277.106 720.992 277.47 721.44 277.913C721.889 278.358 722.58 277.791 722.009 277.106C723.356 276.62 722.502 277.682 725.641 276.903C726.294 276.741 727.886 276.458 728.416 276.417C727.355 277.268 726.09 278.196 724.539 278.926Z" fill="#9CB8C5"/>
<path d="M723.192 287.996C722.175 288.684 720.828 289.899 721.723 291.597C721.83 291.541 721.93 291.476 722.034 291.417C726.024 286.625 729.44 281.586 732.366 276.352C732.4 276.171 732.432 276 732.454 275.85C731.311 276.822 729.515 277.791 728.78 278.034C729.27 279.331 726.988 281.032 725.763 281.518C726.253 282.328 726.09 283.543 725.029 283.786C725.274 284.512 724.457 284.512 723.478 284.917C722.498 285.322 722.009 285.646 721.685 286.132C722.213 285.849 722.947 285.606 723.356 285.727C723.764 285.849 723.845 286.456 723.111 286.618C722.376 286.78 721.889 287.185 721.641 287.509C722.703 287.104 724.213 287.307 723.192 287.996Z" fill="#9CB8C5"/>
<path d="M628.225 292.641C629.239 292.314 631.176 292.392 631.939 292.529C632.837 292.691 633 292.772 633.327 291.8C633.653 290.828 634.388 291.071 634.959 291.557C635.531 292.043 636.997 291.8 637.568 290.99C638.139 290.183 638.303 290.264 638.874 290.828C639.445 291.395 639.69 291.233 640.262 291.071C640.833 290.912 641.813 290.264 642.302 289.373C642.792 288.482 643.523 288.158 643.932 288.644C644.34 289.13 644.748 289.373 645.319 289.292C645.891 289.211 646.054 289.778 645.972 290.504C645.891 291.233 646.217 291.395 647.605 290.264C648.829 291.476 649.234 290.99 649.234 289.697C649.234 288.401 648.911 283.624 648.421 282.976C647.931 282.328 647.441 280.465 647.36 279.007C647.206 276.255 647.197 276.093 643.85 274.392C643.85 273.42 643.605 273.015 641.241 273.177C641.323 272.853 640.915 271.881 640.425 271.476C639.935 271.071 639.854 270.909 640.098 269.778C641.078 269.859 642.139 269.697 642.71 268.887C643.279 268.076 645.156 268.238 646.299 268.725C647.441 269.211 648.911 269.292 651.111 268.968C651.928 268.319 653.315 267.59 654.785 266.78C656.251 265.97 656.659 265.646 656.74 264.512C656.951 261.605 655.924 258.277 655.108 256.741C654.295 255.202 654.05 253.258 652.907 250.828C651.664 248.182 651.683 247.509 650.295 245.889C649.915 245.443 649.479 245.079 649.397 244.191C649.316 243.3 648.989 242.085 648.013 241.194C645.545 238.947 644.585 231.718 643.605 226.375C643.043 223.312 643.442 216.093 642.139 214.959C639.935 213.176 638.874 213.501 637.405 212.933C636.344 211.475 635.857 208.562 634.878 205.97C633.327 206.213 632.266 207.833 631.204 208.4C630.143 208.967 629.98 208.967 629.98 210.425C629.98 211.88 629.164 213.906 627.698 216.174C626.228 218.439 623.78 217.794 621.742 221.193C617.253 215.769 617.171 214.23 616.845 212.69C616.518 211.154 615.784 210.83 613.256 208.643C613.256 207.995 612.93 205.406 613.175 203.948C611.297 202.408 609.91 202.651 609.015 203.786C608.117 204.92 607.464 206.618 606.077 207.266C605.245 208.316 602.736 210.964 600.683 214.117C602.551 242.297 608.959 270.27 628.225 292.641Z" fill="#9B7463"/>
<path d="M604.036 214.554C604.852 215.85 606.322 218.078 606.485 219.29C607.056 218.115 607.505 217.592 607.627 216.862C607.75 216.133 608.607 214.716 608.28 213.946C607.954 213.176 607.709 212.569 608.607 213.136C609.502 213.703 609.329 214.684 609.134 216.133C608.607 220.1 606.934 220.91 606.689 223.583C609.097 229.21 607.301 231.236 609.91 236.741C610.318 236.984 611.407 236.551 611.734 236.632C613.118 235.66 614.154 236.012 616.11 236.417C618.069 236.822 619.13 238.196 619.13 239.411C619.13 240.626 619.13 240.95 619.538 241.68C619.947 242.409 620.763 243.543 620.6 244.353C620.436 245.16 620.763 245.646 621.008 246.051C621.253 246.456 620.926 247.347 620.681 247.914C620.436 248.481 620.518 249.21 621.497 250.426C622.477 251.638 624.759 256.741 624.759 259.735C624.759 262.733 624.922 264.11 626.147 264.674C627.371 265.241 627.779 265.727 627.616 267.023C627.453 268.319 628.187 275.04 628.351 276.093C628.514 277.146 628.922 276.903 629.412 277.47C629.898 278.034 630.225 278.683 631.857 278.683C633.49 278.683 635.066 278.468 636.127 278.63C637.596 280.655 638.494 283.406 638.821 285.107C639.147 286.808 639.119 289.13 639.69 289.13C640.262 289.13 640.833 289.211 640.67 287.104C640.507 284.998 640.343 284.674 639.609 283.624C638.874 282.571 638.466 282.085 638.874 281.437C639.282 280.789 639.364 279.736 639.201 278.926C639.037 278.115 638.792 276.903 640.18 278.521C641.568 280.141 641.976 280.546 642.384 281.113C642.792 281.68 642.952 282.733 642.874 283.705C642.792 284.674 642.952 285.079 643.523 284.593C644.095 284.11 644.829 284.917 644.503 285.97C644.176 287.023 644.585 287.672 645.564 287.996C646.544 288.32 646.952 288.563 647.197 289.292C647.441 290.021 648.258 290.342 648.258 288.887C648.258 287.429 647.686 284.35 647.278 283.381C646.87 282.409 646.544 280.303 646.462 279.088C646.38 277.872 646.135 277.552 645.564 277.308C644.993 277.065 644.503 276.66 644.421 276.093C644.34 275.526 643.85 275.324 643.483 275.324C643.115 275.324 642.792 275.04 642.588 274.635C642.384 274.23 642.18 274.19 641.772 274.149C641.364 274.109 640.711 274.352 640.507 273.704C640.302 273.055 640.017 272.124 639.609 271.597C639.201 271.071 638.833 270.909 638.792 269.089C638.752 267.266 638.711 267.023 638.139 266.375C637.568 265.727 636.589 264.029 636.18 263.3C635.775 262.571 635.367 261.842 635.367 263.381C635.367 264.917 635.367 265.727 636.344 266.294C637.323 266.861 637.568 266.861 637.16 267.671C636.752 268.481 637.16 269.049 637.323 269.616C637.486 270.183 637.813 270.75 637.323 271.314C636.833 271.881 636.344 271.719 636.425 270.831C636.507 269.94 636.18 268.887 635.775 268.157C635.367 267.428 635.041 266.942 634.551 267.347C634.061 267.752 633.653 267.266 633.98 266.942C634.306 266.618 634.225 266.375 633.98 266.132C633.735 265.889 633.653 265.646 634.061 265.16C634.469 264.674 634.469 264.431 634.225 263.3C633.98 262.166 632.184 256.498 631.368 255.202C630.551 253.906 630.633 252.934 631.694 254.23C632.755 255.526 633.653 256.66 633.735 257.71C633.816 258.763 634.061 259.411 634.388 259.817C634.714 260.222 634.959 260.06 635.122 259.168C635.286 258.277 635.939 258.601 634.796 256.903C633.653 255.202 631.531 252.367 630.715 247.266C629.898 242.166 629.572 238.763 628.756 237.389C627.943 236.012 627.698 235.688 627.616 234.392C627.534 233.096 627.616 231.799 627.045 230.83C626.473 229.858 626.065 229.696 625.984 231.154C625.902 232.61 626.065 235.85 626.473 236.417C626.882 236.984 626.637 238.439 626.555 239.249C626.473 240.059 625.189 240.86 627.861 242.49C628.922 243.138 628.756 244.029 628.596 244.596C628.432 245.16 628.269 245.079 627.698 244.191C627.126 243.3 626.555 242.571 625.984 242.085C625.412 241.599 625.331 241.275 625.412 240.14C625.494 239.006 625.739 238.196 625.412 237.794C625.086 237.389 624.922 237.713 624.759 238.358C624.596 239.006 624.433 240.788 624.106 241.275C623.78 241.761 623.617 241.437 623.372 240.383C623.127 239.33 623.453 237.713 624.025 235.85C624.596 233.987 624.922 232.042 624.433 229.615C623.943 227.185 624.188 226.456 622.311 224.434C620.436 222.409 618.314 220.464 617.416 217.956C616.518 215.445 616.355 213.257 615.376 212.123C614.399 210.992 613.012 209.534 612.114 209.129C612.114 207.185 612.114 206.294 612.114 205.406C612.114 204.515 611.706 203.948 610.644 204.11C609.583 204.272 608.93 205.163 608.28 206.375C607.627 207.59 607.138 207.023 606.24 209.129C605.342 211.235 604.036 212.285 604.036 214.554Z" fill="#B38C79"/>
<path d="M609.91 238.277C610.563 238.682 611.188 238.953 612.167 238.467C613.147 237.981 614.318 236.579 615.624 237.956C616.926 239.33 617.661 241.599 617.661 243.381C617.661 245.16 617.661 248.481 619.702 250.345C621.742 252.205 622.8 254.149 622.882 256.579C622.964 259.006 623.861 262.733 624.106 263.705C624.351 264.674 624.923 265.808 625.576 266.456C626.229 267.104 626.718 268.968 626.8 270.909C626.882 272.853 626.555 274.23 626.8 275.202C627.045 276.174 626.8 276.984 626.065 276.498C625.331 276.012 625.167 275.769 624.759 274.959C624.351 274.149 623.861 274.311 624.27 275.526C624.678 276.741 625.902 277.872 626.963 277.872C628.024 277.872 628.351 278.034 629.004 278.683C629.654 279.331 629.735 279.655 630.878 279.655C632.021 279.655 632.184 279.655 633.245 279.979C634.306 280.303 634.306 280.141 634.878 279.979C635.449 279.817 636.017 280.303 636.425 281.356C636.833 282.409 637.813 285.322 637.813 286.132C637.813 286.942 637.813 287.753 638.384 288.563C638.956 289.373 638.792 290.183 638.139 289.697C637.486 289.211 637.486 289.373 636.997 289.454C636.507 289.535 636.18 289.292 635.531 288.887C634.878 288.482 635.286 288.563 634.633 287.591C633.98 286.618 633.572 286.294 633.572 287.023C633.572 287.753 633.49 288.644 633 288.239C632.51 287.834 632.266 287.834 631.858 288.239C631.449 288.644 631.286 288.968 630.796 288.158C630.307 287.348 629.735 287.348 629.246 287.186C628.756 287.023 628.756 287.023 628.514 286.294C628.269 285.565 627.535 285.403 626.882 285.403C626.229 285.403 625.902 285.079 625.82 284.593C625.739 284.11 625.331 283.786 625.004 283.543C624.678 283.3 624.841 282.733 624.759 282.166C624.678 281.599 624.188 281.842 623.861 281.68C623.535 281.518 623.29 281.599 623.29 280.789C623.29 279.979 622.964 279.736 622.719 279.169C622.477 278.602 622.719 278.034 622.882 277.389C623.045 276.741 622.964 276.336 622.477 275.769C621.987 275.202 622.395 274.635 621.089 273.501C619.783 272.367 619.13 273.339 618.722 270.669C618.314 267.995 617.498 262.49 616.763 261.599C616.029 260.708 615.542 260.06 614.807 259.817C614.073 259.573 613.583 259.736 613.501 258.196C613.42 256.66 612.93 254.716 611.951 253.744C610.971 252.772 610.563 252.448 610.073 252.043C609.583 251.638 609.42 250.909 610.073 249.534C610.726 248.157 610.481 246.294 610.4 245.403C610.318 244.515 610.073 243.381 610.236 242.409C610.4 241.437 610.318 240.221 610.073 239.573C609.828 238.925 609.502 238.763 609.91 238.277Z" fill="#B38C79"/>
<path d="M629.572 215.255C628.467 216.666 627.29 217.847 625.767 218.925C624.244 220.006 622.285 220.869 623.372 222.704C624.461 224.54 625.331 224.758 625.547 226.16C625.767 227.562 626.094 228.752 627.18 229.076C628.269 229.397 628.702 229.182 628.702 231.45C628.702 233.719 628.702 234.582 629.682 235.445C630.661 236.308 630.552 237.171 630.988 239.224C631.421 241.275 631.421 245.702 632.727 248.724C634.033 251.747 636.972 257.47 636.645 258.657C636.319 259.845 635.882 260.708 637.188 262.11C638.494 263.515 639.364 265.565 639.474 266.752C639.58 267.942 639.8 268.372 641.103 267.942C642.409 267.509 643.062 267.076 643.498 266.537C643.932 265.998 644.801 266.107 646.001 266.752C647.197 267.4 649.046 268.048 650.132 267.4C651.221 266.752 651.764 265.783 652.744 265.783C654.267 264.702 654.81 262.434 655.136 261.789C655.463 261.141 655.246 261.141 654.593 260.493C653.94 259.845 654.267 258.763 654.157 257.685C654.05 256.604 653.614 254.987 652.308 252.61C651.005 250.236 650.242 247.319 649.372 246.565C648.503 245.808 648.066 243.973 647.956 243.11C647.85 242.247 646.87 241.49 646.217 240.841C645.564 240.196 644.911 239.224 644.151 235.445C643.389 231.665 642.845 228.967 642.845 228.319C642.845 227.671 642.736 227.562 642.083 227.347C641.43 227.132 641.103 226.051 641.323 225.512C641.539 224.973 641.103 224.434 640.886 223.786C640.67 223.138 640.886 221.95 641.323 221.302C641.756 220.654 641.649 218.819 641.213 217.308C640.777 215.797 640.343 214.501 638.601 214.283C636.862 214.068 636.535 213.638 635.882 212.232C635.229 210.83 634.576 208.347 634.36 207.805C634.143 207.266 633.817 207.157 632.511 208.238C631.205 209.316 630.771 209.674 630.771 211.693C630.771 212.99 630.988 213.42 631.421 214.177C631.857 214.931 631.967 215.149 632.294 217.199C632.62 219.249 634.47 222.49 632.074 224.325C629.682 226.16 630.008 226.593 630.118 227.886C630.225 229.182 629.465 230.045 629.029 228.21C628.596 226.375 629.029 225.297 630.335 224.434C631.641 223.568 632.837 222.49 631.967 221.302C631.095 220.115 630.771 217.308 630.661 216.012C630.551 214.716 630.335 214.283 629.572 215.255Z" fill="#B38C79"/>
<path d="M610.192 242.783C610.133 243.661 610.331 244.627 610.4 245.403C610.481 246.294 610.726 248.157 610.073 249.534C609.42 250.909 609.583 251.638 610.073 252.043C610.101 252.064 610.127 252.086 610.152 252.108C611.483 251.666 611.655 250.192 611.298 249.478C610.918 248.724 611.028 247.805 611.461 247.051C611.897 246.294 611.897 245.864 611.517 245.322C611.134 244.783 611.134 244.783 611.571 243.272C611.954 241.941 610.987 241.951 610.192 242.783ZM624.106 263.705C623.861 262.733 622.964 259.006 622.882 256.579C622.8 254.149 621.742 252.205 619.702 250.345C618.11 248.889 617.762 246.553 617.686 244.749C616.49 244.023 615.985 244.353 616.085 245.702C616.192 247.157 617.661 247.861 617.444 249.964C617.228 252.071 617.228 251.532 618.261 252.557C619.294 253.582 619.673 254.554 619.13 254.987C618.587 255.417 618.531 256.174 619.294 256.442C620.053 256.713 620.11 257.523 620 258.277C619.89 259.034 620.6 259.196 621.033 259.735C621.469 260.275 621.523 261.571 621.089 262.328C620.653 263.082 620.6 264.269 621.359 263.624C622.122 262.976 622.449 263.568 623.045 264.593C623.563 265.478 623.996 265.201 624.558 264.933C624.364 264.524 624.207 264.101 624.106 263.705ZM634.714 282.571C634.225 283.543 633.653 283.219 633.163 282.733C632.674 282.247 632.102 282.247 632.347 281.356C632.592 280.465 632.511 280.303 631.858 279.817C631.782 279.761 631.707 279.711 631.631 279.661C631.427 279.655 631.189 279.655 630.878 279.655C629.735 279.655 629.654 279.331 629.004 278.683C628.856 278.539 628.728 278.421 628.602 278.321C628.589 278.477 628.596 278.683 628.596 278.926C628.596 279.817 628.596 279.655 627.698 279.898C626.8 280.141 626.963 279.007 626.8 278.277C626.756 278.091 626.706 277.953 626.659 277.841C625.676 277.654 624.64 276.626 624.27 275.526C623.861 274.311 624.351 274.149 624.759 274.959C625.167 275.769 625.331 276.012 626.065 276.498C626.8 276.984 627.045 276.174 626.8 275.202C626.721 274.891 626.703 274.529 626.712 274.127C626.536 273.813 626.298 273.557 625.984 273.42C624.678 272.853 625.086 272.691 625.167 271.638C625.249 270.588 625.004 270.588 624.188 271.152C623.372 271.719 623.29 271.071 623.29 269.454C623.29 267.833 622.229 267.833 621.987 268.968C621.742 270.102 621.334 269.373 620.844 267.752C620.355 266.132 619.702 265.727 619.62 267.266C619.551 268.569 619.187 268.88 618.333 268.157C618.484 269.098 618.615 269.977 618.722 270.669C619.13 273.339 619.783 272.367 621.089 273.501C622.395 274.635 621.987 275.202 622.477 275.769C622.964 276.336 623.045 276.741 622.882 277.389C622.719 278.034 622.477 278.602 622.719 279.169C622.964 279.736 623.29 279.979 623.29 280.789C623.29 281.599 623.535 281.518 623.861 281.68C624.066 281.78 624.329 281.724 624.521 281.805C624.731 281.53 624.923 281.194 625.167 280.951C626.147 279.979 627.616 281.032 628.106 282.247C628.596 283.462 629.164 283.786 629.899 282.814C630.633 281.842 630.388 282.004 631.204 282.895C632.021 283.786 632.347 283.624 632.347 283.624C632.347 283.624 633.163 283.3 633.735 283.786C634.306 284.272 634.633 284.191 635.691 282.652C636.752 281.113 635.204 281.599 634.714 282.571Z" fill="#DABCB0"/>
<path d="M617.743 218.738C616.936 218.797 616.383 219.498 616.845 221.95C617.134 223.468 615.975 223.138 615.542 222.38C615.106 221.626 614.779 220.006 613.909 218.601C613.037 217.199 613.473 219.573 613.366 220.869C613.256 222.165 614.126 222.165 614.889 223.244C615.649 224.325 614.996 224.758 614.126 224.758C613.256 224.758 613.693 226.484 613.909 227.671C614.126 228.858 613.693 229.076 613.037 228.104C612.387 227.132 612.82 225.621 612.93 223.786C613.037 221.95 613.147 222.38 611.95 221.95C610.754 221.517 610.971 221.302 611.407 220.221C611.841 219.143 612.277 218.601 611.734 218.062C611.188 217.523 611.297 217.199 612.167 217.09C613.037 216.984 612.713 216.336 613.473 216.118C614.236 215.903 614.562 216.227 614.669 214.825C614.76 213.653 615.156 212.933 616.041 213.289C616.575 215.093 617.269 217.9 617.743 218.738Z" fill="#DABCB0"/>
<path d="M637.625 238.143C637.948 235.769 637.731 233.395 638.711 232.529C639.69 231.665 640.886 229.939 640.776 233.61C640.67 237.28 640.56 237.065 639.8 237.928C639.037 238.791 638.384 239.006 639.147 240.411C639.907 241.814 640.017 241.923 639.907 244.082C639.8 246.241 639.8 247.104 640.67 248.185C641.539 249.263 641.756 249.372 641.976 250.56C642.192 251.747 642.952 253.367 643.932 254.23C644.911 255.093 646 257.576 646.107 259.306C646.217 261.032 647.74 261.465 649.152 262.652C650.568 263.839 648.829 264.702 647.74 264.163C646.653 263.624 647.087 264.163 646.434 264.917C645.781 265.674 645.564 265.783 645.021 264.487C644.478 263.191 642.626 262.328 641.756 262.004C640.886 261.68 640.127 260.275 639.364 258.872C638.711 257.667 637.417 256.785 636.237 256.694C636.563 257.604 636.739 258.318 636.645 258.657C636.319 259.845 635.882 260.708 637.188 262.11C638.494 263.515 639.364 265.565 639.474 266.752C639.58 267.942 639.8 268.372 641.103 267.942C642.409 267.509 643.062 267.076 643.498 266.537C643.932 265.998 644.801 266.107 646 266.752C647.197 267.4 649.046 268.048 650.132 267.4C651.221 266.752 651.764 265.783 652.744 265.783C654.267 264.702 654.81 262.434 655.136 261.789C655.463 261.141 655.246 261.141 654.593 260.493C653.94 259.845 654.267 258.763 654.157 257.685C654.05 256.604 653.614 254.987 652.308 252.61C651.005 250.236 650.242 247.319 649.372 246.565C648.503 245.808 648.066 243.973 647.956 243.11C647.85 242.247 646.87 241.49 646.217 240.841C645.564 240.196 644.911 239.224 644.151 235.445C643.555 232.491 643.093 230.201 642.921 229.03C642.139 230.266 641.605 230.569 641.323 229.721C640.996 228.752 640.56 228.21 640.127 228.858C639.69 229.506 639.58 228.319 639.58 227.78C639.58 227.238 639.474 227.132 638.927 227.132C638.384 227.132 638.821 226.269 638.601 224.649C638.384 223.029 638.058 222.814 637.841 224.758C637.625 226.699 636.535 227.886 636.972 228.319C637.405 228.752 637.188 229.615 636.752 230.911C636.319 232.204 636.535 232.962 636.862 233.825C637.188 234.688 636.645 236.308 636.425 237.713C636.209 239.115 637.298 240.517 637.625 238.143ZM628.702 231.45C628.702 233.719 628.702 234.582 629.682 235.445C630.661 236.308 630.551 237.171 630.988 239.224C631.421 241.275 631.421 245.702 632.727 248.724C633.116 249.625 633.653 250.768 634.203 251.959C634.925 251.395 635.553 250.426 635.775 249.911C636.099 249.154 635.122 247.643 634.36 246.35C633.6 245.054 634.469 244.621 635.229 243.001C635.992 241.384 635.122 241.275 633.926 240.841C632.727 240.411 632.727 239.33 632.074 237.604C631.421 235.878 631.531 235.121 631.967 234.149C632.401 233.177 632.074 232.423 631.204 232.204C630.335 231.99 630.551 231.341 630.878 230.263C631.204 229.182 631.421 228.967 630.118 229.291C629.129 229.534 628.891 229.718 628.596 230.073C628.668 230.385 628.702 230.818 628.702 231.45Z" fill="#DABCB0"/>
<path d="M641.213 235.984C641.094 237.28 641.103 237.928 640.776 238.358C640.453 238.791 640.67 239.439 640.996 240.087C641.323 240.735 641.539 241.599 641.213 242.786C640.886 243.973 641.429 244.945 642.082 245.269C642.735 245.593 643.062 245.269 642.845 246.78C642.626 248.291 643.498 249.911 644.258 250.56C645.021 251.208 645.564 252.286 645.454 252.934C645.347 253.582 646 254.23 646.76 254.554C647.523 254.878 647.413 254.987 647.413 255.417C647.413 255.85 647.74 255.85 648.609 256.065C649.479 256.28 650.132 256.822 651.111 258.009C652.091 259.196 653.504 259.845 653.287 258.548C653.07 257.252 653.287 256.389 651.981 255.741C650.678 255.093 649.699 251.962 649.152 249.802C648.609 247.643 646.87 244.73 645.891 244.191C645.781 242.677 646 241.923 645.021 241.165C644.041 240.411 643.715 239.439 643.715 238.682C643.715 237.928 643.172 236.956 642.735 236.741C642.302 236.523 642.082 235.984 642.082 235.336C642.082 234.688 641.323 234.797 641.213 235.984Z" fill="#B38C79"/>
<path d="M666.611 265.344C666.557 259.218 665.961 207.945 665.961 196.093C665.961 193.257 664.492 193.824 664.492 196.093C664.492 198.239 664.492 258.626 664.492 265.02C665.167 265.141 666.077 265.263 666.611 265.344Z" fill="#F2D049" stroke="black" stroke-width="0.5213"/>
<path d="M689.312 192.366L691.861 265.465L691.415 266.051L689.936 266.073L688.326 192.366H689.312Z" fill="#F2D049" stroke="black" stroke-width="0.5213"/>
<path d="M710.795 254.09C710.587 246.646 709.646 212.189 709.281 195.202C709.234 192.936 707.875 193.332 707.897 195.283C708.045 208.964 708.864 247.229 709.015 254.13C709.548 254.13 710.468 254.077 710.795 254.09Z" fill="#F2D049" stroke="black" stroke-width="0.5213"/>
<path d="M676.811 204.515L655.108 204.191C653.887 208.562 659.352 208.481 661.393 207.347C663.757 209.129 665.553 208.967 666.859 207.509C668.736 209.048 671.1 208.643 672.08 207.671C674.692 209.615 677.382 207.671 676.811 204.515Z" fill="#F2D049" stroke="black" stroke-width="0.5213"/>
<path d="M678.443 215.364L656.251 215.283C652.417 218.925 657.393 220.707 661.638 218.196C662.209 219.411 664.818 220.14 666.859 219.168C668.736 220.626 671.1 219.573 672.324 218.358C674.61 219.411 677.3 219.735 678.443 215.364Z" fill="#F2D049" stroke="black" stroke-width="0.5213"/>
<path d="M677.79 229.129L656.414 228.967C656.006 232.772 660.332 232.286 662.043 231.316C663.675 233.825 667.267 233.258 668.654 231.799C670.692 233.177 672.569 232.853 673.63 231.556C675.998 233.582 677.953 230.992 677.79 229.129Z" fill="#F2D049" stroke="black" stroke-width="0.5213"/>
<path d="M678.851 242.895L654.948 242.49C653.642 246.537 657.312 247.266 659.026 246.294C659.597 248.643 662.777 247.833 663.594 246.132C664.818 247.347 666.369 246.699 667.104 245.889C667.43 248.076 670.202 248.157 672.324 246.294C676.647 249.291 680.729 245.808 678.851 242.895Z" fill="#F2D049" stroke="black" stroke-width="0.5213"/>
<path d="M700.064 237.227L680.157 237.065C681.055 241.112 683.011 242.166 686.194 239.816C688.561 242.247 692.476 241.356 693.456 240.14C697.779 243.624 700.146 239.573 700.064 237.227Z" fill="#F2D049" stroke="black" stroke-width="0.5213"/>
<path d="M698.024 223.705L678.77 223.138C679.096 227.995 683.746 227.833 686.113 225.727C687.908 227.995 691.089 227.347 692.231 225.727C694.68 228.157 698.677 226.699 698.024 223.705Z" fill="#F2D049" stroke="black" stroke-width="0.5213"/>
<path d="M700.554 208.481H679.831C680.076 211.88 684.643 213.825 688.153 210.587C689.13 214.473 692.884 213.257 694.517 211.718C696.881 214.716 702.347 211.316 700.554 208.481Z" fill="#F2D049" stroke="black" stroke-width="0.5213"/>
<path d="M699.33 198.118L680.81 198.361C680.484 201.355 684.888 202.651 686.521 200.221C687.419 201.76 690.517 201.598 691.415 200.14C692.884 202.408 694.68 200.869 695.248 200.14C697.371 201.679 699.656 200.95 699.33 198.118Z" fill="#F2D049" stroke="black" stroke-width="0.5213"/>
<path d="M721.032 204.839L698.35 204.596C698.269 206.942 700.717 207.914 702.183 206.942C702.183 209.21 705.367 209.939 707.407 208.157C708.795 210.101 712.873 210.668 714.505 207.995C717.849 210.749 721.44 208.805 721.032 204.839Z" fill="#F2D049" stroke="black" stroke-width="0.5213"/>
<path d="M720.706 223.3L698.513 223.219C698.677 226.294 702.265 227.347 704.306 225.727C704.795 228.319 707.571 228.481 709.2 227.185C711.159 229.372 714.424 229.534 716.216 227.104C718.91 228.076 720.951 225.808 720.706 223.3Z" fill="#F2D049" stroke="black" stroke-width="0.5213"/>
<path d="M719.563 239.897L702.02 239.654C702.02 242.733 705.693 243.138 707.326 241.518C709.037 243.543 711.649 243.543 713.118 241.923C715.482 243.948 719.073 243.381 719.563 239.897Z" fill="#F2D049" stroke="black" stroke-width="0.5213"/>
<path d="M678.974 242.705C679.259 242.708 679.297 242.951 678.971 242.948L654.866 242.652C654.54 242.649 654.584 242.406 654.869 242.409L678.974 242.705Z" fill="black" stroke="black" stroke-width="0.5213"/>
<path d="M697.917 223.564C698.203 223.574 698.237 223.817 697.911 223.807L678.814 223.287C678.487 223.278 678.534 223.035 678.82 223.044L697.917 223.564Z" fill="black" stroke="black" stroke-width="0.5213"/>
<path d="M677.771 229.02C678.057 229.023 678.095 229.266 677.768 229.263L656.395 229.107C656.069 229.107 656.113 228.864 656.395 228.864L677.771 229.02Z" fill="black" stroke="black" stroke-width="0.5213"/>
<path d="M678.402 215.255C678.688 215.255 678.729 215.498 678.402 215.498L656.047 215.382C655.72 215.382 655.764 215.139 656.05 215.143L678.402 215.255Z" fill="black" stroke="black" stroke-width="0.5213"/>
<path d="M676.855 204.393C677.14 204.396 677.175 204.642 676.851 204.636L655.13 204.312C654.803 204.306 654.847 204.063 655.133 204.069L676.855 204.393Z" fill="black" stroke="black" stroke-width="0.5213"/>
<path d="M699.348 198.024C699.634 198.021 699.678 198.264 699.352 198.267L680.71 198.445C680.383 198.448 680.421 198.205 680.707 198.202L699.348 198.024Z" fill="black" stroke="black" stroke-width="0.5213"/>
<path d="M700.491 208.378C700.777 208.378 700.818 208.621 700.491 208.621H679.89C679.564 208.621 679.605 208.378 679.89 208.378H700.491Z" fill="black" stroke="black" stroke-width="0.5213"/>
<path d="M720.721 223.119C721.007 223.119 721.048 223.362 720.721 223.362H698.52C698.193 223.362 698.234 223.119 698.52 223.119H720.721Z" fill="black" stroke="black" stroke-width="0.5213"/>
<path d="M721.032 204.695C721.318 204.698 721.356 204.941 721.029 204.938L698.347 204.717C698.02 204.714 698.064 204.471 698.35 204.474L721.032 204.695Z" fill="black" stroke="black" stroke-width="0.5213"/>
<path d="M700.064 237.078C700.35 237.081 700.388 237.324 700.061 237.321L680.107 237.19C679.78 237.187 679.824 236.944 680.11 236.947L700.064 237.078Z" fill="black" stroke="black" stroke-width="0.5213"/>
<path d="M719.563 239.763C719.849 239.767 719.886 240.01 719.56 240.006L702.02 239.776C701.694 239.773 701.741 239.53 702.026 239.533L719.563 239.763Z" fill="black" stroke="black" stroke-width="0.5213"/>
<path d="M691.415 266.051C681.953 266.213 672.324 266.213 665.798 265.241C659.271 264.269 657.214 263.359 652.744 260.708C646.054 256.741 644.421 255.769 634.959 250.264C633.509 249.419 631.936 250.466 633.98 251.8C643.524 258.034 647.14 260.346 651.683 263.3C656.414 266.375 659.465 269.108 662.369 272.367C666.124 276.579 668.896 276.66 670.61 276.012C672.324 275.364 675.018 274.473 677.708 275.121C680.402 275.769 683.99 275.85 685.868 275.526C687.582 277.065 691.497 276.741 693.701 276.255C695.901 275.769 697.534 275.526 699.085 275.85C700.636 276.174 703 275.931 704.55 275.688C706.101 275.445 710.179 275.04 713.036 275.445C715.89 275.85 718.828 275.607 720.706 275.04C722.58 274.473 726.008 274.635 727.151 274.959C728.78 273.744 729.597 272.205 730.005 270.588C731.923 270.345 732.56 270.108 732.984 269.008C733.759 266.983 734.491 264.998 734.739 264.11H735.511L735.756 262.287L734.168 260.465L734.739 256.984L736.45 256.579C736.532 255.526 736.042 253.906 735.715 253.258C725.437 253.663 715.359 253.987 708.142 254.149C707.326 254.797 706.428 256.498 706.265 257.551C701.86 258.277 699.248 258.601 698.105 258.844C696.962 259.087 696.325 259.178 695.415 260.384C693.946 262.328 692.558 264.593 691.415 266.051Z" fill="#7E7B80" stroke="black" stroke-width="0.5213"/>
<path d="M663.512 271.8C666.042 270.183 670.365 270.507 672.569 272.124C675.181 270.669 679.912 271.071 682.116 273.015C685.46 270.75 688.317 270.426 691.578 272.61C694.109 270.831 698.024 270.669 701.044 272.772C703.979 271.395 707.244 270.264 710.098 273.258C708.387 272.043 704.714 270.99 701.044 273.825C698.187 270.99 693.211 272.043 691.578 273.987C689.456 271.476 684.97 271.071 682.276 274.149C679.341 271.719 674.936 271.638 672.569 273.501C670.692 272.043 667.92 270.831 663.512 271.8Z" fill="#5C5568"/>
<path d="M708.101 268.319C695.129 270.544 666.859 268.968 660.658 267.428C658.527 266.899 659.108 266.132 660.903 266.537C668.049 268.148 683.297 268.157 691.701 267.752C693.333 265.606 695.901 261.963 696.677 260.951C697.452 259.938 697.794 259.845 699.411 259.573C702.306 259.087 703.96 258.826 706.469 258.399C706.509 258.723 706.509 259.128 706.509 259.371C706.305 259.533 706.101 259.817 705.938 259.898C705.938 261.558 706.265 265.606 706.591 267.064C706.918 267.023 707.326 266.902 707.53 266.861C708.101 266.699 708.669 268.157 708.101 268.319Z" fill="#5C5568"/>
<path d="M729.352 268.936C729.82 268.924 730.796 268.902 731.066 268.896C731.596 268.883 732.34 268.522 732.667 267.712C732.993 266.902 734.004 263.908 734.372 262.652L733.066 260.698C733.351 259.087 733.719 256.903 733.759 256.458C734.412 256.215 735.103 255.972 735.43 255.85C735.511 255.486 735.351 254.495 735.021 254.171C729.433 254.383 712.71 254.959 709.649 255C708.914 255 708.585 254.968 708.305 256.012C706.754 261.761 708.898 269.827 714.75 274.473C715.158 274.797 715.673 274.526 714.992 273.906C714.016 273.015 712.506 271.192 711.485 269.391C712.628 269.373 714.945 269.335 715.639 269.307C715.972 270.669 717.014 273.542 717.218 274.028C717.422 274.514 717.924 274.582 717.686 273.856C717.124 272.155 716.829 270.217 716.584 269.285C717.645 269.26 719.645 269.279 720.869 269.211C720.929 270.75 721.092 272.812 721.133 273.379C721.174 273.947 721.663 273.987 721.673 273.339C721.685 272.691 721.698 269.952 721.688 269.145C723.07 269.108 724.834 269.049 725.487 269.049C725.396 269.924 725.227 272.756 725.164 273.205C725.07 273.866 725.418 274.177 725.581 273.245C725.745 272.314 726.071 270.136 726.162 269.033C726.715 269.017 728.168 268.958 728.78 268.943C728.721 269.806 727.904 272.429 727.66 273.118C727.415 273.806 727.81 273.828 728.087 273.177C728.375 272.51 729.27 269.877 729.352 268.936Z" fill="#5C5568"/>
<path d="M709.099 256.143C708.873 257.308 708.833 259.798 708.895 260.86C710.324 260.888 713.84 260.804 714.327 260.764C714.207 259.555 714.016 257.368 713.893 256.003C712.729 256.053 709.875 256.121 709.099 256.143ZM714.932 255.987C714.973 257.121 715.228 259.894 715.309 260.742C716.543 260.708 719.563 260.645 720.583 260.611C720.53 259.573 720.364 256.23 720.345 255.825C718.706 255.869 715.972 255.972 714.932 255.987ZM721.412 255.794C721.462 256.847 721.597 259.82 721.557 260.589C722.866 260.555 725.368 260.53 726.143 260.468C726.203 259.411 726.376 256.392 726.294 255.623C724.825 255.679 722.483 255.757 721.412 255.794ZM727.192 255.592C727.192 256.483 727.079 259.614 727.038 260.465C728.335 260.415 731.279 260.312 732.045 260.293C732.249 259.249 732.658 256.539 732.78 255.395C731.556 255.436 728.087 255.567 727.192 255.592Z" fill="#7E7B80"/>
<path d="M710.832 268.279C710.383 267.388 708.996 264.219 708.873 261.913C710.057 261.892 713.017 261.836 714.446 261.804C714.656 263.543 715.196 267.288 715.482 268.176C713.812 268.217 711.771 268.27 710.832 268.279ZM715.425 261.786C715.579 263.113 716.279 267.671 716.392 268.198C717.604 268.126 720.411 268.117 720.897 268.076C720.847 266.861 720.649 262.303 720.627 261.655C719.359 261.689 716.063 261.77 715.425 261.786ZM721.585 261.633C721.585 262.362 721.714 267.581 721.745 268.027C722.703 267.995 725.189 267.961 725.556 267.921C725.741 265.889 726.021 261.998 726.071 261.512C724.376 261.558 722.712 261.608 721.585 261.633ZM732.249 261.334C730.576 261.387 727.886 261.459 726.975 261.493C726.834 263.543 726.577 267.086 726.454 267.896C727.926 267.865 730.903 267.771 731.556 267.752C732.045 266.78 733.106 263.746 733.351 262.814C732.984 262.247 732.698 261.923 732.249 261.334Z" fill="#7E7B80"/>
<path d="M699.945 260.384L697.82 260.757C696.84 262.328 693.211 267.185 692.762 267.752C695.289 267.681 699.242 267.606 700.193 267.516C700.124 266.213 699.948 261.029 699.945 260.384ZM700.884 260.209C700.934 261.87 701.094 266.294 701.135 267.469C702.387 267.397 704.695 267.248 705.633 267.167C705.417 265.079 705.021 260.094 704.94 259.486C703.888 259.676 701.822 260.038 700.884 260.209Z" fill="#7E7B80"/>
<path d="M724.448 253.682C724.947 251.965 726.281 247.341 728.699 238.601C729.104 237.143 727.678 236.567 727.151 238.439C724.275 248.643 723.189 252.469 722.825 253.744C723.377 253.735 724.169 253.675 724.448 253.682Z" fill="#5C5568" stroke="black" stroke-width="0.5213"/>
<path d="M740.368 236.579C736.899 238.358 735.226 239.047 733.637 238.439C732.174 237.881 730.024 237.567 728.765 238.181C728.762 238.311 728.743 238.452 728.699 238.601C727.211 243.982 726.134 247.799 725.409 250.341C727.977 251.242 732.4 251.363 733.433 250.264C734.491 249.129 737.389 249.372 738.858 249.453C739.797 248.238 740.164 246.74 739.919 246.01C739.674 245.281 739.756 243.988 740.123 242.976C740.49 241.963 740.98 238.682 740.368 236.579Z" fill="white" stroke="black" stroke-width="0.5213"/>
<path d="M735.389 243.097C735.882 242.01 735.951 239.511 735.668 238.564C734.908 238.716 734.265 238.682 733.637 238.439C733.307 238.315 732.946 238.202 732.566 238.109C732.497 239.361 732.039 242.552 731.474 243.786C730.488 244.063 728.501 243.739 727.371 243.387C727.073 244.449 726.799 245.425 726.548 246.322C727.952 246.643 729.713 246.615 731.107 246.294C730.997 248.167 730.749 249.871 729.728 251.049C731.396 251.086 732.887 250.843 733.433 250.264C733.483 250.207 733.54 250.161 733.599 250.114C734.368 248.837 734.39 247.173 734.576 246.051C735.144 246.092 735.879 245.929 736.205 245.605C736.532 245.281 737.062 245.119 737.593 245.16C738.076 245.197 738.83 245.098 739.787 244.714C739.812 244.141 739.925 243.518 740.123 242.976C740.23 242.68 740.346 242.187 740.443 241.592C739.228 242.169 736.519 243.132 735.389 243.097Z" fill="#EF072D" stroke="black" stroke-width="0.5213"/>
<path d="M661.393 207.347C657.557 218.358 644.258 243.057 636.234 251.011" stroke="black" stroke-width="0.5213"/>
<path d="M642.393 254.604C651.501 247.612 674.528 224.917 678.443 215.364" stroke="black" stroke-width="0.5213"/>
<path d="M656.414 228.967C655.356 237.308 652.929 252.186 651.623 260.041" stroke="black" stroke-width="0.5213"/>
<path d="M659.983 247.559C656.885 250.556 652.49 255.788 649.225 258.623" stroke="black" stroke-width="0.5213"/>
<path d="M690.671 231.316C692.966 233.744 696.228 236.486 698.921 237.215M689.17 230.911C686.562 233.42 683.582 236.345 680.973 237.074" stroke="black" stroke-width="0.5213"/>
<path d="M690.222 218.358C692.263 220.059 694.435 222.539 697.044 223.674M688.885 217.875C686.521 219.897 683.011 222.278 679.831 223.169" stroke="black" stroke-width="0.5213"/>
<path d="M689.692 203.38C691.905 205.889 696.146 207.914 698.268 208.481M680.32 208.481C682.848 207.752 686.612 205.808 688.571 203.785" stroke="black" stroke-width="0.5213"/>
<path d="M689.346 193.338C691.547 195.202 695.415 197.894 697.942 198.137M680.81 198.361C683.419 197.794 686.653 196.417 688.367 193.986" stroke="black" stroke-width="0.5213"/>
<path d="M709.404 200.464C710.424 202.084 712.995 204.564 714.465 204.767M707.966 200.586C706.55 202.044 703.081 204.664 700.88 204.624" stroke="black" stroke-width="0.5213"/>
<path d="M709.834 217.713C710.669 219.209 713.852 222.589 715.648 223.278M699.411 223.219C702.265 222.246 706.265 219.928 708.264 217.539" stroke="black" stroke-width="0.5213"/>
<path d="M710.261 234.432C711.608 236.093 714.91 239.128 716.951 239.857M702.795 239.664C704.101 239.383 707.652 237.632 708.628 235.566" stroke="black" stroke-width="0.5213"/>
<path d="M666.319 237.632C669.662 239.978 673.549 242.328 676.525 242.854M657.883 242.54C661.88 241.284 669.957 236.417 673.957 231.799" stroke="black" stroke-width="0.5213"/>
<path d="M666.174 223.826C667.072 225.079 673.671 229.079 676.484 229.12M657.148 228.977C659.352 228.045 662.247 226.456 664.492 224.15" stroke="black" stroke-width="0.5213"/>
<path d="M666.052 210.992C668.337 212.569 672.855 215.354 675.954 215.354M664.492 210.911C662.777 212.285 658.659 214.756 656.659 215.283" stroke="black" stroke-width="0.5213"/>
<path d="M665.97 198.722C667.399 200.991 671.222 204.057 673.712 204.462M664.492 198.239C662.655 200.302 659.556 203.489 656.985 204.219" stroke="black" stroke-width="0.5213"/>
<path d="M698.994 212.348C704.714 222.814 715.322 235.607 726.049 242.328" stroke="black" stroke-width="0.5213"/>
<path d="M681.831 200.748C690.517 213.136 707.571 240.302 723.795 250.332" stroke="black" stroke-width="0.5213"/>
<path d="M726.784 239.735C724.172 243.34 719.481 248.967 711.73 254.09" stroke="black" stroke-width="0.5213"/>
<path d="M725.814 243.156C720.348 234.495 717.522 223.543 713.435 209.12" stroke="black" stroke-width="0.5213"/>
<path d="M664.492 265.02V246.699M664.492 247.874H660.972M664.492 248.967H660.687M664.492 250.345H660.36M664.492 251.921H659.983M664.492 253.541H659.566M664.492 255.121H659.18M664.492 256.944H658.721M664.492 258.601H658.323M664.492 260.222H657.915M664.492 261.923H657.506M664.492 263.583H658.455M664.096 246.537L662.184 264.618M662.988 246.902L660.354 264.191M662.115 247.49L658.859 263.724M661.007 247.749L657.214 263.116" stroke="black" stroke-width="0.5213"/>
<path d="M666.256 247.721H669.154M666.429 248.724H669.54M666.746 249.908H669.948M667.022 251.183H670.406M667.336 252.569H670.896M667.634 253.906H671.408M667.97 255.405H671.938M668.275 256.782H672.456M673.009 258.249H668.601M673.621 259.947H668.99M674.189 261.508H669.336M674.742 263.044H669.712M670.121 265.039H675.454M666.011 246.637L670.277 265.73M666.57 246.335L672.095 265.846M667.851 247.201L673.803 265.948M669.1 247.631L675.831 266.011" stroke="black" stroke-width="0.5213"/>
<path d="M686.653 241.446H684.389M686.389 242.459H683.877M686.103 243.583H683.319M685.818 244.677H682.779M685.532 245.767H682.226M685.215 247.004H681.626M684.898 248.216H680.983M684.562 249.513H680.33M684.072 251.407H679.401M683.645 253.068H678.566M683.083 255.243H677.473M682.512 257.106H676.556M682.185 258.723H675.74M681.545 260.748H674.732M681.178 262.611H673.772M680.565 264.917H672.61M686.916 240.424L680.273 266.092M686.361 239.981L677.818 266.101M685.588 240.24L674.82 265.958M684.791 240.664L672.142 265.839" stroke="black" stroke-width="0.5213"/>
<path d="M698.397 241.913H695.157M699.574 243.979H695.826M700.752 246.045H696.482M701.929 248.107H697.129M703.106 250.173H697.807M704.284 252.239H698.473M705.461 254.302H699.122M706.638 256.367H699.757M706.644 256.38L697.97 241.15M696.89 241.474L704.754 257.791M695.933 241.433L702.648 258.118M694.878 241.075L700.413 258.461" stroke="black" stroke-width="0.5213"/>
<path d="M705.442 242.63H708.666M704.767 244.633H708.685M704.092 246.64H708.264M703.417 248.643H707.844M702.742 250.647H707.423M702.067 252.65H707.002M701.392 254.654H706.572M700.717 256.66H706.152M709.065 242.811L705.963 257.611M704.431 257.835L708.117 242.281M707.128 241.676L702.105 258.199M705.505 242.406L700.089 258.523" stroke="black" stroke-width="0.5213"/>
<path d="M715.435 243.197H711.611M716.041 244.817H712.01M716.643 246.437H712.38M717.249 248.054H712.76M717.852 249.675H713.171M718.458 251.295H713.573M719.064 252.915H713.922M715.413 243.038L719.422 253.872M713.768 242.39L717.77 253.925M712.524 242.449L716.194 253.968M711.536 242.957L714.192 254.009" stroke="black" stroke-width="0.5213"/>
<path d="M657.525 137.603C655.042 137.675 649.636 137.725 648.499 138.357C647.366 138.993 646.867 139.273 648.854 139.625C650.841 139.978 654.204 140.915 656.047 142.043C657.889 143.168 659.434 145.162 658.925 148.007C657.403 156.553 661.905 164.773 668.428 167.873C669.059 168.172 669.21 168.4 669.069 169.562C668.928 170.724 668.501 172.662 668.146 173.154C667.791 173.65 667.615 174.46 668.749 174.07C667.97 175.516 666.231 178.404 665.7 179.143C660.486 178.51 656.232 179.214 655.839 184.636C655.802 185.166 655.984 186.01 656.797 184.673C657.613 183.334 658.536 182.065 660.768 181.713C659.456 183.72 659.032 185.518 659.246 186.68C659.456 187.842 659.776 188.546 660.344 187.066C660.913 185.589 661.958 184.206 663.076 183.368C663.5 183.053 663.785 182.981 663.465 183.897C663.145 184.814 663.606 186.786 664.247 187.456C664.884 188.122 665.204 187.842 665.025 186.752C664.849 185.658 665.126 183.374 666.479 182.664C668.428 181.645 670.095 182.171 670.877 183.511C671.656 184.848 672.331 183.58 671.48 182.065C670.629 180.551 669.741 179.495 668.322 179.389C669.565 177.205 671.018 174.563 671.339 174.036C671.656 173.506 672.155 173.26 672.579 173.578C673.006 173.896 673.288 173.858 673.715 172.98C674.139 172.098 674.883 169.493 675.947 168.437C676.481 168.294 677.332 168.085 677.649 167.801C679.033 169.808 680.273 172.03 680.594 172.522C680.911 173.014 681.269 173.226 680.948 174.248C680.628 175.27 679.529 178.51 679.354 179.214C675.486 179.355 673.715 179.423 672.472 181.573C671.929 182.511 672.792 182.876 673.715 182.383C674.635 181.891 675.947 181.467 676.622 181.573C677.294 181.679 677.611 182.022 676.939 182.349C674.566 183.511 673.081 184.988 673.181 187.032C673.216 187.77 673.524 188.138 674.104 187.138C674.921 185.73 676.409 184.321 678.217 183.932C678.11 185.658 678.503 188.194 679.564 188.724C680.628 189.25 680.703 188.714 680.308 187.702C679.671 186.082 680.333 184.452 681.124 183.58C682.791 181.748 686.587 184.284 687.296 184.919C688.006 185.552 688.652 185.817 688.254 184.178C687.72 181.997 684.599 180.729 681.94 180.377C682.684 176.818 684.672 169.633 685.736 167.169C687.296 168.013 688.514 165.785 691.126 166.745C695.522 168.365 702.117 172.45 703.254 173.366C704.387 174.282 704.814 174.07 705.382 173.578C705.947 173.086 706.943 173.578 707.721 173.718C708.503 173.858 709.212 174.07 708.217 172.098C707.225 170.126 704.814 166.673 700.771 163.997C703.182 164.209 706.447 164.209 706.447 163.576C706.447 162.941 702.686 161.744 701.125 161.604C702.617 161.252 704.886 160.405 705.947 159.208C706.578 158.501 705.822 158.336 703.609 158.292C696.799 158.152 693.396 158.205 689.849 156.18C684.176 152.939 680.93 149.527 678.145 148.079C676.657 147.303 675.75 145.514 675.175 143.969C673.332 139.037 673.423 136.818 669.097 135.198C664.771 133.578 659.795 135.562 657.525 137.603Z" fill="black"/>
<path d="M671.508 138.036C670.686 137.152 669.223 136.335 668.491 136.092C667.757 135.849 667.675 136.578 668.083 136.943C667.757 137.429 667.634 138.603 668.205 138.927C668.777 139.252 668.783 139.713 668.246 139.978C667.43 140.383 667.706 142.532 668.937 141.922C669.345 141.719 669.672 141.8 669.59 142.124C669.508 142.448 669.672 142.853 670.039 142.934C670.406 143.015 670.365 143.542 670.284 143.744C670.202 143.947 670.325 144.028 670.733 144.069C671.141 144.109 671.182 145.081 670.447 145.405C671.345 145.405 671.59 145.243 671.835 145.972C672.08 146.698 673.059 146.86 673.059 147.751C673.059 148.642 672.896 148.805 671.835 148.642C670.774 148.48 670.365 148.805 670.039 149.21C669.712 149.615 669.631 150.02 670.447 150.06C671.263 150.101 671.427 150.465 670.61 150.83C669.794 151.194 668.45 150.951 668.246 151.721C668.042 152.487 668.246 152.852 668.855 152.568C669.468 152.288 670.733 151.761 671.222 151.478C671.712 151.194 672.161 151.154 672.569 151.802C672.977 152.45 672.651 153.176 671.957 152.612C671.263 152.045 670.937 152.568 670.529 152.892C670.121 153.216 669.508 153.419 668.855 153.419C668.205 153.419 667.757 153.503 667.838 154.958C668.083 159.333 671.508 162.57 677.79 162.489C684.072 162.408 687.174 162.327 688.112 162.448C686.031 161.314 684.725 160.707 683.99 160.788C683.256 160.869 682.644 160.99 682.97 160.423C683.297 159.856 682.929 159.856 682.603 159.613C682.276 159.37 681.871 159.046 681.218 159.735C680.565 160.423 679.014 161.193 678.239 161.355C677.464 161.517 676.525 161.476 677.26 160.747C677.994 160.018 679.627 159.775 680.116 159.451C680.606 159.127 680.606 158.928 680.606 158.685C680.606 158.442 680.484 157.753 681.422 158.28C683.297 159.333 686.235 160.909 687.011 160.869C687.786 160.828 688.316 160.504 687.623 160.059C686.929 159.613 686.725 158.968 686.929 158.725C687.133 158.482 687.255 158.239 688.48 158.928C689.701 159.613 691.701 160.504 692.435 160.828C693.17 161.152 694.15 161.031 692.639 159.937C691.129 158.847 686.439 155.768 685.133 154.796C683.827 153.824 684.399 154.999 684.521 155.363C684.643 155.728 683.623 156.173 683.093 155.728C682.562 155.282 682.195 154.796 682.929 154.391C683.664 153.986 683.827 153.946 682.725 152.973C681.626 152.004 681.3 152.085 681.545 152.892C681.79 153.703 681.871 154.594 680.729 154.148C679.586 153.703 679.014 153.176 679.749 152.73C680.484 152.288 681.422 152.045 680.198 151.032C678.974 150.02 679.341 151.032 679.055 151.599C678.77 152.166 677.831 152.166 677.3 151.721C676.77 151.275 676.525 150.83 676.892 150.465C677.259 150.101 677.219 149.898 677.749 150.182C678.28 150.465 679.096 150.303 678.117 149.453C677.137 148.602 676.77 148.967 676.974 149.453C677.178 149.939 676.402 150.789 675.181 149.655C674.6 149.119 674.61 148.399 675.222 148.278C675.831 148.156 675.891 147.842 675.464 147.225C672.977 143.623 673.998 140.707 671.508 138.036ZM657.801 138.725C656.7 138.684 654.536 138.426 652.744 138.603C652.336 138.644 651.846 138.846 652.826 138.968C653.805 139.09 656.455 139.734 657.393 140.059C658.332 140.383 657.924 140.869 657.108 140.666C656.291 140.464 655.99 140.763 656.659 141.233C660.128 143.663 660.495 144.595 659.597 152.933C660.25 153.378 660.781 153.703 661.352 153.986C661.924 154.27 661.76 154.675 661.148 154.513C660.536 154.351 659.965 154.715 660.944 154.918C661.924 155.12 662.369 155.566 661.434 155.525C660.495 155.485 659.393 156.295 661.23 156.092C663.063 155.89 663.798 156.74 661.638 156.781C659.475 156.821 660.291 157.51 661.434 157.51C663.471 157.51 662.859 158.077 662.332 158.077C661.801 158.077 661.556 158.766 662.903 158.644C664.247 158.523 664.777 158.482 665.267 158.563C665.757 158.644 665.961 159.046 665.226 159.09C664.492 159.127 664.532 159.654 665.634 159.654C666.736 159.654 667.195 159.984 666.206 160.18C665.798 160.261 665.233 160.464 666.41 160.626C668.45 160.909 668.532 161.395 667.879 161.476C667.226 161.557 667.144 161.922 668.083 162.003C669.019 162.084 669.835 162.367 669.063 162.57C668.287 162.773 667.879 163.218 668.855 163.299C669.835 163.38 670.651 163.745 669.916 163.988C669.182 164.231 669.019 164.676 669.957 164.636C670.896 164.595 671.263 165.122 670.61 165.483C669.957 165.848 669.508 166.091 669.1 165.446C668.695 164.798 668.45 164.595 668.328 165.081C668.205 165.564 667.92 165.243 667.593 164.514C667.267 163.785 666.695 163.583 666.859 164.15C667.022 164.717 666.287 164.798 665.593 164.514C668.165 167.103 671.957 169.453 677.994 167.022C678.509 166.817 678.606 167.022 679.014 167.873C679.423 168.724 680.565 170.587 680.973 171.275C681.382 171.964 681.705 171.344 681.909 170.668C682.725 167.995 683.337 166.01 683.582 165.284C683.827 164.555 684.97 163.826 684.603 166.374C685.5 165.767 689.478 165.193 692.558 166.334C695.942 167.589 699.345 169.537 701.085 170.83C701.411 171.073 701.819 171.356 702.632 171.275C703.448 171.194 703.653 171.073 702.102 169.655C700.554 168.238 701.207 167.549 702.183 168.238C703.163 168.926 703.693 168.521 702.959 167.671C702.224 166.82 700.472 165.162 699.901 164.757C699.33 164.352 699.248 164.19 697.942 164.109C696.636 164.028 693.864 164.028 693.048 164.028C692.231 164.028 691.986 164.109 693.782 164.757C695.575 165.402 699.248 167.752 700.064 168.319C700.88 168.886 701.452 170.182 699.656 169.048C697.86 167.914 692.231 164.433 688.48 163.137C679.912 163.704 673.141 164.838 668.083 159.333C665.659 156.697 665.553 150.668 669.631 148.156C668.815 147.468 668.937 147.063 669.263 146.901C669.59 146.739 669.712 146.577 669.386 146.172C669.063 145.767 669.1 145.405 669.386 145.243C668.491 144.757 668.083 144.19 668.124 143.582C667.022 143.339 666.532 142.043 665.063 142.448C663.594 142.853 662.859 142.529 662.413 142.165C661.961 141.8 661.597 141.638 660.781 141.719C659.965 141.8 659.312 141.476 659.271 141.071C659.23 140.666 659.961 140.47 661.066 140.95C663.39 141.962 665.267 142.448 666.695 140.545C668.124 138.644 666.287 136.862 663.553 136.335C660.822 135.809 658.822 137.793 657.801 138.725Z" fill="white" stroke="black" stroke-width="0.5213"/>
<path d="M670.45 168.577C671.053 168.752 673.147 168.964 673.856 168.998C673.502 169.739 673.181 170.232 672.968 170.761C672.754 171.288 672.651 171.325 672.613 170.515C672.579 169.702 672.117 169.175 671.693 170.02C671.266 170.867 671.053 171.182 670.843 171.534C670.629 171.886 670.309 172.03 670.416 171.148C670.522 170.266 670.488 169.35 670.45 168.577Z" fill="white"/>
<path d="M682.722 155.345C682.823 155.469 682.948 155.606 683.093 155.728C683.623 156.173 684.643 155.728 684.521 155.363C684.399 154.999 683.827 153.824 685.133 154.796C686.439 155.768 691.129 158.847 692.64 159.937C694.15 161.031 693.17 161.152 692.435 160.828C691.701 160.504 689.701 159.613 688.48 158.928C687.255 158.239 687.133 158.482 686.929 158.725C686.756 158.928 686.894 159.417 687.343 159.831C686.615 159.937 685.431 159.778 685.092 159.009C684.684 158.077 683.705 156.943 683.011 156.052C682.754 155.722 682.678 155.516 682.722 155.345ZM668.463 146.645C668.19 145.729 667.92 145.511 667.43 145.567C666.94 145.62 666.724 145.511 666.177 145.296C665.634 145.081 664.928 145.349 664.818 146.321C664.708 147.293 664.112 147.779 663.296 148.371C662.479 148.967 661.99 149.453 661.99 150.425C661.99 151.397 661.773 151.665 661.23 152.369C660.988 152.681 660.646 153.036 660.326 153.41C660.677 153.628 661.007 153.818 661.352 153.986C661.924 154.27 661.76 154.675 661.148 154.513C660.536 154.351 659.965 154.715 660.944 154.918C661.924 155.12 662.369 155.566 661.434 155.525C660.495 155.485 659.393 156.295 661.23 156.092C663.063 155.89 663.798 156.74 661.638 156.781C659.475 156.821 660.291 157.51 661.434 157.51C663.471 157.51 662.859 158.077 662.332 158.077C661.801 158.077 661.556 158.766 662.903 158.644C662.922 158.641 662.938 158.638 662.96 158.638C663.154 158.439 663.299 158.189 663.405 157.875C663.622 157.227 663.839 155.335 664.601 154.796C665.361 154.257 665.744 153.5 665.744 152.961C665.744 152.422 666.884 150.048 667.647 149.453C668.41 148.858 668.736 147.564 668.463 146.645ZM677.994 167.022C673.536 168.817 670.321 168.02 667.901 166.427C668.902 166.088 670.03 166.377 670.406 166.415C670.814 166.455 672.08 166.739 672.773 167.103C673.467 167.468 673.916 166.82 673.63 166.091C674.243 166.86 674.692 167.387 675.423 167.347C676.158 167.306 677.382 167.184 677.994 167.022ZM673.357 153.232C673.09 153.83 673.084 153.771 672.215 153.824C671.345 153.88 670.249 154.027 669.769 154.528C669.508 154.796 668.005 154.868 668.001 155.525C667.995 156.186 668.001 156.74 668.654 156.781C669.304 156.821 669.386 156.902 669.144 157.388C668.896 157.875 668.736 158.685 669.876 158.766C671.018 158.847 671.835 158.482 672.12 159.127C672.406 159.775 672.098 160.81 672.324 161.193C672.55 161.576 673.323 161.822 674.519 162.19C675.316 162.436 678.327 162.576 679.253 162.47C680.176 162.361 679.831 161.813 678.905 161.732C677.982 161.651 677.3 161.517 677.084 160.844C676.867 160.168 676.676 159.816 677.194 159.252C677.709 158.685 678.227 158.252 677.928 157.307C677.627 156.363 677.137 155.254 676.051 154.958C674.962 154.662 675.307 153.185 674.227 153.042C673.819 152.989 673.467 152.989 673.357 153.232Z" fill="#F2D049"/>
<path d="M662.696 159.978C662.134 160.049 661.773 160.844 662.479 161.006C663.186 161.168 663.349 161.221 663.349 161.76C663.349 162.299 663.569 163.056 664.328 163.109C665.091 163.165 665.744 162.299 665.091 162.031C664.438 161.76 663.839 161.545 663.785 160.95C663.732 160.358 663.132 159.925 662.696 159.978ZM668.083 162.003C669.019 162.084 669.835 162.367 669.063 162.57C668.287 162.773 667.879 163.218 668.855 163.299C669.835 163.38 670.651 163.745 669.916 163.988C669.182 164.231 669.019 164.676 669.957 164.636C670.896 164.595 671.263 165.122 670.61 165.483C669.957 165.848 669.508 166.091 669.1 165.446C668.695 164.798 668.45 164.595 668.328 165.081C668.205 165.564 667.92 165.243 667.593 164.514C667.267 163.785 666.695 163.583 666.859 164.15C667.022 164.717 666.287 164.798 665.593 164.514C666.278 165.203 667.047 165.873 667.923 166.44C668.924 166.1 670.029 166.377 670.406 166.415C670.814 166.455 672.079 166.739 672.773 167.103C673.467 167.468 673.916 166.82 673.63 166.091C673.345 165.365 673.304 165.608 672.937 166.01C672.569 166.415 672.488 165.848 672.528 165C672.563 164.284 672.079 164.474 671.916 164.919C671.753 165.365 671.386 164.636 671.59 164.19C671.794 163.745 671.549 163.583 671.182 163.704C670.814 163.826 670.773 163.704 670.733 162.894C670.692 162.084 670.325 162.205 670.202 162.53C670.08 162.854 669.753 162.408 669.263 161.76C668.836 161.193 668.344 161.526 667.49 161.863C667.596 161.925 667.791 161.978 668.083 162.003ZM666.884 146.698C666.111 146.187 665.361 146.483 665.361 147.455C665.361 148.427 664.871 148.695 664.218 149.019C663.569 149.344 662.969 150.154 662.859 150.911C662.752 151.665 662.969 152.151 662.426 152.746C661.88 153.338 661.826 153.824 662.209 154.148C662.589 154.472 662.589 154.528 662.752 155.011C662.916 155.497 663.839 154.958 663.839 154.419C663.839 153.88 664.058 153.88 664.655 153.556C665.254 153.232 666.234 151.665 666.014 151.235C665.798 150.802 665.254 150.425 665.961 149.83C666.667 149.238 667.43 149.182 667.43 148.59C667.43 147.994 667.647 147.779 667.863 147.564C668.083 147.346 667.374 147.022 666.884 146.698ZM672.924 144.757C672.324 144.109 672.704 143.785 673.357 143.461C673.517 143.383 673.627 143.283 673.706 143.165C673.521 142.451 673.373 141.766 673.178 141.099C672.836 141.196 672.437 141.953 672.324 142.327C672.161 142.866 671.998 143.19 671.455 143.028C670.971 142.885 670.488 143.424 670.387 144C670.463 144.031 670.579 144.053 670.733 144.069C670.959 144.09 671.072 144.396 671.003 144.72C672.475 144.673 672.726 145.683 672.977 146.374C673.251 147.131 673.577 147.022 673.794 146.592C674.01 146.159 673.52 145.405 672.924 144.757ZM668.246 139.978C667.43 140.383 667.706 142.532 668.937 141.922C669.345 141.719 669.672 141.8 669.59 142.124C669.546 142.296 669.574 142.492 669.665 142.648C670.152 142.445 670.639 142.109 671.018 141.679C671.781 140.816 671.072 140.869 669.932 140.869C668.789 140.869 668.463 140.654 669.549 140.006C670.522 139.426 669.888 139.024 668.541 139.211C668.736 139.485 668.639 139.784 668.246 139.978ZM669.37 136.485C668.742 137.089 668.632 137.36 668.953 137.36C669.333 137.36 669.169 137.413 668.896 137.846C668.626 138.279 669.442 138.494 669.769 138.17C670.095 137.846 670.149 137.737 670.312 138.17C670.444 138.522 670.981 138.189 671.32 137.849C670.764 137.317 670.017 136.824 669.37 136.485ZM671.923 138.522C671.709 138.84 671.631 138.828 671.235 139.09C670.748 139.41 670.639 140.33 671.455 140.221C672.02 140.146 672.35 139.812 672.572 139.541C672.393 139.199 672.18 138.859 671.923 138.522Z" fill="#A89078"/>
<path d="M663.145 153.176C662.589 153.453 662.941 154.189 663.757 153.662C664.573 153.135 664.532 152.487 663.145 153.176ZM663.063 152.45C662.507 152.724 662.859 153.46 663.675 152.933C664.492 152.406 664.451 151.761 663.063 152.45ZM664.018 151.989C663.459 152.266 663.813 153.001 664.627 152.475C665.443 151.948 665.402 151.3 664.018 151.989ZM663.39 151.207C662.834 151.484 663.186 152.219 664.002 151.693C664.818 151.166 664.777 150.518 663.39 151.207ZM664.369 150.911C663.813 151.188 664.165 151.923 664.981 151.397C665.798 150.87 665.757 150.222 664.369 150.911ZM663.663 150.235C663.107 150.512 663.459 151.247 664.275 150.721C665.091 150.194 665.05 149.546 663.663 150.235ZM664.806 149.724C664.247 149.998 664.357 150.733 665.173 150.21C665.989 149.683 666.193 149.035 664.806 149.724ZM665.675 148.602C665.119 148.879 665.226 149.615 666.042 149.088C666.859 148.562 667.063 147.913 665.675 148.602ZM666.736 147.265C666.196 147.331 665.594 148.035 666.491 147.913C667.389 147.792 667.757 147.144 666.736 147.265ZM666.884 145.891C666.375 145.695 666.071 146.754 666.777 146.916C667.483 147.078 667.593 146.159 666.884 145.891Z" fill="black"/>
<path d="M674.814 153.865C673.608 152.821 673.304 153.459 673.794 154.108C674.283 154.756 673.916 155.08 672.855 155.242C671.794 155.404 670.202 155.606 669.549 155.606C668.896 155.606 668.124 156.497 669.672 156.416C671.222 156.335 673.834 155.809 674.528 155.525C675.222 155.242 675.79 154.715 674.814 153.865Z" fill="black" stroke="black" stroke-width="0.5213"/>
<path d="M677.178 155.687C676.183 154.799 675.831 155.039 676.076 155.687C676.321 156.335 675.872 156.457 675.222 156.659C674.569 156.862 671.998 157.713 670.896 157.834C669.794 157.956 669.549 158.725 671.182 158.685C672.814 158.644 675.954 157.348 676.321 157.105C676.688 156.862 676.811 156.376 677.219 156.619C677.627 156.862 677.994 156.416 677.178 155.687Z" fill="black" stroke="black" stroke-width="0.5213"/>
<path d="M677.913 158.28C677.191 158.706 675.385 159.492 674.651 159.694C673.916 159.897 673.304 160.707 674.855 160.585C676.403 160.464 678.239 159.046 678.729 158.766C679.219 158.482 679.463 158.28 679.872 158.32C680.28 158.361 681.014 157.794 679.667 157.064C678.321 156.335 677.504 156.7 678.157 157.267C678.81 157.834 678.321 158.037 677.913 158.28Z" fill="black" stroke="black" stroke-width="0.5213"/>
<path d="M664.078 137.558C662.508 137.577 661.342 139.603 663.133 140.815C665.064 142.124 667.104 139.142 665.198 137.899C664.824 137.655 664.44 137.553 664.078 137.558ZM662.718 139.09L663.309 139.129C663.186 139.734 663.798 140.647 664.737 140.423C663.983 140.99 662.514 140.342 662.718 139.09Z" fill="black"/>
<path d="M749.215 192.366C749.07 243.253 740.98 298.075 674.61 324.188C608.237 298.075 600.146 243.253 600.002 192.366H749.215Z" stroke="black" stroke-width="1.0425"/>
<path d="M749.215 192.366C749.271 173.198 748.198 154.587 748.687 138.279C723.886 127.265 691.252 125 674.61 125C657.965 125 625.331 127.265 600.529 138.279C601.019 154.587 599.949 173.198 600.002 192.366H749.215Z" stroke="black" stroke-width="1.0425"/>
</g>
<defs>
<clipPath id="clip0_765_17592">
<rect width="900" height="450" fill="white"/>
</clipPath>
</defs>
</svg>
