<svg width="900" height="450" viewBox="0 0 900 450" fill="none" xmlns="http://www.w3.org/2000/svg">
<rect width="900" height="450" fill="#1E1E1E"/>
<g clip-path="url(#clip0_0_1)">
<mask id="mask0_0_1" style="mask-type:luminance" maskUnits="userSpaceOnUse" x="0" y="0" width="900" height="450">
<path d="M0 -3.37219e-06H900V450H0V-3.37219e-06Z" fill="white"/>
</mask>
<g mask="url(#mask0_0_1)">
<path d="M0 -3.37219e-06H900V450H0V-3.37219e-06Z" fill="white"/>
<path d="M0 -3.37219e-06H900V450H0V-3.37219e-06Z" fill="white"/>
<path d="M0 -3.37219e-06H900V450H0V-3.37219e-06Z" fill="#FF0000"/>
</g>
<mask id="mask1_0_1" style="mask-type:luminance" maskUnits="userSpaceOnUse" x="0" y="0" width="900" height="300">
<path d="M0 -3.37219e-06H900V300H0V-3.37219e-06Z" fill="white"/>
</mask>
<g mask="url(#mask1_0_1)">
<path d="M0 -3.37219e-06H900V299.557H0V-3.37219e-06Z" fill="#005CE5"/>
</g>
<mask id="mask2_0_1" style="mask-type:luminance" maskUnits="userSpaceOnUse" x="0" y="0" width="900" height="151">
<path d="M0 -3.37219e-06H900V150.667H0V-3.37219e-06Z" fill="white"/>
</mask>
<g mask="url(#mask2_0_1)">
<path d="M0 -3.37219e-06H900V149.776H0V-3.37219e-06Z" fill="white"/>
</g>
<path fill-rule="evenodd" clip-rule="evenodd" d="M225.344 78.7917C224.339 78.7917 223.339 78.8125 222.339 78.8437C202.885 79.3437 184.62 84.3698 171.615 90.4948V90.5156C170.198 91.1094 168.802 91.7031 167.479 92.3021L171.948 162.318C175.047 198.901 198.891 220.203 225.38 228.568C251.875 220.203 275.714 198.901 278.812 162.318L283.26 92.5208C281.891 91.8229 280.516 91.151 279.12 90.5156V90.5C265.453 84.0573 245.974 78.8281 225.411 78.7917H225.344Z" fill="#005CE5"/>
<path fill-rule="evenodd" clip-rule="evenodd" d="M225.38 127.24L212.302 152.776L203.849 141.792L181.76 170.984C182.161 172.797 182.63 174.547 183.141 176.25C185.609 180.417 190.349 185.172 196.427 185.172C201.255 185.172 206.078 181.313 210.906 181.313C215.729 181.313 220.552 185.172 225.38 185.172C230.203 185.172 235.031 181.313 239.854 181.313C244.682 181.313 249.505 185.172 254.328 185.172C260.354 185.172 265.062 180.505 267.552 176.37C268.083 174.615 268.557 172.807 268.969 170.948L246.906 141.792L238.453 152.776L225.38 127.24ZM210.906 185.172C206.078 185.172 201.255 189.031 196.427 189.031C192.609 189.031 189.328 187.677 186.786 185.76C187.661 187.641 188.625 189.479 189.677 191.271C191.661 192.505 193.927 193.344 196.427 193.344C201.255 193.344 206.078 189.484 210.906 189.484C215.729 189.484 220.552 193.344 225.38 193.344C230.203 193.344 235.031 189.484 239.854 189.484C244.682 189.484 249.505 193.344 254.328 193.344C256.797 193.344 259.026 192.526 261 191.318C262.047 189.531 263.01 187.703 263.885 185.828C261.354 187.708 258.104 189.031 254.328 189.031C249.505 189.031 244.682 185.172 239.854 185.172C235.031 185.172 230.203 189.031 225.38 189.031C220.552 189.031 215.729 185.172 210.906 185.172ZM210.906 193.344C206.078 193.344 201.255 197.203 196.427 197.203C195.38 197.203 194.385 197.083 193.417 196.896C201.766 208.047 213.156 215.51 225.37 219.802C237.557 215.521 248.932 208.047 257.271 196.917C256.328 197.094 255.354 197.203 254.328 197.203C249.505 197.203 244.682 193.344 239.854 193.344C235.031 193.344 230.203 197.203 225.38 197.203C220.552 197.203 215.729 193.344 210.906 193.344Z" fill="white"/>
<path fill-rule="evenodd" clip-rule="evenodd" d="M203.615 88.1615H214.557L209.089 97.6406" fill="#FFE500"/>
<path fill-rule="evenodd" clip-rule="evenodd" d="M203.615 94.4792H214.557L209.089 85" fill="#FFE500"/>
<path fill-rule="evenodd" clip-rule="evenodd" d="M236.198 88.1615H247.146L241.672 97.6406" fill="#FFE500"/>
<path fill-rule="evenodd" clip-rule="evenodd" d="M236.198 94.4792H247.146L241.672 85" fill="#FFE500"/>
<path fill-rule="evenodd" clip-rule="evenodd" d="M219.906 109.984H230.854L225.38 119.464" fill="#FFE500"/>
<path fill-rule="evenodd" clip-rule="evenodd" d="M219.906 116.297H230.854L225.38 106.823" fill="#FFE500"/>
<path fill-rule="evenodd" clip-rule="evenodd" d="M171.562 90.5417C170.182 91.099 168.807 91.6719 167.443 92.2656L171.937 162.286C175.005 198.906 198.896 220.172 225.333 228.563C251.844 220.172 275.656 198.906 278.802 162.286L283.224 92.4896C281.865 91.8073 280.49 91.1615 279.104 90.5417L274.911 159.964C274.828 161.766 274.677 163.562 274.453 165.354C274.234 167.141 273.948 168.922 273.594 170.693C273.24 172.458 272.812 174.214 272.323 175.948C271.839 177.682 271.281 179.401 270.661 181.094C270.042 182.786 269.359 184.453 268.609 186.099C267.865 187.74 267.052 189.349 266.182 190.932C265.312 192.51 264.385 194.052 263.396 195.563C262.406 197.073 261.365 198.542 260.26 199.974C259.161 201.401 258.01 202.786 256.802 204.13C255.599 205.469 254.339 206.766 253.036 208.01C251.729 209.255 250.38 210.448 248.984 211.594C247.589 212.734 246.151 213.823 244.672 214.854C243.193 215.885 241.677 216.865 240.125 217.781C238.573 218.698 236.984 219.552 235.365 220.349C233.75 221.146 232.099 221.88 230.427 222.552C228.75 223.219 227.052 223.828 225.333 224.37C223.609 223.828 221.917 223.219 220.24 222.552C218.562 221.88 216.917 221.146 215.297 220.349C213.682 219.552 212.094 218.698 210.542 217.781C208.99 216.865 207.474 215.885 205.995 214.854C204.516 213.823 203.078 212.734 201.682 211.594C200.286 210.448 198.932 209.255 197.63 208.01C196.323 206.766 195.068 205.469 193.865 204.13C192.656 202.786 191.505 201.401 190.401 199.974C189.302 198.542 188.26 197.073 187.271 195.563C186.281 194.052 185.354 192.51 184.484 190.932C183.615 189.349 182.802 187.74 182.057 186.099C181.307 184.453 180.625 182.786 180.005 181.094C179.385 179.401 178.828 177.682 178.339 175.948C177.849 174.214 177.427 172.458 177.073 170.693C176.719 168.922 176.432 167.141 176.208 165.354C175.99 163.562 175.839 161.766 175.755 159.964L171.562 90.5417Z" fill="#FF0000"/>
</g>
<defs>
<clipPath id="clip0_0_1">
<rect width="900" height="450" fill="white"/>
</clipPath>
</defs>
</svg>
