<svg width="900" height="450" viewBox="0 0 900 450" fill="none" xmlns="http://www.w3.org/2000/svg">
<rect width="900" height="450" fill="#1E1E1E"/>
<g clip-path="url(#clip0_0_1)">
<path d="M0 0H900V450H0V0Z" fill="#EE1C25"/>
<path d="M0 0H900V300H0V0Z" fill="#0B4EA2"/>
<path d="M0 0H900V150H0V0Z" fill="white"/>
<path d="M295.109 105H109.769L109.133 111.044C108.995 112.358 105.75 144.022 105.75 213.562C105.75 246.234 116.795 275.062 138.578 299.234C153.839 316.173 173.77 330.434 199.509 342.831L202.434 344.242L205.364 342.831C231.104 330.434 251.039 316.173 266.298 299.234C288.081 275.059 299.126 246.234 299.126 213.562C299.126 144.023 295.88 112.358 295.742 111.044L295.109 105Z" fill="white"/>
<path d="M202.438 336.75C165.433 318.925 112.5 283.546 112.5 213.562C112.5 143.577 115.846 111.75 115.846 111.75H289.032C289.032 111.75 292.379 143.578 292.379 213.562C292.379 283.546 239.446 318.925 202.438 336.75Z" fill="#EE1C25"/>
<path d="M210.363 195.213C220.383 195.375 239.932 195.767 257.339 189.943C257.339 189.943 256.88 196.172 256.88 203.428C256.88 210.683 257.339 216.914 257.339 216.914C241.372 211.57 221.654 211.459 210.363 211.603V250.257H194.538V211.603C183.247 211.459 163.529 211.57 147.562 216.914C147.562 216.914 148.021 210.685 148.021 203.428C148.021 196.17 147.562 189.943 147.562 189.943C164.969 195.767 184.518 195.375 194.538 195.213V170.937C185.405 170.856 172.246 171.292 157.366 176.272C157.366 176.272 157.825 170.043 157.825 162.785C157.825 155.527 157.366 149.299 157.366 149.299C172.223 154.27 185.368 154.714 194.497 154.635C194.028 139.26 189.547 119.886 189.547 119.886C189.547 119.886 198.764 120.605 202.447 120.605C206.131 120.605 215.347 119.886 215.347 119.886C215.347 119.886 210.871 139.262 210.397 154.633C219.528 154.713 232.672 154.27 247.529 149.298C247.529 149.298 247.069 155.527 247.069 162.784C247.069 170.041 247.529 176.27 247.529 176.27C232.65 171.291 219.49 170.854 210.357 170.935V195.213H210.363Z" fill="white"/>
<path d="M202.425 246.07C183.786 246.07 173.803 271.922 173.803 271.922C171.83 268.149 168.843 265.002 165.177 262.836C161.511 260.67 157.314 259.572 153.057 259.664C142.768 259.664 135.185 268.814 130.365 277.289C149.084 307.064 178.95 325.444 202.424 336.75C225.903 325.444 255.788 307.072 274.508 277.289C269.688 268.814 262.106 259.664 251.816 259.664C247.557 259.574 243.356 260.673 239.687 262.838C236.018 265.004 233.026 268.15 231.047 271.922C231.047 271.922 221.065 246.07 202.425 246.07Z" fill="#0B4EA2"/>
</g>
<defs>
<clipPath id="clip0_0_1">
<rect width="900" height="450" fill="white"/>
</clipPath>
</defs>
</svg>
