<svg width="900" height="450" viewBox="0 0 900 450" fill="none" xmlns="http://www.w3.org/2000/svg">
<g clip-path="url(#clip0_765_10725)">
<path d="M900 0H0V450H900V0Z" fill="#1E1E1E"/>
<mask id="mask0_765_10725" style="mask-type:luminance" maskUnits="userSpaceOnUse" x="0" y="0" width="900" height="450">
<path d="M900 0H0V450H900V0Z" fill="white"/>
</mask>
<g mask="url(#mask0_765_10725)">
<mask id="mask1_765_10725" style="mask-type:luminance" maskUnits="userSpaceOnUse" x="0" y="0" width="900" height="450">
<path d="M0 0H900V450H0V0Z" fill="white"/>
</mask>
<g mask="url(#mask1_765_10725)">
<path d="M0 0H900V450H0V0Z" fill="white"/>
<path d="M0 0H900V450H0V0Z" fill="white"/>
<path d="M0 0H900V450H0V0Z" fill="#078930"/>
</g>
<mask id="mask2_765_10725" style="mask-type:luminance" maskUnits="userSpaceOnUse" x="0" y="0" width="900" height="315">
<path d="M0 0H900V314.667H0V0Z" fill="white"/>
</mask>
<g mask="url(#mask2_765_10725)">
<path d="M0 0H900V314.536H0V0Z" fill="white"/>
</g>
<mask id="mask3_765_10725" style="mask-type:luminance" maskUnits="userSpaceOnUse" x="0" y="0" width="900" height="136">
<path d="M0 0H900V136H0V0Z" fill="white"/>
</mask>
<g mask="url(#mask3_765_10725)">
<path d="M0 0H900V134.802H0V0Z" fill="black"/>
</g>
<mask id="mask4_765_10725" style="mask-type:luminance" maskUnits="userSpaceOnUse" x="0" y="156" width="900" height="138">
<path d="M0 156H900V293.333H0V156Z" fill="white"/>
</mask>
<g mask="url(#mask4_765_10725)">
<path d="M0 157.266H900V292.068H0V157.266Z" fill="#DA121A"/>
</g>
<mask id="mask5_765_10725" style="mask-type:luminance" maskUnits="userSpaceOnUse" x="0" y="0" width="390" height="450">
<path d="M0 0H390V450H0V0Z" fill="white"/>
</mask>
<g mask="url(#mask5_765_10725)">
<path d="M0 0L389.125 225L0 450V0Z" fill="#0F47AF"/>
</g>
<path d="M55.4844 224.667L190.958 268.703L107.25 153.448V295.885L190.958 180.63L55.4844 224.667Z" fill="#FCDD09"/>
</g>
</g>
<defs>
<clipPath id="clip0_765_10725">
<rect width="900" height="450" fill="white"/>
</clipPath>
</defs>
</svg>
