<svg width="900" height="450" viewBox="0 0 900 450" fill="none" xmlns="http://www.w3.org/2000/svg">
<g clip-path="url(#clip0_765_10803)">
<path d="M900 0H0V450H900V0Z" fill="#1E1E1E"/>
<mask id="mask0_765_10803" style="mask-type:luminance" maskUnits="userSpaceOnUse" x="0" y="0" width="900" height="450">
<path d="M900 0H0V450H900V0Z" fill="white"/>
</mask>
<g mask="url(#mask0_765_10803)">
<mask id="mask1_765_10803" style="mask-type:luminance" maskUnits="userSpaceOnUse" x="0" y="0" width="900" height="450">
<path d="M0 0H900V450H0V0Z" fill="white"/>
</mask>
<g mask="url(#mask1_765_10803)">
<path d="M0 0H900V450H0V0Z" fill="white"/>
<path d="M0 0H900V450H0V0Z" fill="white"/>
<path d="M0 0H900V450H0V0Z" fill="#12AD2B"/>
</g>
<mask id="mask2_765_10803" style="mask-type:luminance" maskUnits="userSpaceOnUse" x="0" y="128" width="900" height="194">
<path d="M0 128H900V321.333H0V128Z" fill="white"/>
</mask>
<g mask="url(#mask2_765_10803)">
<path d="M0 128.38H900V320.953H0V128.38Z" fill="#FFCE00"/>
</g>
<mask id="mask3_765_10803" style="mask-type:luminance" maskUnits="userSpaceOnUse" x="0" y="0" width="225" height="450">
<path d="M0 0H224.667V450H0V0Z" fill="white"/>
</mask>
<g mask="url(#mask3_765_10803)">
<path d="M0 0V450L224.667 225" fill="#D21034"/>
</g>
<path d="M450 160.474L430.161 221.526L460.688 231.443" fill="black"/>
<path d="M450 160.474L469.839 221.526L439.312 231.443" fill="black"/>
<path d="M511.047 204.833H446.859V236.927" fill="black"/>
<path d="M511.047 204.833L459.12 242.563L440.25 216.594" fill="black"/>
<path d="M487.729 276.599L467.896 215.552L437.37 225.469" fill="black"/>
<path d="M487.729 276.599L435.797 238.87L454.667 212.901" fill="black"/>
<path d="M412.271 276.599L464.203 238.87L445.333 212.901" fill="black"/>
<path d="M412.271 276.599L432.104 215.552L462.63 225.469" fill="black"/>
<path d="M388.953 204.833L440.88 242.563L459.75 216.594" fill="black"/>
<path d="M388.953 204.833H453.141V236.927" fill="black"/>
<path d="M674.667 160.474L654.833 221.526L685.354 231.443" fill="black"/>
<path d="M674.667 160.474L694.505 221.526L663.979 231.443" fill="black"/>
<path d="M735.714 204.833H671.526V236.927" fill="black"/>
<path d="M735.714 204.833L683.786 242.563L664.922 216.594" fill="black"/>
<path d="M712.396 276.599L692.562 215.552L662.036 225.469" fill="black"/>
<path d="M712.396 276.599L660.469 238.87L679.333 212.901" fill="black"/>
<path d="M636.938 276.599L688.87 238.87L670.005 212.901" fill="black"/>
<path d="M636.938 276.599L656.771 215.552L687.297 225.469" fill="black"/>
<path d="M613.62 204.833L665.552 242.563L684.417 216.594" fill="black"/>
<path d="M613.62 204.833H677.807V236.927" fill="black"/>
</g>
</g>
<defs>
<clipPath id="clip0_765_10803">
<rect width="900" height="450" fill="white"/>
</clipPath>
</defs>
</svg>
