<svg width="900" height="450" viewBox="0 0 900 450" fill="none" xmlns="http://www.w3.org/2000/svg">
<g clip-path="url(#clip0_765_12853)">
<path d="M900 0H0V450H900V0Z" fill="#1E1E1E"/>
<mask id="mask0_765_12853" style="mask-type:luminance" maskUnits="userSpaceOnUse" x="0" y="0" width="900" height="450">
<path d="M900 0H0V450H900V0Z" fill="white"/>
</mask>
<g mask="url(#mask0_765_12853)">
<mask id="mask1_765_12853" style="mask-type:luminance" maskUnits="userSpaceOnUse" x="0" y="0" width="899" height="450">
<path d="M0 0H899V450H0V0Z" fill="white"/>
</mask>
<g mask="url(#mask1_765_12853)">
<path d="M0 0H899V450H0V0Z" fill="white"/>
<path d="M0 0H899V450H0V0Z" fill="white"/>
</g>
<mask id="mask2_765_12853" style="mask-type:luminance" maskUnits="userSpaceOnUse" x="0" y="0" width="899" height="226">
<path d="M0 0H899V225.333H0V0Z" fill="white"/>
</mask>
<g mask="url(#mask2_765_12853)">
<path d="M0 0L298.13 224.906L899 225V0.0937534L0 0Z" fill="#DC171D"/>
</g>
<mask id="mask3_765_12853" style="mask-type:luminance" maskUnits="userSpaceOnUse" x="-1" y="0" width="305" height="450">
<path d="M-1 0H303.667V449.333H-1V0Z" fill="white"/>
</mask>
<g mask="url(#mask3_765_12853)">
<path d="M-1 0L297.562 225.411L-1 449.333V0Z" stroke="white" stroke-width="0.99852"/>
</g>
<mask id="mask4_765_12853" style="mask-type:luminance" maskUnits="userSpaceOnUse" x="0" y="224" width="899" height="226">
<path d="M0 224H899V450H0V224Z" fill="white"/>
</mask>
<g mask="url(#mask4_765_12853)">
<path d="M0 450L298.141 224.909H899.456V450H0Z" fill="#012A87"/>
</g>
<path d="M151.271 170.036L151.365 166.557C151.365 166.557 149.495 163.578 151.661 160.385C151.661 160.385 147.057 157.948 148.13 154.13C148.13 154.13 143.964 153.068 144.271 148.484C144.271 148.484 139.776 148.177 139.312 144.349C139.312 144.349 134.812 145.089 132.839 141.359C132.839 141.359 128.453 142.219 127.214 139.141C127.214 139.141 122.953 140.62 120.422 137.005C120.422 137.005 115.922 138.823 114.036 135.417C112.172 138.813 107.672 137.005 107.672 137.005C105.172 140.604 100.88 139.115 100.88 139.115C99.6875 142.198 95.3125 141.323 95.3125 141.323C93.3437 145.052 88.8542 144.313 88.8542 144.313C88.4114 148.125 83.9219 148.438 83.9219 148.438C84.2812 153.031 80.1198 154.073 80.1198 154.073C81.2187 157.885 76.6198 160.318 76.6198 160.318C78.8437 163.531 76.9896 166.484 76.9896 166.484L76.8854 169.693L151.281 170.036" fill="#FFFF00"/>
<path d="M151.271 170.031L151.365 166.552C151.365 166.552 149.495 163.578 151.661 160.38C151.661 160.38 147.057 157.948 148.13 154.13C148.13 154.13 143.963 153.063 144.271 148.485C144.271 148.485 139.776 148.172 139.312 144.344C139.312 144.344 134.818 145.089 132.838 141.36C132.838 141.36 128.453 142.214 127.213 139.141C127.213 139.141 122.953 140.62 120.422 137.005C120.422 137.005 115.922 138.823 114.036 135.412C112.172 138.813 107.672 137.005 107.672 137.005C105.172 140.604 100.88 139.11 100.88 139.11C99.6874 142.198 95.3125 141.323 95.3125 141.323C93.3437 145.052 88.8541 144.313 88.8541 144.313C88.4114 148.125 83.927 148.438 83.927 148.438C84.2812 153.031 80.1197 154.073 80.1197 154.073C81.2187 157.886 76.6197 160.318 76.6197 160.318C78.8437 163.531 76.9895 166.485 76.9895 166.485L76.8906 169.688L151.286 170.037H151.271V170.031Z" fill="#F9D90F" stroke="black" stroke-width="0.272614"/>
<path d="M149.531 165.693C137.849 164.521 124.391 161.75 114.005 167.599C107.042 163.495 97.3489 163.745 89.0937 164.547C84.6094 165.349 79.3385 165.349 74.651 166.115L73.9167 166.219C65.4167 166.781 57.7083 164.271 50.3177 160.969C52.6667 174.281 55.2708 187.927 56.5469 201.859C59.3333 222.5 46.7812 239.828 51.9323 260.219C55.0052 270.005 65.7656 275.693 75.6146 276.818C85.151 277.38 95.0156 278.943 103.839 280.859C105.516 281.208 107.505 281.99 108.667 282.49C111.099 283.505 112.88 285 114.443 286.599C119.771 281.052 127.578 279.505 135.281 278.693C149.161 277.073 166.281 277.953 174.781 265.375V264.667C179.401 257.708 178.786 247.099 176.781 239.219C176.651 236.469 175.917 234.042 175.516 231.422C167.036 209.026 174.297 183.833 177.948 161.26C173.49 163.698 168.516 164.849 163.557 166.068C159.599 166.594 155.193 166.354 151.187 166.135L149.526 165.693" fill="#DC171D"/>
<path d="M166.984 229.974C166.927 231.448 167.724 232.604 168.016 233.969C169.635 243.76 171.208 256.729 161.125 262.802C149.974 269.891 135.349 266.859 122.443 270.609C119.865 271.328 116.312 273.698 114.5 275.375C113.339 274.609 112.167 273.432 110.667 272.74C100.047 267.094 86.2448 268.99 74.2604 265.937C68.2396 264.031 61.9635 259.344 60.4375 253.182C56.5156 237.021 65.9062 223.245 64.7969 207.208C64.0833 194.958 62.026 183.203 59.1927 171.724C68.5625 176.089 79.4114 176.818 89.9427 174.724C97.7448 173.635 106.828 173.609 114.141 176.911C118.172 175.177 122.885 174.401 127.229 173.922C135.484 174.724 144.359 176.219 152.859 176.156C158.536 175.859 163.693 174.219 168.63 172.036C165.698 191.01 160.078 210.885 166.979 229.974" fill="#62AFE1"/>
<path d="M150.13 233.755L150.042 215.911H152.24L124.964 198.297L124.911 189.141H127.547L113.906 179.375L100.339 189.135H102.964L103.01 198.281L75.8802 215.875L78.0469 215.891L78.1406 233.719L150.125 233.771" fill="white"/>
<path d="M150.13 233.755L150.042 215.912H152.24L124.963 198.297L124.911 189.141H127.547L113.906 179.375L100.333 189.136H102.963L103.01 198.281L75.8801 215.875L78.0468 215.886L78.1406 233.719L150.125 233.766L150.13 233.755Z" stroke="black" stroke-width="1.17093"/>
<path d="M158.516 257.193L158.521 262.781L70.6458 262.682L70.6094 257.12L158.521 257.198" fill="white"/>
<path d="M158.516 257.193L158.521 262.776L70.6458 262.677L70.6093 257.12L158.521 257.193H158.516Z" stroke="black" stroke-width="1.17093"/>
<path d="M76.4844 256.859L76.4062 237.964L79.9687 237.953L79.7708 257.073L79.9844 238.109L74.8594 237.964V233.906L153.396 233.995L153.432 238.01H148.589L148.677 257.146L148.51 238.01H152.115L152.198 256.932" fill="white"/>
<path d="M76.4843 256.854L76.4114 237.958L79.9687 237.953L79.7708 257.068L79.9843 238.104L74.8593 237.958V233.906L153.396 233.995L153.432 238.011H148.588L148.682 257.146L148.51 238.011H152.115L152.198 256.927M112.365 230.761L112.318 217.604L101.781 217.594L101.823 230.755H112.365M127.073 230.787L127 217.604L116.474 217.594L116.526 230.755L127.078 230.781M93.3697 252.203L93.3125 239.026H82.7656L82.8281 252.188L93.3697 252.203ZM85.6406 241.776L85.6666 249.427H90.4947L90.4687 241.776H85.6406ZM144.922 252.24L144.859 239.073L134.349 239.063L134.401 252.24H144.922ZM137.193 241.823L137.245 249.453H142.068L142.026 241.823H137.193ZM144.839 230.787L144.781 217.604H134.26L134.297 230.787H144.849H144.839ZM137.115 220.38L137.141 228.021H141.963L141.958 220.38H137.115ZM93.2812 230.735L93.2083 217.584L82.6823 217.568L82.7291 230.729H93.2812V230.735ZM85.552 220.334L85.5781 227.964L90.4062 227.974L90.3697 220.334H85.552ZM104.641 220.344L104.667 227.974L109.495 228L109.464 220.344H104.641ZM119.338 220.36L119.375 228.011H124.203L124.177 220.36H119.338Z" stroke="black" stroke-width="1.17093"/>
<path d="M129.682 226.745L129.797 257.12L99.2812 257.068L99.1719 226.719L129.677 226.745" fill="white"/>
<path d="M98.9895 235.412L129.713 235.438M102.823 257.104L102.719 235.641M126.088 257.12L125.984 235.667M129.682 226.745L129.802 257.12L99.2812 257.068L99.1718 226.719L129.677 226.745H129.682ZM140.823 213.807L123.641 201.261L104.328 201.235L87.2812 213.755L140.823 213.807ZM105.818 190.844L105.849 198.5L122.088 198.511L122.057 190.854L105.818 190.844Z" stroke="black" stroke-width="1.17093"/>
<path d="M105.818 190.844L105.849 198.5L122.088 198.511L122.057 190.854L105.818 190.844Z" stroke="black" stroke-width="1.17093"/>
<path d="M110.219 192.745L110.245 196.557H117.703L117.677 192.745H110.219ZM113.906 182.136L122.943 188.521L104.943 188.5L113.906 182.136ZM113.906 182.136L122.943 188.521L104.943 188.5L113.906 182.136ZM113.906 182.136L122.943 188.521L104.943 188.5L113.906 182.136ZM113.906 182.136L122.943 188.521L104.943 188.5L113.906 182.136ZM113.906 182.136L122.943 188.521L104.943 188.5L113.906 182.136Z" stroke="black" stroke-width="1.17093"/>
<path d="M150.432 177.807C153 177.75 153.661 188.38 153.667 193.641C155.87 194.26 160.755 197.333 162.917 200.115L138.13 200.078C140.26 197.333 145.109 194.25 147.297 193.63C147.297 188.359 147.833 177.734 150.432 177.797" fill="white"/>
<path d="M150.432 177.808C153 177.745 153.661 188.375 153.667 193.641C155.87 194.261 160.755 197.334 162.922 200.115L138.13 200.078C140.26 197.334 145.109 194.25 147.297 193.63C147.297 188.36 147.833 177.735 150.432 177.797M105.13 227.594H107.354L106.714 228.787C106.714 228.787 107.786 230.13 106.719 231.745L107.292 232.839H105.156L105.734 231.802C105.734 231.802 104.661 229.969 105.786 228.787L105.135 227.594M100.599 227.594H102.823L102.172 228.787C102.172 228.787 103.245 230.167 102.193 231.745L102.776 232.839H100.63L101.213 231.802C101.213 231.802 100.115 229.969 101.26 228.787L100.599 227.594ZM110.073 227.594H112.292L111.63 228.787C111.63 228.787 112.713 230.167 111.646 231.745L112.229 232.865L110.104 232.839L110.672 231.802C110.672 231.802 109.588 229.979 110.719 228.787L110.068 227.594H110.073ZM115.651 227.604H117.891L117.234 228.813C117.234 228.813 118.307 230.167 117.24 231.75L117.838 232.865H115.682L116.26 231.823C116.26 231.823 115.187 229.979 116.333 228.813L115.661 227.604H115.651ZM120.615 227.604H122.828L122.177 228.813C122.177 228.813 123.255 230.167 122.187 231.745L122.776 232.865H120.641L121.198 231.823C121.198 231.823 120.12 229.995 121.281 228.813L120.615 227.604ZM125.542 227.62L127.76 227.604L127.104 228.813C127.104 228.813 128.203 230.167 127.135 231.75L127.693 232.865H125.552L126.125 231.823C126.125 231.823 125.052 229.995 126.198 228.813L125.542 227.62Z" stroke="black" stroke-width="1.17093"/>
<path d="M114.573 296.057C126 296.094 140.057 293.76 146.641 290.359L161.099 289.078L161.385 306.719C149.135 313.469 120.854 314.922 114.635 314.875C108.406 314.922 79.776 313.448 67.4739 306.667L67.6302 289.016L82.1198 290.323C88.7031 293.708 103.187 296.057 114.604 296.057H114.573Z" fill="#F9D90F"/>
<path d="M114.573 296.057C126 296.094 140.057 293.761 146.641 290.354L161.099 289.073L161.385 306.714C149.141 313.469 120.859 314.917 114.635 314.87C108.406 314.922 79.776 313.443 67.4739 306.667L67.6302 289.016L82.1197 290.318C88.7031 293.703 103.187 296.057 114.604 296.057H114.573Z" stroke="black" stroke-width="0.272614"/>
<path d="M30.25 220.813L42.9896 224.865L39.1354 245.49L27.0781 247.359C27.0781 247.359 25.0469 236.516 30.25 220.797" fill="#F9D90F"/>
<path d="M30.2499 220.807L42.9895 224.865L39.1406 245.485L27.0781 247.36C27.0781 247.36 25.0468 236.516 30.2499 220.797V220.807Z" stroke="black" stroke-width="0.272614"/>
<path d="M39.1302 245.26L27.0781 247.359L34.7031 236.516L39.1302 245.26Z" fill="#7E7E7E"/>
<path d="M39.1302 245.261L27.0781 247.36L34.7031 236.516L39.1302 245.261Z" fill="#F9B60F" stroke="black" stroke-width="0.272614"/>
<path d="M22.6354 235.667L34.9114 236.552C35.1875 246.958 36.4479 286.661 83.8594 288.813L82.3854 303.255C24.6719 303.859 20.2864 254.563 22.6354 235.667Z" fill="#F9D90F"/>
<path d="M67.7031 306.214L82.1718 303.052M22.6354 235.667L34.9114 236.552C35.1875 246.953 36.4479 286.656 83.8645 288.813L82.3854 303.255C24.6718 303.854 20.2864 254.557 22.6354 235.667Z" stroke="black" stroke-width="0.272614"/>
<path d="M197.896 220.958L185.203 224.974L189.229 245.568L201.312 247.505C201.312 247.505 203.25 236.672 197.891 220.948" fill="#FFFF00"/>
<path d="M197.896 220.953L185.203 224.974L189.229 245.563L201.312 247.505C201.312 247.505 203.255 236.667 197.896 220.943V220.953Z" fill="#F9D90F" stroke="black" stroke-width="0.272614"/>
<path d="M189.229 245.349L201.312 247.521L193.583 236.672L189.229 245.349Z" fill="#7E7E7E"/>
<path d="M189.229 245.349L201.312 247.516L193.583 236.667L189.229 245.349Z" fill="#F9B60F" stroke="black" stroke-width="0.272614"/>
<path d="M205.651 235.828L193.354 236.672C193.177 247.063 192.271 286.781 144.859 288.885L146.469 303.318C204.172 303.984 208.141 254.714 205.651 235.828Z" fill="#F9D90F"/>
<path d="M161.193 306.292L146.682 303.115M205.651 235.828L193.354 236.667C193.177 247.058 192.271 286.781 144.859 288.886L146.469 303.318C204.172 303.985 208.141 254.714 205.651 235.823V235.828Z" stroke="black" stroke-width="0.272614"/>
<path d="M106.901 304.75C106.578 304.958 106.135 305.016 105.625 304.99L103.339 304.875L103.531 302.016L105.807 302.135C106.25 302.167 106.604 302.255 106.828 302.385C107.286 302.625 107.49 303.068 107.448 303.682C107.417 304.208 107.234 304.547 106.896 304.75M103.047 309.25L103.276 305.766L105.948 305.953C106.807 306.021 107.453 305.792 107.885 305.354C108.339 304.922 108.573 304.359 108.604 303.724C108.656 302.979 108.469 302.375 108.026 301.927C107.604 301.5 107.005 301.276 106.25 301.198L102.437 300.964L101.911 309.167L103.042 309.24M111.354 302.385L114.146 302.417C114.552 302.458 114.87 302.505 115.099 302.615C115.531 302.818 115.734 303.219 115.734 303.807C115.734 304.359 115.573 304.729 115.26 304.948C114.958 305.151 114.526 305.24 114.005 305.24L111.323 305.214L111.349 302.391M111.302 309.656L111.328 306.156L113.948 306.193C114.417 306.193 114.755 306.229 114.995 306.344C115.38 306.521 115.573 306.896 115.589 307.411L115.656 308.786C115.677 309.12 115.682 309.323 115.698 309.458C115.74 309.552 115.755 309.656 115.802 309.734H117.214L117.187 309.557C117.026 309.469 116.901 309.307 116.844 309.052C116.797 308.896 116.771 308.656 116.76 308.354L116.734 307.26C116.719 306.76 116.63 306.422 116.443 306.229C116.25 305.974 116.005 305.797 115.698 305.703C116.094 305.495 116.385 305.255 116.599 304.964C116.802 304.635 116.906 304.229 116.906 303.724C116.906 302.781 116.521 302.141 115.734 301.792C115.312 301.599 114.776 301.5 114.135 301.49L110.198 301.453L110.172 309.682H111.302M120.042 307.938C119.542 307.323 119.271 306.557 119.208 305.651C119.156 304.51 119.375 303.641 119.896 303.057C120.422 302.417 121.104 302.115 121.99 302.063C122.885 302.016 123.62 302.302 124.167 302.865C124.724 303.417 125.042 304.182 125.094 305.135C125.125 306.057 124.969 306.87 124.542 307.583C124.13 308.313 123.437 308.724 122.411 308.75C121.349 308.802 120.552 308.552 120.042 307.932M118.698 302.755C118.167 303.568 117.953 304.51 118.01 305.651C118.089 306.88 118.469 307.896 119.187 308.661C119.984 309.427 121.036 309.813 122.333 309.74C123.724 309.677 124.771 309.156 125.484 308.188C126.057 307.313 126.333 306.292 126.271 305.042C126.193 303.917 125.87 303.005 125.26 302.328C124.495 301.411 123.375 301.01 121.854 301.073C120.422 301.161 119.37 301.688 118.693 302.755M157.37 290.922C158.161 290.786 158.844 290.823 159.474 291.036C160.391 291.323 161.01 292.005 161.396 293.047L160.26 293.203C160.016 292.641 159.667 292.255 159.198 292.042C158.734 291.839 158.161 291.792 157.5 291.885C156.724 291.99 156.115 292.365 155.672 293.01C155.245 293.667 155.115 294.552 155.307 295.677C155.469 296.609 155.807 297.396 156.37 297.922C156.891 298.464 157.656 298.651 158.656 298.51C159.406 298.391 160.005 298.089 160.427 297.573C160.87 297.083 160.995 296.344 160.849 295.391L158.208 295.792L158.073 294.885L161.75 294.323L162.464 298.677L161.734 298.786L161.281 297.781C160.979 298.24 160.672 298.583 160.401 298.786C159.948 299.141 159.339 299.37 158.573 299.479C157.578 299.63 156.672 299.453 155.849 298.927C154.953 298.26 154.37 297.271 154.151 295.891C153.911 294.536 154.125 293.38 154.75 292.469C155.344 291.589 156.208 291.073 157.37 290.906M165.682 290.281L168.312 289.328C168.677 289.193 168.99 289.151 169.255 289.182C169.74 289.219 170.094 289.505 170.297 290.078C170.49 290.568 170.49 291 170.276 291.297C170.047 291.609 169.693 291.839 169.177 292.026L166.703 292.917L165.682 290.281ZM168.312 297.083L167.026 293.786L169.479 292.906C169.937 292.755 170.255 292.677 170.495 292.703C170.927 292.755 171.26 293.021 171.479 293.521L172.036 294.781C172.161 295.089 172.26 295.281 172.339 295.365C172.375 295.474 172.453 295.542 172.516 295.615L173.844 295.13L173.771 294.948C173.578 294.948 173.385 294.839 173.245 294.625C173.141 294.474 173.042 294.25 172.901 293.995L172.469 292.969C172.271 292.521 172.068 292.245 171.839 292.078C171.562 291.932 171.271 291.854 170.964 291.839C171.229 291.526 171.427 291.214 171.5 290.849C171.578 290.474 171.542 290.057 171.365 289.594C171.026 288.719 170.411 288.24 169.542 288.177C169.083 288.141 168.557 288.24 167.948 288.453L164.25 289.771L167.24 297.51L168.323 297.109M177.948 293.01L173.25 286.156L178.406 282.87L178.974 283.693L174.75 286.396L176.198 288.49L180.099 285.979L180.63 286.781L176.729 289.292L178.323 291.599L182.62 288.849L183.193 289.656L177.943 293.01M182.057 280.896L183.406 279.417C184.031 278.755 184.693 278.453 185.411 278.542C186.135 278.599 186.87 278.979 187.656 279.667C187.87 279.833 188.057 280.047 188.255 280.286C188.599 280.734 188.802 281.125 188.927 281.516C189.042 282.005 189.016 282.453 188.844 282.885C188.74 283.094 188.557 283.349 188.281 283.646L186.927 285.12L182.057 280.885M189.177 284.115C190.13 283.063 190.339 281.927 189.781 280.646C189.422 279.891 188.917 279.24 188.276 278.693C187.411 277.927 186.51 277.536 185.562 277.464C184.51 277.385 183.615 277.766 182.839 278.615L180.542 281.078L186.875 286.599L189.172 284.125M194.078 277.724L186.792 273.443L187.385 272.5L194.682 276.76L194.083 277.734M196.937 272.755L189.068 269.604L191.391 264.068L192.344 264.437L190.453 269L192.823 269.932L194.594 265.729L195.5 266.104L193.75 270.297L196.401 271.375L198.344 266.76L199.297 267.12L196.932 272.755M200.552 263.094L192.271 261.26L192.547 259.979L200.198 257.396L193.479 255.917L193.724 254.911L202.005 256.693L201.74 257.937L194.078 260.578L200.797 262.026L200.557 263.094M199.896 252.578L200 251.536C200.479 251.552 200.88 251.474 201.187 251.312C201.786 250.984 202.135 250.37 202.229 249.453C202.266 249.026 202.245 248.651 202.151 248.297C201.974 247.615 201.589 247.229 200.969 247.172C200.505 247.12 200.177 247.229 199.937 247.484C199.724 247.771 199.495 248.187 199.323 248.776L198.948 249.859C198.703 250.568 198.474 251.057 198.229 251.333C197.839 251.849 197.286 252.026 196.583 251.979C195.828 251.896 195.219 251.599 194.781 251.021C194.333 250.495 194.151 249.74 194.26 248.812C194.333 247.958 194.62 247.245 195.12 246.667C195.583 246.141 196.307 245.891 197.229 245.99L197.146 247.026C196.693 247.026 196.333 247.109 196.068 247.292C195.589 247.557 195.328 248.115 195.25 248.927C195.182 249.599 195.271 250.052 195.531 250.396C195.786 250.682 196.109 250.87 196.49 250.901C196.896 250.937 197.214 250.807 197.432 250.495C197.594 250.281 197.781 249.818 198.042 249.062L198.411 247.922C198.599 247.396 198.818 246.995 199.073 246.703C199.536 246.229 200.135 246.026 200.891 246.083C201.807 246.177 202.464 246.557 202.797 247.255C203.13 247.964 203.255 248.74 203.177 249.62C203.073 250.62 202.75 251.401 202.151 251.932C201.547 252.469 200.802 252.651 199.896 252.578ZM28.2552 252.078L28.4427 253.104C27.9844 253.198 27.6198 253.38 27.3489 253.62C26.8646 254.073 26.6979 254.75 26.8646 255.677C26.9375 256.068 27.0781 256.453 27.2552 256.76C27.625 257.385 28.1042 257.635 28.7083 257.536C29.1562 257.458 29.4479 257.286 29.5885 256.969C29.7239 256.656 29.8229 256.177 29.8542 255.568L29.9114 254.406C29.9479 253.693 30.026 253.13 30.1875 252.818C30.4375 252.25 30.9062 251.901 31.6094 251.786C32.3437 251.641 33.0052 251.797 33.5937 252.25C34.1719 252.651 34.5521 253.344 34.6927 254.26C34.8698 255.099 34.7917 255.854 34.4583 256.531C34.1406 257.193 33.5312 257.599 32.5937 257.771L32.4062 256.729C32.8437 256.568 33.1667 256.417 33.3802 256.203C33.75 255.792 33.8594 255.198 33.7187 254.385C33.6094 253.719 33.3802 253.292 33.0364 253.078C32.7031 252.828 32.3646 252.729 31.9948 252.792C31.5885 252.854 31.3177 253.078 31.1875 253.448C31.1094 253.693 31.0469 254.198 30.9896 254.979L30.9375 256.177C30.9062 256.74 30.8177 257.203 30.6302 257.526C30.3333 258.109 29.8229 258.474 29.0833 258.589C28.1458 258.75 27.4219 258.536 26.9062 257.932C26.3802 257.349 26.0573 256.646 25.8906 255.766C25.7083 254.729 25.8437 253.917 26.2604 253.271C26.6823 252.604 27.3489 252.219 28.2552 252.089M27.7344 262.932L35.8281 260.495L37.7187 266.198L36.7292 266.51L35.1875 261.823L32.7239 262.562L34.151 266.896L33.2083 267.193L31.7969 262.854L29.0521 263.672L30.6198 268.458L29.651 268.734L27.7344 262.932ZM31.3229 272.813L38.7708 268.865L39.5625 270.255L34.4479 275.667L41.9271 274.391L42.6979 275.766L35.2656 279.693L34.7396 278.776L39.125 276.469C39.2864 276.375 39.5312 276.245 39.8854 276.052C40.2344 275.896 40.625 275.677 41.0156 275.479L33.5729 276.745L33.026 275.776L38.1094 270.38L37.8646 270.505C37.7031 270.599 37.4271 270.734 37.0573 270.948C36.7917 271.115 36.5208 271.26 36.2344 271.385L31.8646 273.729L31.3229 272.802M45.1979 283.781C44.8281 283.693 44.4583 283.479 44.0937 283.104L42.526 281.484L44.6406 279.542L46.2292 281.161C46.5364 281.458 46.7292 281.75 46.8333 282.005C46.9844 282.49 46.8333 282.927 46.3906 283.344C45.9844 283.719 45.5781 283.875 45.2031 283.781M39.2187 284.531L41.8125 282.151L43.6562 284.016C44.25 284.625 44.8594 284.901 45.4948 284.891C46.1562 284.859 46.7187 284.609 47.1927 284.146C47.7396 283.656 48.0052 283.083 48.0052 282.464C48 281.865 47.7239 281.302 47.2135 280.776L44.5677 278.073L38.4062 283.734L39.2031 284.536M46.6458 291.146L51.1094 284.146L56.3854 287.354L55.8385 288.188L51.5 285.594L50.1614 287.708L54.1458 290.13L53.6302 290.932L49.6406 288.526L48.1198 290.896L52.5104 293.531L51.9844 294.359L46.6458 291.146ZM59.8594 289.792L62.5417 290.646C62.9219 290.76 63.1979 290.906 63.3802 291.073C63.7239 291.396 63.8177 291.859 63.6146 292.427C63.4479 292.911 63.1979 293.234 62.8073 293.37C62.4583 293.427 62.0156 293.427 61.5 293.271L58.9687 292.464L59.8594 289.792ZM57.5469 296.667L58.6562 293.328L61.1562 294.146C61.6042 294.26 61.9323 294.422 62.0885 294.583C62.3958 294.859 62.4896 295.271 62.3333 295.781L61.9583 297.109C61.875 297.432 61.8333 297.646 61.7969 297.745C61.7969 297.849 61.7969 297.958 61.8125 298.031L63.1302 298.464L63.2135 298.271C63.0677 298.161 62.9896 297.958 62.9948 297.708C63.026 297.557 63.0677 297.313 63.1562 297.031L63.4739 295.964C63.6042 295.5 63.651 295.151 63.5364 294.896C63.4219 294.604 63.2448 294.365 62.9948 294.172C63.4114 294.094 63.776 293.969 64.0781 293.74C64.4114 293.443 64.6406 293.083 64.7604 292.651C65.0573 291.76 64.8958 291.021 64.2344 290.458C63.901 290.167 63.4323 289.911 62.8125 289.682L59.0677 288.526L56.4427 296.333L57.5417 296.667" fill="#012A87"/>
<path d="M68.9167 154.599C69.8854 152.266 78.8542 145.901 108.271 148.688C108.271 148.688 113.245 151.724 116.167 151.333C117.833 151.115 115.187 151.438 113.016 149.63C110.797 147.823 110.323 144.12 115.391 144.219C120.427 144.344 139.297 145.411 139.656 147.109C139.984 148.823 129.677 149.536 125.844 149.438C121.99 149.333 122.437 151.286 126.271 151.135C138.25 150.708 151.323 146.49 165.135 156.255C166.781 157.443 160.969 157.635 156.474 155.724C156.474 155.724 144.292 156.354 139.026 155.49C139.026 155.49 134.979 158.781 129.708 158.458C130.391 160.167 127.76 166.542 111.182 161.745C108.443 162.589 98.4687 164.255 99.5573 161.292C96.9323 161.292 92.3229 162.141 91.6406 160.646C90.9792 159.177 99.7448 156.953 101.286 155.359C101.286 155.359 82.7344 155.536 79.2187 154.255C79.2187 154.255 68.276 156.714 68.9167 154.583" fill="#BC715F"/>
<path d="M74.8646 180.573C75.2656 180.031 75.4219 179.062 76.2656 179.089C78.1042 179.578 79.3542 182.937 81.6146 180.76C82.4167 180.583 82.7239 181.672 83.3854 181.802C83.8073 183.667 85.3073 181.422 86.4271 181.547C88.8229 180.484 91.7864 180.234 94.6198 180.76C94.7083 182.589 93.276 184.609 91.4739 185.651C91.5104 187.495 93.1823 188.677 93.151 190.531C92.8646 191.224 93.1042 192.312 92.0573 192.542C90.7239 192.302 89.4167 192.161 88.3125 191.422C88.1771 191.286 88.0677 191.021 87.7864 191.109C87.651 191.729 88.6198 192.339 89 192.969C88.3281 194.109 87.2239 193.068 86.2917 193.083C86.0156 193.734 86.2812 194.562 85.6042 194.984C84.4271 194.948 84.1927 193.667 83.4687 193.031C82.7292 193.833 83.9896 194.312 84.1667 194.948C83.7135 197.359 83.776 199.719 81.3594 201.297L79.7448 202.099C79.3073 200.891 79.5781 199.052 79.2864 197.786C78.3281 199.339 77.5833 200.698 76.1823 202.016C74.5417 201.474 73.5833 199.542 73.2239 197.937C72.5364 196.068 72.9271 193.833 74.4062 192.479C73.901 191.5 72.1823 191.729 71.9375 190.333C69.3594 188.651 67.9323 193.271 66.2656 190.87C65.7239 188.63 66.3698 185.844 67.9948 184.172C67.6302 183.255 66.4323 183.49 65.7187 182.964C64.0989 181.589 61.7604 180.13 61.875 177.641C66.3177 175.969 71.625 177.198 74.8542 180.573" fill="#008830"/>
<path d="M77.1667 180.318C77.0625 182.354 78.5417 180.87 79.6354 182.099C78.7812 181.766 78.1562 183.583 77.3177 182.542L76.7864 183.047C77.0937 183.74 77.6875 183.833 77.0677 184.599C76.151 184.948 75.9687 183.797 75.5364 183.344C75.4635 183.146 75.6771 182.766 75.3437 182.63C74.8229 183.068 74.276 183.229 73.5625 183.156C73.3646 182.766 72.9844 182.25 73.3698 181.948C74.0729 181 75.1667 182.292 75.6979 181.625C75.7812 181.036 75.2656 180.318 75.9375 179.917C76.3958 179.995 76.9844 179.745 77.1719 180.318M82.6614 181.984C82.7187 182.38 82.4583 182.927 82.9739 183.203C83.6406 182.844 84.3542 183.12 84.7396 183.781C84.7292 184.135 84.8385 184.599 84.375 184.771L83.3333 184.578C83.4062 184.375 83.0781 184.245 82.9479 184.047C82.4896 183.911 82.2187 184.281 81.875 184.51C82.1354 184.901 82.7292 185.115 82.5885 185.615C81.974 186.229 81.6771 185.089 81 185.375C80.5417 185.203 81.1667 184.245 80.4427 183.958C79.5833 183.958 80.1562 185.365 79.0573 184.813C78.6667 184.375 78.2812 183.781 78.7031 183.281C79.1614 182.974 79.9427 183.057 80.3333 183.453C81 182.714 81.0677 179.854 82.6667 181.984M75.8229 184.938C76.2656 185.578 75.7239 186.453 76.2917 187.172C77.1875 185.5 78.0521 187.531 79.1146 187.375C79.4427 187.771 79.2239 188.323 79.2864 188.776C77.9687 189.125 76.3854 189.542 75.2187 188.49L74.8958 188.859C75.5885 189.505 76.2448 190.234 75.6927 191.313C74.7083 191.526 73.1823 191.547 72.6875 190.531C72.4271 189.693 73.2864 189.089 72.3802 188.417C71.7239 189.229 71.7552 190.318 70.3906 189.578C69.5417 189.115 69.2917 188.151 69.7135 187.344C70.5989 185.953 72.1406 187.385 73.0937 186.708C73.2292 185.516 72.7865 184.474 73.8854 183.813C74.8229 183.646 75.2552 184.349 75.8281 184.938" fill="#F9D90F"/>
<path d="M79.5573 185.667C79.1146 187.698 77.5833 185.562 76.8698 185.474C77.8229 183.781 78.4271 186.026 79.5573 185.667ZM84.3281 187.875C83.2604 188.177 83.4271 186.849 82.901 186.328L83.3125 185.953C83.6979 186.417 83.9896 187.255 84.3281 187.875Z" fill="white"/>
<path d="M82.8802 187.474C83.1875 188.177 82.1875 188.74 83.0417 189.255C83.3125 189.026 83.6406 188.714 83.7812 188.583C84.5104 188.802 85.3542 188.927 85.8646 189.651C86.4114 191.146 84.8958 191.109 84.0417 191.526L83.1875 191.49C83.3906 191.073 82.8229 190.896 82.6823 190.604C82.2864 190.51 81.9635 190.63 81.7448 190.964C81.9323 191.911 83.0937 192.651 81.8958 193.495C80.8854 193.427 79.3177 193.823 79.4114 192.422C79.0312 191.635 80.4375 190.417 78.9323 190.365C78.4375 191.432 77.8906 192.458 76.5989 191.448L76.7604 189.932C77.9948 189.969 79.4583 190.182 80.0156 188.797C80.3698 187.797 79.3958 186.87 80.2656 186.073C81.5312 185.786 82.2396 186.63 82.8854 187.469" fill="#F9D90F"/>
<path d="M81.9739 189.755C82.2969 190.505 81.4375 190.557 81.0312 190.932C80.4896 190.974 80.1094 190.76 79.776 190.391C79.5312 189.479 80.2135 189.385 80.7344 189.026C81.3385 188.776 81.5885 189.479 81.9739 189.755Z" fill="black"/>
<path d="M81.2344 190.245C81.0989 190.422 80.9114 190.365 80.7083 190.417L80.5208 189.505C80.9219 189.542 81.4479 189.667 81.2344 190.245Z" fill="white"/>
</g>
</g>
<defs>
<clipPath id="clip0_765_12853">
<rect width="900" height="450" fill="white"/>
</clipPath>
</defs>
</svg>
