<svg width="900" height="450" viewBox="0 0 900 450" fill="none" xmlns="http://www.w3.org/2000/svg">
<g clip-path="url(#clip0_765_12948)">
<path d="M900 0H0V450H900V0Z" fill="#1E1E1E"/>
<mask id="mask0_765_12948" style="mask-type:luminance" maskUnits="userSpaceOnUse" x="0" y="0" width="900" height="450">
<path d="M900 0H0V450H900V0Z" fill="white"/>
</mask>
<g mask="url(#mask0_765_12948)">
<mask id="mask1_765_12948" style="mask-type:luminance" maskUnits="userSpaceOnUse" x="0" y="0" width="900" height="450">
<path d="M0 0H900V449.333H0V0Z" fill="white"/>
</mask>
<g mask="url(#mask1_765_12948)">
<path d="M0 0H900V449.333H0V0Z" fill="white"/>
<path d="M0 0H900V449.333H0V0Z" fill="white"/>
</g>
<mask id="mask2_765_12948" style="mask-type:luminance" maskUnits="userSpaceOnUse" x="-1" y="0" width="902" height="151">
<path d="M-1 -3.37219e-06H901V150.667H-1V-3.37219e-06Z" fill="white"/>
</mask>
<g mask="url(#mask2_765_12948)">
<path d="M900.881 149.776H-0.714164V-3.37219e-06H900.881V149.776Z" fill="#ED1C24"/>
</g>
<mask id="mask3_765_12948" style="mask-type:luminance" maskUnits="userSpaceOnUse" x="-1" y="150" width="902" height="152">
<path d="M-1 150.667H901V301.333H-1V150.667Z" fill="white"/>
</mask>
<g mask="url(#mask3_765_12948)">
<path d="M900.881 300.891H-0.714164V151.109H900.881V300.891Z" fill="white"/>
</g>
<mask id="mask4_765_12948" style="mask-type:luminance" maskUnits="userSpaceOnUse" x="-1" y="301" width="902" height="151">
<path d="M-1 301.333H901V452H-1V301.333Z" fill="white"/>
</mask>
<g mask="url(#mask4_765_12948)">
<path d="M900.881 452H-0.714164V302.224H900.881V452Z" fill="black"/>
</g>
<path d="M328.516 174.422L340.974 212.807H381.312L348.682 236.526L361.146 274.911L328.516 251.188L295.88 274.911L308.344 236.526L275.714 212.807H316.047L328.516 174.422Z" fill="#006838"/>
<path d="M571.068 174.422L583.531 212.807H623.865L591.234 236.526L603.698 274.911L571.068 251.188L538.438 274.911L550.896 236.526L518.266 212.807H558.604L571.068 174.422Z" fill="#006838"/>
</g>
</g>
<defs>
<clipPath id="clip0_765_12948">
<rect width="900" height="450" fill="white"/>
</clipPath>
</defs>
</svg>
