<svg width="900" height="450" viewBox="0 0 900 450" fill="none" xmlns="http://www.w3.org/2000/svg">
<g clip-path="url(#clip0_765_13065)">
<path d="M900 0H0V450H900V0Z" fill="#1E1E1E"/>
<mask id="mask0_765_13065" style="mask-type:luminance" maskUnits="userSpaceOnUse" x="0" y="0" width="900" height="450">
<path d="M900 0H0V450H900V0Z" fill="white"/>
</mask>
<g mask="url(#mask0_765_13065)">
<mask id="mask1_765_13065" style="mask-type:luminance" maskUnits="userSpaceOnUse" x="0" y="0" width="900" height="450">
<path d="M0 0H900V449.333H0V0Z" fill="white"/>
</mask>
<g mask="url(#mask1_765_13065)">
<path d="M0 0H900V449.333H0V0Z" fill="white"/>
<path d="M0 0H900V449.333H0V0Z" fill="white"/>
</g>
<mask id="mask2_765_13065" style="mask-type:luminance" maskUnits="userSpaceOnUse" x="0" y="0" width="900" height="450">
<path d="M0 0H900V450H0V0Z" fill="white"/>
</mask>
<g mask="url(#mask2_765_13065)">
<path d="M0 0H900.018V450H0V0Z" fill="#4A5BB5"/>
</g>
<mask id="mask3_765_13065" style="mask-type:luminance" maskUnits="userSpaceOnUse" x="0" y="80" width="900" height="290">
<path d="M0 80H900V369.333H0V80Z" fill="white"/>
</mask>
<g mask="url(#mask3_765_13065)">
<path d="M0 80.2396H900.018V369.104H0V80.2396Z" fill="#F6D928"/>
</g>
<mask id="mask4_765_13065" style="mask-type:luminance" maskUnits="userSpaceOnUse" x="0" y="112" width="900" height="226">
<path d="M0 112H900V337.333H0V112Z" fill="white"/>
</mask>
<g mask="url(#mask4_765_13065)">
<path d="M0 112.406H900.018V336.849H0V112.406Z" fill="#A1001D"/>
</g>
<path fill-rule="evenodd" clip-rule="evenodd" d="M185.12 219.833H721.021C721.651 219.844 722.255 219.969 722.833 220.219C723.417 220.464 723.927 220.813 724.37 221.26C724.813 221.708 725.151 222.224 725.391 222.807C725.63 223.391 725.75 224 725.75 224.63C725.75 225.26 725.63 225.865 725.391 226.448C725.151 227.031 724.813 227.547 724.37 227.995C723.927 228.443 723.417 228.792 722.833 229.036C722.255 229.286 721.651 229.411 721.021 229.422H185.12C184.49 229.411 183.885 229.286 183.302 229.036C182.724 228.792 182.214 228.443 181.771 227.995C181.328 227.547 180.984 227.031 180.745 226.448C180.505 225.865 180.391 225.26 180.391 224.63C180.391 224 180.505 223.391 180.745 222.807C180.984 222.224 181.328 221.708 181.771 221.26C182.214 220.813 182.724 220.464 183.302 220.219C183.885 219.969 184.49 219.844 185.12 219.833Z" fill="#F6D928"/>
<path d="M721.021 230.052H185.12C184.406 230.042 183.729 229.896 183.073 229.615C182.422 229.333 181.844 228.938 181.344 228.432C180.849 227.927 180.464 227.344 180.193 226.682C179.922 226.026 179.792 225.344 179.792 224.63C179.792 223.922 179.922 223.234 180.193 222.578C180.464 221.922 180.849 221.339 181.344 220.828C181.844 220.323 182.422 219.927 183.073 219.651C183.729 219.37 184.406 219.224 185.12 219.208H721.021C721.375 219.208 721.729 219.245 722.078 219.313C722.427 219.385 722.766 219.484 723.094 219.625C723.422 219.76 723.734 219.927 724.031 220.125C724.328 220.323 724.604 220.547 724.854 220.797C725.104 221.052 725.328 221.323 725.526 221.62C725.724 221.917 725.891 222.229 726.031 222.557C726.167 222.885 726.266 223.224 726.339 223.573C726.406 223.922 726.443 224.276 726.443 224.63C726.443 224.99 726.406 225.339 726.339 225.688C726.266 226.036 726.167 226.375 726.031 226.703C725.891 227.036 725.724 227.349 725.526 227.641C725.328 227.938 725.104 228.214 724.854 228.464C724.604 228.714 724.328 228.943 724.031 229.141C723.734 229.339 723.422 229.505 723.094 229.641C722.766 229.776 722.427 229.88 722.078 229.948C721.729 230.016 721.375 230.052 721.021 230.052ZM185.12 220.464C184.573 220.464 184.052 220.573 183.547 220.781C183.047 220.99 182.604 221.292 182.219 221.677C181.833 222.063 181.536 222.505 181.333 223.01C181.125 223.516 181.021 224.036 181.021 224.583C181.01 225.141 181.104 225.677 181.307 226.193C181.51 226.714 181.802 227.172 182.187 227.578C182.568 227.979 183.016 228.292 183.526 228.521C184.031 228.745 184.562 228.865 185.12 228.885H721.021C721.578 228.87 722.109 228.745 722.62 228.521C723.13 228.297 723.578 227.979 723.964 227.578C724.349 227.177 724.646 226.719 724.849 226.198C725.052 225.677 725.151 225.141 725.141 224.583C725.141 224.036 725.036 223.51 724.823 223.01C724.615 222.505 724.318 222.063 723.932 221.672C723.542 221.286 723.099 220.99 722.594 220.781C722.089 220.568 721.568 220.464 721.021 220.464H185.12Z" fill="black"/>
<path fill-rule="evenodd" clip-rule="evenodd" d="M666.604 173.422L639.359 183.01L666.604 192.505L693.911 183.01L666.604 173.422Z" fill="white"/>
<path d="M666.604 193.224L637.771 183.01L666.422 172.802L695.505 183.01L666.604 193.224ZM640.974 183.01L666.604 192.062L692.297 183.01L666.422 173.87L640.969 183.01H640.974Z" fill="black"/>
<path fill-rule="evenodd" clip-rule="evenodd" d="M254.635 179.698H648.724C649.172 179.693 649.599 179.771 650.016 179.932C650.432 180.099 650.802 180.339 651.125 180.646C651.448 180.958 651.703 181.318 651.88 181.724C652.063 182.135 652.161 182.563 652.172 183.01C652.146 183.448 652.042 183.859 651.854 184.255C651.667 184.646 651.411 184.99 651.089 185.286C650.766 185.578 650.401 185.797 649.99 185.948C649.578 186.099 649.156 186.161 648.724 186.146H254.635C254.198 186.161 253.771 186.099 253.359 185.948C252.948 185.802 252.583 185.578 252.26 185.286C251.932 184.995 251.677 184.651 251.484 184.255C251.297 183.865 251.187 183.448 251.161 183.01C251.177 182.563 251.276 182.135 251.458 181.724C251.641 181.313 251.896 180.953 252.219 180.646C252.547 180.333 252.917 180.099 253.333 179.932C253.75 179.771 254.187 179.693 254.635 179.698Z" fill="#F6D928"/>
<path d="M648.724 186.682H254.635C254.109 186.724 253.599 186.656 253.099 186.484C252.604 186.313 252.161 186.047 251.776 185.693C251.391 185.333 251.094 184.917 250.88 184.432C250.672 183.953 250.562 183.448 250.562 182.922C250.562 182.396 250.672 181.891 250.88 181.406C251.094 180.927 251.391 180.505 251.776 180.151C252.161 179.792 252.604 179.526 253.099 179.354C253.599 179.182 254.109 179.12 254.635 179.156H648.724C649.245 179.12 649.755 179.187 650.25 179.365C650.74 179.536 651.182 179.802 651.563 180.156C651.948 180.516 652.245 180.932 652.453 181.417C652.661 181.896 652.771 182.396 652.771 182.922C652.771 183.443 652.661 183.948 652.453 184.427C652.245 184.906 651.948 185.328 651.563 185.682C651.182 186.042 650.74 186.307 650.25 186.479C649.755 186.651 649.245 186.719 648.724 186.682ZM254.635 180.323C254.266 180.281 253.901 180.313 253.547 180.427C253.188 180.542 252.875 180.719 252.594 180.969C252.318 181.219 252.104 181.51 251.948 181.849C251.797 182.193 251.719 182.547 251.719 182.922C251.719 183.292 251.797 183.651 251.948 183.99C252.104 184.328 252.318 184.625 252.594 184.87C252.875 185.12 253.188 185.302 253.547 185.411C253.901 185.526 254.266 185.563 254.635 185.521H648.724C649.089 185.552 649.443 185.51 649.792 185.396C650.141 185.281 650.453 185.099 650.724 184.849C650.995 184.604 651.208 184.312 651.354 183.974C651.505 183.641 651.578 183.286 651.578 182.922C651.578 182.552 651.505 182.203 651.354 181.865C651.208 181.531 650.995 181.24 650.724 180.99C650.453 180.745 650.141 180.563 649.792 180.443C649.443 180.328 649.089 180.286 648.724 180.323H254.635Z" fill="black"/>
<path d="M636.156 186.682V185.521C636.5 185.521 636.833 185.458 637.151 185.323C637.469 185.193 637.75 185.005 637.995 184.76C638.24 184.521 638.427 184.24 638.557 183.917C638.693 183.599 638.755 183.271 638.755 182.922C638.755 182.578 638.693 182.25 638.557 181.932C638.427 181.609 638.24 181.328 637.995 181.089C637.75 180.844 637.469 180.656 637.151 180.521C636.833 180.391 636.5 180.328 636.156 180.328V179.161C636.656 179.161 637.135 179.255 637.599 179.448C638.057 179.641 638.464 179.911 638.818 180.26C639.172 180.615 639.443 181.021 639.635 181.484C639.823 181.943 639.922 182.422 639.922 182.922C639.922 183.422 639.823 183.901 639.635 184.365C639.443 184.823 639.172 185.229 638.818 185.583C638.464 185.937 638.057 186.208 637.599 186.396C637.135 186.589 636.656 186.682 636.156 186.682ZM642.568 186.682V185.521C642.917 185.531 643.255 185.474 643.578 185.344C643.906 185.214 644.193 185.031 644.443 184.786C644.693 184.542 644.891 184.255 645.026 183.932C645.161 183.609 645.229 183.276 645.229 182.922C645.229 182.573 645.161 182.24 645.026 181.917C644.891 181.594 644.693 181.307 644.443 181.062C644.193 180.818 643.906 180.635 643.578 180.505C643.255 180.375 642.917 180.318 642.568 180.328V179.161C643.063 179.161 643.547 179.255 644.005 179.448C644.469 179.641 644.875 179.911 645.224 180.26C645.578 180.615 645.849 181.021 646.042 181.484C646.234 181.943 646.328 182.422 646.328 182.922C646.328 183.422 646.234 183.901 646.042 184.365C645.849 184.823 645.578 185.229 645.224 185.583C644.875 185.937 644.469 186.208 644.005 186.396C643.547 186.589 643.063 186.682 642.568 186.682ZM639.359 186.682V185.521C639.703 185.521 640.036 185.458 640.354 185.323C640.672 185.193 640.953 185.005 641.198 184.76C641.443 184.521 641.63 184.24 641.76 183.917C641.896 183.599 641.958 183.271 641.958 182.922C641.958 182.578 641.896 182.25 641.76 181.932C641.63 181.609 641.443 181.328 641.198 181.089C640.953 180.844 640.672 180.656 640.354 180.521C640.036 180.391 639.703 180.328 639.359 180.328V179.161C639.859 179.161 640.339 179.255 640.802 179.448C641.26 179.641 641.667 179.911 642.021 180.26C642.375 180.615 642.646 181.021 642.839 181.484C643.026 181.943 643.125 182.422 643.125 182.922C643.125 183.422 643.026 183.901 642.839 184.365C642.646 184.823 642.375 185.229 642.021 185.583C641.667 185.937 641.26 186.208 640.802 186.396C640.339 186.589 639.859 186.682 639.359 186.682Z" fill="black"/>
<path fill-rule="evenodd" clip-rule="evenodd" d="M640.974 192.505L613.667 202.271L640.974 211.859L668.26 202.271L640.974 192.505Z" fill="white"/>
<path d="M640.974 212.396L612.073 202.271L640.818 192.146L669.781 202.271L640.974 212.396ZM615.276 202.182L640.974 211.234L666.604 202.271L640.818 193.135L615.276 202.182Z" fill="black"/>
<path fill-rule="evenodd" clip-rule="evenodd" d="M228.99 199.047H623.052C623.5 199.021 623.932 199.078 624.354 199.229C624.776 199.38 625.151 199.609 625.474 199.917C625.802 200.219 626.057 200.578 626.234 200.99C626.411 201.396 626.505 201.823 626.505 202.271C626.505 203.974 625.026 205.318 623.052 205.318H228.99C228.542 205.365 228.109 205.318 227.688 205.177C227.266 205.042 226.885 204.823 226.557 204.521C226.224 204.224 225.969 203.87 225.786 203.464C225.609 203.057 225.516 202.63 225.516 202.182C225.516 201.74 225.609 201.312 225.786 200.906C225.969 200.495 226.224 200.146 226.557 199.844C226.885 199.547 227.266 199.328 227.688 199.187C228.109 199.052 228.542 199.005 228.99 199.047Z" fill="#F6D928"/>
<path d="M623.052 205.943H228.99C228.464 205.984 227.953 205.917 227.464 205.74C226.969 205.568 226.526 205.302 226.146 204.948C225.76 204.589 225.464 204.172 225.255 203.688C225.047 203.208 224.943 202.708 224.943 202.182C224.943 201.661 225.047 201.156 225.255 200.677C225.464 200.198 225.76 199.776 226.146 199.422C226.526 199.063 226.969 198.797 227.464 198.625C227.953 198.453 228.464 198.385 228.99 198.422H623.052C623.578 198.385 624.083 198.453 624.578 198.625C625.073 198.797 625.516 199.063 625.896 199.422C626.281 199.776 626.578 200.198 626.786 200.677C626.995 201.156 627.099 201.661 627.099 202.182C627.099 202.708 626.995 203.208 626.786 203.688C626.578 204.172 626.281 204.589 625.896 204.948C625.516 205.302 625.073 205.568 624.578 205.74C624.083 205.917 623.578 205.984 623.052 205.943ZM228.99 199.495C228.609 199.479 228.24 199.536 227.885 199.672C227.531 199.802 227.219 200 226.948 200.266C226.672 200.526 226.464 200.833 226.312 201.182C226.167 201.531 226.094 201.896 226.099 202.276C226.12 202.63 226.214 202.974 226.37 203.297C226.531 203.62 226.745 203.896 227.016 204.13C227.292 204.37 227.594 204.542 227.937 204.656C228.276 204.766 228.63 204.813 228.99 204.781H623.052C623.411 204.813 623.766 204.771 624.109 204.656C624.448 204.542 624.76 204.37 625.031 204.135C625.302 203.896 625.521 203.62 625.682 203.297C625.844 202.974 625.938 202.635 625.964 202.276C625.953 201.896 625.87 201.536 625.719 201.193C625.563 200.849 625.354 200.547 625.078 200.286C624.807 200.026 624.495 199.828 624.146 199.693C623.797 199.557 623.432 199.49 623.052 199.495H228.99Z" fill="black"/>
<path d="M616.87 205.943V204.781C617.208 204.766 617.531 204.693 617.844 204.563C618.156 204.438 618.432 204.255 618.682 204.026C618.927 203.792 619.125 203.526 619.276 203.224C619.427 202.927 619.521 202.604 619.557 202.271C619.531 201.917 619.448 201.578 619.307 201.255C619.161 200.932 618.969 200.646 618.724 200.391C618.474 200.135 618.193 199.932 617.875 199.776C617.557 199.625 617.224 199.526 616.87 199.495V198.417C617.37 198.417 617.854 198.51 618.312 198.698C618.776 198.891 619.187 199.161 619.542 199.516C619.896 199.87 620.167 200.276 620.359 200.74C620.552 201.198 620.646 201.682 620.646 202.182C620.646 202.682 620.552 203.161 620.359 203.625C620.167 204.083 619.896 204.495 619.542 204.844C619.187 205.198 618.776 205.469 618.312 205.661C617.854 205.849 617.37 205.943 616.87 205.943ZM613.667 205.943V204.781C614 204.766 614.323 204.693 614.635 204.563C614.943 204.432 615.219 204.255 615.464 204.021C615.708 203.792 615.906 203.526 616.057 203.224C616.203 202.922 616.297 202.604 616.333 202.271C616.307 201.917 616.229 201.583 616.089 201.26C615.943 200.938 615.75 200.646 615.505 200.391C615.266 200.141 614.984 199.932 614.667 199.781C614.349 199.625 614.016 199.531 613.667 199.495V198.417C614.167 198.417 614.646 198.51 615.109 198.698C615.573 198.891 615.979 199.161 616.333 199.516C616.687 199.87 616.964 200.276 617.156 200.74C617.344 201.198 617.443 201.682 617.443 202.182C617.443 202.682 617.344 203.161 617.156 203.625C616.964 204.083 616.687 204.495 616.333 204.844C615.979 205.198 615.573 205.469 615.109 205.661C614.646 205.849 614.167 205.943 613.667 205.943ZM610.505 205.943V204.781C610.839 204.76 611.156 204.682 611.464 204.547C611.766 204.417 612.042 204.234 612.281 204.005C612.521 203.776 612.719 203.51 612.87 203.214C613.016 202.917 613.109 202.599 613.151 202.271C613.12 201.922 613.036 201.589 612.896 201.271C612.755 200.953 612.562 200.667 612.323 200.411C612.083 200.156 611.807 199.953 611.495 199.797C611.182 199.635 610.854 199.536 610.505 199.495V198.417C611.005 198.422 611.484 198.516 611.943 198.708C612.401 198.901 612.807 199.172 613.156 199.526C613.51 199.88 613.781 200.286 613.969 200.745C614.156 201.203 614.255 201.682 614.255 202.182C614.255 202.677 614.156 203.156 613.969 203.615C613.781 204.078 613.51 204.484 613.156 204.833C612.807 205.188 612.401 205.458 611.943 205.651C611.484 205.844 611.005 205.943 610.505 205.943Z" fill="black"/>
<path fill-rule="evenodd" clip-rule="evenodd" d="M687.396 220.818C682.51 229.24 691.156 218.042 712.078 232.109C715.958 234.708 719.318 241.604 719.318 246.536C718.396 245.729 717.615 244.297 716.583 243.401C715.036 244.833 717.995 251.911 718.49 255.135C715.172 253.432 715.484 252.448 714.411 250.12C714.615 252.984 713.828 260.422 715.172 263.38C712.552 262.573 712.708 260.422 711.411 260.063C712.307 263.38 710.583 266.964 711.052 270.635C709.818 269.464 708.526 268.359 707.177 267.323C707.109 269.115 704.313 273.682 704.219 275.38C703.229 274.672 702.625 273.714 702.406 272.516C700.813 274.49 695.167 281.922 694.833 284.161C690.464 280.313 679.286 270.901 677.828 265.974C676.531 268.844 674.672 269.646 671.042 271.797C669.542 263.911 664.141 255.047 667.01 248.323C664.979 249.516 663.052 250.859 661.229 252.354C663.177 240.797 673.125 227.448 687.396 220.818Z" fill="#485BA3"/>
<path d="M695.12 284.974L693.375 283.536C688.286 279.057 678.813 270.813 677.401 266.156C676.911 269.021 674.984 270.01 671.536 271.979L671.042 272.25L670.594 271.979C670.021 269.307 669.281 266.677 668.375 264.094C666.516 258.63 664.589 252.896 666.604 248.146C665.135 249.849 663.453 251.313 661.562 252.536C662.974 239.635 673.797 226.734 687.219 220.464C687.349 221.714 686.344 223.505 686.526 223.865C686.547 223.865 686.635 224.047 687.599 224.047L689.974 223.953C692.641 223.953 700.661 223.953 712.333 231.75C716.255 234.349 719.792 241.427 719.792 246.536C718.813 246.427 718.073 245.948 717.573 245.099C717.172 244.563 716.745 244.203 716.297 243.667C716.031 244.474 717.083 248.234 717.818 250.833C718.292 252.448 718.693 254.057 718.875 255.047C716.031 254.24 715.333 253.432 714.844 252.359C714.865 252.719 714.844 253.344 714.844 253.88C714.755 256.927 714.62 261.229 715.536 263.203C714.859 263.297 714.214 263.188 713.609 262.875C713 262.563 712.536 262.104 712.219 261.5C711.885 260.964 711.682 260.51 711.302 260.427C712.307 261.766 711.995 263.74 711.75 265.62C711.432 267.25 711.333 268.891 711.458 270.547C710.141 269.979 708.906 269.26 707.76 268.401L706.932 267.594C707.557 268.401 706.844 269.833 706.104 271.536C705.432 273.151 704.693 274.583 704.646 275.391C703.974 275.24 703.401 274.922 702.917 274.438C702.432 273.953 702.12 273.37 701.979 272.703C700.432 275.656 695.573 282.38 695.214 284.349L695.125 284.979L695.12 284.974ZM677.448 265.797C679.531 270.276 689.208 278.88 693.953 282.818L694.583 283.448C695.818 280.042 701.974 272.339 702.063 272.25C703.026 273.146 703.297 274.313 704.438 274.938C703.88 274.396 704.552 272.875 705.313 271.172C706.005 269.651 706.724 268.13 706.771 267.323L708.297 267.682C709.172 268.396 710.245 269.292 711.344 270.281C710.422 268.938 710.625 267.234 710.87 265.531C711.313 263.776 711.359 262.016 711.005 260.245C711.188 260.156 711.38 260.115 711.578 260.109C711.781 260.104 711.974 260.135 712.161 260.214C712.344 260.292 712.505 260.401 712.646 260.547C712.786 260.693 712.885 260.859 712.953 261.047C713.464 261.979 714.229 262.609 715.24 262.932C713.828 261.5 713.917 257.198 714.01 253.88C714.031 252.359 714.078 251.104 714.01 250.208L715.333 251.286C715.917 252.63 716.208 253.432 718.672 254.781C717.911 254.151 717.505 252.63 716.99 251.104C716.026 247.615 715.089 244.297 716.25 243.047C717.052 243.375 717.719 243.885 718.25 244.568C718.651 245.125 719.104 245.63 719.615 246.089C718.943 241.609 715.583 234.979 711.844 232.469C700.417 224.677 692.552 224.677 689.979 224.677L687.604 224.766C686.818 224.766 686.099 224.677 685.807 224.229C685.427 223.599 685.807 222.797 687.021 220.646C674.385 227.365 663.766 240.089 661.615 252.359C663.057 250.552 664.786 249.089 666.813 247.969C665.516 252.901 667.396 258.453 669.141 263.917C670.094 266.495 670.87 269.125 671.469 271.802C674.542 269.385 676.286 268.49 677.453 265.802L677.448 265.797Z" fill="black"/>
<path fill-rule="evenodd" clip-rule="evenodd" d="M669.25 262.573C671.286 258.448 673.167 257.198 674.401 254.599C676.729 250.031 677.068 246.443 679.057 246.891C681.141 247.521 681.099 249.313 678.521 253.88C675.901 258.359 674.667 259.25 669.245 262.568L669.25 262.573Z" fill="#980015"/>
<path fill-rule="evenodd" clip-rule="evenodd" d="M682.891 272.068C682.641 269.115 683.563 267.771 683.406 265.797C683.094 262.302 681.677 259.885 683.563 259.703C685.375 259.526 686.271 260.693 686.271 264.276C686.271 267.771 685.714 268.667 682.891 272.068Z" fill="#980015"/>
<path fill-rule="evenodd" clip-rule="evenodd" d="M693.286 278.161C692.458 273.948 693.083 271.979 692.547 269.292C691.625 264.365 689.88 261.135 691.583 260.599C693.286 260.245 694.339 261.766 694.984 266.693C695.661 271.714 695.276 273.057 693.286 278.161Z" fill="#980015"/>
<path fill-rule="evenodd" clip-rule="evenodd" d="M704.062 248.057C701.531 246.177 700.031 245.995 698.417 244.74C695.552 242.682 694.073 240.26 693.177 241.516C692.214 242.594 692.885 243.937 695.911 245.818C698.911 247.875 699.943 248.057 704.062 248.057Z" fill="#980015"/>
<path fill-rule="evenodd" clip-rule="evenodd" d="M702.271 262.391C700.948 259.526 699.536 258.901 698.687 257.016C697.161 253.974 697.161 251.193 695.505 252C693.823 252.63 693.714 254.063 695.458 257.016C697.203 260.068 698.146 260.604 702.271 262.391Z" fill="#980015"/>
<path fill-rule="evenodd" clip-rule="evenodd" d="M203.896 228.979C203.672 226.557 204.208 226.198 202.687 224.318C204.859 225.302 204.948 227.724 207.661 225.932C208.578 225.479 209.026 225.479 207.839 222.708C210.615 222.885 219.755 225.932 221.187 226.021C225.021 226.198 232.01 222.078 236.87 227.188C241.531 231.844 240.005 236.859 240.005 243.307C238.104 242.411 239 241.964 237.052 239.635C238.531 245.37 236.958 255.583 236.958 261.677C236.198 260.245 236.286 260.781 235.573 259.344C233.578 264.901 231.161 265.979 231.161 272.516C230.464 269.917 231.161 270.547 230.328 269.203C228.427 273.323 215.479 276.906 220.427 281.208C215.948 278.521 213.979 278.88 211.937 276.458C210.891 277.286 210.083 278.302 209.516 279.505C201.609 275.833 204.453 268.036 198.224 262.75C197.172 264.99 197.646 264.635 196.458 268.307C195.25 263.292 194.891 260.063 193.5 256.484C192.271 258.453 192.339 257.734 190.167 260.693C189.224 254.693 187.719 253.349 188.328 249.313C186.021 250.927 187.521 250.214 185.167 252.359C187.411 236.771 197.042 225.302 203.896 228.974V228.979Z" fill="#485BA3"/>
<path d="M220.156 281.656C218.76 280.786 217.292 280.068 215.745 279.505C214.047 279 212.62 278.073 211.464 276.729C211.464 277.359 210.839 278.432 210.052 279.776C204.698 277.896 203.51 274.401 202.411 270.906C201.453 268.307 200.51 265.443 197.844 263.203C198.125 263.911 198.141 264.63 197.891 265.354C197.672 266.417 197.385 267.458 197.036 268.49L196.365 270.281L195.937 268.49C195.49 266.604 195.156 265.083 194.885 263.828C194.479 261.766 193.958 259.74 193.318 257.734C193.109 258.057 192.87 258.359 192.599 258.635C191.859 259.401 191.203 260.24 190.63 261.141L189.802 262.307L189.599 260.781C189.297 258.969 188.885 257.177 188.365 255.406C187.854 253.807 187.609 252.161 187.625 250.479C187.453 250.641 187.302 250.818 187.182 251.021C186.714 251.661 186.167 252.229 185.547 252.719L184.401 253.797L184.604 252.271C186.687 237.578 195.984 225.479 203.307 228.083C203.271 227.844 203.26 227.604 203.266 227.365C203.344 226.307 203 225.411 202.234 224.677L200.755 222.979L202.885 223.87C203.63 224.161 204.266 224.609 204.786 225.214C205.708 226.115 206.135 226.203 207.323 225.484C208.083 225.036 208.219 224.948 207.323 222.979L206.937 222.172H207.833C209.562 222.26 213.234 223.333 216.505 224.234C218.562 224.771 220.693 225.484 221.234 225.484C222.13 225.396 223.719 225.125 225.062 224.859C229.141 223.964 234.292 223.604 237.297 226.828C241.146 230.682 240.927 234.714 240.672 239.464C240.583 240.719 240.562 241.969 240.562 243.318V244.214L239.708 243.854C238.969 243.552 238.411 243.047 238.052 242.328C238.437 246.094 238.099 250.661 237.854 254.875C237.672 257.38 237.536 259.708 237.536 261.682V264.01L236.437 261.953C236.24 261.578 236.016 261.219 235.766 260.875C235.724 260.786 235.698 260.698 235.656 260.609C235.161 261.839 234.594 263.031 233.953 264.193C232.432 266.76 231.698 269.536 231.755 272.526V276.646L230.615 272.703C230.38 271.974 230.245 271.229 230.214 270.464V270.375C228.745 271.969 227.057 273.286 225.151 274.318C222.615 275.927 219.995 277.63 219.906 279.068C219.859 279.604 220.151 280.052 220.802 280.677L220.151 281.667L220.156 281.656ZM211.599 275.922C212.979 277.031 214.51 277.865 216.193 278.427C216.932 278.792 217.781 279.146 218.812 279.594C218.75 279.391 218.734 279.182 218.766 278.969C218.88 276.906 221.615 275.208 224.526 273.323C226.766 271.891 229.141 270.37 229.859 268.932L230.307 267.948L230.865 268.844C230.865 268.932 230.865 268.932 230.911 268.932C231.276 267.042 231.969 265.281 232.995 263.646C233.75 262.193 234.422 260.698 235.01 259.167L235.437 257.911L236.062 259.167C236.198 259.344 236.312 259.526 236.448 259.703C236.469 258.271 236.557 256.568 236.672 254.776C237.057 249.49 237.458 243.667 236.469 239.724L235.865 237.307L237.458 239.276C238.094 239.964 238.594 240.74 238.958 241.609C239.078 241.844 239.234 242.052 239.427 242.234C239.427 241.245 239.495 240.266 239.536 239.365C239.786 234.797 239.964 231.125 236.469 227.63C233.781 224.672 229.141 225.031 225.312 225.927C224.042 226.318 222.74 226.557 221.411 226.641C220.516 226.641 218.839 226.104 216.24 225.391C213.661 224.583 210.568 223.776 208.755 223.417C209.427 225.208 209.224 225.75 208.036 226.375C206.135 227.63 205.172 227.094 204.318 226.375C204.401 226.698 204.427 227.026 204.411 227.359C204.411 227.807 204.453 228.255 204.474 228.974L204.609 229.958L203.667 229.333C197.932 226.375 188.729 235.693 186.036 250.656C186.089 250.526 186.156 250.406 186.24 250.297C186.729 249.703 187.307 249.224 187.984 248.865L189.109 247.969L188.885 249.313C188.63 251.302 188.839 253.245 189.51 255.135C189.802 256.208 190.161 257.646 190.495 259.349C191.125 258.542 191.437 258.182 191.75 257.823C192.219 257.297 192.625 256.729 192.979 256.12L193.609 255.135L194.01 256.208C194.859 258.578 195.516 260.995 195.984 263.469C196.182 264.276 196.339 265.078 196.542 266.068C196.604 265.734 196.687 265.401 196.786 265.078C196.984 264.198 197.297 263.365 197.729 262.573C201.542 264.813 202.521 267.771 203.464 270.63C204.562 274.036 205.641 277.083 209.802 278.964C209.943 277.682 210.542 276.667 211.594 275.922H211.599Z" fill="black"/>
<path fill-rule="evenodd" clip-rule="evenodd" d="M194.172 254.328C196.208 249.312 198.068 247.698 199.37 244.385C201.698 238.828 202.078 234.26 204.031 234.974C206 235.693 205.953 238.021 203.359 243.667C200.714 249.224 199.547 250.297 194.172 254.328Z" fill="#980015"/>
<path fill-rule="evenodd" clip-rule="evenodd" d="M201.901 266.781C202.729 262.391 204.031 260.599 204.568 257.823C205.505 252.714 204.953 248.953 206.786 249.13C208.62 249.313 209.026 251.193 207.792 256.302C206.604 261.318 205.755 262.573 201.901 266.781Z" fill="#980015"/>
<path fill-rule="evenodd" clip-rule="evenodd" d="M211.151 275.474C211.396 271.172 212.432 269.469 212.562 266.693C212.833 261.677 211.891 258.182 213.615 258.182C215.365 258.182 215.99 259.974 215.453 264.901C214.917 269.74 214.266 270.995 211.156 275.474H211.151Z" fill="#980015"/>
<path fill-rule="evenodd" clip-rule="evenodd" d="M231.047 247.073C227.193 243.313 224.953 242.589 222.49 240.089C218.141 235.875 216.104 231.844 214.557 233.365C212.99 234.708 213.932 236.859 218.479 240.891C222.979 244.922 224.573 245.547 231.047 247.073Z" fill="#980015"/>
<path fill-rule="evenodd" clip-rule="evenodd" d="M228.714 261.677C226.25 257.917 224.417 256.927 222.802 254.422C220 250.12 219.042 246.536 217.474 247.432C215.813 248.328 216.24 250.208 219.24 254.422C222.286 258.542 223.521 259.344 228.714 261.677Z" fill="#980015"/>
<path fill-rule="evenodd" clip-rule="evenodd" d="M610.505 224.583C578.448 256.745 535.635 320.813 450.099 320.813C375.234 320.813 321.776 256.745 289.651 224.583C321.776 192.51 375.234 128.448 450.104 128.448C535.635 128.448 578.448 192.505 610.51 224.583H610.505Z" fill="white"/>
<path d="M450.104 321.438C382.802 321.438 332.979 269.922 300.005 235.964C296.193 232.021 292.651 228.344 289.271 224.943C292.651 221 296.151 217.328 299.911 213.385C332.938 179.339 382.76 127.906 450.104 127.906C522.667 127.906 564.557 173.87 595.161 207.469C600.74 213.651 605.891 219.292 610.865 224.224C605.891 229.958 600.693 235.693 595.073 241.875C564.51 275.474 522.62 321.438 450.099 321.438H450.104ZM450.104 128.896C383.208 128.896 333.542 180.234 300.719 214.188C296.932 218.042 293.37 221.714 290.057 224.938C293.797 228.161 297.37 231.563 300.766 235.146C333.583 269.198 383.25 320.354 450.099 320.354C522.104 320.354 563.839 274.484 594.286 241.063C599.885 234.969 605.13 229.24 610.083 224.219C605.177 220.005 599.932 214.276 594.333 208.271C563.885 174.76 522.151 128.885 450.099 128.885L450.104 128.896Z" fill="black"/>
<path fill-rule="evenodd" clip-rule="evenodd" d="M438.901 161.953C447.391 171.453 440.266 175.302 449.344 176.021C458.844 176.646 453.443 186.146 461.443 186.411C467.062 186.682 460.88 209.083 466.302 216.516C471.812 224.224 476.406 218.76 476.516 224.224C476.604 230.047 461.547 229.422 461.26 247.161C460.807 257.37 448.578 258.089 447.995 264.542C447.281 270.813 472.125 274.307 471.807 279.771C471.495 285.328 444.948 284.521 443.781 290.703C443.177 296.349 480.234 300.917 483.167 317.318C477.656 319.286 461.953 320.807 450.099 320.807C375.234 320.901 321.776 256.745 289.651 224.583C321.776 192.51 375.234 128.448 450.104 128.448C450.104 128.448 427.833 148.786 438.901 161.953Z" fill="black"/>
<path d="M349.578 190.448H357.307V216.073H349.578V190.448Z" fill="white"/>
<path d="M349.578 233.276H357.307V258.901H349.578V233.276Z" fill="white"/>
<path d="M365.083 190.448H372.901V216.073H365.083V190.448Z" fill="white"/>
<path d="M365.083 233.276H372.901V258.901H365.083V233.276Z" fill="white"/>
<path d="M380.677 190.448H388.448V216.073H380.677V190.448Z" fill="white"/>
<path d="M380.677 233.276H388.448V258.901H380.677V233.276Z" fill="white"/>
<path d="M396.224 190.448H403.974V216.073H396.224V190.448Z" fill="white"/>
<path d="M396.224 233.276H403.974V258.901H396.224V233.276Z" fill="white"/>
<path d="M411.745 190.448H419.521V216.073H411.745V190.448Z" fill="white"/>
<path d="M411.745 233.276H419.521V258.901H411.745V233.276Z" fill="white"/>
<path d="M427.339 190.448H435.089V216.073H427.339V190.448Z" fill="white"/>
<path d="M427.339 233.276H435.089V258.901H427.339V233.276Z" fill="white"/>
<path d="M467.172 190.448H474.969V216.073H467.172V190.448Z" fill="black"/>
<path d="M467.172 233.276H474.969V258.901H467.172V233.276Z" fill="black"/>
<path d="M482.745 190.448H490.495V216.073H482.745V190.448Z" fill="black"/>
<path d="M482.745 233.276H490.495V258.901H482.745V233.276Z" fill="black"/>
<path d="M498.312 190.448H506.089V216.073H498.312V190.448Z" fill="black"/>
<path d="M498.312 233.276H506.089V258.901H498.312V233.276Z" fill="black"/>
<path d="M513.818 190.448H521.635V216.073H513.818V190.448Z" fill="black"/>
<path d="M513.818 233.276H521.635V258.901H513.818V233.276Z" fill="black"/>
<path d="M529.406 190.448H537.156V216.073H529.406V190.448Z" fill="black"/>
<path d="M529.406 233.276H537.156V258.901H529.406V233.276Z" fill="black"/>
<path d="M544.958 190.448H552.75V216.073H544.958V190.448Z" fill="black"/>
<path d="M544.958 233.276H552.75V258.901H544.958V233.276Z" fill="black"/>
<path fill-rule="evenodd" clip-rule="evenodd" d="M398.219 145.469C393.734 154.068 405.948 142.604 425.125 157.026C428.708 159.714 433.818 170.286 433.818 175.125C429.719 174.229 422.479 170.286 422.479 170.286C422.479 170.286 430.948 178.797 430.948 188.656C427.943 186.682 426.464 186.953 425.458 184.625C425.458 187.849 428.125 189.823 428.125 194.656C426.286 193.26 424.349 192.005 422.323 190.896C425.125 195.734 417.172 205.141 421.182 208.37C414.167 207.385 407.021 202.995 404.177 198.063C402.719 199.141 402.495 200.661 402.474 202.365C402.719 202.542 391.875 194.302 392.859 191.078C391.385 193.229 391.182 194.302 390.865 196.63C386.833 192.693 383.203 188.75 381.906 183.641C380.135 185.974 380 185.974 378.255 188.302C376.911 180.24 376.911 180.505 379.573 173.604C377.714 174.844 375.937 176.188 374.245 177.641C376.057 165.901 385.13 152.281 398.214 145.474L398.219 145.469Z" fill="#485BA3"/>
<path d="M422.682 209.083L421.089 208.813C414.036 207.828 406.776 203.349 403.813 198.24C403.073 199.229 402.964 200.661 402.922 202.365C402.156 202.901 396.828 198.24 395.193 196.448C393.063 194.031 392.12 192.328 392.391 191.078C391.896 192.906 391.516 194.755 391.245 196.63C386.563 192.958 382.823 189.016 381.479 183.818C381.344 184.755 380.974 185.594 380.38 186.328L377.964 189.286L377.76 188.031C376.484 180.417 376.531 180.234 378.99 173.875C377.604 175.354 376.12 176.729 374.536 177.995C375.766 164.734 385.714 151.474 398.01 145.026C397.859 147.172 397.542 148.068 397.766 148.339C397.969 148.698 398.911 148.698 399.781 148.698H402.719C407.87 148.698 415.802 149.505 425.411 156.672C429.083 159.448 434.214 170.203 434.214 175.13C430.563 174.859 425.365 172.349 423.214 171.188C425.615 173.156 431.396 180.323 431.396 188.656C430.286 188.411 429.219 188.052 428.188 187.583C427.349 187.25 426.604 186.776 425.948 186.151C426.344 186.906 426.688 187.682 426.979 188.479C428.01 190.411 428.542 192.474 428.568 194.661C426.328 193.651 424.172 192.484 422.094 191.167C424.156 193.229 422.948 196.724 421.781 200.13C420.661 203.531 419.609 206.578 421.448 208.099L422.677 209.089L422.682 209.083ZM403.927 197.703C407.135 202.365 413.698 206.484 420.063 207.828C418.917 205.859 419.948 202.901 421 199.854C422.078 196.63 423.219 193.313 421.943 191.073C424.365 191.432 426.198 192.682 428.417 194.391C427.792 192.464 427.052 190.583 426.198 188.75C425.5 187.464 425.109 186.089 425.031 184.625C426.068 185.552 427.234 186.271 428.526 186.776C429.266 187.135 430.12 187.583 431.193 188.208C430.521 179.073 422.276 170.651 422.188 170.557C422.792 169.844 429.943 173.875 433.906 174.771C433.37 170.38 428.37 159.99 424.901 157.391C415.51 150.313 407.74 149.505 402.719 149.505H399.786C398.599 149.505 397.484 149.505 397.026 148.786C396.625 148.25 396.875 147.177 397.813 145.297C386.297 152.193 376.573 165.182 374.693 177.635C375.906 175.833 377.448 174.37 379.307 173.25L380.474 172.531L379.802 174.146C377.38 180.417 377.38 180.417 378.635 187.849L379.693 185.703C380.182 185.161 380.63 184.536 381.526 183.37C383.635 188.656 387.219 192.417 391.161 196.271C390.776 194.208 390.979 193.042 392.479 190.896C392.479 193.672 400.594 200.391 402.719 202.005C402.542 201.635 402.438 201.245 402.401 200.833C402.37 200.427 402.406 200.026 402.516 199.63C402.63 199.234 402.807 198.87 403.047 198.542C403.292 198.208 403.583 197.932 403.927 197.703Z" fill="black"/>
<path fill-rule="evenodd" clip-rule="evenodd" d="M387.219 187.49C387.953 181.578 389.5 179.339 389.953 175.484C390.781 168.854 389.792 163.833 392.214 164.016C394.589 164.104 395.214 166.703 394.094 173.422C392.906 179.964 391.922 181.667 387.219 187.49Z" fill="#980015"/>
<path fill-rule="evenodd" clip-rule="evenodd" d="M399.651 198.333C399.156 193.401 400.099 191.167 399.828 188.026C399.292 182.38 397.521 178.531 399.609 178.172C401.646 177.812 402.719 179.604 402.922 185.339C403.125 191.073 402.583 192.687 399.651 198.333Z" fill="#980015"/>
<path fill-rule="evenodd" clip-rule="evenodd" d="M419.026 207.203C416.901 202.813 415.109 201.557 413.719 198.87C411.365 193.938 410.828 189.911 409.016 190.625C407.135 191.344 407.224 193.401 409.937 198.24C412.604 202.99 413.812 203.974 419.031 207.203H419.026Z" fill="#980015"/>
<path fill-rule="evenodd" clip-rule="evenodd" d="M425.703 168.495C420.349 165.63 417.594 165.63 414.125 163.833C408.026 160.609 404.51 157.026 403.255 158.906C401.979 160.969 403.661 162.943 409.953 165.807C416.229 168.766 418.135 168.943 425.703 168.495Z" fill="#980015"/>
<path fill-rule="evenodd" clip-rule="evenodd" d="M427.656 184.625C423.802 181.396 421.448 180.859 418.917 178.891C414.505 175.125 412.286 171.542 410.828 173.068C409.354 174.5 410.313 176.38 414.974 179.786C419.661 183.37 421.25 183.813 427.656 184.62V184.625Z" fill="#980015"/>
</g>
</g>
<defs>
<clipPath id="clip0_765_13065">
<rect width="900" height="450" fill="white"/>
</clipPath>
</defs>
</svg>
