<svg width="900" height="450" viewBox="0 0 900 450" fill="none" xmlns="http://www.w3.org/2000/svg">
<g clip-path="url(#clip0_765_13236)">
<path d="M900 0H0V450H900V0Z" fill="#1E1E1E"/>
<mask id="mask0_765_13236" style="mask-type:luminance" maskUnits="userSpaceOnUse" x="0" y="0" width="900" height="450">
<path d="M900 0H0V450H900V0Z" fill="white"/>
</mask>
<g mask="url(#mask0_765_13236)">
<mask id="mask1_765_13236" style="mask-type:luminance" maskUnits="userSpaceOnUse" x="0" y="0" width="899" height="450">
<path d="M0 0H898.667V449.333H0V0Z" fill="white"/>
</mask>
<g mask="url(#mask1_765_13236)">
<path d="M0 0H898.667V449.333H0V0Z" fill="white"/>
<path d="M0 0H898.667V449.333H0V0Z" fill="white"/>
</g>
<mask id="mask2_765_13236" style="mask-type:luminance" maskUnits="userSpaceOnUse" x="0" y="0" width="477" height="364">
<path d="M0 0H476.667V364H0V0Z" fill="white"/>
</mask>
<g mask="url(#mask2_765_13236)">
<path d="M0 0H449.333C451.167 3.67708 452.911 7.39583 454.563 11.1562C456.219 14.9219 457.776 18.7187 459.245 22.5573C460.708 26.3958 462.078 30.2708 463.354 34.1771C464.63 38.0833 465.813 42.0156 466.896 45.9792C467.979 49.9427 468.964 53.9323 469.849 57.9427C470.734 61.9583 471.526 65.9896 472.214 70.0365C472.901 74.0885 473.495 78.1562 473.984 82.2344C474.474 86.3125 474.865 90.401 475.151 94.5C475.443 98.599 475.63 102.703 475.719 106.812C475.802 110.922 475.792 115.026 475.677 119.135C475.563 123.245 475.349 127.344 475.036 131.443C474.719 135.542 474.302 139.625 473.786 143.703C473.271 147.781 472.656 151.839 471.943 155.885C471.229 159.932 470.411 163.958 469.5 167.964C468.589 171.974 467.578 175.953 466.469 179.911C465.359 183.87 464.156 187.797 462.854 191.693C461.557 195.589 460.161 199.453 458.672 203.281C457.182 207.115 455.599 210.901 453.922 214.656C452.245 218.406 450.474 222.115 448.62 225.776C446.76 229.443 444.813 233.063 442.776 236.63C440.74 240.198 438.62 243.714 436.411 247.182C434.203 250.646 431.911 254.057 429.536 257.406C427.156 260.76 424.703 264.052 422.167 267.286C419.625 270.516 417.01 273.682 414.318 276.786C411.625 279.891 408.859 282.927 406.016 285.896C403.177 288.865 400.26 291.76 397.281 294.583C394.297 297.411 391.245 300.161 388.125 302.833C385.005 305.51 381.823 308.109 378.578 310.625C375.328 313.146 372.026 315.583 368.656 317.943C365.292 320.297 361.87 322.568 358.396 324.76C354.917 326.948 351.385 329.052 347.807 331.068C344.224 333.083 340.599 335.01 336.922 336.844C333.245 338.682 329.531 340.427 325.766 342.083C322.005 343.74 318.208 345.302 314.37 346.771C310.531 348.24 306.661 349.615 302.755 350.891C298.849 352.172 294.917 353.354 290.953 354.438C286.99 355.526 283.005 356.51 278.995 357.401C274.979 358.292 270.948 359.083 266.901 359.776C262.849 360.469 258.786 361.057 254.703 361.552C250.625 362.047 246.536 362.438 242.438 362.729C238.339 363.021 234.234 363.214 230.13 363.302C226.021 363.396 221.911 363.385 217.807 363.271C213.698 363.161 209.594 362.948 205.5 362.635C201.401 362.323 197.313 361.911 193.234 361.401C189.161 360.885 185.099 360.276 181.052 359.563C177.005 358.849 172.979 358.036 168.969 357.13C164.964 356.219 160.979 355.214 157.021 354.104C153.068 353 149.135 351.797 145.24 350.5C141.339 349.203 137.474 347.813 133.646 346.323C129.818 344.833 126.026 343.255 122.271 341.578C118.521 339.906 114.807 338.141 111.141 336.286C107.479 334.432 103.859 332.484 100.286 330.453C96.7188 328.417 93.1979 326.297 89.7344 324.094C86.2656 321.885 82.8542 319.599 79.5 317.224C76.1458 314.849 72.8542 312.396 69.6198 309.859C66.3854 307.328 63.2135 304.714 60.1094 302.021C57.0052 299.333 53.9688 296.568 50.9948 293.729C48.026 290.885 45.1302 287.979 42.3021 284.995C39.474 282.01 36.724 278.964 34.0469 275.844C31.3698 272.729 28.7656 269.547 26.2448 266.302C23.724 263.057 21.2865 259.755 18.9271 256.391C16.5677 253.026 14.2917 249.604 12.099 246.13C9.91146 242.656 7.80208 239.125 5.78646 235.547C3.77083 231.969 1.83854 228.339 0 224.667V0Z" fill="#012169"/>
</g>
<mask id="mask3_765_13236" style="mask-type:luminance" maskUnits="userSpaceOnUse" x="0" y="0" width="705" height="450">
<path d="M0 0H704.667V449.333H0V0Z" fill="white"/>
</mask>
<g mask="url(#mask3_765_13236)">
<path d="M0 0L449.333 224.667M0 224.667L449.333 0" stroke="white" stroke-width="44.9334"/>
</g>
<mask id="mask4_765_13236" style="mask-type:luminance" maskUnits="userSpaceOnUse" x="0" y="0" width="487" height="263">
<path d="M0 0H486.776V262.109H0V0Z" fill="white"/>
</mask>
<g mask="url(#mask4_765_13236)">
<mask id="mask5_765_13236" style="mask-type:luminance" maskUnits="userSpaceOnUse" x="0" y="0" width="487" height="263">
<path d="M0 0V112.333H486.776V224.667H449.333L0 0ZM449.333 0H224.667V262.109H0V224.667L449.333 0Z" fill="white"/>
</mask>
<g mask="url(#mask5_765_13236)">
<path d="M-0.00098002 -3.37219e-06L449.332 224.667M-0.00098002 224.667L449.332 -3.37219e-06" stroke="#CE1126" stroke-width="29.9556"/>
</g>
</g>
<mask id="mask6_765_13236" style="mask-type:luminance" maskUnits="userSpaceOnUse" x="0" y="0" width="525" height="300">
<path d="M0 0H524.667V300H0V0Z" fill="white"/>
</mask>
<g mask="url(#mask6_765_13236)">
<path d="M224.667 -37.4427V262.109M-37.4479 112.333H486.776" stroke="white" stroke-width="74.8891"/>
</g>
<mask id="mask7_765_13236" style="mask-type:luminance" maskUnits="userSpaceOnUse" x="0" y="0" width="510" height="286">
<path d="M0 0H510V285.333H0V0Z" fill="white"/>
</mask>
<g mask="url(#mask7_765_13236)">
<path d="M224.667 0V262.109M0 112.333H486.776" stroke="#CE1126" stroke-width="44.9334"/>
</g>
<mask id="mask8_765_13236" style="mask-type:luminance" maskUnits="userSpaceOnUse" x="0" y="0" width="900" height="450">
<path d="M0 0H900V450H0V0Z" fill="white"/>
</mask>
<g mask="url(#mask8_765_13236)">
<path d="M0 225H450V0H900V450H0" fill="#012169"/>
</g>
<path d="M753.302 131.057V198.458C753.302 243.391 730.833 291.786 674.667 318C618.5 291.786 596.031 243.391 596.031 198.458V131.057H753.302Z" fill="#FCD116" stroke="black" stroke-width="5.99113"/>
<path d="M753.302 131.057V198.458C753.302 243.391 730.833 291.786 674.667 318C618.5 291.786 596.031 243.391 596.031 198.458V131.057H753.302Z" stroke="white" stroke-width="5.24223"/>
<path d="M646.302 205.292C644.245 208.755 640.781 209.5 638.068 208.38C635.255 207.255 632.729 200.703 629.922 197.146C627.208 193.682 626.458 195.177 624.583 193.12C622.807 191.156 620 189.656 615.599 187.599C613.167 186.474 610.635 185.443 608.953 181.135C609.609 179.359 611.385 177.859 612.792 177.302C614.193 176.833 615.318 174.771 615.505 172.995C615.693 171.307 617.188 169.437 619.25 168.031C618.313 168.219 616.349 167.844 615.411 167.187C614.568 166.443 613.167 166.63 612.323 167.281C611.479 167.844 610.448 168.031 608.953 167.844C609.516 167.375 610.542 166.349 610.635 165.411C610.729 164.474 611.854 164.005 614.005 164.005C616.068 164.005 617.469 161.573 619.156 161.573C617.938 161.573 618.219 159.516 618.875 159.422C615.88 158.859 616.255 156.427 617.469 156.427C617.375 156.052 617 155.677 615.599 155.208C614.286 154.74 614.943 153.521 615.974 152.776C615.036 150.901 615.88 149.495 617.375 148.281C615.318 148.187 617.563 145.286 618.125 143.693C618.688 142.198 618.969 142.01 619.625 142.943C620.375 143.786 622.057 145.755 624.021 146.312C625.896 146.875 627.021 147.906 627.396 149.495C627.766 151.182 628.516 152.026 630.578 152.776C632.729 153.427 635.63 155.208 635.255 159.234C636.943 159.328 638.156 159.797 639.188 160.635" fill="#FCAD56"/>
<path d="M646.302 205.292C644.245 208.755 640.781 209.5 638.068 208.38C635.255 207.255 632.729 200.703 629.922 197.146C627.208 193.682 626.458 195.177 624.583 193.12C622.807 191.156 620 189.656 615.599 187.599C613.167 186.474 610.635 185.443 608.953 181.135C609.609 179.359 611.385 177.859 612.792 177.302C614.193 176.833 615.318 174.771 615.505 172.995C615.693 171.307 617.188 169.437 619.25 168.031C618.313 168.219 616.349 167.844 615.411 167.187C614.568 166.443 613.167 166.63 612.323 167.281C611.479 167.844 610.448 168.031 608.953 167.844C609.516 167.375 610.542 166.349 610.635 165.411C610.729 164.474 611.854 164.005 614.005 164.005C616.068 164.005 617.469 161.573 619.156 161.573C617.938 161.573 618.219 159.516 618.875 159.422C615.88 158.859 616.255 156.427 617.469 156.427C617.375 156.052 617 155.677 615.599 155.208C614.286 154.74 614.943 153.521 615.974 152.776C615.036 150.901 615.88 149.495 617.375 148.281C615.318 148.187 617.563 145.286 618.125 143.693C618.688 142.198 618.969 142.01 619.625 142.943C620.375 143.786 622.057 145.755 624.021 146.312C625.896 146.875 627.021 147.906 627.396 149.495C627.766 151.182 628.516 152.026 630.578 152.776C632.729 153.427 635.63 155.208 635.255 159.234C636.943 159.328 638.156 159.797 639.188 160.635" stroke="black" stroke-width="0.205945" stroke-linecap="round" stroke-linejoin="round"/>
<path d="M651.453 154.552C651.453 156.797 652.479 158.203 653.792 159.328C655.198 160.448 656.411 161.385 656.13 162.792C655.849 164.286 656.411 165.224 657.63 166.161C658.943 167.094 659.875 168.219 659.5 170.094C659.13 171.964 659.406 173.089 660.156 174.49C660.906 175.896 662.219 177.021 661.656 179.266C661.094 181.51 661.375 184.51 662.125 186.005C662.776 187.411 662.125 188.531 660.812 191.062C659.5 193.495 658.755 194.432 656.036 195.365C653.229 196.208 653.042 197.896 653.042 200.797C653.042 203.792 651.078 205.292 647.427 204.729C643.682 207.818 641.344 204.167 640.406 199.578C639.469 194.995 639.281 190.031 633.76 186.005C628.328 181.885 630.484 174.958 635.068 172.151C639.656 169.437 639.094 161.385 638.531 156.427C638.068 151.464 641.344 148.656 643.87 145.937C647.24 147.25 651.453 152.401 651.453 154.552Z" fill="#FFA1A1" stroke="black" stroke-width="0.205945" stroke-linecap="round" stroke-linejoin="round"/>
<path d="M643.495 186.474C642.464 184.042 641.344 181.604 644.057 176.365C646.865 171.026 645.089 167 644.245 164.286C643.401 161.667 643.214 159.234 644.245 158.109C645.365 157.078 645.833 156.427 645.927 154.646C646.021 152.958 647.427 153.521 647.615 154.365C647.802 155.208 647.99 156.609 646.49 159.141C644.995 161.76 650.703 168.125 648.083 174.958C646.302 179.734 648.641 185.818 649.578 190.031C650.516 194.245 651.078 204.354 644.901 205.849C649.109 203.792 645.177 190.406 643.495 186.474Z" fill="#F1B2DC" stroke="black" stroke-width="0.205945" stroke-linecap="round" stroke-linejoin="round"/>
<path d="M615.693 185.724C616.724 185.911 617.281 185.349 617.562 184.693C617.844 184.042 618.031 183.667 618.969 183.573C619.906 183.573 621.401 183.292 621.776 182.542C622.057 181.792 623.182 182.448 624.208 180.578C625.146 178.609 625.802 176.365 628.328 175.521M635.255 159.234C634.323 159.234 631.604 159.328 630.484 161.76M622.714 147.625C624.958 148.281 624.021 149.776 625.146 150.62C627.208 152.214 625.333 153.896 627.021 154.365C628.703 154.833 628.609 155.115 628.234 156.984C627.672 159.141 629.734 159.234 628.984 160.635M619.25 168.031C620.557 166.818 623.839 165.88 624.583 164.568M619.156 161.573C621.12 161.479 623.745 162.229 624.115 161.479M618.875 159.422C619.812 159.422 621.776 158.766 622.151 157.453M617.469 156.427C618.594 156.427 620 156.333 621.401 155.302M615.974 152.776C616.818 152.12 618.312 152.87 619.719 151.932M617.375 148.281C618.031 148.281 619.437 148.094 619.437 148.937" stroke="black" stroke-width="0.205945" stroke-linecap="round" stroke-linejoin="round"/>
<path d="M706.964 165.411C706.964 165.411 700.411 159.891 694.979 156.146C689.552 152.401 683 147.812 683 146.875C684.026 146.125 689.552 149.682 697.135 154.271C704.813 158.953 709.115 163.536 709.115 163.536L706.964 165.411ZM706.495 169.156C706.495 169.156 700.13 165.318 693.859 162.604C687.302 159.891 677.474 159.891 676.448 158.953C676.448 158.016 687.865 157.453 696.01 160.729C704.344 164.568 708.646 167.281 708.646 167.281L706.495 169.156ZM706.401 175.521C706.401 175.521 699.474 172.339 692.734 170.839C686.182 169.344 676.818 169.906 675.698 169.062C675.698 168.125 687.302 166.255 696.01 169.062C704.813 171.776 708.552 173.651 708.552 173.651L706.401 175.521ZM706.026 181.979C706.026 181.979 700.786 178.422 693.859 177.672C687.302 177.021 678.599 181.979 677.474 181.047C677.474 180.109 685.057 174.583 694.51 175.521C703.781 176.458 708.182 180.109 708.182 180.109L706.026 181.979ZM708.182 161.573C708.182 161.573 701.531 155.49 701.531 151.37C701.531 147.719 705.557 142.104 707.339 142.104C706.401 143.974 703.313 147.719 703.313 151.37C703.313 155.115 710.333 159.703 710.333 159.703L708.182 161.573Z" fill="#9E540A" stroke="black" stroke-width="0.205945" stroke-linecap="round" stroke-linejoin="round"/>
<path d="M708.182 161.573C708.182 161.573 709.49 155.49 709.49 151.37C709.49 145.849 705.557 140.792 705.932 139.385C707.339 140.792 711.271 144.911 711.271 151.37C711.271 156.984 710.333 159.703 710.333 159.703L708.182 161.573Z" fill="#9E540A" stroke="black" stroke-width="0.205945" stroke-linecap="round" stroke-linejoin="round"/>
<path d="M709.771 159.609C709.771 157.828 709.115 156.24 707.995 155.021C706.495 153.24 704.25 152.682 701.906 153.052C699.099 153.521 696.854 155.208 695.448 157.828C693.578 161.292 693.391 165.036 693.297 168.687C693.297 181.323 693.766 186.474 694.141 198.922C694.234 202.573 694.885 210.062 693.203 215.964C692.547 218.49 691.797 220.828 690.677 223.26C691.422 220.172 691.797 218.583 692.172 216.24C693.203 210.156 692.922 204.448 692.734 198.828C692.359 187.318 691.703 181.417 691.328 167.469C691.234 163.26 691.609 160.073 693.578 156.703C695.635 153.24 699.193 150.714 703.219 150.714C704.901 150.714 706.307 150.995 707.714 151.839C710.521 153.333 711.833 156.427 711.833 159.516L709.771 159.609Z" fill="#9E540A" stroke="#FCD116" stroke-width="1.12334" stroke-linecap="round" stroke-linejoin="round"/>
<path d="M709.771 159.609C709.771 157.828 709.115 156.24 707.995 155.021C706.495 153.24 704.25 152.682 701.906 153.052C699.099 153.521 696.854 155.208 695.448 157.828C693.578 161.292 693.391 165.036 693.297 168.688C693.297 181.323 693.766 186.474 694.141 198.922C694.234 202.573 694.885 210.063 693.203 215.964C692.547 218.49 691.797 220.828 690.677 223.26C691.422 220.172 691.797 218.583 692.172 216.24C693.203 210.156 692.922 204.448 692.734 198.828C692.359 187.318 691.703 181.417 691.328 167.469C691.234 163.26 691.609 160.073 693.578 156.703C695.635 153.24 699.193 150.714 703.219 150.714C704.901 150.714 706.307 150.995 707.714 151.839C710.521 153.333 711.833 156.427 711.833 159.516L709.771 159.609Z" fill="#9E540A"/>
<path d="M710.333 204.729C710.333 204.729 707.714 209.406 705.745 212.776C703.781 216.151 702.187 216.896 700.693 215.87C699.286 214.839 700.505 212.125 701.625 210.813C702.75 209.5 709.021 203.417 709.021 203.417L710.333 204.729Z" fill="#9E540A" stroke="black" stroke-width="0.205945" stroke-linecap="round" stroke-linejoin="round"/>
<path d="M710.99 205.104C710.99 205.104 709.958 210.438 709.115 214.276C708.37 218.115 707.057 219.427 705.464 218.958C703.781 218.583 704.063 215.495 704.719 213.901C705.37 212.313 709.302 204.26 709.302 204.26L710.99 205.104Z" fill="#9E540A" stroke="black" stroke-width="0.205945" stroke-linecap="round" stroke-linejoin="round"/>
<path d="M712.109 205.292V214.651C712.109 218.583 711.177 220.172 709.396 220.078C707.714 219.984 707.339 216.99 707.714 215.214C707.995 213.526 710.333 204.823 710.333 204.823L712.109 205.292Z" fill="#9E540A" stroke="black" stroke-width="0.205945" stroke-linecap="round" stroke-linejoin="round"/>
<path d="M717.26 165.411C717.26 165.411 723.813 159.891 729.245 156.146C734.672 152.401 741.224 147.812 741.224 146.875C740.193 146.125 734.672 149.682 727.089 154.271C719.411 158.953 715.109 163.536 715.109 163.536L717.26 165.411ZM717.729 169.156C717.729 169.156 724.094 165.318 730.365 162.604C736.917 159.891 746.75 159.891 747.776 158.953C747.776 158.016 736.359 157.453 728.214 160.729C719.88 164.568 715.573 167.281 715.573 167.281L717.729 169.156ZM717.823 175.521C717.823 175.521 724.75 172.339 731.49 170.839C738.042 169.344 747.401 169.906 748.526 169.062C748.526 168.125 736.917 166.255 728.214 169.062C719.411 171.776 715.667 173.651 715.667 173.651L717.823 175.521ZM718.198 181.979C718.198 181.979 723.438 178.422 730.365 177.672C736.917 177.021 745.625 181.979 746.75 181.047C746.75 180.109 739.167 174.583 729.708 175.521C720.443 176.458 716.042 180.109 716.042 180.109L718.198 181.979ZM716.042 161.573C716.042 161.573 722.688 155.49 722.688 151.37C722.688 147.719 718.667 142.104 716.885 142.104C717.823 143.974 720.911 147.719 720.911 151.37C720.911 155.115 713.891 159.703 713.891 159.703L716.042 161.573Z" fill="#9E540A" stroke="black" stroke-width="0.205945" stroke-linecap="round" stroke-linejoin="round"/>
<path d="M716.042 161.573C716.042 161.573 714.734 155.49 714.734 151.37C714.734 145.849 718.667 140.792 718.292 139.385C716.885 140.792 712.953 144.911 712.953 151.37C712.953 156.984 713.891 159.703 713.891 159.703L716.042 161.573Z" fill="#9E540A" stroke="black" stroke-width="0.205945" stroke-linecap="round" stroke-linejoin="round"/>
<path d="M714.453 159.609C714.453 157.828 715.109 156.24 716.229 155.021C717.729 153.24 719.974 152.682 722.318 153.052C725.125 153.521 727.37 155.208 728.776 157.828C730.646 161.292 730.833 165.036 730.927 168.687C730.927 181.323 730.458 186.474 730.083 198.922C729.99 202.573 729.339 210.062 731.021 215.964C731.677 218.49 732.427 220.828 733.547 223.26C732.802 220.172 732.427 218.583 732.052 216.24C731.021 210.156 731.302 204.448 731.49 198.828C731.865 187.318 732.521 181.417 732.896 167.469C732.984 163.26 732.615 160.073 730.646 156.703C728.589 153.24 725.031 150.714 721.005 150.714C719.318 150.714 717.917 150.995 716.51 151.839C713.703 153.333 712.391 156.427 712.391 159.516L714.453 159.609Z" fill="#9E540A" stroke="#FCD116" stroke-width="1.12334" stroke-linecap="round" stroke-linejoin="round"/>
<path d="M714.453 159.609C714.453 157.828 715.109 156.24 716.229 155.021C717.729 153.24 719.974 152.682 722.318 153.052C725.125 153.521 727.37 155.208 728.776 157.828C730.646 161.292 730.833 165.036 730.927 168.688C730.927 181.323 730.458 186.474 730.083 198.922C729.99 202.573 729.339 210.063 731.021 215.964C731.677 218.49 732.427 220.828 733.547 223.26C732.802 220.172 732.427 218.583 732.052 216.24C731.021 210.156 731.302 204.448 731.49 198.828C731.865 187.318 732.521 181.417 732.896 167.469C732.984 163.26 732.615 160.073 730.646 156.703C728.589 153.24 725.031 150.714 721.005 150.714C719.318 150.714 717.917 150.995 716.51 151.839C713.703 153.333 712.391 156.427 712.391 159.516L714.453 159.609Z" fill="#9E540A"/>
<path d="M713.891 204.729C713.891 204.729 716.51 209.406 718.479 212.776C720.443 216.151 722.037 216.896 723.531 215.87C724.938 214.839 723.719 212.125 722.594 210.813C721.474 209.5 715.203 203.417 715.203 203.417L713.891 204.729Z" fill="#9E540A" stroke="black" stroke-width="0.205945" stroke-linecap="round" stroke-linejoin="round"/>
<path d="M713.234 205.104C713.234 205.104 714.266 210.438 715.109 214.276C715.854 218.115 717.167 219.427 718.76 218.958C720.443 218.583 720.161 215.495 719.505 213.901C718.854 212.313 714.922 204.26 714.922 204.26L713.234 205.104Z" fill="#9E540A" stroke="black" stroke-width="0.205945" stroke-linecap="round" stroke-linejoin="round"/>
<path d="M712.109 205.292V214.651C712.109 218.583 713.047 220.172 714.828 220.078C716.51 219.984 716.885 216.99 716.51 215.214C716.229 213.526 713.891 204.823 713.891 204.823L712.109 205.292Z" fill="#9E540A" stroke="black" stroke-width="0.205945" stroke-linecap="round" stroke-linejoin="round"/>
<path d="M712.109 205.198C707.151 205.104 706.682 203.323 706.682 203.323C706.682 203.323 706.026 201.078 705.932 199.672C705.838 199.484 704.531 196.677 704.901 195.458C704.437 194.339 703.312 191.62 704.344 191.156C703.875 189.844 703.125 188.344 703.031 186.943C702.656 185.911 701.719 183.667 702.469 182.917C702.469 182.917 700.693 179.172 701.531 178.234C701.531 178.234 700.693 174.583 701.531 173.651C701.531 173.651 701.531 169.906 702.469 168.969C702.469 168.969 702.469 165.318 703.312 164.38C703.312 164.568 705.932 159.234 712.109 159.234L712.016 167.187H712.109V205.198Z" fill="#9E540A" stroke="black" stroke-width="0.205945" stroke-linecap="round" stroke-linejoin="round"/>
<path d="M712.109 184.786C704.156 184.693 702.469 182.917 702.469 182.917M712.109 180.109C704.156 180.109 701.531 178.234 701.531 178.234M712.109 175.521C704.156 175.427 701.531 173.651 701.531 173.651M712.109 170.839C704.156 170.745 702.469 168.969 702.469 168.969M712.016 167.187C712.109 167.187 706.026 167.187 705.089 166.255L703.313 164.474M712.109 201.453C709.771 201.453 707.151 201.078 705.932 199.672M712.109 197.708C707.714 197.708 705.089 195.927 705.089 195.927C705.089 195.927 704.995 195.74 704.901 195.458M712.109 193.12C706.307 193.026 704.719 191.807 704.344 191.156M712.109 189.375C704.156 189.375 703.313 187.505 703.313 187.505L703.031 186.943" stroke="black" stroke-width="0.205945" stroke-linecap="round" stroke-linejoin="round"/>
<path d="M712.109 205.198C717.073 205.104 717.542 203.323 717.542 203.323C717.542 203.323 718.198 201.078 718.292 199.672C718.385 199.484 719.693 196.677 719.318 195.458C719.786 194.339 720.911 191.62 719.88 191.156C720.349 189.844 721.099 188.344 721.193 186.943C721.568 185.911 722.5 183.667 721.755 182.917C721.755 182.917 723.531 179.172 722.687 178.234C722.687 178.234 723.531 174.583 722.687 173.651C722.687 173.651 722.688 169.906 721.755 168.969C721.755 168.969 721.755 165.318 720.911 164.38C720.911 164.568 718.292 159.234 712.109 159.234L712.203 167.187H712.109V205.198Z" fill="#9E540A" stroke="black" stroke-width="0.205945" stroke-linecap="round" stroke-linejoin="round"/>
<path d="M712.109 184.786C720.068 184.693 721.755 182.917 721.755 182.917M712.109 180.109C720.068 180.109 722.688 178.234 722.688 178.234M712.109 175.521C720.068 175.427 722.688 173.651 722.688 173.651M712.109 170.839C720.068 170.745 721.755 168.969 721.755 168.969M712.203 167.187C712.109 167.187 718.198 167.187 719.13 166.255L720.911 164.474M712.109 201.453C714.453 201.453 717.073 201.078 718.292 199.672M712.109 197.708C716.51 197.708 719.13 195.927 719.13 195.927C719.13 195.927 719.224 195.74 719.318 195.458M712.109 193.12C717.917 193.026 719.505 191.807 719.88 191.156M712.109 189.375C720.068 189.375 720.911 187.505 720.911 187.505L721.193 186.943" stroke="black" stroke-width="0.205945" stroke-linecap="round" stroke-linejoin="round"/>
<path d="M674.667 291.318C670.641 295.063 662.87 292.63 660.437 290.943C657.911 291.786 651.172 289.167 649.391 286.266C644.526 286.917 642.839 279.99 643.682 278.214C644.995 275.594 642.651 273.906 644.339 272.13C646.677 269.88 643.026 267.729 645.271 266.229C647.521 264.641 644.714 262.016 646.958 260.333C649.297 258.552 645.74 256.12 648.177 254.901C650.609 253.688 647.896 250.505 649.953 249.286C652.016 248.068 648.734 244.979 651.547 243.578C654.26 242.172 651.828 239.74 653.979 238.708C656.318 237.49 654.167 234.964 656.318 234.12C658.755 233.094 656.974 230.375 659.036 229.63C660.812 228.974 659.687 227.286 660.812 225.792H674.667" fill="#009E49"/>
<path d="M674.667 291.318C670.641 295.063 662.87 292.63 660.437 290.943C657.911 291.786 651.172 289.167 649.391 286.266C644.526 286.917 642.839 279.99 643.682 278.214C644.995 275.594 642.651 273.906 644.339 272.13C646.677 269.88 643.026 267.729 645.271 266.229C647.521 264.641 644.714 262.016 646.958 260.333C649.297 258.552 645.74 256.12 648.177 254.901C650.609 253.688 647.896 250.505 649.953 249.286C652.016 248.068 648.734 244.979 651.547 243.578C654.26 242.172 651.828 239.74 653.979 238.708C656.318 237.49 654.167 234.964 656.318 234.12C658.755 233.094 656.974 230.375 659.036 229.63C660.812 228.974 659.687 227.286 660.812 225.792H674.667" stroke="black" stroke-width="0.205945" stroke-linecap="round" stroke-linejoin="round"/>
<path d="M665.401 226.354C663.526 228.224 665.776 229.63 663.901 231.875C661.938 234.214 663.714 235.432 662.125 237.49C660.531 239.552 662.87 240.583 661.094 242.922C659.313 245.167 661.469 246.573 659.5 248.443C657.63 250.411 659.875 252.094 657.911 254.156C656.036 256.307 658.286 257.714 656.411 259.583C654.448 261.552 656.693 263.609 654.823 265.479C652.948 267.448 655.198 269.88 653.042 272.13C650.984 274.375 653.417 276.151 651.734 277.839C649.953 279.615 651.547 281.396 650.328 282.615C649.109 283.828 648.922 285.516 649.391 286.266M669.052 227.005C667.365 229.349 669.984 230.375 668.396 232.25C666.802 234.214 669.052 234.87 667.833 237.12C666.615 239.365 668.771 239.927 667.177 242.172C665.589 244.417 668.021 246.198 666.333 248.443C664.557 250.693 667.177 251.906 665.589 254.156C664.089 256.495 666.333 257.714 664.932 259.396C663.526 261.177 665.964 262.859 664.182 265.016C662.5 267.073 664.932 268.667 663.526 270.536C662.125 272.5 664.089 274.563 662.87 276.151C661.656 277.651 663.714 279.99 661.938 282.052C660.25 284.109 662.313 285.516 661.281 286.917C660.25 288.323 659.406 290.38 660.438 290.943" stroke="black" stroke-width="0.205945" stroke-linecap="round" stroke-linejoin="round"/>
<path d="M674.667 291.318C678.693 295.063 686.464 292.63 688.896 290.943C691.422 291.786 698.161 289.167 699.943 286.266C704.813 286.917 706.495 279.99 705.651 278.214C704.344 275.594 706.682 273.906 704.995 272.13C702.656 269.88 706.307 267.729 704.063 266.229C701.813 264.641 704.625 262.016 702.375 260.333C700.036 258.552 703.594 256.12 701.161 254.901C698.724 253.688 701.438 250.505 699.38 249.286C697.323 248.068 700.599 244.979 697.792 243.578C695.073 242.172 697.51 239.74 695.354 238.708C693.016 237.49 695.167 234.964 693.016 234.12C690.583 233.094 692.359 230.375 690.302 229.63C688.521 228.974 689.646 227.286 688.521 225.792H674.667" fill="#009E49"/>
<path d="M674.667 291.318C678.693 295.063 686.464 292.63 688.896 290.943C691.422 291.786 698.161 289.167 699.943 286.266C704.813 286.917 706.495 279.99 705.651 278.214C704.344 275.594 706.682 273.906 704.995 272.13C702.656 269.88 706.307 267.729 704.063 266.229C701.813 264.641 704.625 262.016 702.375 260.333C700.036 258.552 703.594 256.12 701.161 254.901C698.724 253.688 701.438 250.505 699.38 249.286C697.323 248.068 700.599 244.979 697.792 243.578C695.073 242.172 697.51 239.74 695.354 238.708C693.016 237.49 695.167 234.964 693.016 234.12C690.583 233.094 692.359 230.375 690.302 229.63C688.521 228.974 689.646 227.286 688.521 225.792H674.667" stroke="black" stroke-width="0.205945" stroke-linecap="round" stroke-linejoin="round"/>
<path d="M683.932 226.354C685.807 228.224 683.563 229.63 685.432 231.875C687.396 234.214 685.62 235.432 687.214 237.49C688.802 239.552 686.464 240.583 688.24 242.922C690.021 245.167 687.865 246.573 689.833 248.443C691.703 250.411 689.458 252.094 691.422 254.156C693.297 256.307 691.047 257.714 692.922 259.583C694.885 261.552 692.641 263.609 694.51 265.479C696.385 267.448 694.141 269.88 696.292 272.13C698.349 274.375 695.917 276.151 697.604 277.839C699.38 279.615 697.792 281.396 699.005 282.615C700.224 283.828 700.411 285.516 699.943 286.266M680.281 227.005C681.969 229.349 679.349 230.375 680.938 232.25C682.531 234.214 680.281 234.87 681.5 237.12C682.719 239.365 680.563 239.927 682.156 242.172C683.75 244.417 681.313 246.198 683 248.443C684.776 250.693 682.156 251.906 683.75 254.156C685.245 256.495 683 257.714 684.401 259.396C685.807 261.177 683.375 262.859 685.151 265.016C686.839 267.073 684.401 268.667 685.807 270.536C687.214 272.5 685.245 274.563 686.464 276.151C687.677 277.651 685.62 279.99 687.396 282.052C689.083 284.109 687.026 285.516 688.052 286.917C689.083 288.323 689.927 290.38 688.896 290.943" stroke="black" stroke-width="0.205945" stroke-linecap="round" stroke-linejoin="round"/>
<path d="M674.667 291.318V225.792" stroke="#009E49" stroke-width="0.205945" stroke-linecap="round" stroke-linejoin="round"/>
<path d="M674.667 229.161C673.823 232.813 675.885 235.995 674.667 239.083C673.448 242.078 675.51 243.297 674.854 245.729C674.104 248.161 675.698 249.943 674.667 252.563C673.635 255.182 676.073 257.245 674.667 260.708C673.26 264.078 675.604 264.922 674.667 268.385C673.635 272.318 676.448 274.375 674.667 277.182C672.891 279.99 676.26 280.646 674.854 283.828C673.448 286.917 675.698 288.135 674.667 291.318" stroke="black" stroke-width="0.205945" stroke-linecap="round" stroke-linejoin="round"/>
<path d="M676.073 240.953C675.604 241.984 677.474 244.417 676.448 246.292C675.323 248.068 677.005 250.88 675.885 253.125C674.76 255.37 677.661 258.182 676.542 260.802C675.323 263.422 677.099 266.698 676.542 269.13C676.073 271.568 677.755 276.245 676.542 277.932C675.323 279.708 677.755 280.177 676.354 284.484C674.948 288.792 674.01 285.141 674.854 283.828C676.635 280.927 672.891 279.99 674.667 277.182C676.448 274.375 673.635 272.318 674.667 268.385C675.604 264.922 673.26 264.078 674.667 260.708C676.073 257.245 673.635 255.182 674.667 252.562C675.698 249.943 674.104 248.161 674.854 245.729C675.51 243.297 673.448 242.078 674.667 239.083C675.604 236.089 676.542 239.927 676.073 240.953ZM668.208 243.953C667.552 245.073 669.333 247.229 667.74 249.38C666.615 250.88 668.49 252.656 666.896 254.812C665.87 256.307 667.927 258.182 666.521 260.333C665.589 261.552 667.177 263.891 666.057 265.667C664.932 267.542 666.615 269.036 664.651 271.474C663.526 272.781 665.495 276.057 664.276 277.089C663.057 278.12 664.182 282.146 663.339 282.708C662.594 283.359 663.339 286.266 661.281 286.917C662.313 285.516 660.25 284.109 661.938 282.052C663.714 279.99 661.656 277.651 662.87 276.151C664.089 274.563 662.125 272.5 663.526 270.536C664.932 268.667 662.5 267.073 664.182 265.016C665.964 262.859 663.526 261.177 664.932 259.396C666.333 257.714 664.089 256.495 665.589 254.156C667.177 251.906 664.557 250.693 666.333 248.443C668.021 246.198 665.589 244.417 667.177 242.172C668.771 239.927 666.615 239.365 667.833 237.12C670.078 237.958 668.958 242.828 668.208 243.953ZM663.526 237.865C662.594 239.365 663.901 241.141 662.5 243.016C661.094 244.979 662.5 247.417 661.094 249.005C659.688 250.505 661.469 253.5 659.688 254.719C657.911 255.932 659.036 259.583 657.63 260.802C656.224 262.016 657.63 265.479 656.036 267.26C654.448 269.036 655.198 272.688 654.26 273.531C653.417 274.375 655.479 276.151 653.979 277.37C652.385 278.589 652.385 281.021 650.328 282.615C651.547 281.396 649.953 279.615 651.734 277.839C653.417 276.151 650.984 274.375 653.042 272.13C655.198 269.88 652.948 267.448 654.823 265.479C656.693 263.609 654.448 261.552 656.411 259.583C658.286 257.714 656.036 256.307 657.911 254.156C659.875 252.094 657.63 250.411 659.5 248.443C661.469 246.573 659.313 245.167 661.094 242.922C662.87 240.583 660.531 239.552 662.125 237.49C662.87 236.557 662.87 235.714 662.87 234.964C663.995 232.062 663.995 237.12 663.526 237.865Z" fill="#FCD116" stroke="black" stroke-width="0.205945" stroke-linecap="round" stroke-linejoin="round"/>
<path d="M661.656 227.943C661.656 208.286 664.37 201.453 674.667 201.453C684.964 201.453 687.677 208.286 687.677 227.943H661.656Z" fill="#CE1126" stroke="black" stroke-width="0.205945" stroke-linecap="round" stroke-linejoin="round"/>
<path d="M661.656 227.943C661.656 208.286 664.37 201.453 674.667 201.453C669.984 201.453 667.083 205.104 666.333 207.536C665.495 209.969 665.964 209.781 666.99 208.849C668.021 207.911 667.552 209.969 666.615 211.094C665.776 212.219 664.932 215.495 666.151 214.464C667.365 213.339 668.302 214.557 666.99 216.427C665.682 218.208 664.557 222.516 665.87 221.016C667.177 219.521 667.458 221.953 666.615 223.172C665.87 224.385 665.964 225.51 666.615 224.948C667.365 224.385 667.271 226.911 666.615 227.943H661.656ZM679.536 227.568C679.536 224.667 679.63 217.833 678.036 215.589C676.911 213.807 676.911 211.938 678.224 213.995C679.536 216.057 680.193 215.026 679.255 212.964C678.13 210.344 676.635 207.443 677.005 206.88C677.474 206.224 677.755 206.505 678.693 207.911C679.63 209.313 679.818 207.255 678.786 205.849C677.755 204.542 677.849 204.26 680.005 205.198C683.839 206.786 685.714 211.375 685.714 226.818L679.536 227.568Z" fill="black" stroke="black" stroke-width="0.205945" stroke-linecap="round" stroke-linejoin="round"/>
<path d="M674.667 230.75C670.547 230.75 666.057 230.099 663.057 228.88C659.5 227.474 659.313 226.26 660.531 224.76C661.469 223.635 663.339 224.292 665.214 225.135C666.99 225.885 672.047 226.448 674.667 226.448C677.286 226.448 682.344 225.885 684.12 225.042C685.995 224.292 687.865 223.635 688.802 224.76C690.021 226.26 689.833 227.474 686.276 228.88C683.281 230.099 678.786 230.75 674.667 230.75Z" fill="#CE1126" stroke="black" stroke-width="0.205945" stroke-linecap="round" stroke-linejoin="round"/>
</g>
</g>
<defs>
<clipPath id="clip0_765_13236">
<rect width="900" height="450" fill="white"/>
</clipPath>
</defs>
</svg>
