<svg width="900" height="450" viewBox="0 0 900 450" fill="none" xmlns="http://www.w3.org/2000/svg">
<g clip-path="url(#clip0_765_13344)">
<path d="M900 0H0V450H900V0Z" fill="#1E1E1E"/>
<mask id="mask0_765_13344" style="mask-type:luminance" maskUnits="userSpaceOnUse" x="0" y="0" width="900" height="450">
<path d="M900 0H0V450H900V0Z" fill="white"/>
</mask>
<g mask="url(#mask0_765_13344)">
<path d="M900 0H0V450H900V0Z" fill="white"/>
<mask id="mask1_765_13344" style="mask-type:luminance" maskUnits="userSpaceOnUse" x="0" y="0" width="900" height="450">
<path d="M0 0H900V450H0V0Z" fill="white"/>
</mask>
<g mask="url(#mask1_765_13344)">
<path d="M0 0H900V450H0V0Z" fill="white"/>
<path d="M0 0H900V450H0V0Z" fill="white"/>
<path d="M0 0H900V600.003H0V0Z" fill="#C8102E"/>
</g>
<mask id="mask2_765_13344" style="mask-type:luminance" maskUnits="userSpaceOnUse" x="0" y="0" width="600" height="450">
<path d="M0 0H600V450H0V0Z" fill="white"/>
</mask>
<g mask="url(#mask2_765_13344)">
<path d="M0 0H599.776V600.003H0V0Z" fill="#FFCD00"/>
</g>
<mask id="mask3_765_13344" style="mask-type:luminance" maskUnits="userSpaceOnUse" x="0" y="0" width="300" height="450">
<path d="M0 0H300V450H0V0Z" fill="white"/>
</mask>
<g mask="url(#mask3_765_13344)">
<path d="M0 0H298.893V600.003H0V0Z" fill="#00205B"/>
</g>
</g>
</g>
<defs>
<clipPath id="clip0_765_13344">
<rect width="900" height="450" fill="white"/>
</clipPath>
</defs>
</svg>
