<svg width="900" height="450" viewBox="0 0 900 450" fill="none" xmlns="http://www.w3.org/2000/svg">
<g clip-path="url(#clip0_765_13656)">
<path d="M900 0H0V450H900V0Z" fill="#1E1E1E"/>
<mask id="mask0_765_13656" style="mask-type:luminance" maskUnits="userSpaceOnUse" x="0" y="0" width="900" height="450">
<path d="M900 0H0V450H900V0Z" fill="white"/>
</mask>
<g mask="url(#mask0_765_13656)">
<path d="M900 0H0V450H900V0Z" fill="white"/>
<mask id="mask1_765_13656" style="mask-type:luminance" maskUnits="userSpaceOnUse" x="-1" y="0" width="902" height="450">
<path d="M-1 -3.37219e-06H901V450H-1V-3.37219e-06Z" fill="white"/>
</mask>
<g mask="url(#mask1_765_13656)">
<path d="M-1 -3.37219e-06H901V450H-1V-3.37219e-06Z" fill="white"/>
<path d="M-1 -3.37219e-06H901V450H-1V-3.37219e-06Z" fill="white"/>
<path d="M-1 -3.37219e-06H901V450H-1V-3.37219e-06Z" fill="#006600"/>
</g>
<mask id="mask2_765_13656" style="mask-type:luminance" maskUnits="userSpaceOnUse" x="-1" y="0" width="902" height="322">
<path d="M-1 -3.37219e-06H901V321.333H-1V-3.37219e-06Z" fill="white"/>
</mask>
<g mask="url(#mask2_765_13656)">
<path d="M-1 -3.37219e-06H901V320.953H-1V-3.37219e-06Z" fill="white"/>
</g>
<mask id="mask3_765_13656" style="mask-type:luminance" maskUnits="userSpaceOnUse" x="-1" y="0" width="902" height="130">
<path d="M-1 -3.37219e-06H901V129.333H-1V-3.37219e-06Z" fill="white"/>
</mask>
<g mask="url(#mask3_765_13656)">
<path d="M-1 -3.37219e-06H901V128.38H-1V-3.37219e-06Z" fill="#CC0000"/>
</g>
<path d="M432.026 218.698C432.464 217.943 433.01 217.281 433.667 216.703C434.323 216.13 435.047 215.672 435.854 215.333C436.656 214.995 437.495 214.797 438.359 214.729C439.229 214.667 440.089 214.74 440.932 214.953C441.776 215.167 442.568 215.51 443.302 215.979C444.031 216.453 444.672 217.026 445.219 217.708C445.766 218.385 446.188 219.135 446.49 219.953C446.792 220.771 446.958 221.615 446.984 222.484V254.578H453.016V222.484C453.042 221.615 453.208 220.771 453.51 219.953C453.813 219.135 454.234 218.385 454.781 217.708C455.328 217.026 455.969 216.453 456.698 215.979C457.432 215.51 458.224 215.167 459.068 214.953C459.911 214.74 460.771 214.667 461.641 214.729C462.505 214.797 463.344 214.995 464.146 215.333C464.953 215.672 465.677 216.13 466.333 216.703C466.99 217.281 467.536 217.943 467.974 218.698C468.208 217.99 468.401 217.266 468.552 216.536C468.703 215.807 468.807 215.068 468.87 214.323C468.932 213.578 468.953 212.833 468.927 212.089C468.901 211.339 468.828 210.599 468.719 209.859C468.604 209.12 468.448 208.391 468.245 207.672C468.047 206.953 467.807 206.245 467.521 205.557C467.24 204.865 466.917 204.193 466.552 203.542C466.193 202.885 465.792 202.26 465.354 201.651C464.917 201.047 464.443 200.469 463.938 199.917C463.432 199.37 462.896 198.849 462.333 198.365C461.766 197.88 461.172 197.427 460.552 197.01C459.932 196.594 459.286 196.219 458.625 195.875C457.958 195.536 457.276 195.24 456.573 194.979C455.875 194.719 455.161 194.5 454.432 194.328C453.708 194.151 452.974 194.021 452.234 193.932C451.49 193.844 450.745 193.802 450 193.802C449.255 193.802 448.51 193.844 447.766 193.932C447.026 194.021 446.292 194.151 445.568 194.328C444.839 194.5 444.125 194.719 443.427 194.979C442.724 195.24 442.042 195.536 441.375 195.875C440.714 196.219 440.068 196.594 439.448 197.01C438.828 197.427 438.234 197.88 437.667 198.365C437.104 198.849 436.568 199.37 436.063 199.917C435.557 200.469 435.083 201.047 434.646 201.651C434.208 202.26 433.807 202.885 433.448 203.542C433.083 204.193 432.76 204.865 432.479 205.557C432.193 206.245 431.953 206.953 431.755 207.672C431.552 208.391 431.396 209.12 431.281 209.859C431.172 210.599 431.099 211.339 431.073 212.089C431.047 212.833 431.068 213.578 431.13 214.323C431.193 215.068 431.297 215.807 431.448 216.536C431.599 217.266 431.792 217.99 432.026 218.698Z" fill="#F8C300"/>
<path d="M436.328 210.323C437.646 210.052 438.969 209.99 440.307 210.135C441.641 210.286 442.922 210.635 444.151 211.182C445.375 211.734 446.49 212.458 447.49 213.359C448.49 214.255 449.323 215.286 450 216.453C450.677 215.286 451.51 214.255 452.51 213.359C453.51 212.458 454.625 211.734 455.849 211.182C457.078 210.635 458.359 210.286 459.693 210.135C461.031 209.99 462.354 210.052 463.672 210.323C463.563 209.5 463.375 208.698 463.12 207.911C462.859 207.125 462.536 206.37 462.146 205.641C461.75 204.917 461.297 204.229 460.781 203.583C460.266 202.937 459.693 202.339 459.073 201.797C458.448 201.255 457.781 200.771 457.068 200.344C456.359 199.922 455.62 199.568 454.844 199.276C454.068 198.984 453.276 198.766 452.464 198.62C451.646 198.474 450.828 198.396 450 198.396C449.172 198.396 448.354 198.474 447.536 198.62C446.724 198.766 445.932 198.984 445.156 199.276C444.38 199.568 443.641 199.922 442.932 200.344C442.219 200.771 441.552 201.255 440.927 201.797C440.307 202.339 439.734 202.937 439.219 203.583C438.703 204.229 438.25 204.917 437.854 205.641C437.464 206.37 437.141 207.125 436.88 207.911C436.625 208.698 436.437 209.5 436.328 210.323Z" fill="white"/>
<path d="M446.984 241.76C446.88 242.891 446.703 244.01 446.443 245.12C446.182 246.229 445.849 247.313 445.438 248.375C445.031 249.432 444.547 250.464 443.995 251.453C443.438 252.448 442.818 253.396 442.13 254.307C441.448 255.214 440.698 256.068 439.891 256.87C439.089 257.672 438.229 258.411 437.318 259.094C436.406 259.776 435.453 260.391 434.458 260.943C433.464 261.49 432.432 261.969 431.37 262.37C430.307 262.776 429.219 263.104 428.115 263.359C427.005 263.609 425.88 263.786 424.75 263.88C423.615 263.979 422.479 263.995 421.344 263.932C420.208 263.87 419.083 263.729 417.969 263.51C416.854 263.286 415.755 262.99 414.682 262.62C413.609 262.245 412.563 261.797 411.552 261.281C410.542 260.76 409.568 260.172 408.641 259.516C407.708 258.865 406.828 258.146 406 257.37C405.646 258.26 405.24 259.125 404.786 259.974C404.333 260.818 403.833 261.635 403.286 262.422C402.74 263.214 402.151 263.969 401.521 264.688C400.885 265.411 400.219 266.094 399.505 266.74C398.797 267.385 398.052 267.99 397.276 268.552C396.495 269.115 395.688 269.625 394.854 270.099C394.016 270.568 393.156 270.99 392.271 271.359C391.385 271.729 390.484 272.052 389.563 272.323C388.641 272.589 387.708 272.807 386.76 272.969C385.818 273.13 384.865 273.24 383.906 273.297C382.948 273.354 381.99 273.354 381.031 273.302C380.073 273.245 379.125 273.141 378.177 272.979C377.234 272.818 376.297 272.604 375.375 272.333C374.453 272.068 373.552 271.75 372.667 271.38C371.781 271.01 370.922 270.589 370.083 270.12C369.245 269.651 368.437 269.141 367.656 268.578C370 291.964 405.047 287.188 407.661 264.453C418.672 283.786 442.885 278.25 449.969 254.568L446.984 241.76Z" fill="#F8C300"/>
<path d="M453.016 241.76C453.12 242.891 453.297 244.01 453.557 245.12C453.818 246.229 454.151 247.313 454.563 248.375C454.969 249.432 455.453 250.464 456.005 251.453C456.563 252.448 457.182 253.396 457.865 254.307C458.552 255.214 459.302 256.068 460.109 256.87C460.911 257.672 461.771 258.411 462.682 259.094C463.594 259.776 464.547 260.391 465.542 260.943C466.536 261.49 467.568 261.969 468.63 262.37C469.693 262.776 470.781 263.104 471.885 263.359C472.995 263.609 474.12 263.786 475.25 263.88C476.385 263.979 477.521 263.995 478.656 263.932C479.792 263.87 480.917 263.729 482.031 263.51C483.146 263.286 484.245 262.99 485.318 262.62C486.391 262.245 487.438 261.797 488.448 261.281C489.458 260.76 490.432 260.172 491.359 259.516C492.292 258.865 493.172 258.146 494 257.37C494.354 258.26 494.76 259.125 495.214 259.974C495.667 260.818 496.167 261.635 496.714 262.422C497.26 263.214 497.849 263.969 498.479 264.688C499.115 265.411 499.781 266.094 500.495 266.74C501.203 267.385 501.948 267.99 502.724 268.552C503.505 269.115 504.313 269.625 505.146 270.099C505.984 270.568 506.844 270.99 507.729 271.359C508.615 271.729 509.516 272.052 510.438 272.323C511.359 272.589 512.292 272.807 513.24 272.969C514.182 273.13 515.135 273.24 516.094 273.297C517.052 273.354 518.01 273.354 518.969 273.302C519.927 273.245 520.875 273.141 521.823 272.979C522.766 272.818 523.703 272.604 524.625 272.333C525.547 272.068 526.448 271.75 527.333 271.38C528.219 271.01 529.078 270.589 529.917 270.12C530.755 269.651 531.563 269.141 532.344 268.578C530 291.964 494.953 287.188 492.339 264.453C481.328 283.786 457.115 278.25 450.031 254.568L453.016 241.76Z" fill="#F8C300"/>
<path d="M423.578 283.281C418.688 293.839 408.917 295.651 400.365 287.13C400.365 287.13 403.802 284.698 407.479 284.031C406.792 281.094 408.208 277.031 410.198 274.833C412.292 276.266 415.208 279.13 415.953 282.458C421.104 281.792 423.578 283.281 423.578 283.281Z" fill="#F8C300"/>
<path d="M461.833 282.083C455.292 291.703 445.354 291.901 438.307 282.104C438.307 282.104 442.094 280.266 445.828 280.203C445.63 277.193 447.687 273.417 450.01 271.573C451.839 273.323 454.255 276.625 454.443 280.031C459.641 280.214 461.833 282.083 461.833 282.083Z" fill="#F8C300"/>
<path d="M499.776 287.135C491.755 295.557 481.917 294.135 476.557 283.318C476.557 283.318 480.594 282.125 484.292 282.672C484.583 279.672 487.224 276.276 489.818 274.839C491.339 276.865 493.182 280.516 492.818 283.906C497.911 284.927 499.776 287.135 499.776 287.135Z" fill="#F8C300"/>
<path d="M387.735 306.834C397.839 303.823 408.11 301.558 418.537 300.042C428.969 298.521 439.459 297.761 450 297.761C460.542 297.761 471.032 298.521 481.464 300.042C491.891 301.558 502.162 303.823 512.266 306.834" stroke="#F8C300" stroke-width="10.2705"/>
<path d="M450 137.573L459.693 167.396L434.323 148.964H465.677L440.307 167.396L450 137.573Z" fill="#F8C300"/>
<path d="M405.068 149.609L414.755 179.438L389.385 161H420.745L395.375 179.438L405.068 149.609Z" fill="#F8C300"/>
<path d="M372.172 182.505L381.865 212.328L356.495 193.896H387.854L362.484 212.328L372.172 182.505Z" fill="#F8C300"/>
<path d="M360.135 227.438L369.823 257.26L344.453 238.828H375.813L350.443 257.26L360.135 227.438Z" fill="#F8C300"/>
<path d="M494.932 149.609L485.245 179.438L510.615 161H479.255L504.625 179.438L494.932 149.609Z" fill="#F8C300"/>
<path d="M527.828 182.505L518.135 212.328L543.505 193.896H512.146L537.516 212.328L527.828 182.505Z" fill="#F8C300"/>
<path d="M539.865 227.438L530.177 257.26L555.547 238.828H524.188L549.557 257.26L539.865 227.438Z" fill="#F8C300"/>
</g>
</g>
<defs>
<clipPath id="clip0_765_13656">
<rect width="900" height="450" fill="white"/>
</clipPath>
</defs>
</svg>
