<svg width="900" height="450" viewBox="0 0 900 450" fill="none" xmlns="http://www.w3.org/2000/svg">
<rect width="900" height="450" fill="#1E1E1E"/>
<g clip-path="url(#clip0_0_1)">
<rect width="900" height="450" fill="white"/>
<mask id="mask0_0_1" style="mask-type:luminance" maskUnits="userSpaceOnUse" x="0" y="0" width="900" height="450">
<path d="M0 -3.37219e-06H900V450H0V-3.37219e-06Z" fill="white"/>
</mask>
<g mask="url(#mask0_0_1)">
<path d="M0 -3.37219e-06H900V450H0V-3.37219e-06Z" fill="white"/>
<path d="M0 -3.37219e-06H900V450H0V-3.37219e-06Z" fill="white"/>
<path d="M0 -3.37219e-06H900V450H0V-3.37219e-06Z" fill="#012169"/>
</g>
<path d="M165.109 388.057C156.156 387.984 249.297 338.417 327.255 274.927C429.422 191.714 649.474 58.4896 714.167 36.8437C720.927 34.5833 700.297 48.3646 697.62 52.8281C628.552 134.578 683.677 288.839 770 366.385C795.958 386.24 794.625 387.281 842.745 389.224V393.719L165.109 388.057ZM159.495 397.073C159.495 397.073 152.922 401.771 152.937 405.266C152.964 409.146 160.312 414.276 160.312 414.276L828.693 421.646L840.979 413.453L823.781 402.807L159.495 397.073Z" fill="#FFD100"/>
<path d="M194.359 48.9062H171.891V60.1406L194.359 48.9062Z" fill="white"/>
<path d="M194.349 48.9115L176.177 62.1146L169.573 53.026L194.349 48.9115Z" fill="white"/>
<path d="M185.776 75.3177L178.833 53.9531L168.151 57.4219L185.776 75.3177Z" fill="white"/>
<path d="M185.771 75.3125L167.594 62.1094L174.198 53.0208L185.771 75.3125Z" fill="white"/>
<path d="M158.005 75.3177L176.182 62.1146L169.578 53.026L158.005 75.3177Z" fill="white"/>
<path d="M158.01 75.3125L164.953 53.9479L175.635 57.4167L158.01 75.3125Z" fill="white"/>
<path d="M149.422 48.9062L167.599 62.1146L174.203 53.026L149.422 48.9062Z" fill="white"/>
<path d="M149.432 48.9115H171.896V60.1406L149.432 48.9115Z" fill="white"/>
<path d="M171.891 32.5833L164.948 53.9531L175.63 57.4219L171.891 32.5833Z" fill="white"/>
<path d="M171.891 32.5885L178.833 53.9583L168.151 57.4271L171.891 32.5885Z" fill="white"/>
<path d="M279.604 127.484H260.88V136.844L279.604 127.484Z" fill="white"/>
<path d="M279.599 127.484L264.453 138.49L258.953 130.917L279.599 127.484Z" fill="white"/>
<path d="M272.453 149.495L266.672 131.688L257.766 134.578L272.453 149.495Z" fill="white"/>
<path d="M272.453 149.49L257.302 138.484L262.807 130.911L272.453 149.49Z" fill="white"/>
<path d="M249.312 149.495L264.458 138.49L258.958 130.917L249.312 149.495Z" fill="white"/>
<path d="M249.312 149.49L255.099 131.682L264.005 134.578L249.312 149.49Z" fill="white"/>
<path d="M242.161 127.484L257.307 138.49L262.807 130.917L242.161 127.484Z" fill="white"/>
<path d="M242.167 127.484H260.885V136.849L242.167 127.484Z" fill="white"/>
<path d="M260.88 113.88L255.094 131.688L264 134.578L260.88 113.88Z" fill="white"/>
<path d="M260.88 113.885L266.667 131.693L257.766 134.583L260.88 113.885Z" fill="white"/>
<path d="M90.5312 153.365H68.0677V164.599L90.5312 153.365Z" fill="white"/>
<path d="M90.526 153.37L72.3489 166.573L65.75 157.484L90.526 153.37Z" fill="white"/>
<path d="M81.9531 179.776L75.0104 158.411L64.3281 161.88L81.9531 179.776Z" fill="white"/>
<path d="M81.9479 179.771L63.7708 166.568L70.375 157.479L81.9479 179.771Z" fill="white"/>
<path d="M54.1823 179.781L72.3594 166.573L65.7552 157.484L54.1823 179.781Z" fill="white"/>
<path d="M54.1823 179.771L61.125 158.406L71.8125 161.875L54.1823 179.771Z" fill="white"/>
<path d="M45.5989 153.37L63.776 166.573L70.375 157.484L45.5989 153.37Z" fill="white"/>
<path d="M45.6042 153.37H68.0729V164.599L45.6042 153.37Z" fill="white"/>
<path d="M68.0625 137.042L61.1198 158.411L71.8073 161.88L68.0625 137.042Z" fill="white"/>
<path d="M68.0677 137.047L75.0104 158.417L64.3229 161.885L68.0677 137.047Z" fill="white"/>
<path d="M198.104 317.292H171.891V330.396L198.104 317.292Z" fill="white"/>
<path d="M198.094 317.292L176.891 332.698L169.187 322.099L198.094 317.292Z" fill="white"/>
<path d="M188.094 348.104L179.995 323.177L167.526 327.224L188.094 348.104Z" fill="white"/>
<path d="M188.083 348.099L166.88 332.693L174.583 322.089L188.083 348.099Z" fill="white"/>
<path d="M155.693 348.104L176.896 332.698L169.193 322.099L155.693 348.104Z" fill="white"/>
<path d="M155.698 348.099L163.797 323.172L176.26 327.219L155.698 348.099Z" fill="white"/>
<path d="M145.677 317.292L166.885 332.698L174.589 322.099L145.677 317.292Z" fill="white"/>
<path d="M145.687 317.292H171.896V330.401L145.687 317.292Z" fill="white"/>
<path d="M171.891 298.245L163.786 323.177L176.255 327.224L171.891 298.245Z" fill="white"/>
<path d="M171.891 298.255L179.99 323.182L167.526 327.234L171.891 298.255Z" fill="white"/>
</g>
<defs>
<clipPath id="clip0_0_1">
<rect width="900" height="450" fill="white"/>
</clipPath>
</defs>
</svg>
