<svg width="900" height="450" viewBox="0 0 900 450" fill="none" xmlns="http://www.w3.org/2000/svg">
<g clip-path="url(#clip0_765_13831)">
<path d="M900 0H0V450H900V0Z" fill="#1E1E1E"/>
<mask id="mask0_765_13831" style="mask-type:luminance" maskUnits="userSpaceOnUse" x="0" y="0" width="900" height="450">
<path d="M900 0H0V450H900V0Z" fill="white"/>
</mask>
<g mask="url(#mask0_765_13831)">
<mask id="mask1_765_13831" style="mask-type:luminance" maskUnits="userSpaceOnUse" x="0" y="0" width="900" height="450">
<path d="M0 0H900V450H0V0Z" fill="white"/>
</mask>
<g mask="url(#mask1_765_13831)">
<path d="M0 0H900V450H0V0Z" fill="white"/>
<path d="M0 0H900V450H0V0Z" fill="white"/>
<path d="M900 450V0H0V450H900Z" fill="#DC241F"/>
</g>
<mask id="mask2_765_13831" style="mask-type:luminance" maskUnits="userSpaceOnUse" x="0" y="0" width="450" height="450">
<path d="M0 0H450V450H0V0Z" fill="white"/>
</mask>
<g mask="url(#mask2_765_13831)">
<path d="M0 0V450L449.333 225L0 0Z" fill="#FFC726"/>
</g>
<mask id="mask3_765_13831" style="mask-type:luminance" maskUnits="userSpaceOnUse" x="0" y="0" width="301" height="450">
<path d="M0 0H300.667V450H0V0Z" fill="white"/>
</mask>
<g mask="url(#mask3_765_13831)">
<path d="M0 0V450L299.557 225L0 0Z" fill="black"/>
</g>
<path d="M70.2083 156.464L85.0052 298.141L156.307 174.823L26.1354 232.677L165.448 262.385L70.2083 156.464Z" fill="white"/>
</g>
</g>
<defs>
<clipPath id="clip0_765_13831">
<rect width="900" height="450" fill="white"/>
</clipPath>
</defs>
</svg>
