<svg width="900" height="450" viewBox="0 0 900 450" fill="none" xmlns="http://www.w3.org/2000/svg">
<rect width="900" height="450" fill="#1E1E1E"/>
<g clip-path="url(#clip0_0_1)">
<mask id="mask0_0_1" style="mask-type:luminance" maskUnits="userSpaceOnUse" x="0" y="0" width="900" height="450">
<path d="M0 -3.37219e-06H900V450H0V-3.37219e-06Z" fill="white"/>
</mask>
<g mask="url(#mask0_0_1)">
<path d="M0 -3.37219e-06H900V450H0V-3.37219e-06Z" fill="white"/>
<path d="M0 -3.37219e-06H900V450H0V-3.37219e-06Z" fill="white"/>
</g>
<mask id="mask1_0_1" style="mask-type:luminance" maskUnits="userSpaceOnUse" x="-1" y="0" width="902" height="450">
<path d="M-1 -3.37219e-06H901V450H-1V-3.37219e-06Z" fill="white"/>
</mask>
<g mask="url(#mask1_0_1)">
<path d="M-0.721192 -3.37219e-06H900.721V450H-0.721192V-3.37219e-06Z" fill="#00843D"/>
</g>
<path d="M335.286 49.8333C355.193 58.3854 369.141 78.1771 369.141 101.229C369.141 132.099 344.125 157.135 313.271 157.135C299.458 157.135 286.818 152.115 277.062 143.802C283.318 146.484 289.839 147.969 296.635 148.26C327.458 149.604 353.547 125.688 354.891 94.8438C355.672 76.9375 347.943 60.6302 335.286 49.8333Z" fill="white"/>
<path d="M281.995 90.9323L288.328 71.4323L271.75 83.4844H292.24L275.667 71.4323L281.995 90.9323Z" fill="white"/>
<path d="M281.995 62.1719L288.328 42.6771L271.75 54.7292H292.24L275.667 42.6771L281.995 62.1719Z" fill="white"/>
<path d="M310.391 76.9115L316.719 57.4115L300.146 69.4635H320.63L304.057 57.4115L310.391 76.9115Z" fill="white"/>
<path d="M253.604 104.953L259.932 85.4531L243.359 97.5052H263.849L247.271 85.4531L253.604 104.953Z" fill="white"/>
<path d="M281.995 119.688L288.328 100.193L271.75 112.24H292.24L275.667 100.193L281.995 119.688Z" fill="white"/>
<path d="M81.7 0H202.94V450H81.7V0Z" fill="#D22730"/>
<path d="M81.7031 -29.6719V-25.2656L88.5208 -18.8802L86.224 -16.7396L91.099 -12.2188L88.9583 -10.2708V-13.0885H84.7969V-9.71875L94.1927 -0.911461H98.9479L99.4635 -4.00521H96.7292L99.7031 -6.78125L107.156 -2.93041e-06L99.7031 6.82291L96.7292 4.04687H99.4635L98.9479 0.911455H94.1927L84.7969 9.71875V13.0885H88.9583V10.276L91.099 12.2187L86.224 16.7396L88.5208 18.9219L81.7031 25.2656V29.6719L93.2396 18.9219L90.9427 16.7396L95.776 12.2187L91.6146 8.32812L94.3906 5.79166L99.7031 10.7083L111.354 -2.93041e-06L99.7031 -10.7083L94.3906 -5.75L91.6146 -8.32813L95.776 -12.2188L90.9427 -16.7396L93.2396 -18.8802L81.7031 -29.6719ZM81.7031 -8.29167V8.29166L84.401 5.55208V2.33854H87.2552L89.5521 -2.93041e-06L87.2552 -2.30209H84.401V-5.55209L81.7031 -8.29167ZM101.365 -2.42188L100.969 -0.156253L101.365 2.14062L103.823 -0.156253L101.365 -2.42188Z" fill="#383739"/>
<path d="M81.7031 -29.1927V-25.7031L89 -18.8802L86.6979 -16.7396L91.5729 -12.2188L88.6406 -9.47917V-12.7708H85.1146V-9.83855L94.349 -1.22917H98.6302L99.0677 -3.6875H95.8958L99.7031 -7.26042L107.63 -3.58047e-06L99.7031 7.26041L95.8958 3.72916H99.0677L98.6302 1.22916H94.349L85.1094 9.83854V12.7708H88.6406V9.47916L91.5729 12.2187L86.6979 16.7396L88.9948 18.9219L81.7031 25.7031V29.1927L92.7604 18.9219L90.4635 16.7396L95.2969 12.2187L91.1354 8.32812L94.3854 5.3125L99.6979 10.2708L110.839 -3.58047e-06L99.6979 -10.2708L94.3906 -5.31771L91.1354 -8.32813L95.3021 -12.2188L90.4635 -16.7396L92.7656 -18.8802L81.7031 -29.1927ZM81.7031 -7.8125V7.8125L84.0833 5.43229V1.98437H87.1354L89.1198 -3.58047e-06L87.1354 -1.98438H84.0833V-5.4323L81.7031 -7.8125ZM101.604 -1.78646L101.328 -0.156254L101.604 1.46875L103.349 -0.156254L101.604 -1.78646Z" fill="#FFC72C"/>
<path d="M81.7031 52.1146V56.5156L88.5208 62.901L86.224 65.0469L91.099 69.5677L88.9583 71.5104V68.6927H84.7969V72.0677L94.1927 80.8698H98.9479L99.4635 77.776H96.7292L99.7031 75L107.156 81.7865L99.7031 88.6042L96.7292 85.8281H99.4635L98.9479 82.6979H94.1927L84.7969 91.5V94.875H88.9583V92.0573L91.099 94L86.224 98.5208L88.5208 100.703L81.7031 107.052V111.453L93.2396 100.703L90.9427 98.5208L95.776 94L91.6146 90.1146L94.3906 87.5729L99.7031 92.4948L111.354 81.7865L99.7031 71.0729L94.3906 76.0312L91.6146 73.4531L95.776 69.5677L90.9427 65.0469L93.2396 62.901L81.7031 52.1146ZM81.7031 73.4948V90.0729L84.401 87.3385V84.125H87.2552L89.5521 81.7865L87.2552 79.4844H84.401V76.2292L81.7031 73.4948ZM101.365 79.3646L100.969 81.625L101.365 83.9271L103.823 81.625L101.365 79.3646Z" fill="#383739"/>
<path d="M81.7031 52.5885V56.0781L89 62.901L86.6979 65.0469L91.5729 69.5677L88.6406 72.3021V69.0104H85.1146V71.9479L94.349 80.5521H98.6302L99.0677 78.0937H95.8958L99.7031 74.526L107.63 81.7865L99.7031 89.0417L95.8958 85.5104H99.0677L98.6302 83.0156H94.349L85.1094 91.6198V94.5573H88.6406V91.2656L91.5729 94L86.6979 98.5208L88.9948 100.703L81.7031 107.49V110.979L92.7604 100.703L90.4635 98.5208L95.2969 94L91.1354 90.1146L94.3854 87.099L99.6979 92.0573L110.839 81.7865L99.6979 71.5104L94.3906 76.4687L91.1354 73.4531L95.3021 69.5677L90.4635 65.0469L92.7656 62.901L81.7031 52.5885ZM81.7031 73.9687V89.599L84.0833 87.2187V83.7656H87.1354L89.1198 81.7865L87.1354 79.8021H84.0833V76.349L81.7031 73.9687ZM101.604 80L101.328 81.625L101.604 83.25L103.349 81.625L101.604 80Z" fill="#FFC72C"/>
<path d="M81.7031 136.589V140.99L88.5208 147.375L86.224 149.521L91.099 154.042L88.9583 155.984V153.167H84.7969V156.542L94.1927 165.344H98.9479L99.4635 162.25H96.7292L99.7031 159.474L107.156 166.255L99.7031 173.078L96.7292 170.302H99.4635L98.9479 167.172H94.1927L84.7969 175.974V179.349H88.9583V176.531L91.099 178.474L86.224 182.995L88.5208 185.177L81.7031 191.526V195.927L93.2396 185.177L90.9427 182.995L95.776 178.474L91.6146 174.589L94.3906 172.047L99.7031 176.969L111.354 166.255L99.7031 155.547L94.3906 160.505L91.6146 157.927L95.776 154.042L90.9427 149.521L93.2396 147.375L81.7031 136.589ZM81.7031 157.969V174.547L84.401 171.813V168.599H87.2552L89.5521 166.255L87.2552 163.958H84.401V160.703L81.7031 157.969ZM101.365 163.839L100.969 166.099L101.365 168.401L103.823 166.099L101.365 163.839Z" fill="#383739"/>
<path d="M81.7031 137.062V140.552L89 147.375L86.6979 149.521L91.5729 154.042L88.6406 156.776V153.484H85.1146V156.422L94.349 165.026H98.6302L99.0677 162.568H95.8958L99.7031 159L107.63 166.255L99.7031 173.516L95.8958 169.984H99.0677L98.6302 167.49H94.349L85.1094 176.094V179.031H88.6406V175.74L91.5729 178.474L86.6979 182.995L88.9948 185.177L81.7031 191.958V195.453L92.7604 185.177L90.4635 182.995L95.2969 178.474L91.1354 174.589L94.3854 171.573L99.6979 176.531L110.839 166.255L99.6979 155.984L94.3906 160.943L91.1354 157.927L95.3021 154.042L90.4635 149.521L92.7656 147.375L81.7031 137.062ZM81.7031 158.443V174.073L84.0833 171.693V168.24H87.1354L89.1198 166.255L87.1354 164.276H84.0833V160.823L81.7031 158.443ZM101.604 164.474L101.328 166.099L101.604 167.724L103.349 166.099L101.604 164.474Z" fill="#FFC72C"/>
<path d="M81.7031 221.057V225.464L88.5208 231.849L86.224 233.99L91.099 238.51L88.9583 240.458V237.641H84.7969V241.01L94.1927 249.818H98.9479L99.4635 246.724H96.7292L99.7031 243.948L107.156 250.729L99.7031 257.552L96.7292 254.776H99.4635L98.9479 251.641H94.1927L84.7969 260.448V263.818H88.9583V261.005L91.099 262.948L86.224 267.469L88.5208 269.651L81.7031 275.995V280.401L93.2396 269.651L90.9427 267.469L95.776 262.948L91.6146 259.063L94.3906 256.521L99.7031 261.438L111.354 250.729L99.7031 240.021L94.3906 244.979L91.6146 242.401L95.776 238.516L90.9427 233.99L93.2396 231.849L81.7031 221.057ZM81.7031 242.438V259.021L84.401 256.281V253.073H87.2552L89.5521 250.729L87.2552 248.427H84.401V245.177L81.7031 242.438ZM101.365 248.313L100.969 250.573L101.365 252.87L103.823 250.573L101.365 248.313Z" fill="#383739"/>
<path d="M81.7031 221.536V225.026L89 231.849L86.6979 233.99L91.5729 238.51L88.6406 241.25V237.958H85.1146V240.896L94.349 249.5H98.6302L99.0677 247.042H95.8958L99.7031 243.469L107.63 250.729L99.7031 257.99L95.8958 254.458H99.0677L98.6302 251.958H94.349L85.1094 260.568V263.5H88.6406V260.208L91.5729 262.948L86.6979 267.469L88.9948 269.651L81.7031 276.432V279.922L92.7604 269.651L90.4635 267.469L95.2969 262.948L91.1354 259.063L94.3854 256.047L99.6979 261L110.839 250.729L99.6979 240.458L94.3906 245.417L91.1354 242.401L95.3021 238.516L90.4635 233.99L92.7656 231.849L81.7031 221.536ZM81.7031 242.917V258.547L84.0833 256.161V252.714H87.1354L89.1198 250.729L87.1354 248.745H84.0833V245.297L81.7031 242.917ZM101.604 248.943L101.328 250.573L101.604 252.198L103.349 250.573L101.604 248.943Z" fill="#FFC72C"/>
<path d="M81.7031 305.531V309.938L88.5208 316.323L86.224 318.464L91.099 322.984L88.9583 324.927V322.115H84.7969V325.484L94.1927 334.292H98.9479L99.4635 331.193H96.7292L99.7031 328.417L107.156 335.203L99.7031 342.026L96.7292 339.245H99.4635L98.9479 336.115H94.1927L84.7969 344.922V348.292H88.9583V345.474L91.099 347.417L86.224 351.943L88.5208 354.125L81.7031 360.469V364.87L93.2396 354.125L90.9427 351.943L95.776 347.417L91.6146 343.531L94.3906 340.995L99.7031 345.911L111.354 335.203L99.7031 324.495L94.3906 329.448L91.6146 326.87L95.776 322.984L90.9427 318.464L93.2396 316.323L81.7031 305.531ZM81.7031 326.911V343.49L84.401 340.755V337.542H87.2552L89.5521 335.203L87.2552 332.901H84.401V329.651L81.7031 326.911ZM101.365 332.781L100.969 335.042L101.365 337.344L103.823 335.042L101.365 332.781Z" fill="#383739"/>
<path d="M81.7031 306.01V309.5L89 316.318L86.6979 318.464L91.5729 322.984L88.6406 325.724V322.427H85.1146V325.365L94.349 333.974H98.6302L99.0677 331.51H95.8958L99.7031 327.943L107.63 335.203L99.7031 342.458L95.8958 338.932H99.0677L98.6302 336.432H94.349L85.1094 345.036V347.974H88.6406V344.682L91.5729 347.417L86.6979 351.943L88.9948 354.12L81.7031 360.906V364.396L92.7604 354.12L90.4635 351.943L95.2969 347.417L91.1354 343.531L94.3854 340.516L99.6979 345.474L110.839 335.203L99.6979 324.927L94.3906 329.885L91.1354 326.87L95.3021 322.984L90.4635 318.464L92.7656 316.323L81.7031 306.01ZM81.7031 327.385V343.016L84.0833 340.635V337.188H87.1354L89.1198 335.203L87.1354 333.219H84.0833V329.766L81.7031 327.385ZM101.604 333.417L101.328 335.042L101.604 336.672L103.349 335.042L101.604 333.417Z" fill="#FFC72C"/>
<path d="M202.948 -29.6719V-25.2656L196.13 -18.8802L198.432 -16.7396L193.552 -12.2188L195.693 -10.2708V-13.0885H199.859V-9.71875L190.464 -0.911461H185.703L185.187 -4.00521H187.927L184.953 -6.78125L177.5 -2.93041e-06L184.953 6.82291L187.927 4.04687H185.187L185.703 0.911455H190.464L199.854 9.71875V13.0885H195.693V10.276L193.552 12.2187L198.427 16.7396L196.13 18.9219L202.948 25.2656V29.6719L191.411 18.9219L193.714 16.7396L188.875 12.2187L193.036 8.32812L190.266 5.79166L184.953 10.7083L173.297 -2.93041e-06L184.953 -10.7083L190.266 -5.75L193.036 -8.32813L188.875 -12.2188L193.714 -16.7396L191.411 -18.8802L202.948 -29.6719ZM202.948 -8.29167V8.29166L200.255 5.55208V2.33854H197.401L195.099 -2.93041e-06L197.401 -2.30209H200.255V-5.55209L202.948 -8.29167ZM183.286 -2.42188L183.682 -0.156253L183.286 2.14062L180.828 -0.156253L183.286 -2.42188Z" fill="#383739"/>
<path d="M202.948 -29.1927V-25.7031L195.656 -18.8802L197.953 -16.7396L193.078 -12.2188L196.01 -9.47917V-12.7708H199.542V-9.83855L190.302 -1.22917H186.021L185.589 -3.6875H188.755L184.953 -7.26042L177.026 -3.58047e-06L184.953 7.26041L188.755 3.72916H185.589L186.021 1.22916H190.302L199.542 9.83854V12.7708H196.016V9.47916L193.078 12.2187L197.958 16.7396L195.656 18.9219L202.948 25.7031V29.1927L191.891 18.9219L194.187 16.7396L189.354 12.2187L193.516 8.32812L190.266 5.3125L184.953 10.2708L173.812 -3.58047e-06L184.953 -10.2708L190.266 -5.31771L193.516 -8.32813L189.354 -12.2188L194.187 -16.7396L191.891 -18.8802L202.948 -29.1927ZM202.948 -7.8125V7.8125L200.573 5.43229V1.98437H197.521L195.536 -3.58047e-06L197.521 -1.98438H200.573V-5.4323L202.948 -7.8125ZM183.047 -1.78646L183.328 -0.156254L183.047 1.46875L181.307 -0.156254L183.047 -1.78646Z" fill="#FFC72C"/>
<path d="M202.948 52.1146V56.5156L196.13 62.901L198.432 65.0469L193.552 69.5677L195.693 71.5104V68.6927H199.859V72.0677L190.464 80.8698H185.703L185.187 77.776H187.927L184.953 75L177.5 81.7865L184.953 88.6042L187.927 85.8281H185.187L185.703 82.6979H190.464L199.854 91.5V94.875H195.693V92.0573L193.552 94L198.427 98.5208L196.13 100.703L202.948 107.052V111.453L191.411 100.703L193.714 98.5208L188.875 94L193.036 90.1146L190.266 87.5729L184.953 92.4948L173.297 81.7865L184.953 71.0729L190.266 76.0312L193.036 73.4531L188.875 69.5677L193.714 65.0469L191.411 62.901L202.948 52.1146ZM202.948 73.4948V90.0729L200.255 87.3385V84.125H197.401L195.099 81.7865L197.401 79.4844H200.255V76.2292L202.948 73.4948ZM183.286 79.3646L183.682 81.625L183.286 83.9271L180.828 81.625L183.286 79.3646Z" fill="#383739"/>
<path d="M202.948 52.5885V56.0781L195.656 62.901L197.953 65.0469L193.078 69.5677L196.01 72.3021V69.0104H199.542V71.9479L190.302 80.5521H186.021L185.589 78.0937H188.755L184.953 74.526L177.026 81.7865L184.953 89.0417L188.755 85.5104H185.589L186.021 83.0156H190.302L199.542 91.6198V94.5573H196.016V91.2656L193.078 94L197.958 98.5208L195.656 100.703L202.948 107.49V110.979L191.891 100.703L194.187 98.5208L189.354 94L193.516 90.1146L190.266 87.099L184.953 92.0573L173.812 81.7865L184.953 71.5104L190.266 76.4687L193.516 73.4531L189.354 69.5677L194.187 65.0469L191.891 62.901L202.948 52.5885ZM202.948 73.9687V89.599L200.573 87.2187V83.7656H197.521L195.536 81.7865L197.521 79.8021H200.573V76.349L202.948 73.9687ZM183.047 80L183.328 81.625L183.047 83.25L181.307 81.625L183.047 80Z" fill="#FFC72C"/>
<path d="M202.948 136.589V140.99L196.13 147.375L198.432 149.521L193.552 154.042L195.693 155.984V153.167H199.859V156.542L190.464 165.344H185.703L185.187 162.25H187.927L184.953 159.474L177.5 166.255L184.953 173.078L187.927 170.302H185.187L185.703 167.172H190.464L199.854 175.974V179.349H195.693V176.531L193.552 178.474L198.427 182.995L196.13 185.177L202.948 191.526V195.927L191.411 185.177L193.714 182.995L188.875 178.474L193.036 174.589L190.266 172.047L184.953 176.969L173.297 166.255L184.953 155.547L190.266 160.505L193.036 157.927L188.875 154.042L193.714 149.521L191.411 147.375L202.948 136.589ZM202.948 157.969V174.547L200.255 171.813V168.599H197.401L195.099 166.255L197.401 163.958H200.255V160.703L202.948 157.969ZM183.286 163.839L183.682 166.099L183.286 168.401L180.828 166.099L183.286 163.839Z" fill="#383739"/>
<path d="M202.948 137.062V140.552L195.656 147.375L197.953 149.521L193.078 154.042L196.01 156.776V153.484H199.542V156.422L190.302 165.026H186.021L185.589 162.568H188.755L184.953 159L177.026 166.255L184.953 173.516L188.755 169.984H185.589L186.021 167.49H190.302L199.542 176.094V179.031H196.016V175.74L193.078 178.474L197.958 182.995L195.656 185.177L202.948 191.958V195.453L191.891 185.177L194.187 182.995L189.354 178.474L193.516 174.589L190.266 171.573L184.953 176.531L173.812 166.255L184.953 155.984L190.266 160.943L193.516 157.927L189.354 154.042L194.187 149.521L191.891 147.375L202.948 137.062ZM202.948 158.443V174.073L200.573 171.693V168.24H197.521L195.536 166.255L197.521 164.276H200.573V160.823L202.948 158.443ZM183.047 164.474L183.328 166.099L183.047 167.724L181.307 166.099L183.047 164.474Z" fill="#FFC72C"/>
<path d="M202.948 221.057V225.464L196.13 231.849L198.432 233.99L193.552 238.51L195.693 240.458V237.641H199.859V241.01L190.464 249.818H185.703L185.187 246.724H187.927L184.953 243.948L177.5 250.729L184.953 257.552L187.927 254.776H185.187L185.703 251.641H190.464L199.854 260.448V263.818H195.693V261.005L193.552 262.948L198.427 267.469L196.13 269.651L202.948 275.995V280.401L191.411 269.651L193.714 267.469L188.875 262.948L193.036 259.063L190.266 256.521L184.953 261.438L173.297 250.729L184.953 240.021L190.266 244.979L193.036 242.401L188.875 238.516L193.714 233.99L191.411 231.849L202.948 221.057ZM202.948 242.438V259.021L200.255 256.281V253.073H197.401L195.099 250.729L197.401 248.427H200.255V245.177L202.948 242.438ZM183.286 248.313L183.682 250.573L183.286 252.87L180.828 250.573L183.286 248.313Z" fill="#383739"/>
<path d="M202.948 221.536V225.026L195.656 231.849L197.953 233.99L193.078 238.51L196.01 241.25V237.958H199.542V240.896L190.302 249.5H186.021L185.589 247.042H188.755L184.953 243.469L177.026 250.729L184.953 257.99L188.755 254.458H185.589L186.021 251.958H190.302L199.542 260.568V263.5H196.016V260.208L193.078 262.948L197.958 267.469L195.656 269.651L202.948 276.432V279.922L191.891 269.651L194.187 267.469L189.354 262.948L193.516 259.063L190.266 256.047L184.953 261L173.812 250.729L184.953 240.458L190.266 245.417L193.516 242.401L189.354 238.516L194.187 233.99L191.891 231.849L202.948 221.536ZM202.948 242.917V258.547L200.573 256.161V252.714H197.521L195.536 250.729L197.521 248.745H200.573V245.297L202.948 242.917ZM183.047 248.943L183.328 250.573L183.047 252.198L181.307 250.573L183.047 248.943Z" fill="#FFC72C"/>
<path d="M202.948 305.531V309.938L196.13 316.323L198.432 318.464L193.552 322.984L195.693 324.927V322.115H199.859V325.484L190.464 334.292H185.703L185.187 331.193H187.927L184.953 328.417L177.5 335.203L184.953 342.026L187.927 339.245H185.187L185.703 336.115H190.464L199.854 344.922V348.292H195.693V345.474L193.552 347.417L198.427 351.943L196.13 354.125L202.948 360.469V364.87L191.411 354.125L193.714 351.943L188.875 347.417L193.036 343.531L190.266 340.995L184.953 345.911L173.297 335.203L184.953 324.495L190.266 329.448L193.036 326.87L188.875 322.984L193.714 318.464L191.411 316.323L202.948 305.531ZM202.948 326.911V343.49L200.255 340.755V337.542H197.401L195.099 335.203L197.401 332.901H200.255V329.651L202.948 326.911ZM183.286 332.781L183.682 335.042L183.286 337.344L180.828 335.042L183.286 332.781Z" fill="#383739"/>
<path d="M202.948 306.01V309.5L195.656 316.318L197.953 318.464L193.078 322.984L196.01 325.724V322.427H199.542V325.365L190.302 333.974H186.021L185.589 331.51H188.755L184.953 327.943L177.026 335.203L184.953 342.458L188.755 338.932H185.589L186.021 336.432H190.302L199.542 345.036V347.974H196.016V344.682L193.078 347.417L197.958 351.943L195.656 354.12L202.948 360.906V364.396L191.891 354.12L194.187 351.943L189.354 347.417L193.516 343.531L190.266 340.516L184.953 345.474L173.812 335.203L184.953 324.927L190.266 329.885L193.516 326.87L189.354 322.984L194.187 318.464L191.891 316.323L202.948 306.01ZM202.948 327.385V343.016L200.573 340.635V337.188H197.521L195.536 335.203L197.521 333.219H200.573V329.766L202.948 327.385ZM183.047 333.417L183.328 335.042L183.047 336.672L181.307 335.042L183.047 333.417Z" fill="#FFC72C"/>
<path d="M91.5417 397.531C92.1406 400.078 94.1667 402.005 94.651 404.651C95.6146 401.896 96.5104 399.583 95.8437 396.563C95.3646 394.401 93.5521 392.865 93.3385 390.646C91.3594 392.427 90.9375 394.948 91.5417 397.531ZM91.0364 408.219C92.7187 410.521 95.0521 412.292 97.625 413.469C97.1198 411.448 98.0729 409.932 99.1302 408.328C100.401 406.401 101.021 404.51 99.9844 402.286C99.5 403.443 98.8489 404.401 98.0885 405.391C96.9583 406.927 96.2187 408.297 96.0469 410.271C94.7396 409.302 94.1667 407.859 93.4687 406.464C92.4062 404.458 90.6927 402.786 88.7239 401.693C89.2448 403.938 89.651 406.313 91.0364 408.219ZM100.453 415.083C100.094 416.365 99.7864 417.63 99.8542 418.969C98.7448 417.771 97.2708 416.87 95.9583 415.911C94.1667 414.458 92.0833 413.438 90.6198 411.594C90.8385 414.307 92 416.521 94.2031 418.172C96.5312 419.917 99.3437 420.854 101.635 422.688C101.292 420.219 102.198 418.245 102.974 415.974C103.615 413.807 102.995 411.604 101.521 409.953C101.547 411.781 100.969 413.354 100.453 415.083ZM105.682 423.422C106.161 425.292 107.505 426.818 108.422 428.49C105.953 427.719 103.771 426.38 101.542 425.12C98.8854 423.672 95.9948 422.75 93.5885 420.839C94.7864 425.276 97.7552 427.849 102.099 429.156C105.068 430.057 107.568 429.609 111.172 431.063C110.76 428.625 110.031 425.99 108.875 423.792C107.984 422.198 106.99 420.63 106.437 418.875C105.635 420.318 105.26 421.781 105.682 423.422ZM114.766 430.208C115.615 431.677 116.734 432.896 118.13 433.859C114.625 434.083 111.802 431.865 108.385 431.766C106.276 431.708 104.271 432.365 102.12 432.167C104.677 433.891 107.349 435.396 110.458 435.797C114.5 436.323 118.229 435.302 122.687 435.703C120.604 434.229 119.562 432.26 118.26 430.141C116.573 427.495 114.974 425.609 111.682 425.188C113.005 426.672 113.776 428.51 114.766 430.214V430.208ZM127.214 436.031C121.036 437.083 115.12 438.443 108.818 438.505C115.875 440.969 122.526 441.411 129.526 438.87C133.307 437.495 136.208 436.76 139.068 436.964C143.245 437.266 148.318 438.911 153.932 444.839L156.141 443.073C148.094 435.896 137.557 434.271 127.214 436.031Z" fill="#FFC72C"/>
<path d="M96.875 52.6771L87.1562 46.7135V32.3854L96.875 26.4219V18.8437L106.052 13.3073H113.391L127.344 5.45312H157.307L171.266 13.3073H178.599L187.781 18.8437V26.4219L197.495 32.3854V46.7135L187.781 52.6771V60.2604L178.599 65.7917H171.266L157.307 73.6458H127.344L113.391 65.7917H106.052L96.875 60.2604V52.6771Z" fill="#383739"/>
<path d="M127.411 5.79166L113.458 13.6458H106.161L97.2031 19.0365V26.6146L87.4896 32.5677V46.526L97.2031 52.4792V60.0937L106.125 65.4896H113.458L127.411 73.3437H157.219L171.172 65.4896H178.51L187.469 60.0937V52.4792L197.177 46.526V32.5677L187.469 26.6146V19.0365L178.51 13.6458H171.172L157.219 5.79166H127.411ZM128.245 8.6875H156.427L170.38 16.5417H177.677L184.453 20.625V28.2031L194.208 34.151V44.9427L184.453 50.8906V58.4687L177.677 62.5521H170.38L156.427 70.4062H128.245L114.292 62.5521H106.995L100.177 58.4687V50.8906L90.4635 44.9427V34.151L100.177 28.2031V20.625L106.995 16.5417H114.292L128.245 8.6875Z" fill="#00843D"/>
<path d="M142.167 39.7083V9H128.318L114.359 16.8542H107.083L100.5 20.8177V28.3854L90.7864 34.3437V39.3906H142.49V70.099H156.339L170.297 62.2448H177.573L184.151 58.2812V50.7135L193.87 44.7552V39.7083H142.167Z" fill="#FFC72C"/>
<path d="M90.7864 39.7083V44.7552L100.5 50.7135V58.2812L107.083 62.2448H114.359L128.312 70.099H142.167V39.3906H193.865V34.3437L184.151 28.3854V20.8177L177.568 16.8542H170.292L156.339 9H142.484V39.7083H90.7864Z" fill="white"/>
<path d="M111.979 19.6823L109.589 17.4531L107.219 18.9115L109.615 21.1458L106.536 23.0521H113.25L119.036 28.5156L120.885 26.5573L115.26 21.25V17.6458L111.979 19.6823Z" fill="#383739"/>
<path d="M123.297 18.7031L120.906 16.4687L118.536 17.9323L120.932 20.1667L117.854 22.0729H124.568L130.354 27.5365L132.203 25.5781L126.578 20.2708V16.6667L123.297 18.7031ZM111.146 26.0885L108.755 23.8594L106.385 25.3177L108.781 27.5521L105.708 29.4635H112.422L118.203 34.9219L120.052 32.9687L114.432 27.6562V24.0521L111.146 26.0885Z" fill="#383739"/>
<path d="M142.328 8.67708H136.271L133.099 11.7344H126.922L122.354 14.1042L123.422 16.7031L127.49 14.5625H129.276L135.516 21.7865L142.328 17.6354V8.67708Z" fill="#383739"/>
<path d="M109.547 17.8542L111.698 19.8542L109.896 20.974L107.745 18.9635L109.547 17.8542ZM114.937 18.224V21.3906L120.432 26.5729L119.021 28.0625L113.375 22.7344H107.661L114.937 18.224ZM120.865 16.875L123.016 18.875L121.214 19.9948L119.062 17.9844L120.865 16.875ZM126.26 17.2448V20.4062L131.75 25.5937L130.339 27.0833L124.698 21.7552H118.984L126.26 17.2448Z" fill="#D22730"/>
<path d="M108.719 24.2604L110.865 26.2656L109.068 27.3802L106.911 25.375L108.719 24.2604ZM114.109 24.6302V27.7969L119.599 32.9792L118.193 34.4687L112.547 29.1406H106.833L114.109 24.6302ZM142.167 9H136.396L133.229 12.0573H127L122.76 14.2552L123.583 16.2552L127.411 14.2396H129.422L135.583 21.3698L142.167 17.3594V9Z" fill="#D22730"/>
<path d="M111.979 59.4167L109.589 61.651L107.219 60.1875L109.615 57.9531L106.536 56.0469H113.25L119.036 50.5885L120.885 52.5417L115.26 57.849V61.4531L111.979 59.4167Z" fill="#383739"/>
<path d="M123.297 60.401L120.906 62.6302L118.536 61.1667L120.932 58.9323L117.854 57.026H124.568L130.354 51.5677L132.203 53.5208L126.578 58.8281V62.4323L123.297 60.401ZM111.146 53.0104L108.755 55.2448L106.385 53.7812L108.781 51.5469L105.708 49.6354H112.422L118.203 44.1771L120.052 46.1354L114.432 51.4427V55.0469L111.146 53.0104Z" fill="#383739"/>
<path d="M142.328 70.4219H136.271L133.099 67.3646H126.922L122.354 64.9948L123.422 62.3958L127.49 64.5365H129.276L135.516 57.3125L142.328 61.4635V70.4219Z" fill="#383739"/>
<path d="M109.547 61.25L111.698 59.2448L109.896 58.1302L107.745 60.1354L109.547 61.25ZM114.937 60.875V57.7135L120.432 52.5312L119.021 51.0365L113.375 56.3646H107.661L114.937 60.875ZM120.865 62.2292L123.016 60.224L121.214 59.1094L119.062 61.1146L120.865 62.2292ZM126.26 61.8594V58.6927L131.75 53.5104L130.339 52.0156L124.698 57.3437H118.984L126.26 61.8594Z" fill="#D22730"/>
<path d="M108.719 54.8437L110.865 52.8385L109.068 51.7187L106.911 53.7292L108.719 54.8437ZM114.109 54.4687V51.3073L119.599 46.1198L118.193 44.6302L112.547 49.9583H106.833L114.109 54.4687ZM142.167 70.099H136.396L133.229 67.0469H127L122.76 64.8437L123.583 62.8437L127.411 64.8594H129.422L135.583 57.7292L142.167 61.7396V70.099Z" fill="#D22730"/>
<path d="M107.943 29.7396L105.052 28.6615L104.984 28.7083L101.255 31.2969V31.9948L95.2812 39.5521L101.255 47.1094V47.8021L105.052 50.4375L107.943 49.3594L106.177 48.1927V45.9687L106.88 45.1302H110.01V33.9687H106.88L106.177 33.1302V30.9062L107.943 29.7396Z" fill="#383739"/>
<path d="M101.578 31.4635L105.099 29.0156L107.24 29.8177L105.859 30.7344V33.2448L106.729 34.2865H109.687V44.8125H106.729L105.859 45.8542V48.3646L107.24 49.2812L105.099 50.0833L101.578 47.6354V46.9948L95.6927 39.5521L101.578 32.1042V31.4635Z" fill="#D22730"/>
<path d="M172.672 19.6823L175.068 17.4531L177.437 18.9115L175.042 21.1458L178.115 23.0521H171.401L165.62 28.5156L163.766 26.5573L169.391 21.25V17.6458L172.672 19.6823Z" fill="#383739"/>
<path d="M161.354 18.7031L163.745 16.4687L166.115 17.9323L163.719 20.1667L166.797 22.0729H160.083L154.297 27.5365L152.448 25.5781L158.073 20.2708V16.6667L161.354 18.7031ZM173.505 26.0885L175.896 23.8594L178.266 25.3177L175.87 27.5521L178.948 29.4635H172.234L166.448 34.9219L164.599 32.9687L170.224 27.6562V24.0521L173.505 26.0885Z" fill="#383739"/>
<path d="M142.328 8.67708H148.385L151.552 11.7344H157.729L162.297 14.1042L161.229 16.7031L157.161 14.5625H155.375L149.135 21.7865L142.328 17.6354V8.67708Z" fill="#383739"/>
<path d="M175.104 17.8542L172.958 19.8542L174.755 20.974L176.911 18.9635L175.104 17.8542ZM169.714 18.224V21.3906L164.219 26.5729L165.63 28.0625L171.276 22.7344H176.99L169.714 18.224ZM163.786 16.875L161.635 18.875L163.437 19.9948L165.589 17.9844L163.786 16.875ZM158.391 17.2448V20.4062L152.901 25.5937L154.312 27.0833L159.953 21.7552H165.672L158.391 17.2448Z" fill="#D22730"/>
<path d="M175.932 24.2604L173.786 26.2656L175.589 27.3802L177.74 25.375L175.932 24.2604ZM170.542 24.6302V27.7969L165.052 32.9792L166.458 34.4687L172.104 29.1406H177.818L170.542 24.6302ZM142.484 9H148.255L151.422 12.0573H157.651L161.891 14.2552L161.068 16.2552L157.24 14.2396H155.229L149.068 21.3698L142.484 17.3594V9Z" fill="#D22730"/>
<path d="M172.672 59.4167L175.068 61.651L177.437 60.1875L175.042 57.9531L178.115 56.0469H171.401L165.62 50.5885L163.766 52.5417L169.391 57.849V61.4531L172.672 59.4167Z" fill="#383739"/>
<path d="M161.354 60.401L163.745 62.6302L166.115 61.1667L163.719 58.9323L166.797 57.026H160.083L154.297 51.5677L152.448 53.5208L158.073 58.8281V62.4323L161.354 60.401ZM173.505 53.0104L175.896 55.2448L178.266 53.7812L175.87 51.5469L178.948 49.6354H172.234L166.448 44.1771L164.599 46.1354L170.224 51.4427V55.0469L173.505 53.0104Z" fill="#383739"/>
<path d="M142.328 70.4219H148.385L151.552 67.3646H157.729L162.297 64.9948L161.229 62.3958L157.161 64.5365H155.375L149.135 57.3125L142.328 61.4635V70.4219Z" fill="#383739"/>
<path d="M175.104 61.25L172.958 59.2448L174.755 58.1302L176.911 60.1354L175.104 61.25ZM169.714 60.875V57.7135L164.219 52.5312L165.63 51.0365L171.276 56.3646H176.99L169.714 60.875ZM163.786 62.2292L161.635 60.224L163.437 59.1094L165.589 61.1146L163.786 62.2292ZM158.391 61.8594V58.6927L152.901 53.5104L154.312 52.0156L159.953 57.3437H165.672L158.391 61.8594Z" fill="#D22730"/>
<path d="M175.932 54.8437L173.786 52.8385L175.589 51.7187L177.74 53.7292L175.932 54.8437ZM170.542 54.4687V51.3073L165.052 46.1198L166.458 44.6302L172.104 49.9583H177.818L170.542 54.4687ZM142.484 70.099H148.255L151.422 67.0469H157.651L161.891 64.8437L161.068 62.8437L157.24 64.8594H155.229L149.068 57.7292L142.484 61.7396V70.099Z" fill="#D22730"/>
<path d="M176.708 29.7396L179.599 28.6615L179.667 28.7083L183.396 31.2969V31.9948L189.37 39.5521L183.396 47.1094V47.8021L179.599 50.4375L176.708 49.3594L178.474 48.1927V45.9687L177.771 45.1302H174.646V33.9687H177.771L178.474 33.1302V30.9062L176.708 29.7396Z" fill="#383739"/>
<path d="M183.078 31.4635L179.552 29.0156L177.411 29.8177L178.792 30.7344V33.2448L177.922 34.2865H174.964V44.8125H177.922L178.792 45.8542V48.3646L177.411 49.2812L179.552 50.0833L183.078 47.6354V46.9948L188.958 39.5521L183.073 32.1042L183.078 31.4635Z" fill="#D22730"/>
<path d="M102.812 45.8958L101.187 44.4844V43.8073L97.6979 39.5521L101.187 35.2917V34.6146L102.812 33.2083L105.734 35.5833L104.047 35.5677L106.542 38.099H112.229L116.708 34.599V25.3594H127.906L140.906 17.375V15.2812L138.917 13.9583H138.286L136.12 15.4062L135.786 16.4896L134.094 14.1719L137.385 11.4062H137.911L141.625 8.67708H143.026L146.74 11.4062H147.266L150.557 14.1719L148.865 16.4896L148.531 15.4062L146.365 13.9583H145.734L143.745 15.2812V17.375L156.75 25.3594H167.943V34.599L172.417 38.099H178.109L180.604 35.5677L178.917 35.5833L181.839 33.2083L183.464 34.6146V35.2917L186.953 39.5521L183.464 43.8073V44.4844L181.839 45.8958L178.917 43.5156L180.604 43.5312L178.109 41H172.422L167.943 44.5052V53.7396H156.75L143.745 61.724V63.8177L145.734 65.1406H146.365L148.531 63.6927L148.865 62.6094L150.557 64.9271L147.266 67.6927H146.74L143.026 70.4219H141.625L137.911 67.6927H137.385L134.089 64.9271L135.786 62.6094L136.12 63.6927L138.286 65.1458H138.917L140.906 63.8177V61.724L127.901 53.7396H116.708V44.5L112.229 41H106.542L104.047 43.5312L105.734 43.5156L102.812 45.8958Z" fill="#383739"/>
<path d="M142.484 65.3906L143.906 66.4792L142.484 67.5677V65.3906ZM137.964 67.375H138.016L141.729 70.099H142.167V67.974L140.214 66.4792L142.167 64.9896V60.9948L128.25 52.4479H117.969V43.8646L112.656 39.7083H104.646L102.635 41.9896L100.62 39.7083H98.2448L101.505 43.6927V44.3385L102.802 45.4635L104.875 43.8437L103.656 43.8542V43.4479L106.375 40.6771H112.344L117.026 44.349V53.4167H127.995L141.224 61.5417V63.9896L139.016 65.4635H138.187L135.849 63.8958L135.667 63.3125L134.526 64.8698L137.5 67.3698H137.964V67.375ZM102.635 37.599L104.224 39.3906H101.052L102.635 37.599ZM142.167 11.5312L140.745 12.6198L142.167 13.7083V11.5312ZM180.427 39.7083L182.016 41.5052L183.599 39.7083H180.427ZM146.635 11.7292L142.922 9H142.484V11.125L144.437 12.6198L142.484 14.1094V18.1094L156.401 26.651H166.682V35.2344L171.995 39.3906H180L182.016 37.1146L184.026 39.3906H186.406L183.141 35.4062V34.7604L181.849 33.6354L179.776 35.2552L180.995 35.2448V35.651L178.276 38.4219H172.307L167.625 34.7552V25.6771H156.656L143.427 17.5521V15.1094L145.635 13.6354H146.464L148.802 15.2031L148.984 15.7812L150.125 14.224L147.151 11.724H146.635V11.7292Z" fill="#FFC72C"/>
<path d="M142.167 67.5677L140.745 66.4792L142.167 65.3906V67.5677ZM104.224 39.7083L102.635 41.5052L101.052 39.7083H104.224ZM146.687 67.375H146.635L142.922 70.099H142.484V67.974L144.437 66.4792L142.484 64.9896V60.9948L156.401 52.4479H166.682V43.8646L171.995 39.7083H180L182.016 41.9896L184.026 39.7083H186.406L183.141 43.6927V44.3385L181.849 45.4635L179.776 43.8437L180.995 43.8542V43.4479L178.276 40.6771H172.307L167.625 44.349V53.4219H156.656L143.427 61.5417V63.9896L145.635 65.4635H146.464L148.802 63.8958L148.984 63.3125L150.125 64.875L147.151 67.3698H146.687V67.375ZM182.016 37.599L180.427 39.3906H183.599L182.016 37.599ZM138.016 11.7292L141.729 9H142.167V11.125L140.214 12.6198L142.167 14.1094V18.1094L128.255 26.651H117.969V35.2344L112.661 39.3906H104.651L102.635 37.1146L100.62 39.3906H98.2448L101.51 35.4062V34.7604L102.802 33.6406L104.875 35.2552L103.656 35.2448V35.651L106.375 38.4219H112.344L117.031 34.7552V25.6823H127.995L141.224 17.5573V15.1094L139.016 13.6354H138.187L135.849 15.2031L135.672 15.7865L134.526 14.2292L137.5 11.7292H138.016ZM142.484 13.7083L143.911 12.6198L142.484 11.5312V13.7083Z" fill="white"/>
<path d="M142.167 39.7083V18.4844L128.344 26.9687H118.286V35.3906L113.177 39.3906H142.484V60.6146L156.307 52.1302H166.365V43.7083L171.474 39.7083H142.167Z" fill="#00843D"/>
<path d="M113.177 39.7083L118.286 43.7083V52.1302H128.344L142.167 60.6146V39.3906H171.474L166.365 35.3906V26.9687H156.307L142.484 18.4844V39.7083H113.177Z" fill="#D22730"/>
<path d="M127.448 29.2552L125.057 27.026L122.687 28.4844L125.083 30.7187L122.005 32.6302H128.719L134.505 38.0885L136.354 36.1302L130.729 30.8229V27.2187L127.448 29.2552ZM157.203 49.8437L159.594 52.0781L161.964 50.6146L159.568 48.3802L162.646 46.474H155.932L150.146 41.0104L148.297 42.9687L153.922 48.276V51.8802L157.203 49.8437ZM127.448 49.8437L125.057 52.0781L122.687 50.6146L125.083 48.3802L122.005 46.474H128.719L134.505 41.0104L136.354 42.9687L130.729 48.276V51.8802L127.448 49.8437ZM157.203 29.2552L159.594 27.026L161.964 28.4844L159.568 30.7187L162.646 32.6302H155.932L150.146 38.0885L148.297 36.1302L153.922 30.8229V27.2187L157.203 29.2552Z" fill="#383739"/>
<path d="M159.635 51.6771L157.484 49.6719L159.286 48.5521L161.437 50.5625L159.635 51.6771ZM154.24 51.3021V48.1406L148.75 42.9531L150.161 41.4635L155.802 46.7917H161.521L154.24 51.3021ZM125.016 27.4219L127.167 29.4271L125.365 30.5469L123.214 28.5365L125.016 27.4219ZM130.411 27.7969V30.9583L135.901 36.1458L134.49 37.6354L128.849 32.3073H123.13L130.411 27.7969Z" fill="#D22730"/>
<path d="M159.635 27.4219L157.484 29.4271L159.286 30.5469L161.437 28.5365L159.635 27.4219ZM154.24 27.7969V30.9583L148.75 36.1458L150.161 37.6354L155.802 32.3073H161.521L154.24 27.7969ZM125.016 51.6771L127.167 49.6719L125.365 48.5521L123.214 50.5625L125.016 51.6771ZM130.411 51.3021V48.1406L135.901 42.9531L134.49 41.4635L128.849 46.7917H123.13L130.411 51.3021Z" fill="#00843D"/>
<path d="M157.187 39.5521L142.328 49.4635L127.464 39.5521L142.328 29.6406L157.187 39.5521Z" fill="#383739"/>
<path d="M142.167 30.1302L128.281 39.3906H156.37L142.484 30.1302V48.9687L156.37 39.7083H128.281L142.167 48.9687V30.1302Z" fill="white"/>
<path d="M146.302 42.9583V45.6823H138.354V42.9583H133.208V36.1406H138.354V33.4167H146.302V36.1406H151.443V42.9583H146.302Z" fill="#383739"/>
<path d="M138.672 33.7344V36.4635H133.531V39.3906H142.167V33.7344H138.672ZM142.484 39.3906H151.125V36.4635H145.979V33.7344H142.484V39.3906ZM133.531 39.7083V42.6406H138.672V45.3646H142.167V39.7083H133.531ZM142.49 45.3646H145.979V42.6406H151.125V39.7083H142.49V45.3646Z" fill="#D22730"/>
<path d="M167.682 152.479V148.115H179.646V143.75H191.615V104.297H179.646V99.9323H167.682V95.5625H155.719V91.1979H128.937V95.5625H116.969V99.9323H105.005V104.297H93.0364V143.75H105.005V148.115H116.969V152.479H128.937V156.849H155.714V152.479H167.682Z" fill="#383739"/>
<path d="M129.276 91.5104V95.8698H117.302V100.234H105.328V104.599H93.3594V143.432H105.328V147.797H117.302V152.156H129.276V156.521H155.396V152.156H167.37V147.797H179.344V143.432H191.312V104.599H179.344V100.234H167.37V95.8698H155.396V91.5104H129.276ZM132.443 94.6823H152.224V99.0469H164.198V103.411H176.172V107.771H188.141V140.26H176.172V144.62H164.198V148.984H152.224V153.349H132.443V148.984H120.474V144.62H108.5V140.26H96.5312V107.771H108.5V103.411H120.474V99.0469H132.448L132.443 94.6823Z" fill="#FFC72C"/>
<path d="M120.781 148.667V144.302H108.812V139.937H96.8489V108.109H108.812V103.745H120.781V99.375H132.745V95.0104H151.906V99.375H163.875V103.745H175.839V108.109H187.807V139.937H175.839V144.302H163.875V148.667H151.906V153.036H132.745V148.667H120.781Z" fill="#D22730"/>
<path d="M123.557 102.609L120.458 100.266V104.766L117.49 106.651L117.484 103.833L114.635 106.396L111.792 103.833L111.781 106.651L108.495 104.562V108.734L105.833 110.661L105.828 108.104L102.672 110.391L99.5156 108.104L99.5052 110.661L96.526 108.505V121.146H93.0364V126.901H96.526V139.542L99.5052 137.385L99.5156 139.943L102.672 137.656L105.828 139.943L105.833 137.385L108.495 139.307V143.484L111.781 141.391L111.792 144.208L114.635 141.651L117.484 144.208L117.49 141.391L120.458 143.281V147.781L123.557 145.437L123.568 148.578L126.604 145.865L129.641 148.578L129.646 145.437L132.427 147.536V152.339L136.578 148.552V153.005L142.328 149.307L148.073 153.005V148.552L152.229 152.339V147.536L155.005 145.437L155.016 148.578L158.052 145.865L161.089 148.578L161.094 145.437L164.193 147.781V143.281L167.161 141.391L167.172 144.208L170.016 141.651L172.865 144.208L172.87 141.391L176.161 143.484V139.307L178.818 137.385L178.828 139.943L181.984 137.656L185.141 139.943L185.146 137.385L188.125 139.542V126.901H191.615V121.146H188.125V108.5L185.146 110.661L185.141 108.099L181.984 110.391L178.823 108.099L178.818 110.661L176.161 108.734V104.562L172.87 106.651L172.865 103.833L170.016 106.391L167.172 103.833L167.161 106.651L164.193 104.766V100.266L161.094 102.609L161.089 99.4635L158.052 102.182L155.01 99.4635L155.005 102.609L152.229 100.505V95.7031L148.073 99.4948V95.0417L142.328 98.7396L136.578 95.0417V99.4948L132.427 95.7031V100.505L129.646 102.609L129.641 99.4635L126.604 102.182L123.562 99.4635L123.557 102.609Z" fill="#383739"/>
<path d="M99.8229 111.286L99.8333 108.729L102.672 110.786L102.766 110.719L105.51 108.729L105.516 111.286L108.495 109.13V138.911L105.516 136.755L105.51 139.318L102.672 137.26L99.8333 139.318L99.8229 136.755L96.849 138.911V126.578H93.3594V121.469H96.849V109.13L99.8229 111.286ZM123.885 100.182L126.604 102.615L129.323 100.182L129.328 103.25L132.427 100.911V147.135L129.328 144.792L129.323 147.865L126.604 145.432L123.885 147.865L123.88 144.792L120.781 147.135V100.911L123.88 103.255L123.885 100.182ZM160.771 100.182L158.052 102.615L155.333 100.182L155.323 103.25L152.229 100.911V147.135L155.323 144.792L155.333 147.865L158.052 145.432L160.771 147.865L160.776 144.792L163.875 147.135V100.911L160.776 103.255L160.771 100.182ZM184.828 111.286L184.823 108.729L181.979 110.786L181.885 110.719L179.141 108.729L179.135 111.286L176.161 109.13V138.911L179.135 136.755L179.141 139.318L181.979 137.26L184.823 139.318L184.828 136.755L187.802 138.911V126.578H191.292V121.469H187.802V109.13L184.828 111.286Z" fill="#00843D"/>
<path d="M112.109 104.552L114.635 106.823L117.167 104.552L117.172 107.234L120.458 105.146V142.901L117.172 140.807L117.167 143.49L114.635 141.219L112.109 143.49L112.099 140.807L108.812 142.901V105.146L112.099 107.234L112.109 104.552ZM136.901 100.224L132.745 96.4323V151.615L136.901 147.823V152.417L142.328 148.927L147.75 152.417V147.823L151.906 151.615V96.4323L147.75 100.224V95.6302L142.328 99.1198L136.901 95.6302V100.224ZM172.542 104.552L170.016 106.823L167.49 104.552L167.479 107.234L164.193 105.146V142.901L167.484 140.807L167.49 143.49L170.016 141.219L172.542 143.49L172.552 140.807L175.839 142.901V105.146L172.552 107.234L172.542 104.552Z" fill="#FFC72C"/>
<path d="M101.38 118.599C101.745 118.964 102.177 119.151 102.672 119.151C103.161 119.151 103.599 118.964 103.964 118.599C105.099 117.453 105.135 115.38 105.125 113.891L103.573 115.531L102.672 113.969C102.672 113.969 101.932 115.245 101.766 115.531L100.219 113.891C100.203 115.38 100.245 117.453 101.38 118.599ZM113.865 115.391L112.906 114.432V112.526L110.708 114.563L114.635 118.495L118.568 114.563L116.37 112.526V114.432L115.411 115.391V112.01L117.104 110.552L114.635 108.432L112.167 110.552L113.865 112.01V115.391ZM125.828 111.599L124.87 110.641V108.734L122.672 110.776L126.604 114.708L130.531 110.776L128.333 108.734V110.641L127.375 111.599V108.219L129.073 106.766L126.604 104.641L124.13 106.766L125.828 108.219V111.599Z" fill="#383739"/>
<path d="M102.672 114.609L103.51 116.063L104.792 114.708C104.745 116.396 104.375 117.724 103.734 118.37C103.432 118.677 103.078 118.828 102.672 118.828C102.266 118.828 101.911 118.677 101.609 118.375C100.964 117.724 100.594 116.396 100.552 114.708L101.828 116.063L102.672 114.609ZM127.057 108.073V112.375L128.656 110.776V109.469L130.073 110.786L126.604 114.255L123.135 110.786L124.552 109.469V110.776L126.151 112.375V108.073L124.625 106.766L126.604 105.068L128.578 106.766L127.057 108.073Z" fill="white"/>
<path d="M115.089 111.865V116.167L116.687 114.562V113.26L118.104 114.573L114.635 118.042L111.167 114.573L112.583 113.26V114.562L114.182 116.167V111.865L112.661 110.552L114.635 108.854L116.615 110.552L115.089 111.865Z" fill="#D22730"/>
<path d="M183.271 118.599C182.911 118.964 182.474 119.151 181.984 119.151C181.49 119.151 181.057 118.964 180.693 118.599C179.557 117.453 179.516 115.38 179.526 113.891L181.078 115.531L181.984 113.969C181.984 113.969 182.719 115.245 182.885 115.531L184.437 113.891C184.448 115.38 184.411 117.453 183.271 118.599ZM170.792 115.391L171.75 114.432V112.526L173.948 114.563L170.016 118.495L166.089 114.563L168.286 112.526V114.432L169.24 115.391V112.01L167.547 110.552L170.016 108.432L172.484 110.552L170.792 112.01V115.391ZM158.828 111.599L159.781 110.641V108.734L161.979 110.776L158.052 114.708L154.12 110.776L156.318 108.734V110.641L157.276 111.599V108.219L155.583 106.766L158.052 104.641L160.521 106.766L158.828 108.219V111.599Z" fill="#383739"/>
<path d="M181.979 114.609L181.141 116.063L179.865 114.708C179.906 116.396 180.276 117.724 180.917 118.37C181.219 118.677 181.578 118.828 181.979 118.828C182.385 118.828 182.745 118.677 183.047 118.375C183.687 117.724 184.057 116.396 184.099 114.708L182.823 116.063L181.979 114.609ZM157.599 108.073V112.375L156 110.776V109.469L154.583 110.786L158.052 114.255L161.521 110.786L160.104 109.469V110.776L158.505 112.375V108.073L160.026 106.766L158.052 105.068L156.073 106.766L157.599 108.073Z" fill="white"/>
<path d="M169.562 111.865V116.167L167.964 114.562V113.26L166.547 114.573L170.016 118.042L173.484 114.573L172.068 113.26V114.562L170.469 116.167V111.865L171.995 110.552L170.016 108.854L168.036 110.552L169.562 111.865Z" fill="#D22730"/>
<path d="M147.031 113.036L145.745 111.255L149.042 108.203L145.964 105.672V107.469L144.677 108.568V105.318L147.583 103.172L142.323 99.2917L137.062 103.172L139.974 105.318V108.568L138.687 107.469V105.672L135.609 108.203L138.911 111.255L137.62 113.036H147.031Z" fill="#383739"/>
<path d="M138.25 112.714L139.333 111.214L136.099 108.219L138.365 106.354V107.615L140.297 109.266V105.156L137.604 103.172L142.328 99.6927L147.047 103.172L144.359 105.156V109.266L146.286 107.615V106.354L148.557 108.219L145.318 111.214L146.401 112.714H138.25Z" fill="#D22730"/>
<path d="M139.922 103.172L142.328 104.948L144.729 103.172L142.328 101.401L142.229 101.474L139.922 103.172Z" fill="#383739"/>
<path d="M142.328 101.802L144.187 103.172L142.328 104.547L140.464 103.172L142.328 101.802Z" fill="#00843D"/>
<path d="M101.38 129.448C101.745 129.078 102.177 128.896 102.672 128.896C103.161 128.896 103.599 129.078 103.964 129.448C105.099 130.594 105.135 132.661 105.125 134.156L103.573 132.516L102.672 134.073C102.672 134.073 101.932 132.802 101.766 132.516L100.219 134.156C100.203 132.661 100.245 130.594 101.38 129.448ZM113.865 132.656L112.906 133.615V135.521L110.708 133.479L114.635 129.547L118.568 133.479L116.37 135.521V133.615L115.411 132.656V136.031L117.104 137.49L114.635 139.615L112.167 137.49L113.865 136.031V132.656ZM125.828 136.443L124.87 137.401V139.307L122.672 137.271L126.604 133.339L130.531 137.271L128.333 139.307V137.401L127.375 136.443V139.823L129.073 141.281L126.604 143.401L124.13 141.281L125.828 139.823V136.443Z" fill="#383739"/>
<path d="M102.672 133.438L103.51 131.984L104.792 133.333C104.745 131.651 104.375 130.318 103.734 129.672C103.432 129.37 103.078 129.214 102.672 129.214C102.266 129.214 101.911 129.37 101.609 129.672C100.964 130.318 100.594 131.651 100.552 133.333L101.828 131.984L102.672 133.438ZM127.057 139.969V135.672L128.656 137.271V138.573L130.073 137.26L126.604 133.792L123.135 137.26L124.552 138.573V137.271L126.151 135.672V139.969L124.625 141.281L126.604 142.979L128.578 141.281L127.057 139.969Z" fill="white"/>
<path d="M115.089 136.182V131.88L116.687 133.479V134.786L118.104 133.474L114.635 130L111.167 133.474L112.583 134.786V133.479L114.182 131.88V136.182L112.661 137.49L114.635 139.188L116.615 137.49L115.089 136.182Z" fill="#D22730"/>
<path d="M183.271 129.448C182.911 129.078 182.474 128.896 181.984 128.896C181.49 128.896 181.057 129.078 180.693 129.448C179.557 130.594 179.516 132.661 179.526 134.156L181.078 132.516L181.984 134.073C181.984 134.073 182.719 132.802 182.885 132.516L184.437 134.156C184.448 132.661 184.411 130.594 183.271 129.448ZM170.792 132.656L171.75 133.615V135.521L173.948 133.479L170.016 129.547L166.089 133.479L168.286 135.521V133.615L169.24 132.656V136.031L167.547 137.49L170.016 139.615L172.484 137.49L170.792 136.031V132.656ZM158.828 136.443L159.781 137.401V139.307L161.979 137.271L158.052 133.339L154.12 137.271L156.318 139.307V137.401L157.276 136.443V139.823L155.583 141.281L158.052 143.401L160.521 141.281L158.828 139.823V136.443Z" fill="#383739"/>
<path d="M181.979 133.438L181.141 131.984L179.865 133.333C179.906 131.651 180.276 130.318 180.917 129.672C181.219 129.37 181.578 129.214 181.979 129.214C182.385 129.214 182.745 129.37 183.047 129.672C183.687 130.318 184.057 131.651 184.099 133.333L182.823 131.984L181.979 133.438ZM157.599 139.969V135.672L156 137.271V138.573L154.583 137.26L158.052 133.792L161.521 137.26L160.104 138.573V137.271L158.505 135.672V139.969L160.026 141.281L158.052 142.979L156.073 141.281L157.599 139.969Z" fill="white"/>
<path d="M169.562 136.182V131.88L167.964 133.479V134.786L166.547 133.474L170.016 130L173.484 133.474L172.068 134.786V133.479L170.469 131.88V136.182L171.995 137.49L170.016 139.188L168.036 137.49L169.562 136.182Z" fill="#D22730"/>
<path d="M147.031 135.01L145.745 136.792L149.042 139.839L145.964 142.37V140.578L144.677 139.474V142.729L147.583 144.87L142.323 148.75L137.062 144.87L139.974 142.729V139.474L138.687 140.578V142.37L135.609 139.839L138.911 136.792L137.62 135.01H147.031Z" fill="#383739"/>
<path d="M138.25 135.328L139.333 136.833L136.099 139.823L138.365 141.688V140.427L140.297 138.776V142.891L137.604 144.87L142.328 148.354L147.047 144.87L144.359 142.891V138.776L146.286 140.427V141.688L148.557 139.823L145.318 136.833L146.401 135.328H138.25Z" fill="#D22730"/>
<path d="M139.922 144.87L142.328 143.099L144.729 144.87L142.328 146.646L142.229 146.573L139.922 144.87Z" fill="#383739"/>
<path d="M142.328 146.245L144.187 144.87L142.328 143.495L140.464 144.87L142.328 146.245Z" fill="#00843D"/>
<path d="M184.917 122.182H179.646V120.083H163.547L152.344 112.714H132.312L121.104 120.083H105.005V122.182H99.7396V125.865H105.005V127.964H121.104L132.312 135.333H152.344L163.547 127.964H179.646V125.865H184.917V122.182Z" fill="#383739"/>
<path d="M132.406 113.047L121.187 120.385H105.328V122.49H100.057V125.542H105.328V127.646H121.187L132.406 135.021H152.266L163.443 127.646H179.339V125.542H184.615V122.49H179.339V120.385H163.443L152.266 113.047H132.406ZM132.646 114.12H151.99L162.255 120.859V121.891H173.714V126.177H162.255V127.208L151.99 133.911H132.646L122.417 127.208V126.177H110.922V121.891H122.417V120.859L132.646 114.12Z" fill="#D22730"/>
<path d="M151.906 114.448L161.922 121.026V122.198H173.396V125.849H161.922V127.016L151.906 133.594H132.745L122.729 127.016V125.849H111.255V122.193H122.729V121.026L132.745 114.448H151.906Z" fill="#D22730"/>
<path d="M127.771 127.76L132.109 131.016L134.958 128.875L133.302 127.625L132.109 128.526L131.089 127.76L147.417 115.495H144.099L127.771 127.76ZM137.234 132.552H140.552L156.88 120.286L152.542 117.031L149.693 119.172L151.349 120.417L152.542 119.521L153.562 120.286L137.234 132.552ZM144.099 132.552H147.417L131.089 120.286L132.109 119.521L133.302 120.417L134.958 119.172L132.109 117.031L127.771 120.286L144.099 132.552ZM153.562 127.76L152.542 128.526L151.349 127.625L149.693 128.875L152.542 131.016L156.88 127.76L140.552 115.495H137.234L153.562 127.76ZM124.49 124.021L127.401 125.958L130.318 124.021L127.401 122.089L124.49 124.021Z" fill="#383739"/>
<path d="M139.411 124.021L142.328 125.958L145.24 124.021L142.328 122.089L139.411 124.021ZM160.167 124.021L157.25 125.958L154.339 124.021L157.25 122.089L160.167 124.021Z" fill="#383739"/>
<path d="M156.344 127.76L152.547 130.615L150.224 128.875L151.349 128.031L152.547 128.927L154.099 127.76L138.198 115.812H140.443L156.344 127.76ZM146.453 132.229H144.208L128.307 120.286L132.109 117.432L134.427 119.172L133.302 120.016L132.109 119.12L130.552 120.286L146.453 132.229ZM140.443 132.229H138.198L154.099 120.286L152.547 119.12L151.349 120.016L150.224 119.172L152.547 117.432L156.344 120.286L140.443 132.229ZM144.208 115.812H146.453L130.552 127.76L132.109 128.927L133.302 128.031L134.427 128.875L132.109 130.615L128.307 127.76L144.208 115.812Z" fill="#FFC72C"/>
<path d="M127.401 122.474L129.734 124.021L127.401 125.573L125.068 124.026L127.401 122.474ZM142.328 122.474L144.661 124.021L142.328 125.573L139.995 124.026L142.328 122.474ZM157.25 122.474L154.917 124.021L157.25 125.573L159.583 124.026L157.25 122.474Z" fill="#00843D"/>
<path d="M91.0729 205.307L89.9271 206.927L91.9792 208.495L89.9271 210.063L91.0729 211.682L93.4531 211.958L95.7604 210.177L101.505 213.828V210.797L97.8906 208.495L101.505 206.198V203.161L95.7604 206.813L93.4531 205.031L91.0729 205.307Z" fill="#383739"/>
<path d="M91.0729 194.766L89.9271 196.385L91.9792 197.953L89.9271 199.521L91.0729 201.141L93.4531 201.417L95.7604 199.635L101.505 203.286V200.25L97.8906 197.953L101.505 195.651V192.62L95.7604 196.271L93.4531 194.49L91.0729 194.766ZM91.0729 222.224L89.9271 220.609L91.9792 219.036L89.9271 217.469L91.0729 215.854L93.4531 215.578L95.7604 217.359L101.505 213.703V216.74L97.8906 219.036L101.505 221.339V224.375L95.7604 220.719L93.4531 222.5L91.0729 222.224ZM193.583 205.307L194.724 206.927L192.677 208.495L194.724 210.063L193.583 211.682L191.203 211.958L188.896 210.177L183.146 213.828V210.797L186.766 208.495L183.146 206.198V203.161L188.896 206.813L191.198 205.031L193.583 205.307Z" fill="#383739"/>
<path d="M193.583 194.766L194.724 196.385L192.677 197.953L194.724 199.521L193.583 201.141L191.203 201.417L188.896 199.635L183.146 203.286V200.25L186.766 197.953L183.146 195.651V192.62L188.896 196.271L191.198 194.49L193.583 194.766ZM193.583 222.224L194.724 220.609L192.677 219.036L194.724 217.469L193.583 215.854L191.203 215.578L188.896 217.359L183.146 213.703V216.74L186.766 219.036L183.146 221.339V224.375L188.896 220.719L191.198 222.5L193.583 222.224ZM170.562 176.536V180.922H173.75V182.859H176.885V179.328H174.089V176.536H170.562ZM179.964 183.453V187.839H183.146V189.776H186.281V186.245H183.49V183.453H179.964ZM114.089 176.536V180.922H110.901V182.859H107.771V179.328H110.562V176.536H114.089ZM170.562 240.458V236.073H173.75V234.13H176.885V237.661H174.089V240.458H170.562ZM114.089 240.458V236.073H110.901V234.13H107.771V237.661H110.562V240.458H114.089ZM179.964 233.542V229.156H183.146V227.219H186.281V230.745H183.49V233.542H179.964ZM104.693 183.453V187.839H101.505V189.776H98.375V186.245H101.167V183.453H104.693ZM104.693 233.542V229.156H101.505V227.219H98.375V230.745H101.167V233.542H104.693ZM154.12 176.432L151.687 174.073L149.297 176.286L151.38 178.307L148.687 180.922H152.682L154.12 179.526L155.557 180.922H159.547L156.859 178.307L158.937 176.286L156.552 174.073C155.74 174.859 154.927 175.646 154.12 176.432ZM142.328 176.432L139.896 174.073L137.505 176.286L139.589 178.307L136.896 180.922H140.891L142.328 179.526L143.766 180.922H147.755L145.068 178.307L147.151 176.286L144.76 174.073C143.948 174.859 143.135 175.646 142.328 176.432ZM130.536 176.432L132.969 174.073L135.359 176.286L133.276 178.307L135.964 180.922H131.974L130.536 179.526L129.099 180.922H125.109L127.797 178.307L125.714 176.286L128.104 174.073C128.917 174.859 129.724 175.646 130.536 176.432ZM154.12 240.557L151.687 242.922L149.297 240.703L151.38 238.682L148.687 236.073H152.682L154.12 237.464L155.557 236.073H159.547L156.859 238.682L158.937 240.703L156.552 242.922C155.74 242.135 154.927 241.344 154.12 240.557ZM142.328 240.557L139.896 242.922L137.505 240.703L139.589 238.682L136.896 236.073H140.891L142.328 237.464L143.766 236.073H147.755L145.068 238.682L147.151 240.703L144.76 242.922C143.948 242.135 143.135 241.344 142.328 240.557ZM130.536 240.557L132.969 242.922L135.359 240.703L133.276 238.682L135.964 236.073H131.974L130.536 237.464L129.099 236.073H125.109L127.797 238.682L125.714 240.703L128.104 242.922C128.917 242.135 129.724 241.344 130.536 240.557Z" fill="#383739"/>
<path d="M101.187 210.974V213.245L95.7396 209.786L93.3594 211.625L91.25 211.38L90.3698 210.13L92.5052 208.495L90.3698 206.859L91.25 205.609L93.3594 205.365L95.7396 207.208L101.187 203.745V206.021L97.2917 208.495L101.187 210.974ZM101.187 200.427V202.703L95.7396 199.24L93.3594 201.083L91.25 200.839L90.3698 199.589L92.5052 197.953L90.3698 196.318L91.25 195.068L93.3594 194.823L95.7396 196.667L101.187 193.203V195.479L97.2917 197.953L101.187 200.427ZM101.187 216.563V214.286L95.7396 217.75L93.3594 215.911L91.25 216.156L90.3698 217.406L92.5052 219.042L90.3698 220.677L91.25 221.922L93.3594 222.167L95.7396 220.328L101.187 223.792V221.516L97.2917 219.042L101.187 216.563ZM183.469 210.974V213.245L188.911 209.786L191.292 211.625L193.401 211.38L194.286 210.13L192.146 208.495L194.286 206.859L193.401 205.609L191.292 205.365L188.911 207.208L183.469 203.745V206.021L187.365 208.495L183.469 210.974ZM183.469 200.427V202.703L188.911 199.24L191.292 201.083L193.401 200.839L194.286 199.589L192.146 197.953L194.286 196.318L193.401 195.068L191.292 194.823L188.911 196.667L183.469 193.203V195.479L187.365 197.953L183.469 200.427ZM183.469 216.563V214.286L188.911 217.75L191.292 215.911L193.401 216.156L194.286 217.406L192.146 219.042L194.286 220.677L193.401 221.922L191.292 222.167L188.911 220.328L183.469 223.792V221.516L187.365 219.042L183.469 216.563ZM173.771 176.859V179.651H176.562V182.536H174.073V180.599H170.885V176.859H173.771ZM183.167 183.771V186.568H185.958V189.453H183.469V187.516H180.281V183.771H183.167ZM110.885 176.859V179.651H108.089V182.536H110.583V180.599H113.771V176.859H110.885ZM173.771 240.135V237.339H176.562V234.453H174.073V236.391H170.885V240.135H173.771ZM110.885 240.135V237.339H108.089V234.453H110.578V236.391H113.771V240.135H110.885ZM183.167 233.219V230.427H185.958V227.536H183.469V229.474H180.281V233.219H183.167ZM101.484 183.771V186.568H98.6927V189.453H101.182V187.516H104.37V183.771H101.484ZM101.49 233.219V230.427H98.6927V227.536H101.182V229.474H104.375V233.219H101.49ZM151.682 174.516L154.12 176.88L156.557 174.516L158.474 176.292L156.396 178.307L158.755 180.599H155.687L154.12 179.078L152.552 180.599H149.479L151.839 178.307L149.76 176.292L151.682 174.516ZM139.891 174.516L142.328 176.88L144.766 174.516L146.682 176.292L144.604 178.307L146.964 180.599H143.891L142.328 179.078L140.76 180.599H137.687L140.047 178.307L137.969 176.292L139.891 174.516ZM132.974 174.516L130.536 176.88L128.099 174.516L126.182 176.292L128.255 178.307L125.901 180.599H128.969L130.536 179.078L132.104 180.599H135.172L132.818 178.307L134.896 176.292L132.974 174.516ZM151.682 242.479L154.12 240.109L156.557 242.479L158.474 240.698L156.396 238.682L158.755 236.391H155.687L154.12 237.911L152.552 236.391H149.479L151.839 238.682L149.76 240.698L151.682 242.479ZM139.891 242.479L142.328 240.109L144.766 242.479L146.682 240.698L144.604 238.682L146.964 236.391H143.891L142.328 237.911L140.76 236.391H137.687L140.047 238.682L137.969 240.698L139.891 242.479ZM132.974 242.479L130.536 240.109L128.099 242.479L126.182 240.698L128.255 238.682L125.901 236.391H128.969L130.536 237.911L132.104 236.391H135.172L132.818 238.682L134.896 240.698L132.974 242.479Z" fill="#00843D"/>
<path d="M110.578 229.474V236.391H174.073V229.474H183.464V187.516H174.073V180.599H110.578V187.516H101.187V229.474H110.578Z" fill="#383739"/>
<path d="M110.922 180.917V187.818H101.526V229.151H110.922V236.052H173.75V229.151H183.146V187.818H173.75V180.917H110.922ZM114.964 183.573H169.708V190.234L171.969 191.906H180.49V225.104H171.927L169.708 226.729V233.432H114.964V226.771L112.703 225.104H104.141V191.906H112.667L114.964 190.234V183.573Z" fill="#FFC72C"/>
<path d="M115.281 183.891V190L123.526 183.891H115.281ZM161.104 183.891L169.349 190V183.891H161.104ZM104.5 192.224V197.932L112.266 192.224H104.5ZM172.365 192.224L180.172 197.974V192.224H172.365ZM180.172 218.995L172.365 224.786H180.172V218.995ZM104.5 219.036V224.786H112.266L104.5 219.036ZM115.281 227.005V233.078H123.484L115.281 227.005ZM169.349 227.005L161.146 233.078H169.349V227.005Z" fill="#D22730"/>
<path d="M160.573 183.896L180.172 198.38V218.609L160.573 233.094H124.078L104.479 218.609V198.38L124.078 183.896H160.573Z" fill="#00843D"/>
<path d="M109.146 220.938L106.896 218.323L109.01 215.865L106.896 213.411L109.01 210.953L106.896 208.495L109.01 206.042L106.896 203.583L109.01 201.125L106.896 198.672L109.146 196.052H175.505L177.755 198.672L175.641 201.125L177.755 203.583L175.641 206.042L177.755 208.495L175.641 210.953L177.755 213.406L175.641 215.865L177.755 218.323L175.505 220.938H109.146ZM154.76 187.063L152.146 184.807L149.693 186.922L147.234 184.807L144.781 186.922L142.328 184.807L139.87 186.922L137.417 184.807L134.964 186.922L132.505 184.807L129.891 187.063V229.932L132.505 232.188L134.964 230.068L137.417 232.182L139.87 230.068L142.328 232.182L144.781 230.068L147.234 232.182L149.693 230.068L152.146 232.188L154.76 229.932V187.063Z" fill="#383739"/>
<path d="M149.531 187.208L147.234 185.229L144.943 187.208V229.781L147.234 231.76L149.531 229.781V187.208ZM139.708 187.208L137.417 185.229L135.12 187.208V229.781L137.417 231.76L139.708 229.781V187.208Z" fill="#FFC72C"/>
<path d="M109.297 220.62L107.318 218.323L109.297 216.026H175.359L177.333 218.323L175.359 220.62H109.297ZM175.359 206.198L177.333 208.495L175.359 210.792H109.297L107.318 208.495L109.297 206.198H175.359ZM175.359 200.969L177.333 198.672L175.359 196.375H109.297L107.318 198.672L109.297 200.969H175.359Z" fill="#FFC72C"/>
<path d="M154.443 187.208L152.146 185.229L149.854 187.208V229.781L152.146 231.76L154.437 229.781L154.443 187.208ZM134.802 187.208L132.505 185.229L130.214 187.208V229.781L132.505 231.76L134.802 229.781V187.208Z" fill="#D22730"/>
<path d="M109.297 215.703L107.318 213.406L109.297 211.115H175.359L177.333 213.406L175.359 215.703H109.297ZM109.297 205.88L107.318 203.583L109.297 201.286H175.359L177.333 203.583L175.359 205.88H109.297Z" fill="#D22730"/>
<path d="M144.62 229.781L142.328 231.76L140.031 229.781V187.208L142.328 185.229L144.62 187.208V229.781Z" fill="#D22730"/>
<path d="M164.505 188.036H119.99V191.578H114.297V225.417H119.99V228.953H164.667V225.417H170.354V191.578H164.667V188.036H164.505Z" fill="#383739"/>
<path d="M120.312 188.37V191.901H114.604V225.104H120.312V228.635H124.995L115.677 220.818V196.188L124.995 188.375H120.312V188.37ZM159.677 188.37L168.953 196.188V220.818L159.677 228.635H164.354V225.104H170.026V191.901H164.354V188.37H159.677Z" fill="#D22730"/>
<path d="M125.505 188.37L115.995 196.344V220.661C116.104 220.755 125.417 228.557 125.505 228.63H159.161L168.635 220.661V196.344L159.161 188.37H125.505ZM125.984 189.719H158.646L167.286 196.979V220.026L158.646 227.245H125.984L117.38 220.026V196.979L125.984 189.719Z" fill="#00843D"/>
<path d="M134.635 220.391L136.099 221.021L136.365 222.729L134.526 224.354L137.198 226.937H134.625L132.786 225.167L130.948 226.937H128.375L131.047 224.354L129.208 222.729L129.474 221.021L130.937 220.391L132.786 221.87L132.885 221.792L134.635 220.391ZM144.177 220.391L145.635 221.021L145.906 222.729L144.068 224.354L146.74 226.937H144.167L142.328 225.167L140.49 226.937H137.917L140.589 224.354L138.75 222.729L139.016 221.021L140.479 220.391L142.328 221.87L142.427 221.792L144.177 220.391ZM150.021 220.391L148.557 221.021L148.286 222.729L150.13 224.354L147.453 226.937H150.026L151.87 225.167L153.708 226.937H156.281L153.604 224.354L155.448 222.729L155.177 221.021L153.714 220.391L151.87 221.87L151.766 221.792L150.021 220.391ZM134.635 196.599L136.099 195.969L136.365 194.26L134.526 192.641L137.198 190.052H134.625L132.786 191.823L130.948 190.052H128.375L131.047 192.641L129.208 194.26L129.474 195.969L130.937 196.599L132.786 195.125L132.885 195.203L134.635 196.599ZM144.177 196.599L145.635 195.969L145.906 194.26L144.068 192.641L146.74 190.052H144.167L142.328 191.823L140.49 190.052H137.917L140.589 192.641L138.75 194.26L139.016 195.969L140.479 196.599L142.328 195.125L142.427 195.203L144.177 196.599ZM150.021 196.599L148.557 195.969L148.286 194.26L150.13 192.641L147.453 190.052H150.026L151.87 191.823L153.708 190.052H156.281L153.604 192.641L155.448 194.26L155.177 195.969L153.714 196.599L151.87 195.125L151.766 195.203L150.021 196.599ZM166.953 199.328L165.495 200.542L166.953 201.75V203.75L164.708 201.901L163.099 203.365L161.37 203.146L160.76 202.021L162.245 200.536L160.76 199.057L161.37 197.932C161.516 197.917 162.969 197.734 163.099 197.714L164.708 199.177L166.953 197.328V199.328ZM166.953 207.286L165.495 208.495L166.953 209.703V211.708L164.708 209.859L163.099 211.318C162.969 211.302 161.516 211.12 161.37 211.104L160.76 209.979L162.245 208.495L160.76 207.01L161.37 205.891C161.516 205.87 162.969 205.687 163.099 205.672L164.708 207.13L166.953 205.281V207.286ZM166.953 217.661L165.495 216.453L166.953 215.245V213.24L164.708 215.089L163.099 213.63L161.37 213.849L160.76 214.969L162.245 216.453L160.76 217.937L161.37 219.057C161.516 219.078 162.969 219.26 163.099 219.276L164.708 217.818L166.953 219.667V217.661ZM117.703 199.328L119.161 200.542L117.703 201.75V203.75L119.948 201.901L121.557 203.365L123.286 203.146L123.896 202.021L122.406 200.536L123.896 199.057L123.286 197.932C123.141 197.917 121.687 197.734 121.557 197.714L119.948 199.177L117.703 197.328V199.328ZM117.703 207.286L119.161 208.495L117.703 209.703V211.708L119.948 209.859L121.557 211.318C121.687 211.302 123.141 211.12 123.286 211.104L123.896 209.979L122.406 208.495L123.896 207.01L123.286 205.891C123.141 205.87 121.687 205.687 121.557 205.672L119.948 207.13L117.703 205.281V207.286ZM117.703 217.661L119.161 216.453L117.703 215.245V213.24L119.948 215.089L121.557 213.63L123.286 213.849L123.896 214.969L122.406 216.453L123.896 217.937L123.286 219.057C123.141 219.078 121.687 219.26 121.557 219.276L119.948 217.818L117.703 219.667V217.661Z" fill="#00843D"/>
<path d="M126.104 190.042C126.016 190.109 118.167 196.688 117.818 196.979C118.526 197.568 119.208 198.182 119.917 198.766C120.099 198.604 121.464 197.375 121.464 197.375L123.484 197.656L124.281 199.125L122.854 200.552C123.047 200.745 124.276 201.979 124.276 201.979L123.484 203.448L121.464 203.682C121.464 203.682 120.099 202.5 119.917 202.339L117.698 204.198V204.833C118.443 205.453 119.167 206.078 119.917 206.698C120.099 206.536 121.464 205.349 121.464 205.349L123.484 205.589L124.281 207.057L122.854 208.484C123.047 208.677 124.276 209.911 124.276 209.911L123.484 211.417L121.464 211.656C121.464 211.656 120.099 210.432 119.917 210.266L117.698 212.135V212.807L119.917 214.672C120.099 214.51 121.464 213.281 121.464 213.281L123.484 213.563L124.281 215.026L122.854 216.458L124.276 217.885L123.484 219.354L121.464 219.63C121.464 219.63 120.099 218.406 119.917 218.24C119.214 218.823 118.521 219.406 117.818 219.984L126.104 226.927H127.927L130.583 224.349L128.875 222.844L129.193 220.781L130.979 220.026L132.802 221.453L134.583 220.026L136.37 220.781L136.724 222.844L134.984 224.349L137.557 226.807L140.135 224.349L138.391 222.844L138.708 220.781L140.531 220.026L142.318 221.453L144.141 220.026L145.922 220.781L146.24 222.844L144.536 224.349L147.073 226.849L149.651 224.349L147.943 222.844L148.26 220.781L150.083 220.026L151.87 221.453L153.651 220.026L155.474 220.781L155.792 222.844L154.089 224.349L156.745 226.927H158.526L166.812 219.984C166.109 219.406 165.422 218.823 164.714 218.24C164.531 218.406 163.208 219.63 163.208 219.63L161.182 219.354L160.354 217.885L161.781 216.458L160.354 215.026L161.182 213.563L163.208 213.281C163.208 213.281 164.531 214.51 164.714 214.672L166.932 212.807V212.135L164.714 210.266C164.531 210.432 163.208 211.656 163.208 211.656L161.182 211.417L160.354 209.911L161.781 208.484L160.354 207.057L161.182 205.589L163.208 205.349C163.208 205.349 164.531 206.536 164.714 206.698C165.458 206.083 166.187 205.484 166.932 204.875V204.161L164.714 202.333C164.531 202.5 163.208 203.682 163.208 203.682L161.182 203.448L160.354 201.979L161.781 200.552L160.354 199.125L161.182 197.656L163.208 197.375C163.208 197.375 164.531 198.604 164.714 198.766C165.422 198.177 166.141 197.604 166.854 197.021L158.526 190.042H156.745L154.089 192.615L155.792 194.125L155.474 196.188L153.651 196.979L151.87 195.552L150.083 196.979L148.26 196.188L147.943 194.125L149.651 192.615L147.115 190.156L144.536 192.615L146.24 194.125L145.922 196.188L144.141 196.979L142.318 195.552L140.531 196.979L138.708 196.188L138.391 194.125L140.135 192.615L137.557 190.156L134.979 192.615L136.724 194.125L136.37 196.188L134.583 196.979L132.802 195.552L130.979 196.979L129.193 196.188L128.875 194.125L130.583 192.615L127.885 190.042H126.104ZM117.698 207.693V209.318L118.651 208.484L117.698 207.693Z" fill="#D22730"/>
<path d="M132.802 225.62L131.411 226.927H134.151L132.802 225.62ZM142.318 225.62L140.969 226.927H143.703L142.318 225.62ZM151.87 225.62L150.479 226.927H153.255L151.87 225.62ZM131.375 190.042L132.802 191.385L134.187 190.042H131.375ZM140.927 190.042L142.318 191.385L143.745 190.042H140.927ZM150.484 190.042L151.87 191.385L153.255 190.042H150.484ZM166.932 199.755L165.979 200.552L166.932 201.302V199.755ZM166.932 207.688L165.979 208.484L166.932 209.276V207.688ZM166.932 215.661L165.979 216.458L166.932 217.25V215.661ZM117.698 199.719V201.344L118.651 200.552L117.698 199.719ZM117.698 207.688V209.318L118.651 208.484L117.698 207.688ZM117.698 215.625V217.25L118.651 216.453L117.698 215.625Z" fill="white"/>
<path d="M150.484 205.839V203H147.615V199.885H137.036V203H134.167V205.839H130.203V211.151H134.167V213.99H137.036V217.104H147.615V213.995H150.484V211.151H154.453V205.839H150.484Z" fill="#383739"/>
<path d="M142.167 200.208V203.417L137.62 206V208.333H130.521V206.161H134.484V203.318H137.359V200.208H142.167ZM142.484 216.786V213.578L147.031 210.99V208.656H154.13V210.833H150.167V213.672H147.292V216.786H142.484Z" fill="#FFC72C"/>
<path d="M147.031 208.333V206L142.484 203.417V200.208H147.292V203.318H150.167V206.156H154.13V208.333H147.031ZM130.521 208.656H137.62V210.99L142.167 213.578V216.786H137.359V213.672H134.49V210.833H130.521V208.656Z" fill="white"/>
<path d="M137.943 208.656V210.818L142.167 213.224V208.656H137.943Z" fill="#D22730"/>
<path d="M142.167 203.771L137.943 206.172V208.333H142.167V203.771Z" fill="#00843D"/>
<path d="M146.714 208.333V206.172L142.49 203.771V208.333H146.714Z" fill="#D22730"/>
<path d="M142.484 213.224L146.714 210.818V208.656H142.484V213.224Z" fill="#00843D"/>
<path d="M103.896 264.906V273.682H95.5364V281.641H87.0677V304.297H95.5364V312.255H103.896V321.031H134.281L139.625 324.245L137.052 325.786H126.219L125.286 324.734H135.104L132.339 321.948H118.292L124.656 328.573H137.828L142.328 325.87L146.823 328.573H159.995L166.359 321.948H152.312L149.547 324.734H159.37L158.432 325.786H147.599L145.031 324.245L150.375 321.031H180.76V312.255H189.115V304.297H197.583V281.641H189.115V273.682H180.76V264.906H150.375L145.031 261.693L147.599 260.151H158.432L159.37 261.203H149.547L152.312 263.99H166.359L159.995 257.359H146.823L142.328 260.068L137.828 257.359H124.656L118.292 263.99H132.339L135.104 261.203H125.286L126.219 260.151H137.052L139.62 261.693L134.276 264.906H103.896Z" fill="#D22730"/>
<path d="M150.281 320.698H180.448V311.932H188.776V303.958H197.26V281.943H188.776V274.01H180.448V265.245H150.281L137.755 257.667H124.797L119.047 263.656H132.208L134.349 261.516H124.557L126.062 259.812H137.161L151.354 268.38H177.281V277.146H185.646V285.115H194.125V300.823H185.646V308.797H177.281V317.562H151.354L137.161 326.094H126.062L124.557 324.427H134.349L132.208 322.286H119.047L124.797 328.276H137.755L150.281 320.698ZM133.276 317.562H107.354V308.797H99.026V300.823H90.5417V285.115H99.026V277.146H107.354V268.38H133.276L147.51 259.812H158.568L160.073 261.516H150.323L152.464 263.656H165.625L159.875 257.667H146.917L134.391 265.245H104.224V274.01H95.8594V281.943H87.375V303.958H95.8594V311.932H104.224V320.698H134.391L146.917 328.276H159.875L165.625 322.286H152.464L150.323 324.427H160.073L158.568 326.094H147.51L133.276 317.562Z" fill="#FFC72C"/>
<path d="M174.766 306.26V315.036H150.667L142.328 320.052L133.984 315.036H109.885V306.26H101.531V298.302H93.0625V287.635H101.531V279.677H109.885V270.901H133.984L142.328 265.885L150.667 270.901H174.766V279.677H183.12V287.635H191.594V298.302H183.12V306.26H174.766Z" fill="#00843D"/>
<path d="M113.042 303.188V311.682H126.286L113.042 302.885V303.188ZM113.042 282.75V274.255H126.286L113.042 283.047V282.75ZM171.609 303.188V311.682H158.365L171.609 302.885V303.188ZM171.609 282.75V274.255H158.365L171.609 283.047V282.75Z" fill="#383739"/>
<path d="M113.365 303.484L125.224 311.359H113.365V303.484ZM113.365 282.453C113.823 282.146 124.417 275.115 125.224 274.578H113.365V282.453ZM171.292 303.484L159.427 311.359H171.292V303.484ZM171.292 282.453L159.427 274.578H171.292V282.453Z" fill="#D22730"/>
<path d="M129.937 290.641V286.302H128.458L121.365 281.865L121.281 281.917L114.276 286.302H112.797V290.641H109.464V295.297H112.797V299.635H114.276L121.365 304.073L128.458 299.635H129.937V295.297H135.016V290.641H129.937Z" fill="#383739"/>
<path d="M121.37 282.245L127.854 286.302H114.88L121.37 282.245ZM127.854 299.635L121.37 303.693L114.88 299.635H127.854ZM126.281 290.964V294.979H118.193V290.964H126.281Z" fill="#D22730"/>
<path d="M129.62 295.297V299.313H121.526V295.297H129.62ZM121.208 295.297V299.313H113.12V295.297H121.208ZM134.693 290.964V294.979H126.604V290.964H134.693ZM117.875 290.964V294.979H109.781V290.964H117.875ZM129.62 286.625V290.641H121.526V286.625H129.62ZM121.208 286.625V290.641H113.12V286.625H121.208Z" fill="#FFC72C"/>
<path d="M115.646 291.854V294.083H112.01V291.854H115.646ZM118.979 287.516V289.75H115.349V287.516H118.979ZM127.391 287.516V289.75H123.755V287.516H127.391ZM124.057 291.854V294.083H120.422V291.854H124.057ZM132.464 291.854V294.083H128.833V291.854H132.464ZM127.391 296.188V298.422H123.755V296.188H127.391ZM118.979 296.188V298.422H115.349V296.188H118.979Z" fill="#383739"/>
<path d="M115.302 292.198H112.354V293.74H115.302V292.198ZM118.635 287.859H115.687V289.406H118.635V287.859ZM127.047 287.859H124.099V289.406H127.047V287.859ZM123.714 292.198H120.766V293.74H123.714V292.198ZM132.125 292.198H129.177V293.74H132.125V292.198ZM127.047 296.531H124.099V298.078H127.047V296.531ZM118.635 296.531H115.687V298.078H118.635V296.531Z" fill="white"/>
<path d="M154.714 290.641V286.302H156.193L163.286 281.865L163.37 281.917L170.375 286.302H171.854V290.641H175.187V295.297H171.854V299.635H170.375L163.286 304.073L156.193 299.635H154.714V295.297H149.641V290.641H154.714Z" fill="#383739"/>
<path d="M163.286 282.245L156.797 286.302H169.771L163.286 282.245ZM156.797 299.635L163.286 303.693L169.771 299.635H156.797ZM158.37 290.964V294.979H166.458V290.964H158.37Z" fill="#D22730"/>
<path d="M155.036 295.297V299.313H163.125V295.297H155.036ZM163.443 295.297V299.313H171.536V295.297H163.443ZM149.958 290.964V294.979H158.047V290.964H149.958ZM166.781 290.964V294.979H174.87V290.964H166.781ZM155.036 286.625V290.641H163.125V286.625H155.036ZM163.443 286.625V290.641H171.536V286.625H163.443Z" fill="#FFC72C"/>
<path d="M169.005 291.854V294.083H172.641V291.854H169.005ZM165.672 287.516V289.75H169.307V287.516H165.672ZM157.26 287.516V289.75H160.896V287.516H157.26ZM160.599 291.854V294.083H164.229V291.854H160.599ZM152.187 291.854V294.083H155.823V291.854H152.187ZM157.26 296.188V298.422H160.896V296.188H157.26ZM165.672 296.188V298.422H169.307V296.188H165.672Z" fill="#383739"/>
<path d="M169.349 292.198H172.297V293.74H169.349V292.198ZM166.016 287.859H168.964V289.406H166.016V287.859ZM157.604 287.859H160.552V289.406H157.604V287.859ZM160.937 292.198H163.885V293.74H160.937V292.198ZM152.531 292.198H155.479V293.74H152.531V292.198ZM157.604 296.531H160.552V298.078H157.604V296.531ZM166.016 296.531H168.964V298.078H166.016V296.531Z" fill="white"/>
<path d="M150.896 283.396V287.729H149.417L142.328 292.167L142.24 292.115L135.234 287.734H133.755V283.396H129.552V278.74H133.755V274.401H135.234L142.328 269.964L149.417 274.401H150.896V278.74H155.099V283.396H150.896Z" fill="#383739"/>
<path d="M142.328 291.792L148.812 287.729H135.839L142.328 291.792ZM148.812 274.401L142.328 270.344L135.839 274.401H148.812Z" fill="#FFC72C"/>
<path d="M150.578 278.74V274.724H142.484V278.74H150.578ZM142.167 278.74V274.724H134.078V278.74H142.167ZM154.781 283.073V279.057H146.693V283.073H154.781ZM146.37 283.073V279.057H138.281V283.073H146.37ZM137.964 283.073V279.057H129.87V283.073H137.964ZM150.578 287.411V283.396H142.484V287.411H150.578ZM142.167 287.411V283.396H134.078V287.411H142.167Z" fill="#D22730"/>
<path d="M139.937 275.615V277.844H136.307V275.615H139.937ZM148.349 275.615V277.844H144.714V275.615H148.349ZM135.734 279.948V282.182H132.099V279.948H135.734ZM144.146 279.948V282.182H140.51V279.948H144.146ZM152.552 279.948V282.182H148.922V279.948H152.552ZM139.937 284.286V286.521H136.307V284.286H139.937ZM148.349 284.286V286.521H144.714V284.286H148.349Z" fill="#383739"/>
<path d="M139.594 275.953H136.646V277.5H139.594V275.953ZM148.005 275.953H145.057V277.5H148.005V275.953ZM135.391 280.292H132.443V281.839H135.391V280.292ZM143.802 280.292H140.854V281.839H143.802V280.292ZM152.214 280.292H149.26V281.839H152.214V280.292ZM139.594 284.63H136.646V286.177H139.594V284.63ZM148.005 284.63H145.057V286.177H148.005V284.63Z" fill="white"/>
<path d="M150.896 307.203V311.536H149.417L142.328 315.974L142.24 315.922L135.234 311.536H133.755V307.203H129.552V302.542H133.755V298.208H135.234L142.328 293.771L149.417 298.208H150.896V302.542H155.099V307.203H150.896Z" fill="#383739"/>
<path d="M142.328 315.594L148.812 311.536H135.839L142.328 315.594ZM148.812 298.208L142.328 294.146L135.839 298.208H148.812Z" fill="#FFC72C"/>
<path d="M150.578 302.542V298.526H142.484V302.542H150.578ZM142.167 302.542V298.526H134.078V302.542H142.167ZM154.781 306.88V302.865H146.693V306.88H154.781ZM146.37 306.88V302.865H138.281V306.88H146.37ZM137.964 306.88V302.865H129.87V306.88H137.964ZM150.578 311.219V307.198H142.484V311.219H150.578ZM142.167 311.219V307.198H134.078V311.219H142.167Z" fill="#D22730"/>
<path d="M139.937 299.417V301.651H136.307V299.417H139.937ZM148.349 299.417V301.651H144.714V299.417H148.349ZM135.734 303.755V305.99H132.099V303.755H135.734ZM144.146 303.755V305.99H140.51V303.755H144.146ZM152.552 303.755V305.99H148.922V303.755H152.552ZM139.937 308.094V310.323H136.307V308.094H139.937ZM148.349 308.094V310.323H144.714V308.094H148.349Z" fill="#383739"/>
<path d="M139.594 299.76H136.646V301.307H139.594V299.76ZM148.005 299.76H145.057V301.307H148.005V299.76ZM135.391 304.099H132.443V305.646H135.391V304.099ZM143.802 304.099H140.854V305.646H143.802V304.099ZM152.214 304.099H149.26V305.646H152.214V304.099ZM139.594 308.438H136.646V309.979H139.594V308.438ZM148.005 308.438H145.057V309.979H148.005V308.438Z" fill="white"/>
<path d="M96.4323 358.984L127.906 342.036H156.75L188.219 358.984V386.911L156.75 403.859H127.906L96.4323 386.911V358.984Z" fill="#383739"/>
<path d="M128.005 342.354L96.7656 359.177V386.703L128.005 403.521H156.667L187.906 386.703V359.177L156.667 342.354H128.005ZM128.557 344.615H156.109L185.682 360.521V385.396L156.109 401.297H128.542L98.9687 385.391V360.521L128.557 344.615Z" fill="#00843D"/>
<path d="M142.484 372.786V400.974H156.031L185.354 385.182V373.109H142.167V344.917H128.625L99.2969 360.708V372.786H142.484Z" fill="#FFC72C"/>
<path d="M142.167 372.786V400.974H128.625L99.2969 385.182V373.109H142.484V344.917H156.031L185.354 360.708V372.786H142.167Z" fill="white"/>
<path d="M144.958 399.396V391.25L142.328 392.922L139.693 391.25V399.396H131.505L137.031 395.344V389.557L128.604 384.208H122.714V361.688H128.604L137.031 356.339V350.552L131.505 346.5H139.693V354.646L142.328 352.974L144.958 354.646V346.5H153.146L147.62 350.552V356.339L156.047 361.688H161.937V384.208H156.047L147.62 389.557V395.344L153.146 399.396H144.958Z" fill="#383739"/>
<path d="M145.286 346.839V355.245L142.474 353.464V355.844L155.359 364.052H159.599V372.781H161.62V361.99H155.953L147.312 356.516V350.406L152.187 346.839H145.286ZM123.052 373.099V383.885H128.677L137.359 389.396V395.51L132.484 399.078H139.38V390.667L142.156 392.453V389.995L129.276 381.865H125.073V373.099H123.052Z" fill="#FFC72C"/>
<path d="M132.484 346.839L137.359 350.406V356.516L128.677 361.99H123.052V372.781H125.073V364.052H129.271L142.156 355.88V353.464L139.38 355.245V346.839H132.484ZM159.599 373.099V381.865H155.354L142.474 389.995V392.453L145.286 390.667V399.078H152.187L147.312 395.505V389.396L155.953 383.885H161.62V373.099H159.599Z" fill="white"/>
<path d="M125.38 381.526H129.375L142.328 389.75L155.281 381.526H159.276V364.365H155.281L142.328 356.141L129.375 364.365H125.38V381.526Z" fill="#D22730"/>
<path d="M151.292 377.026H154.057V375.714H151.979V373.333H156.422V379.406H152.161V383.547H143.385V377.599H147.25V379.979H145.75V381.167H149.797V378.891L133.359 368.87H130.594V370.177H132.672V372.557H128.229V366.49H132.49V362.349H141.266V368.297H137.401V365.917H138.901V364.729H134.854V367.005L151.292 377.026ZM149.797 367.005V364.729H145.75V365.917H147.25V368.297H143.385V362.349H152.161V366.49H156.422V372.557H151.979V370.177H154.057V368.87H151.292L134.854 378.891V381.167H138.896V379.974H137.401V377.599H141.266V383.547H132.49V379.406H128.229V373.333H132.672V375.714H130.594V377.026H133.359L149.797 367.005Z" fill="#383739"/>
<path d="M150.115 378.714V381.49H145.432V379.656H146.927V377.917H143.708V383.224H151.839V379.083H156.104V373.656H152.297V375.396H154.38V377.349H151.203L134.536 367.182V364.406H139.219V366.24H137.724V367.979H140.943V362.667H132.812V366.813H128.547V372.24H132.354V370.5H130.271V368.547H133.448L150.115 378.714ZM151.203 368.547H154.38V370.5H152.297V372.24H156.104V366.807H151.844V362.667H143.708V367.979H146.927V366.24H145.432V364.406H150.115V367.182L133.448 377.344H130.271V375.396H132.354V373.656H128.547V379.083H132.812V383.224H140.943V377.917H137.724V379.656H139.219V381.49H134.536V378.708L151.203 368.547Z" fill="white"/>
<path d="M179.031 374.359V383.167H175.286V380.057H171.51V383.167H167.766V374.359H171.51V377.469H175.286V374.359H179.031ZM165.63 386.052V394.859H161.88V391.75H158.104V394.859H154.359V386.052H158.104V389.161H161.88V386.052H165.63ZM179.031 371.536V362.724H175.286V365.839H171.51V362.724H167.766V371.536H171.51V368.422H175.286V371.536H179.031ZM105.62 374.359V383.167H109.365V380.057H113.141V383.167H116.891V374.359H113.141V377.469H109.365V374.359H105.62ZM105.62 371.536V362.724H109.365V365.839H113.141V362.724H116.891V371.536H113.141V368.422H109.365V371.536H105.62ZM165.63 359.844V351.031H161.88V354.146H158.104V351.031H154.359V359.844H158.104V356.729H161.88V359.844H165.63ZM119.026 386.052V394.859H122.771V391.75H126.547V394.859H130.292V386.052H126.547V389.161H122.771V386.052H119.026ZM119.026 359.844V351.031H122.771V354.146H126.547V351.031H130.292V359.844H126.547V356.729H122.771V359.844H119.026ZM167.865 353.667V360.359H180.286L167.865 353.667ZM116.792 392.224V385.536H104.37L116.792 392.224ZM116.792 353.667V360.359H104.37L116.792 353.667ZM167.865 392.224V385.536H180.286L167.865 392.224Z" fill="#383739"/>
<path d="M175.604 379.734V382.844H178.714V374.677H175.604V377.792H171.187V374.677H168.083V382.844H171.187V379.734H175.604ZM162.203 391.427V394.542H165.307V386.375H162.203V389.484H157.786V386.375H154.682V394.542H157.786V391.427H162.203ZM175.604 366.156V363.047H178.714V371.214H175.604V368.104H171.187V371.214H168.083V363.047H171.187V366.156H175.604ZM109.047 379.734V382.844H105.943V374.677H109.047V377.792H113.464V374.677H116.568V382.844H113.464V379.734H109.047ZM109.047 366.156V363.047H105.943V371.214H109.047V368.104H113.464V371.214H116.568V363.047H113.464V366.156H109.047ZM162.203 354.464V351.354H165.307V359.521H162.203V356.411H157.786V359.521H154.682V351.354H157.786V354.464H162.203ZM122.448 391.427V394.542H119.344V386.375H122.448V389.484H126.87V386.375H129.974V394.542H126.87V391.427H122.448ZM122.448 354.464V351.354H119.344V359.521H122.448V356.411H126.87V359.521H129.974V351.354H126.87V354.464H122.448Z" fill="#D22730"/>
<path d="M168.203 354.214V360.047H179.026L168.203 354.214ZM105.646 385.87L116.469 391.698V385.87H105.646Z" fill="#FFC72C"/>
<path d="M116.469 354.214L105.646 360.047H116.469V354.214ZM168.198 385.87V391.698L179.021 385.87H168.198Z" fill="white"/>
<path d="M193.141 397.531C192.547 400.078 190.516 402.005 190.036 404.651C189.068 401.896 188.177 399.583 188.839 396.563C189.318 394.401 191.13 392.865 191.344 390.646C193.323 392.427 193.75 394.948 193.141 397.531ZM193.646 408.219C191.969 410.521 189.635 412.292 187.057 413.469C187.562 411.448 186.609 409.932 185.557 408.328C184.281 406.401 183.661 404.51 184.698 402.286C185.182 403.443 185.833 404.401 186.594 405.391C187.724 406.927 188.464 408.297 188.641 410.271C189.943 409.302 190.516 407.859 191.214 406.464C192.276 404.458 193.99 402.786 195.958 401.693C195.437 403.938 195.036 406.313 193.646 408.219ZM184.229 415.083C184.589 416.365 184.901 417.63 184.828 418.969C185.937 417.771 187.411 416.87 188.724 415.911C190.516 414.458 192.599 413.438 194.062 411.594C193.844 414.307 192.687 416.521 190.479 418.172C188.151 419.917 185.344 420.854 183.047 422.688C183.391 420.219 182.484 418.245 181.714 415.974C181.068 413.807 181.693 411.604 183.161 409.953C183.141 411.781 183.714 413.354 184.229 415.083ZM179 423.422C178.521 425.292 177.177 426.818 176.266 428.49C178.734 427.719 180.911 426.38 183.141 425.12C185.802 423.672 188.687 422.75 191.094 420.839C189.896 425.276 186.927 427.849 182.583 429.156C179.615 430.057 177.115 429.609 173.51 431.063C173.927 428.625 174.651 425.99 175.807 423.792C176.703 422.198 177.693 420.63 178.245 418.875C179.047 420.318 179.427 421.781 179 423.422ZM169.917 430.208C169.068 431.677 167.948 432.896 166.552 433.859C170.057 434.083 172.88 431.865 176.297 431.766C178.406 431.708 180.411 432.365 182.562 432.167C180.01 433.891 177.333 435.396 174.224 435.797C170.182 436.323 166.453 435.302 161.995 435.703C164.078 434.229 165.12 432.26 166.422 430.141C168.115 427.495 169.708 425.609 173 425.188C171.677 426.672 170.911 428.51 169.917 430.214V430.208ZM157.469 436.031C163.646 437.083 169.562 438.443 175.87 438.505C168.807 440.969 162.156 441.411 155.156 438.87C151.375 437.495 148.474 436.76 145.615 436.964C141.437 437.266 136.365 438.911 130.75 444.839L128.542 443.073C136.594 435.896 147.125 434.271 157.469 436.031Z" fill="#FFC72C"/>
</g>
<defs>
<clipPath id="clip0_0_1">
<rect width="900" height="450" fill="white"/>
</clipPath>
</defs>
</svg>
