<svg width="900" height="450" viewBox="0 0 900 450" fill="none" xmlns="http://www.w3.org/2000/svg">
<rect width="900" height="450" fill="#1E1E1E"/>
<g clip-path="url(#clip0_0_1)">
<path d="M900 0H0V450H900V0Z" fill="#E70013"/>
<path d="M449.667 338C511.891 338 562.333 287.632 562.333 225.5C562.333 163.368 511.891 113 449.667 113C387.443 113 337 163.368 337 225.5C337 287.632 387.443 338 449.667 338Z" fill="white"/>
<path d="M449.667 309.875C496.335 309.875 534.167 272.099 534.167 225.5C534.167 178.901 496.335 141.125 449.667 141.125C402.999 141.125 365.167 178.901 365.167 225.5C365.167 272.099 402.999 309.875 449.667 309.875Z" fill="#E70013"/>
<path d="M472.2 293C509.534 293 539.8 262.779 539.8 225.5C539.8 188.221 509.534 158 472.2 158C434.866 158 404.6 188.221 404.6 225.5C404.6 262.779 434.866 293 472.2 293Z" fill="white"/>
<path d="M421.5 225.5L513.217 195.743L456.533 273.647V177.353L513.217 255.257L421.5 225.5Z" fill="#E70013"/>
</g>
<defs>
<clipPath id="clip0_0_1">
<rect width="900" height="450" fill="white"/>
</clipPath>
</defs>
</svg>
