<svg width="900" height="450" viewBox="0 0 900 450" fill="none" xmlns="http://www.w3.org/2000/svg">
<g clip-path="url(#clip0_765_14642)">
<path d="M900 0H0V450H900V0Z" fill="#1E1E1E"/>
<mask id="mask0_765_14642" style="mask-type:luminance" maskUnits="userSpaceOnUse" x="0" y="0" width="900" height="450">
<path d="M900 0H0V450H900V0Z" fill="white"/>
</mask>
<g mask="url(#mask0_765_14642)">
<path d="M900 0H0V450H900V0Z" fill="white"/>
<mask id="mask1_765_14642" style="mask-type:luminance" maskUnits="userSpaceOnUse" x="0" y="0" width="900" height="450">
<path d="M0 0H900V450H0V0Z" fill="white"/>
</mask>
<g mask="url(#mask1_765_14642)">
<path d="M0 0H900V450H0V0Z" fill="white"/>
<path d="M0 0H900V450H0V0Z" fill="white"/>
<path d="M0 0H900V450H0V0Z" fill="#C10000"/>
</g>
<mask id="mask2_765_14642" style="mask-type:luminance" maskUnits="userSpaceOnUse" x="0" y="0" width="376" height="226">
<path d="M0 0H375.333V225.333H0V0Z" fill="white"/>
</mask>
<g mask="url(#mask2_765_14642)">
<path d="M0 0H374.443V224.667H0V0Z" fill="white"/>
</g>
<path d="M159.807 28.0833H215.974V196.583H159.807V28.0833Z" fill="#C10000"/>
<path d="M103.641 84.25H272.141V140.417H103.641V84.25Z" fill="#C10000"/>
</g>
</g>
<defs>
<clipPath id="clip0_765_14642">
<rect width="900" height="450" fill="white"/>
</clipPath>
</defs>
</svg>
