<svg width="900" height="450" viewBox="0 0 900 450" fill="none" xmlns="http://www.w3.org/2000/svg">
<g clip-path="url(#clip0_765_14685)">
<path d="M900 0H0V450H900V0Z" fill="#1E1E1E"/>
<mask id="mask0_765_14685" style="mask-type:luminance" maskUnits="userSpaceOnUse" x="0" y="0" width="900" height="450">
<path d="M900 0H0V450H900V0Z" fill="white"/>
</mask>
<g mask="url(#mask0_765_14685)">
<mask id="mask1_765_14685" style="mask-type:luminance" maskUnits="userSpaceOnUse" x="0" y="0" width="900" height="450">
<path d="M0 0H900V450H0V0Z" fill="white"/>
</mask>
<g mask="url(#mask1_765_14685)">
<path d="M0 0H900V450H0V0Z" fill="white"/>
<path d="M0 0H900V450H0V0Z" fill="white"/>
</g>
<mask id="mask2_765_14685" style="mask-type:luminance" maskUnits="userSpaceOnUse" x="0" y="0" width="900" height="450">
<path d="M0 0H900V450H0V0Z" fill="white"/>
</mask>
<g mask="url(#mask2_765_14685)">
<path d="M0 0H900V450H0V0Z" fill="white"/>
<path d="M0 0H900V450H0V0Z" fill="#E20A17"/>
</g>
<path d="M464.042 224.667C464.042 226.505 463.995 228.344 463.906 230.177C463.818 232.016 463.682 233.849 463.5 235.677C463.323 237.505 463.094 239.333 462.828 241.151C462.557 242.969 462.24 244.781 461.885 246.583C461.526 248.385 461.12 250.177 460.677 251.964C460.229 253.745 459.74 255.516 459.203 257.276C458.672 259.036 458.094 260.781 457.474 262.51C456.854 264.24 456.193 265.958 455.49 267.656C454.786 269.354 454.042 271.036 453.255 272.698C452.469 274.359 451.646 276 450.776 277.62C449.911 279.24 449.005 280.844 448.057 282.417C447.115 283.995 446.13 285.547 445.109 287.078C444.089 288.604 443.031 290.109 441.938 291.583C440.839 293.063 439.708 294.51 438.542 295.932C437.375 297.354 436.177 298.745 434.943 300.104C433.708 301.469 432.438 302.797 431.141 304.099C429.839 305.401 428.51 306.667 427.146 307.901C425.786 309.135 424.391 310.333 422.974 311.5C421.552 312.667 420.104 313.797 418.625 314.896C417.151 315.99 415.646 317.047 414.12 318.068C412.589 319.089 411.036 320.073 409.458 321.021C407.88 321.964 406.281 322.87 404.661 323.734C403.042 324.604 401.401 325.427 399.734 326.214C398.073 327 396.396 327.745 394.698 328.448C393 329.151 391.281 329.813 389.552 330.432C387.823 331.052 386.078 331.63 384.318 332.161C382.557 332.698 380.786 333.188 379.005 333.635C377.219 334.083 375.427 334.484 373.625 334.844C371.818 335.203 370.01 335.516 368.193 335.786C366.37 336.052 364.547 336.281 362.719 336.458C360.891 336.641 359.057 336.776 357.219 336.865C355.385 336.953 353.547 337 351.708 337C349.87 337 348.031 336.953 346.198 336.865C344.359 336.776 342.526 336.641 340.698 336.458C338.87 336.281 337.042 336.052 335.224 335.786C333.406 335.516 331.594 335.203 329.792 334.844C327.99 334.484 326.198 334.083 324.411 333.635C322.63 333.188 320.859 332.698 319.099 332.161C317.339 331.63 315.594 331.052 313.865 330.432C312.135 329.813 310.417 329.151 308.719 328.448C307.021 327.745 305.344 327 303.677 326.214C302.016 325.427 300.375 324.604 298.755 323.734C297.135 322.87 295.536 321.964 293.958 321.021C292.38 320.073 290.828 319.089 289.297 318.068C287.771 317.047 286.266 315.99 284.792 314.896C283.313 313.797 281.865 312.667 280.443 311.5C279.021 310.333 277.63 309.135 276.271 307.901C274.906 306.667 273.578 305.401 272.276 304.099C270.974 302.797 269.708 301.469 268.474 300.104C267.24 298.745 266.042 297.354 264.875 295.932C263.708 294.51 262.578 293.063 261.479 291.583C260.385 290.109 259.328 288.604 258.307 287.078C257.286 285.547 256.302 283.995 255.354 282.417C254.411 280.844 253.505 279.24 252.641 277.62C251.771 276 250.948 274.359 250.161 272.698C249.375 271.036 248.63 269.354 247.927 267.656C247.224 265.958 246.563 264.24 245.943 262.51C245.323 260.781 244.745 259.036 244.214 257.276C243.677 255.516 243.187 253.745 242.74 251.964C242.297 250.177 241.891 248.385 241.531 246.583C241.172 244.781 240.859 242.969 240.589 241.151C240.323 239.333 240.094 237.505 239.917 235.677C239.734 233.849 239.599 232.016 239.51 230.177C239.422 228.344 239.375 226.505 239.375 224.667C239.375 222.828 239.422 220.99 239.51 219.156C239.599 217.318 239.734 215.484 239.917 213.656C240.094 211.828 240.323 210.005 240.589 208.182C240.859 206.365 241.172 204.557 241.531 202.75C241.891 200.948 242.297 199.156 242.74 197.37C243.187 195.589 243.677 193.818 244.214 192.057C244.745 190.297 245.323 188.552 245.943 186.823C246.563 185.094 247.224 183.375 247.927 181.677C248.63 179.979 249.375 178.302 250.161 176.641C250.948 174.974 251.771 173.333 252.641 171.714C253.505 170.094 254.411 168.495 255.354 166.917C256.302 165.339 257.286 163.786 258.307 162.26C259.328 160.729 260.385 159.229 261.479 157.75C262.578 156.276 263.708 154.823 264.875 153.401C266.042 151.984 267.24 150.589 268.474 149.229C269.708 147.865 270.974 146.536 272.276 145.234C273.578 143.938 274.906 142.667 276.271 141.432C277.63 140.198 279.021 139 280.443 137.833C281.865 136.667 283.313 135.536 284.792 134.438C286.266 133.344 287.771 132.286 289.297 131.266C290.828 130.245 292.38 129.26 293.958 128.318C295.536 127.37 297.135 126.464 298.755 125.599C300.375 124.729 302.016 123.906 303.677 123.12C305.344 122.333 307.021 121.589 308.719 120.885C310.417 120.182 312.135 119.521 313.865 118.901C315.594 118.281 317.339 117.703 319.099 117.172C320.859 116.635 322.63 116.146 324.411 115.698C326.198 115.255 327.99 114.849 329.792 114.49C331.594 114.135 333.406 113.818 335.224 113.547C337.042 113.281 338.87 113.057 340.698 112.875C342.526 112.693 344.359 112.557 346.198 112.469C348.031 112.38 349.87 112.333 351.708 112.333C353.547 112.333 355.385 112.38 357.219 112.469C359.057 112.557 360.891 112.693 362.719 112.875C364.547 113.057 366.37 113.281 368.193 113.547C370.01 113.818 371.818 114.135 373.625 114.49C375.427 114.849 377.219 115.255 379.005 115.698C380.786 116.146 382.557 116.635 384.318 117.172C386.078 117.703 387.823 118.281 389.552 118.901C391.281 119.521 393 120.182 394.698 120.885C396.396 121.589 398.073 122.333 399.734 123.12C401.401 123.906 403.042 124.729 404.661 125.599C406.281 126.464 407.88 127.37 409.458 128.318C411.036 129.26 412.589 130.245 414.12 131.266C415.646 132.286 417.151 133.344 418.625 134.438C420.104 135.536 421.552 136.667 422.974 137.833C424.391 139 425.786 140.198 427.146 141.432C428.51 142.667 429.839 143.938 431.141 145.234C432.438 146.536 433.708 147.865 434.943 149.229C436.177 150.589 437.375 151.984 438.542 153.401C439.708 154.823 440.839 156.276 441.938 157.75C443.031 159.229 444.089 160.729 445.109 162.26C446.13 163.786 447.115 165.339 448.057 166.917C449.005 168.495 449.911 170.094 450.776 171.714C451.646 173.333 452.469 174.974 453.255 176.641C454.042 178.302 454.786 179.979 455.49 181.677C456.193 183.375 456.854 185.094 457.474 186.823C458.094 188.552 458.672 190.297 459.203 192.057C459.74 193.818 460.229 195.589 460.677 197.37C461.12 199.156 461.526 200.948 461.885 202.75C462.24 204.557 462.557 206.365 462.828 208.182C463.094 210.005 463.323 211.828 463.5 213.656C463.682 215.484 463.818 217.318 463.906 219.156C463.995 220.99 464.042 222.828 464.042 224.667Z" fill="white"/>
<path d="M469.656 224.667C469.656 226.135 469.62 227.609 469.552 229.078C469.479 230.547 469.37 232.01 469.224 233.474C469.083 234.937 468.901 236.401 468.688 237.854C468.469 239.307 468.219 240.755 467.932 242.198C467.646 243.641 467.323 245.078 466.964 246.505C466.609 247.927 466.214 249.349 465.786 250.755C465.359 252.161 464.901 253.557 464.406 254.943C463.911 256.328 463.38 257.698 462.818 259.057C462.255 260.417 461.661 261.76 461.031 263.089C460.401 264.422 459.74 265.734 459.047 267.031C458.354 268.328 457.63 269.604 456.875 270.87C456.115 272.13 455.328 273.37 454.516 274.594C453.698 275.818 452.849 277.021 451.974 278.203C451.099 279.38 450.193 280.542 449.26 281.677C448.328 282.812 447.365 283.927 446.38 285.016C445.391 286.109 444.375 287.172 443.339 288.214C442.297 289.25 441.234 290.266 440.141 291.255C439.052 292.24 437.938 293.203 436.802 294.135C435.667 295.068 434.505 295.974 433.323 296.849C432.146 297.724 430.943 298.573 429.719 299.391C428.495 300.208 427.255 300.995 425.995 301.75C424.729 302.505 423.453 303.229 422.156 303.922C420.859 304.615 419.542 305.276 418.214 305.906C416.885 306.536 415.542 307.13 414.182 307.693C412.823 308.255 411.453 308.786 410.068 309.281C408.682 309.776 407.286 310.24 405.88 310.667C404.469 311.094 403.052 311.484 401.625 311.839C400.203 312.198 398.766 312.521 397.323 312.807C395.88 313.094 394.432 313.344 392.979 313.563C391.521 313.776 390.063 313.958 388.599 314.099C387.135 314.245 385.672 314.354 384.203 314.427C382.734 314.5 381.26 314.536 379.792 314.536C378.323 314.536 376.849 314.5 375.38 314.427C373.911 314.354 372.448 314.245 370.984 314.099C369.521 313.958 368.063 313.776 366.604 313.563C365.151 313.344 363.703 313.094 362.26 312.807C360.818 312.521 359.38 312.198 357.953 311.839C356.531 311.484 355.109 311.094 353.703 310.667C352.297 310.24 350.901 309.776 349.516 309.281C348.13 308.786 346.76 308.255 345.401 307.693C344.042 307.13 342.698 306.536 341.37 305.906C340.036 305.276 338.724 304.615 337.427 303.922C336.13 303.229 334.854 302.505 333.589 301.75C332.328 300.995 331.089 300.208 329.865 299.391C328.641 298.573 327.438 297.724 326.26 296.849C325.078 295.974 323.917 295.068 322.781 294.135C321.646 293.203 320.531 292.24 319.443 291.255C318.349 290.266 317.286 289.25 316.245 288.214C315.208 287.172 314.193 286.109 313.203 285.016C312.219 283.927 311.255 282.812 310.323 281.677C309.391 280.542 308.484 279.38 307.609 278.203C306.734 277.021 305.885 275.818 305.068 274.594C304.255 273.37 303.469 272.13 302.708 270.87C301.953 269.604 301.229 268.328 300.536 267.031C299.844 265.734 299.182 264.422 298.552 263.089C297.922 261.76 297.328 260.417 296.766 259.057C296.203 257.698 295.672 256.328 295.177 254.943C294.682 253.557 294.219 252.161 293.792 250.755C293.37 249.349 292.974 247.927 292.62 246.505C292.26 245.078 291.938 243.641 291.651 242.198C291.365 240.755 291.115 239.307 290.896 237.854C290.682 236.401 290.5 234.937 290.359 233.474C290.214 232.01 290.104 230.547 290.031 229.078C289.958 227.609 289.927 226.135 289.927 224.667C289.927 223.198 289.958 221.724 290.031 220.255C290.104 218.786 290.214 217.323 290.359 215.859C290.5 214.396 290.682 212.937 290.896 211.479C291.115 210.026 291.365 208.578 291.651 207.135C291.938 205.693 292.26 204.26 292.62 202.833C292.974 201.406 293.37 199.99 293.792 198.578C294.219 197.172 294.682 195.776 295.177 194.391C295.672 193.005 296.203 191.635 296.766 190.276C297.328 188.917 297.922 187.573 298.552 186.245C299.182 184.917 299.844 183.599 300.536 182.302C301.229 181.005 301.953 179.729 302.708 178.469C303.469 177.203 304.255 175.964 305.068 174.74C305.885 173.516 306.734 172.312 307.609 171.135C308.484 169.953 309.391 168.792 310.323 167.656C311.255 166.521 312.219 165.406 313.203 164.318C314.193 163.224 315.208 162.161 316.245 161.12C317.286 160.083 318.349 159.068 319.443 158.078C320.531 157.094 321.646 156.13 322.781 155.198C323.917 154.266 325.078 153.359 326.26 152.484C327.438 151.609 328.641 150.76 329.865 149.948C331.089 149.13 332.328 148.344 333.589 147.583C334.854 146.828 336.13 146.104 337.427 145.411C338.724 144.719 340.036 144.057 341.37 143.427C342.698 142.802 344.042 142.203 345.401 141.641C346.76 141.078 348.13 140.547 349.516 140.052C350.901 139.557 352.297 139.099 353.703 138.672C355.109 138.245 356.531 137.849 357.953 137.495C359.38 137.135 360.818 136.812 362.26 136.526C363.703 136.24 365.151 135.99 366.604 135.771C368.063 135.557 369.521 135.375 370.984 135.234C372.448 135.089 373.911 134.979 375.38 134.906C376.849 134.839 378.323 134.802 379.792 134.802C381.26 134.802 382.734 134.839 384.203 134.906C385.672 134.979 387.135 135.089 388.599 135.234C390.063 135.375 391.521 135.557 392.979 135.771C394.432 135.99 395.88 136.24 397.323 136.526C398.766 136.812 400.203 137.135 401.625 137.495C403.052 137.849 404.469 138.245 405.88 138.672C407.286 139.099 408.682 139.557 410.068 140.052C411.453 140.547 412.823 141.078 414.182 141.641C415.542 142.203 416.885 142.802 418.214 143.427C419.542 144.057 420.859 144.719 422.156 145.411C423.453 146.104 424.729 146.828 425.995 147.583C427.255 148.344 428.495 149.13 429.719 149.948C430.943 150.76 432.146 151.609 433.323 152.484C434.505 153.359 435.667 154.266 436.802 155.198C437.938 156.13 439.052 157.094 440.141 158.078C441.234 159.068 442.297 160.083 443.339 161.12C444.375 162.161 445.391 163.224 446.38 164.318C447.365 165.406 448.328 166.521 449.26 167.656C450.193 168.792 451.099 169.953 451.974 171.135C452.849 172.312 453.698 173.516 454.516 174.74C455.328 175.964 456.115 177.203 456.875 178.469C457.63 179.729 458.354 181.005 459.047 182.302C459.74 183.599 460.401 184.917 461.031 186.245C461.661 187.573 462.255 188.917 462.818 190.276C463.38 191.635 463.911 193.005 464.406 194.391C464.901 195.776 465.359 197.172 465.786 198.578C466.214 199.99 466.609 201.406 466.964 202.833C467.323 204.26 467.646 205.693 467.932 207.135C468.219 208.578 468.469 210.026 468.688 211.479C468.901 212.937 469.083 214.396 469.224 215.859C469.37 217.323 469.479 218.786 469.552 220.255C469.62 221.724 469.656 223.198 469.656 224.667Z" fill="#E30A17"/>
<path d="M440.641 224.667L542.245 257.682L479.448 171.25V278.083L542.245 191.651L440.641 224.667Z" fill="white"/>
</g>
</g>
<defs>
<clipPath id="clip0_765_14685">
<rect width="900" height="450" fill="white"/>
</clipPath>
</defs>
</svg>
