<svg width="900" height="450" viewBox="0 0 900 450" fill="none" xmlns="http://www.w3.org/2000/svg">
<g clip-path="url(#clip0_765_14879)">
<path d="M900 0H0V450H900V0Z" fill="#1E1E1E"/>
<mask id="mask0_765_14879" style="mask-type:luminance" maskUnits="userSpaceOnUse" x="0" y="0" width="900" height="450">
<path d="M900 0H0V450H900V0Z" fill="white"/>
</mask>
<g mask="url(#mask0_765_14879)">
<mask id="mask1_765_14879" style="mask-type:luminance" maskUnits="userSpaceOnUse" x="0" y="0" width="900" height="450">
<path d="M0.666656 -3.8147e-06H899.333V449.333H0.666656V-3.8147e-06Z" fill="white"/>
</mask>
<g mask="url(#mask1_765_14879)">
<path d="M0.666656 -3.8147e-06H899.333V449.333H0.666656V-3.8147e-06Z" fill="#ED1D24"/>
<path d="M0.666656 -3.8147e-06H899.333V449.333H0.666656V-3.8147e-06Z" fill="#ED1D24"/>
</g>
<path fill-rule="evenodd" clip-rule="evenodd" d="M121.578 112.333C121.578 115.797 121.896 119.135 122.531 122.344L85.0729 112.333L122.531 102.359C121.896 105.568 121.578 108.896 121.578 112.333ZM123.792 127.12C125.781 133.437 129.141 139.193 133.875 144.391L96.3385 154.443L123.792 127.12ZM216.047 122.344C216.682 119.135 217 115.797 217 112.333C217 108.87 216.682 105.547 216.047 102.359L253.469 112.333L216.047 122.344ZM214.823 97.5833C212.812 91.2656 209.443 85.526 204.703 80.3542L242.167 70.1927L214.823 97.5833ZM204.703 144.349C209.443 139.182 212.812 133.437 214.823 127.12L242.167 154.443L204.703 144.349ZM184.052 157.917C190.333 155.88 196.078 152.505 201.271 147.792L211.385 185.312L184.052 157.917ZM159.344 159.141C162.5 159.75 165.812 160.057 169.271 160.057C172.76 160.057 176.094 159.734 179.276 159.099L169.271 196.583L159.344 159.141ZM137.307 147.792C142.453 152.505 148.193 155.88 154.531 157.917L127.193 185.312L137.307 147.792ZM127.193 112.333C127.193 100.693 131.292 90.7708 139.49 82.5677C147.734 74.3177 157.661 70.1927 169.271 70.1927C180.906 70.1927 190.833 74.3177 199.057 82.5677C207.276 90.7708 211.385 100.693 211.385 112.333C211.385 123.974 207.276 133.911 199.057 142.135C190.833 150.339 180.906 154.443 169.271 154.443C157.661 154.443 147.734 150.339 139.49 142.135C131.292 133.932 127.193 124 127.193 112.333ZM169.271 64.5729C165.812 64.5729 162.5 64.9062 159.344 65.5677L169.271 28.0833L179.276 65.5677C176.094 64.9062 172.76 64.5729 169.271 64.5729ZM127.193 39.3958L154.495 66.7865C148.182 68.8021 142.453 72.1771 137.307 76.9115L127.193 39.3958ZM133.875 80.3542C129.141 85.526 125.781 91.2656 123.792 97.5833L96.3385 70.1927L133.875 80.3542ZM211.385 39.3958L201.271 76.9115C196.104 72.1771 190.375 68.8021 184.083 66.7865L211.385 39.3958Z" fill="white"/>
<mask id="mask2_765_14879" style="mask-type:luminance" maskUnits="userSpaceOnUse" x="0" y="0" width="339" height="226">
<path d="M0.666656 -3.8147e-06H338.667V225.333H0.666656V-3.8147e-06Z" fill="white"/>
</mask>
<g mask="url(#mask2_765_14879)">
<path fill-rule="evenodd" clip-rule="evenodd" d="M137.307 147.792L127.193 185.313L154.531 157.917C148.193 155.88 142.453 152.505 137.307 147.792ZM159.344 159.141L169.271 196.583L179.276 159.099C176.094 159.734 172.76 160.057 169.271 160.057C165.813 160.057 162.5 159.75 159.344 159.141ZM184.052 157.917L211.385 185.313L201.271 147.792C196.078 152.505 190.333 155.88 184.052 157.917ZM204.703 144.349L242.167 154.443L214.823 127.12C212.813 133.437 209.443 139.182 204.703 144.349ZM214.823 97.5833L242.167 70.1927L204.703 80.3542C209.443 85.526 212.813 91.2656 214.823 97.5833ZM216.047 122.344L253.469 112.333L216.047 102.359C216.682 105.547 217 108.87 217 112.333C217 115.797 216.682 119.135 216.047 122.344ZM123.792 127.12L96.3385 154.443L133.875 144.391C129.141 139.193 125.781 133.437 123.792 127.12ZM121.578 112.333C121.578 108.896 121.896 105.568 122.531 102.359L85.0729 112.333L122.531 122.344C121.896 119.135 121.578 115.797 121.578 112.333ZM127.193 112.333C127.193 124 131.292 133.932 139.49 142.135C147.734 150.339 157.661 154.443 169.271 154.443C180.906 154.443 190.833 150.339 199.057 142.135C207.276 133.911 211.385 123.974 211.385 112.333C211.385 100.693 207.276 90.7708 199.057 82.5677C190.833 74.3177 180.906 70.1927 169.271 70.1927C157.661 70.1927 147.734 74.3177 139.49 82.5677C131.292 90.7708 127.193 100.693 127.193 112.333ZM133.875 80.3542L96.3385 70.1927L123.792 97.5833C125.781 91.2656 129.141 85.526 133.875 80.3542ZM127.193 39.3958L137.307 76.9115C142.453 72.1771 148.182 68.8021 154.495 66.7865L127.193 39.3958ZM169.271 64.5729C172.76 64.5729 176.094 64.9062 179.276 65.5677L169.271 28.0833L159.344 65.5677C162.5 64.9062 165.813 64.5729 169.271 64.5729ZM211.385 39.3958L184.083 66.7865C190.375 68.8021 196.104 72.1771 201.271 76.9115L211.385 39.3958ZM337.667 -3.8147e-06V224.667H0.875V-3.8147e-06H337.667Z" fill="#2B3085"/>
</g>
</g>
</g>
<defs>
<clipPath id="clip0_765_14879">
<rect width="900" height="450" fill="white"/>
</clipPath>
</defs>
</svg>
