<svg width="900" height="450" viewBox="0 0 900 450" fill="none" xmlns="http://www.w3.org/2000/svg">
<g clip-path="url(#clip0_765_14949)">
<path d="M900 0H0V450H900V0Z" fill="#1E1E1E"/>
<mask id="mask0_765_14949" style="mask-type:luminance" maskUnits="userSpaceOnUse" x="0" y="0" width="900" height="450">
<path d="M900 0H0V450H900V0Z" fill="white"/>
</mask>
<g mask="url(#mask0_765_14949)">
<mask id="mask1_765_14949" style="mask-type:luminance" maskUnits="userSpaceOnUse" x="0" y="0" width="900" height="450">
<path d="M0 0H900V449.333H0V0Z" fill="white"/>
</mask>
<g mask="url(#mask1_765_14949)">
<path d="M0 0H900V449.333H0V0Z" fill="white"/>
<path d="M0 0H900V449.333H0V0Z" fill="white"/>
</g>
<mask id="mask2_765_14949" style="mask-type:luminance" maskUnits="userSpaceOnUse" x="0" y="0" width="900" height="225">
<path d="M0 0H900V225H0V0Z" fill="white"/>
</mask>
<g mask="url(#mask2_765_14949)">
<path d="M900 224.359H0V0H900V224.359Z" fill="#305CB2"/>
</g>
<mask id="mask3_765_14949" style="mask-type:luminance" maskUnits="userSpaceOnUse" x="0" y="222" width="900" height="228">
<path d="M0 222.667H900V449.667H0V222.667Z" fill="white"/>
</mask>
<g mask="url(#mask3_765_14949)">
<path d="M900 449.667H0V223.313H900V449.667Z" fill="#FAD517"/>
</g>
</g>
</g>
<defs>
<clipPath id="clip0_765_14949">
<rect width="900" height="450" fill="white"/>
</clipPath>
</defs>
</svg>
