<svg width="900" height="450" viewBox="0 0 900 450" fill="none" xmlns="http://www.w3.org/2000/svg">
<rect width="900" height="450" fill="#1E1E1E"/>
<g clip-path="url(#clip0_0_1)">
<mask id="mask0_0_1" style="mask-type:luminance" maskUnits="userSpaceOnUse" x="0" y="0" width="900" height="450">
<path d="M0 -3.37219e-06H900V449.333H0V-3.37219e-06Z" fill="white"/>
</mask>
<g mask="url(#mask0_0_1)">
<path d="M0 -3.37219e-06H900V449.333H0V-3.37219e-06Z" fill="white"/>
<path d="M0 -3.37219e-06H900V449.333H0V-3.37219e-06Z" fill="white"/>
</g>
<mask id="mask1_0_1" style="mask-type:luminance" maskUnits="userSpaceOnUse" x="0" y="0" width="900" height="225">
<path d="M0 -3.37219e-06H900V225H0V-3.37219e-06Z" fill="white"/>
</mask>
<g mask="url(#mask1_0_1)">
<path d="M900 224.359H0V-3.37219e-06H900V224.359Z" fill="#305CB2"/>
</g>
<mask id="mask2_0_1" style="mask-type:luminance" maskUnits="userSpaceOnUse" x="0" y="222" width="900" height="228">
<path d="M0 222.667H900V449.667H0V222.667Z" fill="white"/>
</mask>
<g mask="url(#mask2_0_1)">
<path d="M900 449.667H0V223.313H900V449.667Z" fill="#FAD517"/>
</g>
</g>
<defs>
<clipPath id="clip0_0_1">
<rect width="900" height="450" fill="white"/>
</clipPath>
</defs>
</svg>
