<svg width="900" height="450" viewBox="0 0 900 450" fill="none" xmlns="http://www.w3.org/2000/svg">
<rect width="900" height="450" fill="#1E1E1E"/>
<g clip-path="url(#clip0_0_1)">
<mask id="mask0_0_1" style="mask-type:luminance" maskUnits="userSpaceOnUse" x="0" y="0" width="900" height="450">
<path d="M0 -3.37219e-06H900V450H0V-3.37219e-06Z" fill="white"/>
</mask>
<g mask="url(#mask0_0_1)">
<path d="M0 -3.37219e-06H900V450H0V-3.37219e-06Z" fill="white"/>
<path d="M0 -3.37219e-06H900V450H0V-3.37219e-06Z" fill="white"/>
</g>
<mask id="mask1_0_1" style="mask-type:luminance" maskUnits="userSpaceOnUse" x="-1" y="0" width="902" height="450">
<path d="M-1 -3.37219e-06H901V449.333H-1V-3.37219e-06Z" fill="white"/>
</mask>
<g mask="url(#mask1_0_1)">
<path d="M-0.714164 -3.37219e-06H900.881V449.333H-0.714164V-3.37219e-06Z" fill="black"/>
</g>
<mask id="mask2_0_1" style="mask-type:luminance" maskUnits="userSpaceOnUse" x="-1" y="74" width="902" height="77">
<path d="M-1 74.6667H901V150.667H-1V74.6667Z" fill="white"/>
</mask>
<g mask="url(#mask2_0_1)">
<path d="M-0.714164 74.8906H900.881V149.776H-0.714164V74.8906Z" fill="#FCDC04"/>
</g>
<mask id="mask3_0_1" style="mask-type:luminance" maskUnits="userSpaceOnUse" x="-1" y="149" width="902" height="77">
<path d="M-1 149.333H901V225.333H-1V149.333Z" fill="white"/>
</mask>
<g mask="url(#mask3_0_1)">
<path d="M-0.714164 149.776H900.881V224.667H-0.714164V149.776Z" fill="#D90000"/>
</g>
<mask id="mask4_0_1" style="mask-type:luminance" maskUnits="userSpaceOnUse" x="-1" y="298" width="902" height="77">
<path d="M-1 298.667H901V374.667H-1V298.667Z" fill="white"/>
</mask>
<g mask="url(#mask4_0_1)">
<path d="M-0.714164 299.557H900.881V374.443H-0.714164V299.557Z" fill="#FCDC04"/>
</g>
<mask id="mask5_0_1" style="mask-type:luminance" maskUnits="userSpaceOnUse" x="-1" y="373" width="902" height="81">
<path d="M-1 373.333H901V453.333H-1V373.333Z" fill="white"/>
</mask>
<g mask="url(#mask5_0_1)">
<path d="M-0.714164 374.501H900.881V453.333H-0.714164V374.501Z" fill="#D90000"/>
</g>
<path d="M519.766 224.667C519.766 226.958 519.656 229.25 519.432 231.531C519.203 233.812 518.87 236.078 518.422 238.328C517.974 240.578 517.417 242.797 516.755 244.995C516.089 247.187 515.318 249.344 514.438 251.464C513.563 253.583 512.583 255.651 511.505 257.677C510.422 259.698 509.245 261.661 507.974 263.568C506.698 265.474 505.339 267.318 503.88 269.089C502.427 270.859 500.891 272.557 499.271 274.177C497.651 275.802 495.953 277.339 494.182 278.797C492.411 280.25 490.573 281.615 488.667 282.885C486.76 284.161 484.797 285.339 482.776 286.422C480.755 287.5 478.688 288.479 476.568 289.359C474.453 290.234 472.297 291.005 470.104 291.672C467.911 292.339 465.688 292.896 463.443 293.344C461.193 293.792 458.927 294.125 456.646 294.349C454.37 294.578 452.083 294.687 449.792 294.687C447.5 294.687 445.214 294.578 442.932 294.349C440.651 294.125 438.385 293.792 436.135 293.344C433.891 292.896 431.667 292.339 429.474 291.672C427.281 291.005 425.125 290.234 423.01 289.359C420.891 288.479 418.823 287.5 416.802 286.422C414.781 285.339 412.818 284.161 410.911 282.885C409.005 281.615 407.167 280.25 405.396 278.797C403.625 277.339 401.927 275.802 400.307 274.177C398.688 272.557 397.151 270.859 395.698 269.089C394.24 267.318 392.88 265.474 391.604 263.568C390.333 261.661 389.156 259.698 388.073 257.677C386.995 255.651 386.016 253.583 385.141 251.464C384.26 249.344 383.49 247.187 382.823 244.995C382.161 242.797 381.604 240.578 381.156 238.328C380.708 236.078 380.375 233.812 380.151 231.531C379.922 229.25 379.812 226.958 379.812 224.667C379.812 222.375 379.922 220.089 380.151 217.802C380.375 215.521 380.708 213.255 381.156 211.005C381.604 208.755 382.161 206.536 382.823 204.339C383.49 202.146 384.26 199.99 385.141 197.87C386.016 195.75 386.995 193.682 388.073 191.661C389.156 189.635 390.333 187.672 391.604 185.766C392.88 183.859 394.24 182.021 395.698 180.245C397.151 178.474 398.688 176.776 400.307 175.156C401.927 173.531 403.625 171.995 405.396 170.542C407.167 169.083 409.005 167.719 410.911 166.448C412.818 165.172 414.781 163.995 416.802 162.911C418.823 161.833 420.891 160.854 423.01 159.974C425.125 159.099 427.281 158.328 429.474 157.661C431.667 156.995 433.891 156.437 436.135 155.99C438.385 155.542 440.651 155.208 442.932 154.984C445.214 154.76 447.5 154.646 449.792 154.646C452.083 154.646 454.37 154.76 456.646 154.984C458.927 155.208 461.193 155.542 463.443 155.99C465.688 156.437 467.911 156.995 470.104 157.661C472.297 158.328 474.453 159.099 476.568 159.974C478.688 160.854 480.755 161.833 482.776 162.911C484.797 163.995 486.76 165.172 488.667 166.448C490.573 167.719 492.411 169.083 494.182 170.542C495.953 171.995 497.651 173.531 499.271 175.156C500.891 176.776 502.427 178.474 503.88 180.245C505.339 182.021 506.698 183.859 507.974 185.766C509.245 187.672 510.422 189.635 511.505 191.661C512.583 193.682 513.563 195.75 514.438 197.87C515.318 199.99 516.089 202.146 516.755 204.339C517.417 206.536 517.974 208.755 518.422 211.005C518.87 213.255 519.203 215.521 519.432 217.802C519.656 220.089 519.766 222.375 519.766 224.667Z" fill="white"/>
<path d="M437.453 171.042L432.917 162.672C434.667 160.922 437.615 159.568 442.312 159.568C442.312 159.885 441.833 168.729 441.833 168.729L437.453 171.042Z" fill="#D90000" stroke="black" stroke-width="0.748657"/>
<path d="M441.833 168.807L442.469 159.568C442.469 159.568 451.865 159.01 456.963 165.146C457.042 165.063 451.948 172.313 451.948 172.313L441.833 168.807Z" fill="#FCDC04" stroke="black" stroke-width="0.748657"/>
<path d="M452.104 172.234L456.724 165.063C459.828 168.333 461.104 170.641 461.578 174.146C461.661 174.224 454.255 175.979 454.255 175.901C454.255 175.818 452.187 172.313 452.104 172.234Z" fill="#D90000" stroke="black" stroke-width="0.748657"/>
<path d="M439.766 290.625C439.766 290.625 448.443 280.667 465.323 282.818C462.776 278.672 454.573 279.151 454.573 279.151C454.573 279.151 452.026 259.792 454.016 258.839C456.005 257.88 464.448 258.917 464.448 258.917C465.562 258.917 467.474 255.891 465.958 253.974C464.448 252.063 459.99 244.734 461.818 243.302C463.651 241.865 473.604 244.099 473.604 244.099L445.495 208.089C445.495 208.089 442.63 194.542 448.365 188.01C455.292 182.271 454.573 176.057 454.333 176.141C453.38 169.844 443.823 165.302 437.375 171.12C433.552 175.74 436.099 179.245 436.099 179.245C436.099 179.245 426.068 181.953 425.672 183.708C425.271 185.458 436.979 183.391 436.979 183.391L435.865 191.438C435.865 191.438 413.089 212.151 430.526 230.073C430.687 229.995 431.083 229.276 431.083 229.276C431.083 229.276 437.219 236.849 443.667 238.521C449.719 244.734 449.161 243.776 449.161 243.776C449.161 243.776 450.354 253.578 449.24 255.49C447.724 255.01 432.281 254.453 429.969 255.328C427.901 255.969 419.937 255.568 421.927 268.557C423.443 265.052 424.797 261.943 424.797 261.943C424.797 261.943 424.557 266.641 426.469 268.318C426.151 263.375 428.297 260.031 428.297 260.031C428.297 260.031 428.698 265.448 429.891 266.245C431.083 267.042 431.083 257.479 437.693 258.276C444.302 259.073 449.078 258.839 449.078 258.839C449.078 258.839 451.307 277.557 450.594 279.313C445.812 278.198 434.432 279.792 433.714 282.656C440.401 282.26 443.505 283.057 443.505 283.057C443.505 283.057 438.094 287.839 439.766 290.625Z" fill="black" stroke="black" stroke-width="0.748657"/>
<path d="M442.448 188.464C442.448 188.464 425.88 206.74 433.026 220.724C433.406 218.776 433.24 217.552 433.479 217.63C433.083 217.391 435.536 219.313 435.349 218.938C435.401 217.927 434.604 215.76 434.604 215.76L436.844 216.323L435.536 213.891L438.714 214.266C438.714 214.266 437.589 211.271 437.964 211.271C438.339 211.271 440.578 211.458 440.578 211.458C435.87 203 440.312 195.969 442.448 188.464ZM448.203 172.792C448.203 172.792 449.078 179.083 445.656 180.917C445.099 181.318 442.948 182.036 443.266 183.307C443.667 185.063 444.62 184.745 445.974 184.422C449.557 183.786 453.698 176.141 448.203 172.792Z" fill="#9CA69C" stroke="#9CA69C" stroke-width="0.748657"/>
<path d="M442.156 178.234C442.156 178.417 442.12 178.589 442.052 178.75C441.984 178.917 441.885 179.063 441.76 179.188C441.635 179.318 441.49 179.411 441.323 179.479C441.156 179.552 440.984 179.583 440.807 179.583C440.63 179.583 440.458 179.552 440.292 179.479C440.125 179.411 439.984 179.318 439.854 179.188C439.729 179.063 439.63 178.917 439.562 178.75C439.495 178.589 439.464 178.417 439.464 178.234C439.464 178.057 439.495 177.885 439.562 177.719C439.63 177.557 439.729 177.411 439.854 177.281C439.984 177.156 440.125 177.057 440.292 176.99C440.458 176.922 440.63 176.885 440.807 176.885C440.984 176.885 441.156 176.922 441.323 176.99C441.49 177.057 441.635 177.156 441.76 177.281C441.885 177.411 441.984 177.557 442.052 177.719C442.12 177.885 442.156 178.057 442.156 178.234Z" fill="white"/>
<path d="M436.74 183.469C435.865 184.188 431.245 188.964 435.781 190.719C440.479 189.443 439.208 188.568 440.245 187.531C440.271 185.38 437.906 184.823 436.74 183.469Z" fill="#D90000" stroke="black" stroke-width="0.748657"/>
<path d="M446.771 228.641C446.531 229.677 445.495 233.5 446.927 236.448C450.911 234.776 452.745 235.255 454.094 236.13C450.833 233.5 449.557 232.385 446.771 228.641Z" fill="#9CA69C" stroke="#9CA69C" stroke-width="0.748657"/>
<path d="M453.62 246.724L453.859 255.651C453.859 255.651 456.963 256.208 458.396 255.651C459.828 255.089 458.318 249.432 453.62 246.724Z" fill="white" stroke="white" stroke-width="0.748657"/>
<path d="M476.151 247.844C476.151 247.844 470.417 233.979 455.766 230.474C441.12 226.969 443.026 211.354 444.224 210.396C444.859 209.042 445.339 206.969 449.557 208.964C453.776 210.953 473.203 220.755 475.99 221.229C478.776 221.708 476.391 248.161 476.151 247.844Z" fill="#9CA69C" stroke="black" stroke-width="0.748657"/>
<path d="M462.219 230.396C461.979 230.552 481.802 242.104 475.833 252.063C481.484 248.318 479.656 241.787 479.656 241.787C479.656 241.787 484.271 253.818 473.047 259.714C474.24 260.75 475.036 260.51 475.036 260.51L473.125 262.422C473.125 262.422 472.25 263.854 479.812 260.188C477.745 261.865 477.583 263.057 477.583 263.057C477.583 263.057 478.141 264.651 483.078 260.349C479.094 264.651 478.219 266.88 478.219 266.802C488.969 265.849 512.38 230.87 470.818 220.516C473.047 222.823 472.729 222.505 472.729 222.505L462.219 230.396Z" fill="#D90000" stroke="black" stroke-width="0.748657"/>
<path d="M463.094 226.969C465.802 228.88 466.755 229.516 467.073 230.474C464.604 229.917 462.375 230.073 462.375 230.073C462.375 230.073 457.042 224.974 456.089 224.578C455.37 224.578 451.229 221.948 451.229 221.948C449.161 220.912 447.25 213.745 454.891 215.813C462.776 219.557 463.891 219.875 463.891 219.875C467.021 220.859 470.151 221.844 473.286 222.823L478.698 228.88C478.698 228.88 469.062 224.099 467.87 224.021C470.495 226.172 472.01 229.12 472.01 229.12C468.958 228.245 466.307 227.448 463.094 226.969Z" fill="white" stroke="black" stroke-width="0.748657"/>
<path d="M425.594 184.188C425.594 184.188 434.828 181.953 435.943 182.271Z" fill="black"/>
<path d="M425.594 184.188C425.594 184.188 434.828 181.953 435.943 182.271" stroke="white" stroke-width="0.748657"/>
</g>
<defs>
<clipPath id="clip0_0_1">
<rect width="900" height="450" fill="white"/>
</clipPath>
</defs>
</svg>
