<svg width="900" height="450" viewBox="0 0 900 450" fill="none" xmlns="http://www.w3.org/2000/svg">
<g clip-path="url(#clip0_765_15156)">
<path d="M900 0H0V450H900V0Z" fill="#1E1E1E"/>
<mask id="mask0_765_15156" style="mask-type:luminance" maskUnits="userSpaceOnUse" x="0" y="0" width="900" height="450">
<path d="M900 0H0V450H900V0Z" fill="white"/>
</mask>
<g mask="url(#mask0_765_15156)">
<mask id="mask1_765_15156" style="mask-type:luminance" maskUnits="userSpaceOnUse" x="0" y="0" width="900" height="450">
<path d="M0 0H900V450H0V0Z" fill="white"/>
</mask>
<g mask="url(#mask1_765_15156)">
<path d="M0 0H900V450H0V0Z" fill="white"/>
<path d="M0 0H900V450H0V0Z" fill="white"/>
</g>
<mask id="mask2_765_15156" style="mask-type:luminance" maskUnits="userSpaceOnUse" x="1" y="0" width="675" height="450">
<path d="M1.33332 -3.37219e-06H676V449.333H1.33332V-3.37219e-06Z" fill="white"/>
</mask>
<g mask="url(#mask2_765_15156)">
<path d="M675.76 449.396H1.53645V0.0624966H675.76V449.396Z" fill="white"/>
</g>
<path d="M901 311H-1V277H901V311Z" fill="#D21C31"/>
<path d="M901 242H-1V207H901V242Z" fill="#D21C31"/>
<path d="M901 173H-1V138H901V173Z" fill="#D21C31"/>
<path d="M901 104H-1V69H901V104Z" fill="#D21C31"/>
<path d="M901 35H-1V0H901V35Z" fill="#D21C31"/>
<path d="M901 380H-1V346H901V380Z" fill="#D21C31"/>
<mask id="mask3_765_15156" style="mask-type:luminance" maskUnits="userSpaceOnUse" x="-1" y="414" width="902" height="37">
<path d="M-1 414.667H901V450.667H-1V414.667Z" fill="white"/>
</mask>
<g mask="url(#mask3_765_15156)">
<path d="M900.68 450.732H-0.72843V414.813H900.68V450.732Z" fill="#D21C31"/>
</g>
<path d="M341.948 242.182H-0.463555V0.0624966H341.948V242.182Z" fill="#363570"/>
<path d="M28.776 9.70833L31.9739 19.5365H42.3073L33.9479 25.6042L37.1406 35.4323L28.776 29.3542L20.4167 35.4323L23.6094 25.6042L15.25 19.5365H25.5833L28.776 9.70833Z" fill="white"/>
<path d="M85.375 9.70833L88.5677 19.5365H98.901L90.5417 25.6042L93.7344 35.4323L85.375 29.3542L77.0104 35.4323L80.2031 25.6042L71.8437 19.5365H82.1771L85.375 9.70833Z" fill="white"/>
<path d="M141.969 9.70833L145.161 19.5365H155.495L147.135 25.6042L150.328 35.4323L141.969 29.3542L133.604 35.4323L136.797 25.6042L128.437 19.5365H138.771L141.969 9.70833Z" fill="white"/>
<path d="M198.562 9.70833L201.755 19.5365H212.094L203.729 25.6042L206.922 35.4323L198.562 29.3542L190.198 35.4323L193.396 25.6042L185.031 19.5365H195.37L198.562 9.70833Z" fill="white"/>
<path d="M255.156 9.70833L258.349 19.5365H268.688L260.323 25.6042L263.516 35.4323L255.156 29.3542L246.792 35.4323L249.99 25.6042L241.625 19.5365H251.964L255.156 9.70833Z" fill="white"/>
<path d="M311.75 9.70833L314.943 19.5365H325.281L316.917 25.6042L320.115 35.4323L311.75 29.3542L303.391 35.4323L306.583 25.6042L298.219 19.5365H308.557L311.75 9.70833Z" fill="white"/>
<path d="M57.1094 33.875L60.3021 43.7031H70.6406L62.276 49.7812L65.4739 59.6094L57.1094 53.5312L48.75 59.6094L51.9427 49.7812L43.5781 43.7031H53.9167L57.1094 33.875Z" fill="white"/>
<path d="M113.703 33.875L116.901 43.7031H127.234L118.875 49.7812L122.068 59.6094L113.703 53.5312L105.344 59.6094L108.536 49.7812L100.172 43.7031H110.51L113.703 33.875Z" fill="white"/>
<path d="M170.297 33.875L173.495 43.7031H183.828L175.469 49.7812L178.661 59.6094L170.297 53.5312L161.937 59.6094L165.13 49.7812L156.771 43.7031H167.104L170.297 33.875Z" fill="white"/>
<path d="M226.896 33.875L230.089 43.7031H240.422L232.062 49.7812L235.255 59.6094L226.896 53.5312L218.531 59.6094L221.724 49.7812L213.365 43.7031H223.698L226.896 33.875Z" fill="white"/>
<path d="M283.49 33.875L286.682 43.7031H297.021L288.656 49.7812L291.849 59.6094L283.49 53.5312L275.125 59.6094L278.318 49.7812L269.958 43.7031H280.297L283.49 33.875Z" fill="white"/>
<path d="M57.1094 82.5104L60.3021 92.3385H70.6406L62.276 98.4115L65.4739 108.234L57.1094 102.167L48.75 108.234L51.9427 98.4115L43.5781 92.3385H53.9167L57.1094 82.5104Z" fill="white"/>
<path d="M113.703 82.5104L116.901 92.3385H127.234L118.875 98.4115L122.068 108.234L113.703 102.167L105.344 108.234L108.536 98.4115L100.172 92.3385H110.51L113.703 82.5104Z" fill="white"/>
<path d="M170.297 82.5104L173.495 92.3385H183.828L175.469 98.4115L178.661 108.234L170.297 102.167L161.937 108.234L165.13 98.4115L156.771 92.3385H167.104L170.297 82.5104Z" fill="white"/>
<path d="M226.896 82.5104L230.089 92.3385H240.422L232.062 98.4115L235.255 108.234L226.896 102.167L218.531 108.234L221.724 98.4115L213.365 92.3385H223.698L226.896 82.5104Z" fill="white"/>
<path d="M283.49 82.5104L286.682 92.3385H297.021L288.656 98.4115L291.849 108.234L283.49 102.167L275.125 108.234L278.318 98.4115L269.958 92.3385H280.297L283.49 82.5104Z" fill="white"/>
<path d="M57.1094 131.141L60.3021 140.964H70.6406L62.276 147.036L65.4739 156.865L57.1094 150.792L48.75 156.865L51.9427 147.036L43.5781 140.964H53.9167L57.1094 131.141Z" fill="white"/>
<path d="M113.703 131.141L116.901 140.964H127.234L118.875 147.036L122.068 156.865L113.703 150.792L105.344 156.865L108.536 147.036L100.172 140.964H110.51L113.703 131.141Z" fill="white"/>
<path d="M170.297 131.141L173.495 140.964H183.828L175.469 147.036L178.661 156.865L170.297 150.792L161.937 156.865L165.13 147.036L156.771 140.964H167.104L170.297 131.141Z" fill="white"/>
<path d="M226.896 131.141L230.089 140.964H240.422L232.062 147.036L235.255 156.865L226.896 150.792L218.531 156.865L221.724 147.036L213.365 140.964H223.698L226.896 131.141Z" fill="white"/>
<path d="M283.49 131.141L286.682 140.964H297.021L288.656 147.036L291.849 156.865L283.49 150.792L275.125 156.865L278.318 147.036L269.958 140.964H280.297L283.49 131.141Z" fill="white"/>
<path d="M57.1094 179.771L60.3021 189.599H70.6406L62.276 195.672L65.4739 205.5L57.1094 199.427L48.75 205.5L51.9427 195.672L43.5781 189.599H53.9167L57.1094 179.771Z" fill="white"/>
<path d="M113.703 179.771L116.901 189.599H127.234L118.875 195.672L122.068 205.5L113.703 199.427L105.344 205.5L108.536 195.672L100.172 189.599H110.51L113.703 179.771Z" fill="white"/>
<path d="M170.297 179.771L173.495 189.599H183.828L175.469 195.672L178.661 205.5L170.297 199.427L161.937 205.5L165.13 195.672L156.771 189.599H167.104L170.297 179.771Z" fill="white"/>
<path d="M226.896 179.771L230.089 189.599H240.422L232.062 195.672L235.255 205.5L226.896 199.427L218.531 205.5L221.724 195.672L213.365 189.599H223.698L226.896 179.771Z" fill="white"/>
<path d="M283.49 179.771L286.682 189.599H297.021L288.656 195.672L291.849 205.5L283.49 199.427L275.125 205.5L278.318 195.672L269.958 189.599H280.297L283.49 179.771Z" fill="white"/>
<path d="M28.776 58.2448L31.9739 68.0677H42.3073L33.9479 74.1406L37.1406 83.9687L28.776 77.8958L20.4167 83.9687L23.6094 74.1406L15.25 68.0677H25.5833L28.776 58.2448Z" fill="white"/>
<path d="M85.375 58.2448L88.5677 68.0677H98.901L90.5417 74.1406L93.7344 83.9687L85.375 77.8958L77.0104 83.9687L80.2031 74.1406L71.8437 68.0677H82.1771L85.375 58.2448Z" fill="white"/>
<path d="M141.969 58.2448L145.161 68.0677H155.495L147.135 74.1406L150.328 83.9687L141.969 77.8958L133.604 83.9687L136.797 74.1406L128.437 68.0677H138.771L141.969 58.2448Z" fill="white"/>
<path d="M198.562 58.2448L201.755 68.0677H212.094L203.729 74.1406L206.922 83.9687L198.562 77.8958L190.198 83.9687L193.396 74.1406L185.031 68.0677H195.37L198.562 58.2448Z" fill="white"/>
<path d="M255.156 58.2448L258.349 68.0677H268.688L260.323 74.1406L263.516 83.9687L255.156 77.8958L246.792 83.9687L249.99 74.1406L241.625 68.0677H251.964L255.156 58.2448Z" fill="white"/>
<path d="M311.75 58.2448L314.943 68.0677H325.281L316.917 74.1406L320.115 83.9687L311.75 77.8958L303.391 83.9687L306.583 74.1406L298.219 68.0677H308.557L311.75 58.2448Z" fill="white"/>
<path d="M28.776 106.781L31.9739 116.604H42.3073L33.9479 122.677L37.1406 132.505L28.776 126.432L20.4167 132.505L23.6094 122.677L15.25 116.604H25.5833L28.776 106.781Z" fill="white"/>
<path d="M85.375 106.781L88.5677 116.604H98.901L90.5417 122.677L93.7344 132.505L85.375 126.432L77.0104 132.505L80.2031 122.677L71.8437 116.604H82.1771L85.375 106.781Z" fill="white"/>
<path d="M141.969 106.781L145.161 116.604H155.495L147.135 122.677L150.328 132.505L141.969 126.432L133.604 132.505L136.797 122.677L128.437 116.604H138.771L141.969 106.781Z" fill="white"/>
<path d="M198.562 106.781L201.755 116.604H212.094L203.729 122.677L206.922 132.505L198.562 126.432L190.198 132.505L193.396 122.677L185.031 116.604H195.37L198.562 106.781Z" fill="white"/>
<path d="M255.156 106.781L258.349 116.604H268.688L260.323 122.677L263.516 132.505L255.156 126.432L246.792 132.505L249.99 122.677L241.625 116.604H251.964L255.156 106.781Z" fill="white"/>
<path d="M311.75 106.781L314.943 116.604H325.281L316.917 122.677L320.115 132.505L311.75 126.432L303.391 132.505L306.583 122.677L298.219 116.604H308.557L311.75 106.781Z" fill="white"/>
<path d="M28.776 155.318L31.9739 165.141H42.3073L33.9479 171.219L37.1406 181.036L28.776 174.969L20.4167 181.036L23.6094 171.219L15.25 165.141H25.5833L28.776 155.318Z" fill="white"/>
<path d="M85.375 155.318L88.5677 165.141H98.901L90.5417 171.219L93.7344 181.036L85.375 174.969L77.0104 181.036L80.2031 171.219L71.8437 165.141H82.1771L85.375 155.318Z" fill="white"/>
<path d="M141.969 155.318L145.161 165.141H155.495L147.135 171.219L150.328 181.036L141.969 174.969L133.604 181.036L136.797 171.219L128.437 165.141H138.771L141.969 155.318Z" fill="white"/>
<path d="M198.562 155.318L201.755 165.141H212.094L203.729 171.219L206.922 181.036L198.562 174.969L190.198 181.036L193.396 171.219L185.031 165.141H195.37L198.562 155.318Z" fill="white"/>
<path d="M255.156 155.318L258.349 165.141H268.688L260.323 171.219L263.516 181.036L255.156 174.969L246.792 181.036L249.99 171.219L241.625 165.141H251.964L255.156 155.318Z" fill="white"/>
<path d="M311.75 155.318L314.943 165.141H325.281L316.917 171.219L320.115 181.036L311.75 174.969L303.391 181.036L306.583 171.219L298.219 165.141H308.557L311.75 155.318Z" fill="white"/>
<path d="M28.776 203.854L31.9739 213.682H42.3073L33.9479 219.755L37.1406 229.578L28.776 223.505L20.4167 229.578L23.6094 219.755L15.25 213.682H25.5833L28.776 203.854Z" fill="white"/>
<path d="M85.375 203.854L88.5677 213.682H98.901L90.5417 219.755L93.7344 229.578L85.375 223.505L77.0104 229.578L80.2031 219.755L71.8437 213.682H82.1771L85.375 203.854Z" fill="white"/>
<path d="M141.969 203.854L145.161 213.682H155.495L147.135 219.755L150.328 229.578L141.969 223.505L133.604 229.578L136.797 219.755L128.437 213.682H138.771L141.969 203.854Z" fill="white"/>
<path d="M198.562 203.854L201.755 213.682H212.094L203.729 219.755L206.922 229.578L198.562 223.505L190.198 229.578L193.396 219.755L185.031 213.682H195.37L198.562 203.854Z" fill="white"/>
<path d="M255.156 203.854L258.349 213.682H268.688L260.323 219.755L263.516 229.578L255.156 223.505L246.792 229.578L249.99 219.755L241.625 213.682H251.964L255.156 203.854Z" fill="white"/>
<path d="M311.75 203.854L314.943 213.682H325.281L316.917 219.755L320.115 229.578L311.75 223.505L303.391 229.578L306.583 219.755L298.219 213.682H308.557L311.75 203.854Z" fill="white"/>
</g>
</g>
<defs>
<clipPath id="clip0_765_15156">
<rect width="900" height="450" fill="white"/>
</clipPath>
</defs>
</svg>
