<svg width="900" height="450" viewBox="0 0 900 450" fill="none" xmlns="http://www.w3.org/2000/svg">
<g clip-path="url(#clip0_765_15464)">
<path d="M900 0H0V450H900V0Z" fill="#1E1E1E"/>
<mask id="mask0_765_15464" style="mask-type:luminance" maskUnits="userSpaceOnUse" x="0" y="0" width="900" height="450">
<path d="M900 0H0V450H900V0Z" fill="white"/>
</mask>
<g mask="url(#mask0_765_15464)">
<mask id="mask1_765_15464" style="mask-type:luminance" maskUnits="userSpaceOnUse" x="0" y="0" width="900" height="450">
<path d="M0 0H900V450H0V0Z" fill="white"/>
</mask>
<g mask="url(#mask1_765_15464)">
<path d="M0 0H900V450H0V0Z" fill="white"/>
<path d="M0 0H900V450H0V0Z" fill="white"/>
</g>
<mask id="mask2_765_15464" style="mask-type:luminance" maskUnits="userSpaceOnUse" x="-1" y="0" width="903" height="450">
<path d="M-1 -3.37219e-06H902V449.333H-1V-3.37219e-06Z" fill="white"/>
</mask>
<g mask="url(#mask2_765_15464)">
<path d="M-0.987215 -3.37219e-06H900.781V449.333H-0.987215V-3.37219e-06Z" fill="white"/>
</g>
<mask id="mask3_765_15464" style="mask-type:luminance" maskUnits="userSpaceOnUse" x="-1" y="49" width="903" height="351">
<path d="M-1 49.3333H902V400H-1V49.3333Z" fill="white"/>
</mask>
<g mask="url(#mask3_765_15464)">
<path d="M326.929 49.9271H900.781V99.8542H326.929V49.9271ZM326.929 149.776H900.781V199.703H326.929V149.776ZM-0.987172 249.63H900.781V299.557H-0.987172V249.63ZM-0.987172 349.484H900.781V399.406H-0.987172V349.484Z" fill="#0038A8"/>
</g>
<path d="M130.802 151.026L139.771 164.438C102.875 191.135 125.406 206.927 99.2656 215.464C115.521 199.604 96.6979 198.255 110.396 165.188" fill="#FCD116"/>
<path d="M98.3489 216.016L99.0989 215.281C107.135 207.427 106.505 203.198 105.552 196.807C104.604 190.432 103.307 181.682 110.182 165.089L110.281 164.854L110.729 165.036L110.63 165.271C103.807 181.745 105.089 190.401 106.036 196.74C106.984 203.083 107.62 207.344 100.177 214.896C111.479 210.938 112.927 205.495 114.891 198.073C117.203 189.339 120.068 178.453 139.437 164.391L130.448 150.974L130.849 150.708L140.089 164.505L139.901 164.641C120.5 178.687 117.635 189.5 115.339 198.188C113.276 205.995 111.797 211.62 99.3125 215.698L98.3489 216.016Z" fill="#934713"/>
<path d="M99.3802 215.682L99.1614 215.25C108.302 210.885 109.318 204.083 110.844 193.781C112.26 184.229 114.208 171.146 124.177 154.703L124.594 154.953C114.672 171.313 112.812 183.813 111.328 193.844C109.781 204.297 108.75 211.203 99.3802 215.682Z" fill="#934713"/>
<path d="M136.943 124.5H154.849L136.943 222.953L119.036 124.5H136.943Z" fill="#FCD116"/>
<path d="M136.943 224.318L118.75 124.266H155.13L155.078 124.547L136.943 224.318ZM137.193 124.75V220.24L154.547 124.75H137.193ZM119.333 124.75L136.693 220.24V124.75H119.333Z" fill="#934713"/>
<path d="M113.859 138.911L110.729 154.74C65.7604 147.531 70.5208 174.625 46.0104 162.177C68.7239 162.458 56.3594 148.198 89.4427 134.5" fill="#FCD116"/>
<path d="M57.4427 165.755C54.3125 165.755 50.651 164.807 45.8906 162.391L44.9427 161.927L45.9948 161.943C57.2239 162.078 59.7708 158.646 63.6354 153.438C67.4792 148.245 72.7344 141.156 89.3281 134.286L89.5469 134.182L89.7292 134.635L89.4948 134.734C73.0208 141.557 67.8125 148.599 64 153.74C60.1875 158.896 57.6094 162.359 47.026 162.443C57.8229 167.635 62.6823 164.807 69.3229 160.943C77.1458 156.401 86.8646 150.745 110.516 154.49L113.641 138.646L114.125 138.745L110.896 155.036L110.682 154.99C87.0312 151.193 77.3646 156.833 69.5885 161.344C65.4479 163.755 62 165.755 57.4427 165.755Z" fill="#934713"/>
<path d="M52.5677 163.672C50.5364 163.672 48.3542 163.292 45.9114 162.427L46.0729 161.958C55.6302 165.339 61.151 161.245 69.5052 155.036C77.2604 149.281 87.8958 141.406 106.568 136.828L106.687 137.297C88.1146 141.839 77.9635 149.365 69.8073 155.422C63.4323 160.146 58.6927 163.672 52.5677 163.672Z" fill="#934713"/>
<path d="M136.943 124.5L149.604 137.161L67.3437 194.115L124.292 111.849L136.943 124.5Z" fill="#FCD116"/>
<path d="M66.3646 195.078L124.245 111.469L124.443 111.667L149.974 137.182L149.74 137.349L66.3646 195.078ZM136.943 124.849L69.4219 192.38L149.224 137.13L136.943 124.849ZM124.328 112.234L69.0729 192.031L136.609 124.5L124.328 112.234Z" fill="#934713"/>
<path d="M110.432 118.359L97.0156 127.328C70.3229 90.4323 54.5312 112.964 45.9948 86.8229C61.8542 103.078 63.1979 84.2604 96.2656 97.9531" fill="#FCD116"/>
<path d="M96.9687 127.677L96.8333 127.495C82.7864 108.089 71.9687 105.229 63.2812 102.932C55.4792 100.87 49.8542 99.3854 45.776 86.9063L45.4427 85.9062L46.1771 86.6563C54.0156 94.6927 58.2552 94.0625 64.6458 93.1146C71.0208 92.1615 79.776 90.8646 96.3698 97.7396L96.5989 97.8385L96.4167 98.2865L96.1823 98.1875C79.7083 91.3646 71.0573 92.6458 64.7135 93.5938C58.375 94.5417 54.1146 95.1771 46.5573 87.7344C50.5208 99.0365 55.9583 100.484 63.3854 102.448C72.1198 104.76 83.0052 107.625 97.0677 126.995L110.479 118.01L110.745 118.406L96.9687 127.677Z" fill="#934713"/>
<path d="M106.505 112.151C90.1458 102.234 77.6458 100.37 67.6094 98.8854C57.1614 97.3385 50.2552 96.3073 45.776 86.9375L46.2083 86.724C50.5677 95.8594 57.375 96.875 67.6771 98.4063C77.2292 99.8177 90.3125 101.766 106.75 111.734L106.505 112.151Z" fill="#934713"/>
<path d="M136.943 124.5V142.406L38.4844 124.5L136.943 106.594V124.5Z" fill="#FCD116"/>
<path d="M137.193 142.703L136.906 142.656L37.1406 124.516L137.193 106.328V142.703ZM41.1979 124.75L136.693 142.104V124.75H41.1979ZM41.1979 124.266H136.693V106.906L41.1979 124.266Z" fill="#934713"/>
<path d="M122.531 101.417L106.703 98.2865C113.906 53.3229 86.8177 58.0781 99.2656 33.5677C98.9792 56.2812 113.245 43.9167 126.937 77" fill="#FCD116"/>
<path d="M122.729 101.698L106.437 98.4687L106.469 98.2396C110.266 74.5885 104.62 64.9219 100.115 57.151C96.0521 50.1771 93.125 45.151 99.0625 33.4323L99.5312 32.5L99.5104 33.5521C99.3802 44.7812 102.807 47.3281 108.016 51.1927C113.193 55.0365 120.297 60.2917 127.172 76.8854L127.271 77.1198L126.823 77.3021L126.724 77.0677C119.901 60.5937 112.859 55.3854 107.719 51.5729C102.557 47.7604 99.099 45.1979 99.0156 34.599C93.8229 45.401 96.651 50.2604 100.51 56.901C105.057 64.7187 110.714 74.4375 106.969 98.0885L122.828 101.219L122.729 101.698Z" fill="#934713"/>
<path d="M124.141 94.2448C119.599 75.6719 112.078 65.5208 106.021 57.3646C99.7292 48.875 95.5677 43.2708 99.0312 33.4687L99.4948 33.6354C96.1198 43.1875 100.214 48.7135 106.422 57.0677C112.177 64.8229 120.047 75.4375 124.625 94.125L124.141 94.2448Z" fill="#934713"/>
<path d="M136.943 124.5L124.276 137.161L67.3281 54.901L149.589 111.849L136.943 124.5Z" fill="#FCD116"/>
<path d="M124.26 137.547L124.094 137.313L66.3802 53.9375L67.4792 54.7031L149.99 111.818L124.26 137.547ZM69.0729 56.9844L124.328 136.781L136.609 124.5L69.0729 56.9844ZM69.4219 56.6302L136.958 124.167L149.24 111.885L69.4219 56.6302Z" fill="#934713"/>
<path d="M143.083 97.9896L134.109 84.5729C171.005 57.8802 148.474 42.0885 174.62 33.5521C158.359 49.4115 177.182 50.7604 163.484 83.8281" fill="#FCD116"/>
<path d="M143.016 98.3229L133.781 84.526L133.964 84.3906C153.365 70.3437 156.229 59.526 158.526 50.8437C160.589 43.0365 162.068 37.4115 174.552 33.3333L175.552 33L174.802 33.7344C166.766 41.5729 167.396 45.8177 168.344 52.2083C169.292 58.5781 170.589 67.3333 163.719 83.9271L163.62 84.1563L163.167 83.974L163.271 83.7448C170.094 67.2656 168.812 58.6146 167.859 52.2917C166.911 45.9479 166.281 41.6875 173.719 34.1302C162.422 38.0937 160.974 43.5365 159.01 50.9583C156.693 59.6927 153.833 70.5781 134.464 84.6406L143.448 98.0573L143.016 98.3229Z" fill="#934713"/>
<path d="M149.703 94.3125L149.292 94.0625C159.208 77.7031 161.073 65.2031 162.552 55.1667C164.099 44.7187 165.13 37.8125 174.5 33.3333L174.719 33.7656C165.583 38.125 164.568 44.9323 163.036 55.2344C161.62 64.7865 159.693 77.8854 149.703 94.3125Z" fill="#934713"/>
<path d="M136.943 124.5H119.052L136.958 26.0469L154.865 124.5H136.943Z" fill="#FCD116"/>
<path d="M155.13 124.75H118.75L118.802 124.464L136.943 24.6979L155.13 124.75ZM137.193 124.266H154.547L137.193 28.776V124.266ZM119.333 124.266H136.693V28.776L119.333 124.266Z" fill="#934713"/>
<path d="M160.042 110.104L163.167 94.276C208.135 101.484 203.375 74.3906 227.891 86.8385C205.172 86.5573 217.536 100.818 184.453 114.516" fill="#FCD116"/>
<path d="M184.339 114.828L184.156 114.38L184.385 114.281C200.865 107.458 206.073 100.417 209.88 95.276C213.693 90.1146 216.255 86.6563 226.859 86.5729C216.057 81.3802 211.198 84.2083 204.557 88.0677C196.734 92.6146 187.016 98.2708 163.37 94.526L160.24 110.37L159.755 110.271L162.984 93.9792L163.219 94.0104C186.865 97.8073 196.536 92.1615 204.307 87.651C211.281 83.5938 216.307 80.6615 228.021 86.6042L228.953 87.0885L227.906 87.0729C227.687 87.0729 227.474 87.0729 227.276 87.0729C216.573 87.0729 214.062 90.4635 210.281 95.5729C206.437 100.766 201.177 107.859 184.589 114.729L184.339 114.828Z" fill="#934713"/>
<path d="M167.312 112.182L167.198 111.719C185.771 107.177 195.922 99.651 204.073 93.5937C212.562 87.3021 218.172 83.1458 227.974 86.6042L227.807 87.0729C218.255 83.6927 212.729 87.7865 204.375 93.9948C196.62 99.7344 186 107.609 167.312 112.182Z" fill="#934713"/>
<path d="M136.943 124.5L124.276 111.833L206.536 54.8854L149.589 137.146L136.943 124.5Z" fill="#FCD116"/>
<path d="M149.641 137.547L123.911 111.818L124.141 111.651L207.521 53.9375L149.641 137.547ZM137.292 124.5L149.573 136.781L204.823 56.9844L137.292 124.5ZM124.661 111.885L136.943 124.167L204.474 56.6302L124.661 111.885Z" fill="#934713"/>
<path d="M163.469 130.641L176.88 121.672C203.573 158.563 219.37 136.031 227.906 162.177C212.047 145.917 210.698 164.74 177.63 151.042" fill="#FCD116"/>
<path d="M228.453 163.109L227.724 162.359C219.885 154.323 215.641 154.953 209.25 155.901C202.875 156.849 194.125 158.151 177.531 151.276L177.297 151.177L177.479 150.729L177.714 150.828C194.187 157.651 202.844 156.37 209.182 155.422C215.526 154.469 219.786 153.839 227.339 161.276C223.38 149.979 217.937 148.531 210.516 146.568C201.776 144.255 190.896 141.391 176.833 122.021L163.417 131.005L163.151 130.604L176.948 121.37L177.083 121.552C191.125 140.958 201.943 143.818 210.63 146.115C218.437 148.182 224.062 149.661 228.141 162.141L228.453 163.109Z" fill="#934713"/>
<path d="M227.672 162.292C223.312 153.156 216.505 152.141 206.203 150.609C196.651 149.198 183.573 147.25 167.13 137.281L167.38 136.865C183.74 146.781 196.234 148.646 206.271 150.13C216.724 151.677 223.63 152.708 228.104 162.078L227.672 162.292Z" fill="#934713"/>
<path d="M136.943 124.5V106.594L235.396 124.5L136.943 142.406V124.5Z" fill="#FCD116"/>
<path d="M136.693 142.703V106.328L136.974 106.375L236.745 124.516L136.693 142.703ZM137.193 124.75V142.104L232.682 124.75H137.193ZM137.193 124.266H232.682L137.193 106.906V124.266Z" fill="#934713"/>
<path d="M151.354 147.599L167.177 150.729C159.974 195.693 187.068 190.932 174.62 215.448C174.901 192.729 160.641 205.094 146.943 172.01" fill="#FCD116"/>
<path d="M174.354 216.51L174.37 215.464C174.5 204.229 171.073 201.682 165.865 197.823C160.687 193.979 153.583 188.719 146.708 172.13L146.609 171.896L147.057 171.714L147.161 171.943C153.984 188.422 161.021 193.63 166.167 197.443C171.323 201.271 174.786 203.833 174.87 214.417C180.062 203.615 177.229 198.755 173.37 192.115C168.828 184.292 163.167 174.573 166.911 150.927L151.068 147.797L151.172 147.312L167.464 150.542L167.427 150.776C163.635 174.427 169.276 184.094 173.786 191.865C177.849 198.839 180.776 203.865 174.833 215.578L174.354 216.51Z" fill="#934713"/>
<path d="M174.849 215.547L174.385 215.38C177.766 205.828 173.672 200.302 167.464 191.932C161.703 184.177 153.833 173.542 149.255 154.87L149.74 154.755C154.281 173.328 161.802 183.479 167.859 191.63C174.151 200.135 178.312 205.745 174.849 215.547Z" fill="#934713"/>
<path d="M136.943 124.5L149.604 111.833L206.552 194.094L124.292 137.146L136.943 124.5Z" fill="#FCD116"/>
<path d="M207.521 195.078L206.422 194.313L123.911 137.198L149.641 111.469L149.807 111.703L207.521 195.078ZM124.661 137.13L204.458 192.38L136.922 124.849L124.661 137.13ZM137.292 124.5L204.823 192.031L149.573 112.234L137.292 124.5Z" fill="#934713"/>
<path d="M136.943 91.6823C135.865 91.6823 134.792 91.7292 133.724 91.8385C132.651 91.9427 131.589 92.099 130.531 92.3073C129.479 92.5156 128.437 92.776 127.406 93.0885C126.38 93.3958 125.365 93.7604 124.37 94.1719C123.38 94.5781 122.406 95.0417 121.458 95.5469C120.51 96.0521 119.589 96.6042 118.693 97.2031C117.797 97.7969 116.937 98.4375 116.104 99.1198C115.271 99.8021 114.474 100.521 113.714 101.281C112.953 102.042 112.229 102.839 111.547 103.667C110.865 104.5 110.224 105.365 109.63 106.255C109.031 107.151 108.479 108.073 107.969 109.021C107.464 109.969 107.005 110.937 106.594 111.932C106.182 112.927 105.818 113.938 105.505 114.969C105.193 115.995 104.932 117.036 104.724 118.094C104.51 119.146 104.354 120.208 104.25 121.281C104.146 122.349 104.089 123.422 104.089 124.5C104.089 125.573 104.146 126.646 104.25 127.719C104.354 128.786 104.51 129.849 104.724 130.906C104.932 131.958 105.193 133 105.505 134.031C105.818 135.063 106.182 136.073 106.594 137.068C107.005 138.057 107.464 139.031 107.969 139.979C108.479 140.927 109.031 141.849 109.63 142.74C110.224 143.635 110.865 144.5 111.547 145.328C112.229 146.161 112.953 146.958 113.714 147.714C114.474 148.474 115.271 149.198 116.104 149.88C116.937 150.563 117.797 151.198 118.693 151.797C119.589 152.396 120.51 152.948 121.458 153.453C122.406 153.958 123.38 154.417 124.37 154.828C125.365 155.24 126.38 155.599 127.406 155.911C128.437 156.224 129.479 156.484 130.531 156.693C131.589 156.901 132.651 157.057 133.724 157.161C134.792 157.266 135.865 157.318 136.943 157.318C138.016 157.318 139.089 157.266 140.161 157.161C141.229 157.057 142.292 156.901 143.349 156.693C144.401 156.484 145.443 156.224 146.474 155.911C147.505 155.599 148.516 155.24 149.51 154.828C150.505 154.417 151.474 153.958 152.422 153.453C153.375 152.948 154.297 152.396 155.187 151.797C156.083 151.198 156.948 150.563 157.776 149.88C158.609 149.198 159.406 148.474 160.167 147.714C160.927 146.958 161.651 146.161 162.333 145.328C163.016 144.5 163.656 143.635 164.255 142.74C164.849 141.849 165.406 140.927 165.911 139.979C166.417 139.031 166.88 138.057 167.292 137.068C167.703 136.073 168.062 135.063 168.375 134.031C168.687 133 168.948 131.958 169.161 130.906C169.37 129.849 169.526 128.786 169.63 127.719C169.74 126.646 169.792 125.573 169.792 124.5C169.792 123.422 169.74 122.349 169.63 121.281C169.526 120.208 169.37 119.146 169.161 118.094C168.948 117.036 168.687 115.995 168.375 114.969C168.062 113.938 167.703 112.927 167.292 111.932C166.88 110.937 166.417 109.969 165.911 109.021C165.406 108.073 164.849 107.151 164.255 106.255C163.656 105.365 163.016 104.5 162.333 103.667C161.651 102.839 160.927 102.042 160.167 101.281C159.406 100.521 158.609 99.8021 157.776 99.1198C156.948 98.4375 156.083 97.7969 155.187 97.2031C154.297 96.6042 153.375 96.0521 152.422 95.5469C151.474 95.0417 150.505 94.5781 149.51 94.1719C148.516 93.7604 147.505 93.3958 146.474 93.0885C145.443 92.776 144.401 92.5156 143.349 92.3073C142.292 92.099 141.229 91.9427 140.161 91.8385C139.089 91.7292 138.016 91.6823 136.943 91.6823Z" fill="#FCD116"/>
<path d="M136.943 157.568C118.719 157.568 103.891 142.74 103.891 124.516C103.891 106.292 118.719 91.4479 136.943 91.4479C155.161 91.4479 170.01 106.276 170.01 124.516C170.01 142.74 155.182 157.568 136.943 157.568ZM136.943 91.9323C118.984 91.9323 104.375 106.542 104.375 124.5C104.375 142.453 118.984 157.068 136.943 157.068C154.896 157.068 169.51 142.453 169.51 124.5C169.51 106.542 154.896 91.9323 136.943 91.9323Z" fill="#934713"/>
<path d="M161.104 111.385C159.026 113.766 157.828 109.589 150.37 109.589C142.917 109.589 141.719 114.063 140.521 113.167C139.323 112.266 146.776 106.906 149.172 106.609C151.568 106.307 158.427 108.688 161.104 111.385ZM152.453 114.063C154.531 115.859 152.75 119.74 150.656 119.74C148.573 119.74 144.677 116.161 146.479 113.766" fill="#934713"/>
<path d="M142.615 116.745C142.917 113.167 145.896 112.568 150.672 112.568C155.448 112.568 157.526 116.146 159.323 117.042C157.245 117.042 155.448 114.063 150.672 114.063C145.896 114.063 145.896 114.063 142.615 117.042M143.516 117.641C144.714 115.844 146.193 119.438 149.49 119.438C152.766 119.438 154.562 118.542 156.646 117.063C158.724 115.563 153.667 120.635 150.385 120.635C147.109 120.635 142.615 118.839 143.516 117.641Z" fill="#934713"/>
<path d="M153.651 119.438C157.526 117.359 155.146 114.365 153.651 113.766C154.25 114.365 156.63 117.344 153.651 119.438ZM136.943 137.328C138.74 137.328 139.323 136.729 141.719 136.729C144.099 136.729 149.771 140.01 153.052 138.813C146.193 141.49 148.875 139.708 136.943 139.708H135.443M154.25 141.505C153.052 139.427 153.349 140.01 150.969 136.729C153.349 138.526 153.948 139.427 154.25 141.505ZM136.943 144.5C144.396 144.5 143.198 143.005 153.052 138.828C145.896 139.724 144.396 142.104 136.943 142.104H135.443M136.943 133.453C139.021 133.453 139.62 131.953 142.016 131.953C144.396 131.953 147.693 132.854 149.172 134.036C149.474 134.333 148.276 131.656 145.896 131.354C143.516 131.057 144.396 127.177 141.719 126.578C141.719 127.776 142.615 127.479 142.917 129.26C142.917 130.755 140.234 130.755 139.635 129.26C140.234 131.641 138.437 131.641 136.958 131.641M112.776 111.385C114.859 113.766 116.057 109.589 123.51 109.589C130.969 109.589 132.167 114.063 133.365 113.167C134.562 112.266 127.104 106.906 124.708 106.609C122.328 106.307 115.458 108.688 112.776 111.385ZM121.432 114.063C119.349 115.859 121.13 119.74 123.229 119.74C125.307 119.74 129.203 116.161 127.406 113.766" fill="#934713"/>
<path d="M131.281 116.745C130.984 113.167 127.99 112.568 123.229 112.568C118.453 112.568 116.37 116.146 114.573 117.042C116.656 117.042 118.453 114.063 123.229 114.063C128.005 114.063 128.005 114.063 131.281 117.042M130.385 117.641C129.187 115.844 127.703 119.438 124.411 119.438C121.13 119.438 119.333 118.542 117.255 117.063C115.172 115.563 120.234 120.635 123.51 120.635C126.807 120.62 131.281 118.839 130.385 117.641Z" fill="#934713"/>
<path d="M120.234 119.438C116.354 117.359 118.734 114.365 120.234 113.766C119.635 114.365 117.255 117.344 120.234 119.438ZM136.943 137.328C135.146 137.328 134.562 136.729 132.167 136.729C129.786 136.729 124.109 140.01 120.833 138.813C127.687 141.49 125.01 139.708 136.943 139.708H138.437M119.635 141.505C120.833 139.427 120.531 140.01 122.911 136.729C120.531 138.526 119.932 139.427 119.635 141.505ZM136.943 144.5C129.484 144.5 130.682 143.005 120.833 138.828C127.99 139.724 129.484 142.104 136.943 142.104H138.437M136.943 133.453C134.859 133.453 134.26 131.953 131.865 131.953C129.484 131.953 126.193 132.854 124.708 134.036C124.411 134.333 125.609 131.656 127.99 131.354C130.37 131.057 129.484 127.177 132.167 126.578C132.167 127.776 131.266 127.479 130.969 129.26C130.969 130.755 133.646 130.755 134.245 129.26C133.646 131.641 135.443 131.641 136.922 131.641M136.943 147.182C135.443 147.182 131.568 148.078 136.943 148.078C142.318 148.078 138.437 147.182 136.943 147.182Z" fill="#934713"/>
</g>
</g>
<defs>
<clipPath id="clip0_765_15464">
<rect width="900" height="450" fill="white"/>
</clipPath>
</defs>
</svg>
