<svg width="900" height="450" viewBox="0 0 900 450" fill="none" xmlns="http://www.w3.org/2000/svg">
<g clip-path="url(#clip0_765_15684)">
<path d="M900 0H0V450H900V0Z" fill="#1E1E1E"/>
<mask id="mask0_765_15684" style="mask-type:luminance" maskUnits="userSpaceOnUse" x="0" y="0" width="900" height="450">
<path d="M900 0H0V450H900V0Z" fill="white"/>
</mask>
<g mask="url(#mask0_765_15684)">
<mask id="mask1_765_15684" style="mask-type:luminance" maskUnits="userSpaceOnUse" x="0" y="0" width="900" height="450">
<path d="M0 0H900V450H0V0Z" fill="white"/>
</mask>
<g mask="url(#mask1_765_15684)">
<path d="M0 0H900V450H0V0Z" fill="white"/>
<path d="M0 0H900V450H0V0Z" fill="white"/>
<path d="M0 0H900V450H0V0Z" fill="#1EB53A"/>
</g>
<mask id="mask2_765_15684" style="mask-type:luminance" maskUnits="userSpaceOnUse" x="0" y="0" width="900" height="226">
<path d="M0 0H900V225.333H0V0Z" fill="white"/>
</mask>
<g mask="url(#mask2_765_15684)">
<path d="M0 0H900V224.667H0V0Z" fill="#0099B5"/>
</g>
<mask id="mask3_765_15684" style="mask-type:luminance" maskUnits="userSpaceOnUse" x="0" y="142" width="900" height="165">
<path d="M0 142.667H900V306.667H0V142.667Z" fill="white"/>
</mask>
<g mask="url(#mask3_765_15684)">
<path d="M0 143.786H900V305.547H0V143.786Z" fill="#CE1126"/>
</g>
<mask id="mask4_765_15684" style="mask-type:luminance" maskUnits="userSpaceOnUse" x="0" y="152" width="900" height="146">
<path d="M0 152H900V297.333H0V152Z" fill="white"/>
</mask>
<g mask="url(#mask4_765_15684)">
<path d="M0 152.776H900V296.563H0V152.776Z" fill="white"/>
</g>
<path d="M180.401 71.8958C180.401 73.6615 180.312 75.4219 180.141 77.1771C179.969 78.9375 179.708 80.6823 179.365 82.4115C179.021 84.1458 178.589 85.8542 178.078 87.5469C177.562 89.2344 176.969 90.8958 176.297 92.526C175.62 94.1615 174.865 95.7552 174.031 97.3125C173.198 98.8698 172.292 100.38 171.312 101.849C170.333 103.318 169.281 104.734 168.161 106.099C167.042 107.464 165.854 108.771 164.604 110.021C163.359 111.271 162.052 112.453 160.687 113.573C159.323 114.693 157.906 115.745 156.437 116.724C154.969 117.708 153.453 118.615 151.896 119.448C150.339 120.281 148.745 121.031 147.115 121.708C145.484 122.385 143.823 122.979 142.13 123.49C140.443 124.005 138.729 124.432 137 124.776C135.266 125.12 133.521 125.38 131.766 125.552C130.005 125.729 128.245 125.813 126.479 125.813C124.714 125.813 122.953 125.729 121.193 125.552C119.437 125.38 117.693 125.12 115.958 124.776C114.229 124.432 112.516 124.005 110.828 123.49C109.135 122.979 107.474 122.385 105.844 121.708C104.214 121.031 102.62 120.281 101.062 119.448C99.5052 118.615 97.9896 117.708 96.5208 116.724C95.0521 115.745 93.6354 114.693 92.2708 113.573C90.9062 112.453 89.5989 111.271 88.3542 110.021C87.1042 108.771 85.9167 107.464 84.7969 106.099C83.6771 104.734 82.625 103.318 81.6458 101.849C80.6667 100.38 79.7604 98.8698 78.9271 97.3125C78.0937 95.7552 77.3385 94.1615 76.6614 92.526C75.9896 90.8958 75.3958 89.2344 74.8802 87.5469C74.3698 85.8542 73.9375 84.1458 73.5937 82.4115C73.25 80.6823 72.9896 78.9375 72.8177 77.1771C72.6458 75.4219 72.5573 73.6615 72.5573 71.8958C72.5573 70.125 72.6458 68.3646 72.8177 66.6094C72.9896 64.849 73.25 63.1042 73.5937 61.375C73.9375 59.6406 74.3698 57.9323 74.8802 56.2396C75.3958 54.5521 75.9896 52.8906 76.6614 51.2604C77.3385 49.6302 78.0937 48.0312 78.9271 46.474C79.7604 44.9167 80.6667 43.4062 81.6458 41.9375C82.625 40.4687 83.6771 39.0521 84.7969 37.6875C85.9167 36.3229 87.1042 35.0156 88.3542 33.7656C89.5989 32.5156 90.9062 31.3333 92.2708 30.2135C93.6354 29.0937 95.0521 28.0417 96.5208 27.0625C97.9896 26.0781 99.5052 25.1719 101.062 24.3385C102.62 23.5052 104.214 22.7552 105.844 22.0781C107.474 21.401 109.135 20.8073 110.828 20.2969C112.516 19.7812 114.229 19.3542 115.958 19.0104C117.693 18.6667 119.437 18.4062 121.193 18.2344C122.953 18.0625 124.714 17.974 126.479 17.974C128.245 17.974 130.005 18.0625 131.766 18.2344C133.521 18.4062 135.266 18.6667 137 19.0104C138.729 19.3542 140.443 19.7812 142.13 20.2969C143.823 20.8073 145.484 21.401 147.115 22.0781C148.745 22.7552 150.339 23.5052 151.896 24.3385C153.453 25.1719 154.969 26.0781 156.437 27.0625C157.906 28.0417 159.323 29.0937 160.687 30.2135C162.052 31.3333 163.359 32.5156 164.604 33.7656C165.854 35.0156 167.042 36.3229 168.161 37.6875C169.281 39.0521 170.333 40.4687 171.312 41.9375C172.292 43.4062 173.198 44.9167 174.031 46.474C174.865 48.0312 175.62 49.6302 176.297 51.2604C176.969 52.8906 177.562 54.5521 178.078 56.2396C178.589 57.9323 179.021 59.6406 179.365 61.375C179.708 63.1042 179.969 64.849 180.141 66.6094C180.312 68.3646 180.401 70.125 180.401 71.8958Z" fill="white"/>
<path d="M198.375 71.8958C198.375 73.6615 198.286 75.4219 198.115 77.1771C197.937 78.9375 197.682 80.6823 197.339 82.4115C196.99 84.1458 196.562 85.8542 196.052 87.5469C195.536 89.2344 194.943 90.8958 194.271 92.526C193.594 94.1615 192.839 95.7552 192.005 97.3125C191.172 98.8698 190.266 100.38 189.286 101.849C188.302 103.318 187.255 104.734 186.135 106.099C185.016 107.464 183.828 108.771 182.578 110.021C181.333 111.271 180.026 112.453 178.661 113.573C177.292 114.693 175.875 115.745 174.411 116.724C172.943 117.708 171.427 118.615 169.87 119.448C168.312 120.281 166.719 121.031 165.089 121.708C163.453 122.385 161.797 122.979 160.104 123.49C158.417 124.005 156.703 124.432 154.974 124.776C153.24 125.12 151.495 125.38 149.74 125.552C147.979 125.729 146.219 125.813 144.453 125.813C142.687 125.813 140.927 125.729 139.167 125.552C137.411 125.38 135.667 125.12 133.932 124.776C132.203 124.432 130.49 124.005 128.802 123.49C127.109 122.979 125.448 122.385 123.818 121.708C122.187 121.031 120.594 120.281 119.036 119.448C117.479 118.615 115.964 117.708 114.495 116.724C113.026 115.745 111.609 114.693 110.245 113.573C108.88 112.453 107.573 111.271 106.323 110.021C105.078 108.771 103.891 107.464 102.771 106.099C101.651 104.734 100.599 103.318 99.6198 101.849C98.6406 100.38 97.7344 98.8698 96.901 97.3125C96.0677 95.7552 95.3125 94.1615 94.6354 92.526C93.9635 90.8958 93.3646 89.2344 92.8542 87.5469C92.3437 85.8542 91.9115 84.1458 91.5677 82.4115C91.224 80.6823 90.9635 78.9375 90.7917 77.1771C90.6198 75.4219 90.5312 73.6615 90.5312 71.8958C90.5312 70.125 90.6198 68.3646 90.7917 66.6094C90.9635 64.849 91.224 63.1042 91.5677 61.375C91.9115 59.6406 92.3437 57.9323 92.8542 56.2396C93.3646 54.5521 93.9635 52.8906 94.6354 51.2604C95.3125 49.6302 96.0677 48.0312 96.901 46.474C97.7344 44.9167 98.6406 43.4062 99.6198 41.9375C100.599 40.4687 101.651 39.0521 102.771 37.6875C103.891 36.3229 105.078 35.0156 106.323 33.7656C107.573 32.5156 108.88 31.3333 110.245 30.2135C111.609 29.0937 113.026 28.0417 114.495 27.0625C115.964 26.0781 117.479 25.1719 119.036 24.3385C120.594 23.5052 122.187 22.7552 123.818 22.0781C125.448 21.401 127.109 20.8073 128.802 20.2969C130.49 19.7812 132.203 19.3542 133.932 19.0104C135.667 18.6667 137.411 18.4062 139.167 18.2344C140.927 18.0625 142.687 17.974 144.453 17.974C146.219 17.974 147.979 18.0625 149.74 18.2344C151.495 18.4062 153.24 18.6667 154.974 19.0104C156.703 19.3542 158.417 19.7812 160.104 20.2969C161.797 20.8073 163.453 21.401 165.089 22.0781C166.719 22.7552 168.312 23.5052 169.87 24.3385C171.427 25.1719 172.943 26.0781 174.411 27.0625C175.875 28.0417 177.292 29.0937 178.661 30.2135C180.026 31.3333 181.333 32.5156 182.578 33.7656C183.828 35.0156 185.016 36.3229 186.135 37.6875C187.255 39.0521 188.302 40.4687 189.286 41.9375C190.266 43.4062 191.172 44.9167 192.005 46.474C192.839 48.0312 193.594 49.6302 194.271 51.2604C194.943 52.8906 195.536 54.5521 196.052 56.2396C196.562 57.9323 196.99 59.6406 197.339 61.375C197.682 63.1042 197.937 64.849 198.115 66.6094C198.286 68.3646 198.375 70.125 198.375 71.8958Z" fill="#0099B5"/>
<path d="M245.104 104.245L241.771 114.5L246.901 116.167" fill="white"/>
<path d="M245.104 104.245L248.437 114.5L243.307 116.167" fill="white"/>
<path d="M255.359 111.698H244.578V117.089" fill="white"/>
<path d="M255.359 111.698L246.635 118.036L243.464 113.672" fill="white"/>
<path d="M234.849 111.698L243.573 118.036L246.74 113.672" fill="white"/>
<path d="M234.849 111.698H245.63V117.089" fill="white"/>
<path d="M251.443 123.755L248.109 113.5L242.979 115.161" fill="white"/>
<path d="M251.443 123.755L242.719 117.417L245.885 113.052" fill="white"/>
<path d="M238.766 123.755L247.49 117.417L244.318 113.052" fill="white"/>
<path d="M238.766 123.755L242.099 113.5L247.224 115.161" fill="white"/>
<path d="M245.104 61.1094L241.771 71.3646L246.901 73.0313" fill="white"/>
<path d="M245.104 61.1094L248.437 71.3646L243.307 73.0313" fill="white"/>
<path d="M255.359 68.5625H244.578V73.9531" fill="white"/>
<path d="M255.359 68.5625L246.635 74.901L243.464 70.5365" fill="white"/>
<path d="M234.849 68.5625L243.573 74.901L246.74 70.5365" fill="white"/>
<path d="M234.849 68.5625H245.63V73.9531" fill="white"/>
<path d="M251.443 80.6198L248.109 70.3594L242.979 72.026" fill="white"/>
<path d="M251.443 80.6198L242.719 74.2812L245.885 69.9167" fill="white"/>
<path d="M238.766 80.6198L247.49 74.2812L244.318 69.9167" fill="white"/>
<path d="M238.766 80.6198L242.099 70.3594L247.224 72.026" fill="white"/>
<path d="M245.104 17.974L241.771 28.2292L246.901 29.8958" fill="white"/>
<path d="M245.104 17.974L248.437 28.2292L243.307 29.8958" fill="white"/>
<path d="M255.359 25.4271H244.578V30.8177" fill="white"/>
<path d="M255.359 25.4271L246.635 31.7656L243.464 27.401" fill="white"/>
<path d="M234.849 25.4271L243.573 31.7656L246.74 27.401" fill="white"/>
<path d="M234.849 25.4271H245.63V30.8177" fill="white"/>
<path d="M251.443 37.4844L248.109 27.224L242.979 28.8906" fill="white"/>
<path d="M251.443 37.4844L242.719 31.1406L245.885 26.7812" fill="white"/>
<path d="M238.766 37.4844L247.49 31.1406L244.318 26.7812" fill="white"/>
<path d="M238.766 37.4844L242.099 27.224L247.224 28.8906" fill="white"/>
<path d="M288.24 104.245L284.906 114.5L290.036 116.167" fill="white"/>
<path d="M288.24 104.245L291.573 114.5L286.443 116.167" fill="white"/>
<path d="M298.495 111.698H287.714V117.089" fill="white"/>
<path d="M298.495 111.698L289.771 118.036L286.604 113.672" fill="white"/>
<path d="M277.984 111.698L286.708 118.036L289.875 113.672" fill="white"/>
<path d="M277.984 111.698H288.766V117.089" fill="white"/>
<path d="M294.578 123.755L291.245 113.5L286.12 115.161" fill="white"/>
<path d="M294.578 123.755L285.854 117.417L289.021 113.052" fill="white"/>
<path d="M281.901 123.755L290.625 117.417L287.458 113.052" fill="white"/>
<path d="M281.901 123.755L285.234 113.5L290.359 115.161" fill="white"/>
<path d="M288.24 61.1094L284.906 71.3646L290.036 73.0313" fill="white"/>
<path d="M288.24 61.1094L291.573 71.3646L286.443 73.0313" fill="white"/>
<path d="M298.495 68.5625H287.714V73.9531" fill="white"/>
<path d="M298.495 68.5625L289.771 74.901L286.604 70.5365" fill="white"/>
<path d="M277.984 68.5625L286.708 74.901L289.875 70.5365" fill="white"/>
<path d="M277.984 68.5625H288.766V73.9531" fill="white"/>
<path d="M294.578 80.6198L291.245 70.3594L286.12 72.026" fill="white"/>
<path d="M294.578 80.6198L285.854 74.2812L289.021 69.9167" fill="white"/>
<path d="M281.901 80.6198L290.625 74.2812L287.458 69.9167" fill="white"/>
<path d="M281.901 80.6198L285.234 70.3594L290.359 72.026" fill="white"/>
<path d="M288.24 17.974L284.906 28.2292L290.036 29.8958" fill="white"/>
<path d="M288.24 17.974L291.573 28.2292L286.443 29.8958" fill="white"/>
<path d="M298.495 25.4271H287.714V30.8177" fill="white"/>
<path d="M298.495 25.4271L289.771 31.7656L286.604 27.401" fill="white"/>
<path d="M277.984 25.4271L286.708 31.7656L289.875 27.401" fill="white"/>
<path d="M277.984 25.4271H288.766V30.8177" fill="white"/>
<path d="M294.578 37.4844L291.245 27.224L286.12 28.8906" fill="white"/>
<path d="M294.578 37.4844L285.854 31.1406L289.021 26.7812" fill="white"/>
<path d="M281.901 37.4844L290.625 31.1406L287.458 26.7812" fill="white"/>
<path d="M281.901 37.4844L285.234 27.224L290.359 28.8906" fill="white"/>
<path d="M331.375 104.245L328.042 114.5L333.172 116.167" fill="white"/>
<path d="M331.375 104.245L334.708 114.5L329.578 116.167" fill="white"/>
<path d="M341.63 111.698H330.849V117.089" fill="white"/>
<path d="M341.63 111.698L332.906 118.036L329.74 113.672" fill="white"/>
<path d="M321.12 111.698L329.844 118.036L333.016 113.672" fill="white"/>
<path d="M321.12 111.698H331.901V117.089" fill="white"/>
<path d="M337.714 123.755L334.38 113.5L329.255 115.161" fill="white"/>
<path d="M337.714 123.755L328.99 117.417L332.161 113.052" fill="white"/>
<path d="M325.036 123.755L333.76 117.417L330.594 113.052" fill="white"/>
<path d="M325.036 123.755L328.37 113.5L333.5 115.161" fill="white"/>
<path d="M331.375 61.1094L328.042 71.3646L333.172 73.0313" fill="white"/>
<path d="M331.375 61.1094L334.708 71.3646L329.578 73.0313" fill="white"/>
<path d="M341.63 68.5625H330.849V73.9531" fill="white"/>
<path d="M341.63 68.5625L332.906 74.901L329.74 70.5365" fill="white"/>
<path d="M321.12 68.5625L329.844 74.901L333.016 70.5365" fill="white"/>
<path d="M321.12 68.5625H331.901V73.9531" fill="white"/>
<path d="M337.714 80.6198L334.38 70.3594L329.255 72.026" fill="white"/>
<path d="M337.714 80.6198L328.99 74.2812L332.161 69.9167" fill="white"/>
<path d="M325.036 80.6198L333.76 74.2812L330.594 69.9167" fill="white"/>
<path d="M325.036 80.6198L328.37 70.3594L333.5 72.026" fill="white"/>
<path d="M331.375 17.974L328.042 28.2292L333.172 29.8958" fill="white"/>
<path d="M331.375 17.974L334.708 28.2292L329.578 29.8958" fill="white"/>
<path d="M341.63 25.4271H330.849V30.8177" fill="white"/>
<path d="M341.63 25.4271L332.906 31.7656L329.74 27.401" fill="white"/>
<path d="M321.12 25.4271L329.844 31.7656L333.016 27.401" fill="white"/>
<path d="M321.12 25.4271H331.901V30.8177" fill="white"/>
<path d="M337.714 37.4844L334.38 27.224L329.255 28.8906" fill="white"/>
<path d="M337.714 37.4844L328.99 31.1406L332.161 26.7812" fill="white"/>
<path d="M325.036 37.4844L333.76 31.1406L330.594 26.7812" fill="white"/>
<path d="M325.036 37.4844L328.37 27.224L333.5 28.8906" fill="white"/>
<path d="M158.833 104.245L155.5 114.5L160.625 116.167" fill="white"/>
<path d="M158.833 104.245L162.161 114.5L157.036 116.167" fill="white"/>
<path d="M169.089 111.698H158.302V117.089" fill="white"/>
<path d="M169.089 111.698L160.365 118.036L157.193 113.672" fill="white"/>
<path d="M148.573 111.698L157.302 118.036L160.469 113.672" fill="white"/>
<path d="M148.573 111.698H159.359V117.089" fill="white"/>
<path d="M165.172 123.755L161.839 113.5L156.708 115.161" fill="white"/>
<path d="M165.172 123.755L156.448 117.417L159.615 113.052" fill="white"/>
<path d="M152.495 123.755L161.219 117.417L158.047 113.052" fill="white"/>
<path d="M152.495 123.755L155.823 113.5L160.953 115.161" fill="white"/>
<path d="M201.969 104.245L198.635 114.5L203.766 116.167" fill="white"/>
<path d="M201.969 104.245L205.302 114.5L200.172 116.167" fill="white"/>
<path d="M212.224 111.698H201.438V117.089" fill="white"/>
<path d="M212.224 111.698L203.5 118.036L200.328 113.672" fill="white"/>
<path d="M191.714 111.698L200.437 118.036L203.604 113.672" fill="white"/>
<path d="M191.714 111.698H202.495V117.089" fill="white"/>
<path d="M208.307 123.755L204.974 113.5L199.844 115.161" fill="white"/>
<path d="M208.307 123.755L199.583 117.417L202.75 113.052" fill="white"/>
<path d="M195.63 123.755L204.354 117.417L201.182 113.052" fill="white"/>
<path d="M195.63 123.755L198.964 113.5L204.089 115.161" fill="white"/>
<path d="M201.969 61.1094L198.635 71.3646L203.766 73.0313" fill="white"/>
<path d="M201.969 61.1094L205.302 71.3646L200.172 73.0313" fill="white"/>
<path d="M212.224 68.5625H201.438V73.9531" fill="white"/>
<path d="M212.224 68.5625L203.5 74.901L200.328 70.5365" fill="white"/>
<path d="M191.714 68.5625L200.437 74.901L203.604 70.5365" fill="white"/>
<path d="M191.714 68.5625H202.495V73.9531" fill="white"/>
<path d="M208.307 80.6198L204.974 70.3594L199.844 72.026" fill="white"/>
<path d="M208.307 80.6198L199.583 74.2812L202.75 69.9167" fill="white"/>
<path d="M195.63 80.6198L204.354 74.2812L201.182 69.9167" fill="white"/>
<path d="M195.63 80.6198L198.964 70.3594L204.089 72.026" fill="white"/>
</g>
</g>
<defs>
<clipPath id="clip0_765_15684">
<rect width="900" height="450" fill="white"/>
</clipPath>
</defs>
</svg>
