<svg width="900" height="450" viewBox="0 0 900 450" fill="none" xmlns="http://www.w3.org/2000/svg">
<rect width="900" height="450" fill="#1E1E1E"/>
<g clip-path="url(#clip0_0_1)">
<rect width="900" height="450" fill="white"/>
<mask id="mask0_0_1" style="mask-type:luminance" maskUnits="userSpaceOnUse" x="0" y="0" width="900" height="450">
<path d="M0 -3.37219e-06H900V450H0V-3.37219e-06Z" fill="white"/>
</mask>
<g mask="url(#mask0_0_1)">
<path d="M0 0H900V450H0V0Z" fill="white"/>
<path d="M0 0H900V450H0V0Z" fill="white"/>
<path d="M0 -126.531H900V473.467H0V-126.531Z" fill="#FCD022"/>
</g>
<mask id="mask1_0_1" style="mask-type:luminance" maskUnits="userSpaceOnUse" x="680" y="0" width="225" height="450">
<path d="M680 -3.37219e-06H904.667V450H680V-3.37219e-06Z" fill="white"/>
</mask>
<g mask="url(#mask1_0_1)">
<path d="M680 -126.531H904.667V473.467H680V-126.531Z" fill="#007C2E"/>
</g>
<mask id="mask2_0_1" style="mask-type:luminance" maskUnits="userSpaceOnUse" x="0" y="0" width="225" height="450">
<path d="M0 -3.37219e-06H224.667V450H0V-3.37219e-06Z" fill="white"/>
</mask>
<g mask="url(#mask2_0_1)">
<path d="M0 -126.531H224.667V473.467H0V-126.531Z" fill="#002674"/>
</g>
<path d="M393.417 306.328L450 412.839L506.583 306.328L450 199.818L393.417 306.328ZM320.193 173.208L376.776 279.719L433.354 173.208L376.776 66.6979L320.193 173.208ZM466.646 173.208L523.224 279.724L579.813 173.208L523.224 66.6979L466.646 173.208Z" fill="#007C2E"/>
</g>
<defs>
<clipPath id="clip0_0_1">
<rect width="900" height="450" fill="white"/>
</clipPath>
</defs>
</svg>
