<svg width="900" height="450" viewBox="0 0 900 450" fill="none" xmlns="http://www.w3.org/2000/svg">
<g clip-path="url(#clip0_765_15903)">
<path d="M900 0H0V450H900V0Z" fill="#1E1E1E"/>
<mask id="mask0_765_15903" style="mask-type:luminance" maskUnits="userSpaceOnUse" x="0" y="0" width="900" height="450">
<path d="M900 0H0V450H900V0Z" fill="white"/>
</mask>
<g mask="url(#mask0_765_15903)">
<path d="M900 0H0V450H900V0Z" fill="white"/>
<mask id="mask1_765_15903" style="mask-type:luminance" maskUnits="userSpaceOnUse" x="0" y="0" width="900" height="450">
<path d="M0 0H900V450H0V0Z" fill="white"/>
</mask>
<g mask="url(#mask1_765_15903)">
<path d="M0 0H900V450H0V0Z" fill="white"/>
<path d="M0 0H900V450H0V0Z" fill="white"/>
<path d="M0 -126.531H900V473.467H0V-126.531Z" fill="#FCD022"/>
</g>
<mask id="mask2_765_15903" style="mask-type:luminance" maskUnits="userSpaceOnUse" x="680" y="0" width="225" height="450">
<path d="M680 -3.37219e-06H904.667V450H680V-3.37219e-06Z" fill="white"/>
</mask>
<g mask="url(#mask2_765_15903)">
<path d="M680 -126.531H904.667V473.467H680V-126.531Z" fill="#007C2E"/>
</g>
<mask id="mask3_765_15903" style="mask-type:luminance" maskUnits="userSpaceOnUse" x="0" y="0" width="225" height="450">
<path d="M0 0H224.667V450H0V0Z" fill="white"/>
</mask>
<g mask="url(#mask3_765_15903)">
<path d="M0 -126.531H224.667V473.467H0V-126.531Z" fill="#002674"/>
</g>
<path d="M404.229 278.149L449.998 364L495.766 278.149L449.998 192.299L404.229 278.149ZM345 170.85L390.769 256.701L436.533 170.85L390.769 85L345 170.85ZM463.462 170.85L509.227 256.705L555 170.85L509.227 85L463.462 170.85Z" fill="#007C2E"/>
</g>
</g>
<defs>
<clipPath id="clip0_765_15903">
<rect width="900" height="450" fill="white"/>
</clipPath>
</defs>
</svg>
