<svg width="900" height="450" viewBox="0 0 900 450" fill="none" xmlns="http://www.w3.org/2000/svg">
<g clip-path="url(#clip0_765_16036)">
<path d="M900 0H0V450H900V0Z" fill="#1E1E1E"/>
<mask id="mask0_765_16036" style="mask-type:luminance" maskUnits="userSpaceOnUse" x="0" y="0" width="900" height="450">
<path d="M900 0H0V450H900V0Z" fill="white"/>
</mask>
<g mask="url(#mask0_765_16036)">
<mask id="mask1_765_16036" style="mask-type:luminance" maskUnits="userSpaceOnUse" x="0" y="0" width="900" height="450">
<path d="M0 0H900V450H0V0Z" fill="white"/>
</mask>
<g mask="url(#mask1_765_16036)">
<path d="M0 0H900V450H0V0Z" fill="white"/>
<path d="M0 0H900V450H0V0Z" fill="white"/>
</g>
<mask id="mask2_765_16036" style="mask-type:luminance" maskUnits="userSpaceOnUse" x="0" y="0" width="900" height="450">
<path d="M0 0H900V450H0V0Z" fill="white"/>
</mask>
<g mask="url(#mask2_765_16036)">
<path d="M0 0H900V450H0V0Z" fill="#CF142B"/>
</g>
<mask id="mask3_765_16036" style="mask-type:luminance" maskUnits="userSpaceOnUse" x="0" y="0" width="900" height="300">
<path d="M0 0H900V300H0V0Z" fill="white"/>
</mask>
<g mask="url(#mask3_765_16036)">
<path d="M0 0H900V299.557H0V0Z" fill="#00247D"/>
</g>
<mask id="mask4_765_16036" style="mask-type:luminance" maskUnits="userSpaceOnUse" x="0" y="0" width="900" height="151">
<path d="M0 0H900V150.667H0V0Z" fill="white"/>
</mask>
<g mask="url(#mask4_765_16036)">
<path d="M0 0H900V149.776H0V0Z" fill="#FFCC00"/>
</g>
<path d="M476.661 163.344L467.87 179.875L477.786 185.146L476.661 163.344Z" fill="white"/>
<path d="M476.661 163.344L479.266 181.885L468.141 183.448L476.661 163.344Z" fill="white"/>
<path d="M491.948 179.177L473.51 175.927L471.557 186.99L491.948 179.177Z" fill="white"/>
<path d="M491.948 179.177L475.12 187.385L470.198 177.286L491.948 179.177Z" fill="white"/>
<path d="M456.875 172.99L469.88 186.458L477.964 178.656L456.875 172.99Z" fill="white"/>
<path d="M456.875 172.99L475.313 176.245L473.365 187.307L456.875 172.99Z" fill="white"/>
<path d="M481.615 198.609L479.01 180.068L467.885 181.63L481.615 198.609Z" fill="white"/>
<path d="M481.615 198.609L468.609 185.141L476.693 177.339L481.615 198.609Z" fill="white"/>
<path d="M459.943 194.786L476.766 186.578L471.844 176.484L459.943 194.786Z" fill="white"/>
<path d="M459.943 194.786L468.729 178.255L478.646 183.531L459.943 194.786Z" fill="white"/>
<path d="M526.76 181.578L512.849 194.109L520.365 202.453L526.76 181.578Z" fill="white"/>
<path d="M526.76 181.578L522.87 199.891L511.88 197.557L526.76 181.578Z" fill="white"/>
<path d="M535.714 201.688L519.5 192.323L513.88 202.052L535.714 201.688Z" fill="white"/>
<path d="M535.714 201.688L517.094 203.641L515.922 192.469L535.714 201.688Z" fill="white"/>
<path d="M504.875 183.88L512.49 200.984L522.75 196.417L504.875 183.88Z" fill="white"/>
<path d="M504.875 183.88L521.089 193.24L515.469 202.969L504.875 183.88Z" fill="white"/>
<path d="M519.359 216.411L523.25 198.099L512.26 195.766L519.359 216.411Z" fill="white"/>
<path d="M519.359 216.411L511.74 199.307L522.005 194.74L519.359 216.411Z" fill="white"/>
<path d="M500.297 205.406L518.917 203.453L517.74 192.281L500.297 205.406Z" fill="white"/>
<path d="M500.297 205.406L514.208 192.88L521.724 201.229L500.297 205.406Z" fill="white"/>
<path d="M567.604 215.854L550.245 222.865L554.453 233.281L567.604 215.854Z" fill="white"/>
<path d="M567.604 215.854L557.682 231.729L548.156 225.776L567.604 215.854Z" fill="white"/>
<path d="M569.141 237.807L557.104 223.464L548.5 230.688L569.141 237.807Z" fill="white"/>
<path d="M569.141 237.807L550.974 233.276L553.693 222.38L569.141 237.807Z" fill="white"/>
<path d="M546.25 210.526L547.557 229.203L558.76 228.422L546.25 210.526Z" fill="white"/>
<path d="M546.25 210.526L558.286 224.87L549.677 232.089L546.25 210.526Z" fill="white"/>
<path d="M548.734 246.052L558.656 230.177L549.13 224.224L548.734 246.052Z" fill="white"/>
<path d="M548.734 246.052L547.427 227.375L558.635 226.594L548.734 246.052Z" fill="white"/>
<path d="M534.589 229.193L552.75 233.724L555.469 222.823L534.589 229.193Z" fill="white"/>
<path d="M534.589 229.193L551.943 222.177L556.151 232.594L534.589 229.193Z" fill="white"/>
<path d="M594.266 262.026L575.552 262.677L575.943 273.906L594.266 262.026Z" fill="white"/>
<path d="M594.266 262.026L579.51 273.552L572.594 264.703L594.266 262.026Z" fill="white"/>
<path d="M588.198 283.182L581.792 265.589L571.24 269.432L588.198 283.182Z" fill="white"/>
<path d="M588.198 283.182L572.677 272.714L578.958 263.401L588.198 283.182Z" fill="white"/>
<path d="M576.016 249.719L570.859 267.714L581.656 270.813L576.016 249.719Z" fill="white"/>
<path d="M576.016 249.719L582.422 267.313L571.865 271.156L576.016 249.719Z" fill="white"/>
<path d="M566.203 283.953L580.953 272.427L574.036 263.573L566.203 283.953Z" fill="white"/>
<path d="M566.203 283.953L571.365 265.953L582.161 269.052L566.203 283.953Z" fill="white"/>
<path d="M558.672 263.271L574.193 273.74L580.479 264.427L558.672 263.271Z" fill="white"/>
<path d="M558.672 263.271L577.385 262.615L577.776 273.844L558.672 263.271Z" fill="white"/>
<path d="M305.734 262.026L320.49 273.552L327.406 264.703L305.734 262.026Z" fill="white"/>
<path d="M305.734 262.026L324.448 262.677L324.057 273.906L305.734 262.026Z" fill="white"/>
<path d="M323.984 249.719L317.578 267.313L328.135 271.156L323.984 249.719Z" fill="white"/>
<path d="M323.984 249.719L329.141 267.714L318.344 270.813L323.984 249.719Z" fill="white"/>
<path d="M311.802 283.182L327.323 272.714L321.042 263.401L311.802 283.182Z" fill="white"/>
<path d="M311.802 283.182L318.208 265.589L328.76 269.432L311.802 283.182Z" fill="white"/>
<path d="M341.328 263.271L322.615 262.615L322.224 273.844L341.328 263.271Z" fill="white"/>
<path d="M341.328 263.271L325.802 273.74L319.521 264.427L341.328 263.271Z" fill="white"/>
<path d="M333.797 283.953L328.635 265.953L317.839 269.052L333.797 283.953Z" fill="white"/>
<path d="M333.797 283.953L319.047 272.427L325.964 263.573L333.797 283.953Z" fill="white"/>
<path d="M332.396 215.854L342.318 231.729L351.844 225.776L332.396 215.854Z" fill="white"/>
<path d="M332.396 215.854L349.755 222.865L345.547 233.281L332.396 215.854Z" fill="white"/>
<path d="M353.75 210.526L341.714 224.87L350.323 232.089L353.75 210.526Z" fill="white"/>
<path d="M353.75 210.526L352.443 229.203L341.24 228.422L353.75 210.526Z" fill="white"/>
<path d="M330.859 237.807L349.026 233.276L346.307 222.38L330.859 237.807Z" fill="white"/>
<path d="M330.859 237.807L342.896 223.464L351.5 230.688L330.859 237.807Z" fill="white"/>
<path d="M365.411 229.193L348.052 222.177L343.849 232.594L365.411 229.193Z" fill="white"/>
<path d="M365.411 229.193L347.25 233.724L344.531 222.823L365.411 229.193Z" fill="white"/>
<path d="M351.266 246.052L352.573 227.375L341.365 226.594L351.266 246.052Z" fill="white"/>
<path d="M351.266 246.052L341.344 230.177L350.87 224.224L351.266 246.052Z" fill="white"/>
<path d="M373.24 181.578L377.13 199.891L388.12 197.557L373.24 181.578Z" fill="white"/>
<path d="M373.24 181.578L387.151 194.109L379.635 202.453L373.24 181.578Z" fill="white"/>
<path d="M395.125 183.88L378.911 193.24L384.531 202.969L395.125 183.88Z" fill="white"/>
<path d="M395.125 183.88L387.51 200.984L377.25 196.417L395.125 183.88Z" fill="white"/>
<path d="M364.286 201.688L382.906 203.641L384.078 192.469L364.286 201.688Z" fill="white"/>
<path d="M364.286 201.688L380.5 192.323L386.12 202.052L364.286 201.688Z" fill="white"/>
<path d="M399.703 205.406L385.792 192.88L378.276 201.229L399.703 205.406Z" fill="white"/>
<path d="M399.703 205.406L381.083 203.453L382.26 192.281L399.703 205.406Z" fill="white"/>
<path d="M380.641 216.411L388.26 199.307L377.995 194.74L380.641 216.411Z" fill="white"/>
<path d="M380.641 216.411L376.75 198.099L387.74 195.766L380.641 216.411Z" fill="white"/>
<path d="M423.339 163.344L420.734 181.885L431.859 183.448L423.339 163.344Z" fill="white"/>
<path d="M423.339 163.344L432.13 179.875L422.214 185.146L423.339 163.344Z" fill="white"/>
<path d="M443.125 172.99L424.688 176.245L426.635 187.307L443.125 172.99Z" fill="white"/>
<path d="M443.125 172.99L430.12 186.458L422.036 178.656L443.125 172.99Z" fill="white"/>
<path d="M408.052 179.177L424.88 187.385L429.802 177.286L408.052 179.177Z" fill="white"/>
<path d="M408.052 179.177L426.49 175.927L428.443 186.99L408.052 179.177Z" fill="white"/>
<path d="M440.057 194.786L431.271 178.255L421.354 183.531L440.057 194.786Z" fill="white"/>
<path d="M440.057 194.786L423.234 186.578L428.156 176.484L440.057 194.786Z" fill="white"/>
<path d="M418.385 198.609L431.391 185.141L423.307 177.339L418.385 198.609Z" fill="white"/>
<path d="M418.385 198.609L420.99 180.068L432.115 181.63L418.385 198.609Z" fill="white"/>
</g>
</g>
<defs>
<clipPath id="clip0_765_16036">
<rect width="900" height="450" fill="white"/>
</clipPath>
</defs>
</svg>
