<svg width="900" height="450" viewBox="0 0 900 450" fill="none" xmlns="http://www.w3.org/2000/svg">
<rect width="900" height="450" fill="#1E1E1E"/>
<g clip-path="url(#clip0_0_1)">
<mask id="mask0_0_1" style="mask-type:luminance" maskUnits="userSpaceOnUse" x="0" y="0" width="900" height="450">
<path d="M0 -3.37219e-06H900V450H0V-3.37219e-06Z" fill="white"/>
</mask>
<g mask="url(#mask0_0_1)">
<path d="M0 -3.37219e-06H900V450H0V-3.37219e-06Z" fill="white"/>
<path d="M0 -3.37219e-06H900V450H0V-3.37219e-06Z" fill="white"/>
</g>
<path d="M323.131 304.223C323.131 304.223 322.584 300.53 329.594 297.817C336.61 295.108 337.152 285.01 335.75 278.275C335.75 278.275 332.089 284.681 327.646 286.817C327.646 286.817 320.402 290.593 320.068 297.806C320.068 297.806 320.011 300.447 319.464 302.499C319.167 303.624 315.959 293.468 322.037 285.911C328.308 278.114 330.063 271.791 325.073 259.473C325.073 259.473 324.61 266.942 319.698 271.213C314.792 275.483 314.167 275.812 314.245 285.994C314.245 285.994 314.323 289.525 312.454 290.676C312.454 290.676 308.636 285.093 307.62 281.395C306.61 277.702 306.141 276.14 310.506 271.869C310.506 271.869 324.485 262.832 314.401 243.046C314.401 243.046 314.089 249.864 309.256 253.89C304.428 257.911 304.818 260.619 304.584 267.598C304.349 274.582 303.881 274.088 303.334 275.072C303.334 275.072 294.454 258.734 301.308 250.03C308.167 241.322 311.985 239.515 304.428 223.343C304.428 223.343 304.761 231.635 298.709 235.739C292.662 239.848 294.063 249.452 294.063 249.452C294.063 249.452 294.454 253.067 293.209 255.692C293.209 255.692 284.646 238.989 292.818 229.994C299.75 222.359 300.219 217.02 296.48 206.182C296.48 206.182 296.011 211.187 292.193 213.9C288.375 216.609 285.339 219.317 286.037 229.744C286.037 229.744 286.349 237.056 285.412 239.109C285.412 239.109 281.829 232.457 280.818 228.103C279.803 223.749 279.412 221.207 282.063 216.853C284.714 212.499 295.235 200.02 282.688 182.036C282.688 182.036 282.297 187.869 279.105 193.124C275.907 198.379 277.391 204.619 278.089 209.379C278.792 214.145 276.454 218.744 276.454 218.744C276.454 218.744 271 208.723 272.167 197.228C273.339 185.734 268.662 176.291 258.063 169.473C258.063 169.473 250.349 187.374 260.87 196.489C260.87 196.489 269.829 205.359 272.089 216.114C272.089 216.114 265.313 215.458 259.157 203.468C253 191.478 240.219 193.369 239.365 193.286C239.365 193.286 241.469 211.843 261.105 217.103C261.105 217.103 273.646 219.234 275.985 228.431C275.985 228.431 278.089 234.754 278.948 238.124C278.948 238.124 274.974 236.562 271.313 231.14C267.646 225.723 268.115 225.067 255.724 223.832C255.724 223.832 250.74 223.26 248.089 219.728C248.089 219.728 253.313 239.353 266.714 239.187C266.714 239.187 278.948 237.874 285.803 253.968C285.803 253.968 284.48 253.15 282.688 251.916C280.896 250.687 276.375 248.385 267.412 249.452C258.454 250.52 255.959 249.041 253.698 248.301C253.698 248.301 262.74 264.89 275.516 259.963C288.297 255.036 294.469 272.999 294.61 273.348C294.61 273.348 292.896 272.036 290.636 269.817C288.375 267.598 283.683 264.864 274.818 267.681C274.818 267.681 268.427 270.145 261.959 268.176C261.959 268.176 268.193 280.244 282.766 278.192C297.334 276.14 301 288.947 301 288.947C301 288.947 299.053 287.801 297.724 286.733C296.401 285.666 291.49 282.874 280.974 285.994C270.454 289.114 266.636 285.499 266.636 285.499C266.636 285.499 272.48 296.176 283.698 297.405C283.698 297.405 289.933 297.322 292.584 296.338C295.23 295.353 302.245 293.796 307.073 300.775C307.073 300.775 305.75 301.02 303.724 300.114C303.724 300.114 296.245 297.405 290.558 302.171C290.558 302.171 285.49 307.343 278.323 306.358C278.323 306.358 287.594 315.39 302.323 307.754C302.323 307.754 307.308 304.14 310.969 306.931C314.636 309.723 323.125 304.223 323.125 304.223H323.131Z" fill="#369443" stroke="#010002" stroke-width="1.58539" stroke-miterlimit="10"/>
<path d="M405.099 81.6972C405.099 81.6972 403.391 66.416 415.594 64.9421C428.323 63.4108 434.61 66.0931 434.61 66.0931L440.323 77.317L438.349 84.8691L430.454 88.4837C430.454 88.4837 431.803 76.8795 421.172 76.6347C418.474 76.5774 416.891 77.6452 412.631 76.9681C408.349 76.2858 406.058 80.9993 405.099 81.6972Z" fill="#F4C53D" stroke="#010002" stroke-width="1.58539" stroke-miterlimit="10"/>
<path d="M490.969 119.52C489.152 121.874 481.881 122.697 481.881 122.697C481.881 122.697 489.36 128.447 492.579 136.656C495.803 144.869 405.881 136.713 405.881 136.713C405.881 136.713 409.777 133.921 412.428 128.666C412.428 128.666 408.454 130.14 404.48 126.202C404.48 126.202 407.438 127.187 411.334 121.275C411.334 121.275 417.1 113.885 421.152 111.911C421.152 111.911 419.282 113.062 414.761 110.598C414.761 110.598 422.558 109.614 425.36 96.3118C425.36 96.3118 425.829 93.3535 428.787 89.0879C431.75 84.8171 431.126 89.9056 436.584 83.3378C436.584 83.3378 439.074 78.6816 436.891 75.8379C434.714 72.9889 432.375 74.0306 427.803 71.2962C423.23 68.5566 421.204 67.0254 422.766 62.8067C424.323 58.5931 428.376 59.2494 428.943 59.2494C429.516 59.2494 429.829 55.5827 434.818 53.0671C439.803 50.5462 453.047 51.64 455.021 52.739C456.995 53.8327 464.995 56.1869 469.672 68.0098C474.35 79.8327 468.428 84.2702 481.152 102.114C481.152 102.114 476.063 103.208 472.787 102.223C472.787 102.223 479.386 113.937 490.969 119.52Z" fill="#F4C53D" stroke="#010002" stroke-width="1.58539" stroke-miterlimit="10"/>
<path d="M435.334 69.6243C424.969 69.1296 428.943 59.2494 428.943 59.2494" stroke="#010002" stroke-width="1.58539" stroke-miterlimit="10"/>
<path d="M453.334 70.9785C453.334 70.9785 451.506 70.1192 449.954 68.0671C447.782 65.1817 442.933 63.7962 440.323 66.5046C440.323 66.5046 437.672 69.4629 435.334 69.6244C435.334 69.6244 437.985 70.4473 439.813 72.1296C441.646 73.8118 443.558 75.0462 446.282 74.6764C449.011 74.3066 449.438 72.8691 450.724 72.0046C452.011 71.1452 453.334 70.9785 453.334 70.9785Z" fill="#F4C53D" stroke="#010002" stroke-width="1.58539" stroke-miterlimit="10"/>
<path d="M520.735 218.661C520.735 218.661 530.396 226.546 538.501 218.661C538.501 218.661 541.777 222.603 548.318 221.452C554.865 220.301 555.959 216.853 556.579 214.885C556.579 214.885 562.24 218.187 567.021 215.577C571.803 212.968 571.803 209.025 571.803 209.025C571.803 209.025 580.11 210.666 584.37 205.03C588.631 199.39 586.037 193.806 583.751 193.15C583.751 193.15 592.735 195.504 595.178 187.786C597.256 181.218 592.579 177.822 592.579 177.822C592.579 177.822 611.516 177.734 619.282 171.801C619.282 171.801 625.725 167.749 621.881 163.478C621.881 163.478 638.917 160.744 643.178 153.958C643.178 153.958 645.048 152.093 644.423 148.812C644.423 148.812 644.318 146.947 642.449 146.838C642.449 146.838 661.881 143.838 667.49 137.421C667.49 137.421 670.188 134.468 668.839 130.525C668.839 130.525 668.553 129.484 668.084 128.786C668.084 128.786 685.771 125.051 694.501 117.166C694.501 117.166 699.537 112.676 696.943 106.656C696.943 106.656 726.501 98.5566 719.641 85.5254C719.641 85.5254 733.464 81.0358 729.1 68.5566C729.1 68.5566 740.527 62.7545 735.537 53.5566C730.766 44.7546 716.11 55.0879 698.756 59.8952C698.756 59.8952 651.797 74.6868 628.678 78.6243L562.969 176.51L524.631 191.291L520.735 218.661Z" fill="#F4C53D" stroke="#010002" stroke-width="1.58539"/>
<path d="M520.271 146.567C520.271 146.567 526.428 141.937 537.412 147.385C537.412 147.385 541.11 149.932 544.021 147.14C546.448 144.807 546.678 140.51 543.334 138.025C535.152 131.947 532.115 113.718 544.579 106.166C544.579 106.166 562.657 95.4368 628.948 78.5567C628.948 78.5567 634.5 77.015 637.464 77.7545C640.724 78.567 642.969 81.3639 643.428 83.7598C643.428 83.7598 646.396 92.1973 636.422 97.0202C636.422 97.0202 631.922 99.0827 627.282 100.416C627.282 100.416 632.376 99.3118 634.553 104.359C636.631 109.176 633.62 114.103 624.266 117.275C624.266 117.275 621.74 118.265 618.136 119.14C618.136 119.14 626.136 121.437 622.292 127.9C622.292 127.9 618.865 134.687 606.761 135.89C606.761 135.89 615.803 136.874 609.412 145.468C609.412 145.468 606.605 150.176 597.777 151.932C597.777 151.932 604.475 152.15 601.1 158.171C597.725 164.192 589.777 167.588 581.959 168.135C581.959 168.135 577.724 168.353 574.761 167.697C574.761 167.697 582.188 171.416 577.829 177.661C577.829 177.661 574.605 182.093 566.553 181.874C566.553 181.874 568.646 188.843 562.735 191.478C558.141 193.536 554.323 190.249 554.323 190.249C554.323 190.249 555.881 197.723 549.178 200.348C549.178 200.348 545.829 202.072 540.839 200.348C540.839 200.348 537.021 208.89 523.464 202.895C509.907 196.9 520.271 146.567 520.271 146.567Z" fill="#F4C53D" stroke="#010002" stroke-width="1.58539"/>
<path d="M729.1 68.5566C729.1 68.5566 707.797 80.8951 641.469 93.2337" stroke="#010002" stroke-width="1.58539"/>
<path d="M348.724 286.76C348.724 286.76 340.829 300.338 331.271 300.556C331.271 300.556 314.829 298.551 310.178 302.853C306.938 305.853 303.631 308.327 302.282 315.994C300.933 323.655 304.881 325.301 305.813 325.629C305.813 325.629 306.542 331.103 311.943 329.681C311.943 329.681 312.256 335.374 321.813 332.634C331.375 329.9 335.323 330.775 337.193 321.249C339.063 311.723 340.787 311.879 342.49 310.739C344.776 309.202 349.068 307.754 352.256 305.921C355.12 304.27 366.073 298.692 369.813 298.254C373.553 297.817 372.724 285.228 372.724 285.228H363.063L358.386 278.332L348.724 286.76Z" fill="#F4C53D" stroke="#010002" stroke-width="1.58539"/>
<path d="M719.641 85.5254C719.641 85.5254 662.001 104.343 635.152 106.656M696.943 106.656C696.943 106.656 663.126 117.275 623.521 123.978M668.084 128.786C668.084 128.786 629.876 137.973 611.636 139.494" stroke="#010002" stroke-width="1.58539"/>
<path d="M642.449 146.838C642.449 146.838 610.131 153.583 601.943 154.395" stroke="#010002" stroke-width="1.58539" stroke-miterlimit="10"/>
<path d="M606.074 196.02L607.688 247.332L598.636 242.077L583.563 307.192L577.344 302.723L592.016 240.338L581.782 240.525L606.074 196.02Z" fill="#0081C6" stroke="#010002" stroke-width="1.58539" stroke-miterlimit="10"/>
<path d="M621.881 163.478C621.881 163.478 598.292 167.067 588.907 166.874M592.579 177.822C592.579 177.822 583.042 177.374 578.464 176.614M583.751 193.15C583.751 193.15 575.646 190.963 570.865 187.895M571.803 209.025C571.803 209.025 565.568 206.619 562.553 200.051M556.579 214.885C556.579 214.885 551.751 210.556 551.438 205.744" stroke="#010002" stroke-width="1.58539" stroke-miterlimit="10"/>
<path d="M664.641 218.838L643.209 264.947L637.553 255.822L592.308 309.322L587.412 303.832L632.485 251.015L623.365 246.119L664.641 218.838Z" fill="#0081C6" stroke="#010002" stroke-width="1.58539" stroke-miterlimit="10"/>
<path d="M538.501 218.661C538.501 218.661 540.313 217.098 539.073 210.312" stroke="#010002" stroke-width="1.58539" stroke-miterlimit="10"/>
<path d="M645.089 184.994L634.053 234.999L626.594 227.452L586.1 305.364L579.86 301.723L620.631 223.968L610.698 221.359L645.089 184.994Z" fill="#0081C6" stroke="#010002" stroke-width="1.58539" stroke-miterlimit="10"/>
<path d="M540.839 200.348C540.839 200.348 541.777 198.405 541.464 195.343" stroke="#010002" stroke-width="1.58539" stroke-miterlimit="10"/>
<path d="M379.157 218.661C379.157 218.661 369.49 226.546 361.386 218.661C361.386 218.661 358.115 222.603 351.568 221.452C345.026 220.301 343.933 216.853 343.313 214.885C343.313 214.885 337.646 218.187 332.87 215.577C328.089 212.968 328.089 209.025 328.089 209.025C328.089 209.025 319.777 210.666 315.516 205.03C311.261 199.39 313.855 193.806 316.141 193.15C316.141 193.15 307.157 195.504 304.714 187.786C302.636 181.218 307.313 177.822 307.313 177.822C307.313 177.822 288.375 177.734 280.61 171.801C280.61 171.801 274.167 167.749 278.011 163.478C278.011 163.478 260.974 160.744 256.714 153.958C256.714 153.958 254.844 152.093 255.469 148.812C255.469 148.812 255.573 146.947 257.443 146.838C257.443 146.838 238.011 143.838 232.401 137.421C232.401 137.421 229.704 134.468 231.052 130.525C231.052 130.525 231.339 129.484 231.802 128.786C231.802 128.786 214.115 125.051 205.391 117.166C205.391 117.166 200.349 112.676 202.948 106.656C202.948 106.656 173.391 98.5566 180.245 85.5254C180.245 85.5254 166.427 81.0358 170.792 68.5566C170.792 68.5566 159.365 62.7545 164.349 53.5566C169.125 44.7546 183.782 55.0879 201.131 59.8952C201.131 59.8952 248.089 74.6868 271.214 78.6243L336.922 176.51L375.256 191.291L379.157 218.661Z" fill="#F4C53D" stroke="#010002" stroke-width="1.58539"/>
<path d="M574.917 103.156C574.917 103.156 564.011 107.536 560.37 113.557C556.735 119.577 559.131 125.432 560.37 128.786C560.995 130.473 568.683 145.307 559.646 156.036" stroke="#010002" stroke-width="1.58539" stroke-miterlimit="10"/>
<path d="M379.62 146.567C379.62 146.567 373.464 141.937 362.48 147.385C362.48 147.385 358.782 149.937 355.87 147.145C353.443 144.812 353.214 140.51 356.558 138.025C364.74 131.947 367.777 113.718 355.313 106.166C355.313 106.166 337.235 95.4368 270.943 78.5567C270.943 78.5567 265.391 77.015 262.428 77.7545C259.167 78.567 256.922 81.3691 256.464 83.7598C256.464 83.7598 253.495 92.1973 263.469 97.0254C263.469 97.0254 267.969 99.0827 272.61 100.416C272.61 100.416 267.516 99.317 265.339 104.359C263.261 109.176 266.271 114.104 275.625 117.281C275.625 117.281 278.151 118.265 281.756 119.14C281.756 119.14 273.756 121.437 277.599 127.9C277.599 127.9 281.027 134.687 293.131 135.89C293.131 135.89 284.089 136.874 290.48 145.468C290.48 145.468 293.287 150.176 302.115 151.932C302.115 151.932 295.417 152.15 298.792 158.171C302.167 164.192 310.115 167.588 317.933 168.135C317.933 168.135 322.167 168.353 325.131 167.697C325.131 167.697 317.704 171.421 322.068 177.661C322.068 177.661 325.287 182.093 333.339 181.874C333.339 181.874 331.25 188.843 337.157 191.484C341.756 193.536 345.573 190.249 345.573 190.249C345.573 190.249 344.011 197.723 350.714 200.348C350.714 200.348 354.063 202.072 359.053 200.348C359.053 200.348 362.87 208.89 376.428 202.895C389.985 196.9 379.62 146.567 379.62 146.567Z" fill="#F4C53D" stroke="#010002" stroke-width="1.58539"/>
<path d="M574.761 167.697C574.761 167.697 574.709 167.64 570.865 166.437M597.777 151.932C597.777 151.932 591.271 153.239 584.891 153.296M606.761 135.89C606.761 135.89 599.126 136.655 591.959 136.546M618.136 119.14C618.136 119.14 607.126 121.327 601.204 121.437M627.282 100.416C627.282 100.416 613.698 104.296 603.594 105.671M581.152 113.666C581.152 113.666 590.917 122.749 579.178 131.182C579.178 131.182 584.058 138.848 574.292 146.838" stroke="#010002" stroke-width="1.58539" stroke-miterlimit="10"/>
<path d="M380.428 224.176C380.428 224.176 378.438 234.864 362.662 248.317C362.662 248.317 350.49 259.062 350.803 271.431C351.12 284.03 348.62 285.447 343.839 289.718C343.839 289.718 353.709 290.483 358.49 283.916C358.49 283.916 358.282 294.864 356.829 295.848C356.829 295.848 359.922 296.046 364.412 291.14C364.412 291.14 367.115 288.291 369.605 287.197C369.605 287.197 366.698 294.754 368.985 301.759C368.985 301.759 369.709 299.025 373.553 297.817C373.553 297.817 380.516 296.395 383.219 286.322C383.219 286.322 384.985 279.645 395.891 273.733C395.891 273.733 408.256 269.067 407.943 262.968C407.631 256.869 380.428 224.176 380.428 224.176Z" fill="#F4C53D" stroke="#010002" stroke-width="1.58539"/>
<path d="M576.891 150.614C576.891 150.614 578.344 165.228 560.475 165.234C560.475 165.234 563.907 178.26 546.657 177.822C546.657 177.822 544.683 188.223 532.214 186.145" stroke="#010002" stroke-width="1.58539" stroke-miterlimit="10"/>
<path d="M551.188 286.76C551.188 286.76 559.084 300.338 568.641 300.556C568.641 300.556 585.084 298.551 589.73 302.853C592.974 305.853 596.277 308.327 597.626 315.994C598.98 323.655 595.027 325.301 594.094 325.629C594.094 325.629 593.365 331.103 587.964 329.681C587.964 329.681 587.652 335.374 578.094 332.634C568.537 329.9 564.589 330.775 562.719 321.249C560.849 311.723 559.12 311.879 557.417 310.739C555.131 309.202 550.839 307.754 547.652 305.921C544.792 304.27 533.834 298.692 530.094 298.254C526.355 297.817 527.183 285.228 527.183 285.228H536.85L541.521 278.332L551.188 286.76Z" fill="#F4C53D" stroke="#010002" stroke-width="1.58539"/>
<path d="M519.485 224.176C519.485 224.176 521.475 234.864 537.245 248.317C537.245 248.317 549.417 259.062 549.11 271.431C548.792 284.03 551.287 285.447 556.068 289.718C556.068 289.718 546.198 290.483 541.417 283.916C541.417 283.916 541.626 294.864 543.084 295.848C543.084 295.848 539.985 296.046 535.495 291.14C535.495 291.14 532.798 288.291 530.303 287.197C530.303 287.197 533.214 294.754 530.928 301.759C530.928 301.759 530.199 299.025 526.355 297.817C526.355 297.817 519.396 296.395 516.693 286.322C516.693 286.322 514.928 279.645 504.016 273.733C504.016 273.733 491.652 269.067 491.964 262.968C492.277 256.869 519.48 224.176 519.48 224.176H519.485Z" fill="#F4C53D" stroke="#010002" stroke-width="1.58539"/>
<path d="M559.678 300.556C559.678 300.556 562.506 301.187 568.641 300.556" stroke="#010002" stroke-width="1.58539"/>
<path d="M585.886 308.218C585.886 308.218 594.511 306.905 594.094 325.629M580.693 312.489C580.693 312.489 588.485 311.504 587.964 329.681" stroke="#010002" stroke-width="1.58539" stroke-miterlimit="10"/>
<path d="M505.469 268.697C505.469 268.697 509.214 269.463 511.808 272.416C514.407 275.374 519.396 274.827 519.396 274.827C519.396 274.827 516.693 272.64 515.756 267.161C514.823 261.687 511.808 260.046 511.808 260.046M520.73 254.864C520.73 254.864 524.474 255.629 527.068 258.582C529.667 261.541 534.652 260.994 534.652 260.994C534.652 260.994 531.954 258.801 531.016 253.327C530.084 247.853 527.068 246.213 527.068 246.213M523.303 276.114C523.303 276.114 526.568 276.78 528.839 279.364C531.105 281.942 535.459 281.468 535.459 281.468C535.459 281.468 533.1 279.556 532.287 274.775C531.469 269.994 528.839 268.562 528.839 268.562" stroke="#010002" stroke-width="1.58539"/>
<path d="M462.178 361.978C462.178 361.978 465.011 374.483 474.855 373.473C474.855 373.473 481.813 372.817 481.292 361.213C481.292 361.213 491.579 366.687 493.24 353.108C493.24 353.108 502.594 355.296 502.49 342.598C502.49 342.598 511.214 344.129 510.178 332.853C510.178 332.853 519.631 335.374 519.631 324.754C519.631 324.754 541.761 321.077 495.631 278.989L454.49 303.51L462.178 361.978Z" fill="#F4C53D" stroke="#010002" stroke-width="1.58539" stroke-miterlimit="10"/>
<path d="M457.605 305.853C457.605 305.853 464.464 311.942 469.344 302.853C469.344 302.853 475.995 302.525 477.032 297.489C477.032 297.489 482.438 296.942 483.474 291.796C483.474 291.796 490.849 291.03 490.646 284.791C490.646 284.791 504.053 283.754 490.646 268.562C477.24 253.369 454.49 293.77 454.49 293.77L457.605 305.853Z" fill="#F4C53D" stroke="#010002" stroke-width="1.58539"/>
<path d="M481.292 361.213C481.292 361.213 480.256 339.202 461.193 307.671M493.24 353.108C493.24 353.108 496.204 340.411 469.344 302.853C469.344 302.853 472.464 293.879 462.907 288.129M502.49 342.598C502.49 342.598 503.318 328.858 477.032 297.489C477.032 297.489 479.355 289.39 469.834 282.926M510.178 332.853C510.178 332.853 509.188 318.947 483.474 291.796C483.474 291.796 484.761 283.478 475.547 278.332M519.631 324.754C519.631 324.754 517.761 308.879 490.646 284.791C490.646 284.791 491.579 278.551 482.542 272.197" stroke="#010002" stroke-width="1.58539" stroke-miterlimit="10"/>
<path d="M437.73 361.978C437.73 361.978 434.902 374.483 425.058 373.473C425.058 373.473 418.094 372.817 418.615 361.213C418.615 361.213 408.329 366.687 406.667 353.108C406.667 353.108 397.318 355.296 397.422 342.598C397.422 342.598 388.693 344.129 389.73 332.853C389.73 332.853 380.277 335.374 380.277 324.754C380.277 324.754 358.146 321.077 404.276 278.989L445.417 303.51L437.73 361.978Z" fill="#F4C53D" stroke="#010002" stroke-width="1.58539" stroke-miterlimit="10"/>
<path d="M442.303 305.853C442.303 305.853 435.448 311.942 430.563 302.853C430.563 302.853 423.912 302.525 422.876 297.489C422.876 297.489 417.474 296.942 416.433 291.796C416.433 291.796 409.058 291.03 409.266 284.791C409.266 284.791 395.855 283.754 409.261 268.562C422.667 253.369 445.422 293.77 445.422 293.77L442.303 305.853Z" fill="#F4C53D" stroke="#010002" stroke-width="1.58539"/>
<path d="M418.615 361.213C418.615 361.213 419.652 339.202 438.714 307.671M406.667 353.108C406.667 353.108 403.709 340.411 430.563 302.853C430.563 302.853 427.448 293.879 437.006 288.129" stroke="#010002" stroke-width="1.58539" stroke-miterlimit="10"/>
<path d="M449.954 302.088C456.6 302.088 464.136 343.64 462.178 368.671C461.469 377.765 456.6 385.186 449.954 385.186C443.308 385.186 438.438 377.765 437.73 368.671C435.777 343.64 443.308 302.088 449.954 302.088Z" fill="#F4C53D" stroke="#010002" stroke-width="1.58539"/>
<path d="M397.422 342.598C397.422 342.598 396.589 328.858 422.876 297.489C422.876 297.489 420.553 289.39 430.079 282.926M389.73 332.853C389.73 332.853 390.719 318.947 416.433 291.796C416.433 291.796 415.146 283.478 424.36 278.332" stroke="#010002" stroke-width="1.58539" stroke-miterlimit="10"/>
<path d="M459.152 301.759C459.152 302.655 459.094 303.541 458.974 304.421C458.86 305.296 458.683 306.15 458.454 306.978C458.219 307.801 457.938 308.588 457.605 309.332C457.266 310.077 456.886 310.765 456.459 311.4C456.032 312.03 455.568 312.598 455.063 313.093C454.563 313.593 454.032 314.009 453.474 314.353C452.917 314.697 452.339 314.952 451.75 315.129C451.157 315.301 450.558 315.39 449.954 315.39C449.349 315.39 448.751 315.301 448.162 315.129C447.568 314.952 446.99 314.697 446.433 314.353C445.875 314.009 445.344 313.593 444.844 313.093C444.344 312.598 443.876 312.03 443.448 311.4C443.021 310.765 442.641 310.077 442.308 309.332C441.969 308.588 441.688 307.801 441.459 306.978C441.224 306.15 441.053 305.296 440.933 304.421C440.818 303.541 440.756 302.655 440.756 301.759C440.756 300.864 440.818 299.978 440.933 299.098C441.053 298.223 441.224 297.369 441.459 296.546C441.688 295.718 441.969 294.931 442.308 294.187C442.641 293.442 443.021 292.754 443.448 292.124C443.876 291.489 444.344 290.921 444.844 290.426C445.344 289.931 445.875 289.51 446.433 289.166C446.99 288.822 447.568 288.567 448.162 288.39C448.751 288.218 449.349 288.129 449.954 288.129C450.558 288.129 451.157 288.218 451.75 288.39C452.339 288.567 452.917 288.822 453.474 289.166C454.032 289.51 454.563 289.931 455.063 290.426C455.568 290.921 456.032 291.489 456.459 292.124C456.886 292.754 457.266 293.442 457.605 294.187C457.938 294.931 458.219 295.718 458.454 296.546C458.683 297.369 458.86 298.223 458.974 299.098C459.094 299.978 459.152 300.864 459.152 301.759Z" fill="#F4C53D" stroke="#010002" stroke-width="1.58539"/>
<path d="M380.277 324.754C380.277 324.754 382.146 308.879 409.266 284.791C409.266 284.791 408.329 278.551 417.37 272.197" stroke="#010002" stroke-width="1.58539" stroke-miterlimit="10"/>
<path d="M449.954 298.78C449.954 298.78 527.964 264.192 528.157 184.171H371.751C371.948 264.192 449.954 298.78 449.954 298.78Z" fill="white" stroke="#010002" stroke-width="1.58539"/>
<path d="M407.844 184.171H419.875M383.782 184.171H395.813M431.907 184.171H443.938" stroke="#010002" stroke-width="1.58539" stroke-miterlimit="10"/>
<path d="M383.782 184.171V235.301C383.782 235.301 389.756 247.161 395.813 254.598V184.171H383.782ZM407.844 184.171V268.452C407.844 268.452 415.37 275.838 419.875 279.395V184.171H407.844ZM431.907 184.171V288.353C431.907 288.353 440.49 293.9 443.938 295.718V184.171H431.907Z" fill="#A60032" stroke="#010002" stroke-width="1.58539"/>
<path d="M383.782 184.171H395.813M407.844 184.171H419.875M431.907 184.171H443.938" stroke="#010002" stroke-width="1.58539"/>
<path d="M516.126 184.171V235.301C516.126 235.301 510.152 247.161 504.094 254.598V184.171H516.126ZM492.063 184.171V268.452C492.063 268.452 484.542 275.838 480.032 279.395V184.171H492.063ZM468.001 184.171V288.353C468.001 288.353 459.417 293.9 455.969 295.718V184.171H468.001Z" fill="#A60032" stroke="#010002" stroke-width="1.58539"/>
<path d="M576.073 329.124L573.037 341.536L581.344 349.812L569.605 399.416L559.167 385.384L543.698 392.608L555.438 343.004L566.318 339.968L569.141 327.582C569.141 327.582 572.433 326.291 576.073 329.124Z" fill="#0081C6" stroke="#010002" stroke-width="1.58539" stroke-miterlimit="10"/>
<path d="M578.855 320.942L572.876 332.098L578.865 342.364L555.344 387.077L548.704 370.676L531.99 373.437L555.511 328.723L566.766 328.754L572.537 317.562C572.537 317.562 576.735 317.551 578.855 320.942Z" fill="#0081C6" stroke="#010002" stroke-width="1.58539" stroke-miterlimit="10"/>
<path d="M579.86 324.187L563.964 344.4L567.605 355.817L535.141 393.806L532.178 376.254L515.303 374.983L547.766 336.989L558.725 339.692L575.589 318.233C575.589 318.233 580.115 320.483 579.86 324.187Z" fill="#0081C6" stroke="#010002" stroke-width="1.58539" stroke-miterlimit="10"/>
<path d="M170.792 68.5566C170.792 68.5566 192.089 80.8951 258.422 93.2337M180.245 85.5254C180.245 85.5254 237.891 104.343 264.74 106.656M202.948 106.656C202.948 106.656 236.766 117.275 276.37 123.978M231.808 128.786C231.808 128.786 270.011 137.968 288.256 139.494" stroke="#010002" stroke-width="1.58539"/>
<path d="M257.443 146.838C257.443 146.838 289.761 153.583 297.948 154.395M278.011 163.478C278.011 163.478 301.599 167.067 310.985 166.874M307.313 177.822C307.313 177.822 316.849 177.374 321.428 176.614M316.141 193.15C316.141 193.15 324.245 190.963 329.026 187.895M328.089 209.025C328.089 209.025 334.323 206.619 337.339 200.051M343.313 214.885C343.313 214.885 348.141 210.562 348.454 205.744M361.391 218.661C361.391 218.661 359.579 217.098 360.818 210.312M359.053 200.348C359.053 200.348 358.115 198.405 358.428 195.343M324.974 103.156C324.974 103.156 335.881 107.536 339.516 113.557C343.157 119.577 340.761 125.432 339.516 128.786C338.896 130.473 331.209 145.307 340.245 156.036M325.131 167.697C325.131 167.697 325.183 167.64 329.026 166.437M302.115 151.932C302.115 151.932 308.62 153.239 315 153.296M293.131 135.89C293.131 135.89 300.766 136.656 307.933 136.546" stroke="#010002" stroke-width="1.58539" stroke-miterlimit="10"/>
<path d="M321.511 326.895C321.511 326.895 321.277 320.244 329.693 319.754L354.469 354.239C354.469 354.239 353.537 356.457 342.318 356.207C342.318 356.207 341.131 356.202 340.506 357.515C339.547 359.53 321.511 326.895 321.511 326.895Z" fill="#369443" stroke="#010002" stroke-width="1.58539" stroke-miterlimit="10"/>
<path d="M281.756 119.14C281.756 119.14 292.766 121.327 298.688 121.437M272.61 100.416C272.61 100.416 286.193 104.296 296.297 105.671M318.74 113.666C318.74 113.666 308.974 122.754 320.714 131.182C320.714 131.182 315.829 138.848 325.594 146.838M323 150.619C323 150.619 321.547 165.234 339.417 165.234C339.417 165.234 335.985 178.26 353.235 177.822C353.235 177.822 355.209 188.223 367.672 186.145" stroke="#010002" stroke-width="1.58539" stroke-miterlimit="10"/>
<path d="M340.204 300.556C340.204 300.556 337.375 301.187 331.245 300.556" stroke="#010002" stroke-width="1.58539"/>
<path d="M313.995 308.218C313.995 308.218 305.375 306.905 305.787 325.629M319.193 312.489C319.193 312.489 311.402 311.504 311.917 329.676" stroke="#010002" stroke-width="1.58539" stroke-miterlimit="10"/>
<path d="M394.438 268.697C394.438 268.697 390.698 269.463 388.099 272.416C385.5 275.374 380.516 274.827 380.516 274.827C380.516 274.827 383.219 272.635 384.152 267.161C385.089 261.687 388.099 260.046 388.099 260.046M379.178 254.864C379.178 254.864 375.438 255.629 372.839 258.582C370.24 261.541 365.256 260.994 365.256 260.994C365.256 260.994 367.959 258.801 368.891 253.327C369.829 247.853 372.839 246.213 372.839 246.213M376.605 276.114C376.605 276.114 373.339 276.78 371.073 279.364C368.803 281.942 364.448 281.463 364.448 281.463C364.448 281.463 366.808 279.551 367.625 274.775C368.443 269.994 371.073 268.562 371.073 268.562" stroke="#010002" stroke-width="1.58539"/>
<path d="M528.157 126.036C528.157 126.036 489.881 146.072 449.954 124.395C410.032 146.072 371.751 126.036 371.751 126.036V184.171H528.157V126.036Z" fill="#162667" stroke="#010002" stroke-width="1.58539" stroke-miterlimit="10"/>
<path d="M176.985 276.801C180.776 275.254 183.506 273.759 183.495 269.713C183.49 268.744 182.954 266.614 181.881 263.306L156.427 185.473C154.922 180.848 153.782 178.098 153.256 177.088C152.11 174.895 149.865 173.999 146.839 172.739H179.188C175.672 174.4 172.469 175.723 172.5 179.447C172.511 180.874 172.912 182.879 173.735 185.473L193.235 246.551L212.714 185.473C213.537 182.879 213.964 180.874 213.948 179.447C213.912 175.619 210.579 174.239 207.297 172.739H238.651C235.782 173.89 233.448 174.791 232.245 177.088C231.719 178.098 230.579 180.848 229.073 185.473L203.62 263.306C202.542 266.609 202.151 268.78 202.006 269.786C202.006 269.786 200.834 274.707 208.516 276.801H176.985ZM719.381 268.796V180.671C719.381 179.145 719.126 177.973 718.626 177.161C718.126 176.348 715.938 174.004 712.818 172.739H741.964C738.844 173.775 736.657 176.286 736.157 177.124C735.657 177.963 735.407 179.145 735.407 180.671V268.796C735.407 270.374 735.662 271.577 736.183 272.416C736.704 273.254 738.844 275.301 741.964 276.801H712.818C715.938 275.379 718.126 273.192 718.626 272.379C719.126 271.567 719.381 270.374 719.381 268.796Z" fill="#0081C6" stroke="#010002" stroke-width="1.58539" stroke-miterlimit="10"/>
</g>
<defs>
<clipPath id="clip0_0_1">
<rect width="900" height="450" fill="white"/>
</clipPath>
</defs>
</svg>
