<svg width="900" height="450" viewBox="0 0 900 450" fill="none" xmlns="http://www.w3.org/2000/svg">
<rect width="900" height="450" fill="#1E1E1E"/>
<g clip-path="url(#clip0_0_1)">
<path d="M0 0H900V225H0V0Z" fill="#D21034"/>
<path d="M0 225H900V450H0V225Z" fill="#009543"/>
<path d="M0 0L436.431 225L0 450V0Z" fill="black"/>
<path d="M0 185H900V265H0V185Z" fill="black"/>
<path d="M0 31.9753L374.409 225L0 418.023V31.9753Z" fill="#FDCE12"/>
<path d="M0 213H900V237H0V213Z" fill="#FDCE12"/>
<path d="M0 59L322.723 225.378L0 391.755V59Z" fill="black"/>
<path d="M91.1692 267.729V293.368C113.474 293.368 157.248 276.276 157.248 221.245C157.248 166.214 110.556 156 96.5889 156C82.6232 156 39.4737 166.006 39.4737 211.031C39.4737 256.056 81.7895 260.226 90.1271 260.226C98.4647 260.226 129.733 252.721 126.189 218.952C126.189 228.541 115.35 248.761 92.6282 248.761C69.9071 248.761 55.7329 231.876 55.7329 215.2C55.7329 198.523 69.4903 176.219 93.4618 176.219C117.433 176.219 134.943 197.481 134.943 218.952C134.943 240.422 118.059 267.729 91.1692 267.729Z" fill="#FDCE12"/>
<path d="M71.6274 234.351L72.9561 235.211C72.9561 235.211 83.5089 211.135 111.884 194.016C108.288 195.97 89.2934 205.429 71.6274 234.351Z" fill="#FDCE12" stroke="#FDCE12"/>
<path d="M74.3629 230.208C74.3629 230.208 71.0803 223.486 73.9721 220.516C76.8647 217.545 75.5361 228.411 75.5361 228.411L76.7866 226.613C76.7866 226.613 74.8318 218.405 77.0211 216.685C79.2095 214.966 78.1153 224.58 78.1153 224.58L79.4439 222.861C79.4439 222.861 78.0371 214.888 80.1474 213.402C82.2584 211.917 80.9297 220.907 80.9297 220.907L82.4929 219.108C82.4929 219.108 81.3205 211.526 83.8997 209.728C86.4797 207.93 84.2124 216.92 84.2124 216.92L85.9318 215.044C85.9318 215.044 85.1503 208.086 87.3395 206.523C89.5279 204.96 87.6521 213.089 87.6521 213.089L89.2153 211.448C89.2153 211.448 88.7463 204.96 90.8566 203.475C92.9676 201.989 91.0129 209.65 91.0129 209.65L92.655 208.086C92.655 208.086 92.2642 201.598 94.9216 200.348C97.579 199.097 94.4526 206.445 94.4526 206.445L96.2503 204.882C96.2503 204.882 96.7974 197.3 99.0647 196.596C101.331 195.892 98.0487 203.319 98.0487 203.319L99.69 201.989C99.69 201.989 100.55 195.501 103.051 194.72C105.553 193.938 101.488 200.661 101.488 200.661L103.129 199.41C103.129 199.41 104.927 192.922 107.272 192.219C109.618 191.515 104.849 198.316 104.849 198.316L106.412 197.222C106.412 197.222 108.992 191.358 111.103 190.967C113.213 190.577 108.757 195.814 108.757 195.814L110.712 194.642C110.712 194.642 114.073 188.544 115.246 190.42C116.418 192.297 110.556 195.032 110.556 195.032L108.601 196.127C108.601 196.127 115.715 192.766 116.574 194.485C117.434 196.205 106.803 197.3 106.803 197.3L105.084 198.472C105.084 198.472 112.197 196.517 111.337 198.316C110.477 200.113 103.442 199.723 103.442 199.723L101.8 200.895C101.8 200.895 108.913 199.176 107.976 200.817C107.038 202.458 100.081 202.302 100.081 202.302L98.3613 203.709C98.3613 203.709 105.318 201.911 104.302 204.022C103.285 206.132 95.3905 206.054 95.3905 206.054L93.4366 207.852C93.4366 207.852 100.784 205.351 100.159 207.305C99.5337 209.259 91.1692 210.276 91.1692 210.276L89.2934 212.151C89.2934 212.151 97.1882 209.494 94.8434 211.917C92.4987 214.341 86.7924 214.966 86.7924 214.966L84.525 217.701C84.525 217.701 92.3424 213.011 91.2474 215.669C90.1532 218.327 82.4929 220.125 82.4929 220.125L80.9297 222.001C80.9297 222.001 87.9647 217.936 87.2613 220.203C86.5579 222.47 79.0532 224.893 79.0532 224.893L77.8026 226.613C77.8026 226.613 86.0882 221.688 85.3847 224.189C84.6813 226.691 76.7866 228.489 76.7866 228.489L75.7705 230.052C75.7705 230.052 83.4308 225.675 83.509 227.785C83.5871 229.896 74.5192 232.007 74.5192 232.007L74.3629 230.208Z" fill="#FDCE12"/>
<path d="M116.662 234.351L115.333 235.211C115.333 235.211 104.781 211.135 76.4053 194.016C80.0013 195.97 98.9961 205.429 116.662 234.351Z" fill="#FDCE12" stroke="#FDCE12"/>
<path d="M113.927 230.208C113.927 230.208 117.209 223.486 114.317 220.516C111.425 217.545 112.753 228.411 112.753 228.411L111.503 226.613C111.503 226.613 113.458 218.405 111.268 216.685C109.08 214.966 110.174 224.58 110.174 224.58L108.846 222.861C108.846 222.861 110.252 214.888 108.142 213.402C106.031 211.917 107.36 220.907 107.36 220.907L105.797 219.108C105.797 219.108 106.969 211.526 104.39 209.728C101.81 207.93 104.077 216.92 104.077 216.92L102.358 215.044C102.358 215.044 103.139 208.086 100.95 206.523C98.7616 204.96 100.637 213.089 100.637 213.089L99.0742 211.448C99.0742 211.448 99.5432 204.96 97.4329 203.475C95.3218 201.989 97.2766 209.65 97.2766 209.65L95.6345 208.086C95.6345 208.086 96.0253 201.598 93.3679 200.348C90.7105 199.097 93.8368 206.445 93.8368 206.445L92.0392 204.882C92.0392 204.882 91.4921 197.3 89.2247 196.596C86.9582 195.892 90.2408 203.319 90.2408 203.319L88.5995 201.989C88.5995 201.989 87.7397 195.501 85.2387 194.72C82.7368 193.938 86.8018 200.661 86.8018 200.661L85.1605 199.41C85.1605 199.41 83.3621 192.922 81.0174 192.219C78.6718 191.515 83.4403 198.316 83.4403 198.316L81.8771 197.222C81.8771 197.222 79.2979 191.358 77.1868 190.967C75.0766 190.577 79.5324 195.814 79.5324 195.814L77.5776 194.642C77.5776 194.642 74.2168 188.544 73.0437 190.42C71.8713 192.297 77.7339 195.032 77.7339 195.032L79.6887 196.127C79.6887 196.127 72.5747 192.766 71.715 194.485C70.8553 196.205 81.4863 197.3 81.4863 197.3L83.2058 198.472C83.2058 198.472 76.0926 196.517 76.9524 198.316C77.8121 200.113 84.8471 199.723 84.8471 199.723L86.4892 200.895C86.4892 200.895 79.3761 199.176 80.3139 200.817C81.2518 202.458 88.2087 202.302 88.2087 202.302L89.9282 203.709C89.9282 203.709 82.9713 201.911 83.9874 204.022C85.0042 206.132 92.8989 206.054 92.8989 206.054L94.8529 207.852C94.8529 207.852 87.5053 205.351 88.1305 207.305C88.7558 209.259 97.1203 210.276 97.1203 210.276L98.996 212.151C98.996 212.151 91.1013 209.494 93.446 211.917C95.7908 214.341 101.497 214.966 101.497 214.966L103.764 217.701C103.764 217.701 95.9471 213.011 97.0421 215.669C98.1363 218.327 105.797 220.125 105.797 220.125L107.36 222.001C107.36 222.001 100.325 217.936 101.028 220.203C101.732 222.47 109.236 224.893 109.236 224.893L110.487 226.613C110.487 226.613 102.201 221.688 102.905 224.189C103.608 226.691 111.503 228.489 111.503 228.489L112.519 230.052C112.519 230.052 104.859 225.675 104.781 227.785C104.702 229.896 113.77 232.007 113.77 232.007L113.927 230.208Z" fill="#FDCE12"/>
</g>
<defs>
<clipPath id="clip0_0_1">
<rect width="900" height="450" fill="white"/>
</clipPath>
</defs>
</svg>
