<svg width="900" height="450" viewBox="0 0 900 450" fill="none" xmlns="http://www.w3.org/2000/svg">
<rect width="900" height="450" fill="#1E1E1E"/>
<g clip-path="url(#clip0_0_1)">
<mask id="mask0_0_1" style="mask-type:luminance" maskUnits="userSpaceOnUse" x="0" y="0" width="900" height="450">
<path d="M0 -3.37219e-06H900V450H0V-3.37219e-06Z" fill="white"/>
</mask>
<g mask="url(#mask0_0_1)">
<path d="M0 -3.37219e-06H900V450H0V-3.37219e-06Z" fill="white"/>
<path d="M0 -3.37219e-06H900V450H0V-3.37219e-06Z" fill="white"/>
<path d="M0 -3.37219e-06H900V450H0V-3.37219e-06Z" fill="#CE1126"/>
</g>
<mask id="mask1_0_1" style="mask-type:luminance" maskUnits="userSpaceOnUse" x="0" y="0" width="450" height="226">
<path d="M0 -3.37219e-06H450V225.333H0V-3.37219e-06Z" fill="white"/>
</mask>
<g mask="url(#mask1_0_1)">
<path d="M0 -3.37219e-06H449.333V224.667H0V-3.37219e-06Z" fill="#002B7F"/>
</g>
<path d="M225.333 9.35937L240.76 56.8385L200.37 27.4844H250.297L209.906 56.8385L225.333 9.35937Z" fill="white"/>
<path d="M156.682 65.526L172.109 113.005L131.724 83.651H181.646L141.255 113.005L156.682 65.526Z" fill="white"/>
<path d="M295.542 56.1667L310.005 100.677L272.141 73.1562H318.943L281.078 100.677L295.542 56.1667Z" fill="white"/>
<path d="M259.656 113.859L269.297 143.536L244.057 125.188H275.26L250.016 143.536L259.656 113.859Z" fill="white"/>
<path d="M225.333 155.953L244.615 215.302L194.13 178.609H256.536L206.047 215.302L225.333 155.953Z" fill="white"/>
</g>
<defs>
<clipPath id="clip0_0_1">
<rect width="900" height="450" fill="white"/>
</clipPath>
</defs>
</svg>
