<svg width="900" height="450" viewBox="0 0 900 450" fill="none" xmlns="http://www.w3.org/2000/svg">
<g clip-path="url(#clip0_765_17035)">
<path d="M900 0H0V450H900V0Z" fill="#1E1E1E"/>
<mask id="mask0_765_17035" style="mask-type:luminance" maskUnits="userSpaceOnUse" x="0" y="0" width="900" height="450">
<path d="M900 0H0V450H900V0Z" fill="white"/>
</mask>
<g mask="url(#mask0_765_17035)">
<mask id="mask1_765_17035" style="mask-type:luminance" maskUnits="userSpaceOnUse" x="0" y="0" width="900" height="450">
<path d="M0 0H900V450H0V0Z" fill="white"/>
</mask>
<g mask="url(#mask1_765_17035)">
<path d="M0 0H900V450H0V0Z" fill="white"/>
<path d="M0 0H900V450H0V0Z" fill="white"/>
</g>
<mask id="mask2_765_17035" style="mask-type:luminance" maskUnits="userSpaceOnUse" x="-1" y="0" width="902" height="450">
<path d="M-1 -3.37219e-06H901V450H-1V-3.37219e-06Z" fill="white"/>
</mask>
<g mask="url(#mask2_765_17035)">
<path d="M-0.663943 -3.37219e-06H900.664V450H-0.663943V-3.37219e-06Z" fill="#244AA5"/>
</g>
<path d="M453.161 142.391C455.792 145.464 457.552 148.531 457.552 152.266C455.344 153.359 452.292 153.802 450.531 155.776C461.495 154.24 463.682 166.958 475.958 162.13C476.406 163.896 478.167 165.432 480.349 164.766L481.667 161.266C486.479 159.948 485.161 167.844 490.443 166.302C493.078 168.5 491.313 172.224 493.078 174.87C493.078 177.932 494.391 180.568 495.703 183.198C497.021 181.672 497.891 179.474 500.964 180.13C503.151 182.542 504.911 184.734 505.354 187.37C504.464 192.417 503.146 196.802 508.406 199.432V200.969C511.927 202.51 519.818 199.432 519.818 205.578C519.37 207.776 522 205.802 522.891 207.115C525.078 206.234 528.151 206.682 530.781 206.682C532.964 211.286 528.151 214.573 526.839 218.745C529.021 220.932 528.151 224.891 527.708 227.51L526.391 228.167C529.891 228.823 534.276 227.745 537.354 229.719L543.063 231.901C545.688 230.375 548.745 230.141 552.266 230.375C554.891 232.349 551.37 235.641 553.578 237.167C556.656 237.167 559.286 237.615 559.708 240.245L560.151 241.115C562.339 237.167 568.484 239.797 571.12 236.958C575.505 236.958 576.375 241.771 578.557 244.406C579.453 251.219 571.12 254.297 573.745 261.089C571.984 264.375 568.484 267.01 565.859 270.083C566.724 270.531 566.281 271.615 566.281 272.271C563.651 273.823 565.859 278.427 562.333 278.849C561.911 281.714 556.651 280.615 558.391 283.688C561.911 288.297 556.651 291.135 556.651 295.318C554.448 297.74 550.057 293.109 550.057 297.74C547.427 298.396 544.797 295.323 543.057 297.953C542.167 301.031 544.797 302.109 544.375 305.188C548.74 304.74 550.057 309.135 551.818 311.766L556.208 316.161C551.818 319.661 546.115 315.714 540.854 317.688C539.536 317.031 540.854 315.292 539.536 314.635C538.224 313.083 535.594 313.083 533.411 312.656C533.833 314.635 529.891 315.292 531.651 317.688C531.651 318.344 532.516 320.318 530.781 320.318C527.26 321.422 527.703 317.266 524.63 318.792C520.682 320.318 523.76 326.24 518.057 325.583C518.922 330.87 509.297 334.37 515.87 338.974C516.74 339.844 516.292 341.604 516.292 342.922C512.349 346.448 505.349 345.13 500.964 343.813C497.443 342.922 499.646 338.526 498.333 336.13C497.016 333.922 493.073 332.396 493.073 329.318C490.443 328.234 488.24 327.557 486.474 325.37C480.349 331.292 472.885 337 464.125 337.214C460.182 339.188 457.974 347.104 451.844 343.813C449.438 347.76 442.198 343.813 441.76 349.5C438.906 350.604 440.224 354.339 438.474 356.078C437.818 360.474 438.474 364.208 442.198 366.839C443.734 370.13 438.906 370.13 440.88 373.208C441.328 374.292 440.88 375.839 440.224 376.286C438.906 376.943 438.474 377.604 438.906 378.917C437.818 378.917 437.37 379.573 436.5 380.443C435.396 382.63 431.901 383.734 429.484 385.26C427.073 385.917 425.313 384.182 423.786 382.63C423.344 385.047 421.37 386.365 418.964 386.365C415.453 386.365 416.109 383.286 413.479 381.974C414.573 378.026 411.063 376.286 412.167 372.76C415.016 370.578 419.833 369.026 418.516 364.422C415.453 360.708 416.547 355.208 413.479 350.818C411.51 349.078 408.224 346.448 409.313 342.266C412.167 338.974 409.313 335.026 407.776 331.526C407.12 328.661 405.37 326.031 405.37 322.74C400.547 319.896 400.323 312.427 393.526 311.766C388.703 311.766 387.833 305.635 383.005 306.057C382.563 305.188 381.469 304.531 380.589 303.661C377.089 306.057 372.698 303.005 368.323 304.083C365.469 299.266 370.729 292.688 363.052 289.823V286.766C363.932 287.188 364.365 286.318 364.589 285.875C365.021 282.583 359.104 282.161 361.526 278.427C360.208 277.323 358.672 276.875 359.552 274.688C356.255 267.901 346.391 268.557 344.198 261.745C345.958 260.219 345.958 258.667 346.615 257.349C345.078 254.719 344.646 251.875 345.078 249.031C346.615 248.583 347.484 246.615 348.365 245.063C346.391 243.745 343.984 241.771 341.792 242.432C337.849 241.771 334.995 238.719 331.484 236.958C330.604 236.089 331.052 234.536 331.052 233.453C335.875 231.901 330.391 225.104 336.307 225.984C337.849 224.01 341.135 223.354 343.542 221.813C345.958 221.38 347.932 222.26 350.339 222.917C352.307 225.536 355.818 224.448 357.792 226.641C359.766 226.198 362.182 225.104 364.589 226.198C364.589 222.469 366.339 220.276 368.979 217.641C369.411 216.115 371.823 215.01 373.792 214.141C377.526 215.01 381.906 215.01 384.547 212.38C386.297 213.484 387.833 211.286 389.807 211.286C392.214 210.839 394.182 211.5 395.943 212.604C396.156 208.208 403.833 211.943 405.37 206.682C407.12 203.167 400.547 201.854 400.979 198.776C399.891 195.26 402.521 193.51 403.833 191.104C405.37 190.443 407.12 189.563 409.094 190C414.141 188.25 410.193 177.932 418.307 181.672C418.307 182.76 417.859 184.078 418.521 184.302C421.37 184.302 421.807 181.01 423.792 179.906C424.656 176.844 422.688 173.104 425.318 170.698C426.63 170.474 427.734 170.042 428.604 168.938C428.604 166.526 427.286 165.214 425.318 163.672C424.656 164.771 422.911 163.896 421.807 164.333C421.807 161.698 420.281 159.948 419.833 157.526C418.521 156.87 417.859 155.776 418.307 154.24C420.281 152.266 418.307 147.438 422.911 148.531C424.656 147 427.734 148.094 429.484 145.464C434.083 142.833 440.224 142.833 443.734 138.005C445.271 138.224 447.021 136.688 448.557 138.005C448.995 140.854 453.161 139.75 453.161 142.391Z" fill="#D0A650"/>
<path d="M487.104 82.901L481.042 64.2552L475.057 82.901H455.453L471.318 94.4375L465.255 113.083L481.042 101.552L496.911 113.083L490.849 94.4375L506.714 82.901H487.104ZM548.771 93.7604L542.708 75.1875L536.719 93.7604H517.115L532.979 105.292L526.917 123.943L542.708 112.406L558.573 123.943L552.51 105.292L568.375 93.7604H548.771ZM607.589 115.177L601.599 96.6094L595.542 115.177H575.932L591.797 126.714L585.734 145.359L601.599 133.828L617.391 145.359L611.328 126.714L627.193 115.177H607.589ZM424.469 82.901L418.484 64.2552L412.422 82.901H392.818L408.682 94.4375L402.62 113.083L418.484 101.552L434.271 113.083L428.214 94.4375L444.078 82.901H424.469ZM362.807 93.7604L356.823 75.1875L350.76 93.7604H331.151L347.016 105.292L340.958 123.943L356.823 112.406L372.609 123.943L366.547 105.292L382.411 93.7604H362.807ZM303.99 115.177L297.927 96.6094L291.943 115.177H272.333L288.198 126.714L282.135 145.359L297.927 133.828L313.792 145.359L307.729 126.714L323.594 115.177H303.99Z" fill="white"/>
</g>
</g>
<defs>
<clipPath id="clip0_765_17035">
<rect width="900" height="450" fill="white"/>
</clipPath>
</defs>
</svg>
