<svg width="900" height="450" viewBox="0 0 900 450" fill="none" xmlns="http://www.w3.org/2000/svg">
<g clip-path="url(#clip0_765_17200)">
<path d="M900 0H0V450H900V0Z" fill="#1E1E1E"/>
<mask id="mask0_765_17200" style="mask-type:luminance" maskUnits="userSpaceOnUse" x="0" y="0" width="900" height="450">
<path d="M900 0H0V450H900V0Z" fill="white"/>
</mask>
<g mask="url(#mask0_765_17200)">
<mask id="mask1_765_17200" style="mask-type:luminance" maskUnits="userSpaceOnUse" x="0" y="0" width="900" height="450">
<path d="M0 0H900V450H0V0Z" fill="white"/>
</mask>
<g mask="url(#mask1_765_17200)">
<path d="M0 0H900V450H0V0Z" fill="white"/>
<path d="M0 0H900V450H0V0Z" fill="white"/>
</g>
<mask id="mask2_765_17200" style="mask-type:luminance" maskUnits="userSpaceOnUse" x="0" y="0" width="900" height="450">
<path d="M0 0H900V450H0V0Z" fill="white"/>
</mask>
<g mask="url(#mask2_765_17200)">
<path d="M0 0V450H900V0H0Z" fill="#001489"/>
</g>
<mask id="mask3_765_17200" style="mask-type:luminance" maskUnits="userSpaceOnUse" x="0" y="0" width="900" height="226">
<path d="M0 0H900V225.333H0V0Z" fill="white"/>
</mask>
<g mask="url(#mask3_765_17200)">
<path d="M0 0V224.667H900V0H0Z" fill="#E03C31"/>
</g>
<mask id="mask4_765_17200" style="mask-type:luminance" maskUnits="userSpaceOnUse" x="0" y="0" width="900" height="450">
<path d="M0 0H900V450H0V0Z" fill="white"/>
</mask>
<g mask="url(#mask4_765_17200)">
<path d="M-0.00098002 0L336.999 225L-0.00098002 450" fill="black"/>
<path d="M-0.00098002 0L336.999 225M336.999 225L-0.00098002 450M336.999 225H900" stroke="white" stroke-width="149.778"/>
</g>
<mask id="mask5_765_17200" style="mask-type:luminance" maskUnits="userSpaceOnUse" x="0" y="0" width="338" height="450">
<path d="M0 0H338V449.333H0V0Z" fill="white"/>
</mask>
<g mask="url(#mask5_765_17200)">
<mask id="mask6_765_17200" style="mask-type:luminance" maskUnits="userSpaceOnUse" x="0" y="0" width="337" height="450">
<path d="M0 0L337 224.667L0 449.333" fill="white"/>
</mask>
<g mask="url(#mask6_765_17200)">
<path d="M-0.00098002 0L336.999 224.667L-0.00098002 449.333" fill="black"/>
<path d="M-0.00098002 0L336.999 224.667L-0.00098002 449.333" stroke="#FFB81C" stroke-width="149.778"/>
</g>
</g>
<mask id="mask7_765_17200" style="mask-type:luminance" maskUnits="userSpaceOnUse" x="0" y="0" width="900" height="450">
<path d="M0 0H900V450H0V0Z" fill="white"/>
</mask>
<g mask="url(#mask7_765_17200)">
<path d="M-0.00098002 0L336.999 225.167M336.999 225.167L-0.00098002 450.334M336.999 225.167H900" stroke="#007749" stroke-width="89.8669"/>
</g>
</g>
</g>
<defs>
<clipPath id="clip0_765_17200">
<rect width="900" height="450" fill="white"/>
</clipPath>
</defs>
</svg>
