<svg width="900" height="450" viewBox="0 0 900 450" fill="none" xmlns="http://www.w3.org/2000/svg">
<rect width="900" height="450" fill="#1E1E1E"/>
<g clip-path="url(#clip0_0_1)">
<mask id="mask0_0_1" style="mask-type:luminance" maskUnits="userSpaceOnUse" x="0" y="0" width="900" height="450">
<path d="M0 -3.37219e-06H900V450H0V-3.37219e-06Z" fill="white"/>
</mask>
<g mask="url(#mask0_0_1)">
<path d="M0 -3.37219e-06H900V450H0V-3.37219e-06Z" fill="white"/>
<path d="M0 -3.37219e-06H900V450H0V-3.37219e-06Z" fill="white"/>
</g>
<mask id="mask1_0_1" style="mask-type:luminance" maskUnits="userSpaceOnUse" x="0" y="0" width="900" height="450">
<path d="M0 -3.37219e-06H900V450H0V-3.37219e-06Z" fill="white"/>
</mask>
<g mask="url(#mask1_0_1)">
<path d="M0 -3.37219e-06V450H900V-3.37219e-06H0Z" fill="#001489"/>
</g>
<mask id="mask2_0_1" style="mask-type:luminance" maskUnits="userSpaceOnUse" x="0" y="0" width="900" height="226">
<path d="M0 -3.37219e-06H900V225.333H0V-3.37219e-06Z" fill="white"/>
</mask>
<g mask="url(#mask2_0_1)">
<path d="M0 -3.37219e-06V224.667H900V-3.37219e-06H0Z" fill="#E03C31"/>
</g>
<mask id="mask3_0_1" style="mask-type:luminance" maskUnits="userSpaceOnUse" x="0" y="0" width="900" height="450">
<path d="M0 0H900V450H0V0Z" fill="white"/>
</mask>
<g mask="url(#mask3_0_1)">
<path d="M-0.00098002 0L336.999 225L-0.00098002 450M336.999 225H900Z" fill="black"/>
<path d="M-0.00098002 0L336.999 225M336.999 225L-0.00098002 450M336.999 225H900" stroke="white" stroke-width="149.778"/>
</g>
<mask id="mask4_0_1" style="mask-type:luminance" maskUnits="userSpaceOnUse" x="0" y="0" width="338" height="450">
<path d="M0 0H338V449.333H0V0Z" fill="white"/>
</mask>
<g mask="url(#mask4_0_1)">
<mask id="mask5_0_1" style="mask-type:luminance" maskUnits="userSpaceOnUse" x="0" y="0" width="337" height="450">
<path d="M0 0L337 224.667L0 449.333" fill="white"/>
</mask>
<g mask="url(#mask5_0_1)">
<path d="M-0.00098002 0L336.999 224.667L-0.00098002 449.333" fill="black"/>
<path d="M-0.00098002 0L336.999 224.667L-0.00098002 449.333" stroke="#FFB81C" stroke-width="149.778"/>
</g>
</g>
<mask id="mask6_0_1" style="mask-type:luminance" maskUnits="userSpaceOnUse" x="0" y="0" width="900" height="450">
<path d="M0 0H900V450H0V0Z" fill="white"/>
</mask>
<g mask="url(#mask6_0_1)">
<path d="M-0.00098002 0L336.999 225.167M336.999 225.167L-0.00098002 450.334M336.999 225.167H900" stroke="#007749" stroke-width="89.8669"/>
</g>
</g>
<defs>
<clipPath id="clip0_0_1">
<rect width="900" height="450" fill="white"/>
</clipPath>
</defs>
</svg>
