<svg width="900" height="450" viewBox="0 0 900 450" fill="none" xmlns="http://www.w3.org/2000/svg">
<rect width="900" height="450" fill="#1E1E1E"/>
<g clip-path="url(#clip0_0_1)">
<mask id="mask0_0_1" style="mask-type:luminance" maskUnits="userSpaceOnUse" x="-1" y="0" width="902" height="450">
<path d="M-1 -3.37219e-06H901V450H-1V-3.37219e-06Z" fill="white"/>
</mask>
<g mask="url(#mask0_0_1)">
<path d="M-1 -3.37219e-06H901V450H-1V-3.37219e-06Z" fill="white"/>
<path d="M-1 -3.37219e-06H901V450H-1V-3.37219e-06Z" fill="white"/>
<path d="M-0.717706 -3.37219e-06H900.718V600.003H-0.717706V-3.37219e-06Z" fill="#198A00"/>
</g>
<mask id="mask1_0_1" style="mask-type:luminance" maskUnits="userSpaceOnUse" x="587" y="213" width="217" height="241">
<path d="M587.333 213.333H803.333V453.333H587.333V213.333Z" fill="white"/>
</mask>
<g mask="url(#mask1_0_1)">
<path d="M588.302 213.98H802.135V605.653H588.302V213.98Z" fill="#DE2010"/>
</g>
<mask id="mask2_0_1" style="mask-type:luminance" maskUnits="userSpaceOnUse" x="694" y="213" width="216" height="241">
<path d="M694 213.333H909.333V453.333H694V213.333Z" fill="white"/>
</mask>
<g mask="url(#mask2_0_1)">
<path d="M695.219 213.98H909.052V605.653H695.219V213.98Z" fill="#EF7D00"/>
</g>
<mask id="mask3_0_1" style="mask-type:luminance" maskUnits="userSpaceOnUse" x="694" y="213" width="110" height="241">
<path d="M694 213.333H803.333V453.333H694V213.333Z" fill="white"/>
</mask>
<g mask="url(#mask3_0_1)">
<path d="M695.219 213.98H802.135V605.653H695.219V213.98Z" fill="black"/>
</g>
<path d="M820.54 72.0364C820.54 72.0364 857.322 57.6146 860.884 54.6406C862.509 56.4219 846.145 74.5625 814.384 81.2552C843.228 75.0104 867.853 55.3802 872.879 55.9792C874.337 56.276 874.009 75.1614 807.905 91.5156C853.598 80.5104 880.165 60.2917 879.842 62.5208C880.165 62.9635 875.306 78.4323 835.285 90.4739C846.467 88.0989 876.764 71.1458 876.441 74.4166C877.415 75.7552 847.113 111.443 792.353 99.8437C836.098 110.255 864.452 85.1198 868.504 85.5677C869.311 85.7187 860.4 107.578 805.311 108.917C831.723 106.385 824.108 108.766 824.108 108.766C824.108 108.766 808.551 119.917 789.759 112.333C804.504 116.052 806.124 116.203 806.447 117.391C805.473 118.875 793.322 121.109 781.655 115.307C791.056 118.875 799.478 119.474 799.639 120.812C799.478 121.255 793.483 124.38 788.139 122.151C782.791 119.917 733.535 92.1094 733.535 92.1094L817.462 70.9948L820.54 72.0364ZM721.874 147.255C714.494 147.255 714.291 153.281 714.291 153.281C714.291 153.281 713.681 153.719 714.087 156.641C715.306 154.651 715.916 154.031 715.916 154.031C716.728 154.151 720.114 155.083 725.462 151.234C720.587 155.891 723.499 157.635 723.499 157.635C723.499 157.635 722.348 161.302 726.072 162.047C724.921 160.552 725.598 159.25 725.598 159.25C725.598 159.25 730.811 158.75 730.473 152.911C730.676 158.193 733.791 159.495 733.791 159.495C733.791 159.495 733.791 162.417 737.176 162.667C735.348 161.177 735.754 158.875 735.754 158.875C735.754 158.875 740.155 155.953 736.431 150.984C738.666 149.802 740.494 146.51 740.494 146.51C740.494 146.51 737.447 145.328 736.025 144.333C735.348 143.031 735.957 135.885 735.957 135.885L734.129 126.625L728.916 141.042C729.119 138.99 729.254 147.255 721.874 147.255Z" fill="#EF7D00" stroke="black" stroke-width="0.962557" stroke-linecap="round" stroke-linejoin="round"/>
<path d="M758.327 126.464C758.489 126.609 763.832 132.115 769.02 131.812C770.962 130.328 764.968 127.057 764.968 126.312C767.072 128.099 775.983 135.089 781.655 132.557C783.926 129.583 777.603 130.031 770.64 122C775.499 124.974 787.65 131.516 793.322 128.99C795.754 126.609 780.686 119.177 775.66 113.375L762.702 107.281L745.041 120.516L758.327 126.464ZM738.395 81.2552C738.395 81.2552 744.39 77.9844 768.369 79.6198C770.962 79.9166 784.733 75.3073 789.108 73.9687C796.077 72.7812 818.275 68.3177 824.27 64.1562C828.483 63.7083 823.134 71.2916 817.79 73.0781C812.119 75.4583 791.541 82 784.249 81.1094C792.999 81.2552 788.14 87.7969 773.556 84.6771C780.52 88.2448 777.931 88.8385 777.931 88.8385C777.931 88.8385 765.619 89.4375 762.374 86.9062C770.639 89.7344 767.238 90.7708 767.238 90.7708C767.238 90.7708 758.811 91.5156 754.921 89.8802C760.916 91.5156 757.837 92.5573 757.837 92.5573C757.837 92.5573 752.978 93.3021 748.926 91.9635C744.879 90.625 738.718 81.2552 738.395 81.2552ZM748.009 129.542L748.89 144.083C748.89 144.083 748.416 144.833 748.009 145.266C747.603 145.703 736.77 143.714 738.259 151.297C738.259 154.401 738.327 155.208 740.629 156.948C740.02 154.901 740.223 153.469 740.223 153.469C740.223 153.469 743.27 155.146 746.249 150.547C744.218 155.083 745.64 156.703 746.114 156.828C746.587 157.635 745.301 161.302 749.363 161.24C747.806 159.87 748.551 157.88 748.551 157.88C748.551 157.88 752.817 157.26 751.327 150.177C752.884 148.745 753.494 150.115 753.494 150.115C753.494 150.115 753.968 154.339 757.692 153.469C759.39 154.339 757.426 156.641 757.426 156.641C757.426 156.641 760.129 156.703 760.942 154.589C761.754 152.474 762.707 148.682 758.233 147.13C757.692 145.641 759.999 145.516 759.999 145.516C759.999 145.516 762.843 146.385 763.65 147.693C764.462 148.995 764.197 144.271 760.671 143.776C756.337 143.651 756.067 142.844 756.067 142.656C756.067 142.469 755.327 132.094 754.983 129.109L748.009 129.542Z" fill="#EF7D00" stroke="black" stroke-width="0.962557" stroke-linecap="round" stroke-linejoin="round"/>
<path d="M763.082 141.937C763.134 141.271 755.692 132.068 757.577 130.88C759.468 131.234 762.567 135.422 765.072 134.062C764.311 132.432 762.072 133.349 759.525 129.172C756.983 124.453 756.608 117.365 747.697 109.635C753.468 117.818 766.556 122.609 767.108 120.224C767.666 117.839 755.587 108.818 756.202 106.646C758.608 111.109 770.733 121.057 779.671 120.234C780.28 118.318 772.353 114.453 770.311 110.844C764.603 107.323 749.327 95.2396 749.025 92.4375C743.462 85 739.994 82.7448 738.379 81.8906C737.754 81.2135 737.598 80.5677 737.473 80.1614C734.025 72.6927 738.593 70.2708 741.27 69.9114C743.473 69.6875 744.108 69.9896 745.697 69.2864C743.817 68.6094 741.942 67.9792 740.067 67.3073C742.515 68.9531 748.759 67.5052 747.405 72.2448C750.145 71.2917 755.973 64.9271 740.801 63.4896C735.863 58.2916 715.567 55.3073 710.483 77.9948C710.89 78.3125 711.103 78.5729 712.395 79.4583C705.983 76.6042 688.692 74.4062 682.463 73.4844C665.624 69.026 648.145 58.2812 646.463 59.6042C644.213 60.5208 656.634 71.125 655.989 71.3594C645.218 65.5937 635.384 61.5104 626.228 57.7969C619.791 55.5885 613.338 50.4427 612.629 51.4219C610.259 55.9323 622.952 67.2552 625.312 68.5885C627.676 69.8646 646.249 77.7708 645.973 77.8698C617.999 66.2135 613.312 64.1042 611.905 62.7604C609.442 62.25 603.437 54.8073 601.765 55.2864C600.848 56.1146 602.687 67.8698 616.03 73.151C618.207 74.6042 644.645 83.3073 644.384 83.9896C644.322 84.1614 614.108 72.5469 612.931 72.1302C607.108 70.0364 599.957 62.6875 598.624 63.5104C597.348 64.2604 601.916 72.2135 607.806 74.7083C610.89 75.9583 622.723 81.3385 633.384 84.7656C634.067 84.9896 614.223 77.8594 604.681 74.1979C600.353 71.9948 598.317 69.2448 597.655 69.8385C596.681 70.4271 599.233 82.1771 629.895 88.8073C630.702 89.125 640.687 86.6354 640.192 86.9687C640.072 87.0469 630.28 89.0052 629.327 88.9375C628.478 88.8177 623.114 89.5208 623.015 89.776C622.692 90.5729 624.957 94.7812 640.791 93.901C642.817 93.7916 653.796 90.2291 652.874 90.9948C652.416 91.3802 637.921 95.7031 636.817 95.7864C635.858 95.9114 630.765 96.401 630.577 96.8958C630.343 97.5729 634.343 100.568 642.848 101.047C650.374 101.417 664.681 96.8281 664.39 97.125C664.103 97.4219 650.603 101.667 650.249 101.927C649.759 102.182 644.817 102.427 644.64 102.776C644.239 103.641 651.775 110.109 674.061 103.208C671.822 105.984 661.02 107.88 661.035 108.38C660.983 108.745 663.416 110.901 667.192 111.672C669.077 112.057 671.666 111.979 674.025 111.635C678.27 110.854 682.739 109.318 688.416 104.5C689.098 106.01 674.228 112.917 674.926 113.573C678.15 116.318 688.858 113.219 689.561 112.859C690.265 112.5 710.181 102.193 710.114 101C710.421 102.526 684.431 115.49 684.713 116.021C686.379 118.464 695.259 115.891 695.681 115.667C696.108 115.443 707.015 110.036 707.311 109.875C707.614 109.714 694.494 116.922 695.666 118.016C695.098 122.698 716.15 114.786 717.796 113.802C718.624 113.312 707.686 118.219 707.655 120.547C711.176 126.01 722.457 124.276 724.197 123.078C725.067 122.474 723.171 127.135 723.78 126.714C723.994 126.625 726.233 124.193 727.098 122.432C726.822 123.964 725.582 126.365 724.864 129.125C724.14 131.885 723.931 135 722.942 138.307C722.718 139.76 729.89 135.469 728.848 125.203C729.462 130.542 726.582 140.526 727.337 141.047C728.843 142.083 733.009 136.073 733.431 132.005C734.671 134.062 737.27 138.349 739.504 139.333C739.259 136.229 739.546 136.37 738.541 133.318C739.119 129.266 739.202 123.656 739.343 117.318C745.416 127.995 747.837 132.505 746.14 140.682C747.947 141.37 750.827 134.974 750.598 131.682C752.916 140.828 762.926 142.203 763.082 141.937Z" fill="#EF7D00" stroke="black" stroke-width="0.962557" stroke-linecap="round" stroke-linejoin="round"/>
<path d="M661.942 74.1562C661.942 74.1562 657.806 77.0208 652.666 76.8542C653.952 81.5729 664.603 77.9479 664.603 77.9479C664.603 77.9479 659.463 83.1771 655.785 84.0208C657.994 85.7031 667.27 85.1146 668.832 84.2708C670.39 83.4271 673.145 80.1406 673.145 80.1406C673.145 80.1406 663.593 90.2552 662.218 90.1719C662.036 91.3541 672.228 90.9323 674.343 89.1614C676.452 87.3906 681.78 84.776 681.78 84.776C681.78 84.776 667.822 93.7135 667.176 93.7135C672.41 94.9792 682.884 92.1927 689.588 88.401C679.666 94.4687 678.749 95.5677 673.697 97.5885C678.197 98.5156 680.494 101.297 695.739 95.2291C704.468 91.4375 709.426 84.526 709.426 84.526C704.009 91.1823 695.463 96.8333 686.004 102.396C685.452 103.406 696.108 107.536 709.702 94.5573M735.785 102.312C735.785 102.312 736.702 106.271 740.379 109.307C744.051 112.344 744.327 115.292 744.327 115.292M733.947 76.5156C733.947 76.5156 735.233 80.0573 738.999 82.3333C742.858 84.6094 748.645 91.7708 749.103 93.0364C749.551 94.5677 751.77 105.599 751.582 106.776" fill="#EF7D00"/>
<path d="M661.942 74.1562C661.942 74.1562 657.806 77.0208 652.666 76.8542C653.952 81.5729 664.603 77.9479 664.603 77.9479C664.603 77.9479 659.463 83.1771 655.785 84.0208C657.994 85.7031 667.27 85.1146 668.832 84.2708C670.39 83.4271 673.145 80.1406 673.145 80.1406C673.145 80.1406 663.593 90.2552 662.218 90.1719C662.036 91.3541 672.228 90.9323 674.343 89.1614C676.452 87.3906 681.78 84.776 681.78 84.776C681.78 84.776 667.822 93.7135 667.176 93.7135C672.41 94.9792 682.884 92.1927 689.588 88.401C679.666 94.4687 678.749 95.5677 673.697 97.5885C678.197 98.5156 680.494 101.297 695.739 95.2291C704.468 91.4375 709.426 84.526 709.426 84.526C704.009 91.1823 695.463 96.8333 686.004 102.396C685.452 103.406 696.108 107.536 709.702 94.5573M735.785 102.312C735.785 102.312 736.702 106.271 740.379 109.307C744.051 112.344 744.327 115.292 744.327 115.292M733.947 76.5156C733.947 76.5156 735.233 80.0573 738.999 82.3333C742.858 84.6094 748.645 91.7708 749.103 93.0364C749.551 94.5677 751.77 105.599 751.582 106.776" stroke="black" stroke-width="0.962557" stroke-linecap="round" stroke-linejoin="round"/>
<path d="M710.53 81.9948C710.806 83.3437 705.108 90.1719 712.916 98.1823C705.843 106.104 705.843 107.115 705.843 107.115C705.843 107.115 709.796 109.141 716.864 103.573C728.53 116.724 724.645 122.745 724.645 122.745" fill="#EF7D00"/>
<path d="M710.53 81.9948C710.806 83.3437 705.108 90.1719 712.916 98.1823C705.843 106.104 705.843 107.115 705.843 107.115C705.843 107.115 709.796 109.141 716.864 103.573C728.53 116.724 724.645 122.745 724.645 122.745" stroke="black" stroke-width="0.962557" stroke-linecap="round" stroke-linejoin="round"/>
<path d="M723.713 113.458C723.713 113.458 722.64 112.047 724.556 106.771C726.28 108.677 728.197 109.089 729.041 109.859C729.879 110.63 738.686 111.802 739.244 117.203M734.067 63.9479C734.067 63.5521 732.296 60.0573 725.676 64.4219C729.223 64.625 732.728 66.4896 734.067 63.9479ZM797.212 79.9166C797.535 80.0677 816.978 83.9323 823.457 82C815.197 92.1094 798.671 85.2708 798.671 85.2708C806.77 87.5 807.093 87.3541 809.686 89.4375C810.499 91.3698 794.78 90.4739 789.598 87.7969C804.014 91.9635 804.337 91.6666 804.827 93.3021C805.473 95.5312 781.171 92.7083 779.061 89.7344C785.546 94.3437 789.108 95.2344 792.676 97.3177C788.301 99.0989 780.197 100.885 765.291 91.2187C784.895 107.578 802.556 106.536 805.311 109.51C798.509 118.729 772.098 104.005 759.947 96.5729C747.791 89.1354 786.514 114.568 790.082 114.12C788.301 116.646 775.499 114.417 774.692 113.229M802.233 97.0208C799.968 97.3177 793.16 97.3177 792.186 97.1666ZM656.249 71.4583C656.249 71.4583 671.035 78.625 677.28 78.1198C675.624 79.5521 673.145 80.1406 673.145 80.1406C674.707 80.7291 679.025 82.8385 685.546 81.4896C683.983 82.9219 681.963 84.526 681.963 84.526C681.963 84.526 687.567 86.4635 693.905 83.4271C691.973 85.6198 690.874 87.2239 690.874 87.2239L695.28 87.4739" fill="#EF7D00"/>
<path d="M723.713 113.458C723.713 113.458 722.64 112.047 724.556 106.771C726.28 108.677 728.197 109.089 729.041 109.859C729.879 110.63 738.686 111.802 739.244 117.203M797.212 79.9166C797.535 80.0677 816.978 83.9323 823.457 82C815.197 92.1094 798.671 85.2708 798.671 85.2708C806.77 87.5 807.093 87.3541 809.686 89.4375C810.499 91.3698 794.78 90.4739 789.598 87.7969C804.014 91.9635 804.337 91.6666 804.827 93.3021C805.473 95.5312 781.171 92.7083 779.061 89.7344C785.546 94.3437 789.108 95.2344 792.676 97.3177C788.301 99.0989 780.197 100.885 765.291 91.2187C784.895 107.578 802.556 106.536 805.311 109.51C798.509 118.729 772.098 104.005 759.947 96.5729C747.791 89.1354 786.514 114.568 790.082 114.12C788.301 116.646 775.499 114.417 774.692 113.229M802.233 97.0208C799.968 97.3177 793.16 97.3177 792.186 97.1666M656.249 71.4583C656.249 71.4583 671.035 78.625 677.28 78.1198C675.624 79.5521 673.145 80.1406 673.145 80.1406C674.707 80.7291 679.025 82.8385 685.546 81.4896C683.983 82.9219 681.963 84.526 681.963 84.526C681.963 84.526 687.567 86.4635 693.905 83.4271C691.973 85.6198 690.874 87.2239 690.874 87.2239L695.28 87.4739M734.067 63.9479C734.067 63.5521 732.296 60.0573 725.676 64.4219C729.223 64.625 732.728 66.4896 734.067 63.9479Z" stroke="black" stroke-width="0.962557" stroke-linecap="round" stroke-linejoin="round"/>
</g>
<defs>
<clipPath id="clip0_0_1">
<rect width="900" height="450" fill="white"/>
</clipPath>
</defs>
</svg>
