<svg width="900" height="450" viewBox="0 0 900 450" fill="none" xmlns="http://www.w3.org/2000/svg">
<g clip-path="url(#clip0_765_17414)">
<path d="M900 0H0V450H900V0Z" fill="#1E1E1E"/>
<mask id="mask0_765_17414" style="mask-type:luminance" maskUnits="userSpaceOnUse" x="0" y="0" width="900" height="450">
<path d="M900 0H0V450H900V0Z" fill="white"/>
</mask>
<g mask="url(#mask0_765_17414)">
<mask id="mask1_765_17414" style="mask-type:luminance" maskUnits="userSpaceOnUse" x="0" y="0" width="900" height="450">
<path d="M0 0H900V450H0V0Z" fill="white"/>
</mask>
<g mask="url(#mask1_765_17414)">
<path d="M0 0H900V450H0V0Z" fill="white"/>
<path d="M0 0H900V450H0V0Z" fill="white"/>
<path d="M0 0H900V450H0V0Z" fill="#006400"/>
</g>
<mask id="mask2_765_17414" style="mask-type:luminance" maskUnits="userSpaceOnUse" x="0" y="64" width="900" height="322">
<path d="M0 64H900V385.333H0V64Z" fill="white"/>
</mask>
<g mask="url(#mask2_765_17414)">
<path d="M0 64.1927H900V385.146H0V64.1927Z" fill="#FFD200"/>
</g>
<mask id="mask3_765_17414" style="mask-type:luminance" maskUnits="userSpaceOnUse" x="0" y="128" width="900" height="194">
<path d="M0 128H900V321.333H0V128Z" fill="white"/>
</mask>
<g mask="url(#mask3_765_17414)">
<path d="M0 128.38H900V320.953H0V128.38Z" fill="#D40000"/>
</g>
<mask id="mask4_765_17414" style="mask-type:luminance" maskUnits="userSpaceOnUse" x="0" y="192" width="900" height="66">
<path d="M0 192H900V257.333H0V192Z" fill="white"/>
</mask>
<g mask="url(#mask4_765_17414)">
<path d="M0 192.573H900V256.76H0V192.573Z" fill="black"/>
</g>
<mask id="mask5_765_17414" style="mask-type:luminance" maskUnits="userSpaceOnUse" x="0" y="0" width="301" height="450">
<path d="M0 0H300.667V449.333H0V0Z" fill="white"/>
</mask>
<g mask="url(#mask5_765_17414)">
<path d="M0 0V449.333L299.557 224.667L0 0Z" fill="black"/>
</g>
<mask id="mask6_765_17414" style="mask-type:luminance" maskUnits="userSpaceOnUse" x="0" y="0" width="421" height="450">
<path d="M0 0H420.667V449.333H0V0Z" fill="white"/>
</mask>
<g mask="url(#mask6_765_17414)">
<path d="M0 0V449.334L299.557 224.667L0 0Z" stroke="black" stroke-width="21.3969"/>
</g>
<mask id="mask7_765_17414" style="mask-type:luminance" maskUnits="userSpaceOnUse" x="0" y="0" width="301" height="450">
<path d="M0 0H300.667V449.333H0V0Z" fill="white"/>
</mask>
<g mask="url(#mask7_765_17414)">
<path d="M0 0V449.333L299.557 224.667L0 0Z" fill="white"/>
</g>
<path d="M114.625 111.708L173.958 294.292L18.625 181.458H210.625L55.2917 294.313L114.625 111.708Z" fill="#D40000"/>
<path fill-rule="evenodd" clip-rule="evenodd" d="M109.703 155.964C109.448 155.667 109.177 155.391 108.885 155.125C108.599 154.865 108.292 154.62 107.974 154.391C107.661 154.167 107.328 153.958 106.99 153.771C106.646 153.578 106.297 153.411 105.932 153.26C105.573 153.115 105.203 152.99 104.828 152.88C104.453 152.776 104.073 152.693 103.687 152.63C103.302 152.568 102.917 152.531 102.526 152.516C102.135 152.495 101.745 152.505 101.354 152.531C100.969 152.562 100.578 152.609 100.198 152.687C99.8125 152.76 99.4375 152.854 99.0625 152.969C98.6927 153.089 98.3281 153.224 97.9687 153.385C97.6146 153.547 97.2708 153.724 96.9323 153.922C96.5989 154.125 96.276 154.344 95.9635 154.578C95.6562 154.818 95.3594 155.068 95.0781 155.339C94.7969 155.615 94.5364 155.901 94.2864 156.203C94.0417 156.5 93.8125 156.818 93.5989 157.146C91.776 157.104 89.9687 157.234 88.1719 157.547C87.7604 157.615 87.3594 157.734 86.9687 157.896C86.5833 158.057 86.2187 158.26 85.875 158.5C85.5312 158.745 85.2239 159.026 84.9427 159.339C84.6614 159.651 84.4219 159.99 84.2187 160.359C84.0156 160.729 83.8542 161.115 83.7396 161.516C83.625 161.922 83.5521 162.333 83.526 162.75C83.5052 163.172 83.526 163.589 83.5989 164C83.6667 164.417 83.7812 164.818 83.9427 165.203L90.0677 164.844C91.3229 165.547 92.3229 166.521 93.0677 167.75C93.8125 168.984 94.2031 170.323 94.25 171.76L94.9635 196.104C93.7604 198.578 93.1823 201.193 93.2135 203.948C93.25 207.224 93.5104 210.479 93.9896 213.719C94.2344 215.339 94.1042 216.932 93.6042 218.495C93.1042 220.052 92.2812 221.422 91.1406 222.599C87.5573 226.255 84.4844 230.297 81.9167 234.724C81.4323 235.547 81.0833 236.422 80.8698 237.349C80.6562 238.276 80.5833 239.214 80.6562 240.167C80.7292 241.115 80.9427 242.031 81.2969 242.917C81.651 243.802 82.1302 244.615 82.7292 245.349L89.7031 272.354H142.094L145 249.443C145.307 247.042 145.87 244.703 146.698 242.427C147.526 240.151 148.589 237.995 149.896 235.953C151.203 233.917 152.719 232.047 154.443 230.344C156.161 228.646 158.052 227.151 160.109 225.875L162.172 226.458C162.505 226.552 162.844 226.589 163.193 226.562C163.542 226.536 163.875 226.458 164.193 226.318C164.51 226.177 164.797 225.984 165.052 225.75C165.302 225.51 165.51 225.234 165.667 224.922C165.823 224.615 165.927 224.286 165.969 223.937C166.016 223.594 166 223.25 165.922 222.911C165.849 222.573 165.719 222.255 165.531 221.958C165.349 221.667 165.12 221.411 164.844 221.193L115.286 182.437L113.984 166.13C113.833 164.25 113.391 162.443 112.661 160.703C111.927 158.964 110.943 157.385 109.703 155.964Z" fill="#FFD200"/>
<path d="M109.198 156.406L109.156 156.354L110.161 155.469L110.203 155.521L109.198 156.406ZM109.156 156.354C108.88 156.052 108.589 155.76 108.286 155.49L109.161 154.479C109.516 154.786 109.849 155.12 110.161 155.469L109.156 156.354ZM108.286 155.484C107.979 155.224 107.651 154.99 107.312 154.771L108.026 153.651C108.417 153.911 108.786 154.193 109.141 154.5L108.286 155.484ZM107.312 154.771C105.521 153.583 103.547 153.068 101.401 153.229L101.307 151.88C103.76 151.703 106.01 152.292 108.057 153.651L107.312 154.771ZM101.401 153.229H101.339L101.245 151.891H101.307L101.401 153.229ZM101.344 153.229C100.932 153.26 100.526 153.323 100.125 153.406L99.8489 152.089C100.307 151.995 100.771 151.927 101.24 151.891L101.344 153.229ZM100.125 153.406C99.7292 153.49 99.3385 153.599 98.9583 153.734L98.5052 152.474C98.9427 152.318 99.3906 152.188 99.8489 152.089L100.125 153.406ZM98.9583 153.734C96.9271 154.453 95.3333 155.719 94.1719 157.531L93.0364 156.818C94.3646 154.745 96.1875 153.302 98.5052 152.479L98.9583 153.734ZM94.1719 157.531L93.5833 157.844V157.167L94.1719 157.531ZM93.5833 157.844H93.3854V156.505H93.5833L93.5521 157.854L93.5833 157.844ZM93.4062 157.844H92.6927V156.495H93.4635L93.4062 157.844ZM92.6927 157.844H91.9792L91.9323 156.505H92.7031L92.6927 157.844ZM91.9792 157.844C90.7552 157.885 89.5417 158.016 88.3333 158.224L88.1146 156.896C89.3802 156.682 90.651 156.552 91.9323 156.505L91.9792 157.844ZM88.3333 158.224L88.0364 156.911L88.2552 158.24L88.3333 158.224ZM88.0781 156.901L88.1927 157.568L88.0729 156.901H88.0781ZM88.3125 158.229C88.1094 158.266 87.9062 158.313 87.7083 158.375L87.3177 157.089C87.5677 157.01 87.8229 156.948 88.0781 156.901L88.3125 158.229ZM87.7083 158.375C87.5104 158.432 87.3177 158.505 87.1302 158.594L86.5833 157.365C86.8125 157.26 87.0521 157.167 87.2969 157.089L87.7083 158.375ZM87.1354 158.594C86.1458 159.042 85.3906 159.745 84.8646 160.698L83.6875 160.047C84.3437 158.844 85.2969 157.948 86.5364 157.365L87.1354 158.594ZM84.8646 160.656V160.724L83.6771 160.083V160.021L84.8646 160.656ZM83.6406 160.094L84.2344 160.411L83.6406 160.099V160.094ZM84.8281 160.719C84.7292 160.901 84.6458 161.089 84.5677 161.281L83.3125 160.802C83.4114 160.563 83.5208 160.323 83.6406 160.094L84.8281 160.719ZM83.3125 160.813L83.9427 161.052L83.3125 160.818V160.813ZM84.5677 161.281C84.4948 161.474 84.4375 161.672 84.3854 161.875L83.0885 161.552C83.1458 161.313 83.2239 161.073 83.3125 160.839L84.5677 161.281ZM84.3854 161.87C84.1354 162.911 84.2135 163.932 84.6198 164.927L83.3802 165.432C82.8594 164.172 82.7604 162.88 83.0885 161.552L84.3854 161.87ZM84.0364 165.854L83.3802 165.432L84 165.177L84.0364 165.854ZM83.9583 164.505L90.0833 164.141L90.1614 165.49L84.0364 165.854L83.9583 164.505ZM90.0833 164.141L90.4479 164.229L90.125 164.818L90.0833 164.141ZM90.4479 164.229L90.6042 164.323L89.8906 165.474L89.7708 165.406L90.4167 164.229H90.4479ZM90.6042 164.323C90.9739 164.531 91.3229 164.771 91.6614 165.036L90.8177 166.083C90.5364 165.849 90.2344 165.646 89.9167 165.464L90.6042 164.323ZM91.6614 165.036C91.9896 165.302 92.2969 165.594 92.5885 165.906L91.6094 166.818C91.3646 166.557 91.0989 166.323 90.8177 166.104L91.6614 165.036ZM92.5885 165.906C94.1146 167.536 94.9062 169.474 94.9687 171.708H93.6302C93.5729 169.813 92.901 168.172 91.6094 166.781L92.5885 165.906ZM94.9687 171.708L95.6823 196.052L94.3437 196.089L93.6302 171.745L94.9687 171.708ZM95.6823 196.052L95.6198 196.359L95.0104 196.068H95.6823V196.052ZM95.6198 196.359C95.5729 196.443 95.5156 196.557 95.4687 196.682L94.25 196.115C94.2917 196.016 94.3437 195.917 94.4062 195.781L95.6198 196.359ZM95.4687 196.672C95.3177 197 95.1771 197.339 95.0469 197.672L93.7969 197.193C93.9323 196.839 94.0833 196.479 94.25 196.115L95.4687 196.672ZM95.0469 197.672C94.9167 198.005 94.8073 198.349 94.6979 198.693L93.4114 198.292C93.526 197.922 93.6562 197.578 93.7917 197.193L95.0469 197.672ZM94.6979 198.693C94.1667 200.391 93.9114 202.13 93.9323 203.911H92.5937C92.5677 201.99 92.8385 200.109 93.4114 198.276L94.6979 198.677V198.693ZM93.8646 203.984V204.333H92.5156V203.984H93.8646ZM93.8646 204.333V205.682L92.5208 205.729C92.5208 205.281 92.5208 204.823 92.4792 204.354H93.8281L93.8646 204.333ZM93.8646 205.682C93.8646 206.109 93.8854 206.557 93.9271 207.031L92.5781 207.099C92.5781 206.667 92.5364 206.203 92.5208 205.729L93.8646 205.682ZM93.9271 207.031C94.0521 209.26 94.2708 211.469 94.5885 213.661L93.2656 213.854C92.9271 211.609 92.7031 209.349 92.5521 207.099L93.9271 207.031ZM94.5885 213.661V213.698L93.2656 213.891L94.5885 213.661ZM94.5885 213.698C94.6614 214.172 94.6979 214.646 94.7031 215.125H93.3646C93.3542 214.698 93.3229 214.271 93.2656 213.849L94.5885 213.661V213.698ZM94.7031 215.125C94.7135 215.599 94.6875 216.078 94.6354 216.552L93.3854 216.396C93.4271 215.974 93.4479 215.547 93.4479 215.125H94.7917H94.7031ZM94.6354 216.552C94.3385 219.083 93.2969 221.26 91.5104 223.083L90.5521 222.141C92.1562 220.552 93.0989 218.635 93.3854 216.396L94.6354 216.552ZM91.5104 223.083C91.5104 223.083 91.625 222.932 91.5885 222.99L90.4687 222.276C90.4948 222.24 90.526 222.203 90.5625 222.172L91.5104 223.083ZM91.5885 222.99L91.5104 223.083L91.0312 222.615L91.5885 222.99ZM91.5104 223.083C91.0364 223.557 90.5573 224.073 90.0833 224.625L89.1042 223.714C89.5625 223.214 90.0521 222.693 90.5989 222.141L91.5104 223.083ZM90.0521 224.62C89.5677 225.151 89.1042 225.682 88.6302 226.203L87.6771 225.328C88.1562 224.776 88.6354 224.234 89.1042 223.714L90.0521 224.62ZM88.6614 226.203C86.3073 228.964 84.2187 231.911 82.3958 235.047L81.2344 234.375C83.1042 231.167 85.2448 228.156 87.651 225.328L88.6614 226.203ZM82.4219 235.047V235.089L81.2552 234.417V234.375L82.4219 235.047ZM82.4219 235.089C82.1719 235.521 81.9583 235.979 81.7864 236.448L80.526 235.995C80.7187 235.448 80.9583 234.922 81.2396 234.417L82.4219 235.089ZM81.7864 236.448C81.6198 236.911 81.4896 237.391 81.401 237.875L80.0833 237.641C80.1875 237.083 80.3333 236.536 80.526 236L81.7864 236.448ZM81.401 237.875C81.1771 239.13 81.2239 240.375 81.5469 241.609C81.8698 242.839 82.4375 243.948 83.25 244.932L82.2187 245.786C81.276 244.651 80.6198 243.375 80.2448 241.948C79.8698 240.526 79.8177 239.089 80.0781 237.641L81.401 237.875ZM83.25 244.932L83.3802 245.188L82.7292 245.359L83.25 244.932ZM83.3802 245.188L90.3594 272.198L89.0625 272.531L82.0833 245.531L83.3802 245.188ZM89.7135 273.036L89.0625 272.531L89.7135 272.359V273.036ZM89.7135 271.693H142.099V273.036H89.7135V271.693ZM142.76 272.453L142.099 273.047V272.37L142.76 272.453ZM141.437 272.292L144.339 249.375L145.672 249.536L142.76 272.453L141.437 272.292ZM144.339 249.375V249.339L145.672 249.51C145.672 249.688 145.672 249.432 145.672 249.51L144.339 249.344V249.375ZM145.672 249.51L145.01 249.422L145.672 249.5V249.51ZM144.344 249.339C144.521 247.958 144.781 246.594 145.13 245.245L146.437 245.573C146.099 246.87 145.844 248.182 145.672 249.51L144.344 249.339ZM145.13 245.245C145.479 243.906 145.901 242.599 146.406 241.313L147.661 241.807C147.177 243.036 146.766 244.292 146.437 245.573L145.13 245.245ZM146.406 241.313C147.719 238.005 149.516 234.979 151.797 232.245C154.078 229.516 156.729 227.203 159.75 225.323L160.464 226.458C157.557 228.26 155.005 230.474 152.812 233.099C150.615 235.724 148.891 238.625 147.625 241.807L146.406 241.313ZM159.75 225.323L160.292 225.245L160.109 225.885L159.75 225.323ZM160.292 225.245L162.354 225.828L161.99 227.12L159.932 226.536L160.292 225.245ZM162.37 225.828C162.516 225.87 162.667 225.896 162.818 225.906L162.719 227.255C162.479 227.229 162.24 227.188 162.005 227.13L162.37 225.828ZM162.818 225.906C162.969 225.917 163.12 225.917 163.266 225.906L163.427 227.24C163.187 227.266 162.948 227.266 162.714 227.24L162.818 225.906ZM163.266 225.906C164.094 225.807 164.698 225.385 165.078 224.646L166.276 225.25C166 225.802 165.604 226.25 165.099 226.604C164.594 226.958 164.036 227.172 163.427 227.24L163.266 225.906ZM165.073 224.646C165.141 224.51 165.198 224.365 165.234 224.219L166.526 224.573C166.464 224.807 166.375 225.031 166.271 225.245L165.073 224.646ZM165.234 224.219C165.276 224.073 165.297 223.927 165.307 223.776L166.656 223.875C166.641 224.12 166.599 224.354 166.536 224.589L165.234 224.219ZM165.312 223.776C165.38 222.948 165.083 222.271 164.432 221.755L165.25 220.703C165.74 221.078 166.109 221.547 166.359 222.104C166.615 222.667 166.719 223.255 166.677 223.87L165.312 223.776ZM164.432 221.755L114.87 183.005L115.693 181.943L165.25 220.703L164.432 221.755ZM114.87 183.005L114.609 182.531L115.281 182.474L114.87 183.005ZM114.609 182.531L113.312 166.182L114.661 166.073L115.969 182.385L114.609 182.531ZM113.312 166.182V166.125L114.661 166.021V166.073L113.312 166.182ZM113.312 166.125C113.271 165.599 113.208 165.099 113.12 164.62L114.448 164.401C114.542 164.953 114.609 165.5 114.656 166.021L113.312 166.125ZM113.12 164.62C113.036 164.125 112.927 163.635 112.792 163.151L114.089 162.802C114.234 163.323 114.354 163.859 114.448 164.401L113.12 164.62ZM112.792 163.151C112.125 160.625 110.937 158.38 109.224 156.406L110.24 155.521C112.078 157.651 113.354 160.078 114.068 162.802" fill="black"/>
<path d="M109.568 200.219L108.276 199.823V199.745L109.547 200.188L109.568 200.219ZM109.568 200.219C109.448 200.568 109.354 200.927 109.276 201.286L107.964 201.016C108.047 200.604 108.156 200.198 108.292 199.797L109.568 200.219ZM109.276 201.286C109.198 201.646 109.146 202.01 109.115 202.38L107.776 202.255C107.812 201.839 107.875 201.427 107.964 201.016L109.276 201.286ZM109.115 202.38C108.927 204.302 109.286 206.115 110.187 207.823L109 208.448C107.979 206.505 107.573 204.443 107.776 202.255L109.115 202.38ZM110.187 207.823C110.359 208.151 110.552 208.469 110.766 208.776L109.656 209.531C109.417 209.182 109.198 208.823 109 208.448L110.187 207.823ZM110.766 208.776C110.974 209.083 111.198 209.375 111.437 209.656L110.427 210.526C110.146 210.208 109.891 209.88 109.656 209.531L110.766 208.776ZM111.437 209.656C112.708 211.12 114.276 212.115 116.146 212.641L115.781 213.943C113.651 213.339 111.865 212.198 110.427 210.526" fill="black"/>
<path d="M115.667 182.995L95.3229 196.896L94.5625 195.786L114.911 181.875" fill="black"/>
<path fill-rule="evenodd" clip-rule="evenodd" d="M104.469 160.948C104.469 160.594 104.401 160.255 104.266 159.927C104.13 159.599 103.937 159.313 103.687 159.063C103.437 158.813 103.151 158.62 102.823 158.484C102.495 158.349 102.156 158.281 101.802 158.281C101.448 158.281 101.109 158.349 100.781 158.484C100.453 158.62 100.167 158.813 99.9167 159.063C99.6667 159.313 99.4739 159.599 99.3385 159.927C99.2031 160.255 99.1354 160.594 99.1354 160.948C99.1354 161.302 99.2031 161.641 99.3385 161.969C99.4739 162.297 99.6667 162.583 99.9167 162.833C100.167 163.083 100.453 163.276 100.781 163.411C101.109 163.547 101.448 163.615 101.802 163.615C102.156 163.615 102.495 163.547 102.823 163.411C103.151 163.276 103.437 163.083 103.687 162.833C103.937 162.583 104.13 162.297 104.266 161.969C104.401 161.641 104.469 161.302 104.469 160.948Z" fill="#FFD200"/>
<path d="M103.797 160.948C103.807 160.391 103.609 159.911 103.214 159.521L104.161 158.563C104.818 159.214 105.146 160 105.146 160.927L103.797 160.948ZM103.214 159.521C102.823 159.125 102.344 158.927 101.786 158.938V157.625C102.703 157.625 103.484 157.953 104.135 158.599L103.193 159.557L103.214 159.521ZM101.786 158.938C101.229 158.927 100.755 159.125 100.359 159.521L99.4115 158.573C100.062 157.917 100.844 157.589 101.766 157.589L101.786 158.938ZM100.359 159.521C99.9687 159.917 99.776 160.391 99.776 160.948H98.4375C98.4323 160.026 98.7604 159.245 99.4115 158.599L100.359 159.542V159.521ZM99.776 160.948C99.7708 161.505 99.9687 161.979 100.359 162.375L99.4427 163.328C98.7917 162.677 98.4635 161.891 98.4635 160.969L99.776 160.948ZM100.359 162.375C100.755 162.766 101.229 162.958 101.786 162.958V164.297C100.87 164.297 100.089 163.974 99.4427 163.323L100.391 162.375H100.359ZM101.786 162.958C102.344 162.958 102.818 162.766 103.214 162.375L104.172 163.318C103.521 163.969 102.734 164.297 101.807 164.297L101.786 162.958ZM103.214 162.375C103.609 161.979 103.802 161.505 103.797 160.948H105.146C105.141 161.865 104.812 162.646 104.172 163.292L103.214 162.344V162.375Z" fill="black"/>
<path d="M99.0937 224.667H99.1406L99.7396 225.875H99.6979L99.0937 224.667ZM99.0937 224.667C99.6354 224.391 100.151 224.073 100.641 223.714L101.437 224.786C100.885 225.198 100.302 225.557 99.6927 225.865L99.0937 224.667ZM100.641 223.714C101.13 223.354 101.589 222.964 102.016 222.526L102.979 223.464C102.51 223.948 102.01 224.391 101.469 224.786L100.641 223.714ZM102.016 222.526C103.089 221.411 103.88 220.12 104.396 218.661C104.911 217.198 105.104 215.698 104.969 214.156L106.318 214.042C106.464 215.776 106.245 217.469 105.661 219.109C105.083 220.755 104.187 222.203 102.979 223.464" fill="black"/>
<path d="M108.307 210.469H108.255L107.656 209.26H107.708L108.307 210.469ZM108.266 210.49C108.078 210.578 107.906 210.682 107.745 210.807L106.937 209.734C107.161 209.563 107.401 209.417 107.651 209.292L108.266 210.49ZM107.745 210.807C107.583 210.927 107.432 211.063 107.292 211.208L106.323 210.281C106.516 210.083 106.719 209.901 106.937 209.734L107.745 210.807ZM107.292 211.208C106.547 212 106.219 212.938 106.318 214.021L104.969 214.13C104.906 213.422 104.995 212.734 105.229 212.063C105.464 211.391 105.828 210.797 106.323 210.281" fill="black"/>
<path d="M115.859 230.203L113.719 231.089L113.208 229.844L115.344 228.958L115.859 230.203ZM113.719 231.089C113.005 231.38 112.292 231.688 111.578 231.984L111.052 230.75C111.766 230.443 112.479 230.135 113.193 229.844L113.719 231.089ZM111.578 231.984C107.922 233.547 104.302 235.208 100.719 236.979L100.125 235.771C103.719 234.01 107.365 232.344 111.052 230.781" fill="black"/>
<path d="M115.38 228.938C116.135 228.641 116.865 228.281 117.562 227.87L118.24 229.031C117.484 229.474 116.698 229.859 115.885 230.188L115.38 228.938ZM117.562 227.87C118.255 227.469 118.917 227.021 119.547 226.521L120.391 227.578C119.708 228.099 118.995 228.578 118.25 229.005L117.562 227.87ZM119.547 226.521C121.177 225.234 122.526 223.703 123.594 221.922C124.667 220.146 125.391 218.234 125.766 216.193L127.083 216.438C126.682 218.641 125.906 220.698 124.755 222.62C123.599 224.536 122.146 226.188 120.391 227.578" fill="black"/>
<path d="M108.75 231.797H152.469V233.146H108.75" fill="black"/>
<path fill-rule="evenodd" clip-rule="evenodd" d="M118.828 240.672C118.828 240 118.698 239.354 118.443 238.729C118.182 238.109 117.818 237.563 117.339 237.089C116.865 236.609 116.318 236.245 115.698 235.984C115.073 235.729 114.427 235.599 113.755 235.599C113.083 235.599 112.437 235.729 111.812 235.984C111.193 236.245 110.646 236.609 110.172 237.089C109.693 237.563 109.328 238.109 109.068 238.729C108.812 239.354 108.682 240 108.682 240.672C108.682 241.344 108.812 241.99 109.068 242.615C109.328 243.234 109.693 243.781 110.172 244.255C110.646 244.734 111.193 245.099 111.812 245.359C112.437 245.615 113.083 245.745 113.755 245.745C114.427 245.745 115.073 245.615 115.698 245.359C116.318 245.099 116.865 244.734 117.339 244.255C117.818 243.781 118.182 243.234 118.443 242.615C118.698 241.99 118.828 241.344 118.828 240.672Z" fill="#FFD200"/>
<path d="M118.156 240.672C118.151 239.458 117.724 238.427 116.865 237.568L117.812 236.615C118.937 237.734 119.5 239.083 119.495 240.672H118.156ZM116.865 237.568C116.01 236.714 114.979 236.286 113.771 236.286V234.938C115.349 234.938 116.698 235.495 117.812 236.615L116.865 237.568ZM113.771 236.286C112.557 236.281 111.521 236.708 110.661 237.568L109.714 236.62C110.828 235.495 112.182 234.932 113.771 234.938V236.286ZM110.661 237.568C109.802 238.422 109.375 239.453 109.375 240.667H108.026C108.036 239.089 108.594 237.74 109.714 236.62L110.661 237.568ZM109.375 240.667C109.375 241.875 109.802 242.911 110.661 243.766L109.719 244.724C108.599 243.604 108.036 242.25 108.026 240.667H109.375ZM110.661 243.766C111.516 244.625 112.552 245.052 113.76 245.052V246.401C112.182 246.401 110.833 245.844 109.719 244.724L110.661 243.766ZM113.76 245.052C114.974 245.052 116.01 244.625 116.865 243.766L117.823 244.714C116.698 245.839 115.349 246.396 113.76 246.401V245.052ZM117.823 244.714L117.344 244.24L117.823 244.708V244.714ZM116.865 243.766C117.719 242.911 118.151 241.88 118.156 240.672H119.495C119.5 242.25 118.937 243.599 117.823 244.714L116.865 243.766Z" fill="black"/>
<path fill-rule="evenodd" clip-rule="evenodd" d="M139.031 240.672C139.031 240 138.901 239.354 138.646 238.729C138.391 238.109 138.021 237.563 137.547 237.089C137.073 236.609 136.521 236.245 135.901 235.984C135.281 235.729 134.635 235.599 133.964 235.599C133.286 235.599 132.641 235.729 132.021 235.984C131.401 236.245 130.849 236.609 130.375 237.089C129.901 237.563 129.531 238.109 129.276 238.729C129.021 239.354 128.891 240 128.891 240.672C128.891 241.344 129.021 241.99 129.276 242.615C129.531 243.234 129.901 243.781 130.375 244.255C130.849 244.734 131.401 245.099 132.021 245.359C132.641 245.615 133.286 245.745 133.964 245.745C134.635 245.74 135.281 245.615 135.901 245.354C136.521 245.099 137.068 244.729 137.547 244.255C138.021 243.781 138.385 243.234 138.646 242.609C138.901 241.99 139.031 241.344 139.031 240.672Z" fill="#FFD200"/>
<path d="M138.318 240.672C138.318 239.458 137.891 238.422 137.026 237.568L137.984 236.615C139.104 237.734 139.667 239.089 139.667 240.672H138.318ZM137.984 236.615L137.505 237.094L137.974 236.615H137.984ZM137.036 237.568C136.182 236.714 135.151 236.286 133.937 236.286V234.938C135.521 234.938 136.87 235.495 137.984 236.615L137.036 237.568ZM133.937 236.286C132.729 236.286 131.693 236.714 130.839 237.568L129.88 236.62C131 235.5 132.354 234.938 133.937 234.938V236.286ZM130.839 237.568C129.979 238.422 129.552 239.453 129.552 240.667H128.203C128.203 239.083 128.76 237.734 129.88 236.62L130.839 237.568ZM129.552 240.667C129.552 241.875 129.979 242.911 130.839 243.766L129.891 244.724C128.766 243.604 128.203 242.25 128.203 240.667H129.552ZM130.839 243.766C131.693 244.625 132.724 245.052 133.932 245.052V246.401C132.354 246.401 131.005 245.844 129.891 244.724L130.839 243.766ZM133.932 245.052C135.146 245.052 136.177 244.625 137.036 243.766L137.984 244.714C136.865 245.839 135.516 246.401 133.932 246.401V245.052ZM137.984 244.714L137.51 244.24L137.984 244.708V244.714ZM137.036 243.766C137.891 242.911 138.318 241.88 138.318 240.672H139.667C139.667 242.255 139.104 243.599 137.984 244.714L137.036 243.766Z" fill="black"/>
<path d="M123.635 222.755L124.349 222.953L124.005 224.255L123.292 224.047L123.635 222.755ZM124.349 222.953C124.724 223.057 125.062 223.146 125.422 223.224L125.13 224.531C124.74 224.448 124.359 224.354 124.005 224.255L124.349 222.953ZM125.422 223.224C125.786 223.307 126.135 223.385 126.51 223.448L126.266 224.766C125.88 224.698 125.5 224.62 125.13 224.531L125.422 223.224ZM126.51 223.448C128.208 223.76 129.922 223.911 131.651 223.896V225.245C129.839 225.255 128.042 225.094 126.26 224.766" fill="black"/>
<path d="M131.641 223.896C131.88 223.896 132.104 223.896 132.354 223.859L132.49 225.203C132.214 225.203 131.943 225.245 131.687 225.245V223.896H131.641ZM132.354 223.859L132.422 224.531L132.349 223.859H132.354ZM132.354 223.859C132.734 223.823 133.115 223.755 133.484 223.661L133.828 224.958C133.385 225.073 132.937 225.156 132.484 225.203L132.354 223.859ZM133.484 223.661C133.849 223.563 134.203 223.438 134.547 223.281L135.089 224.516C134.677 224.698 134.26 224.844 133.828 224.958L133.484 223.661ZM134.547 223.281C136.266 222.531 137.5 221.292 138.255 219.573L139.479 220.109C139.052 221.094 138.458 221.969 137.698 222.729C136.943 223.49 136.073 224.083 135.089 224.516" fill="black"/>
<path d="M159.922 226.521L115.776 213.969L116.135 212.672L160.286 225.203" fill="black"/>
<path d="M83.6146 248.12H145.094V249.458H83.6146" fill="black"/>
<path d="M97.8073 261.479H143.391V262.818H97.8073" fill="black"/>
<path d="M119.12 256.906L114.125 261.813L113.182 260.854L118.177 255.948" fill="black"/>
<path d="M109.641 256.427L114.63 261.333L113.693 262.292L108.698 257.385" fill="black"/>
<path d="M110.109 256.906L105.12 261.813L104.177 260.854L109.167 255.948" fill="black"/>
<path d="M100.63 256.427L105.625 261.333L104.682 262.292L99.6927 257.385" fill="black"/>
<path d="M128.125 256.906L123.135 261.813L122.193 260.854L127.187 255.948" fill="black"/>
<path d="M118.646 256.427L123.641 260.854L122.698 261.813L117.708 257.385" fill="black"/>
<path d="M137.135 256.906L132.141 261.813L131.187 260.854L136.177 255.948" fill="black"/>
<path d="M127.656 256.427L132.651 260.854L131.714 261.813L126.724 257.385" fill="black"/>
<path d="M144.359 258.672L141.167 261.813L140.229 260.854L143.417 257.719" fill="black"/>
<path d="M136.667 256.427L141.656 261.333L140.724 262.292L135.729 257.385" fill="black"/>
<path d="M119.12 250.078L114.125 254.984L113.182 254.031L118.177 249.125" fill="black"/>
<path d="M109.641 249.63L114.63 254.536L113.693 255.495L108.698 250.583" fill="black"/>
<path d="M110.109 250.078L105.12 254.984L104.177 254.031L109.167 249.125" fill="black"/>
<path d="M100.63 249.63L105.625 254.536L104.682 255.495L99.6927 250.583" fill="black"/>
<path d="M128.125 250.078L123.135 254.984L122.193 254.031L127.187 249.125" fill="black"/>
<path d="M118.646 249.63L123.641 254.536L122.698 255.495L117.708 250.583" fill="black"/>
<path d="M137.135 250.078L132.141 254.984L131.187 254.031L136.177 249.125" fill="black"/>
<path d="M127.656 249.63L132.651 254.536L131.714 255.495L126.724 250.583" fill="black"/>
<path d="M145.349 250.88L141.172 254.984L140.24 254.031L144.417 249.922" fill="black"/>
<path d="M136.667 249.63L141.656 254.536L140.724 255.495L135.729 250.583" fill="black"/>
<path d="M95.9948 165.161L90.1094 165.51L90.0312 164.161L95.9167 163.812" fill="black"/>
<path d="M99.6614 225.875L99.0937 224.667L99.6667 225.88L99.6614 225.875ZM99.6927 225.875C98.5625 226.432 97.5 227.099 96.5 227.865L95.6823 226.792C96.75 225.974 97.8906 225.26 99.0937 224.651L99.6927 225.875ZM96.5 227.865C95.5208 228.609 94.6198 229.443 93.7969 230.359L92.8021 229.458C93.6719 228.484 94.6198 227.594 95.651 226.792L96.5 227.865ZM93.7969 230.359C92.7396 231.531 91.8281 232.813 91.0729 234.198C90.3177 235.589 89.7344 237.047 89.3281 238.573C88.9167 240.104 88.6979 241.656 88.6614 243.234C88.6198 244.818 88.7708 246.38 89.1042 247.927L87.7917 248.208C87.4323 246.563 87.2656 244.901 87.3021 243.214C87.3385 241.531 87.5677 239.87 88 238.24C88.4271 236.609 89.0469 235.057 89.8437 233.573C90.6458 232.089 91.6094 230.719 92.7344 229.469" fill="black"/>
<path d="M100.698 236.964L100.609 237.005L100.026 235.792L100.104 235.76L100.698 236.964ZM100.62 237.005C100.052 237.286 99.5104 237.615 99 237.984L98.2083 236.901C98.7812 236.484 99.3854 236.115 100.021 235.802L100.62 237.005ZM99 237.984C98.4896 238.349 98.0156 238.755 97.5729 239.198L96.6146 238.255C97.1042 237.76 97.6302 237.307 98.1927 236.901L99 237.984ZM97.5729 239.198C96.4375 240.365 95.5885 241.714 95.0156 243.24C94.4427 244.766 94.1979 246.344 94.276 247.969L92.9479 248.01C92.8594 246.203 93.1302 244.448 93.7656 242.75C94.4062 241.052 95.3542 239.557 96.6146 238.255" fill="black"/>
<path d="M83.6354 242.026L84.9219 241.63L83.651 241.536L83.6354 242.026ZM84.9219 241.63C85.0104 241.958 85.125 242.276 85.25 242.599L84 243.083C83.8646 242.734 83.7448 242.37 83.6354 242.026L84.9219 241.63ZM85.25 242.599C85.3698 242.911 85.5104 243.224 85.6562 243.526L84.4583 244.115C84.2864 243.781 84.1354 243.438 84 243.083L85.25 242.599ZM85.6562 243.526C86.4375 245.104 87.5156 246.443 88.901 247.542L88.0625 248.594C86.526 247.375 85.3229 245.88 84.4583 244.115" fill="black"/>
<path d="M84.8854 242.068L83.3437 245.635L82.1094 245.099L83.651 241.536" fill="black"/>
<path d="M87.8229 248.203L87.8854 247.745L89.0833 248.344L87.8229 248.203ZM87.8958 247.74C88.0573 247.417 88.2135 247.115 88.3646 246.807L89.5677 247.396L89.0833 248.359L87.8958 247.74ZM88.3646 246.807L88.8125 245.87L90.026 246.427C89.8542 246.797 89.7031 247.141 89.5677 247.396L88.3646 246.807ZM88.8125 245.87C89.5573 244.25 90.1927 242.583 90.7187 240.88L91.9948 241.271C91.4531 243.036 90.7969 244.755 90.026 246.427" fill="black"/>
<path d="M92.9583 247.995C92.8802 247.646 92.7917 247.318 92.7239 247.042L94.0208 246.708C94.1146 247.063 94.1979 247.417 94.2708 247.693L92.9583 247.995ZM92.7239 247.042C92.651 246.771 92.5677 246.458 92.4583 246.094L93.7552 245.724C93.8333 246 93.9219 246.328 94.0208 246.708L92.7239 247.042ZM93.75 245.724L93.0989 245.906L93.7396 245.724H93.75ZM92.4635 246.094C91.9948 244.474 91.4219 242.896 90.7448 241.354V240.885L92 240.812C92.7031 242.411 93.2969 244.047 93.776 245.724" fill="black"/>
<path d="M99.0937 272.214L97.1458 262.193L98.4635 261.932L100.411 271.953" fill="black"/>
<path d="M97.1719 262.359L92.5989 249L93.8698 248.573L98.4427 261.932" fill="black"/>
<path d="M101.104 256.906L97.5365 260.438L96.5937 259.479L100.161 255.948" fill="black"/>
<path d="M101.104 250.078L95.7812 255.339L94.8125 254.375L100.13 249.125" fill="black"/>
</g>
</g>
<defs>
<clipPath id="clip0_765_17414">
<rect width="900" height="450" fill="white"/>
</clipPath>
</defs>
</svg>
